<?xml version="1.0" encoding="UTF-8" standalone="no"?>
<svg xmlns:ffdec="https://www.free-decompiler.com/flash" xmlns:xlink="http://www.w3.org/1999/xlink" ffdec:objectType="frame" height="40.0px" width="85.0px" xmlns="http://www.w3.org/2000/svg">
  <g transform="matrix(1.0, 0.0, 0.0, 1.0, 42.5, 20.0)">
    <use ffdec:characterId="291" height="40.0" transform="matrix(1.0, 0.0, 0.0, 1.0, -42.5, -20.0)" width="85.0" xlink:href="#shape0"/>
  </g>
  <defs>
    <g id="shape0" transform="matrix(1.0, 0.0, 0.0, 1.0, 42.5, 20.0)">
      <path d="M22.5 -20.0 Q30.8 -20.0 36.65 -14.15 42.5 -8.3 42.5 0.0 42.5 8.3 36.65 14.15 30.8 20.0 22.5 20.0 L-22.5 20.0 Q-30.8 20.0 -36.65 14.15 -42.5 8.3 -42.5 0.0 -42.5 -8.3 -36.65 -14.15 -30.8 -20.0 -22.5 -20.0 L22.5 -20.0" fill="#000000" fill-opacity="0.49803922" fill-rule="evenodd" stroke="none"/>
      <path d="M6.45 -4.4 L6.45 -4.65 Q6.45 -7.35 4.55 -9.25 2.65 -11.15 -0.05 -11.15 -2.75 -11.15 -4.7 -9.25 -6.55 -7.35 -6.55 -4.65 L-6.55 -4.4 -6.55 0.0 6.5 0.0 6.45 -4.4 M9.3 -4.7 L9.3 0.0 11.6 0.0 11.6 14.0 -11.7 14.0 -11.7 0.0 -9.35 0.0 -9.35 -4.7 Q-9.35 -8.55 -6.65 -11.3 -3.9 -14.0 -0.05 -14.0 3.85 -14.0 6.55 -11.3 9.3 -8.55 9.3 -4.7" fill="#ffffff" fill-rule="evenodd" stroke="none"/>
    </g>
  </defs>
</svg>
