<?xml version="1.0" encoding="UTF-8"?>
<svg width="209px" height="40px" viewBox="0 0 209 40" version="1.1" xmlns="http://www.w3.org/2000/svg" xmlns:xlink="http://www.w3.org/1999/xlink">
    <title>Combined Shape</title>
    <g id="Page-1" stroke="none" stroke-width="1" fill="none" fill-rule="evenodd">
        <path d="M0.55,35.15 C0.15,36.85 1.15,38.3 3.85,38.9 C4.1,39 4.4,39 4.7,39 C6.6,38.85 8.9,38.75 12.1,38.8 C26.05,38.9 25.8,38.95 28.6,38.6 C29.5,38.5 30.35,38.3 31.2,38.15 C37.6,36.45 41.4,33 43.6,26.55 C44.2,25.05 44.5,23.45 44.65,21.8 C44.95,18.45 44.55,15.15 43.4,12.2 C40.95,5.6 36.8,2.2 29.95,0.8 C28.3,0.45 26.9,0.2 23.05,0.2 C19.85,0.2 15.05,0.2 7.15,0.6 L5.15,0.7 L4.9,0.7 C4.7,0.75 4.4,0.75 4.2,0.8 C1.05,1.45 0.15,2.4 0.55,4.1 C0.75,5.05 1,5.45 1.25,5.6 C4.3,7.1 4.2,7.35 4.6,14.15 C4.8,16.05 4.85,18.6 4.8,22.85 C4.7,31.9 4.8,32.45 3.05,33.1 C1,33.9 0.8,34 0.55,35.15 Z M24,32.1 C18.25,33.4 17.75,31.95 18.3,20.8 C18.5,16.7 18.55,12.7 18.4,8.95 C18.3,7.05 19.1,6.4 22.4,7.35 C26.3,8.35 27.7,10 29.15,15.95 C29.35,16.8 29.5,17.8 29.55,18.85 C30,27.2 27.25,31.4 24,32.1 Z M48.2,26.8 C48.3,28.2 48.65,29.65 49.2,31.05 C51.2,36.15 55,38.95 60.4,39.6 C64.95,40.2 68.95,39.2 71.8,37.3 C75.15,35.05 76,33.45 75.55,32 C75.25,31.15 74.65,30.5 73.95,30.2 C73.25,29.9 73,29.9 72.85,30 C72.65,30.15 72.45,30.25 72.2,30.4 C67.2,33.15 63.7,32.95 61.5,30.45 C60.5,29.35 60.15,28.8 59.95,28 C59.65,27.1 60,26.55 60.6,26.45 C60.8,26.45 61,26.45 61.15,26.55 C68.75,27.65 73.75,26.9 75.15,26 C76.85,24.9 77,24.3 76.5,21.1 C75.85,17.3 73.2,13.9 68.95,12.1 C67.15,11.35 65.25,10.85 63.3,10.85 C60.8,10.9 58.25,11.65 55.9,12.95 C50.8,15.8 48.25,20.1 48.15,25.35 C48.15,25.85 48.15,26.3 48.2,26.8 Z M63,21.2 C59.55,21.35 59.3,21.3 59.75,19.1 C59.8,18.7 59.95,18.35 60.1,18 C61.3,15.9 63.5,15.55 65.05,16.85 C65.4,17.3 65.65,17.65 65.8,18.1 C66.6,20.25 66.2,20.9 64.55,21.15 L64.4,21.15 L63,21.2 Z M80.25,7.8 C80.5,8.55 80.95,9.05 81.55,9.3 C84.95,10.65 85.1,11.3 84.85,21.8 C84.6,31.55 84.2,33 83.45,33.35 C82.9,33.55 82.4,33.8 81.9,34.1 C80.85,34.7 80.75,36.55 82.05,37.7 C82.65,38.35 83.45,38.65 85.75,39 L88.2,39.4 L88.35,39.4 C88.8,39.45 89.25,39.45 89.7,39.5 C94,39.55 96.45,39.2 97.7,38.8 C98.9,38.4 99.45,38 99.9,37.5 C101.15,36.2 100.85,34.9 100.3,34.65 C98.45,33.7 98.1,33.25 97.95,31.85 L97.75,30 L97.75,29.7 L97.65,27.95 L97.55,24.55 L97.35,18.35 C97.3,16.65 97.3,15.4 97.35,14.4 L97.55,5.95 L97.6,4.5 C97.65,0.9 97.35,0.55 94.3,0.8 L91.8,1 C91.15,1.05 90.5,1.15 89.9,1.3 C83.65,2.75 81.45,4.1 80.65,5.5 C80.15,6.35 80.05,7.15 80.25,7.8 Z M104.25,14.8 C104.2,15.2 104.2,15.55 104.35,15.95 C104.65,16.7 104.95,17.1 105.25,17.2 C106.5,17.7 106.8,17.95 107.2,18.45 C107.4,18.7 107.55,19 107.65,19.25 C107.75,19.6 107.8,19.7 107.75,19.8 C107.7,21.4 107.65,23 107.65,24.55 C107.65,36.65 110,40.15 117.75,39.7 C119.4,39.6 120.9,39.1 122.85,37.8 C123.8,37.25 124.15,36.95 124.4,36.65 L125.3,35.8 C125.95,35.5 126.6,36 126.75,37.5 L126.85,39.05 C127.25,39.6 128.2,39.9 132.5,39.5 C133.25,39.4 134,39.3 134.75,39.1 L136.3,38.7 L137.2,38.45 C137.55,38.35 137.85,38.25 138.2,38.15 C140.3,37.3 141,36.8 141.55,35.9 C142.35,34.8 141.95,33.45 140.5,32.75 L138.95,31.9 L138.85,31.85 C138.55,31.5 138.45,30.95 138.65,27.7 C138.75,26.8 138.75,25.65 138.75,21.95 L138.75,17.9 L138.75,17.25 L138.8,15.15 L138.8,14.8 C138.95,12.15 138.6,11.6 136.25,11.45 C135.9,11.4 135.6,11.4 135.3,11.4 L133.65,11.5 L131.4,11.6 C128.05,11.8 126.15,12.3 125.3,12.75 C124.25,13.4 123.8,13.9 123.65,14.45 C123.35,15.4 123.6,16.1 124.05,16.4 C125.85,17.7 126.3,18.35 126.4,19.85 L126.55,20.8 L126.6,22.1 C126.95,29.8 126.25,31.6 124.3,32.3 C122.05,33.1 120.2,31.75 120.1,28.8 L120.05,27.35 L120.05,26.55 C120,20.35 120.1,17.35 120.3,15 C120.6,11.15 120.35,11 112.55,11.9 C109.95,12.2 108.35,12.45 107.7,12.65 C105.1,13.35 104.45,13.85 104.25,14.8 Z M143.75,38 C144.2,39.05 145.25,39.7 148.6,39.75 C149.15,39.75 149.8,39.75 150.6,39.75 C151.75,39.7 152.65,39.6 153.3,39.45 C155.05,39.1 155.95,37.15 155.3,36.15 C154.3,34.5 154.25,34.45 154.95,32.7 C156.15,29.9 157.05,29.5 157.6,29.7 C157.7,29.75 157.8,29.85 157.8,29.95 C157.9,30.3 158.15,30.8 158.6,31.6 L159.55,33.3 L159.55,33.35 C159.65,34.15 159.4,34.65 159.1,34.8 C158.95,34.85 158.85,34.95 158.7,35 C157.25,35.8 157.15,37.55 158.25,38.5 C159.3,39.4 160.6,39.7 166.85,39.75 C170.5,39.8 173,39.55 174.45,39.15 C177.7,38.3 178.6,37.25 178.3,35.8 C178.15,35.05 177.75,34.55 177.15,34.4 C175.3,33.7 174.9,33.45 173.85,32 L172.85,30.75 L172.45,30.15 L172,29.5 L170.15,26.95 C169.15,25.5 169.05,25.25 169.2,25.1 C169.4,24.9 169.7,24.5 170.35,23.4 C171.45,21.55 172.05,20.65 172.5,20 C174.1,17.75 174.65,17.3 175.15,17 C177.2,15.8 177.5,15.65 177.95,14.6 C178.45,13.55 177.75,12.35 175.4,11.8 C174.75,11.7 174.1,11.6 172.75,11.6 C171.9,11.55 171.2,11.6 170.6,11.7 C166.9,12.35 166.55,13 167.25,15.8 C167.7,17.4 167.45,18.25 166.4,19.65 C165.85,20.4 165.75,20.4 165.3,19.75 L165,19.3 L164.45,18.35 C163.75,17.3 163.7,17 163.85,16.8 C164,16.6 164.05,16.45 164.15,16.25 C165.4,13.6 164.5,12 161.15,11.75 L159.5,11.65 L158.9,11.6 C158.1,11.6 157.2,11.6 156.35,11.6 C151.3,11.7 148.5,12.05 147.25,12.45 C144.6,13.3 143.8,14.9 144.45,16.25 C144.85,17 145.4,17.4 145.95,17.5 C148.15,17.85 147.6,17.6 149.55,19.5 C154.35,24.1 154.25,23.95 151,28.5 C150.3,29.4 149.65,30.5 148.95,31.75 C147.5,34.5 147.45,34.6 145.5,35.1 C143.7,35.6 143.15,36.7 143.75,38 Z M180,26.8 C180.1,28.2 180.45,29.65 181,31.05 C183,36.15 186.8,38.95 192.2,39.6 C196.75,40.2 200.75,39.2 203.6,37.3 C206.95,35.05 207.8,33.45 207.35,32 C207.05,31.15 206.45,30.5 205.75,30.2 C205.05,29.9 204.8,29.9 204.65,30 C204.45,30.15 204.25,30.25 204,30.4 C199,33.15 195.5,32.95 193.3,30.45 C192.3,29.35 191.95,28.8 191.75,28 C191.45,27.1 191.8,26.55 192.4,26.45 C192.6,26.45 192.8,26.45 192.95,26.55 C200.55,27.65 205.55,26.9 206.95,26 C208.65,24.9 208.8,24.3 208.3,21.1 C207.65,17.3 205,13.9 200.75,12.1 C198.95,11.35 197.05,10.85 195.1,10.85 C192.6,10.9 190.05,11.65 187.7,12.95 C182.6,15.8 180.05,20.1 179.95,25.35 C179.95,25.85 179.95,26.3 180,26.8 Z M194.8,21.2 C191.35,21.35 191.1,21.3 191.55,19.1 C191.6,18.7 191.75,18.35 191.9,18 C193.1,15.9 195.3,15.55 196.85,16.85 C197.2,17.3 197.45,17.65 197.6,18.1 C198.4,20.25 198,20.9 196.35,21.15 L196.2,21.15 L194.8,21.2 Z" id="Combined-Shape" fill="#FFFFFF" fill-rule="nonzero"></path>
    </g>
</svg>