<?xml version="1.0" encoding="UTF-8" standalone="no"?>
<svg xmlns:ffdec="https://www.free-decompiler.com/flash" xmlns:xlink="http://www.w3.org/1999/xlink" ffdec:objectType="frame" height="166.05px" width="108.55px" xmlns="http://www.w3.org/2000/svg">
  <g transform="matrix(1.0, 0.0, 0.0, 1.0, 39.0, 106.6)">
    <use ffdec:characterId="223" height="48.0" transform="matrix(0.9976, -0.0215, 0.0215, 0.9976, -17.476, -27.6386)" width="34.65" xlink:href="#sprite0"/>
    <use ffdec:characterId="255" height="58.05" transform="matrix(1.0, 0.0, 0.0, 1.0, -18.85, -30.0)" width="41.55" xlink:href="#shape1"/>
    <use ffdec:characterId="243" height="44.35" transform="matrix(0.9989, -0.0173, 0.0173, 0.9989, -35.0005, -46.065)" width="57.4" xlink:href="#sprite2"/>
    <use ffdec:characterId="256" height="11.1" transform="matrix(1.0, 0.0, 0.0, 1.0, 1.2, -24.55)" width="11.05" xlink:href="#shape4"/>
  </g>
  <defs>
    <g id="sprite0" transform="matrix(1.0, 0.0, 0.0, 1.0, 16.5, 24.0)">
      <use ffdec:characterId="222" height="48.0" transform="matrix(1.0, 0.0, 0.0, 1.0, -16.5, -24.0)" width="34.65" xlink:href="#sprite1"/>
    </g>
    <g id="sprite1" transform="matrix(1.0, 0.0, 0.0, 1.0, 16.5, 24.0)">
      <use ffdec:characterId="206" height="48.0" transform="matrix(1.0, 0.0, 0.0, 1.0, -16.5, -24.0)" width="34.65" xlink:href="#shape0"/>
    </g>
    <g id="shape0" transform="matrix(1.0, 0.0, 0.0, 1.0, 16.5, 24.0)">
      <path d="M16.2 -13.2 L18.15 -12.25 18.15 -8.5 16.3 -7.3 Q15.8 -4.5 14.2 -2.15 L14.0 -1.6 Q14.0 -1.35 14.15 -1.05 16.5 2.7 16.5 7.5 16.5 14.35 11.7 19.2 6.85 24.0 0.0 24.0 L-2.3 23.85 Q-7.7 23.15 -11.65 19.2 -16.5 14.35 -16.5 7.5 -16.5 0.65 -11.65 -4.15 L-11.55 -4.2 -11.15 -4.6 -10.85 -5.1 -10.85 -5.7 Q-11.5 -7.7 -11.5 -10.0 -11.5 -15.8 -7.4 -19.9 -3.3 -24.0 2.5 -24.0 8.35 -24.0 12.4 -19.9 15.3 -17.0 16.2 -13.2" fill="url(#gradient0)" fill-rule="evenodd" stroke="none"/>
    </g>
    <linearGradient gradientTransform="matrix(0.0, 0.0287, -0.0293, 0.0, 0.8, 0.0)" gradientUnits="userSpaceOnUse" id="gradient0" spreadMethod="pad" x1="-819.2" x2="819.2">
      <stop offset="0.0" stop-color="#ffff00"/>
      <stop offset="1.0" stop-color="#d1d003"/>
    </linearGradient>
    <g id="shape1" transform="matrix(1.0, 0.0, 0.0, 1.0, 18.85, 30.0)">
      <path d="M-1.05 21.05 L-1.4 26.2 Q3.45 24.9 8.8 27.05" fill="none" stroke="#000000" stroke-linecap="round" stroke-linejoin="round" stroke-width="2.0"/>
      <path d="M10.9 -21.55 Q11.5 -20.6 11.55 -19.3 11.55 -17.95 11.05 -16.9 L10.2 -16.75 Q9.15 -16.7 8.35 -17.4 7.6 -18.1 7.65 -19.2 7.55 -20.25 8.25 -20.9 8.95 -21.65 10.05 -21.7 L10.9 -21.55" fill="#000000" fill-rule="evenodd" stroke="none"/>
      <path d="M11.05 -16.9 L10.65 -16.1 10.6 -16.05 10.4 -15.85 10.25 -15.65 9.05 -14.8 Q7.65 -14.9 6.6 -15.9 5.3 -17.2 5.25 -19.15 5.15 -20.95 6.45 -22.35 7.45 -23.4 8.75 -23.55 L9.0 -23.45 10.0 -22.8 10.6 -22.0 10.9 -21.55 10.05 -21.7 Q8.95 -21.65 8.25 -20.9 7.55 -20.25 7.65 -19.2 7.6 -18.1 8.35 -17.4 9.15 -16.7 10.2 -16.75 L11.05 -16.9" fill="#00ccff" fill-rule="evenodd" stroke="none"/>
      <path d="M16.4 -16.95 L21.7 -14.5 16.55 -12.05 16.65 -14.4 16.4 -16.95 M21.7 -14.5 L16.65 -14.4 21.7 -14.5" fill="#ffcc00" fill-rule="evenodd" stroke="none"/>
      <path d="M9.05 -14.8 L8.45 -14.5 7.85 -14.35 7.45 -14.25 6.7 -14.2 6.65 -14.15 Q4.65 -14.1 3.1 -15.45 1.6 -16.85 1.55 -19.0 1.45 -21.05 2.85 -22.6 4.3 -24.05 6.4 -24.1 L6.8 -24.05 8.35 -23.7 8.75 -23.55 Q7.45 -23.4 6.45 -22.35 5.15 -20.95 5.25 -19.15 5.3 -17.2 6.6 -15.9 7.65 -14.9 9.05 -14.8" fill="#ffffff" fill-rule="evenodd" stroke="none"/>
      <path d="M16.55 -12.05 Q16.2 -8.7 14.4 -5.95 L14.65 -5.55 Q17.0 -1.8 17.1 3.05 17.25 10.35 12.35 15.65 7.3 20.85 0.1 21.0 L-1.05 21.0 -2.35 20.95 Q-8.1 20.35 -12.35 16.3 -17.7 11.3 -17.85 4.0 -18.05 -3.25 -13.05 -8.45 L-12.45 -9.0 Q-13.25 -11.15 -13.3 -13.6 -13.45 -19.8 -9.2 -24.25 -4.85 -28.85 1.3 -29.0 7.55 -29.15 12.0 -24.85 L12.9 -23.85 Q15.65 -20.85 16.4 -16.95 L21.7 -14.5 16.55 -12.05" fill="none" stroke="#000000" stroke-linecap="round" stroke-linejoin="round" stroke-width="2.0"/>
      <path d="M16.55 -12.05 L16.65 -14.4 16.4 -16.95 M10.9 -21.55 Q11.5 -20.6 11.55 -19.3 11.55 -17.95 11.05 -16.9 L10.65 -16.1 10.6 -16.05 10.4 -15.85 10.25 -15.65 9.05 -14.8 8.45 -14.5 7.85 -14.35 7.45 -14.25 6.7 -14.2 6.65 -14.15 Q4.65 -14.1 3.1 -15.45 1.6 -16.85 1.55 -19.0 1.45 -21.05 2.85 -22.6 4.3 -24.05 6.4 -24.1 L6.8 -24.05 8.35 -23.7 8.75 -23.55 9.0 -23.45 10.0 -22.8 10.6 -22.0 10.9 -21.55 10.05 -21.7 Q8.95 -21.65 8.25 -20.9 7.55 -20.25 7.65 -19.2 7.6 -18.1 8.35 -17.4 9.15 -16.7 10.2 -16.75 L11.05 -16.9 M16.65 -14.4 L21.7 -14.5" fill="none" stroke="#000000" stroke-linecap="round" stroke-linejoin="round" stroke-width="1.0"/>
    </g>
    <g id="sprite2" transform="matrix(1.0, 0.0, 0.0, 1.0, 46.3, 28.9)">
      <use ffdec:characterId="242" height="44.35" transform="matrix(1.0, 0.0, 0.0, 1.0, -46.3, -28.9)" width="57.4" xlink:href="#sprite3"/>
    </g>
    <g id="sprite3" transform="matrix(1.0, 0.0, 0.0, 1.0, 46.4, 29.15)">
      <use ffdec:characterId="225" height="13.8" transform="matrix(1.0, 0.0, 0.0, 1.0, -10.5, -6.65)" width="21.5" xlink:href="#shape2"/>
      <use ffdec:characterId="227" height="11.2" transform="matrix(1.0, 0.0, 0.0, 1.0, -24.1, -6.15)" width="28.4" xlink:href="#sprite4"/>
    </g>
    <g id="shape2" transform="matrix(1.0, 0.0, 0.0, 1.0, 10.5, 6.65)">
      <path d="M-2.65 3.3 L-5.0 3.85 Q-7.05 3.85 -8.55 2.4 -10.0 0.95 -10.0 -1.15 -10.0 -3.2 -8.55 -4.7 -7.4 -5.85 -5.8 -6.05 L-5.1 -6.15 -5.0 -6.15 -4.9 -6.15 -3.8 -6.0 -3.5 -5.9 -3.3 -5.8 -3.25 -5.8 -2.7 -5.55 Q-4.0 -5.35 -5.0 -4.35 -6.35 -3.0 -6.3 -1.15 -6.3 0.75 -5.0 2.05 -4.0 3.05 -2.65 3.3" fill="#ffffff" fill-rule="evenodd" stroke="none"/>
      <path d="M-2.65 3.3 Q-4.0 3.05 -5.0 2.05 -6.3 0.75 -6.3 -1.15 -6.35 -3.0 -5.0 -4.35 -4.0 -5.35 -2.7 -5.55 L-1.75 -5.0 -1.5 -4.75 -1.45 -4.7 -1.0 -4.15 -0.6 -3.45 -1.45 -3.6 Q-2.55 -3.6 -3.25 -2.9 -3.95 -2.2 -3.9 -1.15 -3.95 -0.1 -3.25 0.6 -2.5 1.35 -1.45 1.3 L-0.55 1.2 -1.45 2.4 Q-2.0 2.95 -2.65 3.3" fill="#99ff00" fill-rule="evenodd" stroke="none"/>
      <path d="M-0.55 1.2 L-1.45 1.3 Q-2.5 1.35 -3.25 0.6 -3.95 -0.1 -3.9 -1.15 -3.95 -2.2 -3.25 -2.9 -2.55 -3.6 -1.45 -3.6 L-0.6 -3.45 Q-0.2 -2.75 -0.05 -1.9 L0.0 -1.15 -0.2 0.35 -0.25 0.6 -0.55 1.2" fill="#000000" fill-rule="evenodd" stroke="none"/>
      <path d="M5.0 3.85 L4.8 1.25 10.0 3.85 4.85 6.15 5.0 3.85 10.0 3.85 5.0 3.85" fill="#ffcc00" fill-rule="evenodd" stroke="none"/>
      <path d="M-3.8 -6.0 L-4.9 -6.15 -5.0 -6.15 -5.1 -6.15 -5.8 -6.05 Q-7.4 -5.85 -8.55 -4.7 -10.0 -3.2 -10.0 -1.15 -10.0 0.95 -8.55 2.4 -7.05 3.85 -5.0 3.85 L-2.65 3.3 Q-2.0 2.95 -1.45 2.4 L-0.55 1.2 -1.45 1.3 Q-2.5 1.35 -3.25 0.6 -3.95 -0.1 -3.9 -1.15 -3.95 -2.2 -3.25 -2.9 -2.55 -3.6 -1.45 -3.6 L-0.6 -3.45 Q-0.2 -2.75 -0.05 -1.9 L0.0 -1.15 -0.2 0.35 -0.25 0.6 -0.55 1.2 M-2.7 -5.55 L-3.25 -5.8 -3.3 -5.8 M-0.6 -3.45 L-1.0 -4.15 -1.45 -4.7 -1.5 -4.75 -1.75 -5.0 -2.7 -5.55" ffdec:has-small-stroke="true" ffdec:original-stroke-width="1.0" fill="none" stroke="#000000" stroke-linecap="round" stroke-linejoin="round" stroke-width="1.0009488800496438"/>
      <path d="M5.0 3.85 L10.0 3.85" ffdec:has-small-stroke="true" ffdec:original-stroke-width="1.0" fill="none" stroke="#b39001" stroke-linecap="round" stroke-linejoin="round" stroke-width="1.0009488800496438"/>
      <path d="M4.85 6.15 L5.0 3.85 4.8 1.25" ffdec:has-small-stroke="true" ffdec:original-stroke-width="1.0" fill="none" stroke="#000000" stroke-linecap="round" stroke-linejoin="round" stroke-width="1.0009488800496438"/>
      <path d="M4.85 6.15 L10.0 3.85 4.8 1.25" fill="none" stroke="#000000" stroke-linecap="round" stroke-linejoin="round" stroke-width="2.0"/>
    </g>
    <g id="sprite4" transform="matrix(1.0, 0.0, 0.0, 1.0, 14.2, 5.6)">
      <use ffdec:characterId="226" height="11.2" transform="matrix(1.0, 0.0, 0.0, 1.0, -14.2, -5.6)" width="28.4" xlink:href="#shape3"/>
    </g>
    <g id="shape3" transform="matrix(1.0, 0.0, 0.0, 1.0, 14.2, 5.6)">
      <path d="M9.65 -3.95 L5.5 -4.5 1.3 -3.9 0.65 -3.2 0.2 -1.85 0.2 0.85 0.5 2.25 0.95 3.5 1.8 4.4 3.6 4.75 5.8 4.65 7.55 4.25 9.0 3.5 10.0 2.15 11.05 -0.05 11.45 -2.15 10.8 -3.15 9.65 -3.95 M14.1 -2.0 L13.05 -1.15 11.95 1.25 10.75 3.05 9.6 4.4 8.1 5.15 5.85 5.55 3.5 5.6 1.3 5.15 0.05 4.3 -0.75 2.95 -1.65 -2.05 -2.3 -2.6 -2.95 -2.7 Q-6.25 -2.6 -9.6 -1.25 -11.65 -0.05 -11.85 1.5 L-14.1 0.75 Q-14.6 -1.75 -12.0 -3.35 -7.4 -5.1 -2.8 -5.15 L6.65 -5.6 14.2 -3.85 14.1 -2.0" fill="#000000" fill-rule="evenodd" stroke="none"/>
      <path d="M9.65 -3.95 L10.8 -3.15 11.45 -2.15 11.05 -0.05 10.0 2.15 9.0 3.5 7.55 4.25 5.8 4.65 3.6 4.75 1.8 4.4 0.95 3.5 0.5 2.25 0.2 0.85 0.2 -1.85 0.65 -3.2 1.3 -3.9 5.5 -4.5 9.65 -3.95" fill="#000000" fill-opacity="0.7372549" fill-rule="evenodd" stroke="none"/>
    </g>
    <g id="shape4" transform="matrix(1.0, 0.0, 0.0, 1.0, -1.2, 24.55)">
      <path d="M5.35 -14.2 Q4.2 -14.55 3.2 -15.45 1.75 -16.9 1.7 -18.95 1.65 -21.0 3.15 -22.5 4.55 -24.0 6.6 -24.05 8.25 -24.1 9.55 -23.1 L10.15 -22.7 10.2 -22.65 10.3 -22.55 10.95 -21.7 11.1 -21.45 11.15 -21.2 11.2 -21.15 11.45 -20.6 Q10.35 -21.4 8.9 -21.35 7.05 -21.3 5.8 -19.95 4.45 -18.6 4.5 -16.75 4.55 -15.3 5.35 -14.2" fill="#ffffff" fill-rule="evenodd" stroke="none"/>
      <path d="M5.35 -14.2 Q4.55 -15.3 4.5 -16.75 4.45 -18.6 5.8 -19.95 7.05 -21.3 8.9 -21.35 10.35 -21.4 11.45 -20.6 L11.7 -19.55 11.7 -19.15 11.75 -18.4 11.5 -17.65 10.95 -18.3 Q10.2 -19.05 9.2 -19.05 8.2 -19.05 7.55 -18.3 6.8 -17.55 6.75 -16.6 6.75 -15.5 7.55 -14.8 L8.3 -14.25 6.8 -13.95 5.35 -14.2" fill="#00ccff" fill-rule="evenodd" stroke="none"/>
      <path d="M11.5 -17.65 L10.8 -16.15 10.3 -15.55 9.15 -14.6 8.95 -14.5 8.3 -14.25 7.55 -14.8 Q6.75 -15.5 6.75 -16.6 6.8 -17.55 7.55 -18.3 8.2 -19.05 9.2 -19.05 10.2 -19.05 10.95 -18.3 L11.5 -17.65" fill="#000000" fill-rule="evenodd" stroke="none"/>
      <path d="M10.95 -21.7 L10.3 -22.55 10.2 -22.65 10.15 -22.7 9.55 -23.1 Q8.25 -24.1 6.6 -24.05 4.55 -24.0 3.15 -22.5 1.65 -21.0 1.7 -18.95 1.75 -16.9 3.2 -15.45 4.2 -14.55 5.35 -14.2 L6.8 -13.95 8.3 -14.25 8.95 -14.5 9.15 -14.6 10.3 -15.55 10.8 -16.15 11.5 -17.65 10.95 -18.3 Q10.2 -19.05 9.2 -19.05 8.2 -19.05 7.55 -18.3 6.8 -17.55 6.75 -16.6 6.75 -15.5 7.55 -14.8 L8.3 -14.25 M11.45 -20.6 L11.2 -21.15 11.15 -21.2 M11.45 -20.6 L11.7 -19.55 11.7 -19.15 11.75 -18.4 11.5 -17.65" fill="none" stroke="#000000" stroke-linecap="round" stroke-linejoin="round" stroke-width="1.0"/>
    </g>
  </defs>
</svg>
