<?xml version="1.0" encoding="UTF-8" standalone="no"?>
<svg xmlns:ffdec="https://www.free-decompiler.com/flash" xmlns:xlink="http://www.w3.org/1999/xlink" ffdec:objectType="frame" height="166.05px" width="108.55px" xmlns="http://www.w3.org/2000/svg">
  <g transform="matrix(1.0, 0.0, 0.0, 1.0, 39.0, 106.6)">
    <use ffdec:characterId="223" height="48.0" transform="matrix(0.9924, 0.1085, -0.1085, 0.9924, -13.7696, -25.6075)" width="34.65" xlink:href="#sprite0"/>
    <use ffdec:characterId="257" height="56.55" transform="matrix(1.0, 0.0, 0.0, 1.0, -19.35, -25.55)" width="43.7" xlink:href="#shape1"/>
    <use ffdec:characterId="243" height="44.35" transform="matrix(0.9931, 0.1128, -0.1128, 0.9931, -28.7718, -46.1716)" width="57.4" xlink:href="#sprite2"/>
    <use ffdec:characterId="258" height="11.05" transform="matrix(1.0, 0.0, 0.0, 1.0, 3.3, -19.6)" width="11.05" xlink:href="#shape4"/>
  </g>
  <defs>
    <g id="sprite0" transform="matrix(1.0, 0.0, 0.0, 1.0, 16.5, 24.0)">
      <use ffdec:characterId="222" height="48.0" transform="matrix(1.0, 0.0, 0.0, 1.0, -16.5, -24.0)" width="34.65" xlink:href="#sprite1"/>
    </g>
    <g id="sprite1" transform="matrix(1.0, 0.0, 0.0, 1.0, 16.5, 24.0)">
      <use ffdec:characterId="206" height="48.0" transform="matrix(1.0, 0.0, 0.0, 1.0, -16.5, -24.0)" width="34.65" xlink:href="#shape0"/>
    </g>
    <g id="shape0" transform="matrix(1.0, 0.0, 0.0, 1.0, 16.5, 24.0)">
      <path d="M16.2 -13.2 L18.15 -12.25 18.15 -8.5 16.3 -7.3 Q15.8 -4.5 14.2 -2.15 L14.0 -1.6 Q14.0 -1.35 14.15 -1.05 16.5 2.7 16.5 7.5 16.5 14.35 11.7 19.2 6.85 24.0 0.0 24.0 L-2.3 23.85 Q-7.7 23.15 -11.65 19.2 -16.5 14.35 -16.5 7.5 -16.5 0.65 -11.65 -4.15 L-11.55 -4.2 -11.15 -4.6 -10.85 -5.1 -10.85 -5.7 Q-11.5 -7.7 -11.5 -10.0 -11.5 -15.8 -7.4 -19.9 -3.3 -24.0 2.5 -24.0 8.35 -24.0 12.4 -19.9 15.3 -17.0 16.2 -13.2" fill="url(#gradient0)" fill-rule="evenodd" stroke="none"/>
    </g>
    <linearGradient gradientTransform="matrix(0.0, 0.0287, -0.0293, 0.0, 0.8, 0.0)" gradientUnits="userSpaceOnUse" id="gradient0" spreadMethod="pad" x1="-819.2" x2="819.2">
      <stop offset="0.0" stop-color="#ffff00"/>
      <stop offset="1.0" stop-color="#d1d003"/>
    </linearGradient>
    <g id="shape1" transform="matrix(1.0, 0.0, 0.0, 1.0, 19.35, 25.55)">
      <path d="M-3.85 24.85 L-4.85 29.9 5.4 30.0" fill="none" stroke="#000000" stroke-linecap="round" stroke-linejoin="round" stroke-width="2.0"/>
      <path d="M13.55 -15.85 L12.75 -16.1 Q11.65 -16.2 10.9 -15.55 10.1 -14.95 10.05 -13.9 9.9 -12.85 10.5 -12.05 11.2 -11.25 12.25 -11.2 L13.1 -11.2 12.6 -10.5 12.55 -10.45 12.35 -10.25 12.15 -10.1 Q11.5 -9.6 10.85 -9.35 9.5 -9.7 8.6 -10.8 7.45 -12.25 7.65 -14.15 7.8 -16.0 9.3 -17.2 10.4 -18.1 11.7 -18.1 L11.95 -17.95 12.85 -17.2 13.35 -16.35 13.55 -15.85" fill="#00ccff" fill-rule="evenodd" stroke="none"/>
      <path d="M13.1 -11.2 L12.25 -11.2 Q11.2 -11.25 10.5 -12.05 9.9 -12.85 10.05 -13.9 10.1 -14.95 10.9 -15.55 11.65 -16.2 12.75 -16.1 L13.55 -15.85 Q14.05 -14.8 13.9 -13.5 13.75 -12.2 13.1 -11.2" fill="#000000" fill-rule="evenodd" stroke="none"/>
      <path d="M11.7 -18.1 Q10.4 -18.1 9.3 -17.2 7.8 -16.0 7.65 -14.15 7.45 -12.25 8.6 -10.8 9.5 -9.7 10.85 -9.35 L10.25 -9.15 9.65 -9.05 9.2 -9.0 8.45 -9.05 8.4 -9.05 Q6.4 -9.25 5.05 -10.8 3.75 -12.4 4.0 -14.5 4.15 -16.6 5.75 -17.9 7.35 -19.15 9.45 -18.95 L9.85 -18.85 Q10.7 -18.75 11.35 -18.3 L11.7 -18.1" fill="#ffffff" fill-rule="evenodd" stroke="none"/>
      <path d="M18.45 -10.55 L23.35 -7.45 17.95 -5.7 18.35 -8.0 18.45 -10.55 M23.35 -7.45 L18.35 -8.0 23.35 -7.45" fill="#ffcc00" fill-rule="evenodd" stroke="none"/>
      <path d="M13.1 -11.2 L12.25 -11.2 Q11.2 -11.25 10.5 -12.05 9.9 -12.85 10.05 -13.9 10.1 -14.95 10.9 -15.55 11.65 -16.2 12.75 -16.1 L13.55 -15.85 13.35 -16.35 12.85 -17.2 11.95 -17.95 11.7 -18.1 11.35 -18.3 Q10.7 -18.75 9.85 -18.85 L9.45 -18.95 Q7.35 -19.15 5.75 -17.9 4.15 -16.6 4.0 -14.5 3.75 -12.4 5.05 -10.8 6.4 -9.25 8.4 -9.05 L8.45 -9.05 9.2 -9.0 9.65 -9.05 10.25 -9.15 10.85 -9.35 Q11.5 -9.6 12.15 -10.1 L12.35 -10.25 12.55 -10.45 12.6 -10.5 13.1 -11.2 Q13.75 -12.2 13.9 -13.5 14.05 -14.8 13.55 -15.85 M17.95 -5.7 L18.35 -8.0 18.45 -10.55 M18.35 -8.0 L23.35 -7.45" fill="none" stroke="#000000" stroke-linecap="round" stroke-linejoin="round" stroke-width="1.0"/>
      <path d="M17.95 -5.7 Q17.15 -2.4 15.05 0.1 L15.25 0.5 Q17.05 4.55 16.55 9.4 15.75 16.65 10.2 21.25 4.5 25.75 -2.7 25.0 L-3.85 24.85 -5.1 24.6 Q-10.7 23.25 -14.4 18.65 -19.05 13.0 -18.25 5.75 -17.5 -1.45 -11.85 -5.95 L-11.2 -6.45 Q-11.7 -8.65 -11.45 -11.1 -10.8 -17.25 -6.0 -21.15 -1.1 -25.1 5.05 -24.45 11.25 -23.8 15.1 -18.95 L15.9 -17.85 Q18.2 -14.5 18.45 -10.55 L23.35 -7.45 17.95 -5.7 Z" fill="none" stroke="#000000" stroke-linecap="round" stroke-linejoin="round" stroke-width="2.0"/>
    </g>
    <g id="sprite2" transform="matrix(1.0, 0.0, 0.0, 1.0, 46.3, 28.9)">
      <use ffdec:characterId="242" height="44.35" transform="matrix(1.0, 0.0, 0.0, 1.0, -46.3, -28.9)" width="57.4" xlink:href="#sprite3"/>
    </g>
    <g id="sprite3" transform="matrix(1.0, 0.0, 0.0, 1.0, 46.4, 29.15)">
      <use ffdec:characterId="225" height="13.8" transform="matrix(1.0, 0.0, 0.0, 1.0, -10.5, -6.65)" width="21.5" xlink:href="#shape2"/>
      <use ffdec:characterId="227" height="11.2" transform="matrix(1.0, 0.0, 0.0, 1.0, -24.1, -6.15)" width="28.4" xlink:href="#sprite4"/>
    </g>
    <g id="shape2" transform="matrix(1.0, 0.0, 0.0, 1.0, 10.5, 6.65)">
      <path d="M-2.65 3.3 L-5.0 3.85 Q-7.05 3.85 -8.55 2.4 -10.0 0.95 -10.0 -1.15 -10.0 -3.2 -8.55 -4.7 -7.4 -5.85 -5.8 -6.05 L-5.1 -6.15 -5.0 -6.15 -4.9 -6.15 -3.8 -6.0 -3.5 -5.9 -3.3 -5.8 -3.25 -5.8 -2.7 -5.55 Q-4.0 -5.35 -5.0 -4.35 -6.35 -3.0 -6.3 -1.15 -6.3 0.75 -5.0 2.05 -4.0 3.05 -2.65 3.3" fill="#ffffff" fill-rule="evenodd" stroke="none"/>
      <path d="M-2.65 3.3 Q-4.0 3.05 -5.0 2.05 -6.3 0.75 -6.3 -1.15 -6.35 -3.0 -5.0 -4.35 -4.0 -5.35 -2.7 -5.55 L-1.75 -5.0 -1.5 -4.75 -1.45 -4.7 -1.0 -4.15 -0.6 -3.45 -1.45 -3.6 Q-2.55 -3.6 -3.25 -2.9 -3.95 -2.2 -3.9 -1.15 -3.95 -0.1 -3.25 0.6 -2.5 1.35 -1.45 1.3 L-0.55 1.2 -1.45 2.4 Q-2.0 2.95 -2.65 3.3" fill="#99ff00" fill-rule="evenodd" stroke="none"/>
      <path d="M-0.55 1.2 L-1.45 1.3 Q-2.5 1.35 -3.25 0.6 -3.95 -0.1 -3.9 -1.15 -3.95 -2.2 -3.25 -2.9 -2.55 -3.6 -1.45 -3.6 L-0.6 -3.45 Q-0.2 -2.75 -0.05 -1.9 L0.0 -1.15 -0.2 0.35 -0.25 0.6 -0.55 1.2" fill="#000000" fill-rule="evenodd" stroke="none"/>
      <path d="M5.0 3.85 L4.8 1.25 10.0 3.85 4.85 6.15 5.0 3.85 10.0 3.85 5.0 3.85" fill="#ffcc00" fill-rule="evenodd" stroke="none"/>
      <path d="M-3.8 -6.0 L-4.9 -6.15 -5.0 -6.15 -5.1 -6.15 -5.8 -6.05 Q-7.4 -5.85 -8.55 -4.7 -10.0 -3.2 -10.0 -1.15 -10.0 0.95 -8.55 2.4 -7.05 3.85 -5.0 3.85 L-2.65 3.3 Q-2.0 2.95 -1.45 2.4 L-0.55 1.2 -1.45 1.3 Q-2.5 1.35 -3.25 0.6 -3.95 -0.1 -3.9 -1.15 -3.95 -2.2 -3.25 -2.9 -2.55 -3.6 -1.45 -3.6 L-0.6 -3.45 Q-0.2 -2.75 -0.05 -1.9 L0.0 -1.15 -0.2 0.35 -0.25 0.6 -0.55 1.2 M-2.7 -5.55 L-3.25 -5.8 -3.3 -5.8 M-0.6 -3.45 L-1.0 -4.15 -1.45 -4.7 -1.5 -4.75 -1.75 -5.0 -2.7 -5.55" ffdec:has-small-stroke="true" ffdec:original-stroke-width="1.0" fill="none" stroke="#000000" stroke-linecap="round" stroke-linejoin="round" stroke-width="1.0005159023015289"/>
      <path d="M5.0 3.85 L10.0 3.85" ffdec:has-small-stroke="true" ffdec:original-stroke-width="1.0" fill="none" stroke="#b39001" stroke-linecap="round" stroke-linejoin="round" stroke-width="1.0005159023015289"/>
      <path d="M4.85 6.15 L5.0 3.85 4.8 1.25" ffdec:has-small-stroke="true" ffdec:original-stroke-width="1.0" fill="none" stroke="#000000" stroke-linecap="round" stroke-linejoin="round" stroke-width="1.0005159023015289"/>
      <path d="M4.85 6.15 L10.0 3.85 4.8 1.25" fill="none" stroke="#000000" stroke-linecap="round" stroke-linejoin="round" stroke-width="2.0"/>
    </g>
    <g id="sprite4" transform="matrix(1.0, 0.0, 0.0, 1.0, 14.2, 5.6)">
      <use ffdec:characterId="226" height="11.2" transform="matrix(1.0, 0.0, 0.0, 1.0, -14.2, -5.6)" width="28.4" xlink:href="#shape3"/>
    </g>
    <g id="shape3" transform="matrix(1.0, 0.0, 0.0, 1.0, 14.2, 5.6)">
      <path d="M9.65 -3.95 L5.5 -4.5 1.3 -3.9 0.65 -3.2 0.2 -1.85 0.2 0.85 0.5 2.25 0.95 3.5 1.8 4.4 3.6 4.75 5.8 4.65 7.55 4.25 9.0 3.5 10.0 2.15 11.05 -0.05 11.45 -2.15 10.8 -3.15 9.65 -3.95 M14.1 -2.0 L13.05 -1.15 11.95 1.25 10.75 3.05 9.6 4.4 8.1 5.15 5.85 5.55 3.5 5.6 1.3 5.15 0.05 4.3 -0.75 2.95 -1.65 -2.05 -2.3 -2.6 -2.95 -2.7 Q-6.25 -2.6 -9.6 -1.25 -11.65 -0.05 -11.85 1.5 L-14.1 0.75 Q-14.6 -1.75 -12.0 -3.35 -7.4 -5.1 -2.8 -5.15 L6.65 -5.6 14.2 -3.85 14.1 -2.0" fill="#000000" fill-rule="evenodd" stroke="none"/>
      <path d="M9.65 -3.95 L10.8 -3.15 11.45 -2.15 11.05 -0.05 10.0 2.15 9.0 3.5 7.55 4.25 5.8 4.65 3.6 4.75 1.8 4.4 0.95 3.5 0.5 2.25 0.2 0.85 0.2 -1.85 0.65 -3.2 1.3 -3.9 5.5 -4.5 9.65 -3.95" fill="#000000" fill-opacity="0.7372549" fill-rule="evenodd" stroke="none"/>
    </g>
    <g id="shape4" transform="matrix(1.0, 0.0, 0.0, 1.0, -3.3, 19.6)">
      <path d="M12.95 -16.8 L13.5 -15.85 13.6 -15.55 13.65 -15.45 13.8 -14.75 13.8 -13.95 13.1 -14.5 Q12.15 -15.05 11.2 -14.8 10.25 -14.5 9.8 -13.55 9.25 -12.65 9.5 -11.7 9.75 -10.7 10.7 -10.2 L11.55 -9.85 Q11.0 -9.45 10.2 -9.25 L8.7 -9.05 Q7.65 -9.9 7.3 -11.25 6.75 -13.05 7.7 -14.7 8.55 -16.35 10.35 -16.9 L12.95 -16.8" fill="#00ccff" fill-rule="evenodd" stroke="none"/>
      <path d="M12.95 -16.8 L10.35 -16.9 Q8.55 -16.35 7.7 -14.7 6.75 -13.05 7.3 -11.25 7.65 -9.9 8.7 -9.05 7.5 -9.1 6.4 -9.7 4.6 -10.75 4.0 -12.7 3.4 -14.7 4.45 -16.5 5.45 -18.3 7.45 -18.9 L10.5 -18.75 11.15 -18.5 11.25 -18.45 11.35 -18.4 12.25 -17.75 12.45 -17.55 12.6 -17.35 12.6 -17.3 12.95 -16.8" fill="#ffffff" fill-rule="evenodd" stroke="none"/>
      <path d="M11.55 -9.85 L10.7 -10.2 Q9.75 -10.7 9.5 -11.7 9.25 -12.65 9.8 -13.55 10.25 -14.5 11.2 -14.8 12.15 -15.05 13.1 -14.5 L13.8 -13.95 13.5 -12.35 13.2 -11.65 12.3 -10.45 12.1 -10.25 11.55 -9.85" fill="#000000" fill-rule="evenodd" stroke="none"/>
      <path d="M13.8 -13.95 L13.8 -14.75 13.65 -15.45 13.6 -15.55 13.5 -15.85 12.95 -16.8 12.6 -17.3 12.6 -17.35 M8.7 -9.05 L10.2 -9.25 Q11.0 -9.45 11.55 -9.85 L10.7 -10.2 Q9.75 -10.7 9.5 -11.7 9.25 -12.65 9.8 -13.55 10.25 -14.5 11.2 -14.8 12.15 -15.05 13.1 -14.5 L13.8 -13.95 13.5 -12.35 13.2 -11.65 12.3 -10.45 12.1 -10.25 11.55 -9.85 M12.25 -17.75 L11.35 -18.4 11.25 -18.45 11.15 -18.5 10.5 -18.75 7.45 -18.9 Q5.45 -18.3 4.45 -16.5 3.4 -14.7 4.0 -12.7 4.6 -10.75 6.4 -9.7 7.5 -9.1 8.7 -9.05" fill="none" stroke="#000000" stroke-linecap="round" stroke-linejoin="round" stroke-width="1.0"/>
    </g>
  </defs>
</svg>
