<?xml version="1.0" encoding="UTF-8" standalone="no"?>
<svg xmlns:ffdec="https://www.free-decompiler.com/flash" xmlns:xlink="http://www.w3.org/1999/xlink" ffdec:objectType="frame" height="166.05px" width="108.55px" xmlns="http://www.w3.org/2000/svg">
  <g transform="matrix(1.0, 0.0, 0.0, 1.0, 39.0, 106.6)">
    <use ffdec:characterId="223" height="48.0" transform="matrix(0.9727, 0.2262, -0.2262, 0.9727, -4.52, -37.2282)" width="34.65" xlink:href="#sprite0"/>
    <use ffdec:characterId="247" height="60.0" transform="matrix(1.0, 0.0, 0.0, 1.0, -14.25, -35.25)" width="45.55" xlink:href="#shape1"/>
    <use ffdec:characterId="243" height="44.35" transform="matrix(0.9735, 0.2282, -0.2282, 0.9735, -16.976, -59.2511)" width="57.4" xlink:href="#sprite2"/>
  </g>
  <defs>
    <g id="sprite0" transform="matrix(1.0, 0.0, 0.0, 1.0, 16.5, 24.0)">
      <use ffdec:characterId="222" height="48.0" transform="matrix(1.0, 0.0, 0.0, 1.0, -16.5, -24.0)" width="34.65" xlink:href="#sprite1"/>
    </g>
    <g id="sprite1" transform="matrix(1.0, 0.0, 0.0, 1.0, 16.5, 24.0)">
      <use ffdec:characterId="206" height="48.0" transform="matrix(1.0, 0.0, 0.0, 1.0, -16.5, -24.0)" width="34.65" xlink:href="#shape0"/>
    </g>
    <g id="shape0" transform="matrix(1.0, 0.0, 0.0, 1.0, 16.5, 24.0)">
      <path d="M16.2 -13.2 L18.15 -12.25 18.15 -8.5 16.3 -7.3 Q15.8 -4.5 14.2 -2.15 L14.0 -1.6 Q14.0 -1.35 14.15 -1.05 16.5 2.7 16.5 7.5 16.5 14.35 11.7 19.2 6.85 24.0 0.0 24.0 L-2.3 23.85 Q-7.7 23.15 -11.65 19.2 -16.5 14.35 -16.5 7.5 -16.5 0.65 -11.65 -4.15 L-11.55 -4.2 -11.15 -4.6 -10.85 -5.1 -10.85 -5.7 Q-11.5 -7.7 -11.5 -10.0 -11.5 -15.8 -7.4 -19.9 -3.3 -24.0 2.5 -24.0 8.35 -24.0 12.4 -19.9 15.3 -17.0 16.2 -13.2" fill="url(#gradient0)" fill-rule="evenodd" stroke="none"/>
    </g>
    <linearGradient gradientTransform="matrix(0.0, 0.0287, -0.0293, 0.0, 0.8, 0.0)" gradientUnits="userSpaceOnUse" id="gradient0" spreadMethod="pad" x1="-819.2" x2="819.2">
      <stop offset="0.0" stop-color="#ffff00"/>
      <stop offset="1.0" stop-color="#d1d003"/>
    </linearGradient>
    <g id="shape1" transform="matrix(1.0, 0.0, 0.0, 1.0, 14.25, 35.25)">
      <path d="M0.3 13.0 L-1.5 19.5 Q4.0 23.7 8.0 23.75" fill="none" stroke="#000000" stroke-linecap="round" stroke-linejoin="round" stroke-width="2.0"/>
      <path d="M15.7 -18.0 Q13.7 -18.45 12.6 -20.25 11.55 -22.0 12.05 -24.05 12.5 -26.05 14.3 -27.15 L15.45 -27.65 16.55 -27.85 16.6 -27.85 18.1 -27.7 Q19.35 -27.4 20.2 -26.55 18.85 -26.7 17.65 -25.95 16.05 -24.95 15.65 -23.15 15.2 -21.3 16.15 -19.75 16.85 -18.5 18.15 -18.0 16.95 -17.7 15.7 -18.0" fill="#ffffff" fill-rule="evenodd" stroke="none"/>
      <path d="M18.15 -18.0 Q16.85 -18.5 16.15 -19.75 15.2 -21.3 15.65 -23.15 16.05 -24.95 17.65 -25.95 18.85 -26.7 20.2 -26.55 L21.2 -25.45 21.7 -24.05 20.95 -24.4 19.0 -24.15 Q18.15 -23.6 17.95 -22.6 17.65 -21.6 18.2 -20.75 18.75 -19.8 19.75 -19.6 L20.65 -19.5 Q20.2 -18.95 19.5 -18.55 L18.15 -18.0" fill="#00ccff" fill-rule="evenodd" stroke="none"/>
      <path d="M21.7 -24.05 Q22.05 -22.9 21.75 -21.65 L21.2 -20.25 20.65 -19.5 19.75 -19.6 Q18.75 -19.8 18.2 -20.75 17.65 -21.6 17.95 -22.6 18.15 -23.6 19.0 -24.15 L20.95 -24.4 21.7 -24.05" fill="#000000" fill-rule="evenodd" stroke="none"/>
      <path d="M25.85 -18.2 L30.3 -14.45 24.75 -13.45 25.45 -15.65 25.85 -18.2 M30.3 -14.45 L25.45 -15.65 30.3 -14.45" fill="#ffcc00" fill-rule="evenodd" stroke="none"/>
      <path d="M24.75 -13.45 Q23.5 -10.3 21.05 -8.1 L21.15 -7.7 Q22.45 -3.4 21.25 1.35 19.5 8.4 13.35 12.15 7.15 15.9 0.1 14.15 L-2.25 13.4 Q-7.6 11.3 -10.65 6.25 -14.45 0.0 -12.7 -7.05 -10.95 -14.1 -4.75 -17.8 L-4.05 -18.15 Q-4.25 -20.45 -3.65 -22.85 -2.2 -28.85 3.1 -32.05 8.45 -35.3 14.45 -33.8 20.5 -32.3 23.7 -26.95 L24.35 -25.8 Q26.2 -22.15 25.85 -18.2 L30.3 -14.45 24.75 -13.45" fill="none" stroke="#000000" stroke-linecap="round" stroke-linejoin="round" stroke-width="2.0"/>
      <path d="M24.75 -13.45 L25.45 -15.65 25.85 -18.2 M20.2 -26.55 Q19.35 -27.4 18.1 -27.7 L16.6 -27.85 16.55 -27.85 15.45 -27.65 14.3 -27.15 Q12.5 -26.05 12.05 -24.05 11.55 -22.0 12.6 -20.25 13.7 -18.45 15.7 -18.0 M20.2 -26.55 L21.2 -25.45 21.7 -24.05 Q22.05 -22.9 21.75 -21.65 L21.2 -20.25 20.65 -19.5 Q20.2 -18.95 19.5 -18.55 L18.15 -18.0 M20.65 -19.5 L19.75 -19.6 Q18.75 -19.8 18.2 -20.75 17.65 -21.6 17.95 -22.6 18.15 -23.6 19.0 -24.15 L20.95 -24.4 21.7 -24.05 M25.45 -15.65 L30.3 -14.45" fill="none" stroke="#000000" stroke-linecap="round" stroke-linejoin="round" stroke-width="1.0"/>
    </g>
    <g id="sprite2" transform="matrix(1.0, 0.0, 0.0, 1.0, 46.3, 28.9)">
      <use ffdec:characterId="242" height="44.35" transform="matrix(1.0, 0.0, 0.0, 1.0, -46.3, -28.9)" width="57.4" xlink:href="#sprite3"/>
    </g>
    <g id="sprite3" transform="matrix(1.0, 0.0, 0.0, 1.0, 46.4, 29.15)">
      <use ffdec:characterId="225" height="13.8" transform="matrix(1.0, 0.0, 0.0, 1.0, -10.5, -6.65)" width="21.5" xlink:href="#shape2"/>
      <use ffdec:characterId="227" height="11.2" transform="matrix(1.0, 0.0, 0.0, 1.0, -24.1, -6.15)" width="28.4" xlink:href="#sprite4"/>
    </g>
    <g id="shape2" transform="matrix(1.0, 0.0, 0.0, 1.0, 10.5, 6.65)">
      <path d="M-2.65 3.3 L-5.0 3.85 Q-7.05 3.85 -8.55 2.4 -10.0 0.95 -10.0 -1.15 -10.0 -3.2 -8.55 -4.7 -7.4 -5.85 -5.8 -6.05 L-5.1 -6.15 -5.0 -6.15 -4.9 -6.15 -3.8 -6.0 -3.5 -5.9 -3.3 -5.8 -3.25 -5.8 -2.7 -5.55 Q-4.0 -5.35 -5.0 -4.35 -6.35 -3.0 -6.3 -1.15 -6.3 0.75 -5.0 2.05 -4.0 3.05 -2.65 3.3" fill="#ffffff" fill-rule="evenodd" stroke="none"/>
      <path d="M-2.65 3.3 Q-4.0 3.05 -5.0 2.05 -6.3 0.75 -6.3 -1.15 -6.35 -3.0 -5.0 -4.35 -4.0 -5.35 -2.7 -5.55 L-1.75 -5.0 -1.5 -4.75 -1.45 -4.7 -1.0 -4.15 -0.6 -3.45 -1.45 -3.6 Q-2.55 -3.6 -3.25 -2.9 -3.95 -2.2 -3.9 -1.15 -3.95 -0.1 -3.25 0.6 -2.5 1.35 -1.45 1.3 L-0.55 1.2 -1.45 2.4 Q-2.0 2.95 -2.65 3.3" fill="#99ff00" fill-rule="evenodd" stroke="none"/>
      <path d="M-0.55 1.2 L-1.45 1.3 Q-2.5 1.35 -3.25 0.6 -3.95 -0.1 -3.9 -1.15 -3.95 -2.2 -3.25 -2.9 -2.55 -3.6 -1.45 -3.6 L-0.6 -3.45 Q-0.2 -2.75 -0.05 -1.9 L0.0 -1.15 -0.2 0.35 -0.25 0.6 -0.55 1.2" fill="#000000" fill-rule="evenodd" stroke="none"/>
      <path d="M5.0 3.85 L4.8 1.25 10.0 3.85 4.85 6.15 5.0 3.85 10.0 3.85 5.0 3.85" fill="#ffcc00" fill-rule="evenodd" stroke="none"/>
      <path d="M-3.8 -6.0 L-4.9 -6.15 -5.0 -6.15 -5.1 -6.15 -5.8 -6.05 Q-7.4 -5.85 -8.55 -4.7 -10.0 -3.2 -10.0 -1.15 -10.0 0.95 -8.55 2.4 -7.05 3.85 -5.0 3.85 L-2.65 3.3 Q-2.0 2.95 -1.45 2.4 L-0.55 1.2 -1.45 1.3 Q-2.5 1.35 -3.25 0.6 -3.95 -0.1 -3.9 -1.15 -3.95 -2.2 -3.25 -2.9 -2.55 -3.6 -1.45 -3.6 L-0.6 -3.45 Q-0.2 -2.75 -0.05 -1.9 L0.0 -1.15 -0.2 0.35 -0.25 0.6 -0.55 1.2 M-2.7 -5.55 L-3.25 -5.8 -3.3 -5.8 M-0.6 -3.45 L-1.0 -4.15 -1.45 -4.7 -1.5 -4.75 -1.75 -5.0 -2.7 -5.55" ffdec:has-small-stroke="true" ffdec:original-stroke-width="1.0" fill="none" stroke="#000000" stroke-linecap="round" stroke-linejoin="round" stroke-width="1.000121178707915"/>
      <path d="M5.0 3.85 L10.0 3.85" ffdec:has-small-stroke="true" ffdec:original-stroke-width="1.0" fill="none" stroke="#b39001" stroke-linecap="round" stroke-linejoin="round" stroke-width="1.000121178707915"/>
      <path d="M4.85 6.15 L5.0 3.85 4.8 1.25" ffdec:has-small-stroke="true" ffdec:original-stroke-width="1.0" fill="none" stroke="#000000" stroke-linecap="round" stroke-linejoin="round" stroke-width="1.000121178707915"/>
      <path d="M4.85 6.15 L10.0 3.85 4.8 1.25" fill="none" stroke="#000000" stroke-linecap="round" stroke-linejoin="round" stroke-width="2.0"/>
    </g>
    <g id="sprite4" transform="matrix(1.0, 0.0, 0.0, 1.0, 14.2, 5.6)">
      <use ffdec:characterId="226" height="11.2" transform="matrix(1.0, 0.0, 0.0, 1.0, -14.2, -5.6)" width="28.4" xlink:href="#shape3"/>
    </g>
    <g id="shape3" transform="matrix(1.0, 0.0, 0.0, 1.0, 14.2, 5.6)">
      <path d="M9.65 -3.95 L5.5 -4.5 1.3 -3.9 0.65 -3.2 0.2 -1.85 0.2 0.85 0.5 2.25 0.95 3.5 1.8 4.4 3.6 4.75 5.8 4.65 7.55 4.25 9.0 3.5 10.0 2.15 11.05 -0.05 11.45 -2.15 10.8 -3.15 9.65 -3.95 M14.1 -2.0 L13.05 -1.15 11.95 1.25 10.75 3.05 9.6 4.4 8.1 5.15 5.85 5.55 3.5 5.6 1.3 5.15 0.05 4.3 -0.75 2.95 -1.65 -2.05 -2.3 -2.6 -2.95 -2.7 Q-6.25 -2.6 -9.6 -1.25 -11.65 -0.05 -11.85 1.5 L-14.1 0.75 Q-14.6 -1.75 -12.0 -3.35 -7.4 -5.1 -2.8 -5.15 L6.65 -5.6 14.2 -3.85 14.1 -2.0" fill="#000000" fill-rule="evenodd" stroke="none"/>
      <path d="M9.65 -3.95 L10.8 -3.15 11.45 -2.15 11.05 -0.05 10.0 2.15 9.0 3.5 7.55 4.25 5.8 4.65 3.6 4.75 1.8 4.4 0.95 3.5 0.5 2.25 0.2 0.85 0.2 -1.85 0.65 -3.2 1.3 -3.9 5.5 -4.5 9.65 -3.95" fill="#000000" fill-opacity="0.7372549" fill-rule="evenodd" stroke="none"/>
    </g>
  </defs>
</svg>
