<?xml version="1.0" encoding="UTF-8" standalone="no"?>
<svg xmlns:ffdec="https://www.free-decompiler.com/flash" xmlns:xlink="http://www.w3.org/1999/xlink" ffdec:objectType="frame" height="166.05px" width="108.55px" xmlns="http://www.w3.org/2000/svg">
  <g transform="matrix(1.0, 0.0, 0.0, 1.0, 39.0, 106.6)">
    <use ffdec:characterId="223" height="48.0" transform="matrix(0.9823, 0.1791, -0.1791, 0.9823, -0.9086, -41.431)" width="34.65" xlink:href="#sprite0"/>
    <use ffdec:characterId="248" height="60.05" transform="matrix(1.0, 0.0, 0.0, 1.0, -8.85, -40.3)" width="44.75" xlink:href="#shape1"/>
    <use ffdec:characterId="243" height="44.35" transform="matrix(0.9888, 0.1466, -0.1466, 0.9888, -15.6936, -61.8156)" width="57.4" xlink:href="#sprite2"/>
  </g>
  <defs>
    <g id="sprite0" transform="matrix(1.0, 0.0, 0.0, 1.0, 16.5, 24.0)">
      <use ffdec:characterId="222" height="48.0" transform="matrix(1.0, 0.0, 0.0, 1.0, -16.5, -24.0)" width="34.65" xlink:href="#sprite1"/>
    </g>
    <g id="sprite1" transform="matrix(1.0, 0.0, 0.0, 1.0, 16.5, 24.0)">
      <use ffdec:characterId="206" height="48.0" transform="matrix(1.0, 0.0, 0.0, 1.0, -16.5, -24.0)" width="34.65" xlink:href="#shape0"/>
    </g>
    <g id="shape0" transform="matrix(1.0, 0.0, 0.0, 1.0, 16.5, 24.0)">
      <path d="M16.2 -13.2 L18.15 -12.25 18.15 -8.5 16.3 -7.3 Q15.8 -4.5 14.2 -2.15 L14.0 -1.6 Q14.0 -1.35 14.15 -1.05 16.5 2.7 16.5 7.5 16.5 14.35 11.7 19.2 6.85 24.0 0.0 24.0 L-2.3 23.85 Q-7.7 23.15 -11.65 19.2 -16.5 14.35 -16.5 7.5 -16.5 0.65 -11.65 -4.15 L-11.55 -4.2 -11.15 -4.6 -10.85 -5.1 -10.85 -5.7 Q-11.5 -7.7 -11.5 -10.0 -11.5 -15.8 -7.4 -19.9 -3.3 -24.0 2.5 -24.0 8.35 -24.0 12.4 -19.9 15.3 -17.0 16.2 -13.2" fill="url(#gradient0)" fill-rule="evenodd" stroke="none"/>
    </g>
    <linearGradient gradientTransform="matrix(0.0, 0.0287, -0.0293, 0.0, 0.8, 0.0)" gradientUnits="userSpaceOnUse" id="gradient0" spreadMethod="pad" x1="-819.2" x2="819.2">
      <stop offset="0.0" stop-color="#ffff00"/>
      <stop offset="1.0" stop-color="#d1d003"/>
    </linearGradient>
    <g id="shape1" transform="matrix(1.0, 0.0, 0.0, 1.0, 8.85, 40.3)">
      <path d="M6.7 8.5 L5.3 15.1 15.05 18.75" fill="none" stroke="#000000" stroke-linecap="round" stroke-linejoin="round" stroke-width="2.0"/>
      <path d="M24.1 -32.2 L24.45 -31.95 25.2 -31.15 25.6 -30.35 25.75 -29.75 25.0 -30.05 Q23.9 -30.25 23.05 -29.7 22.3 -29.15 22.15 -28.1 21.9 -27.05 22.45 -26.3 23.05 -25.4 24.1 -25.25 L25.0 -25.2 Q24.55 -24.6 23.9 -24.15 L23.25 -23.75 23.05 -23.7 22.55 -23.55 Q21.3 -23.95 20.5 -25.15 19.4 -26.7 19.75 -28.55 20.05 -30.35 21.6 -31.45 22.8 -32.25 24.1 -32.2" fill="#00ccff" fill-rule="evenodd" stroke="none"/>
      <path d="M24.1 -32.2 Q22.8 -32.25 21.6 -31.45 20.05 -30.35 19.75 -28.55 19.4 -26.7 20.5 -25.15 21.3 -23.95 22.55 -23.55 L21.9 -23.35 20.15 -23.4 Q18.15 -23.7 16.9 -25.45 16.35 -26.3 16.15 -27.25 L16.15 -29.2 Q16.5 -31.2 18.2 -32.45 19.9 -33.6 21.95 -33.2 L23.65 -32.55 24.1 -32.2" fill="#ffffff" fill-rule="evenodd" stroke="none"/>
      <path d="M25.0 -25.2 L24.1 -25.25 Q23.05 -25.4 22.45 -26.3 21.9 -27.05 22.15 -28.1 22.3 -29.15 23.05 -29.7 23.9 -30.25 25.0 -30.05 L25.75 -29.75 Q26.2 -28.7 25.95 -27.4 L25.5 -26.0 25.0 -25.2" fill="#000000" fill-rule="evenodd" stroke="none"/>
      <path d="M30.25 -24.2 L34.9 -20.75 29.4 -19.4 30.0 -21.6 30.25 -24.2 M34.9 -20.75 L30.0 -21.6 34.9 -20.75" fill="#ffcc00" fill-rule="evenodd" stroke="none"/>
      <path d="M29.4 -19.4 Q28.35 -16.2 26.05 -13.8 L26.2 -13.4 Q27.75 -9.2 26.85 -4.4 25.55 2.75 19.65 6.85 13.65 10.95 6.55 9.65 L4.15 9.05 Q-1.3 7.35 -4.7 2.45 -8.85 -3.5 -7.55 -10.65 -6.25 -17.75 -0.3 -21.85 L0.35 -22.3 Q0.05 -24.6 0.5 -27.0 1.6 -33.1 6.75 -36.6 11.8 -40.15 17.9 -39.05 24.05 -37.95 27.55 -32.8 L28.25 -31.65 Q30.3 -28.1 30.25 -24.2 L34.9 -20.75 29.4 -19.4" fill="none" stroke="#000000" stroke-linecap="round" stroke-linejoin="round" stroke-width="2.0"/>
      <path d="M29.4 -19.4 L30.0 -21.6 30.25 -24.2 M25.75 -29.75 L25.6 -30.35 25.2 -31.15 24.45 -31.95 24.1 -32.2 23.65 -32.55 21.95 -33.2 Q19.9 -33.6 18.2 -32.45 16.5 -31.2 16.15 -29.2 L16.15 -27.25 Q16.35 -26.3 16.9 -25.45 18.15 -23.7 20.15 -23.4 L21.9 -23.35 22.55 -23.55 23.05 -23.7 23.25 -23.75 23.9 -24.15 Q24.55 -24.6 25.0 -25.2 L24.1 -25.25 Q23.05 -25.4 22.45 -26.3 21.9 -27.05 22.15 -28.1 22.3 -29.15 23.05 -29.7 23.9 -30.25 25.0 -30.05 L25.75 -29.75 Q26.2 -28.7 25.95 -27.4 L25.5 -26.0 25.0 -25.2 M30.0 -21.6 L34.9 -20.75" fill="none" stroke="#000000" stroke-linecap="round" stroke-linejoin="round" stroke-width="1.0"/>
    </g>
    <g id="sprite2" transform="matrix(1.0, 0.0, 0.0, 1.0, 46.3, 28.9)">
      <use ffdec:characterId="242" height="44.35" transform="matrix(1.0, 0.0, 0.0, 1.0, -46.3, -28.9)" width="57.4" xlink:href="#sprite3"/>
    </g>
    <g id="sprite3" transform="matrix(1.0, 0.0, 0.0, 1.0, 46.4, 29.15)">
      <use ffdec:characterId="225" height="13.8" transform="matrix(1.0, 0.0, 0.0, 1.0, -10.5, -6.65)" width="21.5" xlink:href="#shape2"/>
      <use ffdec:characterId="227" height="11.2" transform="matrix(1.0, 0.0, 0.0, 1.0, -24.1, -6.15)" width="28.4" xlink:href="#sprite4"/>
    </g>
    <g id="shape2" transform="matrix(1.0, 0.0, 0.0, 1.0, 10.5, 6.65)">
      <path d="M-2.65 3.3 L-5.0 3.85 Q-7.05 3.85 -8.55 2.4 -10.0 0.95 -10.0 -1.15 -10.0 -3.2 -8.55 -4.7 -7.4 -5.85 -5.8 -6.05 L-5.1 -6.15 -5.0 -6.15 -4.9 -6.15 -3.8 -6.0 -3.5 -5.9 -3.3 -5.8 -3.25 -5.8 -2.7 -5.55 Q-4.0 -5.35 -5.0 -4.35 -6.35 -3.0 -6.3 -1.15 -6.3 0.75 -5.0 2.05 -4.0 3.05 -2.65 3.3" fill="#ffffff" fill-rule="evenodd" stroke="none"/>
      <path d="M-2.65 3.3 Q-4.0 3.05 -5.0 2.05 -6.3 0.75 -6.3 -1.15 -6.35 -3.0 -5.0 -4.35 -4.0 -5.35 -2.7 -5.55 L-1.75 -5.0 -1.5 -4.75 -1.45 -4.7 -1.0 -4.15 -0.6 -3.45 -1.45 -3.6 Q-2.55 -3.6 -3.25 -2.9 -3.95 -2.2 -3.9 -1.15 -3.95 -0.1 -3.25 0.6 -2.5 1.35 -1.45 1.3 L-0.55 1.2 -1.45 2.4 Q-2.0 2.95 -2.65 3.3" fill="#99ff00" fill-rule="evenodd" stroke="none"/>
      <path d="M-0.55 1.2 L-1.45 1.3 Q-2.5 1.35 -3.25 0.6 -3.95 -0.1 -3.9 -1.15 -3.95 -2.2 -3.25 -2.9 -2.55 -3.6 -1.45 -3.6 L-0.6 -3.45 Q-0.2 -2.75 -0.05 -1.9 L0.0 -1.15 -0.2 0.35 -0.25 0.6 -0.55 1.2" fill="#000000" fill-rule="evenodd" stroke="none"/>
      <path d="M5.0 3.85 L4.8 1.25 10.0 3.85 4.85 6.15 5.0 3.85 10.0 3.85 5.0 3.85" fill="#ffcc00" fill-rule="evenodd" stroke="none"/>
      <path d="M-3.8 -6.0 L-4.9 -6.15 -5.0 -6.15 -5.1 -6.15 -5.8 -6.05 Q-7.4 -5.85 -8.55 -4.7 -10.0 -3.2 -10.0 -1.15 -10.0 0.95 -8.55 2.4 -7.05 3.85 -5.0 3.85 L-2.65 3.3 Q-2.0 2.95 -1.45 2.4 L-0.55 1.2 -1.45 1.3 Q-2.5 1.35 -3.25 0.6 -3.95 -0.1 -3.9 -1.15 -3.95 -2.2 -3.25 -2.9 -2.55 -3.6 -1.45 -3.6 L-0.6 -3.45 Q-0.2 -2.75 -0.05 -1.9 L0.0 -1.15 -0.2 0.35 -0.25 0.6 -0.55 1.2 M-2.7 -5.55 L-3.25 -5.8 -3.3 -5.8 M-0.6 -3.45 L-1.0 -4.15 -1.45 -4.7 -1.5 -4.75 -1.75 -5.0 -2.7 -5.55" ffdec:has-small-stroke="true" ffdec:original-stroke-width="1.0" fill="none" stroke="#000000" stroke-linecap="round" stroke-linejoin="round" stroke-width="1.0003862559511472"/>
      <path d="M5.0 3.85 L10.0 3.85" ffdec:has-small-stroke="true" ffdec:original-stroke-width="1.0" fill="none" stroke="#b39001" stroke-linecap="round" stroke-linejoin="round" stroke-width="1.0003862559511472"/>
      <path d="M4.85 6.15 L5.0 3.85 4.8 1.25" ffdec:has-small-stroke="true" ffdec:original-stroke-width="1.0" fill="none" stroke="#000000" stroke-linecap="round" stroke-linejoin="round" stroke-width="1.0003862559511472"/>
      <path d="M4.85 6.15 L10.0 3.85 4.8 1.25" fill="none" stroke="#000000" stroke-linecap="round" stroke-linejoin="round" stroke-width="2.0"/>
    </g>
    <g id="sprite4" transform="matrix(1.0, 0.0, 0.0, 1.0, 14.2, 5.6)">
      <use ffdec:characterId="226" height="11.2" transform="matrix(1.0, 0.0, 0.0, 1.0, -14.2, -5.6)" width="28.4" xlink:href="#shape3"/>
    </g>
    <g id="shape3" transform="matrix(1.0, 0.0, 0.0, 1.0, 14.2, 5.6)">
      <path d="M9.65 -3.95 L5.5 -4.5 1.3 -3.9 0.65 -3.2 0.2 -1.85 0.2 0.85 0.5 2.25 0.95 3.5 1.8 4.4 3.6 4.75 5.8 4.65 7.55 4.25 9.0 3.5 10.0 2.15 11.05 -0.05 11.45 -2.15 10.8 -3.15 9.65 -3.95 M14.1 -2.0 L13.05 -1.15 11.95 1.25 10.75 3.05 9.6 4.4 8.1 5.15 5.85 5.55 3.5 5.6 1.3 5.15 0.05 4.3 -0.75 2.95 -1.65 -2.05 -2.3 -2.6 -2.95 -2.7 Q-6.25 -2.6 -9.6 -1.25 -11.65 -0.05 -11.85 1.5 L-14.1 0.75 Q-14.6 -1.75 -12.0 -3.35 -7.4 -5.1 -2.8 -5.15 L6.65 -5.6 14.2 -3.85 14.1 -2.0" fill="#000000" fill-rule="evenodd" stroke="none"/>
      <path d="M9.65 -3.95 L10.8 -3.15 11.45 -2.15 11.05 -0.05 10.0 2.15 9.0 3.5 7.55 4.25 5.8 4.65 3.6 4.75 1.8 4.4 0.95 3.5 0.5 2.25 0.2 0.85 0.2 -1.85 0.65 -3.2 1.3 -3.9 5.5 -4.5 9.65 -3.95" fill="#000000" fill-opacity="0.7372549" fill-rule="evenodd" stroke="none"/>
    </g>
  </defs>
</svg>
