<?xml version="1.0" encoding="UTF-8" standalone="no"?>
<svg xmlns:ffdec="https://www.free-decompiler.com/flash" xmlns:xlink="http://www.w3.org/1999/xlink" ffdec:objectType="frame" height="166.05px" width="108.55px" xmlns="http://www.w3.org/2000/svg">
  <g transform="matrix(1.0, 0.0, 0.0, 1.0, 39.0, 106.6)">
    <use ffdec:characterId="223" height="48.0" transform="matrix(0.9825, -0.1712, 0.1712, 0.9825, 11.6791, -35.7562)" width="34.65" xlink:href="#sprite0"/>
    <use ffdec:characterId="251" height="57.35" transform="matrix(1.0, 0.0, 0.0, 1.0, 14.65, -41.35)" width="38.75" xlink:href="#shape1"/>
    <use ffdec:characterId="243" height="44.35" transform="matrix(0.9871, -0.1569, 0.1569, 0.9871, -8.2373, -51.9115)" width="57.4" xlink:href="#sprite2"/>
  </g>
  <defs>
    <g id="sprite0" transform="matrix(1.0, 0.0, 0.0, 1.0, 16.5, 24.0)">
      <use ffdec:characterId="222" height="48.0" transform="matrix(1.0, 0.0, 0.0, 1.0, -16.5, -24.0)" width="34.65" xlink:href="#sprite1"/>
    </g>
    <g id="sprite1" transform="matrix(1.0, 0.0, 0.0, 1.0, 16.5, 24.0)">
      <use ffdec:characterId="206" height="48.0" transform="matrix(1.0, 0.0, 0.0, 1.0, -16.5, -24.0)" width="34.65" xlink:href="#shape0"/>
    </g>
    <g id="shape0" transform="matrix(1.0, 0.0, 0.0, 1.0, 16.5, 24.0)">
      <path d="M16.2 -13.2 L18.15 -12.25 18.15 -8.5 16.3 -7.3 Q15.8 -4.5 14.2 -2.15 L14.0 -1.6 Q14.0 -1.35 14.15 -1.05 16.5 2.7 16.5 7.5 16.5 14.35 11.7 19.2 6.85 24.0 0.0 24.0 L-2.3 23.85 Q-7.7 23.15 -11.65 19.2 -16.5 14.35 -16.5 7.5 -16.5 0.65 -11.65 -4.15 L-11.55 -4.2 -11.15 -4.6 -10.85 -5.1 -10.85 -5.7 Q-11.5 -7.7 -11.5 -10.0 -11.5 -15.8 -7.4 -19.9 -3.3 -24.0 2.5 -24.0 8.35 -24.0 12.4 -19.9 15.3 -17.0 16.2 -13.2" fill="url(#gradient0)" fill-rule="evenodd" stroke="none"/>
    </g>
    <linearGradient gradientTransform="matrix(0.0, 0.0287, -0.0293, 0.0, 0.8, 0.0)" gradientUnits="userSpaceOnUse" id="gradient0" spreadMethod="pad" x1="-819.2" x2="819.2">
      <stop offset="0.0" stop-color="#ffff00"/>
      <stop offset="1.0" stop-color="#d1d003"/>
    </linearGradient>
    <g id="shape1" transform="matrix(1.0, 0.0, 0.0, 1.0, -14.65, 41.35)">
      <path d="M35.8 8.4 L36.75 15.0 46.85 14.15" fill="none" stroke="#000000" stroke-linecap="round" stroke-linejoin="round" stroke-width="2.0"/>
      <path d="M39.9 -27.05 Q39.0 -26.35 37.7 -26.15 35.7 -25.75 33.95 -26.95 L33.15 -27.65 Q32.2 -28.7 31.95 -30.2 31.55 -32.2 32.75 -33.95 33.95 -35.6 36.0 -35.95 L38.35 -35.8 Q37.15 -35.35 36.3 -34.2 35.2 -32.65 35.55 -30.85 35.85 -29.0 37.4 -27.9 38.5 -27.1 39.75 -27.05 L39.9 -27.05" fill="#ffffff" fill-rule="evenodd" stroke="none"/>
      <path d="M38.35 -35.8 L38.9 -35.6 39.75 -35.15 40.8 -34.05 39.95 -34.05 Q38.85 -33.85 38.25 -33.05 37.75 -32.25 37.95 -31.25 38.05 -30.15 38.85 -29.65 39.7 -29.0 40.75 -29.25 L41.55 -29.45 41.65 -29.5 40.95 -28.15 39.9 -27.05 39.75 -27.05 Q38.5 -27.1 37.4 -27.9 35.85 -29.0 35.55 -30.85 35.2 -32.65 36.3 -34.2 37.15 -35.35 38.35 -35.8" fill="#00ccff" fill-rule="evenodd" stroke="none"/>
      <path d="M40.8 -34.05 L40.85 -33.95 Q41.55 -33.15 41.75 -31.9 41.95 -30.6 41.65 -29.5 L41.55 -29.45 40.75 -29.25 Q39.7 -29.0 38.85 -29.65 38.05 -30.15 37.95 -31.25 37.75 -32.25 38.25 -33.05 38.85 -33.85 39.95 -34.05 L40.8 -34.05" fill="#000000" fill-rule="evenodd" stroke="none"/>
      <path d="M46.8 -30.35 L52.4 -28.65 47.65 -25.55 47.45 -27.85 46.8 -30.35 M52.4 -28.65 L47.45 -27.85 52.4 -28.65" fill="#ffcc00" fill-rule="evenodd" stroke="none"/>
      <path d="M39.9 -27.05 Q39.0 -26.35 37.7 -26.15 35.7 -25.75 33.95 -26.95 L33.15 -27.65 Q32.2 -28.7 31.95 -30.2 31.55 -32.2 32.75 -33.95 33.95 -35.6 36.0 -35.95 L38.35 -35.8 38.9 -35.6 39.75 -35.15 40.8 -34.05 40.85 -33.95 Q41.55 -33.15 41.75 -31.9 41.95 -30.6 41.65 -29.5 L40.95 -28.15 39.9 -27.05 M41.65 -29.5 L41.55 -29.45 40.75 -29.25 Q39.7 -29.0 38.85 -29.65 38.05 -30.15 37.95 -31.25 37.75 -32.25 38.25 -33.05 38.85 -33.85 39.95 -34.05 L40.8 -34.05 M47.65 -25.55 L47.45 -27.85 46.8 -30.35 M47.45 -27.85 L52.4 -28.65" fill="none" stroke="#000000" stroke-linecap="round" stroke-linejoin="round" stroke-width="1.0"/>
      <path d="M47.65 -25.55 Q47.75 -22.2 46.35 -19.15 L46.7 -18.85 Q49.5 -15.45 50.35 -10.65 51.55 -3.5 47.4 2.4 43.1 8.3 36.0 9.5 L33.6 9.75 Q27.8 9.95 23.05 6.5 17.1 2.3 15.9 -4.85 14.7 -11.95 18.95 -17.85 L19.4 -18.45 Q18.35 -20.45 17.95 -22.85 16.9 -28.95 20.5 -34.05 24.1 -39.05 30.2 -40.1 36.35 -41.15 41.4 -37.55 L42.4 -36.7 Q45.5 -34.1 46.8 -30.35 L52.4 -28.65 47.65 -25.55 Z" fill="none" stroke="#000000" stroke-linecap="round" stroke-linejoin="round" stroke-width="2.0"/>
    </g>
    <g id="sprite2" transform="matrix(1.0, 0.0, 0.0, 1.0, 46.3, 28.9)">
      <use ffdec:characterId="242" height="44.35" transform="matrix(1.0, 0.0, 0.0, 1.0, -46.3, -28.9)" width="57.4" xlink:href="#sprite3"/>
    </g>
    <g id="sprite3" transform="matrix(1.0, 0.0, 0.0, 1.0, 46.4, 29.15)">
      <use ffdec:characterId="225" height="13.8" transform="matrix(1.0, 0.0, 0.0, 1.0, -10.5, -6.65)" width="21.5" xlink:href="#shape2"/>
      <use ffdec:characterId="227" height="11.2" transform="matrix(1.0, 0.0, 0.0, 1.0, -24.1, -6.15)" width="28.4" xlink:href="#sprite4"/>
    </g>
    <g id="shape2" transform="matrix(1.0, 0.0, 0.0, 1.0, 10.5, 6.65)">
      <path d="M-2.65 3.3 L-5.0 3.85 Q-7.05 3.85 -8.55 2.4 -10.0 0.95 -10.0 -1.15 -10.0 -3.2 -8.55 -4.7 -7.4 -5.85 -5.8 -6.05 L-5.1 -6.15 -5.0 -6.15 -4.9 -6.15 -3.8 -6.0 -3.5 -5.9 -3.3 -5.8 -3.25 -5.8 -2.7 -5.55 Q-4.0 -5.35 -5.0 -4.35 -6.35 -3.0 -6.3 -1.15 -6.3 0.75 -5.0 2.05 -4.0 3.05 -2.65 3.3" fill="#ffffff" fill-rule="evenodd" stroke="none"/>
      <path d="M-2.65 3.3 Q-4.0 3.05 -5.0 2.05 -6.3 0.75 -6.3 -1.15 -6.35 -3.0 -5.0 -4.35 -4.0 -5.35 -2.7 -5.55 L-1.75 -5.0 -1.5 -4.75 -1.45 -4.7 -1.0 -4.15 -0.6 -3.45 -1.45 -3.6 Q-2.55 -3.6 -3.25 -2.9 -3.95 -2.2 -3.9 -1.15 -3.95 -0.1 -3.25 0.6 -2.5 1.35 -1.45 1.3 L-0.55 1.2 -1.45 2.4 Q-2.0 2.95 -2.65 3.3" fill="#99ff00" fill-rule="evenodd" stroke="none"/>
      <path d="M-0.55 1.2 L-1.45 1.3 Q-2.5 1.35 -3.25 0.6 -3.95 -0.1 -3.9 -1.15 -3.95 -2.2 -3.25 -2.9 -2.55 -3.6 -1.45 -3.6 L-0.6 -3.45 Q-0.2 -2.75 -0.05 -1.9 L0.0 -1.15 -0.2 0.35 -0.25 0.6 -0.55 1.2" fill="#000000" fill-rule="evenodd" stroke="none"/>
      <path d="M5.0 3.85 L4.8 1.25 10.0 3.85 4.85 6.15 5.0 3.85 10.0 3.85 5.0 3.85" fill="#ffcc00" fill-rule="evenodd" stroke="none"/>
      <path d="M-3.8 -6.0 L-4.9 -6.15 -5.0 -6.15 -5.1 -6.15 -5.8 -6.05 Q-7.4 -5.85 -8.55 -4.7 -10.0 -3.2 -10.0 -1.15 -10.0 0.95 -8.55 2.4 -7.05 3.85 -5.0 3.85 L-2.65 3.3 Q-2.0 2.95 -1.45 2.4 L-0.55 1.2 -1.45 1.3 Q-2.5 1.35 -3.25 0.6 -3.95 -0.1 -3.9 -1.15 -3.95 -2.2 -3.25 -2.9 -2.55 -3.6 -1.45 -3.6 L-0.6 -3.45 Q-0.2 -2.75 -0.05 -1.9 L0.0 -1.15 -0.2 0.35 -0.25 0.6 -0.55 1.2 M-2.7 -5.55 L-3.25 -5.8 -3.3 -5.8 M-0.6 -3.45 L-1.0 -4.15 -1.45 -4.7 -1.5 -4.75 -1.75 -5.0 -2.7 -5.55" ffdec:has-small-stroke="true" ffdec:original-stroke-width="1.0" fill="none" stroke="#000000" stroke-linecap="round" stroke-linejoin="round" stroke-width="1.00051385022543"/>
      <path d="M5.0 3.85 L10.0 3.85" ffdec:has-small-stroke="true" ffdec:original-stroke-width="1.0" fill="none" stroke="#b39001" stroke-linecap="round" stroke-linejoin="round" stroke-width="1.00051385022543"/>
      <path d="M4.85 6.15 L5.0 3.85 4.8 1.25" ffdec:has-small-stroke="true" ffdec:original-stroke-width="1.0" fill="none" stroke="#000000" stroke-linecap="round" stroke-linejoin="round" stroke-width="1.00051385022543"/>
      <path d="M4.85 6.15 L10.0 3.85 4.8 1.25" fill="none" stroke="#000000" stroke-linecap="round" stroke-linejoin="round" stroke-width="2.0"/>
    </g>
    <g id="sprite4" transform="matrix(1.0, 0.0, 0.0, 1.0, 14.2, 5.6)">
      <use ffdec:characterId="226" height="11.2" transform="matrix(1.0, 0.0, 0.0, 1.0, -14.2, -5.6)" width="28.4" xlink:href="#shape3"/>
    </g>
    <g id="shape3" transform="matrix(1.0, 0.0, 0.0, 1.0, 14.2, 5.6)">
      <path d="M9.65 -3.95 L5.5 -4.5 1.3 -3.9 0.65 -3.2 0.2 -1.85 0.2 0.85 0.5 2.25 0.95 3.5 1.8 4.4 3.6 4.75 5.8 4.65 7.55 4.25 9.0 3.5 10.0 2.15 11.05 -0.05 11.45 -2.15 10.8 -3.15 9.65 -3.95 M14.1 -2.0 L13.05 -1.15 11.95 1.25 10.75 3.05 9.6 4.4 8.1 5.15 5.85 5.55 3.5 5.6 1.3 5.15 0.05 4.3 -0.75 2.95 -1.65 -2.05 -2.3 -2.6 -2.95 -2.7 Q-6.25 -2.6 -9.6 -1.25 -11.65 -0.05 -11.85 1.5 L-14.1 0.75 Q-14.6 -1.75 -12.0 -3.35 -7.4 -5.1 -2.8 -5.15 L6.65 -5.6 14.2 -3.85 14.1 -2.0" fill="#000000" fill-rule="evenodd" stroke="none"/>
      <path d="M9.65 -3.95 L10.8 -3.15 11.45 -2.15 11.05 -0.05 10.0 2.15 9.0 3.5 7.55 4.25 5.8 4.65 3.6 4.75 1.8 4.4 0.95 3.5 0.5 2.25 0.2 0.85 0.2 -1.85 0.65 -3.2 1.3 -3.9 5.5 -4.5 9.65 -3.95" fill="#000000" fill-opacity="0.7372549" fill-rule="evenodd" stroke="none"/>
    </g>
  </defs>
</svg>
