<?xml version="1.0" encoding="UTF-8" standalone="no"?>
<svg xmlns:ffdec="https://www.free-decompiler.com/flash" xmlns:xlink="http://www.w3.org/1999/xlink" ffdec:objectType="frame" height="166.05px" width="108.55px" xmlns="http://www.w3.org/2000/svg">
  <g transform="matrix(1.0, 0.0, 0.0, 1.0, 39.0, 106.6)">
    <use ffdec:characterId="223" height="48.0" transform="matrix(0.9538, -0.2894, 0.2894, 0.9538, 15.2175, -24.5665)" width="34.65" xlink:href="#sprite0"/>
    <use ffdec:characterId="252" height="56.35" transform="matrix(1.0, 0.0, 0.0, 1.0, 21.35, -32.55)" width="37.35" xlink:href="#shape1"/>
    <use ffdec:characterId="243" height="44.35" transform="matrix(0.952, -0.3055, 0.3055, 0.952, -7.1074, -36.6179)" width="57.4" xlink:href="#sprite2"/>
  </g>
  <defs>
    <g id="sprite0" transform="matrix(1.0, 0.0, 0.0, 1.0, 16.5, 24.0)">
      <use ffdec:characterId="222" height="48.0" transform="matrix(1.0, 0.0, 0.0, 1.0, -16.5, -24.0)" width="34.65" xlink:href="#sprite1"/>
    </g>
    <g id="sprite1" transform="matrix(1.0, 0.0, 0.0, 1.0, 16.5, 24.0)">
      <use ffdec:characterId="206" height="48.0" transform="matrix(1.0, 0.0, 0.0, 1.0, -16.5, -24.0)" width="34.65" xlink:href="#shape0"/>
    </g>
    <g id="shape0" transform="matrix(1.0, 0.0, 0.0, 1.0, 16.5, 24.0)">
      <path d="M16.2 -13.2 L18.15 -12.25 18.15 -8.5 16.3 -7.3 Q15.8 -4.5 14.2 -2.15 L14.0 -1.6 Q14.0 -1.35 14.15 -1.05 16.5 2.7 16.5 7.5 16.5 14.35 11.7 19.2 6.85 24.0 0.0 24.0 L-2.3 23.85 Q-7.7 23.15 -11.65 19.2 -16.5 14.35 -16.5 7.5 -16.5 0.65 -11.65 -4.15 L-11.55 -4.2 -11.15 -4.6 -10.85 -5.1 -10.85 -5.7 Q-11.5 -7.7 -11.5 -10.0 -11.5 -15.8 -7.4 -19.9 -3.3 -24.0 2.5 -24.0 8.35 -24.0 12.4 -19.9 15.3 -17.0 16.2 -13.2" fill="url(#gradient0)" fill-rule="evenodd" stroke="none"/>
    </g>
    <linearGradient gradientTransform="matrix(0.0, 0.0287, -0.0293, 0.0, 0.8, 0.0)" gradientUnits="userSpaceOnUse" id="gradient0" spreadMethod="pad" x1="-819.2" x2="819.2">
      <stop offset="0.0" stop-color="#ffff00"/>
      <stop offset="1.0" stop-color="#d1d003"/>
    </linearGradient>
    <g id="shape1" transform="matrix(1.0, 0.0, 0.0, 1.0, -21.35, 32.55)">
      <path d="M45.0 16.4 L46.85 22.8 56.7 22.6" fill="none" stroke="#000000" stroke-linecap="round" stroke-linejoin="round" stroke-width="2.0"/>
      <path d="M44.25 -19.25 L42.2 -18.05 Q40.25 -17.4 38.35 -18.35 L37.9 -18.6 Q36.45 -19.55 35.95 -21.3 35.3 -23.25 36.25 -25.15 L37.35 -26.55 37.8 -26.9 39.2 -27.55 40.65 -27.8 41.6 -27.7 Q40.4 -27.1 39.75 -25.85 38.85 -24.15 39.45 -22.4 40.0 -20.6 41.65 -19.75 42.85 -19.15 44.15 -19.25 L44.25 -19.25" fill="#ffffff" fill-rule="evenodd" stroke="none"/>
      <path d="M44.25 -19.25 L44.15 -19.25 Q42.85 -19.15 41.65 -19.75 40.0 -20.6 39.45 -22.4 38.85 -24.15 39.75 -25.85 40.4 -27.1 41.6 -27.7 L42.1 -27.6 43.05 -27.25 44.2 -26.3 43.35 -26.2 Q42.3 -25.9 41.85 -24.95 41.4 -24.1 41.75 -23.15 42.0 -22.1 42.85 -21.65 L44.85 -21.5 45.55 -21.8 45.65 -21.85 45.15 -20.45 44.25 -19.25" fill="#00ccff" fill-rule="evenodd" stroke="none"/>
      <path d="M44.2 -26.3 Q45.05 -25.55 45.45 -24.3 45.85 -23.05 45.65 -21.85 L45.55 -21.8 44.85 -21.5 42.85 -21.65 Q42.0 -22.1 41.75 -23.15 41.4 -24.1 41.85 -24.95 42.3 -25.9 43.35 -26.2 L44.2 -26.3" fill="#000000" fill-rule="evenodd" stroke="none"/>
      <path d="M50.65 -23.45 L56.4 -22.5 52.15 -18.75 51.65 -21.0 50.65 -23.45 M56.4 -22.5 L51.65 -21.0 56.4 -22.5" fill="#ffcc00" fill-rule="evenodd" stroke="none"/>
      <path d="M41.6 -27.7 L40.65 -27.8 39.2 -27.55 37.8 -26.9 37.35 -26.55 36.25 -25.15 Q35.3 -23.25 35.95 -21.3 36.45 -19.55 37.9 -18.6 L38.35 -18.35 Q40.25 -17.4 42.2 -18.05 L44.25 -19.25 45.15 -20.45 45.65 -21.85 45.55 -21.8 44.85 -21.5 42.85 -21.65 Q42.0 -22.1 41.75 -23.15 41.4 -24.1 41.85 -24.95 42.3 -25.9 43.35 -26.2 L44.2 -26.3 Q45.05 -25.55 45.45 -24.3 45.85 -23.05 45.65 -21.85 M41.6 -27.7 L42.1 -27.6 43.05 -27.25 44.2 -26.3 M52.15 -18.75 L51.65 -21.0 50.65 -23.45 M51.65 -21.0 L56.4 -22.5" fill="none" stroke="#000000" stroke-linecap="round" stroke-linejoin="round" stroke-width="1.0"/>
      <path d="M52.15 -18.75 Q52.7 -15.45 51.75 -12.25 L52.1 -12.0 Q55.4 -9.0 56.85 -4.35 59.0 2.55 55.65 8.95 52.25 15.35 45.35 17.5 L43.0 18.1 Q37.35 19.05 32.1 16.3 25.65 12.95 23.5 6.05 21.35 -0.85 24.7 -7.25 L25.1 -7.9 Q23.75 -9.75 23.05 -12.1 21.2 -18.0 24.1 -23.5 26.95 -29.0 32.85 -30.85 38.8 -32.7 44.3 -29.8 L45.45 -29.1 Q48.85 -26.95 50.65 -23.45 L56.4 -22.5 52.15 -18.75 Z" fill="none" stroke="#000000" stroke-linecap="round" stroke-linejoin="round" stroke-width="2.0"/>
    </g>
    <g id="sprite2" transform="matrix(1.0, 0.0, 0.0, 1.0, 46.3, 28.9)">
      <use ffdec:characterId="242" height="44.35" transform="matrix(1.0, 0.0, 0.0, 1.0, -46.3, -28.9)" width="57.4" xlink:href="#sprite3"/>
    </g>
    <g id="sprite3" transform="matrix(1.0, 0.0, 0.0, 1.0, 46.4, 29.15)">
      <use ffdec:characterId="225" height="13.8" transform="matrix(1.0, 0.0, 0.0, 1.0, -10.5, -6.65)" width="21.5" xlink:href="#shape2"/>
      <use ffdec:characterId="227" height="11.2" transform="matrix(1.0, 0.0, 0.0, 1.0, -24.1, -6.15)" width="28.4" xlink:href="#sprite4"/>
    </g>
    <g id="shape2" transform="matrix(1.0, 0.0, 0.0, 1.0, 10.5, 6.65)">
      <path d="M-2.65 3.3 L-5.0 3.85 Q-7.05 3.85 -8.55 2.4 -10.0 0.95 -10.0 -1.15 -10.0 -3.2 -8.55 -4.7 -7.4 -5.85 -5.8 -6.05 L-5.1 -6.15 -5.0 -6.15 -4.9 -6.15 -3.8 -6.0 -3.5 -5.9 -3.3 -5.8 -3.25 -5.8 -2.7 -5.55 Q-4.0 -5.35 -5.0 -4.35 -6.35 -3.0 -6.3 -1.15 -6.3 0.75 -5.0 2.05 -4.0 3.05 -2.65 3.3" fill="#ffffff" fill-rule="evenodd" stroke="none"/>
      <path d="M-2.65 3.3 Q-4.0 3.05 -5.0 2.05 -6.3 0.75 -6.3 -1.15 -6.35 -3.0 -5.0 -4.35 -4.0 -5.35 -2.7 -5.55 L-1.75 -5.0 -1.5 -4.75 -1.45 -4.7 -1.0 -4.15 -0.6 -3.45 -1.45 -3.6 Q-2.55 -3.6 -3.25 -2.9 -3.95 -2.2 -3.9 -1.15 -3.95 -0.1 -3.25 0.6 -2.5 1.35 -1.45 1.3 L-0.55 1.2 -1.45 2.4 Q-2.0 2.95 -2.65 3.3" fill="#99ff00" fill-rule="evenodd" stroke="none"/>
      <path d="M-0.55 1.2 L-1.45 1.3 Q-2.5 1.35 -3.25 0.6 -3.95 -0.1 -3.9 -1.15 -3.95 -2.2 -3.25 -2.9 -2.55 -3.6 -1.45 -3.6 L-0.6 -3.45 Q-0.2 -2.75 -0.05 -1.9 L0.0 -1.15 -0.2 0.35 -0.25 0.6 -0.55 1.2" fill="#000000" fill-rule="evenodd" stroke="none"/>
      <path d="M5.0 3.85 L4.8 1.25 10.0 3.85 4.85 6.15 5.0 3.85 10.0 3.85 5.0 3.85" fill="#ffcc00" fill-rule="evenodd" stroke="none"/>
      <path d="M-3.8 -6.0 L-4.9 -6.15 -5.0 -6.15 -5.1 -6.15 -5.8 -6.05 Q-7.4 -5.85 -8.55 -4.7 -10.0 -3.2 -10.0 -1.15 -10.0 0.95 -8.55 2.4 -7.05 3.85 -5.0 3.85 L-2.65 3.3 Q-2.0 2.95 -1.45 2.4 L-0.55 1.2 -1.45 1.3 Q-2.5 1.35 -3.25 0.6 -3.95 -0.1 -3.9 -1.15 -3.95 -2.2 -3.25 -2.9 -2.55 -3.6 -1.45 -3.6 L-0.6 -3.45 Q-0.2 -2.75 -0.05 -1.9 L0.0 -1.15 -0.2 0.35 -0.25 0.6 -0.55 1.2 M-2.7 -5.55 L-3.25 -5.8 -3.3 -5.8 M-0.6 -3.45 L-1.0 -4.15 -1.45 -4.7 -1.5 -4.75 -1.75 -5.0 -2.7 -5.55" ffdec:has-small-stroke="true" ffdec:original-stroke-width="1.0" fill="none" stroke="#000000" stroke-linecap="round" stroke-linejoin="round" stroke-width="1.0001688369332333"/>
      <path d="M5.0 3.85 L10.0 3.85" ffdec:has-small-stroke="true" ffdec:original-stroke-width="1.0" fill="none" stroke="#b39001" stroke-linecap="round" stroke-linejoin="round" stroke-width="1.0001688369332333"/>
      <path d="M4.85 6.15 L5.0 3.85 4.8 1.25" ffdec:has-small-stroke="true" ffdec:original-stroke-width="1.0" fill="none" stroke="#000000" stroke-linecap="round" stroke-linejoin="round" stroke-width="1.0001688369332333"/>
      <path d="M4.85 6.15 L10.0 3.85 4.8 1.25" fill="none" stroke="#000000" stroke-linecap="round" stroke-linejoin="round" stroke-width="2.0"/>
    </g>
    <g id="sprite4" transform="matrix(1.0, 0.0, 0.0, 1.0, 14.2, 5.6)">
      <use ffdec:characterId="226" height="11.2" transform="matrix(1.0, 0.0, 0.0, 1.0, -14.2, -5.6)" width="28.4" xlink:href="#shape3"/>
    </g>
    <g id="shape3" transform="matrix(1.0, 0.0, 0.0, 1.0, 14.2, 5.6)">
      <path d="M9.65 -3.95 L5.5 -4.5 1.3 -3.9 0.65 -3.2 0.2 -1.85 0.2 0.85 0.5 2.25 0.95 3.5 1.8 4.4 3.6 4.75 5.8 4.65 7.55 4.25 9.0 3.5 10.0 2.15 11.05 -0.05 11.45 -2.15 10.8 -3.15 9.65 -3.95 M14.1 -2.0 L13.05 -1.15 11.95 1.25 10.75 3.05 9.6 4.4 8.1 5.15 5.85 5.55 3.5 5.6 1.3 5.15 0.05 4.3 -0.75 2.95 -1.65 -2.05 -2.3 -2.6 -2.95 -2.7 Q-6.25 -2.6 -9.6 -1.25 -11.65 -0.05 -11.85 1.5 L-14.1 0.75 Q-14.6 -1.75 -12.0 -3.35 -7.4 -5.1 -2.8 -5.15 L6.65 -5.6 14.2 -3.85 14.1 -2.0" fill="#000000" fill-rule="evenodd" stroke="none"/>
      <path d="M9.65 -3.95 L10.8 -3.15 11.45 -2.15 11.05 -0.05 10.0 2.15 9.0 3.5 7.55 4.25 5.8 4.65 3.6 4.75 1.8 4.4 0.95 3.5 0.5 2.25 0.2 0.85 0.2 -1.85 0.65 -3.2 1.3 -3.9 5.5 -4.5 9.65 -3.95" fill="#000000" fill-opacity="0.7372549" fill-rule="evenodd" stroke="none"/>
    </g>
  </defs>
</svg>
