<?xml version="1.0" encoding="UTF-8"?>
<svg width="42px" height="42px" viewBox="0 0 42 42" version="1.1" xmlns="http://www.w3.org/2000/svg" xmlns:xlink="http://www.w3.org/1999/xlink">
    <title>390</title>
    <g id="Page-1" stroke="none" stroke-width="1" fill="none" fill-rule="evenodd">
        <g id="390" transform="translate(1, 1)">
            <path d="M0,39.3 L0.3,37.8 C1,34.6666667 2.56666667,31.8833333 5,29.45 L5.55,28.9 C5.08333333,27.4666667 4.85,25.9333333 4.85,24.3 C4.85,20.1666667 6.31666667,16.6333333 9.25,13.7 C12.1833333,10.7666667 15.7166667,9.3 19.85,9.3 C24.0166667,9.3 27.55,10.7666667 30.45,13.7 C32.75,16 34.15,18.6666667 34.65,21.7 L34.85,24.3 L34.7,26.6 C34.4,28.8333333 33.6166667,30.8666667 32.35,32.7 C33.3166667,34.2666667 34.0166667,35.9666667 34.45,37.8 L34.7,39.3 L0,39.3" id="Path" fill="#FFFF00"></path>
            <path d="M0,39.3 L0.3,37.8 C1,34.6666667 2.56666667,31.8833333 5,29.45 L5.55,28.9 C5.08333333,27.4666667 4.85,25.9333333 4.85,24.3 C4.85,20.1666667 6.31666667,16.6333333 9.25,13.7 C12.1833333,10.7666667 15.7166667,9.3 19.85,9.3 C24.0166667,9.3 27.55,10.7666667 30.45,13.7 C32.75,16 34.15,18.6666667 34.65,21.7 L34.85,24.3 L34.7,26.6 C34.4,28.8333333 33.6166667,30.8666667 32.35,32.7 C33.3166667,34.2666667 34.0166667,35.9666667 34.45,37.8 L34.7,39.3" id="Path" stroke="#000000" stroke-width="2" stroke-linecap="round" stroke-linejoin="round"></path>
            <polyline id="Path" fill="#FFCC00" points="34.65 21.7 39.85 24.3 34.85 24.3 39.85 24.3 34.7 26.6 34.85 24.3 34.65 21.7"></polyline>
            <path d="M27.2,23.75 C26.5,24.1166667 25.7166667,24.3 24.85,24.3 C23.4833333,24.3 22.3,23.8166667 21.3,22.85 C20.3333333,21.8833333 19.85,20.7 19.85,19.3 C19.85,17.9333333 20.3333333,16.75 21.3,15.75 C22.0666667,14.9833333 22.9833333,14.5333333 24.05,14.4 L24.75,14.3 L24.85,14.3 L24.95,14.3 L26.05,14.45 L26.35,14.55 L26.55,14.65 L26.6,14.65 L27.15,14.9 C26.2833333,15.0333333 25.5166667,15.4333333 24.85,16.1 C23.95,17 23.5166667,18.0666667 23.55,19.3 C23.55,20.5666667 23.9833333,21.6333333 24.85,22.5 C25.5166667,23.1666667 26.3,23.5833333 27.2,23.75" id="Path" fill="#FFFFFF"></path>
            <path d="M27.2,23.75 C26.3,23.5833333 25.5166667,23.1666667 24.85,22.5 C23.9833333,21.6333333 23.55,20.5666667 23.55,19.3 C23.5166667,18.0666667 23.95,17 24.85,16.1 C25.5166667,15.4333333 26.2833333,15.0333333 27.15,14.9 L28.1,15.45 L28.35,15.7 L28.4,15.75 L28.85,16.3 L29.25,17 L28.4,16.85 C27.6666667,16.85 27.0666667,17.0833333 26.6,17.55 C26.1333333,18.0166667 25.9166667,18.6 25.95,19.3 C25.9166667,20 26.1333333,20.5833333 26.6,21.05 C27.1,21.55 27.7,21.7833333 28.4,21.75 L29.3,21.65 L28.4,22.85 C28.0333333,23.2166667 27.6333333,23.5166667 27.2,23.75" id="Path" fill="#00CCFF"></path>
            <path d="M29.3,21.65 L28.4,21.75 C27.7,21.7833333 27.1,21.55 26.6,21.05 C26.1333333,20.5833333 25.9166667,20 25.95,19.3 C25.9166667,18.6 26.1333333,18.0166667 26.6,17.55 C27.0666667,17.0833333 27.6666667,16.85 28.4,16.85 L29.25,17 L29.8,18.55 L29.85,19.3 L29.65,20.8 L29.6,21.05 L29.3,21.65" id="Path" fill="#000000"></path>
            <path d="M34.65,21.7 L34.85,24.3 L39.85,24.3 M34.7,26.6 L34.85,24.3 M26.05,14.45 L24.95,14.3 L24.85,14.3 L24.75,14.3 L24.05,14.4 C22.9833333,14.5333333 22.0666667,14.9833333 21.3,15.75 C20.3333333,16.75 19.85,17.9333333 19.85,19.3 C19.85,20.7 20.3333333,21.8833333 21.3,22.85 C22.3,23.8166667 23.4833333,24.3 24.85,24.3 C25.7166667,24.3 26.5,24.1166667 27.2,23.75 C27.6333333,23.5166667 28.0333333,23.2166667 28.4,22.85 L29.3,21.65 L28.4,21.75 C27.7,21.7833333 27.1,21.55 26.6,21.05 C26.1333333,20.5833333 25.9166667,20 25.95,19.3 C25.9166667,18.6 26.1333333,18.0166667 26.6,17.55 C27.0666667,17.0833333 27.6666667,16.85 28.4,16.85 L29.25,17 L28.85,16.3 L28.4,15.75 L28.35,15.7 L28.1,15.45 L27.15,14.9 L26.6,14.65 L26.55,14.65 M29.3,21.65 L29.6,21.05 L29.65,20.8 L29.85,19.3 L29.8,18.55 L29.25,17" id="Shape" stroke="#000000" stroke-linecap="round" stroke-linejoin="round"></path>
            <path d="M39.85,24.3 L34.65,21.7 M39.85,24.3 L34.7,26.6" id="Shape" stroke="#000000" stroke-width="2" stroke-linecap="round" stroke-linejoin="round"></path>
            <polyline id="Path" fill="#FF0000" points="3.2 28.8 3.55 29.2 24.5 8.25 23.8 7.7 24.95 8.3 3.65 29.6 3.2 28.8"></polyline>
            <path d="M23.8,7.7 L24.5,8.25 L3.55,29.2 L3.2,28.8 C1.13333333,26.1666667 0.1,23.1333333 0.1,19.7 C0.1,15.6 1.55,12.0833333 4.45,9.15 C7.38333333,6.25 10.9,4.8 15,4.8 C18.3,4.8 21.2333333,5.76666667 23.8,7.7" id="Path" fill="#FFFFFF"></path>
            <path d="M23.8,7.7 L24.5,8.25 L3.55,29.2 L3.2,28.8 L3.65,29.6 L24.95,8.3 L23.8,7.7 C21.2333333,5.76666667 18.3,4.8 15,4.8 C10.9,4.8 7.38333333,6.25 4.45,9.15 C1.55,12.0833333 0.1,15.6 0.1,19.7 C0.1,23.1333333 1.13333333,26.1666667 3.2,28.8 M2.6,30.65 L3.65,29.6 M24.95,8.3 L33.35,0" id="Shape" stroke="#000000" stroke-width="2" stroke-linecap="round" stroke-linejoin="round"></path>
            <path d="M5.65685425,17.6568542 L5.65685425,9.65685425 L13.6568542,9.65685425 L13.6568542,17.6568542 L5.65685425,17.6568542 Z M12.7855671,10.5281414 L6.52814138,10.5281414 L6.52814138,16.7855671 L12.7855671,16.7855671 L12.7855671,10.5281414 Z M10.1122998,13.2014087 L10.1122998,11.4390325 L10.9835869,11.4390325 L10.9835869,13.2014087 L10.1122998,13.2014087 Z M11.0033889,14.9835869 L11.0033889,14.1122998 L11.874676,14.1122998 L11.874676,14.9835869 L11.0033889,14.9835869 Z M8.33012158,13.2014087 L8.33012158,11.4390325 L9.2014087,11.4390325 L9.2014087,13.2014087 L8.33012158,13.2014087 Z M8.33012158,15.874676 L8.33012158,15.0033889 L10.9835869,15.0033889 L10.9835869,15.874676 L8.33012158,15.874676 Z M7.43903247,14.9835869 L7.43903247,14.1122998 L8.3103196,14.1122998 L8.3103196,14.9835869 L7.43903247,14.9835869 Z" id="Shape" fill="#000000" fill-rule="nonzero" transform="translate(9.6569, 13.6569) rotate(-45) translate(-9.6569, -13.6569)"></path>
        </g>
    </g>
</svg>