<?xml version="1.0" encoding="UTF-8"?>
<svg width="42px" height="32px" viewBox="0 0 42 32" version="1.1" xmlns="http://www.w3.org/2000/svg" xmlns:xlink="http://www.w3.org/1999/xlink">
    <title>401</title>
    <defs>
        <path d="M0,30 L0.3,28.5 C1,25.3666667 2.56666667,22.5833333 5,20.15 L5.55,19.6 C5.08333333,18.1666667 4.85,16.6333333 4.85,15 C4.85,10.8666667 6.31666667,7.33333333 9.25,4.4 C12.1833333,1.46666667 15.7166667,0 19.85,0 C24.0166667,0 27.55,1.46666667 30.45,4.4 C32.75,6.7 34.15,9.36666667 34.65,12.4 L34.85,15 L34.7,17.3 C34.4,19.5333333 33.6166667,21.5666667 32.35,23.4 C33.3166667,24.9666667 34.0166667,26.6666667 34.45,28.5 L34.7,30" id="path-1"></path>
        <linearGradient x1="50%" y1="0%" x2="50%" y2="100%" id="linearGradient-3">
            <stop stop-color="#0107B6" offset="0%"></stop>
            <stop stop-color="#000000" offset="100%"></stop>
        </linearGradient>
        <linearGradient x1="50%" y1="0%" x2="50%" y2="100%" id="linearGradient-4">
            <stop stop-color="#FFDA65" offset="0%"></stop>
            <stop stop-color="#FFB435" offset="100%"></stop>
        </linearGradient>
        <linearGradient x1="50%" y1="0%" x2="50%" y2="100%" id="linearGradient-5">
            <stop stop-color="#FFDA65" offset="0%"></stop>
            <stop stop-color="#FFB435" offset="100%"></stop>
        </linearGradient>
    </defs>
    <g id="Page-1" stroke="none" stroke-width="1" fill="none" fill-rule="evenodd">
        <g id="401" transform="translate(1, 1)">
            <g id="Path-2">
                <mask id="mask-2" fill="white">
                    <use xlink:href="#path-1"></use>
                </mask>
                <use id="Path" stroke="#000000" stroke-width="2" fill="#000000" stroke-linecap="round" stroke-linejoin="round" xlink:href="#path-1"></use>
                <g id="114" mask="url(#mask-2)">
                    <path d="M32.5075758,23.90625 C34.1691919,26.5104167 35,29.4791667 35,32.8125 C35,37.5694444 33.3030303,41.6319444 29.9090909,45 C26.479798,48.3333333 22.3434343,50 17.5,50 L15.0606061,49.84375 C11.2424242,49.3576389 7.93686869,47.7430556 5.14393939,45 C1.71464646,41.6319444 0,37.5694444 0,32.8125 C0,28.0555556 1.71464646,24.0104167 5.14393939,20.6770833 L5.25,20.625 L5.67424242,20.2083333 L5.99242424,19.6875 L5.99242424,19.0625 C5.53282828,17.6736111 5.3030303,16.1805556 5.3030303,14.5833333 C5.3030303,10.5555556 6.75252525,7.11805556 9.65151515,4.27083333 C12.5505051,1.42361111 16.0505051,0 20.1515152,0 C24.2878788,0 27.7878788,1.42361111 30.6515152,4.27083333 C32.9141414,6.49305556 34.3106061,9.07986111 34.8409091,12.03125 L35,14.5833333 L34.8409091,16.875 C34.5580808,19.0277778 33.7979798,20.9895833 32.5606061,22.7604167 L32.3484848,23.3333333 C32.3484848,23.5069444 32.4015152,23.6979167 32.5075758,23.90625 Z" id="Path" fill="url(#linearGradient-3)"></path>
                    <path d="M12.972835,20.6415217 L11.5723652,21.048459 C11.0722597,21.1937756 10.5490417,20.9061624 10.403725,20.4060569 C10.3531308,20.2319376 10.3538097,20.0469235 10.4056805,19.8731802 L10.8092648,18.521356 C10.8688814,18.3216676 10.8678066,18.1087662 10.8061768,17.9096899 L10.3855179,16.5508775 C10.2341609,16.0619641 10.5078045,15.5429223 10.9967179,15.3915653 C11.1730086,15.3369895 11.3615794,15.3362916 11.5382693,15.3895609 L12.9454949,15.8138176 C13.1399691,15.8724486 13.3472639,15.8734885 13.5423165,15.8168117 L14.9427863,15.4098744 C15.4428918,15.2645577 15.9661098,15.5521709 16.1114265,16.0522764 C16.1620207,16.2263957 16.1613418,16.4114098 16.1094711,16.5851532 L15.7058867,17.9369773 C15.6462701,18.1366657 15.647345,18.3495671 15.7089747,18.5486435 L16.1296336,19.9074559 C16.2809906,20.3963693 16.007347,20.915411 15.5184336,21.066768 C15.3421429,21.1213438 15.1535721,21.1220418 14.9768822,21.0687725 L13.5696566,20.6445157 C13.3751824,20.5858848 13.1678876,20.5848448 12.972835,20.6415217 Z" id="Star" fill="url(#linearGradient-4)" transform="translate(13.2576, 18.2292) rotate(-21) translate(-13.2576, -18.2292)"></path>
                    <path d="M22.5086639,32.0950888 L21.0943561,32.5103148 C20.5990368,32.6557353 20.0796145,32.3720863 19.9341939,31.876767 C19.8828434,31.7018611 19.8837566,31.5157571 19.9368212,31.3413636 L20.3474779,29.991765 C20.4084054,29.7915305 20.4081806,29.5776674 20.3468323,29.3775613 L19.9326276,28.0265073 C19.781861,27.5347366 20.0582995,27.0138572 20.5500703,26.8630906 C20.7249926,26.8094631 20.9118358,26.8085446 21.0872768,26.8604498 L22.5029757,27.2792916 C22.696931,27.3366743 22.9033221,27.3368894 23.0973967,27.2799112 L24.5117045,26.8646852 C25.0070238,26.7192647 25.5264461,27.0029137 25.6718667,27.498233 C25.7232172,27.6731389 25.722304,27.8592429 25.6692394,28.0336364 L25.2585827,29.383235 C25.1976552,29.5834695 25.19788,29.7973326 25.2592283,29.9974387 L25.673433,31.3484927 C25.8241996,31.8402634 25.5477611,32.3611428 25.0559903,32.5119094 C24.881068,32.5655369 24.6942248,32.5664554 24.5187838,32.5145502 L23.1030849,32.0957084 C22.9091296,32.0383257 22.7027385,32.0381106 22.5086639,32.0950888 Z" id="Star-Copy" fill="url(#linearGradient-5)" transform="translate(22.803, 29.6875) rotate(-4) translate(-22.803, -29.6875)"></path>
                </g>
            </g>
            <polyline id="Path" fill="#FFCC00" points="34.85 15 34.65 12.4 39.85 15 34.7 17.3 34.85 15 39.85 15 34.85 15"></polyline>
            <path d="M27.2,14.45 C26.5,14.8166667 25.7166667,15 24.85,15 C23.4833333,15 22.3,14.5166667 21.3,13.55 C20.3333333,12.5833333 19.85,11.4 19.85,10 C19.85,8.63333333 20.3333333,7.45 21.3,6.45 C22.0666667,5.68333333 22.9833333,5.23333333 24.05,5.1 L24.75,5 L24.85,5 L24.95,5 L26.05,5.15 L26.35,5.25 L26.55,5.35 L26.6,5.35 L27.15,5.6 C26.2833333,5.73333333 25.5166667,6.13333333 24.85,6.8 C23.95,7.7 23.5166667,8.76666667 23.55,10 C23.55,11.2666667 23.9833333,12.3333333 24.85,13.2 C25.5166667,13.8666667 26.3,14.2833333 27.2,14.45" id="Path" fill="#FFFFFF"></path>
            <path d="M27.2,14.45 C26.3,14.2833333 25.5166667,13.8666667 24.85,13.2 C23.9833333,12.3333333 23.55,11.2666667 23.55,10 C23.5166667,8.76666667 23.95,7.7 24.85,6.8 C25.5166667,6.13333333 26.2833333,5.73333333 27.15,5.6 L28.1,6.15 L28.35,6.4 L28.4,6.45 L28.85,7 L29.25,7.7 L28.4,7.55 C27.6666667,7.55 27.0666667,7.78333333 26.6,8.25 C26.1333333,8.71666667 25.9166667,9.3 25.95,10 C25.9166667,10.7 26.1333333,11.2833333 26.6,11.75 C27.1,12.25 27.7,12.4833333 28.4,12.45 L29.3,12.35 L28.4,13.55 L27.2,14.45" id="Path" fill="#00CCFF"></path>
            <path d="M29.3,12.35 L28.4,12.45 C27.7,12.4833333 27.1,12.25 26.6,11.75 C26.1333333,11.2833333 25.9166667,10.7 25.95,10 C25.9166667,9.3 26.1333333,8.71666667 26.6,8.25 C27.0666667,7.78333333 27.6666667,7.55 28.4,7.55 L29.25,7.7 L29.8,9.25 L29.85,10 L29.65,11.5 L29.6,11.75 L29.3,12.35" id="Path" fill="#000000"></path>
            <path d="M34.65,12.4 L34.85,15 L39.85,15 M26.05,5.15 L24.95,5 L24.85,5 L24.75,5 L24.05,5.1 C22.9833333,5.23333333 22.0666667,5.68333333 21.3,6.45 C20.3333333,7.45 19.85,8.63333333 19.85,10 C19.85,11.4 20.3333333,12.5833333 21.3,13.55 C22.3,14.5166667 23.4833333,15 24.85,15 C25.7166667,15 26.5,14.8166667 27.2,14.45 L28.4,13.55 L29.3,12.35 L29.6,11.75 L29.65,11.5 L29.85,10 L29.8,9.25 L29.25,7.7 L28.85,7 L28.4,6.45 L28.35,6.4 L28.1,6.15 L27.15,5.6 L26.6,5.35 L26.55,5.35 M29.25,7.7 L28.4,7.55 C27.6666667,7.55 27.0666667,7.78333333 26.6,8.25 C26.1333333,8.71666667 25.9166667,9.3 25.95,10 C25.9166667,10.7 26.1333333,11.2833333 26.6,11.75 C27.1,12.25 27.7,12.4833333 28.4,12.45 L29.3,12.35 M34.85,15 L34.7,17.3" id="Shape" stroke="#000000" stroke-linecap="round" stroke-linejoin="round"></path>
            <path d="M39.85,15 L34.65,12.4 M34.7,17.3 L39.85,15" id="Shape" stroke="#000000" stroke-width="2" stroke-linecap="round" stroke-linejoin="round"></path>
        </g>
    </g>
</svg>