<?xml version="1.0" encoding="UTF-8"?>
<svg width="42px" height="33px" viewBox="0 0 42 33" version="1.1" xmlns="http://www.w3.org/2000/svg" xmlns:xlink="http://www.w3.org/1999/xlink">
    <title>45</title>
    <g id="Page-1" stroke="none" stroke-width="1" fill="none" fill-rule="evenodd">
        <g id="45" transform="translate(1, 1)">
            <path d="M34.3,21.75 L39.5,24.35 L34.35,26.65 L34.5,24.35 L34.3,21.75 M34.5,24.35 L39.5,24.35 L34.5,24.35" id="Shape" fill="#FFCC00"></path>
            <path d="M26.85,23.8 L24.5,24.35 C23.1333333,24.35 21.95,23.8666667 20.95,22.9 C19.9833333,21.9333333 19.5,20.75 19.5,19.35 C19.5,17.9833333 19.9833333,16.8 20.95,15.8 C21.7166667,15.0333333 22.6333333,14.5833333 23.7,14.45 L24.4,14.35 L24.5,14.35 L24.6,14.35 L25.7,14.5 L26,14.6 L26.2,14.7 L26.25,14.7 L26.8,14.95 C25.9333333,15.0833333 25.1666667,15.4833333 24.5,16.15 C23.6,17.05 23.1666667,18.1166667 23.2,19.35 C23.2,20.6166667 23.6333333,21.6833333 24.5,22.55 C25.1666667,23.2166667 25.95,23.6333333 26.85,23.8" id="Path" fill="#FFFFFF"></path>
            <path d="M26.85,23.8 C25.95,23.6333333 25.1666667,23.2166667 24.5,22.55 C23.6333333,21.6833333 23.2,20.6166667 23.2,19.35 C23.1666667,18.1166667 23.6,17.05 24.5,16.15 C25.1666667,15.4833333 25.9333333,15.0833333 26.8,14.95 L27.75,15.5 L28,15.75 L28.05,15.8 L28.5,16.35 L28.9,17.05 L28.05,16.9 C27.3166667,16.9 26.7166667,17.1333333 26.25,17.6 C25.7833333,18.0666667 25.5666667,18.65 25.6,19.35 C25.5666667,20.05 25.7833333,20.6333333 26.25,21.1 C26.75,21.6 27.35,21.8333333 28.05,21.8 L28.95,21.7 L28.05,22.9 C27.6833333,23.2666667 27.2833333,23.5666667 26.85,23.8" id="Path" fill="#00CCFF"></path>
            <path d="M28.95,21.7 L28.05,21.8 C27.35,21.8333333 26.75,21.6 26.25,21.1 C25.7833333,20.6333333 25.5666667,20.05 25.6,19.35 C25.5666667,18.65 25.7833333,18.0666667 26.25,17.6 C26.7166667,17.1333333 27.3166667,16.9 28.05,16.9 L28.9,17.05 C29.1666667,17.5166667 29.35,18.0333333 29.45,18.6 L29.5,19.35 L29.3,20.85 L29.25,21.1 L28.95,21.7" id="Path" fill="#000000"></path>
            <path d="M25.7,14.5 L24.6,14.35 L24.5,14.35 L24.4,14.35 L23.7,14.45 C22.6333333,14.5833333 21.7166667,15.0333333 20.95,15.8 C19.9833333,16.8 19.5,17.9833333 19.5,19.35 C19.5,20.75 19.9833333,21.9333333 20.95,22.9 C21.95,23.8666667 23.1333333,24.35 24.5,24.35 L26.85,23.8 C27.2833333,23.5666667 27.6833333,23.2666667 28.05,22.9 L28.95,21.7 L29.25,21.1 L29.3,20.85 L29.5,19.35 L29.45,18.6 C29.35,18.0333333 29.1666667,17.5166667 28.9,17.05 L28.5,16.35 L28.05,15.8 L28,15.75 L27.75,15.5 L26.8,14.95 L26.25,14.7 L26.2,14.7 M28.9,17.05 L28.05,16.9 C27.3166667,16.9 26.7166667,17.1333333 26.25,17.6 C25.7833333,18.0666667 25.5666667,18.65 25.6,19.35 C25.5666667,20.05 25.7833333,20.6333333 26.25,21.1 C26.75,21.6 27.35,21.8333333 28.05,21.8 L28.95,21.7 M34.35,26.65 L34.5,24.35 L34.3,21.75 M39.5,24.35 L34.5,24.35" id="Shape" stroke="#000000" stroke-linecap="round" stroke-linejoin="round"></path>
            <polyline id="Path" stroke="#000000" stroke-width="2" stroke-linecap="round" stroke-linejoin="round" points="34.3 21.75 39.5 24.35 34.35 26.65"></polyline>
            <polyline id="Path" fill="#FF0000" points="3.1 28.8 3.45 29.2 24.4 8.25 23.7 7.7 24.85 8.3 3.55 29.6 3.1 28.8"></polyline>
            <path d="M23.7,7.7 L24.4,8.25 L3.45,29.2 L3.1,28.8 C1.03333333,26.1666667 0,23.1333333 0,19.7 C0,15.6 1.45,12.0833333 4.35,9.15 C7.28333333,6.25 10.8,4.8 14.9,4.8 C18.2,4.8 21.1333333,5.76666667 23.7,7.7" id="Path" fill="#FFFFFF"></path>
            <path d="M23.7,7.7 L24.4,8.25 L3.45,29.2 L3.1,28.8 L3.55,29.6 L24.85,8.3 L23.7,7.7 C21.1333333,5.76666667 18.2,4.8 14.9,4.8 C10.8,4.8 7.28333333,6.25 4.35,9.15 C1.45,12.0833333 0,15.6 0,19.7 C0,23.1333333 1.03333333,26.1666667 3.1,28.8 M3.55,29.6 L2.5,30.65 M24.85,8.3 L33.25,0" id="Shape" stroke="#000000" stroke-width="2" stroke-linecap="round" stroke-linejoin="round"></path>
            <path d="M5,18.706 L5,10.706 L13,10.706 L13,18.706 L5,18.706 Z M12.1287129,11.5772871 L5.87128713,11.5772871 L5.87128713,17.8347129 L12.1287129,17.8347129 L12.1287129,11.5772871 Z M9.45544554,14.2505545 L9.45544554,12.4881782 L10.3267327,12.4881782 L10.3267327,14.2505545 L9.45544554,14.2505545 Z M10.3465347,16.0327327 L10.3465347,15.1614455 L11.2178218,15.1614455 L11.2178218,16.0327327 L10.3465347,16.0327327 Z M7.67326733,14.2505545 L7.67326733,12.4881782 L8.54455446,12.4881782 L8.54455446,14.2505545 L7.67326733,14.2505545 Z M7.67326733,16.9238218 L7.67326733,16.0525347 L10.3267327,16.0525347 L10.3267327,16.9238218 L7.67326733,16.9238218 Z M6.78217822,16.0327327 L6.78217822,15.1614455 L7.65346535,15.1614455 L7.65346535,16.0327327 L6.78217822,16.0327327 Z" id="Shape" fill="#000000" fill-rule="nonzero" transform="translate(9, 14.706) rotate(-45) translate(-9, -14.706)"></path>
        </g>
    </g>
</svg>