<?xml version="1.0" encoding="UTF-8"?>
<svg width="52px" height="49px" viewBox="0 0 52 49" version="1.1" xmlns="http://www.w3.org/2000/svg" xmlns:xlink="http://www.w3.org/1999/xlink">
    <title>52</title>
    <g id="Page-1" stroke="none" stroke-width="1" fill="none" fill-rule="evenodd">
        <g id="52" transform="translate(0, 0.335)">
            <path d="M38.05,46.9650391 L38.2,44.6650391 L38,42.0650391 L43.2,44.6650391 L38.05,46.9650391 M38.2,44.6650391 L43.2,44.6650391 L38.2,44.6650391" id="Shape" fill="#FFCC00"></path>
            <path d="M30.55,44.1150391 L28.2,44.6650391 C26.8333333,44.6650391 25.65,44.1817057 24.65,43.2150391 C23.6833333,42.2483724 23.2,41.0650391 23.2,39.6650391 C23.2,38.2983724 23.6833333,37.1150391 24.65,36.1150391 C25.4166667,35.3483724 26.3333333,34.8983724 27.4,34.7650391 L28.1,34.6650391 L28.2,34.6650391 L28.3,34.6650391 L29.4,34.8150391 L29.7,34.9150391 L29.9,35.0150391 L29.95,35.0150391 L30.5,35.2650391 C29.6333333,35.3983724 28.8666667,35.7983724 28.2,36.4650391 C27.3,37.3650391 26.8666667,38.4317057 26.9,39.6650391 C26.9,40.9317057 27.3333333,41.9983724 28.2,42.8650391 C28.8666667,43.5317057 29.65,43.9483724 30.55,44.1150391" id="Path" fill="#FFFFFF"></path>
            <path d="M30.55,44.1150391 C29.65,43.9483724 28.8666667,43.5317057 28.2,42.8650391 C27.3333333,41.9983724 26.9,40.9317057 26.9,39.6650391 C26.8666667,38.4317057 27.3,37.3650391 28.2,36.4650391 C28.8666667,35.7983724 29.6333333,35.3983724 30.5,35.2650391 L31.45,35.8150391 L31.7,36.0650391 L31.75,36.1150391 L32.2,36.6650391 L32.6,37.3650391 L31.75,37.2150391 C31.0166667,37.2150391 30.4166667,37.4483724 29.95,37.9150391 C29.4833333,38.3817057 29.2666667,38.9650391 29.3,39.6650391 C29.2666667,40.3650391 29.4833333,40.9483724 29.95,41.4150391 C30.45,41.9150391 31.05,42.1483724 31.75,42.1150391 L32.65,42.0150391 L31.75,43.2150391 C31.3833333,43.5817057 30.9833333,43.8817057 30.55,44.1150391" id="Path" fill="#00CCFF"></path>
            <path d="M32.65,42.0150391 L31.75,42.1150391 C31.05,42.1483724 30.45,41.9150391 29.95,41.4150391 C29.4833333,40.9483724 29.2666667,40.3650391 29.3,39.6650391 C29.2666667,38.9650391 29.4833333,38.3817057 29.95,37.9150391 C30.4166667,37.4483724 31.0166667,37.2150391 31.75,37.2150391 L32.6,37.3650391 C32.8666667,37.8317057 33.05,38.3483724 33.15,38.9150391 L33.2,39.6650391 L33,41.1650391 L32.95,41.4150391 L32.65,42.0150391" id="Path" fill="#000000"></path>
            <path d="M29.4,34.8150391 L28.3,34.6650391 L28.2,34.6650391 L28.1,34.6650391 L27.4,34.7650391 C26.3333333,34.8983724 25.4166667,35.3483724 24.65,36.1150391 C23.6833333,37.1150391 23.2,38.2983724 23.2,39.6650391 C23.2,41.0650391 23.6833333,42.2483724 24.65,43.2150391 C25.65,44.1817057 26.8333333,44.6650391 28.2,44.6650391 L30.55,44.1150391 C30.9833333,43.8817057 31.3833333,43.5817057 31.75,43.2150391 L32.65,42.0150391 L32.95,41.4150391 L33,41.1650391 L33.2,39.6650391 L33.15,38.9150391 C33.05,38.3483724 32.8666667,37.8317057 32.6,37.3650391 L32.2,36.6650391 L31.75,36.1150391 L31.7,36.0650391 L31.45,35.8150391 L30.5,35.2650391 L29.95,35.0150391 L29.9,35.0150391 M32.6,37.3650391 L31.75,37.2150391 C31.0166667,37.2150391 30.4166667,37.4483724 29.95,37.9150391 C29.4833333,38.3817057 29.2666667,38.9650391 29.3,39.6650391 C29.2666667,40.3650391 29.4833333,40.9483724 29.95,41.4150391 C30.45,41.9150391 31.05,42.1483724 31.75,42.1150391 L32.65,42.0150391 M38.05,46.9650391 L38.2,44.6650391 L38,42.0650391 M43.2,44.6650391 L38.2,44.6650391" id="Shape" stroke="#000000" stroke-linecap="round" stroke-linejoin="round"></path>
            <polyline id="Path" stroke="#000000" stroke-width="2" stroke-linecap="round" stroke-linejoin="round" points="38 42.0650391 43.2 44.6650391 38.05 46.9650391"></polyline>
            <rect id="Rectangle" stroke="#8F7651" fill="#E8C09E" x="11.5" y="11.1650391" width="29" height="28"></rect>
            <polygon id="Rectangle-Copy-2" fill="#E8C09E" points="41 11 52 14.3372479 52 36.6627521 41 40"></polygon>
            <path d="M41,11 L52,14.3372479 L52,36.6627521 L41,40 L41,11 Z M42,12.347 L42,38.652 L51,35.92 L51,15.079 L42,12.347 Z" id="Rectangle-Copy-2" fill="#8F7651" fill-rule="nonzero"></path>
            <polygon id="Rectangle-Copy-3" fill="#E8C09E" transform="translate(5.5, 25.5) scale(-1, 1) translate(-5.5, -25.5)" points="0 11 11 14.3372479 11 36.6627521 0 40"></polygon>
            <path d="M0,11 L11,14.3372479 L11,36.6627521 L0,40 L0,11 Z M1,12.347 L1,38.652 L10,35.92 L10,15.079 L1,12.347 Z" id="Rectangle-Copy-3" fill="#8F7651" fill-rule="nonzero" transform="translate(5.5, 25.5) scale(-1, 1) translate(-5.5, -25.5)"></path>
            <polygon id="Rectangle-Copy-4" fill="#E8C09E" transform="translate(26, 5.5) scale(-1, 1) rotate(-90) translate(-26, -5.5)" points="20.5 -9.5 31.5 -6.0476746 31.5 17.0476746 20.5 20.5"></polygon>
            <path d="M20.5,-9.5 L31.5,-6.0476746 L31.5,17.0476746 L20.5,20.5 L20.5,-9.5 Z M21.5,-8.138 L21.5,19.137 L30.5,16.313 L30.5,-5.314 L21.5,-8.138 Z" id="Rectangle-Copy-4" fill="#8F7651" fill-rule="nonzero" transform="translate(26, 5.5) scale(-1, 1) rotate(-90) translate(-26, -5.5)"></path>
        </g>
    </g>
</svg>