<?xml version="1.0" encoding="UTF-8"?>
<svg width="44px" height="57px" viewBox="0 0 44 57" version="1.1" xmlns="http://www.w3.org/2000/svg" xmlns:xlink="http://www.w3.org/1999/xlink">
    <title>Group</title>
    <g id="Page-1" stroke="none" stroke-width="1" fill="none" fill-rule="evenodd">
        <g id="Group" transform="translate(1, 1)">
            <g id="11">
                <path d="M34.9,17 L33.8,17.7 C33.4666667,19.5666667 32.7666667,21.2833333 31.7,22.85 L31.5,23.4 C31.5,23.5666667 31.55,23.75 31.65,23.95 C33.2166667,26.45 34,29.3 34,32.5 C34,37.0666667 32.4,40.9666667 29.2,44.2 C25.9666667,47.4 22.0666667,49 17.5,49 L15.2,48.85 C11.6,48.3833333 8.48333333,46.8333333 5.85,44.2 C2.61666667,40.9666667 1,37.0666667 1,32.5 C1,27.9333333 2.61666667,24.05 5.85,20.85 L5.95,20.8 L6.35,20.4 L6.65,19.9 L6.65,19.3 C6.21666667,17.9666667 6,16.5333333 6,15 C6,11.1333333 7.36666667,7.83333333 10.1,5.1 C12.8333333,2.36666667 16.1333333,1 20,1 C23.9,1 27.2,2.36666667 29.9,5.1 C31.8333333,7.03333333 33.1,9.26666667 33.7,11.8 L34.8,12.35 L34.8,12.4 L34.8,12.35 L35.65,12.75 L35.65,12.85 L34.8,12.4 L35,15 L35,16.05 L34.9,17 M26.2,5.15 L25.1,5 L25,5 L24.9,5 L24.2,5.1 C23.1333333,5.23333333 22.2166667,5.68333333 21.45,6.45 C20.4833333,7.45 20,8.63333333 20,10 C20,11.4 20.4833333,12.5833333 21.45,13.55 C22.45,14.5166667 23.6333333,15 25,15 C25.8666667,15 26.65,14.8166667 27.35,14.45 L28.55,13.55 L29.45,12.35 L29.75,11.75 L29.8,11.5 L30,10 L29.95,9.25 L29.4,7.7 L29,7 L28.55,6.45 L28.5,6.4 L28.25,6.15 L27.3,5.6 L26.75,5.35 L26.7,5.35 L26.5,5.25 L26.2,5.15" id="Shape" fill="#FFFF00"></path>
                <path d="M34.85,17.3 L34.9,17 L35,16.05 L35,15 L34.8,12.4 L35.65,12.85 L40,15 L34.85,17.3 M40,15 L35,15 L40,15" id="Shape" fill="#FFCC00"></path>
                <path d="M27.35,14.45 C26.65,14.8166667 25.8666667,15 25,15 C23.6333333,15 22.45,14.5166667 21.45,13.55 C20.4833333,12.5833333 20,11.4 20,10 C20,8.63333333 20.4833333,7.45 21.45,6.45 C22.2166667,5.68333333 23.1333333,5.23333333 24.2,5.1 L24.9,5 L25,5 L25.1,5 L26.2,5.15 L26.5,5.25 L26.7,5.35 L26.75,5.35 L27.3,5.6 C26.4333333,5.73333333 25.6666667,6.13333333 25,6.8 C24.1,7.7 23.6666667,8.76666667 23.7,10 C23.7,11.2666667 24.1333333,12.3333333 25,13.2 C25.6666667,13.8666667 26.45,14.2833333 27.35,14.45" id="Path" fill="#FFFFFF"></path>
                <path d="M27.35,14.45 C26.45,14.2833333 25.6666667,13.8666667 25,13.2 C24.1333333,12.3333333 23.7,11.2666667 23.7,10 C23.6666667,8.76666667 24.1,7.7 25,6.8 C25.6666667,6.13333333 26.4333333,5.73333333 27.3,5.6 L28.25,6.15 L28.5,6.4 L28.55,6.45 L29,7 L29.4,7.7 L28.55,7.55 C27.8166667,7.55 27.2166667,7.78333333 26.75,8.25 C26.2833333,8.71666667 26.0666667,9.3 26.1,10 C26.0666667,10.7 26.2833333,11.2833333 26.75,11.75 C27.25,12.25 27.85,12.4833333 28.55,12.45 L29.45,12.35 L28.55,13.55 L27.35,14.45" id="Path" fill="#00CCFF"></path>
                <path d="M29.45,12.35 L28.55,12.45 C27.85,12.4833333 27.25,12.25 26.75,11.75 C26.2833333,11.2833333 26.0666667,10.7 26.1,10 C26.0666667,9.3 26.2833333,8.71666667 26.75,8.25 C27.2166667,7.78333333 27.8166667,7.55 28.55,7.55 L29.4,7.7 L29.95,9.25 L30,10 L29.8,11.5 L29.75,11.75 L29.45,12.35" id="Path" fill="#000000"></path>
                <path d="M34.85,17.3 L34.9,17 L35,16.05 L35,15 L34.8,12.4 M35,15 L40,15 M26.2,5.15 L25.1,5 L25,5 L24.9,5 L24.2,5.1 C23.1333333,5.23333333 22.2166667,5.68333333 21.45,6.45 C20.4833333,7.45 20,8.63333333 20,10 C20,11.4 20.4833333,12.5833333 21.45,13.55 C22.45,14.5166667 23.6333333,15 25,15 C25.8666667,15 26.65,14.8166667 27.35,14.45 L28.55,13.55 L29.45,12.35 L28.55,12.45 C27.85,12.4833333 27.25,12.25 26.75,11.75 C26.2833333,11.2833333 26.0666667,10.7 26.1,10 C26.0666667,9.3 26.2833333,8.71666667 26.75,8.25 C27.2166667,7.78333333 27.8166667,7.55 28.55,7.55 L29.4,7.7 L29.95,9.25 L30,10 L29.8,11.5 L29.75,11.75 L29.45,12.35 M27.3,5.6 L26.75,5.35 L26.7,5.35 M29.4,7.7 L29,7 L28.55,6.45 L28.5,6.4 L28.25,6.15 L27.3,5.6" id="Shape" stroke="#000000" stroke-linecap="round" stroke-linejoin="round"></path>
                <path d="M34.8,12.35 C34.2666667,9.31666667 32.8666667,6.66666667 30.6,4.4 C27.7,1.46666667 24.1666667,0 20,0 C15.8666667,0 12.3333333,1.46666667 9.4,4.4 C6.46666667,7.33333333 5,10.8666667 5,15 C5,16.6333333 5.23333333,18.1666667 5.7,19.6 L5.15,20.15 C1.71666667,23.55 0,27.6666667 0,32.5 C0,37.3333333 1.71666667,41.4666667 5.15,44.9 C7.95,47.7 11.25,49.35 15.05,49.85 L17.5,50 C22.3333333,50 26.4666667,48.3 29.9,44.9 C33.3,41.4666667 35,37.3333333 35,32.5 C35,29.1 34.1666667,26.0666667 32.5,23.4 C33.7666667,21.5666667 34.55,19.5333333 34.85,17.3 C36.1579518,16.7158662 37.1389157,16.2777658 37.7928916,15.9856989 C38.2833601,15.7666547 39.0190629,15.4380884 40,15 L37.7489231,13.8873988 L35.65,12.85 L34.8,12.4 L34.8,12.35 M15.05,49.85 L15,55 L25,55" id="Shape" stroke="#000000" stroke-width="2" stroke-linecap="round" stroke-linejoin="round"></path>
            </g>
            <g id="11-copy" transform="translate(37, 9)">
                <path d="M4.3625,2.16363636 L4.225,2.25272727 C4.18333333,2.49030303 4.09583333,2.70878788 3.9625,2.90818182 L3.9375,2.97818182 C3.9375,2.99939394 3.94375,3.02272727 3.95625,3.04818182 C4.15208333,3.36636364 4.25,3.72909091 4.25,4.13636364 C4.25,4.71757576 4.05,5.21393939 3.65,5.62545455 C3.24583333,6.03272727 2.75833333,6.23636364 2.1875,6.23636364 L1.9,6.21727273 C1.45,6.15787879 1.06041667,5.96060606 0.73125,5.62545455 C0.327083333,5.21393939 0.125,4.71757576 0.125,4.13636364 C0.125,3.55515152 0.327083333,3.06090909 0.73125,2.65363636 L0.74375,2.64727273 L0.79375,2.59636364 L0.83125,2.53272727 L0.83125,2.45636364 C0.777083333,2.28666667 0.75,2.10424242 0.75,1.90909091 C0.75,1.4169697 0.920833333,0.996969697 1.2625,0.649090909 C1.60416667,0.301212121 2.01666667,0.127272727 2.5,0.127272727 C2.9875,0.127272727 3.4,0.301212121 3.7375,0.649090909 C3.97916667,0.895151515 4.1375,1.17939394 4.2125,1.50181818 L4.35,1.57181818 L4.35,1.57818182 L4.35,1.57181818 L4.45625,1.62272727 L4.45625,1.63545455 L4.35,1.57818182 L4.375,1.90909091 L4.375,2.04272727 L4.3625,2.16363636 M3.275,0.655454545 L3.1375,0.636363636 L3.125,0.636363636 L3.1125,0.636363636 L3.025,0.649090909 C2.89166667,0.666060606 2.77708333,0.723333333 2.68125,0.820909091 C2.56041667,0.948181818 2.5,1.09878788 2.5,1.27272727 C2.5,1.45090909 2.56041667,1.60151515 2.68125,1.72454545 C2.80625,1.84757576 2.95416667,1.90909091 3.125,1.90909091 C3.23333333,1.90909091 3.33125,1.88575758 3.41875,1.83909091 L3.56875,1.72454545 L3.68125,1.57181818 L3.71875,1.49545455 L3.725,1.46363636 L3.75,1.27272727 L3.74375,1.17727273 L3.675,0.98 L3.625,0.890909091 L3.56875,0.820909091 L3.5625,0.814545455 L3.53125,0.782727273 L3.4125,0.712727273 L3.34375,0.680909091 L3.3375,0.680909091 L3.3125,0.668181818 L3.275,0.655454545" id="Shape" fill="#FFFFFF"></path>
                <path d="M4.35961538,2.57818182 L4.36923077,2.51695733 L4.38846154,2.32307978 L4.38846154,2.10879406 L4.35,1.57818182 L4.51346154,1.67001855 L5.35,2.10879406 L4.35961538,2.57818182 M5.35,2.10879406 L4.38846154,2.10879406 L5.35,2.10879406" id="Shape" fill="#FFCC00"></path>
                <path d="M3.41875,1.83909091 C3.33125,1.88575758 3.23333333,1.90909091 3.125,1.90909091 C2.95416667,1.90909091 2.80625,1.84757576 2.68125,1.72454545 C2.56041667,1.60151515 2.5,1.45090909 2.5,1.27272727 C2.5,1.09878788 2.56041667,0.948181818 2.68125,0.820909091 C2.77708333,0.723333333 2.89166667,0.666060606 3.025,0.649090909 L3.1125,0.636363636 L3.125,0.636363636 L3.1375,0.636363636 L3.275,0.655454545 L3.3125,0.668181818 L3.3375,0.680909091 L3.34375,0.680909091 L3.4125,0.712727273 C3.30416667,0.72969697 3.20833333,0.780606061 3.125,0.865454545 C3.0125,0.98 2.95833333,1.11575758 2.9625,1.27272727 C2.9625,1.43393939 3.01666667,1.56969697 3.125,1.68 C3.20833333,1.76484848 3.30625,1.81787879 3.41875,1.83909091" id="Path" fill="#FFFFFF"></path>
                <path d="M3.41875,1.83909091 C3.30625,1.81787879 3.20833333,1.76484848 3.125,1.68 C3.01666667,1.56969697 2.9625,1.43393939 2.9625,1.27272727 C2.95833333,1.11575758 3.0125,0.98 3.125,0.865454545 C3.20833333,0.780606061 3.30416667,0.72969697 3.4125,0.712727273 L3.53125,0.782727273 L3.5625,0.814545455 L3.56875,0.820909091 L3.625,0.890909091 L3.675,0.98 L3.56875,0.960909091 C3.47708333,0.960909091 3.40208333,0.990606061 3.34375,1.05 C3.28541667,1.10939394 3.25833333,1.18363636 3.2625,1.27272727 C3.25833333,1.36181818 3.28541667,1.43606061 3.34375,1.49545455 C3.40625,1.55909091 3.48125,1.58878788 3.56875,1.58454545 L3.68125,1.57181818 L3.56875,1.72454545 L3.41875,1.83909091" id="Path" fill="#00CCFF"></path>
                <path d="M3.68125,1.57181818 L3.56875,1.58454545 C3.48125,1.58878788 3.40625,1.55909091 3.34375,1.49545455 C3.28541667,1.43606061 3.25833333,1.36181818 3.2625,1.27272727 C3.25833333,1.18363636 3.28541667,1.10939394 3.34375,1.05 C3.40208333,0.990606061 3.47708333,0.960909091 3.56875,0.960909091 L3.675,0.98 L3.74375,1.17727273 L3.75,1.27272727 L3.725,1.46363636 L3.71875,1.49545455 L3.68125,1.57181818" id="Path" fill="#000000"></path>
                <path d="M4.35625,2.20181818 L4.3625,2.16363636 L4.375,2.04272727 L4.375,1.90909091 L4.35,1.57818182 M4.375,1.90909091 L5,1.90909091 M3.275,0.655454545 L3.1375,0.636363636 L3.125,0.636363636 L3.1125,0.636363636 L3.025,0.649090909 C2.89166667,0.666060606 2.77708333,0.723333333 2.68125,0.820909091 C2.56041667,0.948181818 2.5,1.09878788 2.5,1.27272727 C2.5,1.45090909 2.56041667,1.60151515 2.68125,1.72454545 C2.80625,1.84757576 2.95416667,1.90909091 3.125,1.90909091 C3.23333333,1.90909091 3.33125,1.88575758 3.41875,1.83909091 L3.56875,1.72454545 L3.68125,1.57181818 L3.56875,1.58454545 C3.48125,1.58878788 3.40625,1.55909091 3.34375,1.49545455 C3.28541667,1.43606061 3.25833333,1.36181818 3.2625,1.27272727 C3.25833333,1.18363636 3.28541667,1.10939394 3.34375,1.05 C3.40208333,0.990606061 3.47708333,0.960909091 3.56875,0.960909091 L3.675,0.98 L3.74375,1.17727273 L3.75,1.27272727 L3.725,1.46363636 L3.71875,1.49545455 L3.68125,1.57181818 M3.4125,0.712727273 L3.34375,0.680909091 L3.3375,0.680909091 M3.675,0.98 L3.625,0.890909091 L3.56875,0.820909091 L3.5625,0.814545455 L3.53125,0.782727273 L3.4125,0.712727273" id="Shape" stroke="#000000" stroke-width="0.127272727" stroke-linecap="round" stroke-linejoin="round"></path>
                <path d="M4.35,1.57181818 C4.28333333,1.18575758 4.10833333,0.848484848 3.825,0.56 C3.4625,0.186666667 3.02083333,0 2.5,0 C1.98333333,0 1.54166667,0.186666667 1.175,0.56 C0.808333333,0.933333333 0.625,1.3830303 0.625,1.90909091 C0.625,2.1169697 0.654166667,2.31212121 0.7125,2.49454545 L0.64375,2.56454545 C0.214583333,2.99727273 0,3.52121212 0,4.13636364 C0,4.75151515 0.214583333,5.27757576 0.64375,5.71454545 C0.99375,6.07090909 1.40625,6.28090909 1.88125,6.34454545 L2.1875,6.36363636 C2.79166667,6.36363636 3.30833333,6.14727273 3.7375,5.71454545 C4.1625,5.27757576 4.375,4.75151515 4.375,4.13636364 C4.375,3.70363636 4.27083333,3.31757576 4.0625,2.97818182 C4.22083333,2.74484848 4.31875,2.48606061 4.35625,2.20181818 L5,1.90909091 L4.45625,1.63545455 L4.35,1.57818182 L4.35,1.57181818 M1.88125,6.34454545 L1.875,7 L3.125,7" id="Shape" stroke="#000000" stroke-width="0.254545455" stroke-linecap="round" stroke-linejoin="round"></path>
            </g>
        </g>
    </g>
</svg>