<?xml version="1.0" encoding="UTF-8" standalone="no"?>
<svg xmlns:ffdec="https://www.free-decompiler.com/flash" xmlns:xlink="http://www.w3.org/1999/xlink" ffdec:objectType="shape" height="60.1px" width="644.7px" xmlns="http://www.w3.org/2000/svg">
  <g transform="matrix(1.0, 0.0, 0.0, 1.0, 152.6, -28.4)">
    <path d="M490.0 35.0 L490.0 86.0 281.8 86.0 -150.0 85.0 -150.0 30.0 Q170.0 37.05 490.0 35.0" fill="#009900" fill-rule="evenodd" stroke="none"/>
    <path d="M490.25 44.3 Q490.55 46.65 490.0 49.5 489.5 52.4 489.85 56.2 490.25 60.05 490.15 61.95 L490.15 67.25 490.5 73.65 490.55 78.75 490.0 86.0 484.75 86.15 478.3 86.5 Q474.35 86.95 472.05 86.5 L466.65 86.0 459.7 86.0 453.45 85.95 448.1 85.9 441.95 86.0 436.5 85.7 Q434.35 85.3 430.9 85.6 L424.5 85.25 Q421.55 84.65 417.8 85.9 414.1 87.2 412.2 85.95 410.35 84.7 407.3 85.5 L400.6 86.15 394.05 85.7 388.35 85.45 382.85 86.15 Q380.1 86.75 376.25 86.15 L369.15 85.85 363.8 86.1 358.35 85.65 351.3 85.05 Q347.65 84.9 345.3 85.7 L339.3 85.95 333.55 85.7 327.75 86.55 Q324.0 87.2 322.05 86.65 L316.55 85.7 Q313.0 85.35 309.45 86.35 L302.75 86.8 296.75 86.1 292.15 86.0 286.3 86.4 Q282.25 86.8 279.6 86.4 276.95 86.0 274.4 86.4 271.9 86.8 268.45 86.5 L262.65 86.15 256.65 85.7 Q253.05 85.35 250.15 85.65 L243.9 86.3 Q240.5 86.65 237.75 86.25 L231.7 86.6 225.4 86.25 Q222.5 85.2 219.1 85.75 L213.45 85.9 208.25 85.35 202.85 85.85 Q200.4 86.45 196.1 85.95 L189.4 86.3 Q187.05 87.2 183.95 86.25 180.85 85.35 177.85 85.6 L171.95 85.45 Q169.1 85.0 166.1 86.15 163.1 87.35 160.7 86.9 L154.55 85.95 147.35 86.25 Q143.9 87.05 141.25 86.3 L135.8 85.8 Q133.0 86.05 129.35 85.9 L123.25 86.05 118.15 86.2 111.95 86.1 105.35 86.05 99.45 86.1 93.9 86.05 88.05 86.1 81.8 85.45 Q78.65 84.65 75.8 85.4 L69.95 85.65 64.05 85.85 57.4 86.35 51.7 86.1 46.5 85.45 Q43.2 84.9 40.05 85.6 L33.35 86.15 27.25 85.8 Q24.8 85.6 22.0 85.75 L16.0 85.5 9.9 84.8 3.65 85.35 -3.0 85.8 Q-6.35 85.5 -8.85 85.8 L-14.25 86.45 Q-17.1 86.8 -19.95 85.65 -22.8 84.55 -26.5 85.6 L-32.45 85.9 Q-34.7 85.1 -37.85 85.45 L-43.95 86.1 -49.35 86.15 -54.8 85.2 Q-57.75 84.5 -61.6 85.75 -65.4 87.0 -68.2 85.9 -71.0 84.85 -74.5 85.25 L-80.85 85.8 Q-83.7 85.95 -86.35 85.15 L-91.85 84.9 -97.9 85.4 -104.25 85.3 -109.9 84.9 -115.6 85.35 -121.9 85.2 -128.0 84.75 -134.7 85.1 -140.6 85.1 -145.4 85.15 Q-148.0 85.25 -149.05 82.8 -150.1 80.35 -149.65 77.8 -149.2 75.25 -149.7 71.6 -150.15 68.0 -149.55 64.9 -148.95 61.85 -149.15 59.0 -149.3 56.2 -150.05 52.5 L-151.05 46.35 Q-151.3 43.85 -150.6 41.35 -149.9 38.85 -149.7 35.5 -149.45 32.2 -148.1 31.5 -146.75 30.8 -142.7 30.8 L-137.05 31.2 -131.6 30.8 -125.0 30.2 -119.15 30.95 Q-116.05 31.55 -112.55 30.8 L-106.5 30.4 -101.25 30.8 -95.3 30.7 -89.25 31.05 -83.15 31.25 Q-79.85 31.0 -76.2 31.1 L-70.3 31.55 -64.5 31.4 -58.65 31.65 -53.05 31.4 Q-49.8 30.5 -46.9 30.75 L-41.15 31.5 -35.05 31.2 -28.75 31.35 Q-25.7 32.25 -22.65 32.45 L-16.8 32.65 -11.5 33.2 Q-9.0 33.85 -5.5 33.1 L0.55 32.45 6.05 31.9 Q9.0 31.3 12.7 31.85 L18.65 32.7 24.8 33.6 31.35 33.8 36.9 33.25 43.2 33.15 49.3 32.75 55.25 32.5 61.85 32.8 67.6 32.9 73.2 33.1 79.15 33.4 Q81.9 33.55 84.95 34.4 88.0 35.3 91.0 34.4 94.05 33.5 97.7 33.3 L103.25 33.5 108.45 34.45 114.95 35.05 121.1 34.95 127.5 34.55 132.95 34.75 138.65 35.3 Q142.45 35.4 145.4 35.15 L151.1 34.9 156.9 35.1 162.8 35.15 168.8 34.75 174.4 35.0 180.95 35.25 187.0 35.05 192.85 34.7 Q196.85 34.4 199.35 34.7 L205.55 35.05 211.8 35.0 216.45 35.0 222.35 35.35 Q226.15 35.65 229.05 35.3 L235.0 35.05 240.7 34.85 Q243.4 34.65 246.35 35.5 L252.05 35.8 258.25 35.55 265.0 35.9 Q268.3 35.95 271.15 35.05 274.05 34.2 277.1 34.65 L283.05 35.45 288.95 35.7 295.1 35.85 301.15 35.7 307.05 34.7 313.25 35.0 Q316.45 36.0 319.1 34.9 321.8 33.8 325.35 35.15 328.95 36.5 331.4 35.25 333.9 34.05 336.85 34.55 L342.55 35.45 Q345.35 35.9 348.75 35.35 L355.75 35.05 361.75 35.2 367.05 35.05 373.1 34.85 379.15 34.7 385.05 35.25 390.95 35.8 396.5 35.4 Q399.1 35.05 402.25 35.3 L408.3 34.95 414.55 34.65 420.95 34.4 426.95 34.2 432.6 34.4 438.55 35.05 Q441.9 35.75 444.8 35.15 L450.9 34.85 457.55 35.3 463.3 35.5 Q465.55 35.55 468.75 34.6 L475.45 34.4 Q478.9 35.2 480.85 34.45 482.85 33.75 485.3 35.5 487.8 37.25 488.85 39.6 489.95 42.0 490.25 44.3 Z" fill="none" stroke="#009900" stroke-linecap="round" stroke-linejoin="round" stroke-width="3.0"/>
    <path d="M490.0 33.4 L490.0 84.4 281.8 84.4 -150.0 83.4 -150.0 28.4 Q170.0 35.45 490.0 33.4" fill="#0099ff" fill-opacity="0.0" fill-rule="evenodd" stroke="none"/>
  </g>
</svg>
