<?xml version="1.0" encoding="UTF-8" standalone="no"?>
<svg xmlns:ffdec="https://www.free-decompiler.com/flash" xmlns:xlink="http://www.w3.org/1999/xlink" ffdec:objectType="shape" height="50.9px" width="45.65px" xmlns="http://www.w3.org/2000/svg">
  <g transform="matrix(1.0, 0.0, 0.0, 1.0, 20.45, 40.0)">
    <path d="M19.35 -20.25 L19.8 -22.8 24.2 -19.0 19.35 -20.25 24.2 -19.0 18.6 -18.1 19.35 -20.25" fill="#ffcc00" fill-rule="evenodd" stroke="none"/>
    <path d="M15.7 -28.75 L14.95 -29.1 13.05 -28.85 Q12.2 -28.35 12.0 -27.3 11.7 -26.3 12.15 -25.4 12.75 -24.55 13.75 -24.35 L14.6 -24.25 14.0 -23.6 13.95 -23.55 13.7 -23.4 13.5 -23.25 12.1 -22.7 Q10.8 -23.25 10.1 -24.5 9.15 -26.05 9.6 -27.9 10.05 -29.7 11.7 -30.7 12.95 -31.4 14.2 -31.25 L14.4 -31.05 15.2 -30.15 15.6 -29.25 15.7 -28.75" fill="#00ccff" fill-rule="evenodd" stroke="none"/>
    <path d="M14.6 -24.25 L13.75 -24.35 Q12.75 -24.55 12.15 -25.4 11.7 -26.3 12.0 -27.3 12.2 -28.35 13.05 -28.85 L14.95 -29.1 15.7 -28.75 Q16.05 -27.65 15.7 -26.35 15.4 -25.1 14.6 -24.25" fill="#000000" fill-rule="evenodd" stroke="none"/>
    <path d="M14.2 -31.25 Q12.95 -31.4 11.7 -30.7 10.05 -29.7 9.6 -27.9 9.15 -26.05 10.1 -24.5 10.8 -23.25 12.1 -22.7 L11.5 -22.6 10.9 -22.6 10.4 -22.6 9.7 -22.75 9.65 -22.75 Q7.7 -23.25 6.6 -25.0 5.5 -26.75 6.05 -28.8 6.5 -30.8 8.3 -31.9 10.05 -32.9 12.1 -32.4 L12.5 -32.25 Q13.35 -32.05 13.9 -31.5 L14.2 -31.25" fill="#ffffff" fill-rule="evenodd" stroke="none"/>
    <path d="M24.2 -19.0 L19.8 -22.8 Q20.1 -26.75 18.35 -30.35 L17.7 -31.6 Q14.6 -36.95 8.55 -38.5 2.55 -40.0 -2.85 -36.8 -8.2 -33.65 -9.65 -27.7 -10.3 -25.25 -10.15 -23.05 L-10.8 -22.65 Q-17.05 -19.0 -18.85 -11.95 -20.7 -4.9 -16.9 1.35 -13.95 6.45 -8.6 8.6 L-7.35 9.0 -6.25 9.35 Q0.75 11.1 7.05 7.45 13.2 3.7 15.0 -3.35 16.2 -8.05 15.05 -12.3 L14.9 -12.75 Q17.3 -14.9 18.6 -18.1 L24.2 -19.0" fill="none" stroke="#000000" stroke-linecap="round" stroke-linejoin="round" stroke-width="2.0"/>
    <path d="M14.6 -24.25 L13.75 -24.35 Q12.75 -24.55 12.15 -25.4 11.7 -26.3 12.0 -27.3 12.2 -28.35 13.05 -28.85 L14.95 -29.1 15.7 -28.75 15.6 -29.25 15.2 -30.15 14.4 -31.05 14.2 -31.25 13.9 -31.5 Q13.35 -32.05 12.5 -32.25 L12.1 -32.4 Q10.05 -32.9 8.3 -31.9 6.5 -30.8 6.05 -28.8 5.5 -26.75 6.6 -25.0 7.7 -23.25 9.65 -22.75 L9.7 -22.75 10.4 -22.6 10.9 -22.6 11.5 -22.6 12.1 -22.7 13.5 -23.25 13.7 -23.4 13.95 -23.55 14.0 -23.6 14.6 -24.25 Q15.4 -25.1 15.7 -26.35 16.05 -27.65 15.7 -28.75 M19.8 -22.8 L19.35 -20.25 24.2 -19.0 M18.6 -18.1 L19.35 -20.25" fill="none" stroke="#000000" stroke-linecap="round" stroke-linejoin="round" stroke-width="1.0"/>
  </g>
</svg>
