<?xml version="1.0" encoding="UTF-8" standalone="no"?>
<svg xmlns:ffdec="https://www.free-decompiler.com/flash" xmlns:xlink="http://www.w3.org/1999/xlink" ffdec:objectType="shape" height="11.0px" width="11.0px" xmlns="http://www.w3.org/2000/svg">
  <g transform="matrix(1.0, 0.0, 0.0, 1.0, -5.25, 33.15)">
    <path d="M9.9 -22.75 Q8.75 -22.95 7.65 -23.7 6.05 -24.95 5.8 -27.0 5.5 -29.05 6.8 -30.7 8.0 -32.35 10.05 -32.65 11.65 -32.8 13.05 -32.0 L13.65 -31.7 13.75 -31.65 13.8 -31.55 14.65 -30.8 14.8 -30.55 14.95 -30.3 15.2 -29.75 Q14.1 -30.4 12.65 -30.25 10.75 -30.0 9.7 -28.45 8.55 -26.95 8.8 -25.1 9.0 -23.7 9.9 -22.75" fill="#ffffff" fill-rule="evenodd" stroke="none"/>
    <path d="M9.9 -22.75 Q9.0 -23.7 8.8 -25.1 8.55 -26.95 9.7 -28.45 10.75 -30.0 12.65 -30.25 14.1 -30.4 15.2 -29.75 L15.65 -28.75 Q15.6 -28.6 15.7 -28.4 L15.7 -28.35 15.75 -27.6 15.65 -26.8 15.0 -27.45 Q14.15 -28.15 13.2 -28.0 12.2 -27.9 11.65 -27.0 10.95 -26.2 11.05 -25.25 11.2 -24.15 12.05 -23.55 L12.8 -23.1 Q12.2 -22.8 11.4 -22.7 L9.9 -22.75" fill="#00ccff" fill-rule="evenodd" stroke="none"/>
    <path d="M12.8 -23.1 L12.05 -23.55 Q11.2 -24.15 11.05 -25.25 10.95 -26.2 11.65 -27.0 12.2 -27.9 13.2 -28.0 14.15 -28.15 15.0 -27.45 L15.65 -26.8 15.1 -25.3 14.75 -24.6 13.65 -23.6 13.45 -23.4 12.8 -23.1" fill="#000000" fill-rule="evenodd" stroke="none"/>
    <path d="M14.65 -30.8 L13.8 -31.55 13.75 -31.65 13.65 -31.7 13.05 -32.0 Q11.65 -32.8 10.05 -32.65 8.0 -32.35 6.8 -30.7 5.5 -29.05 5.8 -27.0 6.05 -24.95 7.65 -23.7 8.75 -22.95 9.9 -22.75 L11.4 -22.7 Q12.2 -22.8 12.8 -23.1 L12.05 -23.55 Q11.2 -24.15 11.05 -25.25 10.95 -26.2 11.65 -27.0 12.2 -27.9 13.2 -28.0 14.15 -28.15 15.0 -27.45 L15.65 -26.8 15.1 -25.3 14.75 -24.6 13.65 -23.6 13.45 -23.4 12.8 -23.1 M15.2 -29.75 L14.95 -30.3 M15.65 -26.8 L15.75 -27.6 15.7 -28.35 15.7 -28.4 Q15.6 -28.6 15.65 -28.75 L15.2 -29.75" fill="none" stroke="#000000" stroke-linecap="round" stroke-linejoin="round" stroke-width="1.0"/>
  </g>
</svg>
