<?xml version="1.0" encoding="UTF-8" standalone="no"?>
<svg xmlns:ffdec="https://www.free-decompiler.com/flash" xmlns:xlink="http://www.w3.org/1999/xlink" ffdec:objectType="shape" height="50.3px" width="46.55px" xmlns="http://www.w3.org/2000/svg">
  <g transform="matrix(1.0, 0.0, 0.0, 1.0, 20.95, 44.75)">
    <path d="M19.8 -23.85 L20.5 -26.3 24.6 -22.2 Q22.2 -22.95 19.8 -23.85 22.2 -22.95 24.6 -22.2 L18.95 -21.65 19.8 -23.85" fill="#ffcc00" fill-rule="evenodd" stroke="none"/>
    <path d="M15.65 -35.2 L15.85 -35.0 16.55 -34.05 16.85 -33.1 16.95 -32.55 16.2 -33.0 14.25 -32.85 Q13.4 -32.5 13.1 -31.45 12.7 -30.5 13.1 -29.55 13.6 -28.65 14.65 -28.35 L15.45 -28.15 14.8 -27.6 14.7 -27.55 14.45 -27.4 14.3 -27.3 Q13.5 -26.95 12.8 -26.9 11.6 -27.5 10.95 -28.8 10.15 -30.45 10.8 -32.25 11.35 -34.0 13.1 -34.85 14.4 -35.5 15.65 -35.2" fill="#00ccff" fill-rule="evenodd" stroke="none"/>
    <path d="M16.95 -32.55 Q17.2 -31.45 16.75 -30.2 16.3 -28.95 15.45 -28.15 L14.65 -28.35 Q13.6 -28.65 13.1 -29.55 12.7 -30.5 13.1 -31.45 13.4 -32.5 14.25 -32.85 L16.2 -33.0 16.95 -32.55" fill="#000000" fill-rule="evenodd" stroke="none"/>
    <path d="M12.8 -26.9 L12.2 -26.8 11.6 -26.85 11.15 -26.9 10.45 -27.1 10.4 -27.15 Q8.5 -27.8 7.5 -29.6 6.6 -31.45 7.35 -33.45 7.95 -35.45 9.8 -36.35 L13.65 -36.5 14.0 -36.3 Q14.8 -36.05 15.35 -35.45 L15.65 -35.2 Q14.4 -35.5 13.1 -34.85 11.35 -34.0 10.8 -32.25 10.15 -30.45 10.95 -28.8 11.6 -27.5 12.8 -26.9" fill="#ffffff" fill-rule="evenodd" stroke="none"/>
    <path d="M24.6 -22.2 L20.5 -26.3 Q21.15 -30.2 19.7 -34.0 L19.15 -35.2 Q16.5 -40.85 10.6 -42.85 4.8 -44.9 -0.9 -42.15 -6.45 -39.45 -8.5 -33.6 -9.3 -31.3 -9.3 -29.0 L-10.05 -28.65 Q-16.55 -25.6 -18.9 -18.75 -21.35 -11.85 -18.05 -5.3 -15.5 0.0 -10.35 2.55 L-9.2 3.1 -8.1 3.5 Q-1.25 5.9 5.3 2.75 11.75 -0.4 14.15 -7.35 15.7 -11.95 14.9 -16.3 L14.8 -16.75 Q17.4 -18.65 18.95 -21.65 L24.6 -22.2" fill="none" stroke="#000000" stroke-linecap="round" stroke-linejoin="round" stroke-width="2.0"/>
    <path d="M12.8 -26.9 L12.2 -26.8 11.6 -26.85 11.15 -26.9 10.45 -27.1 10.4 -27.15 Q8.5 -27.8 7.5 -29.6 6.6 -31.45 7.35 -33.45 7.95 -35.45 9.8 -36.35 L13.65 -36.5 14.0 -36.3 Q14.8 -36.05 15.35 -35.45 L15.65 -35.2 15.85 -35.0 16.55 -34.05 16.85 -33.1 16.95 -32.55 Q17.2 -31.45 16.75 -30.2 16.3 -28.95 15.45 -28.15 L14.8 -27.6 14.7 -27.55 14.45 -27.4 14.3 -27.3 Q13.5 -26.95 12.8 -26.9 M15.45 -28.15 L14.65 -28.35 Q13.6 -28.65 13.1 -29.55 12.7 -30.5 13.1 -31.45 13.4 -32.5 14.25 -32.85 L16.2 -33.0 16.95 -32.55 M20.5 -26.3 L19.8 -23.85 Q22.2 -22.95 24.6 -22.2 M18.95 -21.65 L19.8 -23.85" fill="none" stroke="#000000" stroke-linecap="round" stroke-linejoin="round" stroke-width="1.0"/>
  </g>
</svg>
