<?xml version="1.0" encoding="UTF-8" standalone="no"?>
<svg xmlns:ffdec="https://www.free-decompiler.com/flash" xmlns:xlink="http://www.w3.org/1999/xlink" ffdec:objectType="shape" height="11.05px" width="11.05px" xmlns="http://www.w3.org/2000/svg">
  <g transform="matrix(1.0, 0.0, 0.0, 1.0, -6.4, 37.45)">
    <path d="M10.65 -27.0 Q9.55 -27.35 8.55 -28.2 7.05 -29.6 6.9 -31.65 6.8 -33.7 8.25 -35.25 9.6 -36.8 11.65 -36.95 13.25 -37.0 14.6 -36.05 L15.15 -35.7 15.2 -35.6 15.3 -35.55 16.05 -34.7 16.2 -34.45 16.25 -34.2 16.3 -34.15 16.55 -33.65 Q15.45 -34.4 14.0 -34.25 12.1 -34.2 10.95 -32.8 9.65 -31.4 9.8 -29.5 9.85 -28.15 10.65 -27.0" fill="#ffffff" fill-rule="evenodd" stroke="none"/>
    <path d="M10.65 -27.0 Q9.85 -28.15 9.8 -29.5 9.65 -31.4 10.95 -32.8 12.1 -34.2 14.0 -34.25 15.45 -34.4 16.55 -33.65 L16.85 -32.6 16.85 -32.25 16.85 -32.15 16.95 -31.45 16.7 -30.7 16.15 -31.3 Q15.35 -32.05 14.4 -32.05 13.35 -32.0 12.75 -31.15 12.0 -30.45 12.0 -29.45 12.05 -28.4 12.85 -27.75 L13.6 -27.2 12.1 -26.9 10.65 -27.0" fill="#00ccff" fill-rule="evenodd" stroke="none"/>
    <path d="M13.6 -27.2 L12.85 -27.75 Q12.05 -28.4 12.0 -29.45 12.0 -30.45 12.75 -31.15 13.35 -32.0 14.4 -32.05 15.35 -32.05 16.15 -31.3 L16.7 -30.7 16.05 -29.15 15.65 -28.55 14.45 -27.55 14.25 -27.45 13.6 -27.2" fill="#000000" fill-rule="evenodd" stroke="none"/>
    <path d="M16.05 -34.7 L15.3 -35.55 15.2 -35.6 15.15 -35.7 14.6 -36.05 Q13.25 -37.0 11.65 -36.95 9.6 -36.8 8.25 -35.25 6.8 -33.7 6.9 -31.65 7.05 -29.6 8.55 -28.2 9.55 -27.35 10.65 -27.0 L12.1 -26.9 13.6 -27.2 12.85 -27.75 Q12.05 -28.4 12.0 -29.45 12.0 -30.45 12.75 -31.15 13.35 -32.0 14.4 -32.05 15.35 -32.05 16.15 -31.3 L16.7 -30.7 16.95 -31.45 16.85 -32.15 16.85 -32.25 16.85 -32.6 16.55 -33.65 16.3 -34.15 16.25 -34.2 M16.7 -30.7 L16.05 -29.15 15.65 -28.55 14.45 -27.55 14.25 -27.45 13.6 -27.2" fill="none" stroke="#000000" stroke-linecap="round" stroke-linejoin="round" stroke-width="1.0"/>
  </g>
</svg>
