<?xml version="1.0" encoding="UTF-8" standalone="no"?>
<svg xmlns:ffdec="https://www.free-decompiler.com/flash" xmlns:xlink="http://www.w3.org/1999/xlink" ffdec:objectType="shape" height="48.6px" width="47.7px" xmlns="http://www.w3.org/2000/svg">
  <g transform="matrix(1.0, 0.0, 0.0, 1.0, 22.3, 49.75)">
    <path d="M20.0 -26.4 L21.1 -28.7 24.4 -23.9 20.0 -26.4 24.4 -23.9 18.75 -24.45 20.0 -26.4" fill="#ffcc00" fill-rule="evenodd" stroke="none"/>
    <path d="M17.9 -38.35 L18.1 -38.1 18.6 -37.05 18.7 -36.1 18.7 -35.5 18.05 -36.05 Q17.1 -36.6 16.15 -36.3 15.2 -36.05 14.75 -35.15 14.15 -34.2 14.4 -33.25 14.75 -32.25 15.65 -31.75 L16.45 -31.45 Q16.1 -31.15 15.75 -31.0 L15.65 -30.95 15.4 -30.85 15.15 -30.8 13.65 -30.6 Q12.6 -31.45 12.15 -32.85 11.7 -34.6 12.65 -36.3 13.45 -37.9 15.35 -38.45 L17.9 -38.35" fill="#00ccff" fill-rule="evenodd" stroke="none"/>
    <path d="M18.7 -35.5 Q18.75 -34.35 18.1 -33.2 17.45 -32.05 16.45 -31.45 L15.65 -31.75 Q14.75 -32.25 14.4 -33.25 14.15 -34.2 14.75 -35.15 15.2 -36.05 16.15 -36.3 17.1 -36.6 18.05 -36.05 L18.7 -35.5" fill="#000000" fill-rule="evenodd" stroke="none"/>
    <path d="M13.65 -30.6 L13.0 -30.65 12.4 -30.85 12.0 -30.95 11.3 -31.3 11.25 -31.35 Q9.55 -32.3 8.9 -34.25 8.35 -36.25 9.4 -38.1 10.35 -39.9 12.35 -40.5 14.3 -41.0 16.2 -39.95 L16.5 -39.7 17.7 -38.6 17.9 -38.35 15.35 -38.45 Q13.45 -37.9 12.65 -36.3 11.7 -34.6 12.15 -32.85 12.6 -31.45 13.65 -30.6" fill="#ffffff" fill-rule="evenodd" stroke="none"/>
    <path d="M24.4 -23.9 L21.1 -28.7 Q22.4 -32.45 21.65 -36.4 L21.35 -37.75 Q19.75 -43.7 14.3 -46.75 8.9 -49.8 2.85 -48.15 -3.1 -46.45 -6.1 -41.05 -7.35 -38.9 -7.7 -36.7 L-8.5 -36.5 Q-15.5 -34.6 -19.05 -28.3 -22.6 -21.95 -20.6 -14.9 -19.0 -9.25 -14.4 -5.8 L-13.35 -5.05 -12.35 -4.45 Q-6.05 -0.95 1.0 -2.75 7.85 -4.85 11.45 -11.15 13.85 -15.4 13.8 -19.85 L13.8 -20.3 Q16.7 -21.75 18.75 -24.45 L24.4 -23.9" fill="none" stroke="#000000" stroke-linecap="round" stroke-linejoin="round" stroke-width="2.0"/>
    <path d="M13.65 -30.6 L13.0 -30.65 12.4 -30.85 12.0 -30.95 11.3 -31.3 11.25 -31.35 Q9.55 -32.3 8.9 -34.25 8.35 -36.25 9.4 -38.1 10.35 -39.9 12.35 -40.5 14.3 -41.0 16.2 -39.95 L16.5 -39.7 17.7 -38.6 17.9 -38.35 18.1 -38.1 18.6 -37.05 18.7 -36.1 18.7 -35.5 Q18.75 -34.35 18.1 -33.2 17.45 -32.05 16.45 -31.45 16.1 -31.15 15.75 -31.0 L15.65 -30.95 15.4 -30.85 15.15 -30.8 13.65 -30.6 M16.45 -31.45 L15.65 -31.75 Q14.75 -32.25 14.4 -33.25 14.15 -34.2 14.75 -35.15 15.2 -36.05 16.15 -36.3 17.1 -36.6 18.05 -36.05 L18.7 -35.5 M21.1 -28.7 L20.0 -26.4 24.4 -23.9 M18.75 -24.45 L20.0 -26.4" fill="none" stroke="#000000" stroke-linecap="round" stroke-linejoin="round" stroke-width="1.0"/>
  </g>
</svg>
