<?xml version="1.0" encoding="UTF-8" standalone="no"?>
<svg xmlns:ffdec="https://www.free-decompiler.com/flash" xmlns:xlink="http://www.w3.org/1999/xlink" ffdec:objectType="shape" height="11.05px" width="11.0px" xmlns="http://www.w3.org/2000/svg">
  <g transform="matrix(1.0, 0.0, 0.0, 1.0, -8.1, 41.25)">
    <path d="M11.5 -31.15 Q10.45 -31.7 9.65 -32.7 8.45 -34.35 8.65 -36.4 8.9 -38.45 10.6 -39.7 12.2 -41.0 14.25 -40.7 15.85 -40.5 17.0 -39.35 L17.5 -38.85 17.6 -38.75 17.65 -38.7 18.2 -37.75 18.3 -37.45 18.35 -37.25 18.35 -37.2 18.5 -36.65 Q17.55 -37.5 16.15 -37.7 14.25 -37.95 12.85 -36.8 11.3 -35.65 11.05 -33.75 10.9 -32.4 11.5 -31.15" fill="#ffffff" fill-rule="evenodd" stroke="none"/>
    <path d="M11.5 -31.15 Q10.9 -32.4 11.05 -33.75 11.3 -35.65 12.85 -36.8 14.25 -37.95 16.15 -37.7 17.55 -37.5 18.5 -36.65 L18.6 -35.5 18.55 -35.15 18.55 -35.1 18.45 -34.4 18.15 -33.65 17.75 -34.45 Q17.05 -35.3 16.1 -35.45 15.1 -35.6 14.35 -34.85 13.45 -34.3 13.3 -33.3 13.15 -32.25 13.8 -31.45 L14.5 -30.8 13.0 -30.75 11.5 -31.15" fill="#00ccff" fill-rule="evenodd" stroke="none"/>
    <path d="M14.5 -30.8 L13.8 -31.45 Q13.15 -32.25 13.3 -33.3 13.45 -34.3 14.35 -34.85 15.1 -35.6 16.1 -35.45 17.05 -35.3 17.75 -34.45 L18.15 -33.65 17.2 -32.3 16.65 -31.8 Q16.0 -31.3 15.35 -31.05 L15.1 -30.95 14.5 -30.8" fill="#000000" fill-rule="evenodd" stroke="none"/>
    <path d="M18.2 -37.75 L17.65 -38.7 17.6 -38.75 17.5 -38.85 17.0 -39.35 Q15.85 -40.5 14.25 -40.7 12.2 -41.0 10.6 -39.7 8.9 -38.45 8.65 -36.4 8.45 -34.35 9.65 -32.7 10.45 -31.7 11.5 -31.15 L13.0 -30.75 14.5 -30.8 13.8 -31.45 Q13.15 -32.25 13.3 -33.3 13.45 -34.3 14.35 -34.85 15.1 -35.6 16.1 -35.45 17.05 -35.3 17.75 -34.45 L18.15 -33.65 18.45 -34.4 18.55 -35.1 18.55 -35.15 18.6 -35.5 18.5 -36.65 18.35 -37.2 18.35 -37.25 M18.15 -33.65 L17.2 -32.3 16.65 -31.8 Q16.0 -31.3 15.35 -31.05 L15.1 -30.95 14.5 -30.8" fill="none" stroke="#000000" stroke-linecap="round" stroke-linejoin="round" stroke-width="1.0"/>
  </g>
</svg>
