<?xml version="1.0" encoding="UTF-8" standalone="no"?>
<svg xmlns:ffdec="https://www.free-decompiler.com/flash" xmlns:xlink="http://www.w3.org/1999/xlink" ffdec:objectType="shape" height="46.15px" width="47.9px" xmlns="http://www.w3.org/2000/svg">
  <g transform="matrix(1.0, 0.0, 0.0, 1.0, 23.4, 55.95)">
    <path d="M19.75 -30.25 L21.3 -32.3 23.5 -27.0 19.75 -30.25 23.5 -27.0 18.1 -28.6 19.75 -30.25" fill="#ffcc00" fill-rule="evenodd" stroke="none"/>
    <path d="M20.25 -39.45 L19.75 -40.1 Q18.9 -40.8 17.9 -40.7 16.95 -40.65 16.3 -39.85 15.55 -39.05 15.6 -38.1 15.75 -37.0 16.55 -36.4 L17.25 -35.9 16.45 -35.6 16.35 -35.55 16.1 -35.55 15.8 -35.5 14.35 -35.65 Q13.45 -36.7 13.3 -38.1 13.2 -39.95 14.4 -41.4 15.6 -42.8 17.5 -42.95 18.9 -43.1 20.0 -42.35 L20.15 -42.1 20.45 -40.95 20.35 -39.95 20.25 -39.45" fill="#00ccff" fill-rule="evenodd" stroke="none"/>
    <path d="M17.25 -35.9 L16.55 -36.4 Q15.75 -37.0 15.6 -38.1 15.55 -39.05 16.3 -39.85 16.95 -40.65 17.9 -40.7 18.9 -40.8 19.75 -40.1 L20.25 -39.45 Q20.1 -38.3 19.2 -37.3 18.35 -36.35 17.25 -35.9" fill="#000000" fill-rule="evenodd" stroke="none"/>
    <path d="M20.0 -42.35 Q18.9 -43.1 17.5 -42.95 15.6 -42.8 14.4 -41.4 13.2 -39.95 13.3 -38.1 13.45 -36.7 14.35 -35.65 L13.75 -35.8 13.2 -36.05 12.8 -36.25 12.2 -36.75 Q10.65 -38.1 10.4 -40.1 10.25 -42.15 11.6 -43.75 12.95 -45.4 15.0 -45.55 17.0 -45.65 18.65 -44.3 L18.9 -44.0 Q19.55 -43.45 19.85 -42.7 L20.0 -42.35" fill="#ffffff" fill-rule="evenodd" stroke="none"/>
    <path d="M23.5 -27.0 L21.3 -32.3 Q23.3 -35.7 23.3 -39.75 L23.3 -41.1 Q22.85 -47.3 18.15 -51.3 13.45 -55.35 7.2 -54.9 1.05 -54.4 -3.0 -49.75 -4.6 -47.9 -5.45 -45.75 L-6.25 -45.7 Q-13.45 -45.2 -18.1 -39.75 -22.95 -34.25 -22.3 -26.95 -21.85 -21.05 -18.0 -16.8 L-17.15 -15.85 -16.3 -15.05 Q-10.8 -10.4 -3.55 -10.85 3.6 -11.5 8.4 -17.0 11.55 -20.7 12.35 -25.05 L12.45 -25.5 Q15.55 -26.35 18.1 -28.6 L23.5 -27.0" fill="none" stroke="#000000" stroke-linecap="round" stroke-linejoin="round" stroke-width="2.0"/>
    <path d="M17.25 -35.9 L16.55 -36.4 Q15.75 -37.0 15.6 -38.1 15.55 -39.05 16.3 -39.85 16.95 -40.65 17.9 -40.7 18.9 -40.8 19.75 -40.1 L20.25 -39.45 20.35 -39.95 20.45 -40.95 20.15 -42.1 20.0 -42.35 19.85 -42.7 Q19.55 -43.45 18.9 -44.0 L18.65 -44.3 Q17.0 -45.65 15.0 -45.55 12.95 -45.4 11.6 -43.75 10.25 -42.15 10.4 -40.1 10.65 -38.1 12.2 -36.75 L12.8 -36.25 13.2 -36.05 13.75 -35.8 14.35 -35.65 15.8 -35.5 16.1 -35.55 16.35 -35.55 16.45 -35.6 17.25 -35.9 Q18.35 -36.35 19.2 -37.3 20.1 -38.3 20.25 -39.45 M21.3 -32.3 L19.75 -30.25 23.5 -27.0 M18.1 -28.6 L19.75 -30.25" fill="none" stroke="#000000" stroke-linecap="round" stroke-linejoin="round" stroke-width="1.0"/>
  </g>
</svg>
