<?xml version="1.0" encoding="UTF-8" standalone="no"?>
<svg xmlns:ffdec="https://www.free-decompiler.com/flash" xmlns:xlink="http://www.w3.org/1999/xlink" ffdec:objectType="shape" height="11.05px" width="11.0px" xmlns="http://www.w3.org/2000/svg">
  <g transform="matrix(1.0, 0.0, 0.0, 1.0, -9.8, 46.15)">
    <path d="M12.35 -36.6 Q11.4 -37.3 10.8 -38.45 9.9 -40.3 10.55 -42.2 11.25 -44.2 13.15 -45.1 14.95 -46.0 16.9 -45.4 18.45 -44.85 19.35 -43.5 L19.75 -42.95 19.8 -42.85 19.8 -42.75 20.2 -41.7 20.2 -41.4 20.25 -41.2 20.3 -41.15 20.25 -40.5 Q19.5 -41.65 18.15 -42.1 16.35 -42.65 14.75 -41.75 13.0 -40.95 12.45 -39.2 12.0 -37.9 12.35 -36.6" fill="#ffffff" fill-rule="evenodd" stroke="none"/>
    <path d="M12.35 -36.6 Q12.0 -37.9 12.45 -39.2 13.0 -40.95 14.75 -41.75 16.35 -42.65 18.15 -42.1 19.5 -41.65 20.25 -40.5 L20.15 -39.45 20.1 -39.15 20.05 -39.05 19.8 -38.4 19.35 -37.7 19.05 -38.55 Q18.6 -39.55 17.65 -39.85 L15.85 -39.65 Q14.85 -39.25 14.5 -38.3 14.15 -37.3 14.65 -36.4 L15.2 -35.65 13.7 -35.85 Q13.0 -36.15 12.35 -36.6" fill="#00ccff" fill-rule="evenodd" stroke="none"/>
    <path d="M15.2 -35.65 L14.65 -36.4 Q14.15 -37.3 14.5 -38.3 14.85 -39.25 15.85 -39.65 L17.65 -39.85 Q18.6 -39.55 19.05 -38.55 L19.35 -37.7 18.15 -36.6 17.55 -36.15 16.1 -35.65 15.85 -35.6 15.2 -35.65" fill="#000000" fill-rule="evenodd" stroke="none"/>
    <path d="M20.2 -41.7 L19.8 -42.75 19.8 -42.85 19.75 -42.95 19.35 -43.5 Q18.45 -44.85 16.9 -45.4 14.95 -46.0 13.15 -45.1 11.25 -44.2 10.55 -42.2 9.9 -40.3 10.8 -38.45 11.4 -37.3 12.35 -36.6 13.0 -36.15 13.7 -35.85 L15.2 -35.65 14.65 -36.4 Q14.15 -37.3 14.5 -38.3 14.85 -39.25 15.85 -39.65 L17.65 -39.85 Q18.6 -39.55 19.05 -38.55 L19.35 -37.7 18.15 -36.6 17.55 -36.15 16.1 -35.65 15.85 -35.6 15.2 -35.65 M20.25 -40.5 L20.3 -41.15 20.25 -41.2 M19.35 -37.7 L19.8 -38.4 20.05 -39.05 20.1 -39.15 20.15 -39.45 20.25 -40.5" fill="none" stroke="#000000" stroke-linecap="round" stroke-linejoin="round" stroke-width="1.0"/>
  </g>
</svg>
