<?xml version="1.0" encoding="UTF-8" standalone="no"?>
<svg xmlns:ffdec="https://www.free-decompiler.com/flash" xmlns:xlink="http://www.w3.org/1999/xlink" ffdec:objectType="shape" height="42.9px" width="50.0px" xmlns="http://www.w3.org/2000/svg">
  <g transform="matrix(1.0, 0.0, 0.0, 1.0, 24.35, 60.85)">
    <path d="M18.6 -32.9 L20.5 -34.5 21.6 -28.85 18.6 -32.9 21.6 -28.85 16.65 -31.6 18.6 -32.9" fill="#ffcc00" fill-rule="evenodd" stroke="none"/>
    <path d="M21.1 -41.7 L20.75 -42.45 Q20.05 -43.35 19.1 -43.45 18.1 -43.65 17.35 -43.0 16.45 -42.4 16.25 -41.4 16.15 -40.35 16.85 -39.5 L17.4 -38.9 16.55 -38.8 16.5 -38.8 16.2 -38.8 15.95 -38.85 Q15.1 -39.0 14.55 -39.3 13.85 -40.55 14.05 -41.95 14.35 -43.75 15.85 -44.9 17.3 -46.05 19.25 -45.75 20.65 -45.55 21.5 -44.6 L21.55 -44.3 21.65 -43.1 21.35 -42.2 21.1 -41.7" fill="#00ccff" fill-rule="evenodd" stroke="none"/>
    <path d="M17.4 -38.9 L16.85 -39.5 Q16.15 -40.35 16.25 -41.4 16.45 -42.4 17.35 -43.0 18.1 -43.65 19.1 -43.45 20.05 -43.35 20.75 -42.45 L21.1 -41.7 Q20.7 -40.65 19.65 -39.85 18.6 -39.1 17.4 -38.9" fill="#000000" fill-rule="evenodd" stroke="none"/>
    <path d="M21.5 -44.6 Q20.65 -45.55 19.25 -45.75 17.3 -46.05 15.85 -44.9 14.35 -43.75 14.05 -41.95 13.85 -40.55 14.55 -39.3 L14.0 -39.65 13.45 -39.95 13.15 -40.3 12.65 -40.85 12.65 -40.9 Q11.4 -42.5 11.65 -44.55 12.0 -46.55 13.65 -47.8 15.3 -49.1 17.35 -48.85 19.35 -48.5 20.65 -46.8 L20.8 -46.45 Q21.35 -45.75 21.4 -44.95 L21.5 -44.6" fill="#ffffff" fill-rule="evenodd" stroke="none"/>
    <path d="M21.6 -28.85 L20.5 -34.5 Q23.25 -37.4 24.2 -41.35 L24.45 -42.65 Q25.4 -48.8 21.7 -53.75 18.0 -58.7 11.8 -59.65 5.7 -60.55 0.7 -56.85 -1.25 -55.4 -2.5 -53.55 L-3.3 -53.65 Q-10.45 -54.75 -16.25 -50.45 -22.15 -46.15 -23.15 -38.95 -24.0 -33.1 -21.2 -28.05 L-20.55 -27.0 -19.9 -26.05 Q-15.55 -20.25 -8.4 -19.1 -1.25 -18.15 4.6 -22.45 8.45 -25.35 10.25 -29.4 L10.4 -29.85 Q13.7 -29.95 16.65 -31.6 L21.6 -28.85" fill="none" stroke="#000000" stroke-linecap="round" stroke-linejoin="round" stroke-width="2.0"/>
    <path d="M17.4 -38.9 L16.85 -39.5 Q16.15 -40.35 16.25 -41.4 16.45 -42.4 17.35 -43.0 18.1 -43.65 19.1 -43.45 20.05 -43.35 20.75 -42.45 L21.1 -41.7 21.35 -42.2 21.65 -43.1 21.55 -44.3 21.5 -44.6 21.4 -44.95 Q21.35 -45.75 20.8 -46.45 L20.65 -46.8 Q19.35 -48.5 17.35 -48.85 15.3 -49.1 13.65 -47.8 12.0 -46.55 11.65 -44.55 11.4 -42.5 12.65 -40.9 L12.65 -40.85 13.15 -40.3 13.45 -39.95 14.0 -39.65 14.55 -39.3 Q15.1 -39.0 15.95 -38.85 L16.2 -38.8 16.5 -38.8 16.55 -38.8 17.4 -38.9 Q18.6 -39.1 19.65 -39.85 20.7 -40.65 21.1 -41.7 M20.5 -34.5 L18.6 -32.9 21.6 -28.85 M16.65 -31.6 L18.6 -32.9" fill="none" stroke="#000000" stroke-linecap="round" stroke-linejoin="round" stroke-width="1.0"/>
  </g>
</svg>
