<?xml version="1.0" encoding="UTF-8" standalone="no"?>
<svg xmlns:ffdec="https://www.free-decompiler.com/flash" xmlns:xlink="http://www.w3.org/1999/xlink" ffdec:objectType="shape" height="11.0px" width="11.0px" xmlns="http://www.w3.org/2000/svg">
  <g transform="matrix(1.0, 0.0, 0.0, 1.0, -11.05, 49.45)">
    <path d="M12.8 -40.65 Q12.0 -41.55 11.7 -42.85 11.25 -44.85 12.3 -46.6 13.4 -48.35 15.45 -48.8 17.4 -49.3 19.15 -48.3 20.5 -47.4 21.1 -45.9 L21.35 -45.25 21.4 -45.15 21.4 -45.05 21.55 -43.95 21.5 -43.6 21.45 -43.4 21.5 -43.35 21.35 -42.8 Q20.9 -44.0 19.65 -44.75 18.05 -45.75 16.3 -45.25 14.45 -44.8 13.45 -43.25 12.75 -42.0 12.8 -40.65" fill="#ffffff" fill-rule="evenodd" stroke="none"/>
    <path d="M12.8 -40.65 Q12.75 -42.0 13.45 -43.25 14.45 -44.8 16.3 -45.25 18.05 -45.75 19.65 -44.75 20.9 -44.0 21.35 -42.8 L21.05 -41.75 20.85 -41.4 20.8 -41.35 20.45 -40.8 19.85 -40.25 19.75 -41.05 Q19.5 -42.15 18.7 -42.65 L16.85 -42.9 Q15.8 -42.7 15.3 -41.9 14.7 -41.0 15.0 -39.95 L15.35 -39.15 Q14.6 -39.3 13.95 -39.65 L12.8 -40.65" fill="#00ccff" fill-rule="evenodd" stroke="none"/>
    <path d="M15.35 -39.15 L15.0 -39.95 Q14.7 -41.0 15.3 -41.9 15.8 -42.7 16.85 -42.9 L18.7 -42.65 Q19.5 -42.15 19.75 -41.05 L19.85 -40.25 18.45 -39.35 17.75 -39.1 16.2 -38.95 16.0 -38.95 15.35 -39.15" fill="#000000" fill-rule="evenodd" stroke="none"/>
    <path d="M21.55 -43.95 L21.4 -45.05 21.4 -45.15 21.35 -45.25 21.1 -45.9 Q20.5 -47.4 19.15 -48.3 17.4 -49.3 15.45 -48.8 13.4 -48.35 12.3 -46.6 11.25 -44.85 11.7 -42.85 12.0 -41.55 12.8 -40.65 L13.95 -39.65 Q14.6 -39.3 15.35 -39.15 L15.0 -39.95 Q14.7 -41.0 15.3 -41.9 15.8 -42.7 16.85 -42.9 L18.7 -42.65 Q19.5 -42.15 19.75 -41.05 L19.85 -40.25 18.45 -39.35 17.75 -39.1 16.2 -38.95 16.0 -38.95 15.35 -39.15 M21.35 -42.8 L21.5 -43.35 21.45 -43.4 M19.85 -40.25 L20.45 -40.8 20.8 -41.35 20.85 -41.4 21.05 -41.75 21.35 -42.8" fill="none" stroke="#000000" stroke-linecap="round" stroke-linejoin="round" stroke-width="1.0"/>
  </g>
</svg>
