<?xml version="1.0" encoding="UTF-8" standalone="no"?>
<svg xmlns:ffdec="https://www.free-decompiler.com/flash" xmlns:xlink="http://www.w3.org/1999/xlink" ffdec:objectType="shape" height="39.2px" width="51.5px" xmlns="http://www.w3.org/2000/svg">
  <g transform="matrix(1.0, 0.0, 0.0, 1.0, 25.1, 61.25)">
    <path d="M16.4 -31.55 Q17.6 -32.1 18.65 -32.75 L18.35 -26.95 16.4 -31.55 18.35 -26.95 14.2 -30.8 16.4 -31.55" fill="#ffcc00" fill-rule="evenodd" stroke="none"/>
    <path d="M21.9 -42.35 L21.85 -42.0 21.65 -40.9 21.15 -40.05 20.85 -39.6 20.65 -40.4 Q20.2 -41.4 19.3 -41.75 L17.4 -41.65 Q16.45 -41.3 16.05 -40.35 15.7 -39.35 16.15 -38.45 L16.55 -37.7 15.7 -37.8 15.65 -37.85 15.4 -37.9 15.15 -38.0 Q14.4 -38.3 13.85 -38.75 13.5 -40.1 14.0 -41.4 14.7 -43.1 16.45 -43.9 18.1 -44.65 19.9 -43.95 21.25 -43.45 21.9 -42.35" fill="#00ccff" fill-rule="evenodd" stroke="none"/>
    <path d="M20.85 -39.6 Q20.2 -38.65 18.95 -38.15 17.75 -37.65 16.55 -37.7 L16.15 -38.45 Q15.7 -39.35 16.05 -40.35 16.45 -41.3 17.4 -41.65 L19.3 -41.75 Q20.2 -41.4 20.65 -40.4 L20.85 -39.6" fill="#000000" fill-rule="evenodd" stroke="none"/>
    <path d="M13.85 -38.75 L13.4 -39.2 13.0 -39.65 12.75 -40.0 12.45 -40.7 12.4 -40.75 Q11.55 -42.6 12.25 -44.5 13.0 -46.45 14.95 -47.2 L18.75 -47.4 Q20.65 -46.6 21.5 -44.7 L21.6 -44.3 21.85 -42.75 21.9 -42.35 Q21.25 -43.45 19.9 -43.95 18.1 -44.65 16.45 -43.9 14.7 -43.1 14.0 -41.4 13.5 -40.1 13.85 -38.75" fill="#ffffff" fill-rule="evenodd" stroke="none"/>
    <path d="M18.35 -26.95 L18.65 -32.75 Q21.95 -34.9 23.75 -38.55 L24.3 -39.8 Q26.6 -45.5 24.1 -51.2 21.65 -56.9 15.85 -59.2 10.05 -61.4 4.4 -58.95 2.15 -58.0 0.5 -56.45 L-0.25 -56.75 Q-6.95 -59.45 -13.55 -56.55 -20.25 -53.7 -22.85 -46.9 -25.05 -41.4 -23.45 -35.9 L-23.05 -34.65 -22.6 -33.6 Q-19.7 -26.95 -13.0 -24.3 -6.3 -21.7 0.4 -24.55 4.85 -26.55 7.5 -30.1 L7.75 -30.45 Q10.9 -29.85 14.2 -30.8 L18.35 -26.95" fill="none" stroke="#000000" stroke-linecap="round" stroke-linejoin="round" stroke-width="2.0"/>
    <path d="M13.85 -38.75 L13.4 -39.2 13.0 -39.65 12.75 -40.0 12.45 -40.7 12.4 -40.75 Q11.55 -42.6 12.25 -44.5 13.0 -46.45 14.95 -47.2 L18.75 -47.4 Q20.65 -46.6 21.5 -44.7 L21.6 -44.3 21.85 -42.75 21.9 -42.35 21.85 -42.0 21.65 -40.9 21.15 -40.05 20.85 -39.6 Q20.2 -38.65 18.95 -38.15 17.75 -37.65 16.55 -37.7 L15.7 -37.8 15.65 -37.85 15.4 -37.9 15.15 -38.0 Q14.4 -38.3 13.85 -38.75 M16.55 -37.7 L16.15 -38.45 Q15.7 -39.35 16.05 -40.35 16.45 -41.3 17.4 -41.65 L19.3 -41.75 Q20.2 -41.4 20.65 -40.4 L20.85 -39.6 M18.65 -32.75 Q17.6 -32.1 16.4 -31.55 L18.35 -26.95 M14.2 -30.8 L16.4 -31.55" fill="none" stroke="#000000" stroke-linecap="round" stroke-linejoin="round" stroke-width="1.0"/>
  </g>
</svg>
