<?xml version="1.0" encoding="UTF-8" standalone="no"?>
<svg xmlns:ffdec="https://www.free-decompiler.com/flash" xmlns:xlink="http://www.w3.org/1999/xlink" ffdec:objectType="shape" height="11.0px" width="11.0px" xmlns="http://www.w3.org/2000/svg">
  <g transform="matrix(1.0, 0.0, 0.0, 1.0, -11.45, 48.35)">
    <path d="M12.5 -40.5 Q11.95 -41.55 11.95 -42.85 11.95 -44.9 13.35 -46.4 14.8 -47.9 16.9 -47.85 18.95 -47.9 20.45 -46.5 21.6 -45.3 21.85 -43.7 L21.95 -43.0 21.95 -42.9 21.95 -42.8 21.8 -41.7 21.7 -41.4 21.6 -41.2 21.6 -41.15 21.35 -40.65 Q21.15 -41.95 20.15 -42.95 18.8 -44.25 16.95 -44.15 15.05 -44.2 13.75 -42.85 12.75 -41.85 12.5 -40.5" fill="#ffffff" fill-rule="evenodd" stroke="none"/>
    <path d="M12.5 -40.5 Q12.75 -41.85 13.75 -42.85 15.05 -44.2 16.95 -44.15 18.8 -44.25 20.15 -42.95 21.15 -41.95 21.35 -40.65 L20.8 -39.7 20.55 -39.45 20.5 -39.4 20.0 -38.9 19.3 -38.5 19.4 -39.35 Q19.4 -40.45 18.7 -41.15 18.0 -41.85 16.95 -41.75 15.9 -41.8 15.2 -41.15 14.45 -40.4 14.5 -39.35 L14.65 -38.45 13.4 -39.3 12.5 -40.5" fill="#00ccff" fill-rule="evenodd" stroke="none"/>
    <path d="M14.65 -38.45 L14.5 -39.35 Q14.45 -40.4 15.2 -41.15 15.9 -41.8 16.95 -41.75 18.0 -41.85 18.7 -41.15 19.4 -40.45 19.4 -39.35 L19.3 -38.5 17.75 -37.95 17.0 -37.85 15.5 -38.05 15.25 -38.1 14.65 -38.45" fill="#000000" fill-rule="evenodd" stroke="none"/>
    <path d="M21.8 -41.7 L21.95 -42.8 21.95 -42.9 21.95 -43.0 21.85 -43.7 Q21.6 -45.3 20.45 -46.5 18.95 -47.9 16.9 -47.85 14.8 -47.9 13.35 -46.4 11.95 -44.9 11.95 -42.85 11.95 -41.55 12.5 -40.5 L13.4 -39.3 14.65 -38.45 14.5 -39.35 Q14.45 -40.4 15.2 -41.15 15.9 -41.8 16.95 -41.75 18.0 -41.85 18.7 -41.15 19.4 -40.45 19.4 -39.35 L19.3 -38.5 20.0 -38.9 20.5 -39.4 20.55 -39.45 20.8 -39.7 21.35 -40.65 21.6 -41.15 21.6 -41.2 M19.3 -38.5 L17.75 -37.95 17.0 -37.85 15.5 -38.05 15.25 -38.1 14.65 -38.45" fill="none" stroke="#000000" stroke-linecap="round" stroke-linejoin="round" stroke-width="1.0"/>
  </g>
</svg>
