<?xml version="1.0" encoding="UTF-8" standalone="no"?>
<svg xmlns:ffdec="https://www.free-decompiler.com/flash" xmlns:xlink="http://www.w3.org/1999/xlink" ffdec:objectType="shape" height="38.25px" width="52.05px" xmlns="http://www.w3.org/2000/svg">
  <g transform="matrix(1.0, 0.0, 0.0, 1.0, 25.3, 63.45)">
    <path d="M13.6 -31.15 L16.1 -31.8 14.55 -26.2 13.6 -31.15 14.55 -26.2 11.35 -30.85 13.6 -31.15" fill="#ffcc00" fill-rule="evenodd" stroke="none"/>
    <path d="M21.35 -40.4 L21.25 -40.1 Q21.2 -39.5 20.8 -39.05 L20.15 -38.3 19.7 -37.95 19.75 -38.85 Q19.5 -39.85 18.7 -40.45 17.85 -41.0 16.85 -40.75 15.8 -40.6 15.25 -39.75 14.65 -38.9 14.95 -37.85 L15.2 -37.05 14.35 -37.3 14.3 -37.35 14.0 -37.5 13.85 -37.65 Q13.15 -38.1 12.75 -38.7 12.7 -40.1 13.5 -41.25 14.55 -42.75 16.4 -43.1 18.2 -43.5 19.8 -42.4 20.95 -41.6 21.35 -40.4" fill="#00ccff" fill-rule="evenodd" stroke="none"/>
    <path d="M19.7 -37.95 Q18.85 -37.2 17.55 -37.0 L15.2 -37.05 14.95 -37.85 Q14.65 -38.9 15.25 -39.75 15.8 -40.6 16.85 -40.75 17.85 -41.0 18.7 -40.45 19.5 -39.85 19.75 -38.85 L19.7 -37.95" fill="#000000" fill-rule="evenodd" stroke="none"/>
    <path d="M12.75 -38.7 L12.35 -39.2 12.1 -39.75 11.95 -40.15 11.75 -40.9 11.75 -40.95 Q11.35 -42.9 12.45 -44.6 13.6 -46.3 15.7 -46.7 17.75 -47.2 19.4 -46.0 21.1 -44.85 21.5 -42.75 L21.55 -42.4 Q21.7 -41.55 21.45 -40.75 L21.35 -40.4 Q20.95 -41.6 19.8 -42.4 18.2 -43.5 16.4 -43.1 14.55 -42.75 13.5 -41.25 12.7 -40.1 12.75 -38.7" fill="#ffffff" fill-rule="evenodd" stroke="none"/>
    <path d="M14.55 -26.2 L16.1 -31.8 Q19.8 -33.1 22.3 -36.3 L23.1 -37.4 Q26.65 -42.45 25.45 -48.55 24.35 -54.65 19.15 -58.15 14.05 -61.6 8.0 -60.45 5.6 -60.0 3.65 -58.9 L2.95 -59.35 Q-3.0 -63.45 -10.05 -62.1 -17.2 -60.75 -21.25 -54.7 -24.6 -49.85 -24.25 -44.1 L-24.15 -42.8 -23.9 -41.7 Q-22.6 -34.6 -16.65 -30.45 -10.65 -26.5 -3.5 -27.85 1.25 -28.75 4.6 -31.65 L4.95 -31.95 Q7.95 -30.7 11.35 -30.85 L14.55 -26.2" fill="none" stroke="#000000" stroke-linecap="round" stroke-linejoin="round" stroke-width="2.0"/>
    <path d="M12.75 -38.7 L12.35 -39.2 12.1 -39.75 11.95 -40.15 11.75 -40.9 11.75 -40.95 Q11.35 -42.9 12.45 -44.6 13.6 -46.3 15.7 -46.7 17.75 -47.2 19.4 -46.0 21.1 -44.85 21.5 -42.75 L21.55 -42.4 Q21.7 -41.55 21.45 -40.75 L21.35 -40.4 21.25 -40.1 Q21.2 -39.5 20.8 -39.05 L20.15 -38.3 19.7 -37.95 Q18.85 -37.2 17.55 -37.0 L15.2 -37.05 14.35 -37.3 14.3 -37.35 14.0 -37.5 13.85 -37.65 Q13.15 -38.1 12.75 -38.7 M15.2 -37.05 L14.95 -37.85 Q14.65 -38.9 15.25 -39.75 15.8 -40.6 16.85 -40.75 17.85 -41.0 18.7 -40.45 19.5 -39.85 19.75 -38.85 L19.7 -37.95 M16.1 -31.8 L13.6 -31.15 14.55 -26.2 M11.35 -30.85 L13.6 -31.15" fill="none" stroke="#000000" stroke-linecap="round" stroke-linejoin="round" stroke-width="1.0"/>
  </g>
</svg>
