<?xml version="1.0" encoding="UTF-8" standalone="no"?>
<svg xmlns:ffdec="https://www.free-decompiler.com/flash" xmlns:xlink="http://www.w3.org/1999/xlink" ffdec:objectType="shape" height="10.95px" width="10.9px" xmlns="http://www.w3.org/2000/svg">
  <g transform="matrix(1.0, 0.0, 0.0, 1.0, -11.15, 47.45)">
    <path d="M11.8 -40.65 Q11.5 -41.8 11.75 -43.05 12.2 -45.05 13.9 -46.15 15.65 -47.3 17.7 -46.8 19.7 -46.4 20.85 -44.7 21.65 -43.35 21.55 -41.75 L21.5 -41.0 21.5 -40.9 21.45 -40.8 21.1 -39.8 20.95 -39.5 20.8 -39.35 20.8 -39.3 20.4 -38.85 Q20.55 -40.15 19.75 -41.3 18.7 -42.95 16.9 -43.25 15.05 -43.7 13.5 -42.65 12.35 -41.9 11.8 -40.65" fill="#ffffff" fill-rule="evenodd" stroke="none"/>
    <path d="M11.8 -40.65 Q12.35 -41.9 13.5 -42.65 15.05 -43.7 16.9 -43.25 18.7 -42.95 19.75 -41.3 20.55 -40.15 20.4 -38.85 L19.7 -38.0 19.4 -37.8 19.3 -37.8 18.7 -37.45 17.95 -37.2 18.25 -38.0 Q18.5 -39.1 17.95 -39.9 17.45 -40.75 16.4 -40.9 L14.55 -40.65 Q13.7 -40.1 13.5 -39.05 L13.4 -38.15 12.4 -39.3 Q11.95 -39.9 11.8 -40.65" fill="#00ccff" fill-rule="evenodd" stroke="none"/>
    <path d="M13.4 -38.15 L13.5 -39.05 Q13.7 -40.1 14.55 -40.65 L16.4 -40.9 Q17.45 -40.75 17.95 -39.9 18.5 -39.1 18.25 -38.0 L17.95 -37.2 16.35 -37.0 15.55 -37.1 14.15 -37.6 13.9 -37.75 13.4 -38.15" fill="#000000" fill-rule="evenodd" stroke="none"/>
    <path d="M21.1 -39.8 L21.45 -40.8 21.5 -40.9 21.5 -41.0 21.55 -41.75 Q21.65 -43.35 20.85 -44.7 19.7 -46.4 17.7 -46.8 15.65 -47.3 13.9 -46.15 12.2 -45.05 11.75 -43.05 11.5 -41.8 11.8 -40.65 11.95 -39.9 12.4 -39.3 L13.4 -38.15 13.5 -39.05 Q13.7 -40.1 14.55 -40.65 L16.4 -40.9 Q17.45 -40.75 17.95 -39.9 18.5 -39.1 18.25 -38.0 L17.95 -37.2 18.7 -37.45 19.3 -37.8 19.4 -37.8 19.7 -38.0 20.4 -38.85 20.8 -39.3 20.8 -39.35 M17.95 -37.2 L16.35 -37.0 15.55 -37.1 14.15 -37.6 13.9 -37.75 13.4 -38.15" fill="none" stroke="#000000" stroke-linecap="round" stroke-linejoin="round" stroke-width="1.0"/>
  </g>
</svg>
