<?xml version="1.0" encoding="UTF-8" standalone="no"?>
<svg xmlns:ffdec="https://www.free-decompiler.com/flash" xmlns:xlink="http://www.w3.org/1999/xlink" ffdec:objectType="shape" height="39.85px" width="52.05px" xmlns="http://www.w3.org/2000/svg">
  <g transform="matrix(1.0, 0.0, 0.0, 1.0, 25.3, 66.4)">
    <path d="M12.4 -32.6 L14.95 -33.05 13.0 -27.55 12.4 -32.6 13.0 -27.55 10.15 -32.45 12.4 -32.6" fill="#ffcc00" fill-rule="evenodd" stroke="none"/>
    <path d="M19.05 -38.9 L19.15 -39.75 Q19.0 -40.85 18.2 -41.45 17.45 -42.05 16.4 -41.9 15.35 -41.8 14.7 -41.05 14.1 -40.25 14.25 -39.15 L14.45 -38.35 13.65 -38.7 13.6 -38.7 13.35 -38.85 13.15 -39.05 12.15 -40.2 Q12.2 -41.55 13.1 -42.65 14.25 -44.1 16.15 -44.3 18.0 -44.55 19.5 -43.35 20.6 -42.45 20.85 -41.2 L20.75 -40.9 20.25 -39.9 19.5 -39.2 19.05 -38.9" fill="#00ccff" fill-rule="evenodd" stroke="none"/>
    <path d="M14.45 -38.35 L14.25 -39.15 Q14.1 -40.25 14.7 -41.05 15.35 -41.8 16.4 -41.9 17.45 -42.05 18.2 -41.45 19.0 -40.85 19.15 -39.75 L19.05 -38.9 Q18.15 -38.2 16.8 -38.05 L14.45 -38.35" fill="#000000" fill-rule="evenodd" stroke="none"/>
    <path d="M20.85 -41.2 Q20.6 -42.45 19.5 -43.35 18.0 -44.55 16.15 -44.3 14.25 -44.1 13.1 -42.65 12.2 -41.55 12.15 -40.2 L11.85 -40.7 11.6 -41.25 11.45 -41.7 11.35 -42.4 11.35 -42.45 Q11.15 -44.45 12.35 -46.15 13.6 -47.7 15.7 -47.9 17.8 -48.2 19.4 -46.95 21.0 -45.65 21.25 -43.55 L21.2 -43.15 Q21.3 -42.3 21.0 -41.6 L20.85 -41.2" fill="#ffffff" fill-rule="evenodd" stroke="none"/>
    <path d="M13.0 -27.55 L14.95 -33.05 Q18.75 -34.05 21.5 -37.05 L22.45 -38.05 Q26.3 -42.85 25.65 -49.05 24.95 -55.1 20.05 -59.1 15.25 -62.9 9.15 -62.25 6.7 -62.0 4.65 -61.0 L4.0 -61.55 Q-1.55 -66.1 -8.7 -65.25 -16.0 -64.55 -20.5 -58.75 -24.15 -54.2 -24.3 -48.45 L-24.25 -47.2 -24.15 -46.05 Q-23.4 -38.85 -17.75 -34.25 -12.15 -29.85 -4.9 -30.65 -0.05 -31.15 3.5 -33.8 L3.85 -34.05 Q6.7 -32.55 10.15 -32.45 L13.0 -27.55" fill="none" stroke="#000000" stroke-linecap="round" stroke-linejoin="round" stroke-width="2.0"/>
    <path d="M14.45 -38.35 L14.25 -39.15 Q14.1 -40.25 14.7 -41.05 15.35 -41.8 16.4 -41.9 17.45 -42.05 18.2 -41.45 19.0 -40.85 19.15 -39.75 L19.05 -38.9 19.5 -39.2 20.25 -39.9 20.75 -40.9 20.85 -41.2 21.0 -41.6 Q21.3 -42.3 21.2 -43.15 L21.25 -43.55 Q21.0 -45.65 19.4 -46.95 17.8 -48.2 15.7 -47.9 13.6 -47.7 12.35 -46.15 11.15 -44.45 11.35 -42.45 L11.35 -42.4 11.45 -41.7 11.6 -41.25 11.85 -40.7 12.15 -40.2 13.15 -39.05 13.35 -38.85 13.6 -38.7 13.65 -38.7 14.45 -38.35 16.8 -38.05 Q18.15 -38.2 19.05 -38.9 M14.95 -33.05 L12.4 -32.6 13.0 -27.55 M10.15 -32.45 L12.4 -32.6" fill="none" stroke="#000000" stroke-linecap="round" stroke-linejoin="round" stroke-width="1.0"/>
  </g>
</svg>
