<?xml version="1.0" encoding="UTF-8" standalone="no"?>
<svg xmlns:ffdec="https://www.free-decompiler.com/flash" xmlns:xlink="http://www.w3.org/1999/xlink" ffdec:objectType="shape" height="10.95px" width="10.95px" xmlns="http://www.w3.org/2000/svg">
  <g transform="matrix(1.0, 0.0, 0.0, 1.0, -10.8, 48.6)">
    <path d="M11.4 -42.2 Q11.2 -43.35 11.5 -44.55 12.15 -46.5 13.95 -47.55 15.75 -48.5 17.75 -47.85 19.7 -47.3 20.75 -45.55 21.45 -44.1 21.2 -42.45 L21.1 -41.8 21.05 -41.7 21.05 -41.6 20.6 -40.55 20.4 -40.35 20.25 -40.2 20.25 -40.15 19.85 -39.7 Q20.05 -40.95 19.35 -42.25 18.45 -43.9 16.7 -44.35 14.9 -44.95 13.2 -44.05 12.0 -43.35 11.4 -42.2" fill="#ffffff" fill-rule="evenodd" stroke="none"/>
    <path d="M11.4 -42.2 Q12.0 -43.35 13.2 -44.05 14.9 -44.95 16.7 -44.35 18.45 -43.9 19.35 -42.25 20.05 -40.95 19.85 -39.7 L19.05 -38.95 18.7 -38.8 18.65 -38.75 18.05 -38.4 17.25 -38.3 17.65 -39.05 Q17.95 -40.1 17.45 -40.95 17.05 -41.8 16.0 -42.05 L14.15 -41.95 Q13.25 -41.5 12.9 -40.5 L12.8 -39.6 Q12.3 -40.05 11.9 -40.75 11.5 -41.45 11.4 -42.2" fill="#00ccff" fill-rule="evenodd" stroke="none"/>
    <path d="M12.8 -39.6 L12.9 -40.5 Q13.25 -41.5 14.15 -41.95 L16.0 -42.05 Q17.05 -41.8 17.45 -40.95 17.95 -40.1 17.65 -39.05 L17.25 -38.3 15.6 -38.2 14.85 -38.35 Q14.1 -38.55 13.5 -39.0 L13.3 -39.1 12.8 -39.6" fill="#000000" fill-rule="evenodd" stroke="none"/>
    <path d="M20.6 -40.55 L21.05 -41.6 21.05 -41.7 21.1 -41.8 21.2 -42.45 Q21.45 -44.1 20.75 -45.55 19.7 -47.3 17.75 -47.85 15.75 -48.5 13.95 -47.55 12.15 -46.5 11.5 -44.55 11.2 -43.35 11.4 -42.2 11.5 -41.45 11.9 -40.75 12.3 -40.05 12.8 -39.6 L12.9 -40.5 Q13.25 -41.5 14.15 -41.95 L16.0 -42.05 Q17.05 -41.8 17.45 -40.95 17.95 -40.1 17.65 -39.05 L17.25 -38.3 15.6 -38.2 14.85 -38.35 Q14.1 -38.55 13.5 -39.0 L13.3 -39.1 12.8 -39.6 M19.85 -39.7 L20.25 -40.15 20.25 -40.2 M17.25 -38.3 L18.05 -38.4 18.65 -38.75 18.7 -38.8 19.05 -38.95 19.85 -39.7" fill="none" stroke="#000000" stroke-linecap="round" stroke-linejoin="round" stroke-width="1.0"/>
  </g>
</svg>
