<?xml version="1.0" encoding="UTF-8" standalone="no"?>
<svg xmlns:ffdec="https://www.free-decompiler.com/flash" xmlns:xlink="http://www.w3.org/1999/xlink" ffdec:objectType="shape" height="54.95px" width="91.7px" xmlns="http://www.w3.org/2000/svg">
  <g transform="matrix(1.0, 0.0, 0.0, 1.0, 1.2, 1.0)">
    <path d="M63.2 8.3 L70.5 10.0 63.15 37.7 66.3 40.35 72.95 25.8 73.5 25.0 80.5 29.0 72.0 43.4 82.5 42.0 82.5 46.0 89.5 46.0 89.35 52.95 10.05 52.95 -0.2 17.3 16.5 11.0 18.5 25.0 27.4 24.0 26.45 11.05 35.5 4.0 43.5 12.0 38.4 36.35 46.25 40.4 53.5 6.0 63.2 8.3" fill="#154859" fill-rule="evenodd" stroke="none"/>
    <path d="M63.2 8.3 L70.5 10.0 63.15 37.7 66.3 40.35 72.95 25.8 73.5 25.0 80.5 29.0 72.0 43.4 82.5 42.0 82.5 46.0 89.5 46.0 89.35 52.95 10.05 52.95 -0.2 17.3 16.5 11.0 18.5 25.0 27.4 24.0 26.45 11.05 35.5 4.0 43.5 12.0 38.4 36.35 46.25 40.4 53.5 6.0 63.2 8.3 65.25 0.0" fill="none" stroke="#77a1c4" stroke-linecap="round" stroke-linejoin="round" stroke-width="2.0"/>
  </g>
</svg>
