<?xml version="1.0" encoding="UTF-8" standalone="no"?>
<svg xmlns:ffdec="https://www.free-decompiler.com/flash" xmlns:xlink="http://www.w3.org/1999/xlink" ffdec:objectType="shape" height="41.05px" width="51.95px" xmlns="http://www.w3.org/2000/svg">
  <g transform="matrix(1.0, 0.0, 0.0, 1.0, 25.25, 67.5)">
    <path d="M11.4 -32.45 L13.95 -32.7 11.6 -27.45 11.4 -32.45 11.6 -27.45 9.1 -32.5 11.4 -32.45" fill="#ffcc00" fill-rule="evenodd" stroke="none"/>
    <path d="M18.45 -38.35 L18.55 -39.2 Q18.5 -40.25 17.75 -40.9 17.05 -41.6 16.0 -41.5 14.95 -41.5 14.25 -40.8 13.55 -39.95 13.65 -38.95 L13.75 -38.1 Q13.35 -38.25 13.05 -38.5 L13.0 -38.55 12.75 -38.7 12.6 -38.85 11.65 -40.05 Q11.8 -41.45 12.7 -42.45 14.0 -43.8 15.9 -43.9 17.75 -44.0 19.15 -42.75 20.15 -41.75 20.35 -40.45 L20.25 -40.2 19.7 -39.25 18.9 -38.6 18.45 -38.35" fill="#00ccff" fill-rule="evenodd" stroke="none"/>
    <path d="M13.75 -38.1 L13.65 -38.95 Q13.55 -39.95 14.25 -40.8 14.95 -41.5 16.0 -41.5 17.05 -41.6 17.75 -40.9 18.5 -40.25 18.55 -39.2 L18.45 -38.35 Q17.45 -37.7 16.2 -37.65 14.85 -37.6 13.75 -38.1" fill="#000000" fill-rule="evenodd" stroke="none"/>
    <path d="M20.35 -40.45 Q20.15 -41.75 19.15 -42.75 17.75 -44.0 15.9 -43.9 14.0 -43.8 12.7 -42.45 11.8 -41.45 11.65 -40.05 L11.35 -40.6 11.15 -41.2 11.05 -41.6 11.0 -42.35 10.95 -42.4 Q10.9 -44.4 12.2 -45.95 13.6 -47.5 15.65 -47.55 17.8 -47.7 19.3 -46.35 20.75 -44.95 20.9 -42.85 L20.85 -42.45 Q20.85 -41.55 20.5 -40.85 L20.35 -40.45" fill="#ffffff" fill-rule="evenodd" stroke="none"/>
    <path d="M11.6 -27.45 L13.95 -32.7 Q17.8 -33.55 20.75 -36.35 L21.7 -37.25 Q25.95 -41.75 25.7 -47.95 25.35 -54.15 20.75 -58.4 16.25 -62.55 10.05 -62.3 7.6 -62.15 5.5 -61.35 L4.9 -61.9 Q-0.35 -66.8 -7.6 -66.5 -14.85 -66.15 -19.7 -60.75 -23.7 -56.45 -24.2 -50.7 L-24.25 -49.45 -24.2 -48.3 Q-23.9 -41.05 -18.6 -36.15 -13.3 -31.35 -6.0 -31.65 -1.15 -31.85 2.6 -34.2 L2.95 -34.45 Q5.7 -32.8 9.1 -32.5 L11.6 -27.45" fill="none" stroke="#000000" stroke-linecap="round" stroke-linejoin="round" stroke-width="2.0"/>
    <path d="M13.75 -38.1 L13.65 -38.95 Q13.55 -39.95 14.25 -40.8 14.95 -41.5 16.0 -41.5 17.05 -41.6 17.75 -40.9 18.5 -40.25 18.55 -39.2 L18.45 -38.35 18.9 -38.6 19.7 -39.25 20.25 -40.2 20.35 -40.45 20.5 -40.85 Q20.85 -41.55 20.85 -42.45 L20.9 -42.85 Q20.75 -44.95 19.3 -46.35 17.8 -47.7 15.65 -47.55 13.6 -47.5 12.2 -45.95 10.9 -44.4 10.95 -42.4 L11.0 -42.35 11.05 -41.6 11.15 -41.2 11.35 -40.6 11.65 -40.05 12.6 -38.85 12.75 -38.7 13.0 -38.55 13.05 -38.5 Q13.35 -38.25 13.75 -38.1 14.85 -37.6 16.2 -37.65 17.45 -37.7 18.45 -38.35 M13.95 -32.7 L11.4 -32.45 11.6 -27.45 M9.1 -32.5 L11.4 -32.45" fill="none" stroke="#000000" stroke-linecap="round" stroke-linejoin="round" stroke-width="1.0"/>
  </g>
</svg>
