<?xml version="1.0" encoding="UTF-8" standalone="no"?>
<svg xmlns:ffdec="https://www.free-decompiler.com/flash" xmlns:xlink="http://www.w3.org/1999/xlink" ffdec:objectType="shape" height="11.0px" width="10.95px" xmlns="http://www.w3.org/2000/svg">
  <g transform="matrix(1.0, 0.0, 0.0, 1.0, -10.45, 48.25)">
    <path d="M10.95 -42.05 Q10.85 -43.25 11.25 -44.45 12.0 -46.35 13.85 -47.25 L17.7 -47.35 Q19.6 -46.65 20.5 -44.8 21.15 -43.3 20.8 -41.75 L20.6 -41.1 20.55 -41.0 20.55 -40.9 20.1 -39.9 19.85 -39.65 19.7 -39.5 19.7 -39.45 19.25 -39.05 Q19.5 -40.3 18.9 -41.65 18.15 -43.3 16.4 -43.9 L12.9 -43.8 Q11.7 -43.2 10.95 -42.05" fill="#ffffff" fill-rule="evenodd" stroke="none"/>
    <path d="M10.95 -42.05 Q11.7 -43.2 12.9 -43.8 L16.4 -43.9 Q18.15 -43.3 18.9 -41.65 19.5 -40.3 19.25 -39.05 L18.4 -38.35 18.05 -38.2 17.95 -38.2 Q17.75 -38.0 17.35 -37.9 L16.55 -37.75 16.95 -38.55 Q17.35 -39.55 16.95 -40.45 16.55 -41.35 15.6 -41.7 L13.7 -41.65 Q12.7 -41.3 12.4 -40.25 L12.2 -39.35 Q11.7 -39.9 11.35 -40.6 11.0 -41.3 10.95 -42.05" fill="#00ccff" fill-rule="evenodd" stroke="none"/>
    <path d="M12.2 -39.35 L12.4 -40.25 Q12.7 -41.3 13.7 -41.65 L15.6 -41.7 Q16.55 -41.35 16.95 -40.45 17.35 -39.55 16.95 -38.55 L16.55 -37.75 14.9 -37.85 14.15 -38.0 Q13.45 -38.3 12.9 -38.75 L12.65 -38.9 12.2 -39.35" fill="#000000" fill-rule="evenodd" stroke="none"/>
    <path d="M20.1 -39.9 L20.55 -40.9 20.55 -41.0 20.6 -41.1 20.8 -41.75 Q21.15 -43.3 20.5 -44.8 19.6 -46.65 17.7 -47.35 L13.85 -47.25 Q12.0 -46.35 11.25 -44.45 10.85 -43.25 10.95 -42.05 11.0 -41.3 11.35 -40.6 11.7 -39.9 12.2 -39.35 L12.4 -40.25 Q12.7 -41.3 13.7 -41.65 L15.6 -41.7 Q16.55 -41.35 16.95 -40.45 17.35 -39.55 16.95 -38.55 L16.55 -37.75 14.9 -37.85 14.15 -38.0 Q13.45 -38.3 12.9 -38.75 L12.65 -38.9 12.2 -39.35 M19.25 -39.05 L19.7 -39.45 19.7 -39.5 M16.55 -37.75 L17.35 -37.9 Q17.75 -38.0 17.95 -38.2 L18.05 -38.2 18.4 -38.35 19.25 -39.05" fill="none" stroke="#000000" stroke-linecap="round" stroke-linejoin="round" stroke-width="1.0"/>
  </g>
</svg>
