<?xml version="1.0" encoding="UTF-8" standalone="no"?>
<svg xmlns:ffdec="https://www.free-decompiler.com/flash" xmlns:xlink="http://www.w3.org/1999/xlink" ffdec:objectType="shape" height="41.05px" width="51.95px" xmlns="http://www.w3.org/2000/svg">
  <g transform="matrix(1.0, 0.0, 0.0, 1.0, 25.25, 62.75)">
    <path d="M11.4 -27.7 L13.95 -27.95 11.6 -22.7 11.4 -27.7 11.6 -22.7 9.1 -27.75 11.4 -27.7" fill="#ffcc00" fill-rule="evenodd" stroke="none"/>
    <path d="M20.35 -35.7 L20.25 -35.45 19.7 -34.5 18.9 -33.85 18.45 -33.6 18.55 -34.45 Q18.5 -35.5 17.75 -36.15 17.05 -36.85 16.0 -36.75 14.95 -36.75 14.25 -36.05 13.55 -35.2 13.65 -34.2 L13.75 -33.35 Q13.35 -33.5 13.05 -33.75 L13.0 -33.8 12.75 -33.95 12.6 -34.1 11.65 -35.3 Q11.8 -36.7 12.7 -37.7 14.0 -39.05 15.9 -39.15 17.75 -39.25 19.15 -38.0 20.15 -37.0 20.35 -35.7" fill="#00ccff" fill-rule="evenodd" stroke="none"/>
    <path d="M18.45 -33.6 Q17.45 -32.95 16.2 -32.9 14.85 -32.85 13.75 -33.35 L13.65 -34.2 Q13.55 -35.2 14.25 -36.05 14.95 -36.75 16.0 -36.75 17.05 -36.85 17.75 -36.15 18.5 -35.5 18.55 -34.45 L18.45 -33.6" fill="#000000" fill-rule="evenodd" stroke="none"/>
    <path d="M11.65 -35.3 L11.35 -35.85 11.15 -36.45 11.05 -36.85 11.0 -37.6 10.95 -37.65 Q10.9 -39.65 12.2 -41.2 13.6 -42.75 15.65 -42.8 17.8 -42.95 19.3 -41.6 20.75 -40.2 20.9 -38.1 L20.85 -37.7 Q20.85 -36.8 20.5 -36.1 L20.35 -35.7 Q20.15 -37.0 19.15 -38.0 17.75 -39.25 15.9 -39.15 14.0 -39.05 12.7 -37.7 11.8 -36.7 11.65 -35.3" fill="#ffffff" fill-rule="evenodd" stroke="none"/>
    <path d="M11.6 -22.7 L13.95 -27.95 Q17.8 -28.8 20.75 -31.6 L21.7 -32.5 Q25.95 -37.0 25.7 -43.2 25.35 -49.4 20.75 -53.65 16.25 -57.8 10.05 -57.55 7.6 -57.4 5.5 -56.6 L4.9 -57.15 Q-0.35 -62.05 -7.6 -61.75 -14.85 -61.4 -19.7 -56.0 -23.7 -51.7 -24.2 -45.95 L-24.25 -44.7 -24.2 -43.55 Q-23.9 -36.3 -18.6 -31.4 -13.3 -26.6 -6.0 -26.9 -1.15 -27.1 2.6 -29.45 L2.95 -29.7 Q5.7 -28.05 9.1 -27.75 L11.6 -22.7" fill="none" stroke="#000000" stroke-linecap="round" stroke-linejoin="round" stroke-width="2.0"/>
    <path d="M11.65 -35.3 L11.35 -35.85 11.15 -36.45 11.05 -36.85 11.0 -37.6 10.95 -37.65 Q10.9 -39.65 12.2 -41.2 13.6 -42.75 15.65 -42.8 17.8 -42.95 19.3 -41.6 20.75 -40.2 20.9 -38.1 L20.85 -37.7 Q20.85 -36.8 20.5 -36.1 L20.35 -35.7 20.25 -35.45 19.7 -34.5 18.9 -33.85 18.45 -33.6 Q17.45 -32.95 16.2 -32.9 14.85 -32.85 13.75 -33.35 13.35 -33.5 13.05 -33.75 L13.0 -33.8 12.75 -33.95 12.6 -34.1 11.65 -35.3 M13.75 -33.35 L13.65 -34.2 Q13.55 -35.2 14.25 -36.05 14.95 -36.75 16.0 -36.75 17.05 -36.85 17.75 -36.15 18.5 -35.5 18.55 -34.45 L18.45 -33.6 M13.95 -27.95 L11.4 -27.7 11.6 -22.7 M9.1 -27.75 L11.4 -27.7" fill="none" stroke="#000000" stroke-linecap="round" stroke-linejoin="round" stroke-width="1.0"/>
  </g>
</svg>
