<?xml version="1.0" encoding="UTF-8" standalone="no"?>
<svg xmlns:ffdec="https://www.free-decompiler.com/flash" xmlns:xlink="http://www.w3.org/1999/xlink" ffdec:objectType="shape" height="11.0px" width="10.95px" xmlns="http://www.w3.org/2000/svg">
  <g transform="matrix(1.0, 0.0, 0.0, 1.0, -10.45, 43.5)">
    <path d="M10.95 -37.3 Q10.85 -38.5 11.25 -39.7 12.0 -41.6 13.85 -42.5 L17.7 -42.6 Q19.6 -41.9 20.5 -40.05 21.15 -38.55 20.8 -37.0 L20.6 -36.35 20.55 -36.25 20.55 -36.15 20.1 -35.15 19.85 -34.9 19.7 -34.75 19.7 -34.7 19.25 -34.3 Q19.5 -35.55 18.9 -36.9 18.15 -38.55 16.4 -39.15 L12.9 -39.05 Q11.7 -38.45 10.95 -37.3" fill="#ffffff" fill-rule="evenodd" stroke="none"/>
    <path d="M10.95 -37.3 Q11.7 -38.45 12.9 -39.05 L16.4 -39.15 Q18.15 -38.55 18.9 -36.9 19.5 -35.55 19.25 -34.3 L18.4 -33.6 18.05 -33.45 17.95 -33.45 Q17.75 -33.25 17.35 -33.15 L16.55 -33.0 16.95 -33.8 Q17.35 -34.8 16.95 -35.7 16.55 -36.6 15.6 -36.95 L13.7 -36.9 Q12.7 -36.55 12.4 -35.5 L12.2 -34.6 Q11.7 -35.15 11.35 -35.85 11.0 -36.55 10.95 -37.3" fill="#00ccff" fill-rule="evenodd" stroke="none"/>
    <path d="M12.2 -34.6 L12.4 -35.5 Q12.7 -36.55 13.7 -36.9 L15.6 -36.95 Q16.55 -36.6 16.95 -35.7 17.35 -34.8 16.95 -33.8 L16.55 -33.0 14.9 -33.1 14.15 -33.25 Q13.45 -33.55 12.9 -34.0 L12.65 -34.15 12.2 -34.6" fill="#000000" fill-rule="evenodd" stroke="none"/>
    <path d="M20.1 -35.15 L20.55 -36.15 20.55 -36.25 20.6 -36.35 20.8 -37.0 Q21.15 -38.55 20.5 -40.05 19.6 -41.9 17.7 -42.6 L13.85 -42.5 Q12.0 -41.6 11.25 -39.7 10.85 -38.5 10.95 -37.3 11.0 -36.55 11.35 -35.85 11.7 -35.15 12.2 -34.6 L12.4 -35.5 Q12.7 -36.55 13.7 -36.9 L15.6 -36.95 Q16.55 -36.6 16.95 -35.7 17.35 -34.8 16.95 -33.8 L16.55 -33.0 17.35 -33.15 Q17.75 -33.25 17.95 -33.45 L18.05 -33.45 18.4 -33.6 19.25 -34.3 19.7 -34.7 19.7 -34.75 M16.55 -33.0 L14.9 -33.1 14.15 -33.25 Q13.45 -33.55 12.9 -34.0 L12.65 -34.15 12.2 -34.6" fill="none" stroke="#000000" stroke-linecap="round" stroke-linejoin="round" stroke-width="1.0"/>
  </g>
</svg>
