<?xml version="1.0" encoding="UTF-8" standalone="no"?>
<svg xmlns:ffdec="https://www.free-decompiler.com/flash" xmlns:xlink="http://www.w3.org/1999/xlink" ffdec:objectType="shape" height="43.2px" width="51.5px" xmlns="http://www.w3.org/2000/svg">
  <g transform="matrix(1.0, 0.0, 0.0, 1.0, 24.85, 59.2)">
    <path d="M9.5 -22.0 L12.05 -22.0 9.05 -17.0 9.5 -22.0 9.05 -17.0 7.2 -22.3 9.5 -22.0" fill="#ffcc00" fill-rule="evenodd" stroke="none"/>
    <path d="M19.4 -28.85 L19.25 -28.6 18.55 -27.65 17.7 -27.15 17.2 -26.95 17.4 -27.75 Q17.5 -28.85 16.85 -29.6 16.2 -30.4 15.15 -30.4 14.15 -30.55 13.35 -29.9 12.6 -29.2 12.55 -28.15 12.5 -27.65 12.6 -27.3 L11.85 -27.8 11.8 -27.85 11.6 -28.0 11.45 -28.2 10.7 -29.5 Q11.0 -30.85 12.1 -31.8 13.5 -32.95 15.35 -32.8 17.2 -32.7 18.45 -31.2 19.35 -30.15 19.4 -28.85" fill="#00ccff" fill-rule="evenodd" stroke="none"/>
    <path d="M17.2 -26.95 Q16.15 -26.4 14.85 -26.55 13.6 -26.65 12.6 -27.3 12.5 -27.65 12.55 -28.15 12.6 -29.2 13.35 -29.9 14.15 -30.55 15.15 -30.4 16.2 -30.4 16.85 -29.6 17.5 -28.85 17.4 -27.75 L17.2 -26.95" fill="#000000" fill-rule="evenodd" stroke="none"/>
    <path d="M10.7 -29.5 L10.45 -30.1 10.35 -30.7 10.3 -31.15 10.35 -31.9 10.35 -31.95 Q10.5 -33.95 12.0 -35.3 13.6 -36.6 15.65 -36.4 17.75 -36.3 19.05 -34.75 20.35 -33.2 20.2 -31.1 L20.1 -30.7 Q20.05 -29.85 19.6 -29.2 L19.4 -28.85 Q19.35 -30.15 18.45 -31.2 17.2 -32.7 15.35 -32.8 13.5 -32.95 12.1 -31.8 11.0 -30.85 10.7 -29.5" fill="#ffffff" fill-rule="evenodd" stroke="none"/>
    <path d="M9.05 -17.0 L12.05 -22.0 Q15.95 -22.25 19.25 -24.65 L20.3 -25.45 Q25.1 -29.4 25.6 -35.6 26.1 -41.75 22.05 -46.5 18.05 -51.25 11.95 -51.75 L7.3 -51.4 6.8 -52.05 Q2.15 -57.6 -5.0 -58.15 -12.2 -58.75 -17.75 -54.05 -22.25 -50.25 -23.45 -44.65 L-23.7 -43.4 -23.8 -42.25 Q-24.4 -35.05 -19.85 -29.5 -15.1 -24.05 -7.9 -23.4 -3.05 -23.0 1.0 -24.9 L1.35 -25.1 Q3.85 -23.05 7.2 -22.3 L9.05 -17.0" fill="none" stroke="#000000" stroke-linecap="round" stroke-linejoin="round" stroke-width="2.0"/>
    <path d="M10.7 -29.5 L10.45 -30.1 10.35 -30.7 10.3 -31.15 10.35 -31.9 10.35 -31.95 Q10.5 -33.95 12.0 -35.3 13.6 -36.6 15.65 -36.4 17.75 -36.3 19.05 -34.75 20.35 -33.2 20.2 -31.1 L20.1 -30.7 Q20.05 -29.85 19.6 -29.2 L19.4 -28.85 19.25 -28.6 18.55 -27.65 17.7 -27.15 17.2 -26.95 Q16.15 -26.4 14.85 -26.55 13.6 -26.65 12.6 -27.3 L11.85 -27.8 11.8 -27.85 11.6 -28.0 11.45 -28.2 10.7 -29.5 M12.6 -27.3 Q12.5 -27.65 12.55 -28.15 12.6 -29.2 13.35 -29.9 14.15 -30.55 15.15 -30.4 16.2 -30.4 16.85 -29.6 17.5 -28.85 17.4 -27.75 L17.2 -26.95 M12.05 -22.0 L9.5 -22.0 9.05 -17.0 M7.2 -22.3 L9.5 -22.0" fill="none" stroke="#000000" stroke-linecap="round" stroke-linejoin="round" stroke-width="1.0"/>
  </g>
</svg>
