<?xml version="1.0" encoding="UTF-8" standalone="no"?>
<svg xmlns:ffdec="https://www.free-decompiler.com/flash" xmlns:xlink="http://www.w3.org/1999/xlink" ffdec:objectType="shape" height="11.0px" width="11.0px" xmlns="http://www.w3.org/2000/svg">
  <g transform="matrix(1.0, 0.0, 0.0, 1.0, -9.8, 37.1)">
    <path d="M10.3 -31.6 Q10.3 -32.8 10.9 -33.9 11.9 -35.7 13.8 -36.35 15.8 -37.0 17.65 -36.0 19.45 -35.05 20.1 -33.1 20.55 -31.55 19.95 -30.0 L19.75 -29.4 19.7 -29.3 19.65 -29.2 19.0 -28.25 18.8 -28.05 18.6 -27.9 18.15 -27.55 Q18.55 -28.8 18.15 -30.15 17.55 -31.95 15.9 -32.7 14.25 -33.65 12.45 -33.05 11.15 -32.65 10.3 -31.6" fill="#ffffff" fill-rule="evenodd" stroke="none"/>
    <path d="M10.3 -31.6 Q11.15 -32.65 12.45 -33.05 14.25 -33.65 15.9 -32.7 17.55 -31.95 18.15 -30.15 18.55 -28.8 18.15 -27.55 L17.2 -26.95 16.85 -26.85 16.8 -26.85 16.1 -26.65 15.3 -26.6 15.8 -27.3 Q16.35 -28.25 16.0 -29.25 15.75 -30.2 14.8 -30.6 13.9 -31.15 12.95 -30.9 11.95 -30.6 11.5 -29.6 L11.2 -28.8 10.5 -30.1 Q10.25 -30.85 10.3 -31.6" fill="#00ccff" fill-rule="evenodd" stroke="none"/>
    <path d="M11.2 -28.8 L11.5 -29.6 Q11.95 -30.6 12.95 -30.9 13.9 -31.15 14.8 -30.6 15.75 -30.2 16.0 -29.25 16.35 -28.25 15.8 -27.3 L15.3 -26.6 13.7 -26.9 13.0 -27.15 11.75 -28.05 11.55 -28.2 11.2 -28.8" fill="#000000" fill-rule="evenodd" stroke="none"/>
    <path d="M19.0 -28.25 L19.65 -29.2 19.7 -29.3 19.75 -29.4 19.95 -30.0 Q20.55 -31.55 20.1 -33.1 19.45 -35.05 17.65 -36.0 15.8 -37.0 13.8 -36.35 11.9 -35.7 10.9 -33.9 10.3 -32.8 10.3 -31.6 10.25 -30.85 10.5 -30.1 L11.2 -28.8 11.5 -29.6 Q11.95 -30.6 12.95 -30.9 13.9 -31.15 14.8 -30.6 15.75 -30.2 16.0 -29.25 16.35 -28.25 15.8 -27.3 L15.3 -26.6 16.1 -26.65 16.8 -26.85 16.85 -26.85 17.2 -26.95 18.15 -27.55 18.6 -27.9 M15.3 -26.6 L13.7 -26.9 13.0 -27.15 11.75 -28.05 11.55 -28.2 11.2 -28.8" fill="none" stroke="#000000" stroke-linecap="round" stroke-linejoin="round" stroke-width="1.0"/>
  </g>
</svg>
