<?xml version="1.0" encoding="UTF-8" standalone="no"?>
<svg xmlns:ffdec="https://www.free-decompiler.com/flash" xmlns:xlink="http://www.w3.org/1999/xlink" ffdec:objectType="shape" height="44.7px" width="51.1px" xmlns="http://www.w3.org/2000/svg">
  <g transform="matrix(1.0, 0.0, 0.0, 1.0, 24.5, 51.15)">
    <path d="M7.9 -12.4 L10.45 -12.1 6.95 -7.45 7.9 -12.4 6.95 -7.45 5.65 -13.0 7.9 -12.4" fill="#ffcc00" fill-rule="evenodd" stroke="none"/>
    <path d="M16.1 -16.55 L16.4 -17.3 Q16.6 -18.4 16.0 -19.2 15.45 -20.0 14.4 -20.15 L12.6 -19.9 Q11.7 -19.25 11.6 -18.2 L11.5 -17.35 10.85 -17.9 10.8 -17.95 10.65 -18.15 10.5 -18.4 9.85 -19.75 Q10.3 -21.0 11.5 -21.85 12.95 -22.85 14.85 -22.5 16.7 -22.2 17.75 -20.6 18.6 -19.5 18.5 -18.2 L18.3 -17.95 17.5 -17.1 16.6 -16.7 16.1 -16.55" fill="#00ccff" fill-rule="evenodd" stroke="none"/>
    <path d="M11.5 -17.35 L11.6 -18.2 Q11.7 -19.25 12.6 -19.9 L14.4 -20.15 Q15.45 -20.0 16.0 -19.2 16.6 -18.4 16.4 -17.3 L16.1 -16.55 13.7 -16.35 Q12.45 -16.6 11.5 -17.35" fill="#000000" fill-rule="evenodd" stroke="none"/>
    <path d="M18.5 -18.2 Q18.6 -19.5 17.75 -20.6 16.7 -22.2 14.85 -22.5 12.95 -22.85 11.5 -21.85 10.3 -21.0 9.85 -19.75 L9.7 -20.3 9.65 -20.9 9.65 -21.35 9.75 -22.1 9.75 -22.15 Q10.1 -24.15 11.75 -25.4 13.4 -26.55 15.5 -26.15 17.6 -25.8 18.75 -24.1 19.85 -22.4 19.5 -20.35 L19.4 -19.95 18.7 -18.55 18.5 -18.2" fill="#ffffff" fill-rule="evenodd" stroke="none"/>
    <path d="M6.95 -7.45 L10.45 -12.1 Q14.35 -12.05 17.9 -14.0 18.5 -14.3 19.05 -14.75 24.15 -18.2 25.3 -24.3 26.45 -30.35 22.9 -35.5 19.4 -40.55 13.35 -41.7 L8.7 -41.8 8.25 -42.5 Q4.25 -48.45 -2.85 -49.8 -10.0 -51.15 -15.95 -47.0 -20.8 -43.65 -22.6 -38.25 L-22.95 -37.0 -23.15 -35.9 Q-24.5 -28.8 -20.5 -22.75 -16.35 -16.9 -9.2 -15.55 -4.45 -14.7 -0.3 -16.1 L0.1 -16.3 Q2.45 -14.05 5.65 -13.0 L6.95 -7.45" fill="none" stroke="#000000" stroke-linecap="round" stroke-linejoin="round" stroke-width="2.0"/>
    <path d="M11.5 -17.35 L11.6 -18.2 Q11.7 -19.25 12.6 -19.9 L14.4 -20.15 Q15.45 -20.0 16.0 -19.2 16.6 -18.4 16.4 -17.3 L16.1 -16.55 16.6 -16.7 17.5 -17.1 18.3 -17.95 18.5 -18.2 18.7 -18.55 19.4 -19.95 19.5 -20.35 Q19.85 -22.4 18.75 -24.1 17.6 -25.8 15.5 -26.15 13.4 -26.55 11.75 -25.4 10.1 -24.15 9.75 -22.15 L9.75 -22.1 9.65 -21.35 9.65 -20.9 9.7 -20.3 9.85 -19.75 10.5 -18.4 10.65 -18.15 10.8 -17.95 10.85 -17.9 11.5 -17.35 Q12.45 -16.6 13.7 -16.35 L16.1 -16.55 M10.45 -12.1 L7.9 -12.4 6.95 -7.45 M5.65 -13.0 L7.9 -12.4" fill="none" stroke="#000000" stroke-linecap="round" stroke-linejoin="round" stroke-width="1.0"/>
  </g>
</svg>
