<?xml version="1.0" encoding="UTF-8" standalone="no"?>
<svg xmlns:ffdec="https://www.free-decompiler.com/flash" xmlns:xlink="http://www.w3.org/1999/xlink" ffdec:objectType="shape" height="10.95px" width="11.0px" xmlns="http://www.w3.org/2000/svg">
  <g transform="matrix(1.0, 0.0, 0.0, 1.0, -9.15, 26.75)">
    <path d="M9.65 -21.8 Q9.8 -23.0 10.5 -24.05 11.7 -25.75 13.65 -26.15 15.7 -26.6 17.45 -25.4 19.1 -24.3 19.55 -22.3 19.85 -20.7 19.15 -19.25 L18.85 -18.6 18.8 -18.55 18.75 -18.45 18.05 -17.6 17.75 -17.4 17.6 -17.35 17.55 -17.3 17.05 -16.95 Q17.6 -18.15 17.3 -19.6 16.95 -21.4 15.4 -22.35 13.8 -23.4 11.95 -23.05 10.6 -22.8 9.65 -21.8" fill="#ffffff" fill-rule="evenodd" stroke="none"/>
    <path d="M9.65 -21.8 Q10.6 -22.8 11.95 -23.05 13.8 -23.4 15.4 -22.35 16.95 -21.4 17.3 -19.6 17.6 -18.15 17.05 -16.95 L16.0 -16.5 15.7 -16.4 15.65 -16.4 14.9 -16.3 14.15 -16.4 14.75 -17.0 Q15.35 -17.9 15.15 -18.85 15.0 -19.85 14.05 -20.35 13.2 -21.0 12.25 -20.8 11.2 -20.6 10.65 -19.75 L10.3 -18.9 9.7 -20.3 9.65 -21.8" fill="#00ccff" fill-rule="evenodd" stroke="none"/>
    <path d="M10.3 -18.9 L10.65 -19.75 Q11.2 -20.6 12.25 -20.8 13.2 -21.0 14.05 -20.35 15.0 -19.85 15.15 -18.85 15.35 -17.9 14.75 -17.0 L14.15 -16.4 Q13.3 -16.4 12.55 -16.8 L11.9 -17.15 10.8 -18.1 10.55 -18.3 10.3 -18.9" fill="#000000" fill-rule="evenodd" stroke="none"/>
    <path d="M18.05 -17.6 L18.75 -18.45 18.8 -18.55 18.85 -18.6 19.15 -19.25 Q19.85 -20.7 19.55 -22.3 19.1 -24.3 17.45 -25.4 15.7 -26.6 13.65 -26.15 11.7 -25.75 10.5 -24.05 9.8 -23.0 9.65 -21.8 L9.7 -20.3 10.3 -18.9 10.65 -19.75 Q11.2 -20.6 12.25 -20.8 13.2 -21.0 14.05 -20.35 15.0 -19.85 15.15 -18.85 15.35 -17.9 14.75 -17.0 L14.15 -16.4 Q13.3 -16.4 12.55 -16.8 L11.9 -17.15 10.8 -18.1 10.55 -18.3 10.3 -18.9 M17.05 -16.95 L17.55 -17.3 17.6 -17.35 M14.15 -16.4 L14.9 -16.3 15.65 -16.4 15.7 -16.4 16.0 -16.5 17.05 -16.95" fill="none" stroke="#000000" stroke-linecap="round" stroke-linejoin="round" stroke-width="1.0"/>
  </g>
</svg>
