<?xml version="1.0" encoding="UTF-8" standalone="no"?>
<svg xmlns:ffdec="https://www.free-decompiler.com/flash" xmlns:xlink="http://www.w3.org/1999/xlink" ffdec:objectType="shape" height="45.55px" width="50.7px" xmlns="http://www.w3.org/2000/svg">
  <g transform="matrix(1.0, 0.0, 0.0, 1.0, 24.25, 45.55)">
    <path d="M6.75 -5.9 L9.25 -5.4 5.45 -1.0 6.75 -5.9 5.45 -1.0 4.55 -6.6 6.75 -5.9" fill="#ffcc00" fill-rule="evenodd" stroke="none"/>
    <path d="M15.2 -9.4 L15.6 -10.2 Q15.85 -11.25 15.3 -12.05 14.85 -12.95 13.8 -13.15 L11.9 -13.0 Q11.0 -12.4 10.8 -11.4 L10.7 -10.55 10.05 -11.15 10.0 -11.2 9.85 -11.45 9.75 -11.65 9.2 -13.05 Q9.75 -14.35 10.95 -15.05 12.55 -15.95 14.4 -15.45 16.2 -15.05 17.15 -13.4 17.9 -12.2 17.7 -10.95 L17.5 -10.7 16.6 -9.9 15.75 -9.55 15.2 -9.4" fill="#00ccff" fill-rule="evenodd" stroke="none"/>
    <path d="M10.7 -10.55 L10.8 -11.4 Q11.0 -12.4 11.9 -13.0 L13.8 -13.15 Q14.85 -12.95 15.3 -12.05 15.85 -11.25 15.6 -10.2 L15.2 -9.4 Q14.1 -9.1 12.8 -9.4 11.6 -9.75 10.7 -10.55" fill="#000000" fill-rule="evenodd" stroke="none"/>
    <path d="M17.7 -10.95 Q17.9 -12.2 17.15 -13.4 16.2 -15.05 14.4 -15.45 12.55 -15.95 10.95 -15.05 9.75 -14.35 9.2 -13.05 L9.1 -13.65 9.1 -14.3 9.1 -14.75 9.25 -15.5 9.3 -15.55 Q9.8 -17.45 11.5 -18.55 13.25 -19.6 15.3 -19.0 17.3 -18.55 18.35 -16.8 19.4 -15.05 18.9 -13.0 L18.7 -12.65 Q18.5 -11.8 17.95 -11.2 L17.7 -10.95" fill="#ffffff" fill-rule="evenodd" stroke="none"/>
    <path d="M5.45 -1.0 L9.25 -5.4 Q13.2 -5.05 16.8 -6.8 L18.05 -7.45 Q23.35 -10.5 24.95 -16.55 26.5 -22.5 23.3 -27.9 20.15 -33.2 14.2 -34.7 L9.65 -35.15 9.2 -35.9 Q5.6 -42.15 -1.4 -43.9 -8.35 -45.8 -14.65 -42.0 -19.7 -39.1 -21.85 -33.75 L-22.3 -32.6 -22.65 -31.45 Q-24.4 -24.45 -20.85 -18.2 -17.1 -12.05 -10.1 -10.2 -5.4 -9.0 -1.15 -10.2 L-0.7 -10.35 Q1.45 -7.85 4.55 -6.6 L5.45 -1.0" fill="none" stroke="#000000" stroke-linecap="round" stroke-linejoin="round" stroke-width="2.0"/>
    <path d="M10.7 -10.55 L10.8 -11.4 Q11.0 -12.4 11.9 -13.0 L13.8 -13.15 Q14.85 -12.95 15.3 -12.05 15.85 -11.25 15.6 -10.2 L15.2 -9.4 15.75 -9.55 16.6 -9.9 17.5 -10.7 17.7 -10.95 17.95 -11.2 Q18.5 -11.8 18.7 -12.65 L18.9 -13.0 Q19.4 -15.05 18.35 -16.8 17.3 -18.55 15.3 -19.0 13.25 -19.6 11.5 -18.55 9.8 -17.45 9.3 -15.55 L9.25 -15.5 9.1 -14.75 9.1 -14.3 9.1 -13.65 9.2 -13.05 9.75 -11.65 9.85 -11.45 10.0 -11.2 10.05 -11.15 10.7 -10.55 Q11.6 -9.75 12.8 -9.4 14.1 -9.1 15.2 -9.4 M9.25 -5.4 L6.75 -5.9 5.45 -1.0 M4.55 -6.6 L6.75 -5.9" fill="none" stroke="#000000" stroke-linecap="round" stroke-linejoin="round" stroke-width="1.0"/>
  </g>
</svg>
