<?xml version="1.0" encoding="UTF-8" standalone="no"?>
<svg xmlns:ffdec="https://www.free-decompiler.com/flash" xmlns:xlink="http://www.w3.org/1999/xlink" ffdec:objectType="shape" height="11.05px" width="11.0px" xmlns="http://www.w3.org/2000/svg">
  <g transform="matrix(1.0, 0.0, 0.0, 1.0, -8.65, 19.85)">
    <path d="M9.2 -15.2 Q9.45 -16.35 10.2 -17.35 11.5 -18.95 13.5 -19.3 15.55 -19.55 17.2 -18.25 18.8 -17.05 19.1 -15.0 19.3 -13.4 18.5 -12.0 L18.15 -11.35 18.1 -11.3 18.05 -11.2 17.25 -10.45 17.0 -10.25 16.8 -10.15 16.75 -10.1 16.2 -9.85 Q16.9 -11.0 16.7 -12.45 16.45 -14.25 14.95 -15.3 13.45 -16.5 11.6 -16.25 10.25 -16.1 9.2 -15.2" fill="#ffffff" fill-rule="evenodd" stroke="none"/>
    <path d="M9.2 -15.2 Q10.25 -16.1 11.6 -16.25 13.45 -16.5 14.95 -15.3 16.45 -14.25 16.7 -12.45 16.9 -11.0 16.2 -9.85 L15.25 -9.45 14.9 -9.4 14.8 -9.4 14.1 -9.3 13.3 -9.45 13.9 -10.0 Q14.6 -10.9 14.5 -11.9 14.35 -12.85 13.5 -13.45 12.7 -14.15 11.7 -14.0 10.7 -13.9 10.1 -13.05 L9.65 -12.25 9.15 -13.7 9.2 -15.2" fill="#00ccff" fill-rule="evenodd" stroke="none"/>
    <path d="M9.65 -12.25 L10.1 -13.05 Q10.7 -13.9 11.7 -14.0 12.7 -14.15 13.5 -13.45 14.35 -12.85 14.5 -11.9 14.6 -10.9 13.9 -10.0 L13.3 -9.45 Q12.5 -9.55 11.75 -10.0 L11.1 -10.35 10.05 -11.45 9.9 -11.65 9.65 -12.25" fill="#000000" fill-rule="evenodd" stroke="none"/>
    <path d="M17.25 -10.45 L18.05 -11.2 18.1 -11.3 18.15 -11.35 18.5 -12.0 Q19.3 -13.4 19.1 -15.0 18.8 -17.05 17.2 -18.25 15.55 -19.55 13.5 -19.3 11.5 -18.95 10.2 -17.35 9.45 -16.35 9.2 -15.2 L9.15 -13.7 9.65 -12.25 10.1 -13.05 Q10.7 -13.9 11.7 -14.0 12.7 -14.15 13.5 -13.45 14.35 -12.85 14.5 -11.9 14.6 -10.9 13.9 -10.0 L13.3 -9.45 Q12.5 -9.55 11.75 -10.0 L11.1 -10.35 10.05 -11.45 9.9 -11.65 9.65 -12.25 M16.2 -9.85 L16.75 -10.1 16.8 -10.15 M13.3 -9.45 L14.1 -9.3 14.8 -9.4 14.9 -9.4 15.25 -9.45 16.2 -9.85" fill="none" stroke="#000000" stroke-linecap="round" stroke-linejoin="round" stroke-width="1.0"/>
  </g>
</svg>
