<?xml version="1.0" encoding="UTF-8" standalone="no"?>
<svg xmlns:ffdec="https://www.free-decompiler.com/flash" xmlns:xlink="http://www.w3.org/1999/xlink" ffdec:objectType="shape" height="46.3px" width="50.1px" xmlns="http://www.w3.org/2000/svg">
  <g transform="matrix(1.0, 0.0, 0.0, 1.0, 23.35, 39.25)">
    <path d="M5.9 1.35 L8.4 2.0 4.3 6.05 5.9 1.35 4.3 6.05 3.8 0.45 Q4.8 1.0 5.9 1.35" fill="#ffcc00" fill-rule="evenodd" stroke="none"/>
    <path d="M17.2 -2.85 L17.0 -2.6 16.1 -1.95 15.15 -1.65 14.65 -1.55 15.0 -2.3 Q15.35 -3.3 14.95 -4.2 14.5 -5.1 13.5 -5.4 L11.6 -5.35 Q10.65 -4.85 10.4 -3.85 L10.2 -3.05 9.65 -3.7 9.6 -3.75 9.45 -3.95 9.35 -4.2 Q9.0 -4.95 8.9 -5.65 9.55 -6.85 10.85 -7.45 L14.3 -7.65 Q16.05 -7.1 16.9 -5.4 17.5 -4.1 17.2 -2.85" fill="#00ccff" fill-rule="evenodd" stroke="none"/>
    <path d="M14.65 -1.55 L12.25 -1.7 Q11.05 -2.15 10.2 -3.05 L10.4 -3.85 Q10.65 -4.85 11.6 -5.35 L13.5 -5.4 Q14.5 -5.1 14.95 -4.2 15.35 -3.3 15.0 -2.3 L14.65 -1.55" fill="#000000" fill-rule="evenodd" stroke="none"/>
    <path d="M8.9 -5.65 L8.9 -6.25 8.9 -6.85 8.95 -7.35 9.2 -8.0 9.2 -8.05 Q9.85 -9.95 11.65 -10.9 L15.45 -11.1 Q17.45 -10.45 18.35 -8.65 19.2 -6.8 18.55 -4.85 L18.35 -4.45 Q18.1 -3.65 17.5 -3.15 L17.2 -2.85 Q17.5 -4.1 16.9 -5.4 16.05 -7.1 14.3 -7.65 L10.85 -7.45 Q9.55 -6.85 8.9 -5.65" fill="#ffffff" fill-rule="evenodd" stroke="none"/>
    <path d="M4.3 6.05 L8.4 2.0 Q12.25 2.65 16.0 1.15 L17.3 0.65 Q22.85 -2.0 24.85 -7.85 26.9 -13.65 24.15 -19.3 21.45 -24.8 15.6 -26.85 13.3 -27.65 11.05 -27.65 L10.75 -28.4 Q7.6 -34.9 0.85 -37.25 -6.05 -39.65 -12.55 -36.4 -17.85 -33.85 -20.4 -28.75 L-20.95 -27.6 -21.35 -26.5 Q-23.7 -19.7 -20.6 -13.15 -17.4 -6.75 -10.55 -4.3 -5.95 -2.75 -1.65 -3.55 L-1.2 -3.7 Q0.8 -1.05 3.8 0.45 L4.3 6.05" fill="none" stroke="#000000" stroke-linecap="round" stroke-linejoin="round" stroke-width="2.0"/>
    <path d="M8.9 -5.65 L8.9 -6.25 8.9 -6.85 8.95 -7.35 9.2 -8.0 9.2 -8.05 Q9.85 -9.95 11.65 -10.9 L15.45 -11.1 Q17.45 -10.45 18.35 -8.65 19.2 -6.8 18.55 -4.85 L18.35 -4.45 Q18.1 -3.65 17.5 -3.15 L17.2 -2.85 17.0 -2.6 16.1 -1.95 15.15 -1.65 14.65 -1.55 12.25 -1.7 Q11.05 -2.15 10.2 -3.05 L9.65 -3.7 9.6 -3.75 9.45 -3.95 9.35 -4.2 Q9.0 -4.95 8.9 -5.65 M10.2 -3.05 L10.4 -3.85 Q10.65 -4.85 11.6 -5.35 L13.5 -5.4 Q14.5 -5.1 14.95 -4.2 15.35 -3.3 15.0 -2.3 L14.65 -1.55 M8.4 2.0 L5.9 1.35 4.3 6.05 M3.8 0.45 Q4.8 1.0 5.9 1.35" fill="none" stroke="#000000" stroke-linecap="round" stroke-linejoin="round" stroke-width="1.0"/>
  </g>
</svg>
