<?xml version="1.0" encoding="UTF-8" standalone="no"?>
<svg xmlns:ffdec="https://www.free-decompiler.com/flash" xmlns:xlink="http://www.w3.org/1999/xlink" ffdec:objectType="shape" height="10.95px" width="11.0px" xmlns="http://www.w3.org/2000/svg">
  <g transform="matrix(1.0, 0.0, 0.0, 1.0, -8.5, 12.0)">
    <path d="M9.15 -7.75 Q9.45 -8.9 10.35 -9.9 11.75 -11.35 13.75 -11.5 15.8 -11.6 17.35 -10.2 18.9 -8.85 19.0 -6.8 19.05 -5.2 18.2 -3.85 L17.75 -3.25 17.7 -3.2 17.6 -3.1 16.8 -2.4 16.5 -2.25 16.35 -2.15 16.3 -2.1 15.7 -1.9 Q16.45 -2.95 16.4 -4.45 16.25 -6.3 14.85 -7.45 13.5 -8.75 11.65 -8.7 10.25 -8.6 9.15 -7.75" fill="#ffffff" fill-rule="evenodd" stroke="none"/>
    <path d="M9.15 -7.75 Q10.25 -8.6 11.65 -8.7 13.5 -8.75 14.85 -7.45 16.25 -6.3 16.4 -4.45 16.45 -2.95 15.7 -1.9 L14.7 -1.55 14.3 -1.6 14.25 -1.55 13.6 -1.55 12.75 -1.75 13.45 -2.25 Q14.2 -3.05 14.15 -4.1 14.1 -5.05 13.25 -5.7 12.55 -6.45 11.6 -6.4 10.5 -6.35 9.85 -5.6 L9.35 -4.85 Q9.05 -5.5 9.0 -6.3 L9.15 -7.75" fill="#00ccff" fill-rule="evenodd" stroke="none"/>
    <path d="M9.35 -4.85 L9.85 -5.6 Q10.5 -6.35 11.6 -6.4 12.55 -6.45 13.25 -5.7 14.1 -5.05 14.15 -4.1 14.2 -3.05 13.45 -2.25 L12.75 -1.75 Q12.0 -1.9 11.3 -2.4 L10.65 -2.85 9.7 -3.95 9.55 -4.2 9.35 -4.85" fill="#000000" fill-rule="evenodd" stroke="none"/>
    <path d="M16.8 -2.4 L17.6 -3.1 17.7 -3.2 17.75 -3.25 18.2 -3.85 Q19.05 -5.2 19.0 -6.8 18.9 -8.85 17.35 -10.2 15.8 -11.6 13.75 -11.5 11.75 -11.35 10.35 -9.9 9.45 -8.9 9.15 -7.75 L9.0 -6.3 Q9.05 -5.5 9.35 -4.85 L9.85 -5.6 Q10.5 -6.35 11.6 -6.4 12.55 -6.45 13.25 -5.7 14.1 -5.05 14.15 -4.1 14.2 -3.05 13.45 -2.25 L12.75 -1.75 13.6 -1.55 14.25 -1.55 14.3 -1.6 14.7 -1.55 15.7 -1.9 16.3 -2.1 16.35 -2.15 M12.75 -1.75 Q12.0 -1.9 11.3 -2.4 L10.65 -2.85 9.7 -3.95 9.55 -4.2 9.35 -4.85" fill="none" stroke="#000000" stroke-linecap="round" stroke-linejoin="round" stroke-width="1.0"/>
  </g>
</svg>
