<?xml version="1.0" encoding="UTF-8" standalone="no"?>
<svg xmlns:ffdec="https://www.free-decompiler.com/flash" xmlns:xlink="http://www.w3.org/1999/xlink" ffdec:objectType="shape" height="46.65px" width="49.8px" xmlns="http://www.w3.org/2000/svg">
  <g transform="matrix(1.0, 0.0, 0.0, 1.0, 23.7, 35.65)">
    <path d="M4.8 5.3 L7.2 6.1 3.0 10.0 4.8 5.3 3.0 10.0 2.7 4.3 Q3.65 4.9 4.8 5.3" fill="#ffcc00" fill-rule="evenodd" stroke="none"/>
    <path d="M16.2 1.55 L16.0 1.75 15.05 2.4 14.15 2.7 13.6 2.75 14.05 2.0 Q14.45 1.0 13.95 0.1 13.65 -0.85 12.65 -1.15 L10.75 -1.2 Q9.8 -0.75 9.45 0.3 L9.25 1.1 8.7 0.4 8.65 0.35 8.5 0.1 8.45 -0.1 Q8.1 -0.85 8.05 -1.55 8.75 -2.75 10.0 -3.35 11.7 -4.1 13.45 -3.4 15.2 -2.75 16.0 -1.0 16.55 0.3 16.2 1.55" fill="#00ccff" fill-rule="evenodd" stroke="none"/>
    <path d="M13.6 2.75 L11.25 2.45 Q10.05 1.95 9.25 1.1 L9.45 0.3 Q9.8 -0.75 10.75 -1.2 L12.65 -1.15 Q13.65 -0.85 13.95 0.1 14.45 1.0 14.05 2.0 L13.6 2.75" fill="#000000" fill-rule="evenodd" stroke="none"/>
    <path d="M8.05 -1.55 L8.0 -2.2 8.05 -2.75 8.1 -3.2 8.35 -3.9 8.35 -3.95 Q9.1 -5.85 10.95 -6.75 12.8 -7.6 14.75 -6.8 16.7 -6.1 17.55 -4.2 18.35 -2.4 17.65 -0.4 L17.45 -0.1 16.5 1.25 16.2 1.55 Q16.55 0.3 16.0 -1.0 15.2 -2.75 13.45 -3.4 11.7 -4.1 10.0 -3.35 8.75 -2.75 8.05 -1.55" fill="#ffffff" fill-rule="evenodd" stroke="none"/>
    <path d="M3.0 10.0 L7.2 6.1 Q11.1 6.85 14.9 5.5 L16.2 5.0 Q21.85 2.55 24.05 -3.25 26.25 -8.95 23.75 -14.7 21.25 -20.3 15.5 -22.55 13.2 -23.4 10.95 -23.5 L10.65 -24.25 Q7.75 -30.8 1.05 -33.45 -5.7 -36.05 -12.35 -33.05 -17.75 -30.7 -20.45 -25.65 L-21.0 -24.5 -21.45 -23.45 Q-24.05 -16.7 -21.2 -10.1 -18.25 -3.55 -11.45 -0.95 -6.9 0.85 -2.55 0.1 L-2.15 0.05 Q-0.25 2.7 2.7 4.3 L3.0 10.0" fill="none" stroke="#000000" stroke-linecap="round" stroke-linejoin="round" stroke-width="2.0"/>
    <path d="M8.05 -1.55 L8.0 -2.2 8.05 -2.75 8.1 -3.2 8.35 -3.9 8.35 -3.95 Q9.1 -5.85 10.95 -6.75 12.8 -7.6 14.75 -6.8 16.7 -6.1 17.55 -4.2 18.35 -2.4 17.65 -0.4 L17.45 -0.1 16.5 1.25 16.2 1.55 16.0 1.75 15.05 2.4 14.15 2.7 13.6 2.75 11.25 2.45 Q10.05 1.95 9.25 1.1 L8.7 0.4 8.65 0.35 8.5 0.1 8.45 -0.1 Q8.1 -0.85 8.05 -1.55 M9.25 1.1 L9.45 0.3 Q9.8 -0.75 10.75 -1.2 L12.65 -1.15 Q13.65 -0.85 13.95 0.1 14.45 1.0 14.05 2.0 L13.6 2.75 M7.2 6.1 L4.8 5.3 3.0 10.0 M2.7 4.3 Q3.65 4.9 4.8 5.3" fill="none" stroke="#000000" stroke-linecap="round" stroke-linejoin="round" stroke-width="1.0"/>
  </g>
</svg>
