<?xml version="1.0" encoding="UTF-8" standalone="no"?>
<svg xmlns:ffdec="https://www.free-decompiler.com/flash" xmlns:xlink="http://www.w3.org/1999/xlink" ffdec:objectType="shape" height="10.95px" width="11.0px" xmlns="http://www.w3.org/2000/svg">
  <g transform="matrix(1.0, 0.0, 0.0, 1.0, -7.6, 7.75)">
    <path d="M8.3 -3.65 Q8.65 -4.8 9.55 -5.75 11.0 -7.2 13.0 -7.25 15.1 -7.3 16.55 -5.8 18.05 -4.4 18.1 -2.35 18.1 -0.75 17.15 0.6 L16.7 1.15 16.65 1.2 16.6 1.3 15.75 2.0 15.45 2.1 15.25 2.2 15.2 2.25 14.7 2.4 Q15.45 1.35 15.4 -0.05 15.35 -1.9 14.0 -3.15 12.65 -4.5 10.8 -4.5 9.45 -4.45 8.3 -3.65" fill="#ffffff" fill-rule="evenodd" stroke="none"/>
    <path d="M8.3 -3.65 Q9.45 -4.45 10.8 -4.5 12.65 -4.5 14.0 -3.15 15.35 -1.9 15.4 -0.05 15.45 1.35 14.7 2.4 L13.6 2.7 13.25 2.7 13.2 2.7 12.5 2.7 11.7 2.5 12.35 2.0 Q13.15 1.2 13.15 0.2 13.1 -0.75 12.35 -1.45 11.65 -2.25 10.65 -2.2 9.6 -2.2 8.9 -1.45 L8.35 -0.7 Q8.1 -1.35 8.1 -2.2 L8.3 -3.65" fill="#00ccff" fill-rule="evenodd" stroke="none"/>
    <path d="M8.35 -0.7 L8.9 -1.45 Q9.6 -2.2 10.65 -2.2 11.65 -2.25 12.35 -1.45 13.1 -0.75 13.15 0.2 13.15 1.2 12.35 2.0 L11.7 2.5 10.2 1.8 9.6 1.35 8.7 0.15 8.6 -0.1 8.35 -0.7" fill="#000000" fill-rule="evenodd" stroke="none"/>
    <path d="M15.75 2.0 L16.6 1.3 16.65 1.2 16.7 1.15 17.15 0.6 Q18.1 -0.75 18.1 -2.35 18.05 -4.4 16.55 -5.8 15.1 -7.3 13.0 -7.25 11.0 -7.2 9.55 -5.75 8.65 -4.8 8.3 -3.65 L8.1 -2.2 Q8.1 -1.35 8.35 -0.7 L8.9 -1.45 Q9.6 -2.2 10.65 -2.2 11.65 -2.25 12.35 -1.45 13.1 -0.75 13.15 0.2 13.15 1.2 12.35 2.0 L11.7 2.5 12.5 2.7 13.2 2.7 13.25 2.7 13.6 2.7 14.7 2.4 15.2 2.25 15.25 2.2 M11.7 2.5 L10.2 1.8 9.6 1.35 8.7 0.15 8.6 -0.1 8.35 -0.7" fill="none" stroke="#000000" stroke-linecap="round" stroke-linejoin="round" stroke-width="1.0"/>
  </g>
</svg>
