<?xml version="1.0" encoding="UTF-8" standalone="no"?>
<svg xmlns:ffdec="https://www.free-decompiler.com/flash" xmlns:xlink="http://www.w3.org/1999/xlink" ffdec:objectType="shape" height="39.65px" width="39.85px" xmlns="http://www.w3.org/2000/svg">
  <g transform="matrix(1.0, 0.0, 0.0, 1.0, 19.95, 19.85)">
    <path d="M5.05 -18.6 L-4.55 -18.6 -18.15 18.55 -10.0 18.55 -8.1 12.65 -7.6 12.0 Q-7.3 11.75 -6.9 11.75 L7.2 11.75 7.95 12.0 8.4 12.65 10.2 18.55 18.3 18.55 5.05 -18.6 M0.75 -10.3 L1.2 -9.65 5.75 5.0 5.75 5.75 5.3 6.4 4.55 6.6 -4.7 6.6 -5.4 6.35 -5.85 5.75 -5.9 5.0 -1.2 -9.65 -0.7 -10.3 0.0 -10.55 0.75 -10.3 M5.9 -19.85 L19.9 19.8 9.25 19.8 7.2 13.0 -6.9 13.0 -9.1 19.8 -19.95 19.8 -5.45 -19.85 5.9 -19.85 M4.55 5.35 L0.0 -9.3 -4.7 5.35 4.55 5.35" fill="#ffeb6f" fill-rule="evenodd" stroke="none"/>
    <path d="M0.75 -10.3 L0.0 -10.55 -0.7 -10.3 -1.2 -9.65 -5.9 5.0 -5.85 5.75 -5.4 6.35 -4.7 6.6 4.55 6.6 5.3 6.4 5.75 5.75 5.75 5.0 1.2 -9.65 0.75 -10.3 M5.05 -18.6 L18.3 18.55 10.2 18.55 8.4 12.65 7.95 12.0 7.2 11.75 -6.9 11.75 Q-7.3 11.75 -7.6 12.0 L-8.1 12.65 -10.0 18.55 -18.15 18.55 -4.55 -18.6 5.05 -18.6" fill="url(#gradient0)" fill-rule="evenodd" stroke="none"/>
  </g>
  <defs>
    <linearGradient gradientTransform="matrix(0.0, -0.0377, 0.0242, 0.0, 10.85, 0.0)" gradientUnits="userSpaceOnUse" id="gradient0" spreadMethod="pad" x1="-819.2" x2="819.2">
      <stop offset="0.22745098039215686" stop-color="#fbb91e"/>
      <stop offset="0.611764705882353" stop-color="#ffff6d"/>
    </linearGradient>
  </defs>
</svg>
