<?xml version="1.0" encoding="UTF-8" standalone="no"?>
<svg xmlns:ffdec="https://www.free-decompiler.com/flash" xmlns:xlink="http://www.w3.org/1999/xlink" ffdec:objectType="shape" height="46.65px" width="49.8px" xmlns="http://www.w3.org/2000/svg">
  <g transform="matrix(1.0, 0.0, 0.0, 1.0, 23.7, 28.65)">
    <path d="M4.8 12.3 L7.2 13.1 3.0 17.0 4.8 12.3 3.0 17.0 2.7 11.3 Q3.65 11.9 4.8 12.3" fill="#ffcc00" fill-rule="evenodd" stroke="none"/>
    <path d="M13.6 9.75 L14.05 9.0 Q14.45 8.0 13.95 7.1 13.65 6.15 12.65 5.85 L10.75 5.8 Q9.8 6.25 9.45 7.3 L9.25 8.1 8.7 7.4 8.65 7.35 8.5 7.1 8.45 6.9 Q8.1 6.15 8.05 5.45 8.75 4.25 10.0 3.65 11.7 2.9 13.45 3.6 15.2 4.25 16.0 6.0 16.55 7.3 16.2 8.55 L16.0 8.75 15.05 9.4 14.15 9.7 13.6 9.75" fill="#00ccff" fill-rule="evenodd" stroke="none"/>
    <path d="M9.25 8.1 L9.45 7.3 Q9.8 6.25 10.75 5.8 L12.65 5.85 Q13.65 6.15 13.95 7.1 14.45 8.0 14.05 9.0 L13.6 9.75 11.25 9.45 Q10.05 8.95 9.25 8.1" fill="#000000" fill-rule="evenodd" stroke="none"/>
    <path d="M16.2 8.55 Q16.55 7.3 16.0 6.0 15.2 4.25 13.45 3.6 11.7 2.9 10.0 3.65 8.75 4.25 8.05 5.45 L8.0 4.8 8.05 4.25 8.1 3.8 8.35 3.1 8.35 3.05 Q9.1 1.15 10.95 0.25 12.8 -0.6 14.75 0.2 16.7 0.9 17.55 2.8 18.35 4.6 17.65 6.6 L17.45 6.9 16.5 8.25 16.2 8.55" fill="#ffffff" fill-rule="evenodd" stroke="none"/>
    <path d="M3.0 17.0 L7.2 13.1 Q11.1 13.85 14.9 12.5 L16.2 12.0 Q21.85 9.55 24.05 3.75 26.25 -1.95 23.75 -7.7 21.25 -13.3 15.5 -15.55 13.2 -16.4 10.95 -16.5 L10.65 -17.25 Q7.75 -23.8 1.05 -26.45 -5.7 -29.05 -12.35 -26.05 -17.75 -23.7 -20.45 -18.65 L-21.0 -17.5 -21.45 -16.45 Q-24.05 -9.7 -21.2 -3.1 -18.25 3.45 -11.45 6.05 -6.9 7.85 -2.55 7.1 L-2.15 7.05 Q-0.25 9.7 2.7 11.3 L3.0 17.0" fill="none" stroke="#000000" stroke-linecap="round" stroke-linejoin="round" stroke-width="2.0"/>
    <path d="M9.25 8.1 L9.45 7.3 Q9.8 6.25 10.75 5.8 L12.65 5.85 Q13.65 6.15 13.95 7.1 14.45 8.0 14.05 9.0 L13.6 9.75 14.15 9.7 15.05 9.4 16.0 8.75 16.2 8.55 16.5 8.25 17.45 6.9 17.65 6.6 Q18.35 4.6 17.55 2.8 16.7 0.9 14.75 0.2 12.8 -0.6 10.95 0.25 9.1 1.15 8.35 3.05 L8.35 3.1 8.1 3.8 8.05 4.25 8.0 4.8 8.05 5.45 Q8.1 6.15 8.45 6.9 L8.5 7.1 8.65 7.35 8.7 7.4 9.25 8.1 Q10.05 8.95 11.25 9.45 L13.6 9.75 M7.2 13.1 L4.8 12.3 3.0 17.0 M2.7 11.3 Q3.65 11.9 4.8 12.3" fill="none" stroke="#000000" stroke-linecap="round" stroke-linejoin="round" stroke-width="1.0"/>
  </g>
</svg>
