<?xml version="1.0" encoding="UTF-8" standalone="no"?>
<svg xmlns:ffdec="https://www.free-decompiler.com/flash" xmlns:xlink="http://www.w3.org/1999/xlink" ffdec:objectType="shape" height="10.95px" width="11.0px" xmlns="http://www.w3.org/2000/svg">
  <g transform="matrix(1.0, 0.0, 0.0, 1.0, -7.6, 0.75)">
    <path d="M8.3 3.35 Q8.65 2.2 9.55 1.25 11.0 -0.2 13.0 -0.25 15.1 -0.3 16.55 1.2 18.05 2.6 18.1 4.65 18.1 6.25 17.15 7.6 L16.7 8.15 16.65 8.2 16.6 8.3 15.75 9.0 15.45 9.1 15.25 9.2 15.2 9.25 14.7 9.4 Q15.45 8.35 15.4 6.95 15.35 5.1 14.0 3.85 12.65 2.5 10.8 2.5 9.45 2.55 8.3 3.35" fill="#ffffff" fill-rule="evenodd" stroke="none"/>
    <path d="M8.3 3.35 Q9.45 2.55 10.8 2.5 12.65 2.5 14.0 3.85 15.35 5.1 15.4 6.95 15.45 8.35 14.7 9.4 L13.6 9.7 13.25 9.7 13.2 9.7 12.5 9.7 11.7 9.5 12.35 9.0 Q13.15 8.2 13.15 7.2 13.1 6.25 12.35 5.55 11.65 4.75 10.65 4.8 9.6 4.8 8.9 5.55 L8.35 6.3 Q8.1 5.65 8.1 4.8 L8.3 3.35" fill="#00ccff" fill-rule="evenodd" stroke="none"/>
    <path d="M8.35 6.3 L8.9 5.55 Q9.6 4.8 10.65 4.8 11.65 4.75 12.35 5.55 13.1 6.25 13.15 7.2 13.15 8.2 12.35 9.0 L11.7 9.5 10.2 8.8 9.6 8.35 8.7 7.15 8.6 6.9 8.35 6.3" fill="#000000" fill-rule="evenodd" stroke="none"/>
    <path d="M15.75 9.0 L16.6 8.3 16.65 8.2 16.7 8.15 17.15 7.6 Q18.1 6.25 18.1 4.65 18.05 2.6 16.55 1.2 15.1 -0.3 13.0 -0.25 11.0 -0.2 9.55 1.25 8.65 2.2 8.3 3.35 L8.1 4.8 Q8.1 5.65 8.35 6.3 L8.9 5.55 Q9.6 4.8 10.65 4.8 11.65 4.75 12.35 5.55 13.1 6.25 13.15 7.2 13.15 8.2 12.35 9.0 L11.7 9.5 10.2 8.8 9.6 8.35 8.7 7.15 8.6 6.9 8.35 6.3 M14.7 9.4 L15.2 9.25 15.25 9.2 M11.7 9.5 L12.5 9.7 13.2 9.7 13.25 9.7 13.6 9.7 14.7 9.4" fill="none" stroke="#000000" stroke-linecap="round" stroke-linejoin="round" stroke-width="1.0"/>
  </g>
</svg>
