<?xml version="1.0" encoding="UTF-8" standalone="no"?>
<svg xmlns:ffdec="https://www.free-decompiler.com/flash" xmlns:xlink="http://www.w3.org/1999/xlink" ffdec:objectType="shape" height="46.65px" width="49.8px" xmlns="http://www.w3.org/2000/svg">
  <g transform="matrix(1.0, 0.0, 0.0, 1.0, 23.7, 21.9)">
    <path d="M4.8 19.05 L7.2 19.85 3.0 23.75 4.8 19.05 3.0 23.75 2.7 18.05 Q3.65 18.65 4.8 19.05" fill="#ffcc00" fill-rule="evenodd" stroke="none"/>
    <path d="M13.6 16.5 L14.05 15.75 Q14.45 14.75 13.95 13.85 13.65 12.9 12.65 12.6 L10.75 12.55 Q9.8 13.0 9.45 14.05 L9.25 14.85 8.7 14.15 8.65 14.1 8.5 13.85 8.45 13.65 Q8.1 12.9 8.05 12.2 8.75 11.0 10.0 10.4 11.7 9.65 13.45 10.35 15.2 11.0 16.0 12.75 16.55 14.05 16.2 15.3 L16.0 15.5 15.05 16.15 14.15 16.45 13.6 16.5" fill="#00ccff" fill-rule="evenodd" stroke="none"/>
    <path d="M9.25 14.85 L9.45 14.05 Q9.8 13.0 10.75 12.55 L12.65 12.6 Q13.65 12.9 13.95 13.85 14.45 14.75 14.05 15.75 L13.6 16.5 11.25 16.2 Q10.05 15.7 9.25 14.85" fill="#000000" fill-rule="evenodd" stroke="none"/>
    <path d="M16.2 15.3 Q16.55 14.05 16.0 12.75 15.2 11.0 13.45 10.35 11.7 9.65 10.0 10.4 8.75 11.0 8.05 12.2 L8.0 11.55 8.05 11.0 8.1 10.55 8.35 9.85 8.35 9.8 Q9.1 7.9 10.95 7.0 12.8 6.15 14.75 6.95 16.7 7.65 17.55 9.55 18.35 11.35 17.65 13.35 L17.45 13.65 16.5 15.0 16.2 15.3" fill="#ffffff" fill-rule="evenodd" stroke="none"/>
    <path d="M3.0 23.75 L7.2 19.85 Q11.1 20.6 14.9 19.25 L16.2 18.75 Q21.85 16.3 24.05 10.5 26.25 4.8 23.75 -0.95 21.25 -6.55 15.5 -8.8 13.2 -9.65 10.95 -9.75 L10.65 -10.5 Q7.75 -17.05 1.05 -19.7 -5.7 -22.3 -12.35 -19.3 -17.75 -16.95 -20.45 -11.9 L-21.0 -10.75 -21.45 -9.7 Q-24.05 -2.95 -21.2 3.65 -18.25 10.2 -11.45 12.8 -6.9 14.6 -2.55 13.85 L-2.15 13.8 Q-0.25 16.45 2.7 18.05 L3.0 23.75" fill="none" stroke="#000000" stroke-linecap="round" stroke-linejoin="round" stroke-width="2.0"/>
    <path d="M9.25 14.85 L9.45 14.05 Q9.8 13.0 10.75 12.55 L12.65 12.6 Q13.65 12.9 13.95 13.85 14.45 14.75 14.05 15.75 L13.6 16.5 14.15 16.45 15.05 16.15 16.0 15.5 16.2 15.3 16.5 15.0 17.45 13.65 17.65 13.35 Q18.35 11.35 17.55 9.55 16.7 7.65 14.75 6.95 12.8 6.15 10.95 7.0 9.1 7.9 8.35 9.8 L8.35 9.85 8.1 10.55 8.05 11.0 8.0 11.55 8.05 12.2 Q8.1 12.9 8.45 13.65 L8.5 13.85 8.65 14.1 8.7 14.15 9.25 14.85 Q10.05 15.7 11.25 16.2 L13.6 16.5 M7.2 19.85 L4.8 19.05 3.0 23.75 M2.7 18.05 Q3.65 18.65 4.8 19.05" fill="none" stroke="#000000" stroke-linecap="round" stroke-linejoin="round" stroke-width="1.0"/>
  </g>
</svg>
