<?xml version="1.0" encoding="UTF-8" standalone="no"?>
<svg xmlns:ffdec="https://www.free-decompiler.com/flash" xmlns:xlink="http://www.w3.org/1999/xlink" ffdec:objectType="shape" height="10.95px" width="11.0px" xmlns="http://www.w3.org/2000/svg">
  <g transform="matrix(1.0, 0.0, 0.0, 1.0, -7.6, -6.0)">
    <path d="M8.3 10.1 Q8.65 8.95 9.55 8.0 11.0 6.55 13.0 6.5 15.1 6.45 16.55 7.95 18.05 9.35 18.1 11.4 18.1 13.0 17.15 14.35 L16.7 14.9 16.65 14.95 16.6 15.05 15.75 15.75 15.45 15.85 15.25 15.95 15.2 16.0 14.7 16.15 Q15.45 15.1 15.4 13.7 15.35 11.85 14.0 10.6 12.65 9.25 10.8 9.25 9.45 9.3 8.3 10.1" fill="#ffffff" fill-rule="evenodd" stroke="none"/>
    <path d="M8.3 10.1 Q9.45 9.3 10.8 9.25 12.65 9.25 14.0 10.6 15.35 11.85 15.4 13.7 15.45 15.1 14.7 16.15 L13.6 16.45 13.25 16.45 13.2 16.45 12.5 16.45 11.7 16.25 12.35 15.75 Q13.15 14.95 13.15 13.95 13.1 13.0 12.35 12.3 11.65 11.5 10.65 11.55 9.6 11.55 8.9 12.3 L8.35 13.05 Q8.1 12.4 8.1 11.55 L8.3 10.1" fill="#00ccff" fill-rule="evenodd" stroke="none"/>
    <path d="M8.35 13.05 L8.9 12.3 Q9.6 11.55 10.65 11.55 11.65 11.5 12.35 12.3 13.1 13.0 13.15 13.95 13.15 14.95 12.35 15.75 L11.7 16.25 10.2 15.55 9.6 15.1 8.7 13.9 8.6 13.65 8.35 13.05" fill="#000000" fill-rule="evenodd" stroke="none"/>
    <path d="M15.75 15.75 L16.6 15.05 16.65 14.95 16.7 14.9 17.15 14.35 Q18.1 13.0 18.1 11.4 18.05 9.35 16.55 7.95 15.1 6.45 13.0 6.5 11.0 6.55 9.55 8.0 8.65 8.95 8.3 10.1 L8.1 11.55 Q8.1 12.4 8.35 13.05 L8.9 12.3 Q9.6 11.55 10.65 11.55 11.65 11.5 12.35 12.3 13.1 13.0 13.15 13.95 13.15 14.95 12.35 15.75 L11.7 16.25 10.2 15.55 9.6 15.1 8.7 13.9 8.6 13.65 8.35 13.05 M14.7 16.15 L15.2 16.0 15.25 15.95 M11.7 16.25 L12.5 16.45 13.2 16.45 13.25 16.45 13.6 16.45 14.7 16.15" fill="none" stroke="#000000" stroke-linecap="round" stroke-linejoin="round" stroke-width="1.0"/>
  </g>
</svg>
