<?xml version="1.0" encoding="UTF-8" standalone="no"?>
<svg xmlns:ffdec="https://www.free-decompiler.com/flash" xmlns:xlink="http://www.w3.org/1999/xlink" ffdec:objectType="shape" height="45.9px" width="50.4px" xmlns="http://www.w3.org/2000/svg">
  <g transform="matrix(1.0, 0.0, 0.0, 1.0, 24.1, 17.15)">
    <path d="M6.15 22.95 L8.6 23.5 4.75 27.75 6.15 22.95 4.75 27.75 3.95 22.15 Q5.0 22.65 6.15 22.95" fill="#ffcc00" fill-rule="evenodd" stroke="none"/>
    <path d="M17.25 18.3 L17.05 18.5 16.15 19.2 15.25 19.55 14.7 19.7 15.1 18.95 Q15.4 17.9 14.9 17.0 14.45 16.15 13.45 15.9 L11.55 16.0 Q10.65 16.55 10.4 17.6 L10.25 18.4 9.65 17.8 9.6 17.75 9.45 17.5 9.35 17.3 8.85 15.85 Q9.45 14.6 10.65 13.9 12.3 13.05 14.15 13.6 15.9 14.1 16.8 15.75 17.5 17.05 17.25 18.3" fill="#00ccff" fill-rule="evenodd" stroke="none"/>
    <path d="M14.7 19.7 L12.35 19.6 Q11.15 19.2 10.25 18.4 L10.4 17.6 Q10.65 16.55 11.55 16.0 L13.45 15.9 Q14.45 16.15 14.9 17.0 15.4 17.9 15.1 18.95 L14.7 19.7" fill="#000000" fill-rule="evenodd" stroke="none"/>
    <path d="M8.85 15.85 L8.75 15.25 8.75 14.65 8.8 14.2 9.0 13.45 9.0 13.4 Q9.55 11.5 11.3 10.45 13.15 9.45 15.15 10.1 17.15 10.6 18.15 12.45 19.1 14.25 18.5 16.25 L18.35 16.6 17.5 17.95 17.25 18.3 Q17.5 17.05 16.8 15.75 15.9 14.1 14.15 13.6 12.3 13.05 10.65 13.9 9.45 14.6 8.85 15.85" fill="#ffffff" fill-rule="evenodd" stroke="none"/>
    <path d="M4.75 27.75 L8.6 23.5 Q12.55 24.0 16.25 22.35 L17.5 21.75 Q22.95 18.85 24.65 12.95 26.45 7.05 23.45 1.55 20.5 -3.85 14.6 -5.65 12.25 -6.35 10.0 -6.25 L9.65 -6.95 Q6.25 -13.3 -0.65 -15.35 -7.55 -17.45 -13.95 -13.95 -19.15 -11.15 -21.45 -5.95 L-21.9 -4.7 -22.3 -3.65 Q-24.35 3.25 -21.0 9.7 -17.5 15.9 -10.55 18.05 L-1.6 18.35 -1.15 18.25 Q0.9 20.8 3.95 22.15 L4.75 27.75" fill="none" stroke="#000000" stroke-linecap="round" stroke-linejoin="round" stroke-width="2.0"/>
    <path d="M8.85 15.85 L8.75 15.25 8.75 14.65 8.8 14.2 9.0 13.45 9.0 13.4 Q9.55 11.5 11.3 10.45 13.15 9.45 15.15 10.1 17.15 10.6 18.15 12.45 19.1 14.25 18.5 16.25 L18.35 16.6 17.5 17.95 17.25 18.3 17.05 18.5 16.15 19.2 15.25 19.55 14.7 19.7 12.35 19.6 Q11.15 19.2 10.25 18.4 L9.65 17.8 9.6 17.75 9.45 17.5 9.35 17.3 8.85 15.85 M10.25 18.4 L10.4 17.6 Q10.65 16.55 11.55 16.0 L13.45 15.9 Q14.45 16.15 14.9 17.0 15.4 17.9 15.1 18.95 L14.7 19.7 M8.6 23.5 L6.15 22.95 4.75 27.75 M3.95 22.15 Q5.0 22.65 6.15 22.95" fill="none" stroke="#000000" stroke-linecap="round" stroke-linejoin="round" stroke-width="1.0"/>
  </g>
</svg>
