<?xml version="1.0" encoding="UTF-8" standalone="no"?>
<svg xmlns:ffdec="https://www.free-decompiler.com/flash" xmlns:xlink="http://www.w3.org/1999/xlink" ffdec:objectType="shape" height="11.0px" width="11.0px" xmlns="http://www.w3.org/2000/svg">
  <g transform="matrix(1.0, 0.0, 0.0, 1.0, -8.3, -9.25)">
    <path d="M8.95 13.7 Q9.15 12.55 10.0 11.55 11.35 10.0 13.35 9.8 15.4 9.55 16.95 10.9 18.55 12.25 18.8 14.25 18.95 15.85 18.05 17.2 L17.7 17.85 17.65 17.9 17.6 18.0 16.8 18.75 Q16.7 18.85 16.55 18.9 L16.3 19.0 16.25 19.05 15.75 19.3 Q16.4 18.2 16.3 16.7 16.1 14.9 14.65 13.75 13.2 12.55 11.35 12.75 9.95 12.85 8.95 13.7" fill="#ffffff" fill-rule="evenodd" stroke="none"/>
    <path d="M8.95 13.7 Q9.95 12.85 11.35 12.75 13.2 12.55 14.65 13.75 16.1 14.9 16.3 16.7 16.4 18.2 15.75 19.3 L14.7 19.7 14.35 19.65 14.3 19.7 13.6 19.75 12.8 19.6 13.4 19.0 Q14.15 18.15 14.05 17.2 14.0 16.2 13.15 15.65 12.35 14.9 11.4 14.95 10.3 15.05 9.7 15.9 L9.2 16.65 8.8 15.2 Q8.75 14.45 8.95 13.7" fill="#00ccff" fill-rule="evenodd" stroke="none"/>
    <path d="M9.2 16.65 L9.7 15.9 Q10.3 15.05 11.4 14.95 12.35 14.9 13.15 15.65 14.0 16.2 14.05 17.2 14.15 18.15 13.4 19.0 L12.8 19.6 11.25 19.0 10.65 18.6 9.65 17.5 9.45 17.3 9.2 16.65" fill="#000000" fill-rule="evenodd" stroke="none"/>
    <path d="M16.8 18.75 L17.6 18.0 17.65 17.9 17.7 17.85 18.05 17.2 Q18.95 15.85 18.8 14.25 18.55 12.25 16.95 10.9 15.4 9.55 13.35 9.8 11.35 10.0 10.0 11.55 9.15 12.55 8.95 13.7 8.75 14.45 8.8 15.2 L9.2 16.65 9.7 15.9 Q10.3 15.05 11.4 14.95 12.35 14.9 13.15 15.65 14.0 16.2 14.05 17.2 14.15 18.15 13.4 19.0 L12.8 19.6 13.6 19.75 14.3 19.7 14.35 19.65 14.7 19.7 15.75 19.3 16.25 19.05 16.3 19.0 M12.8 19.6 L11.25 19.0 10.65 18.6 9.65 17.5 9.45 17.3 9.2 16.65" fill="none" stroke="#000000" stroke-linecap="round" stroke-linejoin="round" stroke-width="1.0"/>
  </g>
</svg>
