<?xml version="1.0" encoding="UTF-8" standalone="no"?>
<svg xmlns:ffdec="https://www.free-decompiler.com/flash" xmlns:xlink="http://www.w3.org/1999/xlink" ffdec:objectType="shape" height="44.5px" width="51.05px" xmlns="http://www.w3.org/2000/svg">
  <g transform="matrix(1.0, 0.0, 0.0, 1.0, 24.5, 12.65)">
    <path d="M8.05 25.95 L10.6 26.2 7.15 30.85 8.05 25.95 7.15 30.85 5.8 25.4 8.05 25.95" fill="#ffcc00" fill-rule="evenodd" stroke="none"/>
    <path d="M18.55 20.05 L18.35 20.3 17.6 21.15 16.7 21.55 16.2 21.75 16.5 20.95 Q16.7 19.85 16.1 19.05 15.55 18.2 14.5 18.1 13.45 17.9 12.6 18.4 11.8 19.05 11.65 20.1 L11.6 20.95 Q11.25 20.75 11.0 20.4 L10.95 20.35 10.75 20.15 10.6 19.95 9.95 18.6 Q10.4 17.3 11.55 16.5 13.05 15.45 14.9 15.75 16.75 16.05 17.85 17.65 18.65 18.75 18.55 20.05" fill="#00ccff" fill-rule="evenodd" stroke="none"/>
    <path d="M16.2 21.75 L13.85 21.9 Q12.55 21.7 11.6 20.95 L11.65 20.1 Q11.8 19.05 12.6 18.4 13.45 17.9 14.5 18.1 15.55 18.2 16.1 19.05 16.7 19.85 16.5 20.95 L16.2 21.75" fill="#000000" fill-rule="evenodd" stroke="none"/>
    <path d="M9.95 18.6 L9.8 17.95 9.75 17.4 9.7 16.95 9.8 16.2 9.8 16.15 Q10.15 14.15 11.8 12.95 13.45 11.75 15.55 12.15 17.6 12.45 18.75 14.15 19.9 15.8 19.55 17.9 L19.4 18.25 18.75 19.7 18.55 20.05 Q18.65 18.75 17.85 17.65 16.75 16.05 14.9 15.75 13.05 15.45 11.55 16.5 10.4 17.3 9.95 18.6" fill="#ffffff" fill-rule="evenodd" stroke="none"/>
    <path d="M7.15 30.85 L10.6 26.2 Q14.55 26.25 18.0 24.25 L19.15 23.5 Q24.25 20.0 25.3 13.9 26.4 7.85 22.85 2.7 19.3 -2.3 13.25 -3.4 10.85 -3.8 8.6 -3.45 L8.15 -4.15 Q4.1 -10.05 -3.0 -11.35 -10.15 -12.65 -16.1 -8.45 -20.9 -5.05 -22.65 0.4 L-22.95 1.65 -23.2 2.7 Q-24.45 9.8 -20.35 15.8 -16.2 21.65 -9.05 22.9 -4.3 23.75 -0.15 22.3 L0.25 22.1 Q2.6 24.35 5.8 25.4 L7.15 30.85" fill="none" stroke="#000000" stroke-linecap="round" stroke-linejoin="round" stroke-width="2.0"/>
    <path d="M9.95 18.6 L9.8 17.95 9.75 17.4 9.7 16.95 9.8 16.2 9.8 16.15 Q10.15 14.15 11.8 12.95 13.45 11.75 15.55 12.15 17.6 12.45 18.75 14.15 19.9 15.8 19.55 17.9 L19.4 18.25 18.75 19.7 18.55 20.05 18.35 20.3 17.6 21.15 16.7 21.55 16.2 21.75 13.85 21.9 Q12.55 21.7 11.6 20.95 11.25 20.75 11.0 20.4 L10.95 20.35 10.75 20.15 10.6 19.95 9.95 18.6 M11.6 20.95 L11.65 20.1 Q11.8 19.05 12.6 18.4 13.45 17.9 14.5 18.1 15.55 18.2 16.1 19.05 16.7 19.85 16.5 20.95 L16.2 21.75 M10.6 26.2 L8.05 25.95 7.15 30.85 M5.8 25.4 L8.05 25.95" fill="none" stroke="#000000" stroke-linecap="round" stroke-linejoin="round" stroke-width="1.0"/>
  </g>
</svg>
