<?xml version="1.0" encoding="UTF-8" standalone="no"?>
<svg xmlns:ffdec="https://www.free-decompiler.com/flash" xmlns:xlink="http://www.w3.org/1999/xlink" ffdec:objectType="shape" height="11.0px" width="10.95px" xmlns="http://www.w3.org/2000/svg">
  <g transform="matrix(1.0, 0.0, 0.0, 1.0, -9.3, -11.45)">
    <path d="M9.8 16.45 Q9.95 15.3 10.6 14.2 11.75 12.5 13.75 12.05 15.75 11.65 17.5 12.8 19.2 13.9 19.65 15.85 19.95 17.45 19.3 18.95 L19.0 19.55 18.95 19.65 18.9 19.7 18.15 20.55 17.95 20.75 17.75 20.9 17.7 20.95 17.2 21.25 Q17.8 20.05 17.45 18.65 17.05 16.8 15.45 15.85 13.9 14.8 12.1 15.2 10.75 15.5 9.8 16.45" fill="#ffffff" fill-rule="evenodd" stroke="none"/>
    <path d="M9.8 16.45 Q10.75 15.5 12.1 15.2 13.9 14.8 15.45 15.85 17.05 16.8 17.45 18.65 17.8 20.05 17.2 21.25 L16.25 21.7 15.9 21.75 15.8 21.8 15.15 21.9 14.3 21.85 14.9 21.2 Q15.5 20.3 15.3 19.3 15.1 18.4 14.15 17.85 13.35 17.25 12.35 17.45 11.35 17.65 10.8 18.55 L10.4 19.35 9.9 17.95 9.8 16.45" fill="#00ccff" fill-rule="evenodd" stroke="none"/>
    <path d="M10.4 19.35 L10.8 18.55 Q11.35 17.65 12.35 17.45 13.35 17.25 14.15 17.85 15.1 18.4 15.3 19.3 15.5 20.3 14.9 21.2 L14.3 21.85 12.75 21.45 12.05 21.15 10.9 20.1 10.75 19.95 10.4 19.35" fill="#000000" fill-rule="evenodd" stroke="none"/>
    <path d="M18.15 20.55 L18.9 19.7 18.95 19.65 19.0 19.55 19.3 18.95 Q19.95 17.45 19.65 15.85 19.2 13.9 17.5 12.8 15.75 11.65 13.75 12.05 11.75 12.5 10.6 14.2 9.95 15.3 9.8 16.45 L9.9 17.95 10.4 19.35 10.8 18.55 Q11.35 17.65 12.35 17.45 13.35 17.25 14.15 17.85 15.1 18.4 15.3 19.3 15.5 20.3 14.9 21.2 L14.3 21.85 15.15 21.9 15.8 21.8 15.9 21.75 16.25 21.7 17.2 21.25 17.7 20.95 17.75 20.9 M14.3 21.85 L12.75 21.45 12.05 21.15 10.9 20.1 10.75 19.95 10.4 19.35" fill="none" stroke="#000000" stroke-linecap="round" stroke-linejoin="round" stroke-width="1.0"/>
  </g>
</svg>
