<?xml version="1.0" encoding="UTF-8" standalone="no"?>
<svg xmlns:ffdec="https://www.free-decompiler.com/flash" xmlns:xlink="http://www.w3.org/1999/xlink" ffdec:objectType="shape" height="31.05px" width="21.9px" xmlns="http://www.w3.org/2000/svg">
  <g transform="matrix(1.0, 0.0, 0.0, 1.0, 10.95, 15.55)">
    <path d="M8.2 -15.0 Q9.5 -14.45 10.95 -13.35 L6.65 -1.4 4.75 -2.95 Q3.9 -3.5 3.05 -3.5 1.5 -3.5 0.35 -1.9 -0.8 -0.35 -1.4 2.6 L-1.4 15.5 -10.95 15.5 -10.95 -15.15 -2.35 -15.15 -2.35 -7.35 Q-0.85 -11.5 1.15 -13.5 3.15 -15.55 5.55 -15.55 L8.2 -15.0 M7.75 -13.8 L5.55 -14.3 Q3.65 -14.25 2.05 -12.6 0.2 -10.75 -1.15 -6.9 -1.35 -6.5 -1.7 -6.25 L-2.55 -6.1 -3.3 -6.55 -3.6 -7.35 -3.6 -13.9 -9.7 -13.9 -9.7 14.25 -2.65 14.25 -2.65 2.6 -2.6 2.35 Q-1.95 -0.9 -0.65 -2.6 L-0.65 -2.65 Q0.9 -4.8 3.05 -4.75 4.2 -4.75 5.35 -4.05 L6.1 -3.55 9.45 -12.85 7.75 -13.85 7.75 -13.8" fill="#ffeb6f" fill-rule="evenodd" stroke="none"/>
    <path d="M7.75 -13.8 L7.75 -13.85 9.45 -12.85 6.1 -3.55 5.35 -4.05 Q4.2 -4.75 3.05 -4.75 0.9 -4.8 -0.65 -2.65 L-0.65 -2.6 Q-1.95 -0.9 -2.6 2.35 L-2.65 2.6 -2.65 14.25 -9.7 14.25 -9.7 -13.9 -3.6 -13.9 -3.6 -7.35 -3.3 -6.55 -2.55 -6.1 -1.7 -6.25 Q-1.35 -6.5 -1.15 -6.9 0.2 -10.75 2.05 -12.6 3.65 -14.25 5.55 -14.3 L7.75 -13.8" fill="url(#gradient0)" fill-rule="evenodd" stroke="none"/>
  </g>
  <defs>
    <linearGradient gradientTransform="matrix(0.0, -0.0377, 0.0242, 0.0, -20.0, -4.3)" gradientUnits="userSpaceOnUse" id="gradient0" spreadMethod="pad" x1="-819.2" x2="819.2">
      <stop offset="0.22745098039215686" stop-color="#fbb91e"/>
      <stop offset="0.611764705882353" stop-color="#ffff6d"/>
    </linearGradient>
  </defs>
</svg>
