<?xml version="1.0" encoding="UTF-8" standalone="no"?>
<svg xmlns:ffdec="https://www.free-decompiler.com/flash" xmlns:xlink="http://www.w3.org/1999/xlink" ffdec:objectType="shape" height="143.0px" width="1523.8px" xmlns="http://www.w3.org/2000/svg">
  <g transform="matrix(1.0, 0.0, 0.0, 1.0, 2.4, 71.5)">
    <path d="M1329.25 -51.3 Q1427.75 -16.55 1519.0 -51.2 L1519.0 68.7 0.5 68.7 0.5 -9.6 0.0 -9.6 0.0 -51.3 Q98.65 -86.1 190.0 -51.3 288.65 -16.5 380.0 -51.3 L380.25 -51.3 Q478.9 -86.1 570.25 -51.3 668.2 -16.75 759.0 -50.8 L759.0 -51.3 Q857.65 -86.1 949.0 -51.3 1047.65 -16.5 1139.0 -51.3 L1139.25 -51.3 Q1237.9 -86.1 1329.25 -51.3" fill="#99ff00" fill-rule="evenodd" stroke="none"/>
    <path d="M1328.25 -51.95 Q1330.7 -51.1 1333.8 -49.3 1336.9 -47.5 1339.7 -47.6 L1345.65 -47.25 Q1348.8 -46.8 1351.85 -45.05 1354.95 -43.25 1356.75 -42.8 L1361.8 -41.6 1368.25 -39.9 1374.55 -38.1 Q1377.7 -37.25 1379.55 -37.4 L1385.4 -37.5 Q1389.35 -37.4 1392.2 -36.6 1395.05 -35.75 1397.9 -35.45 1400.75 -35.1 1403.1 -34.2 1405.45 -33.3 1409.1 -33.8 L1415.6 -34.2 1421.6 -34.0 Q1424.75 -33.9 1427.85 -33.95 L1433.8 -34.05 1439.85 -34.25 1445.7 -34.45 1451.55 -35.0 1457.85 -36.0 1463.05 -36.7 1469.5 -37.55 Q1473.85 -38.2 1475.8 -38.9 L1481.55 -40.6 Q1485.3 -41.55 1488.35 -41.7 1491.4 -41.8 1493.7 -43.1 1496.05 -44.4 1498.95 -44.9 1501.85 -45.4 1504.6 -47.0 1507.35 -48.55 1509.7 -49.45 L1513.6 -50.9 1519.0 -51.2 Q1520.15 -48.95 1519.25 -45.55 L1518.0 -39.85 Q1517.65 -37.5 1518.3 -33.65 1519.0 -29.75 1518.85 -26.85 1518.75 -23.95 1519.5 -21.5 1520.25 -19.05 1519.65 -15.75 1519.05 -12.4 1519.15 -9.35 1519.25 -6.3 1518.95 -3.45 1518.7 -0.55 1518.85 3.25 L1518.95 9.45 1518.95 14.7 Q1519.0 17.6 1518.65 21.05 1518.3 24.5 1519.35 27.0 1520.4 29.5 1519.2 32.3 1518.0 35.1 1518.0 38.8 1518.0 42.5 1519.1 44.7 1520.25 46.95 1519.55 50.35 1518.9 53.8 1519.4 56.8 1519.95 59.8 1519.35 63.45 1518.8 67.1 1516.8 68.05 1514.8 69.05 1512.65 68.7 L1507.8 68.55 1501.6 68.05 1494.95 68.3 Q1491.8 69.2 1488.85 69.05 L1483.4 68.85 1477.05 68.65 1469.85 68.1 1464.25 67.85 1458.75 68.15 Q1455.65 68.35 1452.75 69.15 1449.9 70.0 1447.15 68.7 1444.4 67.4 1441.0 68.05 L1434.65 68.85 1428.85 69.0 1422.3 69.2 Q1418.65 69.4 1416.25 69.1 L1410.8 69.35 Q1407.75 69.95 1405.5 68.9 1403.25 67.9 1400.0 67.8 1396.75 67.7 1393.1 68.9 1389.45 70.15 1386.7 69.7 L1381.6 69.15 1375.05 68.85 1368.0 68.7 1362.75 68.6 1357.9 68.65 1351.05 68.8 1344.4 68.75 1338.85 69.3 Q1335.65 69.85 1332.25 69.25 L1326.1 68.65 1320.6 68.7 1314.8 69.3 1308.85 69.6 1302.35 69.0 Q1298.8 68.65 1295.95 69.0 1293.1 69.4 1290.5 69.0 1287.9 68.65 1285.4 69.0 L1279.3 69.2 1272.8 68.65 1266.75 68.35 1260.95 69.1 1255.5 69.55 1248.85 69.2 1242.4 68.7 1236.15 69.2 Q1232.45 70.05 1230.8 69.2 1229.2 68.4 1225.15 68.5 1221.15 68.65 1219.2 69.35 L1213.55 69.8 1207.15 69.45 1201.35 68.8 1194.8 68.05 1188.5 68.25 1182.95 67.95 Q1180.2 67.25 1177.05 67.95 L1170.3 68.45 1164.6 68.6 1159.15 68.8 1152.2 68.1 Q1148.7 67.55 1146.5 68.1 1144.3 68.7 1141.55 68.15 1138.85 67.6 1134.8 68.15 L1127.6 68.55 1122.25 68.55 1117.1 68.0 Q1114.25 67.35 1111.7 68.05 L1104.85 68.55 Q1100.6 68.35 1097.75 68.7 L1092.55 69.05 1087.0 68.55 1081.1 67.75 1074.45 67.55 1068.05 68.15 Q1065.6 68.65 1062.6 68.1 L1057.05 68.25 1051.0 69.45 Q1047.55 70.0 1044.75 68.75 L1039.1 68.5 Q1036.2 69.5 1033.55 69.45 L1027.4 68.85 1020.65 68.55 1015.25 68.0 1008.75 68.2 Q1004.45 69.2 1001.9 68.85 L996.65 68.6 990.65 68.55 985.1 68.1 979.0 68.3 973.05 68.75 967.35 69.0 Q963.8 69.35 960.1 69.0 L954.15 68.15 Q951.9 67.6 948.95 68.15 L943.25 68.45 Q940.5 68.2 937.3 68.45 L930.7 67.95 924.55 67.55 919.0 67.75 Q916.25 67.6 913.35 68.6 910.5 69.6 907.2 69.25 903.9 68.9 901.1 69.3 L894.85 69.15 Q891.4 68.6 888.35 69.05 L882.6 69.55 877.45 69.15 871.75 68.45 864.5 68.95 858.3 69.85 853.7 69.25 Q851.3 68.5 847.75 68.8 L841.2 69.25 834.6 69.3 828.15 69.0 822.25 68.2 Q819.15 67.65 815.85 68.15 L810.25 68.5 804.65 68.8 798.65 68.95 792.85 69.2 Q789.9 69.85 786.2 69.1 L780.0 68.6 774.35 69.05 768.8 69.35 763.15 69.05 Q759.95 68.7 756.95 69.1 L750.35 68.85 744.25 68.3 738.6 68.5 732.9 67.9 727.35 67.3 Q724.35 67.35 720.55 68.25 L714.75 69.35 709.3 68.8 703.0 68.25 697.05 68.55 691.1 68.7 685.6 68.55 679.45 68.05 672.5 67.8 666.05 68.15 660.55 68.5 655.6 69.1 Q653.25 69.65 649.85 69.15 L643.85 68.7 637.6 69.2 Q633.95 69.65 630.9 69.2 L625.0 68.75 619.0 68.7 612.75 68.3 606.7 67.9 600.3 68.5 594.8 68.85 589.7 68.1 Q586.65 67.55 583.55 68.1 580.5 68.7 576.85 68.1 573.25 67.55 571.05 68.65 568.85 69.8 565.8 69.95 L559.05 69.4 552.9 68.7 546.5 68.7 540.3 69.1 535.0 69.3 528.65 69.5 Q525.45 69.85 523.35 68.95 L517.65 69.1 510.4 69.4 504.35 67.95 Q501.85 67.25 499.1 68.0 L493.1 68.6 487.05 68.8 Q484.3 69.1 481.1 68.85 477.95 68.65 474.7 68.8 L468.0 68.4 461.55 68.0 456.15 68.45 451.1 68.75 445.15 68.2 Q441.85 67.7 439.4 68.2 L433.3 69.05 Q429.7 69.45 427.0 69.0 L420.65 68.55 413.75 68.9 408.2 69.25 402.9 68.9 397.0 68.6 391.0 68.7 384.85 68.45 Q381.8 68.25 378.25 68.45 374.7 68.7 371.85 68.35 369.05 68.05 365.85 68.35 L360.5 68.6 355.7 68.5 349.8 68.55 343.25 68.4 336.45 68.05 Q333.0 68.05 330.1 69.1 327.2 70.2 323.95 69.9 L317.9 69.1 312.15 68.7 306.55 69.0 300.9 68.5 294.85 67.85 289.55 68.3 283.0 68.05 276.3 68.45 Q273.95 69.45 270.75 69.6 267.6 69.8 264.9 68.95 262.2 68.1 259.5 68.85 L253.8 69.05 247.3 68.7 241.35 68.35 Q238.9 67.85 235.55 68.85 L229.35 69.15 223.2 68.55 217.45 68.65 210.95 67.95 Q206.9 67.25 204.6 68.3 202.35 69.35 199.1 68.8 L192.8 68.1 186.6 67.75 Q183.5 67.6 180.65 68.7 177.8 69.8 175.15 69.6 L169.9 69.05 163.6 68.75 156.75 68.3 Q153.55 67.8 150.3 68.2 147.05 68.6 144.65 69.35 L139.7 69.95 133.5 69.25 Q129.9 68.7 126.9 69.3 123.9 69.9 121.25 69.25 L115.25 68.45 108.65 68.8 Q105.4 69.35 102.75 68.85 L97.1 68.35 91.35 67.9 85.95 68.1 79.4 69.0 72.75 68.7 66.75 67.9 61.25 68.1 54.65 68.65 48.6 68.65 Q46.8 68.55 44.05 69.35 41.3 70.2 37.6 68.75 33.9 67.3 31.3 67.35 L25.25 68.15 18.85 68.75 12.85 68.2 7.0 68.05 Q4.2 68.35 1.85 67.25 -0.5 66.15 -0.3 63.1 L0.15 57.35 Q0.4 54.6 -0.15 51.7 -0.7 48.85 -0.65 45.4 -0.55 42.0 0.0 38.8 L1.0 32.85 Q1.45 30.1 0.45 27.0 -0.55 23.95 -0.4 21.45 L0.45 15.45 Q1.1 12.0 1.1 8.35 1.1 4.75 1.5 2.4 1.95 0.1 1.25 -2.7 L0.05 -7.9 Q-0.45 -10.3 -0.45 -13.85 L-0.2 -20.75 0.0 -26.6 0.0 -32.15 0.0 -38.3 Q0.05 -41.4 -0.7 -43.8 -1.4 -46.15 0.55 -48.95 2.5 -51.7 5.3 -52.95 8.15 -54.15 10.65 -55.5 13.15 -56.8 16.0 -56.9 18.9 -56.95 21.8 -58.1 L26.95 -60.15 Q29.25 -61.05 32.25 -61.45 L39.3 -62.4 Q43.35 -62.95 45.15 -64.25 46.95 -65.5 51.1 -64.85 55.25 -64.15 57.7 -65.3 60.2 -66.45 62.9 -67.4 65.65 -68.3 69.5 -68.15 L75.65 -67.5 80.5 -67.25 86.15 -68.15 92.5 -68.75 99.1 -68.8 105.45 -68.2 111.3 -68.45 Q114.15 -69.35 116.9 -68.5 119.65 -67.65 123.35 -67.35 L129.0 -66.75 134.5 -66.3 Q138.0 -66.15 140.9 -65.15 L146.3 -63.05 Q148.8 -62.0 151.5 -62.6 154.2 -63.2 157.85 -61.75 161.5 -60.25 164.5 -60.1 167.5 -59.95 169.55 -58.7 171.65 -57.45 174.55 -56.2 177.45 -54.9 181.6 -54.55 185.75 -54.15 188.5 -52.75 191.25 -51.3 193.6 -50.5 195.95 -49.65 198.9 -48.05 201.85 -46.45 204.55 -46.3 L210.15 -45.8 Q213.1 -45.45 215.85 -43.7 218.6 -41.95 221.65 -41.4 L227.45 -40.45 233.25 -39.5 239.35 -38.3 245.25 -37.55 Q248.2 -37.35 251.7 -36.05 255.2 -34.75 257.9 -35.1 260.65 -35.45 263.3 -35.15 L269.45 -34.85 274.9 -34.45 280.5 -34.1 286.9 -34.45 Q289.75 -34.7 293.55 -34.45 L299.55 -33.55 Q301.8 -32.95 304.7 -34.45 307.6 -35.95 310.6 -35.9 313.6 -35.8 316.75 -36.0 L323.0 -36.0 329.45 -36.45 Q332.8 -37.05 335.35 -38.15 337.95 -39.2 341.4 -39.7 344.85 -40.2 347.95 -41.25 L353.2 -43.2 Q355.3 -44.1 358.35 -43.9 361.45 -43.7 364.25 -45.45 367.1 -47.15 370.05 -47.2 373.0 -47.2 375.65 -48.7 378.35 -50.2 381.3 -51.45 L386.3 -53.5 Q388.3 -54.35 391.7 -54.95 L397.85 -56.15 Q400.55 -56.7 403.65 -58.05 406.75 -59.35 409.75 -59.85 L416.0 -61.05 422.55 -62.35 Q425.9 -62.95 427.45 -64.2 429.05 -65.45 432.75 -65.5 L439.8 -65.9 446.05 -66.8 452.2 -68.1 Q455.5 -68.8 457.9 -68.15 L463.65 -68.45 469.4 -68.3 Q471.9 -67.15 475.75 -67.75 L481.55 -68.95 486.9 -68.7 Q490.3 -67.8 493.35 -67.9 L499.85 -67.8 505.6 -67.3 511.4 -66.3 517.05 -65.6 522.6 -64.75 529.05 -63.3 535.05 -62.15 541.15 -60.65 Q544.4 -59.8 547.0 -58.4 549.6 -56.95 553.1 -56.05 L559.05 -54.4 563.75 -52.95 569.15 -51.4 575.15 -49.6 580.9 -47.5 Q583.8 -46.45 586.3 -45.7 L591.4 -44.1 Q594.0 -43.3 597.65 -42.8 601.3 -42.25 604.05 -41.3 606.85 -40.35 609.7 -40.35 612.6 -40.3 615.6 -38.75 618.65 -37.15 622.2 -37.4 L628.0 -36.95 Q630.25 -36.3 633.2 -36.0 L639.25 -35.4 645.3 -34.75 Q648.35 -34.4 650.65 -34.85 L656.75 -34.65 663.95 -34.45 Q667.35 -34.85 669.8 -34.45 L675.3 -33.75 681.1 -33.35 Q683.9 -33.2 687.3 -34.5 690.75 -35.8 693.5 -35.65 696.3 -35.5 699.05 -35.65 L704.9 -35.8 Q708.0 -35.85 711.55 -37.45 715.1 -39.0 717.55 -39.0 720.0 -38.95 722.3 -40.1 724.65 -41.25 728.35 -41.75 732.05 -42.25 734.95 -43.2 737.9 -44.1 740.65 -44.2 743.4 -44.3 746.95 -45.85 750.55 -47.35 752.15 -48.35 753.8 -49.3 757.15 -50.15 L763.5 -51.7 Q766.45 -52.4 768.8 -53.3 L774.25 -55.5 780.8 -57.75 786.7 -59.4 792.05 -60.2 Q795.0 -60.35 797.05 -61.75 799.15 -63.1 802.8 -63.3 L809.45 -63.6 815.35 -64.3 821.4 -65.9 Q824.45 -66.85 827.1 -66.6 L833.35 -66.9 839.25 -67.8 844.4 -69.0 Q847.25 -69.9 850.7 -69.55 L857.65 -68.35 863.35 -68.05 868.85 -68.4 875.65 -67.65 881.65 -67.35 887.8 -67.0 Q891.4 -66.45 893.65 -65.45 895.95 -64.4 899.55 -64.75 903.15 -65.05 905.8 -64.0 908.5 -62.95 911.15 -62.45 L917.2 -61.1 923.1 -59.5 927.85 -58.2 932.8 -57.05 Q935.5 -56.55 939.2 -55.1 942.9 -53.65 945.0 -52.3 947.15 -50.9 950.35 -50.85 953.55 -50.8 956.55 -49.7 L962.55 -47.25 Q965.55 -45.95 968.5 -45.1 971.5 -44.2 974.7 -44.15 977.9 -44.1 980.4 -43.3 L985.8 -41.45 991.75 -39.2 Q994.85 -38.0 997.25 -37.9 999.65 -37.8 1002.8 -37.85 1005.95 -37.85 1008.55 -36.35 1011.15 -34.85 1015.1 -35.15 1019.1 -35.4 1021.35 -35.15 L1026.35 -34.8 1032.3 -34.4 1039.0 -34.7 Q1042.4 -35.2 1045.35 -34.6 L1051.75 -33.9 1057.6 -34.1 Q1060.05 -34.35 1063.0 -35.3 1066.0 -36.2 1069.65 -35.9 L1076.25 -35.6 Q1079.2 -35.65 1081.2 -36.25 L1086.55 -37.35 1092.7 -37.8 Q1095.55 -37.75 1099.2 -39.1 1102.85 -40.45 1105.0 -40.85 1107.2 -41.2 1110.8 -42.75 1114.4 -44.25 1116.95 -44.4 1119.55 -44.55 1122.2 -45.55 L1127.65 -47.65 1133.5 -49.65 1139.4 -51.6 1144.7 -53.5 1150.6 -55.2 Q1154.0 -56.1 1156.75 -57.5 L1162.05 -59.9 Q1164.65 -60.9 1167.8 -60.95 L1173.9 -61.6 1179.75 -63.0 1184.95 -64.55 Q1187.2 -65.35 1190.6 -65.5 L1196.5 -66.0 1202.7 -67.25 1209.4 -67.75 1215.65 -67.15 Q1219.05 -66.9 1221.7 -67.1 L1227.1 -67.6 Q1229.85 -67.9 1232.45 -68.9 1235.1 -69.9 1238.8 -70.0 L1245.45 -69.35 1251.75 -68.9 Q1255.1 -69.2 1258.35 -68.8 1261.65 -68.4 1263.95 -67.65 1266.3 -66.9 1269.85 -66.55 L1275.95 -65.75 1281.35 -65.2 Q1284.15 -65.1 1286.4 -64.1 1288.65 -63.05 1293.0 -61.8 1297.35 -60.55 1299.35 -61.0 L1305.1 -60.45 Q1308.8 -59.45 1310.95 -57.6 1313.1 -55.7 1316.1 -55.5 1319.1 -55.3 1322.45 -54.05 1325.8 -52.75 1328.25 -51.95 Z" fill="none" stroke="#99ff00" stroke-linecap="round" stroke-linejoin="round" stroke-width="3.0"/>
  </g>
</svg>
