<?xml version="1.0" encoding="UTF-8" standalone="no"?>
<svg xmlns:ffdec="https://www.free-decompiler.com/flash" xmlns:xlink="http://www.w3.org/1999/xlink" ffdec:objectType="shape" height="31.7px" width="21.5px" xmlns="http://www.w3.org/2000/svg">
  <g transform="matrix(1.0, 0.0, 0.0, 1.0, 10.75, 15.85)">
    <path d="M10.6 -14.15 L10.6 -3.95 7.35 -5.45 4.95 -5.9 Q2.2 -5.9 0.55 -4.25 -1.1 -2.65 -1.1 -0.05 -1.1 2.65 0.55 4.3 2.2 5.9 4.95 5.9 L7.55 5.45 Q9.05 5.0 10.75 4.15 L10.75 14.15 6.8 15.45 3.0 15.85 Q-3.2 15.85 -6.95 11.5 -10.75 7.1 -10.75 -0.05 -10.75 -7.15 -7.0 -11.5 -3.25 -15.85 2.95 -15.85 L6.75 -15.45 10.6 -14.15 M6.45 -14.2 L6.5 -14.2 2.95 -14.6 Q-2.65 -14.6 -6.05 -10.65 -9.5 -6.65 -9.5 -0.05 -9.5 6.6 -6.0 10.7 -2.6 14.6 3.0 14.6 L6.55 14.25 9.5 13.3 9.5 6.1 7.9 6.65 4.95 7.15 Q1.65 7.15 -0.3 5.2 -2.35 3.2 -2.35 -0.05 -2.35 -3.2 -0.3 -5.15 L-0.3 -5.1 Q1.65 -7.15 4.95 -7.15 L7.8 -6.6 7.75 -6.65 9.35 -6.0 9.35 -13.3 6.45 -14.2" fill="#ffeb6f" fill-rule="evenodd" stroke="none"/>
    <path d="M6.45 -14.2 L9.35 -13.3 9.35 -6.0 7.75 -6.65 7.8 -6.6 4.95 -7.15 Q1.65 -7.15 -0.3 -5.1 L-0.3 -5.15 Q-2.35 -3.2 -2.35 -0.05 -2.35 3.2 -0.3 5.2 1.65 7.15 4.95 7.15 L7.9 6.65 9.5 6.1 9.5 13.3 6.55 14.25 3.0 14.6 Q-2.6 14.6 -6.0 10.7 -9.5 6.6 -9.5 -0.05 -9.5 -6.65 -6.05 -10.65 -2.65 -14.6 2.95 -14.6 L6.5 -14.2 6.45 -14.2" fill="url(#gradient0)" fill-rule="evenodd" stroke="none"/>
  </g>
  <defs>
    <linearGradient gradientTransform="matrix(0.0, -0.0377, 0.0242, 0.0, -40.3, -4.45)" gradientUnits="userSpaceOnUse" id="gradient0" spreadMethod="pad" x1="-819.2" x2="819.2">
      <stop offset="0.22745098039215686" stop-color="#fbb91e"/>
      <stop offset="0.611764705882353" stop-color="#ffff6d"/>
    </linearGradient>
  </defs>
</svg>
