<?xml version="1.0" encoding="UTF-8" standalone="no"?>
<svg xmlns:ffdec="https://www.free-decompiler.com/flash" xmlns:xlink="http://www.w3.org/1999/xlink" ffdec:objectType="shape" height="11.0px" width="11.0px" xmlns="http://www.w3.org/2000/svg">
  <g transform="matrix(1.0, 0.0, 0.0, 1.0, -10.35, -11.2)">
    <path d="M10.85 17.25 Q10.75 16.05 11.2 14.9 12.0 13.0 13.85 12.1 15.8 11.3 17.7 12.1 19.6 12.85 20.4 14.7 21.1 16.2 20.7 17.75 L20.5 18.45 20.45 18.55 20.45 18.65 19.9 19.6 19.7 19.8 19.6 19.95 19.55 20.0 19.1 20.45 Q19.4 19.15 18.8 17.85 18.05 16.15 16.35 15.55 14.6 14.8 12.85 15.55 11.65 16.1 10.85 17.25" fill="#ffffff" fill-rule="evenodd" stroke="none"/>
    <path d="M10.85 17.25 Q11.65 16.1 12.85 15.55 14.6 14.8 16.35 15.55 18.05 16.15 18.8 17.85 19.4 19.15 19.1 20.45 L18.25 21.1 17.9 21.2 17.8 21.25 Q17.6 21.45 17.2 21.5 L16.4 21.65 16.8 20.9 Q17.2 19.9 16.85 18.95 16.45 18.05 15.45 17.75 L13.6 17.7 Q12.65 18.1 12.3 19.05 L12.1 19.95 11.25 18.7 10.85 17.25" fill="#00ccff" fill-rule="evenodd" stroke="none"/>
    <path d="M12.1 19.95 L12.3 19.05 Q12.65 18.1 13.6 17.7 L15.45 17.75 Q16.45 18.05 16.85 18.95 17.2 19.9 16.8 20.9 L16.4 21.65 14.75 21.55 14.05 21.3 12.7 20.6 12.55 20.45 12.1 19.95" fill="#000000" fill-rule="evenodd" stroke="none"/>
    <path d="M19.9 19.6 L20.45 18.65 20.45 18.55 20.5 18.45 20.7 17.75 Q21.1 16.2 20.4 14.7 19.6 12.85 17.7 12.1 15.8 11.3 13.85 12.1 12.0 13.0 11.2 14.9 10.75 16.05 10.85 17.25 L11.25 18.7 12.1 19.95 12.3 19.05 Q12.65 18.1 13.6 17.7 L15.45 17.75 Q16.45 18.05 16.85 18.95 17.2 19.9 16.8 20.9 L16.4 21.65 17.2 21.5 Q17.6 21.45 17.8 21.25 L17.9 21.2 18.25 21.1 19.1 20.45 19.55 20.0 19.6 19.95 M16.4 21.65 L14.75 21.55 14.05 21.3 12.7 20.6 12.55 20.45 12.1 19.95" fill="none" stroke="#000000" stroke-linecap="round" stroke-linejoin="round" stroke-width="1.0"/>
  </g>
</svg>
