<?xml version="1.0" encoding="UTF-8" standalone="no"?>
<svg xmlns:ffdec="https://www.free-decompiler.com/flash" xmlns:xlink="http://www.w3.org/1999/xlink" ffdec:objectType="shape" height="31.7px" width="25.65px" xmlns="http://www.w3.org/2000/svg">
  <g transform="matrix(1.0, 0.0, 0.0, 1.0, 12.85, 15.85)">
    <path d="M7.35 -12.9 Q10.05 -10.0 10.05 -4.3 L10.05 4.2 Q10.05 6.2 10.6 6.85 11.15 7.4 12.8 7.5 L11.15 15.55 9.9 15.8 8.9 15.85 4.9 15.2 Q3.45 14.55 2.45 13.05 0.35 14.5 -1.65 15.2 L-5.8 15.85 Q-9.15 15.85 -11.0 13.95 -12.85 12.05 -12.85 8.55 -12.85 5.8 -11.45 3.8 -10.05 1.8 -7.4 0.8 L-5.05 0.0 Q-0.85 -1.4 0.85 -2.65 L0.9 -2.95 0.9 -3.5 Q0.9 -5.3 0.05 -6.05 -0.8 -6.85 -2.75 -6.85 -5.1 -6.85 -7.35 -5.7 -9.6 -4.6 -11.8 -2.35 L-11.8 -11.15 Q-9.2 -13.5 -6.4 -14.7 -3.6 -15.85 -0.6 -15.85 4.65 -15.85 7.35 -12.9 M-2.8 12.2 Q-4.5 12.2 -5.45 10.9 L-5.4 10.95 Q-6.35 9.85 -6.35 8.0 -6.45 4.9 -2.45 2.9 L0.25 1.55 1.1 1.45 1.8 1.9 2.05 2.65 2.05 3.35 2.05 3.5 2.0 4.05 2.15 6.35 2.15 6.4 2.45 9.0 2.35 9.65 1.95 10.15 Q0.3 11.35 -0.65 11.75 L-2.8 12.2 M-5.9 -13.55 Q-8.3 -12.5 -10.55 -10.55 L-10.55 -5.15 -7.9 -6.8 Q-5.4 -8.1 -2.75 -8.1 -0.2 -8.1 0.9 -6.95 2.15 -5.95 2.15 -3.5 L2.15 -2.95 2.05 -2.25 1.6 -1.65 Q-0.2 -0.3 -4.65 1.2 L-6.95 2.0 Q-9.2 2.85 -10.4 4.55 -11.6 6.2 -11.6 8.55 -11.6 11.45 -10.1 13.1 -8.55 14.6 -5.8 14.6 L-2.0 14.0 -2.05 14.05 Q-0.2 13.35 1.75 12.05 L2.7 11.85 Q3.2 11.9 3.5 12.35 4.3 13.55 5.4 14.05 L8.9 14.6 9.8 14.55 10.1 14.5 11.3 8.55 Q10.2 8.3 9.75 7.75 L9.65 7.65 Q8.8 6.85 8.8 4.2 L8.8 -4.3 Q8.8 -9.4 6.45 -12.05 4.05 -14.6 -0.6 -14.6 -3.35 -14.6 -5.9 -13.55 M-2.8 10.95 L-1.15 10.6 Q-0.3 10.25 1.2 9.15 L0.9 6.5 0.75 4.05 0.8 3.35 0.8 2.65 -1.9 4.0 Q-5.1 5.6 -5.1 8.0 -5.1 9.35 -4.45 10.15 -3.85 10.95 -2.8 10.95" fill="#ffeb6f" fill-rule="evenodd" stroke="none"/>
    <path d="M-5.9 -13.55 Q-3.35 -14.6 -0.6 -14.6 4.05 -14.6 6.45 -12.05 8.8 -9.4 8.8 -4.3 L8.8 4.2 Q8.8 6.85 9.65 7.65 L9.75 7.75 Q10.2 8.3 11.3 8.55 L10.1 14.5 9.8 14.55 8.9 14.6 5.4 14.05 Q4.3 13.55 3.5 12.35 3.2 11.9 2.7 11.85 L1.75 12.05 Q-0.2 13.35 -2.05 14.05 L-2.0 14.0 -5.8 14.6 Q-8.55 14.6 -10.1 13.1 -11.6 11.45 -11.6 8.55 -11.6 6.2 -10.4 4.55 -9.2 2.85 -6.95 2.0 L-4.65 1.2 Q-0.2 -0.3 1.6 -1.65 L2.05 -2.25 2.15 -2.95 2.15 -3.5 Q2.15 -5.95 0.9 -6.95 -0.2 -8.1 -2.75 -8.1 -5.4 -8.1 -7.9 -6.8 L-10.55 -5.15 -10.55 -10.55 Q-8.3 -12.5 -5.9 -13.55 M-2.8 12.2 L-0.65 11.75 Q0.3 11.35 1.95 10.15 L2.35 9.65 2.45 9.0 2.15 6.4 2.15 6.35 2.0 4.05 2.05 3.5 2.05 3.35 2.05 2.65 1.8 1.9 1.1 1.45 0.25 1.55 -2.45 2.9 Q-6.45 4.9 -6.35 8.0 -6.35 9.85 -5.4 10.95 L-5.45 10.9 Q-4.5 12.2 -2.8 12.2" fill="url(#gradient0)" fill-rule="evenodd" stroke="none"/>
  </g>
  <defs>
    <linearGradient gradientTransform="matrix(0.0, -0.0377, 0.0242, 0.0, -65.25, -4.45)" gradientUnits="userSpaceOnUse" id="gradient0" spreadMethod="pad" x1="-819.2" x2="819.2">
      <stop offset="0.22745098039215686" stop-color="#fbb91e"/>
      <stop offset="0.611764705882353" stop-color="#ffff6d"/>
    </linearGradient>
  </defs>
</svg>
