<?xml version="1.0" encoding="UTF-8" standalone="no"?>
<svg xmlns:ffdec="https://www.free-decompiler.com/flash" xmlns:xlink="http://www.w3.org/1999/xlink" ffdec:objectType="shape" height="40.2px" width="27.5px" xmlns="http://www.w3.org/2000/svg">
  <g transform="matrix(1.0, 0.0, 0.0, 1.0, 13.75, 20.1)">
    <path d="M0.65 -9.6 Q-0.7 -10.3 -2.4 -10.3 -6.7 -10.3 -9.55 -6.35 L-9.5 -6.35 Q-12.5 -2.15 -12.5 4.4 -12.5 10.95 -9.65 15.05 -6.95 18.8 -2.8 18.85 -1.2 18.85 0.25 18.2 1.8 17.5 3.4 16.05 3.75 15.7 4.3 15.7 4.8 15.7 5.15 16.1 5.5 16.45 5.5 16.95 L5.5 18.3 12.5 18.3 12.5 -18.85 5.5 -18.85 5.5 -8.15 5.3 -7.4 4.7 -6.95 3.95 -6.95 Q3.55 -7.05 3.3 -7.35 2.0 -8.9 0.65 -9.65 L0.65 -9.6 M1.2 -10.75 Q2.8 -9.9 4.25 -8.15 L4.25 -20.1 13.75 -20.1 13.75 19.55 4.25 19.55 4.25 16.95 Q2.45 18.6 0.75 19.35 -0.95 20.1 -2.8 20.1 -7.6 20.1 -10.7 15.75 -13.75 11.4 -13.75 4.4 -13.75 -2.6 -10.55 -7.1 -7.3 -11.55 -2.4 -11.55 -0.4 -11.55 1.2 -10.75 M5.35 -1.25 L5.5 -0.65 5.5 9.3 5.35 9.95 4.9 10.4 2.9 11.35 2.85 11.35 0.7 11.7 Q-2.15 11.7 -3.8 9.6 -5.45 7.65 -5.45 4.35 -5.45 0.9 -3.75 -0.9 L-3.7 -0.95 Q-2.05 -2.9 1.1 -2.9 L3.1 -2.6 Q4.05 -2.3 4.95 -1.7 L5.35 -1.25 M4.25 -0.65 L2.7 -1.4 1.1 -1.65 Q-1.45 -1.65 -2.8 -0.1 -4.2 1.45 -4.2 4.35 -4.2 7.15 -2.85 8.8 -1.55 10.45 0.7 10.45 L2.45 10.15 4.25 9.3 4.25 -0.65" fill="#ffeb6f" fill-rule="evenodd" stroke="none"/>
    <path d="M0.65 -9.6 L0.65 -9.65 Q2.0 -8.9 3.3 -7.35 3.55 -7.05 3.95 -6.95 L4.7 -6.95 5.3 -7.4 5.5 -8.15 5.5 -18.85 12.5 -18.85 12.5 18.3 5.5 18.3 5.5 16.95 Q5.5 16.45 5.15 16.1 4.8 15.7 4.3 15.7 3.75 15.7 3.4 16.05 1.8 17.5 0.25 18.2 -1.2 18.85 -2.8 18.85 -6.95 18.8 -9.65 15.05 -12.5 10.95 -12.5 4.4 -12.5 -2.15 -9.5 -6.35 L-9.55 -6.35 Q-6.7 -10.3 -2.4 -10.3 -0.7 -10.3 0.65 -9.6 M5.35 -1.25 L4.95 -1.7 Q4.05 -2.3 3.1 -2.6 L1.1 -2.9 Q-2.05 -2.9 -3.7 -0.95 L-3.75 -0.9 Q-5.45 0.9 -5.45 4.35 -5.45 7.65 -3.8 9.6 -2.15 11.7 0.7 11.7 L2.85 11.35 2.9 11.35 4.9 10.4 5.35 9.95 5.5 9.3 5.5 -0.65 5.35 -1.25" fill="url(#gradient0)" fill-rule="evenodd" stroke="none"/>
  </g>
  <defs>
    <linearGradient gradientTransform="matrix(0.0, -0.0377, 0.0242, 0.0, -91.45, -0.2)" gradientUnits="userSpaceOnUse" id="gradient0" spreadMethod="pad" x1="-819.2" x2="819.2">
      <stop offset="0.22745098039215686" stop-color="#fbb91e"/>
      <stop offset="0.611764705882353" stop-color="#ffff6d"/>
    </linearGradient>
  </defs>
</svg>
