<?xml version="1.0" encoding="UTF-8" standalone="no"?>
<svg xmlns:ffdec="https://www.free-decompiler.com/flash" xmlns:xlink="http://www.w3.org/1999/xlink" ffdec:objectType="shape" height="31.7px" width="24.75px" xmlns="http://www.w3.org/2000/svg">
  <g transform="matrix(1.0, 0.0, 0.0, 1.0, 12.35, 15.85)">
    <path d="M12.25 0.15 L12.25 1.1 12.2 1.65 -3.0 1.65 Q-2.65 4.95 -1.0 6.75 0.65 8.55 3.4 8.55 5.05 8.55 6.65 7.75 8.25 6.95 10.45 4.95 L12.4 9.95 Q10.0 13.0 7.2 14.4 4.35 15.85 0.85 15.85 -4.95 15.85 -8.65 11.4 -12.35 6.95 -12.35 -0.15 -12.35 -7.0 -8.8 -11.4 -5.25 -15.85 0.25 -15.85 5.75 -15.85 9.0 -11.55 12.25 -7.2 12.25 0.15 M11.0 0.15 Q11.0 -6.7 8.0 -10.8 5.1 -14.6 0.25 -14.6 -4.65 -14.6 -7.8 -10.6 -11.1 -6.5 -11.1 -0.15 -11.1 6.45 -7.7 10.6 -4.35 14.6 0.85 14.6 4.05 14.6 6.65 13.3 8.95 12.1 11.0 9.75 L9.95 7.05 7.2 8.9 Q5.35 9.8 3.4 9.8 0.05 9.8 -1.9 7.6 -3.85 5.55 -4.25 1.8 L-4.1 1.1 -3.65 0.6 -3.0 0.4 11.0 0.4 11.0 0.15 M-2.35 -7.3 Q-3.2 -5.85 -3.2 -3.05 L-3.2 -2.2 3.65 -2.2 3.65 -2.7 3.7 -3.15 Q3.7 -5.85 2.8 -7.3 1.9 -8.75 0.25 -8.75 -1.5 -8.75 -2.35 -7.3 M-3.4 -7.9 Q-2.2 -10.0 0.25 -10.0 2.6 -10.0 3.85 -7.95 4.95 -6.3 4.95 -3.15 L4.9 -2.65 4.9 -2.2 Q4.9 -1.7 4.55 -1.3 4.15 -0.95 3.65 -0.95 L-3.2 -0.95 Q-3.7 -0.95 -4.05 -1.3 -4.45 -1.7 -4.45 -2.2 L-4.45 -3.05 Q-4.45 -6.25 -3.4 -7.9" fill="#ffeb6f" fill-rule="evenodd" stroke="none"/>
    <path d="M11.0 0.15 L11.0 0.4 -3.0 0.4 -3.65 0.6 -4.1 1.1 -4.25 1.8 Q-3.85 5.55 -1.9 7.6 0.05 9.8 3.4 9.8 5.35 9.8 7.2 8.9 L9.95 7.05 11.0 9.75 Q8.95 12.1 6.65 13.3 4.05 14.6 0.85 14.6 -4.35 14.6 -7.7 10.6 -11.1 6.45 -11.1 -0.15 -11.1 -6.5 -7.8 -10.6 -4.65 -14.6 0.25 -14.6 5.1 -14.6 8.0 -10.8 11.0 -6.7 11.0 0.15 M-3.4 -7.9 Q-4.45 -6.25 -4.45 -3.05 L-4.45 -2.2 Q-4.45 -1.7 -4.05 -1.3 -3.7 -0.95 -3.2 -0.95 L3.65 -0.95 Q4.15 -0.95 4.55 -1.3 4.9 -1.7 4.9 -2.2 L4.9 -2.65 4.95 -3.15 Q4.95 -6.3 3.85 -7.95 2.6 -10.0 0.25 -10.0 -2.2 -10.0 -3.4 -7.9" fill="url(#gradient0)" fill-rule="evenodd" stroke="none"/>
  </g>
  <defs>
    <linearGradient gradientTransform="matrix(0.0, -0.0377, 0.0242, 0.0, -119.45, -4.45)" gradientUnits="userSpaceOnUse" id="gradient0" spreadMethod="pad" x1="-819.2" x2="819.2">
      <stop offset="0.22745098039215686" stop-color="#fbb91e"/>
      <stop offset="0.611764705882353" stop-color="#ffff6d"/>
    </linearGradient>
  </defs>
</svg>
