<?xml version="1.0" encoding="UTF-8" standalone="no"?>
<svg xmlns:ffdec="https://www.free-decompiler.com/flash" xmlns:xlink="http://www.w3.org/1999/xlink" ffdec:objectType="shape" height="39.65px" width="30.25px" xmlns="http://www.w3.org/2000/svg">
  <g transform="matrix(1.0, 0.0, 0.0, 1.0, 15.1, 19.85)">
    <path d="M-15.1 -19.85 L15.15 -19.85 15.15 -9.6 5.45 -9.6 5.45 19.8 -5.4 19.8 -5.4 -9.6 -15.1 -9.6 -15.1 -19.85 M-13.85 -18.6 L-13.85 -10.85 -5.4 -10.85 Q-4.9 -10.85 -4.5 -10.45 -4.15 -10.1 -4.15 -9.6 L-4.15 18.55 4.2 18.55 4.2 -9.6 4.6 -10.45 Q4.95 -10.85 5.45 -10.85 L13.9 -10.85 13.9 -18.6 -13.85 -18.6" fill="#ffeb6f" fill-rule="evenodd" stroke="none"/>
    <path d="M-13.85 -18.6 L13.9 -18.6 13.9 -10.85 5.45 -10.85 Q4.95 -10.85 4.6 -10.45 L4.2 -9.6 4.2 18.55 -4.15 18.55 -4.15 -9.6 Q-4.15 -10.1 -4.5 -10.45 -4.9 -10.85 -5.4 -10.85 L-13.85 -10.85 -13.85 -18.6" fill="url(#gradient0)" fill-rule="evenodd" stroke="none"/>
  </g>
  <defs>
    <linearGradient gradientTransform="matrix(0.0, -0.0185, 0.0242, 0.0, 0.0, -0.05)" gradientUnits="userSpaceOnUse" id="gradient0" spreadMethod="pad" x1="-819.2" x2="819.2">
      <stop offset="0.1450980392156863" stop-color="#fe8e07"/>
      <stop offset="0.5254901960784314" stop-color="#fec925"/>
    </linearGradient>
  </defs>
</svg>
