<?xml version="1.0" encoding="UTF-8" standalone="no"?>
<svg xmlns:ffdec="https://www.free-decompiler.com/flash" xmlns:xlink="http://www.w3.org/1999/xlink" ffdec:objectType="shape" height="31.65px" width="27.55px" xmlns="http://www.w3.org/2000/svg">
  <g transform="matrix(1.0, 0.0, 0.0, 1.0, 13.75, 15.85)">
    <path d="M13.8 -0.05 Q13.8 7.1 10.05 11.5 6.25 15.8 0.05 15.8 -6.2 15.8 -10.0 11.5 -13.75 7.1 -13.75 -0.05 -13.75 -7.15 -10.0 -11.5 -6.2 -15.85 0.05 -15.85 6.3 -15.85 10.05 -11.5 13.8 -7.15 13.8 -0.05 M4.05 -5.1 Q5.4 -3.2 5.4 -0.05 5.4 3.15 4.05 5.1 L4.05 5.15 Q2.5 7.35 0.05 7.3 -2.45 7.35 -3.95 5.15 L-3.95 5.1 Q-5.35 3.15 -5.35 -0.05 -5.35 -3.2 -3.95 -5.1 -2.45 -7.35 0.05 -7.3 2.55 -7.3 4.05 -5.1 M9.15 10.7 Q12.55 6.6 12.55 -0.05 12.55 -6.65 9.1 -10.65 5.7 -14.6 0.05 -14.6 -5.6 -14.6 -9.05 -10.65 -12.5 -6.65 -12.5 -0.05 -12.5 6.6 -9.05 10.7 -5.6 14.55 0.05 14.55 5.65 14.55 9.1 10.7 L9.15 10.7 M-4.1 -0.05 Q-4.1 2.7 -2.95 4.4 -1.8 6.05 0.05 6.05 1.85 6.05 3.0 4.4 4.15 2.7 4.15 -0.05 4.15 -2.75 3.0 -4.4 1.9 -6.05 0.05 -6.05 -1.8 -6.05 -2.95 -4.4 -4.1 -2.75 -4.1 -0.05" fill="#ffeb6f" fill-rule="evenodd" stroke="none"/>
    <path d="M9.15 10.7 L9.1 10.7 Q5.65 14.55 0.05 14.55 -5.6 14.55 -9.05 10.7 -12.5 6.6 -12.5 -0.05 -12.5 -6.65 -9.05 -10.65 -5.6 -14.6 0.05 -14.6 5.7 -14.6 9.1 -10.65 12.55 -6.65 12.55 -0.05 12.55 6.6 9.15 10.7 M4.05 -5.1 Q2.55 -7.3 0.05 -7.3 -2.45 -7.35 -3.95 -5.1 -5.35 -3.2 -5.35 -0.05 -5.35 3.15 -3.95 5.1 L-3.95 5.15 Q-2.45 7.35 0.05 7.3 2.5 7.35 4.05 5.15 L4.05 5.1 Q5.4 3.15 5.4 -0.05 5.4 -3.2 4.05 -5.1" fill="url(#gradient0)" fill-rule="evenodd" stroke="none"/>
  </g>
  <defs>
    <linearGradient gradientTransform="matrix(0.0, -0.0185, 0.0242, 0.0, -24.4, -4.55)" gradientUnits="userSpaceOnUse" id="gradient0" spreadMethod="pad" x1="-819.2" x2="819.2">
      <stop offset="0.1450980392156863" stop-color="#fe8e07"/>
      <stop offset="0.5254901960784314" stop-color="#fec925"/>
    </linearGradient>
  </defs>
</svg>
