<?xml version="1.0" encoding="UTF-8" standalone="no"?>
<svg xmlns:ffdec="https://www.free-decompiler.com/flash" xmlns:xlink="http://www.w3.org/1999/xlink" ffdec:objectType="shape" height="30.65px" width="41.15px" xmlns="http://www.w3.org/2000/svg">
  <g transform="matrix(1.0, 0.0, 0.0, 1.0, 20.55, 15.35)">
    <path d="M-11.85 -14.1 L-18.9 -14.1 -10.9 14.05 -5.85 14.05 -1.2 -1.6 -0.75 -2.25 0.0 -2.5 0.75 -2.25 1.2 -1.6 5.75 14.05 11.05 14.05 18.95 -14.1 12.15 -14.1 8.6 -0.05 8.2 0.65 7.45 0.9 6.65 0.65 6.2 0.0 2.2 -14.1 -1.95 -14.1 -6.15 -0.25 -6.6 0.45 -7.35 0.65 -8.1 0.4 -8.55 -0.3 -11.85 -14.1 M-10.85 -15.35 L-7.35 -0.6 -2.9 -15.35 3.15 -15.35 7.4 -0.35 11.2 -15.35 20.6 -15.35 12.0 15.3 4.8 15.3 0.0 -1.25 -4.95 15.3 -11.85 15.3 -20.55 -15.35 -10.85 -15.35" fill="#ffeb6f" fill-rule="evenodd" stroke="none"/>
    <path d="M-11.85 -14.1 L-8.55 -0.3 -8.1 0.4 -7.35 0.65 -6.6 0.45 -6.15 -0.25 -1.95 -14.1 2.2 -14.1 6.2 0.0 6.65 0.65 7.45 0.9 8.2 0.65 8.6 -0.05 12.15 -14.1 18.95 -14.1 11.05 14.05 5.75 14.05 1.2 -1.6 0.75 -2.25 0.0 -2.5 -0.75 -2.25 -1.2 -1.6 -5.85 14.05 -10.9 14.05 -18.9 -14.1 -11.85 -14.1" fill="url(#gradient0)" fill-rule="evenodd" stroke="none"/>
  </g>
  <defs>
    <linearGradient gradientTransform="matrix(0.0, -0.0185, 0.0242, 0.0, -58.1, -4.55)" gradientUnits="userSpaceOnUse" id="gradient0" spreadMethod="pad" x1="-819.2" x2="819.2">
      <stop offset="0.1450980392156863" stop-color="#fe8e07"/>
      <stop offset="0.5254901960784314" stop-color="#fec925"/>
    </linearGradient>
  </defs>
</svg>
