<?xml version="1.0" encoding="UTF-8" standalone="no"?>
<svg xmlns:ffdec="https://www.free-decompiler.com/flash" xmlns:xlink="http://www.w3.org/1999/xlink" ffdec:objectType="shape" height="31.15px" width="25.1px" xmlns="http://www.w3.org/2000/svg">
  <g transform="matrix(1.0, 0.0, 0.0, 1.0, 12.55, 15.6)">
    <path d="M-3.1 -11.4 Q-1.4 -13.6 0.45 -14.6 2.25 -15.6 4.55 -15.6 8.5 -15.6 10.55 -12.85 12.55 -10.05 12.55 -4.7 L12.55 15.55 3.1 15.55 3.1 -1.9 Q3.1 -3.9 2.5 -4.75 1.9 -5.65 0.55 -5.65 -0.7 -5.65 -1.55 -4.9 -2.5 -4.1 -3.1 -2.55 L-3.1 15.55 -12.55 15.55 -12.55 -15.1 -3.1 -15.1 -3.1 -11.4 M-4.35 -11.4 L-4.35 -13.85 -11.3 -13.85 -11.3 14.3 -4.35 14.3 -4.35 -2.55 -4.25 -3.0 Q-3.55 -4.85 -2.35 -5.8 L-2.35 -5.85 Q-1.2 -6.9 0.55 -6.9 2.65 -6.9 3.55 -5.45 4.35 -4.4 4.35 -1.9 L4.35 14.3 11.3 14.3 11.3 -4.7 Q11.3 -9.55 9.55 -12.1 7.8 -14.35 4.55 -14.35 2.6 -14.35 1.05 -13.5 -0.6 -12.6 -2.1 -10.6 -2.35 -10.3 -2.75 -10.2 L-3.5 -10.2 Q-3.9 -10.35 -4.1 -10.65 L-4.35 -11.4" fill="#ffeb6f" fill-rule="evenodd" stroke="none"/>
    <path d="M-4.35 -11.4 L-4.1 -10.65 Q-3.9 -10.35 -3.5 -10.2 L-2.75 -10.2 Q-2.35 -10.3 -2.1 -10.6 -0.6 -12.6 1.05 -13.5 2.6 -14.35 4.55 -14.35 7.8 -14.35 9.55 -12.1 11.3 -9.55 11.3 -4.7 L11.3 14.3 4.35 14.3 4.35 -1.9 Q4.35 -4.4 3.55 -5.45 2.65 -6.9 0.55 -6.9 -1.2 -6.9 -2.35 -5.85 L-2.35 -5.8 Q-3.55 -4.85 -4.25 -3.0 L-4.35 -2.55 -4.35 14.3 -11.3 14.3 -11.3 -13.85 -4.35 -13.85 -4.35 -11.4" fill="url(#gradient0)" fill-rule="evenodd" stroke="none"/>
  </g>
  <defs>
    <linearGradient gradientTransform="matrix(0.0, -0.0185, 0.0242, 0.0, -91.75, -4.3)" gradientUnits="userSpaceOnUse" id="gradient0" spreadMethod="pad" x1="-819.2" x2="819.2">
      <stop offset="0.1450980392156863" stop-color="#fe8e07"/>
      <stop offset="0.5254901960784314" stop-color="#fec925"/>
    </linearGradient>
  </defs>
</svg>
