<?xml version="1.0" encoding="UTF-8" standalone="no"?>
<svg xmlns:ffdec="https://www.free-decompiler.com/flash" xmlns:xlink="http://www.w3.org/1999/xlink" ffdec:objectType="shape" height="41.3px" width="51.8px" xmlns="http://www.w3.org/2000/svg">
  <g transform="matrix(1.0, 0.0, 0.0, 1.0, 25.2, 8.4)">
    <path d="M11.05 26.9 L13.6 26.7 11.15 31.9 11.05 26.9 11.15 31.9 8.75 26.8 11.05 26.9" fill="#ffcc00" fill-rule="evenodd" stroke="none"/>
    <path d="M20.15 19.05 L20.05 19.3 19.45 20.25 18.65 20.9 18.2 21.15 18.35 20.3 Q18.3 19.25 17.55 18.6 16.85 17.85 15.85 17.95 14.75 17.95 14.05 18.65 13.35 19.45 13.4 20.45 L13.55 21.3 12.8 20.9 12.75 20.85 12.55 20.65 12.35 20.55 11.45 19.35 Q11.6 17.95 12.6 16.95 13.85 15.6 15.75 15.55 17.6 15.45 19.0 16.75 20.0 17.75 20.15 19.05" fill="#00ccff" fill-rule="evenodd" stroke="none"/>
    <path d="M18.2 21.15 Q17.2 21.8 15.95 21.8 L13.55 21.3 13.4 20.45 Q13.35 19.45 14.05 18.65 14.75 17.95 15.85 17.95 16.85 17.85 17.55 18.6 18.3 19.25 18.35 20.3 L18.2 21.15" fill="#000000" fill-rule="evenodd" stroke="none"/>
    <path d="M11.45 19.35 L11.15 18.75 11.0 18.15 10.85 17.75 10.85 17.0 10.8 16.95 Q10.75 14.95 12.15 13.45 13.5 11.95 15.6 11.9 17.7 11.8 19.2 13.15 20.65 14.6 20.7 16.7 L20.65 17.1 20.3 18.65 20.15 19.05 Q20.0 17.75 19.0 16.75 17.6 15.45 15.75 15.55 13.85 15.6 12.6 16.95 11.6 17.95 11.45 19.35" fill="#ffffff" fill-rule="evenodd" stroke="none"/>
    <path d="M11.15 31.9 L13.6 26.7 Q17.45 25.9 20.45 23.2 L21.45 22.3 Q25.75 17.85 25.6 11.65 25.4 5.5 20.85 1.2 16.45 -3.05 10.25 -2.9 7.8 -2.85 5.75 -2.05 L5.15 -2.65 Q-0.05 -7.6 -7.25 -7.4 -14.5 -7.2 -19.45 -1.95 -23.5 2.3 -24.1 8.05 L-24.15 9.25 -24.15 10.45 Q-24.0 17.65 -18.8 22.65 -13.6 27.5 -6.3 27.35 -1.45 27.25 2.3 24.95 L2.7 24.7 Q5.4 26.45 8.75 26.8 L11.15 31.9" fill="none" stroke="#000000" stroke-linecap="round" stroke-linejoin="round" stroke-width="2.0"/>
    <path d="M11.45 19.35 L11.15 18.75 11.0 18.15 10.85 17.75 10.85 17.0 10.8 16.95 Q10.75 14.95 12.15 13.45 13.5 11.95 15.6 11.9 17.7 11.8 19.2 13.15 20.65 14.6 20.7 16.7 L20.65 17.1 20.3 18.65 20.15 19.05 20.05 19.3 19.45 20.25 18.65 20.9 18.2 21.15 Q17.2 21.8 15.95 21.8 L13.55 21.3 12.8 20.9 12.75 20.85 12.55 20.65 12.35 20.55 11.45 19.35 M13.55 21.3 L13.4 20.45 Q13.35 19.45 14.05 18.65 14.75 17.95 15.85 17.95 16.85 17.85 17.55 18.6 18.3 19.25 18.35 20.3 L18.2 21.15 M13.6 26.7 L11.05 26.9 11.15 31.9 M8.75 26.8 L11.05 26.9" fill="none" stroke="#000000" stroke-linecap="round" stroke-linejoin="round" stroke-width="1.0"/>
  </g>
</svg>
