<?xml version="1.0" encoding="UTF-8" standalone="no"?>
<svg xmlns:ffdec="https://www.free-decompiler.com/flash" xmlns:xlink="http://www.w3.org/1999/xlink" ffdec:objectType="shape" height="43.2px" width="283.5px" xmlns="http://www.w3.org/2000/svg">
  <g transform="matrix(1.0, 0.0, 0.0, 1.0, 0.0, 0.0)">
    <path d="M161.1 1.5 Q161.1 0.9 161.55 0.45 162.0 0.0 162.6 0.0 L192.85 0.0 Q193.45 0.0 193.9 0.45 194.35 0.9 194.35 1.5 L194.35 10.55 Q197.7 8.5 202.15 8.5 L206.1 8.95 Q210.35 9.95 213.3 13.4 214.5 14.8 215.4 16.5 L213.8 10.9 Q213.65 10.45 213.85 10.0 L214.4 9.3 Q214.75 9.0 215.25 9.0 L224.95 9.0 Q225.45 9.0 225.9 9.35 L226.4 10.15 228.65 19.55 231.5 10.1 Q231.6 9.6 232.0 9.3 232.4 9.0 232.9 9.0 L238.95 9.0 Q239.45 9.0 239.85 9.3 L240.4 10.1 243.15 19.7 245.55 10.15 Q245.65 9.65 246.1 9.35 L246.3 9.2 247.0 9.0 256.4 9.0 256.65 9.05 256.9 9.0 266.35 9.0 Q266.95 9.0 267.4 9.45 267.85 9.9 267.85 10.5 L267.85 10.55 269.2 9.7 Q270.0 9.25 270.95 8.95 L274.0 8.5 Q276.05 8.5 277.7 9.15 279.8 9.95 281.2 11.85 L281.25 11.9 Q282.65 13.8 283.2 16.85 L283.5 20.9 283.5 41.15 283.05 42.2 Q282.6 42.65 282.0 42.65 L272.55 42.65 Q271.95 42.65 271.5 42.2 271.05 41.75 271.05 41.15 L271.05 23.7 Q271.05 22.3 270.75 21.75 L270.7 21.7 Q270.45 21.45 270.0 21.45 269.35 21.45 268.9 21.85 268.25 22.4 267.85 23.35 L267.85 41.15 267.4 42.2 Q266.95 42.65 266.35 42.65 L256.9 42.65 Q256.3 42.65 255.85 42.2 255.4 41.75 255.4 41.15 L255.4 19.65 249.25 41.55 248.7 42.35 247.8 42.65 240.6 42.65 239.7 42.35 239.15 41.6 235.8 29.9 232.3 41.6 231.75 42.35 230.85 42.65 223.95 42.65 223.05 42.35 Q222.65 42.05 222.5 41.55 L217.25 23.05 217.4 25.8 Q217.4 32.0 214.8 36.3 L213.3 38.35 Q209.05 43.15 202.15 43.15 195.2 43.15 191.0 38.35 L190.95 38.35 Q186.85 33.55 186.85 25.8 186.85 18.1 191.0 13.4 L191.1 13.25 184.65 13.25 184.65 41.15 Q184.65 41.75 184.2 42.2 L183.15 42.65 172.3 42.65 Q171.7 42.65 171.25 42.2 170.8 41.75 170.8 41.15 L170.8 13.25 162.6 13.25 Q162.0 13.25 161.55 12.8 161.1 12.35 161.1 11.75 L161.1 1.5 M161.95 13.4 Q165.5 18.1 165.5 26.0 L165.5 26.95 165.5 27.2 165.45 27.5 165.0 28.55 Q164.55 29.0 163.95 29.0 L150.55 29.0 Q150.95 30.55 151.85 31.6 153.1 32.9 155.15 32.9 156.45 32.9 157.75 32.25 L161.2 29.7 Q161.55 29.35 162.05 29.3 162.55 29.25 163.0 29.55 L163.6 30.25 165.55 35.25 165.65 36.05 165.35 36.75 Q162.7 40.05 159.65 41.6 156.45 43.2 152.6 43.2 146.1 43.2 141.95 38.2 140.0 35.9 139.0 32.95 L139.0 41.2 138.55 42.2 Q138.1 42.65 137.5 42.65 L128.0 42.65 Q127.4 42.65 126.95 42.2 L126.55 41.55 125.1 42.35 Q123.1 43.2 120.95 43.2 115.4 43.25 111.85 38.25 L111.85 38.2 111.15 37.1 110.2 41.7 109.8 42.45 109.05 42.9 107.75 43.15 107.6 43.15 106.45 43.2 Q103.55 43.2 101.85 42.45 100.65 41.9 99.7 40.9 98.0 41.9 96.4 42.5 L96.35 42.5 91.75 43.2 Q87.7 43.2 85.5 40.85 L84.85 40.15 84.6 40.85 83.95 41.4 79.75 42.75 79.7 42.8 75.6 43.2 Q68.7 43.2 64.55 38.35 60.35 33.55 60.35 25.8 L60.4 24.75 60.35 24.8 Q60.15 25.3 59.75 25.6 L58.75 25.8 57.9 25.35 56.35 24.05 56.25 24.0 Q55.8 23.7 55.35 23.7 54.5 23.75 53.9 24.7 L53.85 24.7 Q52.9 26.0 52.4 28.5 L52.4 41.2 Q52.4 41.8 51.95 42.25 51.5 42.7 50.9 42.7 L30.7 42.7 Q30.2 42.7 29.8 42.4 29.4 42.1 29.3 41.65 L27.55 35.9 15.65 35.9 13.8 41.65 13.25 42.4 12.35 42.7 1.5 42.7 0.6 42.4 0.05 41.65 Q-0.1 41.15 0.1 40.7 L14.6 1.05 Q14.75 0.6 15.15 0.35 15.55 0.05 16.0 0.05 L27.35 0.05 Q27.85 0.05 28.25 0.35 L28.8 1.05 39.85 32.1 39.85 10.55 Q39.85 9.95 40.3 9.5 40.75 9.05 41.35 9.05 L49.95 9.05 Q50.55 9.05 51.0 9.5 51.45 9.95 51.45 10.55 L51.45 12.25 52.4 11.15 Q54.85 8.6 57.85 8.65 59.35 8.65 61.05 9.3 L61.1 9.35 Q62.55 9.95 64.15 11.15 L64.7 11.95 64.65 12.85 64.45 13.4 64.5 13.4 Q68.65 8.5 75.55 8.5 L79.65 8.95 79.7 8.95 Q81.65 9.4 83.8 10.35 L84.45 10.9 84.7 11.7 84.7 13.65 84.75 13.6 Q87.55 11.05 90.55 9.8 L90.6 9.8 Q93.65 8.5 96.95 8.5 102.95 8.5 106.0 11.95 108.8 14.85 109.1 20.35 109.9 16.5 112.0 13.65 115.7 8.5 121.35 8.55 123.75 8.55 125.65 9.5 L125.65 9.55 126.5 10.05 126.5 1.5 Q126.5 0.9 126.95 0.45 127.4 0.0 128.0 0.0 L137.5 0.0 Q138.1 0.0 138.55 0.45 139.0 0.9 139.0 1.5 L139.0 18.55 Q139.95 15.7 141.8 13.5 L141.8 13.55 Q145.8 8.5 152.0 8.5 158.25 8.5 161.95 13.4 M198.0 25.8 Q198.0 23.1 199.15 21.45 200.3 19.8 202.15 19.8 204.0 19.8 205.1 21.45 206.25 23.1 206.25 25.8 206.25 28.55 205.1 30.25 203.95 31.9 202.15 31.9 200.3 31.9 199.15 30.25 198.0 28.55 198.0 25.8 M215.9 25.8 Q215.9 18.7 212.15 14.35 208.4 10.0 202.15 10.0 195.9 10.0 192.1 14.35 188.35 18.7 188.35 25.8 188.35 32.95 192.1 37.35 195.9 41.65 202.15 41.65 208.35 41.65 212.15 37.35 215.9 32.95 215.9 25.8 M266.35 10.5 L256.9 10.5 256.9 41.15 266.35 41.15 266.35 23.05 Q266.95 21.5 267.9 20.7 268.75 19.95 270.0 19.95 271.35 19.95 271.95 20.85 272.55 21.7 272.55 23.7 L272.55 41.15 282.0 41.15 282.0 20.9 Q282.0 15.55 280.0 12.75 277.95 10.0 274.0 10.0 271.7 10.0 269.9 11.0 268.05 12.0 266.35 14.2 L266.35 10.5 M224.95 10.5 L215.25 10.5 223.95 41.15 230.85 41.15 235.8 24.6 240.6 41.15 247.8 41.15 256.4 10.5 247.0 10.5 243.2 25.5 238.95 10.5 232.9 10.5 228.45 25.25 224.95 10.5 M162.6 1.5 L162.6 11.75 172.3 11.75 172.3 41.15 183.15 41.15 183.15 11.75 192.85 11.75 192.85 1.5 162.6 1.5 M200.4 22.3 Q199.5 23.65 199.5 25.8 199.5 28.0 200.4 29.4 201.05 30.4 202.15 30.4 203.2 30.35 203.9 29.4 L203.85 29.4 Q204.75 28.0 204.75 25.8 204.75 23.65 203.9 22.3 L203.85 22.3 Q203.2 21.3 202.15 21.3 201.05 21.3 200.4 22.3 M164.0 26.0 Q164.0 18.65 160.75 14.3 157.5 10.0 152.0 10.0 146.5 10.0 142.95 14.45 139.4 18.85 139.4 25.7 139.4 32.8 143.1 37.25 146.8 41.7 152.6 41.7 156.1 41.7 158.95 40.25 161.75 38.85 164.15 35.8 L162.2 30.8 Q160.0 32.8 158.4 33.6 156.8 34.4 155.15 34.4 152.4 34.4 150.75 32.6 149.1 30.8 148.75 27.5 L163.95 27.5 164.0 26.95 164.0 26.0 M150.7 19.3 Q150.15 20.35 150.1 22.15 L153.95 22.15 Q153.85 20.35 153.3 19.35 152.8 18.6 152.0 18.6 151.1 18.6 150.7 19.3 M128.0 20.95 L128.0 30.9 126.2 31.75 124.45 32.05 Q122.2 32.05 120.9 30.4 119.55 28.75 119.55 25.95 119.55 23.05 120.95 21.5 122.3 19.95 124.85 19.95 L126.45 20.2 128.0 20.95 M124.95 10.85 Q123.35 10.05 121.35 10.05 116.45 10.05 113.2 14.5 110.0 19.0 110.0 26.0 110.0 33.0 113.05 37.35 116.15 41.7 120.95 41.7 122.8 41.7 124.5 40.95 126.2 40.2 128.0 38.55 L128.0 41.15 137.5 41.15 137.5 1.5 128.0 1.5 128.0 13.45 Q126.55 11.7 124.95 10.85 M104.9 12.95 Q102.2 10.0 96.95 10.0 93.95 10.0 91.15 11.15 88.35 12.35 85.75 14.7 L85.75 23.5 Q87.95 21.25 90.2 20.15 92.45 19.0 94.8 19.0 96.75 19.0 97.6 19.8 98.45 20.55 98.45 22.35 L98.45 22.9 98.4 23.2 Q96.7 24.45 92.5 25.85 L90.15 26.65 Q87.5 27.65 86.1 29.65 84.7 31.65 84.7 34.4 84.7 37.9 86.55 39.8 88.4 41.7 91.75 41.7 L95.9 41.05 Q97.9 40.35 100.0 38.9 101.0 40.4 102.45 41.05 103.95 41.7 106.45 41.7 L107.45 41.65 108.7 41.4 110.35 33.35 Q108.7 33.25 108.15 32.7 107.6 32.05 107.6 30.05 L107.6 21.55 Q107.6 15.85 104.9 12.95 M83.2 11.7 L79.35 10.4 75.55 10.0 Q69.35 10.0 65.6 14.35 61.85 18.7 61.85 25.8 61.85 32.95 65.65 37.35 69.4 41.7 75.6 41.7 L79.4 41.3 83.35 40.0 83.35 30.0 Q81.65 30.85 80.15 31.3 L77.55 31.75 Q74.8 31.75 73.15 30.15 71.5 28.5 71.5 25.8 71.5 23.2 73.15 21.6 74.8 19.95 77.55 19.95 L79.95 20.4 Q81.2 20.8 83.2 21.9 L83.2 11.7 M60.5 10.7 Q59.1 10.15 57.85 10.15 55.45 10.15 53.45 12.2 51.45 14.2 49.95 18.35 L49.95 10.55 41.35 10.55 41.35 41.2 27.35 1.55 16.0 1.55 1.5 41.2 12.35 41.2 14.55 34.4 28.65 34.4 30.7 41.2 41.35 41.2 50.9 41.2 50.9 28.3 Q51.5 25.35 52.65 23.8 53.8 22.2 55.35 22.2 56.2 22.2 57.05 22.75 57.95 23.25 58.95 24.3 L63.25 12.35 Q61.8 11.25 60.5 10.7 M149.4 18.55 Q150.25 17.1 152.0 17.1 153.65 17.1 154.55 18.55 155.45 20.0 155.45 22.7 L155.4 23.15 155.4 23.65 148.55 23.65 148.55 22.8 Q148.55 20.0 149.4 18.55 M122.1 22.5 Q121.05 23.7 121.05 25.95 121.05 28.15 122.05 29.45 L122.1 29.5 Q122.95 30.55 124.45 30.55 L125.75 30.35 125.7 30.35 126.5 30.0 126.5 21.85 126.0 21.65 124.85 21.45 Q123.05 21.45 122.1 22.5 M96.6 20.9 Q96.0 20.5 94.8 20.5 92.8 20.5 90.9 21.5 L90.85 21.5 Q88.8 22.5 86.85 24.55 86.4 25.0 85.8 25.0 85.15 25.0 84.7 24.6 84.25 24.15 84.25 23.5 L84.25 22.95 83.5 23.4 82.5 23.25 Q80.65 22.2 79.5 21.85 L79.45 21.8 77.55 21.45 Q75.45 21.45 74.2 22.65 L74.2 22.7 Q73.0 23.85 73.0 25.8 73.0 27.85 74.2 29.1 75.45 30.25 77.55 30.25 L79.75 29.9 82.7 28.65 83.7 28.55 Q84.2 28.65 84.55 29.05 L84.65 29.2 84.9 28.8 Q86.5 26.45 89.65 25.25 L92.05 24.45 Q95.3 23.35 96.95 22.35 96.95 21.35 96.6 20.95 L96.6 20.9 M94.75 36.8 Q93.7 36.8 93.1 36.0 92.45 35.2 92.45 33.85 92.45 31.45 95.65 29.85 L98.35 28.5 98.35 29.2 98.3 29.9 98.45 32.35 98.75 35.0 96.4 36.45 94.75 36.8 M95.85 35.1 L97.15 34.3 96.95 32.55 96.95 32.5 96.85 30.95 96.35 31.2 Q94.1 32.3 93.95 33.85 93.95 34.6 94.3 35.05 L94.3 35.1 94.75 35.3 95.8 35.1 95.85 35.1 M21.45 17.05 L18.8 25.25 24.0 25.25 21.45 17.05 M26.0 26.75 L16.75 26.75 21.45 12.1 26.0 26.75" fill="#000000" fill-rule="evenodd" stroke="none"/>
  </g>
</svg>
