<?xml version="1.0" encoding="UTF-8" standalone="no"?>
<svg xmlns:ffdec="https://www.free-decompiler.com/flash" xmlns:xlink="http://www.w3.org/1999/xlink" ffdec:objectType="shape" height="56.35px" width="92.4px" xmlns="http://www.w3.org/2000/svg">
  <g transform="matrix(1.0, 0.0, 0.0, 1.0, 0.0, 0.0)">
    <path d="M60.0 18.3 Q74.05 25.15 77.45 38.4 80.15 49.25 73.0 54.85 72.5 55.25 71.85 55.25 L29.3 55.25 28.2 54.95 28.05 54.85 28.0 54.8 Q16.9 48.7 15.1 40.95 L15.1 41.05 Q12.55 33.6 19.05 24.9 33.25 5.8 59.9 18.25 L59.95 18.3 60.0 18.3" fill="#ffffff" fill-opacity="0.7137255" fill-rule="evenodd" stroke="none"/>
    <path d="M11.6 56.35 L9.0 56.35 Q2.9 50.2 1.5 43.1 -3.3 30.8 7.25 16.85 27.2 -10.9 65.25 7.0 L65.5 7.1 Q86.25 17.15 91.1 36.75 94.05 48.35 90.2 56.35 L87.8 56.35 Q92.05 48.55 89.15 37.0 L89.15 36.95 Q84.55 18.25 64.75 8.7 L64.5 8.6 Q28.15 -8.5 8.9 18.0 L8.9 18.05 Q-0.95 31.2 3.45 42.7 4.95 50.1 11.6 56.35" fill="#ffffff" fill-opacity="0.08627451" fill-rule="evenodd" stroke="none"/>
    <path d="M11.6 56.35 Q4.95 50.1 3.45 42.7 -0.95 31.2 8.9 18.05 L8.9 18.0 Q28.15 -8.5 64.5 8.6 L64.75 8.7 Q84.55 18.25 89.15 36.95 L89.15 37.0 Q92.05 48.55 87.8 56.35 L85.4 56.35 Q90.1 48.8 87.2 37.25 L87.2 37.2 Q82.75 19.4 63.95 10.3 L63.7 10.2 Q29.0 -6.05 10.65 19.15 L10.6 19.15 Q1.3 31.55 5.35 42.45 6.95 50.05 14.35 56.35 L11.6 56.35" fill="#ffffff" fill-opacity="0.1764706" fill-rule="evenodd" stroke="none"/>
    <path d="M85.4 56.35 L82.85 56.35 Q88.2 49.1 85.3 37.45 81.0 20.55 63.15 11.9 L62.95 11.85 Q29.8 -3.7 12.35 20.3 3.5 31.95 7.35 42.15 8.9 49.95 17.25 56.35 L14.35 56.35 Q6.95 50.05 5.35 42.45 1.3 31.55 10.6 19.15 L10.65 19.15 Q29.0 -6.05 63.7 10.2 L63.95 10.3 Q82.75 19.4 87.2 37.2 L87.2 37.25 Q90.1 48.8 85.4 56.35" fill="#ffffff" fill-opacity="0.26666668" fill-rule="evenodd" stroke="none"/>
    <path d="M82.85 56.35 L80.2 56.35 Q86.2 49.4 83.3 37.7 79.3 21.7 62.35 13.5 L62.05 13.35 62.2 13.45 Q30.65 -1.35 14.0 21.45 5.85 32.2 9.2 41.65 L9.25 41.75 9.3 41.8 Q10.95 49.85 20.25 56.35 L17.25 56.35 Q8.9 49.95 7.35 42.15 3.5 31.95 12.35 20.3 29.8 -3.7 62.95 11.85 L63.15 11.9 Q81.0 20.55 85.3 37.45 88.2 49.1 82.85 56.35" fill="#ffffff" fill-opacity="0.35686275" fill-rule="evenodd" stroke="none"/>
    <path d="M80.2 56.35 L77.4 56.35 Q84.35 49.8 81.35 37.95 L81.35 37.9 Q77.55 22.85 61.6 15.15 L61.5 15.1 61.35 15.05 61.3 15.0 Q31.5 1.1 15.65 22.6 8.05 32.8 11.2 41.7 13.05 49.85 23.55 56.35 L20.25 56.35 Q10.95 49.85 9.3 41.8 L9.25 41.75 9.2 41.65 Q5.85 32.2 14.0 21.45 30.65 -1.35 62.2 13.45 L62.05 13.35 62.35 13.5 Q79.3 21.7 83.3 37.7 86.2 49.4 80.2 56.35" fill="#ffffff" fill-opacity="0.44313726" fill-rule="evenodd" stroke="none"/>
    <path d="M77.4 56.35 L74.3 56.35 74.4 56.25 Q82.45 50.1 79.4 38.15 75.8 24.0 60.8 16.75 L60.7 16.7 60.65 16.65 60.6 16.65 Q32.35 3.45 17.4 23.75 L17.4 23.7 Q10.3 33.1 13.15 41.2 15.0 49.75 27.1 56.35 L23.55 56.35 Q13.05 49.85 11.2 41.7 8.05 32.8 15.65 22.6 31.5 1.1 61.3 15.0 L61.35 15.05 61.5 15.1 61.6 15.15 Q77.55 22.85 81.35 37.9 L81.35 37.95 Q84.35 49.8 77.4 56.35" fill="#ffffff" fill-opacity="0.53333336" fill-rule="evenodd" stroke="none"/>
    <path d="M74.3 56.35 L27.1 56.35 Q15.0 49.75 13.15 41.2 10.3 33.1 17.4 23.7 L17.4 23.75 Q32.35 3.45 60.6 16.65 L60.65 16.65 60.7 16.7 60.8 16.75 Q75.8 24.0 79.4 38.15 82.45 50.1 74.4 56.25 L74.3 56.35 M60.0 18.3 L59.95 18.3 59.9 18.25 Q33.25 5.8 19.05 24.9 12.55 33.6 15.1 41.05 L15.1 40.95 Q16.9 48.7 28.0 54.8 L28.05 54.85 28.2 54.95 29.3 55.25 71.85 55.25 Q72.5 55.25 73.0 54.85 80.15 49.25 77.45 38.4 74.05 25.15 60.0 18.3" fill="#ffffff" fill-opacity="0.62352943" fill-rule="evenodd" stroke="none"/>
  </g>
</svg>
