<?xml version="1.0" encoding="UTF-8" standalone="no"?>
<svg xmlns:ffdec="https://www.free-decompiler.com/flash" xmlns:xlink="http://www.w3.org/1999/xlink" ffdec:objectType="shape" height="107.9px" width="93.0px" xmlns="http://www.w3.org/2000/svg">
  <g transform="matrix(1.0, 0.0, 0.0, 1.0, 58.75, 38.75)">
    <path d="M21.6 59.15 L-43.25 59.15 -45.2 57.8 Q-45.9 57.3 -48.5 56.25 L-48.65 53.7 -48.75 51.6 -48.6 50.5 Q-47.35 44.15 -33.75 21.75 -32.05 19.0 -29.85 16.6 -28.45 15.15 -26.75 11.0 L-25.5 7.7 -24.4 5.3 -24.35 5.15 Q-22.55 1.6 -20.5 0.25 L-19.5 -0.25 -16.85 -0.9 -14.4 -1.35 -10.95 -1.8 -10.6 -1.85 Q-7.25 -2.25 -4.05 -3.35 -2.2 -4.0 -0.4 -4.8 L0.0 -5.0 Q0.95 -5.4 2.95 -10.05 5.95 -17.1 8.25 -21.25 10.4 -25.25 21.6 -28.1 L24.25 -28.75" fill="none" stroke="#000000" stroke-linecap="round" stroke-linejoin="round" stroke-opacity="0.011764706" stroke-width="20.0"/>
    <path d="M21.6 -28.1 L21.6 -25.7 21.4 -25.75 Q19.4 -25.9 19.4 -23.85 L19.65 -22.85 Q20.2 -21.85 21.4 -21.85 L21.6 -21.85 21.6 -12.45 21.15 -12.5 Q19.15 -12.65 19.15 -10.6 L19.4 -9.6 Q19.95 -8.6 21.15 -8.6 L21.6 -8.65 21.6 5.05 21.4 5.0 Q19.4 4.85 19.4 6.9 L19.65 7.9 Q20.2 8.9 21.4 8.9 L21.6 8.9 21.6 39.5 Q19.65 40.0 19.65 41.65 L19.95 42.65 Q20.45 43.35 21.6 43.55 L21.6 47.85 Q21.1 47.3 20.05 47.35 17.9 47.5 17.9 49.65 L18.15 50.65 Q18.7 51.65 20.0 51.65 21.0 51.65 21.6 51.0 L21.6 59.15 -43.25 59.15 -45.2 57.8 Q-45.9 57.3 -48.5 56.25 L-48.65 53.7 Q-48.15 54.15 -47.35 54.15 -46.45 54.15 -45.8 53.35 -45.35 52.7 -45.35 52.2 -45.35 50.35 -47.35 50.25 -48.15 50.2 -48.6 50.5 -47.35 44.15 -33.75 21.75 -32.05 19.0 -29.85 16.6 -28.45 15.15 -26.75 11.0 L-25.5 7.7 -24.8 7.1 Q-24.35 6.45 -24.35 5.95 L-24.4 5.3 -24.35 5.15 Q-22.55 1.6 -20.5 0.25 -20.0 1.15 -18.85 1.15 -17.95 1.15 -17.3 0.35 -16.85 -0.3 -16.85 -0.8 L-16.85 -0.9 -14.4 -1.35 -14.35 -1.1 Q-13.8 -0.1 -12.6 -0.1 -11.7 -0.1 -11.05 -0.9 -10.7 -1.4 -10.6 -1.85 -7.25 -2.25 -4.05 -3.35 -3.55 -2.35 -2.35 -2.35 -1.45 -2.35 -0.8 -3.15 -0.35 -3.8 -0.35 -4.3 L-0.4 -4.8 0.0 -5.0 Q0.95 -5.4 2.95 -10.05 5.95 -17.1 8.25 -21.25 10.4 -25.25 21.6 -28.1 M12.9 -20.1 Q13.8 -20.1 14.45 -20.9 L14.9 -22.05 Q14.9 -23.9 12.9 -24.0 10.9 -24.15 10.9 -22.1 L11.15 -21.1 Q11.7 -20.1 12.9 -20.1 M13.4 -16.25 Q11.4 -16.35 11.4 -14.3 L11.6 -13.2 Q12.05 -12.1 13.4 -12.1 14.3 -12.1 14.9 -12.8 15.4 -13.45 15.4 -14.2 15.4 -16.15 13.4 -16.25 M8.15 -10.35 Q9.05 -10.35 9.7 -11.15 L10.15 -12.3 Q10.15 -14.15 8.15 -14.25 6.15 -14.4 6.15 -12.35 L6.45 -11.35 Q6.95 -10.35 8.15 -10.35 M15.9 -5.5 Q13.9 -5.65 13.9 -3.6 L14.15 -2.6 Q14.7 -1.6 15.9 -1.6 16.8 -1.6 17.45 -2.4 L17.9 -3.55 Q17.9 -5.4 15.9 -5.5 M6.4 -3.85 Q8.2 -3.85 8.4 -5.95 8.4 -7.9 6.05 -8.25 3.65 -8.6 3.65 -6.4 L4.0 -5.2 Q4.7 -3.85 6.4 -3.85 M-8.6 7.4 L-8.35 8.4 Q-7.8 9.4 -6.6 9.4 -5.7 9.4 -5.05 8.6 -4.6 7.95 -4.6 7.45 -4.6 5.6 -6.6 5.5 -8.6 5.35 -8.6 7.4 M-9.3 2.9 Q-8.8 3.9 -7.6 3.9 -6.7 3.9 -6.05 3.1 -5.6 2.45 -5.6 1.95 -5.6 0.1 -7.6 0.0 -9.6 -0.15 -9.6 1.9 L-9.3 2.9 M-19.8 9.1 Q-19.35 8.45 -19.35 7.95 -19.35 6.1 -21.35 6.0 -23.35 5.85 -23.35 7.9 L-23.1 8.9 Q-22.55 9.9 -21.35 9.9 -20.45 9.9 -19.8 9.1 M-10.05 6.85 Q-9.6 6.2 -9.6 5.7 -9.6 3.55 -11.6 3.65 -13.6 3.7 -13.6 5.65 L-13.35 6.65 Q-12.8 7.65 -11.6 7.65 -10.7 7.65 -10.05 6.85 M-11.8 12.1 Q-11.35 11.45 -11.35 10.95 -11.35 9.1 -13.35 9.0 -15.35 8.85 -15.35 10.9 L-15.1 11.9 Q-14.55 12.9 -13.35 12.9 -12.45 12.9 -11.8 12.1 M-15.6 16.5 Q-17.6 16.35 -17.6 18.4 L-17.35 19.4 Q-16.8 20.4 -15.6 20.4 -14.7 20.4 -14.05 19.6 -13.6 18.95 -13.6 18.45 -13.6 16.6 -15.6 16.5 M-16.85 23.95 Q-16.85 22.1 -18.85 22.0 -20.85 21.85 -20.85 23.9 L-20.55 24.9 Q-20.05 25.9 -18.85 25.9 -17.95 25.9 -17.3 25.1 -16.85 24.45 -16.85 23.95 M-13.35 21.85 L-13.0 23.1 Q-12.05 24.4 -9.35 24.4 -8.1 24.4 -7.4 23.8 -6.85 23.25 -6.85 22.45 -6.85 20.45 -10.1 19.9 -13.35 19.4 -13.35 21.85 M-4.2 14.95 Q-4.7 14.3 -5.85 14.25 -7.85 14.1 -7.85 16.15 L-7.6 17.15 Q-7.05 18.15 -5.85 18.15 -4.95 18.15 -4.3 17.35 L-4.05 16.95 Q-3.55 17.9 -2.35 17.9 -1.45 17.9 -0.8 17.1 -0.35 16.45 -0.35 15.95 -0.35 14.1 -2.35 14.0 -3.8 13.9 -4.2 14.95 M-0.6 21.25 Q-2.6 21.1 -2.6 23.15 L-2.35 24.15 Q-1.8 25.15 -0.6 25.15 0.3 25.15 0.95 24.35 L1.4 23.2 Q1.4 21.35 -0.6 21.25 M-31.6 20.4 L-31.35 21.4 Q-30.8 22.4 -29.6 22.4 -28.7 22.4 -28.05 21.6 -27.6 20.95 -27.6 20.45 -27.6 18.6 -29.6 18.5 -31.6 18.35 -31.6 20.4 M-22.35 16.65 Q-21.3 16.65 -20.65 16.0 -20.1 15.45 -20.1 14.7 -20.1 12.55 -22.35 12.65 -24.6 12.7 -24.6 14.65 L-24.3 15.65 Q-23.75 16.65 -22.35 16.65 M-24.3 28.85 Q-23.85 28.2 -23.85 27.7 -23.85 25.85 -25.85 25.75 -27.85 25.6 -27.85 27.65 L-27.6 28.65 Q-27.05 29.65 -25.85 29.65 -24.95 29.65 -24.3 28.85 M-33.05 32.35 Q-32.6 31.7 -32.6 31.2 -32.6 29.35 -34.6 29.25 -36.6 29.1 -36.6 31.15 L-36.3 32.15 Q-35.8 33.15 -34.6 33.15 -33.7 33.15 -33.05 32.35 M-24.05 34.05 Q-23.5 35.15 -22.1 35.15 -21.2 35.15 -20.6 34.45 -20.1 33.8 -20.1 33.1 -20.1 31.15 -22.2 30.95 -24.35 30.75 -24.35 32.9 L-24.05 34.05 M-31.1 42.3 Q-31.1 40.35 -33.1 40.25 -35.1 40.15 -35.1 42.2 L-34.9 43.25 Q-34.45 44.4 -33.1 44.4 -32.2 44.4 -31.6 43.65 -31.1 43.05 -31.1 42.3 M-39.05 47.1 Q-38.6 46.45 -38.6 45.95 -38.6 44.1 -40.6 44.0 -42.6 43.85 -42.6 45.9 L-42.3 46.9 Q-41.8 47.9 -40.6 47.9 -39.7 47.9 -39.05 47.1 M-38.3 39.6 Q-37.85 38.95 -37.85 38.45 -37.85 36.6 -39.85 36.5 -41.85 36.35 -41.85 38.4 L-41.55 39.4 Q-41.05 40.4 -39.85 40.4 -38.95 40.4 -38.3 39.6 M-26.3 40.85 Q-25.85 40.2 -25.85 39.7 -25.85 37.85 -27.85 37.75 -29.85 37.6 -29.85 39.65 L-29.55 40.65 Q-29.05 41.65 -27.85 41.65 -26.95 41.65 -26.3 40.85 M-8.85 35.4 Q-7.95 35.4 -7.3 34.6 L-6.85 33.45 Q-6.85 31.6 -8.85 31.5 -10.85 31.35 -10.85 33.4 L-10.6 34.4 Q-10.05 35.4 -8.85 35.4 M-27.1 47.9 L-26.85 48.9 Q-26.3 49.9 -25.1 49.9 -24.2 49.9 -23.55 49.1 -23.1 48.45 -23.1 47.95 -23.1 45.8 -25.1 45.9 -27.1 45.95 -27.1 47.9 M-2.1 38.15 L-1.8 39.15 Q-1.3 40.15 -0.1 40.15 0.8 40.15 1.45 39.35 L1.9 38.2 Q1.9 36.35 -0.1 36.25 -2.1 36.1 -2.1 38.15 M-12.35 47.4 L-12.05 48.4 Q-11.5 49.4 -10.1 49.4 -9.05 49.4 -8.4 48.8 -7.85 48.25 -7.85 47.45 -7.85 45.3 -10.1 45.4 -12.35 45.45 -12.35 47.4 M-14.6 45.45 Q-14.6 42.9 -17.45 43.45 -20.35 44.0 -20.35 45.9 L-20.1 46.9 Q-19.55 47.9 -18.25 47.9 -16.4 47.9 -15.35 46.9 -14.6 46.2 -14.6 45.45 M-12.85 36.45 Q-12.85 34.3 -14.85 34.4 -16.85 34.45 -16.85 36.4 L-16.6 37.4 Q-16.05 38.4 -14.85 38.4 -13.95 38.4 -13.3 37.6 -12.85 36.95 -12.85 36.45 M-13.1 28.0 Q-15.1 27.85 -15.1 29.9 L-14.85 30.9 Q-14.3 31.9 -13.1 31.9 -12.2 31.9 -11.55 31.1 -11.1 30.45 -11.1 29.95 -11.1 28.1 -13.1 28.0 M-0.85 29.15 L-0.6 30.15 Q-0.05 31.15 1.15 31.15 2.05 31.15 2.7 30.35 L3.15 29.2 Q3.15 27.35 1.15 27.25 -0.85 27.1 -0.85 29.15 M-1.6 43.9 L-1.35 44.9 Q-0.8 45.9 0.4 45.9 1.3 45.9 1.95 45.1 L2.4 43.95 Q2.4 42.1 0.4 42.0 -1.6 41.85 -1.6 43.9 M-5.85 43.15 Q-5.35 42.55 -5.35 41.8 -5.35 39.85 -7.35 39.75 -9.35 39.65 -9.35 41.7 L-9.15 42.8 Q-8.7 43.9 -7.35 43.9 -6.45 43.9 -5.85 43.15 M-6.35 51.9 L-6.1 52.9 Q-5.55 53.9 -4.35 53.9 -3.45 53.9 -2.8 53.1 -2.35 52.45 -2.35 51.95 -2.35 50.1 -4.35 50.0 -6.35 49.85 -6.35 51.9 M-18.85 53.4 Q-18.35 52.8 -18.35 52.05 -18.35 50.1 -20.35 50.0 -22.35 49.9 -22.35 51.95 L-22.15 53.0 Q-21.7 54.15 -20.35 54.15 -19.45 54.15 -18.85 53.4 M-37.1 52.4 L-36.85 53.4 Q-36.2 54.4 -34.35 54.4 -31.6 54.4 -31.6 52.45 -31.6 50.1 -34.35 50.2 -37.1 50.35 -37.1 52.4 M12.7 2.85 L13.15 1.7 Q13.15 -0.15 11.15 -0.25 9.15 -0.4 9.15 1.65 L9.45 2.65 Q9.95 3.65 11.15 3.65 12.05 3.65 12.7 2.85 M3.45 5.85 L3.9 4.7 Q3.9 2.55 1.9 2.65 -0.1 2.7 -0.1 4.65 L0.15 5.65 Q0.7 6.65 1.9 6.65 2.8 6.65 3.45 5.85 M12.9 11.95 Q12.9 10.1 10.9 10.0 8.9 9.85 8.9 11.9 L9.15 12.9 Q9.7 13.9 10.9 13.9 11.8 13.9 12.45 13.1 L12.9 11.95 M19.4 28.75 Q17.4 28.65 17.4 30.7 L17.6 31.8 Q18.05 32.9 19.4 32.9 20.3 32.9 20.9 32.2 21.4 31.55 21.4 30.8 21.4 28.85 19.4 28.75 M18.2 17.85 L18.65 16.7 Q18.65 14.85 16.65 14.75 14.65 14.6 14.65 16.65 L14.9 17.65 Q15.45 18.65 16.65 18.65 17.55 18.65 18.2 17.85 M6.45 19.9 Q6.95 20.9 8.15 20.9 9.05 20.9 9.7 20.1 L10.15 18.95 Q10.15 17.1 8.15 17.0 6.15 16.85 6.15 18.9 L6.45 19.9 M6.45 16.1 L6.9 14.95 Q6.9 13.1 4.9 13.0 2.9 12.85 2.9 14.9 L3.15 15.9 Q3.7 16.9 4.9 16.9 5.8 16.9 6.45 16.1 M12.45 36.6 L12.9 35.45 Q12.9 33.6 10.9 33.5 8.9 33.35 8.9 35.4 L9.15 36.4 Q9.7 37.4 10.9 37.4 11.8 37.4 12.45 36.6 M10.65 27.15 Q11.2 28.15 12.4 28.15 13.3 28.15 13.95 27.35 L14.4 26.2 Q14.4 24.35 12.4 24.25 10.4 24.1 10.4 26.15 L10.65 27.15 M6.9 42.15 Q7.8 42.15 8.45 41.35 L8.9 40.2 Q8.9 38.35 6.9 38.25 4.9 38.1 4.9 40.15 L5.15 41.15 Q5.7 42.15 6.9 42.15 M8.15 30.65 Q9.05 30.65 9.7 29.85 L10.15 28.7 Q10.15 26.85 8.15 26.75 6.15 26.6 6.15 28.65 L6.45 29.65 Q6.95 30.65 8.15 30.65 M9.4 45.9 L9.65 46.9 Q10.2 47.9 11.4 47.9 12.3 47.9 12.95 47.1 L13.4 45.95 Q13.4 44.1 11.4 44.0 9.4 43.85 9.4 45.9 M3.45 52.35 L3.9 51.2 Q3.9 49.05 1.9 49.15 -0.1 49.2 -0.1 51.15 L0.15 52.15 Q0.7 53.15 1.9 53.15 2.8 53.15 3.45 52.35 M7.65 52.4 Q8.55 52.4 9.2 51.6 L9.65 50.45 Q9.65 48.6 7.65 48.5 5.65 48.35 5.65 50.4 L5.9 51.4 Q6.45 52.4 7.65 52.4" fill="#ffcc66" fill-rule="evenodd" stroke="none"/>
    <path d="M-0.4 -4.8 L-0.35 -4.3 Q-0.35 -3.8 -0.8 -3.15 -1.45 -2.35 -2.35 -2.35 -3.55 -2.35 -4.05 -3.35 -2.2 -4.0 -0.4 -4.8 M-16.85 -0.9 L-16.85 -0.8 Q-16.85 -0.3 -17.3 0.35 -17.95 1.15 -18.85 1.15 -20.0 1.15 -20.5 0.25 L-19.5 -0.25 -16.85 -0.9 M-48.6 50.5 Q-48.15 50.2 -47.35 50.25 -45.35 50.35 -45.35 52.2 -45.35 52.7 -45.8 53.35 -46.45 54.15 -47.35 54.15 -48.15 54.15 -48.65 53.7 L-49.05 53.15 -49.35 52.15 Q-49.35 50.9 -48.6 50.5 L-48.75 51.6 -48.65 53.7 -48.75 51.6 -48.6 50.5 M21.6 51.0 Q21.0 51.65 20.0 51.65 18.7 51.65 18.15 50.65 L17.9 49.65 Q17.9 47.5 20.05 47.35 21.1 47.3 21.6 47.85 L21.6 51.0 M21.6 8.9 L21.4 8.9 Q20.2 8.9 19.65 7.9 L19.4 6.9 Q19.4 4.85 21.4 5.0 L21.6 5.05 21.6 8.9 M21.6 -21.85 L21.4 -21.85 Q20.2 -21.85 19.65 -22.85 L19.4 -23.85 Q19.4 -25.9 21.4 -25.75 L21.6 -25.7 21.6 -21.85 M13.4 -16.25 Q15.4 -16.15 15.4 -14.2 15.4 -13.45 14.9 -12.8 14.3 -12.1 13.4 -12.1 12.05 -12.1 11.6 -13.2 L11.4 -14.3 Q11.4 -16.35 13.4 -16.25 M6.4 -3.85 Q4.7 -3.85 4.0 -5.2 L3.65 -6.4 Q3.65 -8.6 6.05 -8.25 8.4 -7.9 8.4 -5.95 8.2 -3.85 6.4 -3.85 M15.9 -5.5 Q17.9 -5.4 17.9 -3.55 L17.45 -2.4 Q16.8 -1.6 15.9 -1.6 14.7 -1.6 14.15 -2.6 L13.9 -3.6 Q13.9 -5.65 15.9 -5.5 M-10.05 6.85 Q-10.7 7.65 -11.6 7.65 -12.8 7.65 -13.35 6.65 L-13.6 5.65 Q-13.6 3.7 -11.6 3.65 -9.6 3.55 -9.6 5.7 -9.6 6.2 -10.05 6.85 M-19.8 9.1 Q-20.45 9.9 -21.35 9.9 -22.55 9.9 -23.1 8.9 L-23.35 7.9 Q-23.35 5.85 -21.35 6.0 -19.35 6.1 -19.35 7.95 -19.35 8.45 -19.8 9.1 M-15.6 16.5 Q-13.6 16.6 -13.6 18.45 -13.6 18.95 -14.05 19.6 -14.7 20.4 -15.6 20.4 -16.8 20.4 -17.35 19.4 L-17.6 18.4 Q-17.6 16.35 -15.6 16.5 M-4.05 16.95 L-3.85 16.2 Q-3.85 15.4 -4.2 14.95 -3.8 13.9 -2.35 14.0 -0.35 14.1 -0.35 15.95 -0.35 16.45 -0.8 17.1 -1.45 17.9 -2.35 17.9 -3.55 17.9 -4.05 16.95 M-31.6 20.4 Q-31.6 18.35 -29.6 18.5 -27.6 18.6 -27.6 20.45 -27.6 20.95 -28.05 21.6 -28.7 22.4 -29.6 22.4 -30.8 22.4 -31.35 21.4 L-31.6 20.4 M-24.3 28.85 Q-24.95 29.65 -25.85 29.65 -27.05 29.65 -27.6 28.65 L-27.85 27.65 Q-27.85 25.6 -25.85 25.75 -23.85 25.85 -23.85 27.7 -23.85 28.2 -24.3 28.85 M-31.1 42.3 Q-31.1 43.05 -31.6 43.65 -32.2 44.4 -33.1 44.4 -34.45 44.4 -34.9 43.25 L-35.1 42.2 Q-35.1 40.15 -33.1 40.25 -31.1 40.35 -31.1 42.3 M-26.3 40.85 Q-26.95 41.65 -27.85 41.65 -29.05 41.65 -29.55 40.65 L-29.85 39.65 Q-29.85 37.6 -27.85 37.75 -25.85 37.85 -25.85 39.7 -25.85 40.2 -26.3 40.85 M-0.85 29.15 Q-0.85 27.1 1.15 27.25 3.15 27.35 3.15 29.2 L2.7 30.35 Q2.05 31.15 1.15 31.15 -0.05 31.15 -0.6 30.15 L-0.85 29.15 M-13.1 28.0 Q-11.1 28.1 -11.1 29.95 -11.1 30.45 -11.55 31.1 -12.2 31.9 -13.1 31.9 -14.3 31.9 -14.85 30.9 L-15.1 29.9 Q-15.1 27.85 -13.1 28.0 M-12.85 36.45 Q-12.85 36.95 -13.3 37.6 -13.95 38.4 -14.85 38.4 -16.05 38.4 -16.6 37.4 L-16.85 36.4 Q-16.85 34.45 -14.85 34.4 -12.85 34.3 -12.85 36.45 M-14.6 45.45 Q-14.6 46.2 -15.35 46.9 -16.4 47.9 -18.25 47.9 -19.55 47.9 -20.1 46.9 L-20.35 45.9 Q-20.35 44.0 -17.45 43.45 -14.6 42.9 -14.6 45.45 M-12.35 47.4 Q-12.35 45.45 -10.1 45.4 -7.85 45.3 -7.85 47.45 -7.85 48.25 -8.4 48.8 -9.05 49.4 -10.1 49.4 -11.5 49.4 -12.05 48.4 L-12.35 47.4 M-2.1 38.15 Q-2.1 36.1 -0.1 36.25 1.9 36.35 1.9 38.2 L1.45 39.35 Q0.8 40.15 -0.1 40.15 -1.3 40.15 -1.8 39.15 L-2.1 38.15 M-37.1 52.4 Q-37.1 50.35 -34.35 50.2 -31.6 50.1 -31.6 52.45 -31.6 54.4 -34.35 54.4 -36.2 54.4 -36.85 53.4 L-37.1 52.4 M12.9 11.95 L12.45 13.1 Q11.8 13.9 10.9 13.9 9.7 13.9 9.15 12.9 L8.9 11.9 Q8.9 9.85 10.9 10.0 12.9 10.1 12.9 11.95 M3.45 5.85 Q2.8 6.65 1.9 6.65 0.7 6.65 0.15 5.65 L-0.1 4.65 Q-0.1 2.7 1.9 2.65 3.9 2.55 3.9 4.7 L3.45 5.85 M10.65 27.15 L10.4 26.15 Q10.4 24.1 12.4 24.25 14.4 24.35 14.4 26.2 L13.95 27.35 Q13.3 28.15 12.4 28.15 11.2 28.15 10.65 27.15 M12.45 36.6 Q11.8 37.4 10.9 37.4 9.7 37.4 9.15 36.4 L8.9 35.4 Q8.9 33.35 10.9 33.5 12.9 33.6 12.9 35.45 L12.45 36.6 M9.4 45.9 Q9.4 43.85 11.4 44.0 13.4 44.1 13.4 45.95 L12.95 47.1 Q12.3 47.9 11.4 47.9 10.2 47.9 9.65 46.9 L9.4 45.9 M3.45 52.35 Q2.8 53.15 1.9 53.15 0.7 53.15 0.15 52.15 L-0.1 51.15 Q-0.1 49.2 1.9 49.15 3.9 49.05 3.9 51.2 L3.45 52.35" fill="#cc9966" fill-rule="evenodd" stroke="none"/>
    <path d="M-10.6 -1.85 Q-10.7 -1.4 -11.05 -0.9 -11.7 -0.1 -12.6 -0.1 -13.8 -0.1 -14.35 -1.1 L-14.4 -1.35 -10.95 -1.8 -10.6 -1.85 M-24.4 5.3 L-24.35 5.95 Q-24.35 6.45 -24.8 7.1 L-25.5 7.7 -24.4 5.3 M21.6 43.55 Q20.45 43.35 19.95 42.65 L19.65 41.65 Q19.65 40.0 21.6 39.5 L21.6 43.55 M21.6 -8.65 L21.15 -8.6 Q19.95 -8.6 19.4 -9.6 L19.15 -10.6 Q19.15 -12.65 21.15 -12.5 L21.6 -12.45 21.6 -8.65 M6.85 -33.25 L6.85 -33.35 7.1 -33.35 6.85 -33.25 M12.9 -20.1 Q11.7 -20.1 11.15 -21.1 L10.9 -22.1 Q10.9 -24.15 12.9 -24.0 14.9 -23.9 14.9 -22.05 L14.45 -20.9 Q13.8 -20.1 12.9 -20.1 M8.15 -10.35 Q6.95 -10.35 6.45 -11.35 L6.15 -12.35 Q6.15 -14.4 8.15 -14.25 10.15 -14.15 10.15 -12.3 L9.7 -11.15 Q9.05 -10.35 8.15 -10.35 M-23.6 -5.85 Q-24.45 -5.85 -24.95 -6.35 L-22.3 -6.35 Q-22.9 -5.85 -23.6 -5.85 M-9.3 2.9 L-9.6 1.9 Q-9.6 -0.15 -7.6 0.0 -5.6 0.1 -5.6 1.95 -5.6 2.45 -6.05 3.1 -6.7 3.9 -7.6 3.9 -8.8 3.9 -9.3 2.9 M-8.6 7.4 Q-8.6 5.35 -6.6 5.5 -4.6 5.6 -4.6 7.45 -4.6 7.95 -5.05 8.6 -5.7 9.4 -6.6 9.4 -7.8 9.4 -8.35 8.4 L-8.6 7.4 M-11.8 12.1 Q-12.45 12.9 -13.35 12.9 -14.55 12.9 -15.1 11.9 L-15.35 10.9 Q-15.35 8.85 -13.35 9.0 -11.35 9.1 -11.35 10.95 -11.35 11.45 -11.8 12.1 M-13.35 21.85 Q-13.35 19.4 -10.1 19.9 -6.85 20.45 -6.85 22.45 -6.85 23.25 -7.4 23.8 -8.1 24.4 -9.35 24.4 -12.05 24.4 -13.0 23.1 L-13.35 21.85 M-16.85 23.95 Q-16.85 24.45 -17.3 25.1 -17.95 25.9 -18.85 25.9 -20.05 25.9 -20.55 24.9 L-20.85 23.9 Q-20.85 21.85 -18.85 22.0 -16.85 22.1 -16.85 23.95 M-4.2 14.95 Q-3.85 15.4 -3.85 16.2 L-4.05 16.95 -4.3 17.35 Q-4.95 18.15 -5.85 18.15 -7.05 18.15 -7.6 17.15 L-7.85 16.15 Q-7.85 14.1 -5.85 14.25 -4.7 14.3 -4.2 14.95 M-0.6 21.25 Q1.4 21.35 1.4 23.2 L0.95 24.35 Q0.3 25.15 -0.6 25.15 -1.8 25.15 -2.35 24.15 L-2.6 23.15 Q-2.6 21.1 -0.6 21.25 M-22.35 16.65 Q-23.75 16.65 -24.3 15.65 L-24.6 14.65 Q-24.6 12.7 -22.35 12.65 -20.1 12.55 -20.1 14.7 -20.1 15.45 -20.65 16.0 -21.3 16.65 -22.35 16.65 M-24.05 34.05 L-24.35 32.9 Q-24.35 30.75 -22.2 30.95 -20.1 31.15 -20.1 33.1 -20.1 33.8 -20.6 34.45 -21.2 35.15 -22.1 35.15 -23.5 35.15 -24.05 34.05 M-33.05 32.35 Q-33.7 33.15 -34.6 33.15 -35.8 33.15 -36.3 32.15 L-36.6 31.15 Q-36.6 29.1 -34.6 29.25 -32.6 29.35 -32.6 31.2 -32.6 31.7 -33.05 32.35 M-38.3 39.6 Q-38.95 40.4 -39.85 40.4 -41.05 40.4 -41.55 39.4 L-41.85 38.4 Q-41.85 36.35 -39.85 36.5 -37.85 36.6 -37.85 38.45 -37.85 38.95 -38.3 39.6 M-39.05 47.1 Q-39.7 47.9 -40.6 47.9 -41.8 47.9 -42.3 46.9 L-42.6 45.9 Q-42.6 43.85 -40.6 44.0 -38.6 44.1 -38.6 45.95 -38.6 46.45 -39.05 47.1 M-27.1 47.9 Q-27.1 45.95 -25.1 45.9 -23.1 45.8 -23.1 47.95 -23.1 48.45 -23.55 49.1 -24.2 49.9 -25.1 49.9 -26.3 49.9 -26.85 48.9 L-27.1 47.9 M-8.85 35.4 Q-10.05 35.4 -10.6 34.4 L-10.85 33.4 Q-10.85 31.35 -8.85 31.5 -6.85 31.6 -6.85 33.45 L-7.3 34.6 Q-7.95 35.4 -8.85 35.4 M-5.85 43.15 Q-6.45 43.9 -7.35 43.9 -8.7 43.9 -9.15 42.8 L-9.35 41.7 Q-9.35 39.65 -7.35 39.75 -5.35 39.85 -5.35 41.8 -5.35 42.55 -5.85 43.15 M-1.6 43.9 Q-1.6 41.85 0.4 42.0 2.4 42.1 2.4 43.95 L1.95 45.1 Q1.3 45.9 0.4 45.9 -0.8 45.9 -1.35 44.9 L-1.6 43.9 M-18.85 53.4 Q-19.45 54.15 -20.35 54.15 -21.7 54.15 -22.15 53.0 L-22.35 51.95 Q-22.35 49.9 -20.35 50.0 -18.35 50.1 -18.35 52.05 -18.35 52.8 -18.85 53.4 M-6.35 51.9 Q-6.35 49.85 -4.35 50.0 -2.35 50.1 -2.35 51.95 -2.35 52.45 -2.8 53.1 -3.45 53.9 -4.35 53.9 -5.55 53.9 -6.1 52.9 L-6.35 51.9 M12.7 2.85 Q12.05 3.65 11.15 3.65 9.95 3.65 9.45 2.65 L9.15 1.65 Q9.15 -0.4 11.15 -0.25 13.15 -0.15 13.15 1.7 L12.7 2.85 M6.45 16.1 Q5.8 16.9 4.9 16.9 3.7 16.9 3.15 15.9 L2.9 14.9 Q2.9 12.85 4.9 13.0 6.9 13.1 6.9 14.95 L6.45 16.1 M6.45 19.9 L6.15 18.9 Q6.15 16.85 8.15 17.0 10.15 17.1 10.15 18.95 L9.7 20.1 Q9.05 20.9 8.15 20.9 6.95 20.9 6.45 19.9 M18.2 17.85 Q17.55 18.65 16.65 18.65 15.45 18.65 14.9 17.65 L14.65 16.65 Q14.65 14.6 16.65 14.75 18.65 14.85 18.65 16.7 L18.2 17.85 M19.4 28.75 Q21.4 28.85 21.4 30.8 21.4 31.55 20.9 32.2 20.3 32.9 19.4 32.9 18.05 32.9 17.6 31.8 L17.4 30.7 Q17.4 28.65 19.4 28.75 M8.15 30.65 Q6.95 30.65 6.45 29.65 L6.15 28.65 Q6.15 26.6 8.15 26.75 10.15 26.85 10.15 28.7 L9.7 29.85 Q9.05 30.65 8.15 30.65 M6.9 42.15 Q5.7 42.15 5.15 41.15 L4.9 40.15 Q4.9 38.1 6.9 38.25 8.9 38.35 8.9 40.2 L8.45 41.35 Q7.8 42.15 6.9 42.15 M7.65 52.4 Q6.45 52.4 5.9 51.4 L5.65 50.4 Q5.65 48.35 7.65 48.5 9.65 48.6 9.65 50.45 L9.2 51.6 Q8.55 52.4 7.65 52.4" fill="#ffff66" fill-rule="evenodd" stroke="none"/>
    <path d="M21.6 -28.1 Q10.4 -25.25 8.25 -21.25 5.95 -17.1 2.95 -10.05 0.95 -5.4 0.0 -5.0 L-0.4 -4.8 Q-2.2 -4.0 -4.05 -3.35 -7.25 -2.25 -10.6 -1.85 L-10.95 -1.8 -14.4 -1.35 -16.85 -0.9 -19.5 -0.25 -20.5 0.25 Q-22.55 1.6 -24.35 5.15 L-24.4 5.3 -25.5 7.7 -26.75 11.0 Q-28.45 15.15 -29.85 16.6 -32.05 19.0 -33.75 21.75 -47.35 44.15 -48.6 50.5 L-48.75 51.6 -48.65 53.7 -48.5 56.25 Q-45.9 57.3 -45.2 57.8 L-43.25 59.15 21.6 59.15 M21.6 -28.1 L24.25 -28.75" fill="none" stroke="#000000" stroke-linecap="round" stroke-linejoin="round" stroke-width="2.0"/>
  </g>
</svg>
