<?xml version="1.0" encoding="UTF-8" standalone="no"?>
<svg xmlns:ffdec="https://www.free-decompiler.com/flash" xmlns:xlink="http://www.w3.org/1999/xlink" ffdec:objectType="shape" height="83.25px" width="75.85px" xmlns="http://www.w3.org/2000/svg">
  <g transform="matrix(1.0, 0.0, 0.0, 1.0, 44.25, 14.1)">
    <path d="M21.6 59.15 L-30.75 59.15 Q-33.3 58.65 -33.95 54.4 L-34.25 50.6 -34.25 50.2 Q-34.15 47.4 -32.95 44.4 L-31.35 41.15 -29.25 37.95 -24.3 32.3 -23.25 31.05 -23.25 31.0 -20.25 25.35 -18.5 22.05 -18.05 21.15 -17.15 19.65 Q-16.0 17.85 -14.65 16.7 -13.0 15.2 -11.0 14.75 0.0 12.25 5.65 8.15 L9.2 5.15 11.1 3.65 12.25 3.0 12.75 2.8 Q13.9 2.25 15.65 1.6 17.45 0.9 18.5 -0.25 L20.2 -2.85 21.6 -4.1" fill="none" stroke="#000000" stroke-linecap="round" stroke-linejoin="round" stroke-opacity="0.03137255" stroke-width="20.0"/>
    <path d="M12.75 2.8 Q13.9 2.25 15.65 1.6 17.45 0.9 18.5 -0.25 L20.2 -2.85 21.6 -4.1 21.6 5.05 21.4 5.0 Q19.4 4.85 19.4 6.9 L19.65 7.9 Q20.2 8.9 21.4 8.9 L21.6 8.9 21.6 39.5 Q19.65 40.0 19.65 41.65 L19.95 42.65 Q20.45 43.35 21.6 43.55 L21.6 47.85 Q21.1 47.3 20.05 47.35 17.9 47.5 17.9 49.65 L18.15 50.65 Q18.7 51.65 20.0 51.65 21.0 51.65 21.6 51.0 L21.6 59.15 -30.75 59.15 Q-33.3 58.65 -33.95 54.4 -31.6 54.25 -31.6 52.45 -31.6 50.15 -34.25 50.2 -34.15 47.4 -32.95 44.4 -32.15 44.35 -31.6 43.65 -31.1 43.05 -31.1 42.3 -31.1 41.6 -31.35 41.15 L-29.25 37.95 -24.3 32.3 -24.35 32.9 -24.05 34.05 Q-23.5 35.15 -22.1 35.15 -21.2 35.15 -20.6 34.45 -20.1 33.8 -20.1 33.1 -20.1 31.15 -22.2 30.95 L-23.25 31.05 -23.25 31.0 -20.25 25.35 Q-19.75 25.9 -18.85 25.9 -17.95 25.9 -17.3 25.1 -16.85 24.45 -16.85 23.95 -16.85 22.25 -18.5 22.05 L-18.05 21.15 -17.15 19.65 Q-16.65 20.4 -15.6 20.4 -14.7 20.4 -14.05 19.6 -13.6 18.95 -13.6 18.45 -13.6 17.1 -14.65 16.7 -13.0 15.2 -11.0 14.75 0.0 12.25 5.65 8.15 L9.2 5.15 11.1 3.65 11.15 3.65 Q12.05 3.65 12.7 2.85 L12.75 2.8 M12.9 11.95 Q12.9 10.1 10.9 10.0 8.9 9.85 8.9 11.9 L9.15 12.9 Q9.7 13.9 10.9 13.9 11.8 13.9 12.45 13.1 L12.9 11.95 M19.4 28.75 Q17.4 28.65 17.4 30.7 L17.6 31.8 Q18.05 32.9 19.4 32.9 20.3 32.9 20.9 32.2 21.4 31.55 21.4 30.8 21.4 28.85 19.4 28.75 M16.65 18.65 Q17.55 18.65 18.2 17.85 L18.65 16.7 Q18.65 14.85 16.65 14.75 14.65 14.6 14.65 16.65 L14.9 17.65 Q15.45 18.65 16.65 18.65 M6.45 19.9 Q6.95 20.9 8.15 20.9 9.05 20.9 9.7 20.1 L10.15 18.95 Q10.15 17.1 8.15 17.0 6.15 16.85 6.15 18.9 L6.45 19.9 M0.95 24.35 L1.4 23.2 Q1.4 21.35 -0.6 21.25 -2.6 21.1 -2.6 23.15 L-2.35 24.15 Q-1.8 25.15 -0.6 25.15 0.3 25.15 0.95 24.35 M6.45 16.1 L6.9 14.95 Q6.9 13.1 4.9 13.0 2.9 12.85 2.9 14.9 L3.15 15.9 Q3.7 16.9 4.9 16.9 5.8 16.9 6.45 16.1 M12.45 36.6 L12.9 35.45 Q12.9 33.6 10.9 33.5 8.9 33.35 8.9 35.4 L9.15 36.4 Q9.7 37.4 10.9 37.4 11.8 37.4 12.45 36.6 M10.4 26.15 L10.65 27.15 Q11.2 28.15 12.4 28.15 13.3 28.15 13.95 27.35 L14.4 26.2 Q14.4 24.35 12.4 24.25 10.4 24.1 10.4 26.15 M6.45 29.65 Q6.95 30.65 8.15 30.65 9.05 30.65 9.7 29.85 L10.15 28.7 Q10.15 26.85 8.15 26.75 6.15 26.6 6.15 28.65 L6.45 29.65 M2.7 30.35 L3.15 29.2 Q3.15 27.35 1.15 27.25 -0.85 27.1 -0.85 29.15 L-0.6 30.15 Q-0.05 31.15 1.15 31.15 2.05 31.15 2.7 30.35 M5.15 41.15 Q5.7 42.15 6.9 42.15 7.8 42.15 8.45 41.35 L8.9 40.2 Q8.9 38.35 6.9 38.25 4.9 38.1 4.9 40.15 L5.15 41.15 M1.45 39.35 L1.9 38.2 Q1.9 36.35 -0.1 36.25 -2.1 36.1 -2.1 38.15 L-1.8 39.15 Q-1.3 40.15 -0.1 40.15 0.8 40.15 1.45 39.35 M0.4 45.9 Q1.3 45.9 1.95 45.1 L2.4 43.95 Q2.4 42.1 0.4 42.0 -1.6 41.85 -1.6 43.9 L-1.35 44.9 Q-0.8 45.9 0.4 45.9 M9.4 45.9 L9.65 46.9 Q10.2 47.9 11.4 47.9 12.3 47.9 12.95 47.1 L13.4 45.95 Q13.4 44.1 11.4 44.0 9.4 43.85 9.4 45.9 M9.2 51.6 L9.65 50.45 Q9.65 48.6 7.65 48.5 5.65 48.35 5.65 50.4 L5.9 51.4 Q6.45 52.4 7.65 52.4 8.55 52.4 9.2 51.6 M1.9 53.15 Q2.8 53.15 3.45 52.35 L3.9 51.2 Q3.9 49.05 1.9 49.15 -0.1 49.2 -0.1 51.15 L0.15 52.15 Q0.7 53.15 1.9 53.15 M-13.35 21.85 L-13.0 23.1 Q-12.05 24.4 -9.35 24.4 -8.1 24.4 -7.4 23.8 -6.85 23.25 -6.85 22.45 -6.85 20.45 -10.1 19.9 -13.35 19.4 -13.35 21.85 M-4.05 16.95 Q-3.55 17.9 -2.35 17.9 -1.45 17.9 -0.8 17.1 -0.35 16.45 -0.35 15.95 -0.35 14.1 -2.35 14.0 -3.8 13.9 -4.2 14.95 -4.7 14.3 -5.85 14.25 -7.85 14.1 -7.85 16.15 L-7.6 17.15 Q-7.05 18.15 -5.85 18.15 -4.95 18.15 -4.3 17.35 L-4.05 16.95 M-27.85 41.65 Q-26.95 41.65 -26.3 40.85 -25.85 40.2 -25.85 39.7 -25.85 37.85 -27.85 37.75 -29.85 37.6 -29.85 39.65 L-29.55 40.65 Q-29.05 41.65 -27.85 41.65 M-8.85 35.4 Q-7.95 35.4 -7.3 34.6 L-6.85 33.45 Q-6.85 31.6 -8.85 31.5 -10.85 31.35 -10.85 33.4 L-10.6 34.4 Q-10.05 35.4 -8.85 35.4 M-27.1 47.9 L-26.85 48.9 Q-26.3 49.9 -25.1 49.9 -24.2 49.9 -23.55 49.1 -23.1 48.45 -23.1 47.95 -23.1 45.8 -25.1 45.9 -27.1 45.95 -27.1 47.9 M-12.35 47.4 L-12.05 48.4 Q-11.5 49.4 -10.1 49.4 -9.05 49.4 -8.4 48.8 -7.85 48.25 -7.85 47.45 -7.85 45.3 -10.1 45.4 -12.35 45.45 -12.35 47.4 M-15.35 46.9 Q-14.6 46.2 -14.6 45.45 -14.6 42.9 -17.45 43.45 -20.35 44.0 -20.35 45.9 L-20.1 46.9 Q-19.55 47.9 -18.25 47.9 -16.4 47.9 -15.35 46.9 M-12.85 36.45 Q-12.85 34.3 -14.85 34.4 -16.85 34.45 -16.85 36.4 L-16.6 37.4 Q-16.05 38.4 -14.85 38.4 -13.95 38.4 -13.3 37.6 -12.85 36.95 -12.85 36.45 M-13.1 28.0 Q-15.1 27.85 -15.1 29.9 L-14.85 30.9 Q-14.3 31.9 -13.1 31.9 -12.2 31.9 -11.55 31.1 -11.1 30.45 -11.1 29.95 -11.1 28.1 -13.1 28.0 M-18.85 53.4 Q-18.35 52.8 -18.35 52.05 -18.35 50.1 -20.35 50.0 -22.35 49.9 -22.35 51.95 L-22.15 53.0 Q-21.7 54.15 -20.35 54.15 -19.45 54.15 -18.85 53.4 M-6.35 51.9 L-6.1 52.9 Q-5.55 53.9 -4.35 53.9 -3.45 53.9 -2.8 53.1 -2.35 52.45 -2.35 51.95 -2.35 50.1 -4.35 50.0 -6.35 49.85 -6.35 51.9 M-5.85 43.15 Q-5.35 42.55 -5.35 41.8 -5.35 39.85 -7.35 39.75 -9.35 39.65 -9.35 41.7 L-9.15 42.8 Q-8.7 43.9 -7.35 43.9 -6.45 43.9 -5.85 43.15" fill="#ffcc66" fill-rule="evenodd" stroke="none"/>
    <path d="M21.6 5.05 L21.6 8.9 21.4 8.9 Q20.2 8.9 19.65 7.9 L19.4 6.9 Q19.4 4.85 21.4 5.0 L21.6 5.05 M21.6 47.85 L21.6 51.0 Q21.0 51.65 20.0 51.65 18.7 51.65 18.15 50.65 L17.9 49.65 Q17.9 47.5 20.05 47.35 21.1 47.3 21.6 47.85 M-33.95 54.4 L-34.25 50.6 -34.25 50.2 Q-31.6 50.15 -31.6 52.45 -31.6 54.25 -33.95 54.4 M-32.95 44.4 L-31.35 41.15 Q-31.1 41.6 -31.1 42.3 -31.1 43.05 -31.6 43.65 -32.15 44.35 -32.95 44.4 M-17.15 19.65 L-17.35 19.4 -17.6 18.4 Q-17.6 16.35 -15.6 16.5 L-14.65 16.7 Q-13.6 17.1 -13.6 18.45 -13.6 18.95 -14.05 19.6 -14.7 20.4 -15.6 20.4 -16.65 20.4 -17.15 19.65 -16.0 17.85 -14.65 16.7 -16.0 17.85 -17.15 19.65 M12.9 11.95 L12.45 13.1 Q11.8 13.9 10.9 13.9 9.7 13.9 9.15 12.9 L8.9 11.9 Q8.9 9.85 10.9 10.0 12.9 10.1 12.9 11.95 M10.4 26.15 Q10.4 24.1 12.4 24.25 14.4 24.35 14.4 26.2 L13.95 27.35 Q13.3 28.15 12.4 28.15 11.2 28.15 10.65 27.15 L10.4 26.15 M12.45 36.6 Q11.8 37.4 10.9 37.4 9.7 37.4 9.15 36.4 L8.9 35.4 Q8.9 33.35 10.9 33.5 12.9 33.6 12.9 35.45 L12.45 36.6 M2.7 30.35 Q2.05 31.15 1.15 31.15 -0.05 31.15 -0.6 30.15 L-0.85 29.15 Q-0.85 27.1 1.15 27.25 3.15 27.35 3.15 29.2 L2.7 30.35 M1.45 39.35 Q0.8 40.15 -0.1 40.15 -1.3 40.15 -1.8 39.15 L-2.1 38.15 Q-2.1 36.1 -0.1 36.25 1.9 36.35 1.9 38.2 L1.45 39.35 M9.4 45.9 Q9.4 43.85 11.4 44.0 13.4 44.1 13.4 45.95 L12.95 47.1 Q12.3 47.9 11.4 47.9 10.2 47.9 9.65 46.9 L9.4 45.9 M1.9 53.15 Q0.7 53.15 0.15 52.15 L-0.1 51.15 Q-0.1 49.2 1.9 49.15 3.9 49.05 3.9 51.2 L3.45 52.35 Q2.8 53.15 1.9 53.15 M-4.2 14.95 Q-3.8 13.9 -2.35 14.0 -0.35 14.1 -0.35 15.95 -0.35 16.45 -0.8 17.1 -1.45 17.9 -2.35 17.9 -3.55 17.9 -4.05 16.95 L-3.85 16.2 Q-3.85 15.4 -4.2 14.95 M-27.85 41.65 Q-29.05 41.65 -29.55 40.65 L-29.85 39.65 Q-29.85 37.6 -27.85 37.75 -25.85 37.85 -25.85 39.7 -25.85 40.2 -26.3 40.85 -26.95 41.65 -27.85 41.65 M-13.1 28.0 Q-11.1 28.1 -11.1 29.95 -11.1 30.45 -11.55 31.1 -12.2 31.9 -13.1 31.9 -14.3 31.9 -14.85 30.9 L-15.1 29.9 Q-15.1 27.85 -13.1 28.0 M-12.85 36.45 Q-12.85 36.95 -13.3 37.6 -13.95 38.4 -14.85 38.4 -16.05 38.4 -16.6 37.4 L-16.85 36.4 Q-16.85 34.45 -14.85 34.4 -12.85 34.3 -12.85 36.45 M-15.35 46.9 Q-16.4 47.9 -18.25 47.9 -19.55 47.9 -20.1 46.9 L-20.35 45.9 Q-20.35 44.0 -17.45 43.45 -14.6 42.9 -14.6 45.45 -14.6 46.2 -15.35 46.9 M-12.35 47.4 Q-12.35 45.45 -10.1 45.4 -7.85 45.3 -7.85 47.45 -7.85 48.25 -8.4 48.8 -9.05 49.4 -10.1 49.4 -11.5 49.4 -12.05 48.4 L-12.35 47.4" fill="#cc9966" fill-rule="evenodd" stroke="none"/>
    <path d="M21.6 39.5 L21.6 43.55 Q20.45 43.35 19.95 42.65 L19.65 41.65 Q19.65 40.0 21.6 39.5 M-24.3 32.3 Q-24.1 31.3 -23.25 31.05 L-24.3 32.3 -23.25 31.05 -22.2 30.95 Q-20.1 31.15 -20.1 33.1 -20.1 33.8 -20.6 34.45 -21.2 35.15 -22.1 35.15 -23.5 35.15 -24.05 34.05 L-24.35 32.9 -24.3 32.3 M-20.25 25.35 L-20.55 24.9 -20.85 23.9 Q-20.85 21.85 -18.85 22.0 L-18.5 22.05 Q-16.85 22.25 -16.85 23.95 -16.85 24.45 -17.3 25.1 -17.95 25.9 -18.85 25.9 -19.75 25.9 -20.25 25.35 L-18.5 22.05 -20.25 25.35 M11.1 3.65 L12.25 3.0 12.75 2.8 12.7 2.85 Q12.05 3.65 11.15 3.65 L11.1 3.65 M6.45 16.1 Q5.8 16.9 4.9 16.9 3.7 16.9 3.15 15.9 L2.9 14.9 Q2.9 12.85 4.9 13.0 6.9 13.1 6.9 14.95 L6.45 16.1 M0.95 24.35 Q0.3 25.15 -0.6 25.15 -1.8 25.15 -2.35 24.15 L-2.6 23.15 Q-2.6 21.1 -0.6 21.25 1.4 21.35 1.4 23.2 L0.95 24.35 M6.45 19.9 L6.15 18.9 Q6.15 16.85 8.15 17.0 10.15 17.1 10.15 18.95 L9.7 20.1 Q9.05 20.9 8.15 20.9 6.95 20.9 6.45 19.9 M16.65 18.65 Q15.45 18.65 14.9 17.65 L14.65 16.65 Q14.65 14.6 16.65 14.75 18.65 14.85 18.65 16.7 L18.2 17.85 Q17.55 18.65 16.65 18.65 M19.4 28.75 Q21.4 28.85 21.4 30.8 21.4 31.55 20.9 32.2 20.3 32.9 19.4 32.9 18.05 32.9 17.6 31.8 L17.4 30.7 Q17.4 28.65 19.4 28.75 M6.45 29.65 L6.15 28.65 Q6.15 26.6 8.15 26.75 10.15 26.85 10.15 28.7 L9.7 29.85 Q9.05 30.65 8.15 30.65 6.95 30.65 6.45 29.65 M5.15 41.15 L4.9 40.15 Q4.9 38.1 6.9 38.25 8.9 38.35 8.9 40.2 L8.45 41.35 Q7.8 42.15 6.9 42.15 5.7 42.15 5.15 41.15 M0.4 45.9 Q-0.8 45.9 -1.35 44.9 L-1.6 43.9 Q-1.6 41.85 0.4 42.0 2.4 42.1 2.4 43.95 L1.95 45.1 Q1.3 45.9 0.4 45.9 M9.2 51.6 Q8.55 52.4 7.65 52.4 6.45 52.4 5.9 51.4 L5.65 50.4 Q5.65 48.35 7.65 48.5 9.65 48.6 9.65 50.45 L9.2 51.6 M-13.35 21.85 Q-13.35 19.4 -10.1 19.9 -6.85 20.45 -6.85 22.45 -6.85 23.25 -7.4 23.8 -8.1 24.4 -9.35 24.4 -12.05 24.4 -13.0 23.1 L-13.35 21.85 M-4.05 16.95 L-4.3 17.35 Q-4.95 18.15 -5.85 18.15 -7.05 18.15 -7.6 17.15 L-7.85 16.15 Q-7.85 14.1 -5.85 14.25 -4.7 14.3 -4.2 14.95 -3.85 15.4 -3.85 16.2 L-4.05 16.95 M-27.1 47.9 Q-27.1 45.95 -25.1 45.9 -23.1 45.8 -23.1 47.95 -23.1 48.45 -23.55 49.1 -24.2 49.9 -25.1 49.9 -26.3 49.9 -26.85 48.9 L-27.1 47.9 M-8.85 35.4 Q-10.05 35.4 -10.6 34.4 L-10.85 33.4 Q-10.85 31.35 -8.85 31.5 -6.85 31.6 -6.85 33.45 L-7.3 34.6 Q-7.95 35.4 -8.85 35.4 M-5.85 43.15 Q-6.45 43.9 -7.35 43.9 -8.7 43.9 -9.15 42.8 L-9.35 41.7 Q-9.35 39.65 -7.35 39.75 -5.35 39.85 -5.35 41.8 -5.35 42.55 -5.85 43.15 M-6.35 51.9 Q-6.35 49.85 -4.35 50.0 -2.35 50.1 -2.35 51.95 -2.35 52.45 -2.8 53.1 -3.45 53.9 -4.35 53.9 -5.55 53.9 -6.1 52.9 L-6.35 51.9 M-18.85 53.4 Q-19.45 54.15 -20.35 54.15 -21.7 54.15 -22.15 53.0 L-22.35 51.95 Q-22.35 49.9 -20.35 50.0 -18.35 50.1 -18.35 52.05 -18.35 52.8 -18.85 53.4" fill="#ffff66" fill-rule="evenodd" stroke="none"/>
    <path d="M12.75 2.8 Q13.9 2.25 15.65 1.6 17.45 0.9 18.5 -0.25 L20.2 -2.85 21.6 -4.1 M21.6 59.15 L-30.75 59.15 Q-33.3 58.65 -33.95 54.4 L-34.25 50.6 -34.25 50.2 Q-34.15 47.4 -32.95 44.4 L-31.35 41.15 -29.25 37.95 -24.3 32.3 -23.25 31.05 -23.25 31.0 -20.25 25.35 -18.5 22.05 -18.05 21.15 -17.15 19.65 Q-16.0 17.85 -14.65 16.7 -13.0 15.2 -11.0 14.75 0.0 12.25 5.65 8.15 L9.2 5.15 11.1 3.65 12.25 3.0 12.75 2.8" fill="none" stroke="#000000" stroke-linecap="round" stroke-linejoin="round" stroke-width="2.0"/>
  </g>
</svg>
