<?xml version="1.0" encoding="UTF-8" standalone="no"?>
<svg xmlns:ffdec="https://www.free-decompiler.com/flash" xmlns:xlink="http://www.w3.org/1999/xlink" ffdec:objectType="shape" height="65.15px" width="63.5px" xmlns="http://www.w3.org/2000/svg">
  <g transform="matrix(1.0, 0.0, 0.0, 1.0, 30.25, -4.0)">
    <path d="M21.6 59.15 L-17.5 59.15 -19.65 58.6 Q-20.25 58.25 -20.25 56.75 -20.25 54.55 -16.25 52.05 L-9.75 48.0 -8.1 46.2 -6.45 43.7 -5.85 42.6 -5.35 41.7 Q-4.05 39.3 -3.5 37.75 -2.25 33.15 0.0 31.75 L1.05 31.15 2.65 30.45 3.4 30.15 6.35 29.25 7.0 29.0 10.1 28.1 11.2 27.8 13.5 27.2 14.25 26.9 Q16.9 25.65 18.75 22.75 19.2 20.35 19.8 18.4 20.5 16.15 21.6 15.05 22.35 14.3 23.25 14.0" fill="none" stroke="#000000" stroke-linecap="round" stroke-linejoin="round" stroke-opacity="0.007843138" stroke-width="20.0"/>
    <path d="M14.25 26.9 Q16.9 25.65 18.75 22.75 19.2 20.35 19.8 18.4 20.5 16.15 21.6 15.05 L21.6 39.5 Q19.65 40.0 19.65 41.65 L19.95 42.65 Q20.45 43.35 21.6 43.55 L21.6 47.85 Q21.1 47.3 20.05 47.35 17.9 47.5 17.9 49.65 L18.15 50.65 Q18.7 51.65 20.0 51.65 21.0 51.65 21.6 51.0 L21.6 59.15 -17.5 59.15 -19.65 58.6 Q-20.25 58.25 -20.25 56.75 -20.25 54.55 -16.25 52.05 L-11.45 49.05 Q-10.9 49.4 -10.1 49.4 -9.05 49.4 -8.4 48.8 -7.85 48.25 -7.85 47.45 -7.85 46.7 -8.1 46.2 L-6.45 43.7 -5.85 43.15 Q-5.35 42.55 -5.35 41.8 L-5.35 41.7 Q-4.05 39.3 -3.5 37.75 -2.25 33.15 0.0 31.75 L1.05 31.15 1.15 31.15 Q2.0 31.15 2.65 30.45 L3.4 30.15 6.35 29.25 6.45 29.65 Q6.95 30.65 8.15 30.65 9.05 30.65 9.7 29.85 L10.15 28.7 10.1 28.1 11.2 27.8 12.4 28.15 Q13.3 28.15 13.95 27.35 L14.25 26.9 M19.4 28.75 Q17.4 28.65 17.4 30.7 L17.6 31.8 Q18.05 32.9 19.4 32.9 20.3 32.9 20.9 32.2 21.4 31.55 21.4 30.8 21.4 28.85 19.4 28.75 M12.45 36.6 L12.9 35.45 Q12.9 33.6 10.9 33.5 8.9 33.35 8.9 35.4 L9.15 36.4 Q9.7 37.4 10.9 37.4 11.8 37.4 12.45 36.6 M5.15 41.15 Q5.7 42.15 6.9 42.15 7.8 42.15 8.45 41.35 L8.9 40.2 Q8.9 38.35 6.9 38.25 4.9 38.1 4.9 40.15 L5.15 41.15 M1.45 39.35 L1.9 38.2 Q1.9 36.35 -0.1 36.25 -2.1 36.1 -2.1 38.15 L-1.8 39.15 Q-1.3 40.15 -0.1 40.15 0.8 40.15 1.45 39.35 M1.95 45.1 L2.4 43.95 Q2.4 42.1 0.4 42.0 -1.6 41.85 -1.6 43.9 L-1.35 44.9 Q-0.8 45.9 0.4 45.9 1.3 45.9 1.95 45.1 M9.4 45.9 L9.65 46.9 Q10.2 47.9 11.4 47.9 12.3 47.9 12.95 47.1 L13.4 45.95 Q13.4 44.1 11.4 44.0 9.4 43.85 9.4 45.9 M0.15 52.15 Q0.7 53.15 1.9 53.15 2.8 53.15 3.45 52.35 L3.9 51.2 Q3.9 49.05 1.9 49.15 -0.1 49.2 -0.1 51.15 L0.15 52.15 M9.2 51.6 L9.65 50.45 Q9.65 48.6 7.65 48.5 5.65 48.35 5.65 50.4 L5.9 51.4 Q6.45 52.4 7.65 52.4 8.55 52.4 9.2 51.6 M-4.35 53.9 Q-3.45 53.9 -2.8 53.1 -2.35 52.45 -2.35 51.95 -2.35 50.1 -4.35 50.0 -6.35 49.85 -6.35 51.9 L-6.1 52.9 Q-5.55 53.9 -4.35 53.9" fill="#ffcc66" fill-rule="evenodd" stroke="none"/>
    <path d="M21.6 47.85 L21.6 51.0 Q21.0 51.65 20.0 51.65 18.7 51.65 18.15 50.65 L17.9 49.65 Q17.9 47.5 20.05 47.35 21.1 47.3 21.6 47.85 M-11.45 49.05 L-9.75 48.0 -8.1 46.2 Q-7.85 46.7 -7.85 47.45 -7.85 48.25 -8.4 48.8 -9.05 49.4 -10.1 49.4 -10.9 49.4 -11.45 49.05 M1.05 31.15 L2.65 30.45 Q2.0 31.15 1.15 31.15 L1.05 31.15 M11.2 27.8 L13.5 27.2 14.25 26.9 13.95 27.35 Q13.3 28.15 12.4 28.15 L11.2 27.8 M12.45 36.6 Q11.8 37.4 10.9 37.4 9.7 37.4 9.15 36.4 L8.9 35.4 Q8.9 33.35 10.9 33.5 12.9 33.6 12.9 35.45 L12.45 36.6 M1.45 39.35 Q0.8 40.15 -0.1 40.15 -1.3 40.15 -1.8 39.15 L-2.1 38.15 Q-2.1 36.1 -0.1 36.25 1.9 36.35 1.9 38.2 L1.45 39.35 M9.4 45.9 Q9.4 43.85 11.4 44.0 13.4 44.1 13.4 45.95 L12.95 47.1 Q12.3 47.9 11.4 47.9 10.2 47.9 9.65 46.9 L9.4 45.9 M0.15 52.15 L-0.1 51.15 Q-0.1 49.2 1.9 49.15 3.9 49.05 3.9 51.2 L3.45 52.35 Q2.8 53.15 1.9 53.15 0.7 53.15 0.15 52.15" fill="#cc9966" fill-rule="evenodd" stroke="none"/>
    <path d="M21.6 39.5 L21.6 43.55 Q20.45 43.35 19.95 42.65 L19.65 41.65 Q19.65 40.0 21.6 39.5 M-6.45 43.7 L-5.85 42.6 -5.35 41.7 -5.35 41.8 Q-5.35 42.55 -5.85 43.15 L-6.45 43.7 M6.35 29.25 L7.0 29.0 10.1 28.1 10.15 28.7 9.7 29.85 Q9.05 30.65 8.15 30.65 6.95 30.65 6.45 29.65 L6.35 29.25 M19.4 28.75 Q21.4 28.85 21.4 30.8 21.4 31.55 20.9 32.2 20.3 32.9 19.4 32.9 18.05 32.9 17.6 31.8 L17.4 30.7 Q17.4 28.65 19.4 28.75 M5.15 41.15 L4.9 40.15 Q4.9 38.1 6.9 38.25 8.9 38.35 8.9 40.2 L8.45 41.35 Q7.8 42.15 6.9 42.15 5.7 42.15 5.15 41.15 M1.95 45.1 Q1.3 45.9 0.4 45.9 -0.8 45.9 -1.35 44.9 L-1.6 43.9 Q-1.6 41.85 0.4 42.0 2.4 42.1 2.4 43.95 L1.95 45.1 M9.2 51.6 Q8.55 52.4 7.65 52.4 6.45 52.4 5.9 51.4 L5.65 50.4 Q5.65 48.35 7.65 48.5 9.65 48.6 9.65 50.45 L9.2 51.6 M-23.4 48.65 L-23.25 48.65 -23.4 48.9 -23.4 48.65 M-4.35 53.9 Q-5.55 53.9 -6.1 52.9 L-6.35 51.9 Q-6.35 49.85 -4.35 50.0 -2.35 50.1 -2.35 51.95 -2.35 52.45 -2.8 53.1 -3.45 53.9 -4.35 53.9" fill="#ffff66" fill-rule="evenodd" stroke="none"/>
    <path d="M21.6 15.05 Q22.35 14.3 23.25 14.0 M14.25 26.9 Q16.9 25.65 18.75 22.75 19.2 20.35 19.8 18.4 20.5 16.15 21.6 15.05 M21.6 59.15 L-17.5 59.15 -19.65 58.6 Q-20.25 58.25 -20.25 56.75 -20.25 54.55 -16.25 52.05 L-11.45 49.05 -9.75 48.0 -8.1 46.2 -6.45 43.7 -5.85 42.6 -5.35 41.7 Q-4.05 39.3 -3.5 37.75 -2.25 33.15 0.0 31.75 L1.05 31.15 2.65 30.45 3.4 30.15 6.35 29.25 7.0 29.0 10.1 28.1 11.2 27.8 13.5 27.2 14.25 26.9" fill="none" stroke="#000000" stroke-linecap="round" stroke-linejoin="round" stroke-width="2.0"/>
  </g>
</svg>
