<?xml version="1.0" encoding="UTF-8" standalone="no"?>
<svg xmlns:ffdec="https://www.free-decompiler.com/flash" xmlns:xlink="http://www.w3.org/1999/xlink" ffdec:objectType="shape" height="30.0px" width="70.0px" xmlns="http://www.w3.org/2000/svg">
  <g transform="matrix(1.0, 0.0, 0.0, 1.0, 35.0, 15.0)">
    <path d="M13.15 -0.05 L14.1 -0.65 15.0 -0.85 15.75 -0.75 16.15 -0.4 16.35 0.25 16.4 1.1 16.4 4.85 17.5 4.85 17.5 0.6 Q17.5 -0.6 16.95 -1.25 16.4 -1.9 15.35 -1.9 L14.2 -1.65 13.15 -1.0 13.15 -1.7 12.05 -1.7 12.05 4.85 13.15 4.85 13.15 -0.05 M4.15 -2.15 Q4.9 -3.05 6.25 -3.05 7.55 -3.05 8.35 -2.15 9.1 -1.2 9.1 0.5 9.1 2.2 8.3 3.15 7.55 4.05 6.25 4.05 4.95 4.05 4.15 3.15 3.4 2.2 3.4 0.5 3.4 -1.2 4.15 -2.15 M9.2 -2.85 Q8.7 -3.45 7.95 -3.75 L6.25 -4.05 4.55 -3.75 Q3.8 -3.45 3.25 -2.85 2.7 -2.25 2.45 -1.4 2.15 -0.6 2.15 0.5 2.15 1.6 2.45 2.4 L3.25 3.85 Q3.8 4.45 4.55 4.75 L6.25 5.05 7.9 4.75 9.2 3.85 Q9.75 3.3 10.0 2.4 L10.3 0.5 10.05 -1.45 9.2 -2.85 M35.0 15.0 L-35.0 15.0 -35.0 -15.0 35.0 -15.0 35.0 15.0" fill="#000000" fill-opacity="0.49411765" fill-rule="evenodd" stroke="none"/>
    <path d="M9.2 -2.85 L10.05 -1.45 10.3 0.5 10.0 2.4 Q9.75 3.3 9.2 3.85 L7.9 4.75 6.25 5.05 4.55 4.75 Q3.8 4.45 3.25 3.85 L2.45 2.4 Q2.15 1.6 2.15 0.5 2.15 -0.6 2.45 -1.4 2.7 -2.25 3.25 -2.85 3.8 -3.45 4.55 -3.75 L6.25 -4.05 7.95 -3.75 Q8.7 -3.45 9.2 -2.85 M4.15 -2.15 Q3.4 -1.2 3.4 0.5 3.4 2.2 4.15 3.15 4.95 4.05 6.25 4.05 7.55 4.05 8.3 3.15 9.1 2.2 9.1 0.5 9.1 -1.2 8.35 -2.15 7.55 -3.05 6.25 -3.05 4.9 -3.05 4.15 -2.15 M13.15 -0.05 L13.15 4.85 12.05 4.85 12.05 -1.7 13.15 -1.7 13.15 -1.0 14.2 -1.65 15.35 -1.9 Q16.4 -1.9 16.95 -1.25 17.5 -0.6 17.5 0.6 L17.5 4.85 16.4 4.85 16.4 1.1 16.35 0.25 16.15 -0.4 15.75 -0.75 15.0 -0.85 14.1 -0.65 13.15 -0.05" fill="#ffffff" fill-rule="evenodd" stroke="none"/>
    <path d="M-24.85 -8.7 L-24.5 -9.55 -23.65 -9.9 -11.9 -9.9 Q-11.4 -9.9 -11.05 -9.55 -10.75 -9.2 -10.75 -8.7 L-10.75 6.1 Q-10.75 7.7 -11.95 8.85 L-11.95 8.9 Q-13.15 10.1 -14.85 10.1 -16.5 10.1 -17.75 8.9 -18.95 7.7 -18.95 6.0 -18.95 4.3 -17.8 3.1 L-17.75 3.05 Q-16.5 1.85 -14.85 1.85 L-13.1 2.25 -13.1 -7.55 -22.5 -7.55 -22.5 6.1 Q-22.5 7.7 -23.7 8.85 L-23.75 8.9 Q-24.95 10.1 -26.6 10.1 -28.3 10.1 -29.5 8.9 -30.75 7.7 -30.75 6.0 -30.75 4.3 -29.55 3.1 L-29.5 3.05 Q-28.3 1.85 -26.6 1.85 -25.65 1.85 -24.85 2.25 L-24.85 -8.7" fill="#ffffff" fill-rule="evenodd" stroke="none"/>
  </g>
</svg>
