<?xml version="1.0" encoding="UTF-8" standalone="no"?>
<svg xmlns:ffdec="https://www.free-decompiler.com/flash" xmlns:xlink="http://www.w3.org/1999/xlink" ffdec:objectType="shape" height="40.2px" width="292.15px" xmlns="http://www.w3.org/2000/svg">
  <g transform="matrix(1.0, 0.0, 0.0, 1.0, 0.0, 0.0)">
    <path d="M285.15 5.8 Q284.2 6.3 283.65 7.3 283.1 8.25 283.1 9.35 283.1 10.35 283.65 11.35 284.2 12.25 285.15 12.8 286.1 13.35 287.15 13.35 288.15 13.35 289.15 12.8 L290.6 11.35 Q291.15 10.35 291.15 9.35 291.15 8.25 290.6 7.3 290.05 6.3 289.1 5.8 288.15 5.25 287.15 5.3 286.1 5.25 285.15 5.8 M287.15 4.35 Q288.4 4.3 289.6 4.95 290.75 5.6 291.45 6.8 292.1 8.0 292.15 9.35 292.1 10.65 291.45 11.8 290.8 13.0 289.6 13.65 288.45 14.3 287.15 14.35 285.8 14.3 284.65 13.65 283.4 13.0 282.8 11.8 282.1 10.65 282.15 9.35 282.1 8.0 282.8 6.8 283.45 5.6 284.65 4.95 285.85 4.3 287.15 4.35 M288.45 6.9 L289.0 7.45 289.15 8.2 288.8 9.15 287.75 9.65 288.1 9.9 288.45 10.3 288.85 10.95 289.5 12.0 288.15 12.0 287.7 11.15 286.95 10.05 286.2 9.8 285.95 9.8 285.95 12.0 284.85 12.0 284.85 6.7 285.95 6.7 287.65 6.7 288.45 6.9 M288.05 8.25 L287.9 7.85 287.55 7.6 286.4 7.55 285.95 7.55 285.95 9.0 286.4 9.0 287.55 8.9 287.9 8.65 288.05 8.25" fill="#fffd69" fill-rule="evenodd" stroke="none"/>
    <path d="M20.7 9.6 L21.15 10.25 25.7 24.9 25.7 25.65 25.25 26.3 24.5 26.5 15.25 26.5 14.55 26.25 14.1 25.65 14.05 24.9 18.75 10.25 Q18.9 9.85 19.25 9.6 19.55 9.35 19.95 9.35 L20.7 9.6 M25.85 0.05 L39.85 39.7 29.2 39.7 27.15 32.9 13.05 32.9 10.85 39.7 0.0 39.7 14.5 0.05 25.85 0.05 M25.0 1.3 L15.4 1.3 1.8 38.45 9.95 38.45 11.85 32.55 12.35 31.9 13.05 31.65 27.15 31.65 27.9 31.9 28.35 32.55 30.15 38.45 38.25 38.45 25.0 1.3 M24.5 25.25 L19.95 10.6 15.25 25.25 24.5 25.25" fill="#ffeb6f" fill-rule="evenodd" stroke="none"/>
    <path d="M20.7 9.6 L19.95 9.35 Q19.55 9.35 19.25 9.6 18.9 9.85 18.75 10.25 L14.05 24.9 14.1 25.65 14.55 26.25 15.25 26.5 24.5 26.5 25.25 26.3 25.7 25.65 25.7 24.9 21.15 10.25 20.7 9.6 M25.0 1.3 L38.25 38.45 30.15 38.45 28.35 32.55 27.9 31.9 27.15 31.65 13.05 31.65 12.35 31.9 11.85 32.55 9.95 38.45 1.8 38.45 15.4 1.3 25.0 1.3" fill="url(#gradient0)" fill-rule="evenodd" stroke="none"/>
    <path d="M58.55 10.35 L58.55 10.4 Q57.4 9.9 56.35 9.9 54.45 9.95 52.85 11.6 51.0 13.45 49.65 17.3 L49.1 17.95 48.25 18.1 47.5 17.65 Q47.2 17.3 47.2 16.85 L47.2 10.3 41.1 10.3 41.1 38.45 48.15 38.45 48.15 26.8 48.2 26.55 Q48.85 23.3 50.15 21.6 L50.15 21.55 Q51.7 19.4 53.85 19.45 55.0 19.45 56.15 20.15 L56.9 20.65 60.25 11.35 58.55 10.35 M56.35 8.65 Q57.6 8.65 59.0 9.2 60.3 9.75 61.75 10.85 L57.45 22.8 55.55 21.25 Q54.7 20.7 53.85 20.7 52.3 20.7 51.15 22.3 50.0 23.85 49.4 26.8 L49.4 39.7 39.85 39.7 39.85 9.05 48.45 9.05 48.45 16.85 Q49.95 12.7 51.95 10.7 53.95 8.65 56.35 8.65" fill="#ffeb6f" fill-rule="evenodd" stroke="none"/>
    <path d="M58.55 10.35 L60.25 11.35 56.9 20.65 56.15 20.15 Q55.0 19.45 53.85 19.45 51.7 19.4 50.15 21.55 L50.15 21.6 Q48.85 23.3 48.2 26.55 L48.15 26.8 48.15 38.45 41.1 38.45 41.1 10.3 47.2 10.3 47.2 16.85 Q47.2 17.3 47.5 17.65 L48.25 18.1 49.1 17.95 49.65 17.3 Q51.0 13.45 52.85 11.6 54.45 9.95 56.35 9.9 57.4 9.9 58.55 10.4 L58.55 10.35" fill="url(#gradient1)" fill-rule="evenodd" stroke="none"/>
    <path d="M77.55 10.15 L77.6 10.15 74.05 9.75 Q68.45 9.75 65.05 13.7 61.6 17.7 61.6 24.3 61.6 30.95 65.1 35.05 68.5 38.95 74.1 38.95 L77.65 38.6 80.6 37.65 80.6 30.45 79.0 31.0 76.05 31.5 Q72.75 31.5 70.8 29.55 68.75 27.55 68.75 24.3 68.75 21.15 70.8 19.2 L70.8 19.25 Q72.75 17.2 76.05 17.2 77.4 17.2 78.9 17.75 L78.85 17.7 80.45 18.35 80.45 11.05 Q78.95 10.45 77.55 10.15 M81.7 10.2 L81.7 20.4 Q79.7 19.3 78.45 18.9 L76.05 18.45 Q73.3 18.45 71.65 20.1 70.0 21.7 70.0 24.3 70.0 27.0 71.65 28.65 73.3 30.25 76.05 30.25 L78.65 29.8 Q80.15 29.35 81.85 28.5 L81.85 38.5 Q79.85 39.35 77.9 39.8 L74.1 40.2 Q67.9 40.2 64.15 35.85 60.35 31.45 60.35 24.3 60.35 17.2 64.1 12.85 67.85 8.5 74.05 8.5 L77.85 8.9 81.7 10.2" fill="#ffeb6f" fill-rule="evenodd" stroke="none"/>
    <path d="M77.55 10.15 Q78.95 10.45 80.45 11.05 L80.45 18.35 78.85 17.7 78.9 17.75 Q77.4 17.2 76.05 17.2 72.75 17.2 70.8 19.25 L70.8 19.2 Q68.75 21.15 68.75 24.3 68.75 27.55 70.8 29.55 72.75 31.5 76.05 31.5 L79.0 31.0 80.6 30.45 80.6 37.65 77.65 38.6 74.1 38.95 Q68.5 38.95 65.1 35.05 61.6 30.95 61.6 24.3 61.6 17.7 65.05 13.7 68.45 9.75 74.05 9.75 L77.6 10.15 77.55 10.15" fill="url(#gradient2)" fill-rule="evenodd" stroke="none"/>
    <path d="M122.9 10.45 L122.9 10.5 Q121.55 9.8 119.85 9.8 115.55 9.8 112.7 13.75 L112.75 13.75 Q109.75 17.95 109.75 24.5 109.75 31.05 112.6 35.15 115.3 38.9 119.45 38.95 121.05 38.95 122.5 38.3 124.05 37.6 125.65 36.15 126.0 35.8 126.55 35.8 127.05 35.8 127.4 36.2 127.75 36.55 127.75 37.05 L127.75 38.4 134.75 38.4 134.75 1.25 127.75 1.25 127.75 11.95 127.55 12.7 126.95 13.15 126.2 13.15 125.55 12.75 Q124.25 11.2 122.9 10.45 M123.45 9.35 Q125.05 10.2 126.5 11.95 L126.5 0.0 136.0 0.0 136.0 39.65 126.5 39.65 126.5 37.05 Q124.7 38.7 123.0 39.45 121.3 40.2 119.45 40.2 114.65 40.2 111.55 35.85 108.5 31.5 108.5 24.5 108.5 17.5 111.7 13.0 114.95 8.55 119.85 8.55 121.85 8.55 123.45 9.35 M127.6 18.85 L127.75 19.45 127.75 29.4 127.6 30.05 127.15 30.5 125.15 31.45 125.1 31.45 122.95 31.8 Q120.1 31.8 118.45 29.7 116.8 27.75 116.8 24.45 116.8 21.0 118.5 19.2 L118.55 19.15 Q120.2 17.2 123.35 17.2 L125.35 17.5 Q126.3 17.8 127.2 18.4 L127.6 18.85 M126.5 19.45 L124.95 18.7 123.35 18.45 Q120.8 18.45 119.45 20.0 118.05 21.55 118.05 24.45 118.05 27.25 119.4 28.9 120.7 30.55 122.95 30.55 L124.7 30.25 126.5 29.4 126.5 19.45" fill="#ffeb6f" fill-rule="evenodd" stroke="none"/>
    <path d="M122.9 10.45 Q124.25 11.2 125.55 12.75 L126.2 13.15 126.95 13.15 127.55 12.7 127.75 11.95 127.75 1.25 134.75 1.25 134.75 38.4 127.75 38.4 127.75 37.05 Q127.75 36.55 127.4 36.2 127.05 35.8 126.55 35.8 126.0 35.8 125.65 36.15 124.05 37.6 122.5 38.3 121.05 38.95 119.45 38.95 115.3 38.9 112.6 35.15 109.75 31.05 109.75 24.5 109.75 17.95 112.75 13.75 L112.7 13.75 Q115.55 9.8 119.85 9.8 121.55 9.8 122.9 10.5 L122.9 10.45 M127.6 18.85 L127.2 18.4 Q126.3 17.8 125.35 17.5 L123.35 17.2 Q120.2 17.2 118.55 19.15 L118.5 19.2 Q116.8 21.0 116.8 24.45 116.8 27.75 118.45 29.7 120.1 31.8 122.95 31.8 L125.1 31.45 125.15 31.45 127.15 30.5 127.6 30.05 127.75 29.4 127.75 19.45 127.6 18.85" fill="url(#gradient3)" fill-rule="evenodd" stroke="none"/>
    <path d="M90.15 10.8 Q87.75 11.85 85.5 13.8 L85.5 19.2 Q86.8 18.15 88.15 17.55 90.65 16.25 93.3 16.25 95.85 16.25 96.95 17.4 98.2 18.4 98.2 20.85 L98.2 21.4 98.1 22.1 97.65 22.7 Q95.85 24.05 91.4 25.55 L89.1 26.35 Q86.85 27.2 85.65 28.9 84.45 30.55 84.45 32.9 84.45 35.8 85.95 37.45 87.5 38.95 90.25 38.95 92.15 38.95 94.05 38.35 L94.0 38.4 Q95.85 37.7 97.8 36.4 98.2 36.1 98.75 36.2 99.25 36.25 99.55 36.7 100.35 37.9 101.45 38.4 102.75 38.95 104.95 38.95 L105.85 38.9 106.15 38.85 107.35 32.9 Q106.25 32.65 105.8 32.1 L105.7 32.0 Q104.85 31.2 104.85 28.55 L104.85 20.05 Q104.85 14.95 102.5 12.3 100.1 9.75 95.45 9.75 92.7 9.75 90.15 10.8 M103.4 11.45 Q106.1 14.35 106.1 20.05 L106.1 28.55 Q106.1 30.55 106.65 31.2 107.2 31.75 108.85 31.85 L107.2 39.9 105.95 40.15 104.95 40.2 Q102.45 40.2 100.95 39.55 99.5 38.9 98.5 37.4 96.4 38.85 94.4 39.55 L90.25 40.2 Q86.9 40.2 85.05 38.3 83.2 36.4 83.2 32.9 83.2 30.15 84.6 28.15 86.0 26.15 88.65 25.15 L91.0 24.35 Q95.2 22.95 96.9 21.7 L96.95 21.4 96.95 20.85 Q96.95 19.05 96.1 18.3 95.25 17.5 93.3 17.5 90.95 17.5 88.7 18.65 86.45 19.75 84.25 22.0 L84.25 13.2 Q86.85 10.85 89.65 9.65 92.45 8.5 95.45 8.5 100.7 8.5 103.4 11.45 M94.9 34.95 L97.25 33.5 96.95 30.85 96.8 28.4 96.85 27.7 96.85 27.0 94.15 28.35 Q90.95 29.95 90.95 32.35 90.95 33.7 91.6 34.5 92.2 35.3 93.25 35.3 L94.9 34.95 M93.25 36.55 Q91.55 36.55 90.6 35.25 L90.65 35.3 Q89.7 34.2 89.7 32.35 89.6 29.25 93.6 27.25 L96.3 25.9 97.15 25.8 97.85 26.25 98.1 27.0 98.1 27.7 98.1 27.85 98.05 28.4 Q98.05 29.55 98.2 30.7 L98.2 30.75 98.5 33.35 98.4 34.0 98.0 34.5 95.4 36.1 93.25 36.55" fill="#ffeb6f" fill-rule="evenodd" stroke="none"/>
    <path d="M90.15 10.8 Q92.7 9.75 95.45 9.75 100.1 9.75 102.5 12.3 104.85 14.95 104.85 20.05 L104.85 28.55 Q104.85 31.2 105.7 32.0 L105.8 32.1 Q106.25 32.65 107.35 32.9 L106.15 38.85 105.85 38.9 104.95 38.95 Q102.75 38.95 101.45 38.4 100.35 37.9 99.55 36.7 99.25 36.25 98.75 36.2 98.2 36.1 97.8 36.4 95.85 37.7 94.0 38.4 L94.05 38.35 Q92.15 38.95 90.25 38.95 87.5 38.95 85.95 37.45 84.45 35.8 84.45 32.9 84.45 30.55 85.65 28.9 86.85 27.2 89.1 26.35 L91.4 25.55 Q95.85 24.05 97.65 22.7 L98.1 22.1 98.2 21.4 98.2 20.85 Q98.2 18.4 96.95 17.4 95.85 16.25 93.3 16.25 90.65 16.25 88.15 17.55 86.8 18.15 85.5 19.2 L85.5 13.8 Q87.75 11.85 90.15 10.8 M93.25 36.55 L95.4 36.1 98.0 34.5 98.4 34.0 98.5 33.35 98.2 30.75 98.2 30.7 Q98.05 29.55 98.05 28.4 L98.1 27.85 98.1 27.7 98.1 27.0 97.85 26.25 97.15 25.8 96.3 25.9 93.6 27.25 Q89.6 29.25 89.7 32.35 89.7 34.2 90.65 35.3 L90.6 35.25 Q91.55 36.55 93.25 36.55" fill="url(#gradient4)" fill-rule="evenodd" stroke="none"/>
    <path d="M161.25 24.5 Q161.25 17.65 158.25 13.55 155.35 9.75 150.5 9.75 145.6 9.75 142.45 13.75 139.15 17.85 139.15 24.2 139.15 30.8 142.55 34.95 145.9 38.95 151.1 38.95 154.3 38.95 156.9 37.65 159.2 36.45 161.25 34.1 L160.2 31.4 157.45 33.25 Q155.6 34.15 153.65 34.15 150.3 34.15 148.35 31.95 146.4 29.9 146.0 26.15 145.95 25.75 146.15 25.45 L146.6 24.95 147.25 24.75 161.25 24.75 161.25 24.5 M162.5 24.5 L162.5 25.45 162.45 26.0 147.25 26.0 Q147.6 29.3 149.25 31.1 150.9 32.9 153.65 32.9 155.3 32.9 156.9 32.1 158.5 31.3 160.7 29.3 L162.65 34.3 Q160.25 37.35 157.45 38.75 154.6 40.2 151.1 40.2 145.3 40.2 141.6 35.75 137.9 31.3 137.9 24.2 137.9 17.35 141.45 12.95 145.0 8.5 150.5 8.5 156.0 8.5 159.25 12.8 162.5 17.15 162.5 24.5 M146.85 16.45 Q148.05 14.35 150.5 14.35 152.85 14.35 154.1 16.4 155.2 18.05 155.2 21.2 L155.15 21.7 155.15 22.15 154.8 23.05 Q154.4 23.4 153.9 23.4 L147.05 23.4 Q146.55 23.4 146.2 23.05 145.8 22.65 145.8 22.15 L145.8 21.3 Q145.8 18.1 146.85 16.45 M147.9 17.05 Q147.05 18.5 147.05 21.3 L147.05 22.15 153.9 22.15 153.9 21.65 153.95 21.2 Q153.95 18.5 153.05 17.05 152.15 15.6 150.5 15.6 148.75 15.6 147.9 17.05" fill="#ffeb6f" fill-rule="evenodd" stroke="none"/>
    <path d="M161.25 24.5 L161.25 24.75 147.25 24.75 146.6 24.95 146.15 25.45 Q145.95 25.75 146.0 26.15 146.4 29.9 148.35 31.95 150.3 34.15 153.65 34.15 155.6 34.15 157.45 33.25 L160.2 31.4 161.25 34.1 Q159.2 36.45 156.9 37.65 154.3 38.95 151.1 38.95 145.9 38.95 142.55 34.95 139.15 30.8 139.15 24.2 139.15 17.85 142.45 13.75 145.6 9.75 150.5 9.75 155.35 9.75 158.25 13.55 161.25 17.65 161.25 24.5 M146.85 16.45 Q145.8 18.1 145.8 21.3 L145.8 22.15 Q145.8 22.65 146.2 23.05 146.55 23.4 147.05 23.4 L153.9 23.4 Q154.4 23.4 154.8 23.05 L155.15 22.15 155.15 21.7 155.2 21.2 Q155.2 18.05 154.1 16.4 152.85 14.35 150.5 14.35 148.05 14.35 146.85 16.45" fill="url(#gradient5)" fill-rule="evenodd" stroke="none"/>
    <path d="M162.35 1.25 L162.35 9.0 170.8 9.0 Q171.3 9.0 171.7 9.4 172.05 9.75 172.05 10.25 L172.05 38.4 180.4 38.4 180.4 10.25 Q180.4 9.75 180.8 9.4 181.15 9.0 181.65 9.0 L190.1 9.0 190.1 1.25 162.35 1.25 M161.1 0.0 L191.35 0.0 191.35 10.25 181.65 10.25 181.65 39.65 170.8 39.65 170.8 10.25 161.1 10.25 161.1 0.0" fill="#ffeb6f" fill-rule="evenodd" stroke="none"/>
    <path d="M162.35 1.25 L190.1 1.25 190.1 9.0 181.65 9.0 Q181.15 9.0 180.8 9.4 180.4 9.75 180.4 10.25 L180.4 38.4 172.05 38.4 172.05 10.25 Q172.05 9.75 171.7 9.4 171.3 9.0 170.8 9.0 L162.35 9.0 162.35 1.25" fill="url(#gradient6)" fill-rule="evenodd" stroke="none"/>
    <path d="M209.7 35.05 L209.75 35.05 Q213.15 30.95 213.15 24.3 213.15 17.7 209.7 13.7 206.3 9.75 200.65 9.75 195.0 9.75 191.55 13.7 188.1 17.7 188.1 24.3 188.1 30.95 191.55 35.05 195.0 38.9 200.65 38.9 206.25 38.9 209.7 35.05 M214.4 24.3 Q214.4 31.45 210.65 35.85 206.85 40.15 200.65 40.15 194.4 40.15 190.6 35.85 186.85 31.45 186.85 24.3 186.85 17.2 190.6 12.85 194.4 8.5 200.65 8.5 206.9 8.5 210.65 12.85 214.4 17.2 214.4 24.3 M196.5 24.3 Q196.5 27.05 197.65 28.75 198.8 30.4 200.65 30.4 202.45 30.4 203.6 28.75 204.75 27.05 204.75 24.3 204.75 21.6 203.6 19.95 202.5 18.3 200.65 18.3 198.8 18.3 197.65 19.95 196.5 21.6 196.5 24.3 M204.65 19.25 Q206.0 21.15 206.0 24.3 206.0 27.5 204.65 29.45 L204.65 29.5 Q203.1 31.7 200.65 31.65 198.15 31.7 196.65 29.5 L196.65 29.45 Q195.25 27.5 195.25 24.3 195.25 21.15 196.65 19.25 198.15 17.0 200.65 17.05 203.15 17.05 204.65 19.25" fill="#ffeb6f" fill-rule="evenodd" stroke="none"/>
    <path d="M209.7 35.05 Q206.25 38.9 200.65 38.9 195.0 38.9 191.55 35.05 188.1 30.95 188.1 24.3 188.1 17.7 191.55 13.7 195.0 9.75 200.65 9.75 206.3 9.75 209.7 13.7 213.15 17.7 213.15 24.3 213.15 30.95 209.75 35.05 L209.7 35.05 M204.65 19.25 Q203.15 17.05 200.65 17.05 198.15 17.0 196.65 19.25 195.25 21.15 195.25 24.3 195.25 27.5 196.65 29.45 L196.65 29.5 Q198.15 31.7 200.65 31.65 203.1 31.7 204.65 29.5 L204.65 29.45 Q206.0 27.5 206.0 24.3 206.0 21.15 204.65 19.25" fill="url(#gradient7)" fill-rule="evenodd" stroke="none"/>
    <path d="M223.45 9.0 L226.95 23.75 231.4 9.0 237.45 9.0 241.7 24.0 245.5 9.0 254.9 9.0 246.3 39.65 239.1 39.65 234.3 23.1 229.35 39.65 222.45 39.65 213.75 9.0 223.45 9.0 M222.45 10.25 L215.4 10.25 223.4 38.4 228.45 38.4 233.1 22.75 Q233.2 22.35 233.55 22.1 233.9 21.85 234.3 21.85 L235.05 22.1 235.5 22.75 240.05 38.4 245.35 38.4 253.25 10.25 246.45 10.25 242.9 24.3 242.5 25.0 241.75 25.25 240.95 25.0 240.5 24.35 236.5 10.25 232.35 10.25 228.15 24.1 227.7 24.8 226.95 25.0 226.2 24.75 225.75 24.05 222.45 10.25" fill="#ffeb6f" fill-rule="evenodd" stroke="none"/>
    <path d="M222.45 10.25 L225.75 24.05 226.2 24.75 226.95 25.0 227.7 24.8 228.15 24.1 232.35 10.25 236.5 10.25 240.5 24.35 240.95 25.0 241.75 25.25 242.5 25.0 242.9 24.3 246.45 10.25 253.25 10.25 245.35 38.4 240.05 38.4 235.5 22.75 235.05 22.1 234.3 21.85 Q233.9 21.85 233.55 22.1 233.2 22.35 233.1 22.75 L228.45 38.4 223.4 38.4 215.4 10.25 222.45 10.25" fill="url(#gradient8)" fill-rule="evenodd" stroke="none"/>
    <path d="M263.6 12.7 L263.6 10.25 256.65 10.25 256.65 38.4 263.6 38.4 263.6 21.55 263.7 21.1 Q264.4 19.25 265.6 18.3 L265.6 18.25 Q266.75 17.2 268.5 17.2 270.6 17.2 271.5 18.65 272.3 19.7 272.3 22.2 L272.3 38.4 279.25 38.4 279.25 19.4 Q279.25 14.55 277.5 12.0 275.75 9.75 272.5 9.75 270.55 9.75 269.0 10.6 267.35 11.5 265.85 13.5 L265.2 13.9 264.45 13.9 263.85 13.45 263.6 12.7 M264.85 12.7 Q266.55 10.5 268.4 9.5 270.2 8.5 272.5 8.5 276.45 8.5 278.5 11.25 280.5 14.05 280.5 19.4 L280.5 39.65 271.05 39.65 271.05 22.2 Q271.05 20.2 270.45 19.35 269.85 18.45 268.5 18.45 267.25 18.45 266.4 19.2 265.45 20.0 264.85 21.55 L264.85 39.65 255.4 39.65 255.4 9.0 264.85 9.0 264.85 12.7" fill="#ffeb6f" fill-rule="evenodd" stroke="none"/>
    <path d="M263.6 12.7 L263.85 13.45 264.45 13.9 265.2 13.9 265.85 13.5 Q267.35 11.5 269.0 10.6 270.55 9.75 272.5 9.75 275.75 9.75 277.5 12.0 279.25 14.55 279.25 19.4 L279.25 38.4 272.3 38.4 272.3 22.2 Q272.3 19.7 271.5 18.65 270.6 17.2 268.5 17.2 266.75 17.2 265.6 18.25 L265.6 18.3 Q264.4 19.25 263.7 21.1 L263.6 21.55 263.6 38.4 256.65 38.4 256.65 10.25 263.6 10.25 263.6 12.7" fill="url(#gradient9)" fill-rule="evenodd" stroke="none"/>
  </g>
  <defs>
    <linearGradient gradientTransform="matrix(0.0, -0.0377, 0.0242, 0.0, 30.8, 19.9)" gradientUnits="userSpaceOnUse" id="gradient0" spreadMethod="pad" x1="-819.2" x2="819.2">
      <stop offset="0.22745098039215686" stop-color="#fbb91e"/>
      <stop offset="0.611764705882353" stop-color="#ffff6d"/>
    </linearGradient>
    <linearGradient gradientTransform="matrix(0.0, -0.0377, 0.0242, 0.0, 30.8, 19.9)" gradientUnits="userSpaceOnUse" id="gradient1" spreadMethod="pad" x1="-819.2" x2="819.2">
      <stop offset="0.22745098039215686" stop-color="#fbb91e"/>
      <stop offset="0.611764705882353" stop-color="#ffff6d"/>
    </linearGradient>
    <linearGradient gradientTransform="matrix(0.0, -0.0377, 0.0242, 0.0, 30.8, 19.9)" gradientUnits="userSpaceOnUse" id="gradient2" spreadMethod="pad" x1="-819.2" x2="819.2">
      <stop offset="0.22745098039215686" stop-color="#fbb91e"/>
      <stop offset="0.611764705882353" stop-color="#ffff6d"/>
    </linearGradient>
    <linearGradient gradientTransform="matrix(0.0, -0.0377, 0.0242, 0.0, 30.8, 19.9)" gradientUnits="userSpaceOnUse" id="gradient3" spreadMethod="pad" x1="-819.2" x2="819.2">
      <stop offset="0.22745098039215686" stop-color="#fbb91e"/>
      <stop offset="0.611764705882353" stop-color="#ffff6d"/>
    </linearGradient>
    <linearGradient gradientTransform="matrix(0.0, -0.0377, 0.0242, 0.0, 30.8, 19.9)" gradientUnits="userSpaceOnUse" id="gradient4" spreadMethod="pad" x1="-819.2" x2="819.2">
      <stop offset="0.22745098039215686" stop-color="#fbb91e"/>
      <stop offset="0.611764705882353" stop-color="#ffff6d"/>
    </linearGradient>
    <linearGradient gradientTransform="matrix(0.0, -0.0377, 0.0242, 0.0, 30.8, 19.9)" gradientUnits="userSpaceOnUse" id="gradient5" spreadMethod="pad" x1="-819.2" x2="819.2">
      <stop offset="0.22745098039215686" stop-color="#fbb91e"/>
      <stop offset="0.611764705882353" stop-color="#ffff6d"/>
    </linearGradient>
    <linearGradient gradientTransform="matrix(0.0, -0.0185, 0.0242, 0.0, 176.2, 19.8)" gradientUnits="userSpaceOnUse" id="gradient6" spreadMethod="pad" x1="-819.2" x2="819.2">
      <stop offset="0.1450980392156863" stop-color="#fe8e07"/>
      <stop offset="0.5254901960784314" stop-color="#fec925"/>
    </linearGradient>
    <linearGradient gradientTransform="matrix(0.0, -0.0185, 0.0242, 0.0, 176.2, 19.8)" gradientUnits="userSpaceOnUse" id="gradient7" spreadMethod="pad" x1="-819.2" x2="819.2">
      <stop offset="0.1450980392156863" stop-color="#fe8e07"/>
      <stop offset="0.5254901960784314" stop-color="#fec925"/>
    </linearGradient>
    <linearGradient gradientTransform="matrix(0.0, -0.0185, 0.0242, 0.0, 176.2, 19.8)" gradientUnits="userSpaceOnUse" id="gradient8" spreadMethod="pad" x1="-819.2" x2="819.2">
      <stop offset="0.1450980392156863" stop-color="#fe8e07"/>
      <stop offset="0.5254901960784314" stop-color="#fec925"/>
    </linearGradient>
    <linearGradient gradientTransform="matrix(0.0, -0.0185, 0.0242, 0.0, 176.2, 19.8)" gradientUnits="userSpaceOnUse" id="gradient9" spreadMethod="pad" x1="-819.2" x2="819.2">
      <stop offset="0.1450980392156863" stop-color="#fe8e07"/>
      <stop offset="0.5254901960784314" stop-color="#fec925"/>
    </linearGradient>
  </defs>
</svg>
