<?xml version="1.0" encoding="UTF-8" standalone="no"?>
<svg xmlns:ffdec="https://www.free-decompiler.com/flash" xmlns:xlink="http://www.w3.org/1999/xlink" ffdec:objectType="shape" height="30.0px" width="70.0px" xmlns="http://www.w3.org/2000/svg">
  <g transform="matrix(1.0, 0.0, 0.0, 1.0, 35.0, 15.0)">
    <path d="M15.05 -1.7 L15.05 -0.75 15.8 -0.75 15.8 4.85 16.9 4.85 16.9 -0.75 18.8 -0.75 18.8 -1.7 16.85 -1.7 16.85 -1.95 Q16.85 -2.75 17.2 -3.05 L18.2 -3.35 18.7 -3.3 19.2 -3.2 19.25 -3.2 19.25 -4.2 18.7 -4.3 18.05 -4.35 Q16.95 -4.35 16.35 -3.7 15.8 -3.1 15.8 -1.95 L15.8 -1.7 15.05 -1.7 M15.05 -3.2 L15.05 -4.2 14.5 -4.3 13.85 -4.35 Q12.75 -4.35 12.15 -3.7 11.6 -3.1 11.6 -1.95 L11.6 -1.7 10.85 -1.7 10.85 -0.75 11.6 -0.75 11.6 4.85 12.7 4.85 12.7 -0.75 14.6 -0.75 14.6 -1.7 12.65 -1.7 12.65 -1.95 Q12.65 -2.75 13.0 -3.05 L14.0 -3.35 14.5 -3.3 15.0 -3.2 15.05 -3.2 M3.65 -2.15 Q4.4 -3.05 5.75 -3.05 7.05 -3.05 7.85 -2.15 8.6 -1.2 8.6 0.5 8.6 2.2 7.8 3.15 7.05 4.05 5.75 4.05 4.45 4.05 3.65 3.15 2.9 2.2 2.9 0.5 2.9 -1.2 3.65 -2.15 M8.7 -2.85 L7.45 -3.75 5.75 -4.05 4.05 -3.75 2.75 -2.85 Q2.2 -2.25 1.95 -1.4 1.65 -0.6 1.65 0.5 1.65 1.6 1.95 2.4 L2.75 3.85 4.05 4.75 5.75 5.05 7.4 4.75 8.7 3.85 Q9.25 3.3 9.5 2.4 L9.8 0.5 9.55 -1.45 8.7 -2.85 M35.0 15.0 L-35.0 15.0 -35.0 -15.0 35.0 -15.0 35.0 15.0" fill="#000000" fill-opacity="0.49411765" fill-rule="evenodd" stroke="none"/>
    <path d="M8.7 -2.85 L9.55 -1.45 9.8 0.5 9.5 2.4 Q9.25 3.3 8.7 3.85 L7.4 4.75 5.75 5.05 4.05 4.75 2.75 3.85 1.95 2.4 Q1.65 1.6 1.65 0.5 1.65 -0.6 1.95 -1.4 2.2 -2.25 2.75 -2.85 L4.05 -3.75 5.75 -4.05 7.45 -3.75 8.7 -2.85 M3.65 -2.15 Q2.9 -1.2 2.9 0.5 2.9 2.2 3.65 3.15 4.45 4.05 5.75 4.05 7.05 4.05 7.8 3.15 8.6 2.2 8.6 0.5 8.6 -1.2 7.85 -2.15 7.05 -3.05 5.75 -3.05 4.4 -3.05 3.65 -2.15 M15.05 -3.2 L15.0 -3.2 14.5 -3.3 14.0 -3.35 13.0 -3.05 Q12.65 -2.75 12.65 -1.95 L12.65 -1.7 14.6 -1.7 14.6 -0.75 12.7 -0.75 12.7 4.85 11.6 4.85 11.6 -0.75 10.85 -0.75 10.85 -1.7 11.6 -1.7 11.6 -1.95 Q11.6 -3.1 12.15 -3.7 12.75 -4.35 13.85 -4.35 L14.5 -4.3 15.05 -4.2 15.05 -3.2 M15.05 -1.7 L15.8 -1.7 15.8 -1.95 Q15.8 -3.1 16.35 -3.7 16.95 -4.35 18.05 -4.35 L18.7 -4.3 19.25 -4.2 19.25 -3.2 19.2 -3.2 18.7 -3.3 18.2 -3.35 17.2 -3.05 Q16.85 -2.75 16.85 -1.95 L16.85 -1.7 18.8 -1.7 18.8 -0.75 16.9 -0.75 16.9 4.85 15.8 4.85 15.8 -0.75 15.05 -0.75 15.05 -1.7" fill="#ffffff" fill-rule="evenodd" stroke="none"/>
    <path d="M-24.85 -8.7 L-24.5 -9.55 -23.65 -9.9 -11.9 -9.9 Q-11.4 -9.9 -11.05 -9.55 -10.75 -9.2 -10.75 -8.7 L-10.75 6.1 Q-10.75 7.7 -11.95 8.85 L-11.95 8.9 Q-13.15 10.1 -14.85 10.1 -16.5 10.1 -17.75 8.9 -18.95 7.7 -18.95 6.0 -18.95 4.3 -17.8 3.1 L-17.75 3.05 Q-16.5 1.85 -14.85 1.85 L-13.1 2.25 -13.1 -7.55 -22.5 -7.55 -22.5 6.1 Q-22.5 7.7 -23.7 8.85 L-23.75 8.9 Q-24.95 10.1 -26.6 10.1 -28.3 10.1 -29.5 8.9 -30.75 7.7 -30.75 6.0 -30.75 4.3 -29.55 3.1 L-29.5 3.05 Q-28.3 1.85 -26.6 1.85 -25.65 1.85 -24.85 2.25 L-24.85 -8.7" fill="#ffffff" fill-rule="evenodd" stroke="none"/>
  </g>
</svg>
