<?xml version="1.0" encoding="UTF-8" standalone="no"?>
<svg xmlns:ffdec="https://www.free-decompiler.com/flash" xmlns:xlink="http://www.w3.org/1999/xlink" ffdec:objectType="shape" height="130.0px" width="250.0px" xmlns="http://www.w3.org/2000/svg">
  <g transform="matrix(1.0, 0.0, 0.0, 1.0, -10.0, -10.0)">
    <path d="M250.0 46.95 L149.8 46.95 149.8 39.8 250.0 39.8 250.0 46.95 M250.0 116.95 L149.8 116.95 149.8 109.8 250.0 109.8 250.0 116.95 M120.0 46.95 L19.8 46.95 19.8 39.8 120.0 39.8 120.0 46.95 M19.8 109.8 L120.0 109.8 120.0 116.95 19.8 116.95 19.8 109.8" fill="#ffffff" fill-rule="evenodd" stroke="none"/>
    <path d="M250.0 46.95 L250.0 39.8 149.8 39.8 149.8 46.95 250.0 46.95 M260.0 70.0 L140.0 70.0 140.0 10.0 260.0 10.0 260.0 70.0 M250.0 116.95 L250.0 109.8 149.8 109.8 149.8 116.95 250.0 116.95 M260.0 140.0 L140.0 140.0 140.0 80.0 260.0 80.0 260.0 140.0 M120.0 46.95 L120.0 39.8 19.8 39.8 19.8 46.95 120.0 46.95 M130.0 70.0 L10.0 70.0 10.0 10.0 130.0 10.0 130.0 70.0 M19.8 109.8 L19.8 116.95 120.0 116.95 120.0 109.8 19.8 109.8 M10.0 140.0 L10.0 80.0 130.0 80.0 130.0 140.0 10.0 140.0" fill="#000000" fill-opacity="0.48235294" fill-rule="evenodd" stroke="none"/>
  </g>
</svg>
