<?xml version="1.0" encoding="UTF-8" standalone="no"?>
<svg xmlns:ffdec="https://www.free-decompiler.com/flash" xmlns:xlink="http://www.w3.org/1999/xlink" ffdec:objectType="shape" height="65.2px" width="65.2px" xmlns="http://www.w3.org/2000/svg">
  <g transform="matrix(1.0, 0.0, 0.0, 1.0, 32.6, 32.6)">
    <path d="M27.1 -32.6 L32.6 27.1 -27.1 32.6 -32.6 -27.1 27.1 -32.6" fill="#000000" fill-opacity="0.45490196" fill-rule="evenodd" stroke="none"/>
    <path d="M3.2 -13.55 L-3.25 -13.55 -3.25 -7.1 -9.7 -7.1 -9.7 -0.65 -3.25 5.8 -9.7 5.8 -9.7 12.2 -3.25 12.2 -3.25 18.65 3.2 18.65 3.2 12.2 9.65 12.2 9.65 5.8 3.2 -0.65 9.65 -0.65 9.65 -7.1 3.2 -7.1 3.2 -13.55 M-25.75 -4.3 L0.0 -21.45 25.75 -4.3 17.15 -4.3 17.15 21.45 -17.2 21.45 -17.2 -4.3 -25.75 -4.3" fill="#ffffff" fill-opacity="0.99215686" fill-rule="evenodd" stroke="none"/>
  </g>
</svg>
