<?xml version="1.0" encoding="UTF-8" standalone="no"?>
<svg xmlns:ffdec="https://www.free-decompiler.com/flash" xmlns:xlink="http://www.w3.org/1999/xlink" ffdec:objectType="shape" height="65.5px" width="65.5px" xmlns="http://www.w3.org/2000/svg">
  <g transform="matrix(1.0, 0.0, 0.0, 1.0, 32.75, 32.75)">
    <path d="M32.75 -26.95 L26.95 32.75 -32.75 26.95 -26.95 -32.75 32.75 -26.95" fill="#000000" fill-opacity="0.45490196" fill-rule="evenodd" stroke="none"/>
    <path d="M-2.85 -14.0 L-2.85 -20.0 2.85 -20.0 2.85 -14.0 Q5.6 -13.45 7.9 -11.9 L12.15 -16.1 16.15 -12.1 11.95 -7.85 Q13.5 -5.55 14.0 -2.85 L20.0 -2.85 20.0 2.85 14.0 2.85 Q13.45 5.6 11.95 7.9 L16.15 12.15 12.1 16.2 7.9 11.95 Q5.6 13.5 2.85 14.05 L2.85 20.0 -2.85 20.0 -2.85 14.05 Q-5.6 13.55 -7.9 11.95 L-12.1 16.2 -16.15 12.15 -11.9 7.95 Q-13.5 5.6 -14.05 2.85 L-20.0 2.85 -20.0 -2.85 -14.05 -2.85 Q-13.5 -5.6 -11.95 -7.85 L-16.15 -12.1 -12.1 -16.15 -7.9 -11.9 Q-5.6 -13.5 -2.85 -14.0 M0.0 -8.55 L-2.85 -8.05 Q-4.65 -7.45 -6.05 -6.05 -7.5 -4.6 -8.1 -2.85 L-8.55 0.0 -8.1 2.85 Q-7.5 4.65 -6.05 6.05 -4.65 7.5 -2.85 8.15 L0.0 8.6 2.85 8.15 Q4.6 7.5 6.05 6.05 7.5 4.65 8.1 2.85 L8.55 0.0 8.1 -2.85 Q7.5 -4.6 6.05 -6.05 4.6 -7.45 2.85 -8.05 L0.0 -8.55" fill="#ffffff" fill-opacity="0.99215686" fill-rule="evenodd" stroke="none"/>
  </g>
</svg>
