<?xml version="1.0" encoding="UTF-8" standalone="no"?>
<svg xmlns:ffdec="https://www.free-decompiler.com/flash" xmlns:xlink="http://www.w3.org/1999/xlink" ffdec:objectType="shape" height="400.05px" width="826.6px" xmlns="http://www.w3.org/2000/svg">
  <g transform="matrix(1.0, 0.0, 0.0, 1.0, 196.5, -10.0)">
    <path d="M629.2 109.8 L449.5 109.8 449.5 10.05 629.2 10.05 629.2 109.8 M439.4 10.0 L439.4 109.75 10.15 109.75 10.15 10.0 439.4 10.0 M629.1 249.45 L319.65 249.45 319.65 119.75 629.1 119.75 629.1 249.45 M309.65 119.75 L309.65 249.45 10.15 249.45 10.15 119.75 309.65 119.75 M309.65 259.4 L309.65 409.05 10.15 409.05 10.15 259.4 309.65 259.4 M320.55 409.1 L320.55 259.4 468.3 259.4 468.3 409.1 320.55 409.1" fill="#000000" fill-opacity="0.45490196" fill-rule="evenodd" stroke="none"/>
    <path d="M480.35 259.4 L629.05 259.4 629.05 326.75 480.35 326.75 480.35 259.4 M628.05 339.2 L628.05 408.05 479.35 408.05 479.35 339.2 628.05 339.2" fill="#000000" fill-opacity="0.4862745" fill-rule="evenodd" stroke="none"/>
    <path d="M-144.6 159.65 Q-161.1 159.65 -172.85 147.9 -184.5 136.25 -184.5 119.75 L-194.5 109.75 -124.6 109.75 -124.6 89.8 Q-124.65 87.55 -123.7 85.6 -123.05 84.05 -121.75 82.75 -118.8 79.85 -114.65 79.85 -110.5 79.85 -107.6 82.75 -104.65 85.65 -104.65 89.8 L-84.7 99.8 -104.65 109.75 -104.65 119.75 Q-104.65 136.25 -116.4 147.9 -128.05 159.65 -144.6 159.65 L-144.6 179.6 -124.6 179.6" fill="none" stroke="#ffffff" stroke-linecap="round" stroke-linejoin="round" stroke-opacity="0.0" stroke-width="3.0"/>
  </g>
</svg>
