<?xml version="1.0" encoding="UTF-8" standalone="no"?>
<svg xmlns:ffdec="https://www.free-decompiler.com/flash" xmlns:xlink="http://www.w3.org/1999/xlink" ffdec:objectType="shape" height="40.25px" width="41.85px" xmlns="http://www.w3.org/2000/svg">
  <g transform="matrix(1.0, 0.0, 0.0, 1.0, 20.9, 20.1)">
    <path d="M-19.9 18.5 L-19.6 17.1 Q-19.45 16.55 -19.3 16.0 -19.15 15.45 -18.9 14.9 -18.7 14.35 -18.45 13.85 -18.2 13.35 -17.9 12.85 -17.6 12.35 -17.3 11.85 -16.95 11.35 -16.6 10.9 -16.2 10.4 -15.8 9.95 -15.4 9.5 -14.9 9.1 L-14.35 8.55 Q-14.45 8.3 -14.5 8.05 -14.6 7.75 -14.65 7.5 -14.75 7.25 -14.8 6.95 -14.85 6.7 -14.9 6.4 -14.95 6.15 -14.95 5.85 -15.0 5.6 -15.05 5.3 -15.05 5.0 -15.05 4.75 -15.05 4.45 -15.05 4.15 -15.05 3.4 -15.0 2.7 -14.9 1.95 -14.8 1.3 -14.65 0.6 -14.45 -0.05 -14.25 -0.75 -13.95 -1.35 -13.7 -2.0 -13.35 -2.6 -13.0 -3.2 -12.6 -3.8 -12.2 -4.4 -11.7 -4.95 -11.25 -5.5 -10.7 -6.0 -10.15 -6.55 -9.55 -7.0 -9.0 -7.45 -8.4 -7.85 -7.8 -8.25 -7.15 -8.6 -6.5 -8.9 -5.85 -9.15 -5.2 -9.45 -4.5 -9.65 -3.8 -9.85 -3.1 -9.95 -2.4 -10.1 -1.65 -10.15 -0.9 -10.25 -0.1 -10.25 0.65 -10.25 1.4 -10.2 2.15 -10.1 2.9 -9.95 3.6 -9.85 4.3 -9.65 4.95 -9.45 5.65 -9.2 6.3 -8.9 6.9 -8.6 7.55 -8.25 8.15 -7.85 8.75 -7.45 9.3 -7.0 9.9 -6.55 10.45 -6.0 10.9 -5.6 11.25 -5.15 11.65 -4.75 12.0 -4.3 12.35 -3.85 12.65 -3.4 12.95 -2.9 13.2 -2.45 13.45 -1.95 13.7 -1.45 13.9 -0.95 14.1 -0.45 14.25 0.05 14.4 0.6 14.55 1.1 14.6 1.65 L14.8 4.15 14.65 6.35 Q14.6 6.75 14.5 7.15 14.45 7.55 14.35 7.9 14.25 8.3 14.15 8.7 14.0 9.05 13.85 9.4 13.7 9.8 13.55 10.15 13.4 10.5 13.2 10.85 13.0 11.2 12.8 11.55 12.55 11.85 12.35 12.2 12.55 12.5 12.7 12.75 12.85 13.05 13.0 13.35 13.15 13.65 13.3 13.95 13.45 14.25 13.6 14.55 13.7 14.85 13.85 15.15 13.95 15.45 14.05 15.8 14.15 16.1 14.25 16.45 14.35 16.75 14.4 17.1 L14.65 18.5 -19.9 18.5" fill="#ffff00" fill-rule="nonzero" stroke="none"/>
    <path d="M-19.9 18.5 L-19.6 17.1 Q-19.45 16.55 -19.3 16.0 -19.15 15.45 -18.9 14.9 -18.7 14.35 -18.45 13.85 -18.2 13.35 -17.9 12.85 -17.6 12.35 -17.3 11.85 -16.95 11.35 -16.6 10.9 -16.2 10.4 -15.8 9.95 -15.4 9.5 -14.9 9.1 L-14.35 8.55 Q-14.45 8.3 -14.5 8.05 -14.6 7.75 -14.65 7.5 -14.75 7.25 -14.8 6.95 -14.85 6.7 -14.9 6.4 -14.95 6.15 -14.95 5.85 -15.0 5.6 -15.05 5.3 -15.05 5.0 -15.05 4.75 -15.05 4.45 -15.05 4.15 -15.05 3.4 -15.0 2.7 -14.9 1.95 -14.8 1.3 -14.65 0.6 -14.45 -0.05 -14.25 -0.75 -13.95 -1.35 -13.7 -2.0 -13.35 -2.6 -13.0 -3.2 -12.6 -3.8 -12.2 -4.4 -11.7 -4.95 -11.25 -5.5 -10.7 -6.0 -10.15 -6.55 -9.55 -7.0 -9.0 -7.45 -8.4 -7.85 -7.8 -8.25 -7.15 -8.6 -6.5 -8.9 -5.85 -9.15 -5.2 -9.45 -4.5 -9.65 -3.8 -9.85 -3.1 -9.95 -2.4 -10.1 -1.65 -10.15 -0.9 -10.25 -0.1 -10.25 0.65 -10.25 1.4 -10.2 2.15 -10.1 2.9 -9.95 3.6 -9.85 4.3 -9.65 4.95 -9.45 5.65 -9.2 6.3 -8.9 6.9 -8.6 7.55 -8.25 8.15 -7.85 8.75 -7.45 9.3 -7.0 9.9 -6.55 10.45 -6.0 10.9 -5.6 11.25 -5.15 11.65 -4.75 12.0 -4.3 12.35 -3.85 12.65 -3.4 12.95 -2.9 13.2 -2.45 13.45 -1.95 13.7 -1.45 13.9 -0.95 14.1 -0.45 14.25 0.05 14.4 0.6 14.55 1.1 14.6 1.65 L14.8 4.15 14.65 6.35 Q14.6 6.75 14.5 7.15 14.45 7.55 14.35 7.9 14.25 8.3 14.15 8.7 14.0 9.05 13.85 9.4 13.7 9.8 13.55 10.15 13.4 10.5 13.2 10.85 13.0 11.2 12.8 11.55 12.55 11.85 12.35 12.2 12.55 12.5 12.7 12.75 12.85 13.05 13.0 13.35 13.15 13.65 13.3 13.95 13.45 14.25 13.6 14.55 13.7 14.85 13.85 15.15 13.95 15.45 14.05 15.8 14.15 16.1 14.25 16.45 14.35 16.75 14.4 17.1 L14.65 18.5" fill="none" stroke="#000000" stroke-linecap="round" stroke-linejoin="round" stroke-width="2.0"/>
    <path d="M14.6 1.65 L19.8 4.15 14.8 4.15 19.8 4.15 14.65 6.35 14.8 4.15 14.6 1.65" fill="#ffcc00" fill-rule="nonzero" stroke="none"/>
    <path d="M7.2 3.6 Q7.05 3.65 6.95 3.75 6.8 3.8 6.65 3.85 6.5 3.9 6.4 3.95 6.25 4.0 6.1 4.0 5.95 4.05 5.8 4.05 5.65 4.1 5.5 4.1 5.35 4.15 5.2 4.15 5.0 4.15 4.85 4.15 4.6 4.15 4.35 4.15 4.1 4.1 3.85 4.05 3.65 4.0 3.4 3.95 3.15 3.9 2.95 3.8 2.75 3.7 2.5 3.6 2.3 3.5 2.1 3.35 1.9 3.25 1.7 3.1 1.5 2.95 1.3 2.75 1.1 2.6 0.95 2.4 0.8 2.2 0.7 2.0 0.55 1.85 0.45 1.6 0.3 1.4 0.25 1.2 0.15 1.0 0.1 0.8 0.0 0.55 -0.05 0.3 -0.1 0.1 -0.1 -0.15 -0.1 -0.4 -0.1 -0.65 -0.1 -0.9 -0.1 -1.15 -0.05 -1.35 0.0 -1.6 0.0 -1.85 0.1 -2.05 0.15 -2.25 0.25 -2.5 0.35 -2.7 0.45 -2.9 0.55 -3.1 0.7 -3.3 0.8 -3.5 1.0 -3.7 1.15 -3.85 1.3 -4.05 1.45 -4.2 1.6 -4.3 1.75 -4.45 1.9 -4.55 2.05 -4.65 2.25 -4.75 2.4 -4.85 2.6 -4.9 2.75 -5.0 2.95 -5.05 3.1 -5.15 3.3 -5.2 3.5 -5.25 3.65 -5.3 3.85 -5.3 4.05 -5.35 L4.75 -5.45 4.85 -5.45 4.95 -5.45 6.05 -5.3 6.35 -5.2 6.55 -5.1 6.6 -5.1 7.15 -4.85 Q7.0 -4.85 6.85 -4.8 6.65 -4.75 6.5 -4.7 6.35 -4.65 6.2 -4.6 6.05 -4.55 5.95 -4.5 5.8 -4.4 5.65 -4.3 5.5 -4.25 5.35 -4.15 5.25 -4.05 5.1 -3.95 5.0 -3.85 4.85 -3.7 4.7 -3.55 4.55 -3.35 4.4 -3.2 4.25 -3.05 4.15 -2.85 4.05 -2.65 3.95 -2.5 3.85 -2.3 3.8 -2.1 3.7 -1.9 3.65 -1.7 3.6 -1.5 3.6 -1.3 3.55 -1.1 3.55 -0.85 3.55 -0.65 3.55 -0.4 3.55 -0.2 3.6 0.0 3.65 0.25 3.7 0.45 3.75 0.65 3.8 0.85 3.9 1.05 3.95 1.2 4.05 1.4 4.15 1.6 4.3 1.75 4.4 1.95 4.55 2.1 4.7 2.25 4.85 2.4 5.0 2.5 5.1 2.65 5.25 2.75 5.35 2.85 5.5 2.95 5.65 3.05 5.8 3.1 5.95 3.2 6.1 3.25 6.25 3.35 6.4 3.4 6.55 3.45 6.7 3.5 6.85 3.55 7.05 3.6 7.2 3.6" fill="#ffffff" fill-rule="nonzero" stroke="none"/>
    <path d="M7.2 3.6 Q7.05 3.55 6.85 3.55 6.7 3.5 6.55 3.45 6.4 3.4 6.25 3.35 6.1 3.25 5.95 3.2 5.8 3.1 5.65 3.05 5.5 2.95 5.4 2.85 5.25 2.75 5.1 2.65 5.0 2.55 4.85 2.4 4.7 2.25 4.55 2.1 4.4 1.9 4.3 1.75 4.15 1.6 4.05 1.4 3.95 1.2 3.9 1.05 3.8 0.85 3.75 0.65 3.7 0.45 3.65 0.25 3.6 0.0 3.6 -0.2 3.55 -0.4 3.55 -0.65 3.55 -0.85 3.55 -1.1 3.6 -1.3 3.6 -1.5 3.65 -1.7 3.7 -1.9 3.8 -2.1 3.85 -2.3 3.95 -2.5 4.05 -2.7 4.15 -2.85 4.25 -3.05 4.4 -3.2 4.55 -3.4 4.7 -3.55 4.85 -3.7 5.0 -3.8 5.1 -3.95 5.25 -4.05 5.35 -4.15 5.5 -4.25 5.65 -4.3 5.8 -4.4 5.95 -4.5 6.05 -4.55 6.2 -4.6 6.35 -4.65 6.5 -4.7 6.65 -4.75 6.85 -4.8 7.0 -4.85 7.15 -4.85 L8.1 -4.35 8.35 -4.1 8.4 -4.05 8.85 -3.5 9.25 -2.85 8.4 -3.0 Q8.25 -3.0 8.15 -3.0 8.0 -3.0 7.85 -2.95 7.75 -2.95 7.65 -2.9 7.5 -2.85 7.4 -2.85 7.3 -2.8 7.2 -2.75 7.05 -2.7 7.0 -2.6 6.9 -2.55 6.8 -2.5 6.7 -2.4 6.6 -2.3 6.5 -2.2 6.45 -2.15 6.35 -2.05 6.3 -1.95 6.25 -1.85 6.2 -1.75 6.15 -1.65 6.1 -1.55 6.05 -1.45 6.0 -1.35 6.0 -1.25 6.0 -1.15 5.95 -1.0 5.95 -0.9 5.95 -0.75 5.95 -0.65 5.95 -0.5 5.95 -0.4 5.95 -0.3 5.95 -0.15 6.0 -0.05 6.0 0.05 6.05 0.15 6.1 0.3 6.15 0.4 6.2 0.5 6.25 0.6 6.3 0.65 6.35 0.75 6.45 0.85 6.5 0.95 6.6 1.05 6.7 1.15 6.8 1.2 6.9 1.3 7.0 1.35 7.1 1.4 7.2 1.45 7.3 1.5 7.4 1.55 7.55 1.6 7.65 1.65 7.75 1.65 7.9 1.7 8.0 1.7 8.15 1.7 8.25 1.7 8.4 1.7 L9.3 1.6 8.4 2.75 Q8.35 2.8 8.25 2.9 8.2 2.95 8.1 3.0 8.05 3.05 7.95 3.1 7.9 3.2 7.8 3.25 7.75 3.3 7.65 3.35 7.6 3.4 7.5 3.45 7.45 3.5 7.35 3.55 7.3 3.6 7.2 3.6" fill="#00ccff" fill-rule="nonzero" stroke="none"/>
    <path d="M9.3 1.6 L8.4 1.7 Q8.25 1.7 8.15 1.7 8.0 1.7 7.9 1.7 7.75 1.65 7.65 1.65 7.55 1.6 7.4 1.55 7.3 1.5 7.2 1.45 7.1 1.4 7.0 1.35 6.9 1.3 6.8 1.2 6.7 1.1 6.6 1.05 6.5 0.95 6.45 0.85 6.35 0.8 6.3 0.7 6.25 0.6 6.2 0.5 6.15 0.4 6.1 0.3 6.05 0.15 6.0 0.05 6.0 -0.05 6.0 -0.15 5.95 -0.3 5.95 -0.4 5.95 -0.5 5.95 -0.65 5.95 -0.8 5.95 -0.9 5.95 -1.0 5.95 -1.15 6.0 -1.25 6.0 -1.35 6.05 -1.45 6.1 -1.55 6.15 -1.65 6.2 -1.75 6.25 -1.85 6.3 -1.95 6.35 -2.05 6.45 -2.15 6.5 -2.25 6.6 -2.3 6.7 -2.4 6.8 -2.45 6.85 -2.55 6.95 -2.6 7.05 -2.65 7.2 -2.75 7.3 -2.8 7.4 -2.8 7.5 -2.85 7.65 -2.9 7.75 -2.95 7.85 -2.95 8.0 -2.95 8.15 -3.0 8.25 -3.0 8.4 -3.0 L9.25 -2.85 9.8 -1.35 9.85 -0.65 9.65 0.8 9.6 1.05 9.3 1.6" fill="#000000" fill-rule="nonzero" stroke="none"/>
    <path d="M14.6 1.65 L14.8 4.15 19.8 4.15 M14.65 6.35 L14.8 4.15 M6.05 -5.3 L4.95 -5.45 4.85 -5.45 4.75 -5.45 4.05 -5.35 Q3.85 -5.3 3.65 -5.3 3.45 -5.25 3.3 -5.2 3.1 -5.15 2.95 -5.05 2.75 -5.0 2.6 -4.9 2.4 -4.85 2.25 -4.75 2.1 -4.65 1.9 -4.55 1.75 -4.45 1.6 -4.3 1.45 -4.2 1.3 -4.05 1.1 -3.85 0.95 -3.7 0.8 -3.5 0.7 -3.3 0.55 -3.1 0.45 -2.9 0.3 -2.7 0.25 -2.5 0.15 -2.25 0.1 -2.05 0.0 -1.8 -0.05 -1.6 -0.1 -1.35 -0.1 -1.15 -0.1 -0.9 -0.1 -0.65 -0.1 -0.4 -0.1 -0.15 -0.05 0.1 0.0 0.3 0.0 0.55 0.1 0.75 0.15 1.0 0.25 1.2 0.35 1.4 0.45 1.65 0.55 1.85 0.7 2.0 0.8 2.2 1.0 2.4 1.15 2.6 1.3 2.75 1.5 2.9 1.7 3.1 1.9 3.25 2.1 3.35 2.3 3.5 2.5 3.6 2.75 3.7 2.95 3.8 3.15 3.9 3.4 3.95 3.65 4.0 3.85 4.05 4.1 4.1 4.35 4.1 4.6 4.15 4.85 4.15 5.0 4.15 5.15 4.15 5.35 4.15 5.5 4.1 5.65 4.1 5.8 4.05 5.95 4.05 6.1 4.0 6.25 4.0 6.4 3.95 6.5 3.9 6.65 3.85 6.8 3.8 6.95 3.75 7.05 3.7 7.2 3.6 7.3 3.55 7.35 3.5 7.45 3.5 7.5 3.45 7.6 3.4 7.65 3.35 7.75 3.3 7.8 3.25 7.9 3.2 7.95 3.1 8.05 3.05 8.1 3.0 8.2 2.95 8.25 2.9 8.35 2.8 8.4 2.75 L9.3 1.6 8.4 1.7 Q8.25 1.7 8.15 1.7 8.0 1.7 7.9 1.7 7.75 1.65 7.65 1.65 7.55 1.6 7.4 1.55 7.3 1.5 7.2 1.45 7.1 1.4 7.0 1.35 6.9 1.3 6.8 1.2 6.7 1.1 6.6 1.05 6.5 0.95 6.45 0.85 6.35 0.8 6.3 0.7 6.25 0.6 6.2 0.5 6.15 0.4 6.1 0.3 6.05 0.15 6.0 0.05 6.0 -0.05 6.0 -0.15 5.95 -0.3 5.95 -0.4 5.95 -0.5 5.95 -0.65 5.95 -0.8 5.95 -0.9 5.95 -1.0 5.95 -1.15 6.0 -1.25 6.0 -1.35 6.05 -1.45 6.1 -1.55 6.15 -1.65 6.2 -1.75 6.25 -1.85 6.3 -1.95 6.35 -2.05 6.45 -2.15 6.5 -2.25 6.6 -2.3 6.7 -2.4 6.8 -2.45 6.85 -2.55 6.95 -2.6 7.05 -2.65 7.2 -2.75 7.3 -2.8 7.4 -2.8 7.5 -2.85 7.65 -2.9 7.75 -2.95 7.85 -2.95 8.0 -2.95 8.15 -3.0 8.25 -3.0 8.4 -3.0 L9.25 -2.85 8.85 -3.5 8.4 -4.05 8.35 -4.1 8.1 -4.35 7.15 -4.85 6.6 -5.1 6.55 -5.1 M9.3 1.6 L9.6 1.05 9.65 0.8 9.85 -0.65 9.8 -1.35 9.25 -2.85" fill="none" stroke="#000000" stroke-linecap="round" stroke-linejoin="round" stroke-width="1.0"/>
    <path d="M19.8 4.15 L14.6 1.65 M19.8 4.15 L14.65 6.35" fill="none" stroke="#000000" stroke-linecap="round" stroke-linejoin="round" stroke-width="2.0"/>
    <path d="M-16.7 8.45 L-16.35 8.85 4.5 -11.25 3.8 -11.75 4.95 -11.2 -16.25 9.25 -16.7 8.45" fill="#ff0000" fill-rule="nonzero" stroke="none"/>
    <path d="M3.8 -11.75 L4.5 -11.25 -16.35 8.85 -16.7 8.45 Q-17.1 8.0 -17.45 7.5 -17.75 7.0 -18.05 6.5 -18.35 6.0 -18.6 5.45 -18.85 4.95 -19.05 4.4 -19.2 3.85 -19.35 3.3 -19.5 2.7 -19.6 2.15 -19.7 1.55 -19.75 0.95 -19.8 0.35 -19.8 -0.25 -19.8 -1.0 -19.75 -1.7 -19.65 -2.4 -19.55 -3.1 -19.4 -3.8 -19.2 -4.45 -19.0 -5.1 -18.7 -5.75 -18.45 -6.35 -18.1 -6.95 -17.75 -7.6 -17.35 -8.15 -16.95 -8.75 -16.5 -9.3 -16.0 -9.85 -15.45 -10.35 -14.9 -10.9 -14.35 -11.35 -13.75 -11.8 -13.15 -12.2 -12.55 -12.6 -11.95 -12.9 -11.3 -13.25 -10.65 -13.5 -10.0 -13.75 -9.3 -13.95 -8.6 -14.15 -7.9 -14.3 -7.2 -14.4 -6.45 -14.5 -5.7 -14.55 -4.95 -14.55 -4.35 -14.55 -3.75 -14.5 -3.15 -14.45 -2.55 -14.35 -1.95 -14.3 -1.4 -14.15 -0.85 -14.0 -0.3 -13.85 0.25 -13.65 0.8 -13.45 1.3 -13.25 1.8 -13.0 2.35 -12.7 2.85 -12.4 3.35 -12.1 3.8 -11.75" fill="#ffffff" fill-rule="nonzero" stroke="none"/>
    <path d="M3.8 -11.75 L4.5 -11.25 -16.35 8.85 -16.7 8.45 -16.25 9.25 4.95 -11.2 3.8 -11.75 Q3.3 -12.1 2.85 -12.4 2.35 -12.7 1.8 -12.95 1.3 -13.25 0.8 -13.45 0.25 -13.65 -0.3 -13.85 -0.85 -14.0 -1.4 -14.15 -2.0 -14.3 -2.55 -14.35 -3.15 -14.45 -3.75 -14.5 -4.35 -14.55 -4.95 -14.55 -5.7 -14.55 -6.45 -14.5 -7.2 -14.4 -7.9 -14.3 -8.6 -14.15 -9.3 -13.95 -10.0 -13.75 -10.65 -13.5 -11.3 -13.25 -11.95 -12.9 -12.55 -12.6 -13.15 -12.2 -13.75 -11.8 -14.35 -11.35 -14.9 -10.9 -15.45 -10.35 -16.0 -9.85 -16.45 -9.3 -16.95 -8.75 -17.35 -8.15 -17.75 -7.55 -18.1 -6.95 -18.45 -6.35 -18.7 -5.75 -19.0 -5.1 -19.2 -4.45 -19.4 -3.8 -19.55 -3.1 -19.65 -2.4 -19.75 -1.7 -19.8 -1.0 -19.8 -0.25 -19.8 0.35 -19.75 0.95 -19.7 1.55 -19.6 2.15 -19.5 2.7 -19.35 3.3 -19.2 3.85 -19.05 4.4 -18.85 4.95 -18.6 5.45 -18.35 6.0 -18.05 6.5 -17.8 7.0 -17.45 7.5 -17.1 8.0 -16.7 8.45 M-17.3 10.25 L-16.25 9.25 M4.95 -11.2 L13.35 -19.15" fill="none" stroke="#000000" stroke-linecap="round" stroke-linejoin="round" stroke-width="2.0"/>
    <path d="M-10.3 -0.65 L-15.9 -6.05 -10.3 -11.45 -4.65 -6.05 -10.3 -0.65 -10.3 -0.65 M-10.3 -10.3 L-14.7 -6.05 -10.3 -1.8 -5.85 -6.05 -10.3 -10.3 -10.3 -10.3 M-10.3 -6.65 L-11.5 -7.85 -10.9 -8.45 -9.65 -7.25 -10.3 -6.65 -10.3 -6.65 M-8.4 -6.05 L-9.0 -6.65 -8.4 -7.25 -7.8 -6.65 -8.4 -6.05 -8.4 -6.05 -7.8 -5.45 -9.65 -3.65 -9.65 -3.65 -10.25 -4.25 -8.4 -6.05 M-11.55 -5.45 L-12.8 -6.65 -12.15 -7.25 -10.9 -6.05 -11.55 -5.45 -11.55 -5.45 M-10.9 -3.65 L-11.5 -4.25 -10.9 -4.85 -10.3 -4.25 -10.9 -3.65 -10.9 -3.65" fill="#000000" fill-rule="nonzero" stroke="none"/>
  </g>
</svg>
