<?xml version="1.0" encoding="UTF-8" standalone="no"?>
<svg xmlns:ffdec="https://www.free-decompiler.com/flash" xmlns:xlink="http://www.w3.org/1999/xlink" ffdec:objectType="shape" height="42.9px" width="42.0px" xmlns="http://www.w3.org/2000/svg">
  <g transform="matrix(1.0, 0.0, 0.0, 1.0, 21.0, 21.45)">
    <path d="M7.9 -7.35 L10.6 -5.15 Q14.05 -1.7 14.8 2.85 L15.0 5.45 14.85 7.75 Q14.4 11.1 12.5 13.85 13.95 16.2 14.6 18.95 L14.85 20.45 -19.85 20.45 -19.55 18.95 Q-18.5 14.25 -14.85 10.6 L-14.3 10.05 Q-15.0 7.9 -15.0 5.45 L-15.0 5.2 7.9 -7.35" fill="#ffff00" fill-rule="evenodd" stroke="none"/>
    <path d="M7.9 -7.35 L10.6 -5.15 Q14.05 -1.7 14.8 2.85 L15.0 5.45 14.85 7.75 Q14.4 11.1 12.5 13.85 13.95 16.2 14.6 18.95 L14.85 20.45 M-19.85 20.45 L-19.55 18.95 Q-18.5 14.25 -14.85 10.6 L-14.3 10.05 Q-15.0 7.9 -15.0 5.45 L-15.0 5.2" fill="none" stroke="#000000" stroke-linecap="round" stroke-linejoin="round" stroke-width="2.0"/>
    <path d="M20.0 5.45 L14.85 7.75 15.0 5.45 20.0 5.45 15.0 5.45 14.8 2.85 20.0 5.45" fill="#ffcc00" fill-rule="evenodd" stroke="none"/>
    <path d="M7.35 4.9 Q6.3 5.45 5.0 5.45 2.95 5.45 1.45 4.0 0.0 2.55 0.0 0.45 0.0 -1.6 1.45 -3.1 2.6 -4.25 4.2 -4.45 L4.9 -4.55 5.0 -4.55 5.1 -4.55 6.2 -4.4 6.5 -4.3 6.7 -4.2 6.75 -4.2 7.3 -3.95 Q6.0 -3.75 5.0 -2.75 3.65 -1.4 3.7 0.45 3.7 2.35 5.0 3.65 6.0 4.65 7.35 4.9" fill="#ffffff" fill-rule="evenodd" stroke="none"/>
    <path d="M7.35 4.9 Q6.0 4.65 5.0 3.65 3.7 2.35 3.7 0.45 3.65 -1.4 5.0 -2.75 6.0 -3.75 7.3 -3.95 L8.25 -3.4 8.5 -3.15 8.55 -3.1 9.0 -2.55 9.4 -1.85 8.55 -2.0 Q7.45 -2.0 6.75 -1.3 6.05 -0.6 6.1 0.45 6.05 1.5 6.75 2.2 7.5 2.95 8.55 2.9 L9.45 2.8 8.55 4.0 7.35 4.9" fill="#00ccff" fill-rule="evenodd" stroke="none"/>
    <path d="M9.45 2.8 L8.55 2.9 Q7.5 2.95 6.75 2.2 6.05 1.5 6.1 0.45 6.05 -0.6 6.75 -1.3 7.45 -2.0 8.55 -2.0 L9.4 -1.85 9.95 -0.3 10.0 0.45 9.8 1.95 9.75 2.2 9.45 2.8" fill="#000000" fill-rule="evenodd" stroke="none"/>
    <path d="M6.2 -4.4 L5.1 -4.55 5.0 -4.55 4.9 -4.55 4.2 -4.45 Q2.6 -4.25 1.45 -3.1 0.0 -1.6 0.0 0.45 0.0 2.55 1.45 4.0 2.95 5.45 5.0 5.45 6.3 5.45 7.35 4.9 L8.55 4.0 9.45 2.8 9.75 2.2 9.8 1.95 10.0 0.45 9.95 -0.3 9.4 -1.85 9.0 -2.55 8.55 -3.1 8.5 -3.15 8.25 -3.4 7.3 -3.95 6.75 -4.2 6.7 -4.2 M9.4 -1.85 L8.55 -2.0 Q7.45 -2.0 6.75 -1.3 6.05 -0.6 6.1 0.45 6.05 1.5 6.75 2.2 7.5 2.95 8.55 2.9 L9.45 2.8 M20.0 5.45 L15.0 5.45 14.85 7.75 M14.8 2.85 L15.0 5.45" fill="none" stroke="#000000" stroke-linecap="round" stroke-linejoin="round" stroke-width="1.0"/>
    <path d="M14.85 7.75 L20.0 5.45 14.8 2.85" fill="none" stroke="#000000" stroke-linecap="round" stroke-linejoin="round" stroke-width="2.0"/>
    <path d="M-20.0 -10.25 L-2.35 -20.45 8.1 -7.95 -15.25 5.55 -20.0 -10.25" fill="#000000" fill-rule="evenodd" stroke="none"/>
    <path d="M-20.0 -10.25 L-15.25 5.55 8.1 -7.95 -2.35 -20.45 -20.0 -10.25 M-15.25 5.55 L-18.7 7.55 M8.1 -7.95 L12.6 -10.5" fill="none" stroke="#000000" stroke-linecap="round" stroke-linejoin="round" stroke-width="2.0"/>
  </g>
</svg>
