<?xml version="1.0" encoding="UTF-8" standalone="no"?>
<svg xmlns:ffdec="https://www.free-decompiler.com/flash" xmlns:xlink="http://www.w3.org/1999/xlink" ffdec:objectType="shape" height="37.45px" width="41.85px" xmlns="http://www.w3.org/2000/svg">
  <g transform="matrix(1.0, 0.0, 0.0, 1.0, 20.9, 18.7)">
    <path d="M-19.9 17.75 L-19.6 16.25 Q-18.55 11.55 -14.9 7.9 L-14.35 7.35 Q-15.05 5.2 -15.05 2.75 -15.05 -3.45 -10.65 -7.85 -6.25 -12.25 -0.05 -12.25 6.2 -12.25 10.55 -7.85 14.0 -4.4 14.75 0.15 L14.95 2.75 14.8 5.05 Q14.35 8.4 12.45 11.15 13.9 13.5 14.55 16.25 L14.8 17.75 -19.9 17.75" fill="#ffff00" fill-rule="evenodd" stroke="none"/>
    <path d="M-19.9 17.75 L-19.6 16.25 Q-18.55 11.55 -14.9 7.9 L-14.35 7.35 Q-15.05 5.2 -15.05 2.75 -15.05 -3.45 -10.65 -7.85 -6.25 -12.25 -0.05 -12.25 6.2 -12.25 10.55 -7.85 14.0 -4.4 14.75 0.15 L14.95 2.75 14.8 5.05 Q14.35 8.4 12.45 11.15 13.9 13.5 14.55 16.25 L14.8 17.75" fill="none" stroke="#000000" stroke-linecap="round" stroke-linejoin="round" stroke-width="2.0"/>
    <path d="M19.95 2.75 L14.95 2.75 19.95 2.75 14.8 5.05 14.95 2.75 14.75 0.15 19.95 2.75" fill="#ffcc00" fill-rule="evenodd" stroke="none"/>
    <path d="M6.15 -7.1 L6.45 -7.0 6.65 -6.9 6.7 -6.9 7.25 -6.65 Q5.95 -6.45 4.95 -5.45 3.6 -4.1 3.65 -2.25 3.65 -0.35 4.95 0.95 5.95 1.95 7.3 2.2 6.25 2.75 4.95 2.75 2.9 2.75 1.4 1.3 -0.05 -0.15 -0.05 -2.25 -0.05 -4.3 1.4 -5.8 2.55 -6.95 4.15 -7.15 L4.85 -7.25 4.95 -7.25 5.05 -7.25 6.15 -7.1" fill="#ffffff" fill-rule="evenodd" stroke="none"/>
    <path d="M7.3 2.2 Q5.95 1.95 4.95 0.95 3.65 -0.35 3.65 -2.25 3.6 -4.1 4.95 -5.45 5.95 -6.45 7.25 -6.65 L8.2 -6.1 8.45 -5.85 8.5 -5.8 8.95 -5.25 9.35 -4.55 8.5 -4.7 Q7.4 -4.7 6.7 -4.0 6.0 -3.3 6.05 -2.25 6.0 -1.2 6.7 -0.5 7.45 0.25 8.5 0.2 L9.4 0.1 8.5 1.3 Q7.95 1.85 7.3 2.2" fill="#00ccff" fill-rule="evenodd" stroke="none"/>
    <path d="M9.4 0.1 L8.5 0.2 Q7.45 0.25 6.7 -0.5 6.0 -1.2 6.05 -2.25 6.0 -3.3 6.7 -4.0 7.4 -4.7 8.5 -4.7 L9.35 -4.55 9.9 -3.0 9.95 -2.25 9.75 -0.75 9.7 -0.5 9.4 0.1" fill="#000000" fill-rule="evenodd" stroke="none"/>
    <path d="M14.95 2.75 L19.95 2.75 M14.75 0.15 L14.95 2.75 14.8 5.05 M6.15 -7.1 L5.05 -7.25 4.95 -7.25 4.85 -7.25 4.15 -7.15 Q2.55 -6.95 1.4 -5.8 -0.05 -4.3 -0.05 -2.25 -0.05 -0.15 1.4 1.3 2.9 2.75 4.95 2.75 6.25 2.75 7.3 2.2 7.95 1.85 8.5 1.3 L9.4 0.1 8.5 0.2 Q7.45 0.25 6.7 -0.5 6.0 -1.2 6.05 -2.25 6.0 -3.3 6.7 -4.0 7.4 -4.7 8.5 -4.7 L9.35 -4.55 8.95 -5.25 8.5 -5.8 8.45 -5.85 8.2 -6.1 7.25 -6.65 6.7 -6.9 6.65 -6.9 M9.4 0.1 L9.7 -0.5 9.75 -0.75 9.95 -2.25 9.9 -3.0 9.35 -4.55" fill="none" stroke="#000000" stroke-linecap="round" stroke-linejoin="round" stroke-width="1.0"/>
    <path d="M19.95 2.75 L14.75 0.15 M14.8 5.05 L19.95 2.75" fill="none" stroke="#000000" stroke-linecap="round" stroke-linejoin="round" stroke-width="2.0"/>
    <path d="M-14.85 -13.4 Q-15.5 -9.85 -19.55 -9.2 -19.15 -12.4 -14.85 -13.4 -13.9 -17.0 -10.05 -17.7 -11.35 -13.7 -14.85 -13.4" fill="#ffffff" fill-rule="evenodd" stroke="none"/>
    <path d="M-10.05 3.15 L-14.35 7.35 Q-15.05 5.2 -15.05 2.75 -15.05 -3.45 -10.65 -7.85 L-10.05 -8.4 Q-11.45 -2.6 -10.05 3.15" fill="#ff0000" fill-rule="evenodd" stroke="none"/>
    <path d="M0.75 -7.3 L-3.55 -3.1 -10.05 -8.4 Q-4.65 -8.9 0.75 -7.3" fill="#ffff00" fill-rule="evenodd" stroke="none"/>
    <path d="M-3.55 -3.1 L-10.05 3.15 Q-11.45 -2.6 -10.05 -8.4 L-3.55 -3.1" fill="#ff9900" fill-rule="evenodd" stroke="none"/>
    <path d="M-10.05 -8.4 Q-5.85 -12.25 -0.05 -12.25 2.65 -12.25 5.0 -11.4 L0.75 -7.3 Q-4.65 -8.9 -10.05 -8.4" fill="#00ff00" fill-rule="evenodd" stroke="none"/>
    <path d="M-14.85 -13.4 L-10.05 -8.4 Q-5.85 -12.25 -0.05 -12.25 2.65 -12.25 5.0 -11.4 L0.75 -7.3 -3.55 -3.1 -10.05 3.15 -14.35 7.35 Q-15.05 5.2 -15.05 2.75 -15.05 -3.45 -10.65 -7.85 L-10.05 -8.4 Q-4.65 -8.9 0.75 -7.3 M-14.85 -13.4 Q-15.5 -9.85 -19.55 -9.2 -19.15 -12.4 -14.85 -13.4 -13.9 -17.0 -10.05 -17.7 -11.35 -13.7 -14.85 -13.4 M-10.05 -8.4 L-3.55 -3.1 M-10.05 3.15 Q-11.45 -2.6 -10.05 -8.4" fill="none" stroke="#000000" stroke-linecap="round" stroke-linejoin="round" stroke-width="2.0"/>
  </g>
</svg>
