<?xml version="1.0" encoding="UTF-8" standalone="no"?>
<svg xmlns:ffdec="https://www.free-decompiler.com/flash" xmlns:xlink="http://www.w3.org/1999/xlink" ffdec:objectType="shape" height="48.65px" width="46.3px" xmlns="http://www.w3.org/2000/svg">
  <g transform="matrix(1.0, 0.0, 0.0, 1.0, 23.15, 24.3)">
    <path d="M-15.65 23.25 L-15.35 22.1 Q-15.25 21.65 -15.1 21.15 -14.95 20.7 -14.75 20.25 -14.55 19.8 -14.35 19.4 -14.1 18.95 -13.85 18.55 -13.6 18.1 -13.3 17.7 -13.0 17.3 -12.65 16.95 -12.3 16.55 -11.95 16.15 -11.6 15.8 -11.15 15.4 L-10.7 15.0 Q-10.8 14.8 -10.85 14.55 -10.9 14.35 -10.95 14.1 -11.0 13.9 -11.05 13.65 -11.1 13.45 -11.15 13.2 -11.2 13.0 -11.2 12.75 -11.25 12.5 -11.25 12.25 -11.3 12.05 -11.3 11.8 -11.3 11.55 -11.3 11.3 -11.3 10.7 -11.25 10.1 -11.2 9.5 -11.05 8.9 -10.95 8.35 -10.75 7.8 -10.55 7.25 -10.35 6.7 -10.1 6.2 -9.8 5.7 -9.45 5.2 -9.1 4.7 -8.75 4.2 -8.3 3.75 -7.9 3.3 -7.4 2.85 -6.9 2.4 -6.4 2.05 -5.9 1.65 -5.35 1.3 -4.8 1.0 -4.25 0.7 -3.65 0.45 -3.05 0.2 -2.5 0.0 -1.85 -0.15 -1.25 -0.3 -0.6 -0.45 0.05 -0.55 0.7 -0.6 1.35 -0.65 2.05 -0.65 2.75 -0.65 3.4 -0.6 4.1 -0.55 4.75 -0.45 5.35 -0.3 6.0 -0.15 6.6 0.0 7.2 0.2 7.8 0.45 8.35 0.7 8.9 1.0 9.45 1.3 10.0 1.65 10.5 2.05 11.0 2.4 11.5 2.85 11.9 3.2 12.25 3.55 12.55 3.9 12.9 4.3 13.2 4.65 13.45 5.05 13.75 5.45 13.95 5.85 14.2 6.25 14.4 6.65 14.6 7.05 14.75 7.5 14.9 7.9 15.0 8.35 15.15 8.8 15.25 9.25 L15.4 11.3 15.25 13.15 Q15.2 13.5 15.15 13.8 15.05 14.15 15.0 14.45 14.9 14.75 14.8 15.1 14.65 15.4 14.55 15.7 14.4 16.0 14.25 16.3 14.1 16.6 13.95 16.9 13.75 17.15 13.6 17.45 13.4 17.75 13.2 18.0 13.35 18.25 13.5 18.5 13.65 18.7 13.8 18.95 13.95 19.2 14.05 19.45 14.2 19.7 14.3 19.95 14.4 20.2 14.5 20.5 14.6 20.75 14.7 21.0 14.8 21.25 14.9 21.55 15.0 21.8 15.05 22.1 L15.25 23.25 -15.65 23.25" fill="#ffff00" fill-rule="nonzero" stroke="none"/>
    <path d="M-15.65 23.25 L-15.35 22.1 Q-15.25 21.65 -15.1 21.15 -14.95 20.7 -14.75 20.25 -14.55 19.8 -14.35 19.4 -14.1 18.95 -13.85 18.55 -13.6 18.1 -13.3 17.7 -13.0 17.3 -12.65 16.95 -12.3 16.55 -11.95 16.15 -11.6 15.8 -11.15 15.4 L-10.7 15.0 Q-10.8 14.8 -10.85 14.55 -10.9 14.35 -10.95 14.1 -11.0 13.9 -11.05 13.65 -11.1 13.45 -11.15 13.2 -11.2 13.0 -11.2 12.75 -11.25 12.5 -11.25 12.25 -11.3 12.05 -11.3 11.8 -11.3 11.55 -11.3 11.3 -11.3 10.7 -11.25 10.1 -11.2 9.5 -11.05 8.9 -10.95 8.35 -10.75 7.8 -10.55 7.25 -10.35 6.7 -10.1 6.2 -9.8 5.7 -9.45 5.2 -9.1 4.7 -8.75 4.2 -8.3 3.75 -7.9 3.3 -7.4 2.85 -6.9 2.4 -6.4 2.05 -5.9 1.65 -5.35 1.3 -4.8 1.0 -4.25 0.7 -3.65 0.45 -3.05 0.2 -2.5 0.0 -1.85 -0.15 -1.25 -0.3 -0.6 -0.45 0.05 -0.55 0.7 -0.6 1.35 -0.65 2.05 -0.65 2.75 -0.65 3.4 -0.6 4.1 -0.55 4.75 -0.45 5.35 -0.3 6.0 -0.15 6.6 0.0 7.2 0.2 7.8 0.45 8.35 0.7 8.9 1.0 9.45 1.3 10.0 1.65 10.5 2.05 11.0 2.4 11.5 2.85 11.9 3.2 12.25 3.55 12.55 3.9 12.9 4.3 13.2 4.65 13.45 5.05 13.75 5.45 13.95 5.85 14.2 6.25 14.4 6.65 14.6 7.05 14.75 7.5 14.9 7.9 15.0 8.35 15.15 8.8 15.25 9.25 L15.4 11.3 15.25 13.15 Q15.2 13.5 15.15 13.8 15.05 14.15 15.0 14.45 14.9 14.75 14.8 15.1 14.65 15.4 14.55 15.7 14.4 16.0 14.25 16.3 14.1 16.6 13.95 16.9 13.75 17.15 13.6 17.45 13.4 17.75 13.2 18.0 13.35 18.25 13.5 18.5 13.65 18.7 13.8 18.95 13.95 19.2 14.05 19.45 14.2 19.7 14.3 19.95 14.4 20.2 14.5 20.5 14.6 20.75 14.7 21.0 14.8 21.25 14.9 21.55 15.0 21.8 15.05 22.1 L15.25 23.25" fill="none" stroke="#000000" stroke-linecap="round" stroke-linejoin="round" stroke-width="2.0"/>
    <path d="M19.85 11.3 L15.4 11.3 19.85 11.3 15.25 13.15 15.4 11.3 15.25 9.25 19.85 11.3" fill="#ffcc00" fill-rule="nonzero" stroke="none"/>
    <path d="M7.55 3.45 L7.85 3.55 8.0 3.6 8.05 3.6 8.55 3.8 Q8.4 3.8 8.25 3.85 8.1 3.9 8.0 3.95 7.85 3.95 7.7 4.0 7.6 4.05 7.45 4.15 7.35 4.2 7.2 4.25 7.1 4.35 6.95 4.4 6.85 4.5 6.75 4.6 6.6 4.65 6.5 4.75 6.35 4.9 6.2 5.05 6.1 5.2 6.0 5.35 5.85 5.45 5.75 5.65 5.7 5.8 5.6 5.95 5.55 6.1 5.5 6.25 5.45 6.45 5.4 6.6 5.35 6.8 5.35 6.95 5.35 7.15 5.35 7.3 5.35 7.5 5.35 7.7 5.4 7.85 5.4 8.05 5.45 8.2 5.5 8.4 5.55 8.55 5.65 8.7 5.7 8.9 5.8 9.05 5.9 9.2 6.0 9.35 6.1 9.45 6.25 9.6 6.35 9.75 6.5 9.85 6.6 9.95 6.75 10.05 6.85 10.15 6.95 10.25 7.1 10.3 7.2 10.4 7.35 10.45 7.45 10.5 7.6 10.6 7.75 10.65 7.85 10.7 8.0 10.75 8.15 10.8 8.3 10.8 8.45 10.85 8.6 10.85 8.5 10.9 8.35 10.95 8.25 11.0 8.1 11.05 8.0 11.1 7.85 11.15 7.75 11.15 7.6 11.2 7.45 11.25 7.35 11.25 7.2 11.25 7.05 11.3 6.95 11.3 6.8 11.3 6.65 11.3 6.5 11.3 6.25 11.3 6.05 11.3 5.85 11.25 5.6 11.25 5.4 11.2 5.2 11.15 5.0 11.1 4.8 11.0 4.6 10.95 4.4 10.85 4.2 10.75 4.05 10.65 3.85 10.55 3.7 10.4 3.5 10.3 3.35 10.15 3.2 10.0 3.05 9.85 2.9 9.7 2.8 9.55 2.65 9.4 2.55 9.2 2.45 9.05 2.35 8.85 2.3 8.7 2.25 8.5 2.15 8.3 2.15 8.15 2.1 7.95 2.05 7.75 2.05 7.55 2.05 7.3 2.05 7.1 2.05 6.9 2.1 6.7 2.15 6.5 2.15 6.35 2.25 6.15 2.3 5.95 2.35 5.8 2.45 5.6 2.55 5.45 2.65 5.3 2.75 5.1 2.9 4.95 3.05 4.8 3.2 4.65 3.35 4.5 3.5 4.4 3.6 4.3 3.75 4.2 3.9 4.1 4.0 4.0 4.15 3.9 4.3 3.85 4.45 3.75 4.6 3.7 4.8 3.65 4.95 3.6 5.1 3.55 5.25 3.5 5.45 3.45 5.6 3.45 5.8 3.4 L6.4 3.35 6.5 3.35 6.6 3.35 7.55 3.45" fill="#ffffff" fill-rule="nonzero" stroke="none"/>
    <path d="M8.6 10.85 Q8.45 10.85 8.3 10.8 8.15 10.75 8.0 10.75 7.85 10.7 7.75 10.65 7.6 10.6 7.45 10.5 7.35 10.45 7.2 10.4 7.1 10.3 6.95 10.25 6.85 10.15 6.75 10.05 6.6 9.95 6.5 9.85 6.35 9.75 6.25 9.6 6.1 9.45 6.0 9.3 5.9 9.15 5.8 9.0 5.7 8.85 5.65 8.7 5.55 8.55 5.5 8.4 5.45 8.2 5.4 8.05 5.4 7.9 5.35 7.7 5.35 7.5 5.35 7.3 5.35 7.1 5.35 6.95 5.35 6.75 5.4 6.6 5.45 6.45 5.5 6.25 5.55 6.1 5.6 5.95 5.7 5.8 5.75 5.65 5.85 5.5 6.0 5.35 6.1 5.2 6.2 5.05 6.35 4.9 6.5 4.75 6.6 4.65 6.75 4.55 6.85 4.5 6.95 4.4 7.1 4.35 7.2 4.25 7.35 4.2 7.45 4.15 7.6 4.05 7.7 4.0 7.85 3.95 8.0 3.95 8.1 3.9 8.25 3.85 8.4 3.85 8.55 3.8 L9.4 4.25 9.6 4.45 9.65 4.5 10.05 4.95 10.4 5.5 9.65 5.35 Q9.55 5.35 9.4 5.35 9.3 5.4 9.2 5.4 9.1 5.4 8.95 5.45 8.85 5.45 8.75 5.5 8.65 5.55 8.55 5.6 8.5 5.65 8.4 5.7 8.3 5.75 8.2 5.8 8.15 5.85 8.05 5.95 7.95 6.0 7.9 6.1 7.85 6.15 7.8 6.25 7.75 6.3 7.7 6.4 7.65 6.45 7.6 6.55 7.55 6.65 7.55 6.75 7.5 6.85 7.5 6.9 7.5 7.0 7.5 7.1 7.45 7.2 7.5 7.3 7.5 7.4 7.5 7.5 7.5 7.6 7.5 7.7 7.5 7.8 7.55 7.9 7.55 8.0 7.6 8.1 7.65 8.2 7.7 8.25 7.75 8.35 7.8 8.4 7.85 8.5 7.9 8.55 8.0 8.65 8.05 8.7 8.15 8.8 8.2 8.85 8.3 8.9 8.4 8.95 8.5 9.05 8.6 9.05 8.7 9.1 8.8 9.15 8.9 9.2 9.0 9.2 9.1 9.25 9.2 9.25 9.3 9.25 9.45 9.3 9.55 9.3 9.65 9.3 L10.45 9.2 9.65 10.15 8.6 10.85" fill="#00ccff" fill-rule="nonzero" stroke="none"/>
    <path d="M10.45 9.2 L9.65 9.3 Q9.55 9.3 9.4 9.3 9.3 9.3 9.2 9.25 9.1 9.25 9.0 9.2 8.9 9.2 8.8 9.15 8.7 9.1 8.6 9.1 8.5 9.05 8.4 9.0 8.3 8.9 8.25 8.85 8.15 8.8 8.05 8.7 7.95 8.65 7.9 8.55 7.85 8.5 7.8 8.4 7.75 8.35 7.7 8.25 7.65 8.15 7.6 8.1 7.55 8.0 7.55 7.9 7.5 7.8 7.5 7.7 7.5 7.65 7.5 7.55 7.45 7.45 7.5 7.3 7.5 7.2 7.5 7.1 7.5 7.0 7.5 6.9 7.5 6.8 7.55 6.75 7.55 6.65 7.6 6.55 7.65 6.45 7.7 6.4 7.75 6.3 7.8 6.2 7.85 6.15 7.9 6.05 8.0 6.0 8.05 5.95 8.15 5.9 8.2 5.8 8.3 5.75 8.4 5.7 8.5 5.65 8.55 5.6 8.65 5.55 8.75 5.5 8.85 5.5 9.0 5.45 9.1 5.4 9.2 5.4 9.3 5.4 9.4 5.4 9.55 5.35 9.65 5.35 L10.4 5.5 10.9 6.7 10.95 7.3 10.75 8.5 10.75 8.7 10.45 9.2" fill="#000000" fill-rule="nonzero" stroke="none"/>
    <path d="M15.4 11.3 L19.85 11.3 M15.25 9.25 L15.4 11.3 15.25 13.15 M7.55 3.45 L6.6 3.35 6.5 3.35 6.4 3.35 5.8 3.4 Q5.6 3.4 5.45 3.45 5.25 3.5 5.1 3.55 4.95 3.6 4.8 3.65 4.6 3.7 4.45 3.75 4.3 3.85 4.15 3.9 4.0 4.0 3.9 4.1 3.75 4.15 3.6 4.25 3.45 4.4 3.35 4.5 3.2 4.65 3.05 4.8 2.9 4.95 2.8 5.1 2.65 5.3 2.55 5.45 2.45 5.6 2.35 5.8 2.3 5.95 2.25 6.15 2.15 6.35 2.15 6.55 2.1 6.7 2.05 6.9 2.05 7.1 2.05 7.3 2.05 7.5 2.05 7.7 2.1 7.9 2.15 8.1 2.15 8.3 2.25 8.5 2.3 8.7 2.35 8.85 2.45 9.05 2.55 9.2 2.65 9.4 2.75 9.55 2.9 9.7 3.05 9.85 3.2 10.0 3.35 10.15 3.5 10.3 3.7 10.4 3.85 10.55 4.05 10.65 4.2 10.75 4.4 10.85 4.6 10.95 4.8 11.0 5.0 11.1 5.2 11.15 5.4 11.2 5.6 11.25 5.85 11.25 6.05 11.3 6.25 11.3 6.5 11.3 6.65 11.3 6.8 11.3 6.95 11.3 7.05 11.3 7.2 11.25 7.35 11.25 7.45 11.25 7.6 11.2 7.75 11.15 7.85 11.15 8.0 11.1 8.1 11.05 8.25 11.0 8.35 10.95 8.5 10.95 8.6 10.85 L9.65 10.15 10.45 9.2 9.65 9.3 Q9.55 9.3 9.4 9.3 9.3 9.3 9.2 9.25 9.1 9.25 9.0 9.2 8.9 9.2 8.8 9.15 8.7 9.1 8.6 9.1 8.5 9.05 8.4 9.0 8.3 8.9 8.25 8.85 8.15 8.8 8.05 8.7 7.95 8.65 7.9 8.55 7.85 8.5 7.8 8.4 7.75 8.35 7.7 8.25 7.65 8.15 7.6 8.1 7.55 8.0 7.55 7.9 7.5 7.8 7.5 7.7 7.5 7.65 7.5 7.55 7.45 7.45 7.5 7.3 7.5 7.2 7.5 7.1 7.5 7.0 7.5 6.9 7.5 6.8 7.55 6.75 7.55 6.65 7.6 6.55 7.65 6.45 7.7 6.4 7.75 6.3 7.8 6.2 7.85 6.15 7.9 6.05 8.0 6.0 8.05 5.95 8.15 5.9 8.2 5.8 8.3 5.75 8.4 5.7 8.5 5.65 8.55 5.6 8.65 5.55 8.75 5.5 8.85 5.5 9.0 5.45 9.1 5.4 9.2 5.4 9.3 5.4 9.4 5.4 9.55 5.35 9.65 5.35 L10.4 5.5 10.05 4.95 9.65 4.5 9.6 4.45 9.4 4.25 8.55 3.8 8.05 3.6 8.0 3.6 M10.45 9.2 L10.75 8.7 10.75 8.5 10.95 7.3 10.9 6.7 10.4 5.5" fill="none" stroke="#000000" stroke-linecap="round" stroke-linejoin="round" stroke-width="1.0"/>
    <path d="M19.85 11.3 L15.25 9.25 M15.25 13.15 L19.85 11.3" fill="none" stroke="#000000" stroke-linecap="round" stroke-linejoin="round" stroke-width="2.0"/>
    <path d="M-12.9 -15.15 L12.9 -15.15 12.9 7.2 -12.9 7.2 -12.9 -15.15 -12.9 -15.15" fill="#e8c09e" fill-rule="nonzero" stroke="none"/>
    <path d="M-12.9 -15.15 L12.9 -15.15 12.9 7.2 -12.9 7.2 -12.9 -15.15 -12.9 -15.15 Z" fill="none" stroke="#8f7651" stroke-linecap="butt" stroke-linejoin="miter-clip" stroke-miterlimit="4.0" stroke-width="1.0"/>
    <path d="M13.35 -15.25 L23.15 -12.6 23.15 5.2 13.35 7.85 13.35 -15.25" fill="#e8c09e" fill-rule="nonzero" stroke="none"/>
    <path d="M13.35 -15.25 L23.15 -12.6 23.15 5.2 13.35 7.85 13.35 -15.25 13.35 -15.25 M14.25 -14.2 L14.25 6.8 22.25 4.6 22.25 -12.0 14.25 -14.2 14.25 -14.2" fill="#8f7651" fill-rule="nonzero" stroke="none"/>
    <path d="M-13.35 -15.25 L-23.15 -12.6 -23.15 5.2 -13.35 7.85 -13.35 -15.25" fill="#e8c09e" fill-rule="nonzero" stroke="none"/>
    <path d="M-13.35 -15.25 L-23.15 -12.6 -23.15 5.2 -13.35 7.85 -13.35 -15.25 -13.35 -15.25 M-14.25 -14.2 L-14.25 6.8 -22.25 4.6 -22.25 -12.0 -14.25 -14.2 -14.25 -14.2" fill="#8f7651" fill-rule="nonzero" stroke="none"/>
    <path d="M13.35 -15.25 L10.3 -24.05 -10.3 -24.05 -13.35 -15.25 13.35 -15.25" fill="#e8c09e" fill-rule="nonzero" stroke="none"/>
    <path d="M13.35 -15.25 L10.3 -24.05 -10.3 -24.05 -13.35 -15.25 13.35 -15.25 13.35 -15.25 M12.15 -16.05 L-12.15 -16.05 -9.65 -23.25 9.65 -23.25 12.15 -16.05 12.15 -16.05" fill="#8f7651" fill-rule="nonzero" stroke="none"/>
  </g>
</svg>
