<?xml version="1.0" encoding="UTF-8" standalone="no"?>
<svg xmlns:ffdec="https://www.free-decompiler.com/flash" xmlns:xlink="http://www.w3.org/1999/xlink" ffdec:objectType="shape" height="31.95px" width="41.2px" xmlns="http://www.w3.org/2000/svg">
  <g transform="matrix(1.0, 0.0, 0.0, 1.0, 20.6, 15.95)">
    <path d="M12.15 -6.9 Q9.45 -6.9 9.45 -4.2 9.45 -3.45 9.8 -2.75 10.45 -1.55 12.15 -1.55 13.35 -1.55 14.25 -2.6 14.85 -3.45 14.85 -4.1 14.85 -6.95 12.15 -6.9 M2.7 -4.1 Q2.7 -6.55 0.0 -6.75 -2.7 -7.0 -2.7 -4.2 L-2.4 -2.75 Q-1.7 -1.55 0.0 -1.55 1.2 -1.55 2.1 -2.6 2.7 -3.45 2.7 -4.1 M6.75 -2.55 Q7.95 -2.55 8.85 -3.65 9.45 -4.45 9.45 -5.1 9.45 -7.55 6.75 -7.75 4.05 -8.05 4.05 -5.2 4.05 -4.5 4.45 -3.75 5.1 -2.55 6.75 -2.55 M8.1 1.95 Q8.1 -0.45 5.4 -0.65 2.7 -0.95 2.7 1.9 2.7 2.65 3.0 3.3 3.7 4.55 5.4 4.55 6.6 4.55 7.5 3.45 8.1 2.65 8.1 1.95 M12.1 -10.85 Q15.2 -6.75 17.55 0.4 19.6 6.65 19.6 9.7 19.6 14.4 13.55 14.9 L5.75 14.7 -4.2 14.8 -7.65 15.0 Q-12.6 15.0 -16.55 10.7 -19.6 7.4 -19.6 5.95 L-19.5 4.7 Q-19.2 4.0 -18.25 3.55 L-15.2 3.3 -12.2 2.85 -9.95 1.05 Q-7.7 -0.55 -5.1 -0.6 3.15 -22.6 12.1 -10.85 M15.25 4.9 Q15.85 4.05 15.85 3.3 15.85 0.95 13.15 0.7 10.45 0.4 10.45 3.25 L10.8 4.6 Q11.55 5.9 13.15 5.9 14.45 5.9 15.25 4.9 M12.8 11.7 Q13.55 13.0 15.2 13.0 16.45 13.0 17.3 11.95 17.9 11.15 17.9 10.4 17.9 8.05 15.2 7.8 13.7 7.65 13.0 8.45 12.35 7.6 10.8 7.45 8.1 7.2 8.1 10.0 8.1 10.7 8.5 11.45 9.15 12.65 10.8 12.65 11.95 12.65 12.8 11.7 M-3.0 4.9 Q-2.4 4.05 -2.4 3.3 -2.4 0.95 -5.1 0.7 -7.8 0.4 -7.8 3.25 L-7.45 4.6 Q-6.7 5.9 -5.1 5.9 -3.8 5.9 -3.0 4.9 M4.05 6.7 Q4.05 4.35 1.35 4.05 -1.35 3.8 -1.35 6.65 L-1.05 8.05 Q-0.35 9.25 1.35 9.25 2.6 9.25 3.45 8.25 4.05 7.45 4.05 6.7 M-5.7 13.1 Q-5.0 14.35 -3.4 14.35 -2.0 14.35 -1.05 12.85 -0.35 11.75 -0.35 11.1 -0.35 8.1 -3.2 8.4 -6.1 8.65 -6.1 11.7 -6.1 12.4 -5.7 13.1 M-7.8 9.75 Q-7.8 6.9 -10.5 6.9 -13.2 6.95 -13.2 9.7 -13.2 10.35 -12.8 11.1 -12.1 12.3 -10.5 12.3 -9.2 12.3 -8.4 11.3 -7.8 10.5 -7.8 9.75" fill="#ffcc66" fill-rule="evenodd" stroke="none"/>
    <path d="M6.75 -2.55 Q5.1 -2.55 4.45 -3.75 4.05 -4.5 4.05 -5.2 4.05 -8.05 6.75 -7.75 9.45 -7.55 9.45 -5.1 9.45 -4.45 8.85 -3.65 7.95 -2.55 6.75 -2.55 M15.25 4.9 Q14.45 5.9 13.15 5.9 11.55 5.9 10.8 4.6 L10.45 3.25 Q10.45 0.4 13.15 0.7 15.85 0.95 15.85 3.3 15.85 4.05 15.25 4.9 M12.8 11.7 Q11.95 12.65 10.8 12.65 9.15 12.65 8.5 11.45 8.1 10.7 8.1 10.0 8.1 7.2 10.8 7.45 12.35 7.6 13.0 8.45 12.5 9.05 12.5 10.35 L12.8 11.7 M4.05 6.7 Q4.05 7.45 3.45 8.25 2.6 9.25 1.35 9.25 -0.35 9.25 -1.05 8.05 L-1.35 6.65 Q-1.35 3.8 1.35 4.05 4.05 4.35 4.05 6.7 M-3.0 4.9 Q-3.8 5.9 -5.1 5.9 -6.7 5.9 -7.45 4.6 L-7.8 3.25 Q-7.8 0.4 -5.1 0.7 -2.4 0.95 -2.4 3.3 -2.4 4.05 -3.0 4.9 M-7.8 9.75 Q-7.8 10.5 -8.4 11.3 -9.2 12.3 -10.5 12.3 -12.1 12.3 -12.8 11.1 -13.2 10.35 -13.2 9.7 -13.2 6.95 -10.5 6.9 -7.8 6.9 -7.8 9.75" fill="#cc9966" fill-rule="evenodd" stroke="none"/>
    <path d="M2.7 -4.1 Q2.7 -3.45 2.1 -2.6 1.2 -1.55 0.0 -1.55 -1.7 -1.55 -2.4 -2.75 L-2.7 -4.2 Q-2.7 -7.0 0.0 -6.75 2.7 -6.55 2.7 -4.1 M12.15 -6.9 Q14.85 -6.95 14.85 -4.1 14.85 -3.45 14.25 -2.6 13.35 -1.55 12.15 -1.55 10.45 -1.55 9.8 -2.75 9.45 -3.45 9.45 -4.2 9.45 -6.9 12.15 -6.9 M8.1 1.95 Q8.1 2.65 7.5 3.45 6.6 4.55 5.4 4.55 3.7 4.55 3.0 3.3 2.7 2.65 2.7 1.9 2.7 -0.95 5.4 -0.65 8.1 -0.45 8.1 1.95 M13.0 8.45 Q13.7 7.65 15.2 7.8 17.9 8.05 17.9 10.4 17.9 11.15 17.3 11.95 16.45 13.0 15.2 13.0 13.55 13.0 12.8 11.7 L12.5 10.35 Q12.5 9.05 13.0 8.45 M-5.7 13.1 Q-6.1 12.4 -6.1 11.7 -6.1 8.65 -3.2 8.4 -0.35 8.1 -0.35 11.1 -0.35 11.75 -1.05 12.85 -2.0 14.35 -3.4 14.35 -5.0 14.35 -5.7 13.1" fill="#ffff99" fill-rule="evenodd" stroke="none"/>
    <path d="M12.1 -10.85 Q15.2 -6.75 17.55 0.4 19.6 6.65 19.6 9.7 19.6 14.4 13.55 14.9 L5.75 14.7 -4.2 14.8 -7.65 15.0 Q-12.6 15.0 -16.55 10.7 -19.6 7.4 -19.6 5.95 L-19.5 4.7 Q-19.2 4.0 -18.25 3.55 L-15.2 3.3 -12.2 2.85 -9.95 1.05 Q-7.7 -0.55 -5.1 -0.6 3.15 -22.6 12.1 -10.85 Z" fill="none" stroke="#000000" stroke-linecap="round" stroke-linejoin="round" stroke-width="2.0"/>
  </g>
</svg>
