<?xml version="1.0" encoding="UTF-8" standalone="no"?>
<svg xmlns:ffdec="https://www.free-decompiler.com/flash" xmlns:xlink="http://www.w3.org/1999/xlink" ffdec:objectType="shape" height="41.3px" width="41.85px" xmlns="http://www.w3.org/2000/svg">
  <g transform="matrix(1.0, 0.0, 0.0, 1.0, 20.9, 23.3)">
    <path d="M-19.9 16.35 L-19.6 14.85 Q-19.45 14.25 -19.3 13.7 -19.15 13.15 -18.9 12.6 -18.7 12.05 -18.45 11.55 -18.2 11.0 -17.9 10.5 -17.6 10.0 -17.3 9.5 -16.95 9.0 -16.6 8.5 -16.2 8.0 -15.8 7.55 -15.4 7.1 -14.9 6.65 L-14.35 6.1 Q-14.45 5.85 -14.5 5.55 -14.6 5.3 -14.65 5.05 -14.75 4.75 -14.8 4.45 -14.85 4.2 -14.9 3.9 -14.95 3.65 -14.95 3.35 -15.0 3.05 -15.05 2.75 -15.05 2.45 -15.05 2.2 -15.05 1.9 -15.05 1.6 -15.05 0.85 -15.0 0.1 -14.9 -0.65 -14.8 -1.35 -14.65 -2.05 -14.45 -2.75 -14.25 -3.4 -13.95 -4.05 -13.7 -4.75 -13.35 -5.35 -13.0 -5.95 -12.6 -6.55 -12.2 -7.15 -11.7 -7.75 -11.25 -8.3 -10.7 -8.85 -10.15 -9.4 -9.55 -9.85 -9.0 -10.35 -8.4 -10.75 -7.8 -11.15 -7.15 -11.5 -6.5 -11.8 -5.85 -12.1 -5.2 -12.35 -4.5 -12.55 -3.8 -12.75 -3.1 -12.9 -2.4 -13.05 -1.65 -13.1 -0.9 -13.15 -0.1 -13.15 0.65 -13.15 1.4 -13.1 2.15 -13.05 2.9 -12.9 3.6 -12.75 4.3 -12.55 4.95 -12.35 5.65 -12.1 6.3 -11.8 6.9 -11.5 7.55 -11.15 8.15 -10.75 8.75 -10.35 9.3 -9.85 9.9 -9.4 10.45 -8.85 10.9 -8.4 11.25 -8.0 11.65 -7.55 12.0 -7.1 12.35 -6.6 12.65 -6.15 12.95 -5.65 13.2 -5.2 13.45 -4.7 13.7 -4.2 13.9 -3.65 14.1 -3.15 14.25 -2.6 14.4 -2.1 14.55 -1.55 14.6 -1.0 L14.8 1.6 14.65 3.85 Q14.6 4.25 14.5 4.65 14.45 5.05 14.35 5.45 14.25 5.85 14.15 6.25 14.0 6.6 13.85 7.0 13.7 7.35 13.55 7.75 13.4 8.1 13.2 8.45 13.0 8.8 12.8 9.15 12.55 9.5 12.35 9.85 12.55 10.15 12.7 10.45 12.85 10.7 13.0 11.0 13.15 11.3 13.3 11.65 13.45 11.95 13.6 12.25 13.7 12.55 13.85 12.9 13.95 13.2 14.05 13.55 14.15 13.85 14.25 14.2 14.35 14.5 14.4 14.85 L14.65 16.35 -19.9 16.35" fill="#ffff00" fill-rule="nonzero" stroke="none"/>
    <path d="M-19.9 16.35 L-19.6 14.85 Q-19.45 14.25 -19.3 13.7 -19.15 13.15 -18.9 12.6 -18.7 12.05 -18.45 11.55 -18.2 11.0 -17.9 10.5 -17.6 10.0 -17.3 9.5 -16.95 9.0 -16.6 8.5 -16.2 8.0 -15.8 7.55 -15.4 7.1 -14.9 6.65 L-14.35 6.1 Q-14.45 5.85 -14.5 5.55 -14.6 5.3 -14.65 5.05 -14.75 4.75 -14.8 4.45 -14.85 4.2 -14.9 3.9 -14.95 3.65 -14.95 3.35 -15.0 3.05 -15.05 2.75 -15.05 2.45 -15.05 2.2 -15.05 1.9 -15.05 1.6 -15.05 0.85 -15.0 0.1 -14.9 -0.65 -14.8 -1.35 -14.65 -2.05 -14.45 -2.75 -14.25 -3.4 -13.95 -4.05 -13.7 -4.75 -13.35 -5.35 -13.0 -5.95 -12.6 -6.55 -12.2 -7.15 -11.7 -7.75 -11.25 -8.3 -10.7 -8.85 -10.15 -9.4 -9.55 -9.85 -9.0 -10.35 -8.4 -10.75 -7.8 -11.15 -7.15 -11.5 -6.5 -11.8 -5.85 -12.1 -5.2 -12.35 -4.5 -12.55 -3.8 -12.75 -3.1 -12.9 -2.4 -13.05 -1.65 -13.1 -0.9 -13.15 -0.1 -13.15 0.65 -13.15 1.4 -13.1 2.15 -13.05 2.9 -12.9 3.6 -12.75 4.3 -12.55 4.95 -12.35 5.65 -12.1 6.3 -11.8 6.9 -11.5 7.55 -11.15 8.15 -10.75 8.75 -10.35 9.3 -9.85 9.9 -9.4 10.45 -8.85 10.9 -8.4 11.25 -8.0 11.65 -7.55 12.0 -7.1 12.35 -6.6 12.65 -6.15 12.95 -5.65 13.2 -5.2 13.45 -4.7 13.7 -4.2 13.9 -3.65 14.1 -3.15 14.25 -2.6 14.4 -2.1 14.55 -1.55 14.6 -1.0 L14.8 1.6 14.65 3.85 Q14.6 4.25 14.5 4.65 14.45 5.05 14.35 5.45 14.25 5.85 14.15 6.25 14.0 6.6 13.85 7.0 13.7 7.35 13.55 7.75 13.4 8.1 13.2 8.45 13.0 8.8 12.8 9.15 12.55 9.5 12.35 9.85 12.55 10.15 12.7 10.45 12.85 10.7 13.0 11.0 13.15 11.3 13.3 11.65 13.45 11.95 13.6 12.25 13.7 12.55 13.85 12.9 13.95 13.2 14.05 13.55 14.15 13.85 14.25 14.2 14.35 14.5 14.4 14.85 L14.65 16.35" fill="none" stroke="#000000" stroke-linecap="round" stroke-linejoin="round" stroke-width="2.0"/>
    <path d="M14.6 -1.0 L19.8 1.6 14.8 1.6 19.8 1.6 14.65 3.85 14.8 1.6 14.6 -1.0" fill="#ffcc00" fill-rule="nonzero" stroke="none"/>
    <path d="M7.2 1.05 Q7.05 1.1 6.95 1.15 6.8 1.25 6.65 1.3 6.5 1.35 6.4 1.35 6.25 1.4 6.1 1.45 5.95 1.5 5.8 1.5 5.65 1.55 5.5 1.55 5.35 1.55 5.2 1.55 5.0 1.6 4.85 1.6 4.6 1.6 4.35 1.55 4.1 1.55 3.85 1.5 3.65 1.45 3.4 1.4 3.15 1.3 2.95 1.2 2.75 1.15 2.5 1.0 2.3 0.9 2.1 0.8 1.9 0.65 1.7 0.5 1.5 0.35 1.3 0.15 1.1 -0.05 0.95 -0.2 0.8 -0.4 0.7 -0.6 0.55 -0.8 0.45 -1.0 0.3 -1.2 0.25 -1.45 0.15 -1.65 0.1 -1.9 0.0 -2.1 -0.05 -2.35 -0.1 -2.6 -0.1 -2.85 -0.1 -3.1 -0.1 -3.35 -0.1 -3.6 -0.1 -3.85 -0.05 -4.1 0.0 -4.3 0.0 -4.55 0.1 -4.8 0.15 -5.0 0.25 -5.2 0.35 -5.45 0.45 -5.65 0.55 -5.85 0.7 -6.05 0.8 -6.25 1.0 -6.45 1.15 -6.65 1.3 -6.85 1.45 -7.0 1.6 -7.1 1.75 -7.25 1.9 -7.35 2.05 -7.45 2.25 -7.55 2.4 -7.65 2.6 -7.75 2.75 -7.8 2.95 -7.9 3.1 -7.95 3.3 -8.0 3.5 -8.05 3.65 -8.1 3.85 -8.15 4.05 -8.15 L4.75 -8.25 4.85 -8.25 4.95 -8.25 6.05 -8.1 6.35 -8.0 6.55 -7.9 6.6 -7.9 7.15 -7.65 Q7.0 -7.65 6.85 -7.6 6.65 -7.55 6.5 -7.5 6.35 -7.45 6.2 -7.4 6.05 -7.35 5.95 -7.25 5.8 -7.2 5.65 -7.1 5.5 -7.05 5.35 -6.95 5.25 -6.85 5.1 -6.7 5.0 -6.6 4.85 -6.5 4.7 -6.35 4.55 -6.15 4.4 -6.0 4.25 -5.8 4.15 -5.6 4.05 -5.4 3.95 -5.25 3.85 -5.05 3.8 -4.85 3.7 -4.65 3.65 -4.45 3.6 -4.2 3.6 -4.0 3.55 -3.8 3.55 -3.55 3.55 -3.35 3.55 -3.1 3.55 -2.9 3.6 -2.65 3.65 -2.45 3.7 -2.25 3.75 -2.0 3.8 -1.8 3.9 -1.6 3.95 -1.4 4.05 -1.25 4.15 -1.05 4.3 -0.85 4.4 -0.7 4.55 -0.5 4.7 -0.35 4.85 -0.2 5.0 -0.1 5.1 0.05 5.25 0.15 5.35 0.25 5.5 0.35 5.65 0.45 5.8 0.55 5.95 0.6 6.1 0.7 6.25 0.75 6.4 0.8 6.55 0.85 6.7 0.9 6.85 0.95 7.05 1.0 7.2 1.05" fill="#ffffff" fill-rule="nonzero" stroke="none"/>
    <path d="M7.2 1.05 Q7.05 1.0 6.85 0.95 6.7 0.95 6.55 0.85 6.4 0.8 6.25 0.75 6.1 0.7 5.95 0.6 5.8 0.55 5.65 0.45 5.5 0.35 5.4 0.25 5.25 0.15 5.1 0.05 5.0 -0.05 4.85 -0.2 4.7 -0.35 4.55 -0.55 4.4 -0.7 4.3 -0.85 4.15 -1.05 4.05 -1.25 3.95 -1.4 3.9 -1.6 3.8 -1.8 3.75 -2.0 3.7 -2.25 3.65 -2.45 3.6 -2.65 3.6 -2.9 3.55 -3.1 3.55 -3.35 3.55 -3.6 3.55 -3.8 3.6 -4.0 3.6 -4.2 3.65 -4.45 3.7 -4.65 3.8 -4.85 3.85 -5.05 3.95 -5.25 4.05 -5.4 4.15 -5.6 4.25 -5.8 4.4 -5.95 4.55 -6.15 4.7 -6.3 4.85 -6.5 5.0 -6.6 5.1 -6.75 5.25 -6.85 5.35 -6.95 5.5 -7.05 5.65 -7.1 5.8 -7.2 5.95 -7.25 6.05 -7.35 6.2 -7.4 6.35 -7.45 6.5 -7.5 6.65 -7.55 6.85 -7.6 7.0 -7.65 7.15 -7.65 L8.1 -7.1 8.35 -6.9 8.4 -6.85 8.85 -6.3 9.25 -5.6 8.4 -5.75 Q8.25 -5.75 8.15 -5.75 8.0 -5.75 7.85 -5.7 7.75 -5.7 7.65 -5.65 7.5 -5.6 7.4 -5.6 7.3 -5.55 7.2 -5.5 7.05 -5.4 7.0 -5.35 6.9 -5.3 6.8 -5.2 6.7 -5.15 6.6 -5.05 6.5 -4.95 6.45 -4.9 6.35 -4.8 6.3 -4.7 6.25 -4.6 6.2 -4.5 6.15 -4.4 6.1 -4.3 6.05 -4.2 6.0 -4.05 6.0 -3.95 6.0 -3.85 5.95 -3.7 5.95 -3.6 5.95 -3.45 5.95 -3.35 5.95 -3.2 5.95 -3.1 5.95 -2.95 5.95 -2.85 6.0 -2.75 6.0 -2.6 6.05 -2.5 6.1 -2.4 6.15 -2.3 6.2 -2.2 6.25 -2.1 6.3 -2.0 6.35 -1.9 6.45 -1.8 6.5 -1.7 6.6 -1.6 6.7 -1.5 6.8 -1.45 6.9 -1.35 7.0 -1.3 7.1 -1.2 7.2 -1.15 7.3 -1.1 7.4 -1.05 7.55 -1.05 7.65 -1.0 7.75 -0.95 7.9 -0.95 8.0 -0.95 8.15 -0.95 8.25 -0.9 8.4 -0.95 L9.3 -1.05 8.4 0.15 Q8.35 0.2 8.25 0.3 8.2 0.35 8.1 0.4 8.05 0.45 7.95 0.55 7.9 0.6 7.8 0.65 7.75 0.7 7.65 0.75 7.6 0.8 7.5 0.85 7.45 0.9 7.35 0.95 7.3 1.0 7.2 1.05" fill="#00ccff" fill-rule="nonzero" stroke="none"/>
    <path d="M9.3 -1.05 L8.4 -0.95 Q8.25 -0.95 8.15 -0.95 8.0 -0.95 7.9 -0.95 7.75 -1.0 7.65 -1.0 7.55 -1.05 7.4 -1.1 7.3 -1.1 7.2 -1.2 7.1 -1.25 7.0 -1.3 6.9 -1.35 6.8 -1.45 6.7 -1.55 6.6 -1.6 6.5 -1.7 6.45 -1.8 6.35 -1.9 6.3 -2.0 6.25 -2.05 6.2 -2.2 6.15 -2.3 6.1 -2.4 6.05 -2.5 6.0 -2.6 6.0 -2.7 6.0 -2.85 5.95 -2.95 5.95 -3.1 5.95 -3.2 5.95 -3.35 5.95 -3.5 5.95 -3.6 5.95 -3.7 5.95 -3.85 6.0 -3.95 6.0 -4.05 6.05 -4.2 6.1 -4.3 6.15 -4.4 6.2 -4.5 6.25 -4.6 6.3 -4.7 6.35 -4.8 6.45 -4.9 6.5 -4.95 6.6 -5.05 6.7 -5.15 6.8 -5.2 6.85 -5.3 6.95 -5.35 7.05 -5.4 7.2 -5.5 7.3 -5.55 7.4 -5.55 7.5 -5.6 7.65 -5.65 7.75 -5.7 7.85 -5.7 8.0 -5.75 8.15 -5.75 8.25 -5.75 8.4 -5.75 L9.25 -5.6 9.8 -4.1 9.85 -3.35 9.65 -1.85 9.6 -1.6 9.3 -1.05" fill="#000000" fill-rule="nonzero" stroke="none"/>
    <path d="M14.6 -1.0 L14.8 1.6 19.8 1.6 M14.65 3.85 L14.8 1.6 M6.05 -8.1 L4.95 -8.25 4.85 -8.25 4.75 -8.25 4.05 -8.15 Q3.85 -8.15 3.65 -8.1 3.45 -8.05 3.3 -8.0 3.1 -7.95 2.95 -7.9 2.75 -7.8 2.6 -7.75 2.4 -7.65 2.25 -7.55 2.1 -7.45 1.9 -7.35 1.75 -7.2 1.6 -7.1 1.45 -6.95 1.3 -6.85 1.1 -6.65 0.95 -6.45 0.8 -6.25 0.7 -6.05 0.55 -5.85 0.45 -5.65 0.3 -5.45 0.25 -5.2 0.15 -5.0 0.1 -4.8 0.0 -4.55 -0.05 -4.3 -0.1 -4.1 -0.1 -3.85 -0.1 -3.6 -0.1 -3.35 -0.1 -3.1 -0.1 -2.85 -0.05 -2.6 0.0 -2.35 0.0 -2.1 0.1 -1.9 0.15 -1.65 0.25 -1.45 0.35 -1.2 0.45 -1.0 0.55 -0.8 0.7 -0.6 0.8 -0.4 1.0 -0.2 1.15 -0.05 1.3 0.15 1.5 0.35 1.7 0.5 1.9 0.65 2.1 0.8 2.3 0.9 2.5 1.0 2.75 1.15 2.95 1.2 3.15 1.3 3.4 1.4 3.65 1.45 3.85 1.5 4.1 1.55 4.35 1.55 4.6 1.6 4.85 1.6 5.0 1.6 5.15 1.6 5.35 1.55 5.5 1.55 5.65 1.55 5.8 1.5 5.95 1.5 6.1 1.45 6.25 1.4 6.4 1.35 6.5 1.35 6.65 1.25 6.8 1.2 6.95 1.15 7.05 1.1 7.2 1.05 7.3 1.0 7.35 0.95 7.45 0.9 7.5 0.85 7.6 0.8 7.65 0.75 7.75 0.7 7.8 0.65 7.9 0.6 7.95 0.55 8.05 0.45 8.1 0.4 8.2 0.35 8.25 0.3 8.35 0.2 8.4 0.15 L9.3 -1.05 8.4 -0.95 Q8.25 -0.95 8.15 -0.95 8.0 -0.95 7.9 -0.95 7.75 -1.0 7.65 -1.0 7.55 -1.05 7.4 -1.1 7.3 -1.1 7.2 -1.2 7.1 -1.25 7.0 -1.3 6.9 -1.35 6.8 -1.45 6.7 -1.55 6.6 -1.6 6.5 -1.7 6.45 -1.8 6.35 -1.9 6.3 -2.0 6.25 -2.05 6.2 -2.2 6.15 -2.3 6.1 -2.4 6.05 -2.5 6.0 -2.6 6.0 -2.7 6.0 -2.85 5.95 -2.95 5.95 -3.1 5.95 -3.2 5.95 -3.35 5.95 -3.5 5.95 -3.6 5.95 -3.7 5.95 -3.85 6.0 -3.95 6.0 -4.05 6.05 -4.2 6.1 -4.3 6.15 -4.4 6.2 -4.5 6.25 -4.6 6.3 -4.7 6.35 -4.8 6.45 -4.9 6.5 -4.95 6.6 -5.05 6.7 -5.15 6.8 -5.2 6.85 -5.3 6.95 -5.35 7.05 -5.4 7.2 -5.5 7.3 -5.55 7.4 -5.55 7.5 -5.6 7.65 -5.65 7.75 -5.7 7.85 -5.7 8.0 -5.75 8.15 -5.75 8.25 -5.75 8.4 -5.75 L9.25 -5.6 8.85 -6.3 8.4 -6.85 8.35 -6.9 8.1 -7.1 7.15 -7.65 6.6 -7.9 6.55 -7.9 M9.3 -1.05 L9.6 -1.6 9.65 -1.85 9.85 -3.35 9.8 -4.1 9.25 -5.6" fill="none" stroke="#000000" stroke-linecap="round" stroke-linejoin="round" stroke-width="1.0"/>
    <path d="M19.8 1.6 L14.6 -1.0 M19.8 1.6 L14.65 3.85" fill="none" stroke="#000000" stroke-linecap="round" stroke-linejoin="round" stroke-width="2.0"/>
    <path d="M-16.7 6.0 L-16.35 6.4 4.5 -14.2 3.8 -14.75 4.95 -14.15 -16.25 6.8 -16.7 6.0" fill="#ff0000" fill-rule="nonzero" stroke="none"/>
    <path d="M3.8 -14.75 L4.5 -14.2 -16.35 6.4 -16.7 6.0 Q-17.1 5.5 -17.45 5.0 -17.75 4.5 -18.05 4.0 -18.35 3.45 -18.6 2.9 -18.85 2.4 -19.05 1.8 -19.2 1.25 -19.35 0.7 -19.5 0.1 -19.6 -0.5 -19.7 -1.1 -19.75 -1.7 -19.8 -2.3 -19.8 -2.95 -19.8 -3.7 -19.75 -4.45 -19.65 -5.15 -19.55 -5.85 -19.4 -6.55 -19.2 -7.25 -19.0 -7.9 -18.7 -8.55 -18.45 -9.2 -18.1 -9.85 -17.75 -10.45 -17.35 -11.05 -16.95 -11.65 -16.5 -12.2 -16.0 -12.8 -15.45 -13.3 -14.9 -13.85 -14.35 -14.3 -13.75 -14.8 -13.15 -15.2 -12.55 -15.6 -11.95 -15.9 -11.3 -16.25 -10.65 -16.5 -10.0 -16.8 -9.3 -17.0 -8.6 -17.2 -7.9 -17.35 -7.2 -17.45 -6.45 -17.55 -5.7 -17.6 -4.95 -17.6 -4.35 -17.6 -3.75 -17.55 -3.15 -17.5 -2.55 -17.4 -1.95 -17.35 -1.4 -17.2 -0.85 -17.05 -0.3 -16.9 0.25 -16.7 0.8 -16.5 1.3 -16.25 1.8 -16.0 2.35 -15.75 2.85 -15.4 3.35 -15.1 3.8 -14.75" fill="#ffffff" fill-rule="nonzero" stroke="none"/>
    <path d="M3.8 -14.75 L4.5 -14.2 -16.35 6.4 -16.7 6.0 -16.25 6.8 4.95 -14.15 3.8 -14.75 Q3.3 -15.1 2.85 -15.4 2.35 -15.75 1.8 -16.0 1.3 -16.25 0.8 -16.5 0.25 -16.7 -0.3 -16.9 -0.85 -17.05 -1.4 -17.2 -2.0 -17.35 -2.55 -17.4 -3.15 -17.5 -3.75 -17.55 -4.35 -17.6 -4.95 -17.6 -5.7 -17.6 -6.45 -17.55 -7.2 -17.45 -7.9 -17.35 -8.6 -17.2 -9.3 -17.0 -10.0 -16.8 -10.65 -16.55 -11.3 -16.25 -11.95 -15.95 -12.55 -15.6 -13.15 -15.2 -13.75 -14.8 -14.35 -14.3 -14.9 -13.85 -15.45 -13.3 -16.0 -12.75 -16.45 -12.2 -16.95 -11.65 -17.35 -11.05 -17.75 -10.45 -18.1 -9.85 -18.45 -9.2 -18.7 -8.55 -19.0 -7.9 -19.2 -7.25 -19.4 -6.55 -19.55 -5.85 -19.65 -5.15 -19.75 -4.45 -19.8 -3.7 -19.8 -2.95 -19.8 -2.3 -19.75 -1.7 -19.7 -1.1 -19.6 -0.5 -19.5 0.1 -19.35 0.7 -19.2 1.25 -19.05 1.8 -18.85 2.4 -18.6 2.9 -18.35 3.45 -18.05 4.0 -17.8 4.5 -17.45 5.0 -17.1 5.5 -16.7 6.0 M-17.3 7.8 L-16.25 6.8 M4.95 -14.15 L13.35 -22.3" fill="none" stroke="#000000" stroke-linecap="round" stroke-linejoin="round" stroke-width="2.0"/>
    <path d="M-10.3 -3.3 L-15.9 -8.9 -10.3 -14.45 -4.65 -8.9 -10.3 -3.3 -10.3 -3.3 M-10.3 -13.25 L-14.7 -8.9 -10.3 -4.55 -5.85 -8.9 -10.3 -13.25 -10.3 -13.25 M-10.3 -9.5 L-11.5 -10.75 -10.9 -11.35 -9.65 -10.15 -10.3 -9.5 -10.3 -9.5 M-8.4 -8.9 L-9.0 -9.5 -8.4 -10.1 -7.8 -9.5 -8.4 -8.9 -8.4 -8.9 M-11.55 -8.3 L-12.8 -9.5 -12.15 -10.1 -10.9 -8.9 -11.55 -8.3 -11.55 -8.3 M-9.65 -6.4 L-10.25 -7.05 -8.4 -8.85 -7.8 -8.25 -9.65 -6.4 -9.65 -6.4 M-10.9 -6.4 L-11.5 -7.05 -10.9 -7.65 -10.3 -7.05 -10.9 -6.4 -10.9 -6.4" fill="#000000" fill-rule="nonzero" stroke="none"/>
  </g>
</svg>
