<?xml version="1.0" encoding="UTF-8" standalone="no"?>
<svg xmlns:ffdec="https://www.free-decompiler.com/flash" xmlns:xlink="http://www.w3.org/1999/xlink" ffdec:objectType="shape" height="32.0px" width="36.85px" xmlns="http://www.w3.org/2000/svg">
  <g transform="matrix(1.0, 0.0, 0.0, 1.0, 20.55, 10.0)">
    <path d="M-19.55 21.0 L-19.25 19.5 Q-18.2 14.8 -14.55 11.15 L-14.0 10.6 Q-14.7 8.45 -14.7 6.0 -14.7 -0.2 -10.3 -4.6 -5.9 -9.0 0.3 -9.0 6.55 -9.0 10.9 -4.6 14.35 -1.15 15.1 3.4 L15.3 6.0 15.15 8.3 Q14.7 11.65 12.8 14.4 14.25 16.75 14.9 19.5 L15.15 21.0 -19.55 21.0" fill="#ffff00" fill-rule="evenodd" stroke="none"/>
    <path d="M-19.55 21.0 L-19.25 19.5 Q-18.2 14.8 -14.55 11.15 L-14.0 10.6 Q-14.7 8.45 -14.7 6.0 -14.7 -0.2 -10.3 -4.6 -5.9 -9.0 0.3 -9.0 6.55 -9.0 10.9 -4.6 14.35 -1.15 15.1 3.4 L15.3 6.0 15.15 8.3 Q14.7 11.65 12.8 14.4 14.25 16.75 14.9 19.5 L15.15 21.0" fill="none" stroke="#000000" stroke-linecap="round" stroke-linejoin="round" stroke-width="2.0"/>
  </g>
</svg>
