<?xml version="1.0" encoding="UTF-8" standalone="no"?>
<svg xmlns:ffdec="https://www.free-decompiler.com/flash" xmlns:xlink="http://www.w3.org/1999/xlink" ffdec:objectType="shape" height="38.25px" width="39.25px" xmlns="http://www.w3.org/2000/svg">
  <g transform="matrix(1.0, 0.0, 0.0, 1.0, 25.0, 26.65)">
    <path d="M-16.3 -15.9 L5.55 -15.9 5.55 10.2 -16.3 10.2 -16.3 -15.9 -16.3 -15.9" fill="#e8c09e" fill-rule="nonzero" stroke="none"/>
    <path d="M-16.3 -15.9 L5.55 -15.9 5.55 10.2 -16.3 10.2 -16.3 -15.9 -16.3 -15.9 Z" fill="none" stroke="#8f7651" stroke-linecap="butt" stroke-linejoin="miter-clip" stroke-miterlimit="4.0" stroke-width="1.0"/>
    <path d="M5.95 -16.1 L14.25 -12.95 14.25 7.85 5.95 11.0 5.95 -16.1" fill="#e8c09e" fill-rule="nonzero" stroke="none"/>
    <path d="M5.95 -16.1 L14.25 -12.95 14.25 7.85 5.95 11.0 5.95 -16.1 5.95 -16.1 M6.7 -14.8 L6.7 9.7 13.5 7.15 13.5 -12.25 6.7 -14.8 6.7 -14.8" fill="#8f7651" fill-rule="nonzero" stroke="none"/>
    <path d="M-16.7 -16.1 L-25.0 -12.95 -25.0 7.85 -16.7 11.0 -16.7 -16.1" fill="#e8c09e" fill-rule="nonzero" stroke="none"/>
    <path d="M-16.7 -16.1 L-25.0 -12.95 -25.0 7.85 -16.7 11.0 -16.7 -16.1 -16.7 -16.1 M-17.45 -14.8 L-17.45 9.7 -24.25 7.15 -24.25 -12.25 -17.45 -14.8 -17.45 -14.8" fill="#8f7651" fill-rule="nonzero" stroke="none"/>
    <path d="M5.95 -16.1 L3.35 -26.35 -14.1 -26.35 -16.7 -16.1 5.95 -16.1" fill="#e8c09e" fill-rule="nonzero" stroke="none"/>
    <path d="M5.95 -16.1 L3.35 -26.35 -14.1 -26.35 -16.7 -16.1 5.95 -16.1 5.95 -16.1 M4.9 -17.0 L-15.65 -17.0 -13.55 -25.4 2.8 -25.4 4.9 -17.0 4.9 -17.0" fill="#8f7651" fill-rule="nonzero" stroke="none"/>
  </g>
</svg>
