<?xml version="1.0" encoding="UTF-8" standalone="no"?>
<svg xmlns:ffdec="https://www.free-decompiler.com/flash" xmlns:xlink="http://www.w3.org/1999/xlink" ffdec:objectType="shape" height="93.6px" width="1523.5px" xmlns="http://www.w3.org/2000/svg">
  <g transform="matrix(1.0, 0.0, 0.0, 1.0, 2.35, 47.25)">
    <path d="M1518.75 -35.15 L1518.75 44.85 0.25 44.85 0.25 -33.45 Q197.3 -56.2 379.75 -33.45 576.8 -10.7 759.75 -35.15 956.55 -56.15 1138.75 -33.45 1335.8 -10.7 1518.75 -35.15" fill="#00ff00" fill-rule="evenodd" stroke="none"/>
    <path d="M0.25 44.85 Q0.7 42.45 0.7 39.15 L0.55 33.5 -0.2 26.95 Q-0.8 22.85 -0.3 20.3 0.2 17.8 0.05 15.1 L-0.45 9.25 Q-0.8 6.1 -0.7 2.65 -0.55 -0.75 -0.8 -3.95 -1.05 -7.1 -0.45 -9.45 0.15 -11.8 0.05 -15.05 L0.0 -21.25 Q0.05 -24.25 0.5 -27.2 0.95 -30.15 1.6 -31.7 2.3 -33.25 6.05 -33.85 L12.6 -34.85 18.15 -36.0 24.15 -36.65 Q27.4 -36.55 29.8 -37.4 32.2 -38.25 36.25 -37.35 L43.35 -36.65 Q46.4 -36.85 48.5 -37.65 L53.1 -38.8 59.35 -39.25 66.05 -39.15 72.0 -39.65 77.95 -40.55 84.15 -40.75 90.2 -40.95 96.4 -41.6 Q99.9 -42.05 102.25 -42.8 L107.75 -42.95 114.35 -42.25 120.75 -42.75 126.3 -43.1 Q129.0 -42.85 132.0 -43.1 L137.25 -43.6 142.95 -43.95 Q146.35 -44.0 149.6 -44.8 L155.9 -45.2 161.85 -44.8 167.65 -44.6 173.8 -44.3 Q177.1 -44.15 179.45 -44.3 L185.65 -44.85 Q189.55 -45.25 192.25 -44.7 L197.9 -44.5 203.9 -45.5 Q206.95 -46.05 209.65 -45.4 212.35 -44.7 216.25 -45.25 220.15 -45.8 222.1 -44.5 224.1 -43.15 227.25 -43.4 230.45 -43.65 233.7 -43.25 L239.35 -42.9 245.1 -43.4 251.7 -43.9 257.55 -44.15 264.05 -43.7 270.55 -43.35 276.0 -43.05 281.9 -42.35 287.9 -41.7 293.9 -41.25 299.95 -41.15 305.7 -40.9 311.65 -40.45 318.05 -39.35 324.1 -39.1 329.85 -39.25 335.95 -38.4 Q339.1 -37.9 342.0 -38.35 L347.95 -38.5 353.9 -37.5 359.95 -35.85 Q363.0 -34.85 365.55 -34.65 L372.1 -34.25 378.5 -33.4 384.4 -32.8 Q387.85 -32.75 390.4 -31.6 393.0 -30.45 396.0 -30.15 L402.25 -29.55 407.85 -29.1 Q410.15 -28.95 413.6 -29.15 L420.35 -29.15 426.0 -29.0 432.1 -28.5 438.05 -27.85 443.65 -27.4 449.45 -26.85 Q451.9 -26.6 454.95 -26.8 458.05 -27.0 461.5 -25.9 464.95 -24.8 468.15 -25.1 471.4 -25.4 474.9 -25.05 L480.75 -24.5 Q483.15 -24.3 485.9 -24.45 L491.7 -24.2 498.35 -23.8 504.55 -23.75 509.95 -23.85 516.05 -23.65 522.1 -23.3 527.8 -22.8 533.65 -22.35 539.6 -22.0 Q542.5 -21.5 545.45 -22.0 L551.5 -22.75 557.45 -22.4 563.7 -22.05 570.05 -22.5 575.95 -22.55 Q578.95 -22.4 581.55 -22.65 584.2 -22.85 587.95 -22.65 591.75 -22.45 594.35 -22.8 L599.95 -23.1 Q602.95 -23.0 605.85 -23.05 608.8 -23.1 611.95 -23.95 615.1 -24.75 617.65 -23.85 L623.6 -24.0 Q627.0 -25.1 630.0 -24.7 L636.65 -24.45 642.75 -24.75 648.05 -25.55 653.95 -25.75 Q657.1 -25.25 660.1 -25.8 L666.05 -26.35 671.35 -25.9 Q673.75 -25.35 677.3 -25.9 L683.95 -27.1 690.25 -28.55 695.55 -29.75 701.5 -29.2 Q705.4 -28.2 708.25 -29.05 L713.85 -30.55 719.8 -31.45 726.0 -31.9 732.15 -32.05 738.3 -32.7 744.1 -33.0 Q746.9 -32.6 749.9 -33.75 752.95 -34.9 756.05 -35.0 L761.85 -35.35 767.25 -35.95 773.05 -37.05 779.15 -37.4 Q782.05 -36.95 785.5 -37.5 L792.6 -38.25 Q796.2 -38.45 799.15 -38.2 802.1 -37.95 804.65 -38.8 807.25 -39.65 810.15 -39.75 L816.0 -40.2 821.85 -40.95 Q824.75 -41.35 827.85 -42.1 L833.65 -42.6 839.6 -42.1 Q842.9 -41.9 846.6 -42.05 L852.85 -42.7 857.55 -42.95 Q859.75 -42.65 862.7 -43.6 L869.2 -43.85 875.65 -43.35 Q878.6 -43.45 882.3 -44.5 L888.5 -44.95 894.0 -44.2 Q897.1 -44.05 900.4 -45.0 903.7 -45.9 906.35 -45.05 909.05 -44.2 911.95 -44.6 L917.6 -45.0 923.0 -45.0 928.75 -45.15 935.25 -44.95 942.55 -44.15 949.25 -44.35 954.35 -44.8 Q956.65 -44.65 959.8 -44.9 L965.95 -44.4 Q969.0 -43.65 971.9 -44.35 L978.2 -45.15 984.25 -44.6 990.5 -44.8 996.55 -45.05 Q998.95 -44.45 1001.85 -44.15 L1008.05 -43.3 Q1011.35 -42.75 1014.9 -43.25 L1020.2 -43.65 1025.4 -43.15 Q1028.85 -42.75 1031.55 -43.05 1034.3 -43.3 1037.65 -42.95 L1043.9 -43.15 Q1046.8 -43.7 1049.85 -42.7 1052.95 -41.65 1056.1 -41.6 L1062.1 -41.25 1067.85 -40.65 1073.55 -39.95 1079.9 -38.9 1086.5 -38.2 Q1089.55 -38.1 1092.0 -38.25 L1097.4 -38.05 1103.05 -37.5 1109.15 -36.9 1115.25 -35.8 Q1117.9 -35.05 1120.95 -35.25 1124.05 -35.4 1127.5 -34.2 1130.95 -32.95 1134.05 -32.8 1137.2 -32.65 1139.5 -32.8 L1144.8 -32.95 Q1147.8 -32.9 1151.95 -31.7 1156.15 -30.5 1158.5 -30.5 L1163.8 -30.5 1169.45 -30.25 1175.6 -30.05 1181.75 -29.55 1187.8 -28.85 1194.65 -28.3 1200.5 -27.55 1205.8 -27.3 Q1208.95 -27.35 1211.2 -26.35 1213.45 -25.3 1217.05 -26.4 1220.7 -27.45 1224.1 -26.55 1227.55 -25.6 1229.75 -25.4 L1235.7 -24.35 1242.65 -23.8 1248.25 -24.25 1253.7 -24.85 Q1256.8 -25.3 1259.55 -24.25 1262.35 -23.15 1266.25 -23.65 L1272.15 -23.8 1277.45 -23.5 1284.5 -23.0 1290.5 -23.3 Q1292.7 -24.1 1295.8 -23.9 L1301.4 -23.55 1307.45 -23.35 1314.0 -22.95 1319.9 -23.15 Q1322.8 -23.65 1325.95 -23.2 L1331.9 -22.6 Q1334.75 -22.45 1338.35 -22.6 L1344.5 -22.8 1350.25 -22.45 Q1353.55 -22.0 1355.55 -23.0 1357.55 -23.95 1361.2 -23.85 L1367.75 -23.65 Q1370.65 -23.5 1374.0 -23.65 L1379.65 -23.7 1385.45 -23.85 Q1388.95 -24.0 1392.45 -24.9 L1398.05 -25.35 1403.9 -24.95 Q1407.65 -25.0 1410.3 -25.85 L1415.95 -26.2 1421.2 -26.4 1427.3 -26.6 Q1431.1 -26.15 1433.25 -26.65 L1439.2 -27.5 1445.95 -27.95 1452.1 -28.4 1458.4 -28.85 Q1461.6 -29.0 1464.2 -29.8 L1470.25 -29.95 1476.85 -29.6 1482.0 -30.5 1487.9 -31.1 1494.7 -31.45 1500.3 -32.55 1505.9 -33.7 1511.95 -34.45 Q1514.95 -34.75 1517.05 -33.65 1519.2 -32.5 1518.85 -29.75 1518.55 -27.0 1518.7 -24.0 1518.85 -20.95 1518.1 -18.3 1517.35 -15.65 1518.3 -12.5 1519.3 -9.3 1519.0 -6.6 L1518.7 -0.3 1518.65 6.15 1518.7 11.6 Q1518.75 14.2 1518.05 17.2 1517.4 20.25 1517.8 23.05 L1518.85 29.5 Q1519.55 33.15 1519.65 35.75 1519.75 38.4 1518.65 39.85 1517.6 41.3 1518.75 44.85" fill="none" stroke="#00ff00" stroke-linecap="round" stroke-linejoin="round" stroke-width="3.0"/>
  </g>
</svg>
