<?xml version="1.0" encoding="UTF-8" standalone="no"?>
<svg xmlns:ffdec="https://www.free-decompiler.com/flash" xmlns:xlink="http://www.w3.org/1999/xlink" ffdec:objectType="shape" height="32.0px" width="41.85px" xmlns="http://www.w3.org/2000/svg">
  <g transform="matrix(1.0, 0.0, 0.0, 1.0, 20.9, 16.0)">
    <path d="M-19.9 15.0 L-19.6 13.5 Q-19.45 12.9 -19.3 12.35 -19.15 11.75 -18.9 11.2 -18.7 10.65 -18.45 10.1 -18.2 9.6 -17.9 9.05 -17.6 8.55 -17.3 8.05 -16.95 7.55 -16.6 7.05 -16.2 6.55 -15.8 6.1 -15.4 5.6 -14.9 5.15 L-14.35 4.6 Q-14.45 4.35 -14.5 4.05 -14.6 3.8 -14.65 3.5 -14.75 3.25 -14.8 2.95 -14.85 2.65 -14.9 2.4 -14.95 2.1 -14.95 1.8 -15.0 1.5 -15.05 1.2 -15.05 0.9 -15.05 0.6 -15.05 0.3 -15.05 0.0 -15.05 -0.75 -15.0 -1.5 -14.9 -2.25 -14.8 -3.0 -14.65 -3.7 -14.45 -4.4 -14.25 -5.1 -13.95 -5.75 -13.7 -6.4 -13.35 -7.05 -13.0 -7.7 -12.6 -8.3 -12.2 -8.9 -11.7 -9.45 -11.25 -10.05 -10.7 -10.6 -10.15 -11.15 -9.55 -11.65 -9.0 -12.1 -8.4 -12.5 -7.8 -12.95 -7.15 -13.3 -6.5 -13.65 -5.85 -13.9 -5.2 -14.2 -4.5 -14.4 -3.8 -14.6 -3.1 -14.7 -2.4 -14.85 -1.65 -14.95 -0.9 -15.0 -0.1 -15.0 0.65 -15.0 1.4 -14.95 2.15 -14.85 2.9 -14.7 3.6 -14.6 4.3 -14.4 4.95 -14.15 5.65 -13.9 6.3 -13.6 6.9 -13.3 7.55 -12.95 8.15 -12.5 8.75 -12.1 9.3 -11.65 9.9 -11.15 10.45 -10.6 10.9 -10.15 11.25 -9.7 11.65 -9.25 12.0 -8.8 12.35 -8.35 12.65 -7.85 12.95 -7.35 13.2 -6.85 13.45 -6.35 13.7 -5.85 13.9 -5.35 14.1 -4.8 14.25 -4.25 14.4 -3.7 14.55 -3.15 14.6 -2.6 L14.8 0.0 14.65 2.3 Q14.6 2.7 14.5 3.15 14.45 3.55 14.35 3.95 14.25 4.35 14.15 4.75 14.0 5.1 13.85 5.5 13.7 5.9 13.55 6.25 13.4 6.6 13.2 7.0 13.0 7.35 12.8 7.7 12.55 8.05 12.35 8.4 12.55 8.7 12.7 9.0 12.85 9.3 13.0 9.6 13.15 9.9 13.3 10.2 13.45 10.55 13.6 10.85 13.7 11.15 13.85 11.5 13.95 11.8 14.05 12.15 14.15 12.5 14.25 12.8 14.35 13.15 14.4 13.5 L14.65 15.0 -19.9 15.0" fill="url(#gradient0)" fill-rule="evenodd" stroke="none"/>
    <path d="M-19.9 15.0 L-19.6 13.5 Q-19.45 12.9 -19.3 12.35 -19.15 11.75 -18.9 11.2 -18.7 10.65 -18.45 10.1 -18.2 9.6 -17.9 9.05 -17.6 8.55 -17.3 8.05 -16.95 7.55 -16.6 7.05 -16.2 6.55 -15.8 6.1 -15.4 5.6 -14.9 5.15 L-14.35 4.6 Q-14.45 4.35 -14.5 4.05 -14.6 3.8 -14.65 3.5 -14.75 3.25 -14.8 2.95 -14.85 2.65 -14.9 2.4 -14.95 2.1 -14.95 1.8 -15.0 1.5 -15.05 1.2 -15.05 0.9 -15.05 0.6 -15.05 0.3 -15.05 0.0 -15.05 -0.75 -15.0 -1.5 -14.9 -2.25 -14.8 -3.0 -14.65 -3.7 -14.45 -4.4 -14.25 -5.1 -13.95 -5.75 -13.7 -6.4 -13.35 -7.05 -13.0 -7.7 -12.6 -8.3 -12.2 -8.9 -11.7 -9.45 -11.25 -10.05 -10.7 -10.6 -10.15 -11.15 -9.55 -11.65 -9.0 -12.1 -8.4 -12.5 -7.8 -12.95 -7.15 -13.3 -6.5 -13.65 -5.85 -13.9 -5.2 -14.2 -4.5 -14.4 -3.8 -14.6 -3.1 -14.7 -2.4 -14.85 -1.65 -14.95 -0.9 -15.0 -0.1 -15.0 0.65 -15.0 1.4 -14.95 2.15 -14.85 2.9 -14.7 3.6 -14.6 4.3 -14.4 4.95 -14.15 5.65 -13.9 6.3 -13.6 6.9 -13.3 7.55 -12.95 8.15 -12.5 8.75 -12.1 9.3 -11.65 9.9 -11.15 10.45 -10.6 10.9 -10.15 11.25 -9.7 11.65 -9.25 12.0 -8.8 12.35 -8.35 12.65 -7.85 12.95 -7.35 13.2 -6.85 13.45 -6.35 13.7 -5.85 13.9 -5.35 14.1 -4.8 14.25 -4.25 14.4 -3.7 14.55 -3.15 14.6 -2.6 L14.8 0.0 14.65 2.3 Q14.6 2.7 14.5 3.15 14.45 3.55 14.35 3.95 14.25 4.35 14.15 4.75 14.0 5.1 13.85 5.5 13.7 5.9 13.55 6.25 13.4 6.6 13.2 7.0 13.0 7.35 12.8 7.7 12.55 8.05 12.35 8.4 12.55 8.7 12.7 9.0 12.85 9.3 13.0 9.6 13.15 9.9 13.3 10.2 13.45 10.55 13.6 10.85 13.7 11.15 13.85 11.5 13.95 11.8 14.05 12.15 14.15 12.5 14.25 12.8 14.35 13.15 14.4 13.5 L14.65 15.0" fill="none" stroke="#000000" stroke-linecap="round" stroke-linejoin="round" stroke-width="2.0"/>
    <path d="M19.8 0.0 L14.8 0.0 19.8 0.0 14.65 2.3 14.8 0.0 14.6 -2.6 19.8 0.0" fill="#ffcc00" fill-rule="evenodd" stroke="none"/>
    <path d="M6.05 -9.85 L6.35 -9.75 6.55 -9.65 6.6 -9.65 7.15 -9.4 Q7.0 -9.4 6.85 -9.35 6.65 -9.3 6.5 -9.25 6.35 -9.2 6.2 -9.15 6.05 -9.1 5.95 -9.0 5.8 -8.95 5.65 -8.85 5.5 -8.75 5.35 -8.65 5.25 -8.55 5.1 -8.45 5.0 -8.35 4.85 -8.2 4.7 -8.05 4.55 -7.85 4.4 -7.7 4.25 -7.5 4.15 -7.3 4.05 -7.1 3.95 -6.9 3.85 -6.7 3.8 -6.5 3.7 -6.3 3.65 -6.1 3.6 -5.9 3.6 -5.7 3.55 -5.45 3.55 -5.25 3.55 -5.0 3.55 -4.75 3.55 -4.55 3.6 -4.3 3.65 -4.1 3.7 -3.85 3.75 -3.65 3.8 -3.45 3.9 -3.25 3.95 -3.05 4.05 -2.85 4.15 -2.65 4.3 -2.5 4.4 -2.3 4.55 -2.15 4.7 -1.95 4.85 -1.8 5.0 -1.65 5.1 -1.55 5.25 -1.45 5.35 -1.35 5.5 -1.25 5.65 -1.15 5.8 -1.05 5.95 -1.0 6.1 -0.9 6.25 -0.85 6.4 -0.8 6.55 -0.7 6.7 -0.65 6.85 -0.6 7.05 -0.6 7.2 -0.55 7.05 -0.5 6.95 -0.4 6.8 -0.35 6.65 -0.3 6.5 -0.25 6.4 -0.2 6.25 -0.15 6.1 -0.15 5.95 -0.1 5.8 -0.1 5.65 -0.05 5.5 -0.05 5.35 0.0 5.2 0.0 5.0 0.0 4.85 0.0 4.6 0.0 4.35 0.0 4.1 -0.05 3.85 -0.1 3.65 -0.15 3.4 -0.2 3.15 -0.25 2.95 -0.35 2.75 -0.45 2.5 -0.55 2.3 -0.7 2.1 -0.8 1.9 -0.95 1.7 -1.1 1.5 -1.25 1.3 -1.45 1.1 -1.65 0.95 -1.8 0.8 -2.0 0.7 -2.2 0.55 -2.4 0.45 -2.65 0.3 -2.85 0.25 -3.05 0.15 -3.3 0.1 -3.5 0.0 -3.75 -0.05 -4.0 -0.1 -4.25 -0.1 -4.5 -0.1 -4.75 -0.1 -5.0 -0.1 -5.25 -0.1 -5.5 -0.05 -5.75 0.0 -6.0 0.0 -6.25 0.1 -6.45 0.15 -6.7 0.25 -6.9 0.35 -7.15 0.45 -7.35 0.55 -7.55 0.7 -7.75 0.8 -7.95 1.0 -8.15 1.15 -8.35 1.3 -8.55 1.45 -8.7 1.6 -8.8 1.75 -8.95 1.9 -9.05 2.05 -9.2 2.25 -9.3 2.4 -9.4 2.6 -9.45 2.75 -9.55 2.95 -9.6 3.1 -9.7 3.3 -9.75 3.5 -9.8 3.65 -9.85 3.85 -9.9 4.05 -9.9 L4.75 -10.0 4.85 -10.0 4.95 -10.0 6.05 -9.85" fill="#ffffff" fill-rule="evenodd" stroke="none"/>
    <path d="M7.2 -0.55 Q7.05 -0.6 6.85 -0.6 6.7 -0.65 6.55 -0.7 6.4 -0.8 6.25 -0.85 6.1 -0.9 5.95 -1.0 5.8 -1.05 5.65 -1.15 5.5 -1.25 5.4 -1.35 5.25 -1.45 5.1 -1.55 5.0 -1.65 4.85 -1.8 4.7 -1.95 4.55 -2.15 4.4 -2.3 4.3 -2.5 4.15 -2.65 4.05 -2.85 3.95 -3.05 3.9 -3.25 3.8 -3.45 3.75 -3.65 3.7 -3.85 3.65 -4.1 3.6 -4.3 3.6 -4.55 3.55 -4.75 3.55 -5.0 3.55 -5.25 3.55 -5.45 3.6 -5.7 3.6 -5.9 3.65 -6.1 3.7 -6.3 3.8 -6.55 3.85 -6.7 3.95 -6.95 4.05 -7.1 4.15 -7.3 4.25 -7.5 4.4 -7.7 4.55 -7.85 4.7 -8.05 4.85 -8.2 5.0 -8.35 5.1 -8.45 5.25 -8.55 5.35 -8.65 5.5 -8.75 5.65 -8.85 5.8 -8.95 5.95 -9.0 6.05 -9.1 6.2 -9.15 6.35 -9.2 6.5 -9.25 6.65 -9.3 6.85 -9.35 7.0 -9.4 7.15 -9.4 L8.1 -8.85 8.35 -8.6 8.4 -8.55 8.85 -8.0 9.25 -7.3 8.4 -7.45 Q8.25 -7.45 8.15 -7.45 8.0 -7.45 7.85 -7.4 7.75 -7.4 7.65 -7.35 7.5 -7.3 7.4 -7.3 7.3 -7.25 7.2 -7.2 7.05 -7.1 7.0 -7.05 6.9 -7.0 6.8 -6.9 6.7 -6.85 6.6 -6.75 6.5 -6.65 6.45 -6.55 6.35 -6.5 6.3 -6.4 6.25 -6.3 6.2 -6.2 6.15 -6.05 6.1 -5.95 6.05 -5.85 6.0 -5.75 6.0 -5.6 6.0 -5.5 5.95 -5.4 5.95 -5.25 5.95 -5.15 5.95 -5.0 5.95 -4.85 5.95 -4.75 5.95 -4.6 5.95 -4.5 6.0 -4.4 6.0 -4.25 6.05 -4.15 6.1 -4.05 6.15 -3.95 6.2 -3.8 6.25 -3.7 6.3 -3.6 6.35 -3.5 6.45 -3.45 6.5 -3.35 6.6 -3.25 6.7 -3.15 6.8 -3.1 6.9 -3.0 7.0 -2.95 7.1 -2.85 7.2 -2.8 7.3 -2.75 7.4 -2.7 7.55 -2.65 7.65 -2.65 7.75 -2.6 7.9 -2.6 8.0 -2.55 8.15 -2.55 8.25 -2.55 8.4 -2.55 L9.3 -2.65 8.4 -1.45 Q8.35 -1.4 8.25 -1.3 8.2 -1.25 8.1 -1.2 8.05 -1.1 7.95 -1.05 7.9 -1.0 7.8 -0.95 7.75 -0.9 7.65 -0.85 7.6 -0.8 7.5 -0.75 7.45 -0.7 7.35 -0.65 7.3 -0.6 7.2 -0.55" fill="#00ccff" fill-rule="evenodd" stroke="none"/>
    <path d="M9.3 -2.65 L8.4 -2.55 Q8.25 -2.55 8.15 -2.55 8.0 -2.55 7.9 -2.6 7.75 -2.6 7.65 -2.65 7.55 -2.65 7.4 -2.7 7.3 -2.75 7.2 -2.8 7.1 -2.85 7.0 -2.95 6.9 -3.0 6.8 -3.1 6.7 -3.15 6.6 -3.25 6.5 -3.35 6.45 -3.45 6.35 -3.5 6.3 -3.6 6.25 -3.7 6.2 -3.8 6.15 -3.95 6.1 -4.05 6.05 -4.15 6.0 -4.25 6.0 -4.4 6.0 -4.5 5.95 -4.6 5.95 -4.75 5.95 -4.85 5.95 -5.0 5.95 -5.15 5.95 -5.25 5.95 -5.4 5.95 -5.5 6.0 -5.6 6.0 -5.75 6.05 -5.85 6.1 -5.95 6.15 -6.05 6.2 -6.2 6.25 -6.3 6.3 -6.4 6.35 -6.5 6.45 -6.55 6.5 -6.65 6.6 -6.75 6.7 -6.85 6.8 -6.9 6.85 -7.0 6.95 -7.05 7.05 -7.1 7.2 -7.2 7.3 -7.25 7.4 -7.3 7.5 -7.3 7.65 -7.35 7.75 -7.4 7.85 -7.4 8.0 -7.45 8.15 -7.45 8.25 -7.45 8.4 -7.45 L9.25 -7.3 9.8 -5.75 9.85 -5.0 9.65 -3.5 9.6 -3.25 9.3 -2.65" fill="#000000" fill-rule="evenodd" stroke="none"/>
    <path d="M14.8 0.0 L19.8 0.0 M14.6 -2.6 L14.8 0.0 14.65 2.3 M6.05 -9.85 L4.95 -10.0 4.85 -10.0 4.75 -10.0 4.05 -9.9 Q3.85 -9.85 3.65 -9.85 3.45 -9.8 3.3 -9.75 3.1 -9.7 2.95 -9.6 2.75 -9.55 2.6 -9.45 2.4 -9.4 2.25 -9.3 2.1 -9.2 1.9 -9.05 1.75 -8.95 1.6 -8.8 1.45 -8.7 1.3 -8.55 1.1 -8.35 0.95 -8.15 0.8 -7.95 0.7 -7.75 0.55 -7.55 0.45 -7.35 0.3 -7.15 0.25 -6.9 0.15 -6.7 0.1 -6.45 0.0 -6.25 -0.05 -6.0 -0.1 -5.75 -0.1 -5.5 -0.1 -5.25 -0.1 -5.0 -0.1 -4.75 -0.1 -4.5 -0.05 -4.25 0.0 -4.0 0.0 -3.75 0.1 -3.5 0.15 -3.3 0.25 -3.05 0.35 -2.85 0.45 -2.65 0.55 -2.4 0.7 -2.2 0.8 -2.0 1.0 -1.8 1.15 -1.65 1.3 -1.45 1.5 -1.25 1.7 -1.1 1.9 -0.95 2.1 -0.8 2.3 -0.7 2.5 -0.55 2.75 -0.45 2.95 -0.35 3.15 -0.25 3.4 -0.2 3.65 -0.15 3.85 -0.1 4.1 -0.05 4.35 0.0 4.6 0.0 4.85 0.0 5.0 0.0 5.15 0.0 5.35 0.0 5.5 -0.05 5.65 -0.05 5.8 -0.1 5.95 -0.1 6.1 -0.15 6.25 -0.15 6.4 -0.2 6.5 -0.25 6.65 -0.3 6.8 -0.35 6.95 -0.4 7.05 -0.5 7.2 -0.55 7.3 -0.6 7.35 -0.65 7.45 -0.7 7.5 -0.75 7.6 -0.8 7.65 -0.85 7.75 -0.9 7.8 -0.95 7.9 -1.0 7.95 -1.05 8.05 -1.15 8.1 -1.2 8.2 -1.25 8.25 -1.3 8.35 -1.4 8.4 -1.45 L9.3 -2.65 8.4 -2.55 Q8.25 -2.55 8.15 -2.55 8.0 -2.55 7.9 -2.6 7.75 -2.6 7.65 -2.65 7.55 -2.65 7.4 -2.7 7.3 -2.75 7.2 -2.8 7.1 -2.85 7.0 -2.95 6.9 -3.0 6.8 -3.1 6.7 -3.15 6.6 -3.25 6.5 -3.35 6.45 -3.45 6.35 -3.5 6.3 -3.6 6.25 -3.7 6.2 -3.8 6.15 -3.95 6.1 -4.05 6.05 -4.15 6.0 -4.25 6.0 -4.4 6.0 -4.5 5.95 -4.6 5.95 -4.75 5.95 -4.85 5.95 -5.0 5.95 -5.15 5.95 -5.25 5.95 -5.4 5.95 -5.5 6.0 -5.6 6.0 -5.75 6.05 -5.85 6.1 -5.95 6.15 -6.05 6.2 -6.2 6.25 -6.3 6.3 -6.4 6.35 -6.5 6.45 -6.55 6.5 -6.65 6.6 -6.75 6.7 -6.85 6.8 -6.9 6.85 -7.0 6.95 -7.05 7.05 -7.1 7.2 -7.2 7.3 -7.25 7.4 -7.3 7.5 -7.3 7.65 -7.35 7.75 -7.4 7.85 -7.4 8.0 -7.45 8.15 -7.45 8.25 -7.45 8.4 -7.45 L9.25 -7.3 8.85 -8.0 8.4 -8.55 8.35 -8.6 8.1 -8.85 7.15 -9.4 6.6 -9.65 6.55 -9.65 M9.3 -2.65 L9.6 -3.25 9.65 -3.5 9.85 -5.0 9.8 -5.75 9.25 -7.3" fill="none" stroke="#000000" stroke-linecap="round" stroke-linejoin="round" stroke-width="1.0"/>
    <path d="M19.8 0.0 L14.6 -2.6 M14.65 2.3 L19.8 0.0" fill="none" stroke="#000000" stroke-linecap="round" stroke-linejoin="round" stroke-width="2.0"/>
  </g>
  <defs>
    <linearGradient gradientTransform="matrix(0.0212, 0.0, 0.0, 0.0183, -2.55, 0.0)" gradientUnits="userSpaceOnUse" id="gradient0" spreadMethod="pad" x1="-819.2" x2="819.2">
      <stop offset="0.0" stop-color="#7c6da1"/>
      <stop offset="0.35294117647058826" stop-color="#f20278"/>
      <stop offset="0.6431372549019608" stop-color="#f10147"/>
      <stop offset="1.0" stop-color="#ff6338"/>
    </linearGradient>
  </defs>
</svg>
