<?xml version="1.0" encoding="UTF-8" standalone="no"?>
<svg xmlns:ffdec="https://www.free-decompiler.com/flash" xmlns:xlink="http://www.w3.org/1999/xlink" ffdec:objectType="shape" height="32.0px" width="41.85px" xmlns="http://www.w3.org/2000/svg">
  <g transform="matrix(1.0, 0.0, 0.0, 1.0, 20.95, 16.0)">
    <path d="M-19.95 15.0 L-19.65 13.5 Q-19.5 12.9 -19.35 12.35 -19.2 11.75 -18.95 11.2 -18.75 10.65 -18.5 10.1 -18.25 9.6 -17.95 9.05 -17.65 8.55 -17.35 8.05 -17.0 7.55 -16.65 7.05 -16.25 6.55 -15.85 6.1 -15.45 5.6 -14.95 5.15 L-14.4 4.6 Q-14.5 4.35 -14.55 4.05 -14.65 3.8 -14.7 3.5 -14.8 3.25 -14.85 2.95 -14.9 2.65 -14.95 2.4 -15.0 2.1 -15.0 1.8 -15.05 1.5 -15.1 1.2 -15.1 0.9 -15.1 0.6 -15.1 0.3 -15.1 0.0 -15.1 -0.75 -15.05 -1.5 -14.95 -2.25 -14.85 -3.0 -14.7 -3.7 -14.5 -4.4 -14.3 -5.1 -14.0 -5.75 -13.75 -6.4 -13.4 -7.05 -13.05 -7.7 -12.65 -8.3 -12.25 -8.9 -11.75 -9.45 -11.3 -10.05 -10.75 -10.6 -10.2 -11.15 -9.6 -11.65 -9.05 -12.1 -8.45 -12.5 -7.85 -12.95 -7.2 -13.3 -6.55 -13.65 -5.9 -13.9 -5.25 -14.2 -4.55 -14.4 -3.85 -14.6 -3.15 -14.7 -2.45 -14.85 -1.7 -14.95 -0.95 -15.0 -0.15 -15.0 0.6 -15.0 1.35 -14.95 2.1 -14.85 2.85 -14.7 3.55 -14.6 4.25 -14.4 4.9 -14.15 5.6 -13.9 6.25 -13.6 6.85 -13.3 7.5 -12.95 8.1 -12.5 8.7 -12.1 9.25 -11.65 9.85 -11.15 10.4 -10.6 10.85 -10.15 11.2 -9.7 11.6 -9.25 11.95 -8.8 12.3 -8.35 12.6 -7.85 12.9 -7.35 13.15 -6.85 13.4 -6.35 13.65 -5.85 13.85 -5.35 14.05 -4.8 14.2 -4.25 14.35 -3.7 14.5 -3.15 14.55 -2.6 L14.75 0.0 14.6 2.3 Q14.55 2.7 14.45 3.15 14.4 3.55 14.3 3.95 14.2 4.35 14.1 4.75 13.95 5.1 13.8 5.5 13.65 5.9 13.5 6.25 13.35 6.6 13.15 7.0 12.95 7.35 12.75 7.7 12.5 8.05 12.3 8.4 12.5 8.7 12.65 9.0 12.8 9.3 12.95 9.6 13.1 9.9 13.25 10.2 13.4 10.55 13.55 10.85 13.65 11.15 13.8 11.5 13.9 11.8 14.0 12.15 14.1 12.5 14.2 12.8 14.3 13.15 14.35 13.5 L14.6 15.0 -19.95 15.0" fill="#2e47aa" fill-rule="evenodd" stroke="none"/>
    <path d="M-19.95 15.0 L-19.65 13.5 Q-19.5 12.9 -19.35 12.35 -19.2 11.75 -18.95 11.2 -18.75 10.65 -18.5 10.1 -18.25 9.6 -17.95 9.05 -17.65 8.55 -17.35 8.05 -17.0 7.55 -16.65 7.05 -16.25 6.55 -15.85 6.1 -15.45 5.6 -14.95 5.15 L-14.4 4.6 Q-14.5 4.35 -14.55 4.05 -14.65 3.8 -14.7 3.5 -14.8 3.25 -14.85 2.95 -14.9 2.65 -14.95 2.4 -15.0 2.1 -15.0 1.8 -15.05 1.5 -15.1 1.2 -15.1 0.9 -15.1 0.6 -15.1 0.3 -15.1 0.0 -15.1 -0.75 -15.05 -1.5 -14.95 -2.25 -14.85 -3.0 -14.7 -3.7 -14.5 -4.4 -14.3 -5.1 -14.0 -5.75 -13.75 -6.4 -13.4 -7.05 -13.05 -7.7 -12.65 -8.3 -12.25 -8.9 -11.75 -9.45 -11.3 -10.05 -10.75 -10.6 -10.2 -11.15 -9.6 -11.65 -9.05 -12.1 -8.45 -12.5 -7.85 -12.95 -7.2 -13.3 -6.55 -13.65 -5.9 -13.9 -5.25 -14.2 -4.55 -14.4 -3.85 -14.6 -3.15 -14.7 -2.45 -14.85 -1.7 -14.95 -0.95 -15.0 -0.15 -15.0 0.6 -15.0 1.35 -14.95 2.1 -14.85 2.85 -14.7 3.55 -14.6 4.25 -14.4 4.9 -14.15 5.6 -13.9 6.25 -13.6 6.85 -13.3 7.5 -12.95 8.1 -12.5 8.7 -12.1 9.25 -11.65 9.85 -11.15 10.4 -10.6 10.85 -10.15 11.2 -9.7 11.6 -9.25 11.95 -8.8 12.3 -8.35 12.6 -7.85 12.9 -7.35 13.15 -6.85 13.4 -6.35 13.65 -5.85 13.85 -5.35 14.05 -4.8 14.2 -4.25 14.35 -3.7 14.5 -3.15 14.55 -2.6 L14.75 0.0 14.6 2.3 Q14.55 2.7 14.45 3.15 14.4 3.55 14.3 3.95 14.2 4.35 14.1 4.75 13.95 5.1 13.8 5.5 13.65 5.9 13.5 6.25 13.35 6.6 13.15 7.0 12.95 7.35 12.75 7.7 12.5 8.05 12.3 8.4 12.5 8.7 12.65 9.0 12.8 9.3 12.95 9.6 13.1 9.9 13.25 10.2 13.4 10.55 13.55 10.85 13.65 11.15 13.8 11.5 13.9 11.8 14.0 12.15 14.1 12.5 14.2 12.8 14.3 13.15 14.35 13.5 L14.6 15.0" fill="none" stroke="#000000" stroke-linecap="round" stroke-linejoin="round" stroke-width="2.0"/>
    <path d="M14.55 -2.6 L19.75 0.0 14.75 0.0 19.75 0.0 14.6 2.3 14.75 0.0 14.55 -2.6" fill="#ffcc00" fill-rule="evenodd" stroke="none"/>
    <path d="M7.15 -0.55 Q7.0 -0.5 6.9 -0.4 6.75 -0.35 6.6 -0.3 6.45 -0.25 6.35 -0.2 6.2 -0.15 6.05 -0.15 5.9 -0.1 5.75 -0.1 5.6 -0.05 5.45 -0.05 5.3 0.0 5.15 0.0 4.95 0.0 4.8 0.0 4.55 0.0 4.3 0.0 4.05 -0.05 3.8 -0.1 3.6 -0.15 3.35 -0.2 3.1 -0.25 2.9 -0.35 2.7 -0.45 2.45 -0.55 2.25 -0.7 2.05 -0.8 1.85 -0.95 1.65 -1.1 1.45 -1.25 1.25 -1.45 1.05 -1.65 0.9 -1.8 0.75 -2.0 0.65 -2.2 0.5 -2.4 0.4 -2.65 0.25 -2.85 0.2 -3.05 0.1 -3.3 0.05 -3.5 -0.05 -3.75 -0.1 -4.0 -0.15 -4.25 -0.15 -4.5 -0.15 -4.75 -0.15 -5.0 -0.15 -5.25 -0.15 -5.5 -0.1 -5.75 -0.05 -6.0 -0.05 -6.25 0.05 -6.45 0.1 -6.7 0.2 -6.9 0.3 -7.15 0.4 -7.35 0.5 -7.55 0.65 -7.75 0.75 -7.95 0.95 -8.15 1.1 -8.35 1.25 -8.55 1.4 -8.7 1.55 -8.8 1.7 -8.95 1.85 -9.05 2.0 -9.2 2.2 -9.3 2.35 -9.4 2.55 -9.45 2.7 -9.55 2.9 -9.6 3.05 -9.7 3.25 -9.75 3.45 -9.8 3.6 -9.85 3.8 -9.9 4.0 -9.9 L4.7 -10.0 4.8 -10.0 4.9 -10.0 6.0 -9.85 6.3 -9.75 6.5 -9.65 6.55 -9.65 7.1 -9.4 Q6.95 -9.4 6.8 -9.35 6.6 -9.3 6.45 -9.25 6.3 -9.2 6.15 -9.15 6.0 -9.1 5.9 -9.0 5.75 -8.95 5.6 -8.85 5.45 -8.75 5.3 -8.65 5.2 -8.55 5.05 -8.45 4.95 -8.35 4.8 -8.2 4.65 -8.05 4.5 -7.85 4.35 -7.7 4.2 -7.5 4.1 -7.3 4.0 -7.1 3.9 -6.9 3.8 -6.7 3.75 -6.5 3.65 -6.3 3.6 -6.1 3.55 -5.9 3.55 -5.7 3.5 -5.45 3.5 -5.25 3.5 -5.0 3.5 -4.75 3.5 -4.55 3.55 -4.3 3.6 -4.1 3.65 -3.85 3.7 -3.65 3.75 -3.45 3.85 -3.25 3.9 -3.05 4.0 -2.85 4.1 -2.65 4.25 -2.5 4.35 -2.3 4.5 -2.15 4.65 -1.95 4.8 -1.8 4.95 -1.65 5.05 -1.55 5.2 -1.45 5.3 -1.35 5.45 -1.25 5.6 -1.15 5.75 -1.05 5.9 -1.0 6.05 -0.9 6.2 -0.85 6.35 -0.8 6.5 -0.7 6.65 -0.65 6.8 -0.6 7.0 -0.6 7.15 -0.55" fill="#ffffff" fill-rule="evenodd" stroke="none"/>
    <path d="M7.15 -0.55 Q7.0 -0.6 6.8 -0.6 6.65 -0.65 6.5 -0.7 6.35 -0.8 6.2 -0.85 6.05 -0.9 5.9 -1.0 5.75 -1.05 5.6 -1.15 5.45 -1.25 5.35 -1.35 5.2 -1.45 5.05 -1.55 4.95 -1.65 4.8 -1.8 4.65 -1.95 4.5 -2.15 4.35 -2.3 4.25 -2.5 4.1 -2.65 4.0 -2.85 3.9 -3.05 3.85 -3.25 3.75 -3.45 3.7 -3.65 3.65 -3.85 3.6 -4.1 3.55 -4.3 3.55 -4.55 3.5 -4.75 3.5 -5.0 3.5 -5.25 3.5 -5.45 3.55 -5.7 3.55 -5.9 3.6 -6.1 3.65 -6.3 3.75 -6.55 3.8 -6.7 3.9 -6.95 4.0 -7.1 4.1 -7.3 4.2 -7.5 4.35 -7.7 4.5 -7.85 4.65 -8.05 4.8 -8.2 4.95 -8.35 5.05 -8.45 5.2 -8.55 5.3 -8.65 5.45 -8.75 5.6 -8.85 5.75 -8.95 5.9 -9.0 6.0 -9.1 6.15 -9.15 6.3 -9.2 6.45 -9.25 6.6 -9.3 6.8 -9.35 6.95 -9.4 7.1 -9.4 L8.05 -8.85 8.3 -8.6 8.35 -8.55 8.8 -8.0 9.2 -7.3 8.35 -7.45 Q8.2 -7.45 8.1 -7.45 7.95 -7.45 7.8 -7.4 7.7 -7.4 7.6 -7.35 7.45 -7.3 7.35 -7.3 7.25 -7.25 7.15 -7.2 7.0 -7.1 6.95 -7.05 6.85 -7.0 6.75 -6.9 6.65 -6.85 6.55 -6.75 6.45 -6.65 6.4 -6.55 6.3 -6.5 6.25 -6.4 6.2 -6.3 6.15 -6.2 6.1 -6.05 6.05 -5.95 6.0 -5.85 5.95 -5.75 5.95 -5.6 5.95 -5.5 5.9 -5.4 5.9 -5.25 5.9 -5.15 5.9 -5.0 5.9 -4.85 5.9 -4.75 5.9 -4.6 5.9 -4.5 5.95 -4.4 5.95 -4.25 6.0 -4.15 6.05 -4.05 6.1 -3.95 6.15 -3.8 6.2 -3.7 6.25 -3.6 6.3 -3.5 6.4 -3.45 6.45 -3.35 6.55 -3.25 6.65 -3.15 6.75 -3.1 6.85 -3.0 6.95 -2.95 7.05 -2.85 7.15 -2.8 7.25 -2.75 7.35 -2.7 7.5 -2.65 7.6 -2.65 7.7 -2.6 7.85 -2.6 7.95 -2.55 8.1 -2.55 8.2 -2.55 8.35 -2.55 L9.25 -2.65 8.35 -1.45 7.15 -0.55" fill="#00ccff" fill-rule="evenodd" stroke="none"/>
    <path d="M9.25 -2.65 L8.35 -2.55 Q8.2 -2.55 8.1 -2.55 7.95 -2.55 7.85 -2.6 7.7 -2.6 7.6 -2.65 7.5 -2.65 7.35 -2.7 7.25 -2.75 7.15 -2.8 7.05 -2.85 6.95 -2.95 6.85 -3.0 6.75 -3.1 6.65 -3.15 6.55 -3.25 6.45 -3.35 6.4 -3.45 6.3 -3.5 6.25 -3.6 6.2 -3.7 6.15 -3.8 6.1 -3.95 6.05 -4.05 6.0 -4.15 5.95 -4.25 5.95 -4.4 5.95 -4.5 5.9 -4.6 5.9 -4.75 5.9 -4.85 5.9 -5.0 5.9 -5.15 5.9 -5.25 5.9 -5.4 5.9 -5.5 5.95 -5.6 5.95 -5.75 6.0 -5.85 6.05 -5.95 6.1 -6.05 6.15 -6.2 6.2 -6.3 6.25 -6.4 6.3 -6.5 6.4 -6.55 6.45 -6.65 6.55 -6.75 6.65 -6.85 6.75 -6.9 6.8 -7.0 6.9 -7.05 7.0 -7.1 7.15 -7.2 7.25 -7.25 7.35 -7.3 7.45 -7.3 7.6 -7.35 7.7 -7.4 7.8 -7.4 7.95 -7.45 8.1 -7.45 8.2 -7.45 8.35 -7.45 L9.2 -7.3 9.75 -5.75 9.8 -5.0 9.6 -3.5 9.55 -3.25 9.25 -2.65" fill="#000000" fill-rule="evenodd" stroke="none"/>
    <path d="M14.55 -2.6 L14.75 0.0 19.75 0.0 M14.6 2.3 L14.75 0.0 M6.0 -9.85 L4.9 -10.0 4.8 -10.0 4.7 -10.0 4.0 -9.9 Q3.8 -9.85 3.6 -9.85 3.4 -9.8 3.25 -9.75 3.05 -9.7 2.9 -9.6 2.7 -9.55 2.55 -9.45 2.35 -9.4 2.2 -9.3 2.05 -9.2 1.85 -9.05 1.7 -8.95 1.55 -8.8 1.4 -8.7 1.25 -8.55 1.05 -8.35 0.9 -8.15 0.75 -7.95 0.65 -7.75 0.5 -7.55 0.4 -7.35 0.25 -7.15 0.2 -6.9 0.1 -6.7 0.05 -6.45 -0.05 -6.25 -0.1 -6.0 -0.15 -5.75 -0.15 -5.5 -0.15 -5.25 -0.15 -5.0 -0.15 -4.75 -0.15 -4.5 -0.1 -4.25 -0.05 -4.0 -0.05 -3.75 0.05 -3.5 0.1 -3.3 0.2 -3.05 0.3 -2.85 0.4 -2.65 0.5 -2.4 0.65 -2.2 0.75 -2.0 0.95 -1.8 1.1 -1.65 1.25 -1.45 1.45 -1.25 1.65 -1.1 1.85 -0.95 2.05 -0.8 2.25 -0.7 2.45 -0.55 2.7 -0.45 2.9 -0.35 3.1 -0.25 3.35 -0.2 3.6 -0.15 3.8 -0.1 4.05 -0.05 4.3 0.0 4.55 0.0 4.8 0.0 4.95 0.0 5.1 0.0 5.3 0.0 5.45 -0.05 5.6 -0.05 5.75 -0.1 5.9 -0.1 6.05 -0.15 6.2 -0.15 6.35 -0.2 6.45 -0.25 6.6 -0.3 6.75 -0.35 6.9 -0.4 7.0 -0.5 7.15 -0.55 L8.35 -1.45 9.25 -2.65 8.35 -2.55 Q8.2 -2.55 8.1 -2.55 7.95 -2.55 7.85 -2.6 7.7 -2.6 7.6 -2.65 7.5 -2.65 7.35 -2.7 7.25 -2.75 7.15 -2.8 7.05 -2.85 6.95 -2.95 6.85 -3.0 6.75 -3.1 6.65 -3.15 6.55 -3.25 6.45 -3.35 6.4 -3.45 6.3 -3.5 6.25 -3.6 6.2 -3.7 6.15 -3.8 6.1 -3.95 6.05 -4.05 6.0 -4.15 5.95 -4.25 5.95 -4.4 5.95 -4.5 5.9 -4.6 5.9 -4.75 5.9 -4.85 5.9 -5.0 5.9 -5.15 5.9 -5.25 5.9 -5.4 5.9 -5.5 5.95 -5.6 5.95 -5.75 6.0 -5.85 6.05 -5.95 6.1 -6.05 6.15 -6.2 6.2 -6.3 6.25 -6.4 6.3 -6.5 6.4 -6.55 6.45 -6.65 6.55 -6.75 6.65 -6.85 6.75 -6.9 6.8 -7.0 6.9 -7.05 7.0 -7.1 7.15 -7.2 7.25 -7.25 7.35 -7.3 7.45 -7.3 7.6 -7.35 7.7 -7.4 7.8 -7.4 7.95 -7.45 8.1 -7.45 8.2 -7.45 8.35 -7.45 L9.2 -7.3 9.75 -5.75 9.8 -5.0 9.6 -3.5 9.55 -3.25 9.25 -2.65 M7.1 -9.4 L6.55 -9.65 6.5 -9.65 M9.2 -7.3 L8.8 -8.0 8.35 -8.55 8.3 -8.6 8.05 -8.85 7.1 -9.4" fill="none" stroke="#000000" stroke-linecap="round" stroke-linejoin="round" stroke-width="1.0"/>
    <path d="M19.75 0.0 L14.55 -2.6 M19.75 0.0 L14.6 2.3" fill="none" stroke="#000000" stroke-linecap="round" stroke-linejoin="round" stroke-width="2.0"/>
  </g>
</svg>
