<?xml version="1.0" encoding="UTF-8" standalone="no"?>
<svg xmlns:ffdec="https://www.free-decompiler.com/flash" xmlns:xlink="http://www.w3.org/1999/xlink" ffdec:objectType="shape" height="246.6px" width="175.05px" xmlns="http://www.w3.org/2000/svg">
  <g transform="matrix(1.0, 0.0, 0.0, 1.0, -53.85, -182.35)">
    <path d="M86.25 285.6 Q86.95 284.4 88.15 283.7 89.35 282.5 89.55 281.3 90.05 279.9 89.55 278.45 86.45 268.9 86.45 257.95 86.45 230.25 106.05 210.7 125.6 191.1 153.3 191.1 181.2 191.1 200.55 210.7 214.35 224.5 218.65 242.65 223.3 244.95 227.95 247.2 L227.95 265.1 219.15 270.8 Q216.75 284.2 209.1 295.4 208.15 296.6 208.15 298.0 208.15 299.2 208.9 300.65 220.1 318.55 220.1 341.45 220.1 374.15 197.2 397.3 174.05 420.2 141.35 420.2 L130.35 419.45 Q104.6 416.15 85.75 397.3 62.6 374.15 62.6 341.45 62.6 308.75 85.75 285.85 L86.25 285.6" fill="#ffff00" fill-rule="evenodd" stroke="none"/>
    <path d="M81.7 257.95 Q81.7 228.35 102.7 207.35 123.7 186.35 153.3 186.35 183.15 186.35 203.9 207.35 220.35 223.85 223.95 245.55 224.9 251.5 224.9 257.95 224.9 263.65 224.15 268.9 222.0 284.9 212.95 298.05 224.9 317.1 224.9 341.45 224.9 376.05 200.55 400.65 175.95 424.95 141.35 424.95 L129.7 424.25 Q102.5 420.7 82.45 400.65 57.85 376.05 57.85 341.45 57.85 306.85 82.45 282.5 L85.05 279.9 Q81.7 269.65 81.7 257.95 Z" fill="none" stroke="#000000" stroke-linecap="round" stroke-linejoin="round" stroke-width="8.0"/>
  </g>
</svg>
