<?xml version="1.0" encoding="UTF-8" standalone="no"?>
<svg xmlns:ffdec="https://www.free-decompiler.com/flash" xmlns:xlink="http://www.w3.org/1999/xlink" ffdec:objectType="shape" height="58.0px" width="74.6px" xmlns="http://www.w3.org/2000/svg">
  <g transform="matrix(1.0, 0.0, 0.0, 1.0, 37.3, 29.0)">
    <path d="M7.3 -9.4 Q7.3 -8.2 8.05 -6.85 9.25 -4.65 12.15 -4.65 14.35 -4.65 15.95 -6.6 17.05 -8.05 17.05 -9.3 17.05 -13.65 12.15 -14.05 7.3 -14.5 7.3 -9.4 M17.05 -7.55 Q17.05 -6.25 17.65 -5.0 18.85 -2.8 21.9 -2.8 24.1 -2.8 25.7 -4.75 26.8 -6.25 26.8 -7.45 26.8 -12.55 21.9 -12.45 17.05 -12.45 17.05 -7.55 M3.75 -4.75 Q4.85 -6.25 4.85 -7.45 4.85 -11.85 0.0 -12.2 -4.9 -12.7 -4.9 -7.55 -4.9 -6.25 -4.25 -5.0 -3.05 -2.8 0.0 -2.8 2.2 -2.8 3.75 -4.75 M23.75 10.55 Q26.05 10.55 27.5 8.75 28.6 7.3 28.6 5.95 28.6 1.7 23.75 1.2 18.85 0.7 18.85 5.8 L19.5 8.25 Q20.8 10.55 23.75 10.55 M23.15 21.05 Q24.45 23.35 27.4 23.35 29.7 23.35 31.15 21.55 32.25 20.05 32.25 18.75 32.25 14.45 27.4 14.0 24.7 13.75 23.5 15.2 22.3 13.6 19.5 13.35 14.6 12.9 14.6 18.0 14.6 19.2 15.35 20.55 16.55 22.75 19.5 22.75 21.55 22.75 23.15 21.05 M35.3 17.4 Q35.3 25.9 24.45 26.75 12.55 26.05 10.35 26.4 L-7.55 26.65 -13.75 27.0 Q-22.65 27.0 -29.85 19.2 -35.3 13.25 -35.3 10.7 L-35.1 8.4 Q-34.6 7.15 -32.9 6.3 L-27.4 5.95 Q-22.8 5.7 -21.9 5.1 L-17.9 1.8 Q-13.9 -1.0 -9.15 -1.1 5.7 -40.8 21.8 -19.65 27.4 -12.2 31.65 0.7 35.3 11.9 35.3 17.4 M13.5 6.2 Q14.6 4.75 14.6 3.5 14.6 -0.9 9.75 -1.25 4.85 -1.75 4.85 3.4 4.85 4.75 5.45 5.95 6.7 8.15 9.75 8.15 11.95 8.15 13.5 6.2 M-5.35 8.75 Q-4.25 7.3 -4.25 5.95 -4.25 1.7 -9.15 1.2 -14.0 0.7 -14.0 5.8 L-13.4 8.25 Q-12.05 10.55 -9.15 10.55 -6.8 10.55 -5.35 8.75 M7.3 12.05 Q7.3 7.75 2.45 7.3 -2.45 6.8 -2.45 11.9 -2.45 13.25 -1.85 14.45 -0.6 16.65 2.45 16.65 4.75 16.65 6.2 14.85 7.3 13.35 7.3 12.05 M-10.95 21.05 Q-10.95 22.25 -10.25 23.6 -9.0 25.8 -6.1 25.8 -3.55 25.8 -1.85 23.1 -0.6 21.15 -0.6 19.95 -0.6 14.6 -5.75 15.1 -10.95 15.55 -10.95 21.05 M-15.1 20.3 Q-14.0 18.85 -14.0 17.5 -14.0 12.4 -18.9 12.4 -23.75 12.5 -23.75 17.4 -23.75 18.6 -23.0 19.95 -21.8 22.15 -18.9 22.15 -16.55 22.15 -15.1 20.3" fill="#0099ff" fill-rule="evenodd" stroke="none"/>
    <path d="M7.3 -9.4 Q7.3 -14.5 12.15 -14.05 17.05 -13.65 17.05 -9.3 17.05 -8.05 15.95 -6.6 14.35 -4.65 12.15 -4.65 9.25 -4.65 8.05 -6.85 7.3 -8.2 7.3 -9.4 M23.75 10.55 Q20.8 10.55 19.5 8.25 L18.85 5.8 Q18.85 0.7 23.75 1.2 28.6 1.7 28.6 5.95 28.6 7.3 27.5 8.75 26.05 10.55 23.75 10.55 M23.5 15.2 Q22.5 16.3 22.5 18.6 L23.15 21.05 Q21.55 22.75 19.5 22.75 16.55 22.75 15.35 20.55 14.6 19.2 14.6 18.0 14.6 12.9 19.5 13.35 22.3 13.6 23.5 15.2 M7.3 12.05 Q7.3 13.35 6.2 14.85 4.75 16.65 2.45 16.65 -0.6 16.65 -1.85 14.45 -2.45 13.25 -2.45 11.9 -2.45 6.8 2.45 7.3 7.3 7.75 7.3 12.05 M-5.35 8.75 Q-6.8 10.55 -9.15 10.55 -12.05 10.55 -13.4 8.25 L-14.0 5.8 Q-14.0 0.7 -9.15 1.2 -4.25 1.7 -4.25 5.95 -4.25 7.3 -5.35 8.75 M-15.1 20.3 Q-16.55 22.15 -18.9 22.15 -21.8 22.15 -23.0 19.95 -23.75 18.6 -23.75 17.4 -23.75 12.5 -18.9 12.4 -14.0 12.4 -14.0 17.5 -14.0 18.85 -15.1 20.3" fill="#006699" fill-rule="evenodd" stroke="none"/>
    <path d="M3.75 -4.75 Q2.2 -2.8 0.0 -2.8 -3.05 -2.8 -4.25 -5.0 -4.9 -6.25 -4.9 -7.55 -4.9 -12.7 0.0 -12.2 4.85 -11.85 4.85 -7.45 4.85 -6.25 3.75 -4.75 M17.05 -7.55 Q17.05 -12.45 21.9 -12.45 26.8 -12.55 26.8 -7.45 26.8 -6.25 25.7 -4.75 24.1 -2.8 21.9 -2.8 18.85 -2.8 17.65 -5.0 17.05 -6.25 17.05 -7.55 M23.5 15.2 Q24.7 13.75 27.4 14.0 32.25 14.45 32.25 18.75 32.25 20.05 31.15 21.55 29.7 23.35 27.4 23.35 24.45 23.35 23.15 21.05 L22.5 18.6 Q22.5 16.3 23.5 15.2 M13.5 6.2 Q11.95 8.15 9.75 8.15 6.7 8.15 5.45 5.95 4.85 4.75 4.85 3.4 4.85 -1.75 9.75 -1.25 14.6 -0.9 14.6 3.5 14.6 4.75 13.5 6.2 M-10.95 21.05 Q-10.95 15.55 -5.75 15.1 -0.6 14.6 -0.6 19.95 -0.6 21.15 -1.85 23.1 -3.55 25.8 -6.1 25.8 -9.0 25.8 -10.25 23.6 -10.95 22.25 -10.95 21.05" fill="#ccffff" fill-rule="evenodd" stroke="none"/>
    <path d="M35.3 17.4 Q35.3 25.9 24.45 26.75 12.55 26.05 10.35 26.4 L-7.55 26.65 -13.75 27.0 Q-22.65 27.0 -29.85 19.2 -35.3 13.25 -35.3 10.7 L-35.1 8.4 Q-34.6 7.15 -32.9 6.3 L-27.4 5.95 Q-22.8 5.7 -21.9 5.1 L-17.9 1.8 Q-13.9 -1.0 -9.15 -1.1 5.7 -40.8 21.8 -19.65 27.4 -12.2 31.65 0.7 35.3 11.9 35.3 17.4 Z" fill="none" stroke="#000000" stroke-linecap="round" stroke-linejoin="round" stroke-width="4.0"/>
  </g>
</svg>
