<?xml version="1.0" encoding="UTF-8" standalone="no"?>
<svg xmlns:ffdec="https://www.free-decompiler.com/flash" xmlns:xlink="http://www.w3.org/1999/xlink" ffdec:objectType="shape" height="45.6px" width="47.85px" xmlns="http://www.w3.org/2000/svg">
  <g transform="matrix(1.0, 0.0, 0.0, 1.0, 23.9, 22.8)">
    <path d="M-16.9 21.8 L-16.6 20.3 Q-15.55 15.6 -11.9 11.95 L-11.35 11.4 Q-12.05 9.25 -12.05 6.8 -12.05 0.6 -7.65 -3.8 -3.25 -8.2 2.95 -8.2 9.2 -8.2 13.55 -3.8 17.0 -0.35 17.75 4.2 L17.95 6.8 17.8 9.1 Q17.35 12.45 15.45 15.2 16.9 17.55 17.55 20.3 L17.8 21.8 -16.9 21.8" fill="#ffff00" fill-rule="evenodd" stroke="none"/>
    <path d="M-16.9 21.8 L-16.6 20.3 Q-15.55 15.6 -11.9 11.95 L-11.35 11.4 Q-12.05 9.25 -12.05 6.8 -12.05 0.6 -7.65 -3.8 -3.25 -8.2 2.95 -8.2 9.2 -8.2 13.55 -3.8 17.0 -0.35 17.75 4.2 L17.95 6.8 17.8 9.1 Q17.35 12.45 15.45 15.2 16.9 17.55 17.55 20.3 L17.8 21.8" fill="none" stroke="#000000" stroke-linecap="round" stroke-linejoin="round" stroke-width="2.0"/>
    <path d="M17.75 4.2 L22.95 6.8 17.95 6.8 22.95 6.8 17.8 9.1 17.95 6.8 17.75 4.2" fill="#ffcc00" fill-rule="evenodd" stroke="none"/>
    <path d="M10.3 6.25 Q9.25 6.8 7.95 6.8 5.9 6.8 4.4 5.35 2.95 3.9 2.95 1.8 2.95 -0.25 4.4 -1.75 5.55 -2.9 7.15 -3.1 L7.85 -3.2 7.95 -3.2 8.05 -3.2 9.15 -3.05 9.45 -2.95 9.65 -2.85 9.7 -2.85 10.25 -2.6 Q8.95 -2.4 7.95 -1.4 6.6 -0.05 6.65 1.8 6.65 3.7 7.95 5.0 8.95 6.0 10.3 6.25" fill="#ffffff" fill-rule="evenodd" stroke="none"/>
    <path d="M12.35 -0.5 L11.5 -0.65 Q10.4 -0.65 9.7 0.05 9.0 0.75 9.05 1.8 9.0 2.85 9.7 3.55 10.45 4.3 11.5 4.25 L12.4 4.15 11.5 5.35 Q10.95 5.9 10.3 6.25 8.95 6.0 7.95 5.0 6.65 3.7 6.65 1.8 6.6 -0.05 7.95 -1.4 8.95 -2.4 10.25 -2.6 L11.2 -2.05 11.45 -1.8 11.5 -1.75 11.95 -1.2 12.35 -0.5" fill="#00ccff" fill-rule="evenodd" stroke="none"/>
    <path d="M12.35 -0.5 L12.9 1.05 12.95 1.8 12.75 3.3 12.7 3.55 12.4 4.15 11.5 4.25 Q10.45 4.3 9.7 3.55 9.0 2.85 9.05 1.8 9.0 0.75 9.7 0.05 10.4 -0.65 11.5 -0.65 L12.35 -0.5" fill="#000000" fill-rule="evenodd" stroke="none"/>
    <path d="M12.4 4.15 L12.7 3.55 12.75 3.3 12.95 1.8 12.9 1.05 12.35 -0.5 11.5 -0.65 Q10.4 -0.65 9.7 0.05 9.0 0.75 9.05 1.8 9.0 2.85 9.7 3.55 10.45 4.3 11.5 4.25 L12.4 4.15 11.5 5.35 Q10.95 5.9 10.3 6.25 9.25 6.8 7.95 6.8 5.9 6.8 4.4 5.35 2.95 3.9 2.95 1.8 2.95 -0.25 4.4 -1.75 5.55 -2.9 7.15 -3.1 L7.85 -3.2 7.95 -3.2 8.05 -3.2 9.15 -3.05 M9.65 -2.85 L9.7 -2.85 10.25 -2.6 11.2 -2.05 11.45 -1.8 11.5 -1.75 11.95 -1.2 12.35 -0.5 M17.75 4.2 L17.95 6.8 22.95 6.8 M17.8 9.1 L17.95 6.8" fill="none" stroke="#000000" stroke-linecap="round" stroke-linejoin="round" stroke-width="1.0"/>
    <path d="M22.95 6.8 L17.75 4.2 M22.95 6.8 L17.8 9.1" fill="none" stroke="#000000" stroke-linecap="round" stroke-linejoin="round" stroke-width="2.0"/>
    <path d="M-13.65 8.5 L-22.9 -5.3 -17.75 -4.3 -16.75 -9.45 -11.6 -8.4 -10.6 -13.55 -5.5 -12.5 -4.45 -17.65 0.65 -16.65 1.65 -21.8 10.9 -8.0 -13.65 8.5" fill="url(#gradient0)" fill-rule="evenodd" stroke="none"/>
    <path d="M-13.65 8.5 L10.9 -8.0 1.65 -21.8 0.65 -16.65 -4.45 -17.65 -5.5 -12.5 -10.6 -13.55 -11.6 -8.4 -16.75 -9.45 -17.75 -4.3 -22.9 -5.3 -13.65 8.5 Z" fill="none" stroke="#000000" stroke-linecap="round" stroke-linejoin="round" stroke-width="2.0"/>
  </g>
  <defs>
    <linearGradient gradientTransform="matrix(0.015, -0.0101, 0.0057, 0.0084, -5.95, -6.65)" gradientUnits="userSpaceOnUse" id="gradient0" spreadMethod="pad" x1="-819.2" x2="819.2">
      <stop offset="0.0" stop-color="#999900"/>
      <stop offset="0.1843137254901961" stop-color="#ffff00"/>
      <stop offset="0.5411764705882353" stop-color="#ffffff"/>
      <stop offset="0.8588235294117647" stop-color="#ffff00"/>
      <stop offset="1.0" stop-color="#999900"/>
    </linearGradient>
  </defs>
</svg>
