<?xml version="1.0" encoding="UTF-8" standalone="no"?>
<svg xmlns:ffdec="https://www.free-decompiler.com/flash" xmlns:xlink="http://www.w3.org/1999/xlink" ffdec:objectType="shape" height="32.65px" width="41.5px" xmlns="http://www.w3.org/2000/svg">
  <g transform="matrix(1.0, 0.0, 0.0, 1.0, 30.5, 21.5)">
    <path d="M4.4 1.0 L9.5 3.6 4.45 5.85 4.6 3.6 4.4 1.0 M4.6 3.6 L9.5 3.6 4.6 3.6" fill="#ffcc00" fill-rule="nonzero" stroke="none"/>
    <path d="M-3.0 3.05 L-5.3 3.6 Q-5.55 3.6 -5.8 3.55 -6.05 3.55 -6.3 3.5 -6.5 3.45 -6.75 3.4 -6.95 3.3 -7.2 3.2 -7.4 3.15 -7.6 3.0 -7.85 2.9 -8.05 2.75 -8.25 2.65 -8.45 2.5 -8.65 2.35 -8.8 2.15 -9.0 1.95 -9.15 1.8 -9.3 1.6 -9.45 1.4 -9.55 1.2 -9.7 1.0 -9.8 0.75 -9.9 0.55 -9.95 0.35 -10.05 0.1 -10.1 -0.15 -10.15 -0.35 -10.2 -0.6 -10.2 -0.85 -10.25 -1.1 -10.25 -1.35 -10.25 -1.6 -10.25 -1.85 -10.2 -2.1 -10.15 -2.35 -10.1 -2.6 -10.05 -2.8 -10.0 -3.05 -9.9 -3.25 -9.8 -3.5 -9.7 -3.7 -9.55 -3.9 -9.45 -4.1 -9.3 -4.3 -9.15 -4.5 -9.0 -4.7 -8.8 -4.9 -8.65 -5.05 -8.5 -5.15 -8.35 -5.3 -8.2 -5.4 -8.05 -5.5 -7.9 -5.6 -7.75 -5.7 -7.55 -5.8 -7.4 -5.85 -7.2 -5.95 -7.05 -6.0 -6.85 -6.05 -6.65 -6.1 -6.5 -6.15 -6.3 -6.2 -6.1 -6.2 L-5.4 -6.3 -5.3 -6.3 -5.2 -6.3 -4.1 -6.15 -3.8 -6.05 -3.6 -5.95 -3.55 -5.95 -3.05 -5.7 Q-3.2 -5.7 -3.35 -5.65 -3.5 -5.6 -3.65 -5.55 -3.8 -5.5 -3.95 -5.45 -4.1 -5.4 -4.25 -5.3 -4.4 -5.25 -4.5 -5.15 -4.65 -5.1 -4.8 -5.0 -4.9 -4.9 -5.05 -4.75 -5.2 -4.65 -5.3 -4.55 -5.45 -4.4 -5.6 -4.2 -5.75 -4.05 -5.9 -3.85 -6.0 -3.65 -6.1 -3.45 -6.2 -3.25 -6.3 -3.05 -6.35 -2.9 -6.45 -2.65 -6.5 -2.45 -6.55 -2.25 -6.55 -2.05 -6.6 -1.8 -6.6 -1.6 -6.6 -1.35 -6.6 -1.1 -6.6 -0.9 -6.55 -0.65 -6.5 -0.45 -6.45 -0.25 -6.4 -0.05 -6.35 0.15 -6.25 0.35 -6.2 0.55 -6.1 0.75 -6.0 0.95 -5.85 1.1 -5.75 1.3 -5.6 1.45 -5.45 1.65 -5.3 1.8 -5.2 1.9 -5.05 2.05 -4.9 2.15 -4.8 2.25 -4.65 2.35 -4.5 2.45 -4.35 2.55 -4.25 2.6 -4.1 2.7 -3.95 2.75 -3.8 2.8 -3.65 2.85 -3.45 2.9 -3.3 2.95 -3.15 3.0 -3.0 3.05" fill="#ffffff" fill-rule="nonzero" stroke="none"/>
    <path d="M-3.0 3.05 Q-3.15 3.0 -3.3 2.95 -3.5 2.95 -3.65 2.85 -3.8 2.8 -3.95 2.75 -4.1 2.7 -4.25 2.6 -4.4 2.55 -4.5 2.45 -4.65 2.35 -4.8 2.25 -4.9 2.15 -5.05 2.05 -5.2 1.9 -5.3 1.8 -5.45 1.65 -5.6 1.45 -5.75 1.3 -5.85 1.1 -6.0 0.95 -6.1 0.75 -6.2 0.55 -6.25 0.35 -6.35 0.15 -6.4 -0.05 -6.45 -0.25 -6.5 -0.45 -6.55 -0.7 -6.55 -0.9 -6.6 -1.15 -6.6 -1.35 -6.6 -1.6 -6.6 -1.8 -6.55 -2.05 -6.55 -2.25 -6.5 -2.45 -6.45 -2.65 -6.35 -2.85 -6.3 -3.05 -6.2 -3.25 -6.1 -3.45 -6.0 -3.65 -5.9 -3.85 -5.75 -4.0 -5.6 -4.2 -5.45 -4.35 -5.3 -4.55 -5.2 -4.65 -5.05 -4.8 -4.9 -4.9 -4.8 -5.0 -4.65 -5.1 -4.5 -5.15 -4.4 -5.25 -4.25 -5.35 -4.1 -5.4 -3.95 -5.45 -3.8 -5.5 -3.65 -5.55 -3.5 -5.6 -3.35 -5.65 -3.2 -5.7 -3.05 -5.7 L-2.1 -5.15 -1.85 -4.95 -1.8 -4.9 -1.35 -4.35 -0.95 -3.65 -1.8 -3.8 Q-1.95 -3.8 -2.05 -3.8 -2.2 -3.75 -2.3 -3.75 -2.45 -3.75 -2.55 -3.7 -2.65 -3.65 -2.8 -3.6 -2.9 -3.55 -3.0 -3.5 -3.1 -3.45 -3.2 -3.4 -3.3 -3.35 -3.4 -3.25 -3.5 -3.2 -3.55 -3.1 -3.65 -3.0 -3.7 -2.9 -3.8 -2.85 -3.85 -2.75 -3.95 -2.65 -4.0 -2.55 -4.05 -2.45 -4.1 -2.3 -4.1 -2.2 -4.15 -2.1 -4.2 -2.0 -4.2 -1.85 -4.2 -1.75 -4.2 -1.6 -4.2 -1.5 -4.2 -1.35 -4.2 -1.2 -4.2 -1.1 -4.2 -1.0 -4.2 -0.85 -4.15 -0.75 -4.15 -0.65 -4.1 -0.5 -4.1 -0.4 -4.05 -0.3 -4.0 -0.2 -3.95 -0.1 -3.85 0.0 -3.8 0.1 -3.75 0.2 -3.65 0.3 -3.55 0.35 -3.45 0.45 -3.35 0.55 -3.25 0.6 -3.2 0.7 -3.1 0.75 -2.95 0.8 -2.85 0.85 -2.75 0.9 -2.65 0.95 -2.55 1.0 -2.4 1.0 -2.3 1.05 -2.2 1.05 -2.05 1.05 -1.95 1.05 -1.8 1.05 L-0.9 0.95 -1.8 2.15 Q-1.85 2.2 -1.95 2.3 -2.0 2.35 -2.1 2.4 -2.15 2.45 -2.2 2.55 -2.3 2.6 -2.35 2.65 -2.45 2.7 -2.5 2.75 -2.6 2.8 -2.65 2.85 -2.75 2.9 -2.8 2.95 -2.9 3.0 -3.0 3.05" fill="#00ccff" fill-rule="nonzero" stroke="none"/>
    <path d="M-0.9 0.95 L-1.8 1.05 Q-1.95 1.05 -2.05 1.05 -2.2 1.05 -2.3 1.05 -2.4 1.0 -2.55 1.0 -2.65 0.95 -2.75 0.9 -2.85 0.85 -3.0 0.8 -3.1 0.75 -3.2 0.7 -3.3 0.6 -3.4 0.55 -3.5 0.45 -3.55 0.35 -3.65 0.25 -3.7 0.2 -3.8 0.1 -3.85 0.0 -3.95 -0.1 -4.0 -0.2 -4.05 -0.3 -4.1 -0.4 -4.1 -0.5 -4.15 -0.65 -4.2 -0.75 -4.2 -0.85 -4.2 -1.0 -4.2 -1.1 -4.2 -1.25 -4.2 -1.35 -4.2 -1.5 -4.2 -1.6 -4.2 -1.75 -4.2 -1.85 -4.15 -2.0 -4.15 -2.1 -4.1 -2.2 -4.1 -2.3 -4.05 -2.4 -4.0 -2.55 -3.95 -2.65 -3.85 -2.75 -3.8 -2.85 -3.75 -2.9 -3.65 -3.0 -3.55 -3.1 -3.45 -3.2 -3.4 -3.25 -3.3 -3.35 -3.2 -3.4 -3.1 -3.45 -3.0 -3.5 -2.9 -3.55 -2.8 -3.6 -2.65 -3.65 -2.55 -3.7 -2.45 -3.7 -2.3 -3.75 -2.2 -3.75 -2.05 -3.8 -1.95 -3.8 -1.8 -3.8 L-0.95 -3.65 Q-0.9 -3.55 -0.85 -3.45 -0.8 -3.4 -0.75 -3.3 -0.75 -3.2 -0.7 -3.1 -0.65 -3.0 -0.6 -2.9 -0.6 -2.8 -0.55 -2.7 -0.55 -2.6 -0.5 -2.5 -0.5 -2.4 -0.45 -2.3 -0.45 -2.2 -0.4 -2.1 L-0.35 -1.35 -0.55 0.1 -0.6 0.35 -0.9 0.95" fill="#000000" fill-rule="nonzero" stroke="none"/>
    <path d="M-4.1 -6.15 L-5.2 -6.3 -5.3 -6.3 -5.4 -6.3 -6.1 -6.2 Q-6.3 -6.2 -6.5 -6.15 -6.7 -6.1 -6.85 -6.05 -7.05 -6.0 -7.2 -5.95 -7.4 -5.85 -7.55 -5.8 -7.75 -5.7 -7.9 -5.6 -8.05 -5.5 -8.2 -5.4 -8.35 -5.3 -8.5 -5.15 -8.65 -5.0 -8.8 -4.9 -9.0 -4.7 -9.15 -4.5 -9.3 -4.3 -9.45 -4.1 -9.55 -3.9 -9.7 -3.7 -9.8 -3.5 -9.9 -3.25 -9.95 -3.05 -10.05 -2.8 -10.1 -2.6 -10.15 -2.35 -10.2 -2.1 -10.2 -1.85 -10.25 -1.6 -10.25 -1.35 -10.25 -1.1 -10.25 -0.85 -10.2 -0.6 -10.15 -0.35 -10.1 -0.1 -10.05 0.1 -10.0 0.35 -9.9 0.55 -9.8 0.75 -9.7 1.0 -9.55 1.2 -9.45 1.4 -9.3 1.6 -9.15 1.8 -9.0 1.95 -8.8 2.15 -8.6 2.35 -8.4 2.5 -8.25 2.65 -8.05 2.8 -7.85 2.9 -7.6 3.0 -7.4 3.15 -7.2 3.2 -6.95 3.3 -6.75 3.4 -6.5 3.45 -6.3 3.5 -6.05 3.55 -5.8 3.55 -5.55 3.6 -5.3 3.6 L-3.0 3.05 Q-2.9 3.0 -2.85 2.95 -2.75 2.9 -2.65 2.85 -2.6 2.8 -2.5 2.75 -2.45 2.7 -2.35 2.65 -2.3 2.6 -2.2 2.55 -2.15 2.45 -2.05 2.4 -2.0 2.35 -1.95 2.3 -1.85 2.2 -1.8 2.15 L-0.9 0.95 -0.6 0.35 -0.55 0.1 -0.35 -1.35 -0.4 -2.1 Q-0.4 -2.2 -0.45 -2.3 -0.45 -2.4 -0.5 -2.5 -0.5 -2.6 -0.55 -2.7 -0.6 -2.8 -0.6 -2.9 -0.65 -3.0 -0.7 -3.1 -0.75 -3.2 -0.75 -3.3 -0.8 -3.4 -0.85 -3.45 -0.9 -3.55 -0.95 -3.65 L-1.35 -4.35 -1.8 -4.9 -1.85 -4.95 -2.1 -5.15 -3.05 -5.7 -3.55 -5.95 -3.6 -5.95 M-0.95 -3.65 L-1.8 -3.8 Q-1.95 -3.8 -2.05 -3.8 -2.2 -3.75 -2.3 -3.75 -2.45 -3.75 -2.55 -3.7 -2.65 -3.65 -2.8 -3.6 -2.9 -3.55 -3.0 -3.5 -3.1 -3.45 -3.2 -3.4 -3.3 -3.35 -3.4 -3.25 -3.5 -3.2 -3.55 -3.1 -3.65 -3.0 -3.7 -2.9 -3.8 -2.85 -3.85 -2.75 -3.95 -2.65 -4.0 -2.55 -4.05 -2.45 -4.1 -2.3 -4.1 -2.2 -4.15 -2.1 -4.2 -2.0 -4.2 -1.85 -4.2 -1.75 -4.2 -1.6 -4.2 -1.5 -4.2 -1.35 -4.2 -1.2 -4.2 -1.1 -4.2 -1.0 -4.2 -0.85 -4.15 -0.75 -4.15 -0.65 -4.1 -0.5 -4.1 -0.4 -4.05 -0.3 -4.0 -0.2 -3.95 -0.1 -3.85 0.0 -3.8 0.1 -3.75 0.2 -3.65 0.3 -3.55 0.35 -3.45 0.45 -3.35 0.55 -3.25 0.6 -3.2 0.7 -3.1 0.75 -2.95 0.8 -2.85 0.85 -2.75 0.9 -2.65 0.95 -2.55 1.0 -2.4 1.0 -2.3 1.05 -2.2 1.05 -2.05 1.05 -1.95 1.05 -1.8 1.05 L-0.9 0.95 M4.45 5.85 L4.6 3.6 4.4 1.0 M9.5 3.6 L4.6 3.6" fill="none" stroke="#000000" stroke-linecap="round" stroke-linejoin="round" stroke-width="1.0"/>
    <path d="M4.4 1.0 L9.5 3.6 4.45 5.85" fill="none" stroke="#000000" stroke-linecap="round" stroke-linejoin="round" stroke-width="2.0"/>
    <path d="M-26.45 8.0 L-26.1 8.4 -5.4 -12.35 -6.1 -12.9 -4.95 -12.3 -26.0 8.8 -26.45 8.0" fill="#ff0000" fill-rule="nonzero" stroke="none"/>
    <path d="M-6.1 -12.9 L-5.4 -12.35 -26.1 8.4 -26.45 8.0 Q-26.85 7.5 -27.15 7.0 -27.5 6.5 -27.8 5.95 -28.1 5.45 -28.3 4.9 -28.55 4.35 -28.75 3.8 -28.95 3.2 -29.1 2.65 -29.2 2.05 -29.3 1.45 -29.4 0.85 -29.45 0.25 -29.5 -0.4 -29.5 -1.0 -29.5 -1.75 -29.45 -2.5 -29.35 -3.25 -29.25 -3.95 -29.1 -4.65 -28.9 -5.35 -28.7 -6.0 -28.45 -6.65 -28.15 -7.3 -27.85 -7.95 -27.5 -8.55 -27.1 -9.15 -26.7 -9.75 -26.2 -10.35 -25.75 -10.9 -25.2 -11.45 -24.65 -12.0 -24.1 -12.45 -23.5 -12.95 -22.95 -13.35 -22.35 -13.75 -21.7 -14.1 -21.1 -14.4 -20.45 -14.7 -19.8 -14.95 -19.1 -15.15 -18.4 -15.35 -17.7 -15.5 -17.0 -15.65 -16.3 -15.7 -15.55 -15.75 -14.8 -15.75 -14.2 -15.75 -13.6 -15.7 -13.0 -15.65 -12.4 -15.6 -11.85 -15.5 -11.3 -15.35 -10.7 -15.2 -10.15 -15.05 -9.65 -14.85 -9.1 -14.65 -8.55 -14.4 -8.05 -14.15 -7.55 -13.9 -7.05 -13.55 -6.55 -13.25 -6.1 -12.9" fill="#ffffff" fill-rule="nonzero" stroke="none"/>
    <path d="M-6.1 -12.9 L-5.4 -12.35 -26.1 8.4 -26.45 8.0 -26.0 8.8 -4.95 -12.3 -6.1 -12.9 Q-6.55 -13.25 -7.05 -13.55 -7.55 -13.9 -8.05 -14.15 -8.6 -14.4 -9.1 -14.65 -9.65 -14.85 -10.15 -15.05 -10.7 -15.2 -11.25 -15.35 -11.85 -15.5 -12.4 -15.6 -13.0 -15.65 -13.6 -15.7 -14.2 -15.75 -14.8 -15.75 -15.55 -15.75 -16.3 -15.7 -17.0 -15.6 -17.7 -15.5 -18.45 -15.35 -19.1 -15.15 -19.8 -14.95 -20.45 -14.7 -21.1 -14.4 -21.7 -14.1 -22.35 -13.75 -22.95 -13.35 -23.55 -12.95 -24.1 -12.45 -24.65 -12.0 -25.2 -11.45 -25.75 -10.9 -26.2 -10.35 -26.7 -9.75 -27.1 -9.15 -27.5 -8.55 -27.85 -7.95 -28.15 -7.3 -28.45 -6.65 -28.7 -6.0 -28.9 -5.35 -29.1 -4.65 -29.25 -3.95 -29.4 -3.25 -29.45 -2.5 -29.5 -1.8 -29.5 -1.0 -29.5 -0.35 -29.45 0.25 -29.4 0.85 -29.3 1.45 -29.2 2.05 -29.1 2.65 -28.95 3.2 -28.75 3.8 -28.55 4.35 -28.3 4.9 -28.1 5.45 -27.8 5.95 -27.5 6.5 -27.15 7.0 -26.85 7.5 -26.45 8.0 M-26.0 8.8 L-27.05 9.8 M-4.95 -12.3 L3.35 -20.5" fill="none" stroke="#000000" stroke-linecap="round" stroke-linejoin="round" stroke-width="2.0"/>
    <path d="M-20.6 -0.35 L-26.2 -5.95 -20.6 -11.55 -15.05 -5.95 -20.6 -0.35 -20.6 -0.35 M-20.6 -10.35 L-25.0 -5.95 -20.6 -1.6 -16.25 -5.95 -20.6 -10.35 -20.6 -10.35 M-20.6 -6.6 L-21.85 -7.85 -21.25 -8.45 -20.0 -7.2 -20.6 -6.6 -20.6 -6.6 M-18.75 -5.95 L-19.35 -6.6 -18.75 -7.2 -18.15 -6.6 -18.75 -5.95 -18.75 -5.95 -18.15 -5.35 -20.0 -3.5 -20.0 -3.5 -20.6 -4.1 -18.75 -5.95 M-21.85 -5.35 L-23.1 -6.6 -22.5 -7.2 -21.25 -5.95 -21.85 -5.35 -21.85 -5.35 M-21.25 -3.5 L-21.85 -4.1 -21.25 -4.7 -20.65 -4.1 -21.25 -3.5 -21.25 -3.5" fill="#000000" fill-rule="nonzero" stroke="none"/>
  </g>
</svg>
