<?xml version="1.0" encoding="UTF-8" standalone="no"?>
<svg xmlns:ffdec="https://www.free-decompiler.com/flash" xmlns:xlink="http://www.w3.org/1999/xlink" ffdec:objectType="shape" height="57.6px" width="44.5px" xmlns="http://www.w3.org/2000/svg">
  <g transform="matrix(1.0, 0.0, 0.0, 1.0, 17.2, 28.4)">
    <path d="M21.55 -12.65 L26.3 -9.25 20.85 -7.75 21.35 -10.05 21.55 -12.65 M26.3 -9.25 L21.35 -10.05 26.3 -9.25" fill="#ffcc00" fill-rule="evenodd" stroke="none"/>
    <path d="M15.25 -20.5 Q13.9 -20.5 12.8 -19.7 11.6 -18.85 11.15 -17.5 L11.0 -16.7 10.95 -16.0 Q10.9 -14.6 11.8 -13.35 12.6 -12.25 13.9 -11.8 L11.5 -11.6 10.3 -11.95 Q9.05 -12.45 8.25 -13.55 7.0 -15.25 7.35 -17.3 7.65 -19.35 9.35 -20.6 10.45 -21.4 11.8 -21.45 L12.25 -21.5 13.0 -21.5 13.1 -21.45 13.2 -21.45 14.2 -21.15 14.5 -21.0 14.65 -20.85 14.7 -20.85 15.25 -20.5" fill="#ffffff" fill-rule="evenodd" stroke="none"/>
    <path d="M15.25 -20.5 L16.1 -19.85 16.3 -19.55 16.35 -19.5 16.7 -18.9 17.0 -18.15 16.2 -18.4 Q15.1 -18.6 14.25 -18.0 13.45 -17.4 13.35 -16.35 13.15 -15.35 13.7 -14.55 14.35 -13.65 15.4 -13.55 L16.3 -13.5 15.25 -12.45 Q14.6 -12.05 13.9 -11.8 12.6 -12.25 11.8 -13.35 10.9 -14.6 10.95 -16.0 L11.0 -16.7 11.15 -17.5 Q11.6 -18.85 12.8 -19.7 13.9 -20.5 15.25 -20.5" fill="#00ccff" fill-rule="evenodd" stroke="none"/>
    <path d="M16.3 -13.5 L15.4 -13.55 Q14.35 -13.65 13.7 -14.55 13.15 -15.35 13.35 -16.35 13.45 -17.4 14.25 -18.0 15.1 -18.6 16.2 -18.4 L17.0 -18.15 17.25 -16.5 17.2 -15.75 16.75 -14.3 16.65 -14.05 16.3 -13.5" fill="#000000" fill-rule="evenodd" stroke="none"/>
    <path d="M5.0 27.5 Q-1.45 29.65 -5.0 25.0 L-5.0 20.8 Q-9.7 19.05 -12.8 14.8 -17.05 8.9 -15.95 1.75 -14.8 -5.4 -8.9 -9.65 L-8.25 -10.1 Q-8.6 -12.3 -8.25 -14.75 -7.25 -20.85 -2.25 -24.5 2.8 -28.15 8.9 -27.2 13.3 -26.5 16.45 -23.7 L18.65 -21.2 Q21.55 -17.25 21.55 -12.65 L26.3 -9.25 20.85 -7.75 Q19.85 -4.55 17.6 -2.15 19.0 1.2 18.85 5.0 L18.6 7.25 Q17.5 14.4 11.6 18.7 5.75 22.9 -1.4 21.75 L-3.8 21.2 -5.0 20.8" fill="none" stroke="#000000" stroke-linecap="round" stroke-linejoin="round" stroke-width="2.0"/>
    <path d="M17.0 -18.15 L16.7 -18.9 16.35 -19.5 16.3 -19.55 16.1 -19.85 15.25 -20.5 14.7 -20.85 14.65 -20.85 M13.9 -11.8 Q14.6 -12.05 15.25 -12.45 L16.3 -13.5 15.4 -13.55 Q14.35 -13.65 13.7 -14.55 13.15 -15.35 13.35 -16.35 13.45 -17.4 14.25 -18.0 15.1 -18.6 16.2 -18.4 L17.0 -18.15 17.25 -16.5 17.2 -15.75 16.75 -14.3 16.65 -14.05 16.3 -13.5 M14.2 -21.15 L13.2 -21.45 13.1 -21.45 13.0 -21.5 12.25 -21.5 11.8 -21.45 Q10.45 -21.4 9.35 -20.6 7.65 -19.35 7.35 -17.3 7.0 -15.25 8.25 -13.55 9.05 -12.45 10.3 -11.95 L11.5 -11.6 13.9 -11.8 M21.35 -10.05 L26.3 -9.25 M20.85 -7.75 L21.35 -10.05 21.55 -12.65" fill="none" stroke="#000000" stroke-linecap="round" stroke-linejoin="round" stroke-width="1.0"/>
  </g>
</svg>
