<?xml version="1.0" encoding="UTF-8" standalone="no"?>
<svg xmlns:ffdec="https://www.free-decompiler.com/flash" xmlns:xlink="http://www.w3.org/1999/xlink" ffdec:objectType="shape" height="50.7px" width="48.05px" xmlns="http://www.w3.org/2000/svg">
  <g transform="matrix(1.0, 0.0, 0.0, 1.0, 12.3, 30.55)">
    <path d="M30.75 -17.25 L31.2 -16.3 31.2 -15.95 31.2 -15.85 31.2 -15.15 31.1 -14.35 30.55 -15.0 Q29.7 -15.7 28.65 -15.6 27.65 -15.45 27.05 -14.6 26.4 -13.85 26.45 -12.9 26.6 -11.75 27.45 -11.2 L28.15 -10.7 Q27.5 -10.35 26.75 -10.3 L25.25 -10.4 Q24.35 -11.45 24.2 -12.8 24.05 -14.35 24.8 -15.5 L25.2 -16.1 25.7 -16.7 Q26.8 -17.65 28.25 -17.8 29.6 -17.95 30.75 -17.25" fill="#00ccff" fill-rule="evenodd" stroke="none"/>
    <path d="M30.75 -17.25 Q29.6 -17.95 28.25 -17.8 26.8 -17.65 25.7 -16.7 L25.2 -16.1 24.8 -15.5 Q24.05 -14.35 24.2 -12.8 24.35 -11.45 25.25 -10.4 24.05 -10.6 23.05 -11.45 L22.2 -12.35 Q21.4 -13.4 21.25 -14.75 21.0 -16.85 22.3 -18.45 23.65 -20.05 25.7 -20.3 27.05 -20.45 28.25 -19.85 L28.65 -19.6 29.3 -19.25 29.4 -19.2 29.5 -19.15 30.2 -18.35 30.35 -18.1 30.45 -17.85 30.5 -17.85 30.75 -17.25" fill="#ffffff" fill-rule="evenodd" stroke="none"/>
    <path d="M28.15 -10.7 L27.45 -11.2 Q26.6 -11.75 26.45 -12.9 26.4 -13.85 27.05 -14.6 27.65 -15.45 28.65 -15.6 29.7 -15.7 30.55 -15.0 L31.1 -14.35 30.5 -12.8 30.1 -12.2 28.95 -11.15 28.75 -10.95 28.15 -10.7" fill="#000000" fill-rule="evenodd" stroke="none"/>
    <path d="M32.3 -7.3 L34.75 -2.0 29.25 -3.4 30.85 -5.15 32.3 -7.3 M34.75 -2.0 L30.85 -5.15 34.75 -2.0" fill="#ffcc00" fill-rule="evenodd" stroke="none"/>
    <path d="M-2.1 19.15 Q-8.75 17.85 -9.55 12.0 L-7.45 8.35 Q-10.6 4.5 -11.2 -0.75 -11.9 -7.95 -7.35 -13.6 -2.8 -19.25 4.45 -19.95 L5.2 -20.0 Q6.0 -22.1 7.55 -24.0 11.45 -28.8 17.6 -29.45 23.8 -30.15 28.6 -26.25 32.05 -23.45 33.4 -19.4 33.95 -17.9 34.05 -16.15 34.6 -11.3 32.3 -7.3 L34.75 -2.0 29.25 -3.4 Q26.8 -1.15 23.65 -0.2 23.15 3.4 21.1 6.65 L19.8 8.45 Q15.25 14.05 8.0 14.85 0.85 15.6 -4.75 11.0 L-6.6 9.3 -7.45 8.35" fill="none" stroke="#000000" stroke-linecap="round" stroke-linejoin="round" stroke-width="2.0"/>
    <path d="M31.1 -14.35 L31.2 -15.15 31.2 -15.85 31.2 -15.95 31.2 -16.3 30.75 -17.25 30.5 -17.85 30.45 -17.85 M25.25 -10.4 L26.75 -10.3 Q27.5 -10.35 28.15 -10.7 L27.45 -11.2 Q26.6 -11.75 26.45 -12.9 26.4 -13.85 27.05 -14.6 27.65 -15.45 28.65 -15.6 29.7 -15.7 30.55 -15.0 L31.1 -14.35 30.5 -12.8 30.1 -12.2 28.95 -11.15 28.75 -10.95 28.15 -10.7 M30.2 -18.35 L29.5 -19.15 29.4 -19.2 29.3 -19.25 28.65 -19.6 28.25 -19.85 Q27.05 -20.45 25.7 -20.3 23.65 -20.05 22.3 -18.45 21.0 -16.85 21.25 -14.75 21.4 -13.4 22.2 -12.35 L23.05 -11.45 Q24.05 -10.6 25.25 -10.4 M30.85 -5.15 L34.75 -2.0 M32.3 -7.3 L30.85 -5.15 29.25 -3.4" fill="none" stroke="#000000" stroke-linecap="round" stroke-linejoin="round" stroke-width="1.0"/>
  </g>
</svg>
