<?xml version="1.0" encoding="UTF-8" standalone="no"?>
<svg xmlns:ffdec="https://www.free-decompiler.com/flash" xmlns:xlink="http://www.w3.org/1999/xlink" ffdec:objectType="shape" height="38.45px" width="55.9px" xmlns="http://www.w3.org/2000/svg">
  <g transform="matrix(1.0, 0.0, 0.0, 1.0, 10.45, 25.6)">
    <path d="M32.55 -2.9 Q32.35 -4.25 32.85 -5.55 33.55 -6.95 34.75 -7.55 L35.35 -7.9 36.1 -8.15 Q37.55 -8.45 38.85 -7.8 40.15 -7.3 40.8 -6.1 L40.65 -5.05 40.5 -4.75 40.45 -4.7 40.1 -4.05 39.65 -3.45 39.45 -4.25 Q39.05 -5.3 38.1 -5.7 L36.25 -5.65 Q35.3 -5.35 34.85 -4.45 34.45 -3.45 34.85 -2.5 L35.25 -1.7 33.8 -2.05 32.55 -2.9" fill="#00ccff" fill-rule="evenodd" stroke="none"/>
    <path d="M40.8 -6.1 Q40.15 -7.3 38.85 -7.8 37.55 -8.45 36.1 -8.15 L35.35 -7.9 34.75 -7.55 Q33.55 -6.95 32.85 -5.55 32.35 -4.25 32.55 -2.9 31.65 -3.7 31.2 -4.9 31.0 -5.5 30.95 -6.15 30.75 -7.45 31.3 -8.65 32.15 -10.65 34.05 -11.4 L37.9 -11.3 Q39.2 -10.7 39.9 -9.6 L40.1 -9.15 40.5 -8.55 40.55 -8.5 40.65 -8.4 40.85 -7.35 40.85 -7.05 40.8 -6.75 40.85 -6.75 40.8 -6.1" fill="#ffffff" fill-rule="evenodd" stroke="none"/>
    <path d="M35.25 -1.7 L34.85 -2.5 Q34.45 -3.45 34.85 -4.45 35.3 -5.35 36.25 -5.65 L38.1 -5.7 Q39.05 -5.3 39.45 -4.25 L39.65 -3.45 38.3 -2.4 37.65 -2.05 36.15 -1.7 35.9 -1.65 35.25 -1.7" fill="#000000" fill-rule="evenodd" stroke="none"/>
    <path d="M37.1 3.3 L36.6 9.1 32.55 5.15 34.8 4.45 37.1 3.3 M36.6 9.1 L34.8 4.45 36.6 9.1" fill="#ffcc00" fill-rule="evenodd" stroke="none"/>
    <path d="M-5.85 9.0 Q-11.0 4.55 -8.75 -0.9 L-5.1 -3.0 Q-5.95 -7.95 -3.8 -12.8 -0.8 -19.4 5.95 -22.0 12.75 -24.6 19.35 -21.6 L20.0 -21.25 Q21.75 -22.7 24.05 -23.55 29.8 -25.75 35.5 -23.25 41.2 -20.75 43.4 -15.0 45.0 -10.8 44.15 -6.65 43.85 -5.05 43.1 -3.5 41.1 0.95 37.1 3.3 L36.6 9.1 32.55 5.15 Q29.3 5.85 26.1 5.15 23.85 8.0 20.45 9.75 L18.45 10.65 Q11.7 13.25 5.05 10.3 -1.55 7.4 -4.1 0.65 L-4.85 -1.8 -5.1 -3.0" fill="none" stroke="#000000" stroke-linecap="round" stroke-linejoin="round" stroke-width="2.0"/>
    <path d="M40.8 -6.1 L40.85 -6.75 40.8 -6.75 M40.85 -7.35 L40.65 -8.4 40.55 -8.5 40.5 -8.55 40.1 -9.15 39.9 -9.6 Q39.2 -10.7 37.9 -11.3 L34.05 -11.4 Q32.15 -10.65 31.3 -8.65 30.75 -7.45 30.95 -6.15 31.0 -5.5 31.2 -4.9 31.65 -3.7 32.55 -2.9 L33.8 -2.05 35.25 -1.7 34.85 -2.5 Q34.45 -3.45 34.85 -4.45 35.3 -5.35 36.25 -5.65 L38.1 -5.7 Q39.05 -5.3 39.45 -4.25 L39.65 -3.45 40.1 -4.05 40.45 -4.7 40.5 -4.75 40.65 -5.05 40.8 -6.1 M35.25 -1.7 L35.9 -1.65 36.15 -1.7 37.65 -2.05 38.3 -2.4 39.65 -3.45 M37.1 3.3 L34.8 4.45 36.6 9.1 M32.55 5.15 L34.8 4.45" fill="none" stroke="#000000" stroke-linecap="round" stroke-linejoin="round" stroke-width="1.0"/>
  </g>
</svg>
