<?xml version="1.0" encoding="UTF-8" standalone="no"?>
<svg xmlns:ffdec="https://www.free-decompiler.com/flash" xmlns:xlink="http://www.w3.org/1999/xlink" ffdec:objectType="shape" height="43.35px" width="57.75px" xmlns="http://www.w3.org/2000/svg">
  <g transform="matrix(1.0, 0.0, 0.0, 1.0, 2.75, 26.5)">
    <path d="M38.95 3.3 Q38.5 2.15 38.65 0.9 L38.95 -0.35 Q39.35 -1.6 40.35 -2.45 42.0 -3.85 44.0 -3.7 46.1 -3.4 47.4 -1.9 48.35 -0.8 48.45 0.45 L48.5 0.95 48.55 1.65 48.6 1.75 48.65 1.9 48.4 2.9 48.25 3.15 48.1 3.45 48.15 3.45 47.8 4.0 Q47.7 2.65 46.8 1.65 45.85 0.5 44.45 0.1 L43.7 0.0 43.0 0.05 Q41.6 0.1 40.4 1.05 39.4 2.0 38.95 3.3" fill="#ffffff" fill-rule="evenodd" stroke="none"/>
    <path d="M38.95 3.3 Q39.4 2.0 40.4 1.05 41.6 0.1 43.0 0.05 L43.7 0.0 44.45 0.1 Q45.85 0.5 46.8 1.65 47.7 2.65 47.8 4.0 L47.2 4.9 46.9 5.1 46.85 5.1 46.25 5.55 45.6 5.9 45.75 5.1 Q45.85 4.0 45.2 3.2 44.55 2.45 43.5 2.4 42.55 2.3 41.75 2.9 40.9 3.65 40.9 4.65 L40.9 5.55 Q40.2 5.2 39.75 4.6 L38.95 3.3" fill="#00ccff" fill-rule="evenodd" stroke="none"/>
    <path d="M40.9 5.55 L40.9 4.65 Q40.9 3.65 41.75 2.9 42.55 2.3 43.5 2.4 44.55 2.45 45.2 3.2 45.85 4.0 45.75 5.1 L45.6 5.9 43.95 6.25 43.2 6.25 41.7 5.9 41.45 5.85 40.9 5.55" fill="#000000" fill-rule="evenodd" stroke="none"/>
    <path d="M40.35 10.85 L37.4 15.85 35.45 10.55 37.8 10.9 40.35 10.85 M37.4 15.85 L37.8 10.9 37.4 15.85" fill="#ffcc00" fill-rule="evenodd" stroke="none"/>
    <path d="M35.45 10.55 Q32.25 9.75 29.65 7.75 26.4 9.3 22.6 9.4 L20.4 9.35 Q13.2 8.75 8.5 3.2 3.85 -2.25 4.45 -9.45 L4.9 -11.95 5.15 -13.15 1.0 -12.85 Q-3.45 -8.95 -0.7 -2.7 M5.15 -13.15 Q6.55 -18.0 10.6 -21.4 16.2 -26.05 23.35 -25.45 30.6 -24.8 35.25 -19.25 L35.7 -18.65 40.3 -18.95 Q46.45 -18.45 50.45 -13.7 54.5 -9.0 53.95 -2.9 53.6 1.6 51.05 4.95 L48.7 7.35 Q45.0 10.45 40.35 10.85 L37.4 15.85 35.45 10.55" fill="none" stroke="#000000" stroke-linecap="round" stroke-linejoin="round" stroke-width="2.0"/>
    <path d="M35.45 10.55 L37.8 10.9 40.35 10.85 M48.4 2.9 L48.65 1.9 48.6 1.75 48.55 1.65 48.5 0.95 48.45 0.45 Q48.35 -0.8 47.4 -1.9 46.1 -3.4 44.0 -3.7 42.0 -3.85 40.35 -2.45 39.35 -1.6 38.95 -0.35 L38.65 0.9 Q38.5 2.15 38.95 3.3 L39.75 4.6 Q40.2 5.2 40.9 5.55 L40.9 4.65 Q40.9 3.65 41.75 2.9 42.55 2.3 43.5 2.4 44.55 2.45 45.2 3.2 45.85 4.0 45.75 5.1 L45.6 5.9 46.25 5.55 46.85 5.1 46.9 5.1 47.2 4.9 47.8 4.0 48.15 3.45 48.1 3.45 M40.9 5.55 L41.45 5.85 41.7 5.9 43.2 6.25 43.95 6.25 45.6 5.9 M37.8 10.9 L37.4 15.85" fill="none" stroke="#000000" stroke-linecap="round" stroke-linejoin="round" stroke-width="1.0"/>
  </g>
</svg>
