<?xml version="1.0" encoding="UTF-8" standalone="no"?>
<svg xmlns:ffdec="https://www.free-decompiler.com/flash" xmlns:xlink="http://www.w3.org/1999/xlink" ffdec:objectType="shape" height="47.65px" width="53.7px" xmlns="http://www.w3.org/2000/svg">
  <g transform="matrix(1.0, 0.0, 0.0, 1.0, -6.35, 23.8)">
    <path d="M40.9 12.1 Q40.95 10.85 41.65 9.75 L42.4 8.8 Q43.3 7.8 44.55 7.4 46.65 6.85 48.4 7.85 50.15 8.95 50.75 10.85 51.15 12.25 50.7 13.45 L50.55 13.9 50.3 14.6 50.3 14.7 50.3 14.85 49.65 15.65 49.4 15.8 49.15 16.05 49.2 16.05 48.65 16.4 Q49.1 15.1 48.7 13.85 48.35 12.4 47.2 11.45 L46.6 11.05 45.95 10.8 43.15 10.65 Q41.85 11.05 40.9 12.1" fill="#ffffff" fill-rule="evenodd" stroke="none"/>
    <path d="M40.9 12.1 Q41.85 11.05 43.15 10.65 L45.95 10.8 46.6 11.05 47.2 11.45 Q48.35 12.4 48.7 13.85 49.1 15.1 48.65 16.4 48.3 16.75 47.7 16.95 L47.4 17.05 47.35 17.0 46.6 17.15 45.85 17.2 46.35 16.55 Q46.9 15.6 46.6 14.6 46.35 13.65 45.4 13.2 44.6 12.7 43.6 12.9 42.55 13.2 42.1 14.1 L41.75 14.95 Q41.25 14.3 41.1 13.6 L40.9 12.1" fill="#00ccff" fill-rule="evenodd" stroke="none"/>
    <path d="M41.75 14.95 L42.1 14.1 Q42.55 13.2 43.6 12.9 44.6 12.7 45.4 13.2 46.35 13.65 46.6 14.6 46.9 15.6 46.35 16.55 L45.85 17.2 44.2 16.85 43.55 16.55 42.3 15.6 42.1 15.45 41.75 14.95" fill="#000000" fill-rule="evenodd" stroke="none"/>
    <path d="M39.05 19.5 L34.25 22.85 34.7 17.25 36.7 18.5 39.05 19.5 M34.25 22.85 L36.7 18.5 34.25 22.85" fill="#ffcc00" fill-rule="evenodd" stroke="none"/>
    <path d="M34.7 17.25 Q32.15 15.15 30.65 12.25 27.05 12.3 23.5 10.85 L21.55 9.9 Q15.25 6.35 13.25 -0.65 11.35 -7.55 14.9 -13.85 L16.3 -15.9 17.05 -16.9 13.15 -18.35 Q7.45 -16.7 7.35 -9.85 M17.05 -16.9 Q20.35 -20.75 25.45 -22.15 32.45 -24.0 38.7 -20.5 45.0 -16.9 46.9 -9.95 L47.05 -9.2 Q49.25 -8.8 51.4 -7.55 56.75 -4.55 58.4 1.4 60.15 7.4 57.1 12.65 54.95 16.65 51.2 18.6 49.75 19.4 48.1 19.85 43.4 21.1 39.05 19.5 L34.25 22.85 34.7 17.25" fill="none" stroke="#000000" stroke-linecap="round" stroke-linejoin="round" stroke-width="2.0"/>
    <path d="M34.7 17.25 L36.7 18.5 39.05 19.5 M49.65 15.65 L50.3 14.85 50.3 14.7 50.3 14.6 50.55 13.9 50.7 13.45 Q51.15 12.25 50.75 10.85 50.15 8.95 48.4 7.85 46.65 6.85 44.55 7.4 43.3 7.8 42.4 8.8 L41.65 9.75 Q40.95 10.85 40.9 12.1 L41.1 13.6 Q41.25 14.3 41.75 14.95 L42.1 15.45 42.3 15.6 43.55 16.55 44.2 16.85 45.85 17.2 46.6 17.15 47.35 17.0 47.4 17.05 47.7 16.95 Q48.3 16.75 48.65 16.4 L49.2 16.05 49.15 16.05 M45.85 17.2 L46.35 16.55 Q46.9 15.6 46.6 14.6 46.35 13.65 45.4 13.2 44.6 12.7 43.6 12.9 42.55 13.2 42.1 14.1 L41.75 14.95 M36.7 18.5 L34.25 22.85" fill="none" stroke="#000000" stroke-linecap="round" stroke-linejoin="round" stroke-width="1.0"/>
  </g>
</svg>
