<?xml version="1.0" encoding="UTF-8" standalone="no"?>
<svg xmlns:ffdec="https://www.free-decompiler.com/flash" xmlns:xlink="http://www.w3.org/1999/xlink" ffdec:objectType="shape" height="48.4px" width="48.4px" xmlns="http://www.w3.org/2000/svg">
  <g transform="matrix(1.0, 0.0, 0.0, 1.0, -15.8, 9.4)">
    <path d="M51.05 34.35 L50.75 34.45 50.5 34.6 50.5 34.65 49.9 34.85 Q50.7 33.7 50.6 32.4 50.65 30.9 49.8 29.65 L49.3 29.1 48.75 28.75 Q47.65 27.9 46.1 27.85 44.7 27.9 43.5 28.7 43.9 27.5 44.9 26.6 L45.8 25.85 Q46.95 25.15 48.3 25.1 50.45 25.05 51.85 26.55 53.3 28.05 53.35 30.05 53.4 31.5 52.6 32.5 L52.4 32.95 51.95 33.5 51.95 33.6 51.9 33.75 51.05 34.35" fill="#ffffff" fill-rule="evenodd" stroke="none"/>
    <path d="M43.5 28.7 Q44.7 27.9 46.1 27.85 47.65 27.9 48.75 28.75 L49.3 29.1 49.8 29.65 Q50.65 30.9 50.6 32.4 50.7 33.7 49.9 34.85 L48.8 35.1 48.55 35.1 48.5 35.05 47.7 35.0 47.0 34.85 47.6 34.4 Q48.4 33.6 48.35 32.55 48.35 31.6 47.6 30.9 46.95 30.2 45.9 30.15 44.85 30.15 44.15 30.9 L43.65 31.65 Q43.3 30.9 43.35 30.2 43.35 29.4 43.5 28.7" fill="#00ccff" fill-rule="evenodd" stroke="none"/>
    <path d="M43.65 31.65 L44.15 30.9 Q44.85 30.15 45.9 30.15 46.95 30.2 47.6 30.9 48.35 31.6 48.35 32.55 48.4 33.6 47.6 34.4 L47.0 34.85 Q46.15 34.65 45.5 34.15 L44.9 33.65 43.95 32.4 43.8 32.2 43.65 31.65" fill="#000000" fill-rule="evenodd" stroke="none"/>
    <path d="M39.8 35.35 L34.35 37.3 36.2 32.05 37.8 33.75 39.8 35.35 M34.35 37.3 L37.8 33.75 34.35 37.3" fill="#ffcc00" fill-rule="evenodd" stroke="none"/>
    <path d="M36.2 32.05 Q34.3 29.35 33.6 26.2 30.1 25.3 27.05 23.0 L25.4 21.55 Q20.25 16.5 20.1 9.2 20.05 2.05 25.15 -3.15 L27.0 -4.75 27.95 -5.5 24.6 -7.9 Q18.65 -7.8 16.8 -1.2 M27.95 -5.5 Q32.15 -8.4 37.5 -8.4 44.7 -8.4 49.85 -3.4 54.95 1.75 55.05 8.95 L55.0 9.7 Q57.0 10.65 58.75 12.4 63.15 16.7 63.2 22.85 63.35 29.1 59.05 33.4 55.95 36.7 51.8 37.6 L48.45 38.0 Q43.6 38.05 39.8 35.35 L34.35 37.3 36.2 32.05" fill="none" stroke="#000000" stroke-linecap="round" stroke-linejoin="round" stroke-width="2.0"/>
    <path d="M36.2 32.05 L37.8 33.75 39.8 35.35 M51.05 34.35 L51.9 33.75 51.95 33.6 51.95 33.5 52.4 32.95 52.6 32.5 Q53.4 31.5 53.35 30.05 53.3 28.05 51.85 26.55 50.45 25.05 48.3 25.1 46.95 25.15 45.8 25.85 L44.9 26.6 Q43.9 27.5 43.5 28.7 43.35 29.4 43.35 30.2 43.3 30.9 43.65 31.65 L43.8 32.2 43.95 32.4 44.9 33.65 45.5 34.15 Q46.15 34.65 47.0 34.85 L47.7 35.0 48.5 35.05 48.55 35.1 48.8 35.1 49.9 34.85 50.5 34.65 50.5 34.6 M43.65 31.65 L44.15 30.9 Q44.85 30.15 45.9 30.15 46.95 30.2 47.6 30.9 48.35 31.6 48.35 32.55 48.4 33.6 47.6 34.4 L47.0 34.85 M37.8 33.75 L34.35 37.3" fill="none" stroke="#000000" stroke-linecap="round" stroke-linejoin="round" stroke-width="1.0"/>
  </g>
</svg>
