<?xml version="1.0" encoding="UTF-8" standalone="no"?>
<svg xmlns:ffdec="https://www.free-decompiler.com/flash" xmlns:xlink="http://www.w3.org/1999/xlink" ffdec:objectType="shape" height="53.25px" width="41.2px" xmlns="http://www.w3.org/2000/svg">
  <g transform="matrix(1.0, 0.0, 0.0, 1.0, 20.6, 26.6)">
    <path d="M0.35 21.75 L1.05 21.5 Q2.0 20.95 2.25 19.9 2.45 18.95 1.95 18.1 1.5 17.25 0.5 16.95 -0.55 16.65 -1.4 17.25 L-2.1 17.8 Q-2.25 17.0 -2.0 16.3 L-1.5 14.9 1.3 14.8 Q2.8 15.25 3.6 16.3 L4.0 16.8 4.4 17.5 Q4.85 18.9 4.45 20.35 4.2 21.6 3.15 22.5 L2.0 22.5 Q1.9 22.55 1.75 22.4 L1.75 22.35 0.95 22.1 0.35 21.75" fill="#00ccff" fill-rule="evenodd" stroke="none"/>
    <path d="M-2.1 17.8 L-1.4 17.25 Q-0.55 16.65 0.5 16.95 1.5 17.25 1.95 18.1 2.45 18.95 2.25 19.9 2.0 20.95 1.05 21.5 L0.35 21.75 -0.95 20.75 -1.4 20.05 -2.0 18.65 -2.1 18.4 -2.1 17.8" fill="#000000" fill-rule="evenodd" stroke="none"/>
    <path d="M-6.75 20.4 L-12.5 20.9 -9.4 16.25 -8.3 18.35 -6.75 20.4 M-12.5 20.9 L-8.3 18.35 -12.5 20.9" fill="#ffcc00" fill-rule="evenodd" stroke="none"/>
    <path d="M3.15 22.5 Q4.2 21.6 4.45 20.35 4.85 18.9 4.4 17.5 L4.0 16.8 3.6 16.3 Q2.8 15.25 1.3 14.8 L-1.5 14.9 Q-0.75 13.85 0.4 13.25 0.85 12.95 1.5 12.75 L4.1 12.7 Q6.2 13.2 7.2 15.0 8.2 16.85 7.7 18.8 7.4 20.2 6.35 20.95 L6.0 21.35 5.5 21.75 5.45 21.85 5.35 22.0 4.35 22.35 4.05 22.4 3.8 22.4 3.8 22.45 3.15 22.5" fill="#ffffff" fill-rule="evenodd" stroke="none"/>
    <path d="M-19.5 -20.85 Q-16.05 -26.75 -10.25 -25.35 L-7.65 -22.1 Q-2.85 -23.85 2.3 -22.45 9.3 -20.6 13.0 -14.45 16.6 -8.15 14.8 -1.15 L14.6 -0.45 Q16.25 1.0 17.5 3.15 20.65 8.45 19.1 14.35 17.6 20.45 12.35 23.5 8.5 25.9 4.25 25.65 L0.9 25.2 Q-3.8 24.0 -6.75 20.4 L-12.5 20.9 -9.4 16.25 Q-10.5 13.2 -10.4 9.95 -13.55 8.2 -15.85 5.15 L-17.1 3.3 Q-20.75 -2.85 -19.05 -9.95 -17.25 -16.85 -10.95 -20.6 L-8.7 -21.65 Q-8.1 -21.85 -7.65 -22.1" fill="none" stroke="#000000" stroke-linecap="round" stroke-linejoin="round" stroke-width="2.0"/>
    <path d="M-2.1 17.8 L-1.4 17.25 Q-0.55 16.65 0.5 16.95 1.5 17.25 1.95 18.1 2.45 18.95 2.25 19.9 2.0 20.95 1.05 21.5 L0.35 21.75 0.95 22.1 1.75 22.35 1.75 22.4 Q1.9 22.55 2.0 22.5 L3.15 22.5 3.8 22.45 3.8 22.4 M-1.5 14.9 L-2.0 16.3 Q-2.25 17.0 -2.1 17.8 L-2.1 18.4 -2.0 18.65 -1.4 20.05 -0.95 20.75 0.35 21.75 M-8.3 18.35 L-9.4 16.25 M-6.75 20.4 L-8.3 18.35 -12.5 20.9 M4.35 22.35 L5.35 22.0 5.45 21.85 5.5 21.75 6.0 21.35 6.35 20.95 Q7.4 20.2 7.7 18.8 8.2 16.85 7.2 15.0 6.2 13.2 4.1 12.7 L1.5 12.75 Q0.85 12.95 0.4 13.25 -0.75 13.85 -1.5 14.9" fill="none" stroke="#000000" stroke-linecap="round" stroke-linejoin="round" stroke-width="1.0"/>
  </g>
</svg>
