<?xml version="1.0" encoding="UTF-8" standalone="no"?>
<svg xmlns:ffdec="https://www.free-decompiler.com/flash" xmlns:xlink="http://www.w3.org/1999/xlink" ffdec:objectType="shape" height="27.05px" width="26.55px" xmlns="http://www.w3.org/2000/svg">
  <g transform="matrix(1.0, 0.0, 0.0, 1.0, 20.55, 19.45)">
    <path d="M-14.85 -14.15 Q-15.5 -10.6 -19.55 -9.95 -19.15 -13.15 -14.85 -14.15 -13.9 -17.75 -10.05 -18.45 -11.35 -14.45 -14.85 -14.15" fill="#ffffff" fill-rule="evenodd" stroke="none"/>
    <path d="M-10.05 2.4 L-14.35 6.6 Q-15.05 4.45 -15.05 2.0 -15.05 -4.2 -10.65 -8.6 L-10.05 -9.15 Q-11.45 -3.35 -10.05 2.4" fill="#ff0000" fill-rule="evenodd" stroke="none"/>
    <path d="M0.75 -8.05 L-3.55 -3.85 -10.05 -9.15 Q-4.65 -9.65 0.75 -8.05" fill="#ffff00" fill-rule="evenodd" stroke="none"/>
    <path d="M-3.55 -3.85 L-10.05 2.4 Q-11.45 -3.35 -10.05 -9.15 L-3.55 -3.85" fill="#ff9900" fill-rule="evenodd" stroke="none"/>
    <path d="M-10.05 -9.15 Q-5.85 -13.0 -0.05 -13.0 2.65 -13.0 5.0 -12.15 L0.75 -8.05 Q-4.65 -9.65 -10.05 -9.15" fill="#00ff00" fill-rule="evenodd" stroke="none"/>
    <path d="M-14.85 -14.15 Q-15.5 -10.6 -19.55 -9.95 -19.15 -13.15 -14.85 -14.15 -13.9 -17.75 -10.05 -18.45 -11.35 -14.45 -14.85 -14.15 L-10.05 -9.15 Q-5.85 -13.0 -0.05 -13.0 2.65 -13.0 5.0 -12.15 L0.75 -8.05 -3.55 -3.85 -10.05 2.4 -14.35 6.6 Q-15.05 4.45 -15.05 2.0 -15.05 -4.2 -10.65 -8.6 L-10.05 -9.15 Q-4.65 -9.65 0.75 -8.05 M-10.05 -9.15 L-3.55 -3.85 M-10.05 2.4 Q-11.45 -3.35 -10.05 -9.15" fill="none" stroke="#000000" stroke-linecap="round" stroke-linejoin="round" stroke-width="2.0"/>
  </g>
</svg>
