<?xml version="1.0" encoding="UTF-8" standalone="no"?>
<svg xmlns:ffdec="https://www.free-decompiler.com/flash" xmlns:xlink="http://www.w3.org/1999/xlink" ffdec:objectType="shape" height="37.0px" width="57.0px" xmlns="http://www.w3.org/2000/svg">
  <g transform="matrix(1.0, 0.0, 0.0, 1.0, 28.5, 21.0)">
    <path d="M-27.5 5.0 L-27.5 -5.0 -22.35 -4.95 Q-21.6 -10.65 -17.4 -14.85 -12.25 -20.0 -5.0 -20.0 2.25 -20.0 7.35 -14.85 L7.9 -14.3 12.5 -15.0 Q18.7 -15.0 23.1 -10.6 27.5 -6.2 27.5 0.0 27.5 6.25 23.1 10.6 19.65 14.05 15.1 14.8 L12.5 15.0 10.2 14.85 Q6.85 14.4 4.1 12.5 0.1 15.0 -5.0 15.0 -12.25 15.0 -17.4 9.9 -22.5 4.75 -22.5 -2.5 L-22.35 -4.95" fill="none" stroke="#000000" stroke-linecap="round" stroke-linejoin="round" stroke-width="2.0"/>
  </g>
</svg>
