<?xml version="1.0" encoding="UTF-8" standalone="no"?>
<svg xmlns:ffdec="https://www.free-decompiler.com/flash" xmlns:xlink="http://www.w3.org/1999/xlink" ffdec:objectType="shape" height="16.75px" width="19.35px" xmlns="http://www.w3.org/2000/svg">
  <g transform="matrix(1.0, 0.0, 0.0, 1.0, 12.55, 14.0)">
    <path d="M1.75 -12.4 L3.55 -10.35 Q5.05 -8.0 5.65 -6.35 5.9 -5.6 6.8 -4.6 L6.8 -1.7 6.7 -1.8 Q5.25 -2.85 4.75 -3.6 3.9 -4.9 2.75 -7.65 1.5 -10.15 -0.45 -11.6 L-5.25 -4.35 Q-6.3 -2.65 -8.45 -0.05 -10.75 2.75 -11.35 2.75 -12.55 2.75 -12.55 1.75 L-9.95 -1.75 -6.65 -6.1 -3.65 -10.85 Q-1.5 -14.0 -0.6 -14.0 0.1 -14.0 1.75 -12.4" fill="#000000" fill-rule="evenodd" stroke="none"/>
  </g>
</svg>
