<?xml version="1.0" encoding="UTF-8" standalone="no"?>
<svg xmlns:ffdec="https://www.free-decompiler.com/flash" xmlns:xlink="http://www.w3.org/1999/xlink" ffdec:objectType="shape" height="67.15px" width="1286.3px" xmlns="http://www.w3.org/2000/svg">
  <g transform="matrix(1.0, 0.0, 0.0, 1.0, 643.2, 33.7)">
    <path d="M0.1 -32.0 L0.45 -31.95 0.95 -31.75 Q3.5 -30.65 4.6 -30.9 6.45 -32.0 11.4 -32.05 L19.45 -31.95 Q23.1 -31.8 27.4 -32.1 31.95 -32.4 36.25 -32.15 L44.15 -31.95 51.5 -31.55 Q54.4 -31.15 58.9 -31.4 L59.0 -31.4 Q63.9 -31.65 69.05 -31.25 73.55 -30.9 76.25 -31.8 L76.3 -31.85 Q79.75 -33.05 84.75 -32.35 L93.25 -31.9 101.0 -32.55 Q104.85 -33.15 109.55 -32.55 L109.6 -32.55 Q113.65 -32.05 116.5 -32.5 L116.55 -32.5 Q120.0 -33.1 124.3 -31.95 L124.35 -31.95 132.05 -31.75 140.45 -32.55 140.5 -32.55 Q144.1 -32.5 148.75 -31.25 L148.8 -31.25 Q152.6 -30.25 155.05 -30.8 L163.25 -31.7 172.0 -32.0 180.05 -31.95 187.15 -32.45 187.2 -32.45 Q190.85 -33.2 196.5 -32.45 L196.55 -32.45 204.9 -31.6 Q208.05 -31.35 211.7 -31.7 L220.1 -31.45 Q223.8 -31.05 227.15 -32.15 231.3 -33.45 235.8 -33.25 L235.85 -33.25 244.2 -32.25 Q247.9 -31.6 251.7 -32.1 L260.0 -32.4 260.05 -32.4 Q263.95 -32.05 267.75 -31.15 270.95 -30.45 274.9 -31.6 L284.4 -31.95 290.75 -31.35 290.8 -31.35 299.8 -31.6 308.65 -31.8 316.6 -31.95 316.65 -31.95 324.75 -31.95 331.45 -31.7 Q334.15 -31.45 338.05 -32.45 L338.05 -32.5 Q342.9 -33.75 347.35 -32.6 L347.35 -32.55 Q351.05 -31.6 354.5 -31.8 L363.1 -32.25 363.15 -32.25 372.05 -32.35 372.1 -32.35 Q375.95 -32.2 379.5 -32.5 L379.6 -32.5 Q383.65 -32.8 387.75 -31.5 L387.8 -31.5 Q391.1 -30.45 395.7 -31.35 L395.75 -31.35 404.9 -31.8 Q407.75 -31.35 411.15 -32.5 415.75 -34.1 420.5 -32.3 424.25 -30.9 427.95 -30.9 L428.0 -30.9 435.1 -31.4 435.15 -31.4 443.4 -32.6 451.95 -33.35 459.95 -33.1 Q464.15 -32.85 467.45 -33.15 L475.8 -32.8 483.25 -31.95 483.3 -31.95 490.6 -31.7 499.65 -31.8 508.15 -31.25 515.2 -30.8 523.5 -31.4 532.05 -32.45 532.1 -32.45 540.3 -32.2 547.9 -31.85 555.1 -32.0 555.15 -32.0 Q558.15 -31.9 563.9 -31.95 L573.6 -31.75 580.2 -32.25 587.85 -33.35 595.75 -33.65 604.3 -32.95 612.1 -31.25 618.45 -31.05 626.95 -32.05 Q632.05 -32.4 635.55 -31.05 L637.65 -30.0 640.0 -30.0 640.0 -27.25 640.9 -24.85 642.55 -18.8 642.5 -18.85 Q643.45 -16.0 642.9 -10.05 L642.1 -2.1 Q641.8 0.2 642.2 4.45 642.6 9.1 642.05 14.35 L641.2 22.9 Q641.0 25.4 640.0 27.3 L640.0 30.0 637.95 30.0 Q635.3 32.4 631.4 31.4 L625.85 31.25 617.3 31.95 608.8 32.2 601.05 31.95 593.25 31.5 584.75 32.15 575.7 32.6 568.4 33.0 Q564.4 33.7 559.0 32.05 L558.95 32.05 Q554.65 30.75 551.45 31.3 L551.5 31.25 543.9 32.4 543.95 32.4 Q539.9 32.85 536.2 32.5 532.8 32.2 528.2 32.3 L519.75 32.55 511.75 32.2 504.45 31.9 496.2 31.5 Q491.95 31.05 488.2 31.7 L480.9 32.65 480.85 32.65 Q477.65 32.9 472.0 32.5 L463.0 31.5 Q460.0 30.95 456.35 31.45 L448.4 32.9 Q443.8 33.95 439.35 32.85 435.75 32.0 432.15 32.7 L432.15 32.65 Q427.65 33.55 423.4 32.5 L415.65 32.05 Q410.85 32.45 407.4 32.2 L400.25 31.85 400.2 31.85 Q396.45 31.8 392.65 32.8 388.1 34.0 383.3 32.75 379.4 31.7 376.05 31.9 372.25 32.2 368.0 32.0 364.2 31.8 359.75 32.7 354.65 33.75 350.35 32.8 L343.55 32.0 336.15 31.95 327.95 31.7 319.65 32.1 319.55 32.1 Q314.6 32.75 310.45 32.1 L303.2 31.7 Q299.65 32.0 296.3 32.85 L288.4 32.65 Q285.3 31.7 280.3 31.85 L271.0 31.95 262.6 31.65 255.7 32.05 247.85 32.95 238.9 32.55 230.6 31.75 223.4 32.0 223.45 32.0 216.1 32.25 208.8 31.6 Q205.4 31.2 200.5 31.6 L192.4 31.85 Q189.75 31.7 184.25 31.85 L175.6 32.1 168.4 32.45 160.3 32.15 153.1 31.8 144.1 32.1 135.5 32.15 Q132.05 32.1 127.8 32.95 L119.05 32.7 Q116.0 31.75 111.3 31.1 106.8 30.5 103.4 31.2 99.5 32.1 95.5 32.05 L88.0 32.0 80.1 31.9 73.0 32.55 Q69.15 33.45 64.7 32.55 L64.7 32.6 56.4 32.35 47.05 32.95 47.0 32.95 38.3 32.65 Q34.6 32.25 31.5 32.5 L31.45 32.5 Q28.0 32.8 23.75 32.45 19.8 32.1 16.1 32.3 L16.05 32.3 Q12.15 32.55 8.0 32.25 L0.05 32.0 0.0 32.0 -0.6 31.9 -0.75 31.85 Q-3.95 30.85 -5.4 31.25 -7.45 32.0 -12.15 32.3 L-20.45 32.65 -27.45 33.2 Q-31.15 33.75 -36.0 32.45 -39.9 31.35 -42.65 31.75 L-50.9 32.7 -60.05 33.1 -60.15 33.1 -67.4 32.6 -74.65 32.25 -83.45 32.8 -83.5 32.8 Q-88.25 33.3 -92.35 32.8 L-100.05 31.9 Q-103.8 31.55 -107.05 31.75 L-115.8 31.1 Q-120.15 30.3 -123.25 31.0 L-131.15 32.1 -140.2 32.35 -148.6 32.0 -148.55 32.0 Q-151.55 31.65 -155.55 32.05 L-164.05 32.3 -164.1 32.3 -172.25 32.85 Q-177.25 33.6 -180.1 32.95 L-180.05 33.0 -187.7 32.05 Q-192.7 31.6 -196.2 31.9 L-202.95 32.5 Q-206.15 32.75 -210.3 32.55 L-219.55 32.1 -229.1 31.05 Q-232.7 30.35 -236.1 31.75 -240.75 33.65 -244.25 33.0 L-251.5 32.15 Q-255.95 31.85 -259.85 31.95 L-267.5 32.85 -267.55 32.85 Q-272.2 33.85 -276.35 31.95 L-283.35 31.7 Q-288.5 33.1 -292.45 32.8 L-299.75 32.25 -307.25 31.2 Q-310.45 30.6 -314.65 31.85 -319.85 33.35 -324.25 32.65 L-332.15 31.8 -340.75 31.3 Q-344.6 31.05 -347.75 32.05 -351.75 33.35 -356.25 32.65 L-363.45 32.1 -371.5 32.55 Q-376.25 32.85 -380.95 31.45 L-381.15 31.4 Q-385.2 30.15 -388.3 30.5 L-395.3 31.45 -404.8 31.1 -412.55 30.8 -419.8 31.9 -428.85 31.45 -428.8 31.5 Q-432.8 30.7 -436.75 31.95 -441.65 33.5 -444.25 33.35 L-451.3 32.5 -451.35 32.5 Q-455.4 31.8 -460.25 32.6 L-469.35 33.1 -475.2 33.25 Q-478.55 33.9 -484.4 32.3 -489.2 30.95 -492.75 31.65 L-499.75 32.4 -507.55 32.1 -514.85 32.6 -514.8 32.6 Q-518.15 33.65 -523.8 32.0 -528.3 30.7 -531.8 30.9 L-538.65 31.55 -538.7 31.55 -547.35 31.05 Q-551.7 30.2 -554.7 31.05 L-554.65 31.05 Q-558.3 32.1 -563.4 31.85 L-572.35 31.6 -572.4 31.6 -580.25 31.9 -587.15 32.9 Q-591.1 33.8 -595.75 32.8 -599.8 31.95 -604.4 31.45 -608.75 31.0 -611.8 31.45 L-618.8 31.95 -627.75 31.2 -635.75 30.2 -636.85 30.0 -640.0 30.0 -640.0 28.05 -641.75 25.5 Q-643.95 21.5 -642.85 17.2 L-642.85 17.15 Q-642.05 14.15 -642.7 11.5 -643.7 7.95 -641.95 2.35 -640.55 -2.15 -640.95 -5.8 L-640.95 -5.85 -641.65 -13.95 -642.2 -22.4 -642.2 -22.45 Q-642.4 -27.35 -640.0 -29.15 L-640.0 -30.0 -638.4 -30.0 Q-635.6 -31.15 -631.15 -30.85 -627.5 -30.6 -624.45 -31.6 L-624.4 -31.6 Q-620.7 -32.85 -615.7 -32.45 L-607.3 -32.1 -607.25 -32.1 -599.5 -32.05 -599.45 -32.05 -591.6 -31.75 -583.9 -30.85 Q-580.75 -30.4 -577.0 -31.65 -572.6 -33.15 -568.3 -33.55 L-558.8 -33.0 Q-554.45 -32.15 -551.3 -32.85 L-542.8 -33.5 Q-538.45 -33.3 -536.3 -33.45 -533.8 -33.65 -528.55 -31.8 -524.65 -30.4 -521.75 -31.35 L-521.7 -31.35 Q-517.9 -32.65 -512.95 -32.0 L-504.35 -31.75 -495.3 -31.05 Q-491.8 -30.25 -489.1 -31.0 -485.65 -32.0 -481.15 -32.05 L-472.45 -31.6 -464.85 -31.35 -464.8 -31.35 -456.55 -32.05 -456.5 -32.05 Q-451.15 -32.7 -447.25 -31.4 -444.4 -30.5 -441.1 -31.95 -436.1 -34.2 -432.05 -32.1 L-432.0 -32.05 Q-429.15 -30.65 -424.85 -31.05 L-416.05 -31.8 -416.0 -31.8 Q-412.05 -32.05 -407.65 -31.95 L-407.6 -31.95 Q-403.4 -31.8 -399.75 -31.95 L-392.2 -32.05 -383.65 -32.0 -375.05 -31.25 -368.2 -30.5 -360.5 -31.0 -351.5 -32.45 Q-346.0 -33.35 -342.6 -31.7 -340.15 -30.65 -336.75 -31.25 L-336.7 -31.25 -328.0 -32.75 -327.95 -32.75 Q-322.75 -33.65 -319.2 -32.1 L-319.15 -32.1 -313.45 -31.8 -304.45 -32.4 -304.4 -32.4 -295.85 -31.45 Q-292.15 -31.0 -288.45 -31.45 L-280.0 -31.9 -271.5 -31.9 -271.45 -31.9 -263.5 -31.95 -256.0 -31.95 -248.0 -31.9 -239.7 -32.15 -232.0 -32.4 -231.95 -32.4 -224.3 -32.2 -215.15 -31.5 Q-210.95 -31.0 -207.65 -31.35 L-201.35 -32.5 Q-198.0 -33.3 -192.65 -32.6 L-183.7 -31.25 Q-180.3 -30.65 -176.75 -32.1 -171.9 -34.05 -167.45 -32.6 L-167.4 -32.6 Q-164.1 -31.5 -161.0 -32.15 L-160.95 -32.15 -152.7 -33.35 -152.7 -33.4 Q-148.0 -33.9 -143.5 -33.35 -138.9 -32.85 -135.95 -31.5 -133.7 -30.7 -129.85 -31.9 L-129.8 -31.9 Q-124.65 -33.5 -119.9 -32.8 L-112.55 -31.65 Q-109.7 -31.2 -105.0 -31.6 L-95.9 -31.0 Q-92.85 -30.25 -88.9 -31.05 L-88.85 -31.05 -79.15 -31.95 Q-74.3 -31.95 -71.15 -32.1 L-63.55 -32.1 -57.05 -32.45 -57.0 -32.45 -49.2 -32.75 -40.55 -33.15 Q-35.25 -33.95 -30.9 -32.0 -27.6 -30.55 -23.4 -31.25 L-15.3 -32.7 Q-11.8 -33.4 -6.7 -32.7 L-6.65 -32.7 0.0 -32.0 0.1 -32.0" fill="url(#gradient0)" fill-rule="evenodd" stroke="none"/>
  </g>
  <defs>
    <linearGradient gradientTransform="matrix(0.0, 0.0367, -0.041, 0.0, -0.05, -0.15)" gradientUnits="userSpaceOnUse" id="gradient0" spreadMethod="pad" x1="-819.2" x2="819.2">
      <stop offset="0.0" stop-color="#009900"/>
      <stop offset="1.0" stop-color="#006600"/>
    </linearGradient>
  </defs>
</svg>
