<?xml version="1.0" encoding="UTF-8" standalone="no"?>
<svg xmlns:ffdec="https://www.free-decompiler.com/flash" xmlns:xlink="http://www.w3.org/1999/xlink" ffdec:objectType="shape" height="38.25px" width="46.2px" xmlns="http://www.w3.org/2000/svg">
  <g transform="matrix(1.0, 0.0, 0.0, 1.0, 35.2, 29.15)">
    <path d="M-1.4 7.75 L-1.25 6.0 -1.45 3.95 3.2 6.0 -1.4 7.75 M-1.25 6.0 L3.2 6.0 -1.25 6.0" fill="#ffcc00" fill-rule="nonzero" stroke="none"/>
    <path d="M-8.05 5.55 L-10.15 6.0 Q-10.4 6.0 -10.6 5.95 -10.8 5.95 -11.05 5.9 -11.25 5.9 -11.45 5.8 -11.65 5.75 -11.85 5.7 -12.05 5.65 -12.25 5.55 -12.4 5.45 -12.6 5.35 -12.8 5.25 -12.95 5.1 -13.15 5.0 -13.3 4.85 -13.45 4.7 -13.6 4.55 -13.75 4.4 -13.85 4.25 -14.0 4.1 -14.1 3.95 -14.2 3.75 -14.25 3.6 -14.35 3.4 -14.4 3.25 -14.45 3.05 -14.5 2.85 -14.55 2.65 -14.55 2.5 -14.6 2.3 -14.6 2.05 -14.6 1.85 -14.6 1.65 -14.55 1.45 -14.5 1.3 -14.45 1.1 -14.4 0.95 -14.35 0.75 -14.25 0.6 -14.2 0.4 -14.1 0.25 -14.0 0.05 -13.85 -0.1 -13.75 -0.25 -13.6 -0.4 -13.45 -0.55 -13.3 -0.7 -13.15 -0.8 -13.05 -0.9 -12.9 -1.0 -12.75 -1.1 -12.6 -1.2 -12.5 -1.25 -12.35 -1.35 -12.2 -1.4 -12.05 -1.5 -11.85 -1.55 -11.7 -1.6 -11.55 -1.65 -11.4 -1.65 -11.2 -1.7 -11.05 -1.75 -10.85 -1.75 L-10.25 -1.85 -10.15 -1.85 -10.05 -1.85 -9.1 -1.7 -8.8 -1.65 -8.65 -1.55 -8.6 -1.55 -8.1 -1.35 Q-8.25 -1.35 -8.4 -1.3 -8.55 -1.3 -8.65 -1.25 -8.8 -1.2 -8.95 -1.15 -9.05 -1.1 -9.2 -1.05 -9.3 -1.0 -9.45 -0.9 -9.55 -0.85 -9.7 -0.75 -9.8 -0.7 -9.9 -0.6 -10.05 -0.5 -10.15 -0.4 -10.3 -0.25 -10.45 -0.15 -10.55 0.0 -10.65 0.15 -10.8 0.3 -10.85 0.45 -10.95 0.6 -11.05 0.75 -11.1 0.9 -11.15 1.05 -11.2 1.2 -11.25 1.4 -11.3 1.55 -11.3 1.7 -11.3 1.9 -11.3 2.05 -11.3 2.25 -11.3 2.4 -11.25 2.6 -11.25 2.8 -11.2 2.95 -11.15 3.1 -11.1 3.3 -11.0 3.45 -10.95 3.6 -10.85 3.75 -10.75 3.9 -10.65 4.05 -10.55 4.2 -10.4 4.3 -10.3 4.45 -10.15 4.55 -10.05 4.65 -9.9 4.75 -9.8 4.85 -9.7 4.9 -9.55 5.0 -9.45 5.05 -9.3 5.15 -9.2 5.2 -9.05 5.25 -8.9 5.3 -8.8 5.35 -8.65 5.4 -8.5 5.45 -8.35 5.5 -8.2 5.5 -8.05 5.55" fill="#ffffff" fill-rule="nonzero" stroke="none"/>
    <path d="M-8.05 5.55 Q-8.2 5.55 -8.35 5.5 -8.5 5.45 -8.65 5.4 -8.8 5.35 -8.9 5.3 -9.05 5.25 -9.2 5.2 -9.3 5.15 -9.45 5.1 -9.55 5.0 -9.7 4.95 -9.8 4.85 -9.9 4.75 -10.05 4.65 -10.15 4.55 -10.3 4.45 -10.4 4.3 -10.55 4.15 -10.65 4.05 -10.75 3.9 -10.85 3.75 -10.95 3.6 -11.0 3.45 -11.1 3.3 -11.15 3.1 -11.2 2.95 -11.25 2.8 -11.25 2.6 -11.3 2.45 -11.3 2.25 -11.3 2.05 -11.3 1.85 -11.3 1.7 -11.3 1.55 -11.25 1.35 -11.2 1.2 -11.15 1.05 -11.1 0.9 -11.05 0.7 -10.95 0.55 -10.85 0.4 -10.8 0.25 -10.65 0.15 -10.55 0.0 -10.45 -0.15 -10.3 -0.3 -10.15 -0.4 -10.05 -0.5 -9.9 -0.6 -9.8 -0.7 -9.7 -0.75 -9.55 -0.85 -9.45 -0.9 -9.3 -1.0 -9.2 -1.05 -9.05 -1.1 -8.95 -1.15 -8.8 -1.2 -8.65 -1.25 -8.55 -1.3 -8.4 -1.3 -8.25 -1.35 -8.1 -1.35 L-7.25 -0.95 -7.05 -0.75 -7.0 -0.7 -6.6 -0.25 -6.25 0.3 -7.0 0.15 Q-7.1 0.15 -7.25 0.15 -7.35 0.15 -7.45 0.2 -7.55 0.2 -7.7 0.25 -7.8 0.25 -7.9 0.3 -8.0 0.35 -8.05 0.35 -8.15 0.4 -8.25 0.45 -8.35 0.5 -8.45 0.6 -8.5 0.65 -8.6 0.7 -8.7 0.75 -8.75 0.85 -8.8 0.9 -8.85 1.0 -8.9 1.05 -8.95 1.15 -9.0 1.25 -9.05 1.3 -9.1 1.4 -9.1 1.5 -9.15 1.6 -9.15 1.7 -9.15 1.8 -9.15 1.85 -9.15 1.95 -9.15 2.05 -9.15 2.15 -9.15 2.25 -9.15 2.35 -9.15 2.45 -9.15 2.55 -9.1 2.65 -9.1 2.75 -9.05 2.8 -9.0 2.9 -8.95 3.0 -8.9 3.05 -8.85 3.15 -8.8 3.25 -8.75 3.3 -8.65 3.35 -8.6 3.45 -8.5 3.5 -8.45 3.6 -8.35 3.65 -8.25 3.7 -8.15 3.75 -8.05 3.8 -7.95 3.85 -7.85 3.85 -7.75 3.9 -7.65 3.95 -7.55 3.95 -7.45 3.95 -7.35 4.0 -7.2 4.0 -7.1 4.0 -7.0 4.0 L-6.2 3.9 -7.0 4.85 Q-7.05 4.9 -7.1 4.95 -7.2 5.0 -7.25 5.05 -7.3 5.1 -7.35 5.15 -7.45 5.2 -7.5 5.25 -7.55 5.3 -7.65 5.3 -7.7 5.35 -7.75 5.4 -7.85 5.45 -7.9 5.5 -8.0 5.5 -8.05 5.55" fill="#00ccff" fill-rule="nonzero" stroke="none"/>
    <path d="M-6.2 3.9 L-7.0 4.0 Q-7.1 4.0 -7.25 4.0 -7.35 4.0 -7.45 3.95 -7.55 3.95 -7.65 3.95 -7.75 3.9 -7.85 3.85 -7.95 3.85 -8.05 3.8 -8.15 3.75 -8.25 3.7 -8.35 3.65 -8.4 3.6 -8.5 3.5 -8.6 3.45 -8.7 3.4 -8.75 3.3 -8.8 3.25 -8.85 3.15 -8.9 3.1 -8.95 3.0 -9.0 2.9 -9.05 2.85 -9.1 2.75 -9.1 2.65 -9.15 2.55 -9.15 2.45 -9.15 2.35 -9.15 2.3 -9.15 2.2 -9.15 2.05 -9.15 1.95 -9.15 1.85 -9.15 1.75 -9.15 1.65 -9.15 1.6 -9.1 1.5 -9.1 1.4 -9.05 1.3 -9.0 1.25 -8.95 1.15 -8.9 1.05 -8.85 1.0 -8.8 0.9 -8.75 0.85 -8.65 0.8 -8.6 0.7 -8.5 0.65 -8.45 0.55 -8.35 0.5 -8.25 0.45 -8.15 0.4 -8.1 0.35 -8.0 0.35 -7.9 0.3 -7.8 0.25 -7.65 0.25 -7.55 0.2 -7.45 0.2 -7.35 0.2 -7.25 0.15 -7.1 0.15 -7.0 0.15 L-6.25 0.3 Q-6.2 0.35 -6.15 0.45 -6.1 0.5 -6.1 0.55 -6.05 0.65 -6.0 0.7 -5.95 0.8 -5.95 0.85 -5.9 0.95 -5.9 1.0 -5.85 1.1 -5.85 1.15 -5.8 1.25 -5.8 1.35 -5.75 1.4 -5.75 1.5 L-5.7 2.05 -5.9 3.25 -5.95 3.45 -6.2 3.9" fill="#000000" fill-rule="nonzero" stroke="none"/>
    <path d="M-9.1 -1.7 L-10.05 -1.85 -10.15 -1.85 -10.25 -1.85 -10.85 -1.75 Q-11.05 -1.75 -11.2 -1.7 -11.35 -1.65 -11.55 -1.65 -11.7 -1.6 -11.85 -1.55 -12.0 -1.45 -12.2 -1.4 -12.35 -1.35 -12.5 -1.25 -12.6 -1.2 -12.75 -1.1 -12.9 -1.0 -13.05 -0.9 -13.15 -0.8 -13.3 -0.7 -13.45 -0.55 -13.6 -0.4 -13.75 -0.25 -13.85 -0.1 -14.0 0.05 -14.1 0.25 -14.2 0.4 -14.25 0.6 -14.35 0.75 -14.4 0.95 -14.45 1.1 -14.5 1.3 -14.55 1.5 -14.55 1.7 -14.6 1.85 -14.6 2.05 -14.6 2.25 -14.6 2.45 -14.55 2.65 -14.5 2.85 -14.45 3.05 -14.4 3.25 -14.35 3.4 -14.25 3.6 -14.2 3.75 -14.1 3.9 -14.0 4.1 -13.85 4.25 -13.75 4.4 -13.6 4.55 -13.45 4.7 -13.3 4.85 -13.15 5.0 -12.95 5.1 -12.8 5.25 -12.6 5.35 -12.4 5.45 -12.25 5.55 -12.05 5.6 -11.85 5.7 -11.65 5.75 -11.45 5.8 -11.25 5.85 -11.05 5.9 -10.8 5.95 -10.6 5.95 -10.35 6.0 -10.15 6.0 L-8.05 5.55 Q-8.0 5.5 -7.9 5.5 -7.85 5.45 -7.75 5.4 -7.7 5.35 -7.65 5.3 -7.55 5.3 -7.5 5.25 -7.45 5.2 -7.35 5.15 -7.3 5.1 -7.25 5.05 -7.2 5.0 -7.1 4.95 -7.05 4.9 -7.0 4.85 L-6.2 3.9 -5.95 3.45 -5.9 3.25 -5.7 2.05 -5.75 1.5 Q-5.75 1.4 -5.8 1.35 -5.8 1.25 -5.85 1.15 -5.85 1.1 -5.9 1.0 -5.9 0.95 -5.95 0.85 -5.95 0.8 -6.0 0.7 -6.05 0.65 -6.05 0.55 -6.1 0.5 -6.15 0.4 -6.2 0.35 -6.25 0.3 L-6.6 -0.25 -7.0 -0.7 -7.05 -0.75 -7.25 -0.95 -8.1 -1.35 -8.6 -1.55 -8.65 -1.55 M-6.25 0.3 L-7.0 0.15 Q-7.1 0.15 -7.25 0.15 -7.35 0.15 -7.45 0.2 -7.55 0.2 -7.7 0.25 -7.8 0.25 -7.9 0.3 -8.0 0.35 -8.05 0.35 -8.15 0.4 -8.25 0.45 -8.35 0.5 -8.45 0.6 -8.5 0.65 -8.6 0.7 -8.7 0.75 -8.75 0.85 -8.8 0.9 -8.85 1.0 -8.9 1.05 -8.95 1.15 -9.0 1.25 -9.05 1.3 -9.1 1.4 -9.1 1.5 -9.15 1.6 -9.15 1.7 -9.15 1.8 -9.15 1.85 -9.15 1.95 -9.15 2.05 -9.15 2.15 -9.15 2.25 -9.15 2.35 -9.15 2.45 -9.15 2.55 -9.1 2.65 -9.1 2.75 -9.05 2.8 -9.0 2.9 -8.95 3.0 -8.9 3.05 -8.85 3.15 -8.8 3.25 -8.75 3.3 -8.65 3.35 -8.6 3.45 -8.5 3.5 -8.45 3.6 -8.35 3.65 -8.25 3.7 -8.15 3.75 -8.05 3.8 -7.95 3.85 -7.85 3.85 -7.75 3.9 -7.65 3.95 -7.55 3.95 -7.45 3.95 -7.35 4.0 -7.2 4.0 -7.1 4.0 -7.0 4.0 L-6.2 3.9 M-1.4 7.75 L-1.25 6.0 -1.45 3.95 M3.2 6.0 L-1.25 6.0" fill="none" stroke="#000000" stroke-linecap="round" stroke-linejoin="round" stroke-width="1.0"/>
    <path d="M-1.45 3.95 L3.2 6.0 -1.4 7.75" fill="none" stroke="#000000" stroke-linecap="round" stroke-linejoin="round" stroke-width="2.0"/>
    <path d="M-25.0 -20.15 L0.8 -20.15 0.8 1.7 -25.0 1.7 -25.0 -20.15 -25.0 -20.15" fill="#e8c09e" fill-rule="nonzero" stroke="none"/>
    <path d="M-25.0 -20.15 L0.8 -20.15 0.8 1.7 -25.0 1.7 -25.0 -20.15 -25.0 -20.15 Z" fill="none" stroke="#8f7651" stroke-linecap="butt" stroke-linejoin="miter-clip" stroke-miterlimit="4.0" stroke-width="1.0"/>
    <path d="M1.25 -20.3 L11.0 -17.7 11.0 -0.25 1.25 2.35 1.25 -20.3" fill="#e8c09e" fill-rule="nonzero" stroke="none"/>
    <path d="M1.25 -20.3 L11.0 -17.7 11.0 -0.25 1.25 2.35 1.25 -20.3 1.25 -20.3 M2.1 -19.25 L2.1 1.3 10.1 -0.85 10.1 -17.1 2.1 -19.25 2.1 -19.25" fill="#8f7651" fill-rule="nonzero" stroke="none"/>
    <path d="M-25.45 -20.3 L-35.2 -17.7 -35.2 -0.25 -25.45 2.35 -25.45 -20.3" fill="#e8c09e" fill-rule="nonzero" stroke="none"/>
    <path d="M-25.45 -20.3 L-35.2 -17.7 -35.2 -0.25 -25.45 2.35 -25.45 -20.3 -25.45 -20.3 M-26.3 -19.25 L-26.3 1.3 -34.3 -0.85 -34.3 -17.1 -26.3 -19.25 -26.3 -19.25" fill="#8f7651" fill-rule="nonzero" stroke="none"/>
    <path d="M1.25 -20.3 L-1.85 -28.9 -22.35 -28.9 -25.45 -20.3 1.25 -20.3" fill="#e8c09e" fill-rule="nonzero" stroke="none"/>
    <path d="M1.25 -20.3 L-1.85 -28.9 -22.35 -28.9 -25.45 -20.3 1.25 -20.3 1.25 -20.3 M0.0 -21.1 L-24.2 -21.1 -21.7 -28.1 -2.5 -28.1 0.0 -21.1 0.0 -21.1" fill="#8f7651" fill-rule="nonzero" stroke="none"/>
  </g>
</svg>
