<?xml version="1.0" encoding="UTF-8" standalone="no"?>
<svg xmlns:ffdec="https://www.free-decompiler.com/flash" xmlns:xlink="http://www.w3.org/1999/xlink" ffdec:objectType="shape" height="341.0px" width="44.5px" xmlns="http://www.w3.org/2000/svg">
  <g transform="matrix(1.0, 0.0, 0.0, 1.0, 22.25, 170.5)">
    <path d="M-20.75 169.0 L-20.75 -50.6 Q-20.15 -56.35 -19.55 -59.1 -19.0 -61.8 -19.0 -67.4 -19.0 -68.6 -19.75 -74.75 -20.5 -80.85 -20.75 -86.0 L-20.75 -115.6 Q-20.15 -121.35 -19.55 -124.1 -19.0 -126.8 -19.0 -132.4 -19.0 -133.6 -19.75 -139.75 -20.5 -145.85 -20.75 -151.0 L-20.75 -160.8 -20.4 -163.5 Q-18.9 -169.0 -11.4 -169.0 -8.2 -169.0 -4.25 -167.75 -0.35 -166.5 2.75 -166.5 L7.65 -167.0 12.1 -167.5 15.35 -167.25 Q18.0 -166.95 19.05 -164.9 L19.25 -164.5 19.25 -163.5 19.25 -142.2 19.25 -98.5 19.25 -77.2 19.25 169.0 -20.75 169.0" fill="#999999" fill-rule="evenodd" stroke="none"/>
    <path d="M-20.75 169.0 L-20.75 -50.6 Q-20.15 -56.35 -19.55 -59.1 -19.0 -61.8 -19.0 -67.4 -19.0 -68.6 -19.75 -74.75 -20.5 -80.85 -20.75 -86.0 L-20.75 -115.6 Q-20.15 -121.35 -19.55 -124.1 -19.0 -126.8 -19.0 -132.4 -19.0 -133.6 -19.75 -139.75 -20.5 -145.85 -20.75 -151.0 L-20.75 -160.8 -20.4 -163.5 Q-18.9 -169.0 -11.4 -169.0 -8.2 -169.0 -4.25 -167.75 -0.35 -166.5 2.75 -166.5 L7.65 -167.0 12.1 -167.5 15.35 -167.25 Q18.0 -166.95 19.05 -164.9 L19.25 -164.5 19.25 -163.5 Q19.45 -161.6 20.0 -160.15 20.75 -158.1 20.75 -155.75 20.75 -152.6 19.9 -146.85 L19.25 -142.2 19.25 -98.5 Q19.45 -96.6 20.0 -95.15 20.75 -93.1 20.75 -90.75 20.75 -87.6 19.9 -81.85 L19.25 -77.2 19.25 169.0" fill="none" stroke="#000000" stroke-linecap="round" stroke-linejoin="round" stroke-width="3.0"/>
  </g>
</svg>
