<?xml version="1.0" encoding="UTF-8" standalone="no"?>
<svg xmlns:ffdec="https://www.free-decompiler.com/flash" xmlns:xlink="http://www.w3.org/1999/xlink" ffdec:objectType="shape" height="195.45px" width="92.0px" xmlns="http://www.w3.org/2000/svg">
  <g transform="matrix(1.0, 0.0, 0.0, 1.0, 30.5, 249.7)">
    <path d="M28.7 -81.25 Q28.15 -71.05 20.8 -63.7 12.8 -55.75 1.55 -55.75 -9.75 -55.75 -17.7 -63.7 -25.05 -71.05 -25.6 -81.25 L28.7 -81.25" fill="#999999" fill-rule="evenodd" stroke="none"/>
    <path d="M10.9 -152.75 L15.45 -137.45 Q1.7 -144.95 -8.1 -137.45 L-2.45 -152.75 Q4.25 -157.6 10.9 -152.75 M20.0 -122.15 L24.55 -106.8 Q2.55 -111.75 -19.45 -106.8 L-13.8 -122.15 Q3.1 -126.15 20.0 -122.15 M28.25 -94.4 L32.15 -81.25 28.7 -81.25 -25.6 -81.25 -29.0 -81.25 -24.0 -94.65 Q1.1 -97.55 28.25 -94.4" fill="#ff9900" fill-rule="evenodd" stroke="none"/>
    <path d="M-2.45 -152.75 L2.95 -167.3 6.45 -167.75 10.9 -152.75 Q4.25 -157.6 -2.45 -152.75 M15.45 -137.45 L20.0 -122.15 Q3.1 -126.15 -13.8 -122.15 L-8.1 -137.45 Q1.7 -144.95 15.45 -137.45 M24.55 -106.8 L28.25 -94.4 Q1.1 -97.55 -24.0 -94.65 L-19.45 -106.8 Q2.55 -111.75 24.55 -106.8" fill="#ffffff" fill-rule="evenodd" stroke="none"/>
    <path d="M5.35 -224.8 L5.25 -224.8 5.35 -248.2 5.45 -248.0 Q6.05 -247.1 8.2 -246.3 9.8 -245.65 12.8 -244.7 L16.0 -243.4 20.45 -242.8 23.2 -242.85 27.9 -243.8 Q32.25 -244.7 36.9 -246.2 L40.05 -246.9 43.3 -247.2 Q44.6 -247.2 46.95 -246.45 50.0 -245.45 52.6 -243.7 60.0 -238.6 60.0 -229.6 60.0 -225.05 53.0 -224.2 L47.75 -223.95 44.3 -223.95 40.3 -222.85 36.55 -221.8 27.45 -219.45 21.75 -218.1 Q17.15 -218.1 14.75 -218.9 12.4 -219.7 5.55 -224.8 L5.35 -224.8" fill="#ff0000" fill-rule="evenodd" stroke="none"/>
    <path d="M5.35 -224.8 L5.25 -224.8 5.35 -248.2 5.45 -248.0 Q6.05 -247.1 8.2 -246.3 9.8 -245.65 12.8 -244.7 L16.0 -243.4 20.45 -242.8 23.2 -242.85 27.9 -243.8 Q32.25 -244.7 36.9 -246.2 L40.05 -246.9 43.3 -247.2 Q44.6 -247.2 46.95 -246.45 50.0 -245.45 52.6 -243.7 60.0 -238.6 60.0 -229.6 60.0 -225.05 53.0 -224.2 L47.75 -223.95 44.3 -223.95 40.3 -222.85 36.55 -221.8 27.45 -219.45 21.75 -218.1 Q17.15 -218.1 14.75 -218.9 12.4 -219.7 5.55 -224.8 M5.35 -224.8 L5.0 -168.0 M-2.45 -152.75 L2.95 -167.3 6.45 -167.75 10.9 -152.75 15.45 -137.45 20.0 -122.15 24.55 -106.8 28.25 -94.4 32.15 -81.25 28.7 -81.25 Q28.15 -71.05 20.8 -63.7 12.8 -55.75 1.55 -55.75 -9.75 -55.75 -17.7 -63.7 -25.05 -71.05 -25.6 -81.25 L-29.0 -81.25 -24.0 -94.65 -19.45 -106.8 -13.8 -122.15 -8.1 -137.45 -2.45 -152.75" fill="none" stroke="#000000" stroke-linecap="round" stroke-linejoin="round" stroke-width="3.0"/>
    <path d="M-2.45 -152.75 Q4.25 -157.6 10.9 -152.75 M-13.8 -122.15 Q3.1 -126.15 20.0 -122.15 M15.45 -137.45 Q1.7 -144.95 -8.1 -137.45 M24.55 -106.8 Q2.55 -111.75 -19.45 -106.8 M-24.0 -94.65 Q1.1 -97.55 28.25 -94.4 M-25.6 -81.25 L28.7 -81.25" fill="none" stroke="#000000" stroke-linecap="round" stroke-linejoin="round" stroke-width="1.0"/>
    <path d="M12.35 -235.7 Q12.0 -230.8 12.0 -229.25 12.0 -220.2 12.5 -201.85 L13.0 -183.85 13.25 -177.45 Q13.4 -171.5 13.0 -167.0 11.65 -153.0 5.0 -153.0 1.15 -153.0 -1.2 -155.95 -2.75 -157.9 -3.0 -159.75 L-3.0 -204.75 Q-4.0 -211.5 -4.0 -224.6 L-3.9 -235.75 Q-3.1 -245.4 0.75 -247.25 10.35 -251.85 12.05 -243.3 12.6 -240.5 12.35 -235.7" fill="#ffffff" fill-opacity="0.007843138" fill-rule="evenodd" stroke="none"/>
  </g>
</svg>
