<?xml version="1.0" encoding="UTF-8" standalone="no"?>
<svg xmlns:ffdec="https://www.free-decompiler.com/flash" xmlns:xlink="http://www.w3.org/1999/xlink" ffdec:objectType="shape" height="368.5px" width="483.0px" xmlns="http://www.w3.org/2000/svg">
  <g transform="matrix(1.0, 0.0, 0.0, 1.0, 201.5, 197.0)">
    <path d="M69.7 -121.6 Q101.65 -117.05 130.05 -107.9 L136.6 -105.0 Q170.75 -88.95 190.75 -60.0 L193.2 -55.7 280.0 170.0 -200.0 170.0 -102.65 -60.0 Q-98.5 -71.65 -91.8 -81.2 -74.5 -98.05 -45.35 -108.45 L-30.8 -112.95 Q1.0 -121.9 32.85 -123.05 L40.25 -123.25 42.35 -123.25 56.95 -123.25 63.65 -122.45 69.7 -121.6" fill="#ffcc33" fill-rule="evenodd" stroke="none"/>
    <path d="M86.85 -160.3 Q79.1 -152.6 74.75 -142.35 70.75 -133.05 69.7 -121.6 L63.65 -122.45 62.5 -122.75 Q63.5 -134.2 67.5 -144.3 71.35 -154.1 77.95 -162.7 L78.95 -163.95 79.75 -165.15 Q81.1 -164.4 82.6 -164.75 84.1 -165.15 84.95 -166.55 L85.1 -166.85 85.65 -166.75 Q85.05 -165.45 85.4 -164.2 85.75 -162.75 87.05 -162.0 L87.55 -161.75 86.85 -160.3 M32.85 -123.05 Q34.8 -134.6 33.4 -144.65 31.85 -155.7 26.25 -165.1 L26.05 -166.7 26.55 -166.8 Q28.0 -167.2 28.75 -168.55 29.4 -169.65 29.15 -171.0 L29.7 -171.05 29.75 -170.65 Q30.2 -169.1 31.55 -168.35 32.9 -167.55 34.4 -168.0 L34.85 -166.6 35.5 -165.1 Q39.7 -155.1 40.85 -144.65 42.05 -134.2 40.25 -123.25 L32.85 -123.05" fill="#cc9900" fill-rule="evenodd" stroke="none"/>
    <path d="M92.3 -163.9 L92.05 -163.3 Q91.25 -162.0 89.8 -161.65 L88.25 -161.55 87.75 -161.65 87.55 -161.75 87.05 -162.0 Q85.75 -162.75 85.4 -164.2 85.05 -165.45 85.65 -166.75 L92.3 -163.9 M25.3 -166.7 Q24.55 -166.75 23.8 -167.2 22.5 -167.9 22.1 -169.4 L22.0 -169.95 29.15 -171.0 Q29.4 -169.65 28.75 -168.55 28.0 -167.2 26.55 -166.8 L26.05 -166.7 25.85 -166.7 25.3 -166.7 M36.2 -174.3 Q36.85 -173.6 37.1 -172.6 37.55 -171.1 36.75 -169.75 L35.7 -168.55 Q35.1 -168.15 34.4 -168.0 32.9 -167.55 31.55 -168.35 30.2 -169.1 29.75 -170.65 L29.7 -171.05 36.2 -174.3 M79.75 -165.15 L78.65 -166.05 77.95 -167.5 Q77.55 -169.0 78.35 -170.35 78.85 -171.2 79.7 -171.7 L85.1 -166.85 84.95 -166.55 Q84.1 -165.15 82.6 -164.75 81.1 -164.4 79.75 -165.15" fill="#996600" fill-rule="evenodd" stroke="none"/>
    <path d="M22.0 -169.95 Q12.2 -170.15 4.25 -163.5 7.05 -175.2 18.4 -176.25 13.0 -184.6 2.85 -184.55 14.0 -191.85 23.6 -185.3 30.9 -195.05 42.05 -193.3 33.0 -188.3 30.5 -179.5 43.65 -184.8 54.55 -175.1 44.6 -177.75 36.2 -174.3 L29.7 -171.05 29.15 -171.0 22.0 -169.95 M79.7 -171.7 Q72.45 -177.2 62.15 -177.25 75.15 -183.85 86.5 -175.3 86.35 -184.45 78.95 -191.55 90.15 -190.4 94.7 -179.1 105.65 -182.95 114.55 -172.95 104.75 -175.65 97.4 -169.05 108.1 -165.05 107.7 -153.05 101.8 -161.5 92.3 -163.9 L85.65 -166.75 85.1 -166.85 79.7 -171.7" fill="#00cc00" fill-rule="evenodd" stroke="none"/>
    <path d="M69.7 -121.6 Q101.65 -117.05 130.05 -107.9 L136.6 -105.0 Q170.75 -88.95 190.75 -60.0 L193.2 -55.7 280.0 170.0 M-200.0 170.0 L-102.65 -60.0 Q-98.5 -71.65 -91.8 -81.2 -74.5 -98.05 -45.35 -108.45 L-30.8 -112.95 Q1.0 -121.9 32.85 -123.05 L40.25 -123.25 M42.35 -123.25 L56.95 -123.25 63.65 -122.45 69.7 -121.6 M85.65 -166.75 L85.1 -166.85 M29.15 -171.0 L29.7 -171.05" fill="none" stroke="#000000" stroke-linecap="round" stroke-linejoin="round" stroke-width="3.0"/>
    <path d="M92.3 -163.9 L92.05 -163.3 Q91.25 -162.0 89.8 -161.65 L88.25 -161.55 88.0 -161.35 86.85 -160.3 Q79.1 -152.6 74.75 -142.35 70.75 -133.05 69.7 -121.6 M32.85 -123.05 Q34.8 -134.6 33.4 -144.65 31.85 -155.7 26.25 -165.1 L25.45 -166.45 25.3 -166.7 Q24.55 -166.75 23.8 -167.2 22.5 -167.9 22.1 -169.4 L22.0 -169.95 Q12.2 -170.15 4.25 -163.5 7.05 -175.2 18.4 -176.25 13.0 -184.6 2.85 -184.55 14.0 -191.85 23.6 -185.3 30.9 -195.05 42.05 -193.3 33.0 -188.3 30.5 -179.5 43.65 -184.8 54.55 -175.1 44.6 -177.75 36.2 -174.3 36.85 -173.6 37.1 -172.6 37.55 -171.1 36.75 -169.75 L35.7 -168.55 Q35.1 -168.15 34.4 -168.0 32.9 -167.55 31.55 -168.35 30.2 -169.1 29.75 -170.65 L29.7 -171.05 36.2 -174.3 M34.85 -166.6 L35.5 -165.1 Q39.7 -155.1 40.85 -144.65 42.05 -134.2 40.25 -123.25 L42.35 -123.25 M62.5 -122.75 Q63.5 -134.2 67.5 -144.3 71.35 -154.1 77.95 -162.7 L78.95 -163.95 M79.75 -165.15 L78.65 -166.05 77.95 -167.5 Q77.55 -169.0 78.35 -170.35 78.85 -171.2 79.7 -171.7 72.45 -177.2 62.15 -177.25 75.15 -183.85 86.5 -175.3 86.35 -184.45 78.95 -191.55 90.15 -190.4 94.7 -179.1 105.65 -182.95 114.55 -172.95 104.75 -175.65 97.4 -169.05 108.1 -165.05 107.7 -153.05 101.8 -161.5 92.3 -163.9 L85.65 -166.75 Q85.05 -165.45 85.4 -164.2 85.75 -162.75 87.05 -162.0 L87.55 -161.75 87.75 -161.65 88.25 -161.55 M85.1 -166.85 L84.95 -166.55 Q84.1 -165.15 82.6 -164.75 81.1 -164.4 79.75 -165.15 M85.1 -166.85 L79.7 -171.7 M26.05 -166.7 L26.55 -166.8 Q28.0 -167.2 28.75 -168.55 29.4 -169.65 29.15 -171.0 L22.0 -169.95 M25.3 -166.7 L25.85 -166.7 26.05 -166.7" fill="none" stroke="#000000" stroke-linecap="round" stroke-linejoin="round" stroke-width="2.0"/>
    <path d="M112.65 -172.4 Q116.25 -168.25 116.45 -161.6 116.0 -152.5 116.0 -146.0 117.5 -136.15 116.05 -128.0 113.25 -112.0 98.5 -112.0 93.75 -112.0 64.6 -116.0 35.45 -120.0 22.0 -120.0 20.2 -120.0 18.65 -120.55 L15.5 -122.25 Q13.15 -118.3 12.6 -117.7 10.25 -115.0 7.0 -115.0 0.45 -115.0 -0.95 -133.0 -1.6 -141.95 -1.0 -150.6 L-1.55 -162.8 Q-1.9 -174.35 -0.75 -180.25 0.35 -185.75 7.25 -186.55 L19.0 -187.0 Q22.65 -187.55 26.5 -189.25 L33.55 -192.4 Q43.9 -196.55 62.0 -197.0 86.25 -187.9 97.05 -182.7 108.55 -177.2 112.65 -172.4 M-53.1 -118.0 L-38.8 -121.5 Q-32.45 -122.9 -30.0 -121.45 -27.25 -119.85 -27.0 -114.0 L-27.0 -113.0 Q-27.0 -107.7 -33.6 -105.05 -37.0 -103.7 -57.75 -98.75 -61.0 -98.0 -62.95 -95.45 L-65.65 -90.95 Q-67.15 -88.5 -69.2 -87.85 -71.95 -87.05 -77.0 -88.75 -76.9 -83.1 -77.9 -79.3 -79.8 -72.0 -87.0 -72.0 -92.85 -72.0 -94.5 -76.9 L-94.55 -77.0 Q-95.35 -79.45 -95.0 -82.1 L-94.95 -99.25 Q-94.7 -106.25 -93.05 -109.5 -91.2 -113.05 -86.5 -114.45 -82.05 -115.75 -72.6 -115.75 -63.4 -115.75 -53.1 -118.0" fill="#ffffff" fill-opacity="0.007843138" fill-rule="evenodd" stroke="none"/>
  </g>
</svg>
