<?xml version="1.0" encoding="UTF-8" standalone="no"?>
<svg xmlns:ffdec="https://www.free-decompiler.com/flash" xmlns:xlink="http://www.w3.org/1999/xlink" ffdec:objectType="shape" height="206.8px" width="168.25px" xmlns="http://www.w3.org/2000/svg">
  <g transform="matrix(1.0, 0.0, 0.0, 1.0, 51.5, 285.3)">
    <path d="M52.0 -98.5 L52.0 -80.0 3.85 -80.0 1.0 -80.0 0.0 -80.0 Q-22.45 -80.25 -38.45 -91.75 -45.95 -97.15 -50.0 -103.55 L-5.1 -103.55 5.0 -103.55 12.5 -98.5 30.0 -98.5 52.0 -98.5" fill="#00cc00" fill-rule="evenodd" stroke="none"/>
    <path d="M-5.1 -109.75 L-48.0 -109.75 -5.1 -203.55 -5.1 -109.75 -5.1 -203.55 14.05 -109.75 -5.1 -109.75" fill="#ffffff" fill-rule="evenodd" stroke="none"/>
    <path d="M5.0 -103.55 L30.0 -103.55 52.0 -103.55 52.0 -98.5 52.0 -80.0 3.85 -80.0 1.0 -80.0 0.0 -80.0 Q-22.45 -80.25 -38.45 -91.75 -45.95 -97.15 -50.0 -103.55 L-5.1 -103.55 -5.1 -109.75 -48.0 -109.75 -5.1 -203.55 -5.1 -230.0 M30.0 -98.5 L30.0 -103.55 M-5.1 -109.75 L14.05 -109.75 -5.1 -203.55 M-5.1 -103.55 L5.0 -103.55" fill="none" stroke="#000000" stroke-linecap="round" stroke-linejoin="round" stroke-width="3.0"/>
    <path d="M5.0 -103.55 L12.5 -98.5 30.0 -98.5 52.0 -98.5 M-5.1 -203.55 L-5.1 -109.75" fill="none" stroke="#000000" stroke-linecap="round" stroke-linejoin="round" stroke-width="2.0"/>
    <path d="M4.0 -273.75 Q4.0 -262.7 1.95 -245.95 0.6 -234.85 -1.2 -228.5 L-0.5 -226.3 Q2.0 -217.9 2.0 -203.85 2.7 -195.0 2.05 -188.5 L1.35 -184.2 Q3.4 -186.1 7.25 -186.55 L19.0 -187.0 Q22.65 -187.55 26.5 -189.25 L33.55 -192.4 Q43.9 -196.55 62.0 -197.0 86.25 -187.9 97.05 -182.7 108.55 -177.2 112.65 -172.4 116.25 -168.25 116.45 -161.6 116.0 -152.5 116.0 -146.0 117.5 -136.15 116.05 -128.0 113.25 -112.0 98.5 -112.0 93.75 -112.0 64.6 -116.0 35.45 -120.0 22.0 -120.0 20.2 -120.0 18.65 -120.55 L15.5 -122.25 Q13.15 -118.3 12.6 -117.7 10.25 -115.0 7.0 -115.0 0.45 -115.0 -0.95 -133.0 -1.6 -141.95 -1.0 -150.6 L-1.55 -162.8 Q-1.85 -172.75 -1.05 -178.5 -2.95 -176.0 -6.0 -176.0 -12.7 -176.0 -14.05 -190.3 -14.7 -197.4 -14.0 -204.1 -14.0 -214.85 -12.6 -222.2 -14.4 -224.2 -15.05 -227.9 -15.7 -231.9 -15.0 -236.1 L-13.95 -249.05 Q-12.9 -261.7 -13.0 -268.0 -13.1 -275.9 -10.5 -280.65 -8.2 -284.75 -4.65 -285.25 -1.2 -285.7 1.3 -282.65 4.0 -279.4 4.0 -273.75" fill="#ffffff" fill-opacity="0.007843138" fill-rule="evenodd" stroke="none"/>
  </g>
</svg>
