<?xml version="1.0" encoding="UTF-8" standalone="no"?>
<svg xmlns:ffdec="https://www.free-decompiler.com/flash" xmlns:xlink="http://www.w3.org/1999/xlink" ffdec:objectType="shape" height="332.85px" width="198.2px" xmlns="http://www.w3.org/2000/svg">
  <g transform="matrix(1.0, 0.0, 0.0, 1.0, 81.45, 197.0)">
    <path d="M25.9 -175.85 L25.9 -176.1 29.0 -176.1 Q39.95 -141.45 50.9 -111.3 48.25 -86.45 45.75 -59.5 L45.7 -59.15 45.65 -58.7 45.6 -58.3 45.55 -58.3 40.1 -17.95 40.05 -17.95 18.35 113.7 6.2 134.15 16.75 -17.95 19.95 -58.3 20.0 -58.7 20.05 -59.4 20.05 -59.5 25.9 -175.85 M1.75 -136.65 L-3.45 -59.5 -3.45 -59.4 -3.5 -58.7 -3.55 -58.3 -8.05 -17.85 -8.0 -17.85 -6.9 108.3 -14.1 125.0 -24.5 -17.95 -24.55 -17.95 -21.1 -58.3 -21.05 -58.7 -21.0 -59.25 -21.0 -59.5 -14.55 -175.55 Q-6.4 -158.15 1.75 -136.65 M67.25 -134.45 Q75.45 -104.2 83.6 -80.95 L79.6 -59.5 79.45 -58.75 79.45 -58.7 79.35 -58.3 79.15 -58.3 71.1 -17.95 71.05 -17.95 54.65 38.85 22.45 127.75 53.1 -17.85 58.6 -58.3 58.65 -58.3 58.7 -58.7 58.75 -59.0 58.8 -59.5 Q63.05 -99.75 67.25 -134.45 M29.0 -177.35 L25.9 -177.35 26.3 -185.95 29.0 -177.35 M-75.4 -58.3 L-79.95 -88.3 -79.95 -120.85 -47.0 -117.35 -46.85 -59.5 -46.85 -59.0 -46.85 -58.7 -46.85 -58.3 -46.9 -58.3 -46.8 -17.95 -46.65 -17.95 -29.1 83.8 -32.05 110.2 -68.65 -16.95 -69.15 -17.8 -68.65 -16.95 -69.05 -16.95 -69.15 -17.8 -75.3 -58.3 -75.4 -58.3" fill="#ccffff" fill-rule="evenodd" stroke="none"/>
    <path d="M25.9 -175.85 L21.2 -176.1 25.9 -176.1 25.9 -175.85 M89.1 -17.85 L88.95 -16.95 88.8 -16.95 89.1 -17.85 M26.3 -185.95 L25.9 -177.35 21.2 -177.35 Q23.7 -181.85 26.3 -185.95" fill="#99cccc" fill-rule="evenodd" stroke="none"/>
    <path d="M21.2 -176.1 L25.9 -175.85 20.05 -59.5 20.05 -59.4 20.0 -58.7 19.95 -58.3 16.75 -17.95 6.2 134.15 -6.9 108.3 -8.0 -17.85 -8.05 -17.85 -3.55 -58.3 -3.5 -58.7 -3.45 -59.4 -3.45 -59.5 1.75 -136.65 Q11.45 -159.15 21.2 -176.1 M50.9 -111.3 Q59.1 -124.85 67.25 -134.45 63.05 -99.75 58.8 -59.5 L58.75 -59.0 58.7 -58.7 58.65 -58.3 58.6 -58.3 53.1 -17.85 22.45 127.75 18.35 113.7 40.05 -17.95 40.1 -17.95 45.55 -58.3 45.6 -58.3 45.65 -58.7 45.7 -59.15 45.75 -59.5 Q48.25 -86.45 50.9 -111.3 M83.6 -80.95 Q91.8 -83.85 100.0 -87.7 L95.45 -58.3 95.35 -58.3 89.1 -17.85 88.8 -16.95 57.85 73.95 54.65 38.85 71.05 -17.95 71.1 -17.95 79.15 -58.3 79.35 -58.3 79.45 -58.7 79.45 -58.75 79.6 -59.5 83.6 -80.95 M-47.0 -117.35 Q-30.9 -143.85 -14.55 -175.55 L-21.0 -59.5 -21.0 -59.25 -21.05 -58.7 -21.1 -58.3 -24.55 -17.95 -24.5 -17.95 -14.1 125.0 -29.1 83.8 -46.65 -17.95 -46.8 -17.95 -46.9 -58.3 -46.85 -58.3 -46.85 -58.7 -46.85 -59.0 -46.85 -59.5 -47.0 -117.35" fill="#ffffff" fill-rule="evenodd" stroke="none"/>
    <path d="M21.2 -176.1 Q11.45 -159.15 1.75 -136.65 -6.4 -158.15 -14.55 -175.55 -30.9 -143.85 -47.0 -117.35 L-79.95 -120.85 -79.95 -88.3 -75.4 -58.3 M-6.9 108.3 L6.2 134.15 18.35 113.7 22.45 127.75 54.65 38.85 57.85 73.95 88.8 -16.95 89.1 -17.85 88.95 -16.95 M29.0 -176.1 Q39.95 -141.45 50.9 -111.3 59.1 -124.85 67.25 -134.45 75.45 -104.2 83.6 -80.95 91.8 -83.85 100.0 -87.7 L95.45 -58.3 M95.35 -58.3 L89.1 -17.85 M29.0 -177.35 L26.3 -185.95 Q23.7 -181.85 21.2 -177.35 M-69.15 -17.8 L-68.65 -16.95 -32.05 110.2 -29.1 83.8 -14.1 125.0 -6.9 108.3 M-69.05 -16.95 L-69.15 -17.8 -75.3 -58.3" fill="none" stroke="#000000" stroke-linecap="round" stroke-linejoin="round" stroke-width="3.0"/>
    <path d="M112.65 -172.4 Q116.25 -168.25 116.45 -161.6 116.0 -152.5 116.0 -146.0 117.5 -136.15 116.05 -128.0 113.25 -112.0 98.5 -112.0 93.75 -112.0 64.7 -115.95 72.7 -110.25 86.6 -102.6 99.0 -94.6 99.0 -85.75 99.0 -82.55 96.75 -80.5 94.0 -78.0 88.5 -78.0 75.95 -78.0 61.0 -94.05 53.25 -102.35 45.5 -113.75 44.15 -115.45 43.25 -118.6 L22.0 -120.0 Q20.2 -120.0 18.65 -120.55 L15.5 -122.25 Q13.15 -118.3 12.6 -117.7 10.25 -115.0 7.0 -115.0 0.45 -115.0 -0.95 -133.0 L-1.25 -139.9 Q-4.4 -143.95 -8.95 -153.55 -12.85 -161.75 -16.0 -169.6 -16.0 -173.85 -9.9 -177.65 L1.55 -185.0 1.35 -184.2 Q1.8 -184.65 2.4 -185.0 L5.2 -185.0 5.2 -186.15 7.25 -186.55 19.0 -187.0 Q22.65 -187.55 26.5 -189.25 L33.55 -192.4 Q43.9 -196.55 62.0 -197.0 86.25 -187.9 97.05 -182.7 108.55 -177.2 112.65 -172.4 M57.2 39.9 Q59.55 41.2 61.3 44.15 63.0 47.0 63.0 49.35 63.0 51.55 58.15 64.35 52.15 80.15 44.75 93.9 22.1 135.85 -1.0 135.85 -19.55 135.85 -28.0 120.9 -34.0 110.3 -34.0 95.0 -34.0 90.1 -32.95 87.85 -31.1 83.85 -25.5 83.85 -19.45 83.85 -13.4 92.1 -8.25 99.15 -8.0 103.35 L-8.0 104.6 Q5.65 95.15 17.9 84.95 31.3 73.85 36.75 67.0 42.6 59.6 47.0 47.5 50.9 36.4 57.2 39.9 M9.2 113.5 L-0.25 119.35 -0.5 119.6 Q6.55 118.55 12.35 114.25 17.35 110.5 17.75 107.65 16.2 109.0 9.2 113.5" fill="#ffffff" fill-opacity="0.007843138" fill-rule="evenodd" stroke="none"/>
  </g>
</svg>
