<?xml version="1.0" encoding="UTF-8" standalone="no"?>
<svg xmlns:ffdec="https://www.free-decompiler.com/flash" xmlns:xlink="http://www.w3.org/1999/xlink" ffdec:objectType="shape" height="258.6px" width="474.0px" xmlns="http://www.w3.org/2000/svg">
  <g transform="matrix(1.0, 0.0, 0.0, 1.0, 205.8, 287.85)">
    <path d="M126.2 -208.95 L106.2 -231.15 96.2 -231.15 96.2 -208.95 126.2 -208.95 M-93.8 -208.95 L-113.8 -242.25 -163.8 -242.25 -163.8 -208.95 -113.8 -208.95 -93.8 -208.95" fill="#ffffff" fill-rule="evenodd" stroke="none"/>
    <path d="M96.2 -208.95 L86.2 -208.95 66.2 -208.95 Q51.75 -195.65 50.95 -192.3 L-3.8 -192.3 -49.05 -192.3 -63.8 -208.95 -93.8 -208.95 -113.8 -208.95 -113.8 -192.3 -49.05 -192.3 -33.8 -175.65 -63.8 -175.65 -93.8 -175.65 -113.8 -175.65 -93.8 -175.65 -63.8 -175.65 -33.8 -175.65 -49.05 -192.3 -113.8 -192.3 -113.8 -208.95 -163.8 -208.95 -183.8 -208.95 -188.1 -192.3 -192.4 -175.65 -198.1 -153.4 -203.8 -131.2 -183.8 -131.2 -153.8 -131.2 -123.8 -131.2 -93.8 -131.2 -63.8 -131.2 -63.8 -120.1 -3.8 -120.1 66.2 -120.1 66.2 -131.2 86.2 -131.2 116.2 -131.2 146.2 -131.2 176.2 -131.2 216.2 -131.2 196.2 -153.4 176.2 -175.65 161.2 -192.3 150.7 -192.3 136.2 -208.95 126.2 -208.95 96.2 -208.95 M-153.8 -131.2 L-153.8 -153.4 -183.8 -153.4 -183.8 -175.65 -153.8 -175.65 -123.8 -175.65 -113.8 -175.65 -113.8 -192.3 -188.1 -192.3 -113.8 -192.3 -113.8 -175.65 -123.8 -175.65 -153.8 -175.65 -183.8 -175.65 -192.4 -175.65 -183.8 -175.65 -183.8 -153.4 -153.8 -153.4 -153.8 -131.2 M-183.8 -131.2 L-183.8 -153.4 -198.1 -153.4 -183.8 -153.4 -183.8 -131.2 M-123.8 -175.65 L-123.8 -153.4 -153.8 -153.4 -153.8 -175.65 -153.8 -153.4 -123.8 -153.4 -123.8 -175.65 M-93.8 -131.2 L-93.8 -153.4 -123.8 -153.4 -123.8 -131.2 -123.8 -153.4 -93.8 -153.4 -93.8 -131.2 M146.2 -153.4 L156.2 -153.4 176.2 -153.4 176.2 -131.2 176.2 -153.4 196.2 -153.4 176.2 -153.4 156.2 -153.4 156.2 -175.65 156.2 -153.4 146.2 -153.4 126.2 -153.4 116.2 -153.4 116.2 -131.2 116.2 -153.4 126.2 -153.4 146.2 -153.4 146.2 -131.2 146.2 -153.4 M126.2 -175.65 L156.2 -175.65 176.2 -175.65 156.2 -175.65 126.2 -175.65 126.2 -192.3 86.2 -192.3 86.2 -208.95 86.2 -192.3 126.2 -192.3 126.2 -175.65 96.2 -175.65 86.2 -175.65 96.2 -175.65 126.2 -175.65 126.2 -153.4 126.2 -175.65 M96.2 -153.4 L116.2 -153.4 96.2 -153.4 96.2 -175.65 96.2 -153.4 86.2 -153.4 96.2 -153.4 M126.2 -208.95 L126.2 -192.3 150.7 -192.3 126.2 -192.3 126.2 -208.95 M86.2 -131.2 L86.2 -153.4 66.2 -153.4 66.2 -175.65 86.2 -175.65 86.2 -192.3 50.95 -192.3 36.2 -175.65 36.2 -153.4 -3.8 -153.4 -3.8 -136.2 66.2 -136.2 66.2 -153.4 36.2 -153.4 66.2 -153.4 66.2 -136.2 66.2 -131.2 66.2 -136.2 -3.8 -136.2 -3.8 -153.4 36.2 -153.4 36.2 -175.65 66.2 -175.65 36.2 -175.65 -3.8 -175.65 -3.8 -153.4 -33.8 -153.4 -3.8 -153.4 -3.8 -175.65 36.2 -175.65 50.95 -192.3 86.2 -192.3 86.2 -175.65 66.2 -175.65 66.2 -153.4 86.2 -153.4 86.2 -131.2 M-63.8 -136.2 L-3.8 -136.2 -3.8 -120.1 -3.8 -136.2 -63.8 -136.2 -63.8 -153.4 -93.8 -153.4 -93.8 -175.65 -93.8 -153.4 -63.8 -153.4 -63.8 -136.2 -63.8 -131.2 -63.8 -136.2 M-33.8 -175.65 L-3.8 -175.65 -3.8 -192.3 -3.8 -175.65 -33.8 -175.65 -33.8 -153.4 -63.8 -153.4 -63.8 -175.65 -63.8 -153.4 -33.8 -153.4 -33.8 -175.65" fill="#66ccff" fill-rule="evenodd" stroke="none"/>
    <path d="M126.2 -208.95 L106.2 -231.15 96.2 -231.15 96.2 -208.95 M-93.8 -208.95 L-113.8 -242.25 -163.8 -242.25 -163.8 -208.95" fill="none" stroke="#000000" stroke-linecap="round" stroke-linejoin="round" stroke-width="4.0"/>
    <path d="M-188.1 -192.3 L-113.8 -192.3 -113.8 -175.65 -123.8 -175.65 -153.8 -175.65 -183.8 -175.65 -192.4 -175.65 M-198.1 -153.4 L-183.8 -153.4 -183.8 -131.2 M-183.8 -175.65 L-183.8 -153.4 -153.8 -153.4 -153.8 -131.2 M-113.8 -208.95 L-113.8 -192.3 -49.05 -192.3 -33.8 -175.65 -63.8 -175.65 -93.8 -175.65 -113.8 -175.65 M-123.8 -131.2 L-123.8 -153.4 -93.8 -153.4 -93.8 -131.2 M-153.8 -175.65 L-153.8 -153.4 -123.8 -153.4 -123.8 -175.65 M-93.8 -175.65 L-93.8 -153.4 -63.8 -153.4 -63.8 -136.2 -63.8 -131.2 M-33.8 -175.65 L-33.8 -153.4 -63.8 -153.4 -63.8 -175.65 M-3.8 -192.3 L-3.8 -175.65 -33.8 -175.65 M36.2 -175.65 L50.95 -192.3 86.2 -192.3 86.2 -175.65 66.2 -175.65 36.2 -175.65 -3.8 -175.65 -3.8 -153.4 -33.8 -153.4 M66.2 -136.2 L-3.8 -136.2 -3.8 -153.4 36.2 -153.4 66.2 -153.4 66.2 -136.2 66.2 -131.2 M-3.8 -120.1 L-3.8 -136.2 -63.8 -136.2 M36.2 -153.4 L36.2 -175.65 M66.2 -175.65 L66.2 -153.4 86.2 -153.4 86.2 -131.2 M86.2 -208.95 L86.2 -192.3 126.2 -192.3 126.2 -175.65 96.2 -175.65 86.2 -175.65 M150.7 -192.3 L126.2 -192.3 126.2 -208.95 M116.2 -131.2 L116.2 -153.4 126.2 -153.4 146.2 -153.4 146.2 -131.2 M96.2 -175.65 L96.2 -153.4 86.2 -153.4 M116.2 -153.4 L96.2 -153.4 M126.2 -175.65 L126.2 -153.4 M176.2 -175.65 L156.2 -175.65 126.2 -175.65 M176.2 -131.2 L176.2 -153.4 196.2 -153.4 M176.2 -153.4 L156.2 -153.4 156.2 -175.65 M156.2 -153.4 L146.2 -153.4" fill="none" stroke="#ffffff" stroke-linecap="round" stroke-linejoin="round" stroke-width="4.0"/>
    <path d="M126.2 -208.95 L96.2 -208.95 M-113.8 -208.95 L-93.8 -208.95 M-163.8 -208.95 L-113.8 -208.95" fill="none" stroke="#000000" stroke-linecap="round" stroke-linejoin="round" stroke-width="2.0"/>
    <path d="M-203.8 -131.2 L-203.8 -120.1 Q-198.2 -41.7 -123.8 -31.25 L66.2 -31.25 Q130.65 -31.8 176.2 -53.45 L266.2 -131.2 216.2 -131.2 66.2 -131.2 66.2 -120.1 -63.8 -120.1 -63.8 -131.2 -203.8 -131.2 M167.7 -110.65 Q166.2 -112.3 166.2 -114.55 166.2 -116.85 167.7 -118.5 169.15 -120.1 171.2 -120.1 173.25 -120.1 174.75 -118.5 176.2 -116.85 176.2 -114.55 176.2 -112.3 174.75 -110.65 173.25 -109.0 171.2 -109.0 169.15 -109.0 167.7 -110.65 M96.2 -114.55 Q96.2 -112.3 94.75 -110.65 93.25 -109.0 91.2 -109.0 89.15 -109.0 87.7 -110.65 86.2 -112.3 86.2 -114.55 86.2 -116.85 87.7 -118.5 89.15 -120.1 91.2 -120.1 93.25 -120.1 94.75 -118.5 96.2 -116.85 96.2 -114.55 M116.2 -114.55 Q116.2 -112.3 114.75 -110.65 113.25 -109.0 111.2 -109.0 109.15 -109.0 107.7 -110.65 106.2 -112.3 106.2 -114.55 106.2 -116.85 107.7 -118.5 109.15 -120.1 111.2 -120.1 113.25 -120.1 114.75 -118.5 116.2 -116.85 116.2 -114.55 M136.2 -114.55 Q136.2 -112.3 134.75 -110.65 133.25 -109.0 131.2 -109.0 129.15 -109.0 127.7 -110.65 126.2 -112.3 126.2 -114.55 126.2 -116.85 127.7 -118.5 129.15 -120.1 131.2 -120.1 133.25 -120.1 134.75 -118.5 136.2 -116.85 136.2 -114.55 M146.2 -114.55 Q146.2 -116.85 147.7 -118.5 149.15 -120.1 151.2 -120.1 153.25 -120.1 154.75 -118.5 156.2 -116.85 156.2 -114.55 156.2 -112.3 154.75 -110.65 153.25 -109.0 151.2 -109.0 149.15 -109.0 147.7 -110.65 146.2 -112.3 146.2 -114.55" fill="#ffffff" fill-rule="evenodd" stroke="none"/>
    <path d="M146.2 -114.55 Q146.2 -112.3 147.7 -110.65 149.15 -109.0 151.2 -109.0 153.25 -109.0 154.75 -110.65 156.2 -112.3 156.2 -114.55 156.2 -116.85 154.75 -118.5 153.25 -120.1 151.2 -120.1 149.15 -120.1 147.7 -118.5 146.2 -116.85 146.2 -114.55 M136.2 -114.55 Q136.2 -116.85 134.75 -118.5 133.25 -120.1 131.2 -120.1 129.15 -120.1 127.7 -118.5 126.2 -116.85 126.2 -114.55 126.2 -112.3 127.7 -110.65 129.15 -109.0 131.2 -109.0 133.25 -109.0 134.75 -110.65 136.2 -112.3 136.2 -114.55 M116.2 -114.55 Q116.2 -116.85 114.75 -118.5 113.25 -120.1 111.2 -120.1 109.15 -120.1 107.7 -118.5 106.2 -116.85 106.2 -114.55 106.2 -112.3 107.7 -110.65 109.15 -109.0 111.2 -109.0 113.25 -109.0 114.75 -110.65 116.2 -112.3 116.2 -114.55 M96.2 -114.55 Q96.2 -116.85 94.75 -118.5 93.25 -120.1 91.2 -120.1 89.15 -120.1 87.7 -118.5 86.2 -116.85 86.2 -114.55 86.2 -112.3 87.7 -110.65 89.15 -109.0 91.2 -109.0 93.25 -109.0 94.75 -110.65 96.2 -112.3 96.2 -114.55 M167.7 -110.65 Q169.15 -109.0 171.2 -109.0 173.25 -109.0 174.75 -110.65 176.2 -112.3 176.2 -114.55 176.2 -116.85 174.75 -118.5 173.25 -120.1 171.2 -120.1 169.15 -120.1 167.7 -118.5 166.2 -116.85 166.2 -114.55 166.2 -112.3 167.7 -110.65" fill="#000000" fill-rule="evenodd" stroke="none"/>
    <path d="M-203.8 -131.2 L-203.8 -120.1 Q-198.2 -41.7 -123.8 -31.25 L66.2 -31.25 Q130.65 -31.8 176.2 -53.45 L266.2 -131.2 216.2 -131.2 161.2 -192.3 150.7 -192.3 136.2 -208.95 124.25 -208.95 M96.25 -208.95 L66.2 -208.95 Q51.75 -195.65 50.95 -192.3 L-49.05 -192.3 -63.8 -208.95 -95.05 -208.95 M-163.8 -208.95 L-183.8 -208.95 -203.8 -131.2" fill="none" stroke="#000000" stroke-linecap="round" stroke-linejoin="round" stroke-width="4.0"/>
    <path d="M124.25 -208.95 L96.25 -208.95 M-95.05 -208.95 L-163.8 -208.95 M-203.8 -131.2 L-63.8 -131.2 -63.8 -120.1 66.2 -120.1 66.2 -131.2 216.2 -131.2" fill="none" stroke="#000000" stroke-linecap="round" stroke-linejoin="round" stroke-width="2.0"/>
    <path d="M-157.0 -248.0 L-156.45 -228.5 -156.0 -215.0 Q-156.0 -210.25 -157.7 -209.05 -159.95 -207.5 -168.75 -207.5 -170.0 -207.5 -171.85 -206.25 -173.75 -205.0 -175.0 -205.0 -181.7 -205.0 -183.05 -217.75 -183.7 -224.1 -183.0 -230.5 -183.0 -259.7 -181.65 -270.45 -178.1 -298.8 -166.25 -281.0 L-160.65 -264.65 Q-157.05 -254.5 -157.0 -248.0" fill="#ffffff" fill-opacity="0.007843138" fill-rule="evenodd" stroke="none"/>
  </g>
</svg>
