<?xml version="1.0" encoding="UTF-8" standalone="no"?>
<svg xmlns:ffdec="https://www.free-decompiler.com/flash" xmlns:xlink="http://www.w3.org/1999/xlink" ffdec:objectType="shape" height="218.7px" width="289.95px" xmlns="http://www.w3.org/2000/svg">
  <g transform="matrix(1.0, 0.0, 0.0, 1.0, -170.0, 58.7)">
    <path d="M273.9 160.0 L170.0 160.0 170.0 -22.9 269.8 -22.9 269.8 -22.35 Q269.85 -17.8 267.5 -13.9 L266.7 -12.1 266.3 -9.9 Q265.75 -3.75 267.7 1.95 268.8 5.15 269.15 8.2 270.0 16.1 270.3 24.05 L270.75 27.5 Q271.65 31.65 273.0 35.5 273.65 37.2 272.65 37.6 270.9 38.2 271.25 41.1 L271.65 45.6 Q271.85 48.8 273.0 51.9 274.1 54.85 274.1 58.05 L274.35 60.85 Q275.4 67.1 275.95 73.35 276.1 75.05 275.7 76.65 L274.95 78.45 273.35 79.8 Q270.3 81.25 270.7 86.4 L271.0 92.0 Q271.2 102.7 270.6 112.95 270.4 116.65 270.65 120.3 270.65 120.9 271.1 121.3 272.9 122.85 272.5 126.05 272.35 126.85 272.55 127.7 L273.25 132.8 273.35 137.3 Q273.25 141.85 273.55 146.35 L273.8 154.85 273.8 158.25 273.9 160.0" fill="#cccccc" fill-rule="evenodd" stroke="none"/>
    <path d="M459.95 137.8 L459.95 160.0 273.9 160.0 273.8 158.25 273.8 154.85 273.55 146.35 Q273.25 141.85 273.35 137.3 L273.25 132.8 Q336.55 133.55 459.95 137.8" fill="#ffcc33" fill-rule="evenodd" stroke="none"/>
    <path d="M170.0 -22.9 L170.0 -58.7 459.95 -58.7 459.95 137.8 Q336.55 133.55 273.25 132.8 L272.55 127.7 Q272.35 126.85 272.5 126.05 272.9 122.85 271.1 121.3 270.65 120.9 270.65 120.3 270.4 116.65 270.6 112.95 271.2 102.7 271.0 92.0 L270.7 86.4 Q270.3 81.25 273.35 79.8 L274.95 78.45 275.7 76.65 Q276.1 75.05 275.95 73.35 275.4 67.1 274.35 60.85 L274.1 58.05 Q274.1 54.85 273.0 51.9 271.85 48.8 271.65 45.6 L271.25 41.1 Q270.9 38.2 272.65 37.6 273.65 37.2 273.0 35.5 271.65 31.65 270.75 27.5 L270.3 24.05 Q270.0 16.1 269.15 8.2 268.8 5.15 267.7 1.95 265.75 -3.75 266.3 -9.9 L266.7 -12.1 267.5 -13.9 Q269.85 -17.8 269.8 -22.35 L269.8 -22.9 170.0 -22.9" fill="url(#gradient0)" fill-rule="evenodd" stroke="none"/>
  </g>
  <defs>
    <linearGradient gradientTransform="matrix(-9.0E-4, -0.1658, 0.1668, -9.0E-4, 901.9, 50.7)" gradientUnits="userSpaceOnUse" id="gradient0" spreadMethod="pad" x1="-819.2" x2="819.2">
      <stop offset="0.0" stop-color="#ccffff"/>
      <stop offset="1.0" stop-color="#6699ff"/>
    </linearGradient>
  </defs>
</svg>
