<?xml version="1.0" encoding="UTF-8" standalone="no"?>
<svg xmlns:ffdec="https://www.free-decompiler.com/flash" xmlns:xlink="http://www.w3.org/1999/xlink" ffdec:objectType="shape" height="221.7px" width="290.0px" xmlns="http://www.w3.org/2000/svg">
  <g transform="matrix(1.0, 0.0, 0.0, 1.0, -170.0, 202.15)">
    <path d="M258.7 18.05 L258.7 18.35 170.0 18.35 170.0 -120.0 Q216.5 -134.1 258.7 -123.05 L258.7 18.05" fill="#00ff00" fill-rule="evenodd" stroke="none"/>
    <path d="M309.9 18.05 L258.7 18.05 258.7 -123.05 258.7 -164.85 305.8 -164.85 305.8 -164.3 Q305.85 -159.75 303.5 -155.85 L302.7 -154.05 302.3 -151.85 Q301.75 -145.7 303.7 -140.0 304.8 -136.8 305.15 -133.75 306.0 -125.85 306.3 -117.9 L306.75 -114.45 Q307.65 -110.3 309.0 -106.45 309.65 -104.75 308.65 -104.35 306.9 -103.75 307.25 -100.85 L307.65 -96.35 Q307.85 -93.15 309.0 -90.05 310.1 -87.1 310.1 -83.9 L310.35 -81.1 Q311.4 -74.85 311.95 -68.6 312.1 -66.9 311.7 -65.3 L310.95 -63.5 Q310.35 -62.7 309.35 -62.15 306.3 -60.7 306.7 -55.55 L307.0 -49.95 Q307.2 -39.25 306.6 -29.0 306.4 -25.3 306.65 -21.65 306.65 -21.05 307.1 -20.65 308.9 -19.1 308.5 -15.9 308.35 -15.1 308.55 -14.25 L309.25 -9.15 309.35 -4.65 Q309.25 -0.1 309.55 4.4 L309.8 12.9 309.8 16.3 309.9 18.05" fill="#cccccc" fill-rule="evenodd" stroke="none"/>
    <path d="M368.7 17.6 L368.7 18.05 309.9 18.05 309.8 16.3 309.8 12.9 309.55 4.4 Q309.25 -0.1 309.35 -4.65 L309.25 -9.15 Q334.3 -8.85 368.7 -8.0 L368.7 17.6" fill="#ffcc33" fill-rule="evenodd" stroke="none"/>
    <path d="M460.0 -19.7 L460.0 17.6 368.7 17.6 368.7 -8.0 368.7 -19.7 460.0 -19.7" fill="#0099ff" fill-rule="evenodd" stroke="none"/>
    <path d="M170.0 -120.0 L170.0 -200.75 258.7 -200.75 258.7 -200.65 258.7 -164.85 258.7 -123.05 Q216.5 -134.1 170.0 -120.0" fill="url(#gradient0)" fill-rule="evenodd" stroke="none"/>
    <path d="M368.7 -200.65 L368.7 -200.95 460.0 -200.95 460.0 -19.7 368.7 -19.7 368.7 -199.95 368.7 -200.65" fill="url(#gradient1)" fill-rule="evenodd" stroke="none"/>
    <path d="M258.7 -200.65 L368.7 -200.65 368.7 -199.95 368.7 -19.7 368.7 -8.0 Q334.3 -8.85 309.25 -9.15 L308.55 -14.25 Q308.35 -15.1 308.5 -15.9 308.9 -19.1 307.1 -20.65 306.65 -21.05 306.65 -21.65 306.4 -25.3 306.6 -29.0 307.2 -39.25 307.0 -49.95 L306.7 -55.55 Q306.3 -60.7 309.35 -62.15 310.35 -62.7 310.95 -63.5 L311.7 -65.3 Q312.1 -66.9 311.95 -68.6 311.4 -74.85 310.35 -81.1 L310.1 -83.9 Q310.1 -87.1 309.0 -90.05 307.85 -93.15 307.65 -96.35 L307.25 -100.85 Q306.9 -103.75 308.65 -104.35 309.65 -104.75 309.0 -106.45 307.65 -110.3 306.75 -114.45 L306.3 -117.9 Q306.0 -125.85 305.15 -133.75 304.8 -136.8 303.7 -140.0 301.75 -145.7 302.3 -151.85 L302.7 -154.05 303.5 -155.85 Q305.85 -159.75 305.8 -164.3 L305.8 -164.85 258.7 -164.85 258.7 -200.65" fill="url(#gradient2)" fill-rule="evenodd" stroke="none"/>
    <path d="M258.7 -123.05 L258.7 -164.85 258.7 -200.65 M368.7 -8.0 L368.7 -19.7 368.7 -199.95 M368.7 17.6 L368.7 -8.0 M258.7 -123.05 L258.7 18.05" fill="none" stroke="#000000" stroke-linecap="round" stroke-linejoin="round" stroke-width="3.0"/>
  </g>
  <defs>
    <linearGradient gradientTransform="matrix(-9.0E-4, -0.1662, 0.1668, -9.0E-4, 1365.9, -68.65)" gradientUnits="userSpaceOnUse" id="gradient0" spreadMethod="pad" x1="-819.2" x2="819.2">
      <stop offset="0.0" stop-color="#ccffff"/>
      <stop offset="1.0" stop-color="#6699ff"/>
    </linearGradient>
    <linearGradient gradientTransform="matrix(9.0E-4, -0.1657, -0.1668, -9.0E-4, 630.7, -118.35)" gradientUnits="userSpaceOnUse" id="gradient1" spreadMethod="pad" x1="-819.2" x2="819.2">
      <stop offset="0.0" stop-color="#ccffff"/>
      <stop offset="1.0" stop-color="#6699ff"/>
    </linearGradient>
    <linearGradient gradientTransform="matrix(-9.0E-4, -0.1658, 0.1668, -9.0E-4, 937.9, -91.25)" gradientUnits="userSpaceOnUse" id="gradient2" spreadMethod="pad" x1="-819.2" x2="819.2">
      <stop offset="0.0" stop-color="#ccffff"/>
      <stop offset="1.0" stop-color="#6699ff"/>
    </linearGradient>
  </defs>
</svg>
