<?xml version="1.0" encoding="UTF-8" standalone="no"?>
<svg xmlns:ffdec="https://www.free-decompiler.com/flash" xmlns:xlink="http://www.w3.org/1999/xlink" ffdec:objectType="shape" height="221.7px" width="292.0px" xmlns="http://www.w3.org/2000/svg">
  <g transform="matrix(1.0, 0.0, 0.0, 1.0, -318.3, -565.95)">
    <path d="M408.0 786.15 L408.0 786.45 319.3 786.45 319.3 648.1 Q365.8 634.0 408.0 645.05 L408.0 786.15" fill="#00ff00" fill-rule="evenodd" stroke="none"/>
    <path d="M319.3 648.1 L319.3 567.35 408.0 567.35 408.0 567.45 408.0 603.25 408.0 645.05 Q365.8 634.0 319.3 648.1" fill="url(#gradient0)" fill-rule="evenodd" stroke="none"/>
    <path d="M518.0 567.45 L518.0 567.15 609.3 567.15 609.3 748.4 518.0 748.4 518.0 568.15 518.0 567.45" fill="url(#gradient1)" fill-rule="evenodd" stroke="none"/>
    <path d="M408.0 567.45 L518.0 567.45 518.0 568.15 518.0 748.4 518.0 760.1 Q483.6 759.25 458.55 758.95 L457.85 753.85 Q457.65 753.0 457.8 752.2 458.2 749.0 456.4 747.45 455.95 747.05 455.95 746.45 455.7 742.8 455.9 739.1 456.5 728.85 456.3 718.15 L456.0 712.55 Q455.6 707.4 458.65 705.95 L460.25 704.6 461.0 702.8 Q461.4 701.2 461.25 699.5 460.7 693.25 459.65 687.0 L459.4 684.2 Q459.4 681.0 458.3 678.05 457.15 674.95 456.95 671.75 L456.55 667.25 Q456.2 664.35 457.95 663.75 458.95 663.35 458.3 661.65 456.95 657.8 456.05 653.65 L455.6 650.2 Q455.3 642.25 454.45 634.35 454.1 631.3 453.0 628.1 451.05 622.4 451.6 616.25 L452.0 614.05 Q452.25 613.15 452.8 612.25 455.15 608.35 455.1 603.8 L455.1 603.25 408.0 603.25 408.0 567.45" fill="url(#gradient2)" fill-rule="evenodd" stroke="none"/>
    <path d="M459.2 786.15 L408.0 786.15 408.0 645.05 408.0 603.25 455.1 603.25 455.1 603.8 Q455.15 608.35 452.8 612.25 452.25 613.15 452.0 614.05 L451.6 616.25 Q451.05 622.4 453.0 628.1 454.1 631.3 454.45 634.35 455.3 642.25 455.6 650.2 L456.05 653.65 Q456.95 657.8 458.3 661.65 458.95 663.35 457.95 663.75 456.2 664.35 456.55 667.25 L456.95 671.75 Q457.15 674.95 458.3 678.05 459.4 681.0 459.4 684.2 L459.65 687.0 Q460.7 693.25 461.25 699.5 461.4 701.2 461.0 702.8 L460.25 704.6 458.65 705.95 Q455.6 707.4 456.0 712.55 L456.3 718.15 Q456.5 728.85 455.9 739.1 455.7 742.8 455.95 746.45 455.95 747.05 456.4 747.45 458.2 749.0 457.8 752.2 457.65 753.0 457.85 753.85 L458.55 758.95 457.95 758.9 458.55 758.95 458.65 763.45 Q458.55 768.0 458.85 772.5 L459.1 781.0 459.1 784.4 459.2 786.15" fill="#cccccc" fill-rule="evenodd" stroke="none"/>
    <path d="M518.0 785.7 L518.0 786.15 459.2 786.15 459.1 784.4 459.1 781.0 458.85 772.5 Q458.55 768.0 458.65 763.45 L458.55 758.95 Q483.6 759.25 518.0 760.1 L518.0 785.7" fill="#ffcc33" fill-rule="evenodd" stroke="none"/>
    <path d="M609.3 748.4 L609.3 785.7 518.0 785.7 518.0 760.1 518.0 748.4 609.3 748.4" fill="#0099ff" fill-rule="evenodd" stroke="none"/>
    <path d="M408.0 645.05 Q365.8 634.0 319.3 648.1 M518.0 748.4 L609.3 748.4 M458.55 758.95 L457.85 753.85 Q457.65 753.0 457.8 752.2 458.2 749.0 456.4 747.45 455.95 747.05 455.95 746.45 455.7 742.8 455.9 739.1 456.5 728.85 456.3 718.15 L456.0 712.55 Q455.6 707.4 458.65 705.95 L460.25 704.6 461.0 702.8 Q461.4 701.2 461.25 699.5 460.7 693.25 459.65 687.0 L459.4 684.2 Q459.4 681.0 458.3 678.05 457.15 674.95 456.95 671.75 L456.55 667.25 Q456.2 664.35 457.95 663.75 458.95 663.35 458.3 661.65 456.95 657.8 456.05 653.65 L455.6 650.2 Q455.3 642.25 454.45 634.35 454.1 631.3 453.0 628.1 451.05 622.4 451.6 616.25 L452.0 614.05 Q452.25 613.15 452.8 612.25 455.15 608.35 455.1 603.8 M455.1 603.25 L408.0 603.25 M457.95 758.9 L458.55 758.95 Q483.6 759.25 518.0 760.1 M458.55 758.95 L458.65 763.45 Q458.55 768.0 458.85 772.5 L459.1 781.0 459.1 784.4 459.2 786.15" fill="none" stroke="#000000" stroke-linecap="round" stroke-linejoin="round" stroke-width="2.0"/>
    <path d="M408.0 786.15 L408.0 645.05 408.0 603.25 408.0 567.45 M518.0 568.15 L518.0 748.4 518.0 760.1 518.0 785.7" fill="none" stroke="#000000" stroke-linecap="round" stroke-linejoin="round" stroke-width="3.0"/>
  </g>
  <defs>
    <linearGradient gradientTransform="matrix(-9.0E-4, -0.1662, 0.1668, -9.0E-4, 1515.2, 699.45)" gradientUnits="userSpaceOnUse" id="gradient0" spreadMethod="pad" x1="-819.2" x2="819.2">
      <stop offset="0.0" stop-color="#ccffff"/>
      <stop offset="1.0" stop-color="#6699ff"/>
    </linearGradient>
    <linearGradient gradientTransform="matrix(9.0E-4, -0.1657, -0.1668, -9.0E-4, 780.0, 649.75)" gradientUnits="userSpaceOnUse" id="gradient1" spreadMethod="pad" x1="-819.2" x2="819.2">
      <stop offset="0.0" stop-color="#ccffff"/>
      <stop offset="1.0" stop-color="#6699ff"/>
    </linearGradient>
    <linearGradient gradientTransform="matrix(-9.0E-4, -0.1658, 0.1668, -9.0E-4, 1087.2, 676.85)" gradientUnits="userSpaceOnUse" id="gradient2" spreadMethod="pad" x1="-819.2" x2="819.2">
      <stop offset="0.0" stop-color="#ccffff"/>
      <stop offset="1.0" stop-color="#6699ff"/>
    </linearGradient>
  </defs>
</svg>
