<?xml version="1.0" encoding="UTF-8" standalone="no"?>
<svg xmlns:ffdec="https://www.free-decompiler.com/flash" xmlns:xlink="http://www.w3.org/1999/xlink" ffdec:objectType="shape" height="50.85px" width="41.5px" xmlns="http://www.w3.org/2000/svg">
  <g transform="matrix(1.0, 0.0, 0.0, 1.0, 14.75, 30.6)">
    <path d="M24.5 -8.5 Q23.15 -5.35 20.6 -3.2 22.05 1.3 20.7 6.25 18.85 13.25 12.55 16.85 6.3 20.5 -0.7 18.6 L-3.1 17.8 Q-8.4 15.6 -11.35 10.45 -14.95 4.15 -13.1 -2.85 -11.2 -9.85 -4.95 -13.45 L-4.25 -13.85 Q-4.4 -16.1 -3.75 -18.45 -2.15 -24.45 3.25 -27.55 8.6 -30.65 14.6 -29.05 20.65 -27.45 23.75 -22.05 26.15 -17.85 25.7 -13.25 L25.25 -10.65 24.5 -8.5 Z" fill="none" stroke="#000000" stroke-linecap="round" stroke-linejoin="round" stroke-width="2.0"/>
  </g>
</svg>
