<?xml version="1.0" encoding="UTF-8" standalone="no"?>
<svg xmlns:ffdec="https://www.free-decompiler.com/flash" xmlns:xlink="http://www.w3.org/1999/xlink" ffdec:objectType="shape" height="49.8px" width="43.7px" xmlns="http://www.w3.org/2000/svg">
  <g transform="matrix(1.0, 0.0, 0.0, 1.0, 9.4, 33.2)">
    <path d="M31.05 -9.3 Q29.3 -6.4 26.5 -4.6 27.25 0.05 25.25 4.75 22.45 11.45 15.75 14.25 9.1 16.95 2.4 14.15 L0.2 13.05 Q-4.75 10.15 -7.05 4.65 -9.8 -2.1 -7.0 -8.8 -4.2 -15.45 2.55 -18.15 L3.25 -18.5 Q3.5 -20.7 4.45 -22.95 6.85 -28.7 12.6 -31.05 18.35 -33.4 24.05 -31.0 29.8 -28.6 32.1 -22.85 33.95 -18.3 32.9 -13.8 L32.05 -11.35 31.05 -9.3 Z" fill="none" stroke="#000000" stroke-linecap="round" stroke-linejoin="round" stroke-width="2.0"/>
  </g>
</svg>
