<?xml version="1.0" encoding="UTF-8" standalone="no"?>
<svg xmlns:ffdec="https://www.free-decompiler.com/flash" xmlns:xlink="http://www.w3.org/1999/xlink" ffdec:objectType="shape" height="48.5px" width="45.5px" xmlns="http://www.w3.org/2000/svg">
  <g transform="matrix(1.0, 0.0, 0.0, 1.0, 3.55, 34.55)">
    <path d="M37.6 -9.1 Q35.55 -6.45 32.55 -5.0 32.7 -0.3 30.15 4.15 26.55 10.4 19.5 12.3 12.5 14.2 6.25 10.55 L4.2 9.2 Q-0.35 5.7 -1.9 -0.05 -3.75 -7.1 -0.15 -13.35 3.5 -19.65 10.5 -21.45 L11.2 -21.7 Q11.7 -23.9 12.9 -26.05 16.0 -31.4 22.0 -33.0 28.05 -34.6 33.4 -31.5 38.8 -28.35 40.4 -22.4 41.65 -17.65 40.0 -13.4 L38.9 -11.05 37.6 -9.1 Z" fill="none" stroke="#000000" stroke-linecap="round" stroke-linejoin="round" stroke-width="2.0"/>
  </g>
</svg>
