<?xml version="1.0" encoding="UTF-8" standalone="no"?>
<svg xmlns:ffdec="https://www.free-decompiler.com/flash" xmlns:xlink="http://www.w3.org/1999/xlink" ffdec:objectType="shape" height="47.0px" width="47.05px" xmlns="http://www.w3.org/2000/svg">
  <g transform="matrix(1.0, 0.0, 0.0, 1.0, -1.75, 35.85)">
    <path d="M43.3 -9.05 Q40.95 -6.65 37.7 -5.55 37.3 -0.9 34.25 3.2 29.85 8.95 22.7 10.0 15.55 10.95 9.75 6.6 L7.9 5.0 Q3.8 1.0 2.95 -4.9 1.95 -12.15 6.35 -17.9 10.7 -23.7 17.9 -24.65 L18.65 -24.75 Q19.4 -26.9 20.9 -28.85 24.6 -33.8 30.75 -34.7 36.9 -35.55 41.85 -31.8 46.85 -28.05 47.65 -21.9 48.35 -17.1 46.2 -13.0 L44.8 -10.75 43.3 -9.05 Z" fill="none" stroke="#000000" stroke-linecap="round" stroke-linejoin="round" stroke-width="2.0"/>
  </g>
</svg>
