<?xml version="1.0" encoding="UTF-8" standalone="no"?>
<svg xmlns:ffdec="https://www.free-decompiler.com/flash" xmlns:xlink="http://www.w3.org/1999/xlink" ffdec:objectType="shape" height="45.15px" width="48.65px" xmlns="http://www.w3.org/2000/svg">
  <g transform="matrix(1.0, 0.0, 0.0, 1.0, -7.55, 35.35)">
    <path d="M49.05 -7.2 Q46.4 -5.15 43.1 -4.55 42.0 0.05 38.4 3.65 33.3 8.75 26.05 8.8 18.8 8.75 13.7 3.65 L12.05 1.8 Q8.55 -2.8 8.55 -8.7 8.55 -16.0 13.65 -21.1 18.8 -26.25 26.05 -26.2 L26.85 -26.2 Q27.85 -28.2 29.6 -29.95 33.95 -34.3 40.2 -34.35 46.4 -34.35 50.8 -29.95 55.2 -25.55 55.2 -19.35 55.2 -14.45 52.5 -10.75 L50.8 -8.75 49.05 -7.2 Z" fill="none" stroke="#000000" stroke-linecap="round" stroke-linejoin="round" stroke-width="2.0"/>
  </g>
</svg>
