<?xml version="1.0" encoding="UTF-8" standalone="no"?>
<svg xmlns:ffdec="https://www.free-decompiler.com/flash" xmlns:xlink="http://www.w3.org/1999/xlink" ffdec:objectType="shape" height="43.2px" width="49.9px" xmlns="http://www.w3.org/2000/svg">
  <g transform="matrix(1.0, 0.0, 0.0, 1.0, -13.25, 34.5)">
    <path d="M54.4 -5.3 Q51.45 -3.65 48.1 -3.5 46.5 0.95 42.45 4.05 36.7 8.45 29.45 7.55 22.3 6.55 17.9 0.8 L16.5 -1.25 Q13.6 -6.2 14.4 -12.1 15.4 -19.3 21.15 -23.7 26.9 -28.1 34.05 -27.15 L34.8 -27.05 Q36.05 -28.9 38.0 -30.4 42.95 -34.2 49.1 -33.35 55.3 -32.55 59.05 -27.65 62.85 -22.7 62.0 -16.55 61.4 -11.7 58.25 -8.35 L56.3 -6.6 Q55.35 -5.85 54.4 -5.3 Z" fill="none" stroke="#000000" stroke-linecap="round" stroke-linejoin="round" stroke-width="2.0"/>
  </g>
</svg>
