<?xml version="1.0" encoding="UTF-8" standalone="no"?>
<svg xmlns:ffdec="https://www.free-decompiler.com/flash" xmlns:xlink="http://www.w3.org/1999/xlink" ffdec:objectType="shape" height="41.2px" width="50.95px" xmlns="http://www.w3.org/2000/svg">
  <g transform="matrix(1.0, 0.0, 0.0, 1.0, -19.05, 33.1)">
    <path d="M59.45 -3.05 Q56.3 -1.75 52.95 -2.0 50.75 2.15 46.3 4.7 40.05 8.35 33.05 6.45 26.05 4.55 22.4 -1.7 L21.35 -3.9 Q19.15 -9.2 20.7 -14.95 22.55 -21.95 28.8 -25.6 35.1 -29.2 42.1 -27.3 L42.85 -27.15 Q44.35 -28.8 46.5 -30.05 51.85 -33.15 57.85 -31.55 63.85 -29.9 66.95 -24.55 70.1 -19.15 68.45 -13.15 67.2 -8.45 63.65 -5.55 L61.5 -4.05 59.45 -3.05 Z" fill="none" stroke="#000000" stroke-linecap="round" stroke-linejoin="round" stroke-width="2.0"/>
  </g>
</svg>
