<?xml version="1.0" encoding="UTF-8" standalone="no"?>
<svg xmlns:ffdec="https://www.free-decompiler.com/flash" xmlns:xlink="http://www.w3.org/1999/xlink" ffdec:objectType="shape" height="39.05px" width="51.65px" xmlns="http://www.w3.org/2000/svg">
  <g transform="matrix(1.0, 0.0, 0.0, 1.0, -24.75, 30.8)">
    <path d="M63.95 -0.2 L57.45 0.0 Q54.75 3.85 50.05 5.85 43.35 8.6 36.6 5.9 29.95 3.1 27.15 -3.6 L26.35 -5.9 Q24.85 -11.4 27.1 -16.95 29.85 -23.7 36.55 -26.45 43.25 -29.25 49.95 -26.5 L50.65 -26.2 Q52.3 -27.65 54.6 -28.6 60.3 -31.0 66.05 -28.65 71.8 -26.25 74.2 -20.55 76.6 -14.8 74.25 -9.05 72.35 -4.6 68.5 -2.1 L66.2 -0.9 63.95 -0.2 Z" fill="none" stroke="#000000" stroke-linecap="round" stroke-linejoin="round" stroke-width="2.0"/>
  </g>
</svg>
