<?xml version="1.0" encoding="UTF-8" standalone="no"?>
<svg xmlns:ffdec="https://www.free-decompiler.com/flash" xmlns:xlink="http://www.w3.org/1999/xlink" ffdec:objectType="shape" height="37.1px" width="52.15px" xmlns="http://www.w3.org/2000/svg">
  <g transform="matrix(1.0, 0.0, 0.0, 1.0, -30.95, 28.35)">
    <path d="M68.7 3.0 Q65.35 3.45 62.2 2.3 59.0 5.75 54.05 7.1 47.05 8.95 40.75 5.35 34.5 1.7 32.6 -5.3 L32.1 -7.7 Q31.4 -13.4 34.35 -18.55 37.95 -24.85 44.95 -26.7 51.95 -28.6 58.25 -24.95 L58.95 -24.55 Q60.8 -25.8 63.15 -26.45 69.15 -28.05 74.55 -24.95 79.95 -21.8 81.55 -15.8 83.15 -9.75 80.05 -4.45 77.65 -0.25 73.45 1.7 L70.95 2.55 68.7 3.0 Z" fill="none" stroke="#000000" stroke-linecap="round" stroke-linejoin="round" stroke-width="2.0"/>
  </g>
</svg>
