<?xml version="1.0" encoding="UTF-8" standalone="no"?>
<svg xmlns:ffdec="https://www.free-decompiler.com/flash" xmlns:xlink="http://www.w3.org/1999/xlink" ffdec:objectType="shape" height="37.0px" width="52.2px" xmlns="http://www.w3.org/2000/svg">
  <g transform="matrix(1.0, 0.0, 0.0, 1.0, -36.9, 29.0)">
    <path d="M72.8 4.65 Q69.45 4.65 66.45 3.15 62.8 6.15 57.75 6.8 50.55 7.8 44.8 3.45 39.05 -1.0 38.05 -8.2 L37.9 -10.6 Q37.85 -16.35 41.45 -21.05 45.85 -26.85 53.05 -27.85 60.25 -28.8 66.0 -24.4 L66.65 -23.9 Q68.65 -24.9 71.1 -25.25 77.2 -26.05 82.2 -22.3 87.1 -18.55 87.95 -12.4 88.8 -6.2 85.0 -1.3 82.05 2.55 77.65 3.9 L75.1 4.45 72.8 4.65 Z" fill="none" stroke="#000000" stroke-linecap="round" stroke-linejoin="round" stroke-width="2.0"/>
  </g>
</svg>
