<?xml version="1.0" encoding="UTF-8" standalone="no"?>
<svg xmlns:ffdec="https://www.free-decompiler.com/flash" xmlns:xlink="http://www.w3.org/1999/xlink" ffdec:objectType="shape" height="37.0px" width="52.0px" xmlns="http://www.w3.org/2000/svg">
  <g transform="matrix(1.0, 0.0, 0.0, 1.0, 23.45, 20.95)">
    <path d="M10.25 14.75 Q6.9 14.35 4.15 12.45 0.15 15.0 -4.95 15.05 -12.2 15.1 -17.35 10.05 -22.45 4.95 -22.45 -2.3 L-22.3 -4.75 Q-21.55 -10.45 -17.35 -14.7 -12.2 -19.9 -4.95 -19.95 2.3 -20.0 7.4 -14.9 L7.95 -14.35 Q10.1 -15.1 12.55 -15.1 18.75 -15.15 23.15 -10.8 27.55 -6.45 27.55 -0.25 27.55 6.0 23.15 10.4 19.7 13.85 15.15 14.65 L12.55 14.9 10.25 14.75 Z" fill="none" stroke="#000000" stroke-linecap="round" stroke-linejoin="round" stroke-width="2.0"/>
  </g>
</svg>
