<?xml version="1.0" encoding="UTF-8" standalone="no"?>
<svg xmlns:ffdec="https://www.free-decompiler.com/flash" xmlns:xlink="http://www.w3.org/1999/xlink" ffdec:objectType="shape" height="50.85px" width="41.5px" xmlns="http://www.w3.org/2000/svg">
  <g transform="matrix(1.0, 0.0, 0.0, 1.0, 22.25, 28.1)">
    <path d="M17.0 -6.0 Q15.65 -2.85 13.1 -0.7 14.55 3.8 13.2 8.75 11.35 15.75 5.05 19.35 -1.2 23.0 -8.2 21.1 L-10.6 20.3 Q-15.9 18.1 -18.85 12.95 -22.45 6.65 -20.6 -0.35 -18.7 -7.35 -12.45 -10.95 L-11.75 -11.35 Q-11.9 -13.6 -11.25 -15.95 -9.65 -21.95 -4.25 -25.05 1.1 -28.15 7.1 -26.55 13.15 -24.95 16.25 -19.55 18.65 -15.35 18.2 -10.75 L17.75 -8.15 17.0 -6.0 Z" fill="none" stroke="#000000" stroke-linecap="round" stroke-linejoin="round" stroke-width="2.0"/>
  </g>
</svg>
