<?xml version="1.0" encoding="UTF-8" standalone="no"?>
<svg xmlns:ffdec="https://www.free-decompiler.com/flash" xmlns:xlink="http://www.w3.org/1999/xlink" ffdec:objectType="shape" height="370.75px" width="3276.2px" xmlns="http://www.w3.org/2000/svg">
  <g transform="matrix(1.0, 0.0, 0.0, 1.0, 1240.0, 185.35)">
    <path d="M-228.9 185.4 L-1240.0 185.4 -1240.0 -120.0 Q-1150.25 -115.0 -1069.15 -136.1 L-1068.75 -134.6 Q-1059.35 -138.35 -1050.0 -141.5 -925.9 -183.6 -818.75 -124.6 -676.4 -52.95 -448.75 -154.6 -377.5 -190.25 -298.75 -184.6 L-248.75 -184.6 -248.7 -183.9 -248.25 -178.7 -250.3 -178.55 Q-250.2 -176.6 -250.8 -174.65 -253.95 -164.55 -253.1 -153.55 L-252.4 -142.6 Q-251.55 -127.35 -254.5 -112.55 -256.25 -103.7 -255.95 -94.6 L-255.3 -77.6 Q-255.15 -74.1 -254.25 -70.75 -252.7 -65.1 -250.5 -59.7 -244.85 -45.9 -242.1 -31.55 -241.7 -29.6 -241.7 -27.6 -241.7 -22.6 -242.4 -17.7 -242.7 -15.6 -243.4 -13.5 -249.75 4.8 -249.1 24.4 -248.7 36.4 -248.7 48.4 -248.7 52.4 -247.95 56.25 -247.2 59.9 -245.6 63.35 -241.85 71.35 -240.1 80.4 L-239.3 84.25 -237.65 89.35 Q-233.5 99.35 -234.05 110.4 L-234.15 117.35 Q-234.05 122.7 -232.75 127.35 L-230.65 135.35 Q-229.85 138.5 -229.35 148.35 -230.2 167.1 -228.9 185.4" fill="#00ff00" fill-rule="evenodd" stroke="none"/>
    <path d="M-248.7 -183.9 L-247.7 -184.6 -248.25 -178.7 -248.7 -183.9 M-222.65 -184.6 L-48.75 -184.6 -48.7 -183.6 Q-48.6 -175.6 -52.75 -168.65 -53.7 -167.1 -54.15 -165.45 -54.7 -163.6 -54.85 -161.6 -55.8 -150.7 -52.4 -140.7 -50.5 -135.05 -49.9 -129.6 -48.4 -115.7 -47.8 -101.65 -47.7 -98.6 -47.05 -95.55 -45.45 -88.25 -43.1 -81.45 -42.0 -78.4 -43.75 -77.75 -46.75 -76.65 -46.15 -71.55 L-45.45 -63.6 Q-45.1 -57.95 -43.1 -52.45 -41.2 -47.2 -41.2 -41.6 L-40.75 -36.6 Q-38.85 -25.6 -37.95 -14.6 -37.7 -11.6 -38.35 -8.75 -38.7 -7.1 -39.7 -5.6 -40.7 -4.1 -42.5 -3.2 -47.8 -0.65 -47.1 8.45 -46.7 13.4 -46.6 18.4 -46.25 37.3 -47.3 55.4 -47.7 61.9 -47.25 68.35 -47.2 69.4 -46.4 70.1 -43.25 72.9 -44.0 78.5 -44.2 79.9 -43.9 81.4 -43.05 85.85 -42.65 90.45 -42.4 94.35 -42.45 98.35 -42.65 106.45 -42.15 114.4 -41.75 121.85 -41.7 129.35 L-41.7 135.35 -38.75 185.4 -204.05 185.4 -205.6 139.3 -206.2 132.25 -206.25 131.35 Q-205.95 126.05 -208.45 121.5 L-209.05 119.7 Q-210.75 109.1 -210.4 97.6 -210.15 87.75 -211.45 78.1 -213.8 60.5 -213.15 42.6 L-212.45 28.45 Q-211.35 11.25 -215.65 -5.3 -216.45 -8.4 -216.7 -11.55 -217.35 -19.9 -217.35 -28.35 -217.35 -31.0 -216.6 -33.5 -214.2 -41.4 -216.05 -49.75 L-216.8 -53.15 Q-218.2 -60.3 -219.15 -67.5 -220.0 -74.5 -220.0 -81.6 L-220.0 -111.75 Q-220.0 -118.85 -219.6 -125.95 -219.05 -136.4 -221.85 -146.35 L-222.55 -149.0 Q-226.6 -166.1 -222.65 -183.6 L-222.65 -184.6" fill="#cccccc" fill-rule="evenodd" stroke="none"/>
    <path d="M-42.65 90.45 Q165.75 92.9 745.25 117.1 L764.55 117.5 794.0 117.6 Q921.2 158.7 1054.15 185.4 L-38.75 185.4 -41.7 135.35 -41.7 129.35 Q-41.75 121.85 -42.15 114.4 -42.65 106.45 -42.45 98.35 -42.4 94.35 -42.65 90.45" fill="#ffcc33" fill-rule="evenodd" stroke="none"/>
    <path d="M-247.7 -184.6 L-222.65 -184.6 -222.65 -183.6 Q-226.6 -166.1 -222.55 -149.0 L-221.85 -146.35 Q-219.05 -136.4 -219.6 -125.95 -220.0 -118.85 -220.0 -111.75 L-220.0 -81.6 Q-220.0 -74.5 -219.15 -67.5 -218.2 -60.3 -216.8 -53.15 L-216.05 -49.75 Q-214.2 -41.4 -216.6 -33.5 -217.35 -31.0 -217.35 -28.35 -217.35 -19.9 -216.7 -11.55 -216.45 -8.4 -215.65 -5.3 -211.35 11.25 -212.45 28.45 L-213.15 42.6 Q-213.8 60.5 -211.45 78.1 -210.15 87.75 -210.4 97.6 -210.75 109.1 -209.05 119.7 L-208.45 121.5 Q-205.95 126.05 -206.25 131.35 L-206.2 132.25 -205.6 139.3 -204.05 185.4 -228.9 185.4 Q-230.2 167.1 -229.35 148.35 -229.85 138.5 -230.65 135.35 L-232.75 127.35 Q-234.05 122.7 -234.15 117.35 L-234.05 110.4 Q-233.5 99.35 -237.65 89.35 L-239.3 84.25 -240.1 80.4 Q-241.85 71.35 -245.6 63.35 -247.2 59.9 -247.95 56.25 -248.7 52.4 -248.7 48.4 -248.7 36.4 -249.1 24.4 -249.75 4.8 -243.4 -13.5 -242.7 -15.6 -242.4 -17.7 -241.7 -22.6 -241.7 -27.6 -241.7 -29.6 -242.1 -31.55 -244.85 -45.9 -250.5 -59.7 -252.7 -65.1 -254.25 -70.75 -255.15 -74.1 -255.3 -77.6 L-255.95 -94.6 Q-256.25 -103.7 -254.5 -112.55 -251.55 -127.35 -252.4 -142.6 L-253.1 -153.55 Q-253.95 -164.55 -250.8 -174.65 -250.2 -176.6 -250.3 -178.55 L-248.25 -178.7 -247.7 -184.6" fill="#cc9966" fill-rule="evenodd" stroke="none"/>
    <path d="M2036.2 185.4 L1601.4 185.4 1784.2 98.35 Q1838.65 71.95 1900.2 70.4 L2035.2 70.4 2036.2 185.4" fill="#02a901" fill-rule="evenodd" stroke="none"/>
  </g>
</svg>
