<?xml version="1.0" encoding="UTF-8" standalone="no"?>
<svg xmlns:ffdec="https://www.free-decompiler.com/flash" xmlns:xlink="http://www.w3.org/1999/xlink" ffdec:objectType="shape" height="783.65px" width="103.0px" xmlns="http://www.w3.org/2000/svg">
  <g transform="matrix(1.0, 0.0, 0.0, 1.0, 51.5, 720.0)">
    <path d="M9.05 -54.7 Q18.75 -53.45 29.25 -55.45 L29.25 -35.4 Q18.75 -33.4 9.05 -34.65 L9.05 -54.7 M50.0 -37.9 L50.0 -17.95 Q39.75 -17.45 29.25 -15.4 L29.25 -35.4 Q39.75 -37.45 50.0 -37.9 M-29.85 -60.75 Q-19.7 -63.05 -9.8 -61.6 L-9.85 -41.7 Q0.5 -37.65 9.05 -34.65 L9.05 -14.6 Q0.55 -17.6 -9.95 -21.85 L-10.0 -1.95 Q-20.0 -3.55 -30.0 -1.0 L-29.95 -20.9 Q-19.85 -23.35 -9.95 -21.85 L-9.85 -41.7 Q-19.85 -43.25 -29.9 -40.85 L-29.85 -60.75 M-50.0 -37.95 Q-39.95 -38.5 -29.9 -40.85 L-29.95 -20.9 Q-40.05 -18.6 -50.0 -17.95 L-50.0 -37.95 M9.05 5.45 L9.05 -14.6 Q18.65 -13.3 29.25 -15.4 L29.25 4.65 Q18.65 6.75 9.05 5.45" fill="#ffffff" fill-rule="evenodd" stroke="none"/>
    <path d="M29.25 -55.45 Q39.8 -57.45 49.95 -57.9 L50.0 -37.9 Q39.75 -37.45 29.25 -35.4 L29.25 -15.4 Q18.65 -13.3 9.05 -14.6 L9.05 5.45 Q0.55 2.45 -10.0 -1.95 L-9.95 -21.85 Q0.55 -17.6 9.05 -14.6 L9.05 -34.65 Q0.5 -37.65 -9.85 -41.7 L-9.8 -61.6 Q0.45 -57.65 9.05 -54.7 L9.05 -34.65 Q18.75 -33.4 29.25 -35.4 L29.25 -55.45 M50.0 -17.95 L50.0 2.1 Q39.75 2.5 29.25 4.65 L29.25 -15.4 Q39.75 -17.45 50.0 -17.95 M-50.0 -17.95 Q-40.05 -18.6 -29.95 -20.9 L-29.9 -40.85 Q-39.95 -38.5 -50.0 -37.95 L-50.0 -57.95 Q-40.0 -58.55 -29.85 -60.75 L-29.9 -40.85 Q-19.85 -43.25 -9.85 -41.7 L-9.95 -21.85 Q-19.85 -23.35 -29.95 -20.9 L-30.0 -1.0 Q-40.0 1.45 -50.0 2.05 L-50.0 -17.95" fill="#000000" fill-rule="evenodd" stroke="none"/>
    <path d="M9.05 -54.7 Q18.75 -53.45 29.25 -55.45 39.8 -57.45 49.95 -57.9 L50.0 -37.9 50.0 -17.95 50.0 2.1 50.0 62.15 M-29.85 -60.75 Q-19.7 -63.05 -9.8 -61.6 0.45 -57.65 9.05 -54.7 L9.05 -34.65 Q18.75 -33.4 29.25 -35.4 L29.25 -55.45 M-50.0 -17.95 Q-40.05 -18.6 -29.95 -20.9 L-29.9 -40.85 Q-39.95 -38.5 -50.0 -37.95 L-50.0 -17.95 -50.0 2.05 Q-40.0 1.45 -30.0 -1.0 L-29.95 -20.9 Q-19.85 -23.35 -9.95 -21.85 L-9.85 -41.7 Q-19.85 -43.25 -29.9 -40.85 L-29.85 -60.75 Q-40.0 -58.55 -50.0 -57.95 L-50.0 -37.95 M-10.0 -1.95 L-9.95 -21.85 Q0.55 -17.6 9.05 -14.6 L9.05 -34.65 Q0.5 -37.65 -9.85 -41.7 L-9.8 -61.6 M-30.0 -1.0 Q-20.0 -3.55 -10.0 -1.95 0.55 2.45 9.05 5.45 L9.05 -14.6 Q18.65 -13.3 29.25 -15.4 L29.25 -35.4 Q39.75 -37.45 50.0 -37.9 M29.25 -15.4 Q39.75 -17.45 50.0 -17.95 M9.05 5.45 Q18.65 6.75 29.25 4.65 L29.25 -15.4 M29.25 4.65 Q39.75 2.5 50.0 2.1" fill="none" stroke="#000000" stroke-linecap="round" stroke-linejoin="round" stroke-width="3.0"/>
    <path d="M50.0 -37.95 L-50.0 -37.95 -50.0 -720.0 50.0 -720.0 50.0 -37.95" fill="#00ff00" fill-opacity="0.011764706" fill-rule="evenodd" stroke="none"/>
  </g>
</svg>
