<?xml version="1.0" encoding="UTF-8" standalone="no"?>
<svg xmlns:ffdec="https://www.free-decompiler.com/flash" xmlns:xlink="http://www.w3.org/1999/xlink" ffdec:objectType="shape" height="57.0px" width="37.0px" xmlns="http://www.w3.org/2000/svg">
  <g transform="matrix(1.0, 0.0, 0.0, 1.0, 21.0, 28.5)">
    <path d="M-4.95 22.35 L-5.0 27.5 5.0 27.5" fill="none" stroke="#000000" stroke-linecap="round" stroke-linejoin="round" stroke-width="2.0"/>
    <path d="M14.85 -10.2 Q14.4 -6.85 12.5 -4.1 15.0 -0.1 15.0 5.0 15.0 12.25 9.9 17.4 4.75 22.5 -2.5 22.5 L-4.95 22.35 Q-10.65 21.6 -14.85 17.4 -20.0 12.25 -20.0 5.0 -20.0 -2.25 -14.85 -7.35 L-14.3 -7.9 Q-15.0 -10.05 -15.0 -12.5 -15.0 -18.7 -10.6 -23.1 -6.2 -27.5 0.0 -27.5 6.25 -27.5 10.6 -23.1 14.05 -19.65 14.8 -15.1 L15.0 -12.5 14.85 -10.2 Z" fill="none" stroke="#000000" stroke-linecap="round" stroke-linejoin="round" stroke-width="2.0"/>
  </g>
</svg>
