<?xml version="1.0" encoding="UTF-8" standalone="no"?>
<svg xmlns:ffdec="https://www.free-decompiler.com/flash" xmlns:xlink="http://www.w3.org/1999/xlink" ffdec:objectType="shape" height="51.0px" width="37.6px" xmlns="http://www.w3.org/2000/svg">
  <g transform="matrix(1.0, 0.0, 0.0, 1.0, 18.8, 25.5)">
    <path d="M13.25 -9.35 L12.25 -8.75 Q11.85 -6.25 10.4 -4.15 L10.2 -3.7 10.35 -3.2 Q12.45 0.15 12.45 4.45 12.45 10.55 8.15 14.85 3.85 19.15 -2.25 19.15 L-4.3 19.0 Q-9.1 18.35 -12.65 14.85 -16.95 10.55 -16.95 4.45 -16.95 -1.65 -12.65 -5.95 L-12.55 -6.0 -12.2 -6.35 -11.9 -6.8 -11.9 -7.35 Q-12.5 -9.1 -12.5 -11.15 -12.5 -16.35 -8.85 -20.0 -5.2 -23.65 0.0 -23.65 5.2 -23.65 8.8 -20.0 11.4 -17.4 12.2 -14.0 L13.2 -13.5 13.2 -13.45 13.2 -13.5 13.9 -13.15 13.9 -13.1 13.2 -13.45 13.35 -11.15 13.35 -11.1 13.35 -10.8 13.35 -10.25 13.25 -9.35 M8.35 -17.6 L8.0 -18.25 7.6 -18.75 7.55 -18.8 7.35 -19.0 6.5 -19.5 6.0 -19.7 5.95 -19.7 5.8 -19.8 5.5 -19.9 4.55 -20.05 4.45 -20.05 4.35 -20.05 3.75 -19.95 Q2.3 -19.75 1.3 -18.75 0.0 -17.4 0.0 -15.55 0.0 -13.7 1.3 -12.4 2.6 -11.1 4.45 -11.1 5.6 -11.1 6.55 -11.6 L7.6 -12.4 8.4 -13.5 8.7 -14.0 8.7 -14.25 8.9 -15.55 8.85 -16.25 8.35 -17.6" fill="#ffff00" fill-rule="evenodd" stroke="none"/>
    <path d="M13.25 -9.05 L13.2 -9.05 13.25 -9.35 13.35 -10.25 13.35 -10.8 13.35 -11.1 13.35 -11.15 13.2 -13.45 13.9 -13.1 17.8 -11.1 13.25 -9.05 M17.8 -11.1 L13.35 -11.1 17.8 -11.1" fill="#ffcc00" fill-rule="evenodd" stroke="none"/>
    <path d="M6.5 -19.5 Q5.35 -19.3 4.45 -18.45 3.25 -17.2 3.3 -15.55 3.3 -13.9 4.45 -12.7 5.35 -11.85 6.55 -11.6 5.6 -11.1 4.45 -11.1 2.6 -11.1 1.3 -12.4 0.0 -13.7 0.0 -15.55 0.0 -17.4 1.3 -18.75 2.3 -19.75 3.75 -19.95 L4.35 -20.05 4.45 -20.05 4.55 -20.05 5.5 -19.9 5.8 -19.8 5.95 -19.7 6.0 -19.7 6.5 -19.5" fill="#ffffff" fill-rule="evenodd" stroke="none"/>
    <path d="M6.5 -19.5 L7.35 -19.0 7.55 -18.8 7.6 -18.75 8.0 -18.25 8.35 -17.6 7.6 -17.75 Q6.65 -17.75 6.0 -17.15 5.4 -16.5 5.45 -15.55 5.4 -14.65 6.0 -14.0 6.65 -13.35 7.6 -13.4 L8.4 -13.5 7.6 -12.4 6.55 -11.6 Q5.35 -11.85 4.45 -12.7 3.3 -13.9 3.3 -15.55 3.25 -17.2 4.45 -18.45 5.35 -19.3 6.5 -19.5" fill="#00ccff" fill-rule="evenodd" stroke="none"/>
    <path d="M8.4 -13.5 L7.6 -13.4 Q6.65 -13.35 6.0 -14.0 5.4 -14.65 5.45 -15.55 5.4 -16.5 6.0 -17.15 6.65 -17.75 7.6 -17.75 L8.35 -17.6 8.85 -16.25 8.9 -15.55 8.7 -14.25 8.7 -14.0 8.4 -13.5" fill="#000000" fill-rule="evenodd" stroke="none"/>
    <path d="M13.2 -13.5 Q12.5 -17.5 9.45 -20.6 5.55 -24.5 0.0 -24.5 -5.5 -24.5 -9.45 -20.6 -13.35 -16.65 -13.35 -11.15 -13.35 -8.95 -12.75 -7.05 L-13.25 -6.55 Q-17.8 -2.0 -17.8 4.45 -17.8 10.9 -13.25 15.5 -9.5 19.25 -4.4 19.9 L-2.25 20.05 Q4.25 20.05 8.8 15.5 13.35 10.9 13.35 4.45 13.35 -0.1 11.15 -3.65 12.85 -6.1 13.25 -9.05 L13.2 -9.05 M13.2 -13.45 L13.2 -13.5 M13.9 -13.1 L17.8 -11.1 13.25 -9.05 M13.2 -13.45 L13.9 -13.1 M4.45 24.5 L-4.45 24.5 -4.4 19.9" fill="none" stroke="#000000" stroke-linecap="round" stroke-linejoin="round" stroke-width="2.0"/>
    <path d="M13.2 -9.05 L13.25 -9.35 13.35 -10.25 13.35 -10.8 13.35 -11.1 13.35 -11.15 13.2 -13.45 M8.35 -17.6 L8.0 -18.25 7.6 -18.75 7.55 -18.8 7.35 -19.0 6.5 -19.5 6.0 -19.7 5.95 -19.7 M6.55 -11.6 L7.6 -12.4 8.4 -13.5 7.6 -13.4 Q6.65 -13.35 6.0 -14.0 5.4 -14.65 5.45 -15.55 5.4 -16.5 6.0 -17.15 6.65 -17.75 7.6 -17.75 L8.35 -17.6 8.85 -16.25 8.9 -15.55 8.7 -14.25 8.7 -14.0 8.4 -13.5 M5.5 -19.9 L4.55 -20.05 4.45 -20.05 4.35 -20.05 3.75 -19.95 Q2.3 -19.75 1.3 -18.75 0.0 -17.4 0.0 -15.55 0.0 -13.7 1.3 -12.4 2.6 -11.1 4.45 -11.1 5.6 -11.1 6.55 -11.6 M13.35 -11.1 L17.8 -11.1" fill="none" stroke="#000000" stroke-linecap="round" stroke-linejoin="round" stroke-width="1.0"/>
  </g>
</svg>
