<?xml version="1.0" encoding="UTF-8" standalone="no"?>
<svg xmlns:ffdec="https://www.free-decompiler.com/flash" xmlns:xlink="http://www.w3.org/1999/xlink" ffdec:objectType="shape" height="63.0px" width="46.4px" xmlns="http://www.w3.org/2000/svg">
  <g transform="matrix(1.0, 0.0, 0.0, 1.0, 23.2, 31.5)">
    <path d="M8.15 -14.5 Q7.0 -13.9 5.55 -13.9 3.3 -13.9 1.6 -15.5 0.0 -17.1 0.0 -19.45 0.0 -21.7 1.6 -23.35 2.9 -24.65 4.65 -24.85 L5.45 -24.95 5.55 -24.95 5.65 -24.95 6.9 -24.8 7.2 -24.7 7.45 -24.6 7.5 -24.6 8.1 -24.3 Q6.65 -24.1 5.55 -22.95 4.05 -21.5 4.1 -19.45 4.1 -17.3 5.55 -15.9 6.65 -14.75 8.15 -14.5" fill="#ffffff" fill-rule="evenodd" stroke="none"/>
    <path d="M16.5 -11.6 L15.35 -10.85 Q14.75 -7.75 13.0 -5.15 L12.8 -4.5 12.95 -3.9 Q15.55 0.25 15.55 5.55 15.55 13.15 10.25 18.55 4.85 23.85 -2.75 23.85 L-5.3 23.7 Q-11.3 22.95 -15.65 18.55 -21.05 13.15 -21.05 5.55 -21.05 -2.05 -15.65 -7.35 L-15.55 -7.4 -15.1 -7.85 -14.8 -8.4 Q-14.65 -8.75 -14.8 -9.05 -15.5 -11.3 -15.5 -13.85 -15.5 -20.25 -10.95 -24.8 -6.4 -29.35 0.0 -29.35 6.5 -29.35 11.0 -24.8 14.2 -21.6 15.2 -17.4 L16.4 -16.8 16.4 -16.75 16.4 -16.8 17.4 -16.35 17.4 -16.25 16.4 -16.75 16.65 -13.9 16.65 -13.85 16.65 -13.55 16.6 -12.55 16.5 -11.6 16.6 -12.55 16.55 -11.6 16.5 -11.6 M6.9 -24.8 L5.65 -24.95 5.55 -24.95 5.45 -24.95 4.65 -24.85 Q2.9 -24.65 1.6 -23.35 0.0 -21.7 0.0 -19.45 0.0 -17.1 1.6 -15.5 3.3 -13.9 5.55 -13.9 7.0 -13.9 8.15 -14.5 L9.5 -15.5 10.5 -16.8 10.8 -17.5 10.9 -17.75 11.1 -19.45 11.05 -20.25 10.45 -22.0 10.0 -22.75 9.5 -23.35 9.45 -23.4 9.15 -23.7 8.1 -24.3 7.5 -24.6 7.45 -24.6 7.2 -24.7 6.9 -24.8" fill="#ffff00" fill-rule="evenodd" stroke="none"/>
    <path d="M10.45 -22.0 L11.05 -20.25 11.1 -19.45 10.9 -17.75 10.8 -17.5 10.5 -16.8 9.5 -16.7 Q8.35 -16.65 7.5 -17.5 6.7 -18.25 6.75 -19.45 6.7 -20.6 7.5 -21.35 8.25 -22.15 9.5 -22.15 L10.45 -22.0" fill="#000000" fill-rule="evenodd" stroke="none"/>
    <path d="M16.6 -12.55 L16.65 -13.55 16.65 -13.85 16.65 -13.9 16.4 -16.75 17.4 -16.25 22.2 -13.9 16.5 -11.35 16.55 -11.6 16.6 -12.55 M16.65 -13.9 L22.2 -13.9 16.65 -13.9" fill="#ffcc00" fill-rule="evenodd" stroke="none"/>
    <path d="M8.15 -14.5 Q6.65 -14.75 5.55 -15.9 4.1 -17.3 4.1 -19.45 4.05 -21.5 5.55 -22.95 6.65 -24.1 8.1 -24.3 L9.15 -23.7 9.45 -23.4 9.5 -23.35 10.0 -22.75 10.45 -22.0 9.5 -22.15 Q8.25 -22.15 7.5 -21.35 6.7 -20.6 6.75 -19.45 6.7 -18.25 7.5 -17.5 8.35 -16.65 9.5 -16.7 L10.5 -16.8 9.5 -15.5 8.15 -14.5" fill="#00ccff" fill-rule="evenodd" stroke="none"/>
    <path d="M16.65 -13.85 L16.65 -13.9 16.4 -16.75 M16.5 -11.35 L16.55 -11.6 16.6 -12.55 M6.9 -24.8 L5.65 -24.95 5.55 -24.95 5.45 -24.95 4.65 -24.85 Q2.9 -24.65 1.6 -23.35 0.0 -21.7 0.0 -19.45 0.0 -17.1 1.6 -15.5 3.3 -13.9 5.55 -13.9 7.0 -13.9 8.15 -14.5 L9.5 -15.5 10.5 -16.8 10.8 -17.5 10.9 -17.75 11.1 -19.45 11.05 -20.25 10.45 -22.0 9.5 -22.15 Q8.25 -22.15 7.5 -21.35 6.7 -20.6 6.75 -19.45 6.7 -18.25 7.5 -17.5 8.35 -16.65 9.5 -16.7 L10.5 -16.8 M8.1 -24.3 L7.5 -24.6 7.45 -24.6 M10.45 -22.0 L10.0 -22.75 9.5 -23.35 9.45 -23.4 9.15 -23.7 8.1 -24.3 M22.2 -13.9 L16.65 -13.9" fill="none" stroke="#000000" stroke-linecap="round" stroke-linejoin="round" stroke-width="1.0"/>
    <path d="M16.4 -16.8 Q15.55 -21.85 11.75 -25.6 6.95 -30.5 0.0 -30.5 -6.9 -30.5 -11.75 -25.6 -16.65 -20.75 -16.65 -13.85 -16.65 -11.15 -15.85 -8.75 L-16.45 -8.15 Q-22.2 -2.5 -22.2 5.55 -22.2 13.6 -16.45 19.3 -11.8 23.95 -5.5 24.8 L-2.75 24.95 Q5.25 24.95 11.0 19.3 16.65 13.6 16.65 5.55 16.65 -0.1 13.85 -4.55 15.95 -7.6 16.45 -11.3 L16.5 -11.6 16.6 -12.55 16.65 -13.55 M16.4 -16.75 L16.4 -16.8 M17.4 -16.25 L22.2 -13.9 16.5 -11.35 M16.4 -16.75 L17.4 -16.25 M-5.5 24.8 L-5.55 30.5 5.55 30.5" fill="none" stroke="#000000" stroke-linecap="round" stroke-linejoin="round" stroke-width="2.0"/>
  </g>
</svg>
