<?xml version="1.0" encoding="UTF-8" standalone="no"?>
<svg xmlns:ffdec="https://www.free-decompiler.com/flash" xmlns:xlink="http://www.w3.org/1999/xlink" ffdec:objectType="shape" height="216.7px" width="290.0px" xmlns="http://www.w3.org/2000/svg">
  <g transform="matrix(1.0, 0.0, 0.0, 1.0, -170.0, -10.0)">
    <path d="M373.45 105.45 L445.65 64.15 460.0 64.15 460.0 68.7 450.25 68.7 450.25 118.35 445.65 118.35 445.65 68.7 404.4 92.4 378.05 107.55 378.05 104.8 373.45 105.45 373.45 110.2 304.55 149.75 304.2 149.95 300.1 149.95 300.1 152.3 235.3 189.55 233.45 190.6 231.3 190.6 231.3 191.8 171.45 226.2 170.55 226.7 170.0 226.7 170.0 221.75 373.45 105.45" fill="#000000" fill-opacity="0.99215686" fill-rule="evenodd" stroke="none"/>
    <path d="M460.0 64.15 L445.65 64.15 373.45 105.45 170.0 221.75 170.0 10.0 460.0 10.0 460.0 64.15 M404.4 92.4 L445.65 68.7 445.65 118.35 428.45 118.35 428.45 104.8 404.4 104.8 404.4 92.4 M450.25 118.35 L450.25 68.7 460.0 68.7 460.0 118.35 450.25 118.35 M171.7 226.7 L170.55 226.7 171.45 226.2 171.7 226.7 M235.3 189.55 L235.9 190.6 233.45 190.6 235.3 189.55 M304.55 149.75 L304.65 149.95 304.2 149.95 304.55 149.75" fill="#cccccc" fill-rule="evenodd" stroke="none"/>
    <path d="M373.45 105.45 L378.05 104.8 378.05 107.55 378.05 159.0 373.45 159.0 373.45 110.2 373.45 105.45 M304.65 199.6 L301.25 199.6 300.1 199.6 300.1 152.3 300.1 149.95 304.2 149.95 304.65 149.95 304.65 199.6 M235.9 226.7 L231.3 226.7 231.3 191.8 231.3 190.6 233.45 190.6 235.9 190.6 235.9 226.7" fill="#000000" fill-rule="evenodd" stroke="none"/>
    <path d="M378.05 107.55 L404.4 92.4 404.4 104.8 428.45 104.8 428.45 118.35 445.65 118.35 445.6 131.9 421.55 131.9 420.75 133.2 378.05 107.55" fill="#c2c2c2" fill-rule="evenodd" stroke="none"/>
    <path d="M373.45 110.2 L373.45 159.0 373.45 172.5 349.4 172.5 349.4 186.05 325.3 186.05 325.3 199.6 304.65 199.6 304.65 149.95 304.55 149.75 373.45 110.2 M378.05 159.0 L378.05 107.55 420.75 133.2 421.55 133.7 421.55 145.45 397.5 145.45 397.5 159.0 378.05 159.0 M301.25 199.6 L301.25 213.15 277.2 213.15 277.2 226.7 235.9 226.7 235.9 190.6 235.3 189.55 300.1 152.3 300.1 199.6 301.25 199.6 M231.3 226.7 L171.7 226.7 171.45 226.2 231.3 191.8 231.3 226.7" fill="#b8b8b8" fill-rule="evenodd" stroke="none"/>
    <path d="M420.75 133.2 L421.55 131.9 421.55 133.7 420.75 133.2" fill="#ffffff" fill-opacity="0.003921569" fill-rule="evenodd" stroke="none"/>
    <path d="M460.0 226.7 L309.25 226.7 460.0 137.65 460.0 226.7" fill="#666666" fill-rule="evenodd" stroke="none"/>
  </g>
</svg>
