<?xml version="1.0" encoding="UTF-8" standalone="no"?>
<svg xmlns:ffdec="https://www.free-decompiler.com/flash" xmlns:xlink="http://www.w3.org/1999/xlink" ffdec:objectType="shape" height="214.4px" width="290.05px" xmlns="http://www.w3.org/2000/svg">
  <g transform="matrix(1.0, 0.0, 0.0, 1.0, -169.95, 58.7)">
    <path d="M169.95 -7.05 Q176.05 -8.7 182.4 -9.55 L199.45 -10.45 208.2 -10.45 208.2 -1.9 199.45 -1.9 Q190.3 -1.5 182.4 0.2 175.75 1.6 169.95 4.0 L169.95 -7.05" fill="#ffff00" fill-opacity="0.99215686" fill-rule="evenodd" stroke="none"/>
    <path d="M199.45 -1.9 L208.2 -1.9 208.2 83.55 199.45 83.55 199.45 -1.9" fill="#999999" fill-opacity="0.99215686" fill-rule="evenodd" stroke="none"/>
    <path d="M208.2 83.55 L324.75 83.55 324.75 107.75 324.0 107.55 324.0 120.4 324.0 155.7 169.95 155.7 169.95 83.55 199.45 83.55 208.2 83.55" fill="#cccccc" fill-opacity="0.99215686" fill-rule="evenodd" stroke="none"/>
    <path d="M208.2 -1.9 L208.2 -10.45 199.45 -10.45 182.4 -9.55 Q176.05 -8.7 169.95 -7.05 L169.95 -58.7 459.95 -58.7 459.95 92.15 Q441.0 94.65 421.65 101.5 L421.5 101.5 Q374.65 119.3 324.75 107.75 L324.75 83.55 208.2 83.55 208.2 -1.9" fill="url(#gradient0)" fill-rule="evenodd" stroke="none"/>
    <path d="M169.95 4.0 Q175.75 1.6 182.4 0.2 190.3 -1.5 199.45 -1.9 L199.45 83.55 169.95 83.55 169.95 4.0" fill="#ffce6a" fill-rule="evenodd" stroke="none"/>
    <path d="M324.75 107.75 Q374.65 119.3 421.5 101.5 L421.65 101.5 Q441.0 94.65 459.95 92.15 L460.0 92.15 460.0 130.75 459.95 130.75 425.85 127.4 Q376.15 121.2 324.75 120.4 L324.0 120.4 324.0 107.55 324.75 107.75" fill="#cccc00" fill-rule="evenodd" stroke="none"/>
    <path d="M460.0 130.75 L460.0 155.7 324.0 155.7 324.0 120.4 324.75 120.4 Q376.15 121.2 425.85 127.4 L459.95 130.75 460.0 130.75" fill="#80cc00" fill-rule="evenodd" stroke="none"/>
  </g>
  <defs>
    <linearGradient gradientTransform="matrix(-0.001, -0.1774, 0.1821, -9.0E-4, 784.6, 41.15)" gradientUnits="userSpaceOnUse" id="gradient0" spreadMethod="pad" x1="-819.2" x2="819.2">
      <stop offset="0.0" stop-color="#ffffcc"/>
      <stop offset="1.0" stop-color="#ff9900"/>
    </linearGradient>
  </defs>
</svg>
