<?xml version="1.0" encoding="UTF-8" standalone="no"?>
<svg xmlns:ffdec="https://www.free-decompiler.com/flash" xmlns:xlink="http://www.w3.org/1999/xlink" ffdec:objectType="shape" height="220.0px" width="290.0px" xmlns="http://www.w3.org/2000/svg">
  <g transform="matrix(1.0, 0.0, 0.0, 1.0, -170.0, 129.0)">
    <path d="M392.5 1.0 L460.0 1.0 460.0 71.0 270.0 71.0 270.0 1.0 392.5 1.0" fill="#4f97ee" fill-rule="evenodd" stroke="none"/>
    <path d="M190.0 -9.0 L190.0 -19.0 410.0 -19.0 410.0 -9.0 190.0 -9.0" fill="#99ffff" fill-opacity="0.99215686" fill-rule="evenodd" stroke="none"/>
    <path d="M170.0 1.0 L190.0 1.0 270.0 1.0 270.0 71.0 460.0 71.0 460.0 91.0 170.0 91.0 170.0 1.0" fill="#cccccc" fill-opacity="0.99215686" fill-rule="evenodd" stroke="none"/>
    <path d="M410.0 -9.0 L410.0 -19.0 190.0 -19.0 190.0 -9.0 190.0 1.0 170.0 1.0 170.0 -129.0 460.0 -129.0 460.0 1.0 392.5 1.0 410.0 -9.0" fill="url(#gradient0)" fill-rule="evenodd" stroke="none"/>
    <path d="M410.0 -9.0 L392.5 1.0 270.0 1.0 190.0 1.0 190.0 -9.0 410.0 -9.0" fill="#ffd67a" fill-rule="evenodd" stroke="none"/>
    <path d="M220.0 -69.0 Q211.7 -69.0 205.85 -63.15 200.0 -57.3 200.0 -49.0 L200.0 -19.0 240.0 -19.0 240.0 -49.0 Q240.0 -51.1 239.65 -53.0 238.55 -58.75 234.15 -63.15 228.3 -69.0 220.0 -69.0 M241.2 -70.25 Q248.2 -63.25 249.65 -53.95 250.0 -51.55 250.0 -49.0 L250.0 1.0 240.0 1.0 240.0 -9.0 200.0 -9.0 200.0 1.0 190.0 1.0 190.0 -49.0 190.0 -49.9 Q190.35 -61.8 198.75 -70.25 207.55 -79.0 220.0 -79.0 232.45 -79.0 241.2 -70.25" fill="#999999" fill-rule="evenodd" stroke="none"/>
  </g>
  <defs>
    <linearGradient gradientTransform="matrix(-0.0016, -0.2929, 0.293, -0.0016, 2640.0, -69.0)" gradientUnits="userSpaceOnUse" id="gradient0" spreadMethod="pad" x1="-819.2" x2="819.2">
      <stop offset="0.0" stop-color="#ffffcc"/>
      <stop offset="1.0" stop-color="#ff9900"/>
    </linearGradient>
  </defs>
</svg>
