<?xml version="1.0" encoding="UTF-8" standalone="no"?>
<svg xmlns:ffdec="https://www.free-decompiler.com/flash" xmlns:xlink="http://www.w3.org/1999/xlink" ffdec:objectType="shape" height="219.0px" width="290.0px" xmlns="http://www.w3.org/2000/svg">
  <g transform="matrix(1.0, 0.0, 0.0, 1.0, -170.0, 200.15)">
    <path d="M256.55 -98.4 L256.55 -103.15 251.95 -103.8 251.95 -101.05 225.6 -116.2 184.35 -139.9 184.35 -90.25 179.75 -90.25 179.75 -139.9 170.0 -139.9 170.0 -144.45 184.35 -144.45 256.55 -103.15 460.0 13.15 460.0 18.1 459.45 18.1 458.55 17.6 398.7 -16.8 398.7 -18.0 396.55 -18.0 394.7 -19.05 329.9 -56.3 329.9 -58.65 325.8 -58.65 325.45 -58.85 256.55 -98.4" fill="#000000" fill-opacity="0.99215686" fill-rule="evenodd" stroke="none"/>
    <path d="M251.95 -49.6 L256.55 -49.6 256.55 -36.1 280.6 -36.1 280.6 -22.55 304.7 -22.55 304.7 -9.0 325.35 -9.0 328.75 -9.0 328.75 4.55 352.8 4.55 352.8 18.1 320.75 18.1 170.0 -70.95 170.0 -90.25 179.75 -90.25 184.35 -90.25 184.4 -76.7 208.45 -76.7 208.45 -74.9 208.45 -63.15 232.5 -63.15 232.5 -49.6 251.95 -49.6" fill="#999999" fill-opacity="0.99215686" fill-rule="evenodd" stroke="none"/>
    <path d="M325.45 -58.85 L325.8 -58.65 325.35 -58.65 325.45 -58.85 M394.7 -19.05 L396.55 -18.0 394.1 -18.0 394.7 -19.05 M458.55 17.6 L459.45 18.1 458.3 18.1 458.55 17.6 M170.0 -139.9 L179.75 -139.9 179.75 -90.25 170.0 -90.25 170.0 -139.9 M184.35 -90.25 L184.35 -139.9 225.6 -116.2 225.6 -103.8 201.55 -103.8 201.55 -90.25 184.35 -90.25" fill="#cccccc" fill-rule="evenodd" stroke="none"/>
    <path d="M251.95 -101.05 L251.95 -103.8 256.55 -103.15 256.55 -98.4 256.55 -49.6 251.95 -49.6 251.95 -101.05 M325.8 -58.65 L329.9 -58.65 329.9 -56.3 329.9 -9.0 328.75 -9.0 325.35 -9.0 325.35 -58.65 325.8 -58.65 M396.55 -18.0 L398.7 -18.0 398.7 -16.8 398.7 18.1 394.1 18.1 394.1 -18.0 396.55 -18.0" fill="#000000" fill-rule="evenodd" stroke="none"/>
    <path d="M225.6 -116.2 L251.95 -101.05 209.25 -75.4 208.45 -76.7 184.4 -76.7 184.35 -90.25 201.55 -90.25 201.55 -103.8 225.6 -103.8 225.6 -116.2" fill="#c2c2c2" fill-rule="evenodd" stroke="none"/>
    <path d="M209.25 -75.4 L208.45 -74.9 208.45 -76.7 209.25 -75.4" fill="#ffffff" fill-opacity="0.003921569" fill-rule="evenodd" stroke="none"/>
    <path d="M251.95 -101.05 L251.95 -49.6 232.5 -49.6 232.5 -63.15 208.45 -63.15 208.45 -74.9 209.25 -75.4 251.95 -101.05 M256.55 -49.6 L256.55 -98.4 325.45 -58.85 325.35 -58.65 325.35 -9.0 304.7 -9.0 304.7 -22.55 280.6 -22.55 280.6 -36.1 256.55 -36.1 256.55 -49.6 M329.9 -56.3 L394.7 -19.05 394.1 -18.0 394.1 18.1 352.8 18.1 352.8 4.55 328.75 4.55 328.75 -9.0 329.9 -9.0 329.9 -56.3 M398.7 -16.8 L458.55 17.6 458.3 18.1 398.7 18.1 398.7 -16.8" fill="#b8b8b8" fill-rule="evenodd" stroke="none"/>
    <path d="M170.0 -70.95 L320.75 18.1 170.0 18.1 170.0 -70.95" fill="#666666" fill-rule="evenodd" stroke="none"/>
    <path d="M370.55 -82.4 L370.55 -92.45 413.55 -92.45 413.55 -82.4 370.55 -82.4" fill="#99ffff" fill-opacity="0.99215686" fill-rule="evenodd" stroke="none"/>
    <path d="M370.55 -1.8 L370.55 -72.3 397.55 -72.3 459.3 -72.3 459.3 -1.8 370.55 -1.8" fill="#4f97ee" fill-rule="evenodd" stroke="none"/>
    <path d="M261.75 -55.35 L320.6 -55.35 320.6 17.35 261.75 17.35 261.75 -55.35 M370.55 17.35 L370.55 -1.8 459.3 -1.8 459.3 18.35 370.55 18.35 370.55 17.35" fill="#cccccc" fill-opacity="0.99215686" fill-rule="evenodd" stroke="none"/>
    <path d="M320.6 17.35 L320.6 -55.35 261.75 -55.35 261.75 -198.65 370.55 -198.65 370.55 -92.45 370.55 -82.4 370.55 -72.3 370.55 -1.8 370.55 17.35 320.6 17.35" fill="url(#gradient0)" fill-rule="evenodd" stroke="none"/>
    <path d="M370.55 -92.45 L370.55 -198.65 459.3 -198.65 459.3 -72.3 397.55 -72.3 413.55 -82.4 413.55 -92.45 370.55 -92.45" fill="url(#gradient1)" fill-rule="evenodd" stroke="none"/>
    <path d="M370.55 -72.3 L370.55 -82.4 413.55 -82.4 397.55 -72.3 370.55 -72.3" fill="#ffd67b" fill-rule="evenodd" stroke="none"/>
    <path d="M370.55 17.35 L370.55 -1.8 370.55 -72.3 370.55 -82.4 370.55 -92.45 370.55 -198.65 M261.75 -198.65 L261.75 -55.35 261.75 17.35" fill="none" stroke="#000000" stroke-linecap="round" stroke-linejoin="round" stroke-width="3.0"/>
  </g>
  <defs>
    <linearGradient gradientTransform="matrix(-9.0E-4, -0.1787, 0.1664, -9.0E-4, 741.0, -98.05)" gradientUnits="userSpaceOnUse" id="gradient0" spreadMethod="pad" x1="-819.2" x2="819.2">
      <stop offset="0.0" stop-color="#ffffcc"/>
      <stop offset="1.0" stop-color="#ff9900"/>
    </linearGradient>
    <linearGradient gradientTransform="matrix(-0.0014, -0.2951, 0.2678, -0.0016, 2452.35, -142.85)" gradientUnits="userSpaceOnUse" id="gradient1" spreadMethod="pad" x1="-819.2" x2="819.2">
      <stop offset="0.0" stop-color="#ffffcc"/>
      <stop offset="1.0" stop-color="#ff9900"/>
    </linearGradient>
  </defs>
</svg>
