<?xml version="1.0" encoding="UTF-8" standalone="no"?>
<svg xmlns:ffdec="https://www.free-decompiler.com/flash" xmlns:xlink="http://www.w3.org/1999/xlink" ffdec:objectType="shape" height="480.0px" width="1910.0px" xmlns="http://www.w3.org/2000/svg">
  <g transform="matrix(1.0, 0.0, 0.0, 1.0, 200.0, 0.0)">
    <path d="M790.0 10.0 L770.0 10.0 770.0 120.0 790.0 120.0 790.0 260.0 610.0 250.0 600.0 250.0 210.0 480.0 -180.0 480.0 -180.0 390.0 -200.0 390.0 -200.0 370.0 -180.0 370.0 -180.0 230.0 -180.0 0.0 790.0 0.0 790.0 10.0" fill="#cccccc" fill-rule="evenodd" stroke="none"/>
    <path d="M1710.0 450.0 L1130.05 450.0 1130.05 400.0 1130.0 400.0 1130.0 380.0 1110.0 380.0 1110.0 290.0 1130.05 290.0 1130.05 270.0 1710.0 270.0 1710.0 450.0" fill="#999999" fill-rule="evenodd" stroke="none"/>
    <path d="M210.0 480.0 L600.0 250.0 610.0 250.0 790.0 260.0 790.0 480.0 210.0 480.0" fill="#666666" fill-rule="evenodd" stroke="none"/>
    <path d="M-180.0 230.0 L-180.0 370.0 -200.0 370.0 -200.0 230.0 -180.0 230.0" fill="#b8b8b8" fill-rule="evenodd" stroke="none"/>
    <path d="M790.0 120.0 L770.0 120.0 770.0 10.0 790.0 10.0 790.0 120.0" fill="#c8c8c8" fill-rule="evenodd" stroke="none"/>
  </g>
</svg>
