<?xml version="1.0" encoding="UTF-8" standalone="no"?>
<svg xmlns:ffdec="https://www.free-decompiler.com/flash" xmlns:xlink="http://www.w3.org/1999/xlink" ffdec:objectType="shape" height="480.0px" width="746.95px" xmlns="http://www.w3.org/2000/svg">
  <g transform="matrix(1.0, 0.0, 0.0, 1.0, 373.45, 240.0)">
    <path d="M269.5 -170.0 L149.5 -240.0 167.65 -240.0 373.5 -120.45 373.5 -109.35 278.45 -164.8 278.45 -170.0 269.5 -170.0" fill="#000000" fill-opacity="0.99215686" fill-rule="evenodd" stroke="none"/>
    <path d="M108.45 -150.0 L108.45 -240.0 118.45 -240.0 118.45 -150.0 108.45 -150.0 M268.45 -60.0 L268.45 -170.0 269.5 -170.0 278.45 -170.0 278.45 -164.8 278.45 -60.0 275.9 -60.0 268.45 -60.0" fill="#000000" fill-rule="evenodd" stroke="none"/>
    <path d="M108.45 -150.0 L118.45 -150.0 118.5 -150.0 118.5 -120.0 170.95 -120.0 170.95 -90.0 223.45 -90.0 223.45 -60.0 268.45 -60.0 275.9 -60.0 275.9 -30.0 328.35 -30.0 328.35 0.0 258.45 0.0 257.05 -0.85 -143.45 -240.0 -39.05 -240.0 -38.9 -210.0 13.55 -210.0 13.55 -180.0 66.05 -180.0 66.05 -150.0 108.45 -150.0" fill="#999999" fill-opacity="0.99215686" fill-rule="evenodd" stroke="none"/>
    <path d="M313.9 34.4 L356.55 60.0 -3.45 240.0 -373.45 240.0 -373.45 -240.0 -143.45 -240.0 257.05 -0.85 256.55 0.0 257.95 0.85 313.9 34.4" fill="#666666" fill-rule="evenodd" stroke="none"/>
    <path d="M328.35 0.0 L366.55 0.0 366.55 30.0 316.55 30.0 313.9 34.4 257.95 0.85 258.45 0.0 328.35 0.0" fill="#989898" fill-rule="evenodd" stroke="none"/>
  </g>
</svg>
