<?xml version="1.0" encoding="UTF-8" standalone="no"?>
<svg xmlns:ffdec="https://www.free-decompiler.com/flash" xmlns:xlink="http://www.w3.org/1999/xlink" ffdec:objectType="shape" height="80.0px" width="60.0px" xmlns="http://www.w3.org/2000/svg">
  <g transform="matrix(1.0, 0.0, 0.0, 1.0, 2130.0, -230.0)">
    <path d="M-2120.0 290.0 L-2080.0 290.0 -2080.0 260.0 Q-2080.0 257.9 -2080.35 256.0 -2081.45 250.25 -2085.85 245.85 -2091.7 240.0 -2100.0 240.0 -2108.3 240.0 -2114.15 245.85 -2120.0 251.7 -2120.0 260.0 L-2120.0 290.0 M-2130.0 259.1 Q-2129.65 247.2 -2121.25 238.75 -2112.45 230.0 -2100.0 230.0 -2087.55 230.0 -2078.8 238.75 -2071.8 245.75 -2070.35 255.05 -2070.0 257.45 -2070.0 260.0 L-2070.0 310.0 -2080.0 310.0 -2080.0 300.0 -2120.0 300.0 -2120.0 310.0 -2130.0 310.0 -2130.0 260.0 -2130.0 259.1" fill="#999999" fill-rule="evenodd" stroke="none"/>
  </g>
</svg>
