<?xml version="1.0" encoding="UTF-8" standalone="no"?>
<svg xmlns:ffdec="https://www.free-decompiler.com/flash" xmlns:xlink="http://www.w3.org/1999/xlink" ffdec:objectType="shape" height="961.5px" width="7620.0px" xmlns="http://www.w3.org/2000/svg">
  <g transform="matrix(1.0, 0.0, 0.0, 1.0, 3810.0, 480.0)">
    <path d="M407.5 -240.0 L417.5 -240.0 607.5 -240.0 617.5 -240.0 617.5 -210.0 460.0 -210.0 110.0 0.0 40.1 0.0 40.1 -30.0 92.55 -30.0 92.55 -60.0 102.5 -60.0 145.0 -60.0 145.0 -90.0 197.5 -90.0 197.5 -120.0 249.95 -120.0 249.95 -150.0 250.0 -150.0 260.0 -150.0 302.4 -150.0 302.4 -180.0 354.9 -180.0 354.9 -205.95 354.9 -210.0 407.35 -210.0 407.5 -240.0 M-774.1 -311.1 Q-767.25 -311.35 -760.0 -311.15 L-760.0 -170.0 -774.1 -170.0 -774.1 -311.1" fill="#999999" fill-opacity="0.99215686" fill-rule="evenodd" stroke="none"/>
    <path d="M967.75 -290.0 L1017.5 -290.0 1017.5 -250.0 1427.5 -250.0 1517.5 -290.0 1557.5 -290.0 1557.5 -210.0 977.5 -210.0 968.35 -280.0 969.0 -280.0 967.75 -290.0 M960.25 -280.0 L957.75 -280.0 957.75 -290.0 960.25 -280.0 M2237.5 0.0 L977.5 0.0 977.5 -30.0 2237.5 -30.0 2237.5 0.0 M958.0 -100.0 L978.0 -100.0 978.0 -80.0 958.0 -80.0 958.0 -100.0 M-1077.2 -170.0 L-1042.35 -170.0 -774.1 -170.0 -760.0 -170.0 -572.5 -170.0 -572.5 0.0 -2420.0 0.0 -2480.0 -170.0 -2282.5 -170.0 -2282.5 -180.0 -2272.5 -180.0 -2272.5 -170.0 -2202.5 -170.0 -2202.5 -100.0 -2060.0 -100.0 -1192.5 -100.0 -1077.2 -170.0" fill="#cccccc" fill-opacity="0.99215686" fill-rule="evenodd" stroke="none"/>
    <path d="M260.0 -263.95 L260.0 -270.0 250.0 -268.55 407.5 -360.0 617.5 -360.0 617.5 -240.0 607.5 -240.0 607.5 -350.0 417.5 -350.0 417.5 -240.0 407.5 -240.0 407.5 -350.0 317.55 -297.5 260.0 -263.95 M250.0 -268.55 L250.0 -258.1 102.5 -172.05 101.8 -171.65 99.75 -170.45 98.95 -170.0 90.0 -170.0 90.0 -164.8 -50.9 -82.6 -51.35 -82.3 -52.35 -81.7 -55.35 -80.0 -60.0 -80.0 -60.0 -77.3 -190.6 -1.1 -192.5 0.0 -212.5 0.0 250.0 -268.55" fill="#000000" fill-opacity="0.99215686" fill-rule="evenodd" stroke="none"/>
    <path d="M-2932.5 -350.0 L-2932.5 -360.0 -2792.5 -360.0 -2792.3 0.0 -2802.5 0.0 -2802.5 -170.0 -2932.5 -170.0 -2932.5 -180.0 -2802.5 -180.0 -2802.5 -350.0 -2932.5 -350.0" fill="#ffffff" fill-opacity="0.99215686" fill-rule="evenodd" stroke="none"/>
    <path d="M-2932.5 -350.0 L-2802.5 -350.0 -2802.5 -180.0 -2932.5 -180.0 -2932.5 -350.0" fill="#0066cc" fill-opacity="0.20392157" fill-rule="evenodd" stroke="none"/>
    <path d="M-1042.35 -170.0 L-1077.2 -170.0 -844.7 -311.15 Q-812.1 -326.25 -774.1 -325.25 L-740.0 -325.25 -760.0 -311.15 Q-767.25 -311.35 -774.1 -311.1 -807.2 -309.8 -830.6 -297.05 L-1042.35 -170.0" fill="#ffff00" fill-opacity="0.99215686" fill-rule="evenodd" stroke="none"/>
    <path d="M968.35 -280.0 L960.25 -280.0 957.75 -290.0 967.75 -290.0 969.0 -280.0 968.35 -280.0 M317.55 -297.5 L407.5 -350.0 407.5 -240.0 370.0 -240.0 370.0 -270.0 317.55 -270.0 317.55 -297.5 M417.5 -240.0 L417.5 -350.0 607.5 -350.0 607.5 -240.0 417.5 -240.0 M-2480.0 -170.0 L-2420.0 0.0 -2482.6 -144.25 -2482.6 -170.0 -2480.0 -170.0" fill="#cccccc" fill-rule="evenodd" stroke="none"/>
    <path d="M-2272.5 -180.0 L-2282.5 -180.0 -2282.5 -190.0 -2062.5 -190.0 -2062.5 -180.0 -2272.5 -180.0" fill="#99ffff" fill-opacity="0.99215686" fill-rule="evenodd" stroke="none"/>
    <path d="M250.0 -268.55 L260.0 -270.0 260.0 -263.95 260.0 -150.0 250.0 -150.0 250.0 -258.1 250.0 -268.55 M92.55 -60.0 L92.5 -60.0 92.5 -166.25 90.0 -164.8 90.0 -170.0 98.95 -170.0 99.75 -170.45 99.75 -170.4 101.8 -171.65 102.5 -172.05 102.5 -60.0 92.55 -60.0 M-50.0 -83.1 L-50.0 0.0 -60.0 0.0 -60.0 -77.3 -60.0 -80.0 -55.35 -80.0 -52.35 -81.7 -51.35 -82.3 -50.95 -82.5 -50.0 -83.1" fill="#000000" fill-rule="evenodd" stroke="none"/>
    <path d="M-50.95 -82.5 L-51.35 -82.3 -50.95 -82.5 M-2060.0 -100.0 L-2202.5 -100.0 -2202.5 -170.0 -2272.5 -170.0 -2272.5 -180.0 -2062.5 -180.0 -2060.0 -180.0 -2060.0 -100.0" fill="#ffffff" fill-opacity="0.003921569" fill-rule="evenodd" stroke="none"/>
    <path d="M250.0 -258.1 L250.0 -150.0 249.95 -150.0 249.95 -120.0 197.5 -120.0 197.5 -90.0 145.0 -90.0 145.0 -60.0 102.5 -60.0 102.5 -172.05 250.0 -258.1 M260.0 -150.0 L260.0 -263.95 298.2 -240.0 354.9 -205.95 354.9 -180.0 302.4 -180.0 302.4 -150.0 260.0 -150.0 M90.0 -164.8 L92.5 -166.25 92.5 -60.0 92.55 -60.0 92.55 -30.0 40.1 -30.0 40.1 0.0 -50.0 0.0 -50.0 -83.1 -50.9 -82.6 90.0 -164.8 M101.8 -171.65 L99.75 -170.4 99.75 -170.45 101.8 -171.65 M-190.6 -1.1 L-60.0 -77.3 -60.0 0.0 -190.0 0.0 -190.6 -1.1" fill="#b8b8b8" fill-rule="evenodd" stroke="none"/>
    <path d="M260.0 -263.95 L317.55 -297.5 317.55 -270.0 370.0 -270.0 370.0 -240.0 407.5 -240.0 407.35 -210.0 354.9 -210.0 354.9 -205.95 298.2 -240.0 260.0 -263.95" fill="#c2c2c2" fill-rule="evenodd" stroke="none"/>
    <path d="M-1042.35 -170.0 L-830.6 -297.05 Q-807.2 -309.8 -774.1 -311.1 L-774.1 -170.0 -1042.35 -170.0" fill="#edbc5c" fill-rule="evenodd" stroke="none"/>
    <path d="M-2932.5 -170.0 L-2802.5 -170.0 -2802.5 0.0 -2932.5 0.0 -2932.5 -170.0" fill="url(#gradient0)" fill-rule="evenodd" stroke="none"/>
    <path d="M617.5 -240.0 L617.5 -360.0 637.5 -360.0 637.5 0.0 617.5 0.0 617.5 -210.0 617.5 -240.0 M-332.5 -110.0 L-332.5 -90.0 -352.5 -90.0 -352.5 -110.0 -332.5 -110.0" fill="#999999" fill-rule="evenodd" stroke="none"/>
    <path d="M617.5 -480.0 L637.5 -480.0 637.5 -470.0 617.5 -470.0 617.5 -480.0" fill="#959595" fill-rule="evenodd" stroke="none"/>
    <path d="M317.55 -297.5 L407.5 -350.0 M-2278.5 480.0 L-3808.5 270.0 M2398.5 440.0 L3808.5 390.0" fill="none" stroke="#000000" stroke-linecap="round" stroke-linejoin="round" stroke-width="3.0"/>
  </g>
  <defs>
    <linearGradient gradientTransform="matrix(-5.0E-4, 0.1038, -0.1038, -5.0E-4, -2867.5, -85.0)" gradientUnits="userSpaceOnUse" id="gradient0" spreadMethod="pad" x1="-819.2" x2="819.2">
      <stop offset="0.0" stop-color="#cbc190"/>
      <stop offset="1.0" stop-color="#e3e2ce"/>
    </linearGradient>
  </defs>
</svg>
