<?xml version="1.0" encoding="UTF-8" standalone="no"?>
<svg xmlns:ffdec="https://www.free-decompiler.com/flash" xmlns:xlink="http://www.w3.org/1999/xlink" ffdec:objectType="shape" height="481.5px" width="1910.0px" xmlns="http://www.w3.org/2000/svg">
  <g transform="matrix(1.0, 0.0, 0.0, 1.0, 200.0, 0.0)">
    <path d="M790.0 10.0 L770.0 10.0 770.0 120.0 790.0 120.0 790.0 260.0 610.0 250.0 600.0 250.0 210.0 480.0 -180.0 480.0 -180.0 390.0 -200.0 390.0 -200.0 370.0 -180.0 370.0 -180.0 230.0 -180.0 0.0 790.0 0.0 790.0 10.0 M770.0 250.0 L610.0 250.0 770.0 250.0" fill="#cccccc" fill-rule="evenodd" stroke="none"/>
    <path d="M1130.0 380.0 L1110.0 380.0 1110.0 290.0 1130.0 290.0 1130.0 380.0 M790.0 120.0 L770.0 120.0 770.0 10.0 790.0 10.0 790.0 120.0 M-180.0 230.0 L-180.0 370.0 -200.0 370.0 -200.0 230.0 -180.0 230.0" fill="#999999" fill-rule="evenodd" stroke="none"/>
    <path d="M1690.0 450.0 L1130.05 450.0 1130.05 400.0 1130.0 400.0 1130.0 380.0 1130.0 290.0 1130.05 290.0 1130.05 270.0 1690.0 270.0 1690.0 450.0 M210.0 480.0 L600.0 250.0 610.0 250.0 790.0 260.0 790.0 480.0 250.0 480.0 210.0 480.0 M770.0 270.0 L600.0 270.0 250.0 480.0 600.0 270.0 770.0 270.0" fill="#666666" fill-rule="evenodd" stroke="none"/>
    <path d="M1690.0 270.0 L1710.0 270.0 1710.0 450.0 1690.0 450.0 1690.0 270.0" fill="#959595" fill-rule="evenodd" stroke="none"/>
    <path d="M1172.05 189.6 L1170.0 190.0 M-180.0 480.0 L210.0 480.0 600.0 250.0 610.0 250.0 770.0 250.0 M790.0 480.0 L250.0 480.0 210.0 480.0 M250.0 480.0 L600.0 270.0 770.0 270.0 M610.0 250.0 L790.0 260.0" fill="none" stroke="#000000" stroke-linecap="round" stroke-linejoin="round" stroke-width="3.0"/>
  </g>
</svg>
