<?xml version="1.0" encoding="UTF-8" standalone="no"?>
<svg xmlns:ffdec="https://www.free-decompiler.com/flash" xmlns:xlink="http://www.w3.org/1999/xlink" ffdec:objectType="shape" height="58.5px" width="57.05px" xmlns="http://www.w3.org/2000/svg">
  <g transform="matrix(1.0, 0.0, 0.0, 1.0, 28.45, 29.55)">
    <path d="M19.45 -19.45 Q27.5 -11.4 27.5 0.0 27.5 11.4 19.45 19.45 11.4 27.5 0.0 27.5 -11.4 27.5 -19.45 19.45 -27.5 11.4 -27.5 0.0 -27.5 -11.4 -19.45 -19.45 -11.4 -27.5 0.0 -27.5 11.4 -27.5 19.45 -19.45" fill="#000000" fill-rule="evenodd" stroke="none"/>
    <path d="M0.0 -27.5 Q-3.0 -28.65 -5.8 -27.5 L-11.0 -25.2 Q-13.4 -24.1 -15.5 -22.1 L-20.0 -17.75 Q-22.45 -15.35 -23.65 -12.45 L-25.65 -6.25 -26.6 -1.35 -26.95 3.9 Q-27.15 7.6 -25.6 10.75 -24.05 13.95 -22.25 16.25 L-18.45 20.9 Q-16.5 23.25 -14.35 24.15 L-8.4 26.3 Q-4.6 27.5 -2.4 27.2 -0.15 26.9 4.0 27.35 8.15 27.8 10.4 25.75 L14.5 22.35 19.3 18.95 Q22.2 16.85 23.45 14.75 24.75 12.7 25.6 9.15 26.5 5.6 26.8 3.0 L27.1 -3.25 Q27.1 -6.95 25.65 -9.35 L23.0 -14.15 Q21.8 -16.55 19.65 -18.75 17.5 -20.95 15.0 -22.35 L9.85 -25.15 Q7.2 -26.5 6.35 -26.25 5.5 -26.0 0.0 -27.5 Z" fill="none" stroke="#000000" stroke-linecap="round" stroke-linejoin="round" stroke-width="3.0"/>
  </g>
</svg>
