<?xml version="1.0" encoding="UTF-8" standalone="no"?>
<svg xmlns:ffdec="https://www.free-decompiler.com/flash" xmlns:xlink="http://www.w3.org/1999/xlink" ffdec:objectType="shape" height="39.8px" width="218.55px" xmlns="http://www.w3.org/2000/svg">
  <g transform="matrix(1.0, 0.0, 0.0, 1.0, -67.6, -502.2)">
    <path d="M145.4 508.95 L155.8 521.4 132.5 534.85 127.8 519.1 145.4 508.95" fill="#000000" fill-rule="nonzero" stroke="none"/>
    <path d="M127.8 519.1 L132.5 534.85 155.8 521.4 145.4 508.95 127.8 519.1 M132.5 534.85 L129.05 536.85 M155.8 521.4 L160.3 518.85" fill="none" stroke="#000000" stroke-linecap="round" stroke-linejoin="round" stroke-width="2.0"/>
    <path d="M92.25 517.95 L93.4 518.55 72.15 539.75 71.7 538.95 72.05 539.35 92.95 518.5 92.25 517.95" fill="#ff0000" fill-rule="nonzero" stroke="none"/>
    <path d="M92.25 517.95 L92.95 518.5 72.05 539.35 71.7 538.95 Q71.3 538.45 70.95 537.95 70.65 537.45 70.35 536.9 70.05 536.4 69.8 535.85 69.55 535.3 69.35 534.75 69.2 534.15 69.05 533.6 68.9 533.0 68.8 532.4 68.7 531.8 68.65 531.15 68.6 530.55 68.6 529.9 68.6 529.15 68.65 528.4 68.75 527.65 68.85 526.95 69.0 526.25 69.2 525.55 69.4 524.9 69.7 524.25 69.95 523.55 70.3 522.95 70.65 522.3 71.05 521.7 71.45 521.1 71.9 520.55 72.4 519.95 72.95 519.4 73.5 518.85 74.05 518.4 74.65 517.9 75.25 517.5 75.85 517.1 76.5 516.75 77.1 516.45 77.75 516.15 78.45 515.9 79.1 515.7 79.8 515.5 80.5 515.35 81.2 515.2 81.95 515.15 82.7 515.1 83.45 515.1 84.05 515.1 84.65 515.15 85.3 515.2 85.85 515.25 86.45 515.35 87.0 515.5 87.6 515.65 88.15 515.8 88.7 516.0 89.2 516.2 89.75 516.45 90.25 516.7 90.75 517.0 91.25 517.3 91.75 517.6 92.25 517.95" fill="#ffffff" fill-rule="nonzero" stroke="none"/>
    <path d="M71.7 538.95 L72.15 539.75 93.4 518.55 92.25 517.95 92.95 518.5 72.05 539.35 71.7 538.95 Q71.3 538.45 70.95 537.95 70.65 537.45 70.35 536.9 70.05 536.4 69.8 535.85 69.55 535.3 69.35 534.75 69.2 534.15 69.05 533.6 68.9 533.0 68.8 532.4 68.7 531.8 68.65 531.15 68.6 530.55 68.6 529.9 68.6 529.15 68.65 528.4 68.75 527.65 68.85 526.95 69.0 526.25 69.2 525.55 69.4 524.9 69.7 524.25 69.95 523.55 70.3 522.95 70.65 522.3 71.05 521.7 71.45 521.1 71.9 520.55 72.4 519.95 72.95 519.4 73.5 518.85 74.05 518.4 74.65 517.9 75.25 517.5 75.85 517.1 76.5 516.75 77.1 516.45 77.75 516.15 78.45 515.9 79.1 515.7 79.8 515.5 80.5 515.35 81.2 515.2 81.95 515.15 82.7 515.1 83.45 515.1 84.05 515.1 84.65 515.15 85.3 515.2 85.85 515.25 86.45 515.35 87.0 515.5 87.6 515.65 88.15 515.8 88.7 516.0 89.2 516.2 89.75 516.45 90.25 516.7 90.75 517.0 91.25 517.3 91.75 517.6 92.25 517.95 M72.15 539.75 L71.1 540.8 M93.4 518.55 L101.8 510.3" fill="none" stroke="#000000" stroke-linecap="round" stroke-linejoin="round" stroke-width="2.0"/>
    <path d="M192.7 518.2 Q192.6 518.65 192.5 519.05 192.35 519.45 192.15 519.8 191.95 520.15 191.75 520.45 191.5 520.75 191.2 521.05 190.9 521.3 190.55 521.5 190.2 521.7 189.8 521.9 189.4 522.05 188.95 522.2 188.5 522.3 188.0 522.4 188.05 522.0 188.15 521.65 188.25 521.25 188.45 520.95 188.6 520.6 188.85 520.3 189.1 520.0 189.35 519.75 189.65 519.5 190.0 519.25 190.4 519.05 190.8 518.85 191.2 518.65 191.7 518.5 192.15 518.35 192.7 518.2 192.8 517.75 193.0 517.35 193.15 516.95 193.35 516.6 193.55 516.25 193.8 515.95 194.05 515.6 194.35 515.35 194.65 515.1 195.0 514.85 195.35 514.65 195.75 514.45 196.15 514.3 196.55 514.15 197.0 514.05 197.5 513.95 197.35 514.45 197.15 514.9 196.95 515.3 196.7 515.7 196.45 516.1 196.2 516.4 195.95 516.75 195.65 517.0 195.35 517.25 195.0 517.5 194.65 517.7 194.3 517.85 193.95 518.0 193.55 518.1 193.15 518.2 192.7 518.2" fill="#ffffff" fill-rule="nonzero" stroke="none"/>
    <path d="M197.5 534.7 L193.2 538.85 Q193.1 538.6 193.05 538.3 192.95 538.05 192.9 537.75 192.8 537.5 192.75 537.2 192.7 536.95 192.65 536.65 192.6 536.35 192.6 536.05 192.55 535.8 192.55 535.5 192.5 535.2 192.5 534.9 192.5 534.6 192.5 534.3 192.5 533.55 192.55 532.8 192.65 532.05 192.75 531.3 192.9 530.6 193.1 529.9 193.3 529.25 193.6 528.55 193.85 527.9 194.2 527.3 194.55 526.65 194.95 526.05 195.35 525.45 195.85 524.85 196.35 524.3 196.9 523.75 L197.5 523.2 Q197.3 523.9 197.2 524.65 197.05 525.35 196.95 526.1 196.9 526.8 196.85 527.5 196.8 528.25 196.8 528.95 196.8 529.65 196.85 530.4 196.85 531.1 196.95 531.8 197.05 532.55 197.2 533.25 197.3 533.95 197.5 534.7" fill="#ff0000" fill-rule="nonzero" stroke="none"/>
    <path d="M208.25 524.3 L203.95 528.45 197.5 523.2 Q198.15 523.15 198.85 523.1 199.5 523.1 200.2 523.1 200.85 523.1 201.55 523.1 202.2 523.15 202.85 523.2 203.55 523.3 204.2 523.4 204.9 523.5 205.55 523.6 206.25 523.75 206.9 523.9 207.6 524.1 208.25 524.3" fill="#ffff00" fill-rule="nonzero" stroke="none"/>
    <path d="M203.95 528.45 L197.5 534.7 Q197.3 534.0 197.2 533.25 197.05 532.55 196.95 531.85 196.9 531.1 196.85 530.4 196.8 529.65 196.8 528.95 196.8 528.25 196.85 527.5 196.85 526.8 196.95 526.1 197.05 525.35 197.2 524.65 197.3 523.9 197.5 523.2 L203.95 528.45" fill="#ff9900" fill-rule="nonzero" stroke="none"/>
    <path d="M197.5 523.2 Q198.0 522.7 198.55 522.3 199.1 521.9 199.7 521.5 200.25 521.15 200.85 520.85 201.45 520.55 202.1 520.3 202.7 520.1 203.35 519.9 204.0 519.7 204.65 519.6 205.35 519.5 206.05 519.4 206.75 519.35 207.45 519.35 207.8 519.35 208.1 519.35 208.45 519.4 208.8 519.4 209.1 519.45 209.45 519.5 209.75 519.5 210.05 519.55 210.4 519.65 210.7 519.7 211.0 519.75 211.3 519.85 211.6 519.9 211.9 520.0 212.2 520.1 212.5 520.2 L208.25 524.3 Q207.6 524.1 206.9 523.95 206.25 523.75 205.55 523.65 204.9 523.5 204.2 523.4 203.55 523.3 202.85 523.2 202.2 523.15 201.5 523.1 200.85 523.1 200.2 523.1 199.5 523.05 198.85 523.1 198.15 523.15 197.5 523.2" fill="#00ff00" fill-rule="nonzero" stroke="none"/>
    <path d="M192.7 518.2 Q192.6 518.65 192.5 519.05 192.35 519.45 192.15 519.8 191.95 520.15 191.75 520.45 191.5 520.75 191.2 521.05 190.9 521.3 190.55 521.5 190.2 521.7 189.8 521.9 189.4 522.05 188.95 522.2 188.5 522.3 188.0 522.4 188.05 522.0 188.15 521.65 188.25 521.25 188.45 520.95 188.6 520.6 188.85 520.3 189.1 520.0 189.35 519.75 189.65 519.5 190.0 519.25 190.4 519.05 190.8 518.85 191.2 518.65 191.7 518.5 192.15 518.35 192.7 518.2 192.8 517.75 193.0 517.35 193.15 516.95 193.35 516.6 193.55 516.25 193.8 515.95 194.05 515.6 194.35 515.35 194.65 515.1 195.0 514.85 195.35 514.65 195.75 514.45 196.15 514.3 196.55 514.15 197.0 514.05 197.5 513.95 197.35 514.45 197.15 514.9 196.95 515.3 196.7 515.7 196.45 516.1 196.2 516.4 195.95 516.75 195.65 517.0 195.35 517.25 195.0 517.5 194.65 517.7 194.3 517.85 193.95 518.0 193.55 518.1 193.15 518.2 192.7 518.2 L197.5 523.2 Q198.0 522.7 198.55 522.3 199.1 521.9 199.7 521.5 200.25 521.15 200.85 520.85 201.45 520.55 202.1 520.3 202.7 520.1 203.35 519.9 204.0 519.7 204.65 519.6 205.35 519.5 206.05 519.4 206.75 519.35 207.45 519.35 207.8 519.35 208.1 519.35 208.45 519.4 208.8 519.4 209.1 519.45 209.45 519.5 209.75 519.5 210.05 519.55 210.4 519.65 210.7 519.7 211.0 519.75 211.3 519.85 211.6 519.9 211.9 520.0 212.2 520.1 212.5 520.2 L208.25 524.3 203.95 528.45 197.5 534.7 193.2 538.85 Q193.1 538.6 193.05 538.3 192.95 538.05 192.9 537.75 192.8 537.5 192.75 537.2 192.7 536.95 192.65 536.65 192.6 536.35 192.6 536.05 192.55 535.8 192.55 535.5 192.5 535.2 192.5 534.9 192.5 534.6 192.5 534.3 192.5 533.55 192.55 532.8 192.65 532.05 192.75 531.3 192.9 530.6 193.1 529.9 193.3 529.25 193.6 528.55 193.85 527.9 194.2 527.3 194.55 526.65 194.95 526.05 195.35 525.45 195.85 524.85 196.35 524.3 196.9 523.75 L197.5 523.2 Q198.15 523.15 198.85 523.1 199.5 523.1 200.2 523.1 200.85 523.1 201.55 523.1 202.2 523.15 202.85 523.2 203.55 523.3 204.2 523.4 204.9 523.5 205.55 523.6 206.25 523.75 206.9 523.9 207.6 524.1 208.25 524.3 M197.5 523.2 L203.95 528.45 M197.5 534.7 Q197.3 534.0 197.2 533.25 197.05 532.55 196.95 531.85 196.9 531.1 196.85 530.4 196.8 529.65 196.8 528.95 196.8 528.25 196.85 527.5 196.85 526.8 196.95 526.1 197.05 525.35 197.2 524.65 197.3 523.9 197.5 523.2" fill="none" stroke="#000000" stroke-linecap="round" stroke-linejoin="round" stroke-width="2.0"/>
    <path d="M284.7 505.7 L280.45 522.5 Q280.15 522.25 279.8 522.05 279.5 521.85 279.15 521.65 278.8 521.45 278.45 521.25 278.15 521.1 277.8 520.95 277.45 520.8 277.05 520.65 276.7 520.55 276.35 520.4 275.95 520.3 275.6 520.2 275.2 520.15 274.8 520.05 L284.7 505.7 M274.75 520.05 L271.8 519.75 269.6 519.9 Q269.35 519.95 269.1 520.0 268.85 520.05 268.6 520.1 268.35 520.15 268.1 520.2 267.85 520.25 267.6 520.35 267.35 520.4 267.1 520.5 266.85 520.55 266.65 520.65 266.4 520.7 266.15 520.8 265.9 520.9 265.7 521.0 265.4 521.15 265.1 521.3 264.8 521.45 264.5 521.6 264.2 521.8 263.9 521.95 263.65 522.15 263.35 522.35 263.05 522.55 262.8 522.75 262.5 522.95 262.25 523.2 262.0 523.4 261.7 523.65 261.45 523.9 261.2 524.15 L259.45 526.2 255.6 511.4 262.2 523.2 259.5 506.7 265.7 521.0 267.5 503.2 269.6 519.9 274.75 503.95 274.75 520.05 M259.45 526.25 Q259.3 526.45 259.15 526.7 259.0 526.9 258.85 527.15 258.7 527.4 258.55 527.6 258.45 527.85 258.3 528.1 258.2 528.3 258.1 528.55 258.0 528.8 257.85 529.05 257.75 529.3 257.7 529.55 257.6 529.8 257.5 530.05 257.4 530.35 257.35 530.6 257.25 530.9 257.2 531.15 257.15 531.45 257.1 531.75 257.05 532.0 257.0 532.3 256.95 532.6 256.9 532.9 256.9 533.2 256.85 533.5 256.85 533.8 256.8 534.1 256.8 534.4 256.8 534.7 256.8 535.0 256.8 535.3 256.85 535.6 256.85 535.9 256.85 536.2 256.9 536.5 256.95 536.75 257.0 537.05 257.05 537.35 257.1 537.6 257.15 537.9 257.2 538.2 257.25 538.45 257.35 538.7 257.4 539.0 257.5 539.25 L247.55 533.8 256.8 533.8 247.8 523.35 257.5 530.05 250.0 515.9 259.45 526.25" fill="#ff00ff" fill-rule="nonzero" stroke="none"/>
    <path d="M284.7 505.7 L274.8 520.05 Q275.2 520.1 275.55 520.2 275.95 520.3 276.35 520.4 276.7 520.5 277.05 520.65 277.4 520.8 277.8 520.95 278.15 521.1 278.45 521.25 278.8 521.45 279.15 521.65 279.5 521.85 279.8 522.05 280.15 522.25 280.45 522.5 L284.7 505.7 M274.75 520.05 L271.8 519.75 269.6 519.9 Q269.35 519.95 269.1 520.0 268.85 520.05 268.6 520.1 268.35 520.15 268.1 520.2 267.85 520.25 267.6 520.35 267.35 520.4 267.1 520.5 266.85 520.55 266.65 520.65 266.4 520.7 266.15 520.8 265.9 520.9 265.7 521.0 265.4 521.15 265.1 521.3 264.8 521.45 264.5 521.6 264.2 521.8 263.9 521.95 263.65 522.15 263.35 522.35 263.05 522.55 262.8 522.75 262.5 522.95 262.25 523.2 262.0 523.4 261.7 523.65 261.45 523.9 261.2 524.15 L259.45 526.2 259.45 526.25 Q259.3 526.45 259.15 526.7 259.0 526.9 258.85 527.15 258.7 527.4 258.55 527.6 258.45 527.85 258.3 528.1 258.2 528.3 258.1 528.55 258.0 528.8 257.85 529.05 257.75 529.3 257.7 529.55 257.6 529.8 257.5 530.05 257.4 530.35 257.35 530.6 257.25 530.9 257.2 531.15 257.15 531.45 257.1 531.75 257.05 532.0 257.0 532.3 256.95 532.6 256.9 532.9 256.9 533.2 256.85 533.5 256.85 533.8 256.8 534.1 256.8 534.4 256.8 534.7 256.8 535.0 256.8 535.3 256.85 535.6 256.85 535.9 256.85 536.2 256.9 536.5 256.95 536.75 257.0 537.05 257.05 537.35 257.1 537.6 257.15 537.9 257.2 538.2 257.25 538.45 257.35 538.7 257.4 539.0 257.5 539.25 L247.55 533.8 256.8 533.8 247.8 523.35 257.5 530.05 250.0 515.9 259.45 526.25 259.45 526.2 255.6 511.4 254.5 509.4 M274.8 520.05 L274.75 520.05 274.75 503.95 269.6 519.9 267.5 503.2 265.7 521.0 259.5 506.7 262.2 523.2 255.6 511.4" fill="none" stroke="#000000" stroke-linecap="round" stroke-linejoin="round" stroke-width="2.0"/>
    <path d="M77.6 530.4 L71.95 524.8 77.6 519.15 83.2 524.8 77.6 530.4 77.6 530.4 M77.6 520.4 L73.15 524.8 77.6 529.2 82.0 524.8 77.6 520.4 77.6 520.4 M77.6 524.15 L76.35 522.9 76.95 522.3 78.2 523.55 77.6 524.15 77.6 524.15 M79.45 524.8 L78.85 524.15 79.45 523.55 80.1 524.15 79.45 524.8 79.45 524.8 80.1 525.4 78.2 527.3 78.2 527.3 77.6 526.65 79.45 524.8 M76.3 525.4 L75.1 524.15 75.7 523.55 76.95 524.8 76.3 525.4 76.3 525.4 M76.95 527.3 L76.35 526.65 76.95 526.05 77.55 526.65 76.95 527.3 76.95 527.3" fill="#000000" fill-rule="nonzero" stroke="none"/>
  </g>
</svg>
