<?xml version="1.0" encoding="UTF-8" standalone="no"?>
<svg xmlns:ffdec="https://www.free-decompiler.com/flash" xmlns:xlink="http://www.w3.org/1999/xlink" ffdec:objectType="shape" height="219.7px" width="293.0px" xmlns="http://www.w3.org/2000/svg">
  <g transform="matrix(1.0, 0.0, 0.0, 1.0, -168.5, 201.2)">
    <path d="M170.0 17.0 L170.0 -199.7 460.0 -199.7 170.0 17.0" fill="url(#gradient0)" fill-rule="evenodd" stroke="none"/>
    <path d="M460.0 -199.7 L460.0 17.0 170.0 17.0 460.0 -199.7" fill="#737373" fill-rule="evenodd" stroke="none"/>
    <path d="M170.0 17.0 L175.3 12.8 179.55 9.2 Q180.8 8.0 183.75 5.95 L189.0 1.9 Q191.25 -0.15 193.75 -1.35 196.3 -2.5 198.8 -4.45 201.35 -6.35 203.3 -8.35 205.25 -10.35 207.95 -12.1 L212.8 -15.5 217.25 -18.95 222.7 -22.4 Q225.9 -24.0 227.75 -26.45 229.65 -28.9 232.75 -29.65 235.9 -30.35 238.3 -33.35 240.75 -36.3 243.05 -37.45 L247.7 -40.2 Q250.1 -41.75 251.75 -43.8 253.45 -45.85 256.3 -47.15 259.15 -48.4 261.9 -50.4 264.65 -52.35 265.9 -55.05 267.2 -57.75 270.5 -59.05 273.8 -60.35 275.8 -62.2 L280.1 -66.0 Q282.35 -67.95 284.65 -68.95 287.0 -69.9 290.05 -72.35 L295.15 -76.6 299.3 -80.15 304.45 -84.3 Q307.6 -86.65 309.8 -87.9 312.05 -89.15 313.85 -91.5 315.65 -93.8 317.75 -94.5 319.9 -95.15 322.3 -97.55 324.75 -99.9 328.4 -102.35 L334.2 -106.55 338.35 -109.6 Q340.35 -110.8 342.1 -113.25 343.85 -115.65 347.2 -116.85 350.55 -118.0 351.95 -119.8 353.4 -121.6 355.75 -123.15 L361.0 -126.45 366.6 -130.4 371.7 -134.25 Q374.05 -135.95 376.35 -137.8 L380.9 -141.45 Q383.1 -143.2 386.3 -144.75 389.5 -146.25 391.35 -148.95 393.25 -151.6 395.25 -152.55 397.25 -153.5 400.35 -156.25 403.5 -159.0 406.15 -159.85 408.8 -160.7 410.85 -162.05 412.9 -163.35 415.05 -165.65 L419.3 -169.85 Q421.4 -171.8 424.05 -172.85 426.7 -173.9 429.15 -176.4 431.65 -178.9 434.0 -180.15 436.4 -181.35 438.75 -183.55 441.15 -185.75 443.85 -187.9 L448.1 -191.4 Q449.7 -192.8 452.45 -194.7 L456.6 -197.35 460.0 -199.7" fill="none" stroke="#737373" stroke-linecap="round" stroke-linejoin="round" stroke-width="3.0"/>
  </g>
  <defs>
    <linearGradient gradientTransform="matrix(0.0, -0.1323, 0.1323, 0.0, 315.0, -91.35)" gradientUnits="userSpaceOnUse" id="gradient0" spreadMethod="pad" x1="-819.2" x2="819.2">
      <stop offset="0.0" stop-color="#9a80d9"/>
      <stop offset="1.0" stop-color="#003366"/>
    </linearGradient>
  </defs>
</svg>
