<?xml version="1.0" encoding="UTF-8" standalone="no"?>
<svg xmlns:ffdec="https://www.free-decompiler.com/flash" xmlns:xlink="http://www.w3.org/1999/xlink" ffdec:objectType="shape" height="214.4px" width="610.7px" xmlns="http://www.w3.org/2000/svg">
  <g transform="matrix(1.0, 0.0, 0.0, 1.0, 150.75, 58.7)">
    <path d="M169.95 -34.1 L169.95 -58.7 459.95 -58.7 459.95 -34.1 169.95 -34.1" fill="#003366" fill-rule="evenodd" stroke="none"/>
    <path d="M169.95 -34.1 L459.95 -34.1 459.95 18.85 Q440.9 24.55 422.55 41.0 L422.55 48.9 213.05 48.9 212.05 21.25 205.0 -2.5 169.95 12.65 169.95 -34.1" fill="url(#gradient0)" fill-rule="evenodd" stroke="none"/>
    <path d="M422.55 48.9 L422.55 155.7 216.85 155.7 216.8 155.25 213.05 48.9 422.55 48.9" fill="url(#gradient1)" fill-rule="evenodd" stroke="none"/>
    <path d="M150.75 26.0 L-149.15 34.0 -150.75 -26.0 149.15 -34.0 150.75 26.0" fill="#000000" fill-opacity="0.4862745" fill-rule="evenodd" stroke="none"/>
    <path d="M422.55 48.9 Q418.95 49.3 416.05 49.0 L410.3 48.65 Q407.4 48.6 404.7 49.4 L398.45 49.05 Q394.9 47.9 392.2 48.65 L386.15 49.15 380.15 48.9 374.5 48.85 367.9 48.65 361.35 48.95 356.2 48.65 351.1 48.5 344.25 49.0 338.15 48.35 Q336.05 47.8 332.7 49.0 329.35 50.2 326.4 49.55 L320.95 48.45 315.25 48.7 308.95 49.15 302.6 48.9 296.4 49.05 290.75 49.2 285.0 48.95 Q281.9 48.7 278.05 48.85 274.25 49.05 271.9 48.2 269.55 47.4 266.4 48.1 L260.45 48.85 254.25 48.95 247.55 48.2 Q244.25 47.4 241.4 48.65 238.6 49.9 236.25 49.45 233.9 49.05 230.6 49.45 227.35 49.9 224.05 49.45 220.8 49.0 219.8 49.4 L213.05 48.9" fill="none" stroke="#ff9900" stroke-linecap="round" stroke-linejoin="round" stroke-width="3.0"/>
  </g>
  <defs>
    <linearGradient gradientTransform="matrix(-8.0E-4, -0.1158, 0.1479, -6.0E-4, 1220.15, 60.8)" gradientUnits="userSpaceOnUse" id="gradient0" spreadMethod="pad" x1="-819.2" x2="819.2">
      <stop offset="0.0" stop-color="#cc99ff"/>
      <stop offset="1.0" stop-color="#003366"/>
    </linearGradient>
    <linearGradient gradientTransform="matrix(0.0, 0.0546, -0.0555, 0.0, 318.45, 110.2)" gradientUnits="userSpaceOnUse" id="gradient1" spreadMethod="pad" x1="-819.2" x2="819.2">
      <stop offset="0.0" stop-color="#ff9900"/>
      <stop offset="1.0" stop-color="#ff0000"/>
    </linearGradient>
  </defs>
</svg>
