<?xml version="1.0" encoding="UTF-8" standalone="no"?>
<svg xmlns:ffdec="https://www.free-decompiler.com/flash" xmlns:xlink="http://www.w3.org/1999/xlink" ffdec:objectType="shape" height="159.7px" width="293.0px" xmlns="http://www.w3.org/2000/svg">
  <g transform="matrix(1.0, 0.0, 0.0, 1.0, -168.45, 2.5)">
    <path d="M212.65 15.4 L459.95 15.4 459.95 48.5 212.65 48.5 212.65 15.4" fill="url(#gradient0)" fill-rule="evenodd" stroke="none"/>
    <path d="M422.55 155.7 Q423.4 153.85 422.8 150.35 422.25 146.85 422.2 143.3 422.15 139.75 423.05 137.5 423.95 135.25 422.65 132.5 421.35 129.75 422.0 126.25 422.7 122.75 422.0 119.85 421.3 117.0 421.45 114.2 421.6 111.4 422.1 107.75 422.6 104.15 422.6 101.55 422.65 99.0 422.05 95.4 421.5 91.8 422.0 89.25 L422.65 84.4 422.65 78.35 422.55 71.45 422.25 65.9 Q421.95 63.6 422.15 60.4 L422.65 55.2 Q422.95 53.15 422.55 48.9 421.95 46.3 422.85 43.35 423.75 40.4 425.75 38.25 427.8 36.15 430.45 35.15 433.15 34.2 435.05 31.35 436.95 28.5 439.8 27.7 442.7 26.95 444.95 25.3 447.2 23.65 450.25 22.45 L454.75 20.65 459.95 18.85" fill="none" stroke="#666666" stroke-linecap="round" stroke-linejoin="round" stroke-width="3.0"/>
    <path d="M169.95 12.65 Q173.15 11.5 175.1 10.25 177.1 9.05 180.05 7.85 183.0 6.65 185.45 4.9 187.9 3.2 191.75 3.15 195.6 3.1 197.75 0.95 199.95 -1.2 202.7 -0.45 205.5 0.35 206.35 2.65 L207.9 7.1 Q208.6 9.3 208.95 12.8 209.3 16.35 209.8 18.65 210.3 20.95 211.65 24.0 213.05 27.05 212.5 30.25 212.0 33.45 212.9 35.9 213.85 38.35 214.0 42.2 214.2 46.1 213.8 49.2 L213.05 54.25 Q212.65 56.2 213.1 59.2 213.6 62.2 213.4 66.05 L213.3 72.6 213.7 78.35 Q214.05 81.45 213.5 84.1 213.0 86.8 213.6 90.1 214.2 93.45 214.15 95.8 L213.95 101.8 Q213.8 105.45 214.3 107.95 L215.15 113.25 215.55 119.65 215.5 127.05 Q215.35 130.8 215.8 133.1 216.3 135.45 216.3 139.1 L216.0 145.15 215.65 148.95 Q215.6 150.35 216.8 155.25" fill="none" stroke="#676767" stroke-linecap="round" stroke-linejoin="round" stroke-width="3.0"/>
    <path d="M422.55 41.0 Q440.9 24.55 459.95 18.85 L459.95 155.7 422.55 155.7 422.55 41.0" fill="url(#gradient1)" fill-rule="evenodd" stroke="none"/>
    <path d="M216.8 155.25 L216.85 155.7 169.95 155.7 169.95 12.65 205.0 -2.5 212.05 21.25 216.8 155.25" fill="url(#gradient2)" fill-rule="evenodd" stroke="none"/>
  </g>
  <defs>
    <linearGradient gradientTransform="matrix(5.0E-4, -0.0197, 0.0255, 4.0E-4, 336.3, 31.95)" gradientUnits="userSpaceOnUse" id="gradient0" spreadMethod="pad" x1="-819.2" x2="819.2">
      <stop offset="0.0" stop-color="#ff9900" stop-opacity="0.5529412"/>
      <stop offset="1.0" stop-color="#ff9900" stop-opacity="0.0"/>
    </linearGradient>
    <linearGradient gradientTransform="matrix(-0.6858, 0.0, 0.0, -0.0869, 984.4, 84.5)" gradientUnits="userSpaceOnUse" id="gradient1" spreadMethod="pad" x1="-819.2" x2="819.2">
      <stop offset="0.0" stop-color="#999999"/>
      <stop offset="1.0" stop-color="#666666"/>
    </linearGradient>
    <linearGradient gradientTransform="matrix(0.3429, 0.0, 0.0, 0.0965, -64.1, 76.6)" gradientUnits="userSpaceOnUse" id="gradient2" spreadMethod="pad" x1="-819.2" x2="819.2">
      <stop offset="0.0" stop-color="#999999"/>
      <stop offset="1.0" stop-color="#666666"/>
    </linearGradient>
  </defs>
</svg>
