<?xml version="1.0" encoding="UTF-8" standalone="no"?>
<svg xmlns:ffdec="https://www.free-decompiler.com/flash" xmlns:xlink="http://www.w3.org/1999/xlink" ffdec:objectType="shape" height="220.1px" width="290.8px" xmlns="http://www.w3.org/2000/svg">
  <g transform="matrix(1.0, 0.0, 0.0, 1.0, -168.2, 129.05)">
    <path d="M168.25 50.1 L168.25 -2.1 402.5 -2.1 335.05 26.6 Q309.25 34.8 284.1 41.8 L168.25 50.1" fill="#4169db" fill-rule="evenodd" stroke="none"/>
    <path d="M168.25 -2.1 L168.2 -129.05 459.0 -129.05 459.0 -25.3 336.5 26.85 Q310.0 35.25 284.1 41.8 309.25 34.8 335.05 26.6 L402.5 -2.1 168.25 -2.1" fill="url(#gradient0)" fill-rule="evenodd" stroke="none"/>
    <path d="M459.0 -25.3 L459.0 91.05 168.25 91.05 168.25 50.1 284.1 41.8 Q310.0 35.25 336.5 26.85 L459.0 -25.3" fill="url(#gradient1)" fill-rule="evenodd" stroke="none"/>
  </g>
  <defs>
    <linearGradient gradientTransform="matrix(-8.0E-4, -0.1343, 0.1555, -7.0E-4, 314.0, -19.0)" gradientUnits="userSpaceOnUse" id="gradient0" spreadMethod="pad" x1="-819.2" x2="819.2">
      <stop offset="0.0" stop-color="#cc99ff"/>
      <stop offset="1.0" stop-color="#003366"/>
    </linearGradient>
    <linearGradient gradientTransform="matrix(-0.7211, 0.0, 0.0, -0.1008, 66.1, 8.5)" gradientUnits="userSpaceOnUse" id="gradient1" spreadMethod="pad" x1="-819.2" x2="819.2">
      <stop offset="0.0" stop-color="#999999"/>
      <stop offset="1.0" stop-color="#666666"/>
    </linearGradient>
  </defs>
</svg>
