<?xml version="1.0" encoding="UTF-8" standalone="no"?>
<svg xmlns:ffdec="https://www.free-decompiler.com/flash" xmlns:xlink="http://www.w3.org/1999/xlink" ffdec:objectType="shape" height="219.7px" width="200.5px" xmlns="http://www.w3.org/2000/svg">
  <g transform="matrix(1.0, 0.0, 0.0, 1.0, -260.0, 201.2)">
    <path d="M351.5 -39.0 L351.5 -74.75 443.5 -74.75 376.05 -46.5 351.5 -39.0" fill="#4169db" fill-rule="evenodd" stroke="none"/>
    <path d="M351.5 -74.75 L351.5 -199.75 460.5 -199.75 460.5 -81.0 377.5 -46.25 Q364.45 -42.15 351.5 -38.5 L351.5 -39.0 376.05 -46.5 443.5 -74.75 351.5 -74.75" fill="url(#gradient0)" fill-rule="evenodd" stroke="none"/>
    <path d="M460.5 -81.0 L460.5 17.0 351.5 17.0 351.5 -38.5 Q364.45 -42.15 377.5 -46.25 L460.5 -81.0" fill="url(#gradient1)" fill-rule="evenodd" stroke="none"/>
    <path d="M261.5 -90.95 L261.5 -174.85 361.5 -174.85 361.5 -90.95 261.5 -90.95" fill="url(#gradient2)" fill-rule="evenodd" stroke="none"/>
    <path d="M261.5 -174.85 L261.5 -199.7 361.5 -199.7 361.5 -174.85 261.5 -174.85" fill="#003366" fill-rule="evenodd" stroke="none"/>
    <path d="M361.5 -90.95 L361.5 17.0 261.5 17.0 261.5 -90.95 361.5 -90.95" fill="url(#gradient3)" fill-rule="evenodd" stroke="none"/>
    <path d="M361.5 -90.95 Q358.5 -92.15 355.45 -91.45 L349.4 -90.75 343.45 -90.9 337.75 -90.75 Q334.95 -90.55 331.7 -90.85 L325.8 -91.05 Q323.1 -90.95 320.3 -91.0 L314.45 -90.35 308.55 -89.7 Q305.7 -89.7 302.4 -90.9 299.1 -92.05 295.75 -91.65 292.4 -91.2 289.6 -91.7 L283.55 -92.3 Q280.25 -92.45 277.35 -91.45 274.5 -90.4 271.45 -90.5 L266.75 -90.75 261.5 -90.95" fill="none" stroke="#ff9900" stroke-linecap="round" stroke-linejoin="round" stroke-width="3.0"/>
    <path d="M361.5 -199.7 L361.5 17.0 M261.5 17.0 L261.5 -199.7" fill="none" stroke="#000000" stroke-linecap="round" stroke-linejoin="round" stroke-width="3.0"/>
  </g>
  <defs>
    <linearGradient gradientTransform="matrix(-8.0E-4, -0.1322, 0.1555, -7.0E-4, 355.0, -91.35)" gradientUnits="userSpaceOnUse" id="gradient0" spreadMethod="pad" x1="-819.2" x2="819.2">
      <stop offset="0.0" stop-color="#cc99ff"/>
      <stop offset="1.0" stop-color="#003366"/>
    </linearGradient>
    <linearGradient gradientTransform="matrix(-0.7211, 0.0, 0.0, -0.0992, 107.1, -64.3)" gradientUnits="userSpaceOnUse" id="gradient1" spreadMethod="pad" x1="-819.2" x2="819.2">
      <stop offset="0.0" stop-color="#999999"/>
      <stop offset="1.0" stop-color="#666666"/>
    </linearGradient>
    <linearGradient gradientTransform="matrix(-8.0E-4, -0.1171, 0.1479, -6.0E-4, 1219.7, -78.95)" gradientUnits="userSpaceOnUse" id="gradient2" spreadMethod="pad" x1="-819.2" x2="819.2">
      <stop offset="0.0" stop-color="#cc99ff"/>
      <stop offset="1.0" stop-color="#003366"/>
    </linearGradient>
    <linearGradient gradientTransform="matrix(0.0, 0.0552, -0.0555, 0.0, 318.0, -29.0)" gradientUnits="userSpaceOnUse" id="gradient3" spreadMethod="pad" x1="-819.2" x2="819.2">
      <stop offset="0.0" stop-color="#ff9900"/>
      <stop offset="1.0" stop-color="#ff0000"/>
    </linearGradient>
  </defs>
</svg>
