<?xml version="1.0" encoding="UTF-8" standalone="no"?>
<svg xmlns:ffdec="https://www.free-decompiler.com/flash" xmlns:xlink="http://www.w3.org/1999/xlink" ffdec:objectType="shape" height="190.0px" width="210.0px" xmlns="http://www.w3.org/2000/svg">
  <g transform="matrix(1.0, 0.0, 0.0, 1.0, 105.0, 95.0)">
    <path d="M93.25 83.25 Q81.55 95.0 65.0 95.0 48.45 95.0 36.7 83.25 25.0 71.55 25.0 55.0 25.0 38.45 36.7 26.7 48.45 15.0 65.0 15.0 70.25 15.0 75.0 16.2 L75.0 -65.0 -25.0 -65.0 -25.0 55.0 Q-25.0 71.55 -36.75 83.25 -48.45 95.0 -65.0 95.0 -81.55 95.0 -93.3 83.25 -105.0 71.55 -105.0 55.0 -105.0 38.45 -93.3 26.7 -81.55 15.0 -65.0 15.0 -59.75 15.0 -55.0 16.2 L-55.0 -95.0 105.0 -95.0 105.0 55.0 Q105.0 71.55 93.25 83.25" fill="#ffffff" fill-opacity="0.5019608" fill-rule="evenodd" stroke="none"/>
  </g>
</svg>
