<?xml version="1.0" encoding="UTF-8" standalone="no"?>
<svg xmlns:ffdec="https://www.free-decompiler.com/flash" xmlns:xlink="http://www.w3.org/1999/xlink" ffdec:objectType="shape" height="275.3px" width="533.0px" xmlns="http://www.w3.org/2000/svg">
  <g transform="matrix(1.0, 0.0, 0.0, 1.0, 266.5, 137.6)">
    <path d="M265.0 -135.0 L265.0 135.0 -255.0 135.0 -265.0 -135.0 265.0 -135.0" fill="url(#gradient0)" fill-rule="evenodd" stroke="none"/>
    <path d="M265.0 -135.0 L258.65 -135.05 251.85 -135.05 246.75 -135.0 241.95 -135.45 Q239.0 -135.85 235.35 -135.45 L228.9 -134.85 223.0 -134.65 216.95 -135.15 Q214.0 -135.65 211.05 -135.1 L205.45 -134.1 199.3 -134.3 193.65 -134.7 Q191.5 -134.5 187.65 -134.8 L180.95 -135.1 174.45 -135.05 168.5 -134.95 163.05 -134.65 Q160.0 -134.35 156.85 -134.75 L150.65 -134.6 145.0 -134.4 Q142.5 -134.7 139.35 -134.3 L133.1 -134.15 126.95 -134.0 121.4 -133.65 Q118.9 -133.75 114.75 -134.6 L107.6 -135.25 Q104.55 -135.0 102.15 -135.2 L96.6 -135.3 91.0 -135.0 85.8 -134.75 79.55 -134.85 72.6 -135.25 67.35 -135.3 61.9 -134.9 55.8 -134.6 48.9 -134.85 41.6 -135.45 Q38.65 -135.75 36.1 -134.85 33.55 -133.95 30.4 -134.25 L24.65 -134.7 19.0 -135.25 13.6 -135.4 7.55 -135.7 Q4.0 -136.2 0.55 -135.55 L-5.3 -134.5 Q-7.65 -134.1 -10.85 -135.0 L-16.4 -135.4 -21.85 -134.95 -28.7 -134.45 Q-32.45 -133.85 -35.25 -134.9 -38.05 -135.9 -40.4 -135.65 L-45.6 -135.15 Q-48.5 -134.9 -52.25 -135.25 -55.95 -135.6 -59.3 -135.35 L-64.8 -135.1 -70.5 -135.5 Q-74.0 -135.9 -77.0 -134.9 -80.0 -133.85 -83.1 -134.85 -86.2 -135.85 -89.25 -135.55 L-95.4 -135.2 -101.3 -135.0 Q-104.0 -134.85 -107.0 -134.95 L-113.15 -135.25 -119.4 -135.0 Q-122.5 -134.5 -124.85 -135.1 L-130.8 -135.4 Q-134.35 -135.1 -137.45 -135.3 L-143.55 -135.35 -149.3 -134.75 -155.1 -135.0 -160.8 -135.35 -166.5 -135.15 -172.55 -135.15 -178.95 -135.0 Q-182.35 -134.9 -185.3 -135.7 -188.2 -136.5 -191.1 -135.6 -194.0 -134.7 -197.0 -134.25 L-202.7 -134.0 Q-205.45 -134.25 -208.55 -135.3 L-215.45 -135.65 -221.45 -135.2 -226.9 -134.75 -232.65 -134.1 -239.15 -134.35 -245.5 -134.15 -250.45 -134.35 -256.6 -134.95 -261.9 -135.05 -265.0 -135.0 M-255.0 135.0 Q-252.75 135.2 -249.45 134.9 L-243.15 134.05 -237.2 134.3 Q-234.2 135.15 -230.85 135.1 L-224.75 135.05 -219.65 135.6 Q-217.25 136.25 -214.1 135.15 -210.95 134.1 -207.5 134.55 L-201.5 135.6 -195.35 135.95 -189.15 135.3 -182.7 134.4 -176.5 134.2 -171.6 134.7 -165.8 135.3 -159.9 136.05 -153.8 135.7 -147.05 134.25 -140.5 133.95 -135.05 134.55 -129.35 134.2 Q-126.0 133.7 -123.25 135.0 -120.45 136.3 -117.3 135.05 L-111.05 134.9 Q-108.0 136.0 -104.85 135.5 L-99.05 134.55 Q-96.4 134.1 -93.15 134.5 L-86.5 134.95 -80.15 135.0 -74.65 135.05 -68.9 134.95 -63.15 134.55 -57.1 134.25 -50.9 134.6 -44.9 135.0 -38.7 135.3 -32.65 135.9 -26.25 135.6 -20.6 134.95 -15.4 134.7 Q-12.6 134.45 -9.75 134.75 L-3.4 135.7 Q0.05 136.35 2.85 135.7 L8.85 135.1 15.35 134.85 21.35 134.6 26.5 134.8 32.45 135.2 39.0 135.45 44.45 135.3 50.45 134.7 Q54.0 134.3 57.3 134.65 L63.85 135.0 69.2 134.9 74.65 134.7 80.45 135.0 86.15 135.5 92.8 135.35 99.05 135.15 104.8 134.7 110.85 134.5 117.65 135.4 Q121.4 135.9 123.15 135.45 L128.45 134.8 135.05 135.0 140.4 135.55 Q142.65 135.7 146.35 135.45 L153.25 134.9 Q156.45 134.6 158.8 134.85 L164.6 134.65 Q168.05 134.2 170.95 135.35 L176.6 135.5 Q179.35 134.55 182.7 134.8 186.05 135.05 189.1 134.7 L194.55 134.35 200.45 134.6 207.1 134.9 213.05 135.0 219.1 135.05 225.5 135.3 231.3 135.0 236.6 134.7 242.65 135.0 249.0 135.0 254.95 135.2 259.5 135.3 265.0 135.0" fill="none" stroke="#ff9900" stroke-linecap="round" stroke-linejoin="round" stroke-width="3.0"/>
  </g>
  <defs>
    <linearGradient gradientTransform="matrix(0.0, 0.0915, -0.1404, 0.0, 1.85, -61.0)" gradientUnits="userSpaceOnUse" id="gradient0" spreadMethod="pad" x1="-819.2" x2="819.2">
      <stop offset="0.0" stop-color="#ff9900"/>
      <stop offset="1.0" stop-color="#ff0000"/>
    </linearGradient>
  </defs>
</svg>
