<?xml version="1.0" encoding="UTF-8" standalone="no"?>
<svg xmlns:ffdec="https://www.free-decompiler.com/flash" xmlns:xlink="http://www.w3.org/1999/xlink" ffdec:objectType="shape" height="401.5px" width="4783.45px" xmlns="http://www.w3.org/2000/svg">
  <g transform="matrix(1.0, 0.0, 0.0, 1.0, 2391.95, 200.0)">
    <path d="M-971.5 200.0 L-2388.5 200.0 -2388.55 200.15 Q-2388.6 200.75 -2389.05 201.15 -2389.55 201.55 -2390.15 201.5 -2390.8 201.45 -2391.2 201.0 L-2391.55 199.9 Q-2391.25 196.0 -2391.6 194.55 -2392.25 192.55 -2391.7 189.85 -2391.25 187.75 -2391.5 185.3 -2391.75 182.5 -2391.25 179.0 -2390.8 175.55 -2390.15 173.6 L-2390.15 173.55 -2390.05 173.2 -2390.05 170.0 -2387.05 170.0 -2386.65 169.8 Q-2384.15 168.55 -2380.65 169.3 -2378.1 169.8 -2375.45 168.8 -2371.9 167.5 -2368.45 168.4 L-2362.65 168.8 -2362.6 168.8 -2356.45 168.2 Q-2353.45 167.9 -2350.5 168.15 L-2345.55 168.5 -2339.55 168.2 Q-2335.35 167.8 -2332.0 168.95 -2329.4 169.75 -2327.75 169.4 L-2327.7 169.4 -2321.75 168.6 Q-2317.9 168.3 -2315.15 168.45 L-2308.95 168.55 -2302.05 168.45 -2302.0 168.45 -2295.7 168.75 Q-2292.85 169.05 -2290.75 168.75 L-2285.55 168.6 Q-2283.1 168.85 -2280.35 168.65 L-2280.3 168.65 Q-2277.4 168.5 -2273.5 168.5 L-2266.5 169.05 Q-2264.0 169.45 -2261.6 169.0 L-2261.55 169.0 -2254.75 168.8 -2254.7 168.8 Q-2251.3 169.2 -2248.8 168.9 L-2242.9 168.45 -2237.0 168.2 Q-2233.85 168.0 -2230.75 168.3 L-2230.7 168.3 -2224.65 169.2 -2219.2 169.35 -2213.65 168.35 -2207.35 168.05 -2207.15 168.05 -2200.55 168.8 Q-2196.95 169.1 -2194.4 168.75 L-2188.65 168.4 -2188.6 168.4 -2182.8 168.4 -2176.8 168.05 -2170.75 167.85 Q-2167.45 167.85 -2164.25 168.9 L-2159.65 169.1 Q-2156.95 168.35 -2153.95 168.45 L-2147.65 168.1 Q-2143.5 167.55 -2140.5 168.15 L-2134.45 168.55 Q-2130.7 168.45 -2127.65 168.65 -2124.75 168.85 -2123.1 168.65 L-2123.05 168.65 Q-2121.25 168.5 -2117.45 168.75 -2113.95 169.0 -2111.05 168.7 L-2104.55 168.9 -2104.5 168.9 Q-2101.6 169.35 -2098.9 169.0 -2096.2 168.7 -2093.4 167.75 L-2093.35 167.75 Q-2090.05 166.65 -2087.0 166.75 L-2081.5 167.1 -2081.45 167.1 Q-2078.95 167.4 -2075.6 167.05 L-2075.55 167.05 -2068.25 167.35 -2068.2 167.35 Q-2065.25 167.85 -2063.05 167.35 L-2063.0 167.35 -2057.0 166.7 -2051.2 166.15 -2051.15 166.15 -2044.3 165.6 -2038.25 165.4 -2032.95 165.05 -2026.95 164.9 -2021.15 164.25 -2014.75 163.75 -2009.5 163.45 -2003.1 163.15 -2003.05 163.15 Q-2000.2 163.4 -1998.05 162.2 L-1998.0 162.2 Q-1995.2 160.6 -1991.4 160.75 -1988.2 160.95 -1984.55 160.75 -1980.8 160.55 -1978.3 160.65 L-1972.9 160.4 Q-1970.2 160.1 -1968.3 158.95 -1965.75 157.25 -1961.4 158.1 -1958.05 158.75 -1954.85 158.15 L-1954.8 158.15 -1948.95 157.0 -1943.45 156.1 -1937.75 155.3 -1931.4 154.35 -1925.45 153.65 -1920.5 152.75 -1914.3 151.5 -1907.9 150.55 -1907.85 150.55 Q-1905.3 150.35 -1902.0 149.2 L-1901.95 149.2 Q-1898.0 147.85 -1895.65 148.05 L-1891.15 147.7 -1891.1 147.7 -1884.95 147.3 -1879.0 146.75 Q-1875.9 146.0 -1872.7 144.4 -1868.95 142.65 -1866.2 142.6 L-1860.95 142.25 -1855.35 141.05 Q-1852.4 140.2 -1848.55 139.9 -1845.15 139.65 -1842.55 138.8 L-1842.5 138.8 -1837.15 137.2 -1831.9 135.65 Q-1828.9 134.65 -1825.7 134.5 -1822.9 134.35 -1820.15 133.5 -1817.05 132.5 -1813.6 132.35 -1810.8 132.25 -1808.9 131.2 L-1808.9 131.15 Q-1806.65 129.8 -1803.1 128.4 L-1803.1 128.35 Q-1799.4 126.85 -1796.4 126.75 L-1791.0 126.05 Q-1788.05 125.35 -1785.15 125.2 -1782.65 125.1 -1779.75 123.75 L-1773.95 120.95 -1773.95 120.9 Q-1771.1 119.55 -1768.6 118.95 L-1768.55 118.95 -1763.25 118.0 -1757.05 116.55 -1751.45 114.75 -1751.4 114.75 Q-1749.05 113.9 -1745.3 113.55 -1741.95 113.25 -1739.1 112.4 L-1733.15 110.05 -1732.9 109.95 Q-1729.45 108.35 -1727.1 107.8 L-1727.05 107.8 -1721.7 106.3 -1721.65 106.3 Q-1718.45 105.3 -1716.1 104.25 -1713.55 103.1 -1710.55 102.6 L-1710.5 102.6 Q-1707.95 102.15 -1705.35 100.6 -1702.2 98.75 -1699.35 98.3 L-1699.3 98.3 Q-1696.9 97.9 -1694.05 96.5 L-1694.05 96.45 Q-1690.85 94.85 -1687.7 93.85 L-1682.05 92.05 Q-1679.75 91.35 -1677.3 89.7 L-1677.25 89.7 Q-1674.45 87.8 -1671.35 86.65 -1668.3 85.45 -1665.35 85.15 L-1665.3 85.15 Q-1662.7 84.9 -1659.65 83.8 -1656.75 82.75 -1654.9 81.0 L-1654.85 80.95 Q-1652.45 78.7 -1648.9 78.25 L-1648.85 78.2 Q-1646.1 77.9 -1643.75 76.8 L-1643.7 76.8 Q-1641.1 75.6 -1637.55 74.25 -1634.2 73.0 -1632.35 71.9 -1630.15 70.65 -1626.85 70.05 L-1621.35 68.65 Q-1618.9 67.8 -1616.9 65.75 -1614.35 63.2 -1610.6 62.4 -1607.45 61.75 -1604.55 60.1 -1601.2 58.2 -1598.9 57.8 -1596.9 57.4 -1593.65 55.9 L-1588.2 53.25 Q-1586.05 52.1 -1583.1 50.9 L-1577.2 48.55 Q-1574.1 47.45 -1571.55 46.85 -1569.35 46.3 -1567.35 44.8 L-1567.35 44.75 Q-1564.95 42.95 -1561.7 41.25 L-1555.3 38.1 Q-1551.95 36.6 -1549.3 36.25 -1546.95 35.9 -1543.85 34.6 -1540.75 33.35 -1539.3 32.3 -1537.65 30.95 -1533.95 29.8 L-1533.9 29.8 -1528.0 27.65 -1523.2 25.3 Q-1520.95 24.05 -1516.85 22.95 L-1516.8 22.95 Q-1513.0 21.95 -1510.25 20.7 L-1510.1 20.6 Q-1507.95 19.65 -1505.85 18.85 L-1502.2 17.25 -1500.1 15.8 Q-1497.7 13.8 -1494.7 13.7 L-1493.85 13.65 -1484.8 9.75 -1484.6 9.6 Q-1481.5 7.5 -1478.25 6.25 L-1478.2 6.25 Q-1475.15 5.1 -1472.8 3.95 -1470.35 2.7 -1467.35 1.65 L-1467.3 1.65 -1461.95 -0.6 Q-1459.25 -1.95 -1455.75 -2.95 L-1455.7 -2.95 -1455.15 -3.1 -1413.8 -21.0 -1412.25 -21.8 -1412.2 -21.85 -1408.6 -23.25 -1390.8 -30.95 -1390.15 -31.45 -1390.1 -31.5 Q-1387.9 -33.45 -1384.25 -34.2 L-1381.6 -34.9 -1354.25 -46.75 -1351.7 -48.05 Q-1349.05 -49.35 -1346.0 -51.1 -1342.95 -52.85 -1341.4 -53.9 L-1341.35 -53.95 Q-1339.65 -55.1 -1336.4 -56.0 L-1330.15 -57.5 -1328.2 -58.0 -1324.75 -59.5 -1324.7 -59.55 Q-1321.95 -61.15 -1319.15 -62.2 -1316.7 -63.1 -1314.5 -64.95 -1311.7 -67.3 -1307.85 -67.5 L-1305.35 -67.9 -1303.0 -68.9 -1302.6 -69.15 -1297.8 -72.0 -1292.85 -74.5 -1292.8 -74.55 -1292.7 -74.55 -1286.6 -77.5 -1286.55 -77.5 -1280.1 -80.35 -1280.05 -80.35 -1274.15 -82.7 -1268.9 -84.25 -1268.85 -84.25 Q-1266.65 -84.7 -1263.8 -86.05 L-1258.25 -88.75 Q-1255.9 -89.9 -1252.85 -90.6 L-1247.1 -93.1 Q-1244.85 -94.95 -1242.0 -96.1 -1239.4 -97.15 -1237.2 -98.3 -1234.8 -99.55 -1231.95 -100.6 L-1225.45 -103.0 Q-1221.95 -104.35 -1219.85 -105.75 L-1219.8 -105.75 Q-1217.4 -107.4 -1213.7 -108.35 -1210.5 -109.2 -1208.05 -110.35 -1205.35 -111.6 -1203.05 -112.15 L-1200.75 -113.15 -1199.15 -114.3 Q-1196.6 -116.45 -1192.65 -117.6 L-1186.55 -119.25 -1180.85 -121.75 Q-1178.4 -123.4 -1175.75 -124.7 L-1170.35 -127.2 Q-1167.8 -128.4 -1165.4 -130.1 -1162.55 -132.05 -1159.35 -132.6 L-1159.3 -132.6 Q-1156.75 -133.0 -1154.9 -134.3 -1152.65 -135.9 -1149.0 -137.0 L-1148.95 -137.05 Q-1145.65 -138.0 -1143.45 -138.9 L-1137.9 -141.35 -1137.85 -141.35 Q-1134.45 -142.95 -1132.35 -143.75 L-1132.3 -143.8 Q-1130.3 -144.55 -1127.15 -146.45 L-1127.15 -146.5 Q-1123.6 -148.6 -1120.8 -149.4 -1118.3 -150.1 -1116.2 -151.3 L-1116.2 -151.35 Q-1113.7 -152.85 -1110.25 -153.4 -1107.45 -153.9 -1104.95 -156.0 -1101.9 -158.45 -1098.6 -159.8 -1095.35 -161.1 -1092.7 -161.6 L-1092.65 -161.6 Q-1090.3 -162.1 -1088.35 -163.1 L-1082.3 -165.85 -1082.3 -165.9 Q-1078.65 -167.35 -1076.85 -168.25 -1075.1 -169.15 -1072.35 -170.15 L-1072.15 -170.25 Q-1069.4 -171.25 -1066.35 -172.6 L-1059.95 -175.25 -1059.9 -175.25 -1054.45 -177.1 Q-1052.55 -177.65 -1049.55 -179.7 L-1049.5 -179.7 Q-1046.2 -181.9 -1043.75 -183.15 L-1043.7 -183.2 Q-1041.1 -184.5 -1038.1 -184.9 L-1038.05 -184.95 Q-1035.6 -185.25 -1033.2 -186.85 -1030.35 -188.75 -1027.0 -189.85 L-1021.4 -191.85 -1021.4 -191.9 -1016.25 -193.95 Q-1013.75 -194.95 -1011.15 -196.5 L-1011.1 -196.5 Q-1008.25 -198.1 -1005.5 -199.1 -1003.05 -200.0 -1000.95 -199.55 L-999.9 -200.0 -999.65 -199.1 -999.6 -199.1 Q-996.7 -198.0 -996.1 -194.15 L-995.0 -188.25 Q-994.5 -185.6 -993.0 -183.55 L-992.95 -183.5 Q-991.05 -180.9 -990.75 -176.65 -990.5 -173.1 -989.8 -170.7 L-989.8 -170.75 -987.85 -165.65 -987.8 -165.65 Q-986.45 -162.7 -986.2 -159.5 L-985.45 -153.8 Q-984.95 -151.1 -983.2 -147.95 L-983.25 -148.0 Q-981.25 -144.5 -980.55 -142.55 -979.8 -140.5 -980.1 -136.5 L-980.3 -130.0 Q-980.3 -126.85 -980.9 -123.6 L-980.9 -123.55 Q-981.4 -120.7 -980.75 -117.8 L-980.8 -117.8 Q-980.0 -114.45 -979.85 -111.65 -979.7 -109.0 -979.8 -105.6 L-979.65 -100.2 Q-979.4 -97.9 -979.3 -95.05 -979.2 -92.35 -978.7 -88.8 -978.15 -84.95 -978.85 -81.4 -979.45 -78.35 -979.0 -75.45 -978.45 -72.05 -978.65 -69.8 -978.85 -67.8 -978.5 -65.25 -978.1 -62.4 -978.05 -58.55 -978.0 -55.6 -978.3 -53.5 -971.65 -49.55 -965.35 -43.65 -961.95 -40.5 -958.0 -37.95 -951.95 -34.0 -945.55 -30.8 -941.95 -29.0 -938.05 -27.7 L-933.85 -26.3 -929.05 -24.7 Q-924.85 -23.3 -924.35 -18.95 -923.55 -12.4 -917.85 -9.2 -908.0 -3.7 -897.1 -0.5 -891.95 1.0 -886.9 2.85 -869.15 9.25 -850.8 13.45 L-837.05 16.55 -819.8 20.35 Q-814.45 21.5 -809.0 21.65 L-777.0 22.95 Q-759.4 23.8 -742.2 20.95 -733.5 19.5 -725.15 16.6 L-709.85 11.35 Q-700.65 8.2 -691.15 6.25 -687.5 5.5 -684.15 3.7 L-677.85 0.25 Q-674.75 -1.5 -671.0 -1.4 -652.0 -1.0 -633.0 -0.75 -613.35 -0.5 -594.0 -1.65 -588.5 -2.0 -583.0 -1.8 -573.2 -1.35 -564.15 -4.45 -559.5 -6.0 -555.0 -8.0 -537.1 -16.05 -519.95 -25.95 L-518.05 -27.1 Q-516.15 -28.35 -512.8 -29.4 L-509.1 -30.45 Q-506.0 -31.15 -504.15 -32.25 -500.5 -34.5 -496.65 -36.1 -489.5 -39.0 -482.1 -41.3 L-470.95 -44.8 Q-463.15 -47.25 -457.3 -51.45 L-455.75 -52.75 -454.3 -54.3 Q-451.85 -57.05 -450.95 -59.9 L-451.0 -62.8 -451.45 -69.45 -451.3 -76.6 Q-451.0 -80.05 -451.1 -82.6 -451.15 -85.4 -450.7 -87.65 L-450.7 -87.7 -450.0 -89.75 -450.0 -90.0 -449.8 -90.15 -447.95 -92.85 Q-445.75 -95.45 -442.75 -97.3 L-442.7 -97.3 Q-440.2 -98.85 -438.6 -101.35 -436.6 -104.45 -434.05 -106.0 L-434.0 -106.05 -429.3 -108.9 Q-427.0 -110.4 -424.65 -112.25 L-419.85 -116.5 Q-417.1 -119.2 -414.2 -120.15 L-414.15 -120.15 Q-411.7 -121.0 -408.85 -122.6 L-408.8 -122.6 -403.7 -125.5 Q-401.65 -126.7 -399.55 -128.55 L-399.5 -128.6 Q-397.15 -130.6 -394.7 -132.05 L-394.7 -132.1 Q-392.25 -133.55 -388.8 -134.75 L-388.75 -134.75 Q-385.6 -135.85 -383.2 -137.1 L-383.15 -137.1 Q-380.55 -138.5 -377.05 -139.55 -373.75 -140.6 -371.6 -141.5 L-371.55 -141.5 -366.45 -143.7 -366.4 -143.7 Q-363.35 -145.05 -360.3 -145.7 -357.55 -146.35 -354.9 -147.4 -352.1 -148.6 -348.95 -149.45 -346.05 -150.15 -343.55 -151.4 -340.55 -152.9 -336.55 -152.55 L-330.25 -152.7 -323.9 -153.7 -318.0 -154.3 -317.95 -154.3 -311.75 -153.7 -305.75 -153.3 -299.6 -153.0 -299.55 -153.0 -294.15 -152.5 -294.1 -152.5 -288.5 -151.55 Q-286.0 -150.85 -283.55 -150.9 L-276.75 -150.5 -276.7 -150.5 -269.9 -149.25 Q-267.5 -148.55 -264.9 -148.4 -262.15 -148.2 -258.45 -148.25 L-251.8 -147.7 -245.9 -146.55 -240.55 -145.6 -240.5 -145.6 Q-238.5 -145.3 -235.1 -145.55 L-235.05 -145.55 Q-231.1 -145.75 -227.85 -144.35 -225.15 -143.25 -221.8 -143.1 -217.9 -142.85 -214.6 -141.15 -211.8 -139.7 -209.25 -139.1 -206.35 -138.5 -204.15 -137.5 L-198.75 -135.4 -198.8 -135.4 Q-195.35 -134.15 -193.1 -132.95 L-193.05 -132.95 Q-191.0 -131.85 -188.4 -131.15 L-182.0 -128.9 Q-178.9 -127.6 -175.85 -127.25 -172.2 -126.8 -169.55 -124.4 -167.7 -122.7 -165.6 -122.65 -162.7 -122.55 -159.8 -121.05 -157.35 -119.85 -154.25 -118.85 L-148.2 -117.45 -148.15 -117.45 Q-144.8 -116.95 -142.0 -115.0 L-141.95 -115.0 Q-139.7 -113.4 -137.15 -112.9 -134.15 -112.35 -131.6 -111.25 -129.3 -110.3 -125.85 -109.4 -122.15 -108.4 -119.7 -107.4 L-114.5 -105.2 Q-111.95 -104.05 -109.3 -103.2 L-103.4 -101.6 -103.35 -101.6 -97.75 -100.2 -97.7 -100.2 Q-95.25 -99.6 -91.65 -97.85 -88.55 -96.35 -86.05 -96.25 L-86.0 -96.25 Q-83.0 -96.1 -79.85 -94.55 -77.05 -93.2 -74.3 -92.3 L-74.25 -92.3 -68.9 -90.5 Q-66.35 -89.65 -62.55 -87.8 -59.3 -86.15 -57.25 -86.2 -54.55 -86.35 -50.95 -84.7 L-51.0 -84.7 -45.3 -82.35 -45.15 -82.3 Q-42.65 -81.35 -40.25 -81.05 -37.4 -80.7 -34.8 -79.3 L-34.85 -79.3 Q-32.6 -78.15 -29.0 -77.2 L-23.05 -75.7 -17.7 -74.2 -11.5 -71.75 Q-8.5 -70.35 -5.4 -69.4 -2.0 -68.4 0.4 -66.6 L0.4 -66.55 Q2.35 -65.05 5.2 -64.25 L5.15 -64.25 Q8.1 -63.4 10.7 -63.4 L16.55 -62.75 Q19.3 -62.15 22.35 -60.95 25.55 -59.7 28.2 -57.55 30.25 -55.9 33.05 -55.9 L33.1 -55.9 Q36.8 -55.85 39.3 -54.6 L39.25 -54.6 Q41.3 -53.6 44.25 -53.15 47.7 -52.7 50.85 -51.15 53.6 -49.8 56.85 -49.3 L56.9 -49.3 Q60.7 -48.75 63.5 -47.2 66.05 -45.85 68.55 -44.85 L73.55 -42.7 Q75.85 -41.7 79.05 -40.85 L85.2 -39.3 91.3 -37.5 91.35 -37.5 96.8 -35.3 Q99.15 -34.3 102.7 -33.35 L108.3 -31.8 108.35 -31.75 113.8 -29.85 113.85 -29.85 Q117.2 -28.6 119.4 -28.4 121.9 -28.15 125.5 -26.8 L131.1 -24.3 131.15 -24.3 Q133.05 -23.2 136.25 -22.25 L142.5 -20.1 148.1 -17.85 153.7 -15.6 153.75 -15.6 Q156.6 -14.4 159.4 -13.5 L159.45 -13.5 Q162.1 -12.65 165.05 -12.75 L165.1 -12.75 Q168.9 -12.8 171.4 -10.8 L171.4 -10.85 Q173.3 -9.35 176.25 -8.6 L182.0 -7.5 182.05 -7.5 Q185.15 -7.15 188.0 -5.0 190.4 -3.2 193.4 -2.1 196.55 -0.9 199.45 -0.25 202.65 0.5 205.15 1.7 207.35 2.75 209.9 3.25 L215.0 3.95 215.05 3.95 Q217.75 4.25 221.7 6.4 225.0 8.25 227.95 8.8 L228.0 8.8 Q231.35 9.4 233.65 10.5 235.75 11.45 238.6 12.25 L238.55 12.25 244.7 14.1 251.3 16.15 Q254.95 17.25 257.3 18.5 259.45 19.6 261.75 20.45 L261.8 20.45 Q263.95 21.25 266.85 21.25 270.5 21.25 273.75 23.4 276.35 25.2 279.05 25.8 L284.75 27.05 Q287.75 27.75 290.15 29.55 292.05 30.9 295.25 31.3 L295.25 31.35 Q299.0 31.85 302.2 32.85 305.35 33.85 308.55 35.0 L313.95 37.05 319.35 39.35 Q322.4 40.65 324.45 41.1 L329.95 42.65 Q333.25 43.75 335.7 45.3 337.75 46.55 340.8 47.0 344.4 47.45 347.65 48.6 L347.7 48.6 Q350.95 49.8 353.6 51.4 L353.55 51.35 Q355.7 52.6 358.4 52.3 362.0 51.9 365.7 53.4 L365.7 53.45 Q369.3 54.95 371.15 56.65 372.65 57.95 375.0 58.6 L380.8 59.45 Q384.5 59.7 387.75 61.35 390.45 62.7 392.95 63.0 396.0 63.35 399.1 65.5 L399.15 65.5 Q401.6 67.25 404.3 67.85 407.3 68.5 410.3 69.65 L410.35 69.65 410.4 69.7 Q413.1 70.7 415.85 71.2 418.95 71.7 422.25 72.9 L427.8 74.85 Q430.35 75.65 433.15 76.85 435.75 78.0 438.45 78.7 L444.65 80.35 Q448.25 81.35 451.15 83.15 453.55 84.65 456.0 85.05 L461.2 86.1 466.7 87.45 Q470.05 88.25 473.4 89.5 L479.05 91.55 484.35 93.1 490.0 94.8 495.6 96.65 Q498.65 97.55 501.55 98.6 L507.15 100.8 507.15 100.85 Q509.6 101.85 512.15 102.1 L512.2 102.1 518.35 103.05 525.4 104.6 531.65 105.95 Q534.6 106.4 536.85 107.6 L542.05 110.1 542.0 110.1 Q544.9 111.35 547.4 111.3 L553.65 111.9 553.7 111.9 Q557.1 112.65 559.5 114.2 561.3 115.35 564.35 115.3 568.25 115.25 571.1 116.3 573.6 117.25 576.7 117.8 L576.75 117.8 582.9 119.05 Q585.85 119.7 589.05 120.8 L594.9 122.4 594.95 122.4 600.25 123.15 600.3 123.15 606.4 123.9 613.35 125.3 619.0 126.7 619.05 126.7 625.0 128.4 625.05 128.4 630.9 130.2 636.0 130.75 642.1 131.4 642.25 131.4 647.6 132.65 653.25 133.45 653.25 133.5 658.8 134.4 665.0 135.1 671.65 135.5 Q674.7 135.6 678.2 137.5 680.8 138.85 682.4 138.7 684.65 138.2 689.15 139.7 693.0 141.0 695.45 141.4 L701.35 142.2 707.0 142.6 707.05 142.6 712.6 143.1 718.2 143.65 724.2 143.75 Q727.95 143.65 731.2 145.05 733.75 146.1 736.3 145.75 739.65 145.2 742.8 146.55 745.3 147.6 748.25 147.35 751.7 147.15 754.8 147.4 758.05 147.7 761.0 149.05 763.45 150.25 766.4 150.45 L771.55 150.05 771.6 150.05 Q774.35 149.15 778.2 149.9 L785.05 150.95 790.8 151.4 796.85 152.15 802.5 152.55 802.55 152.55 Q805.45 152.3 808.6 153.65 811.1 154.65 814.65 154.75 L821.15 155.35 821.2 155.35 Q823.5 155.75 826.85 155.4 L833.1 155.15 837.5 155.0 843.95 155.4 850.0 156.55 850.05 156.55 855.55 156.95 862.15 157.75 868.45 158.6 868.5 158.6 Q871.45 158.85 874.95 158.55 L880.9 157.75 880.95 157.75 886.75 157.6 Q889.25 158.0 892.05 157.55 L898.55 157.95 Q901.1 158.7 903.65 158.7 L910.45 158.75 916.4 159.0 916.45 159.0 922.0 159.75 927.8 160.3 934.3 160.0 934.35 160.0 941.05 160.2 Q942.75 160.6 945.5 160.25 L951.4 159.15 Q954.6 158.3 958.3 159.0 L964.6 159.6 964.65 159.6 970.9 160.0 970.9 160.05 Q973.5 160.4 975.45 160.1 L975.5 160.1 981.35 159.65 987.6 159.1 993.85 158.6 999.5 158.25 Q1002.95 157.6 1006.3 158.35 L1012.65 158.8 Q1016.45 158.65 1018.35 158.8 1020.15 159.0 1024.3 158.85 L1024.35 158.85 Q1028.45 158.75 1030.95 158.05 L1030.95 158.0 Q1034.05 157.15 1036.75 158.0 1038.7 158.55 1040.95 158.05 L1047.45 157.1 Q1051.2 156.85 1054.35 157.05 L1054.4 157.05 1060.25 156.9 1066.7 156.45 1072.95 156.3 1073.0 156.3 1079.1 156.15 1079.15 156.15 1084.15 155.55 1090.45 154.9 1090.5 154.9 1097.0 155.25 Q1100.05 155.4 1102.4 154.3 1105.75 152.7 1108.75 153.8 1110.9 154.45 1113.75 153.85 1117.2 153.05 1119.8 152.95 L1119.9 152.95 1125.75 152.75 1132.15 152.5 1138.65 151.55 1145.0 150.55 1150.4 149.8 1150.45 149.8 Q1154.1 149.1 1157.1 150.15 1159.3 150.85 1161.8 150.15 1164.65 149.4 1167.45 148.25 1170.55 146.9 1174.1 146.9 L1180.5 146.65 1185.8 145.85 1191.2 145.05 1197.6 144.3 1204.0 143.95 1204.05 143.95 1209.35 143.8 1216.1 142.95 1222.1 142.4 1228.35 141.9 1234.7 141.65 Q1237.6 141.55 1239.95 140.55 L1240.0 140.55 Q1242.85 139.3 1245.6 139.1 L1251.6 138.65 1258.15 137.75 1264.15 137.25 Q1266.2 137.45 1269.4 136.45 L1276.15 134.4 Q1279.7 133.45 1282.1 133.9 L1287.35 133.75 1294.1 132.45 Q1297.15 131.7 1298.85 130.75 L1298.85 130.7 Q1300.95 129.35 1305.8 129.75 L1311.7 129.5 1311.75 129.45 1316.7 128.2 1322.8 127.65 Q1325.75 127.75 1329.25 126.7 L1329.3 126.65 1334.95 125.0 Q1336.95 124.35 1340.1 123.95 L1340.15 123.9 1345.55 123.1 1345.6 123.1 1352.2 122.4 Q1355.75 122.25 1358.0 121.35 L1358.15 121.3 Q1360.65 120.3 1363.75 119.55 L1369.85 117.75 1369.9 117.75 Q1373.5 116.5 1376.75 117.1 L1376.8 117.1 Q1379.3 117.55 1382.1 116.35 1385.65 114.8 1387.65 114.6 L1392.8 113.55 Q1396.55 112.6 1399.85 112.85 1402.5 113.05 1404.65 112.25 1407.2 111.25 1410.2 110.5 L1416.2 109.1 1422.3 108.4 Q1424.85 108.35 1427.7 106.95 L1427.75 106.95 Q1431.4 105.25 1434.35 105.5 1436.75 105.65 1440.1 104.65 1444.0 103.45 1446.95 103.05 1449.7 102.65 1452.55 101.7 1455.55 100.65 1459.35 100.05 L1459.4 100.05 1464.7 98.95 1464.75 98.9 1469.5 97.2 Q1472.7 95.8 1476.45 95.55 L1476.5 95.55 1482.15 95.0 1482.2 95.0 Q1484.4 94.65 1487.8 93.4 1491.5 92.05 1494.25 91.65 L1499.75 90.85 1505.75 89.6 Q1508.85 88.65 1510.6 87.6 1512.6 86.45 1516.35 85.75 1519.6 85.1 1522.4 83.9 1525.75 82.4 1529.95 82.9 1533.15 83.3 1535.1 82.35 1537.5 81.05 1540.5 80.05 L1540.55 80.05 Q1543.7 79.0 1546.65 78.8 1549.2 78.6 1551.75 77.25 1555.0 75.45 1558.65 75.75 1561.35 76.0 1563.45 74.9 1566.05 73.4 1569.35 72.75 L1569.4 72.75 Q1572.25 72.15 1574.35 71.25 L1574.4 71.25 Q1576.65 70.25 1580.15 69.15 L1580.2 69.15 Q1583.8 68.0 1586.7 67.85 1589.15 67.7 1592.05 66.7 L1592.25 66.6 Q1595.65 65.4 1598.75 64.85 1601.5 64.3 1603.9 63.35 1606.4 62.25 1609.4 61.3 1612.4 60.35 1616.15 59.65 1619.5 59.0 1622.0 57.45 1625.0 55.6 1627.7 54.95 L1627.75 54.95 Q1630.05 54.4 1632.7 53.1 1635.7 51.65 1639.2 50.8 1642.3 50.05 1643.75 49.3 L1643.8 49.25 1648.8 46.85 1648.85 46.85 1654.35 44.25 1659.9 41.55 Q1663.75 39.7 1667.6 39.75 1670.2 39.8 1671.35 38.4 L1671.35 38.35 Q1673.15 35.9 1676.7 35.25 1679.5 34.7 1682.85 33.25 L1682.9 33.25 Q1686.35 31.75 1688.9 30.3 L1688.95 30.3 Q1691.95 28.6 1695.1 28.8 1697.45 28.95 1700.0 27.55 L1705.35 24.75 Q1707.75 23.6 1711.6 22.45 L1717.25 20.45 Q1719.55 19.45 1722.85 18.65 L1722.9 18.65 Q1725.65 18.0 1727.85 16.2 L1727.9 16.2 Q1730.7 13.9 1733.8 13.5 1736.35 13.1 1738.95 11.9 L1744.5 9.0 Q1747.5 7.3 1749.65 6.45 L1749.65 6.4 Q1751.75 5.6 1755.55 4.55 L1755.6 4.55 1761.8 2.7 1761.85 2.7 1767.5 0.7 1767.55 0.7 1773.6 -1.35 1778.8 -3.25 1778.8 -3.3 Q1781.1 -4.2 1783.8 -5.75 L1783.85 -5.75 Q1786.8 -7.4 1789.1 -8.1 1791.25 -8.8 1794.6 -10.3 L1800.5 -12.6 Q1802.85 -13.4 1806.25 -14.0 1809.25 -14.55 1811.35 -15.85 1813.85 -17.45 1817.1 -18.7 L1817.15 -18.75 1817.25 -18.75 1823.0 -21.2 Q1825.8 -22.5 1828.85 -23.3 L1834.95 -25.2 1840.6 -27.4 1840.65 -27.4 1846.1 -29.55 1851.15 -31.4 Q1853.3 -32.25 1856.7 -32.8 1859.65 -33.35 1862.4 -35.0 L1862.4 -35.05 Q1865.55 -36.9 1868.35 -38.0 L1868.4 -38.0 1874.25 -39.85 Q1876.85 -40.55 1878.4 -41.85 1880.4 -43.55 1884.45 -44.35 L1884.5 -44.35 Q1887.8 -45.0 1890.2 -46.55 1893.05 -48.4 1896.5 -49.2 L1896.55 -49.2 1901.85 -50.65 1901.9 -50.65 1907.5 -52.75 Q1910.7 -54.1 1912.95 -55.65 1915.55 -57.45 1918.95 -57.95 L1919.0 -57.95 Q1921.85 -58.4 1924.2 -59.35 L1929.65 -61.6 1935.15 -63.7 1940.6 -65.8 1940.65 -65.8 Q1943.5 -66.9 1946.15 -68.6 1949.25 -70.55 1951.6 -70.95 L1957.35 -71.8 1957.4 -71.8 Q1960.65 -72.2 1963.65 -74.05 L1963.7 -74.05 Q1967.05 -76.15 1969.65 -77.3 L1974.8 -79.35 1979.95 -81.2 Q1982.55 -82.15 1985.95 -83.6 L1991.35 -85.75 1996.35 -87.5 1996.4 -87.5 Q1999.65 -88.6 2002.3 -89.65 L2007.6 -91.75 2007.6 -91.8 2013.45 -93.9 Q2016.5 -94.9 2019.2 -96.0 L2019.2 -96.05 Q2022.1 -97.2 2025.7 -98.05 2028.85 -98.8 2030.75 -100.25 2033.05 -101.95 2036.55 -102.8 L2042.7 -104.6 2042.9 -104.65 Q2046.05 -105.7 2048.9 -106.3 L2053.95 -107.8 Q2056.2 -108.8 2057.85 -110.05 L2057.85 -110.1 Q2059.85 -111.7 2063.6 -112.1 2066.6 -112.45 2069.7 -113.8 2073.45 -115.5 2077.05 -115.1 L2083.05 -114.95 Q2085.9 -115.2 2088.75 -116.35 L2094.3 -118.3 Q2096.85 -119.15 2100.15 -119.2 L2105.6 -119.2 2105.65 -119.2 Q2107.7 -119.2 2110.75 -120.45 L2110.8 -120.5 Q2114.3 -121.95 2117.4 -122.8 L2117.45 -122.8 Q2120.6 -123.65 2124.0 -123.65 2126.85 -123.65 2128.65 -124.35 2130.8 -125.2 2134.4 -125.65 2137.55 -126.05 2140.65 -127.1 L2140.7 -127.1 Q2144.25 -128.3 2147.4 -128.3 2150.1 -128.3 2152.15 -129.1 L2152.2 -129.1 Q2154.65 -130.05 2158.75 -130.75 L2164.9 -131.95 2169.9 -132.75 2175.9 -133.7 2182.45 -135.0 2187.9 -135.9 Q2190.35 -136.15 2193.9 -137.15 2197.9 -138.25 2200.7 -138.25 2203.2 -138.25 2205.9 -139.1 L2205.95 -139.1 Q2209.05 -140.1 2211.7 -140.35 L2211.75 -140.35 2218.0 -141.0 2218.05 -141.05 2223.7 -141.85 2229.0 -142.15 2235.25 -142.45 2235.3 -142.5 Q2239.15 -142.95 2242.25 -142.45 L2248.25 -141.85 2254.15 -141.6 2259.9 -141.15 2259.9 -141.1 Q2262.65 -140.75 2265.7 -141.05 L2265.75 -141.05 2272.15 -141.7 Q2275.5 -142.05 2278.3 -141.8 L2278.4 -141.8 2284.45 -142.2 Q2288.65 -143.0 2291.35 -142.3 L2291.4 -142.3 2297.05 -141.55 Q2300.45 -141.35 2303.0 -141.45 L2303.05 -141.45 2308.25 -141.75 Q2311.1 -142.0 2314.55 -141.65 L2320.45 -141.45 2325.75 -141.55 2331.8 -141.55 2338.3 -141.6 2338.35 -141.6 2343.8 -141.55 2343.85 -141.55 2349.5 -141.25 2355.8 -140.85 2361.5 -141.2 Q2364.4 -141.8 2367.85 -141.3 L2367.9 -141.3 2373.9 -141.0 2380.2 -141.75 Q2384.85 -142.7 2386.2 -140.8 L2386.2 -140.75 Q2386.85 -140.45 2389.5 -141.4 L2390.65 -141.35 Q2391.2 -141.1 2391.4 -140.5 2391.65 -139.95 2391.4 -139.35 2391.1 -138.8 2390.55 -138.6 L2390.0 -138.4 2390.0 200.0 -448.45 200.0 -451.5 200.0 -448.45 200.0 -448.55 200.5 Q-448.75 201.05 -449.3 201.35 L-450.45 201.45 -451.35 200.7 -451.5 200.0 -968.5 200.0 -971.5 200.0 -968.5 200.0 Q-968.5 200.55 -968.9 201.0 -969.3 201.45 -969.9 201.5 -970.55 201.5 -971.0 201.1 -971.45 200.7 -971.5 200.1 L-971.5 200.0 M1750.8 9.2 Q1749.45 9.75 1747.75 10.65 L1755.05 7.85 Q1752.35 8.55 1750.75 9.2 L1750.8 9.2" fill="#333333" fill-rule="evenodd" stroke="none"/>
    <path d="M-971.5 200.0 L-968.5 200.0 -451.5 200.0 -448.45 200.0" fill="none" stroke="#333333" stroke-linecap="round" stroke-linejoin="round" stroke-width="1.0"/>
    <path d="M-980.95 -55.0 L-975.0 -51.55 Q-972.9 -50.1 -970.7 -48.05 L-965.7 -44.15 -960.75 -40.4 -956.35 -36.15 Q-954.1 -33.85 -951.3 -32.8 L-945.65 -30.65 Q-942.85 -29.55 -940.1 -28.1 L-934.4 -25.6 Q-931.5 -24.5 -929.6 -23.25 -927.65 -22.0 -925.7 -19.65 -923.75 -17.3 -922.35 -15.15 -920.9 -12.95 -918.1 -10.7 -915.3 -8.45 -913.0 -7.25 -910.65 -6.05 -908.3 -4.1 -905.9 -2.15 -903.2 -1.7 L-896.95 -0.25 -890.9 1.05 Q-888.4 1.35 -885.25 3.3 -882.05 5.25 -879.25 5.9 L-873.5 7.2 Q-870.6 7.85 -867.75 8.85 -864.85 9.85 -862.5 10.9 -860.15 11.95 -857.35 12.3 -854.55 12.65 -851.1 13.7 L-844.4 15.8 Q-841.2 16.8 -837.85 16.95 L-831.5 17.1 Q-828.5 17.1 -825.7 18.2 L-820.65 20.0 -814.6 20.75 Q-810.8 20.75 -807.9 20.9 L-801.55 21.2 -795.25 21.6 -789.8 22.25 -784.55 22.8 -778.55 22.95 -771.95 22.75 Q-768.65 22.55 -766.55 22.75 -764.45 23.0 -760.85 22.8 L-754.15 22.2 -748.1 21.4 -741.5 20.95 Q-737.8 20.8 -735.6 19.9 -733.4 19.05 -730.5 18.45 -727.55 17.9 -724.6 17.0 -721.65 16.1 -719.55 14.5 -717.45 12.9 -713.65 12.3 -709.8 11.75 -707.85 10.7 -705.9 9.7 -702.5 8.85 L-696.2 7.3 -690.65 6.15 Q-687.95 5.7 -685.6 3.45 -683.25 1.25 -679.45 0.6 L-672.8 -0.45 Q-669.9 -0.85 -667.15 -0.55 L-661.9 -0.9 -655.55 -1.3 -649.7 -1.55 -643.5 -1.3 -636.9 -0.05 Q-634.5 0.5 -631.5 0.0 L-625.5 -0.25 -619.4 -0.45 -613.8 -1.35 -608.45 -1.05 Q-605.6 -0.25 -602.55 -0.2 -599.45 -0.15 -596.15 -0.95 L-589.75 -2.25 Q-586.7 -2.7 -583.4 -2.25 L-577.3 -2.0 Q-574.5 -2.15 -570.9 -3.2 L-565.55 -4.25 -559.85 -5.0 Q-555.95 -5.75 -553.9 -7.65 -551.85 -9.5 -549.15 -10.25 -546.45 -10.95 -544.15 -12.75 -541.85 -14.55 -539.15 -15.95 -536.45 -17.35 -533.0 -18.15 -529.55 -18.9 -527.7 -21.0 -525.85 -23.05 -522.8 -24.45 -519.75 -25.8 -517.65 -26.9 L-511.8 -29.95 Q-508.05 -31.9 -505.1 -32.8 L-500.0 -34.2 Q-497.85 -34.75 -495.55 -37.05 -493.25 -39.35 -490.5 -38.95 -487.7 -38.55 -484.1 -39.65 -480.5 -40.75 -477.45 -42.2 -474.35 -43.6 -471.3 -45.25 L-466.05 -47.9 -461.35 -50.15 -456.4 -52.45 Q-454.0 -53.6 -452.4 -55.35 -450.75 -57.05 -450.95 -59.9" fill="none" stroke="#333333" stroke-linecap="round" stroke-linejoin="round" stroke-width="3.0"/>
  </g>
</svg>
