<?xml version="1.0" encoding="UTF-8" standalone="no"?>
<svg xmlns:ffdec="https://www.free-decompiler.com/flash" xmlns:xlink="http://www.w3.org/1999/xlink" ffdec:objectType="shape" height="391.8px" width="8032.0px" xmlns="http://www.w3.org/2000/svg">
  <g transform="matrix(1.0, 0.0, 0.0, 1.0, 3175.25, 195.9)">
    <path d="M14.75 -41.7 L14.75 -29.95 54.75 -29.95 54.75 -18.3 574.75 -18.3 574.75 -7.4 614.75 -7.4 614.75 3.55 654.75 3.55 654.75 14.45 694.75 14.45 694.75 25.4 734.75 25.4 734.75 36.3 774.75 36.3 774.75 48.05 814.75 48.05 814.75 59.7 854.75 59.7 854.75 70.6 894.75 70.6 894.75 81.55 934.75 81.55 934.75 92.45 974.75 92.45 974.75 103.4 1014.75 103.4 1014.75 114.3 1054.75 114.3 1054.75 126.05 1094.75 126.05 1094.75 137.7 1134.75 137.7 1134.75 148.6 1174.75 148.6 1174.75 159.55 1214.75 159.55 1214.75 170.45 1254.75 170.45 1254.75 171.85 1254.75 175.9 1943.75 175.9 1943.75 165.9 1983.75 165.9 1983.75 155.9 2023.75 155.9 2023.75 145.9 2063.75 145.9 2063.75 135.9 2103.75 135.9 2103.75 175.9 4330.1 175.9 4330.45 195.9 2348.95 195.9 2348.75 184.65 2348.7 195.9 -413.3 195.9 -3175.25 195.9 -3175.25 155.9 -2885.25 155.9 -2885.25 145.05 -2845.25 145.05 -2845.25 134.1 -2805.25 134.1 -2805.25 123.15 -2765.25 123.15 -2765.25 112.25 -2725.25 112.25 -2725.25 101.3 -2685.25 101.3 -2685.25 90.4 -2645.25 90.4 -2645.25 79.45 -2605.25 79.45 -2605.25 68.55 -2565.25 68.55 -2565.25 57.6 -2305.25 57.6 -2305.25 46.7 -2265.25 46.7 -2265.25 35.05 -2225.25 35.05 -2225.25 24.1 -2185.25 24.1 -2185.25 13.15 -2145.25 13.15 -2145.25 2.25 -2105.25 2.25 -2105.25 -8.7 -2065.25 -8.7 -2065.25 -19.6 -2025.25 -19.6 -2025.25 -30.55 -1755.25 -30.55 -1755.25 -41.45 -1715.25 -41.45 -1715.25 -52.4 -1675.25 -52.4 -1675.25 -63.3 -1635.25 -63.3 -1635.25 -74.95 -1595.25 -74.95 -1595.25 -85.9 -1555.25 -85.9 -1555.25 -96.85 -1515.25 -96.85 -1515.25 -107.75 -1245.25 -107.75 -1245.25 -118.7 -1205.25 -118.7 -1205.25 -129.6 -1165.25 -129.6 -1165.25 -140.55 -1125.25 -140.55 -1125.25 -151.45 -1085.25 -151.45 -1085.25 -162.4 -1045.25 -162.4 -1045.25 -173.3 -1005.25 -173.3 -1005.25 -184.95 -965.25 -184.95 -965.25 -195.9 -545.25 -195.9 -545.25 -184.95 -505.25 -184.95 -505.25 -173.3 -465.25 -173.3 -465.25 -162.4 -425.25 -162.4 -425.25 -151.45 -385.25 -151.45 -385.25 -140.55 -345.25 -140.55 -345.25 -129.6 -305.25 -129.6 -305.25 -118.7 -265.25 -118.7 -265.25 -107.95 -225.25 -107.95 -225.25 -96.3 -185.25 -96.3 -185.25 -85.4 -145.25 -85.4 -145.25 -74.45 -105.25 -74.45 -105.25 -63.55 -65.25 -63.55 -65.25 -52.6 -25.25 -52.6 -25.25 -41.7 14.75 -41.7 M4856.75 195.9 L4330.5 195.9 4330.45 175.9 4635.25 175.9 4726.75 135.9 4856.75 135.9 4856.75 195.9" fill="#cccccc" fill-rule="evenodd" stroke="none"/>
  </g>
</svg>
