<?xml version="1.0" encoding="UTF-8" standalone="no"?>
<svg xmlns:ffdec="https://www.free-decompiler.com/flash" xmlns:xlink="http://www.w3.org/1999/xlink" ffdec:objectType="shape" height="57.0px" width="37.0px" xmlns="http://www.w3.org/2000/svg">
  <g transform="matrix(1.0, 0.0, 0.0, 1.0, 21.0, 28.5)">
    <path d="M11.65 -3.55 Q14.0 0.2 14.0 5.0 14.0 11.85 9.2 16.7 4.35 21.5 -2.5 21.5 L-4.8 21.35 Q-10.2 20.65 -14.15 16.7 -19.0 11.85 -19.0 5.0 -19.0 -1.85 -14.15 -6.65 L-14.05 -6.7 -13.65 -7.1 -13.35 -7.6 -13.35 -8.2 Q-14.0 -10.2 -14.0 -12.5 -14.0 -18.3 -9.9 -22.4 -5.8 -26.5 0.0 -26.5 5.85 -26.5 9.9 -22.4 12.8 -19.5 13.7 -15.7 L15.65 -14.75 15.65 -11.0 13.8 -9.8 Q13.3 -7.0 11.7 -4.65 L11.5 -4.1 Q11.5 -3.85 11.65 -3.55" fill="#ffff00" fill-rule="evenodd" stroke="none"/>
    <path d="M-4.95 22.35 L-5.0 27.5 5.0 27.5" fill="none" stroke="#000000" stroke-linecap="round" stroke-linejoin="round" stroke-width="2.0"/>
    <path d="M14.85 -10.2 Q14.4 -6.85 12.5 -4.1 15.0 -0.1 15.0 5.0 15.0 12.25 9.9 17.4 4.75 22.5 -2.5 22.5 L-4.95 22.35 Q-10.65 21.6 -14.85 17.4 -20.0 12.25 -20.0 5.0 -20.0 -2.25 -14.85 -7.35 L-14.3 -7.9 Q-15.0 -10.05 -15.0 -12.5 -15.0 -18.7 -10.6 -23.1 -6.2 -27.5 0.0 -27.5 6.25 -27.5 10.6 -23.1 14.05 -19.65 14.8 -15.1 L15.0 -12.5 14.85 -10.2 Z" fill="none" stroke="#000000" stroke-linecap="round" stroke-linejoin="round" stroke-width="2.0"/>
  </g>
</svg>
