<?xml version="1.0" encoding="UTF-8" standalone="no"?>
<svg xmlns:ffdec="https://www.free-decompiler.com/flash" xmlns:xlink="http://www.w3.org/1999/xlink" ffdec:objectType="shape" height="74.3px" width="48.05px" xmlns="http://www.w3.org/2000/svg">
  <g transform="matrix(1.0, 0.0, 0.0, 1.0, 27.3, 37.15)">
    <path d="M15.3 -4.65 Q18.4 0.25 18.4 6.6 18.4 15.6 12.1 21.95 5.7 28.25 -3.3 28.25 L-6.3 28.1 Q-13.4 27.15 -18.6 21.95 -25.0 15.6 -25.0 6.6 -25.0 -2.45 -18.6 -8.75 L-18.5 -8.8 -17.95 -9.35 -17.55 -10.0 Q-17.4 -10.4 -17.55 -10.8 -18.4 -13.4 -18.4 -16.45 -18.4 -24.05 -13.0 -29.45 -7.65 -34.85 0.0 -34.85 7.7 -34.85 13.0 -29.45 16.85 -25.65 18.0 -20.65 L20.6 -19.4 20.6 -14.45 18.15 -12.9 Q17.5 -9.2 15.4 -6.1 15.1 -5.8 15.1 -5.4 L15.3 -4.65" fill="#ffff00" fill-rule="evenodd" stroke="none"/>
    <path d="M-6.5 29.4 L-6.6 36.15 6.6 36.15" fill="none" stroke="#000000" stroke-linecap="round" stroke-linejoin="round" stroke-width="2.0"/>
    <path d="M19.55 -13.4 Q18.95 -9.0 16.45 -5.4 19.75 -0.15 19.75 6.6 19.75 16.1 13.0 22.9 6.25 29.6 -3.3 29.6 L-6.5 29.4 Q-14.0 28.4 -19.55 22.9 -26.3 16.1 -26.3 6.6 -26.3 -2.95 -19.55 -9.65 L-18.8 -10.4 Q-19.75 -13.2 -19.75 -16.45 -19.75 -24.6 -13.95 -30.4 -8.15 -36.15 0.0 -36.15 8.2 -36.15 13.95 -30.4 18.5 -25.85 19.45 -19.85 L19.75 -16.45 19.55 -13.4 Z" fill="none" stroke="#000000" stroke-linecap="round" stroke-linejoin="round" stroke-width="2.0"/>
  </g>
</svg>
