<?xml version="1.0" encoding="UTF-8" standalone="no"?>
<svg xmlns:ffdec="https://www.free-decompiler.com/flash" xmlns:xlink="http://www.w3.org/1999/xlink" ffdec:objectType="frame" height="40.5px" width="234.45px" xmlns="http://www.w3.org/2000/svg">
  <g transform="matrix(1.0, 0.0, 0.0, 1.0, 121.0, 23.5)">
    <use ffdec:characterId="296" height="40.5" transform="matrix(1.0, 0.0, 0.0, 1.0, -121.0, -23.5)" width="234.45" xlink:href="#text0"/>
  </g>
  <defs>
    <g id="text0" transform="matrix(1.0, 0.0, 0.0, 1.0, -4.1, -8.5)">
      <g transform="matrix(1.0, 0.0, 0.0, 1.0, 0.0, 0.0)">
        <use fill="#ff0000" fill-opacity="0.49803922" height="40.5" transform="matrix(0.0488, 0.0, 0.0, 0.0488, 0.0, 48.0)" width="234.45" xlink:href="#font_Silom_L0"/>
        <use fill="#ff0000" fill-opacity="0.49803922" height="40.5" transform="matrix(0.0488, 0.0, 0.0, 0.0488, 29.15, 48.0)" width="234.45" xlink:href="#font_Silom_e0"/>
        <use fill="#ff0000" fill-opacity="0.49803922" height="40.5" transform="matrix(0.0488, 0.0, 0.0, 0.0488, 62.5, 48.0)" width="234.45" xlink:href="#font_Silom_v0"/>
        <use fill="#ff0000" fill-opacity="0.49803922" height="40.5" transform="matrix(0.0488, 0.0, 0.0, 0.0488, 95.85, 48.0)" width="234.45" xlink:href="#font_Silom_e0"/>
        <use fill="#ff0000" fill-opacity="0.49803922" height="40.5" transform="matrix(0.0488, 0.0, 0.0, 0.0488, 129.2, 48.0)" width="234.45" xlink:href="#font_Silom_l0"/>
        <use fill="#ff0000" fill-opacity="0.49803922" height="40.5" transform="matrix(0.0488, 0.0, 0.0, 0.0488, 145.85, 48.0)" width="234.45" xlink:href="#font_Silom_s0"/>
        <use fill="#ff0000" fill-opacity="0.49803922" height="40.5" transform="matrix(0.0488, 0.0, 0.0, 0.0488, 187.5, 48.0)" width="234.45" xlink:href="#font_Silom__1"/>
        <use fill="#ff0000" fill-opacity="0.49803922" height="40.5" transform="matrix(0.0488, 0.0, 0.0, 0.0488, 216.65, 48.0)" width="234.45" xlink:href="#font_Silom_10"/>
      </g>
    </g>
    <g id="font_Silom_L0">
      <path d="M512.0 0.0 L512.0 0.0 512.0 -84.0 256.0 -84.0 256.0 -768.0 84.0 -768.0 84.0 0.0 512.0 0.0" fill-rule="evenodd" stroke="none"/>
    </g>
    <g id="font_Silom_e0">
      <path d="M256.0 -426.5 L256.0 -426.5 Q256.0 -461.5 280.5 -487.0 305.5 -512.0 339.5 -512.0 374.5 -512.0 399.5 -487.0 424.0 -461.5 424.0 -426.5 L424.0 -340.0 256.0 -340.0 256.0 -426.5 M596.0 -426.5 L596.0 -426.5 Q596.0 -496.0 545.0 -546.0 494.5 -596.0 424.0 -596.0 L256.0 -596.0 Q186.0 -596.0 135.0 -546.0 84.0 -496.0 84.0 -426.5 L84.0 -170.5 Q84.0 -100.0 135.0 -50.0 186.0 0.0 256.0 0.0 L424.0 0.0 Q576.5 0.0 596.0 -172.0 L510.0 -172.0 Q510.0 -84.0 424.0 -84.0 L339.5 -84.0 Q305.5 -84.0 280.5 -109.5 256.0 -135.5 256.0 -170.5 L256.0 -256.0 596.0 -256.0 596.0 -426.5" fill-rule="evenodd" stroke="none"/>
    </g>
    <g id="font_Silom_v0">
      <path d="M424.0 -170.0 L424.0 -170.0 Q424.0 -135.0 399.5 -109.5 374.5 -84.0 339.5 -84.0 L256.0 -84.0 256.0 -596.0 84.0 -596.0 84.0 0.0 305.0 0.0 Q425.0 0.0 510.5 -86.0 596.0 -171.5 596.0 -291.5 L596.0 -596.0 424.0 -596.0 424.0 -170.0" fill-rule="evenodd" stroke="none"/>
    </g>
    <g id="font_Silom_l0">
      <path d="M256.0 0.0 L256.0 0.0 256.0 -768.0 84.0 -768.0 84.0 0.0 256.0 0.0" fill-rule="evenodd" stroke="none"/>
    </g>
    <g id="font_Silom_s0">
      <path d="M512.0 -424.0 L512.0 -424.0 Q501.5 -596.0 340.0 -596.0 L256.0 -596.0 Q186.0 -596.0 135.0 -546.0 84.0 -495.5 84.0 -425.0 84.0 -384.0 100.0 -348.0 115.5 -312.5 216.5 -258.0 340.0 -191.5 340.0 -155.5 340.0 -120.0 318.5 -102.0 296.5 -84.0 252.0 -84.0 181.5 -84.0 171.0 -172.0 L84.0 -172.0 Q84.0 0.0 256.0 0.0 L340.0 0.0 Q411.0 0.0 461.5 -50.0 512.0 -100.5 512.0 -171.0 512.0 -212.0 496.5 -248.0 481.5 -283.5 380.0 -338.0 256.0 -404.5 256.0 -441.5 256.0 -476.0 278.0 -494.0 300.0 -512.0 344.0 -512.0 414.5 -512.0 426.0 -424.0 L512.0 -424.0" fill-rule="evenodd" stroke="none"/>
    </g>
    <g id="font_Silom__1">
      <path d="M256.0 -256.0 L256.0 -256.0 256.0 -84.0 340.0 -84.0 340.0 -256.0 511.0 -256.0 511.0 -340.0 340.0 -340.0 340.0 -512.0 256.0 -512.0 256.0 -340.0 85.0 -340.0 85.0 -256.0 256.0 -256.0" fill-rule="evenodd" stroke="none"/>
    </g>
    <g id="font_Silom_10">
      <path d="M428.0 0.0 L428.0 0.0 428.0 -768.0 341.5 -768.0 171.0 -683.0 171.0 -597.0 256.0 -597.0 256.0 0.0 428.0 0.0" fill-rule="evenodd" stroke="none"/>
    </g>
  </defs>
</svg>
