<?xml version="1.0" encoding="UTF-8" standalone="no"?>
<svg xmlns:ffdec="https://www.free-decompiler.com/flash" xmlns:xlink="http://www.w3.org/1999/xlink" ffdec:objectType="frame" height="48.0px" width="34.65px" xmlns="http://www.w3.org/2000/svg">
  <g transform="matrix(1.0, 0.0, 0.0, 1.0, 16.5, 24.0)">
    <use ffdec:characterId="217" height="48.0" transform="matrix(1.0, 0.0, 0.0, 1.0, -16.5, -24.0)" width="33.0" xlink:href="#shape0"/>
  </g>
  <defs>
    <g id="shape0" transform="matrix(1.0, 0.0, 0.0, 1.0, 16.5, 24.0)">
      <path d="M16.45 -8.45 L16.35 -7.8 16.1 -8.05 16.45 -8.45 M16.4 9.55 L16.35 10.15 16.1 9.9 16.4 9.55" fill="url(#gradient0)" fill-rule="evenodd" stroke="none"/>
      <path d="M16.4 5.6 L16.5 7.5 16.4 9.55 16.1 9.9 16.35 10.15 Q15.9 13.1 14.45 15.65 L0.35 7.5 0.25 7.7 -0.1 8.05 -8.15 21.95 -11.45 19.4 -11.65 19.2 Q-13.6 17.25 -14.75 14.95 L-14.95 14.55 -8.1 2.6 -14.2 -0.9 -11.65 -4.15 -11.6 -4.15 -11.55 -4.2 -11.3 -4.5 -11.15 -4.6 -10.85 -5.1 -10.85 -5.7 Q-11.5 -7.7 -11.5 -10.0 L-11.5 -10.5 -3.3 -5.75 5.85 -23.6 Q9.55 -22.75 12.4 -19.9 L13.3 -18.95 15.0 -16.45 5.1 -0.95 16.4 5.6" fill="#ffffff" fill-rule="evenodd" stroke="none"/>
      <path d="M15.0 -16.45 L15.5 -15.35 16.35 -12.45 16.5 -10.0 16.45 -8.45 16.1 -8.05 16.35 -7.8 Q15.95 -4.7 14.2 -2.15 L14.0 -1.6 Q14.0 -1.35 14.15 -1.05 L14.45 -0.6 Q16.05 2.2 16.4 5.6 L5.1 -0.95 15.0 -16.45 M14.45 15.65 Q13.45 17.35 12.05 18.85 L11.75 19.2 11.7 19.2 Q6.85 24.0 0.0 24.0 L-2.3 23.85 Q-5.45 23.45 -8.1 21.95 L-8.15 21.95 -0.1 8.05 0.25 7.7 0.35 7.5 14.45 15.65 M-14.95 14.55 Q-15.85 12.65 -16.25 10.6 L-16.5 7.5 Q-16.5 2.8 -14.2 -0.9 L-8.1 2.6 -14.95 14.55 M-11.5 -10.5 Q-11.4 -13.65 -10.05 -16.25 L-9.85 -16.7 Q-8.9 -18.4 -7.4 -19.9 -3.3 -24.0 2.5 -24.0 L5.85 -23.6 -3.3 -5.75 -11.5 -10.5" fill="#336699" fill-rule="evenodd" stroke="none"/>
    </g>
    <linearGradient gradientTransform="matrix(0.0, -0.0276, 0.0293, 0.0, 0.0, 0.0)" gradientUnits="userSpaceOnUse" id="gradient0" spreadMethod="pad" x1="-819.2" x2="819.2">
      <stop offset="0.0" stop-color="#000000"/>
      <stop offset="1.0" stop-color="#333333"/>
    </linearGradient>
  </defs>
</svg>
