<?xml version="1.0" encoding="UTF-8" standalone="no"?>
<svg xmlns:ffdec="https://www.free-decompiler.com/flash" xmlns:xlink="http://www.w3.org/1999/xlink" ffdec:objectType="frame" height="48.0px" width="34.65px" xmlns="http://www.w3.org/2000/svg">
  <g transform="matrix(1.0, 0.0, 0.0, 1.0, 16.5, 24.0)">
    <use ffdec:characterId="218" height="48.0" transform="matrix(1.0, 0.0, 0.0, 1.0, -16.5, -24.0)" width="33.0" xlink:href="#shape0"/>
  </g>
  <defs>
    <g id="shape0" transform="matrix(1.0, 0.0, 0.0, 1.0, 16.5, 24.0)">
      <path d="M13.3 -18.95 Q14.7 -17.25 15.5 -15.35 L16.35 -12.45 16.5 -10.0 16.45 -8.45 16.35 -7.8 Q15.95 -4.7 14.2 -2.15 L14.1 -2.0 11.35 -2.35 13.3 -18.95 M16.5 8.45 L16.4 9.55 16.35 10.15 Q15.6 15.05 12.05 18.85 L11.75 19.2 11.7 19.2 8.55 21.7 10.15 7.7 16.5 8.45 M-2.1 23.9 L-2.3 23.85 Q-5.45 23.45 -8.1 21.95 L-11.45 19.4 -11.65 19.2 Q-13.6 17.25 -14.75 14.95 -15.85 12.9 -16.25 10.6 L-16.5 7.5 -16.25 4.65 -0.1 6.5 -0.2 7.65 -2.1 23.9 M-10.8 -5.15 L-10.85 -5.7 Q-11.5 -7.7 -11.5 -10.0 -11.5 -13.45 -10.05 -16.25 L-9.85 -16.7 Q-8.9 -18.4 -7.4 -19.9 -3.3 -24.0 2.5 -24.0 L3.4 -23.95 1.1 -3.65 -10.8 -5.15" fill="#ffffff" fill-rule="evenodd" stroke="none"/>
      <path d="M14.1 -2.0 L14.0 -1.6 Q14.0 -1.35 14.15 -1.05 L14.45 -0.6 Q16.5 3.0 16.5 7.5 L16.5 8.45 10.15 7.7 8.55 21.7 Q4.75 24.0 0.0 24.0 L-2.1 23.9 -0.2 7.65 -0.1 6.5 -16.25 4.65 Q-15.45 -0.4 -11.65 -4.15 L-11.6 -4.15 -11.55 -4.2 -11.3 -4.5 -11.15 -4.6 -10.85 -5.1 -10.8 -5.15 1.1 -3.65 3.4 -23.95 Q8.65 -23.7 12.4 -19.9 L13.3 -18.95 11.35 -2.35 14.1 -2.0" fill="#cc3333" fill-rule="evenodd" stroke="none"/>
    </g>
  </defs>
</svg>
