<?xml version="1.0" encoding="UTF-8" standalone="no"?>
<svg xmlns:ffdec="https://www.free-decompiler.com/flash" xmlns:xlink="http://www.w3.org/1999/xlink" ffdec:objectType="frame" height="48.0px" width="34.65px" xmlns="http://www.w3.org/2000/svg">
  <g transform="matrix(1.0, 0.0, 0.0, 1.0, 16.5, 24.0)">
    <use ffdec:characterId="219" height="48.0" transform="matrix(1.0, 0.0, 0.0, 1.0, -16.5, -24.0)" width="34.35" xlink:href="#shape0"/>
  </g>
  <defs>
    <g id="shape0" transform="matrix(1.0, 0.0, 0.0, 1.0, 16.5, 24.0)">
      <path d="M16.3 -12.6 L16.35 -12.45 16.5 -10.0 16.45 -8.45 16.35 -7.8 Q15.95 -4.7 14.2 -2.15 L14.1 -2.0 14.0 -1.6 Q14.0 -1.35 14.15 -1.05 L14.45 -0.6 Q16.5 3.0 16.5 7.5 L16.5 8.45 16.4 9.55 16.35 10.15 Q15.6 15.05 12.05 18.85 L11.75 19.2 11.7 19.2 8.55 21.7 Q4.75 24.0 0.0 24.0 L-2.1 23.9 -2.3 23.85 Q-5.45 23.45 -8.1 21.95 L-11.45 19.4 -11.65 19.2 Q-13.6 17.25 -14.75 14.95 -15.85 12.9 -16.25 10.6 L-16.5 7.5 -16.25 4.65 Q-15.85 2.15 -14.75 0.0 L16.3 -12.6" fill="#cc3333" fill-rule="evenodd" stroke="none"/>
      <path d="M16.35 -12.45 L16.3 -12.6 16.35 -12.65 16.3 -12.6 -14.75 0.0 Q-13.6 -2.25 -11.65 -4.15 L-11.6 -4.15 -11.55 -4.2 -11.3 -4.5 -11.15 -4.6 -10.85 -5.1 -10.8 -5.15 -10.85 -5.7 Q-11.5 -7.7 -11.5 -10.0 L-11.25 -12.6 10.0 -21.85 12.4 -19.9 13.3 -18.95 Q14.7 -17.25 15.5 -15.35 L16.35 -12.65 16.35 -12.45" fill="#ffffff" fill-rule="evenodd" stroke="none"/>
      <path d="M-11.25 -12.6 Q-10.95 -14.55 -10.05 -16.25 L-9.85 -16.7 Q-8.9 -18.4 -7.4 -19.9 -3.3 -24.0 2.5 -24.0 L3.4 -23.95 Q7.1 -23.75 10.0 -21.85 L-11.25 -12.6" fill="#333333" fill-rule="evenodd" stroke="none"/>
      <path d="M16.35 -12.65 L16.3 -12.6" fill="none" stroke="#ff7f3f" stroke-linecap="butt" stroke-linejoin="round" stroke-width="3.0"/>
    </g>
  </defs>
</svg>
