<?xml version="1.0" encoding="UTF-8" standalone="no"?>
<svg xmlns:ffdec="https://www.free-decompiler.com/flash" xmlns:xlink="http://www.w3.org/1999/xlink" ffdec:objectType="frame" height="48.0px" width="34.65px" xmlns="http://www.w3.org/2000/svg">
  <g transform="matrix(1.0, 0.0, 0.0, 1.0, 16.5, 24.0)">
    <use ffdec:characterId="221" height="48.0" transform="matrix(1.0, 0.0, 0.0, 1.0, -16.5, -24.0)" width="33.0" xlink:href="#shape0"/>
  </g>
  <defs>
    <g id="shape0" transform="matrix(1.0, 0.0, 0.0, 1.0, 16.5, 24.0)">
      <path d="M-14.8 14.9 L-15.65 12.8 -16.25 10.6 -16.5 7.5 -16.25 4.65 -16.25 4.6 Q-15.85 2.15 -14.75 0.0 L-13.45 -2.05 -11.65 -4.15 -11.6 -4.15 -11.55 -4.2 -11.3 -4.5 -11.15 -4.6 -10.85 -5.1 -10.8 -5.15 -10.85 -5.7 -11.35 -8.0 -11.45 -9.1 -11.5 -10.0 -11.25 -12.6 Q-10.95 -14.55 -10.05 -16.25 L-9.95 -16.45 -9.85 -16.7 -8.95 -18.1 Q-4.7 -17.05 -1.35 -13.7 3.6 -8.8 3.6 -1.85 3.6 5.1 -1.35 10.0 -6.25 14.95 -13.2 14.95 L-14.8 14.9" fill="#cc3333" fill-rule="evenodd" stroke="none"/>
      <path d="M-10.05 -16.25 L-10.0 -16.35 -9.95 -16.45 -9.85 -16.7 -9.95 -16.45 -10.05 -16.25" fill="#000000" fill-rule="evenodd" stroke="none"/>
      <path d="M-8.95 -18.1 L-7.4 -19.9 Q-3.3 -24.0 2.5 -24.0 L3.4 -23.95 Q7.1 -23.75 10.0 -21.85 L12.4 -19.9 13.3 -18.95 Q14.6 -17.35 15.4 -15.55 L15.5 -15.35 16.35 -12.65 16.35 -12.45 16.5 -10.0 16.45 -8.45 16.35 -7.8 15.85 -5.5 15.75 -5.15 14.2 -2.15 14.1 -2.0 14.0 -1.6 Q14.0 -1.35 14.15 -1.05 L14.45 -0.6 15.7 2.2 Q16.5 4.65 16.5 7.5 L16.5 8.45 16.4 9.55 16.35 10.15 16.3 10.4 Q15.65 14.15 13.4 17.25 L12.05 18.85 11.75 19.2 11.7 19.2 8.55 21.7 6.9 22.6 Q3.75 24.0 0.0 24.0 L-2.1 23.9 -2.3 23.85 Q-5.45 23.45 -8.1 21.95 L-11.45 19.4 -11.65 19.2 Q-13.6 17.25 -14.75 14.95 L-14.8 14.9 -13.2 14.95 Q-6.25 14.95 -1.35 10.0 3.6 5.1 3.6 -1.85 3.6 -8.8 -1.35 -13.7 -4.7 -17.05 -8.95 -18.1" fill="#ffffff" fill-rule="evenodd" stroke="none"/>
    </g>
  </defs>
</svg>
