<?xml version="1.0" encoding="UTF-8" standalone="no"?>
<svg xmlns:ffdec="https://www.free-decompiler.com/flash" xmlns:xlink="http://www.w3.org/1999/xlink" ffdec:objectType="frame" height="36.9px" width="24.2px" xmlns="http://www.w3.org/2000/svg">
  <g transform="matrix(1.0, 0.0, 0.0, 1.0, 12.1, 18.45)">
    <use ffdec:characterId="361" height="36.9" transform="matrix(1.0, 0.0, 0.0, 1.0, -12.1, -18.45)" width="24.2" xlink:href="#shape0"/>
  </g>
  <defs>
    <g id="shape0" transform="matrix(1.0, 0.0, 0.0, 1.0, 12.1, 18.45)">
      <path d="M-6.35 -18.45 Q1.3 -18.45 6.7 -13.05 12.1 -7.65 12.1 0.0 12.1 7.65 6.7 13.05 1.3 18.45 -6.35 18.45 -9.4 18.45 -12.1 17.6 -8.05 16.3 -4.8 13.05 0.6 7.65 0.6 0.0 0.6 -7.65 -4.8 -13.05 -8.05 -16.3 -12.1 -17.6 -9.4 -18.45 -6.35 -18.45" fill="#ffffff" fill-rule="evenodd" stroke="none"/>
    </g>
  </defs>
</svg>
