<?xml version="1.0" encoding="UTF-8"?>
<svg width="138px" height="121px" viewBox="0 0 138 121" version="1.1" xmlns="http://www.w3.org/2000/svg" xmlns:xlink="http://www.w3.org/1999/xlink">
    <title>Group Copy 3</title>
    <defs>
        <radialGradient cx="50%" cy="50%" fx="50%" fy="50%" r="98.9241333%" gradientTransform="translate(0.5, 0.5), scale(0.5108, 1), translate(-0.5, -0.5)" id="radialGradient-1">
            <stop stop-color="#0B0B0B" offset="0%"></stop>
            <stop stop-color="#191919" offset="100%"></stop>
        </radialGradient>
    </defs>
    <g id="Page-1" stroke="none" stroke-width="1" fill="none" fill-rule="evenodd">
        <g id="Group-Copy-3" transform="translate(0.95, 0.5)">
            <g id="shape11-link-copy" transform="translate(26, 0)">
                <polyline id="Path" fill="#000000" points="39 84 90 84 90 120 39 120 39 84 39 84"></polyline>
                <path d="M40.45,60 L90,60 L91.5,60 C96.8333333,60.1333333 101.383333,62.0833333 105.15,65.85 C108.916667,69.6166667 110.866667,74.1666667 111,79.5 L111,90.55 C110.866667,95.85 108.916667,100.383333 105.15,104.15 C101.383333,107.916667 96.8333333,109.866667 91.5,110 L90,110 L40.5,110 C35.2,109.9 30.65,107.95 26.85,104.15 C23.0833333,100.383333 21.1333333,95.85 21,90.55 L21,79.5 C21.1333333,74.1666667 23.0833333,69.6166667 26.85,65.85 C30.6166667,62.0833333 35.15,60.1333333 40.45,60" id="Path" fill="#FA6400"></path>
                <g id="Group" transform="translate(50, 66.8724)">
                    <path d="M19.5,9.1776 C20.1,9.1776 20.6166667,8.91093333 21.05,8.3776 C21.35,7.9776 21.5,7.61093333 21.5,7.2776 C21.5,6.0776 20.8333333,5.4276 19.5,5.3276 C18.1666667,5.19426667 17.5,5.8276 17.5,7.2276 L17.8,8.2776 C18.1333333,8.8776 18.7,9.1776 19.5,9.1776 M12.5,7.9776 L12.75,9.0276 C13.0833333,9.6276 13.6666667,9.9276 14.5,9.9276 C15.1,9.9276 15.6166667,9.66093333 16.05,9.1276 C16.35,8.7276 16.5,8.36093333 16.5,8.0276 C16.5,6.8276 15.8333333,6.1776 14.5,6.0776 C13.1666667,5.94426667 12.5,6.5776 12.5,7.9776 M12.3,14.6776 C12.6,14.2776 12.75,13.8942667 12.75,13.5276 C12.75,12.3609333 12.0833333,11.7109333 10.75,11.5776 C9.41666667,11.4442667 8.75,12.0776 8.75,13.4776 L9,14.4776 C9.36666667,15.1109333 9.95,15.4276 10.75,15.4276 C11.3833333,15.4276 11.9,15.1776 12.3,14.6776 M15.5,14.0776 C14.1666667,13.9442667 13.5,14.5776 13.5,15.9776 L13.75,17.0276 C14.0833333,17.6276 14.6666667,17.9276 15.5,17.9276 C16.1333333,17.9276 16.65,17.6776 17.05,17.1776 C17.35,16.7776 17.5,16.3942667 17.5,16.0276 C17.5,14.8609333 16.8333333,14.2109333 15.5,14.0776 M21.5,7.9776 L21.75,9.0276 C22.0833333,9.6276 22.6666667,9.9276 23.5,9.9276 C24.1,9.9276 24.6166667,9.66093333 25.05,9.1276 C25.35,8.7276 25.5,8.36093333 25.5,8.0276 C25.5,6.6276 24.8333333,5.94426667 23.5,5.9776 C22.1666667,5.9776 21.5,6.64426667 21.5,7.9776 M16.75,13.5276 C17.0833333,14.1276 17.6666667,14.4276 18.5,14.4276 C19.1,14.4276 19.6166667,14.1609333 20.05,13.6276 C20.35,13.2276 20.5,12.8609333 20.5,12.5276 C20.5,11.3276 19.8333333,10.6776 18.5,10.5776 C17.1666667,10.4442667 16.5,11.0776 16.5,12.4776 L16.75,13.5276 M24.15,17.3276 C23.8166667,16.8942667 23.2666667,16.6442667 22.5,16.5776 C21.1666667,16.4442667 20.5,17.0776 20.5,18.4776 L20.8,19.5276 C21.1333333,20.1276 21.7,20.4276 22.5,20.4276 C23.0666667,20.4276 23.5666667,20.1942667 24,19.7276 C24.3666667,20.3609333 24.95,20.6776 25.75,20.6776 C26.3833333,20.6776 26.9,20.4276 27.3,19.9276 C27.6,19.5276 27.75,19.1442667 27.75,18.7776 C27.75,17.6109333 27.0833333,16.9609333 25.75,16.8276 C25.0166667,16.7609333 24.4833333,16.9276 24.15,17.3276 M22.25,13.4776 L22.5,14.4776 C22.8666667,15.1109333 23.45,15.4276 24.25,15.4276 C24.8833333,15.4276 25.4,15.1776 25.8,14.6776 C26.1,14.2776 26.25,13.8942667 26.25,13.5276 C26.25,12.3609333 25.5833333,11.7109333 24.25,11.5776 C22.9166667,11.4442667 22.25,12.0776 22.25,13.4776 M27.5,11.3776 C28.5,14.4442667 29,16.7276 29,18.2276 C29,20.5609333 27.5166667,21.8442667 24.55,22.0776 L18.75,21.9276 L11.4,22.0276 L8.85,22.1776 C6.41666667,22.1776 4.21666667,21.1109333 2.25,18.9776 C0.75,17.3442667 0,16.1776 0,15.4776 L0.1,14.5276 C0.233333333,14.1942667 0.533333333,13.9109333 1,13.6776 L3.25,13.5276 L5.5,13.1776 L7.15,11.8276 C8.25,11.0609333 9.45,10.6609333 10.75,10.6276 C14.8166667,-0.239066667 19.05,-2.7724 23.45,3.0276 C24.9833333,5.06093333 26.3333333,7.84426667 27.5,11.3776 M12,21.6776 C12.7,21.6776 13.2833333,21.3109333 13.75,20.5776 C14.0833333,20.0442667 14.25,19.6109333 14.25,19.2776 C14.25,17.8109333 13.55,17.1442667 12.15,17.2776 C10.7166667,17.4109333 10,18.2276 10,19.7276 L10.3,20.7776 C10.6333333,21.3776 11.2,21.6776 12,21.6776 M4.75,18.2276 L5.05,19.2776 C5.38333333,19.8776 5.95,20.1776 6.75,20.1776 C7.38333333,20.1776 7.9,19.9276 8.3,19.4276 C8.6,19.0276 8.75,18.6442667 8.75,18.2776 C8.75,16.8776 8.08333333,16.1776 6.75,16.1776 C5.41666667,16.2109333 4.75,16.8942667 4.75,18.2276" id="Shape" fill="#FA6400"></path>
                    <path d="M19.5,9.1776 C18.7,9.1776 18.1333333,8.8776 17.8,8.2776 L17.5,7.2276 C17.5,5.8276 18.1666667,5.19426667 19.5,5.3276 C20.8333333,5.4276 21.5,6.0776 21.5,7.2776 C21.5,7.61093333 21.35,7.9776 21.05,8.3776 C20.6166667,8.91093333 20.1,9.1776 19.5,9.1776 M15.5,14.0776 C16.8333333,14.2109333 17.5,14.8609333 17.5,16.0276 C17.5,16.3942667 17.35,16.7776 17.05,17.1776 C16.65,17.6776 16.1333333,17.9276 15.5,17.9276 C14.6666667,17.9276 14.0833333,17.6276 13.75,17.0276 L13.5,15.9776 C13.5,14.5776 14.1666667,13.9442667 15.5,14.0776 M12.3,14.6776 C11.9,15.1776 11.3833333,15.4276 10.75,15.4276 C9.95,15.4276 9.36666667,15.1109333 9,14.4776 L8.75,13.4776 C8.75,12.0776 9.41666667,11.4442667 10.75,11.5776 C12.0833333,11.7109333 12.75,12.3609333 12.75,13.5276 C12.75,13.8942667 12.6,14.2776 12.3,14.6776 M22.25,13.4776 C22.25,12.0776 22.9166667,11.4442667 24.25,11.5776 C25.5833333,11.7109333 26.25,12.3609333 26.25,13.5276 C26.25,13.8942667 26.1,14.2776 25.8,14.6776 C25.4,15.1776 24.8833333,15.4276 24.25,15.4276 C23.45,15.4276 22.8666667,15.1109333 22.5,14.4776 L22.25,13.4776 M24,19.7276 C23.5666667,20.1942667 23.0666667,20.4276 22.5,20.4276 C21.7,20.4276 21.1333333,20.1276 20.8,19.5276 L20.5,18.4776 C20.5,17.0776 21.1666667,16.4442667 22.5,16.5776 C23.2666667,16.6442667 23.8166667,16.8942667 24.15,17.3276 C23.8833333,17.6276 23.75,18.0942667 23.75,18.7276 L24,19.7276 M4.75,18.2276 C4.75,16.8942667 5.41666667,16.2109333 6.75,16.1776 C8.08333333,16.1776 8.75,16.8776 8.75,18.2776 C8.75,18.6442667 8.6,19.0276 8.3,19.4276 C7.9,19.9276 7.38333333,20.1776 6.75,20.1776 C5.95,20.1776 5.38333333,19.8776 5.05,19.2776 L4.75,18.2276" id="Shape" fill="#FF9F5F"></path>
                    <path d="M12.5,7.9776 C12.5,6.5776 13.1666667,5.94426667 14.5,6.0776 C15.8333333,6.1776 16.5,6.8276 16.5,8.0276 C16.5,8.36093333 16.35,8.7276 16.05,9.1276 C15.6166667,9.66093333 15.1,9.9276 14.5,9.9276 C13.6666667,9.9276 13.0833333,9.6276 12.75,9.0276 L12.5,7.9776 M16.75,13.5276 L16.5,12.4776 C16.5,11.0776 17.1666667,10.4442667 18.5,10.5776 C19.8333333,10.6776 20.5,11.3276 20.5,12.5276 C20.5,12.8609333 20.35,13.2276 20.05,13.6276 C19.6166667,14.1609333 19.1,14.4276 18.5,14.4276 C17.6666667,14.4276 17.0833333,14.1276 16.75,13.5276 M21.5,7.9776 C21.5,6.64426667 22.1666667,5.9776 23.5,5.9776 C24.8333333,5.94426667 25.5,6.6276 25.5,8.0276 C25.5,8.36093333 25.35,8.7276 25.05,9.1276 C24.6166667,9.66093333 24.1,9.9276 23.5,9.9276 C22.6666667,9.9276 22.0833333,9.6276 21.75,9.0276 L21.5,7.9776 M24.15,17.3276 C24.4833333,16.9276 25.0166667,16.7609333 25.75,16.8276 C27.0833333,16.9609333 27.75,17.6109333 27.75,18.7776 C27.75,19.1442667 27.6,19.5276 27.3,19.9276 C26.9,20.4276 26.3833333,20.6776 25.75,20.6776 C24.95,20.6776 24.3666667,20.3609333 24,19.7276 L23.75,18.7276 C23.75,18.0942667 23.8833333,17.6276 24.15,17.3276 M12,21.6776 C11.2,21.6776 10.6333333,21.3776 10.3,20.7776 L10,19.7276 C10,18.2276 10.7166667,17.4109333 12.15,17.2776 C13.55,17.1442667 14.25,17.8109333 14.25,19.2776 C14.25,19.6109333 14.0833333,20.0442667 13.75,20.5776 C13.2833333,21.3109333 12.7,21.6776 12,21.6776" id="Shape" fill="#D64700"></path>
                    <path d="M27.5,11.3776 C28.5,14.4442667 29,16.7276 29,18.2276 C29,20.5609333 27.5166667,21.8442667 24.55,22.0776 L18.75,21.9276 L11.4,22.0276 L8.85,22.1776 C6.41666667,22.1776 4.21666667,21.1109333 2.25,18.9776 C0.75,17.3442667 0,16.1776 0,15.4776 L0.1,14.5276 C0.233333333,14.1942667 0.533333333,13.9109333 1,13.6776 L3.25,13.5276 L5.5,13.1776 L7.15,11.8276 C8.25,11.0609333 9.45,10.6609333 10.75,10.6276 C14.8166667,-0.239066667 19.05,-2.7724 23.45,3.0276 C24.9833333,5.06093333 26.3333333,7.84426667 27.5,11.3776 L27.5,11.3776 Z" id="Path" stroke="#000000" stroke-width="2" stroke-linecap="round" stroke-linejoin="round"></path>
                </g>
                <path d="M73.9,2.3 C76.7666667,3.5 79.35,5.16666667 81.65,7.3 C83.95,9.46666667 85.7666667,11.9666667 87.1,14.8 C88.4666667,17.7 89.25,20.7666667 89.45,24 L89.5,59.5 L39.5,59.5 C39.3666667,57.0666667 38.4333333,55 36.7,53.3 C34.8666667,51.4333333 6.13333333,50.6817005 3.5,50.6817005 L-7,50.6817005 C-9.56666667,50.6817005 -12.0333333,50.1817005 -14.4,49.1817005 C-16.6666667,48.2150338 -18.6833333,46.8650338 -20.45,45.1317005 C-22.1833333,43.3650338 -23.5333333,41.3483671 -24.5,39.0817005 C-25.5,36.7150338 -26,34.2483671 -26,31.6817005 L-26,0.681700475 L64.5,0.5 C67.7666667,0.5 70.9,1.1 73.9,2.3 Z" id="Path" fill="url(#radialGradient-1)"></path>
                <path d="M73.9,2.3 C76.7666667,3.5 79.35,5.16666667 81.65,7.3 C83.95,9.46666667 85.7666667,11.9666667 87.1,14.8 C88.4666667,17.7 89.25,20.7666667 89.45,24 L89.5,59.5 L39.5,59.5 C39.3666667,57.0666667 38.4333333,55 36.7,53.3 C34.8666667,51.4333333 6.13333333,50.6817005 3.5,50.6817005 L-7,50.6817005 C-9.56666667,50.6817005 -12.0333333,50.1817005 -14.4,49.1817005 C-16.6666667,48.2150338 -18.6833333,46.8650338 -20.45,45.1317005 C-22.1833333,43.3650338 -23.5333333,41.3483671 -24.5,39.0817005 C-25.5,36.7150338 -26,34.2483671 -26,31.6817005 L-26,0.681700475 L64.5,0.5 C67.7666667,0.5 70.9,1.1 73.9,2.3 Z" id="Path" stroke="#000000" stroke-linecap="round" stroke-linejoin="round"></path>
            </g>
            <g id="Click-to-open-Copy" transform="translate(62.55, 96.5)" fill="#FFFFFF" fill-rule="nonzero">
                <path d="M6.20581055,7.23925781 L7.06518555,7.50244141 C6.8754069,8.38688151 6.54329427,9.04663086 6.06884766,9.48168945 C5.59440104,9.91674805 5.01700846,10.1342773 4.33666992,10.1342773 C3.73868815,10.1342773 3.22753906,9.98836263 2.80322266,9.6965332 C2.37890625,9.40470378 2.03157552,8.93652344 1.76123047,8.29199219 C1.49088542,7.64746094 1.35571289,6.88655599 1.35571289,6.00927734 C1.35571289,5.14274089 1.49088542,4.40958659 1.76123047,3.80981445 C2.03157552,3.21004232 2.39770508,2.75708008 2.85961914,2.45092773 C3.3215332,2.14477539 3.8371582,1.99169922 4.40649414,1.99169922 C5.02954102,1.99169922 5.56486003,2.18595378 6.01245117,2.57446289 C6.46004232,2.96297201 6.77335612,3.53320312 6.95239258,4.28515625 L6.11450195,4.52685547 C5.82804362,3.43115234 5.25333659,2.88330078 4.39038086,2.88330078 C3.96069336,2.88330078 3.58829753,2.9934082 3.27319336,3.21362305 C2.95808919,3.43383789 2.70654297,3.77669271 2.51855469,4.2421875 C2.33056641,4.70768229 2.23657227,5.29671224 2.23657227,6.00927734 C2.23657227,7.08707682 2.42635091,7.89542643 2.8059082,8.43432617 C3.18546549,8.97322591 3.69034831,9.24267578 4.32055664,9.24267578 C4.78605143,9.24267578 5.18798828,9.07706706 5.52636719,8.74584961 C5.86474609,8.41463216 6.09122721,7.9124349 6.20581055,7.23925781 Z" id="Path"></path>
                <polygon id="Path" points="7.99438477 10 7.99438477 2.12597656 8.78393555 2.12597656 8.78393555 10"></polygon>
                <path d="M10.0192871,3.23779297 L10.0192871,2.12597656 L10.8088379,2.12597656 L10.8088379,3.23779297 L10.0192871,3.23779297 Z M10.0192871,10 L10.0192871,4.29589844 L10.8088379,4.29589844 L10.8088379,10 L10.0192871,10 Z" id="Shape"></path>
                <path d="M15.0895996,7.91064453 L15.8684082,8.03417969 C15.77889,8.71451823 15.5541992,9.23372396 15.1943359,9.59179688 C14.8344727,9.94986979 14.4020996,10.1289062 13.8972168,10.1289062 C13.2849121,10.1289062 12.7809245,9.87736003 12.3852539,9.37426758 C11.9895833,8.87117513 11.791748,8.12727865 11.791748,7.14257812 C11.791748,6.15071615 11.9913737,5.40681966 12.390625,4.91088867 C12.7898763,4.41495768 13.3028158,4.16699219 13.9294434,4.16699219 C14.4128418,4.16699219 14.8201497,4.31738281 15.1513672,4.61816406 C15.4825846,4.91894531 15.6947428,5.37011719 15.7878418,5.97167969 L15.0197754,6.11669922 C14.9445801,5.72998047 14.8138835,5.44083659 14.6276855,5.24926758 C14.4414876,5.05769857 14.2176921,4.96191406 13.9562988,4.96191406 C13.5659993,4.96191406 13.2428385,5.13468424 12.9868164,5.48022461 C12.7307943,5.82576497 12.6027832,6.37451172 12.6027832,7.12646484 C12.6027832,7.90348307 12.7254232,8.46565755 12.9707031,8.81298828 C13.2159831,9.16031901 13.5301921,9.33398438 13.9133301,9.33398438 C14.2141113,9.33398438 14.4710286,9.21850586 14.684082,8.98754883 C14.8971354,8.7565918 15.0323079,8.3976237 15.0895996,7.91064453 Z" id="Path"></path>
                <polygon id="Path" points="16.5559082 10 16.5559082 2.12597656 17.345459 2.12597656 17.345459 6.61621094 19.2253418 4.29589844 20.2512207 4.29589844 18.4626465 6.41210938 20.4284668 10 19.4562988 10 17.9040527 7.08349609 17.345459 7.73876953 17.345459 10"></polygon>
                <path d="M25.3215332,9.13525391 L25.4289551,9.98925781 C25.2105306,10.0465495 25.0135905,10.0751953 24.8381348,10.0751953 C24.5624186,10.0751953 24.3404134,10.0205892 24.1721191,9.91137695 C24.0038249,9.80216471 23.8883464,9.65266927 23.8256836,9.46289062 C23.7630208,9.27311198 23.7316895,8.89534505 23.7316895,8.32958984 L23.7316895,5.04785156 L23.1516113,5.04785156 L23.1516113,4.29589844 L23.7316895,4.29589844 L23.7316895,2.88330078 L24.5212402,2.30322266 L24.5212402,4.29589844 L25.3215332,4.29589844 L25.3215332,5.04785156 L24.5212402,5.04785156 L24.5212402,8.38330078 C24.5212402,8.69124349 24.544515,8.88997396 24.5910645,8.97949219 C24.6590983,9.10839844 24.7862142,9.17285156 24.9724121,9.17285156 C25.0619303,9.17285156 25.178304,9.16031901 25.3215332,9.13525391 Z" id="Path"></path>
                <path d="M25.767334,7.14794922 C25.767334,6.1632487 25.9741211,5.4202474 26.3876953,4.91894531 C26.8012695,4.41764323 27.3249512,4.16699219 27.9587402,4.16699219 C28.5817871,4.16699219 29.1027832,4.41764323 29.5217285,4.91894531 C29.9406738,5.4202474 30.1501465,6.14355469 30.1501465,7.08886719 C30.1501465,8.11295573 29.9442546,8.87565104 29.5324707,9.37695312 C29.1206868,9.87825521 28.59611,10.1289062 27.9587402,10.1289062 C27.3321126,10.1289062 26.8102214,9.87736003 26.3930664,9.37426758 C25.9759115,8.87117513 25.767334,8.12906901 25.767334,7.14794922 Z M26.5783691,7.14794922 C26.5783691,7.88557943 26.7126465,8.43432617 26.9812012,8.79418945 C27.2497559,9.15405273 27.5827637,9.33398438 27.9802246,9.33398438 C28.3526204,9.33398438 28.6722005,9.15226237 28.9389648,8.78881836 C29.2057292,8.42537435 29.3391113,7.87841797 29.3391113,7.14794922 C29.3391113,6.41389974 29.204834,5.86694336 28.9362793,5.50708008 C28.6677246,5.1472168 28.3347168,4.96728516 27.9372559,4.96728516 C27.5612793,4.96728516 27.240804,5.14811198 26.9758301,5.50976562 C26.7108561,5.87141927 26.5783691,6.41748047 26.5783691,7.14794922 Z" id="Shape"></path>
                <path d="M33.2922363,7.14794922 C33.2922363,6.1632487 33.4990234,5.4202474 33.9125977,4.91894531 C34.3261719,4.41764323 34.8498535,4.16699219 35.4836426,4.16699219 C36.1066895,4.16699219 36.6276855,4.41764323 37.0466309,4.91894531 C37.4655762,5.4202474 37.6750488,6.14355469 37.6750488,7.08886719 C37.6750488,8.11295573 37.4691569,8.87565104 37.057373,9.37695312 C36.6455892,9.87825521 36.1210124,10.1289062 35.4836426,10.1289062 C34.857015,10.1289062 34.3351237,9.87736003 33.9179688,9.37426758 C33.5008138,8.87117513 33.2922363,8.12906901 33.2922363,7.14794922 Z M34.1032715,7.14794922 C34.1032715,7.88557943 34.2375488,8.43432617 34.5061035,8.79418945 C34.7746582,9.15405273 35.107666,9.33398438 35.505127,9.33398438 C35.8775228,9.33398438 36.1971029,9.15226237 36.4638672,8.78881836 C36.7306315,8.42537435 36.8640137,7.87841797 36.8640137,7.14794922 C36.8640137,6.41389974 36.7297363,5.86694336 36.4611816,5.50708008 C36.192627,5.1472168 35.8596191,4.96728516 35.4621582,4.96728516 C35.0861816,4.96728516 34.7657064,5.14811198 34.5007324,5.50976562 C34.2357585,5.87141927 34.1032715,6.41748047 34.1032715,7.14794922 Z" id="Shape"></path>
                <path d="M38.604248,12.1860352 L38.604248,4.29589844 L39.3293457,4.29589844 L39.3293457,5.03710938 C39.5083822,4.72916667 39.7071126,4.50716146 39.9255371,4.37109375 C40.1439616,4.23502604 40.3946126,4.16699219 40.6774902,4.16699219 C41.0463053,4.16699219 41.3793132,4.27620443 41.6765137,4.49462891 C41.9737142,4.71305339 42.2127279,5.04516602 42.3935547,5.4909668 C42.5743815,5.93676758 42.6647949,6.47298177 42.6647949,7.09960938 C42.6647949,8.06998698 42.4615885,8.81746419 42.0551758,9.34204102 C41.648763,9.86661784 41.1716309,10.1289062 40.6237793,10.1289062 C40.3802897,10.1289062 40.1529134,10.0662435 39.9416504,9.94091797 C39.7303874,9.81559245 39.5477702,9.63834635 39.3937988,9.40917969 L39.3937988,12.1860352 L38.604248,12.1860352 Z M39.3186035,7.18017578 C39.3186035,7.91780599 39.4421387,8.46118164 39.689209,8.81030273 C39.9362793,9.15942383 40.2352702,9.33398438 40.5861816,9.33398438 C40.9227702,9.33398438 41.2181803,9.15315755 41.4724121,8.79150391 C41.7266439,8.42985026 41.8537598,7.87125651 41.8537598,7.11572266 C41.8537598,6.37093099 41.7302246,5.8194987 41.4831543,5.46142578 C41.236084,5.10335286 40.9353027,4.92431641 40.5808105,4.92431641 C40.2621257,4.92431641 39.9720866,5.1167806 39.7106934,5.50170898 C39.4493001,5.88663737 39.3186035,6.4461263 39.3186035,7.18017578 Z" id="Shape"></path>
                <path d="M46.8220215,8.16308594 L47.6384277,8.28662109 C47.50236,8.89534505 47.2561849,9.35457357 46.8999023,9.66430664 C46.5436198,9.97403971 46.1022949,10.1289062 45.5759277,10.1289062 C44.9134928,10.1289062 44.3772786,9.87736003 43.9672852,9.37426758 C43.5572917,8.87117513 43.3522949,8.14518229 43.3522949,7.19628906 C43.3522949,6.21158854 43.559082,5.4605306 43.9726562,4.94311523 C44.3862305,4.42569987 44.9099121,4.16699219 45.5437012,4.16699219 C46.1488444,4.16699219 46.6537272,4.42122396 47.0583496,4.9296875 C47.462972,5.43815104 47.6652832,6.17399089 47.6652832,7.13720703 L47.6599121,7.39501953 L44.1687012,7.39501953 C44.2009277,8.03597005 44.349528,8.51936849 44.614502,8.84521484 C44.8794759,9.1710612 45.2017415,9.33398438 45.5812988,9.33398438 C46.1756999,9.33398438 46.5892741,8.9436849 46.8220215,8.16308594 Z M44.217041,6.60009766 L46.8273926,6.60009766 C46.7915853,6.10595703 46.6859538,5.73714193 46.510498,5.49365234 C46.2562663,5.13916016 45.9322103,4.96191406 45.5383301,4.96191406 C45.1838379,4.96191406 44.8812663,5.10961914 44.6306152,5.4050293 C44.3799642,5.70043945 44.2421061,6.09879557 44.217041,6.60009766 Z" id="Shape"></path>
                <path d="M48.6374512,10 L48.6374512,4.29589844 L49.3518066,4.29589844 L49.3518066,5.10693359 C49.5236816,4.79182943 49.7340495,4.55639648 49.9829102,4.40063477 C50.2317708,4.24487305 50.517334,4.16699219 50.8395996,4.16699219 C51.0902507,4.16699219 51.3221029,4.21622721 51.5351562,4.31469727 C51.7482096,4.41316732 51.9200846,4.54207357 52.0507812,4.70141602 C52.1814779,4.86075846 52.2790527,5.06754557 52.3435059,5.32177734 C52.407959,5.57600911 52.4401855,5.96630859 52.4401855,6.49267578 L52.4401855,10 L51.6452637,10 L51.6452637,6.53027344 C51.6452637,6.11132812 51.6094564,5.80517578 51.5378418,5.61181641 C51.4662272,5.41845703 51.3543294,5.26896159 51.2021484,5.16333008 C51.0499674,5.05769857 50.8736165,5.00488281 50.6730957,5.00488281 C50.2935384,5.00488281 49.9909668,5.14632161 49.7653809,5.42919922 C49.5397949,5.71207682 49.427002,6.19726562 49.427002,6.88476562 L49.427002,10 L48.6374512,10 Z" id="Path"></path>
            </g>
            <g id="5" transform="translate(89.05, 73.5)" fill="#FFFFFF" fill-rule="nonzero">
                <path d="M0.8515625,7.9375 L1.68408203,7.8515625 C1.74853516,8.35286458 1.89444987,8.7261556 2.12182617,8.97143555 C2.34920247,9.21671549 2.61328125,9.33935547 2.9140625,9.33935547 C3.29003906,9.33935547 3.61409505,9.16658529 3.88623047,8.82104492 C4.15836589,8.47550456 4.29443359,8.00374349 4.29443359,7.40576172 C4.29443359,6.84358724 4.1628418,6.40763346 3.8996582,6.09790039 C3.63647461,5.78816732 3.30615234,5.63330078 2.90869141,5.63330078 C2.66878255,5.63330078 2.4440918,5.70043945 2.23461914,5.8347168 C2.02514648,5.96899414 1.85953776,6.15608724 1.73779297,6.39599609 L0.991210938,6.27783203 L1.61962891,2.23339844 L4.82617188,2.23339844 L4.82617188,3.15722656 L2.25341797,3.15722656 L1.90429688,5.2734375 C2.2874349,4.94401042 2.69384766,4.77929688 3.12353516,4.77929688 C3.66422526,4.77929688 4.13419596,5.00935872 4.53344727,5.46948242 C4.93269857,5.92960612 5.13232422,6.54996745 5.13232422,7.33056641 C5.13232422,8.10042318 4.93269857,8.76017253 4.53344727,9.30981445 C4.13419596,9.85945638 3.59798177,10.1342773 2.92480469,10.1342773 C2.36621094,10.1342773 1.89444987,9.94002279 1.50952148,9.55151367 C1.1245931,9.16300456 0.905273438,8.625 0.8515625,7.9375 Z" id="Path"></path>
            </g>
        </g>
    </g>
</svg>