<?xml version="1.0" encoding="UTF-8" standalone="no"?>
<svg xmlns:ffdec="https://www.free-decompiler.com/flash" xmlns:xlink="http://www.w3.org/1999/xlink" ffdec:objectType="frame" height="26.0px" width="110.0px" xmlns="http://www.w3.org/2000/svg">
  <g transform="matrix(1.0, 0.0, 0.0, 1.0, 55.0, 13.0)">
    <use ffdec:characterId="314" height="26.0" transform="matrix(1.0, 0.0, 0.0, 1.0, -55.0, -13.0)" width="110.0" xlink:href="#shape0"/>
    <use ffdec:characterId="331" height="12.9" transform="matrix(1.0, 0.0, 0.0, 1.0, -33.4, -5.75)" width="67.8" xlink:href="#text0"/>
  </g>
  <defs>
    <g id="shape0" transform="matrix(1.0, 0.0, 0.0, 1.0, 55.0, 13.0)">
      <path d="M51.2 -9.2 Q54.9 -5.5 55.0 -0.3 L55.0 0.35 Q54.9 5.5 51.2 9.2 47.5 12.9 42.35 13.0 L-42.3 13.0 Q-47.5 12.9 -51.2 9.2 -54.9 5.5 -55.0 0.35 L-55.0 -0.3 Q-54.9 -5.5 -51.2 -9.2 -47.5 -12.9 -42.3 -13.0 L42.35 -13.0 Q47.5 -12.9 51.2 -9.2" fill="#000000" fill-opacity="0.45490196" fill-rule="evenodd" stroke="none"/>
    </g>
    <g id="text0" transform="matrix(1.0, 0.0, 0.0, 1.0, -38.6, 0.25)">
      <g transform="matrix(1.0, 0.0, 0.0, 1.0, 38.1, 0.0)">
        <use fill="#ffffff" height="12.9" transform="matrix(0.0137, 0.0, 0.0, 0.0137, 0.0, 11.0)" width="67.8" xlink:href="#font_Apple_Casual_E0"/>
        <use fill="#ffffff" height="12.9" transform="matrix(0.0137, 0.0, 0.0, 0.0137, 4.9, 11.0)" width="67.8" xlink:href="#font_Apple_Casual_n0"/>
        <use fill="#ffffff" height="12.9" transform="matrix(0.0137, 0.0, 0.0, 0.0137, 10.55, 11.0)" width="67.8" xlink:href="#font_Apple_Casual_t0"/>
        <use fill="#ffffff" height="12.9" transform="matrix(0.0137, 0.0, 0.0, 0.0137, 15.45, 11.0)" width="67.8" xlink:href="#font_Apple_Casual_e0"/>
        <use fill="#ffffff" height="12.9" transform="matrix(0.0137, 0.0, 0.0, 0.0137, 20.2, 11.0)" width="67.8" xlink:href="#font_Apple_Casual_r0"/>
        <use fill="#ffffff" height="12.9" transform="matrix(0.0137, 0.0, 0.0, 0.0137, 27.8, 11.0)" width="67.8" xlink:href="#font_Apple_Casual_R0"/>
        <use fill="#ffffff" height="12.9" transform="matrix(0.0137, 0.0, 0.0, 0.0137, 34.25, 11.0)" width="67.8" xlink:href="#font_Apple_Casual_a0"/>
        <use fill="#ffffff" height="12.9" transform="matrix(0.0137, 0.0, 0.0, 0.0137, 39.25, 11.0)" width="67.8" xlink:href="#font_Apple_Casual_c0"/>
        <use fill="#ffffff" height="12.9" transform="matrix(0.0137, 0.0, 0.0, 0.0137, 43.35, 11.0)" width="67.8" xlink:href="#font_Apple_Casual_e0"/>
      </g>
    </g>
    <g id="font_Apple_Casual_E0">
      <path d="M20.0 -123.0 L20.0 -223.0 Q20.0 -267.0 23.0 -310.0 25.0 -354.0 28.0 -397.0 31.0 -441.0 34.0 -484.0 36.0 -527.0 36.0 -570.0 36.0 -581.0 35.0 -592.0 34.0 -603.0 34.0 -613.0 33.0 -623.0 32.0 -631.0 31.0 -639.0 31.0 -645.0 31.0 -653.0 36.0 -660.0 40.0 -667.0 47.0 -672.0 53.0 -678.0 60.0 -682.0 67.0 -686.0 71.0 -689.0 73.0 -689.0 77.0 -689.0 82.0 -689.0 87.0 -689.0 92.0 -690.0 96.0 -690.0 101.0 -690.0 103.0 -690.0 130.0 -690.0 157.0 -689.0 184.0 -687.0 212.0 -685.0 239.0 -683.0 266.0 -681.0 294.0 -678.0 321.0 -677.0 324.0 -675.0 328.0 -670.0 332.0 -665.0 336.0 -659.0 339.0 -653.0 342.0 -647.0 345.0 -641.0 345.0 -636.0 345.0 -617.0 335.0 -605.0 326.0 -593.0 312.0 -586.0 298.0 -580.0 283.0 -577.0 268.0 -575.0 257.0 -575.0 251.0 -575.0 247.0 -579.0 243.0 -583.0 240.0 -587.0 236.0 -592.0 232.0 -596.0 228.0 -600.0 220.0 -600.0 L160.0 -600.0 Q159.0 -600.0 157.0 -597.0 156.0 -594.0 154.0 -591.0 153.0 -588.0 152.0 -585.0 151.0 -582.0 151.0 -582.0 L151.0 -510.0 Q151.0 -508.0 153.0 -507.0 155.0 -506.0 159.0 -505.0 162.0 -504.0 167.0 -504.0 172.0 -504.0 178.0 -504.0 186.0 -504.0 194.0 -504.0 203.0 -505.0 213.0 -505.0 222.0 -505.0 232.0 -506.0 243.0 -506.0 253.0 -506.0 270.0 -506.0 287.0 -505.0 303.0 -504.0 316.0 -500.0 329.0 -496.0 336.0 -490.0 344.0 -483.0 344.0 -473.0 344.0 -465.0 340.0 -458.0 336.0 -452.0 330.0 -447.0 324.0 -442.0 317.0 -439.0 310.0 -436.0 304.0 -435.0 301.0 -434.0 276.0 -432.0 250.0 -431.0 221.0 -428.0 192.0 -425.0 167.0 -420.0 143.0 -415.0 141.0 -409.0 138.0 -396.0 135.0 -382.0 133.0 -369.0 132.0 -355.0 130.0 -341.0 130.0 -326.0 129.0 -312.0 129.0 -298.0 129.0 -282.0 129.0 -263.0 129.0 -244.0 130.0 -223.0 130.0 -202.0 130.0 -179.0 130.0 -157.0 130.0 -134.0 130.0 -123.0 132.0 -116.0 135.0 -110.0 140.0 -107.0 145.0 -104.0 154.0 -104.0 163.0 -103.0 175.0 -103.0 186.0 -103.0 196.0 -104.0 206.0 -106.0 217.0 -107.0 227.0 -109.0 237.0 -111.0 247.0 -112.0 258.0 -112.0 270.0 -112.0 281.0 -111.0 292.0 -110.0 301.0 -105.0 310.0 -100.0 316.0 -90.0 321.0 -80.0 321.0 -62.0 321.0 -50.0 317.0 -43.0 313.0 -36.0 306.0 -32.0 299.0 -28.0 289.0 -26.0 280.0 -25.0 269.0 -25.0 263.0 -25.0 257.0 -25.0 251.0 -26.0 245.0 -26.0 239.0 -26.0 233.0 -27.0 226.0 -27.0 220.0 -27.0 205.0 -27.0 192.0 -24.0 179.0 -21.0 168.0 -17.0 156.0 -14.0 145.0 -11.0 134.0 -8.0 123.0 -8.0 108.0 -8.0 91.0 -10.0 74.0 -13.0 59.0 -20.0 44.0 -28.0 35.0 -42.0 25.0 -56.0 25.0 -80.0 25.0 -83.0 25.0 -85.0 25.0 -87.0 26.0 -89.0 26.0 -91.0 26.0 -93.0 26.0 -95.0 26.0 -97.0 26.0 -100.0 26.0 -103.0 26.0 -106.0 25.0 -109.0 24.0 -112.0 23.0 -116.0 22.0 -119.0 20.0 -123.0" fill-rule="evenodd" stroke="none"/>
    </g>
    <g id="font_Apple_Casual_n0">
      <path d="M271.0 -11.0 Q271.0 -12.0 272.0 -21.0 273.0 -29.0 275.0 -46.0 276.0 -63.0 277.0 -89.0 278.0 -116.0 278.0 -153.0 278.0 -155.0 277.0 -161.0 276.0 -167.0 275.0 -174.0 273.0 -181.0 272.0 -187.0 271.0 -193.0 271.0 -195.0 271.0 -202.0 271.0 -211.0 271.0 -219.0 270.0 -228.0 269.0 -237.0 266.0 -245.0 263.0 -253.0 256.0 -258.0 210.0 -248.0 188.0 -232.0 166.0 -217.0 157.0 -192.0 148.0 -167.0 147.0 -132.0 146.0 -96.0 142.0 -47.0 142.0 -35.0 140.0 -26.0 137.0 -16.0 132.0 -9.0 127.0 -2.0 119.0 2.0 111.0 6.0 100.0 6.0 96.0 6.0 92.0 6.0 88.0 6.0 85.0 5.0 82.0 4.0 79.0 3.0 76.0 1.0 74.0 -1.0 65.0 -2.0 60.0 -3.0 54.0 -4.0 50.0 -5.0 45.0 -7.0 41.0 -10.0 37.0 -14.0 31.0 -22.0 31.0 -60.0 30.0 -98.0 29.0 -136.0 29.0 -173.0 28.0 -211.0 27.0 -249.0 26.0 -287.0 26.0 -325.0 26.0 -329.0 25.0 -333.0 24.0 -336.0 23.0 -339.0 22.0 -342.0 21.0 -344.0 20.0 -346.0 20.0 -347.0 20.0 -359.0 30.0 -366.0 39.0 -373.0 52.0 -377.0 65.0 -381.0 77.0 -383.0 90.0 -384.0 96.0 -384.0 L141.0 -362.0 141.0 -296.0 Q165.0 -309.0 174.0 -318.0 184.0 -326.0 196.0 -330.0 207.0 -334.0 229.0 -336.0 252.0 -337.0 301.0 -337.0 307.0 -337.0 315.0 -337.0 324.0 -337.0 332.0 -336.0 341.0 -336.0 348.0 -333.0 356.0 -331.0 361.0 -326.0 367.0 -317.0 372.0 -299.0 377.0 -281.0 380.0 -260.0 383.0 -239.0 385.0 -217.0 387.0 -196.0 388.0 -178.0 388.0 -175.0 388.0 -167.0 388.0 -158.0 388.0 -146.0 387.0 -134.0 387.0 -120.0 387.0 -107.0 387.0 -95.0 387.0 -78.0 388.0 -65.0 389.0 -52.0 390.0 -42.0 391.0 -32.0 392.0 -25.0 393.0 -17.0 393.0 -13.0 393.0 -12.0 393.0 -12.0 393.0 -11.0 393.0 -10.0 392.0 -9.0 392.0 -9.0 392.0 -8.0 392.0 -8.0 392.0 -6.0 392.0 -5.0 392.0 -3.0 393.0 -2.0 393.0 0.0 393.0 1.0 393.0 2.0 393.0 3.0 393.0 9.0 388.0 13.0 382.0 17.0 375.0 19.0 367.0 21.0 360.0 21.0 353.0 22.0 349.0 22.0 340.0 22.0 329.0 20.0 317.0 18.0 307.0 15.0 296.0 11.0 286.0 4.0 277.0 -2.0 271.0 -11.0" fill-rule="evenodd" stroke="none"/>
    </g>
    <g id="font_Apple_Casual_t0">
      <path d="M148.0 -10.0 Q148.0 -24.0 147.0 -37.0 147.0 -50.0 147.0 -61.0 146.0 -72.0 146.0 -83.0 146.0 -93.0 146.0 -103.0 146.0 -119.0 146.0 -134.0 146.0 -149.0 147.0 -164.0 147.0 -179.0 147.0 -196.0 147.0 -212.0 147.0 -230.0 147.0 -240.0 147.0 -268.0 146.0 -295.0 146.0 -326.0 145.0 -357.0 144.0 -384.0 144.0 -410.0 144.0 -418.0 L140.0 -422.0 Q138.0 -422.0 134.0 -422.0 130.0 -421.0 125.0 -421.0 120.0 -421.0 113.0 -420.0 107.0 -420.0 99.0 -420.0 85.0 -420.0 69.0 -421.0 54.0 -423.0 41.0 -427.0 27.0 -432.0 19.0 -440.0 10.0 -448.0 10.0 -462.0 10.0 -476.0 20.0 -484.0 30.0 -492.0 45.0 -496.0 60.0 -501.0 78.0 -502.0 96.0 -503.0 112.0 -503.0 L142.0 -503.0 147.0 -508.0 Q147.0 -509.0 147.0 -518.0 148.0 -526.0 149.0 -538.0 149.0 -550.0 150.0 -561.0 150.0 -573.0 150.0 -580.0 150.0 -590.0 149.0 -599.0 149.0 -609.0 148.0 -618.0 147.0 -628.0 146.0 -637.0 145.0 -646.0 145.0 -655.0 153.0 -664.0 158.0 -671.0 163.0 -678.0 169.0 -682.0 174.0 -687.0 181.0 -689.0 188.0 -691.0 198.0 -691.0 209.0 -691.0 219.0 -689.0 229.0 -686.0 236.0 -681.0 244.0 -675.0 248.0 -667.0 253.0 -658.0 253.0 -645.0 253.0 -643.0 253.0 -635.0 252.0 -627.0 252.0 -616.0 251.0 -606.0 250.0 -596.0 250.0 -586.0 250.0 -581.0 250.0 -574.0 250.0 -565.0 251.0 -555.0 252.0 -544.0 252.0 -534.0 253.0 -523.0 254.0 -512.0 254.0 -503.0 L322.0 -503.0 Q325.0 -503.0 329.0 -501.0 333.0 -498.0 337.0 -495.0 340.0 -492.0 343.0 -488.0 347.0 -485.0 348.0 -482.0 345.0 -476.0 341.0 -470.0 337.0 -463.0 332.0 -457.0 327.0 -452.0 321.0 -448.0 316.0 -443.0 309.0 -442.0 300.0 -440.0 290.0 -439.0 280.0 -437.0 271.0 -435.0 263.0 -433.0 257.0 -429.0 251.0 -425.0 250.0 -418.0 249.0 -387.0 249.0 -350.0 248.0 -313.0 247.0 -276.0 247.0 -240.0 246.0 -208.0 246.0 -175.0 246.0 -153.0 246.0 -145.0 246.0 -137.0 246.0 -128.0 246.0 -119.0 246.0 -110.0 246.0 -101.0 247.0 -91.0 247.0 -80.0 247.0 -65.0 248.0 -57.0 249.0 -49.0 250.0 -44.0 252.0 -39.0 253.0 -36.0 255.0 -32.0 258.0 -25.0 258.0 -13.0 252.0 -5.0 247.0 3.0 238.0 7.0 230.0 12.0 220.0 13.0 210.0 15.0 202.0 15.0 196.0 15.0 188.0 13.0 180.0 12.0 173.0 9.0 165.0 5.0 159.0 1.0 152.0 -4.0 148.0 -10.0" fill-rule="evenodd" stroke="none"/>
    </g>
    <g id="font_Apple_Casual_e0">
      <path d="M136.0 -252.0 Q136.0 -248.0 142.0 -246.0 147.0 -243.0 155.0 -242.0 162.0 -240.0 170.0 -240.0 178.0 -239.0 184.0 -239.0 L189.0 -239.0 Q189.0 -242.0 186.0 -251.0 183.0 -260.0 179.0 -269.0 174.0 -279.0 169.0 -286.0 165.0 -293.0 160.0 -293.0 158.0 -291.0 154.0 -286.0 150.0 -281.0 146.0 -274.0 142.0 -267.0 139.0 -261.0 136.0 -255.0 136.0 -252.0 M18.0 -176.0 L18.0 -184.0 Q18.0 -200.0 20.0 -216.0 23.0 -232.0 27.0 -248.0 32.0 -264.0 39.0 -281.0 45.0 -298.0 54.0 -318.0 56.0 -321.0 61.0 -323.0 65.0 -325.0 71.0 -326.0 76.0 -328.0 81.0 -330.0 87.0 -332.0 91.0 -335.0 93.0 -338.0 99.0 -338.0 104.0 -339.0 109.0 -339.0 115.0 -340.0 119.0 -341.0 123.0 -341.0 123.0 -344.0 135.0 -346.0 144.0 -348.0 154.0 -349.0 164.0 -350.0 173.0 -350.0 183.0 -351.0 192.0 -351.0 204.0 -351.0 227.0 -351.0 239.0 -347.0 252.0 -343.0 259.0 -335.0 267.0 -326.0 272.0 -313.0 277.0 -300.0 285.0 -281.0 287.0 -275.0 291.0 -266.0 294.0 -257.0 297.0 -248.0 300.0 -240.0 303.0 -234.0 305.0 -227.0 305.0 -227.0 305.0 -227.0 305.0 -227.0 306.0 -226.0 306.0 -225.0 306.0 -225.0 307.0 -224.0 307.0 -223.0 307.0 -223.0 307.0 -207.0 297.0 -199.0 286.0 -191.0 271.0 -187.0 257.0 -183.0 241.0 -183.0 225.0 -183.0 214.0 -183.0 L131.0 -183.0 Q132.0 -165.0 133.0 -148.0 134.0 -131.0 138.0 -114.0 141.0 -98.0 147.0 -81.0 154.0 -65.0 165.0 -50.0 166.0 -48.0 167.0 -46.0 168.0 -44.0 170.0 -42.0 171.0 -40.0 173.0 -38.0 174.0 -37.0 177.0 -37.0 187.0 -38.0 199.0 -50.0 211.0 -62.0 223.0 -76.0 234.0 -90.0 244.0 -101.0 253.0 -112.0 259.0 -112.0 L315.0 -113.0 Q318.0 -113.0 322.0 -111.0 326.0 -108.0 330.0 -105.0 334.0 -101.0 336.0 -97.0 339.0 -93.0 339.0 -90.0 339.0 -90.0 328.0 -71.0 317.0 -53.0 297.0 -31.0 277.0 -9.0 250.0 10.0 222.0 28.0 188.0 28.0 182.0 28.0 168.0 26.0 155.0 25.0 141.0 23.0 127.0 20.0 116.0 18.0 104.0 16.0 102.0 14.0 76.0 5.0 60.0 -18.0 44.0 -41.0 35.0 -69.0 26.0 -98.0 23.0 -126.0 20.0 -155.0 18.0 -176.0" fill-rule="evenodd" stroke="none"/>
    </g>
    <g id="font_Apple_Casual_r0">
      <path d="M24.0 -47.0 Q21.0 -89.0 21.0 -129.0 22.0 -168.0 24.0 -207.0 25.0 -247.0 25.0 -286.0 25.0 -326.0 20.0 -368.0 24.0 -375.0 29.0 -378.0 34.0 -381.0 40.0 -383.0 46.0 -384.0 53.0 -385.0 60.0 -385.0 67.0 -387.0 67.0 -387.0 71.0 -388.0 74.0 -389.0 79.0 -390.0 83.0 -391.0 87.0 -392.0 91.0 -393.0 92.0 -393.0 L96.0 -393.0 Q102.0 -393.0 107.0 -391.0 112.0 -388.0 116.0 -383.0 120.0 -379.0 122.0 -373.0 125.0 -368.0 125.0 -362.0 125.0 -354.0 125.0 -353.0 125.0 -351.0 125.0 -351.0 125.0 -350.0 125.0 -348.0 125.0 -347.0 125.0 -338.0 127.0 -338.0 132.0 -338.0 136.0 -337.0 142.0 -337.0 147.0 -337.0 151.0 -338.0 156.0 -338.0 158.0 -339.0 172.0 -340.0 184.0 -343.0 196.0 -346.0 208.0 -348.0 220.0 -351.0 232.0 -353.0 244.0 -355.0 257.0 -356.0 L284.0 -356.0 Q288.0 -355.0 292.0 -353.0 296.0 -351.0 299.0 -348.0 302.0 -345.0 304.0 -341.0 307.0 -337.0 307.0 -333.0 307.0 -332.0 307.0 -331.0 307.0 -330.0 307.0 -329.0 307.0 -328.0 307.0 -327.0 307.0 -326.0 307.0 -326.0 306.0 -324.0 302.0 -319.0 299.0 -314.0 294.0 -309.0 290.0 -304.0 285.0 -299.0 281.0 -295.0 279.0 -294.0 278.0 -293.0 273.0 -292.0 269.0 -291.0 264.0 -290.0 259.0 -289.0 254.0 -289.0 250.0 -288.0 248.0 -288.0 248.0 -288.0 244.0 -287.0 241.0 -286.0 237.0 -285.0 233.0 -284.0 229.0 -283.0 225.0 -282.0 224.0 -282.0 222.0 -282.0 214.0 -280.0 207.0 -279.0 198.0 -278.0 189.0 -277.0 182.0 -276.0 174.0 -275.0 172.0 -275.0 150.0 -277.0 142.0 -245.0 135.0 -214.0 135.0 -174.0 134.0 -133.0 138.0 -97.0 142.0 -60.0 142.0 -52.0 142.0 -46.0 143.0 -38.0 143.0 -30.0 142.0 -22.0 141.0 -15.0 138.0 -8.0 134.0 -1.0 128.0 2.0 127.0 2.0 124.0 3.0 122.0 3.0 119.0 3.0 116.0 3.0 114.0 3.0 112.0 3.0 111.0 3.0 103.0 3.0 96.0 3.0 90.0 2.0 83.0 1.0 76.0 -1.0 70.0 -3.0 63.0 -5.0 55.0 -8.0 55.0 -8.0 54.0 -8.0 54.0 -8.0 54.0 -8.0 54.0 -9.0 54.0 -9.0 53.0 -9.0 53.0 -9.0 45.0 -11.0 40.0 -14.0 35.0 -17.0 31.0 -22.0 28.0 -26.0 26.0 -32.0 25.0 -38.0 24.0 -47.0" fill-rule="evenodd" stroke="none"/>
    </g>
    <g id="font_Apple_Casual_R0">
      <path d="M148.0 -417.0 Q148.0 -415.0 148.0 -412.0 149.0 -409.0 149.0 -406.0 150.0 -403.0 150.0 -401.0 151.0 -398.0 151.0 -398.0 L160.0 -393.0 Q161.0 -393.0 167.0 -395.0 172.0 -396.0 180.0 -399.0 187.0 -401.0 195.0 -404.0 203.0 -407.0 207.0 -410.0 232.0 -421.0 249.0 -437.0 266.0 -452.0 277.0 -469.0 288.0 -486.0 295.0 -503.0 302.0 -520.0 306.0 -535.0 306.0 -549.0 304.0 -562.0 303.0 -575.0 298.0 -586.0 294.0 -598.0 286.0 -609.0 278.0 -619.0 266.0 -629.0 L265.0 -629.0 Q261.0 -629.0 246.0 -629.0 231.0 -628.0 213.0 -625.0 195.0 -622.0 178.0 -615.0 161.0 -607.0 153.0 -594.0 153.0 -572.0 152.0 -550.0 151.0 -527.0 151.0 -505.0 150.0 -483.0 149.0 -461.0 148.0 -439.0 148.0 -417.0 M324.0 -40.0 Q300.0 -88.0 278.0 -131.0 256.0 -175.0 236.0 -213.0 215.0 -251.0 196.0 -281.0 177.0 -312.0 157.0 -334.0 150.0 -334.0 146.0 -331.0 142.0 -329.0 141.0 -320.0 140.0 -311.0 140.0 -294.0 140.0 -277.0 140.0 -247.0 140.0 -247.0 141.0 -228.0 142.0 -209.0 144.0 -185.0 146.0 -161.0 148.0 -140.0 150.0 -118.0 151.0 -113.0 151.0 -102.0 154.0 -92.0 157.0 -82.0 160.0 -72.0 163.0 -63.0 166.0 -54.0 169.0 -45.0 169.0 -37.0 165.0 -30.0 159.0 -25.0 153.0 -19.0 146.0 -16.0 139.0 -12.0 131.0 -11.0 124.0 -9.0 117.0 -9.0 115.0 -9.0 113.0 -9.0 111.0 -9.0 108.0 -10.0 106.0 -11.0 104.0 -12.0 102.0 -12.0 101.0 -14.0 101.0 -14.0 98.0 -14.0 96.0 -14.0 93.0 -13.0 89.0 -13.0 86.0 -13.0 82.0 -13.0 79.0 -13.0 67.0 -13.0 60.0 -18.0 53.0 -24.0 49.0 -32.0 46.0 -40.0 44.0 -50.0 43.0 -59.0 43.0 -68.0 43.0 -81.0 41.0 -91.0 40.0 -101.0 38.0 -113.0 36.0 -125.0 35.0 -142.0 33.0 -158.0 33.0 -184.0 33.0 -192.0 33.0 -205.0 32.0 -217.0 32.0 -230.0 31.0 -243.0 31.0 -252.0 30.0 -262.0 30.0 -264.0 31.0 -289.0 31.0 -320.0 31.0 -350.0 32.0 -381.0 32.0 -413.0 33.0 -444.0 35.0 -476.0 38.0 -505.0 38.0 -505.0 38.0 -508.0 38.0 -510.0 39.0 -514.0 39.0 -518.0 39.0 -523.0 39.0 -528.0 39.0 -534.0 39.0 -544.0 38.0 -557.0 38.0 -570.0 36.0 -582.0 33.0 -595.0 30.0 -605.0 26.0 -615.0 20.0 -621.0 20.0 -626.0 32.0 -634.0 44.0 -641.0 59.0 -649.0 75.0 -656.0 89.0 -662.0 104.0 -667.0 109.0 -669.0 111.0 -669.0 120.0 -672.0 130.0 -675.0 140.0 -679.0 151.0 -683.0 160.0 -686.0 169.0 -690.0 171.0 -691.0 181.0 -694.0 193.0 -695.0 204.0 -696.0 216.0 -697.0 229.0 -698.0 242.0 -698.0 255.0 -698.0 269.0 -698.0 273.0 -698.0 282.0 -697.0 292.0 -696.0 303.0 -695.0 314.0 -694.0 324.0 -693.0 333.0 -692.0 337.0 -691.0 360.0 -675.0 376.0 -663.0 392.0 -650.0 402.0 -636.0 412.0 -622.0 417.0 -602.0 421.0 -582.0 421.0 -551.0 421.0 -534.0 418.0 -516.0 414.0 -498.0 408.0 -481.0 401.0 -465.0 391.0 -450.0 381.0 -436.0 368.0 -427.0 359.0 -415.0 347.0 -403.0 335.0 -390.0 322.0 -378.0 308.0 -367.0 294.0 -356.0 279.0 -346.0 263.0 -339.0 271.0 -328.0 278.0 -317.0 285.0 -306.0 293.0 -296.0 300.0 -285.0 308.0 -275.0 315.0 -264.0 322.0 -254.0 322.0 -254.0 343.0 -222.0 364.0 -189.0 389.0 -149.0 414.0 -109.0 435.0 -73.0 456.0 -38.0 456.0 -31.0 456.0 -23.0 452.0 -18.0 449.0 -12.0 443.0 -8.0 437.0 -4.0 431.0 -2.0 424.0 0.0 418.0 0.0 408.0 0.0 394.0 -3.0 381.0 -6.0 367.0 -12.0 354.0 -17.0 342.0 -24.0 330.0 -32.0 324.0 -40.0" fill-rule="evenodd" stroke="none"/>
    </g>
    <g id="font_Apple_Casual_a0">
      <path d="M131.0 -108.0 Q132.0 -106.0 133.0 -105.0 134.0 -103.0 136.0 -103.0 137.0 -102.0 138.0 -102.0 140.0 -102.0 141.0 -102.0 150.0 -102.0 160.0 -108.0 170.0 -114.0 178.0 -130.0 186.0 -145.0 191.0 -172.0 196.0 -198.0 196.0 -238.0 196.0 -249.0 195.0 -256.0 193.0 -263.0 190.0 -268.0 186.0 -272.0 180.0 -274.0 174.0 -276.0 164.0 -276.0 152.0 -276.0 146.0 -259.0 139.0 -241.0 136.0 -219.0 133.0 -196.0 132.0 -174.0 131.0 -152.0 131.0 -143.0 L131.0 -108.0 M244.0 -72.0 Q235.0 -54.0 227.0 -40.0 219.0 -27.0 208.0 -18.0 196.0 -9.0 180.0 -4.0 165.0 0.0 141.0 0.0 124.0 0.0 106.0 -3.0 87.0 -5.0 70.0 -13.0 54.0 -21.0 41.0 -36.0 28.0 -50.0 22.0 -74.0 20.0 -86.0 18.0 -130.0 17.0 -175.0 26.0 -224.0 34.0 -272.0 58.0 -311.0 81.0 -350.0 129.0 -350.0 138.0 -350.0 147.0 -349.0 156.0 -348.0 165.0 -347.0 173.0 -347.0 182.0 -346.0 191.0 -345.0 200.0 -345.0 202.0 -345.0 209.0 -352.0 216.0 -360.0 226.0 -367.0 237.0 -374.0 250.0 -376.0 264.0 -379.0 280.0 -369.0 289.0 -370.0 296.0 -358.0 303.0 -347.0 309.0 -328.0 314.0 -310.0 316.0 -287.0 319.0 -265.0 319.0 -243.0 319.0 -228.0 319.0 -219.0 318.0 -209.0 318.0 -202.0 318.0 -195.0 317.0 -190.0 317.0 -184.0 317.0 -178.0 317.0 -148.0 321.0 -126.0 325.0 -103.0 331.0 -87.0 336.0 -70.0 340.0 -58.0 344.0 -47.0 344.0 -38.0 344.0 -32.0 341.0 -27.0 339.0 -22.0 333.0 -18.0 326.0 -13.0 316.0 -9.0 305.0 -4.0 289.0 0.0 285.0 0.0 277.0 -4.0 270.0 -8.0 262.0 -16.0 255.0 -25.0 249.0 -38.0 244.0 -52.0 244.0 -72.0" fill-rule="evenodd" stroke="none"/>
    </g>
    <g id="font_Apple_Casual_c0">
      <path d="M135.0 -262.0 Q131.0 -255.0 126.0 -243.0 122.0 -231.0 119.0 -217.0 115.0 -202.0 113.0 -185.0 111.0 -168.0 111.0 -151.0 111.0 -134.0 113.0 -120.0 114.0 -106.0 119.0 -97.0 124.0 -87.0 133.0 -81.0 142.0 -76.0 156.0 -76.0 168.0 -76.0 177.0 -80.0 187.0 -84.0 194.0 -91.0 202.0 -97.0 208.0 -106.0 213.0 -115.0 217.0 -125.0 L238.0 -134.0 Q252.0 -133.0 261.0 -127.0 270.0 -121.0 275.0 -113.0 280.0 -105.0 283.0 -96.0 285.0 -87.0 286.0 -80.0 274.0 -50.0 259.0 -32.0 243.0 -15.0 224.0 -6.0 205.0 3.0 182.0 5.0 159.0 7.0 132.0 7.0 111.0 7.0 92.0 -1.0 73.0 -10.0 58.0 -23.0 43.0 -37.0 32.0 -54.0 22.0 -71.0 18.0 -89.0 18.0 -147.0 21.0 -185.0 24.0 -222.0 30.0 -246.0 35.0 -271.0 42.0 -287.0 50.0 -304.0 59.0 -321.0 L68.0 -336.0 Q73.0 -347.0 91.0 -354.0 109.0 -361.0 129.0 -366.0 149.0 -370.0 167.0 -372.0 185.0 -374.0 190.0 -374.0 L201.0 -374.0 Q204.0 -374.0 215.0 -368.0 227.0 -363.0 239.0 -351.0 251.0 -340.0 261.0 -324.0 272.0 -308.0 273.0 -287.0 273.0 -275.0 268.0 -266.0 263.0 -257.0 255.0 -252.0 247.0 -247.0 238.0 -244.0 228.0 -242.0 218.0 -242.0 207.0 -242.0 203.0 -243.0 200.0 -245.0 197.0 -248.0 194.0 -251.0 188.0 -257.0 183.0 -263.0 168.0 -272.0 168.0 -275.0 166.0 -277.0 164.0 -279.0 162.0 -281.0 160.0 -283.0 157.0 -284.0 155.0 -285.0 154.0 -285.0 151.0 -285.0 149.0 -283.0 146.0 -280.0 143.0 -277.0 140.0 -273.0 138.0 -269.0 136.0 -265.0 135.0 -262.0" fill-rule="evenodd" stroke="none"/>
    </g>
  </defs>
</svg>
