<?xml version="1.0" encoding="UTF-8" standalone="no"?>
<svg xmlns:ffdec="https://www.free-decompiler.com/flash" xmlns:xlink="http://www.w3.org/1999/xlink" ffdec:objectType="shape" height="84.0px" width="33.85px" xmlns="http://www.w3.org/2000/svg">
  <g transform="matrix(1.0, 0.0, 0.0, 1.0, 14.2, 42.0)">
    <path d="M-8.9 -15.0 Q-13.1 -19.4 -13.1 -25.55 -13.1 -31.95 -8.55 -36.45 L-6.05 -38.55 Q-2.35 -41.0 2.4 -41.0 8.75 -41.0 13.3 -36.45 16.45 -33.3 17.4 -29.15 17.8 -27.45 17.8 -25.55 17.8 -21.35 15.85 -17.95 L15.2 -14.85 15.2 -14.65 Q16.75 -13.25 17.1 -12.5 L17.4 -11.75 Q18.9 -7.9 18.6 -4.05 18.55 -2.4 18.1 -0.8 L18.1 -0.7 Q16.35 4.6 15.2 10.1 L14.8 12.2 14.55 13.4 14.25 15.05 Q15.15 19.05 12.9 23.2 L12.9 33.4 14.0 37.5 11.75 41.0 -8.85 41.0 -12.2 39.55 -13.2 36.5 -10.7 34.55 -5.15 32.3 -5.15 22.8 -8.05 15.4 Q-11.1 7.5 -10.3 2.55 -15.35 -1.6 -10.05 -14.15 L-8.85 -14.15 -8.8 -14.3 -7.35 -14.3 -7.15 -14.9 -8.75 -14.9 -8.9 -15.0 M-0.7 -7.85 Q-2.85 -2.1 -2.3 4.35 L-0.55 7.4 1.75 9.65 3.95 9.65 4.95 11.5 6.85 12.3 8.45 11.3 10.7 13.55 Q14.65 0.4 12.8 -12.7 14.65 0.4 10.7 13.55 L8.45 11.3 6.85 12.3 4.95 11.5 3.95 9.65 1.75 9.65 -0.55 7.4 -2.3 4.35 Q-2.85 -2.1 -0.7 -7.85" fill="url(#gradient0)" fill-rule="evenodd" stroke="none"/>
    <path d="M-8.9 -15.0 L-8.75 -14.9 -9.0 -14.9 -8.9 -15.0" fill="#ffff42" fill-rule="evenodd" stroke="none"/>
    <path d="M15.85 -17.95 Q17.8 -21.35 17.8 -25.55 17.8 -27.45 17.4 -29.15 16.45 -33.3 13.3 -36.45 8.75 -41.0 2.4 -41.0 -2.35 -41.0 -6.05 -38.55 L-8.55 -36.45 Q-13.1 -31.95 -13.1 -25.55 -13.1 -19.4 -8.9 -15.0 L-8.75 -14.9 M-5.15 32.3 L-10.7 34.55 -13.2 36.5 -12.2 39.55 -8.85 41.0 11.75 41.0 14.0 37.5 12.9 33.4 12.9 23.2" fill="none" stroke="#000000" stroke-linecap="round" stroke-linejoin="round" stroke-width="2.0"/>
    <path d="M-7.15 -14.9 L-7.35 -14.3 M-8.8 -14.3 L-8.85 -14.15 M-10.05 -14.15 Q-15.35 -1.6 -10.3 2.55 -11.1 7.5 -8.05 15.4 L-5.15 22.8 -5.15 32.3 M12.9 23.2 Q15.15 19.05 14.25 15.05 L14.55 13.4 14.8 12.2 15.2 10.1 Q16.35 4.6 18.1 -0.7 L18.1 -0.8 Q18.55 -2.4 18.6 -4.05 18.9 -7.9 17.4 -11.75 L17.1 -12.5 Q16.75 -13.25 15.2 -14.65 L15.2 -14.85 15.85 -17.95 M-8.9 -15.0 L-9.0 -14.9" fill="none" stroke="#000000" stroke-linecap="butt" stroke-linejoin="round" stroke-width="2.0"/>
    <path d="M12.8 -12.7 Q14.65 0.4 10.7 13.55 L8.45 11.3 6.85 12.3 4.95 11.5 3.95 9.65 1.75 9.65 -0.55 7.4 -2.3 4.35 Q-2.85 -2.1 -0.7 -7.85" fill="none" stroke="#000000" stroke-linecap="round" stroke-linejoin="round" stroke-width="1.0"/>
  </g>
  <defs>
    <linearGradient gradientTransform="matrix(0.0, 0.0478, 0.0194, 0.0, 2.7, 0.2)" gradientUnits="userSpaceOnUse" id="gradient0" spreadMethod="pad" x1="-819.2" x2="819.2">
      <stop offset="0.0" stop-color="#fc6363"/>
      <stop offset="1.0" stop-color="#cb3232"/>
      <stop offset="1.0" stop-color="#f8f800"/>
      <stop offset="1.0" stop-color="#f8f800"/>
    </linearGradient>
  </defs>
</svg>
