<?xml version="1.0" encoding="UTF-8" standalone="no"?>
<svg xmlns:ffdec="https://www.free-decompiler.com/flash" xmlns:xlink="http://www.w3.org/1999/xlink" ffdec:objectType="shape" height="57.0px" width="42.0px" xmlns="http://www.w3.org/2000/svg">
  <g transform="matrix(1.0, 0.0, 0.0, 1.0, 21.0, 28.5)">
    <path d="M14.9 -10.5 L13.8 -9.8 Q13.3 -7.0 11.7 -4.65 L11.5 -4.1 Q11.5 -3.85 11.65 -3.55 14.0 0.2 14.0 5.0 14.0 11.85 9.2 16.7 4.35 21.5 -2.5 21.5 L-4.8 21.35 Q-10.2 20.65 -14.15 16.7 -19.0 11.85 -19.0 5.0 -19.0 -1.85 -14.15 -6.65 L-14.05 -6.7 -13.65 -7.1 -13.35 -7.6 -13.35 -8.2 Q-14.0 -10.2 -14.0 -12.5 -14.0 -18.3 -9.9 -22.4 -5.8 -26.5 0.0 -26.5 5.85 -26.5 9.9 -22.4 12.8 -19.5 13.7 -15.7 L14.8 -15.15 14.8 -15.1 14.8 -15.15 15.65 -14.75 15.65 -14.65 14.8 -15.1 15.0 -12.5 15.0 -11.45 14.9 -10.5 M6.2 -22.35 L5.1 -22.5 5.0 -22.5 4.9 -22.5 4.2 -22.4 Q2.6 -22.2 1.45 -21.05 0.0 -19.55 0.0 -17.5 0.0 -15.4 1.45 -13.95 2.95 -12.5 5.0 -12.5 6.3 -12.5 7.35 -13.05 L8.55 -13.95 9.45 -15.15 9.75 -15.75 9.8 -16.0 10.0 -17.5 9.95 -18.25 9.4 -19.8 9.0 -20.5 8.55 -21.05 8.5 -21.1 8.25 -21.35 7.3 -21.9 6.75 -22.15 6.7 -22.15 6.5 -22.25 6.2 -22.35" fill="#ffff00" fill-rule="evenodd" stroke="none"/>
    <path d="M14.85 -10.2 L14.9 -10.5 15.0 -11.45 15.0 -12.5 14.8 -15.1 15.65 -14.65 20.0 -12.5 14.85 -10.2 M20.0 -12.5 L15.0 -12.5 20.0 -12.5" fill="#ffcc00" fill-rule="evenodd" stroke="none"/>
    <path d="M7.35 -13.05 Q6.3 -12.5 5.0 -12.5 2.95 -12.5 1.45 -13.95 0.0 -15.4 0.0 -17.5 0.0 -19.55 1.45 -21.05 2.6 -22.2 4.2 -22.4 L4.9 -22.5 5.0 -22.5 5.1 -22.5 6.2 -22.35 6.5 -22.25 6.7 -22.15 6.75 -22.15 7.3 -21.9 Q6.0 -21.7 5.0 -20.7 3.65 -19.35 3.7 -17.5 3.7 -15.6 5.0 -14.3 6.0 -13.3 7.35 -13.05" fill="#ffffff" fill-rule="evenodd" stroke="none"/>
    <path d="M7.35 -13.05 Q6.0 -13.3 5.0 -14.3 3.7 -15.6 3.7 -17.5 3.65 -19.35 5.0 -20.7 6.0 -21.7 7.3 -21.9 L8.25 -21.35 8.5 -21.1 8.55 -21.05 9.0 -20.5 9.4 -19.8 8.55 -19.95 Q7.45 -19.95 6.75 -19.25 6.05 -18.55 6.1 -17.5 6.05 -16.45 6.75 -15.75 7.5 -15.0 8.55 -15.05 L9.45 -15.15 8.55 -13.95 7.35 -13.05" fill="#00ccff" fill-rule="evenodd" stroke="none"/>
    <path d="M9.45 -15.15 L8.55 -15.05 Q7.5 -15.0 6.75 -15.75 6.05 -16.45 6.1 -17.5 6.05 -18.55 6.75 -19.25 7.45 -19.95 8.55 -19.95 L9.4 -19.8 9.95 -18.25 10.0 -17.5 9.8 -16.0 9.75 -15.75 9.45 -15.15" fill="#000000" fill-rule="evenodd" stroke="none"/>
    <path d="M14.85 -10.2 L14.9 -10.5 15.0 -11.45 15.0 -12.5 14.8 -15.1 M15.0 -12.5 L20.0 -12.5 M6.2 -22.35 L5.1 -22.5 5.0 -22.5 4.9 -22.5 4.2 -22.4 Q2.6 -22.2 1.45 -21.05 0.0 -19.55 0.0 -17.5 0.0 -15.4 1.45 -13.95 2.95 -12.5 5.0 -12.5 6.3 -12.5 7.35 -13.05 L8.55 -13.95 9.45 -15.15 8.55 -15.05 Q7.5 -15.0 6.75 -15.75 6.05 -16.45 6.1 -17.5 6.05 -18.55 6.75 -19.25 7.45 -19.95 8.55 -19.95 L9.4 -19.8 9.95 -18.25 10.0 -17.5 9.8 -16.0 9.75 -15.75 9.45 -15.15 M7.3 -21.9 L6.75 -22.15 6.7 -22.15 M9.4 -19.8 L9.0 -20.5 8.55 -21.05 8.5 -21.1 8.25 -21.35 7.3 -21.9" fill="none" stroke="#000000" stroke-linecap="round" stroke-linejoin="round" stroke-width="1.0"/>
    <path d="M14.8 -15.15 Q14.0 -19.7 10.6 -23.1 6.25 -27.5 0.0 -27.5 -6.2 -27.5 -10.6 -23.1 -15.0 -18.7 -15.0 -12.5 -15.0 -10.05 -14.3 -7.9 L-14.85 -7.35 Q-20.0 -2.25 -20.0 5.0 -20.0 12.25 -14.85 17.4 -10.65 21.6 -4.95 22.35 L-2.5 22.5 Q4.75 22.5 9.9 17.4 15.0 12.25 15.0 5.0 15.0 -0.1 12.5 -4.1 14.4 -6.85 14.85 -10.2 L20.0 -12.5 15.65 -14.65 14.8 -15.1 14.8 -15.15 M-4.95 22.35 L-5.0 27.5 5.0 27.5" fill="none" stroke="#000000" stroke-linecap="round" stroke-linejoin="round" stroke-width="2.0"/>
  </g>
</svg>
