<?xml version="1.0" encoding="UTF-8" standalone="no"?>
<svg xmlns:ffdec="https://www.free-decompiler.com/flash" xmlns:xlink="http://www.w3.org/1999/xlink" ffdec:objectType="shape" height="161.8px" width="309.05px" xmlns="http://www.w3.org/2000/svg">
  <g transform="matrix(1.0, 0.0, 0.0, 1.0, 154.5, 81.15)">
    <path d="M65.0 -60.25 Q67.75 -64.05 71.6 -67.95 L81.6 -72.35 93.35 -73.4 Q98.3 -74.15 103.4 -76.15 L114.4 -72.15 Q119.6 -70.65 124.65 -68.0 L133.95 -63.2 Q136.75 -59.15 140.85 -55.0 L144.4 -48.75 147.6 -31.5 141.75 -10.8 135.1 0.15 Q132.0 5.25 127.65 8.4 124.95 12.75 121.05 17.05 L87.6 44.25 112.15 41.55 Q117.4 39.4 123.85 40.7 L135.55 39.6 Q140.65 39.8 146.55 41.15 147.25 43.65 147.75 49.35 L149.55 56.9 147.9 59.35 Q148.0 63.85 146.45 68.75 L140.45 69.65 141.3 68.0 138.8 68.05 138.85 68.9 125.4 69.9 117.0 70.85 Q115.25 70.8 114.4 69.3 L94.35 74.7 86.8 75.65 84.25 73.95 74.15 73.45 68.3 75.15 65.7 72.65 Q61.5 72.55 56.4 71.15 54.35 68.45 52.9 64.45 L51.95 53.65 Q51.05 48.5 48.45 46.0 L50.9 41.75 58.4 36.6 Q61.05 32.3 64.85 28.2 68.05 24.5 72.35 21.3 75.8 19.2 78.1 15.2 L97.35 1.35 105.6 -6.55 Q120.95 -22.9 115.75 -34.05 L110.8 -40.1 Q107.65 -43.4 103.1 -46.6 L94.65 -47.4 92.2 -46.4 Q88.45 -43.55 83.0 -40.9 L77.65 -30.35 Q75.6 -24.3 75.0 -17.6 L72.55 -13.25 70.8 -13.2 61.55 -15.6 58.2 -14.65 55.7 -12.95 Q55.5 -11.75 54.15 -11.15 L54.85 -12.95 54.1 -12.9 50.6 -20.45 51.15 -33.05 Q51.75 -37.9 53.6 -43.25 L57.5 -53.5 65.0 -60.25 M12.8 -61.95 Q15.2 -61.8 14.7 -59.4 L14.35 -45.05 Q13.8 -38.75 15.85 -39.0 16.9 -39.1 19.0 -40.3 21.05 -41.45 21.3 -42.3 L20.65 -43.6 Q20.05 -44.2 19.95 -45.2 20.3 -47.75 23.7 -48.4 L29.3 -48.95 35.5 -48.35 Q39.2 -47.65 39.6 -44.65 39.55 -42.6 37.8 -42.35 36.05 -42.1 32.95 -40.5 L31.0 -39.45 Q29.7 -38.65 29.6 -37.95 30.05 -36.2 33.75 -31.4 L38.9 -24.95 Q41.3 -22.3 43.45 -21.25 45.55 -20.3 45.7 -18.35 46.25 -14.8 38.9 -14.4 L29.25 -14.4 26.45 -14.75 Q25.65 -15.15 24.5 -16.65 L18.15 -24.7 17.05 -26.2 Q16.2 -27.3 15.6 -27.4 15.05 -27.35 14.95 -26.6 L14.9 -25.5 Q14.95 -21.35 16.2 -20.85 17.5 -20.3 17.7 -18.3 18.0 -16.75 16.1 -15.25 14.25 -13.7 6.55 -13.6 L-1.5 -14.05 Q-5.15 -14.65 -5.4 -17.9 -5.15 -19.9 -3.6 -20.3 -2.0 -20.65 -1.6 -24.55 L-1.25 -32.3 -1.05 -38.75 -1.05 -48.45 Q-1.4 -52.05 -3.7 -51.9 -5.95 -51.75 -6.3 -54.1 -6.05 -56.4 -2.15 -58.15 1.75 -59.9 6.2 -60.9 L12.8 -61.95 M139.3 45.3 Q139.5 46.1 140.95 46.9 140.75 45.75 139.3 45.3 M85.85 71.45 L85.05 71.45 85.9 73.25 85.85 71.45 M21.65 54.3 Q23.6 55.15 25.6 55.2 31.0 54.9 34.0 52.95 37.0 51.0 38.5 50.7 40.05 50.85 41.15 52.5 42.25 54.1 42.3 55.65 41.7 61.25 34.4 64.75 27.05 68.2 20.1 68.3 7.15 67.95 0.55 60.5 -6.1 53.1 -6.1 43.2 -5.75 32.2 2.0 25.25 9.8 18.35 20.85 18.1 33.05 18.65 38.75 25.2 44.5 31.7 44.45 37.35 44.35 42.05 42.6 43.4 40.8 44.8 38.45 44.7 L17.7 44.7 Q15.7 44.1 15.2 46.1 15.35 49.3 17.75 51.6 19.8 50.2 22.95 48.7 29.85 45.35 31.7 46.05 L32.1 46.3 Q32.45 46.55 32.45 48.05 32.45 50.25 25.45 53.0 L21.65 54.3 M16.6 35.3 L20.3 35.3 23.95 35.2 Q25.65 34.95 25.75 32.7 25.6 27.45 20.3 27.0 17.95 27.1 16.35 28.9 14.75 30.6 14.7 32.8 14.85 35.1 16.6 35.3 M59.85 76.15 Q57.85 76.0 55.7 74.5 L59.85 76.15 M-100.0 -55.1 Q-94.3 -48.1 -94.55 -38.65 -94.45 -28.9 -100.4 -21.65 -106.35 -14.5 -119.2 -14.15 L-126.75 -14.25 -132.65 -14.4 -138.45 -14.35 -144.25 -14.15 Q-146.1 -14.15 -147.75 -15.05 -149.35 -16.0 -149.5 -18.05 -149.4 -20.3 -148.1 -20.5 -146.8 -20.7 -145.45 -21.7 -144.1 -22.75 -143.9 -27.45 L-143.35 -50.85 Q-143.4 -54.2 -144.6 -55.05 -145.8 -55.95 -147.0 -56.35 -148.25 -56.85 -148.35 -58.85 -148.15 -61.15 -146.05 -61.85 -143.95 -62.55 -142.0 -62.5 L-119.7 -62.5 Q-105.65 -62.1 -100.0 -55.1 M-126.5 -54.15 Q-127.0 -53.25 -126.9 -51.35 L-126.9 -26.15 Q-127.0 -23.6 -126.2 -22.45 -125.4 -21.25 -122.7 -21.3 -116.4 -21.65 -114.4 -26.5 -112.4 -31.35 -112.55 -36.75 -112.8 -48.25 -116.25 -51.8 -119.7 -55.4 -123.85 -55.05 -125.95 -55.05 -126.5 -54.15 M-129.25 -1.45 Q-115.35 -1.05 -111.85 0.75 -108.45 2.6 -109.0 5.05 -109.45 8.55 -112.8 8.95 -116.1 9.45 -116.6 15.45 L-116.6 46.05 Q-116.75 51.2 -115.15 53.75 -113.6 56.3 -108.65 56.3 -100.75 56.05 -98.35 52.85 -95.9 49.65 -95.15 46.4 -94.45 43.2 -91.7 42.95 -88.5 43.15 -87.1 45.7 -85.7 48.3 -85.75 51.2 -85.95 57.2 -89.0 62.6 -92.05 67.95 -95.55 68.3 L-100.35 67.45 -107.55 66.8 -139.75 66.8 -144.9 66.35 Q-147.55 65.75 -147.7 62.65 -147.6 59.95 -145.8 59.4 -143.95 58.8 -142.1 57.4 -140.2 55.95 -140.0 50.65 -139.7 40.2 -139.75 31.8 L-140.45 15.3 Q-141.1 9.9 -144.8 9.65 -148.55 9.4 -149.1 5.95 -148.85 2.5 -145.0 0.9 -141.1 -0.65 -136.45 -1.05 L-129.25 -1.45 M-87.6 -34.0 Q-87.7 -39.0 -88.85 -40.35 -89.95 -41.65 -91.1 -42.0 -92.2 -42.35 -92.3 -44.4 -92.0 -46.5 -87.85 -47.5 L-79.45 -48.75 -74.6 -48.95 Q-72.15 -48.9 -72.55 -46.35 L-72.55 -29.05 Q-72.65 -26.8 -71.95 -24.55 -71.25 -22.25 -68.6 -22.1 -65.05 -22.4 -64.55 -25.7 -64.05 -29.0 -64.25 -31.75 -64.15 -35.5 -64.55 -39.15 -65.15 -41.45 -66.7 -41.9 -68.3 -42.35 -68.5 -44.25 -68.3 -46.2 -64.85 -47.25 -61.4 -48.25 -57.55 -48.6 L-52.2 -48.95 Q-48.6 -48.8 -48.7 -45.1 L-48.85 -38.65 -48.85 -24.95 Q-48.6 -22.25 -47.0 -21.95 -45.35 -21.6 -45.1 -19.5 -45.3 -17.2 -48.35 -15.95 -51.45 -14.65 -55.15 -14.1 L-60.9 -13.6 Q-64.35 -13.85 -64.05 -15.65 -63.8 -17.4 -65.35 -17.6 L-68.9 -15.65 Q-71.35 -13.85 -75.8 -13.6 -85.0 -13.95 -86.55 -20.0 -88.1 -26.05 -87.6 -34.0 M-19.1 -34.0 L-20.75 -38.0 Q-21.4 -40.0 -23.95 -40.15 -26.2 -40.05 -27.35 -38.35 -28.55 -36.6 -28.55 -34.5 -28.5 -30.6 -26.0 -27.6 -23.55 -24.65 -19.45 -24.5 -16.3 -24.6 -14.8 -25.35 L-12.35 -26.2 Q-10.9 -26.15 -10.1 -25.0 -9.25 -23.9 -9.25 -22.55 -9.35 -19.35 -13.5 -16.45 -17.65 -13.55 -24.9 -13.35 -32.8 -13.5 -38.05 -18.4 -43.25 -23.35 -43.45 -31.25 -43.25 -38.7 -37.75 -43.7 -32.3 -48.75 -23.5 -48.95 -15.9 -48.75 -11.95 -45.5 -8.0 -42.25 -7.95 -38.5 -8.45 -32.35 -14.6 -31.85 -18.1 -32.05 -19.1 -34.0 M-7.75 11.75 Q-8.4 18.4 -15.05 19.05 -20.95 18.5 -23.6 14.8 -26.2 11.05 -29.9 10.55 -33.0 10.85 -33.2 13.95 -32.65 18.25 -28.0 20.7 -23.35 23.1 -21.5 26.0 -21.35 27.1 -20.15 27.05 L-13.95 26.9 Q-10.95 26.9 -10.85 28.9 L-11.3 35.9 Q-11.65 37.8 -13.85 37.55 -17.95 37.3 -19.3 38.25 -20.55 39.25 -20.45 43.8 -20.5 48.2 -19.5 52.3 -17.8 56.05 -14.6 56.55 -11.3 57.0 -10.95 60.95 -10.3 62.85 -13.75 65.3 -17.2 67.7 -32.75 67.95 L-42.9 67.05 Q-49.05 65.95 -49.7 61.15 -49.3 57.6 -46.3 56.95 -43.3 56.25 -42.55 52.4 L-41.8 42.05 Q-41.3 37.55 -45.65 37.55 L-48.15 37.55 Q-49.65 37.5 -49.8 36.3 L-49.7 29.2 Q-49.5 27.6 -47.5 27.65 -45.25 27.9 -44.9 25.85 -45.15 24.5 -46.75 21.8 -48.35 19.05 -48.55 14.65 -48.15 6.15 -41.4 2.7 -34.7 -0.8 -27.05 -0.7 -15.55 -0.3 -11.55 4.0 -7.5 8.3 -7.75 11.75 M-57.25 22.25 L-57.25 49.1 Q-57.15 54.5 -55.75 56.2 -54.4 57.85 -53.05 58.45 -51.65 59.05 -51.55 61.4 -52.2 66.1 -58.25 67.15 L-68.15 67.95 Q-80.1 67.8 -83.05 65.75 -85.9 63.75 -85.4 61.9 -85.25 59.5 -83.3 58.35 -81.45 57.3 -80.35 55.2 -79.4 52.1 -79.3 44.9 -79.2 37.7 -80.0 34.4 -80.85 32.15 -83.15 31.4 -85.45 30.7 -85.7 27.75 -85.3 24.4 -79.3 22.2 -73.35 20.05 -67.3 19.05 L-60.25 18.05 Q-56.55 18.65 -57.25 22.25 M-76.2 15.4 Q-79.35 15.45 -81.9 13.85 -84.45 12.25 -84.55 8.55 -83.9 3.85 -77.6 1.75 -71.25 -0.35 -66.95 -0.3 -63.8 -0.4 -60.8 0.9 -57.8 2.15 -57.55 5.7 -58.25 11.1 -64.85 13.2 -71.4 15.25 -76.2 15.4" fill="#000000" fill-rule="evenodd" stroke="none"/>
    <path d="M65.0 -60.25 Q67.75 -64.05 71.6 -67.95 L81.6 -72.35 93.35 -73.4 Q98.3 -74.15 103.4 -76.15 L114.4 -72.15 Q119.6 -70.65 124.65 -68.0 L133.95 -63.2 Q136.75 -59.15 140.85 -55.0 L144.4 -48.75 147.6 -31.5 141.75 -10.8 135.1 0.15 Q132.0 5.25 127.65 8.4 124.95 12.75 121.05 17.05 L87.6 44.25 112.15 41.55 Q117.4 39.4 123.85 40.7 L135.55 39.6 Q140.65 39.8 146.55 41.15 147.25 43.65 147.75 49.35 L149.55 56.9 147.9 59.35 Q148.0 63.85 146.45 68.75 L140.45 69.65 141.3 68.0 138.8 68.05 138.85 68.9 125.4 69.9 117.0 70.85 Q115.25 70.8 114.4 69.3 L94.35 74.7 86.8 75.65 84.25 73.95 74.15 73.45 68.3 75.15 65.7 72.65 Q61.5 72.55 56.4 71.15 54.35 68.45 52.9 64.45 L51.95 53.65 Q51.05 48.5 48.45 46.0 L50.9 41.75 58.4 36.6 Q61.05 32.3 64.85 28.2 68.05 24.5 72.35 21.3 75.8 19.2 78.1 15.2 L97.35 1.35 105.6 -6.55 Q120.95 -22.9 115.75 -34.05 L110.8 -40.1 Q107.65 -43.4 103.1 -46.6 L94.65 -47.4 92.2 -46.4 Q88.45 -43.55 83.0 -40.9 L77.65 -30.35 Q75.6 -24.3 75.0 -17.6 L72.55 -13.25 70.8 -13.2 61.55 -15.6 58.2 -14.65 55.7 -12.95 Q55.5 -11.75 54.15 -11.15 L54.85 -12.95 54.1 -12.9 50.6 -20.45 51.15 -33.05 Q51.75 -37.9 53.6 -43.25 L57.5 -53.5 65.0 -60.25 M12.8 -61.95 Q15.2 -61.8 14.7 -59.4 L14.35 -45.05 Q13.8 -38.75 15.85 -39.0 16.9 -39.1 19.0 -40.3 21.05 -41.45 21.3 -42.3 L20.65 -43.6 Q20.05 -44.2 19.95 -45.2 20.3 -47.75 23.7 -48.4 L29.3 -48.95 35.5 -48.35 Q39.2 -47.65 39.6 -44.65 39.55 -42.6 37.8 -42.35 36.05 -42.1 32.95 -40.5 L31.0 -39.45 Q29.7 -38.65 29.6 -37.95 30.05 -36.2 33.75 -31.4 L38.9 -24.95 Q41.3 -22.3 43.45 -21.25 45.55 -20.3 45.7 -18.35 46.25 -14.8 38.9 -14.4 L29.25 -14.4 26.45 -14.75 Q25.65 -15.15 24.5 -16.65 L18.15 -24.7 17.05 -26.2 Q16.2 -27.3 15.6 -27.4 15.05 -27.35 14.95 -26.6 L14.9 -25.5 Q14.95 -21.35 16.2 -20.85 17.5 -20.3 17.7 -18.3 18.0 -16.75 16.1 -15.25 14.25 -13.7 6.55 -13.6 L-1.5 -14.05 Q-5.15 -14.65 -5.4 -17.9 -5.15 -19.9 -3.6 -20.3 -2.0 -20.65 -1.6 -24.55 L-1.25 -32.3 -1.05 -38.75 -1.05 -48.45 Q-1.4 -52.05 -3.7 -51.9 -5.95 -51.75 -6.3 -54.1 -6.05 -56.4 -2.15 -58.15 1.75 -59.9 6.2 -60.9 L12.8 -61.95 M139.3 45.3 Q139.5 46.1 140.95 46.9 140.75 45.75 139.3 45.3 M85.85 71.45 L85.05 71.45 85.9 73.25 85.85 71.45 M21.65 54.3 Q23.6 55.15 25.6 55.2 31.0 54.9 34.0 52.95 37.0 51.0 38.5 50.7 40.05 50.85 41.15 52.5 42.25 54.1 42.3 55.65 41.7 61.25 34.4 64.75 27.05 68.2 20.1 68.3 7.15 67.95 0.55 60.5 -6.1 53.1 -6.1 43.2 -5.75 32.2 2.0 25.25 9.8 18.35 20.85 18.1 33.05 18.65 38.75 25.2 44.5 31.7 44.45 37.35 44.35 42.05 42.6 43.4 40.8 44.8 38.45 44.7 L17.7 44.7 Q15.7 44.1 15.2 46.1 15.35 49.3 17.75 51.6 M16.6 35.3 L20.3 35.3 23.95 35.2 Q25.65 34.95 25.75 32.7 25.6 27.45 20.3 27.0 17.95 27.1 16.35 28.9 14.75 30.6 14.7 32.8 14.85 35.1 16.6 35.3 M-100.0 -55.1 Q-94.3 -48.1 -94.55 -38.65 -94.45 -28.9 -100.4 -21.65 -106.35 -14.5 -119.2 -14.15 L-126.75 -14.25 -132.65 -14.4 -138.45 -14.35 -144.25 -14.15 Q-146.1 -14.15 -147.75 -15.05 -149.35 -16.0 -149.5 -18.05 -149.4 -20.3 -148.1 -20.5 -146.8 -20.7 -145.45 -21.7 -144.1 -22.75 -143.9 -27.45 L-143.35 -50.85 Q-143.4 -54.2 -144.6 -55.05 -145.8 -55.95 -147.0 -56.35 -148.25 -56.85 -148.35 -58.85 -148.15 -61.15 -146.05 -61.85 -143.95 -62.55 -142.0 -62.5 L-119.7 -62.5 Q-105.65 -62.1 -100.0 -55.1 M-126.5 -54.15 Q-127.0 -53.25 -126.9 -51.35 L-126.9 -26.15 Q-127.0 -23.6 -126.2 -22.45 -125.4 -21.25 -122.7 -21.3 -116.4 -21.65 -114.4 -26.5 -112.4 -31.35 -112.55 -36.75 -112.8 -48.25 -116.25 -51.8 -119.7 -55.4 -123.85 -55.05 -125.95 -55.05 -126.5 -54.15 M-129.25 -1.45 Q-115.35 -1.05 -111.85 0.75 -108.45 2.6 -109.0 5.05 -109.45 8.55 -112.8 8.95 -116.1 9.45 -116.6 15.45 L-116.6 46.05 Q-116.75 51.2 -115.15 53.75 -113.6 56.3 -108.65 56.3 -100.75 56.05 -98.35 52.85 -95.9 49.65 -95.15 46.4 -94.45 43.2 -91.7 42.95 -88.5 43.15 -87.1 45.7 -85.7 48.3 -85.75 51.2 -85.95 57.2 -89.0 62.6 -92.05 67.95 -95.55 68.3 L-100.35 67.45 -107.55 66.8 -139.75 66.8 -144.9 66.35 Q-147.55 65.75 -147.7 62.65 -147.6 59.95 -145.8 59.4 -143.95 58.8 -142.1 57.4 -140.2 55.95 -140.0 50.65 -139.7 40.2 -139.75 31.8 L-140.45 15.3 Q-141.1 9.9 -144.8 9.65 -148.55 9.4 -149.1 5.95 -148.85 2.5 -145.0 0.9 -141.1 -0.65 -136.45 -1.05 L-129.25 -1.45 M-87.6 -34.0 Q-87.7 -39.0 -88.85 -40.35 -89.95 -41.65 -91.1 -42.0 -92.2 -42.35 -92.3 -44.4 -92.0 -46.5 -87.85 -47.5 L-79.45 -48.75 -74.6 -48.95 Q-72.15 -48.9 -72.55 -46.35 L-72.55 -29.05 Q-72.65 -26.8 -71.95 -24.55 -71.25 -22.25 -68.6 -22.1 -65.05 -22.4 -64.55 -25.7 -64.05 -29.0 -64.25 -31.75 -64.15 -35.5 -64.55 -39.15 -65.15 -41.45 -66.7 -41.9 -68.3 -42.35 -68.5 -44.25 -68.3 -46.2 -64.85 -47.25 -61.4 -48.25 -57.55 -48.6 L-52.2 -48.95 Q-48.6 -48.8 -48.7 -45.1 L-48.85 -38.65 -48.85 -24.95 Q-48.6 -22.25 -47.0 -21.95 -45.35 -21.6 -45.1 -19.5 -45.3 -17.2 -48.35 -15.95 -51.45 -14.65 -55.15 -14.1 L-60.9 -13.6 Q-64.35 -13.85 -64.05 -15.65 -63.8 -17.4 -65.35 -17.6 L-68.9 -15.65 Q-71.35 -13.85 -75.8 -13.6 -85.0 -13.95 -86.55 -20.0 -88.1 -26.05 -87.6 -34.0 M-19.1 -34.0 L-20.75 -38.0 Q-21.4 -40.0 -23.95 -40.15 -26.2 -40.05 -27.35 -38.35 -28.55 -36.6 -28.55 -34.5 -28.5 -30.6 -26.0 -27.6 -23.55 -24.65 -19.45 -24.5 -16.3 -24.6 -14.8 -25.35 L-12.35 -26.2 Q-10.9 -26.15 -10.1 -25.0 -9.25 -23.9 -9.25 -22.55 -9.35 -19.35 -13.5 -16.45 -17.65 -13.55 -24.9 -13.35 -32.8 -13.5 -38.05 -18.4 -43.25 -23.35 -43.45 -31.25 -43.25 -38.7 -37.75 -43.7 -32.3 -48.75 -23.5 -48.95 -15.9 -48.75 -11.95 -45.5 -8.0 -42.25 -7.95 -38.5 -8.45 -32.35 -14.6 -31.85 -18.1 -32.05 -19.1 -34.0 M-7.75 11.75 Q-8.4 18.4 -15.05 19.05 -20.95 18.5 -23.6 14.8 -26.2 11.05 -29.9 10.55 -33.0 10.85 -33.2 13.95 -32.65 18.25 -28.0 20.7 -23.35 23.1 -21.5 26.0 -21.35 27.1 -20.15 27.05 L-13.95 26.9 Q-10.95 26.9 -10.85 28.9 L-11.3 35.9 Q-11.65 37.8 -13.85 37.55 -17.95 37.3 -19.3 38.25 -20.55 39.25 -20.45 43.8 -20.5 48.2 -19.5 52.3 -17.8 56.05 -14.6 56.55 -11.3 57.0 -10.95 60.95 -10.3 62.85 -13.75 65.3 -17.2 67.7 -32.75 67.95 L-42.9 67.05 Q-49.05 65.95 -49.7 61.15 -49.3 57.6 -46.3 56.95 -43.3 56.25 -42.55 52.4 L-41.8 42.05 Q-41.3 37.55 -45.65 37.55 L-48.15 37.55 Q-49.65 37.5 -49.8 36.3 L-49.7 29.2 Q-49.5 27.6 -47.5 27.65 -45.25 27.9 -44.9 25.85 -45.15 24.5 -46.75 21.8 -48.35 19.05 -48.55 14.65 -48.15 6.15 -41.4 2.7 -34.7 -0.8 -27.05 -0.7 -15.55 -0.3 -11.55 4.0 -7.5 8.3 -7.75 11.75 M-57.25 22.25 L-57.25 49.1 Q-57.15 54.5 -55.75 56.2 -54.4 57.85 -53.05 58.45 -51.65 59.05 -51.55 61.4 -52.2 66.1 -58.25 67.15 L-68.15 67.95 Q-80.1 67.8 -83.05 65.75 -85.9 63.75 -85.4 61.9 -85.25 59.5 -83.3 58.35 -81.45 57.3 -80.35 55.2 -79.4 52.1 -79.3 44.9 -79.2 37.7 -80.0 34.4 -80.85 32.15 -83.15 31.4 -85.45 30.7 -85.7 27.75 -85.3 24.4 -79.3 22.2 -73.35 20.05 -67.3 19.05 L-60.25 18.05 Q-56.55 18.65 -57.25 22.25 M-76.2 15.4 Q-79.35 15.45 -81.9 13.85 -84.45 12.25 -84.55 8.55 -83.9 3.85 -77.6 1.75 -71.25 -0.35 -66.95 -0.3 -63.8 -0.4 -60.8 0.9 -57.8 2.15 -57.55 5.7 -58.25 11.1 -64.85 13.2 -71.4 15.25 -76.2 15.4 Z" fill="none" stroke="#000000" stroke-linecap="round" stroke-linejoin="round" stroke-width="10.0"/>
  </g>
</svg>
