<?xml version="1.0" encoding="UTF-8" standalone="no"?>
<svg xmlns:ffdec="https://www.free-decompiler.com/flash" xmlns:xlink="http://www.w3.org/1999/xlink" ffdec:objectType="shape" height="300.6px" width="995.5px" xmlns="http://www.w3.org/2000/svg">
  <g transform="matrix(1.0, 0.0, 0.0, 1.0, 97.1, -159.4)">
    <path d="M612.95 215.45 Q611.2 200.0 621.7 195.35 633.55 190.1 642.35 195.85 646.65 198.65 648.65 202.6 645.05 192.4 647.05 181.9 651.05 160.85 679.25 159.5 722.85 157.35 728.8 195.0 731.7 213.85 725.95 233.05 L574.6 240.35 616.85 229.9 Q613.85 223.15 612.95 215.45" fill="#b5e2f3" fill-rule="evenodd" stroke="none"/>
    <path d="M551.0 330.35 Q549.8 320.35 556.6 317.3 564.35 313.9 570.05 317.55 572.8 319.45 574.1 321.95 571.75 315.3 573.05 308.55 575.65 294.9 594.0 294.0 622.25 292.65 626.05 317.05 628.0 329.3 624.25 341.8 L526.05 346.5 553.5 339.7 Q551.55 335.35 551.0 330.35" fill="#b5e2f3" fill-rule="evenodd" stroke="none"/>
    <path d="M131.05 238.15 Q129.85 235.4 129.5 232.25 128.8 225.85 133.15 223.9 138.05 221.7 141.6 224.1 143.4 225.25 144.15 226.9 142.7 222.7 143.55 218.35 145.2 209.7 156.85 209.1 174.8 208.3 177.25 223.8 178.45 231.5 176.05 239.4 L113.7 242.45 131.05 238.15" fill="#b5e2f3" fill-rule="evenodd" stroke="none"/>
    <path d="M341.55 267.65 L290.2 270.2 303.5 267.05 Q302.4 261.35 303.5 255.65 305.75 244.25 316.8 244.05 334.7 243.85 339.95 255.75 342.5 261.65 341.55 267.65" fill="#b5e2f3" fill-rule="evenodd" stroke="none"/>
    <path d="M195.6 187.2 Q211.95 180.2 225.65 179.95 242.0 179.7 254.6 187.05 260.9 190.75 263.95 194.5 L266.9 206.0 Q270.9 220.65 276.4 236.6 293.85 287.4 318.9 331.1 353.9 392.2 399.15 430.25 417.85 446.0 437.95 457.4 L37.4 457.4 Q49.75 449.3 61.3 439.65 109.5 399.5 140.75 335.85 163.1 290.35 174.7 237.75 178.35 221.2 180.45 206.05 L181.9 194.15 195.6 187.2" fill="#65b7d8" fill-rule="evenodd" stroke="none"/>
    <path d="M107.0 293.05 L113.9 291.6 Q122.4 291.15 130.6 296.1 140.05 301.7 141.85 316.55 142.75 323.95 141.8 330.3 L-17.6 337.7 17.0 329.2 Q14.55 323.65 13.8 317.3 12.4 304.65 21.0 300.85 30.75 296.55 37.9 301.2 41.45 303.5 43.05 306.75 40.1 298.35 41.8 289.75 45.05 272.5 68.2 271.35 99.05 269.85 107.0 293.05" fill="#b5e2f3" fill-rule="evenodd" stroke="none"/>
    <path d="M198.6 188.95 Q215.0 181.75 228.7 181.95 242.45 182.15 255.05 188.55 261.3 191.7 264.85 194.85 L267.9 206.5 Q272.0 221.3 277.65 237.2 295.45 288.35 320.85 332.25 356.35 393.75 401.8 432.0 419.1 446.5 437.55 457.4 L55.35 457.4 66.7 448.2 Q114.6 407.05 145.2 341.75 167.1 295.05 178.2 240.9 181.7 224.05 183.65 208.45 L184.9 196.15 198.6 188.95" fill="url(#gradient0)" fill-rule="evenodd" stroke="none"/>
    <path d="M547.65 367.9 L579.9 366.6 627.7 331.75 684.5 314.95 781.35 335.6 813.65 380.8 898.4 381.95 898.4 460.0 -97.1 460.0 -97.1 415.15 -77.35 410.5 -34.7 407.9 11.75 352.4 56.95 327.85 109.9 333.0 133.15 379.5 184.8 410.5 245.5 398.85 352.65 327.85 355.25 299.45 377.2 282.65 404.3 286.55 445.65 326.55 505.0 333.0 547.65 367.9" fill="url(#gradient1)" fill-rule="evenodd" stroke="none"/>
    <path d="M189.95 203.4 Q189.05 206.15 186.7 208.5 L187.9 191.95 191.1 191.3 Q190.45 201.9 189.95 203.4" fill="#65b7d8" fill-rule="evenodd" stroke="none"/>
  </g>
  <defs>
    <linearGradient gradientTransform="matrix(-0.0111, -0.2286, 0.2923, -0.0142, 335.55, 425.65)" gradientUnits="userSpaceOnUse" id="gradient0" spreadMethod="pad" x1="-819.2" x2="819.2">
      <stop offset="0.0" stop-color="#3d6c97"/>
      <stop offset="0.5098039215686274" stop-color="#9dcbb3"/>
    </linearGradient>
    <linearGradient gradientTransform="matrix(-0.0094, -0.1208, -0.1208, 0.0094, 392.5, 411.85)" gradientUnits="userSpaceOnUse" id="gradient1" spreadMethod="pad" x1="-819.2" x2="819.2">
      <stop offset="0.12156862745098039" stop-color="#c0da8b"/>
      <stop offset="0.8941176470588236" stop-color="#4b6f86"/>
    </linearGradient>
  </defs>
</svg>
