<?xml version="1.0" encoding="UTF-8" standalone="no"?>
<svg xmlns:ffdec="https://www.free-decompiler.com/flash" xmlns:xlink="http://www.w3.org/1999/xlink" ffdec:objectType="shape" height="82.5px" width="696.05px" xmlns="http://www.w3.org/2000/svg">
  <g transform="matrix(1.0, 0.0, 0.0, 1.0, -52.0, -15.0)">
    <path d="M745.05 97.5 L55.0 97.5 55.0 22.5 745.05 22.5 745.05 97.5" fill="url(#gradient0)" fill-rule="evenodd" stroke="none"/>
    <path d="M52.0 22.5 Q52.0 19.45 54.2 17.2 56.45 15.0 59.5 15.0 L59.5 90.0 Q56.45 90.0 54.2 87.85 52.0 85.6 52.0 82.5 L52.0 22.5" fill="url(#gradient1)" fill-rule="evenodd" stroke="none"/>
    <path d="M748.05 22.5 L747.95 82.5 Q747.95 85.6 745.8 87.85 743.55 90.0 740.45 89.95 L740.55 15.0 Q743.6 15.0 745.85 17.2 748.05 19.45 748.05 22.5" fill="url(#gradient2)" fill-rule="evenodd" stroke="none"/>
    <path d="M745.05 22.5 Q745.05 20.65 743.7 19.3 742.4 18.0 740.55 18.0 L59.5 18.0 Q57.65 18.0 56.3 19.3 55.0 20.65 55.0 22.5 L55.0 82.5 Q55.0 84.4 56.3 85.65 57.65 87.0 59.5 87.0 L740.55 87.0 Q742.4 87.0 743.7 85.65 745.05 84.4 745.05 82.5 L745.05 22.5 M740.55 15.0 Q743.6 15.0 745.85 17.2 748.05 19.45 748.05 22.5 L748.05 82.5 Q748.05 85.6 745.85 87.85 743.6 90.0 740.55 90.0 L59.5 90.0 Q56.45 90.0 54.2 87.85 52.0 85.6 52.0 82.5 L52.0 22.5 Q52.0 19.45 54.2 17.2 56.45 15.0 59.5 15.0 L740.55 15.0" fill="#560d7e" fill-rule="evenodd" stroke="none"/>
    <path d="M745.05 22.5 L745.05 82.5 Q745.05 84.4 743.7 85.65 742.4 87.0 740.55 87.0 L59.5 87.0 Q57.65 87.0 56.3 85.65 55.0 84.4 55.0 82.5 L55.0 22.5 Q55.0 20.65 56.3 19.3 57.65 18.0 59.5 18.0 L740.55 18.0 Q742.4 18.0 743.7 19.3 745.05 20.65 745.05 22.5" fill="url(#gradient3)" fill-rule="evenodd" stroke="none"/>
  </g>
  <defs>
    <linearGradient gradientTransform="matrix(0.0, 0.0458, 0.0458, 0.0, 399.95, 60.0)" gradientUnits="userSpaceOnUse" id="gradient0" spreadMethod="pad" x1="-819.2" x2="819.2">
      <stop offset="0.0" stop-color="#000000"/>
      <stop offset="0.9098039215686274" stop-color="#000000" stop-opacity="0.2"/>
      <stop offset="1.0" stop-color="#000000" stop-opacity="0.0"/>
    </linearGradient>
    <linearGradient gradientTransform="matrix(0.0046, 0.0, 0.0, -0.0046, 55.75, 52.5)" gradientUnits="userSpaceOnUse" id="gradient1" spreadMethod="pad" x1="-819.2" x2="819.2">
      <stop offset="0.0" stop-color="#000000" stop-opacity="0.24705882"/>
      <stop offset="1.0" stop-color="#000000" stop-opacity="0.0"/>
    </linearGradient>
    <linearGradient gradientTransform="matrix(-0.0046, 0.0, 0.0, -0.0046, 744.3, 52.45)" gradientUnits="userSpaceOnUse" id="gradient2" spreadMethod="pad" x1="-819.2" x2="819.2">
      <stop offset="0.0" stop-color="#000000" stop-opacity="0.24705882"/>
      <stop offset="1.0" stop-color="#000000" stop-opacity="0.0"/>
    </linearGradient>
    <linearGradient gradientTransform="matrix(0.0, 0.0458, -0.0421, 0.0, 400.0, 52.5)" gradientUnits="userSpaceOnUse" id="gradient3" spreadMethod="pad" x1="-819.2" x2="819.2">
      <stop offset="0.0" stop-color="#ab00fb"/>
      <stop offset="1.0" stop-color="#9002d2"/>
    </linearGradient>
  </defs>
</svg>
