<?xml version="1.0" encoding="UTF-8" standalone="no"?>
<svg xmlns:ffdec="https://www.free-decompiler.com/flash" xmlns:xlink="http://www.w3.org/1999/xlink" ffdec:objectType="shape" height="58.9px" width="43.7px" xmlns="http://www.w3.org/2000/svg">
  <g transform="matrix(1.0, 0.0, 0.0, 1.0, 19.5, 30.2)">
    <path d="M-4.0 20.2 L-5.0 25.25 Q-0.5 28.45 5.0 27.5" fill="none" stroke="#000000" stroke-linecap="round" stroke-linejoin="round" stroke-width="2.0"/>
    <path d="M10.7 -14.0 L10.1 -13.8 9.5 -13.7 9.05 -13.65 8.3 -13.7 8.25 -13.7 Q6.25 -13.9 4.9 -15.45 3.6 -17.05 3.85 -19.15 4.0 -21.25 5.6 -22.55 7.2 -23.8 9.3 -23.6 L9.7 -23.5 Q10.55 -23.4 11.2 -22.95 L11.55 -22.75 Q10.25 -22.75 9.15 -21.85 7.65 -20.65 7.5 -18.8 7.3 -16.9 8.45 -15.45 9.35 -14.35 10.7 -14.0" fill="#ffffff" fill-rule="evenodd" stroke="none"/>
    <path d="M11.55 -22.75 L11.8 -22.6 12.7 -21.85 13.2 -21.0 13.4 -20.5 12.6 -20.75 Q11.5 -20.85 10.75 -20.2 9.95 -19.6 9.9 -18.55 9.75 -17.5 10.35 -16.7 11.05 -15.9 12.1 -15.85 L12.95 -15.85 12.45 -15.15 12.4 -15.1 12.2 -14.9 12.0 -14.75 10.7 -14.0 Q9.35 -14.35 8.45 -15.45 7.3 -16.9 7.5 -18.8 7.65 -20.65 9.15 -21.85 10.25 -22.75 11.55 -22.75" fill="#00ccff" fill-rule="evenodd" stroke="none"/>
    <path d="M13.4 -20.5 Q13.9 -19.45 13.75 -18.15 13.6 -16.85 12.95 -15.85 L12.1 -15.85 Q11.05 -15.9 10.35 -16.7 9.75 -17.5 9.9 -18.55 9.95 -19.6 10.75 -20.2 11.5 -20.85 12.6 -20.75 L13.4 -20.5" fill="#000000" fill-rule="evenodd" stroke="none"/>
    <path d="M18.2 -12.65 L18.3 -15.2 23.2 -12.1 18.2 -12.65 23.2 -12.1 17.8 -10.35 18.2 -12.65" fill="#ffcc00" fill-rule="evenodd" stroke="none"/>
    <path d="M10.7 -14.0 L10.1 -13.8 9.5 -13.7 9.05 -13.65 8.3 -13.7 8.25 -13.7 Q6.25 -13.9 4.9 -15.45 3.6 -17.05 3.85 -19.15 4.0 -21.25 5.6 -22.55 7.2 -23.8 9.3 -23.6 L9.7 -23.5 Q10.55 -23.4 11.2 -22.95 L11.55 -22.75 11.8 -22.6 12.7 -21.85 13.2 -21.0 13.4 -20.5 Q13.9 -19.45 13.75 -18.15 13.6 -16.85 12.95 -15.85 L12.45 -15.15 12.4 -15.1 12.2 -14.9 12.0 -14.75 10.7 -14.0 M12.95 -15.85 L12.1 -15.85 Q11.05 -15.9 10.35 -16.7 9.75 -17.5 9.9 -18.55 9.95 -19.6 10.75 -20.2 11.5 -20.85 12.6 -20.75 L13.4 -20.5 M18.3 -15.2 L18.2 -12.65 23.2 -12.1 M17.8 -10.35 L18.2 -12.65" fill="none" stroke="#000000" stroke-linecap="round" stroke-linejoin="round" stroke-width="1.0"/>
    <path d="M23.2 -12.1 L18.3 -15.2 Q18.05 -19.15 15.75 -22.5 L14.95 -23.6 Q11.1 -28.45 4.9 -29.1 -1.25 -29.75 -6.15 -25.8 -10.95 -21.9 -11.6 -15.75 -11.85 -13.3 -11.35 -11.1 L-12.0 -10.6 Q-17.65 -6.1 -18.4 1.1 -19.2 8.35 -14.55 14.0 -10.85 18.6 -5.25 19.95 L-4.0 20.2 -2.85 20.35 Q4.35 21.1 10.05 16.6 15.6 12.0 16.4 4.75 16.9 -0.1 15.1 -4.15 L14.9 -4.55 Q17.0 -7.05 17.8 -10.35 L23.2 -12.1 Z" fill="none" stroke="#000000" stroke-linecap="round" stroke-linejoin="round" stroke-width="2.0"/>
  </g>
</svg>
