<?xml version="1.0" encoding="UTF-8" standalone="no"?>
<svg xmlns:ffdec="https://www.free-decompiler.com/flash" xmlns:xlink="http://www.w3.org/1999/xlink" ffdec:objectType="shape" height="147.9px" width="468.0px" xmlns="http://www.w3.org/2000/svg">
  <g transform="matrix(1.0, 0.0, 0.0, 1.0, 234.0, 70.7)">
    <path d="M-189.1 -25.7 Q-188.1 -27.55 -188.15 -28.75 -188.25 -34.4 -190.1 -36.45 L-190.95 -37.1 -191.3 -37.15 -196.6 -37.15 -196.6 -18.25 Q-193.9 -19.9 -191.8 -22.1 -190.1 -23.85 -189.1 -25.7 M-177.35 -69.2 Q-170.6 -67.35 -165.05 -63.4 -158.55 -58.65 -154.85 -51.05 -150.8 -42.45 -150.85 -31.3 -150.8 -14.55 -161.15 -1.95 -169.5 8.25 -182.15 13.35 -189.65 16.3 -195.65 16.3 L-228.8 16.45 Q-230.95 16.45 -232.45 15.0 -234.0 13.6 -234.0 11.5 L-234.0 -65.8 Q-234.0 -67.8 -232.5 -69.3 -230.95 -70.7 -228.8 -70.7 L-188.1 -70.7 Q-182.7 -70.7 -177.35 -69.2" fill="#000000" fill-rule="evenodd" stroke="none"/>
    <path d="M-91.85 -49.5 Q-90.35 -48.0 -90.35 -46.0 L-90.35 11.5 Q-90.35 13.5 -91.85 15.0 -93.45 16.45 -95.55 16.45 L-132.65 16.45 Q-137.55 16.45 -142.15 14.7 -147.25 12.85 -151.1 9.05 -160.0 0.5 -160.0 -15.4 -160.0 -29.25 -153.0 -47.65 -152.45 -49.1 -151.1 -50.0 -149.8 -50.9 -148.2 -50.9 L-128.25 -50.9 Q-126.15 -50.9 -124.6 -49.5 L-124.05 -48.85 -123.45 -49.5 Q-121.9 -50.9 -119.8 -50.9 L-95.55 -50.9 Q-93.4 -50.9 -91.85 -49.5" fill="#000000" fill-rule="evenodd" stroke="none"/>
    <path d="M-44.0 -50.8 Q-41.85 -50.8 -40.3 -49.35 -38.8 -47.85 -38.8 -45.85 L-38.8 -25.15 Q-38.8 -23.15 -40.3 -21.65 -41.9 -20.15 -44.0 -20.15 L-59.3 -20.15 -61.0 -19.95 -61.0 -19.7 Q-61.05 -19.05 -60.55 -17.85 L-59.2 -15.75 -57.4 -14.25 Q-56.6 -13.8 -56.2 -13.85 L-44.0 -13.85 Q-41.85 -13.85 -40.3 -12.4 -38.8 -10.9 -38.8 -8.9 L-38.8 11.5 Q-38.8 13.5 -40.3 15.0 -41.9 16.45 -44.0 16.45 L-58.2 16.45 Q-63.9 16.4 -69.7 14.65 -76.65 12.45 -82.3 8.15 -88.85 3.15 -92.55 -4.6 -96.7 -13.3 -96.65 -24.35 -96.65 -35.85 -89.55 -43.4 -86.3 -46.9 -82.1 -48.85 -77.8 -50.8 -73.25 -50.8 L-44.0 -50.8" fill="#000000" fill-rule="evenodd" stroke="none"/>
    <path d="M131.8 -48.25 L132.15 -46.55 132.15 11.5 Q132.15 13.55 130.6 15.0 128.95 16.45 126.95 16.45 L101.4 16.45 Q99.3 16.45 97.7 15.0 96.2 13.6 96.2 11.5 L96.2 -46.55 Q96.2 -47.4 96.5 -48.25 96.2 -49.1 96.2 -49.85 L96.2 -65.5 Q96.2 -67.6 97.7 -68.95 99.15 -70.45 101.4 -70.45 L126.95 -70.45 Q129.1 -70.45 130.6 -68.95 132.15 -67.55 132.15 -65.5 L132.15 -49.85 131.8 -48.25" fill="#000000" fill-rule="evenodd" stroke="none"/>
    <path d="M177.4 -68.95 Q178.95 -67.55 178.95 -65.5 L178.95 -47.0 Q178.95 -45.05 177.4 -43.5 175.95 -42.1 173.75 -42.1 L171.7 -42.1 171.7 -25.7 Q171.7 -23.6 170.2 -22.2 168.65 -20.8 166.55 -20.8 L164.8 -20.8 164.8 11.5 Q164.8 13.5 163.3 15.0 161.7 16.45 159.6 16.45 L134.05 16.45 Q131.95 16.45 130.35 15.0 128.85 13.6 128.85 11.5 L128.85 -20.85 Q127.15 -21.2 126.1 -22.2 124.6 -23.6 124.6 -25.7 L124.6 -42.65 Q124.6 -44.8 126.1 -46.15 127.15 -47.2 128.85 -47.55 129.05 -54.2 131.15 -58.75 133.5 -63.9 138.25 -66.7 142.35 -69.15 147.9 -70.05 L158.5 -70.7 173.75 -70.45 Q176.05 -70.45 177.4 -68.95" fill="#000000" fill-rule="evenodd" stroke="none"/>
    <path d="M69.0 -70.45 Q71.25 -70.45 72.6 -68.95 74.15 -67.55 74.15 -65.5 L74.15 -17.35 97.4 -17.35 Q99.55 -17.35 101.05 -15.85 102.6 -14.45 102.6 -12.35 L102.6 11.5 Q102.6 13.55 101.05 15.0 99.55 16.45 97.4 16.45 L43.4 16.45 Q41.3 16.45 39.7 15.0 38.2 13.6 38.2 11.5 L38.2 -65.5 Q38.2 -67.6 39.7 -68.95 41.2 -70.45 43.4 -70.45 L69.0 -70.45" fill="#000000" fill-rule="evenodd" stroke="none"/>
    <path d="M15.75 -51.25 Q18.35 -51.25 19.9 -49.15 21.45 -47.1 20.6 -44.7 L12.0 -20.4 23.4 9.8 Q24.3 12.25 22.75 14.35 21.2 16.45 18.55 16.45 L-8.85 16.45 Q-10.35 16.45 -11.7 15.65 -13.1 16.45 -14.5 16.45 L-39.55 16.45 Q-41.7 16.45 -43.2 15.0 -44.75 13.55 -44.75 11.5 L-44.75 -65.5 Q-44.75 -67.55 -43.2 -68.95 -41.85 -70.45 -39.55 -70.45 L-14.5 -70.45 Q-12.35 -70.45 -10.85 -68.95 -9.3 -67.55 -9.3 -65.5 L-9.3 -51.25 15.75 -51.25" fill="#000000" fill-rule="evenodd" stroke="none"/>
    <path d="M217.05 -50.2 Q225.2 -48.3 229.55 -43.5 233.05 -39.7 233.75 -34.1 L234.0 -30.0 Q234.0 -20.55 228.7 -12.75 L229.25 -12.3 Q230.75 -10.9 230.75 -8.8 L230.75 11.35 Q230.75 13.4 229.25 14.85 227.8 16.3 225.65 16.3 L202.0 16.45 Q196.7 16.4 191.05 14.6 184.5 12.45 179.1 8.35 172.85 3.6 169.3 -3.45 165.2 -11.45 165.25 -21.25 165.25 -31.05 168.65 -37.75 171.7 -43.95 177.7 -47.3 182.4 -49.8 188.7 -50.7 L198.15 -51.35 203.7 -51.5 Q211.4 -51.5 217.05 -50.2" fill="#000000" fill-rule="evenodd" stroke="none"/>
    <path d="M-188.1 -65.8 Q-176.8 -65.8 -168.25 -59.4 -155.95 -50.4 -155.95 -31.3 -155.95 -11.75 -171.1 0.95 -183.5 11.35 -195.65 11.35 L-228.8 11.5 -228.8 -65.8 -188.1 -65.8 M-188.05 -18.7 Q-183.05 -23.9 -183.05 -28.75 -183.05 -36.2 -186.15 -39.7 -188.45 -42.15 -191.3 -42.15 L-201.8 -42.15 -201.8 -12.15 -200.5 -11.95 Q-198.8 -11.9 -196.95 -12.6 -192.4 -14.15 -188.05 -18.7" fill="#ffffff" fill-rule="evenodd" stroke="none"/>
    <path d="M-95.55 -46.0 L-95.55 11.5 -132.65 11.5 Q-146.05 11.5 -151.9 -0.6 -159.4 -16.25 -148.2 -46.0 L-128.25 -46.0 -128.25 -14.6 Q-128.25 -9.8 -124.05 -9.1 L-119.8 -9.35 -119.8 -46.0 -95.55 -46.0" fill="#ffffff" fill-rule="evenodd" stroke="none"/>
    <path d="M-44.0 -45.85 L-44.0 -25.15 -59.3 -25.15 Q-63.8 -25.15 -65.4 -22.6 -66.85 -20.4 -65.75 -17.0 -64.75 -13.8 -62.1 -11.45 -59.3 -8.9 -56.2 -8.9 L-44.0 -8.9 -44.0 11.5 -58.2 11.5 Q-69.75 11.5 -79.0 4.25 -91.45 -5.4 -91.45 -24.35 -91.45 -33.9 -85.75 -40.15 -80.4 -45.85 -73.25 -45.85 L-44.0 -45.85" fill="#ffffff" fill-rule="evenodd" stroke="none"/>
    <path d="M126.95 -49.85 L101.4 -49.85 101.4 -65.5 126.95 -65.5 126.95 -49.85" fill="#ffffff" fill-rule="evenodd" stroke="none"/>
    <path d="M126.95 11.5 L101.4 11.5 101.4 -46.55 126.95 -46.55 126.95 11.5" fill="#ffffff" fill-rule="evenodd" stroke="none"/>
    <path d="M173.75 -65.5 L173.75 -47.0 162.45 -46.65 Q159.6 -46.1 159.6 -43.6 L159.6 -42.65 166.55 -42.65 166.55 -25.7 159.6 -25.7 159.6 11.5 134.05 11.5 134.05 -25.7 129.8 -25.7 129.8 -42.65 134.05 -42.65 134.05 -46.55 Q134.05 -61.5 146.1 -64.6 150.7 -65.8 158.85 -65.8 L173.75 -65.5" fill="#ffffff" fill-rule="evenodd" stroke="none"/>
    <path d="M69.0 -12.35 L97.4 -12.35 97.4 11.5 43.4 11.5 43.4 -65.5 69.0 -65.5 69.0 -12.35" fill="#ffffff" fill-rule="evenodd" stroke="none"/>
    <path d="M15.75 -46.3 L6.45 -20.35 18.55 11.5 -8.85 11.5 -14.5 -13.3 -14.5 11.5 -39.55 11.5 -39.55 -65.5 -14.5 -65.5 -14.5 -25.65 -10.75 -46.3 15.75 -46.3" fill="#ffffff" fill-rule="evenodd" stroke="none"/>
    <path d="M203.65 -20.45 Q206.3 -26.5 200.65 -26.5 194.35 -26.5 194.45 -20.0 194.6 -16.85 195.9 -13.6 200.95 -14.5 203.65 -20.45 M217.0 -45.15 Q227.5 -42.2 228.55 -33.5 229.85 -22.95 223.9 -14.8 222.0 -12.2 219.6 -10.25 L217.6 -8.8 225.55 -8.8 225.55 11.35 202.05 11.5 Q191.5 11.5 182.4 4.45 170.45 -4.7 170.45 -21.25 170.45 -37.45 180.3 -43.0 185.6 -45.9 198.45 -46.45 210.4 -46.95 217.0 -45.15" fill="#ffffff" fill-rule="evenodd" stroke="none"/>
    <path d="M-187.7 -17.35 Q-182.55 -22.4 -181.9 -27.55 L-157.6 -25.55 Q-159.8 -8.9 -174.0 1.65 -185.45 10.1 -195.65 10.1 L-227.6 10.25 -227.6 -31.85 -203.05 -29.4 -203.05 -11.3 -202.2 -11.0 -200.25 -10.75 Q-198.55 -10.75 -196.55 -11.45 -192.15 -13.0 -187.7 -17.35" fill="url(#gradient0)" fill-rule="evenodd" stroke="none"/>
    <path d="M-96.75 -21.25 L-96.75 10.25 -132.65 10.25 Q-136.5 10.25 -140.05 8.9 -145.6 6.8 -149.05 1.8 -155.6 -7.6 -152.75 -25.15 L-129.5 -23.45 -129.5 -14.6 Q-129.5 -11.4 -127.65 -9.55 -125.85 -7.8 -122.6 -7.8 L-119.5 -8.2 -118.6 -8.45 -118.6 -22.65 -96.75 -21.25" fill="url(#gradient1)" fill-rule="evenodd" stroke="none"/>
    <path d="M-90.1 -20.85 L-67.4 -19.7 Q-67.4 -15.55 -64.05 -11.7 -60.45 -7.7 -56.2 -7.7 L-45.2 -7.7 -45.2 10.25 -58.2 10.25 Q-68.8 10.25 -77.5 3.9 -88.95 -4.55 -90.1 -20.85" fill="url(#gradient2)" fill-rule="evenodd" stroke="none"/>
    <path d="M125.7 -17.15 L125.7 10.25 102.55 10.25 102.55 -16.65 125.7 -17.15" fill="url(#gradient3)" fill-rule="evenodd" stroke="none"/>
    <path d="M135.25 -17.5 L158.4 -18.3 158.4 10.25 135.25 10.25 135.25 -17.5" fill="url(#gradient4)" fill-rule="evenodd" stroke="none"/>
    <path d="M44.65 10.25 L44.65 -16.35 67.75 -16.3 67.75 -11.1 96.2 -11.1 96.2 10.25 44.65 10.25" fill="url(#gradient5)" fill-rule="evenodd" stroke="none"/>
    <path d="M6.45 -16.95 L16.8 10.25 -7.9 10.25 -13.35 -13.6 -15.75 -13.3 -15.75 10.25 -38.35 10.25 -38.35 -18.3 Q-15.95 -17.4 6.45 -16.95" fill="url(#gradient6)" fill-rule="evenodd" stroke="none"/>
    <path d="M224.4 -7.55 L224.4 10.1 202.05 10.25 Q193.05 10.25 184.55 4.55 172.6 -3.45 171.75 -18.95 L193.3 -20.15 Q193.3 -16.7 194.8 -13.15 L195.2 -12.15 196.15 -12.35 Q199.1 -12.95 201.7 -15.55 204.15 -18.0 205.1 -20.9 L226.4 -22.4 Q224.75 -17.15 220.85 -13.05 218.5 -10.6 216.95 -9.8 L213.15 -7.55 224.4 -7.55" fill="url(#gradient7)" fill-rule="evenodd" stroke="none"/>
    <path d="M-192.8 41.1 Q-191.85 54.9 -191.05 68.75 L-205.2 69.65 -206.95 42.0 -217.7 42.7 -218.6 29.35 -182.65 27.0 -181.75 40.35 -192.8 41.1" fill="#fef078" fill-rule="evenodd" stroke="none"/>
    <path d="M-192.8 41.1 Q-191.85 54.9 -191.05 68.75 L-205.2 69.65 -206.95 42.0 -217.7 42.7 -218.6 29.35 -182.65 27.0 -181.75 40.35 -192.8 41.1 Z" fill="none" stroke="#4e0103" stroke-linecap="butt" stroke-linejoin="round" stroke-width="13.0"/>
    <path d="M-165.3 37.55 Q-150.35 38.2 -149.2 50.3 -149.8 58.3 -155.9 59.4 L-149.6 69.75 -160.25 69.25 -165.25 60.95 -165.65 69.0 -176.75 68.5 -175.3 37.1 -165.3 37.55 M-164.0 52.9 Q-161.25 53.1 -160.45 50.7 -160.65 48.4 -163.75 48.2 L-164.85 48.3 -165.05 52.75 -164.0 52.9" fill="#fef078" fill-rule="evenodd" stroke="none"/>
    <path d="M-165.3 37.55 Q-150.35 38.2 -149.2 50.3 -149.8 58.3 -155.9 59.4 L-149.6 69.75 -160.25 69.25 -165.25 60.95 -165.65 69.0 -176.75 68.5 -175.3 37.1 -165.3 37.55 M-164.0 52.9 Q-161.25 53.1 -160.45 50.7 -160.65 48.4 -163.75 48.2 L-164.85 48.3 -165.05 52.75 -164.0 52.9 Z" fill="none" stroke="#4e0103" stroke-linecap="butt" stroke-linejoin="round" stroke-width="13.0"/>
    <path d="M-131.75 47.2 L-131.75 49.05 -119.1 49.05 -119.1 57.05 -131.75 57.05 -131.75 58.95 -117.75 58.95 -117.75 68.35 -143.65 68.35 -143.65 37.1 -117.4 37.1 -117.4 47.2 -131.75 47.2" fill="#fef078" fill-rule="evenodd" stroke="none"/>
    <path d="M-131.75 47.2 L-131.75 49.05 -119.1 49.05 -119.1 57.05 -131.75 57.05 -131.75 58.95 -117.75 58.95 -117.75 68.35 -143.65 68.35 -143.65 37.1 -117.4 37.1 -117.4 47.2 -131.75 47.2 Z" fill="none" stroke="#4e0103" stroke-linecap="butt" stroke-linejoin="round" stroke-width="13.0"/>
    <path d="M-94.7 57.35 L-97.0 51.35 -98.85 57.45 -94.7 57.35 M-100.45 68.2 L-112.55 68.4 -103.4 38.8 -90.65 38.6 -81.75 67.95 -92.55 68.1 -94.15 63.85 -99.05 63.95 -100.45 68.2" fill="#fef078" fill-rule="evenodd" stroke="none"/>
    <path d="M-94.7 57.35 L-97.0 51.35 -98.85 57.45 -94.7 57.35 M-100.45 68.2 L-112.55 68.4 -103.4 38.8 -90.65 38.6 -81.75 67.95 -92.55 68.1 -94.15 63.85 -99.05 63.95 -100.45 68.2 Z" fill="none" stroke="#4e0103" stroke-linecap="butt" stroke-linejoin="round" stroke-width="13.0"/>
    <path d="M-53.7 39.35 L-54.2 48.95 Q-58.05 47.1 -60.0 47.0 -61.9 46.9 -62.05 48.4 -62.1 50.45 -57.95 52.85 -53.05 55.75 -53.65 61.7 -55.45 70.05 -67.95 69.5 L-76.0 68.35 -75.6 57.9 Q-70.65 60.35 -67.85 60.55 L-66.2 60.25 Q-65.2 59.95 -65.2 59.15 -65.1 57.7 -69.05 55.8 -74.7 53.1 -74.8 47.7 -75.0 37.05 -63.2 37.65 -58.9 37.85 -53.7 39.35" fill="#fef078" fill-rule="evenodd" stroke="none"/>
    <path d="M-53.7 39.35 L-54.2 48.95 Q-58.05 47.1 -60.0 47.0 -61.9 46.9 -62.05 48.4 -62.1 50.45 -57.95 52.85 -53.05 55.75 -53.65 61.7 -55.45 70.05 -67.95 69.5 L-76.0 68.35 -75.6 57.9 Q-70.65 60.35 -67.85 60.55 L-66.2 60.25 Q-65.2 59.95 -65.2 59.15 -65.1 57.7 -69.05 55.8 -74.7 53.1 -74.8 47.7 -75.0 37.05 -63.2 37.65 -58.9 37.85 -53.7 39.35 Z" fill="none" stroke="#4e0103" stroke-linecap="butt" stroke-linejoin="round" stroke-width="13.0"/>
    <path d="M-23.1 35.0 L-23.1 52.3 Q-23.1 58.65 -26.4 61.85 -29.65 65.05 -36.05 64.7 -46.6 64.25 -47.9 53.0 L-47.9 35.0 -38.15 35.0 -38.15 52.9 Q-37.7 55.25 -35.35 55.35 -32.95 55.35 -32.35 52.9 L-32.35 35.0 -23.1 35.0" fill="#fef078" fill-rule="evenodd" stroke="none"/>
    <path d="M-23.1 35.0 L-23.1 52.3 Q-23.1 58.65 -26.4 61.85 -29.65 65.05 -36.05 64.7 -46.6 64.25 -47.9 53.0 L-47.9 35.0 -38.15 35.0 -38.15 52.9 Q-37.7 55.25 -35.35 55.35 -32.95 55.35 -32.35 52.9 L-32.35 35.0 -23.1 35.0 Z" fill="none" stroke="#4e0103" stroke-linecap="butt" stroke-linejoin="round" stroke-width="13.0"/>
    <path d="M-6.15 37.4 Q9.0 38.5 9.85 50.55 9.0 58.55 2.8 59.5 L9.0 70.1 -1.7 69.4 -6.6 60.9 -7.15 69.0 -18.35 68.3 -16.2 36.75 -6.15 37.4 M-5.25 52.85 Q-2.35 53.0 -1.5 50.7 -1.6 48.35 -4.75 48.15 L-5.85 48.15 -6.2 52.7 -5.25 52.85" fill="#fef078" fill-rule="evenodd" stroke="none"/>
    <path d="M-6.15 37.4 Q9.0 38.5 9.85 50.55 9.0 58.55 2.8 59.5 L9.0 70.1 -1.7 69.4 -6.6 60.9 -7.15 69.0 -18.35 68.3 -16.2 36.75 -6.15 37.4 M-5.25 52.85 Q-2.35 53.0 -1.5 50.7 -1.6 48.35 -4.75 48.15 L-5.85 48.15 -6.2 52.7 -5.25 52.85 Z" fill="none" stroke="#4e0103" stroke-linecap="butt" stroke-linejoin="round" stroke-width="13.0"/>
    <path d="M39.85 44.5 L40.35 52.55 27.6 53.4 27.75 55.3 41.9 54.4 42.5 63.8 16.45 65.55 14.4 34.2 40.75 32.45 41.45 42.55 27.0 43.5 27.1 45.35 39.85 44.5" fill="#fef078" fill-rule="evenodd" stroke="none"/>
    <path d="M39.85 44.5 L40.35 52.55 27.6 53.4 27.75 55.3 41.9 54.4 42.5 63.8 16.45 65.55 14.4 34.2 40.75 32.45 41.45 42.55 27.0 43.5 27.1 45.35 39.85 44.5 Z" fill="none" stroke="#4e0103" stroke-linecap="butt" stroke-linejoin="round" stroke-width="13.0"/>
    <path d="M112.35 69.4 L98.8 68.75 99.35 55.95 90.45 55.55 89.9 68.35 75.0 67.65 76.85 28.35 91.4 29.0 90.75 42.95 99.95 43.4 100.6 29.45 114.15 30.1 112.35 69.4" fill="#fef078" fill-rule="evenodd" stroke="none"/>
    <path d="M112.35 69.4 L98.8 68.75 99.35 55.95 90.45 55.55 89.9 68.35 75.0 67.65 76.85 28.35 91.4 29.0 90.75 42.95 99.95 43.4 100.6 29.45 114.15 30.1 112.35 69.4 Z" fill="none" stroke="#4e0103" stroke-linecap="butt" stroke-linejoin="round" stroke-width="13.0"/>
    <path d="M146.35 37.2 L147.45 56.25 Q147.85 63.3 144.4 67.0 140.85 70.7 133.9 70.7 122.3 70.9 120.15 58.55 L119.05 38.7 129.75 38.1 130.85 57.85 Q131.65 60.45 134.1 60.35 136.75 60.3 137.2 57.45 L136.1 37.7 146.35 37.2" fill="#fef078" fill-rule="evenodd" stroke="none"/>
    <path d="M146.35 37.2 L147.45 56.25 Q147.85 63.3 144.4 67.0 140.85 70.7 133.9 70.7 122.3 70.9 120.15 58.55 L119.05 38.7 129.75 38.1 130.85 57.85 Q131.65 60.45 134.1 60.35 136.75 60.3 137.2 57.45 L136.1 37.7 146.35 37.2 Z" fill="none" stroke="#4e0103" stroke-linecap="butt" stroke-linejoin="round" stroke-width="13.0"/>
    <path d="M180.15 38.4 L178.45 65.5 168.1 64.85 162.35 53.6 161.6 64.45 152.75 63.85 154.4 36.8 165.0 37.45 171.15 49.15 171.9 37.9 180.15 38.4" fill="#fef078" fill-rule="evenodd" stroke="none"/>
    <path d="M180.15 38.4 L178.45 65.5 168.1 64.85 162.35 53.6 161.6 64.45 152.75 63.85 154.4 36.8 165.0 37.45 171.15 49.15 171.9 37.9 180.15 38.4 Z" fill="none" stroke="#4e0103" stroke-linecap="butt" stroke-linejoin="round" stroke-width="13.0"/>
    <path d="M211.85 34.85 L212.2 45.1 203.8 45.35 204.45 66.55 193.65 66.85 193.0 45.75 184.75 46.0 184.4 35.75 211.85 34.85" fill="#fef078" fill-rule="evenodd" stroke="none"/>
    <path d="M211.85 34.85 L212.2 45.1 203.8 45.35 204.45 66.55 193.65 66.85 193.0 45.75 184.75 46.0 184.4 35.75 211.85 34.85 Z" fill="none" stroke="#4e0103" stroke-linecap="butt" stroke-linejoin="round" stroke-width="13.0"/>
    <path d="M-194.3 39.8 L-192.5 67.45 -206.7 68.35 -208.5 40.7 -219.2 41.4 -220.1 27.95 -184.15 25.65 -183.25 39.05 -194.3 39.8" fill="#fef078" fill-rule="evenodd" stroke="none"/>
    <path d="M-194.3 39.8 L-192.5 67.45 -206.7 68.35 -208.5 40.7 -219.2 41.4 -220.1 27.95 -184.15 25.65 -183.25 39.05 -194.3 39.8 Z" fill="none" stroke="#88420e" stroke-linecap="butt" stroke-linejoin="round" stroke-width="10.0"/>
    <path d="M-165.85 47.1 L-166.1 51.65 -165.05 51.8 Q-162.25 51.9 -161.5 49.6 -161.7 47.3 -164.8 47.1 L-165.85 47.1 M-166.3 36.45 Q-151.3 37.2 -150.2 49.2 -150.85 57.1 -156.95 58.2 L-150.65 68.6 -161.3 68.15 -166.3 59.8 -166.7 67.9 -177.8 67.35 -176.3 36.0 -166.3 36.45" fill="#fef078" fill-rule="evenodd" stroke="none"/>
    <path d="M-165.85 47.1 L-166.1 51.65 -165.05 51.8 Q-162.25 51.9 -161.5 49.6 -161.7 47.3 -164.8 47.1 L-165.85 47.1 M-166.3 36.45 Q-151.3 37.2 -150.2 49.2 -150.85 57.1 -156.95 58.2 L-150.65 68.6 -161.3 68.15 -166.3 59.8 -166.7 67.9 -177.8 67.35 -176.3 36.0 -166.3 36.45 Z" fill="none" stroke="#88420e" stroke-linecap="butt" stroke-linejoin="round" stroke-width="10.0"/>
    <path d="M-132.85 46.15 L-132.85 47.95 -120.2 47.95 -120.2 56.0 -132.85 56.0 -132.85 57.85 -118.75 57.85 -118.75 67.25 -144.75 67.25 -144.75 36.1 -118.45 36.1 -118.45 46.15 -132.85 46.15" fill="#fef078" fill-rule="evenodd" stroke="none"/>
    <path d="M-132.85 46.15 L-132.85 47.95 -120.2 47.95 -120.2 56.0 -132.85 56.0 -132.85 57.85 -118.75 57.85 -118.75 67.25 -144.75 67.25 -144.75 36.1 -118.45 36.1 -118.45 46.15 -132.85 46.15 Z" fill="none" stroke="#88420e" stroke-linecap="butt" stroke-linejoin="round" stroke-width="10.0"/>
    <path d="M-95.75 56.35 L-98.05 50.3 -99.9 56.4 -95.75 56.35 M-101.5 67.2 L-113.6 67.35 -104.5 37.75 -91.7 37.65 -82.8 66.9 -93.6 67.1 -95.2 62.9 -100.1 62.95 -101.5 67.2" fill="#fef078" fill-rule="evenodd" stroke="none"/>
    <path d="M-95.75 56.35 L-98.05 50.3 -99.9 56.4 -95.75 56.35 M-101.5 67.2 L-113.6 67.35 -104.5 37.75 -91.7 37.65 -82.8 66.9 -93.6 67.1 -95.2 62.9 -100.1 62.95 -101.5 67.2 Z" fill="none" stroke="#88420e" stroke-linecap="butt" stroke-linejoin="round" stroke-width="10.0"/>
    <path d="M-54.75 38.15 L-55.2 47.75 Q-59.0 46.0 -61.05 45.9 -63.0 45.8 -63.05 47.3 -63.15 49.2 -59.0 51.75 -54.1 54.65 -54.7 60.55 -56.5 68.95 -69.0 68.35 L-77.05 67.25 -76.65 56.8 Q-71.65 59.25 -68.9 59.4 L-67.25 59.15 Q-66.25 58.75 -66.2 57.95 -66.2 56.6 -70.1 54.65 -75.75 51.9 -75.85 46.55 -76.05 36.0 -64.15 36.45 -60.2 36.65 -54.75 38.15" fill="#fef078" fill-rule="evenodd" stroke="none"/>
    <path d="M-54.75 38.15 L-55.2 47.75 Q-59.0 46.0 -61.05 45.9 -63.0 45.8 -63.05 47.3 -63.15 49.2 -59.0 51.75 -54.1 54.65 -54.7 60.55 -56.5 68.95 -69.0 68.35 L-77.05 67.25 -76.65 56.8 Q-71.65 59.25 -68.9 59.4 L-67.25 59.15 Q-66.25 58.75 -66.2 57.95 -66.2 56.6 -70.1 54.65 -75.75 51.9 -75.85 46.55 -76.05 36.0 -64.15 36.45 -60.2 36.65 -54.75 38.15 Z" fill="none" stroke="#88420e" stroke-linecap="butt" stroke-linejoin="round" stroke-width="10.0"/>
    <path d="M-24.05 34.0 L-24.05 51.35 Q-24.05 57.7 -27.35 60.9 -30.6 64.05 -37.05 63.75 -47.55 63.3 -48.85 52.05 L-48.85 34.0 -39.1 34.0 -39.1 51.9 Q-38.65 54.3 -36.3 54.4 -33.9 54.4 -33.35 51.9 L-33.35 34.0 -24.05 34.0" fill="#fef078" fill-rule="evenodd" stroke="none"/>
    <path d="M-24.05 34.0 L-24.05 51.35 Q-24.05 57.7 -27.35 60.9 -30.6 64.05 -37.05 63.75 -47.55 63.3 -48.85 52.05 L-48.85 34.0 -39.1 34.0 -39.1 51.9 Q-38.65 54.3 -36.3 54.4 -33.9 54.4 -33.35 51.9 L-33.35 34.0 -24.05 34.0 Z" fill="none" stroke="#88420e" stroke-linecap="butt" stroke-linejoin="round" stroke-width="10.0"/>
    <path d="M-6.9 47.0 L-7.25 51.55 -6.2 51.75 Q-3.35 51.9 -2.55 49.5 -2.65 47.3 -5.8 47.0 L-6.9 47.0 M-7.15 36.3 Q8.0 37.25 8.8 49.4 8.0 57.45 1.85 58.35 L7.95 69.0 -2.75 68.2 -7.65 59.8 -8.15 67.9 -19.3 67.1 -17.15 35.55 -7.15 36.3" fill="#fef078" fill-rule="evenodd" stroke="none"/>
    <path d="M-6.9 47.0 L-7.25 51.55 -6.2 51.75 Q-3.35 51.9 -2.55 49.5 -2.65 47.3 -5.8 47.0 L-6.9 47.0 M-7.15 36.3 Q8.0 37.25 8.8 49.4 8.0 57.45 1.85 58.35 L7.95 69.0 -2.75 68.2 -7.65 59.8 -8.15 67.9 -19.3 67.1 -17.15 35.55 -7.15 36.3 Z" fill="none" stroke="#88420e" stroke-linecap="butt" stroke-linejoin="round" stroke-width="10.0"/>
    <path d="M38.65 43.5 L39.25 51.6 26.5 52.45 26.6 54.25 40.75 53.35 41.4 62.85 15.3 64.5 13.2 33.15 39.65 31.45 40.3 41.55 25.85 42.5 25.95 44.35 38.65 43.5" fill="#fef078" fill-rule="evenodd" stroke="none"/>
    <path d="M38.65 43.5 L39.25 51.6 26.5 52.45 26.6 54.25 40.75 53.35 41.4 62.85 15.3 64.5 13.2 33.15 39.65 31.45 40.3 41.55 25.85 42.5 25.95 44.35 38.65 43.5 Z" fill="none" stroke="#88420e" stroke-linecap="butt" stroke-linejoin="round" stroke-width="10.0"/>
    <path d="M111.05 67.95 L97.5 67.3 98.05 54.5 89.15 54.15 88.6 66.9 73.7 66.2 75.55 26.95 90.1 27.6 89.45 41.55 98.65 42.0 99.3 28.05 112.85 28.7 111.05 67.95" fill="#fef078" fill-rule="evenodd" stroke="none"/>
    <path d="M111.05 67.95 L97.5 67.3 98.05 54.5 89.15 54.15 88.6 66.9 73.7 66.2 75.55 26.95 90.1 27.6 89.45 41.55 98.65 42.0 99.3 28.05 112.85 28.7 111.05 67.95 Z" fill="none" stroke="#88420e" stroke-linecap="butt" stroke-linejoin="round" stroke-width="10.0"/>
    <path d="M145.25 36.15 L146.3 55.25 Q146.7 62.25 143.25 65.95 139.85 69.65 132.8 69.7 121.05 69.85 119.05 57.5 L117.95 37.65 128.65 37.05 129.75 56.8 Q130.45 59.45 132.95 59.3 135.65 59.25 136.1 56.4 L135.0 36.75 145.25 36.15" fill="#fef078" fill-rule="evenodd" stroke="none"/>
    <path d="M145.25 36.15 L146.3 55.25 Q146.7 62.25 143.25 65.95 139.85 69.65 132.8 69.7 121.05 69.85 119.05 57.5 L117.95 37.65 128.65 37.05 129.75 56.8 Q130.45 59.45 132.95 59.3 135.65 59.25 136.1 56.4 L135.0 36.75 145.25 36.15 Z" fill="none" stroke="#88420e" stroke-linecap="butt" stroke-linejoin="round" stroke-width="10.0"/>
    <path d="M179.3 37.4 L177.55 64.45 167.25 63.8 161.45 52.55 160.8 63.4 151.8 62.85 153.5 35.75 164.1 36.45 170.25 48.1 170.95 36.85 179.3 37.4" fill="#fef078" fill-rule="evenodd" stroke="none"/>
    <path d="M179.3 37.4 L177.55 64.45 167.25 63.8 161.45 52.55 160.8 63.4 151.8 62.85 153.5 35.75 164.1 36.45 170.25 48.1 170.95 36.85 179.3 37.4 Z" fill="none" stroke="#88420e" stroke-linecap="butt" stroke-linejoin="round" stroke-width="10.0"/>
    <path d="M210.75 33.8 L211.1 44.05 202.65 44.35 203.35 65.5 192.55 65.8 191.8 44.7 183.65 44.95 183.25 34.7 210.75 33.8" fill="#fef078" fill-rule="evenodd" stroke="none"/>
    <path d="M210.75 33.8 L211.1 44.05 202.65 44.35 203.35 65.5 192.55 65.8 191.8 44.7 183.65 44.95 183.25 34.7 210.75 33.8 Z" fill="none" stroke="#88420e" stroke-linecap="butt" stroke-linejoin="round" stroke-width="10.0"/>
    <path d="M-194.3 39.8 L-192.5 67.45 -206.7 68.35 -208.5 40.7 -219.2 41.4 -220.1 27.95 -184.15 25.65 -183.25 39.05 -194.3 39.8" fill="#fee655" fill-rule="evenodd" stroke="none"/>
    <path d="M-165.85 47.1 L-166.1 51.65 -165.05 51.8 Q-162.25 51.9 -161.5 49.6 -161.7 47.3 -164.8 47.1 L-165.85 47.1 M-166.3 36.45 Q-151.3 37.2 -150.2 49.2 -150.85 57.1 -156.95 58.2 L-150.65 68.6 -161.3 68.15 -166.3 59.8 -166.7 67.9 -177.8 67.35 -176.3 36.0 -166.3 36.45" fill="#fee655" fill-rule="evenodd" stroke="none"/>
    <path d="M-132.85 46.15 L-132.85 47.95 -120.2 47.95 -120.2 56.0 -132.85 56.0 -132.85 57.85 -118.75 57.85 -118.75 67.25 -144.75 67.25 -144.75 36.1 -118.45 36.1 -118.45 46.15 -132.85 46.15" fill="#fee655" fill-rule="evenodd" stroke="none"/>
    <path d="M-95.75 56.35 L-98.05 50.3 -99.9 56.4 -95.75 56.35 M-101.5 67.2 L-113.6 67.35 -104.5 37.75 -91.7 37.65 -82.8 66.9 -93.6 67.1 -95.2 62.9 -100.1 62.95 -101.5 67.2" fill="#fee655" fill-rule="evenodd" stroke="none"/>
    <path d="M-54.75 38.15 L-55.2 47.75 Q-59.0 46.0 -61.05 45.9 -63.0 45.8 -63.05 47.3 -63.15 49.2 -59.0 51.75 -54.1 54.65 -54.7 60.55 -56.5 68.95 -69.0 68.35 L-77.05 67.25 -76.65 56.8 Q-71.65 59.25 -68.9 59.4 L-67.25 59.15 Q-66.25 58.75 -66.2 57.95 -66.2 56.6 -70.1 54.65 -75.75 51.9 -75.85 46.55 -76.05 36.0 -64.15 36.45 -60.2 36.65 -54.75 38.15" fill="#fee655" fill-rule="evenodd" stroke="none"/>
    <path d="M-24.05 34.0 L-24.05 51.35 Q-24.05 57.7 -27.35 60.9 -30.6 64.05 -37.05 63.75 -47.55 63.3 -48.85 52.05 L-48.85 34.0 -39.1 34.0 -39.1 51.9 Q-38.65 54.3 -36.3 54.4 -33.9 54.4 -33.35 51.9 L-33.35 34.0 -24.05 34.0" fill="#fee655" fill-rule="evenodd" stroke="none"/>
    <path d="M-6.9 47.0 L-7.25 51.55 -6.2 51.75 Q-3.35 51.9 -2.55 49.5 -2.65 47.3 -5.8 47.0 L-6.9 47.0 M-7.15 36.3 Q8.0 37.25 8.8 49.4 8.0 57.45 1.85 58.35 L7.95 69.0 -2.75 68.2 -7.65 59.8 -8.15 67.9 -19.3 67.1 -17.15 35.55 -7.15 36.3" fill="#fee655" fill-rule="evenodd" stroke="none"/>
    <path d="M38.65 43.5 L39.25 51.6 26.5 52.45 26.6 54.25 40.75 53.35 41.4 62.85 15.3 64.5 13.2 33.15 39.65 31.45 40.3 41.55 25.85 42.5 25.95 44.35 38.65 43.5" fill="#fee655" fill-rule="evenodd" stroke="none"/>
    <path d="M111.05 67.95 L97.5 67.3 98.05 54.5 89.15 54.15 88.6 66.9 73.7 66.2 75.55 26.95 90.1 27.6 89.45 41.55 98.65 42.0 99.3 28.05 112.85 28.7 111.05 67.95" fill="#fee655" fill-rule="evenodd" stroke="none"/>
    <path d="M145.25 36.15 L146.3 55.25 Q146.7 62.25 143.25 65.95 139.85 69.65 132.8 69.7 121.05 69.85 119.05 57.5 L117.95 37.65 128.65 37.05 129.75 56.8 Q130.45 59.45 132.95 59.3 135.65 59.25 136.1 56.4 L135.0 36.75 145.25 36.15" fill="#fee655" fill-rule="evenodd" stroke="none"/>
    <path d="M179.3 37.4 L177.55 64.45 167.25 63.8 161.45 52.55 160.8 63.4 151.8 62.85 153.5 35.75 164.1 36.45 170.25 48.1 170.95 36.85 179.3 37.4" fill="#fee655" fill-rule="evenodd" stroke="none"/>
    <path d="M210.75 33.8 L211.1 44.05 202.65 44.35 203.35 65.5 192.55 65.8 191.8 44.7 183.65 44.95 183.25 34.7 210.75 33.8" fill="#fee655" fill-rule="evenodd" stroke="none"/>
    <path d="M-184.15 25.65 L-183.25 39.05 -185.45 27.2 -220.0 29.4 -220.1 27.95 -184.15 25.65" fill="#ffffff" fill-rule="evenodd" stroke="none"/>
    <path d="M-167.45 37.5 L-176.35 37.05 -176.3 36.0 -166.3 36.45 Q-151.3 37.2 -150.2 49.2 -150.65 54.7 -153.75 56.9 -151.6 54.5 -151.35 50.25 -152.4 38.15 -167.45 37.5" fill="#fffee1" fill-rule="evenodd" stroke="none"/>
    <path d="M-144.75 37.1 L-144.75 36.1 -118.45 36.1 -118.45 46.15 -119.55 37.1 -144.75 37.1" fill="#fffee1" fill-rule="evenodd" stroke="none"/>
    <path d="M-91.7 37.65 L-82.8 66.9 -92.65 38.7 -104.75 38.8 -104.5 37.75 -91.7 37.65" fill="#fffee1" fill-rule="evenodd" stroke="none"/>
    <path d="M-55.85 39.2 Q-61.45 37.7 -65.35 37.5 -70.8 37.3 -73.7 39.45 -70.95 36.2 -64.15 36.45 -60.2 36.65 -54.75 38.15 L-55.2 47.75 -55.85 39.2" fill="#fffee1" fill-rule="evenodd" stroke="none"/>
    <path d="M-40.1 35.0 L-48.85 35.0 -48.85 34.0 -39.1 34.0 -39.1 51.9 -40.1 35.0" fill="#fffee1" fill-rule="evenodd" stroke="none"/>
    <path d="M-33.35 35.0 L-33.35 34.0 -24.05 34.0 -24.05 51.35 -25.05 35.0 -33.35 35.0" fill="#fffee1" fill-rule="evenodd" stroke="none"/>
    <path d="M-8.3 37.25 L-17.25 36.65 -17.15 35.55 -7.15 36.3 Q8.0 37.25 8.8 49.4 8.2 54.95 5.1 57.1 7.25 54.65 7.65 50.45 6.85 38.35 -8.3 37.25" fill="#fffee1" fill-rule="evenodd" stroke="none"/>
    <path d="M13.3 34.25 L13.2 33.15 39.65 31.45 40.3 41.55 38.6 32.55 13.3 34.25" fill="#fffee1" fill-rule="evenodd" stroke="none"/>
    <path d="M112.85 28.7 L111.05 67.95 111.45 30.0 99.25 29.4 99.3 28.05 112.85 28.7" fill="#fffee1" fill-rule="evenodd" stroke="none"/>
    <path d="M88.0 42.85 L88.65 28.85 75.45 28.3 75.55 26.95 90.1 27.6 89.45 41.55 97.3 41.9 88.0 42.85" fill="#fffee1" fill-rule="evenodd" stroke="none"/>
    <path d="M135.05 37.75 L135.0 36.75 145.25 36.15 146.3 55.25 144.2 37.25 135.05 37.75" fill="#fffee1" fill-rule="evenodd" stroke="none"/>
    <path d="M127.6 38.2 L118.0 38.75 117.95 37.65 128.65 37.05 129.75 56.8 127.6 38.2" fill="#fffee1" fill-rule="evenodd" stroke="none"/>
    <path d="M153.45 36.75 L153.5 35.75 164.1 36.45 170.25 48.1 163.1 37.3 153.45 36.75" fill="#fffee1" fill-rule="evenodd" stroke="none"/>
    <path d="M170.9 37.85 L170.95 36.85 179.3 37.4 177.55 64.45 178.25 38.3 170.9 37.85" fill="#fffee1" fill-rule="evenodd" stroke="none"/>
    <path d="M210.75 33.8 L211.1 44.05 209.75 34.9 183.3 35.75 183.25 34.7 210.75 33.8" fill="#fffee1" fill-rule="evenodd" stroke="none"/>
    <path d="M-205.4 66.85 L-206.6 47.9 -195.25 47.3 -194.0 66.05 -205.4 66.85" fill="url(#gradient8)" fill-rule="evenodd" stroke="none"/>
    <path d="M-176.7 66.35 L-176.05 52.3 -152.55 53.85 Q-154.05 56.6 -157.15 57.2 L-158.7 57.45 -152.6 67.45 -160.65 67.05 -167.2 56.2 -167.7 66.7 -176.7 66.35" fill="url(#gradient9)" fill-rule="evenodd" stroke="none"/>
    <path d="M-143.65 66.2 L-143.65 52.75 -121.25 53.2 -121.25 54.9 -133.9 54.9 -133.9 58.95 -119.9 58.95 -119.9 66.2 -143.65 66.2" fill="url(#gradient10)" fill-rule="evenodd" stroke="none"/>
    <path d="M-94.25 57.35 L-95.4 54.3 -87.7 54.4 -84.25 65.95 -92.85 66.05 -94.5 61.85 -100.85 61.9 -102.3 66.2 -112.15 66.35 -108.45 54.25 -100.35 54.3 -101.3 57.45 -94.25 57.35" fill="url(#gradient11)" fill-rule="evenodd" stroke="none"/>
    <path d="M-65.15 58.0 Q-65.1 56.35 -67.75 54.7 L-56.7 55.45 Q-55.55 57.45 -55.75 60.45 -57.5 67.75 -68.9 67.3 L-75.95 66.4 -75.6 58.5 Q-71.5 60.35 -69.0 60.5 L-66.85 60.15 Q-65.15 59.45 -65.15 58.0" fill="url(#gradient12)" fill-rule="evenodd" stroke="none"/>
    <path d="M-32.35 52.1 L-32.35 50.9 -25.05 51.0 -25.05 51.35 Q-25.05 57.35 -28.0 60.15 -30.65 62.75 -36.0 62.75 L-36.95 62.75 Q-46.7 62.35 -47.9 52.0 L-47.9 50.7 -40.1 50.8 -40.1 52.1 Q-39.35 55.25 -36.4 55.35 -33.15 55.35 -32.35 52.1" fill="url(#gradient13)" fill-rule="evenodd" stroke="none"/>
    <path d="M-18.2 66.05 L-17.45 54.8 4.05 56.45 Q3.15 57.1 1.65 57.3 L0.1 57.55 6.0 67.75 -2.1 67.2 -8.45 56.15 -9.2 66.7 -18.2 66.05" fill="url(#gradient14)" fill-rule="evenodd" stroke="none"/>
    <path d="M16.25 63.4 L15.55 52.4 25.35 51.8 25.6 55.45 39.7 54.5 40.2 61.8 16.25 63.4" fill="url(#gradient15)" fill-rule="evenodd" stroke="none"/>
    <path d="M110.4 52.3 L109.7 66.55 98.9 66.0 99.5 53.2 87.85 52.7 87.3 65.5 75.15 64.9 75.8 51.0 110.4 52.3" fill="url(#gradient16)" fill-rule="evenodd" stroke="none"/>
    <path d="M137.15 56.6 L137.1 55.1 145.2 54.5 145.2 55.3 Q145.6 61.85 142.45 65.15 139.75 68.2 133.85 68.6 L132.8 68.6 Q122.1 68.8 120.05 57.45 L120.0 56.4 128.6 55.75 128.65 57.0 128.7 57.05 Q129.6 60.55 133.0 60.45 136.55 60.25 137.15 56.6" fill="url(#gradient17)" fill-rule="evenodd" stroke="none"/>
    <path d="M152.85 62.0 L153.5 51.55 160.5 51.75 159.85 62.45 152.85 62.0" fill="url(#gradient18)" fill-rule="evenodd" stroke="none"/>
    <path d="M167.85 62.9 L162.1 51.8 177.4 52.25 176.7 63.5 167.85 62.9" fill="url(#gradient19)" fill-rule="evenodd" stroke="none"/>
    <path d="M193.55 64.7 L193.1 51.25 201.8 50.6 202.25 64.45 193.55 64.7" fill="url(#gradient20)" fill-rule="evenodd" stroke="none"/>
  </g>
  <defs>
    <linearGradient gradientTransform="matrix(0.0, -0.0271, -0.0271, 0.0, -192.6, -11.25)" gradientUnits="userSpaceOnUse" id="gradient0" spreadMethod="pad" x1="-819.2" x2="819.2">
      <stop offset="0.0" stop-color="#ffffff"/>
      <stop offset="1.0" stop-color="#9da4b8"/>
    </linearGradient>
    <linearGradient gradientTransform="matrix(0.0, -0.0271, -0.0271, 0.0, -125.15, -11.25)" gradientUnits="userSpaceOnUse" id="gradient1" spreadMethod="pad" x1="-819.2" x2="819.2">
      <stop offset="0.0" stop-color="#ffffff"/>
      <stop offset="1.0" stop-color="#9da4b8"/>
    </linearGradient>
    <linearGradient gradientTransform="matrix(0.0, -0.0271, -0.0271, 0.0, -67.6, -11.25)" gradientUnits="userSpaceOnUse" id="gradient2" spreadMethod="pad" x1="-819.2" x2="819.2">
      <stop offset="0.0" stop-color="#ffffff"/>
      <stop offset="1.0" stop-color="#9da4b8"/>
    </linearGradient>
    <linearGradient gradientTransform="matrix(0.0, -0.0271, -0.0271, 0.0, 114.15, -11.25)" gradientUnits="userSpaceOnUse" id="gradient3" spreadMethod="pad" x1="-819.2" x2="819.2">
      <stop offset="0.0" stop-color="#ffffff"/>
      <stop offset="1.0" stop-color="#9da4b8"/>
    </linearGradient>
    <linearGradient gradientTransform="matrix(0.0, -0.0271, -0.0271, 0.0, 146.8, -11.25)" gradientUnits="userSpaceOnUse" id="gradient4" spreadMethod="pad" x1="-819.2" x2="819.2">
      <stop offset="0.0" stop-color="#ffffff"/>
      <stop offset="1.0" stop-color="#9da4b8"/>
    </linearGradient>
    <linearGradient gradientTransform="matrix(0.0, -0.0271, -0.0271, 0.0, 70.4, -11.25)" gradientUnits="userSpaceOnUse" id="gradient5" spreadMethod="pad" x1="-819.2" x2="819.2">
      <stop offset="0.0" stop-color="#ffffff"/>
      <stop offset="1.0" stop-color="#9da4b8"/>
    </linearGradient>
    <linearGradient gradientTransform="matrix(0.0, -0.0271, -0.0271, 0.0, -10.8, -11.25)" gradientUnits="userSpaceOnUse" id="gradient6" spreadMethod="pad" x1="-819.2" x2="819.2">
      <stop offset="0.0" stop-color="#ffffff"/>
      <stop offset="1.0" stop-color="#9da4b8"/>
    </linearGradient>
    <linearGradient gradientTransform="matrix(0.0, -0.0271, -0.0271, 0.0, 199.1, -11.25)" gradientUnits="userSpaceOnUse" id="gradient7" spreadMethod="pad" x1="-819.2" x2="819.2">
      <stop offset="0.0" stop-color="#ffffff"/>
      <stop offset="1.0" stop-color="#9da4b8"/>
    </linearGradient>
    <linearGradient gradientTransform="matrix(8.0E-4, 0.012, 0.012, -8.0E-4, -200.0, 61.55)" gradientUnits="userSpaceOnUse" id="gradient8" spreadMethod="pad" x1="-819.2" x2="819.2">
      <stop offset="0.28627450980392155" stop-color="#fbae41"/>
      <stop offset="1.0" stop-color="#fffd5d"/>
    </linearGradient>
    <linearGradient gradientTransform="matrix(-4.0E-4, 0.0091, 0.0091, 4.0E-4, -164.5, 63.1)" gradientUnits="userSpaceOnUse" id="gradient9" spreadMethod="pad" x1="-819.2" x2="819.2">
      <stop offset="0.28627450980392155" stop-color="#fbae41"/>
      <stop offset="1.0" stop-color="#fffd5d"/>
    </linearGradient>
    <linearGradient gradientTransform="matrix(0.0, 0.0092, 0.0092, 0.0, -131.75, 62.45)" gradientUnits="userSpaceOnUse" id="gradient10" spreadMethod="pad" x1="-819.2" x2="819.2">
      <stop offset="0.28627450980392155" stop-color="#fbae41"/>
      <stop offset="1.0" stop-color="#fffd5d"/>
    </linearGradient>
    <linearGradient gradientTransform="matrix(1.0E-4, 0.0088, 0.0088, -1.0E-4, -98.2, 62.7)" gradientUnits="userSpaceOnUse" id="gradient11" spreadMethod="pad" x1="-819.2" x2="819.2">
      <stop offset="0.28627450980392155" stop-color="#fbae41"/>
      <stop offset="1.0" stop-color="#fffd5d"/>
    </linearGradient>
    <linearGradient gradientTransform="matrix(-4.0E-4, 0.0092, 0.0092, 4.0E-4, -65.85, 63.1)" gradientUnits="userSpaceOnUse" id="gradient12" spreadMethod="pad" x1="-819.2" x2="819.2">
      <stop offset="0.28627450980392155" stop-color="#fbae41"/>
      <stop offset="1.0" stop-color="#fffd5d"/>
    </linearGradient>
    <linearGradient gradientTransform="matrix(0.0, 0.0084, 0.0084, 0.0, -36.45, 57.9)" gradientUnits="userSpaceOnUse" id="gradient13" spreadMethod="pad" x1="-819.2" x2="819.2">
      <stop offset="0.28627450980392155" stop-color="#fbae41"/>
      <stop offset="1.0" stop-color="#fffd5d"/>
    </linearGradient>
    <linearGradient gradientTransform="matrix(-6.0E-4, 0.0092, 0.0092, 6.0E-4, -5.8, 63.15)" gradientUnits="userSpaceOnUse" id="gradient14" spreadMethod="pad" x1="-819.2" x2="819.2">
      <stop offset="0.28627450980392155" stop-color="#fbae41"/>
      <stop offset="1.0" stop-color="#fffd5d"/>
    </linearGradient>
    <linearGradient gradientTransform="matrix(6.0E-4, 0.0092, 0.0092, -6.0E-4, 28.0, 58.8)" gradientUnits="userSpaceOnUse" id="gradient15" spreadMethod="pad" x1="-819.2" x2="819.2">
      <stop offset="0.28627450980392155" stop-color="#fbae41"/>
      <stop offset="1.0" stop-color="#fffd5d"/>
    </linearGradient>
    <linearGradient gradientTransform="matrix(-5.0E-4, 0.0116, 0.0116, 5.0E-4, 92.7, 60.9)" gradientUnits="userSpaceOnUse" id="gradient16" spreadMethod="pad" x1="-819.2" x2="819.2">
      <stop offset="0.28627450980392155" stop-color="#fbae41"/>
      <stop offset="1.0" stop-color="#fffd5d"/>
    </linearGradient>
    <linearGradient gradientTransform="matrix(5.0E-4, 0.0092, 0.0092, -5.0E-4, 133.05, 63.2)" gradientUnits="userSpaceOnUse" id="gradient17" spreadMethod="pad" x1="-819.2" x2="819.2">
      <stop offset="0.28627450980392155" stop-color="#fbae41"/>
      <stop offset="1.0" stop-color="#fffd5d"/>
    </linearGradient>
    <linearGradient gradientTransform="matrix(-5.0E-4, 0.008, 0.008, 5.0E-4, 156.55, 58.85)" gradientUnits="userSpaceOnUse" id="gradient18" spreadMethod="pad" x1="-819.2" x2="819.2">
      <stop offset="0.28627450980392155" stop-color="#fbae41"/>
      <stop offset="1.0" stop-color="#fffd5d"/>
    </linearGradient>
    <linearGradient gradientTransform="matrix(-5.0E-4, 0.008, 0.008, 5.0E-4, 169.3, 59.7)" gradientUnits="userSpaceOnUse" id="gradient19" spreadMethod="pad" x1="-819.2" x2="819.2">
      <stop offset="0.28627450980392155" stop-color="#fbae41"/>
      <stop offset="1.0" stop-color="#fffd5d"/>
    </linearGradient>
    <linearGradient gradientTransform="matrix(3.0E-4, 0.0092, 0.0092, -3.0E-4, 197.8, 60.75)" gradientUnits="userSpaceOnUse" id="gradient20" spreadMethod="pad" x1="-819.2" x2="819.2">
      <stop offset="0.28627450980392155" stop-color="#fbae41"/>
      <stop offset="1.0" stop-color="#fffd5d"/>
    </linearGradient>
  </defs>
</svg>
