<?xml version="1.0" encoding="UTF-8" standalone="no"?>
<svg xmlns:ffdec="https://www.free-decompiler.com/flash" xmlns:xlink="http://www.w3.org/1999/xlink" ffdec:objectType="shape" height="120.0px" width="110.0px" xmlns="http://www.w3.org/2000/svg">
  <g transform="matrix(1.0, 0.0, 0.0, 1.0, 75.0, 60.0)">
    <path d="M-55.0 0.0 L-55.0 -10.0 Q-53.4 -62.2 -5.05 -59.9 L35.0 -59.85 35.0 -10.0 -5.0 -10.0 -5.0 0.0 -55.0 0.0" fill="url(#gradient0)" fill-rule="evenodd" stroke="none"/>
    <path d="M-5.0 0.0 L-4.45 0.0 Q3.5 0.2 9.15 5.85 14.8 11.5 15.0 19.5 L15.0 30.55 Q14.8 38.5 9.15 44.15 3.45 49.85 -4.5 50.0 L-55.0 50.0 -55.5 50.0 Q-63.5 49.8 -69.15 44.15 -74.8 38.5 -75.0 30.55 L-75.0 19.5 Q-74.8 11.5 -69.15 5.85 -63.5 0.2 -55.5 0.0 L-55.0 0.0 -5.0 0.0" fill="#ffcc33" fill-rule="evenodd" stroke="none"/>
    <path d="M-4.5 50.0 L-4.05 50.0 -5.0 60.0 -55.0 60.0 -55.0 50.0 -4.5 50.0" fill="#999999" fill-rule="evenodd" stroke="none"/>
    <path d="M-37.95 15.0 Q-37.5 14.4 -37.5 13.9 -37.5 11.8 -39.5 11.85 -41.5 11.85 -41.5 13.85 L-41.25 14.9 Q-40.75 15.8 -39.5 15.8 -38.6 15.8 -37.95 15.0 M-38.85 23.2 Q-39.35 22.55 -40.5 22.45 -42.5 22.25 -42.5 24.35 L-42.2 25.4 Q-41.7 26.3 -40.5 26.3 -39.65 26.3 -39.0 25.6 -38.45 26.55 -37.25 26.55 -36.3 26.55 -35.7 25.8 -35.25 25.2 -35.25 24.65 -35.25 22.9 -37.25 22.7 -38.35 22.6 -38.85 23.2 M-40.5 20.35 Q-39.95 21.3 -38.75 21.3 -37.8 21.3 -37.2 20.55 -36.75 19.95 -36.75 19.4 -36.75 17.65 -38.75 17.45 -40.75 17.25 -40.75 19.35 L-40.5 20.35 M-34.0 24.1 Q-34.0 27.6 -38.45 27.95 L-44.25 27.8 -51.6 27.9 -54.15 28.05 Q-57.8 28.05 -60.75 24.85 -63.0 22.4 -63.0 21.35 L-62.9 20.4 Q-62.7 19.9 -62.0 19.55 L-59.75 19.4 -57.5 19.05 -55.85 17.7 Q-54.2 16.55 -52.25 16.5 -46.15 0.2 -39.55 8.9 -37.25 11.95 -35.5 17.25 -34.0 21.85 -34.0 24.1 M-52.25 21.3 Q-51.3 21.3 -50.7 20.55 -50.25 19.95 -50.25 19.4 -50.25 17.65 -52.25 17.45 -54.25 17.25 -54.25 19.35 L-54.0 20.35 Q-53.45 21.3 -52.25 21.3 M-56.25 22.05 Q-58.25 22.1 -58.25 24.1 L-57.95 25.15 Q-57.45 26.05 -56.25 26.05 -55.3 26.05 -54.7 25.3 -54.25 24.7 -54.25 24.15 -54.25 22.05 -56.25 22.05 M-42.5 18.4 Q-42.5 16.6 -44.5 16.45 -46.5 16.25 -46.5 18.35 L-46.25 19.4 Q-45.75 20.3 -44.5 20.3 -43.6 20.3 -42.95 19.5 -42.5 18.9 -42.5 18.4 M-45.5 13.1 L-45.2 14.15 Q-44.7 15.05 -43.5 15.05 -42.6 15.05 -41.95 14.25 -41.5 13.65 -41.5 13.15 -41.5 11.35 -43.5 11.2 -45.5 11.0 -45.5 13.1 M-48.5 15.8 Q-47.6 15.8 -46.95 15.0 -46.5 14.4 -46.5 13.9 -46.5 12.1 -48.5 11.95 -50.5 11.75 -50.5 13.85 L-50.25 14.9 Q-49.75 15.8 -48.5 15.8 M-49.5 21.85 L-49.25 22.9 Q-48.75 23.8 -47.5 23.8 -46.55 23.8 -45.95 23.05 -45.5 22.45 -45.5 21.9 -45.5 20.15 -47.5 19.95 -49.5 19.75 -49.5 21.85 M-49.25 26.45 Q-48.75 25.65 -48.75 25.15 -48.75 22.95 -50.85 23.15 -53.0 23.35 -53.0 25.6 L-52.7 26.65 Q-52.2 27.55 -51.0 27.55 -49.95 27.55 -49.25 26.45" fill="#ffcc66" fill-rule="evenodd" stroke="none"/>
    <path d="M-37.95 15.0 Q-38.6 15.8 -39.5 15.8 -40.75 15.8 -41.25 14.9 L-41.5 13.85 Q-41.5 11.85 -39.5 11.85 -37.5 11.8 -37.5 13.9 -37.5 14.4 -37.95 15.0 M-39.0 25.6 L-39.25 24.6 Q-39.25 23.65 -38.85 23.2 -38.35 22.6 -37.25 22.7 -35.25 22.9 -35.25 24.65 -35.25 25.2 -35.7 25.8 -36.3 26.55 -37.25 26.55 -38.45 26.55 -39.0 25.6 M-42.5 18.4 Q-42.5 18.9 -42.95 19.5 -43.6 20.3 -44.5 20.3 -45.75 20.3 -46.25 19.4 L-46.5 18.35 Q-46.5 16.25 -44.5 16.45 -42.5 16.6 -42.5 18.4 M-48.5 15.8 Q-49.75 15.8 -50.25 14.9 L-50.5 13.85 Q-50.5 11.75 -48.5 11.95 -46.5 12.1 -46.5 13.9 -46.5 14.4 -46.95 15.0 -47.6 15.8 -48.5 15.8 M-49.25 26.45 Q-49.95 27.55 -51.0 27.55 -52.2 27.55 -52.7 26.65 L-53.0 25.6 Q-53.0 23.35 -50.85 23.15 -48.75 22.95 -48.75 25.15 -48.75 25.65 -49.25 26.45" fill="#ffff99" fill-rule="evenodd" stroke="none"/>
    <path d="M-38.85 23.2 Q-39.25 23.65 -39.25 24.6 L-39.0 25.6 Q-39.65 26.3 -40.5 26.3 -41.7 26.3 -42.2 25.4 L-42.5 24.35 Q-42.5 22.25 -40.5 22.45 -39.35 22.55 -38.85 23.2 M-40.5 20.35 L-40.75 19.35 Q-40.75 17.25 -38.75 17.45 -36.75 17.65 -36.75 19.4 -36.75 19.95 -37.2 20.55 -37.8 21.3 -38.75 21.3 -39.95 21.3 -40.5 20.35 M-56.25 22.05 Q-54.25 22.05 -54.25 24.15 -54.25 24.7 -54.7 25.3 -55.3 26.05 -56.25 26.05 -57.45 26.05 -57.95 25.15 L-58.25 24.1 Q-58.25 22.1 -56.25 22.05 M-52.25 21.3 Q-53.45 21.3 -54.0 20.35 L-54.25 19.35 Q-54.25 17.25 -52.25 17.45 -50.25 17.65 -50.25 19.4 -50.25 19.95 -50.7 20.55 -51.3 21.3 -52.25 21.3 M-45.5 13.1 Q-45.5 11.0 -43.5 11.2 -41.5 11.35 -41.5 13.15 -41.5 13.65 -41.95 14.25 -42.6 15.05 -43.5 15.05 -44.7 15.05 -45.2 14.15 L-45.5 13.1 M-49.5 21.85 Q-49.5 19.75 -47.5 19.95 -45.5 20.15 -45.5 21.9 -45.5 22.45 -45.95 23.05 -46.55 23.8 -47.5 23.8 -48.75 23.8 -49.25 22.9 L-49.5 21.85" fill="#cc9966" fill-rule="evenodd" stroke="none"/>
    <path d="M-34.0 24.1 Q-34.0 27.6 -38.45 27.95 L-44.25 27.8 -51.6 27.9 -54.15 28.05 Q-57.8 28.05 -60.75 24.85 -63.0 22.4 -63.0 21.35 L-62.9 20.4 Q-62.7 19.9 -62.0 19.55 L-59.75 19.4 -57.5 19.05 -55.85 17.7 Q-54.2 16.55 -52.25 16.5 -46.15 0.2 -39.55 8.9 -37.25 11.95 -35.5 17.25 -34.0 21.85 -34.0 24.1 Z" fill="none" stroke="#000000" stroke-linecap="round" stroke-linejoin="round" stroke-width="2.0"/>
  </g>
  <defs>
    <linearGradient gradientTransform="matrix(0.0549, 0.0, 0.0, 0.0366, -10.0, -30.0)" gradientUnits="userSpaceOnUse" id="gradient0" spreadMethod="pad" x1="-819.2" x2="819.2">
      <stop offset="0.0" stop-color="#999999"/>
      <stop offset="1.0" stop-color="#848484"/>
    </linearGradient>
  </defs>
</svg>
