<?xml version="1.0" encoding="UTF-8" standalone="no"?>
<svg xmlns:ffdec="https://www.free-decompiler.com/flash" xmlns:xlink="http://www.w3.org/1999/xlink" ffdec:objectType="shape" height="410.0px" width="587.5px" xmlns="http://www.w3.org/2000/svg">
  <g transform="matrix(1.0, 0.0, 0.0, 1.0, 196.5, -70.0)">
    <path d="M-145.0 160.0 Q-161.55 160.0 -173.3 148.25 -185.0 136.55 -185.0 120.0 L-195.0 110.0 -125.0 110.0 -125.0 90.0 Q-125.0 87.7 -124.1 85.8 -123.4 84.2 -122.1 82.9 -119.15 80.0 -115.0 80.0 -110.85 80.0 -107.95 82.9 -105.0 85.85 -105.0 90.0 L-105.0 94.9 Q-105.05 92.9 -106.5 91.45 -107.95 90.0 -110.0 90.0 L-111.1 90.15 Q-112.5 90.4 -113.55 91.45 -114.6 92.5 -114.85 93.9 L-115.0 95.0 Q-115.0 97.05 -113.55 98.5 -112.05 100.0 -110.0 100.0 -107.95 100.0 -106.5 98.5 -105.05 97.1 -105.0 95.15 L-105.0 100.0 -105.0 110.0 -105.0 120.0 Q-105.0 136.55 -116.75 148.25 -128.45 160.0 -145.0 160.0" fill="#cc9999" fill-rule="evenodd" stroke="none"/>
    <path d="M-111.1 90.15 Q-110.45 90.3 -109.9 90.85 -109.0 91.75 -109.0 93.0 -109.0 94.25 -109.9 95.1 -110.75 96.0 -112.0 96.0 -113.25 96.0 -114.15 95.1 L-114.85 93.9 Q-114.6 92.5 -113.55 91.45 -112.5 90.4 -111.1 90.15" fill="#000000" fill-rule="evenodd" stroke="none"/>
    <path d="M-105.0 90.0 L-85.0 100.0 -105.0 110.0 -105.0 100.0 -105.0 95.15 -105.0 94.9 -105.0 90.0 M-85.0 100.0 L-105.0 100.0 -85.0 100.0" fill="#ffcc00" fill-rule="evenodd" stroke="none"/>
    <path d="M61.0 70.0 Q95.2 227.9 161.0 370.0 194.0 433.95 281.0 440.0 352.0 443.0 391.0 400.0 L391.0 480.0 1.0 480.0 1.0 70.0 61.0 70.0" fill="#666666" fill-rule="evenodd" stroke="none"/>
    <path d="M-145.0 160.0 Q-161.55 160.0 -173.3 148.25 -185.0 136.55 -185.0 120.0 L-195.0 110.0 -125.0 110.0 -125.0 90.0 Q-125.0 87.7 -124.1 85.8 -123.4 84.2 -122.1 82.9 -119.15 80.0 -115.0 80.0 -110.85 80.0 -107.95 82.9 -105.0 85.85 -105.0 90.0 L-85.0 100.0 -105.0 110.0 -105.0 120.0 Q-105.0 136.55 -116.75 148.25 -128.45 160.0 -145.0 160.0 L-145.0 180.0 -125.0 180.0" fill="none" stroke="#000000" stroke-linecap="round" stroke-linejoin="round" stroke-width="3.0"/>
    <path d="M-114.85 93.9 L-114.15 95.1 Q-113.25 96.0 -112.0 96.0 -110.75 96.0 -109.9 95.1 -109.0 94.25 -109.0 93.0 -109.0 91.75 -109.9 90.85 -110.45 90.3 -111.1 90.15 -112.5 90.4 -113.55 91.45 -114.6 92.5 -114.85 93.9 L-115.0 95.0 Q-115.0 97.05 -113.55 98.5 -112.05 100.0 -110.0 100.0 -107.95 100.0 -106.5 98.5 -105.05 97.1 -105.0 95.15 L-105.0 94.9 Q-105.05 92.9 -106.5 91.45 -107.95 90.0 -110.0 90.0 L-111.1 90.15 M-105.0 94.9 L-105.0 90.0 M-105.0 100.0 L-85.0 100.0 M-105.0 110.0 L-105.0 100.0 -105.0 95.15" fill="none" stroke="#000000" stroke-linecap="round" stroke-linejoin="round" stroke-width="1.0"/>
  </g>
</svg>
