<?xml version="1.0" encoding="UTF-8" standalone="no"?>
<svg xmlns:ffdec="https://www.free-decompiler.com/flash" xmlns:xlink="http://www.w3.org/1999/xlink" ffdec:objectType="shape" height="65.05px" width="62.75px" xmlns="http://www.w3.org/2000/svg">
  <g transform="matrix(1.0, 0.0, 0.0, 1.0, 31.5, 33.25)">
    <path d="M9.4 -26.2 L9.45 -26.15 Q12.1 -24.05 14.8 -20.0 L14.8 -20.05 Q17.9 -15.3 22.2 -10.6 L22.2 -10.55 Q25.5 -6.85 25.2 -1.0 24.9 5.75 23.8 9.75 L23.75 9.75 Q22.7 13.6 20.35 17.6 18.2 21.1 12.95 23.0 6.9 25.2 1.65 25.75 -3.35 26.15 -9.75 23.6 -16.2 21.1 -19.5 17.95 L-19.5 17.9 Q-22.5 14.9 -23.65 9.5 -25.05 3.3 -25.45 0.15 L-25.45 0.1 Q-25.6 -2.55 -22.75 -8.15 L-22.75 -8.1 -16.45 -19.85 Q-14.1 -23.8 -9.05 -24.8 L0.65 -27.05 Q7.0 -27.7 9.4 -26.2" fill="#ffcc66" fill-rule="evenodd" stroke="none"/>
    <path d="M13.1 -30.9 Q16.5 -28.35 19.8 -23.35 L21.4 -21.05 Q23.85 -18.55 25.65 -15.7 L26.65 -14.6 Q31.6 -9.25 31.2 -0.7 30.8 6.95 29.55 11.4 L29.55 11.35 Q28.3 15.9 25.55 20.65 L25.55 20.6 Q22.6 25.9 14.95 28.65 L15.0 28.65 Q8.2 31.1 2.25 31.7 -3.95 32.35 -11.95 29.2 -19.8 26.1 -23.7 22.2 -27.9 18.2 -29.5 10.8 -30.95 4.25 -31.4 0.9 -32.1 -3.0 -28.1 -10.85 L-27.9 -11.25 Q-26.85 -13.95 -25.2 -16.4 L-21.65 -22.85 Q-18.1 -29.1 -10.25 -30.7 L-0.85 -32.85 -0.3 -32.95 Q9.5 -34.05 13.1 -30.9 M9.4 -26.2 Q7.0 -27.7 0.65 -27.05 L-9.05 -24.8 Q-14.1 -23.8 -16.45 -19.85 L-22.75 -8.1 -22.75 -8.15 Q-25.6 -2.55 -25.45 0.1 L-25.45 0.15 Q-25.05 3.3 -23.65 9.5 -22.5 14.9 -19.5 17.9 L-19.5 17.95 Q-16.2 21.1 -9.75 23.6 -3.35 26.15 1.65 25.75 6.9 25.2 12.95 23.0 18.2 21.1 20.35 17.6 22.7 13.6 23.75 9.75 L23.8 9.75 Q24.9 5.75 25.2 -1.0 25.5 -6.85 22.2 -10.55 L22.2 -10.6 Q17.9 -15.3 14.8 -20.05 L14.8 -20.0 Q12.1 -24.05 9.45 -26.15 L9.4 -26.2" fill="#996600" fill-rule="evenodd" stroke="none"/>
  </g>
</svg>
