<?xml version="1.0" encoding="UTF-8" standalone="no"?>
<svg xmlns:ffdec="https://www.free-decompiler.com/flash" xmlns:xlink="http://www.w3.org/1999/xlink" ffdec:objectType="shape" height="63.0px" width="63.0px" xmlns="http://www.w3.org/2000/svg">
  <g transform="matrix(1.0, 0.0, 0.0, 1.0, 31.5, 31.5)">
    <path d="M0.0 -30.0 L0.05 -30.0 0.6 -30.0 0.9 -30.0 1.9 -29.95 4.05 -29.75 Q13.9 -28.55 21.2 -21.2 30.0 -12.4 30.0 0.0 L30.0 0.75 Q29.75 12.7 21.2 21.2 14.05 28.4 4.4 29.7 L4.0 29.75 3.35 29.85 2.8 29.9 0.4 30.0 0.05 30.0 0.0 30.0 -0.95 30.0 -1.15 30.0 -1.2 30.0 -6.2 29.4 -6.25 29.65 Q-6.6 31.1 -6.9 29.25 -10.5 28.45 -13.75 26.75 L-17.35 24.5 Q-19.35 23.05 -21.2 21.2 -29.7 12.75 -30.0 0.8 L-30.0 0.0 Q-30.0 -10.4 -23.8 -18.3 L-21.2 -21.2 Q-19.35 -23.05 -17.35 -24.5 -15.85 -25.6 -14.2 -26.5 L-13.8 -26.7 Q-11.3 -28.05 -8.55 -28.8 L-6.5 -29.3 -4.1 -29.7 -2.25 -29.9 -1.2 -29.95 -1.15 -29.95 -0.55 -30.0 0.0 -30.0" fill="url(#gradient0)" fill-rule="evenodd" stroke="none"/>
    <path d="M19.4 22.8 Q14.3 13.95 14.3 3.85 22.15 2.85 30.0 0.75 M0.05 -30.0 Q4.7 -12.9 3.9 4.65 M-20.35 -22.15 Q-7.0 -6.5 -7.25 4.5" fill="none" stroke="#996600" stroke-linecap="butt" stroke-linejoin="round" stroke-width="3.0"/>
    <path d="M14.3 3.85 L3.9 4.65 Q-1.65 4.85 -7.25 4.5" fill="none" stroke="#996600" stroke-linecap="round" stroke-linejoin="round" stroke-width="3.0"/>
    <path d="M3.9 4.65 Q3.35 17.2 0.05 30.0 M14.3 3.85 Q14.3 -7.9 21.05 -21.4 M-7.25 4.5 Q-7.5 15.25 -20.85 21.6 M-7.25 4.5 Q-18.55 3.75 -30.0 0.8" fill="none" stroke="#996600" stroke-linecap="round" stroke-linejoin="round" stroke-width="3.0"/>
  </g>
  <defs>
    <radialGradient cx="0" cy="0" gradientTransform="matrix(0.0379, 0.0, 0.0, 0.0379, 0.0, 0.15)" gradientUnits="userSpaceOnUse" id="gradient0" r="819.2" spreadMethod="pad">
      <stop offset="0.0" stop-color="#ff9900"/>
      <stop offset="1.0" stop-color="#db8402"/>
    </radialGradient>
  </defs>
</svg>
