<?xml version="1.0" encoding="UTF-8" standalone="no"?>
<svg xmlns:ffdec="https://www.free-decompiler.com/flash" xmlns:xlink="http://www.w3.org/1999/xlink" ffdec:objectType="shape" height="30.15px" width="30.0px" xmlns="http://www.w3.org/2000/svg">
  <g transform="matrix(1.0, 0.0, 0.0, 1.0, 15.0, 14.85)">
    <path d="M-10.1 -10.85 L-8.65 -12.1 -7.1 -13.1 -6.9 -13.2 -4.25 -14.25 -3.25 -14.5 -2.05 -14.7 -1.1 -14.8 -0.6 -14.8 -0.55 -14.8 -0.25 -14.85 0.0 -14.85 0.05 -14.85 0.3 -14.85 0.45 -14.85 0.95 -14.8 2.05 -14.7 Q6.9 -14.1 10.55 -10.5 7.15 -3.8 7.15 2.1 7.15 7.15 9.75 11.6 7.15 7.15 7.15 2.1 7.15 -3.8 10.55 -10.5 L10.6 -10.45 Q15.0 -6.05 15.0 0.15 L15.0 0.55 Q14.9 6.5 10.6 10.75 L9.75 11.6 Q6.45 14.45 2.2 15.0 L2.0 15.05 1.7 15.1 1.4 15.1 0.2 15.15 0.05 15.15 0.0 15.15 -0.45 15.15 -0.55 15.15 -0.6 15.15 -3.1 14.85 -3.1 15.0 Q-3.3 15.7 -3.45 14.8 -5.25 14.4 -6.85 13.55 L-8.65 12.4 -10.4 10.95 -10.6 10.75 Q-14.85 6.55 -15.0 0.55 L-15.0 0.15 Q-15.0 -5.05 -11.9 -9.0 L-10.6 -10.45 -10.1 -10.85 Q-3.5 -3.1 -3.6 2.4 -3.75 7.8 -10.4 10.95 -3.75 7.8 -3.6 2.4 -3.5 -3.1 -10.1 -10.85" fill="#ccff00" fill-rule="evenodd" stroke="none"/>
    <path d="M-10.1 -10.85 Q-3.5 -3.1 -3.6 2.4 -3.75 7.8 -10.4 10.95 M9.75 11.6 Q7.15 7.15 7.15 2.1 7.15 -3.8 10.55 -10.5" fill="none" stroke="#ffffff" stroke-linecap="butt" stroke-linejoin="round" stroke-width="3.0"/>
  </g>
</svg>
