<?xml version="1.0" encoding="UTF-8" standalone="no"?>
<svg xmlns:ffdec="https://www.free-decompiler.com/flash" xmlns:xlink="http://www.w3.org/1999/xlink" ffdec:objectType="shape" height="480.0px" width="1080.0px" xmlns="http://www.w3.org/2000/svg">
  <g transform="matrix(1.0, 0.0, 0.0, 1.0, 540.0, 0.0)">
    <path d="M281.05 3.0 L280.8 3.3 Q280.95 1.95 281.05 3.0 M157.8 2.25 L157.6 3.9 156.3 10.05 155.55 12.85 Q154.65 15.65 154.05 19.0 153.5 22.2 152.3 25.1 L150.6 28.8 Q149.35 31.35 147.85 34.95 144.1 43.85 140.65 52.85 139.5 55.8 139.1 59.0 L138.6 60.8 Q137.1 63.65 135.8 67.95 L135.05 70.05 132.8 74.9 132.2 76.1 130.65 78.75 Q127.85 82.7 125.65 87.85 123.8 92.35 119.35 98.25 117.1 101.3 114.7 103.7 L104.15 114.15 Q101.6 116.55 99.0 121.0 97.0 124.45 93.95 127.95 93.0 129.0 92.35 130.2 90.5 133.5 88.95 137.0 88.5 138.0 87.8 138.15 85.15 138.7 84.6 141.95 L84.5 142.95 Q84.65 145.15 83.05 145.4 82.5 145.5 82.3 146.1 81.0 149.85 78.0 153.0 77.5 153.5 77.3 154.1 L75.5 153.45 73.45 159.15 Q73.0 160.5 73.05 162.0 L73.1 165.95 Q72.8 178.6 67.2 190.1 58.75 207.55 52.2 226.1 45.75 244.35 37.8 261.9 L25.4 290.15 Q20.4 301.85 16.55 313.85 13.55 323.25 9.35 332.15 6.25 338.8 0.9 346.95 L-0.25 348.6 -4.2 353.85 Q-5.45 355.65 -5.9 357.0 -7.0 360.45 -9.85 362.15 -10.45 362.5 -10.65 363.1 -10.95 364.0 -11.4 364.7 L-12.7 366.25 Q-17.6 370.85 -22.95 378.0 L-29.0 385.95 -29.55 387.1 Q-30.65 392.35 -34.85 395.1 L-35.8 396.1 Q-37.45 398.95 -40.35 402.7 -42.25 405.2 -42.9 407.0 L-44.5 411.2 Q-45.85 414.1 -46.95 416.0 -48.75 419.2 -50.35 422.8 -51.45 425.2 -52.1 429.0 -52.95 434.0 -54.2 438.95 L-54.45 441.0 Q-54.55 444.9 -56.05 447.95 -57.15 450.25 -57.4 452.95 L-57.5 454.05 Q-57.95 462.0 -57.2 470.45 L-58.0 473.95 Q-58.3 475.65 -59.5 476.6 L-60.4 477.75 -61.4 479.7 -540.0 480.0 -540.0 0.0 157.45 0.0 157.45 2.15 157.8 2.25 M280.65 4.15 Q281.55 2.4 281.0 0.0 L540.0 0.0 540.0 480.0 61.0 480.0 61.0 478.95 58.1 477.8 Q59.8 474.4 59.85 471.0 59.95 465.75 62.5 462.6 63.0 462.0 63.15 461.05 63.5 459.0 64.15 457.05 L64.65 454.95 65.35 450.05 65.85 447.95 Q67.1 444.15 69.55 439.75 L70.25 438.05 Q70.8 436.2 71.5 435.5 L72.35 434.15 Q73.35 431.7 73.5 429.95 73.8 427.25 74.75 424.9 L75.9 421.0 Q76.6 417.35 77.95 413.95 L81.1 406.05 Q84.1 398.9 89.75 392.8 L91.1 391.05 Q95.5 384.35 100.7 377.75 L103.35 379.0 Q105.8 373.9 108.85 368.9 L110.65 365.9 113.3 361.2 119.9 349.95 122.45 345.2 Q125.1 339.6 128.4 334.25 134.2 324.8 140.9 315.9 L144.35 311.25 147.6 306.75 149.35 304.2 Q154.7 296.05 158.05 287.0 L164.2 270.1 Q166.0 265.05 168.6 259.8 L170.3 256.15 178.05 238.05 Q182.05 228.35 184.5 218.1 185.0 216.0 186.1 214.05 195.75 196.85 200.0 179.0 201.3 173.4 204.6 168.7 206.45 166.1 207.35 163.1 L208.65 158.9 Q209.65 155.7 210.15 152.3 215.55 150.15 215.45 146.0 215.45 145.5 215.85 144.95 217.9 141.95 219.35 138.15 221.25 133.15 223.6 129.75 L225.05 127.05 Q225.75 125.2 226.45 124.5 226.95 124.0 227.25 123.1 L227.85 121.95 Q231.9 115.95 235.95 109.0 237.7 106.05 239.65 104.6 L241.1 103.15 Q246.45 96.1 252.15 90.2 254.9 87.35 256.1 84.05 L256.9 82.0 264.3 65.15 266.35 60.15 267.75 55.95 Q269.05 51.1 271.7 46.85 274.1 42.95 274.35 38.0 274.45 36.5 274.9 35.0 276.2 30.8 275.8 26.0 275.3 20.6 277.45 17.65 L278.2 16.05 278.45 14.0 Q278.5 10.1 279.5 6.85 279.95 5.5 280.65 4.25 L280.65 4.15" fill="#999999" fill-rule="evenodd" stroke="none"/>
  </g>
</svg>
