<?xml version="1.0" encoding="UTF-8" standalone="no"?>
<svg xmlns:ffdec="https://www.free-decompiler.com/flash" xmlns:xlink="http://www.w3.org/1999/xlink" ffdec:objectType="text" height="13.8px" width="36.2px" xmlns="http://www.w3.org/2000/svg">
  <g transform="matrix(1.0, 0.0, 0.0, 1.0, -32.25, -0.95)">
    <g transform="matrix(1.0, 0.0, 0.0, 1.0, 0.0, 0.0)">
      <use fill="#ffffff" height="13.8" transform="matrix(0.0156, 0.0, 0.0, 0.0156, 32.0, 13.0)" width="36.2" xlink:href="#font_Apple_Casual_C0"/>
      <use fill="#ffffff" height="13.8" transform="matrix(0.0156, 0.0, 0.0, 0.0156, 37.85, 13.0)" width="36.2" xlink:href="#font_Apple_Casual_r0"/>
      <use fill="#ffffff" height="13.8" transform="matrix(0.0156, 0.0, 0.0, 0.0156, 42.8, 13.0)" width="36.2" xlink:href="#font_Apple_Casual_e0"/>
      <use fill="#ffffff" height="13.8" transform="matrix(0.0156, 0.0, 0.0, 0.0156, 48.25, 13.0)" width="36.2" xlink:href="#font_Apple_Casual_d0"/>
      <use fill="#ffffff" height="13.8" transform="matrix(0.0156, 0.0, 0.0, 0.0156, 54.1, 13.0)" width="36.2" xlink:href="#font_Apple_Casual_i0"/>
      <use fill="#ffffff" height="13.8" transform="matrix(0.0156, 0.0, 0.0, 0.0156, 56.7, 13.0)" width="36.2" xlink:href="#font_Apple_Casual_t0"/>
      <use fill="#ffffff" height="13.8" transform="matrix(0.0156, 0.0, 0.0, 0.0156, 62.3, 13.0)" width="36.2" xlink:href="#font_Apple_Casual_s0"/>
    </g>
  </g>
  <defs>
    <g id="font_Apple_Casual_C0">
      <path d="M212.0 -114.0 Q215.0 -114.0 217.0 -113.0 219.0 -112.0 221.0 -112.0 223.0 -111.0 224.0 -110.0 226.0 -110.0 228.0 -110.0 243.0 -110.0 251.0 -122.0 260.0 -134.0 268.0 -149.0 275.0 -164.0 285.0 -176.0 295.0 -188.0 311.0 -188.0 316.0 -188.0 323.0 -187.0 331.0 -186.0 338.0 -183.0 345.0 -180.0 351.0 -174.0 356.0 -168.0 356.0 -157.0 356.0 -154.0 356.0 -150.0 355.0 -147.0 355.0 -144.0 355.0 -141.0 354.0 -138.0 354.0 -135.0 354.0 -132.0 L351.0 -114.0 Q351.0 -87.0 342.0 -68.0 334.0 -49.0 318.0 -36.0 303.0 -23.0 281.0 -16.0 260.0 -9.0 234.0 -6.0 179.0 -7.0 139.0 -38.0 98.0 -69.0 71.0 -115.0 44.0 -161.0 30.0 -215.0 17.0 -269.0 17.0 -316.0 17.0 -363.0 23.0 -427.0 30.0 -491.0 52.0 -548.0 75.0 -606.0 119.0 -646.0 163.0 -686.0 239.0 -686.0 257.0 -686.0 275.0 -683.0 293.0 -680.0 309.0 -673.0 325.0 -665.0 338.0 -652.0 351.0 -638.0 358.0 -617.0 L358.0 -609.0 Q358.0 -595.0 353.0 -582.0 349.0 -569.0 340.0 -558.0 332.0 -547.0 320.0 -541.0 309.0 -534.0 295.0 -534.0 287.0 -534.0 281.0 -536.0 275.0 -539.0 271.0 -543.0 267.0 -547.0 265.0 -553.0 262.0 -559.0 261.0 -565.0 L260.0 -569.0 Q260.0 -572.0 260.0 -575.0 260.0 -578.0 260.0 -580.0 259.0 -583.0 259.0 -586.0 259.0 -588.0 259.0 -591.0 259.0 -592.0 259.0 -594.0 259.0 -595.0 260.0 -596.0 260.0 -598.0 260.0 -599.0 260.0 -600.0 260.0 -602.0 258.0 -605.0 256.0 -606.0 253.0 -608.0 251.0 -609.0 248.0 -610.0 245.0 -611.0 242.0 -611.0 239.0 -611.0 L230.0 -611.0 Q192.0 -600.0 169.0 -563.0 146.0 -526.0 133.0 -477.0 121.0 -429.0 117.0 -378.0 113.0 -327.0 113.0 -289.0 113.0 -262.0 119.0 -233.0 125.0 -204.0 137.0 -178.0 150.0 -153.0 168.0 -135.0 187.0 -117.0 212.0 -114.0" fill-rule="evenodd" stroke="none"/>
    </g>
    <g id="font_Apple_Casual_r0">
      <path d="M24.0 -47.0 Q21.0 -89.0 21.0 -129.0 22.0 -168.0 24.0 -207.0 25.0 -247.0 25.0 -286.0 25.0 -326.0 20.0 -368.0 24.0 -375.0 29.0 -378.0 34.0 -381.0 40.0 -383.0 46.0 -384.0 53.0 -385.0 60.0 -385.0 67.0 -387.0 67.0 -387.0 71.0 -388.0 74.0 -389.0 79.0 -390.0 83.0 -391.0 87.0 -392.0 91.0 -393.0 92.0 -393.0 L96.0 -393.0 Q102.0 -393.0 107.0 -391.0 112.0 -388.0 116.0 -383.0 120.0 -379.0 122.0 -373.0 125.0 -368.0 125.0 -362.0 125.0 -354.0 125.0 -353.0 125.0 -351.0 125.0 -351.0 125.0 -350.0 125.0 -348.0 125.0 -347.0 125.0 -338.0 127.0 -338.0 132.0 -338.0 136.0 -337.0 142.0 -337.0 147.0 -337.0 151.0 -338.0 156.0 -338.0 158.0 -339.0 172.0 -340.0 184.0 -343.0 196.0 -346.0 208.0 -348.0 220.0 -351.0 232.0 -353.0 244.0 -355.0 257.0 -356.0 L284.0 -356.0 Q288.0 -355.0 292.0 -353.0 296.0 -351.0 299.0 -348.0 302.0 -345.0 304.0 -341.0 307.0 -337.0 307.0 -333.0 307.0 -332.0 307.0 -331.0 307.0 -330.0 307.0 -329.0 307.0 -328.0 307.0 -327.0 307.0 -326.0 307.0 -326.0 306.0 -324.0 302.0 -319.0 299.0 -314.0 294.0 -309.0 290.0 -304.0 285.0 -299.0 281.0 -295.0 279.0 -294.0 278.0 -293.0 273.0 -292.0 269.0 -291.0 264.0 -290.0 259.0 -289.0 254.0 -289.0 250.0 -288.0 248.0 -288.0 248.0 -288.0 244.0 -287.0 241.0 -286.0 237.0 -285.0 233.0 -284.0 229.0 -283.0 225.0 -282.0 224.0 -282.0 222.0 -282.0 214.0 -280.0 207.0 -279.0 198.0 -278.0 189.0 -277.0 182.0 -276.0 174.0 -275.0 172.0 -275.0 150.0 -277.0 142.0 -245.0 135.0 -214.0 135.0 -174.0 134.0 -133.0 138.0 -97.0 142.0 -60.0 142.0 -52.0 142.0 -46.0 143.0 -38.0 143.0 -30.0 142.0 -22.0 141.0 -15.0 138.0 -8.0 134.0 -1.0 128.0 2.0 127.0 2.0 124.0 3.0 122.0 3.0 119.0 3.0 116.0 3.0 114.0 3.0 112.0 3.0 111.0 3.0 103.0 3.0 96.0 3.0 90.0 2.0 83.0 1.0 76.0 -1.0 70.0 -3.0 63.0 -5.0 55.0 -8.0 55.0 -8.0 54.0 -8.0 54.0 -8.0 54.0 -8.0 54.0 -9.0 54.0 -9.0 53.0 -9.0 53.0 -9.0 45.0 -11.0 40.0 -14.0 35.0 -17.0 31.0 -22.0 28.0 -26.0 26.0 -32.0 25.0 -38.0 24.0 -47.0" fill-rule="evenodd" stroke="none"/>
    </g>
    <g id="font_Apple_Casual_e0">
      <path d="M136.0 -252.0 Q136.0 -248.0 142.0 -246.0 147.0 -243.0 155.0 -242.0 162.0 -240.0 170.0 -240.0 178.0 -239.0 184.0 -239.0 L189.0 -239.0 Q189.0 -242.0 186.0 -251.0 183.0 -260.0 179.0 -269.0 174.0 -279.0 169.0 -286.0 165.0 -293.0 160.0 -293.0 158.0 -291.0 154.0 -286.0 150.0 -281.0 146.0 -274.0 142.0 -267.0 139.0 -261.0 136.0 -255.0 136.0 -252.0 M18.0 -176.0 L18.0 -184.0 Q18.0 -200.0 20.0 -216.0 23.0 -232.0 27.0 -248.0 32.0 -264.0 39.0 -281.0 45.0 -298.0 54.0 -318.0 56.0 -321.0 61.0 -323.0 65.0 -325.0 71.0 -326.0 76.0 -328.0 81.0 -330.0 87.0 -332.0 91.0 -335.0 93.0 -338.0 99.0 -338.0 104.0 -339.0 109.0 -339.0 115.0 -340.0 119.0 -341.0 123.0 -341.0 123.0 -344.0 135.0 -346.0 144.0 -348.0 154.0 -349.0 164.0 -350.0 173.0 -350.0 183.0 -351.0 192.0 -351.0 204.0 -351.0 227.0 -351.0 239.0 -347.0 252.0 -343.0 259.0 -335.0 267.0 -326.0 272.0 -313.0 277.0 -300.0 285.0 -281.0 287.0 -275.0 291.0 -266.0 294.0 -257.0 297.0 -248.0 300.0 -240.0 303.0 -234.0 305.0 -227.0 305.0 -227.0 305.0 -227.0 305.0 -227.0 306.0 -226.0 306.0 -225.0 306.0 -225.0 307.0 -224.0 307.0 -223.0 307.0 -223.0 307.0 -207.0 297.0 -199.0 286.0 -191.0 271.0 -187.0 257.0 -183.0 241.0 -183.0 225.0 -183.0 214.0 -183.0 L131.0 -183.0 Q132.0 -165.0 133.0 -148.0 134.0 -131.0 138.0 -114.0 141.0 -98.0 147.0 -81.0 154.0 -65.0 165.0 -50.0 166.0 -48.0 167.0 -46.0 168.0 -44.0 170.0 -42.0 171.0 -40.0 173.0 -38.0 174.0 -37.0 177.0 -37.0 187.0 -38.0 199.0 -50.0 211.0 -62.0 223.0 -76.0 234.0 -90.0 244.0 -101.0 253.0 -112.0 259.0 -112.0 L315.0 -113.0 Q318.0 -113.0 322.0 -111.0 326.0 -108.0 330.0 -105.0 334.0 -101.0 336.0 -97.0 339.0 -93.0 339.0 -90.0 339.0 -90.0 328.0 -71.0 317.0 -53.0 297.0 -31.0 277.0 -9.0 250.0 10.0 222.0 28.0 188.0 28.0 182.0 28.0 168.0 26.0 155.0 25.0 141.0 23.0 127.0 20.0 116.0 18.0 104.0 16.0 102.0 14.0 76.0 5.0 60.0 -18.0 44.0 -41.0 35.0 -69.0 26.0 -98.0 23.0 -126.0 20.0 -155.0 18.0 -176.0" fill-rule="evenodd" stroke="none"/>
    </g>
    <g id="font_Apple_Casual_d0">
      <path d="M136.0 -179.0 Q136.0 -153.0 140.0 -135.0 145.0 -116.0 154.0 -102.0 164.0 -89.0 179.0 -79.0 194.0 -69.0 216.0 -61.0 219.0 -61.0 221.0 -62.0 223.0 -63.0 224.0 -66.0 224.0 -69.0 225.0 -73.0 225.0 -78.0 225.0 -84.0 L225.0 -95.0 Q225.0 -116.0 224.0 -145.0 224.0 -174.0 219.0 -201.0 214.0 -227.0 203.0 -246.0 192.0 -265.0 172.0 -265.0 159.0 -265.0 152.0 -256.0 145.0 -247.0 141.0 -233.0 138.0 -220.0 137.0 -205.0 136.0 -190.0 136.0 -179.0 M17.0 -174.0 Q17.0 -207.0 27.0 -239.0 37.0 -271.0 56.0 -296.0 74.0 -321.0 99.0 -337.0 124.0 -352.0 154.0 -352.0 158.0 -352.0 167.0 -352.0 177.0 -351.0 189.0 -349.0 201.0 -347.0 214.0 -343.0 227.0 -338.0 237.0 -330.0 237.0 -330.0 238.0 -330.0 238.0 -331.0 238.0 -332.0 238.0 -333.0 238.0 -334.0 238.0 -336.0 238.0 -338.0 238.0 -342.0 238.0 -349.0 238.0 -356.0 238.0 -366.0 237.0 -377.0 237.0 -391.0 237.0 -406.0 237.0 -425.0 237.0 -447.0 237.0 -477.0 237.0 -507.0 238.0 -545.0 238.0 -583.0 239.0 -630.0 240.0 -677.0 241.0 -734.0 L241.0 -737.0 Q241.0 -745.0 246.0 -752.0 251.0 -758.0 258.0 -763.0 265.0 -767.0 273.0 -770.0 282.0 -772.0 289.0 -772.0 300.0 -772.0 311.0 -771.0 322.0 -771.0 332.0 -767.0 341.0 -763.0 347.0 -756.0 353.0 -748.0 353.0 -734.0 353.0 -725.0 352.0 -716.0 350.0 -708.0 349.0 -699.0 347.0 -691.0 346.0 -683.0 344.0 -674.0 344.0 -666.0 342.0 -623.0 341.0 -586.0 340.0 -548.0 340.0 -515.0 339.0 -482.0 339.0 -454.0 339.0 -425.0 339.0 -400.0 339.0 -315.0 341.0 -262.0 342.0 -208.0 344.0 -171.0 346.0 -133.0 347.0 -104.0 349.0 -74.0 349.0 -36.0 345.0 -30.0 340.0 -26.0 336.0 -22.0 332.0 -20.0 327.0 -17.0 323.0 -17.0 319.0 -16.0 314.0 -16.0 312.0 -16.0 310.0 -16.0 308.0 -16.0 306.0 -16.0 304.0 -17.0 302.0 -17.0 300.0 -17.0 298.0 -17.0 291.0 -17.0 286.0 -14.0 281.0 -12.0 277.0 -8.0 273.0 -4.0 268.0 -1.0 264.0 3.0 259.0 6.0 217.0 6.0 174.0 -1.0 130.0 -7.0 96.0 -27.0 61.0 -46.0 39.0 -82.0 17.0 -117.0 17.0 -174.0" fill-rule="evenodd" stroke="none"/>
    </g>
    <g id="font_Apple_Casual_i0">
      <path d="M20.0 -490.0 Q20.0 -493.0 23.0 -496.0 25.0 -499.0 29.0 -501.0 32.0 -503.0 35.0 -505.0 38.0 -507.0 38.0 -507.0 41.0 -508.0 46.0 -511.0 51.0 -513.0 56.0 -515.0 60.0 -517.0 64.0 -519.0 67.0 -520.0 67.0 -520.0 L132.0 -520.0 Q135.0 -520.0 138.0 -517.0 141.0 -514.0 142.0 -510.0 144.0 -507.0 145.0 -502.0 146.0 -498.0 146.0 -495.0 146.0 -489.0 144.0 -484.0 142.0 -478.0 139.0 -473.0 135.0 -468.0 131.0 -464.0 127.0 -460.0 123.0 -457.0 122.0 -456.0 118.0 -456.0 115.0 -455.0 111.0 -455.0 107.0 -455.0 104.0 -455.0 100.0 -455.0 99.0 -455.0 88.0 -455.0 77.0 -457.0 66.0 -459.0 56.0 -462.0 46.0 -466.0 37.0 -472.0 28.0 -478.0 20.0 -487.0 L20.0 -490.0 M27.0 -322.0 Q26.0 -323.0 25.0 -324.0 24.0 -326.0 23.0 -327.0 22.0 -328.0 22.0 -330.0 22.0 -331.0 22.0 -332.0 L22.0 -335.0 Q27.0 -345.0 32.0 -352.0 38.0 -359.0 46.0 -364.0 53.0 -368.0 63.0 -371.0 72.0 -373.0 83.0 -373.0 94.0 -373.0 103.0 -372.0 111.0 -371.0 119.0 -367.0 126.0 -364.0 133.0 -359.0 139.0 -353.0 146.0 -344.0 L146.0 -342.0 Q146.0 -325.0 145.0 -301.0 143.0 -277.0 142.0 -252.0 140.0 -226.0 138.0 -202.0 137.0 -178.0 137.0 -161.0 137.0 -142.0 138.0 -123.0 139.0 -104.0 140.0 -85.0 141.0 -66.0 142.0 -47.0 143.0 -28.0 143.0 -9.0 143.0 -8.0 143.0 -7.0 143.0 -6.0 143.0 -5.0 142.0 -4.0 142.0 -3.0 142.0 -2.0 142.0 -2.0 142.0 -1.0 140.0 1.0 138.0 3.0 136.0 5.0 134.0 8.0 132.0 9.0 130.0 11.0 129.0 12.0 127.0 12.0 123.0 13.0 118.0 13.0 114.0 13.0 109.0 13.0 104.0 13.0 100.0 13.0 98.0 13.0 L91.0 13.0 Q84.0 13.0 76.0 13.0 67.0 12.0 59.0 11.0 51.0 9.0 45.0 5.0 39.0 1.0 36.0 -6.0 33.0 -15.0 32.0 -22.0 31.0 -30.0 31.0 -37.0 31.0 -44.0 31.0 -52.0 31.0 -59.0 31.0 -68.0 31.0 -69.0 30.0 -77.0 30.0 -84.0 29.0 -93.0 28.0 -102.0 27.0 -109.0 26.0 -116.0 26.0 -118.0 26.0 -127.0 26.0 -156.0 26.0 -186.0 27.0 -220.0 27.0 -253.0 27.0 -283.0 27.0 -313.0 27.0 -322.0" fill-rule="evenodd" stroke="none"/>
    </g>
    <g id="font_Apple_Casual_t0">
      <path d="M148.0 -10.0 Q148.0 -24.0 147.0 -37.0 147.0 -50.0 147.0 -61.0 146.0 -72.0 146.0 -83.0 146.0 -93.0 146.0 -103.0 146.0 -119.0 146.0 -134.0 146.0 -149.0 147.0 -164.0 147.0 -179.0 147.0 -196.0 147.0 -212.0 147.0 -230.0 147.0 -240.0 147.0 -268.0 146.0 -295.0 146.0 -326.0 145.0 -357.0 144.0 -384.0 144.0 -410.0 144.0 -418.0 L140.0 -422.0 Q138.0 -422.0 134.0 -422.0 130.0 -421.0 125.0 -421.0 120.0 -421.0 113.0 -420.0 107.0 -420.0 99.0 -420.0 85.0 -420.0 69.0 -421.0 54.0 -423.0 41.0 -427.0 27.0 -432.0 19.0 -440.0 10.0 -448.0 10.0 -462.0 10.0 -476.0 20.0 -484.0 30.0 -492.0 45.0 -496.0 60.0 -501.0 78.0 -502.0 96.0 -503.0 112.0 -503.0 L142.0 -503.0 147.0 -508.0 Q147.0 -509.0 147.0 -518.0 148.0 -526.0 149.0 -538.0 149.0 -550.0 150.0 -561.0 150.0 -573.0 150.0 -580.0 150.0 -590.0 149.0 -599.0 149.0 -609.0 148.0 -618.0 147.0 -628.0 146.0 -637.0 145.0 -646.0 145.0 -655.0 153.0 -664.0 158.0 -671.0 163.0 -678.0 169.0 -682.0 174.0 -687.0 181.0 -689.0 188.0 -691.0 198.0 -691.0 209.0 -691.0 219.0 -689.0 229.0 -686.0 236.0 -681.0 244.0 -675.0 248.0 -667.0 253.0 -658.0 253.0 -645.0 253.0 -643.0 253.0 -635.0 252.0 -627.0 252.0 -616.0 251.0 -606.0 250.0 -596.0 250.0 -586.0 250.0 -581.0 250.0 -574.0 250.0 -565.0 251.0 -555.0 252.0 -544.0 252.0 -534.0 253.0 -523.0 254.0 -512.0 254.0 -503.0 L322.0 -503.0 Q325.0 -503.0 329.0 -501.0 333.0 -498.0 337.0 -495.0 340.0 -492.0 343.0 -488.0 347.0 -485.0 348.0 -482.0 345.0 -476.0 341.0 -470.0 337.0 -463.0 332.0 -457.0 327.0 -452.0 321.0 -448.0 316.0 -443.0 309.0 -442.0 300.0 -440.0 290.0 -439.0 280.0 -437.0 271.0 -435.0 263.0 -433.0 257.0 -429.0 251.0 -425.0 250.0 -418.0 249.0 -387.0 249.0 -350.0 248.0 -313.0 247.0 -276.0 247.0 -240.0 246.0 -208.0 246.0 -175.0 246.0 -153.0 246.0 -145.0 246.0 -137.0 246.0 -128.0 246.0 -119.0 246.0 -110.0 246.0 -101.0 247.0 -91.0 247.0 -80.0 247.0 -65.0 248.0 -57.0 249.0 -49.0 250.0 -44.0 252.0 -39.0 253.0 -36.0 255.0 -32.0 258.0 -25.0 258.0 -13.0 252.0 -5.0 247.0 3.0 238.0 7.0 230.0 12.0 220.0 13.0 210.0 15.0 202.0 15.0 196.0 15.0 188.0 13.0 180.0 12.0 173.0 9.0 165.0 5.0 159.0 1.0 152.0 -4.0 148.0 -10.0" fill-rule="evenodd" stroke="none"/>
    </g>
    <g id="font_Apple_Casual_s0">
      <path d="M19.0 -47.0 Q21.0 -52.0 28.0 -56.0 35.0 -61.0 43.0 -64.0 52.0 -67.0 60.0 -68.0 68.0 -70.0 72.0 -70.0 80.0 -70.0 87.0 -69.0 94.0 -67.0 101.0 -66.0 108.0 -64.0 115.0 -63.0 122.0 -62.0 129.0 -62.0 138.0 -62.0 149.0 -66.0 159.0 -71.0 167.0 -78.0 176.0 -86.0 181.0 -96.0 187.0 -107.0 187.0 -119.0 187.0 -134.0 163.0 -144.0 138.0 -153.0 109.0 -167.0 80.0 -182.0 55.0 -208.0 31.0 -234.0 31.0 -282.0 31.0 -304.0 42.0 -322.0 52.0 -339.0 72.0 -351.0 91.0 -363.0 120.0 -370.0 148.0 -376.0 183.0 -376.0 L189.0 -376.0 Q201.0 -376.0 217.0 -376.0 234.0 -375.0 250.0 -371.0 265.0 -368.0 276.0 -360.0 287.0 -352.0 287.0 -337.0 287.0 -329.0 286.0 -321.0 284.0 -313.0 281.0 -306.0 277.0 -299.0 271.0 -295.0 265.0 -291.0 256.0 -291.0 243.0 -291.0 230.0 -292.0 216.0 -293.0 203.0 -295.0 190.0 -296.0 180.0 -298.0 169.0 -299.0 162.0 -299.0 158.0 -299.0 155.0 -298.0 152.0 -297.0 149.0 -295.0 147.0 -292.0 146.0 -288.0 145.0 -283.0 145.0 -276.0 145.0 -275.0 145.0 -274.0 145.0 -272.0 145.0 -271.0 145.0 -269.0 145.0 -268.0 146.0 -266.0 146.0 -264.0 148.0 -249.0 170.0 -240.0 193.0 -231.0 220.0 -218.0 247.0 -206.0 269.0 -184.0 291.0 -162.0 291.0 -121.0 291.0 -96.0 285.0 -79.0 279.0 -63.0 268.0 -51.0 257.0 -39.0 242.0 -30.0 227.0 -21.0 209.0 -12.0 209.0 -12.0 205.0 -11.0 201.0 -9.0 196.0 -7.0 191.0 -5.0 187.0 -2.0 182.0 0.0 181.0 3.0 177.0 3.0 172.0 3.0 168.0 3.0 164.0 4.0 160.0 4.0 155.0 4.0 151.0 4.0 146.0 4.0 138.0 4.0 130.0 3.0 122.0 3.0 114.0 3.0 107.0 3.0 100.0 2.0 93.0 2.0 87.0 1.0 81.0 0.0 70.0 -3.0 58.0 -7.0 47.0 -13.0 35.0 -19.0 27.0 -26.0 18.0 -34.0 18.0 -43.0 18.0 -43.0 18.0 -44.0 18.0 -44.0 18.0 -45.0 18.0 -45.0 18.0 -46.0 19.0 -46.0 19.0 -47.0" fill-rule="evenodd" stroke="none"/>
    </g>
  </defs>
</svg>
