<?xml version="1.0" encoding="UTF-8" standalone="no"?>
<svg xmlns:ffdec="https://www.free-decompiler.com/flash" xmlns:xlink="http://www.w3.org/1999/xlink" ffdec:objectType="text" height="14.35px" width="49.15px" xmlns="http://www.w3.org/2000/svg">
  <g transform="matrix(1.0, 0.0, 0.0, 1.0, -25.65, -0.4)">
    <g transform="matrix(1.0, 0.0, 0.0, 1.0, 0.0, 0.0)">
      <use fill="#ffffff" height="14.35" transform="matrix(0.0156, 0.0, 0.0, 0.0156, 25.0, 13.0)" width="49.15" xlink:href="#font_Apple_Casual_S0"/>
      <use fill="#ffffff" height="14.35" transform="matrix(0.0156, 0.0, 0.0, 0.0156, 30.5, 13.0)" width="49.15" xlink:href="#font_Apple_Casual_F0"/>
      <use fill="#ffffff" height="14.35" transform="matrix(0.0156, 0.0, 0.0, 0.0156, 36.25, 13.0)" width="49.15" xlink:href="#font_Apple_Casual_X0"/>
      <use fill="#ffffff" height="14.35" transform="matrix(0.0156, 0.0, 0.0, 0.0156, 47.35, 13.0)" width="49.15" xlink:href="#font_Apple_Casual_o0"/>
      <use fill="#ffffff" height="14.35" transform="matrix(0.0156, 0.0, 0.0, 0.0156, 52.6, 13.0)" width="49.15" xlink:href="#font_Apple_Casual_n0"/>
    </g>
  </g>
  <defs>
    <g id="font_Apple_Casual_S0">
      <path d="M62.0 -227.0 Q100.0 -228.0 108.0 -207.0 116.0 -187.0 118.0 -162.0 119.0 -137.0 124.0 -117.0 130.0 -96.0 164.0 -96.0 178.0 -96.0 190.0 -99.0 203.0 -102.0 213.0 -109.0 222.0 -116.0 228.0 -128.0 234.0 -139.0 234.0 -157.0 234.0 -158.0 234.0 -159.0 234.0 -161.0 234.0 -162.0 233.0 -164.0 233.0 -165.0 233.0 -166.0 233.0 -168.0 225.0 -211.0 214.0 -235.0 202.0 -259.0 185.0 -279.0 168.0 -299.0 143.0 -325.0 119.0 -350.0 84.0 -397.0 66.0 -422.0 53.0 -442.0 41.0 -462.0 33.0 -479.0 24.0 -496.0 21.0 -511.0 17.0 -527.0 17.0 -542.0 17.0 -574.0 25.0 -601.0 32.0 -628.0 49.0 -648.0 65.0 -667.0 90.0 -678.0 116.0 -689.0 152.0 -689.0 176.0 -689.0 203.0 -687.0 229.0 -685.0 253.0 -675.0 277.0 -665.0 297.0 -643.0 316.0 -622.0 327.0 -582.0 L327.0 -573.0 Q327.0 -560.0 323.0 -547.0 319.0 -533.0 311.0 -522.0 304.0 -512.0 293.0 -505.0 283.0 -498.0 271.0 -498.0 264.0 -498.0 259.0 -500.0 254.0 -503.0 250.0 -507.0 247.0 -511.0 244.0 -517.0 242.0 -523.0 241.0 -529.0 L240.0 -534.0 240.0 -553.0 Q239.0 -568.0 235.0 -578.0 231.0 -588.0 224.0 -594.0 218.0 -600.0 209.0 -603.0 201.0 -606.0 190.0 -606.0 165.0 -606.0 151.0 -599.0 136.0 -592.0 129.0 -580.0 122.0 -569.0 121.0 -555.0 119.0 -540.0 119.0 -525.0 119.0 -502.0 145.0 -467.0 171.0 -432.0 202.0 -396.0 234.0 -360.0 261.0 -329.0 288.0 -298.0 290.0 -285.0 302.0 -271.0 310.0 -255.0 319.0 -238.0 324.0 -221.0 330.0 -204.0 332.0 -186.0 335.0 -169.0 335.0 -152.0 335.0 -120.0 327.0 -93.0 320.0 -65.0 303.0 -46.0 287.0 -26.0 262.0 -15.0 236.0 -4.0 201.0 -4.0 170.0 -4.0 139.0 -11.0 108.0 -17.0 83.0 -32.0 58.0 -48.0 43.0 -72.0 27.0 -97.0 28.0 -133.0 28.0 -136.0 28.0 -139.0 28.0 -143.0 29.0 -146.0 29.0 -150.0 30.0 -153.0 30.0 -157.0 31.0 -160.0 L32.0 -178.0 34.0 -189.0 Q36.0 -201.0 38.0 -208.0 40.0 -215.0 42.0 -220.0 45.0 -224.0 50.0 -225.0 54.0 -227.0 62.0 -227.0" fill-rule="evenodd" stroke="none"/>
    </g>
    <g id="font_Apple_Casual_F0">
      <path d="M22.0 -162.0 L20.0 -162.0 Q20.0 -163.0 21.0 -165.0 23.0 -167.0 24.0 -170.0 26.0 -173.0 27.0 -176.0 28.0 -179.0 28.0 -182.0 28.0 -184.0 27.0 -192.0 26.0 -200.0 25.0 -209.0 24.0 -218.0 23.0 -226.0 22.0 -234.0 22.0 -236.0 22.0 -240.0 23.0 -249.0 24.0 -257.0 25.0 -269.0 26.0 -281.0 27.0 -296.0 28.0 -311.0 28.0 -328.0 28.0 -354.0 29.0 -381.0 29.0 -408.0 30.0 -434.0 31.0 -461.0 33.0 -488.0 35.0 -514.0 37.0 -540.0 37.0 -541.0 38.0 -544.0 39.0 -547.0 40.0 -550.0 41.0 -553.0 42.0 -555.0 43.0 -558.0 43.0 -558.0 43.0 -573.0 40.0 -584.0 36.0 -595.0 33.0 -605.0 29.0 -615.0 25.0 -625.0 22.0 -634.0 22.0 -646.0 22.0 -661.0 33.0 -671.0 45.0 -681.0 60.0 -687.0 75.0 -693.0 91.0 -695.0 106.0 -698.0 115.0 -698.0 122.0 -698.0 128.0 -694.0 134.0 -691.0 140.0 -686.0 146.0 -682.0 152.0 -679.0 158.0 -675.0 165.0 -675.0 L318.0 -675.0 Q324.0 -675.0 330.0 -670.0 336.0 -666.0 340.0 -659.0 344.0 -652.0 347.0 -645.0 349.0 -638.0 349.0 -632.0 349.0 -622.0 345.0 -613.0 341.0 -605.0 335.0 -599.0 329.0 -593.0 323.0 -589.0 317.0 -586.0 313.0 -586.0 L155.0 -586.0 Q152.0 -586.0 150.0 -583.0 148.0 -580.0 147.0 -577.0 145.0 -573.0 145.0 -570.0 144.0 -567.0 144.0 -566.0 144.0 -566.0 145.0 -562.0 145.0 -558.0 146.0 -551.0 147.0 -544.0 147.0 -537.0 148.0 -529.0 148.0 -523.0 148.0 -521.0 147.0 -516.0 147.0 -511.0 146.0 -504.0 145.0 -498.0 145.0 -493.0 144.0 -487.0 144.0 -486.0 144.0 -477.0 155.0 -471.0 167.0 -466.0 183.0 -462.0 200.0 -459.0 219.0 -458.0 237.0 -457.0 252.0 -457.0 263.0 -455.0 280.0 -456.0 298.0 -457.0 314.0 -453.0 330.0 -450.0 341.0 -440.0 353.0 -430.0 353.0 -407.0 353.0 -395.0 337.0 -391.0 321.0 -387.0 300.0 -385.0 279.0 -384.0 259.0 -383.0 239.0 -382.0 231.0 -376.0 L148.0 -376.0 Q141.0 -376.0 136.0 -363.0 132.0 -350.0 131.0 -329.0 129.0 -307.0 128.0 -279.0 128.0 -251.0 128.0 -221.0 128.0 -204.0 128.0 -189.0 129.0 -173.0 130.0 -159.0 131.0 -145.0 133.0 -133.0 135.0 -120.0 139.0 -110.0 L139.0 -105.0 Q139.0 -99.0 140.0 -93.0 142.0 -87.0 144.0 -80.0 145.0 -73.0 147.0 -66.0 148.0 -59.0 148.0 -52.0 148.0 -48.0 146.0 -41.0 144.0 -34.0 139.0 -27.0 134.0 -20.0 124.0 -15.0 115.0 -10.0 101.0 -10.0 92.0 -10.0 80.0 -13.0 69.0 -17.0 59.0 -23.0 49.0 -29.0 42.0 -37.0 35.0 -45.0 33.0 -54.0 32.0 -63.0 30.0 -78.0 28.0 -92.0 26.0 -108.0 24.0 -124.0 23.0 -138.0 22.0 -153.0 22.0 -162.0" fill-rule="evenodd" stroke="none"/>
    </g>
    <g id="font_Apple_Casual_X0">
      <path d="M181.0 -551.0 L225.0 -462.0 Q237.0 -487.0 248.0 -508.0 258.0 -530.0 268.0 -551.0 278.0 -572.0 287.0 -595.0 297.0 -617.0 307.0 -644.0 307.0 -648.0 308.0 -653.0 308.0 -657.0 308.0 -662.0 309.0 -666.0 309.0 -670.0 309.0 -673.0 309.0 -674.0 312.0 -682.0 325.0 -683.0 338.0 -685.0 353.0 -683.0 368.0 -682.0 382.0 -679.0 396.0 -675.0 402.0 -674.0 408.0 -672.0 413.0 -668.0 417.0 -665.0 420.0 -661.0 422.0 -656.0 422.0 -651.0 422.0 -645.0 419.0 -639.0 404.0 -601.0 388.0 -566.0 373.0 -531.0 357.0 -496.0 341.0 -462.0 323.0 -428.0 306.0 -393.0 286.0 -356.0 286.0 -355.0 285.0 -354.0 285.0 -353.0 284.0 -352.0 283.0 -351.0 283.0 -351.0 282.0 -350.0 282.0 -349.0 L338.0 -239.0 Q348.0 -222.0 357.0 -207.0 367.0 -191.0 376.0 -178.0 385.0 -164.0 394.0 -153.0 403.0 -141.0 413.0 -132.0 L415.0 -128.0 Q418.0 -122.0 423.0 -116.0 428.0 -110.0 434.0 -104.0 439.0 -98.0 445.0 -91.0 451.0 -85.0 455.0 -78.0 457.0 -74.0 459.0 -66.0 461.0 -58.0 461.0 -49.0 460.0 -39.0 456.0 -30.0 451.0 -20.0 439.0 -13.0 431.0 -9.0 419.0 -8.0 407.0 -6.0 395.0 -7.0 383.0 -9.0 372.0 -14.0 361.0 -19.0 354.0 -28.0 347.0 -36.0 337.0 -50.0 327.0 -63.0 317.0 -78.0 307.0 -93.0 297.0 -107.0 288.0 -121.0 283.0 -130.0 L282.0 -130.0 Q281.0 -131.0 281.0 -133.0 281.0 -136.0 280.0 -139.0 279.0 -143.0 278.0 -147.0 277.0 -151.0 275.0 -154.0 274.0 -156.0 269.0 -164.0 264.0 -172.0 258.0 -180.0 252.0 -189.0 247.0 -196.0 242.0 -203.0 240.0 -205.0 L221.0 -241.0 Q210.0 -220.0 199.0 -199.0 188.0 -178.0 178.0 -157.0 168.0 -137.0 159.0 -116.0 149.0 -95.0 140.0 -74.0 138.0 -68.0 136.0 -61.0 135.0 -55.0 134.0 -49.0 133.0 -44.0 133.0 -40.0 132.0 -36.0 132.0 -35.0 129.0 -26.0 124.0 -20.0 118.0 -14.0 112.0 -11.0 105.0 -7.0 97.0 -7.0 90.0 -6.0 82.0 -9.0 71.0 -12.0 60.0 -19.0 50.0 -27.0 42.0 -36.0 33.0 -45.0 29.0 -53.0 25.0 -61.0 26.0 -66.0 26.0 -67.0 27.0 -67.0 27.0 -68.0 27.0 -69.0 27.0 -70.0 28.0 -70.0 28.0 -71.0 29.0 -72.0 39.0 -97.0 51.0 -122.0 63.0 -147.0 76.0 -171.0 88.0 -196.0 102.0 -220.0 115.0 -244.0 128.0 -268.0 L166.0 -342.0 Q159.0 -363.0 139.0 -402.0 118.0 -440.0 95.0 -481.0 71.0 -522.0 49.0 -557.0 27.0 -593.0 18.0 -607.0 10.0 -622.0 14.0 -634.0 18.0 -647.0 27.0 -657.0 36.0 -668.0 47.0 -675.0 58.0 -682.0 65.0 -686.0 68.0 -687.0 71.0 -688.0 74.0 -688.0 77.0 -688.0 80.0 -688.0 84.0 -688.0 87.0 -687.0 91.0 -687.0 93.0 -685.0 95.0 -685.0 97.0 -684.0 99.0 -683.0 101.0 -682.0 103.0 -681.0 105.0 -680.0 108.0 -678.0 118.0 -671.0 125.0 -661.0 132.0 -650.0 139.0 -635.0 147.0 -620.0 156.0 -599.0 166.0 -578.0 181.0 -551.0" fill-rule="evenodd" stroke="none"/>
    </g>
    <g id="font_Apple_Casual_o0">
      <path d="M128.0 -209.0 Q128.0 -203.0 132.0 -180.0 136.0 -157.0 143.0 -131.0 149.0 -106.0 157.0 -85.0 166.0 -65.0 175.0 -65.0 184.0 -65.0 191.0 -79.0 198.0 -93.0 202.0 -112.0 207.0 -131.0 209.0 -150.0 211.0 -169.0 211.0 -179.0 211.0 -191.0 210.0 -210.0 209.0 -228.0 204.0 -245.0 199.0 -262.0 189.0 -274.0 179.0 -286.0 161.0 -286.0 150.0 -286.0 144.0 -277.0 137.0 -268.0 134.0 -255.0 130.0 -242.0 129.0 -229.0 128.0 -216.0 128.0 -209.0 M18.0 -204.0 Q18.0 -213.0 20.0 -221.0 22.0 -230.0 24.0 -238.0 26.0 -247.0 28.0 -256.0 30.0 -265.0 30.0 -275.0 30.0 -276.0 30.0 -277.0 30.0 -278.0 30.0 -279.0 29.0 -280.0 29.0 -280.0 29.0 -281.0 29.0 -282.0 29.0 -300.0 44.0 -314.0 60.0 -329.0 81.0 -339.0 103.0 -349.0 127.0 -355.0 151.0 -360.0 168.0 -360.0 209.0 -360.0 238.0 -346.0 266.0 -332.0 284.0 -308.0 302.0 -284.0 310.0 -252.0 318.0 -221.0 318.0 -185.0 318.0 -170.0 316.0 -158.0 314.0 -145.0 311.0 -133.0 307.0 -120.0 303.0 -107.0 299.0 -94.0 295.0 -78.0 286.0 -44.0 268.0 -26.0 251.0 -8.0 232.0 0.0 213.0 9.0 194.0 10.0 175.0 11.0 163.0 11.0 130.0 11.0 109.0 4.0 89.0 -3.0 75.0 -19.0 62.0 -35.0 54.0 -59.0 45.0 -84.0 37.0 -120.0 34.0 -130.0 31.0 -140.0 28.0 -151.0 25.0 -161.0 22.0 -172.0 20.0 -182.0 18.0 -193.0 18.0 -204.0" fill-rule="evenodd" stroke="none"/>
    </g>
    <g id="font_Apple_Casual_n0">
      <path d="M271.0 -11.0 Q271.0 -12.0 272.0 -21.0 273.0 -29.0 275.0 -46.0 276.0 -63.0 277.0 -89.0 278.0 -116.0 278.0 -153.0 278.0 -155.0 277.0 -161.0 276.0 -167.0 275.0 -174.0 273.0 -181.0 272.0 -187.0 271.0 -193.0 271.0 -195.0 271.0 -202.0 271.0 -211.0 271.0 -219.0 270.0 -228.0 269.0 -237.0 266.0 -245.0 263.0 -253.0 256.0 -258.0 210.0 -248.0 188.0 -232.0 166.0 -217.0 157.0 -192.0 148.0 -167.0 147.0 -132.0 146.0 -96.0 142.0 -47.0 142.0 -35.0 140.0 -26.0 137.0 -16.0 132.0 -9.0 127.0 -2.0 119.0 2.0 111.0 6.0 100.0 6.0 96.0 6.0 92.0 6.0 88.0 6.0 85.0 5.0 82.0 4.0 79.0 3.0 76.0 1.0 74.0 -1.0 65.0 -2.0 60.0 -3.0 54.0 -4.0 50.0 -5.0 45.0 -7.0 41.0 -10.0 37.0 -14.0 31.0 -22.0 31.0 -60.0 30.0 -98.0 29.0 -136.0 29.0 -173.0 28.0 -211.0 27.0 -249.0 26.0 -287.0 26.0 -325.0 26.0 -329.0 25.0 -333.0 24.0 -336.0 23.0 -339.0 22.0 -342.0 21.0 -344.0 20.0 -346.0 20.0 -347.0 20.0 -359.0 30.0 -366.0 39.0 -373.0 52.0 -377.0 65.0 -381.0 77.0 -383.0 90.0 -384.0 96.0 -384.0 L141.0 -362.0 141.0 -296.0 Q165.0 -309.0 174.0 -318.0 184.0 -326.0 196.0 -330.0 207.0 -334.0 229.0 -336.0 252.0 -337.0 301.0 -337.0 307.0 -337.0 315.0 -337.0 324.0 -337.0 332.0 -336.0 341.0 -336.0 348.0 -333.0 356.0 -331.0 361.0 -326.0 367.0 -317.0 372.0 -299.0 377.0 -281.0 380.0 -260.0 383.0 -239.0 385.0 -217.0 387.0 -196.0 388.0 -178.0 388.0 -175.0 388.0 -167.0 388.0 -158.0 388.0 -146.0 387.0 -134.0 387.0 -120.0 387.0 -107.0 387.0 -95.0 387.0 -78.0 388.0 -65.0 389.0 -52.0 390.0 -42.0 391.0 -32.0 392.0 -25.0 393.0 -17.0 393.0 -13.0 393.0 -12.0 393.0 -12.0 393.0 -11.0 393.0 -10.0 392.0 -9.0 392.0 -9.0 392.0 -8.0 392.0 -8.0 392.0 -6.0 392.0 -5.0 392.0 -3.0 393.0 -2.0 393.0 0.0 393.0 1.0 393.0 2.0 393.0 3.0 393.0 9.0 388.0 13.0 382.0 17.0 375.0 19.0 367.0 21.0 360.0 21.0 353.0 22.0 349.0 22.0 340.0 22.0 329.0 20.0 317.0 18.0 307.0 15.0 296.0 11.0 286.0 4.0 277.0 -2.0 271.0 -11.0" fill-rule="evenodd" stroke="none"/>
    </g>
  </defs>
</svg>
