<?xml version="1.0" encoding="UTF-8" standalone="no"?>
<svg xmlns:ffdec="https://www.free-decompiler.com/flash" xmlns:xlink="http://www.w3.org/1999/xlink" ffdec:objectType="text" height="29.15px" width="26.75px" xmlns="http://www.w3.org/2000/svg">
  <g transform="matrix(1.0, 0.0, 0.0, 1.0, -1.3, 2.85)">
    <g transform="matrix(1.0, 0.0, 0.0, 1.0, 0.0, 0.0)">
      <use fill="#000000" height="29.15" transform="matrix(0.0293, 0.0, 0.0, 0.0293, 0.0, 22.0)" width="26.75" xlink:href="#font_Digital-7__0"/>
      <use fill="#000000" height="29.15" transform="matrix(0.0293, 0.0, 0.0, 0.0293, 14.15, 22.0)" width="26.75" xlink:href="#font_Digital-7_00"/>
    </g>
  </g>
  <defs>
    <g id="font_Digital-7__0">
      <path d="M212.0 28.0 L212.0 28.0 212.0 74.5 250.0 112.0 288.0 74.5 288.0 28.0 212.0 28.0 M288.0 -104.0 L288.0 -104.0 288.0 -268.0 212.0 -268.0 212.0 -104.0 288.0 -104.0 M288.0 -400.0 L288.0 -400.0 288.0 -568.0 212.0 -568.0 212.0 -400.0 288.0 -400.0 M288.0 -700.0 L288.0 -700.0 288.0 -744.5 250.0 -780.0 212.0 -744.5 212.0 -700.0 288.0 -700.0 M363.0 -596.0 L363.0 -596.0 437.5 -624.5 Q428.0 -662.5 391.0 -672.0 L94.0 -672.0 Q57.0 -662.5 47.5 -624.5 L122.0 -596.0 363.0 -596.0 M44.0 -603.5 L44.0 -603.5 44.0 -361.5 63.0 -343.0 120.0 -398.5 120.0 -575.5 44.0 -603.5 M345.5 -76.0 L345.5 -76.0 120.0 -76.0 44.0 -47.5 Q53.5 -9.5 91.0 0.0 L373.5 0.0 345.5 -76.0 M364.0 -268.0 L364.0 -268.0 364.0 -72.5 392.5 2.0 Q430.5 -7.5 440.0 -44.5 L440.0 -305.0 421.0 -324.0 364.0 -268.0 M122.0 -372.0 L122.0 -372.0 85.0 -334.0 122.0 -296.0 364.0 -296.0 401.5 -334.0 364.0 -372.0 122.0 -372.0" fill-rule="evenodd" stroke="none"/>
    </g>
    <g id="font_Digital-7_00">
      <path d="M421.0 -344.5 L421.0 -344.5 440.0 -363.0 440.0 -624.0 Q430.5 -661.0 392.5 -670.5 L364.0 -596.0 364.0 -400.5 421.0 -344.5 M48.0 -605.5 L48.0 -605.5 48.0 -363.5 67.0 -345.0 124.0 -400.5 124.0 -577.5 48.0 -605.5 M373.5 -672.0 L373.5 -672.0 94.5 -672.0 Q57.5 -662.5 48.0 -624.5 L124.0 -596.0 345.5 -596.0 373.5 -672.0 M124.0 -94.5 L124.0 -94.5 124.0 -271.0 67.0 -327.0 48.0 -308.5 48.0 -66.5 124.0 -94.5 M346.0 -76.0 L346.0 -76.0 124.0 -76.0 49.5 -47.5 Q59.0 -9.5 96.0 0.0 L373.5 0.0 346.0 -76.0 M364.0 -271.5 L364.0 -271.5 364.0 -76.0 392.5 -1.5 Q430.5 -11.0 440.0 -48.0 L440.0 -308.5 421.0 -327.5 364.0 -271.5" fill-rule="evenodd" stroke="none"/>
    </g>
  </defs>
</svg>
