<?xml version="1.0" encoding="UTF-8" standalone="no"?>
<svg xmlns:ffdec="https://www.free-decompiler.com/flash" xmlns:xlink="http://www.w3.org/1999/xlink" ffdec:objectType="text" height="14.1px" width="74.4px" xmlns="http://www.w3.org/2000/svg">
  <g transform="matrix(1.0, 0.0, 0.0, 1.0, -70.05, -0.3)">
    <g transform="matrix(1.0, 0.0, 0.0, 1.0, 69.35, 0.0)">
      <use fill="#000000" fill-opacity="0.7372549" height="14.1" transform="matrix(0.0117, 0.0, 0.0, 0.0117, 0.0, 11.0)" width="74.4" xlink:href="#font_Arial_Narrow_C0"/>
      <use fill="#000000" fill-opacity="0.7372549" height="14.1" transform="matrix(0.0117, 0.0, 0.0, 0.0117, 7.1, 11.0)" width="74.4" xlink:href="#font_Arial_Narrow_l0"/>
      <use fill="#000000" fill-opacity="0.7372549" height="14.1" transform="matrix(0.0117, 0.0, 0.0, 0.0117, 9.3, 11.0)" width="74.4" xlink:href="#font_Arial_Narrow_i0"/>
      <use fill="#000000" fill-opacity="0.7372549" height="14.1" transform="matrix(0.0117, 0.0, 0.0, 0.0117, 11.45, 11.0)" width="74.4" xlink:href="#font_Arial_Narrow_c0"/>
      <use fill="#000000" fill-opacity="0.7372549" height="14.1" transform="matrix(0.0117, 0.0, 0.0, 0.0117, 16.35, 11.0)" width="74.4" xlink:href="#font_Arial_Narrow_k0"/>
      <use fill="#000000" fill-opacity="0.7372549" height="14.1" transform="matrix(0.0117, 0.0, 0.0, 0.0117, 24.05, 11.0)" width="74.4" xlink:href="#font_Arial_Narrow_t0"/>
      <use fill="#000000" fill-opacity="0.7372549" height="14.1" transform="matrix(0.0117, 0.0, 0.0, 0.0117, 26.75, 11.0)" width="74.4" xlink:href="#font_Arial_Narrow_o0"/>
      <use fill="#000000" fill-opacity="0.7372549" height="14.1" transform="matrix(0.0117, 0.0, 0.0, 0.0117, 34.95, 11.0)" width="74.4" xlink:href="#font_Arial_Narrow_d0"/>
      <use fill="#000000" fill-opacity="0.7372549" height="14.1" transform="matrix(0.0117, 0.0, 0.0, 0.0117, 40.4, 11.0)" width="74.4" xlink:href="#font_Arial_Narrow_i0"/>
      <use fill="#000000" fill-opacity="0.7372549" height="14.1" transform="matrix(0.0117, 0.0, 0.0, 0.0117, 42.6, 11.0)" width="74.4" xlink:href="#font_Arial_Narrow_s0"/>
      <use fill="#000000" fill-opacity="0.7372549" height="14.1" transform="matrix(0.0117, 0.0, 0.0, 0.0117, 47.5, 11.0)" width="74.4" xlink:href="#font_Arial_Narrow_p0"/>
      <use fill="#000000" fill-opacity="0.7372549" height="14.1" transform="matrix(0.0117, 0.0, 0.0, 0.0117, 53.0, 11.0)" width="74.4" xlink:href="#font_Arial_Narrow_e0"/>
      <use fill="#000000" fill-opacity="0.7372549" height="14.1" transform="matrix(0.0117, 0.0, 0.0, 0.0117, 58.5, 11.0)" width="74.4" xlink:href="#font_Arial_Narrow_n0"/>
      <use fill="#000000" fill-opacity="0.7372549" height="14.1" transform="matrix(0.0117, 0.0, 0.0, 0.0117, 64.0, 11.0)" width="74.4" xlink:href="#font_Arial_Narrow_s0"/>
      <use fill="#000000" fill-opacity="0.7372549" height="14.1" transform="matrix(0.0117, 0.0, 0.0, 0.0117, 68.95, 11.0)" width="74.4" xlink:href="#font_Arial_Narrow_e0"/>
    </g>
  </g>
  <defs>
    <g id="font_Arial_Narrow_C0">
      <path d="M496.0 -256.0 L496.0 -256.0 Q480.0 -163.0 433.0 -117.5 386.0 -72.0 321.0 -72.0 233.5 -72.0 181.0 -146.5 128.0 -221.5 128.0 -371.0 128.0 -470.0 154.0 -534.5 180.5 -599.0 224.5 -629.5 268.0 -660.0 328.0 -660.0 448.0 -660.0 488.0 -508.0 L564.0 -532.0 Q539.0 -636.0 476.5 -690.0 414.5 -744.0 327.5 -744.0 248.0 -744.0 184.0 -701.5 119.5 -658.5 81.5 -575.0 44.0 -491.5 44.0 -371.0 44.0 -249.0 82.0 -159.0 119.5 -69.5 179.0 -28.5 238.0 12.0 322.0 12.0 417.0 12.0 483.0 -48.5 549.5 -109.0 576.0 -232.0 L496.0 -256.0" fill-rule="evenodd" stroke="none"/>
    </g>
    <g id="font_Arial_Narrow_l0">
      <path d="M132.0 0.0 L132.0 0.0 132.0 -732.0 56.0 -732.0 56.0 0.0 132.0 0.0" fill-rule="evenodd" stroke="none"/>
    </g>
    <g id="font_Arial_Narrow_i0">
      <path d="M132.0 0.0 L132.0 0.0 132.0 -532.0 56.0 -532.0 56.0 0.0 132.0 0.0 M132.0 -628.0 L132.0 -628.0 132.0 -732.0 56.0 -732.0 56.0 -628.0 132.0 -628.0" fill-rule="evenodd" stroke="none"/>
    </g>
    <g id="font_Arial_Narrow_c0">
      <path d="M336.0 -196.0 L336.0 -196.0 Q328.5 -128.0 299.5 -96.0 270.5 -64.0 230.0 -64.0 178.5 -64.0 145.0 -112.0 112.0 -160.5 112.0 -268.0 112.0 -372.0 147.0 -420.0 182.0 -468.0 235.0 -468.0 271.0 -468.0 296.5 -442.0 322.0 -416.0 332.0 -364.0 L408.0 -376.0 Q395.0 -460.0 348.0 -502.0 301.5 -544.0 233.0 -544.0 144.5 -544.0 88.5 -474.5 32.0 -405.0 32.0 -266.5 32.0 -128.5 87.5 -58.5 142.5 12.0 228.5 12.0 299.0 12.0 349.0 -38.0 399.5 -88.5 412.0 -184.0 L336.0 -196.0" fill-rule="evenodd" stroke="none"/>
    </g>
    <g id="font_Arial_Narrow_k0">
      <path d="M132.0 0.0 L132.0 0.0 132.0 -211.0 186.5 -275.5 332.0 0.0 418.0 0.0 235.5 -334.5 401.5 -532.0 303.5 -532.0 132.0 -321.0 132.0 -732.0 56.0 -732.0 56.0 0.0 132.0 0.0" fill-rule="evenodd" stroke="none"/>
    </g>
    <g id="font_Arial_Narrow_t0">
      <path d="M220.0 -68.0 L220.0 -68.0 Q199.5 -72.0 187.0 -72.0 160.5 -72.0 150.5 -90.0 144.0 -103.0 144.0 -146.0 L144.0 -460.0 220.0 -460.0 220.0 -532.0 144.0 -532.0 144.0 -716.0 68.0 -660.0 68.0 -532.0 12.0 -532.0 12.0 -460.0 68.0 -460.0 68.0 -152.0 Q68.0 -72.0 77.0 -45.5 86.0 -18.5 110.5 -3.5 135.0 12.0 175.0 12.0 200.5 12.0 232.0 8.0 L220.0 -68.0" fill-rule="evenodd" stroke="none"/>
    </g>
    <g id="font_Arial_Narrow_o0">
      <path d="M104.0 -266.0 L104.0 -266.0 Q104.0 -367.5 139.5 -418.0 175.5 -468.0 226.0 -468.0 279.5 -468.0 316.0 -418.0 352.0 -368.0 352.0 -266.0 352.0 -165.0 316.0 -114.5 280.0 -64.0 230.0 -64.0 176.5 -64.0 140.0 -114.0 104.0 -164.0 104.0 -266.0 M24.0 -266.0 L24.0 -266.0 Q24.0 -128.5 82.5 -58.5 140.5 12.0 228.0 12.0 317.0 12.0 374.5 -58.0 432.0 -128.0 432.0 -271.5 432.0 -403.5 373.5 -474.0 315.0 -544.0 228.0 -544.0 139.5 -544.0 82.0 -474.0 24.0 -403.5 24.0 -266.0" fill-rule="evenodd" stroke="none"/>
    </g>
    <g id="font_Arial_Narrow_d0">
      <path d="M104.0 -265.5 L104.0 -265.5 Q104.0 -370.0 136.0 -419.0 168.0 -468.0 213.0 -468.0 263.0 -468.0 296.0 -417.0 329.0 -366.0 329.0 -255.5 329.0 -159.5 296.0 -111.5 263.0 -64.0 218.0 -64.0 172.5 -64.0 138.5 -113.5 104.0 -163.0 104.0 -265.5 M404.0 0.0 L404.0 0.0 404.0 -732.0 324.0 -732.0 324.0 -469.0 Q304.0 -504.5 273.0 -524.0 242.0 -544.0 206.0 -544.0 156.0 -544.0 114.5 -513.5 73.5 -483.0 48.5 -420.0 24.0 -356.5 24.0 -266.0 24.0 -133.5 79.5 -61.0 134.5 12.0 210.5 12.0 246.5 12.0 277.5 -8.5 308.5 -29.5 328.0 -69.0 L328.0 0.0 404.0 0.0" fill-rule="evenodd" stroke="none"/>
    </g>
    <g id="font_Arial_Narrow_s0">
      <path d="M20.0 -156.0 L20.0 -156.0 Q45.0 12.0 203.0 12.0 287.0 12.0 335.5 -35.5 384.0 -82.5 384.0 -159.0 384.0 -200.0 370.0 -230.0 355.5 -260.0 330.0 -277.5 304.0 -295.0 212.0 -322.5 142.0 -344.5 128.0 -354.5 104.0 -371.0 104.0 -400.5 104.0 -430.0 128.0 -449.0 151.5 -468.0 200.5 -468.0 286.0 -468.0 296.0 -384.0 L372.0 -396.0 Q364.5 -450.5 344.5 -480.0 324.5 -509.0 287.0 -526.5 249.5 -544.0 199.5 -544.0 121.0 -544.0 76.5 -501.5 32.0 -459.0 32.0 -391.0 32.0 -351.0 49.0 -320.0 66.5 -289.0 97.5 -270.5 128.5 -252.0 214.5 -226.0 274.0 -208.0 286.5 -196.0 304.0 -178.5 304.0 -147.5 304.0 -111.0 278.5 -87.5 253.0 -64.0 206.0 -64.0 159.0 -64.0 130.5 -89.5 102.5 -115.5 96.0 -168.0 L20.0 -156.0" fill-rule="evenodd" stroke="none"/>
    </g>
    <g id="font_Arial_Narrow_p0">
      <path d="M127.5 -261.5 L127.5 -261.5 Q127.5 -362.0 163.0 -415.0 198.0 -468.0 241.0 -468.0 289.0 -468.0 322.5 -419.0 356.0 -369.5 356.0 -267.0 356.0 -163.5 321.5 -113.5 287.5 -64.0 241.5 -64.0 194.5 -64.0 161.0 -112.0 127.5 -160.0 127.5 -261.5 M132.0 204.0 L132.0 204.0 132.0 -57.0 Q153.5 -24.0 183.0 -6.0 212.5 12.0 246.5 12.0 322.5 12.0 379.5 -61.5 436.0 -134.5 436.0 -270.5 436.0 -358.0 411.0 -420.5 386.0 -483.0 345.0 -513.5 303.5 -544.0 252.5 -544.0 213.5 -544.0 183.0 -523.5 153.0 -503.5 128.0 -457.5 L128.0 -532.0 56.0 -532.0 56.0 204.0 132.0 204.0" fill-rule="evenodd" stroke="none"/>
    </g>
    <g id="font_Arial_Narrow_e0">
      <path d="M104.5 -316.0 L104.5 -316.0 Q108.0 -385.5 143.0 -427.0 178.0 -468.0 228.0 -468.0 283.0 -468.0 318.5 -418.5 343.0 -384.5 348.0 -316.0 L104.5 -316.0 M344.0 -168.0 L344.0 -168.0 Q312.0 -64.0 230.0 -64.0 177.5 -64.0 141.0 -109.5 104.5 -154.5 100.0 -244.0 L424.0 -244.0 424.5 -268.0 Q424.5 -402.0 368.0 -473.0 312.0 -544.0 227.5 -544.0 139.0 -544.0 81.5 -471.5 24.0 -399.0 24.0 -261.5 24.0 -128.5 81.0 -58.5 137.5 12.0 229.5 12.0 302.5 12.0 352.0 -30.5 401.0 -72.5 420.0 -156.0 L344.0 -168.0" fill-rule="evenodd" stroke="none"/>
    </g>
    <g id="font_Arial_Narrow_n0">
      <path d="M132.0 0.0 L132.0 0.0 132.0 -292.0 Q132.0 -388.5 163.0 -428.0 194.5 -468.0 246.5 -468.0 274.5 -468.0 295.5 -453.0 316.5 -438.5 326.0 -411.0 336.0 -384.0 336.0 -325.0 L336.0 0.0 412.0 0.0 412.0 -327.0 Q412.0 -400.5 403.0 -436.5 394.5 -472.0 376.0 -494.0 358.0 -516.5 329.0 -530.0 299.5 -544.0 265.0 -544.0 220.5 -544.0 186.0 -522.5 151.5 -501.5 128.0 -458.5 L128.0 -532.0 56.0 -532.0 56.0 0.0 132.0 0.0" fill-rule="evenodd" stroke="none"/>
    </g>
  </defs>
</svg>
