<?xml version="1.0" encoding="UTF-8" standalone="no"?>
<svg xmlns:ffdec="https://www.free-decompiler.com/flash" xmlns:xlink="http://www.w3.org/1999/xlink" ffdec:objectType="text" height="17.25px" width="43.1px" xmlns="http://www.w3.org/2000/svg">
  <g transform="matrix(1.0, 0.0, 0.0, 1.0, -8.5, -0.4)">
    <g transform="matrix(1.0, 0.0, 0.0, 1.0, 0.0, 0.0)">
      <use fill="#ffffff" height="17.25" transform="matrix(0.0195, 0.0, 0.0, 0.0195, 8.0, 16.0)" width="43.1" xlink:href="#font_Apple_Casual_L0"/>
      <use fill="#ffffff" height="17.25" transform="matrix(0.0195, 0.0, 0.0, 0.0195, 15.75, 16.0)" width="43.1" xlink:href="#font_Apple_Casual_i0"/>
      <use fill="#ffffff" height="17.25" transform="matrix(0.0195, 0.0, 0.0, 0.0195, 19.0, 16.0)" width="43.1" xlink:href="#font_Apple_Casual_n0"/>
      <use fill="#ffffff" height="17.25" transform="matrix(0.0195, 0.0, 0.0, 0.0195, 27.1, 16.0)" width="43.1" xlink:href="#font_Apple_Casual_k0"/>
      <use fill="#ffffff" height="17.25" transform="matrix(0.0195, 0.0, 0.0, 0.0195, 35.05, 16.0)" width="43.1" xlink:href="#font_Apple_Casual_s0"/>
    </g>
  </g>
  <defs>
    <g id="font_Apple_Casual_L0">
      <path d="M20.0 -42.0 Q20.0 -46.0 20.0 -49.0 20.0 -52.0 21.0 -55.0 21.0 -58.0 23.0 -61.0 24.0 -64.0 26.0 -68.0 26.0 -74.0 25.0 -80.0 25.0 -86.0 25.0 -92.0 25.0 -98.0 25.0 -104.0 25.0 -110.0 25.0 -116.0 25.0 -147.0 26.0 -177.0 27.0 -207.0 29.0 -237.0 30.0 -267.0 32.0 -297.0 34.0 -327.0 36.0 -357.0 38.0 -379.0 41.0 -412.0 44.0 -445.0 47.0 -479.0 50.0 -514.0 53.0 -547.0 55.0 -579.0 55.0 -601.0 55.0 -607.0 54.0 -612.0 53.0 -617.0 52.0 -622.0 51.0 -628.0 50.0 -633.0 49.0 -638.0 49.0 -644.0 49.0 -654.0 59.0 -660.0 70.0 -667.0 83.0 -671.0 97.0 -675.0 111.0 -676.0 125.0 -678.0 132.0 -678.0 141.0 -678.0 149.0 -676.0 158.0 -674.0 165.0 -670.0 172.0 -666.0 177.0 -659.0 181.0 -651.0 181.0 -641.0 181.0 -640.0 180.0 -636.0 179.0 -632.0 179.0 -627.0 178.0 -623.0 177.0 -619.0 176.0 -615.0 176.0 -614.0 172.0 -590.0 170.0 -553.0 168.0 -517.0 166.0 -478.0 165.0 -440.0 163.0 -403.0 161.0 -367.0 157.0 -342.0 153.0 -318.0 150.0 -295.0 147.0 -271.0 144.0 -248.0 142.0 -224.0 141.0 -201.0 140.0 -177.0 140.0 -153.0 140.0 -137.0 139.0 -123.0 138.0 -109.0 142.0 -99.0 147.0 -89.0 161.0 -84.0 174.0 -78.0 204.0 -78.0 215.0 -78.0 228.0 -78.0 240.0 -79.0 253.0 -79.0 266.0 -80.0 278.0 -81.0 291.0 -81.0 303.0 -81.0 320.0 -81.0 334.0 -80.0 348.0 -78.0 359.0 -74.0 370.0 -71.0 376.0 -64.0 382.0 -57.0 382.0 -47.0 382.0 -47.0 381.0 -44.0 380.0 -42.0 380.0 -40.0 379.0 -37.0 378.0 -35.0 377.0 -32.0 377.0 -31.0 377.0 -31.0 378.0 -28.0 379.0 -25.0 380.0 -21.0 380.0 -17.0 381.0 -14.0 382.0 -11.0 382.0 -11.0 382.0 -8.0 376.0 -6.0 370.0 -4.0 362.0 -2.0 354.0 0.0 347.0 1.0 339.0 3.0 335.0 4.0 L94.0 4.0 Q83.0 4.0 70.0 2.0 57.0 0.0 46.0 -5.0 35.0 -11.0 27.0 -20.0 20.0 -28.0 20.0 -42.0" fill-rule="evenodd" stroke="none"/>
    </g>
    <g id="font_Apple_Casual_i0">
      <path d="M20.0 -490.0 Q20.0 -493.0 23.0 -496.0 25.0 -499.0 29.0 -501.0 32.0 -503.0 35.0 -505.0 38.0 -507.0 38.0 -507.0 41.0 -508.0 46.0 -511.0 51.0 -513.0 56.0 -515.0 60.0 -517.0 64.0 -519.0 67.0 -520.0 67.0 -520.0 L132.0 -520.0 Q135.0 -520.0 138.0 -517.0 141.0 -514.0 142.0 -510.0 144.0 -507.0 145.0 -502.0 146.0 -498.0 146.0 -495.0 146.0 -489.0 144.0 -484.0 142.0 -478.0 139.0 -473.0 135.0 -468.0 131.0 -464.0 127.0 -460.0 123.0 -457.0 122.0 -456.0 118.0 -456.0 115.0 -455.0 111.0 -455.0 107.0 -455.0 104.0 -455.0 100.0 -455.0 99.0 -455.0 88.0 -455.0 77.0 -457.0 66.0 -459.0 56.0 -462.0 46.0 -466.0 37.0 -472.0 28.0 -478.0 20.0 -487.0 L20.0 -490.0 M27.0 -322.0 Q26.0 -323.0 25.0 -324.0 24.0 -326.0 23.0 -327.0 22.0 -328.0 22.0 -330.0 22.0 -331.0 22.0 -332.0 L22.0 -335.0 Q27.0 -345.0 32.0 -352.0 38.0 -359.0 46.0 -364.0 53.0 -368.0 63.0 -371.0 72.0 -373.0 83.0 -373.0 94.0 -373.0 103.0 -372.0 111.0 -371.0 119.0 -367.0 126.0 -364.0 133.0 -359.0 139.0 -353.0 146.0 -344.0 L146.0 -342.0 Q146.0 -325.0 145.0 -301.0 143.0 -277.0 142.0 -252.0 140.0 -226.0 138.0 -202.0 137.0 -178.0 137.0 -161.0 137.0 -142.0 138.0 -123.0 139.0 -104.0 140.0 -85.0 141.0 -66.0 142.0 -47.0 143.0 -28.0 143.0 -9.0 143.0 -8.0 143.0 -7.0 143.0 -6.0 143.0 -5.0 142.0 -4.0 142.0 -3.0 142.0 -2.0 142.0 -2.0 142.0 -1.0 140.0 1.0 138.0 3.0 136.0 5.0 134.0 8.0 132.0 9.0 130.0 11.0 129.0 12.0 127.0 12.0 123.0 13.0 118.0 13.0 114.0 13.0 109.0 13.0 104.0 13.0 100.0 13.0 98.0 13.0 L91.0 13.0 Q84.0 13.0 76.0 13.0 67.0 12.0 59.0 11.0 51.0 9.0 45.0 5.0 39.0 1.0 36.0 -6.0 33.0 -15.0 32.0 -22.0 31.0 -30.0 31.0 -37.0 31.0 -44.0 31.0 -52.0 31.0 -59.0 31.0 -68.0 31.0 -69.0 30.0 -77.0 30.0 -84.0 29.0 -93.0 28.0 -102.0 27.0 -109.0 26.0 -116.0 26.0 -118.0 26.0 -127.0 26.0 -156.0 26.0 -186.0 27.0 -220.0 27.0 -253.0 27.0 -283.0 27.0 -313.0 27.0 -322.0" fill-rule="evenodd" stroke="none"/>
    </g>
    <g id="font_Apple_Casual_n0">
      <path d="M271.0 -11.0 Q271.0 -12.0 272.0 -21.0 273.0 -29.0 275.0 -46.0 276.0 -63.0 277.0 -89.0 278.0 -116.0 278.0 -153.0 278.0 -155.0 277.0 -161.0 276.0 -167.0 275.0 -174.0 273.0 -181.0 272.0 -187.0 271.0 -193.0 271.0 -195.0 271.0 -202.0 271.0 -211.0 271.0 -219.0 270.0 -228.0 269.0 -237.0 266.0 -245.0 263.0 -253.0 256.0 -258.0 210.0 -248.0 188.0 -232.0 166.0 -217.0 157.0 -192.0 148.0 -167.0 147.0 -132.0 146.0 -96.0 142.0 -47.0 142.0 -35.0 140.0 -26.0 137.0 -16.0 132.0 -9.0 127.0 -2.0 119.0 2.0 111.0 6.0 100.0 6.0 96.0 6.0 92.0 6.0 88.0 6.0 85.0 5.0 82.0 4.0 79.0 3.0 76.0 1.0 74.0 -1.0 65.0 -2.0 60.0 -3.0 54.0 -4.0 50.0 -5.0 45.0 -7.0 41.0 -10.0 37.0 -14.0 31.0 -22.0 31.0 -60.0 30.0 -98.0 29.0 -136.0 29.0 -173.0 28.0 -211.0 27.0 -249.0 26.0 -287.0 26.0 -325.0 26.0 -329.0 25.0 -333.0 24.0 -336.0 23.0 -339.0 22.0 -342.0 21.0 -344.0 20.0 -346.0 20.0 -347.0 20.0 -359.0 30.0 -366.0 39.0 -373.0 52.0 -377.0 65.0 -381.0 77.0 -383.0 90.0 -384.0 96.0 -384.0 L141.0 -362.0 141.0 -296.0 Q165.0 -309.0 174.0 -318.0 184.0 -326.0 196.0 -330.0 207.0 -334.0 229.0 -336.0 252.0 -337.0 301.0 -337.0 307.0 -337.0 315.0 -337.0 324.0 -337.0 332.0 -336.0 341.0 -336.0 348.0 -333.0 356.0 -331.0 361.0 -326.0 367.0 -317.0 372.0 -299.0 377.0 -281.0 380.0 -260.0 383.0 -239.0 385.0 -217.0 387.0 -196.0 388.0 -178.0 388.0 -175.0 388.0 -167.0 388.0 -158.0 388.0 -146.0 387.0 -134.0 387.0 -120.0 387.0 -107.0 387.0 -95.0 387.0 -78.0 388.0 -65.0 389.0 -52.0 390.0 -42.0 391.0 -32.0 392.0 -25.0 393.0 -17.0 393.0 -13.0 393.0 -12.0 393.0 -12.0 393.0 -11.0 393.0 -10.0 392.0 -9.0 392.0 -9.0 392.0 -8.0 392.0 -8.0 392.0 -6.0 392.0 -5.0 392.0 -3.0 393.0 -2.0 393.0 0.0 393.0 1.0 393.0 2.0 393.0 3.0 393.0 9.0 388.0 13.0 382.0 17.0 375.0 19.0 367.0 21.0 360.0 21.0 353.0 22.0 349.0 22.0 340.0 22.0 329.0 20.0 317.0 18.0 307.0 15.0 296.0 11.0 286.0 4.0 277.0 -2.0 271.0 -11.0" fill-rule="evenodd" stroke="none"/>
    </g>
    <g id="font_Apple_Casual_k0">
      <path d="M27.0 -28.0 L31.0 -34.0 Q28.0 -94.0 25.0 -149.0 23.0 -205.0 22.0 -259.0 20.0 -314.0 21.0 -370.0 22.0 -425.0 25.0 -485.0 27.0 -521.0 30.0 -557.0 33.0 -594.0 36.0 -631.0 38.0 -667.0 39.0 -703.0 40.0 -739.0 37.0 -774.0 39.0 -782.0 44.0 -788.0 49.0 -793.0 56.0 -797.0 63.0 -801.0 70.0 -802.0 78.0 -804.0 84.0 -804.0 L87.0 -804.0 Q88.0 -804.0 89.0 -804.0 90.0 -804.0 92.0 -803.0 93.0 -803.0 94.0 -803.0 95.0 -803.0 96.0 -803.0 107.0 -801.0 116.0 -800.0 125.0 -798.0 132.0 -793.0 140.0 -789.0 144.0 -781.0 149.0 -773.0 150.0 -760.0 151.0 -742.0 150.0 -723.0 149.0 -704.0 148.0 -685.0 146.0 -667.0 144.0 -648.0 143.0 -629.0 141.0 -610.0 140.0 -594.0 138.0 -578.0 137.0 -562.0 135.0 -545.0 134.0 -529.0 133.0 -513.0 132.0 -497.0 132.0 -481.0 132.0 -479.0 133.0 -465.0 134.0 -450.0 136.0 -433.0 137.0 -417.0 138.0 -402.0 139.0 -388.0 139.0 -386.0 139.0 -385.0 138.0 -382.0 137.0 -379.0 137.0 -375.0 136.0 -371.0 135.0 -368.0 135.0 -365.0 135.0 -364.0 L135.0 -357.0 Q135.0 -355.0 136.0 -353.0 136.0 -351.0 137.0 -349.0 137.0 -347.0 138.0 -345.0 139.0 -343.0 141.0 -340.0 L146.0 -342.0 Q155.0 -346.0 165.0 -350.0 175.0 -355.0 185.0 -358.0 194.0 -362.0 204.0 -366.0 214.0 -369.0 224.0 -372.0 225.0 -372.0 229.0 -373.0 234.0 -374.0 240.0 -374.0 245.0 -375.0 250.0 -376.0 256.0 -377.0 257.0 -377.0 260.0 -378.0 266.0 -380.0 272.0 -382.0 279.0 -384.0 286.0 -386.0 293.0 -387.0 300.0 -389.0 304.0 -389.0 L306.0 -389.0 Q318.0 -386.0 328.0 -385.0 338.0 -384.0 346.0 -381.0 354.0 -378.0 361.0 -372.0 368.0 -366.0 374.0 -354.0 L374.0 -349.0 Q372.0 -344.0 369.0 -340.0 365.0 -335.0 361.0 -331.0 357.0 -327.0 352.0 -324.0 348.0 -321.0 342.0 -321.0 341.0 -321.0 334.0 -321.0 327.0 -320.0 319.0 -319.0 311.0 -319.0 304.0 -318.0 297.0 -318.0 295.0 -318.0 295.0 -318.0 290.0 -317.0 286.0 -315.0 280.0 -314.0 274.0 -312.0 268.0 -310.0 262.0 -309.0 259.0 -308.0 256.0 -307.0 251.0 -305.0 246.0 -303.0 241.0 -301.0 236.0 -300.0 232.0 -298.0 228.0 -297.0 227.0 -297.0 225.0 -296.0 221.0 -294.0 217.0 -292.0 213.0 -290.0 209.0 -288.0 206.0 -285.0 204.0 -282.0 204.0 -280.0 230.0 -246.0 253.0 -217.0 276.0 -188.0 299.0 -159.0 321.0 -130.0 344.0 -99.0 366.0 -68.0 391.0 -30.0 391.0 -30.0 392.0 -28.0 393.0 -26.0 394.0 -25.0 395.0 -23.0 395.0 -21.0 396.0 -20.0 396.0 -20.0 396.0 -15.0 392.0 -12.0 387.0 -8.0 381.0 -5.0 375.0 -3.0 368.0 -2.0 361.0 0.0 357.0 0.0 351.0 0.0 342.0 0.0 333.0 -1.0 324.0 -2.0 315.0 -3.0 307.0 -5.0 299.0 -8.0 294.0 -12.0 293.0 -13.0 288.0 -18.0 283.0 -22.0 277.0 -28.0 270.0 -34.0 264.0 -39.0 259.0 -45.0 256.0 -48.0 233.0 -84.0 216.0 -108.0 198.0 -132.0 185.0 -148.0 172.0 -165.0 161.0 -178.0 151.0 -191.0 141.0 -206.0 L136.0 -206.0 Q136.0 -205.0 136.0 -203.0 136.0 -201.0 137.0 -198.0 137.0 -196.0 137.0 -194.0 137.0 -192.0 137.0 -191.0 137.0 -183.0 137.0 -176.0 136.0 -168.0 136.0 -161.0 135.0 -154.0 134.0 -146.0 134.0 -139.0 134.0 -131.0 L139.0 -103.0 139.0 -98.0 Q139.0 -97.0 139.0 -95.0 139.0 -93.0 138.0 -91.0 138.0 -89.0 137.0 -87.0 136.0 -85.0 136.0 -84.0 L147.0 -38.0 Q147.0 -33.0 148.0 -30.0 149.0 -27.0 148.0 -24.0 147.0 -21.0 144.0 -16.0 142.0 -10.0 134.0 0.0 133.0 0.0 130.0 1.0 128.0 1.0 125.0 1.0 122.0 1.0 119.0 1.0 117.0 1.0 116.0 1.0 103.0 2.0 91.0 1.0 79.0 0.0 67.0 -3.0 56.0 -6.0 46.0 -12.0 36.0 -18.0 27.0 -28.0" fill-rule="evenodd" stroke="none"/>
    </g>
    <g id="font_Apple_Casual_s0">
      <path d="M19.0 -47.0 Q21.0 -52.0 28.0 -56.0 35.0 -61.0 43.0 -64.0 52.0 -67.0 60.0 -68.0 68.0 -70.0 72.0 -70.0 80.0 -70.0 87.0 -69.0 94.0 -67.0 101.0 -66.0 108.0 -64.0 115.0 -63.0 122.0 -62.0 129.0 -62.0 138.0 -62.0 149.0 -66.0 159.0 -71.0 167.0 -78.0 176.0 -86.0 181.0 -96.0 187.0 -107.0 187.0 -119.0 187.0 -134.0 163.0 -144.0 138.0 -153.0 109.0 -167.0 80.0 -182.0 55.0 -208.0 31.0 -234.0 31.0 -282.0 31.0 -304.0 42.0 -322.0 52.0 -339.0 72.0 -351.0 91.0 -363.0 120.0 -370.0 148.0 -376.0 183.0 -376.0 L189.0 -376.0 Q201.0 -376.0 217.0 -376.0 234.0 -375.0 250.0 -371.0 265.0 -368.0 276.0 -360.0 287.0 -352.0 287.0 -337.0 287.0 -329.0 286.0 -321.0 284.0 -313.0 281.0 -306.0 277.0 -299.0 271.0 -295.0 265.0 -291.0 256.0 -291.0 243.0 -291.0 230.0 -292.0 216.0 -293.0 203.0 -295.0 190.0 -296.0 180.0 -298.0 169.0 -299.0 162.0 -299.0 158.0 -299.0 155.0 -298.0 152.0 -297.0 149.0 -295.0 147.0 -292.0 146.0 -288.0 145.0 -283.0 145.0 -276.0 145.0 -275.0 145.0 -274.0 145.0 -272.0 145.0 -271.0 145.0 -269.0 145.0 -268.0 146.0 -266.0 146.0 -264.0 148.0 -249.0 170.0 -240.0 193.0 -231.0 220.0 -218.0 247.0 -206.0 269.0 -184.0 291.0 -162.0 291.0 -121.0 291.0 -96.0 285.0 -79.0 279.0 -63.0 268.0 -51.0 257.0 -39.0 242.0 -30.0 227.0 -21.0 209.0 -12.0 209.0 -12.0 205.0 -11.0 201.0 -9.0 196.0 -7.0 191.0 -5.0 187.0 -2.0 182.0 0.0 181.0 3.0 177.0 3.0 172.0 3.0 168.0 3.0 164.0 4.0 160.0 4.0 155.0 4.0 151.0 4.0 146.0 4.0 138.0 4.0 130.0 3.0 122.0 3.0 114.0 3.0 107.0 3.0 100.0 2.0 93.0 2.0 87.0 1.0 81.0 0.0 70.0 -3.0 58.0 -7.0 47.0 -13.0 35.0 -19.0 27.0 -26.0 18.0 -34.0 18.0 -43.0 18.0 -43.0 18.0 -44.0 18.0 -44.0 18.0 -45.0 18.0 -45.0 18.0 -46.0 19.0 -46.0 19.0 -47.0" fill-rule="evenodd" stroke="none"/>
    </g>
  </defs>
</svg>
