<?xml version="1.0" encoding="UTF-8" standalone="no"?>
<svg xmlns:ffdec="https://www.free-decompiler.com/flash" xmlns:xlink="http://www.w3.org/1999/xlink" ffdec:objectType="text" height="14.35px" width="77.7px" xmlns="http://www.w3.org/2000/svg">
  <g transform="matrix(1.0, 0.0, 0.0, 1.0, -24.7, 0.7)">
    <g transform="matrix(1.0, 0.0, 0.0, 1.0, 24.35, 0.0)">
      <use fill="#ffffff" height="14.35" transform="matrix(0.0127, 0.0, 0.0, 0.0127, 0.0, 10.0)" width="77.7" xlink:href="#font_Apple_Casual_E0"/>
      <use fill="#ffffff" height="14.35" transform="matrix(0.0127, 0.0, 0.0, 0.0127, 4.55, 10.0)" width="77.7" xlink:href="#font_Apple_Casual_n0"/>
      <use fill="#ffffff" height="14.35" transform="matrix(0.0127, 0.0, 0.0, 0.0127, 9.8, 10.0)" width="77.7" xlink:href="#font_Apple_Casual_e0"/>
      <use fill="#ffffff" height="14.35" transform="matrix(0.0127, 0.0, 0.0, 0.0127, 14.25, 10.0)" width="77.7" xlink:href="#font_Apple_Casual_r0"/>
      <use fill="#ffffff" height="14.35" transform="matrix(0.0127, 0.0, 0.0, 0.0127, 18.3, 10.0)" width="77.7" xlink:href="#font_Apple_Casual_g0"/>
      <use fill="#ffffff" height="14.35" transform="matrix(0.0127, 0.0, 0.0, 0.0127, 22.2, 10.0)" width="77.7" xlink:href="#font_Apple_Casual_y0"/>
      <use fill="#ffffff" height="14.35" transform="matrix(0.0127, 0.0, 0.0, 0.0127, 27.2, 10.0)" width="77.7" xlink:href="#font_Apple_Casual_:0"/>
      <use fill="#ffffff" height="14.35" transform="matrix(0.0127, 0.0, 0.0, 0.0127, 32.2, 10.0)" width="77.7" xlink:href="#font_Apple_Casual_L0"/>
      <use fill="#ffffff" height="14.35" transform="matrix(0.0127, 0.0, 0.0, 0.0127, 37.25, 10.0)" width="77.7" xlink:href="#font_Apple_Casual_e0"/>
      <use fill="#ffffff" height="14.35" transform="matrix(0.0127, 0.0, 0.0, 0.0127, 41.7, 10.0)" width="77.7" xlink:href="#font_Apple_Casual_v0"/>
      <use fill="#ffffff" height="14.35" transform="matrix(0.0127, 0.0, 0.0, 0.0127, 46.45, 10.0)" width="77.7" xlink:href="#font_Apple_Casual_e0"/>
      <use fill="#ffffff" height="14.35" transform="matrix(0.0127, 0.0, 0.0, 0.0127, 50.9, 10.0)" width="77.7" xlink:href="#font_Apple_Casual_l0"/>
    </g>
  </g>
  <defs>
    <g id="font_Apple_Casual_E0">
      <path d="M20.0 -123.0 L20.0 -223.0 Q20.0 -267.0 23.0 -310.0 25.0 -354.0 28.0 -397.0 31.0 -441.0 34.0 -484.0 36.0 -527.0 36.0 -570.0 36.0 -581.0 35.0 -592.0 34.0 -603.0 34.0 -613.0 33.0 -623.0 32.0 -631.0 31.0 -639.0 31.0 -645.0 31.0 -653.0 36.0 -660.0 40.0 -667.0 47.0 -672.0 53.0 -678.0 60.0 -682.0 67.0 -686.0 71.0 -689.0 73.0 -689.0 77.0 -689.0 82.0 -689.0 87.0 -689.0 92.0 -690.0 96.0 -690.0 101.0 -690.0 103.0 -690.0 130.0 -690.0 157.0 -689.0 184.0 -687.0 212.0 -685.0 239.0 -683.0 266.0 -681.0 294.0 -678.0 321.0 -677.0 324.0 -675.0 328.0 -670.0 332.0 -665.0 336.0 -659.0 339.0 -653.0 342.0 -647.0 345.0 -641.0 345.0 -636.0 345.0 -617.0 335.0 -605.0 326.0 -593.0 312.0 -586.0 298.0 -580.0 283.0 -577.0 268.0 -575.0 257.0 -575.0 251.0 -575.0 247.0 -579.0 243.0 -583.0 240.0 -587.0 236.0 -592.0 232.0 -596.0 228.0 -600.0 220.0 -600.0 L160.0 -600.0 Q159.0 -600.0 157.0 -597.0 156.0 -594.0 154.0 -591.0 153.0 -588.0 152.0 -585.0 151.0 -582.0 151.0 -582.0 L151.0 -510.0 Q151.0 -508.0 153.0 -507.0 155.0 -506.0 159.0 -505.0 162.0 -504.0 167.0 -504.0 172.0 -504.0 178.0 -504.0 186.0 -504.0 194.0 -504.0 203.0 -505.0 213.0 -505.0 222.0 -505.0 232.0 -506.0 243.0 -506.0 253.0 -506.0 270.0 -506.0 287.0 -505.0 303.0 -504.0 316.0 -500.0 329.0 -496.0 336.0 -490.0 344.0 -483.0 344.0 -473.0 344.0 -465.0 340.0 -458.0 336.0 -452.0 330.0 -447.0 324.0 -442.0 317.0 -439.0 310.0 -436.0 304.0 -435.0 301.0 -434.0 276.0 -432.0 250.0 -431.0 221.0 -428.0 192.0 -425.0 167.0 -420.0 143.0 -415.0 141.0 -409.0 138.0 -396.0 135.0 -382.0 133.0 -369.0 132.0 -355.0 130.0 -341.0 130.0 -326.0 129.0 -312.0 129.0 -298.0 129.0 -282.0 129.0 -263.0 129.0 -244.0 130.0 -223.0 130.0 -202.0 130.0 -179.0 130.0 -157.0 130.0 -134.0 130.0 -123.0 132.0 -116.0 135.0 -110.0 140.0 -107.0 145.0 -104.0 154.0 -104.0 163.0 -103.0 175.0 -103.0 186.0 -103.0 196.0 -104.0 206.0 -106.0 217.0 -107.0 227.0 -109.0 237.0 -111.0 247.0 -112.0 258.0 -112.0 270.0 -112.0 281.0 -111.0 292.0 -110.0 301.0 -105.0 310.0 -100.0 316.0 -90.0 321.0 -80.0 321.0 -62.0 321.0 -50.0 317.0 -43.0 313.0 -36.0 306.0 -32.0 299.0 -28.0 289.0 -26.0 280.0 -25.0 269.0 -25.0 263.0 -25.0 257.0 -25.0 251.0 -26.0 245.0 -26.0 239.0 -26.0 233.0 -27.0 226.0 -27.0 220.0 -27.0 205.0 -27.0 192.0 -24.0 179.0 -21.0 168.0 -17.0 156.0 -14.0 145.0 -11.0 134.0 -8.0 123.0 -8.0 108.0 -8.0 91.0 -10.0 74.0 -13.0 59.0 -20.0 44.0 -28.0 35.0 -42.0 25.0 -56.0 25.0 -80.0 25.0 -83.0 25.0 -85.0 25.0 -87.0 26.0 -89.0 26.0 -91.0 26.0 -93.0 26.0 -95.0 26.0 -97.0 26.0 -100.0 26.0 -103.0 26.0 -106.0 25.0 -109.0 24.0 -112.0 23.0 -116.0 22.0 -119.0 20.0 -123.0" fill-rule="evenodd" stroke="none"/>
    </g>
    <g id="font_Apple_Casual_n0">
      <path d="M271.0 -11.0 Q271.0 -12.0 272.0 -21.0 273.0 -29.0 275.0 -46.0 276.0 -63.0 277.0 -89.0 278.0 -116.0 278.0 -153.0 278.0 -155.0 277.0 -161.0 276.0 -167.0 275.0 -174.0 273.0 -181.0 272.0 -187.0 271.0 -193.0 271.0 -195.0 271.0 -202.0 271.0 -211.0 271.0 -219.0 270.0 -228.0 269.0 -237.0 266.0 -245.0 263.0 -253.0 256.0 -258.0 210.0 -248.0 188.0 -232.0 166.0 -217.0 157.0 -192.0 148.0 -167.0 147.0 -132.0 146.0 -96.0 142.0 -47.0 142.0 -35.0 140.0 -26.0 137.0 -16.0 132.0 -9.0 127.0 -2.0 119.0 2.0 111.0 6.0 100.0 6.0 96.0 6.0 92.0 6.0 88.0 6.0 85.0 5.0 82.0 4.0 79.0 3.0 76.0 1.0 74.0 -1.0 65.0 -2.0 60.0 -3.0 54.0 -4.0 50.0 -5.0 45.0 -7.0 41.0 -10.0 37.0 -14.0 31.0 -22.0 31.0 -60.0 30.0 -98.0 29.0 -136.0 29.0 -173.0 28.0 -211.0 27.0 -249.0 26.0 -287.0 26.0 -325.0 26.0 -329.0 25.0 -333.0 24.0 -336.0 23.0 -339.0 22.0 -342.0 21.0 -344.0 20.0 -346.0 20.0 -347.0 20.0 -359.0 30.0 -366.0 39.0 -373.0 52.0 -377.0 65.0 -381.0 77.0 -383.0 90.0 -384.0 96.0 -384.0 L141.0 -362.0 141.0 -296.0 Q165.0 -309.0 174.0 -318.0 184.0 -326.0 196.0 -330.0 207.0 -334.0 229.0 -336.0 252.0 -337.0 301.0 -337.0 307.0 -337.0 315.0 -337.0 324.0 -337.0 332.0 -336.0 341.0 -336.0 348.0 -333.0 356.0 -331.0 361.0 -326.0 367.0 -317.0 372.0 -299.0 377.0 -281.0 380.0 -260.0 383.0 -239.0 385.0 -217.0 387.0 -196.0 388.0 -178.0 388.0 -175.0 388.0 -167.0 388.0 -158.0 388.0 -146.0 387.0 -134.0 387.0 -120.0 387.0 -107.0 387.0 -95.0 387.0 -78.0 388.0 -65.0 389.0 -52.0 390.0 -42.0 391.0 -32.0 392.0 -25.0 393.0 -17.0 393.0 -13.0 393.0 -12.0 393.0 -12.0 393.0 -11.0 393.0 -10.0 392.0 -9.0 392.0 -9.0 392.0 -8.0 392.0 -8.0 392.0 -6.0 392.0 -5.0 392.0 -3.0 393.0 -2.0 393.0 0.0 393.0 1.0 393.0 2.0 393.0 3.0 393.0 9.0 388.0 13.0 382.0 17.0 375.0 19.0 367.0 21.0 360.0 21.0 353.0 22.0 349.0 22.0 340.0 22.0 329.0 20.0 317.0 18.0 307.0 15.0 296.0 11.0 286.0 4.0 277.0 -2.0 271.0 -11.0" fill-rule="evenodd" stroke="none"/>
    </g>
    <g id="font_Apple_Casual_e0">
      <path d="M136.0 -252.0 Q136.0 -248.0 142.0 -246.0 147.0 -243.0 155.0 -242.0 162.0 -240.0 170.0 -240.0 178.0 -239.0 184.0 -239.0 L189.0 -239.0 Q189.0 -242.0 186.0 -251.0 183.0 -260.0 179.0 -269.0 174.0 -279.0 169.0 -286.0 165.0 -293.0 160.0 -293.0 158.0 -291.0 154.0 -286.0 150.0 -281.0 146.0 -274.0 142.0 -267.0 139.0 -261.0 136.0 -255.0 136.0 -252.0 M18.0 -176.0 L18.0 -184.0 Q18.0 -200.0 20.0 -216.0 23.0 -232.0 27.0 -248.0 32.0 -264.0 39.0 -281.0 45.0 -298.0 54.0 -318.0 56.0 -321.0 61.0 -323.0 65.0 -325.0 71.0 -326.0 76.0 -328.0 81.0 -330.0 87.0 -332.0 91.0 -335.0 93.0 -338.0 99.0 -338.0 104.0 -339.0 109.0 -339.0 115.0 -340.0 119.0 -341.0 123.0 -341.0 123.0 -344.0 135.0 -346.0 144.0 -348.0 154.0 -349.0 164.0 -350.0 173.0 -350.0 183.0 -351.0 192.0 -351.0 204.0 -351.0 227.0 -351.0 239.0 -347.0 252.0 -343.0 259.0 -335.0 267.0 -326.0 272.0 -313.0 277.0 -300.0 285.0 -281.0 287.0 -275.0 291.0 -266.0 294.0 -257.0 297.0 -248.0 300.0 -240.0 303.0 -234.0 305.0 -227.0 305.0 -227.0 305.0 -227.0 305.0 -227.0 306.0 -226.0 306.0 -225.0 306.0 -225.0 307.0 -224.0 307.0 -223.0 307.0 -223.0 307.0 -207.0 297.0 -199.0 286.0 -191.0 271.0 -187.0 257.0 -183.0 241.0 -183.0 225.0 -183.0 214.0 -183.0 L131.0 -183.0 Q132.0 -165.0 133.0 -148.0 134.0 -131.0 138.0 -114.0 141.0 -98.0 147.0 -81.0 154.0 -65.0 165.0 -50.0 166.0 -48.0 167.0 -46.0 168.0 -44.0 170.0 -42.0 171.0 -40.0 173.0 -38.0 174.0 -37.0 177.0 -37.0 187.0 -38.0 199.0 -50.0 211.0 -62.0 223.0 -76.0 234.0 -90.0 244.0 -101.0 253.0 -112.0 259.0 -112.0 L315.0 -113.0 Q318.0 -113.0 322.0 -111.0 326.0 -108.0 330.0 -105.0 334.0 -101.0 336.0 -97.0 339.0 -93.0 339.0 -90.0 339.0 -90.0 328.0 -71.0 317.0 -53.0 297.0 -31.0 277.0 -9.0 250.0 10.0 222.0 28.0 188.0 28.0 182.0 28.0 168.0 26.0 155.0 25.0 141.0 23.0 127.0 20.0 116.0 18.0 104.0 16.0 102.0 14.0 76.0 5.0 60.0 -18.0 44.0 -41.0 35.0 -69.0 26.0 -98.0 23.0 -126.0 20.0 -155.0 18.0 -176.0" fill-rule="evenodd" stroke="none"/>
    </g>
    <g id="font_Apple_Casual_r0">
      <path d="M24.0 -47.0 Q21.0 -89.0 21.0 -129.0 22.0 -168.0 24.0 -207.0 25.0 -247.0 25.0 -286.0 25.0 -326.0 20.0 -368.0 24.0 -375.0 29.0 -378.0 34.0 -381.0 40.0 -383.0 46.0 -384.0 53.0 -385.0 60.0 -385.0 67.0 -387.0 67.0 -387.0 71.0 -388.0 74.0 -389.0 79.0 -390.0 83.0 -391.0 87.0 -392.0 91.0 -393.0 92.0 -393.0 L96.0 -393.0 Q102.0 -393.0 107.0 -391.0 112.0 -388.0 116.0 -383.0 120.0 -379.0 122.0 -373.0 125.0 -368.0 125.0 -362.0 125.0 -354.0 125.0 -353.0 125.0 -351.0 125.0 -351.0 125.0 -350.0 125.0 -348.0 125.0 -347.0 125.0 -338.0 127.0 -338.0 132.0 -338.0 136.0 -337.0 142.0 -337.0 147.0 -337.0 151.0 -338.0 156.0 -338.0 158.0 -339.0 172.0 -340.0 184.0 -343.0 196.0 -346.0 208.0 -348.0 220.0 -351.0 232.0 -353.0 244.0 -355.0 257.0 -356.0 L284.0 -356.0 Q288.0 -355.0 292.0 -353.0 296.0 -351.0 299.0 -348.0 302.0 -345.0 304.0 -341.0 307.0 -337.0 307.0 -333.0 307.0 -332.0 307.0 -331.0 307.0 -330.0 307.0 -329.0 307.0 -328.0 307.0 -327.0 307.0 -326.0 307.0 -326.0 306.0 -324.0 302.0 -319.0 299.0 -314.0 294.0 -309.0 290.0 -304.0 285.0 -299.0 281.0 -295.0 279.0 -294.0 278.0 -293.0 273.0 -292.0 269.0 -291.0 264.0 -290.0 259.0 -289.0 254.0 -289.0 250.0 -288.0 248.0 -288.0 248.0 -288.0 244.0 -287.0 241.0 -286.0 237.0 -285.0 233.0 -284.0 229.0 -283.0 225.0 -282.0 224.0 -282.0 222.0 -282.0 214.0 -280.0 207.0 -279.0 198.0 -278.0 189.0 -277.0 182.0 -276.0 174.0 -275.0 172.0 -275.0 150.0 -277.0 142.0 -245.0 135.0 -214.0 135.0 -174.0 134.0 -133.0 138.0 -97.0 142.0 -60.0 142.0 -52.0 142.0 -46.0 143.0 -38.0 143.0 -30.0 142.0 -22.0 141.0 -15.0 138.0 -8.0 134.0 -1.0 128.0 2.0 127.0 2.0 124.0 3.0 122.0 3.0 119.0 3.0 116.0 3.0 114.0 3.0 112.0 3.0 111.0 3.0 103.0 3.0 96.0 3.0 90.0 2.0 83.0 1.0 76.0 -1.0 70.0 -3.0 63.0 -5.0 55.0 -8.0 55.0 -8.0 54.0 -8.0 54.0 -8.0 54.0 -8.0 54.0 -9.0 54.0 -9.0 53.0 -9.0 53.0 -9.0 45.0 -11.0 40.0 -14.0 35.0 -17.0 31.0 -22.0 28.0 -26.0 26.0 -32.0 25.0 -38.0 24.0 -47.0" fill-rule="evenodd" stroke="none"/>
    </g>
    <g id="font_Apple_Casual_g0">
      <path d="M131.0 -198.0 Q133.0 -189.0 136.0 -183.0 138.0 -177.0 140.0 -173.0 143.0 -170.0 146.0 -168.0 149.0 -167.0 152.0 -167.0 156.0 -167.0 159.0 -173.0 163.0 -180.0 165.0 -190.0 167.0 -201.0 169.0 -214.0 170.0 -227.0 170.0 -240.0 170.0 -250.0 169.0 -260.0 168.0 -269.0 166.0 -277.0 164.0 -284.0 161.0 -289.0 158.0 -293.0 154.0 -293.0 151.0 -293.0 147.0 -290.0 142.0 -287.0 139.0 -281.0 135.0 -275.0 132.0 -267.0 129.0 -259.0 129.0 -250.0 129.0 -241.0 129.0 -233.0 129.0 -225.0 130.0 -218.0 130.0 -211.0 130.0 -205.0 131.0 -200.0 131.0 -198.0 M186.0 106.0 L184.0 74.0 181.0 26.0 178.0 -14.0 Q178.0 -18.0 177.0 -22.0 177.0 -25.0 177.0 -28.0 177.0 -30.0 177.0 -32.0 177.0 -34.0 177.0 -34.0 177.0 -41.0 177.0 -43.0 178.0 -44.0 178.0 -45.0 178.0 -46.0 179.0 -51.0 179.0 -55.0 179.0 -69.0 179.0 -72.0 179.0 -74.0 179.0 -77.0 179.0 -79.0 179.0 -81.0 178.0 -83.0 178.0 -85.0 177.0 -87.0 165.0 -87.0 142.0 -88.0 119.0 -90.0 96.0 -95.0 73.0 -100.0 55.0 -111.0 37.0 -121.0 34.0 -138.0 34.0 -140.0 33.0 -148.0 32.0 -157.0 31.0 -166.0 31.0 -176.0 30.0 -184.0 29.0 -193.0 28.0 -196.0 28.0 -198.0 27.0 -200.0 26.0 -203.0 24.0 -205.0 23.0 -208.0 21.0 -210.0 20.0 -212.0 20.0 -213.0 20.0 -216.0 20.0 -228.0 20.0 -239.0 19.0 -252.0 19.0 -265.0 18.0 -276.0 18.0 -287.0 17.0 -289.0 17.0 -313.0 37.0 -330.0 58.0 -347.0 85.0 -357.0 111.0 -367.0 137.0 -372.0 163.0 -376.0 174.0 -376.0 177.0 -376.0 179.0 -376.0 181.0 -376.0 183.0 -375.0 185.0 -374.0 186.0 -373.0 188.0 -372.0 190.0 -371.0 208.0 -362.0 225.0 -362.0 242.0 -362.0 256.0 -360.0 269.0 -358.0 278.0 -348.0 286.0 -338.0 286.0 -310.0 286.0 -305.0 285.0 -301.0 285.0 -297.0 284.0 -293.0 283.0 -288.0 283.0 -284.0 282.0 -279.0 282.0 -274.0 282.0 -273.0 283.0 -270.0 283.0 -266.0 284.0 -262.0 284.0 -259.0 285.0 -255.0 285.0 -252.0 285.0 -251.0 285.0 -249.0 284.0 -244.0 283.0 -238.0 282.0 -232.0 281.0 -226.0 280.0 -220.0 278.0 -214.0 278.0 -213.0 278.0 -207.0 278.0 -200.0 279.0 -194.0 280.0 -187.0 280.0 -181.0 281.0 -174.0 281.0 -168.0 281.0 -162.0 281.0 -148.0 281.0 -135.0 280.0 -121.0 280.0 -107.0 280.0 -94.0 280.0 -80.0 280.0 -66.0 280.0 -52.0 L282.0 57.0 Q281.0 96.0 275.0 126.0 269.0 157.0 257.0 178.0 245.0 199.0 225.0 210.0 205.0 221.0 175.0 221.0 151.0 218.0 134.0 212.0 117.0 206.0 103.0 197.0 89.0 187.0 78.0 173.0 66.0 159.0 54.0 140.0 L46.0 121.0 Q44.0 117.0 45.0 115.0 45.0 114.0 46.0 113.0 47.0 112.0 49.0 110.0 50.0 109.0 50.0 104.0 50.0 97.0 54.0 92.0 57.0 88.0 63.0 86.0 68.0 84.0 73.0 83.0 79.0 83.0 82.0 82.0 83.0 82.0 84.0 82.0 85.0 82.0 86.0 82.0 87.0 81.0 88.0 81.0 89.0 81.0 90.0 81.0 108.0 78.0 116.0 87.0 123.0 97.0 128.0 110.0 132.0 122.0 137.0 134.0 143.0 145.0 156.0 145.0 162.0 145.0 168.0 143.0 173.0 140.0 177.0 136.0 181.0 131.0 184.0 123.0 186.0 116.0 186.0 106.0" fill-rule="evenodd" stroke="none"/>
    </g>
    <g id="font_Apple_Casual_y0">
      <path d="M51.0 294.0 Q51.0 289.0 51.0 285.0 51.0 280.0 51.0 277.0 50.0 273.0 50.0 269.0 50.0 266.0 50.0 263.0 50.0 238.0 54.0 213.0 59.0 188.0 66.0 164.0 72.0 139.0 80.0 115.0 88.0 91.0 94.0 67.0 94.0 48.0 104.0 24.0 115.0 0.0 128.0 -26.0 140.0 -53.0 151.0 -79.0 161.0 -106.0 161.0 -131.0 161.0 -145.0 156.0 -156.0 151.0 -166.0 143.0 -175.0 136.0 -184.0 126.0 -192.0 117.0 -201.0 109.0 -210.0 102.0 -217.0 86.0 -238.0 71.0 -258.0 56.0 -281.0 40.0 -304.0 29.0 -325.0 17.0 -345.0 17.0 -354.0 17.0 -362.0 26.0 -368.0 35.0 -374.0 47.0 -377.0 58.0 -381.0 68.0 -383.0 79.0 -385.0 82.0 -385.0 99.0 -385.0 111.0 -375.0 122.0 -365.0 131.0 -351.0 140.0 -336.0 147.0 -321.0 154.0 -305.0 163.0 -294.0 170.0 -286.0 177.0 -278.0 184.0 -270.0 190.0 -262.0 196.0 -255.0 201.0 -251.0 206.0 -246.0 209.0 -246.0 214.0 -246.0 219.0 -251.0 223.0 -256.0 227.0 -263.0 231.0 -270.0 234.0 -278.0 238.0 -286.0 241.0 -292.0 241.0 -324.0 245.0 -342.0 250.0 -359.0 259.0 -367.0 268.0 -375.0 283.0 -377.0 297.0 -378.0 317.0 -378.0 331.0 -378.0 339.0 -376.0 348.0 -374.0 355.0 -369.0 362.0 -364.0 367.0 -356.0 372.0 -348.0 378.0 -336.0 375.0 -331.0 372.0 -329.0 369.0 -327.0 366.0 -326.0 363.0 -324.0 360.0 -321.0 357.0 -317.0 354.0 -310.0 353.0 -308.0 350.0 -300.0 347.0 -291.0 344.0 -281.0 341.0 -271.0 338.0 -262.0 335.0 -253.0 335.0 -251.0 334.0 -248.0 329.0 -237.0 325.0 -226.0 319.0 -213.0 313.0 -201.0 308.0 -190.0 303.0 -179.0 301.0 -176.0 291.0 -152.0 281.0 -128.0 272.0 -104.0 262.0 -80.0 253.0 -56.0 244.0 -32.0 234.0 -7.0 225.0 17.0 219.0 33.0 213.0 56.0 206.0 80.0 199.0 104.0 192.0 127.0 186.0 146.0 180.0 165.0 175.0 172.0 175.0 172.0 175.0 174.0 175.0 177.0 176.0 179.0 176.0 182.0 176.0 184.0 176.0 186.0 176.0 187.0 176.0 190.0 173.0 203.0 171.0 215.0 168.0 229.0 165.0 243.0 163.0 255.0 160.0 267.0 160.0 270.0 155.0 279.0 155.0 287.0 154.0 296.0 154.0 303.0 154.0 310.0 152.0 315.0 150.0 321.0 141.0 322.0 131.0 322.0 118.0 321.0 106.0 321.0 93.0 318.0 81.0 315.0 70.0 310.0 59.0 304.0 51.0 294.0" fill-rule="evenodd" stroke="none"/>
    </g>
    <g id="font_Apple_Casual_:0">
      <path d="M20.0 -42.0 Q20.0 -42.0 20.0 -42.0 21.0 -43.0 21.0 -44.0 21.0 -44.0 22.0 -45.0 22.0 -46.0 22.0 -46.0 30.0 -56.0 37.0 -63.0 45.0 -71.0 54.0 -76.0 63.0 -81.0 73.0 -83.0 84.0 -86.0 96.0 -86.0 106.0 -86.0 114.0 -84.0 121.0 -82.0 127.0 -77.0 132.0 -72.0 134.0 -65.0 137.0 -57.0 137.0 -47.0 137.0 -41.0 135.0 -35.0 134.0 -29.0 131.0 -24.0 128.0 -19.0 124.0 -14.0 120.0 -10.0 115.0 -6.0 114.0 -6.0 110.0 -6.0 107.0 -6.0 103.0 -5.0 99.0 -5.0 96.0 -5.0 93.0 -5.0 92.0 -5.0 82.0 -5.0 72.0 -7.0 62.0 -8.0 53.0 -12.0 43.0 -16.0 35.0 -22.0 28.0 -29.0 22.0 -38.0 22.0 -38.0 22.0 -38.0 21.0 -39.0 21.0 -40.0 21.0 -40.0 20.0 -41.0 20.0 -42.0 20.0 -42.0 M20.0 -302.0 Q20.0 -302.0 20.0 -302.0 21.0 -303.0 21.0 -304.0 21.0 -304.0 22.0 -305.0 22.0 -306.0 22.0 -306.0 30.0 -316.0 37.0 -323.0 45.0 -331.0 54.0 -336.0 63.0 -341.0 73.0 -343.0 84.0 -346.0 96.0 -346.0 106.0 -346.0 114.0 -344.0 121.0 -342.0 127.0 -337.0 132.0 -332.0 134.0 -325.0 137.0 -317.0 137.0 -307.0 137.0 -301.0 135.0 -295.0 134.0 -289.0 131.0 -284.0 128.0 -279.0 124.0 -274.0 120.0 -270.0 115.0 -266.0 114.0 -266.0 110.0 -266.0 107.0 -266.0 103.0 -265.0 99.0 -265.0 96.0 -265.0 93.0 -265.0 92.0 -265.0 82.0 -265.0 72.0 -267.0 62.0 -268.0 53.0 -272.0 43.0 -276.0 35.0 -282.0 28.0 -289.0 22.0 -298.0 22.0 -298.0 22.0 -298.0 21.0 -299.0 21.0 -300.0 21.0 -300.0 20.0 -301.0 20.0 -302.0 20.0 -302.0" fill-rule="evenodd" stroke="none"/>
    </g>
    <g id="font_Apple_Casual_L0">
      <path d="M20.0 -42.0 Q20.0 -46.0 20.0 -49.0 20.0 -52.0 21.0 -55.0 21.0 -58.0 23.0 -61.0 24.0 -64.0 26.0 -68.0 26.0 -74.0 25.0 -80.0 25.0 -86.0 25.0 -92.0 25.0 -98.0 25.0 -104.0 25.0 -110.0 25.0 -116.0 25.0 -147.0 26.0 -177.0 27.0 -207.0 29.0 -237.0 30.0 -267.0 32.0 -297.0 34.0 -327.0 36.0 -357.0 38.0 -379.0 41.0 -412.0 44.0 -445.0 47.0 -479.0 50.0 -514.0 53.0 -547.0 55.0 -579.0 55.0 -601.0 55.0 -607.0 54.0 -612.0 53.0 -617.0 52.0 -622.0 51.0 -628.0 50.0 -633.0 49.0 -638.0 49.0 -644.0 49.0 -654.0 59.0 -660.0 70.0 -667.0 83.0 -671.0 97.0 -675.0 111.0 -676.0 125.0 -678.0 132.0 -678.0 141.0 -678.0 149.0 -676.0 158.0 -674.0 165.0 -670.0 172.0 -666.0 177.0 -659.0 181.0 -651.0 181.0 -641.0 181.0 -640.0 180.0 -636.0 179.0 -632.0 179.0 -627.0 178.0 -623.0 177.0 -619.0 176.0 -615.0 176.0 -614.0 172.0 -590.0 170.0 -553.0 168.0 -517.0 166.0 -478.0 165.0 -440.0 163.0 -403.0 161.0 -367.0 157.0 -342.0 153.0 -318.0 150.0 -295.0 147.0 -271.0 144.0 -248.0 142.0 -224.0 141.0 -201.0 140.0 -177.0 140.0 -153.0 140.0 -137.0 139.0 -123.0 138.0 -109.0 142.0 -99.0 147.0 -89.0 161.0 -84.0 174.0 -78.0 204.0 -78.0 215.0 -78.0 228.0 -78.0 240.0 -79.0 253.0 -79.0 266.0 -80.0 278.0 -81.0 291.0 -81.0 303.0 -81.0 320.0 -81.0 334.0 -80.0 348.0 -78.0 359.0 -74.0 370.0 -71.0 376.0 -64.0 382.0 -57.0 382.0 -47.0 382.0 -47.0 381.0 -44.0 380.0 -42.0 380.0 -40.0 379.0 -37.0 378.0 -35.0 377.0 -32.0 377.0 -31.0 377.0 -31.0 378.0 -28.0 379.0 -25.0 380.0 -21.0 380.0 -17.0 381.0 -14.0 382.0 -11.0 382.0 -11.0 382.0 -8.0 376.0 -6.0 370.0 -4.0 362.0 -2.0 354.0 0.0 347.0 1.0 339.0 3.0 335.0 4.0 L94.0 4.0 Q83.0 4.0 70.0 2.0 57.0 0.0 46.0 -5.0 35.0 -11.0 27.0 -20.0 20.0 -28.0 20.0 -42.0" fill-rule="evenodd" stroke="none"/>
    </g>
    <g id="font_Apple_Casual_v0">
      <path d="M172.0 -10.0 Q154.0 -28.0 135.0 -53.0 116.0 -77.0 100.0 -104.0 83.0 -131.0 71.0 -158.0 59.0 -185.0 54.0 -207.0 52.0 -213.0 50.0 -218.0 48.0 -224.0 46.0 -229.0 43.0 -235.0 41.0 -240.0 40.0 -246.0 38.0 -251.0 37.0 -252.0 33.0 -264.0 30.0 -277.0 26.0 -292.0 23.0 -307.0 20.0 -320.0 17.0 -334.0 17.0 -337.0 17.0 -350.0 26.0 -357.0 34.0 -365.0 48.0 -370.0 61.0 -374.0 76.0 -376.0 92.0 -378.0 106.0 -380.0 124.0 -380.0 130.0 -371.0 137.0 -361.0 139.0 -347.0 141.0 -332.0 141.0 -314.0 142.0 -296.0 148.0 -278.0 151.0 -265.0 156.0 -245.0 161.0 -226.0 166.0 -208.0 171.0 -190.0 176.0 -177.0 181.0 -164.0 184.0 -164.0 184.0 -164.0 185.0 -164.0 185.0 -164.0 185.0 -164.0 186.0 -164.0 186.0 -164.0 186.0 -165.0 186.0 -165.0 L234.0 -294.0 Q236.0 -310.0 237.0 -321.0 238.0 -331.0 242.0 -338.0 245.0 -346.0 252.0 -352.0 258.0 -358.0 270.0 -365.0 274.0 -368.0 277.0 -370.0 281.0 -371.0 285.0 -373.0 288.0 -374.0 294.0 -374.0 299.0 -375.0 308.0 -375.0 320.0 -375.0 327.0 -374.0 334.0 -374.0 339.0 -370.0 344.0 -367.0 348.0 -360.0 352.0 -353.0 358.0 -341.0 358.0 -330.0 356.0 -320.0 353.0 -311.0 349.0 -302.0 346.0 -293.0 342.0 -284.0 337.0 -276.0 334.0 -267.0 326.0 -241.0 315.0 -197.0 303.0 -153.0 288.0 -111.0 273.0 -69.0 255.0 -38.0 236.0 -7.0 212.0 -7.0 210.0 -7.0 207.0 -7.0 204.0 -7.0 200.0 -7.0 195.0 -7.0 188.0 -7.0 181.0 -8.0 172.0 -10.0" fill-rule="evenodd" stroke="none"/>
    </g>
    <g id="font_Apple_Casual_l0">
      <path d="M71.0 -46.0 Q67.0 -74.0 66.0 -102.0 64.0 -130.0 63.0 -158.0 62.0 -185.0 62.0 -213.0 62.0 -240.0 62.0 -267.0 61.0 -323.0 59.0 -378.0 58.0 -434.0 55.0 -489.0 52.0 -544.0 48.0 -599.0 43.0 -655.0 36.0 -712.0 L22.0 -741.0 Q21.0 -750.0 32.0 -756.0 43.0 -761.0 58.0 -764.0 73.0 -767.0 89.0 -767.0 104.0 -768.0 110.0 -768.0 117.0 -768.0 122.0 -766.0 128.0 -765.0 132.0 -761.0 136.0 -757.0 139.0 -752.0 142.0 -746.0 143.0 -739.0 149.0 -697.0 153.0 -654.0 158.0 -612.0 161.0 -569.0 164.0 -526.0 165.0 -484.0 167.0 -441.0 167.0 -399.0 167.0 -360.0 167.0 -320.0 166.0 -280.0 167.0 -240.0 167.0 -201.0 170.0 -161.0 172.0 -121.0 177.0 -81.0 178.0 -75.0 179.0 -69.0 181.0 -62.0 183.0 -56.0 185.0 -51.0 186.0 -47.0 188.0 -42.0 188.0 -41.0 189.0 -32.0 187.0 -24.0 185.0 -16.0 180.0 -11.0 176.0 -6.0 169.0 -3.0 162.0 0.0 153.0 0.0 142.0 0.0 128.0 -4.0 115.0 -9.0 102.0 -15.0 90.0 -21.0 81.0 -28.0 73.0 -34.0 72.0 -39.0 72.0 -40.0 72.0 -41.0 72.0 -41.0 72.0 -42.0 71.0 -43.0 71.0 -44.0 71.0 -45.0 71.0 -46.0" fill-rule="evenodd" stroke="none"/>
    </g>
  </defs>
</svg>
