<?xml version="1.0" encoding="UTF-8" standalone="no"?>
<svg xmlns:ffdec="https://www.free-decompiler.com/flash" xmlns:xlink="http://www.w3.org/1999/xlink" ffdec:objectType="text" height="19.0px" width="104.0px" xmlns="http://www.w3.org/2000/svg">
  <g transform="matrix(1.0, 0.0, 0.0, 1.0, 2.0, 2.0)">
    <g transform="matrix(1.0, 0.0, 0.0, 1.0, -2.0, -2.0)">
      <use fill="#000000" height="19.0" transform="matrix(0.0117, 0.0, 0.0, 0.0117, 0.0, 14.05)" width="104.0" xlink:href="#font_Verdana_00"/>
    </g>
  </g>
  <defs>
    <g id="font_Verdana_00">
      <path d="M453.5 -146.0 L453.5 -146.0 Q436.5 -107.0 405.0 -87.5 373.5 -68.0 326.0 -68.0 275.5 -68.0 244.5 -88.5 214.0 -109.0 197.5 -147.5 179.0 -189.0 173.5 -241.5 168.0 -293.5 168.0 -371.5 168.0 -442.0 174.5 -501.5 180.5 -561.0 198.0 -597.5 216.0 -637.0 247.5 -656.5 278.5 -676.0 326.0 -676.0 374.0 -676.0 405.0 -656.5 435.5 -637.0 453.0 -598.5 471.5 -560.0 477.5 -504.0 484.0 -448.0 484.0 -372.5 484.0 -295.5 477.5 -241.0 471.5 -186.5 453.5 -146.0 M584.0 -372.5 L584.0 -372.5 Q584.0 -567.0 522.0 -663.5 460.5 -760.0 326.0 -760.0 193.5 -760.0 130.5 -665.0 68.0 -570.0 68.0 -371.5 68.0 -174.0 130.0 -79.0 192.0 16.0 326.0 16.0 458.5 16.0 521.0 -78.0 584.0 -171.5 584.0 -372.5" fill-rule="evenodd" stroke="none"/>
    </g>
  </defs>
</svg>
