<?xml version="1.0" encoding="UTF-8" standalone="no"?>
<svg xmlns:ffdec="https://www.free-decompiler.com/flash" xmlns:xlink="http://www.w3.org/1999/xlink" ffdec:objectType="text" height="18.05px" width="32.85px" xmlns="http://www.w3.org/2000/svg">
  <g transform="matrix(1.0, 0.0, 0.0, 1.0, -55.9, 0.55)">
    <g transform="matrix(1.0, 0.0, 0.0, 1.0, 55.4, 0.0)">
      <use fill="#ffffff" height="18.05" transform="matrix(0.0156, 0.0, 0.0, 0.0156, 0.0, 13.0)" width="32.85" xlink:href="#font_Apple_Casual_S0"/>
      <use fill="#ffffff" height="18.05" transform="matrix(0.0156, 0.0, 0.0, 0.0156, 5.5, 13.0)" width="32.85" xlink:href="#font_Apple_Casual_h0"/>
      <use fill="#ffffff" height="18.05" transform="matrix(0.0156, 0.0, 0.0, 0.0156, 11.05, 13.0)" width="32.85" xlink:href="#font_Apple_Casual_o0"/>
      <use fill="#ffffff" height="18.05" transform="matrix(0.0156, 0.0, 0.0, 0.0156, 16.3, 13.0)" width="32.85" xlink:href="#font_Apple_Casual_p0"/>
    </g>
  </g>
  <defs>
    <g id="font_Apple_Casual_S0">
      <path d="M62.0 -227.0 Q100.0 -228.0 108.0 -207.0 116.0 -187.0 118.0 -162.0 119.0 -137.0 124.0 -117.0 130.0 -96.0 164.0 -96.0 178.0 -96.0 190.0 -99.0 203.0 -102.0 213.0 -109.0 222.0 -116.0 228.0 -128.0 234.0 -139.0 234.0 -157.0 234.0 -158.0 234.0 -159.0 234.0 -161.0 234.0 -162.0 233.0 -164.0 233.0 -165.0 233.0 -166.0 233.0 -168.0 225.0 -211.0 214.0 -235.0 202.0 -259.0 185.0 -279.0 168.0 -299.0 143.0 -325.0 119.0 -350.0 84.0 -397.0 66.0 -422.0 53.0 -442.0 41.0 -462.0 33.0 -479.0 24.0 -496.0 21.0 -511.0 17.0 -527.0 17.0 -542.0 17.0 -574.0 25.0 -601.0 32.0 -628.0 49.0 -648.0 65.0 -667.0 90.0 -678.0 116.0 -689.0 152.0 -689.0 176.0 -689.0 203.0 -687.0 229.0 -685.0 253.0 -675.0 277.0 -665.0 297.0 -643.0 316.0 -622.0 327.0 -582.0 L327.0 -573.0 Q327.0 -560.0 323.0 -547.0 319.0 -533.0 311.0 -522.0 304.0 -512.0 293.0 -505.0 283.0 -498.0 271.0 -498.0 264.0 -498.0 259.0 -500.0 254.0 -503.0 250.0 -507.0 247.0 -511.0 244.0 -517.0 242.0 -523.0 241.0 -529.0 L240.0 -534.0 240.0 -553.0 Q239.0 -568.0 235.0 -578.0 231.0 -588.0 224.0 -594.0 218.0 -600.0 209.0 -603.0 201.0 -606.0 190.0 -606.0 165.0 -606.0 151.0 -599.0 136.0 -592.0 129.0 -580.0 122.0 -569.0 121.0 -555.0 119.0 -540.0 119.0 -525.0 119.0 -502.0 145.0 -467.0 171.0 -432.0 202.0 -396.0 234.0 -360.0 261.0 -329.0 288.0 -298.0 290.0 -285.0 302.0 -271.0 310.0 -255.0 319.0 -238.0 324.0 -221.0 330.0 -204.0 332.0 -186.0 335.0 -169.0 335.0 -152.0 335.0 -120.0 327.0 -93.0 320.0 -65.0 303.0 -46.0 287.0 -26.0 262.0 -15.0 236.0 -4.0 201.0 -4.0 170.0 -4.0 139.0 -11.0 108.0 -17.0 83.0 -32.0 58.0 -48.0 43.0 -72.0 27.0 -97.0 28.0 -133.0 28.0 -136.0 28.0 -139.0 28.0 -143.0 29.0 -146.0 29.0 -150.0 30.0 -153.0 30.0 -157.0 31.0 -160.0 L32.0 -178.0 34.0 -189.0 Q36.0 -201.0 38.0 -208.0 40.0 -215.0 42.0 -220.0 45.0 -224.0 50.0 -225.0 54.0 -227.0 62.0 -227.0" fill-rule="evenodd" stroke="none"/>
    </g>
    <g id="font_Apple_Casual_h0">
      <path d="M229.0 -46.0 Q228.0 -57.0 228.0 -69.0 229.0 -80.0 229.0 -91.0 230.0 -103.0 230.0 -114.0 230.0 -126.0 230.0 -138.0 229.0 -157.0 231.0 -173.0 233.0 -188.0 232.0 -201.0 231.0 -214.0 226.0 -225.0 220.0 -237.0 205.0 -250.0 205.0 -250.0 203.0 -251.0 202.0 -251.0 201.0 -252.0 199.0 -253.0 198.0 -253.0 196.0 -254.0 196.0 -254.0 L193.0 -254.0 Q174.0 -253.0 162.0 -239.0 151.0 -224.0 145.0 -195.0 139.0 -165.0 139.0 -122.0 139.0 -78.0 143.0 -19.0 141.0 -12.0 138.0 -7.0 135.0 -3.0 130.0 0.0 126.0 3.0 120.0 5.0 115.0 7.0 108.0 7.0 96.0 7.0 85.0 7.0 75.0 7.0 66.0 4.0 56.0 2.0 48.0 -3.0 39.0 -8.0 30.0 -17.0 30.0 -18.0 28.0 -20.0 27.0 -23.0 25.0 -25.0 24.0 -27.0 22.0 -29.0 21.0 -31.0 20.0 -32.0 L20.0 -35.0 Q20.0 -37.0 21.0 -38.0 22.0 -40.0 23.0 -41.0 25.0 -43.0 26.0 -44.0 28.0 -45.0 29.0 -46.0 29.0 -54.0 28.0 -73.0 27.0 -92.0 26.0 -114.0 25.0 -135.0 25.0 -154.0 24.0 -173.0 24.0 -181.0 24.0 -218.0 23.0 -254.0 23.0 -291.0 22.0 -328.0 21.0 -365.0 21.0 -401.0 21.0 -438.0 22.0 -475.0 23.0 -504.0 25.0 -532.0 28.0 -561.0 30.0 -590.0 32.0 -618.0 33.0 -647.0 34.0 -676.0 31.0 -705.0 31.0 -706.0 43.0 -710.0 54.0 -714.0 68.0 -719.0 82.0 -723.0 95.0 -727.0 108.0 -730.0 112.0 -730.0 118.0 -730.0 123.0 -729.0 128.0 -727.0 131.0 -724.0 134.0 -721.0 136.0 -716.0 138.0 -712.0 138.0 -706.0 138.0 -700.0 137.0 -694.0 137.0 -688.0 135.0 -681.0 134.0 -675.0 132.0 -669.0 131.0 -662.0 130.0 -656.0 126.0 -614.0 123.0 -573.0 121.0 -532.0 120.0 -491.0 119.0 -449.0 119.0 -408.0 120.0 -366.0 121.0 -324.0 121.0 -321.0 121.0 -318.0 121.0 -314.0 122.0 -310.0 122.0 -307.0 122.0 -304.0 122.0 -302.0 122.0 -302.0 L127.0 -297.0 Q135.0 -304.0 143.0 -311.0 151.0 -317.0 160.0 -322.0 169.0 -327.0 179.0 -330.0 189.0 -334.0 199.0 -334.0 226.0 -335.0 248.0 -328.0 270.0 -321.0 287.0 -305.0 303.0 -289.0 313.0 -263.0 323.0 -238.0 326.0 -202.0 L336.0 -47.0 Q336.0 -44.0 336.0 -39.0 336.0 -34.0 335.0 -29.0 335.0 -24.0 334.0 -20.0 334.0 -16.0 333.0 -15.0 332.0 -14.0 329.0 -12.0 325.0 -10.0 321.0 -8.0 316.0 -6.0 312.0 -3.0 307.0 -1.0 304.0 0.0 L296.0 0.0 Q284.0 1.0 272.0 -1.0 260.0 -3.0 251.0 -8.0 241.0 -14.0 235.0 -23.0 229.0 -32.0 229.0 -46.0" fill-rule="evenodd" stroke="none"/>
    </g>
    <g id="font_Apple_Casual_o0">
      <path d="M128.0 -209.0 Q128.0 -203.0 132.0 -180.0 136.0 -157.0 143.0 -131.0 149.0 -106.0 157.0 -85.0 166.0 -65.0 175.0 -65.0 184.0 -65.0 191.0 -79.0 198.0 -93.0 202.0 -112.0 207.0 -131.0 209.0 -150.0 211.0 -169.0 211.0 -179.0 211.0 -191.0 210.0 -210.0 209.0 -228.0 204.0 -245.0 199.0 -262.0 189.0 -274.0 179.0 -286.0 161.0 -286.0 150.0 -286.0 144.0 -277.0 137.0 -268.0 134.0 -255.0 130.0 -242.0 129.0 -229.0 128.0 -216.0 128.0 -209.0 M18.0 -204.0 Q18.0 -213.0 20.0 -221.0 22.0 -230.0 24.0 -238.0 26.0 -247.0 28.0 -256.0 30.0 -265.0 30.0 -275.0 30.0 -276.0 30.0 -277.0 30.0 -278.0 30.0 -279.0 29.0 -280.0 29.0 -280.0 29.0 -281.0 29.0 -282.0 29.0 -300.0 44.0 -314.0 60.0 -329.0 81.0 -339.0 103.0 -349.0 127.0 -355.0 151.0 -360.0 168.0 -360.0 209.0 -360.0 238.0 -346.0 266.0 -332.0 284.0 -308.0 302.0 -284.0 310.0 -252.0 318.0 -221.0 318.0 -185.0 318.0 -170.0 316.0 -158.0 314.0 -145.0 311.0 -133.0 307.0 -120.0 303.0 -107.0 299.0 -94.0 295.0 -78.0 286.0 -44.0 268.0 -26.0 251.0 -8.0 232.0 0.0 213.0 9.0 194.0 10.0 175.0 11.0 163.0 11.0 130.0 11.0 109.0 4.0 89.0 -3.0 75.0 -19.0 62.0 -35.0 54.0 -59.0 45.0 -84.0 37.0 -120.0 34.0 -130.0 31.0 -140.0 28.0 -151.0 25.0 -161.0 22.0 -172.0 20.0 -182.0 18.0 -193.0 18.0 -204.0" fill-rule="evenodd" stroke="none"/>
    </g>
    <g id="font_Apple_Casual_p0">
      <path d="M236.0 -247.0 Q236.0 -260.0 235.0 -269.0 234.0 -278.0 230.0 -284.0 225.0 -290.0 217.0 -292.0 208.0 -295.0 193.0 -295.0 189.0 -295.0 180.0 -295.0 171.0 -294.0 161.0 -293.0 152.0 -291.0 145.0 -288.0 138.0 -284.0 138.0 -278.0 L137.0 -276.0 137.0 -212.0 Q137.0 -206.0 140.0 -199.0 142.0 -192.0 148.0 -186.0 153.0 -180.0 160.0 -176.0 167.0 -172.0 176.0 -172.0 194.0 -172.0 206.0 -178.0 217.0 -184.0 224.0 -194.0 231.0 -204.0 233.0 -218.0 236.0 -231.0 236.0 -247.0 M336.0 -266.0 Q336.0 -265.0 336.0 -263.0 335.0 -261.0 335.0 -259.0 334.0 -257.0 333.0 -255.0 333.0 -253.0 332.0 -253.0 332.0 -252.0 332.0 -249.0 332.0 -245.0 333.0 -241.0 333.0 -237.0 333.0 -232.0 333.0 -228.0 333.0 -224.0 333.0 -221.0 332.0 -216.0 331.0 -212.0 329.0 -205.0 327.0 -199.0 325.0 -192.0 322.0 -184.0 319.0 -175.0 312.0 -152.0 297.0 -133.0 282.0 -115.0 264.0 -102.0 245.0 -89.0 224.0 -82.0 202.0 -75.0 182.0 -75.0 175.0 -75.0 169.0 -76.0 163.0 -77.0 157.0 -77.0 151.0 -78.0 146.0 -79.0 140.0 -80.0 133.0 -80.0 130.0 -80.0 129.0 -72.0 128.0 -64.0 127.0 -52.0 126.0 -40.0 126.0 -27.0 126.0 -14.0 126.0 -4.0 L126.0 3.0 Q126.0 39.0 127.0 74.0 128.0 110.0 130.0 146.0 131.0 181.0 132.0 217.0 133.0 252.0 133.0 287.0 133.0 291.0 134.0 295.0 136.0 298.0 137.0 302.0 139.0 305.0 140.0 309.0 141.0 312.0 141.0 316.0 141.0 322.0 134.0 327.0 127.0 333.0 118.0 337.0 108.0 341.0 99.0 344.0 89.0 346.0 84.0 346.0 77.0 346.0 70.0 345.0 63.0 345.0 57.0 343.0 50.0 341.0 44.0 338.0 39.0 334.0 34.0 328.0 34.0 297.0 33.0 264.0 32.0 232.0 31.0 199.0 29.0 167.0 28.0 134.0 27.0 101.0 27.0 69.0 27.0 56.0 27.0 43.0 28.0 30.0 29.0 18.0 29.0 5.0 30.0 -8.0 30.0 -20.0 30.0 -33.0 30.0 -41.0 31.0 -57.0 31.0 -74.0 32.0 -90.0 33.0 -107.0 33.0 -120.0 34.0 -133.0 35.0 -136.0 35.0 -142.0 36.0 -149.0 38.0 -155.0 39.0 -160.0 41.0 -165.0 42.0 -169.0 43.0 -173.0 43.0 -175.0 42.0 -176.0 40.0 -184.0 39.0 -191.0 38.0 -201.0 36.0 -212.0 36.0 -224.0 35.0 -235.0 35.0 -245.0 33.0 -250.0 30.0 -253.0 28.0 -257.0 25.0 -260.0 23.0 -264.0 22.0 -268.0 20.0 -273.0 20.0 -280.0 20.0 -285.0 20.0 -288.0 20.0 -292.0 21.0 -295.0 22.0 -298.0 24.0 -301.0 26.0 -304.0 30.0 -308.0 47.0 -328.0 61.0 -342.0 75.0 -355.0 89.0 -363.0 103.0 -371.0 119.0 -374.0 134.0 -377.0 153.0 -377.0 151.0 -377.0 160.0 -378.0 169.0 -379.0 182.0 -379.0 194.0 -380.0 206.0 -381.0 217.0 -382.0 220.0 -382.0 222.0 -382.0 227.0 -382.0 232.0 -381.0 238.0 -381.0 244.0 -380.0 250.0 -379.0 255.0 -379.0 258.0 -378.0 274.0 -376.0 288.0 -364.0 302.0 -351.0 313.0 -335.0 323.0 -318.0 330.0 -300.0 336.0 -281.0 336.0 -266.0" fill-rule="evenodd" stroke="none"/>
    </g>
  </defs>
</svg>
