<?xml version="1.0" encoding="UTF-8" standalone="no"?>
<svg xmlns:ffdec="https://www.free-decompiler.com/flash" xmlns:xlink="http://www.w3.org/1999/xlink" ffdec:objectType="text" height="15.55px" width="43.35px" xmlns="http://www.w3.org/2000/svg">
  <g transform="matrix(1.0, 0.0, 0.0, 1.0, -50.9, 0.5)">
    <g transform="matrix(1.0, 0.0, 0.0, 1.0, 50.05, 0.0)">
      <use fill="#ffffff" height="15.55" transform="matrix(0.0137, 0.0, 0.0, 0.0137, 0.0, 11.0)" width="43.35" xlink:href="#font_Apple_Casual_O0"/>
      <use fill="#ffffff" height="15.55" transform="matrix(0.0137, 0.0, 0.0, 0.0137, 6.75, 11.0)" width="43.35" xlink:href="#font_Apple_Casual_p0"/>
      <use fill="#ffffff" height="15.55" transform="matrix(0.0137, 0.0, 0.0, 0.0137, 11.6, 11.0)" width="43.35" xlink:href="#font_Apple_Casual_t0"/>
      <use fill="#ffffff" height="15.55" transform="matrix(0.0137, 0.0, 0.0, 0.0137, 16.5, 11.0)" width="43.35" xlink:href="#font_Apple_Casual_i0"/>
      <use fill="#ffffff" height="15.55" transform="matrix(0.0137, 0.0, 0.0, 0.0137, 18.8, 11.0)" width="43.35" xlink:href="#font_Apple_Casual_o0"/>
      <use fill="#ffffff" height="15.55" transform="matrix(0.0137, 0.0, 0.0, 0.0137, 23.4, 11.0)" width="43.35" xlink:href="#font_Apple_Casual_n0"/>
      <use fill="#ffffff" height="15.55" transform="matrix(0.0137, 0.0, 0.0, 0.0137, 29.05, 11.0)" width="43.35" xlink:href="#font_Apple_Casual_s0"/>
    </g>
  </g>
  <defs>
    <g id="font_Apple_Casual_O0">
      <path d="M367.0 -403.0 Q361.0 -471.0 347.0 -512.0 333.0 -553.0 316.0 -575.0 299.0 -597.0 281.0 -604.0 263.0 -611.0 247.0 -611.0 L231.0 -611.0 Q197.0 -600.0 176.0 -563.0 155.0 -526.0 144.0 -477.0 132.0 -429.0 129.0 -378.0 125.0 -327.0 125.0 -289.0 125.0 -246.0 136.0 -208.0 147.0 -170.0 165.0 -142.0 182.0 -114.0 205.0 -97.0 227.0 -81.0 250.0 -81.0 L260.0 -81.0 Q295.0 -92.0 316.0 -129.0 337.0 -167.0 348.0 -215.0 359.0 -263.0 363.0 -314.0 367.0 -365.0 367.0 -403.0 M239.0 -686.0 L257.0 -686.0 Q312.0 -685.0 353.0 -654.0 393.0 -623.0 420.0 -577.0 447.0 -531.0 461.0 -477.0 474.0 -423.0 474.0 -376.0 474.0 -329.0 468.0 -265.0 462.0 -201.0 439.0 -144.0 417.0 -86.0 373.0 -46.0 329.0 -6.0 253.0 -6.0 L234.0 -6.0 Q179.0 -6.0 139.0 -37.0 98.0 -68.0 71.0 -115.0 44.0 -161.0 30.0 -216.0 17.0 -270.0 17.0 -316.0 17.0 -363.0 23.0 -427.0 30.0 -491.0 52.0 -548.0 75.0 -606.0 119.0 -646.0 163.0 -686.0 239.0 -686.0" fill-rule="evenodd" stroke="none"/>
    </g>
    <g id="font_Apple_Casual_p0">
      <path d="M236.0 -247.0 Q236.0 -260.0 235.0 -269.0 234.0 -278.0 230.0 -284.0 225.0 -290.0 217.0 -292.0 208.0 -295.0 193.0 -295.0 189.0 -295.0 180.0 -295.0 171.0 -294.0 161.0 -293.0 152.0 -291.0 145.0 -288.0 138.0 -284.0 138.0 -278.0 L137.0 -276.0 137.0 -212.0 Q137.0 -206.0 140.0 -199.0 142.0 -192.0 148.0 -186.0 153.0 -180.0 160.0 -176.0 167.0 -172.0 176.0 -172.0 194.0 -172.0 206.0 -178.0 217.0 -184.0 224.0 -194.0 231.0 -204.0 233.0 -218.0 236.0 -231.0 236.0 -247.0 M336.0 -266.0 Q336.0 -265.0 336.0 -263.0 335.0 -261.0 335.0 -259.0 334.0 -257.0 333.0 -255.0 333.0 -253.0 332.0 -253.0 332.0 -252.0 332.0 -249.0 332.0 -245.0 333.0 -241.0 333.0 -237.0 333.0 -232.0 333.0 -228.0 333.0 -224.0 333.0 -221.0 332.0 -216.0 331.0 -212.0 329.0 -205.0 327.0 -199.0 325.0 -192.0 322.0 -184.0 319.0 -175.0 312.0 -152.0 297.0 -133.0 282.0 -115.0 264.0 -102.0 245.0 -89.0 224.0 -82.0 202.0 -75.0 182.0 -75.0 175.0 -75.0 169.0 -76.0 163.0 -77.0 157.0 -77.0 151.0 -78.0 146.0 -79.0 140.0 -80.0 133.0 -80.0 130.0 -80.0 129.0 -72.0 128.0 -64.0 127.0 -52.0 126.0 -40.0 126.0 -27.0 126.0 -14.0 126.0 -4.0 L126.0 3.0 Q126.0 39.0 127.0 74.0 128.0 110.0 130.0 146.0 131.0 181.0 132.0 217.0 133.0 252.0 133.0 287.0 133.0 291.0 134.0 295.0 136.0 298.0 137.0 302.0 139.0 305.0 140.0 309.0 141.0 312.0 141.0 316.0 141.0 322.0 134.0 327.0 127.0 333.0 118.0 337.0 108.0 341.0 99.0 344.0 89.0 346.0 84.0 346.0 77.0 346.0 70.0 345.0 63.0 345.0 57.0 343.0 50.0 341.0 44.0 338.0 39.0 334.0 34.0 328.0 34.0 297.0 33.0 264.0 32.0 232.0 31.0 199.0 29.0 167.0 28.0 134.0 27.0 101.0 27.0 69.0 27.0 56.0 27.0 43.0 28.0 30.0 29.0 18.0 29.0 5.0 30.0 -8.0 30.0 -20.0 30.0 -33.0 30.0 -41.0 31.0 -57.0 31.0 -74.0 32.0 -90.0 33.0 -107.0 33.0 -120.0 34.0 -133.0 35.0 -136.0 35.0 -142.0 36.0 -149.0 38.0 -155.0 39.0 -160.0 41.0 -165.0 42.0 -169.0 43.0 -173.0 43.0 -175.0 42.0 -176.0 40.0 -184.0 39.0 -191.0 38.0 -201.0 36.0 -212.0 36.0 -224.0 35.0 -235.0 35.0 -245.0 33.0 -250.0 30.0 -253.0 28.0 -257.0 25.0 -260.0 23.0 -264.0 22.0 -268.0 20.0 -273.0 20.0 -280.0 20.0 -285.0 20.0 -288.0 20.0 -292.0 21.0 -295.0 22.0 -298.0 24.0 -301.0 26.0 -304.0 30.0 -308.0 47.0 -328.0 61.0 -342.0 75.0 -355.0 89.0 -363.0 103.0 -371.0 119.0 -374.0 134.0 -377.0 153.0 -377.0 151.0 -377.0 160.0 -378.0 169.0 -379.0 182.0 -379.0 194.0 -380.0 206.0 -381.0 217.0 -382.0 220.0 -382.0 222.0 -382.0 227.0 -382.0 232.0 -381.0 238.0 -381.0 244.0 -380.0 250.0 -379.0 255.0 -379.0 258.0 -378.0 274.0 -376.0 288.0 -364.0 302.0 -351.0 313.0 -335.0 323.0 -318.0 330.0 -300.0 336.0 -281.0 336.0 -266.0" fill-rule="evenodd" stroke="none"/>
    </g>
    <g id="font_Apple_Casual_t0">
      <path d="M148.0 -10.0 Q148.0 -24.0 147.0 -37.0 147.0 -50.0 147.0 -61.0 146.0 -72.0 146.0 -83.0 146.0 -93.0 146.0 -103.0 146.0 -119.0 146.0 -134.0 146.0 -149.0 147.0 -164.0 147.0 -179.0 147.0 -196.0 147.0 -212.0 147.0 -230.0 147.0 -240.0 147.0 -268.0 146.0 -295.0 146.0 -326.0 145.0 -357.0 144.0 -384.0 144.0 -410.0 144.0 -418.0 L140.0 -422.0 Q138.0 -422.0 134.0 -422.0 130.0 -421.0 125.0 -421.0 120.0 -421.0 113.0 -420.0 107.0 -420.0 99.0 -420.0 85.0 -420.0 69.0 -421.0 54.0 -423.0 41.0 -427.0 27.0 -432.0 19.0 -440.0 10.0 -448.0 10.0 -462.0 10.0 -476.0 20.0 -484.0 30.0 -492.0 45.0 -496.0 60.0 -501.0 78.0 -502.0 96.0 -503.0 112.0 -503.0 L142.0 -503.0 147.0 -508.0 Q147.0 -509.0 147.0 -518.0 148.0 -526.0 149.0 -538.0 149.0 -550.0 150.0 -561.0 150.0 -573.0 150.0 -580.0 150.0 -590.0 149.0 -599.0 149.0 -609.0 148.0 -618.0 147.0 -628.0 146.0 -637.0 145.0 -646.0 145.0 -655.0 153.0 -664.0 158.0 -671.0 163.0 -678.0 169.0 -682.0 174.0 -687.0 181.0 -689.0 188.0 -691.0 198.0 -691.0 209.0 -691.0 219.0 -689.0 229.0 -686.0 236.0 -681.0 244.0 -675.0 248.0 -667.0 253.0 -658.0 253.0 -645.0 253.0 -643.0 253.0 -635.0 252.0 -627.0 252.0 -616.0 251.0 -606.0 250.0 -596.0 250.0 -586.0 250.0 -581.0 250.0 -574.0 250.0 -565.0 251.0 -555.0 252.0 -544.0 252.0 -534.0 253.0 -523.0 254.0 -512.0 254.0 -503.0 L322.0 -503.0 Q325.0 -503.0 329.0 -501.0 333.0 -498.0 337.0 -495.0 340.0 -492.0 343.0 -488.0 347.0 -485.0 348.0 -482.0 345.0 -476.0 341.0 -470.0 337.0 -463.0 332.0 -457.0 327.0 -452.0 321.0 -448.0 316.0 -443.0 309.0 -442.0 300.0 -440.0 290.0 -439.0 280.0 -437.0 271.0 -435.0 263.0 -433.0 257.0 -429.0 251.0 -425.0 250.0 -418.0 249.0 -387.0 249.0 -350.0 248.0 -313.0 247.0 -276.0 247.0 -240.0 246.0 -208.0 246.0 -175.0 246.0 -153.0 246.0 -145.0 246.0 -137.0 246.0 -128.0 246.0 -119.0 246.0 -110.0 246.0 -101.0 247.0 -91.0 247.0 -80.0 247.0 -65.0 248.0 -57.0 249.0 -49.0 250.0 -44.0 252.0 -39.0 253.0 -36.0 255.0 -32.0 258.0 -25.0 258.0 -13.0 252.0 -5.0 247.0 3.0 238.0 7.0 230.0 12.0 220.0 13.0 210.0 15.0 202.0 15.0 196.0 15.0 188.0 13.0 180.0 12.0 173.0 9.0 165.0 5.0 159.0 1.0 152.0 -4.0 148.0 -10.0" fill-rule="evenodd" stroke="none"/>
    </g>
    <g id="font_Apple_Casual_i0">
      <path d="M20.0 -490.0 Q20.0 -493.0 23.0 -496.0 25.0 -499.0 29.0 -501.0 32.0 -503.0 35.0 -505.0 38.0 -507.0 38.0 -507.0 41.0 -508.0 46.0 -511.0 51.0 -513.0 56.0 -515.0 60.0 -517.0 64.0 -519.0 67.0 -520.0 67.0 -520.0 L132.0 -520.0 Q135.0 -520.0 138.0 -517.0 141.0 -514.0 142.0 -510.0 144.0 -507.0 145.0 -502.0 146.0 -498.0 146.0 -495.0 146.0 -489.0 144.0 -484.0 142.0 -478.0 139.0 -473.0 135.0 -468.0 131.0 -464.0 127.0 -460.0 123.0 -457.0 122.0 -456.0 118.0 -456.0 115.0 -455.0 111.0 -455.0 107.0 -455.0 104.0 -455.0 100.0 -455.0 99.0 -455.0 88.0 -455.0 77.0 -457.0 66.0 -459.0 56.0 -462.0 46.0 -466.0 37.0 -472.0 28.0 -478.0 20.0 -487.0 L20.0 -490.0 M27.0 -322.0 Q26.0 -323.0 25.0 -324.0 24.0 -326.0 23.0 -327.0 22.0 -328.0 22.0 -330.0 22.0 -331.0 22.0 -332.0 L22.0 -335.0 Q27.0 -345.0 32.0 -352.0 38.0 -359.0 46.0 -364.0 53.0 -368.0 63.0 -371.0 72.0 -373.0 83.0 -373.0 94.0 -373.0 103.0 -372.0 111.0 -371.0 119.0 -367.0 126.0 -364.0 133.0 -359.0 139.0 -353.0 146.0 -344.0 L146.0 -342.0 Q146.0 -325.0 145.0 -301.0 143.0 -277.0 142.0 -252.0 140.0 -226.0 138.0 -202.0 137.0 -178.0 137.0 -161.0 137.0 -142.0 138.0 -123.0 139.0 -104.0 140.0 -85.0 141.0 -66.0 142.0 -47.0 143.0 -28.0 143.0 -9.0 143.0 -8.0 143.0 -7.0 143.0 -6.0 143.0 -5.0 142.0 -4.0 142.0 -3.0 142.0 -2.0 142.0 -2.0 142.0 -1.0 140.0 1.0 138.0 3.0 136.0 5.0 134.0 8.0 132.0 9.0 130.0 11.0 129.0 12.0 127.0 12.0 123.0 13.0 118.0 13.0 114.0 13.0 109.0 13.0 104.0 13.0 100.0 13.0 98.0 13.0 L91.0 13.0 Q84.0 13.0 76.0 13.0 67.0 12.0 59.0 11.0 51.0 9.0 45.0 5.0 39.0 1.0 36.0 -6.0 33.0 -15.0 32.0 -22.0 31.0 -30.0 31.0 -37.0 31.0 -44.0 31.0 -52.0 31.0 -59.0 31.0 -68.0 31.0 -69.0 30.0 -77.0 30.0 -84.0 29.0 -93.0 28.0 -102.0 27.0 -109.0 26.0 -116.0 26.0 -118.0 26.0 -127.0 26.0 -156.0 26.0 -186.0 27.0 -220.0 27.0 -253.0 27.0 -283.0 27.0 -313.0 27.0 -322.0" fill-rule="evenodd" stroke="none"/>
    </g>
    <g id="font_Apple_Casual_o0">
      <path d="M128.0 -209.0 Q128.0 -203.0 132.0 -180.0 136.0 -157.0 143.0 -131.0 149.0 -106.0 157.0 -85.0 166.0 -65.0 175.0 -65.0 184.0 -65.0 191.0 -79.0 198.0 -93.0 202.0 -112.0 207.0 -131.0 209.0 -150.0 211.0 -169.0 211.0 -179.0 211.0 -191.0 210.0 -210.0 209.0 -228.0 204.0 -245.0 199.0 -262.0 189.0 -274.0 179.0 -286.0 161.0 -286.0 150.0 -286.0 144.0 -277.0 137.0 -268.0 134.0 -255.0 130.0 -242.0 129.0 -229.0 128.0 -216.0 128.0 -209.0 M18.0 -204.0 Q18.0 -213.0 20.0 -221.0 22.0 -230.0 24.0 -238.0 26.0 -247.0 28.0 -256.0 30.0 -265.0 30.0 -275.0 30.0 -276.0 30.0 -277.0 30.0 -278.0 30.0 -279.0 29.0 -280.0 29.0 -280.0 29.0 -281.0 29.0 -282.0 29.0 -300.0 44.0 -314.0 60.0 -329.0 81.0 -339.0 103.0 -349.0 127.0 -355.0 151.0 -360.0 168.0 -360.0 209.0 -360.0 238.0 -346.0 266.0 -332.0 284.0 -308.0 302.0 -284.0 310.0 -252.0 318.0 -221.0 318.0 -185.0 318.0 -170.0 316.0 -158.0 314.0 -145.0 311.0 -133.0 307.0 -120.0 303.0 -107.0 299.0 -94.0 295.0 -78.0 286.0 -44.0 268.0 -26.0 251.0 -8.0 232.0 0.0 213.0 9.0 194.0 10.0 175.0 11.0 163.0 11.0 130.0 11.0 109.0 4.0 89.0 -3.0 75.0 -19.0 62.0 -35.0 54.0 -59.0 45.0 -84.0 37.0 -120.0 34.0 -130.0 31.0 -140.0 28.0 -151.0 25.0 -161.0 22.0 -172.0 20.0 -182.0 18.0 -193.0 18.0 -204.0" fill-rule="evenodd" stroke="none"/>
    </g>
    <g id="font_Apple_Casual_n0">
      <path d="M271.0 -11.0 Q271.0 -12.0 272.0 -21.0 273.0 -29.0 275.0 -46.0 276.0 -63.0 277.0 -89.0 278.0 -116.0 278.0 -153.0 278.0 -155.0 277.0 -161.0 276.0 -167.0 275.0 -174.0 273.0 -181.0 272.0 -187.0 271.0 -193.0 271.0 -195.0 271.0 -202.0 271.0 -211.0 271.0 -219.0 270.0 -228.0 269.0 -237.0 266.0 -245.0 263.0 -253.0 256.0 -258.0 210.0 -248.0 188.0 -232.0 166.0 -217.0 157.0 -192.0 148.0 -167.0 147.0 -132.0 146.0 -96.0 142.0 -47.0 142.0 -35.0 140.0 -26.0 137.0 -16.0 132.0 -9.0 127.0 -2.0 119.0 2.0 111.0 6.0 100.0 6.0 96.0 6.0 92.0 6.0 88.0 6.0 85.0 5.0 82.0 4.0 79.0 3.0 76.0 1.0 74.0 -1.0 65.0 -2.0 60.0 -3.0 54.0 -4.0 50.0 -5.0 45.0 -7.0 41.0 -10.0 37.0 -14.0 31.0 -22.0 31.0 -60.0 30.0 -98.0 29.0 -136.0 29.0 -173.0 28.0 -211.0 27.0 -249.0 26.0 -287.0 26.0 -325.0 26.0 -329.0 25.0 -333.0 24.0 -336.0 23.0 -339.0 22.0 -342.0 21.0 -344.0 20.0 -346.0 20.0 -347.0 20.0 -359.0 30.0 -366.0 39.0 -373.0 52.0 -377.0 65.0 -381.0 77.0 -383.0 90.0 -384.0 96.0 -384.0 L141.0 -362.0 141.0 -296.0 Q165.0 -309.0 174.0 -318.0 184.0 -326.0 196.0 -330.0 207.0 -334.0 229.0 -336.0 252.0 -337.0 301.0 -337.0 307.0 -337.0 315.0 -337.0 324.0 -337.0 332.0 -336.0 341.0 -336.0 348.0 -333.0 356.0 -331.0 361.0 -326.0 367.0 -317.0 372.0 -299.0 377.0 -281.0 380.0 -260.0 383.0 -239.0 385.0 -217.0 387.0 -196.0 388.0 -178.0 388.0 -175.0 388.0 -167.0 388.0 -158.0 388.0 -146.0 387.0 -134.0 387.0 -120.0 387.0 -107.0 387.0 -95.0 387.0 -78.0 388.0 -65.0 389.0 -52.0 390.0 -42.0 391.0 -32.0 392.0 -25.0 393.0 -17.0 393.0 -13.0 393.0 -12.0 393.0 -12.0 393.0 -11.0 393.0 -10.0 392.0 -9.0 392.0 -9.0 392.0 -8.0 392.0 -8.0 392.0 -6.0 392.0 -5.0 392.0 -3.0 393.0 -2.0 393.0 0.0 393.0 1.0 393.0 2.0 393.0 3.0 393.0 9.0 388.0 13.0 382.0 17.0 375.0 19.0 367.0 21.0 360.0 21.0 353.0 22.0 349.0 22.0 340.0 22.0 329.0 20.0 317.0 18.0 307.0 15.0 296.0 11.0 286.0 4.0 277.0 -2.0 271.0 -11.0" fill-rule="evenodd" stroke="none"/>
    </g>
    <g id="font_Apple_Casual_s0">
      <path d="M19.0 -47.0 Q21.0 -52.0 28.0 -56.0 35.0 -61.0 43.0 -64.0 52.0 -67.0 60.0 -68.0 68.0 -70.0 72.0 -70.0 80.0 -70.0 87.0 -69.0 94.0 -67.0 101.0 -66.0 108.0 -64.0 115.0 -63.0 122.0 -62.0 129.0 -62.0 138.0 -62.0 149.0 -66.0 159.0 -71.0 167.0 -78.0 176.0 -86.0 181.0 -96.0 187.0 -107.0 187.0 -119.0 187.0 -134.0 163.0 -144.0 138.0 -153.0 109.0 -167.0 80.0 -182.0 55.0 -208.0 31.0 -234.0 31.0 -282.0 31.0 -304.0 42.0 -322.0 52.0 -339.0 72.0 -351.0 91.0 -363.0 120.0 -370.0 148.0 -376.0 183.0 -376.0 L189.0 -376.0 Q201.0 -376.0 217.0 -376.0 234.0 -375.0 250.0 -371.0 265.0 -368.0 276.0 -360.0 287.0 -352.0 287.0 -337.0 287.0 -329.0 286.0 -321.0 284.0 -313.0 281.0 -306.0 277.0 -299.0 271.0 -295.0 265.0 -291.0 256.0 -291.0 243.0 -291.0 230.0 -292.0 216.0 -293.0 203.0 -295.0 190.0 -296.0 180.0 -298.0 169.0 -299.0 162.0 -299.0 158.0 -299.0 155.0 -298.0 152.0 -297.0 149.0 -295.0 147.0 -292.0 146.0 -288.0 145.0 -283.0 145.0 -276.0 145.0 -275.0 145.0 -274.0 145.0 -272.0 145.0 -271.0 145.0 -269.0 145.0 -268.0 146.0 -266.0 146.0 -264.0 148.0 -249.0 170.0 -240.0 193.0 -231.0 220.0 -218.0 247.0 -206.0 269.0 -184.0 291.0 -162.0 291.0 -121.0 291.0 -96.0 285.0 -79.0 279.0 -63.0 268.0 -51.0 257.0 -39.0 242.0 -30.0 227.0 -21.0 209.0 -12.0 209.0 -12.0 205.0 -11.0 201.0 -9.0 196.0 -7.0 191.0 -5.0 187.0 -2.0 182.0 0.0 181.0 3.0 177.0 3.0 172.0 3.0 168.0 3.0 164.0 4.0 160.0 4.0 155.0 4.0 151.0 4.0 146.0 4.0 138.0 4.0 130.0 3.0 122.0 3.0 114.0 3.0 107.0 3.0 100.0 2.0 93.0 2.0 87.0 1.0 81.0 0.0 70.0 -3.0 58.0 -7.0 47.0 -13.0 35.0 -19.0 27.0 -26.0 18.0 -34.0 18.0 -43.0 18.0 -43.0 18.0 -44.0 18.0 -44.0 18.0 -45.0 18.0 -45.0 18.0 -46.0 19.0 -46.0 19.0 -47.0" fill-rule="evenodd" stroke="none"/>
    </g>
  </defs>
</svg>
