<?xml version="1.0" encoding="UTF-8" standalone="no"?>
<svg xmlns:ffdec="https://www.free-decompiler.com/flash" xmlns:xlink="http://www.w3.org/1999/xlink" ffdec:objectType="text" height="14.75px" width="98.4px" xmlns="http://www.w3.org/2000/svg">
  <g transform="matrix(1.0, 0.0, 0.0, 1.0, -23.15, 0.5)">
    <g transform="matrix(1.0, 0.0, 0.0, 1.0, 22.7, 0.0)">
      <use fill="#ffffff" height="14.75" transform="matrix(0.0137, 0.0, 0.0, 0.0137, 0.0, 11.0)" width="98.4" xlink:href="#font_Apple_Casual_T0"/>
      <use fill="#ffffff" height="14.75" transform="matrix(0.0137, 0.0, 0.0, 0.0137, 6.75, 11.0)" width="98.4" xlink:href="#font_Apple_Casual_r0"/>
      <use fill="#ffffff" height="14.75" transform="matrix(0.0137, 0.0, 0.0, 0.0137, 11.1, 11.0)" width="98.4" xlink:href="#font_Apple_Casual_a0"/>
      <use fill="#ffffff" height="14.75" transform="matrix(0.0137, 0.0, 0.0, 0.0137, 16.1, 11.0)" width="98.4" xlink:href="#font_Apple_Casual_i0"/>
      <use fill="#ffffff" height="14.75" transform="matrix(0.0137, 0.0, 0.0, 0.0137, 18.4, 11.0)" width="98.4" xlink:href="#font_Apple_Casual_n0"/>
      <use fill="#ffffff" height="14.75" transform="matrix(0.0137, 0.0, 0.0, 0.0137, 27.3, 11.0)" width="98.4" xlink:href="#font_Apple_Casual_S0"/>
      <use fill="#ffffff" height="14.75" transform="matrix(0.0137, 0.0, 0.0, 0.0137, 32.1, 11.0)" width="98.4" xlink:href="#font_Apple_Casual_w0"/>
      <use fill="#ffffff" height="14.75" transform="matrix(0.0137, 0.0, 0.0, 0.0137, 39.3, 11.0)" width="98.4" xlink:href="#font_Apple_Casual_i0"/>
      <use fill="#ffffff" height="14.75" transform="matrix(0.0137, 0.0, 0.0, 0.0137, 41.6, 11.0)" width="98.4" xlink:href="#font_Apple_Casual_m0"/>
      <use fill="#ffffff" height="14.75" transform="matrix(0.0137, 0.0, 0.0, 0.0137, 49.55, 11.0)" width="98.4" xlink:href="#font_Apple_Casual_m0"/>
      <use fill="#ffffff" height="14.75" transform="matrix(0.0137, 0.0, 0.0, 0.0137, 57.5, 11.0)" width="98.4" xlink:href="#font_Apple_Casual_i0"/>
      <use fill="#ffffff" height="14.75" transform="matrix(0.0137, 0.0, 0.0, 0.0137, 59.8, 11.0)" width="98.4" xlink:href="#font_Apple_Casual_n0"/>
      <use fill="#ffffff" height="14.75" transform="matrix(0.0137, 0.0, 0.0, 0.0137, 65.45, 11.0)" width="98.4" xlink:href="#font_Apple_Casual_g0"/>
    </g>
  </g>
  <defs>
    <g id="font_Apple_Casual_T0">
      <path d="M209.0 -9.0 Q206.0 -13.0 201.0 -15.0 196.0 -17.0 191.0 -19.0 186.0 -21.0 182.0 -24.0 178.0 -28.0 178.0 -34.0 178.0 -39.0 176.0 -52.0 174.0 -65.0 173.0 -80.0 171.0 -94.0 169.0 -107.0 168.0 -120.0 168.0 -125.0 L168.0 -222.0 Q168.0 -242.0 169.0 -281.0 170.0 -321.0 171.0 -366.0 172.0 -411.0 173.0 -454.0 174.0 -497.0 174.0 -525.0 174.0 -527.0 173.0 -535.0 171.0 -543.0 169.0 -554.0 167.0 -565.0 164.0 -576.0 162.0 -588.0 160.0 -596.0 L156.0 -596.0 Q146.0 -596.0 123.0 -597.0 99.0 -597.0 74.0 -601.0 50.0 -606.0 31.0 -615.0 12.0 -625.0 12.0 -643.0 12.0 -646.0 13.0 -650.0 15.0 -654.0 18.0 -658.0 21.0 -662.0 26.0 -667.0 32.0 -671.0 39.0 -675.0 56.0 -676.0 87.0 -677.0 118.0 -678.0 155.0 -679.0 192.0 -680.0 229.0 -680.0 266.0 -681.0 295.0 -681.0 305.0 -681.0 314.0 -681.0 323.0 -681.0 329.0 -681.0 336.0 -681.0 341.0 -681.0 346.0 -680.0 348.0 -680.0 364.0 -681.0 379.0 -683.0 395.0 -685.0 408.0 -688.0 420.0 -690.0 430.0 -692.0 440.0 -694.0 444.0 -694.0 455.0 -694.0 462.0 -689.0 469.0 -685.0 474.0 -677.0 478.0 -670.0 480.0 -661.0 482.0 -652.0 482.0 -643.0 482.0 -623.0 456.0 -615.0 431.0 -607.0 398.0 -605.0 365.0 -602.0 333.0 -602.0 301.0 -602.0 288.0 -598.0 286.0 -592.0 284.0 -584.0 283.0 -577.0 282.0 -569.0 282.0 -561.0 281.0 -554.0 281.0 -546.0 281.0 -540.0 L281.0 -522.0 Q281.0 -483.0 281.0 -443.0 280.0 -403.0 280.0 -363.0 280.0 -323.0 279.0 -284.0 279.0 -246.0 279.0 -210.0 279.0 -193.0 279.0 -175.0 279.0 -157.0 280.0 -140.0 281.0 -122.0 284.0 -104.0 286.0 -87.0 290.0 -70.0 290.0 -69.0 291.0 -66.0 293.0 -62.0 295.0 -57.0 296.0 -53.0 298.0 -49.0 299.0 -45.0 299.0 -44.0 L300.0 -42.0 Q300.0 -37.0 297.0 -30.0 294.0 -24.0 289.0 -18.0 283.0 -12.0 277.0 -8.0 271.0 -4.0 265.0 -4.0 258.0 -4.0 251.0 -4.0 244.0 -5.0 237.0 -5.0 230.0 -6.0 223.0 -7.0 216.0 -8.0 209.0 -9.0" fill-rule="evenodd" stroke="none"/>
    </g>
    <g id="font_Apple_Casual_r0">
      <path d="M24.0 -47.0 Q21.0 -89.0 21.0 -129.0 22.0 -168.0 24.0 -207.0 25.0 -247.0 25.0 -286.0 25.0 -326.0 20.0 -368.0 24.0 -375.0 29.0 -378.0 34.0 -381.0 40.0 -383.0 46.0 -384.0 53.0 -385.0 60.0 -385.0 67.0 -387.0 67.0 -387.0 71.0 -388.0 74.0 -389.0 79.0 -390.0 83.0 -391.0 87.0 -392.0 91.0 -393.0 92.0 -393.0 L96.0 -393.0 Q102.0 -393.0 107.0 -391.0 112.0 -388.0 116.0 -383.0 120.0 -379.0 122.0 -373.0 125.0 -368.0 125.0 -362.0 125.0 -354.0 125.0 -353.0 125.0 -351.0 125.0 -351.0 125.0 -350.0 125.0 -348.0 125.0 -347.0 125.0 -338.0 127.0 -338.0 132.0 -338.0 136.0 -337.0 142.0 -337.0 147.0 -337.0 151.0 -338.0 156.0 -338.0 158.0 -339.0 172.0 -340.0 184.0 -343.0 196.0 -346.0 208.0 -348.0 220.0 -351.0 232.0 -353.0 244.0 -355.0 257.0 -356.0 L284.0 -356.0 Q288.0 -355.0 292.0 -353.0 296.0 -351.0 299.0 -348.0 302.0 -345.0 304.0 -341.0 307.0 -337.0 307.0 -333.0 307.0 -332.0 307.0 -331.0 307.0 -330.0 307.0 -329.0 307.0 -328.0 307.0 -327.0 307.0 -326.0 307.0 -326.0 306.0 -324.0 302.0 -319.0 299.0 -314.0 294.0 -309.0 290.0 -304.0 285.0 -299.0 281.0 -295.0 279.0 -294.0 278.0 -293.0 273.0 -292.0 269.0 -291.0 264.0 -290.0 259.0 -289.0 254.0 -289.0 250.0 -288.0 248.0 -288.0 248.0 -288.0 244.0 -287.0 241.0 -286.0 237.0 -285.0 233.0 -284.0 229.0 -283.0 225.0 -282.0 224.0 -282.0 222.0 -282.0 214.0 -280.0 207.0 -279.0 198.0 -278.0 189.0 -277.0 182.0 -276.0 174.0 -275.0 172.0 -275.0 150.0 -277.0 142.0 -245.0 135.0 -214.0 135.0 -174.0 134.0 -133.0 138.0 -97.0 142.0 -60.0 142.0 -52.0 142.0 -46.0 143.0 -38.0 143.0 -30.0 142.0 -22.0 141.0 -15.0 138.0 -8.0 134.0 -1.0 128.0 2.0 127.0 2.0 124.0 3.0 122.0 3.0 119.0 3.0 116.0 3.0 114.0 3.0 112.0 3.0 111.0 3.0 103.0 3.0 96.0 3.0 90.0 2.0 83.0 1.0 76.0 -1.0 70.0 -3.0 63.0 -5.0 55.0 -8.0 55.0 -8.0 54.0 -8.0 54.0 -8.0 54.0 -8.0 54.0 -9.0 54.0 -9.0 53.0 -9.0 53.0 -9.0 45.0 -11.0 40.0 -14.0 35.0 -17.0 31.0 -22.0 28.0 -26.0 26.0 -32.0 25.0 -38.0 24.0 -47.0" fill-rule="evenodd" stroke="none"/>
    </g>
    <g id="font_Apple_Casual_a0">
      <path d="M131.0 -108.0 Q132.0 -106.0 133.0 -105.0 134.0 -103.0 136.0 -103.0 137.0 -102.0 138.0 -102.0 140.0 -102.0 141.0 -102.0 150.0 -102.0 160.0 -108.0 170.0 -114.0 178.0 -130.0 186.0 -145.0 191.0 -172.0 196.0 -198.0 196.0 -238.0 196.0 -249.0 195.0 -256.0 193.0 -263.0 190.0 -268.0 186.0 -272.0 180.0 -274.0 174.0 -276.0 164.0 -276.0 152.0 -276.0 146.0 -259.0 139.0 -241.0 136.0 -219.0 133.0 -196.0 132.0 -174.0 131.0 -152.0 131.0 -143.0 L131.0 -108.0 M244.0 -72.0 Q235.0 -54.0 227.0 -40.0 219.0 -27.0 208.0 -18.0 196.0 -9.0 180.0 -4.0 165.0 0.0 141.0 0.0 124.0 0.0 106.0 -3.0 87.0 -5.0 70.0 -13.0 54.0 -21.0 41.0 -36.0 28.0 -50.0 22.0 -74.0 20.0 -86.0 18.0 -130.0 17.0 -175.0 26.0 -224.0 34.0 -272.0 58.0 -311.0 81.0 -350.0 129.0 -350.0 138.0 -350.0 147.0 -349.0 156.0 -348.0 165.0 -347.0 173.0 -347.0 182.0 -346.0 191.0 -345.0 200.0 -345.0 202.0 -345.0 209.0 -352.0 216.0 -360.0 226.0 -367.0 237.0 -374.0 250.0 -376.0 264.0 -379.0 280.0 -369.0 289.0 -370.0 296.0 -358.0 303.0 -347.0 309.0 -328.0 314.0 -310.0 316.0 -287.0 319.0 -265.0 319.0 -243.0 319.0 -228.0 319.0 -219.0 318.0 -209.0 318.0 -202.0 318.0 -195.0 317.0 -190.0 317.0 -184.0 317.0 -178.0 317.0 -148.0 321.0 -126.0 325.0 -103.0 331.0 -87.0 336.0 -70.0 340.0 -58.0 344.0 -47.0 344.0 -38.0 344.0 -32.0 341.0 -27.0 339.0 -22.0 333.0 -18.0 326.0 -13.0 316.0 -9.0 305.0 -4.0 289.0 0.0 285.0 0.0 277.0 -4.0 270.0 -8.0 262.0 -16.0 255.0 -25.0 249.0 -38.0 244.0 -52.0 244.0 -72.0" fill-rule="evenodd" stroke="none"/>
    </g>
    <g id="font_Apple_Casual_i0">
      <path d="M20.0 -490.0 Q20.0 -493.0 23.0 -496.0 25.0 -499.0 29.0 -501.0 32.0 -503.0 35.0 -505.0 38.0 -507.0 38.0 -507.0 41.0 -508.0 46.0 -511.0 51.0 -513.0 56.0 -515.0 60.0 -517.0 64.0 -519.0 67.0 -520.0 67.0 -520.0 L132.0 -520.0 Q135.0 -520.0 138.0 -517.0 141.0 -514.0 142.0 -510.0 144.0 -507.0 145.0 -502.0 146.0 -498.0 146.0 -495.0 146.0 -489.0 144.0 -484.0 142.0 -478.0 139.0 -473.0 135.0 -468.0 131.0 -464.0 127.0 -460.0 123.0 -457.0 122.0 -456.0 118.0 -456.0 115.0 -455.0 111.0 -455.0 107.0 -455.0 104.0 -455.0 100.0 -455.0 99.0 -455.0 88.0 -455.0 77.0 -457.0 66.0 -459.0 56.0 -462.0 46.0 -466.0 37.0 -472.0 28.0 -478.0 20.0 -487.0 L20.0 -490.0 M27.0 -322.0 Q26.0 -323.0 25.0 -324.0 24.0 -326.0 23.0 -327.0 22.0 -328.0 22.0 -330.0 22.0 -331.0 22.0 -332.0 L22.0 -335.0 Q27.0 -345.0 32.0 -352.0 38.0 -359.0 46.0 -364.0 53.0 -368.0 63.0 -371.0 72.0 -373.0 83.0 -373.0 94.0 -373.0 103.0 -372.0 111.0 -371.0 119.0 -367.0 126.0 -364.0 133.0 -359.0 139.0 -353.0 146.0 -344.0 L146.0 -342.0 Q146.0 -325.0 145.0 -301.0 143.0 -277.0 142.0 -252.0 140.0 -226.0 138.0 -202.0 137.0 -178.0 137.0 -161.0 137.0 -142.0 138.0 -123.0 139.0 -104.0 140.0 -85.0 141.0 -66.0 142.0 -47.0 143.0 -28.0 143.0 -9.0 143.0 -8.0 143.0 -7.0 143.0 -6.0 143.0 -5.0 142.0 -4.0 142.0 -3.0 142.0 -2.0 142.0 -2.0 142.0 -1.0 140.0 1.0 138.0 3.0 136.0 5.0 134.0 8.0 132.0 9.0 130.0 11.0 129.0 12.0 127.0 12.0 123.0 13.0 118.0 13.0 114.0 13.0 109.0 13.0 104.0 13.0 100.0 13.0 98.0 13.0 L91.0 13.0 Q84.0 13.0 76.0 13.0 67.0 12.0 59.0 11.0 51.0 9.0 45.0 5.0 39.0 1.0 36.0 -6.0 33.0 -15.0 32.0 -22.0 31.0 -30.0 31.0 -37.0 31.0 -44.0 31.0 -52.0 31.0 -59.0 31.0 -68.0 31.0 -69.0 30.0 -77.0 30.0 -84.0 29.0 -93.0 28.0 -102.0 27.0 -109.0 26.0 -116.0 26.0 -118.0 26.0 -127.0 26.0 -156.0 26.0 -186.0 27.0 -220.0 27.0 -253.0 27.0 -283.0 27.0 -313.0 27.0 -322.0" fill-rule="evenodd" stroke="none"/>
    </g>
    <g id="font_Apple_Casual_n0">
      <path d="M271.0 -11.0 Q271.0 -12.0 272.0 -21.0 273.0 -29.0 275.0 -46.0 276.0 -63.0 277.0 -89.0 278.0 -116.0 278.0 -153.0 278.0 -155.0 277.0 -161.0 276.0 -167.0 275.0 -174.0 273.0 -181.0 272.0 -187.0 271.0 -193.0 271.0 -195.0 271.0 -202.0 271.0 -211.0 271.0 -219.0 270.0 -228.0 269.0 -237.0 266.0 -245.0 263.0 -253.0 256.0 -258.0 210.0 -248.0 188.0 -232.0 166.0 -217.0 157.0 -192.0 148.0 -167.0 147.0 -132.0 146.0 -96.0 142.0 -47.0 142.0 -35.0 140.0 -26.0 137.0 -16.0 132.0 -9.0 127.0 -2.0 119.0 2.0 111.0 6.0 100.0 6.0 96.0 6.0 92.0 6.0 88.0 6.0 85.0 5.0 82.0 4.0 79.0 3.0 76.0 1.0 74.0 -1.0 65.0 -2.0 60.0 -3.0 54.0 -4.0 50.0 -5.0 45.0 -7.0 41.0 -10.0 37.0 -14.0 31.0 -22.0 31.0 -60.0 30.0 -98.0 29.0 -136.0 29.0 -173.0 28.0 -211.0 27.0 -249.0 26.0 -287.0 26.0 -325.0 26.0 -329.0 25.0 -333.0 24.0 -336.0 23.0 -339.0 22.0 -342.0 21.0 -344.0 20.0 -346.0 20.0 -347.0 20.0 -359.0 30.0 -366.0 39.0 -373.0 52.0 -377.0 65.0 -381.0 77.0 -383.0 90.0 -384.0 96.0 -384.0 L141.0 -362.0 141.0 -296.0 Q165.0 -309.0 174.0 -318.0 184.0 -326.0 196.0 -330.0 207.0 -334.0 229.0 -336.0 252.0 -337.0 301.0 -337.0 307.0 -337.0 315.0 -337.0 324.0 -337.0 332.0 -336.0 341.0 -336.0 348.0 -333.0 356.0 -331.0 361.0 -326.0 367.0 -317.0 372.0 -299.0 377.0 -281.0 380.0 -260.0 383.0 -239.0 385.0 -217.0 387.0 -196.0 388.0 -178.0 388.0 -175.0 388.0 -167.0 388.0 -158.0 388.0 -146.0 387.0 -134.0 387.0 -120.0 387.0 -107.0 387.0 -95.0 387.0 -78.0 388.0 -65.0 389.0 -52.0 390.0 -42.0 391.0 -32.0 392.0 -25.0 393.0 -17.0 393.0 -13.0 393.0 -12.0 393.0 -12.0 393.0 -11.0 393.0 -10.0 392.0 -9.0 392.0 -9.0 392.0 -8.0 392.0 -8.0 392.0 -6.0 392.0 -5.0 392.0 -3.0 393.0 -2.0 393.0 0.0 393.0 1.0 393.0 2.0 393.0 3.0 393.0 9.0 388.0 13.0 382.0 17.0 375.0 19.0 367.0 21.0 360.0 21.0 353.0 22.0 349.0 22.0 340.0 22.0 329.0 20.0 317.0 18.0 307.0 15.0 296.0 11.0 286.0 4.0 277.0 -2.0 271.0 -11.0" fill-rule="evenodd" stroke="none"/>
    </g>
    <g id="font_Apple_Casual_S0">
      <path d="M62.0 -227.0 Q100.0 -228.0 108.0 -207.0 116.0 -187.0 118.0 -162.0 119.0 -137.0 124.0 -117.0 130.0 -96.0 164.0 -96.0 178.0 -96.0 190.0 -99.0 203.0 -102.0 213.0 -109.0 222.0 -116.0 228.0 -128.0 234.0 -139.0 234.0 -157.0 234.0 -158.0 234.0 -159.0 234.0 -161.0 234.0 -162.0 233.0 -164.0 233.0 -165.0 233.0 -166.0 233.0 -168.0 225.0 -211.0 214.0 -235.0 202.0 -259.0 185.0 -279.0 168.0 -299.0 143.0 -325.0 119.0 -350.0 84.0 -397.0 66.0 -422.0 53.0 -442.0 41.0 -462.0 33.0 -479.0 24.0 -496.0 21.0 -511.0 17.0 -527.0 17.0 -542.0 17.0 -574.0 25.0 -601.0 32.0 -628.0 49.0 -648.0 65.0 -667.0 90.0 -678.0 116.0 -689.0 152.0 -689.0 176.0 -689.0 203.0 -687.0 229.0 -685.0 253.0 -675.0 277.0 -665.0 297.0 -643.0 316.0 -622.0 327.0 -582.0 L327.0 -573.0 Q327.0 -560.0 323.0 -547.0 319.0 -533.0 311.0 -522.0 304.0 -512.0 293.0 -505.0 283.0 -498.0 271.0 -498.0 264.0 -498.0 259.0 -500.0 254.0 -503.0 250.0 -507.0 247.0 -511.0 244.0 -517.0 242.0 -523.0 241.0 -529.0 L240.0 -534.0 240.0 -553.0 Q239.0 -568.0 235.0 -578.0 231.0 -588.0 224.0 -594.0 218.0 -600.0 209.0 -603.0 201.0 -606.0 190.0 -606.0 165.0 -606.0 151.0 -599.0 136.0 -592.0 129.0 -580.0 122.0 -569.0 121.0 -555.0 119.0 -540.0 119.0 -525.0 119.0 -502.0 145.0 -467.0 171.0 -432.0 202.0 -396.0 234.0 -360.0 261.0 -329.0 288.0 -298.0 290.0 -285.0 302.0 -271.0 310.0 -255.0 319.0 -238.0 324.0 -221.0 330.0 -204.0 332.0 -186.0 335.0 -169.0 335.0 -152.0 335.0 -120.0 327.0 -93.0 320.0 -65.0 303.0 -46.0 287.0 -26.0 262.0 -15.0 236.0 -4.0 201.0 -4.0 170.0 -4.0 139.0 -11.0 108.0 -17.0 83.0 -32.0 58.0 -48.0 43.0 -72.0 27.0 -97.0 28.0 -133.0 28.0 -136.0 28.0 -139.0 28.0 -143.0 29.0 -146.0 29.0 -150.0 30.0 -153.0 30.0 -157.0 31.0 -160.0 L32.0 -178.0 34.0 -189.0 Q36.0 -201.0 38.0 -208.0 40.0 -215.0 42.0 -220.0 45.0 -224.0 50.0 -225.0 54.0 -227.0 62.0 -227.0" fill-rule="evenodd" stroke="none"/>
    </g>
    <g id="font_Apple_Casual_w0">
      <path d="M45.0 -236.0 Q41.0 -242.0 39.0 -247.0 37.0 -252.0 35.0 -256.0 34.0 -261.0 33.0 -264.0 33.0 -268.0 33.0 -271.0 33.0 -273.0 33.0 -275.0 33.0 -276.0 34.0 -278.0 34.0 -279.0 34.0 -280.0 34.0 -281.0 34.0 -282.0 33.0 -287.0 30.0 -297.0 27.0 -307.0 24.0 -318.0 21.0 -328.0 19.0 -338.0 17.0 -348.0 17.0 -354.0 17.0 -362.0 26.0 -368.0 36.0 -373.0 48.0 -376.0 61.0 -379.0 73.0 -380.0 85.0 -382.0 91.0 -382.0 92.0 -382.0 93.0 -381.0 94.0 -381.0 95.0 -381.0 97.0 -381.0 98.0 -381.0 100.0 -381.0 101.0 -381.0 103.0 -381.0 104.0 -381.0 105.0 -381.0 107.0 -381.0 108.0 -381.0 109.0 -381.0 110.0 -382.0 111.0 -382.0 119.0 -379.0 125.0 -353.0 131.0 -328.0 136.0 -298.0 141.0 -268.0 145.0 -242.0 148.0 -217.0 151.0 -214.0 L151.0 -213.0 Q151.0 -211.0 151.0 -207.0 152.0 -203.0 153.0 -199.0 154.0 -194.0 156.0 -190.0 157.0 -186.0 160.0 -184.0 171.0 -194.0 175.0 -210.0 179.0 -227.0 186.0 -243.0 193.0 -259.0 207.0 -271.0 222.0 -283.0 254.0 -283.0 271.0 -283.0 281.0 -277.0 291.0 -271.0 299.0 -260.0 306.0 -249.0 313.0 -234.0 319.0 -220.0 329.0 -203.0 330.0 -198.0 331.0 -192.0 332.0 -185.0 334.0 -179.0 335.0 -172.0 339.0 -167.0 342.0 -161.0 348.0 -157.0 355.0 -166.0 361.0 -200.0 367.0 -234.0 375.0 -272.0 382.0 -310.0 391.0 -341.0 400.0 -371.0 412.0 -373.0 419.0 -377.0 430.0 -379.0 441.0 -381.0 453.0 -382.0 464.0 -383.0 473.0 -383.0 483.0 -383.0 487.0 -383.0 495.0 -383.0 499.0 -381.0 504.0 -379.0 507.0 -375.0 509.0 -370.0 510.0 -364.0 511.0 -357.0 511.0 -347.0 L511.0 -338.0 Q501.0 -326.0 494.0 -303.0 486.0 -280.0 480.0 -255.0 474.0 -230.0 469.0 -206.0 465.0 -182.0 461.0 -167.0 455.0 -161.0 452.0 -154.0 450.0 -147.0 449.0 -139.0 448.0 -132.0 448.0 -125.0 447.0 -117.0 444.0 -109.0 440.0 -97.0 435.0 -84.0 430.0 -72.0 425.0 -59.0 419.0 -46.0 413.0 -34.0 406.0 -22.0 400.0 -11.0 399.0 -11.0 395.0 -10.0 392.0 -10.0 389.0 -10.0 385.0 -10.0 382.0 -10.0 379.0 -10.0 378.0 -10.0 367.0 -10.0 358.0 -11.0 349.0 -12.0 340.0 -14.0 331.0 -15.0 322.0 -16.0 313.0 -18.0 301.0 -18.0 295.0 -22.0 287.0 -37.0 279.0 -52.0 271.0 -68.0 263.0 -84.0 256.0 -97.0 249.0 -110.0 244.0 -110.0 244.0 -105.0 241.0 -100.0 239.0 -96.0 237.0 -91.0 234.0 -86.0 232.0 -81.0 230.0 -76.0 230.0 -70.0 230.0 -64.0 226.0 -53.0 222.0 -42.0 216.0 -31.0 211.0 -20.0 205.0 -12.0 199.0 -4.0 196.0 -4.0 184.0 -4.0 172.0 -5.0 161.0 -7.0 149.0 -9.0 137.0 -11.0 126.0 -15.0 114.0 -18.0 102.0 -23.0 95.0 -24.0 88.0 -33.0 82.0 -41.0 78.0 -52.0 73.0 -62.0 70.0 -74.0 67.0 -85.0 66.0 -93.0 L45.0 -236.0" fill-rule="evenodd" stroke="none"/>
    </g>
    <g id="font_Apple_Casual_m0">
      <path d="M438.0 -22.0 Q438.0 -23.0 439.0 -30.0 440.0 -36.0 441.0 -51.0 442.0 -66.0 443.0 -90.0 444.0 -115.0 444.0 -152.0 444.0 -154.0 443.0 -160.0 442.0 -166.0 441.0 -173.0 440.0 -180.0 439.0 -186.0 438.0 -192.0 438.0 -194.0 438.0 -202.0 438.0 -213.0 438.0 -225.0 436.0 -235.0 434.0 -245.0 427.0 -252.0 420.0 -259.0 406.0 -259.0 398.0 -259.0 390.0 -257.0 383.0 -256.0 377.0 -253.0 370.0 -251.0 365.0 -248.0 359.0 -245.0 354.0 -242.0 355.0 -233.0 356.0 -225.0 357.0 -217.0 357.0 -208.0 358.0 -200.0 359.0 -193.0 360.0 -185.0 360.0 -178.0 360.0 -175.0 360.0 -167.0 360.0 -158.0 360.0 -146.0 359.0 -134.0 359.0 -120.0 359.0 -107.0 359.0 -95.0 359.0 -78.0 360.0 -68.0 361.0 -57.0 363.0 -51.0 364.0 -44.0 365.0 -39.0 366.0 -35.0 366.0 -31.0 366.0 -30.0 366.0 -30.0 366.0 -29.0 366.0 -28.0 365.0 -27.0 365.0 -27.0 365.0 -26.0 365.0 -26.0 365.0 -24.0 365.0 -23.0 365.0 -21.0 366.0 -19.0 366.0 -18.0 366.0 -16.0 366.0 -15.0 366.0 -14.0 366.0 -8.0 361.0 -4.0 355.0 0.0 348.0 1.0 340.0 3.0 333.0 4.0 326.0 4.0 322.0 4.0 312.0 4.0 301.0 2.0 290.0 1.0 279.0 -3.0 268.0 -7.0 259.0 -13.0 250.0 -20.0 244.0 -29.0 244.0 -30.0 245.0 -36.0 246.0 -41.0 247.0 -55.0 248.0 -69.0 249.0 -92.0 250.0 -116.0 250.0 -153.0 250.0 -155.0 249.0 -161.0 248.0 -167.0 247.0 -174.0 246.0 -181.0 245.0 -187.0 244.0 -193.0 244.0 -195.0 244.0 -202.0 244.0 -211.0 244.0 -219.0 243.0 -228.0 242.0 -237.0 238.0 -245.0 235.0 -253.0 228.0 -258.0 200.0 -257.0 182.0 -249.0 165.0 -240.0 156.0 -224.0 146.0 -208.0 143.0 -186.0 140.0 -164.0 140.0 -137.0 140.0 -127.0 140.0 -117.0 141.0 -106.0 141.0 -95.0 141.0 -83.0 142.0 -71.0 142.0 -59.0 142.0 -47.0 142.0 -35.0 140.0 -26.0 137.0 -16.0 132.0 -9.0 127.0 -2.0 119.0 2.0 111.0 6.0 100.0 6.0 96.0 6.0 92.0 6.0 88.0 6.0 85.0 5.0 82.0 4.0 79.0 3.0 76.0 1.0 74.0 -1.0 65.0 -2.0 60.0 -3.0 54.0 -4.0 50.0 -5.0 45.0 -7.0 41.0 -10.0 37.0 -14.0 31.0 -22.0 31.0 -60.0 30.0 -98.0 29.0 -136.0 29.0 -173.0 28.0 -211.0 27.0 -249.0 26.0 -287.0 26.0 -325.0 26.0 -329.0 25.0 -333.0 24.0 -336.0 23.0 -339.0 22.0 -342.0 21.0 -344.0 20.0 -346.0 20.0 -347.0 20.0 -359.0 30.0 -366.0 39.0 -373.0 52.0 -377.0 65.0 -381.0 77.0 -383.0 90.0 -384.0 96.0 -384.0 109.0 -382.0 117.0 -377.0 126.0 -371.0 131.0 -362.0 137.0 -352.0 139.0 -340.0 141.0 -327.0 141.0 -311.0 L141.0 -296.0 Q150.0 -310.0 164.0 -320.0 178.0 -330.0 194.0 -337.0 210.0 -343.0 227.0 -346.0 244.0 -349.0 260.0 -349.0 260.0 -349.0 270.0 -348.0 279.0 -346.0 291.0 -342.0 303.0 -337.0 315.0 -329.0 326.0 -321.0 332.0 -307.0 348.0 -324.0 363.0 -333.0 379.0 -342.0 394.0 -346.0 409.0 -351.0 424.0 -351.0 439.0 -352.0 455.0 -352.0 468.0 -352.0 480.0 -350.0 492.0 -349.0 502.0 -345.0 512.0 -342.0 519.0 -337.0 525.0 -332.0 528.0 -325.0 534.0 -316.0 539.0 -298.0 544.0 -280.0 547.0 -259.0 550.0 -238.0 552.0 -216.0 554.0 -195.0 555.0 -177.0 555.0 -174.0 555.0 -166.0 555.0 -157.0 555.0 -145.0 554.0 -133.0 554.0 -119.0 554.0 -106.0 554.0 -94.0 554.0 -77.0 555.0 -66.0 556.0 -55.0 557.0 -47.0 558.0 -39.0 559.0 -33.0 560.0 -28.0 560.0 -24.0 560.0 -23.0 560.0 -22.0 560.0 -21.0 560.0 -21.0 559.0 -20.0 559.0 -19.0 559.0 -18.0 559.0 -18.0 559.0 -16.0 559.0 -15.0 559.0 -13.0 560.0 -12.0 560.0 -10.0 560.0 -9.0 560.0 -8.0 560.0 -7.0 560.0 -1.0 555.0 3.0 549.0 7.0 542.0 8.0 534.0 10.0 527.0 11.0 520.0 11.0 516.0 11.0 506.0 11.0 495.0 9.0 484.0 8.0 473.0 4.0 463.0 0.0 453.0 -6.0 444.0 -13.0 438.0 -22.0" fill-rule="evenodd" stroke="none"/>
    </g>
    <g id="font_Apple_Casual_g0">
      <path d="M131.0 -198.0 Q133.0 -189.0 136.0 -183.0 138.0 -177.0 140.0 -173.0 143.0 -170.0 146.0 -168.0 149.0 -167.0 152.0 -167.0 156.0 -167.0 159.0 -173.0 163.0 -180.0 165.0 -190.0 167.0 -201.0 169.0 -214.0 170.0 -227.0 170.0 -240.0 170.0 -250.0 169.0 -260.0 168.0 -269.0 166.0 -277.0 164.0 -284.0 161.0 -289.0 158.0 -293.0 154.0 -293.0 151.0 -293.0 147.0 -290.0 142.0 -287.0 139.0 -281.0 135.0 -275.0 132.0 -267.0 129.0 -259.0 129.0 -250.0 129.0 -241.0 129.0 -233.0 129.0 -225.0 130.0 -218.0 130.0 -211.0 130.0 -205.0 131.0 -200.0 131.0 -198.0 M186.0 106.0 L184.0 74.0 181.0 26.0 178.0 -14.0 Q178.0 -18.0 177.0 -22.0 177.0 -25.0 177.0 -28.0 177.0 -30.0 177.0 -32.0 177.0 -34.0 177.0 -34.0 177.0 -41.0 177.0 -43.0 178.0 -44.0 178.0 -45.0 178.0 -46.0 179.0 -51.0 179.0 -55.0 179.0 -69.0 179.0 -72.0 179.0 -74.0 179.0 -77.0 179.0 -79.0 179.0 -81.0 178.0 -83.0 178.0 -85.0 177.0 -87.0 165.0 -87.0 142.0 -88.0 119.0 -90.0 96.0 -95.0 73.0 -100.0 55.0 -111.0 37.0 -121.0 34.0 -138.0 34.0 -140.0 33.0 -148.0 32.0 -157.0 31.0 -166.0 31.0 -176.0 30.0 -184.0 29.0 -193.0 28.0 -196.0 28.0 -198.0 27.0 -200.0 26.0 -203.0 24.0 -205.0 23.0 -208.0 21.0 -210.0 20.0 -212.0 20.0 -213.0 20.0 -216.0 20.0 -228.0 20.0 -239.0 19.0 -252.0 19.0 -265.0 18.0 -276.0 18.0 -287.0 17.0 -289.0 17.0 -313.0 37.0 -330.0 58.0 -347.0 85.0 -357.0 111.0 -367.0 137.0 -372.0 163.0 -376.0 174.0 -376.0 177.0 -376.0 179.0 -376.0 181.0 -376.0 183.0 -375.0 185.0 -374.0 186.0 -373.0 188.0 -372.0 190.0 -371.0 208.0 -362.0 225.0 -362.0 242.0 -362.0 256.0 -360.0 269.0 -358.0 278.0 -348.0 286.0 -338.0 286.0 -310.0 286.0 -305.0 285.0 -301.0 285.0 -297.0 284.0 -293.0 283.0 -288.0 283.0 -284.0 282.0 -279.0 282.0 -274.0 282.0 -273.0 283.0 -270.0 283.0 -266.0 284.0 -262.0 284.0 -259.0 285.0 -255.0 285.0 -252.0 285.0 -251.0 285.0 -249.0 284.0 -244.0 283.0 -238.0 282.0 -232.0 281.0 -226.0 280.0 -220.0 278.0 -214.0 278.0 -213.0 278.0 -207.0 278.0 -200.0 279.0 -194.0 280.0 -187.0 280.0 -181.0 281.0 -174.0 281.0 -168.0 281.0 -162.0 281.0 -148.0 281.0 -135.0 280.0 -121.0 280.0 -107.0 280.0 -94.0 280.0 -80.0 280.0 -66.0 280.0 -52.0 L282.0 57.0 Q281.0 96.0 275.0 126.0 269.0 157.0 257.0 178.0 245.0 199.0 225.0 210.0 205.0 221.0 175.0 221.0 151.0 218.0 134.0 212.0 117.0 206.0 103.0 197.0 89.0 187.0 78.0 173.0 66.0 159.0 54.0 140.0 L46.0 121.0 Q44.0 117.0 45.0 115.0 45.0 114.0 46.0 113.0 47.0 112.0 49.0 110.0 50.0 109.0 50.0 104.0 50.0 97.0 54.0 92.0 57.0 88.0 63.0 86.0 68.0 84.0 73.0 83.0 79.0 83.0 82.0 82.0 83.0 82.0 84.0 82.0 85.0 82.0 86.0 82.0 87.0 81.0 88.0 81.0 89.0 81.0 90.0 81.0 108.0 78.0 116.0 87.0 123.0 97.0 128.0 110.0 132.0 122.0 137.0 134.0 143.0 145.0 156.0 145.0 162.0 145.0 168.0 143.0 173.0 140.0 177.0 136.0 181.0 131.0 184.0 123.0 186.0 116.0 186.0 106.0" fill-rule="evenodd" stroke="none"/>
    </g>
  </defs>
</svg>
