<?xml version="1.0" encoding="UTF-8" standalone="no"?>
<svg xmlns:ffdec="https://www.free-decompiler.com/flash" xmlns:xlink="http://www.w3.org/1999/xlink" ffdec:objectType="text" height="12.55px" width="70.55px" xmlns="http://www.w3.org/2000/svg">
  <g transform="matrix(1.0, 0.0, 0.0, 1.0, -24.8, 0.85)">
    <g transform="matrix(1.0, 0.0, 0.0, 1.0, 24.35, 0.0)">
      <use fill="#ffffff" height="12.55" transform="matrix(0.0127, 0.0, 0.0, 0.0127, 0.0, 10.0)" width="70.55" xlink:href="#font_Apple_Casual_C0"/>
      <use fill="#ffffff" height="12.55" transform="matrix(0.0127, 0.0, 0.0, 0.0127, 4.75, 10.0)" width="70.55" xlink:href="#font_Apple_Casual_l0"/>
      <use fill="#ffffff" height="12.55" transform="matrix(0.0127, 0.0, 0.0, 0.0127, 7.4, 10.0)" width="70.55" xlink:href="#font_Apple_Casual_i0"/>
      <use fill="#ffffff" height="12.55" transform="matrix(0.0127, 0.0, 0.0, 0.0127, 9.5, 10.0)" width="70.55" xlink:href="#font_Apple_Casual_m0"/>
      <use fill="#ffffff" height="12.55" transform="matrix(0.0127, 0.0, 0.0, 0.0127, 16.9, 10.0)" width="70.55" xlink:href="#font_Apple_Casual_b0"/>
      <use fill="#ffffff" height="12.55" transform="matrix(0.0127, 0.0, 0.0, 0.0127, 21.55, 10.0)" width="70.55" xlink:href="#font_Apple_Casual_:0"/>
      <use fill="#ffffff" height="12.55" transform="matrix(0.0127, 0.0, 0.0, 0.0127, 26.55, 10.0)" width="70.55" xlink:href="#font_Apple_Casual_L0"/>
      <use fill="#ffffff" height="12.55" transform="matrix(0.0127, 0.0, 0.0, 0.0127, 31.6, 10.0)" width="70.55" xlink:href="#font_Apple_Casual_e0"/>
      <use fill="#ffffff" height="12.55" transform="matrix(0.0127, 0.0, 0.0, 0.0127, 36.05, 10.0)" width="70.55" xlink:href="#font_Apple_Casual_v0"/>
      <use fill="#ffffff" height="12.55" transform="matrix(0.0127, 0.0, 0.0, 0.0127, 40.8, 10.0)" width="70.55" xlink:href="#font_Apple_Casual_e0"/>
      <use fill="#ffffff" height="12.55" transform="matrix(0.0127, 0.0, 0.0, 0.0127, 45.25, 10.0)" width="70.55" xlink:href="#font_Apple_Casual_l0"/>
    </g>
  </g>
  <defs>
    <g id="font_Apple_Casual_C0">
      <path d="M212.0 -114.0 Q215.0 -114.0 217.0 -113.0 219.0 -112.0 221.0 -112.0 223.0 -111.0 224.0 -110.0 226.0 -110.0 228.0 -110.0 243.0 -110.0 251.0 -122.0 260.0 -134.0 268.0 -149.0 275.0 -164.0 285.0 -176.0 295.0 -188.0 311.0 -188.0 316.0 -188.0 323.0 -187.0 331.0 -186.0 338.0 -183.0 345.0 -180.0 351.0 -174.0 356.0 -168.0 356.0 -157.0 356.0 -154.0 356.0 -150.0 355.0 -147.0 355.0 -144.0 355.0 -141.0 354.0 -138.0 354.0 -135.0 354.0 -132.0 L351.0 -114.0 Q351.0 -87.0 342.0 -68.0 334.0 -49.0 318.0 -36.0 303.0 -23.0 281.0 -16.0 260.0 -9.0 234.0 -6.0 179.0 -7.0 139.0 -38.0 98.0 -69.0 71.0 -115.0 44.0 -161.0 30.0 -215.0 17.0 -269.0 17.0 -316.0 17.0 -363.0 23.0 -427.0 30.0 -491.0 52.0 -548.0 75.0 -606.0 119.0 -646.0 163.0 -686.0 239.0 -686.0 257.0 -686.0 275.0 -683.0 293.0 -680.0 309.0 -673.0 325.0 -665.0 338.0 -652.0 351.0 -638.0 358.0 -617.0 L358.0 -609.0 Q358.0 -595.0 353.0 -582.0 349.0 -569.0 340.0 -558.0 332.0 -547.0 320.0 -541.0 309.0 -534.0 295.0 -534.0 287.0 -534.0 281.0 -536.0 275.0 -539.0 271.0 -543.0 267.0 -547.0 265.0 -553.0 262.0 -559.0 261.0 -565.0 L260.0 -569.0 Q260.0 -572.0 260.0 -575.0 260.0 -578.0 260.0 -580.0 259.0 -583.0 259.0 -586.0 259.0 -588.0 259.0 -591.0 259.0 -592.0 259.0 -594.0 259.0 -595.0 260.0 -596.0 260.0 -598.0 260.0 -599.0 260.0 -600.0 260.0 -602.0 258.0 -605.0 256.0 -606.0 253.0 -608.0 251.0 -609.0 248.0 -610.0 245.0 -611.0 242.0 -611.0 239.0 -611.0 L230.0 -611.0 Q192.0 -600.0 169.0 -563.0 146.0 -526.0 133.0 -477.0 121.0 -429.0 117.0 -378.0 113.0 -327.0 113.0 -289.0 113.0 -262.0 119.0 -233.0 125.0 -204.0 137.0 -178.0 150.0 -153.0 168.0 -135.0 187.0 -117.0 212.0 -114.0" fill-rule="evenodd" stroke="none"/>
    </g>
    <g id="font_Apple_Casual_l0">
      <path d="M71.0 -46.0 Q67.0 -74.0 66.0 -102.0 64.0 -130.0 63.0 -158.0 62.0 -185.0 62.0 -213.0 62.0 -240.0 62.0 -267.0 61.0 -323.0 59.0 -378.0 58.0 -434.0 55.0 -489.0 52.0 -544.0 48.0 -599.0 43.0 -655.0 36.0 -712.0 L22.0 -741.0 Q21.0 -750.0 32.0 -756.0 43.0 -761.0 58.0 -764.0 73.0 -767.0 89.0 -767.0 104.0 -768.0 110.0 -768.0 117.0 -768.0 122.0 -766.0 128.0 -765.0 132.0 -761.0 136.0 -757.0 139.0 -752.0 142.0 -746.0 143.0 -739.0 149.0 -697.0 153.0 -654.0 158.0 -612.0 161.0 -569.0 164.0 -526.0 165.0 -484.0 167.0 -441.0 167.0 -399.0 167.0 -360.0 167.0 -320.0 166.0 -280.0 167.0 -240.0 167.0 -201.0 170.0 -161.0 172.0 -121.0 177.0 -81.0 178.0 -75.0 179.0 -69.0 181.0 -62.0 183.0 -56.0 185.0 -51.0 186.0 -47.0 188.0 -42.0 188.0 -41.0 189.0 -32.0 187.0 -24.0 185.0 -16.0 180.0 -11.0 176.0 -6.0 169.0 -3.0 162.0 0.0 153.0 0.0 142.0 0.0 128.0 -4.0 115.0 -9.0 102.0 -15.0 90.0 -21.0 81.0 -28.0 73.0 -34.0 72.0 -39.0 72.0 -40.0 72.0 -41.0 72.0 -41.0 72.0 -42.0 71.0 -43.0 71.0 -44.0 71.0 -45.0 71.0 -46.0" fill-rule="evenodd" stroke="none"/>
    </g>
    <g id="font_Apple_Casual_i0">
      <path d="M20.0 -490.0 Q20.0 -493.0 23.0 -496.0 25.0 -499.0 29.0 -501.0 32.0 -503.0 35.0 -505.0 38.0 -507.0 38.0 -507.0 41.0 -508.0 46.0 -511.0 51.0 -513.0 56.0 -515.0 60.0 -517.0 64.0 -519.0 67.0 -520.0 67.0 -520.0 L132.0 -520.0 Q135.0 -520.0 138.0 -517.0 141.0 -514.0 142.0 -510.0 144.0 -507.0 145.0 -502.0 146.0 -498.0 146.0 -495.0 146.0 -489.0 144.0 -484.0 142.0 -478.0 139.0 -473.0 135.0 -468.0 131.0 -464.0 127.0 -460.0 123.0 -457.0 122.0 -456.0 118.0 -456.0 115.0 -455.0 111.0 -455.0 107.0 -455.0 104.0 -455.0 100.0 -455.0 99.0 -455.0 88.0 -455.0 77.0 -457.0 66.0 -459.0 56.0 -462.0 46.0 -466.0 37.0 -472.0 28.0 -478.0 20.0 -487.0 L20.0 -490.0 M27.0 -322.0 Q26.0 -323.0 25.0 -324.0 24.0 -326.0 23.0 -327.0 22.0 -328.0 22.0 -330.0 22.0 -331.0 22.0 -332.0 L22.0 -335.0 Q27.0 -345.0 32.0 -352.0 38.0 -359.0 46.0 -364.0 53.0 -368.0 63.0 -371.0 72.0 -373.0 83.0 -373.0 94.0 -373.0 103.0 -372.0 111.0 -371.0 119.0 -367.0 126.0 -364.0 133.0 -359.0 139.0 -353.0 146.0 -344.0 L146.0 -342.0 Q146.0 -325.0 145.0 -301.0 143.0 -277.0 142.0 -252.0 140.0 -226.0 138.0 -202.0 137.0 -178.0 137.0 -161.0 137.0 -142.0 138.0 -123.0 139.0 -104.0 140.0 -85.0 141.0 -66.0 142.0 -47.0 143.0 -28.0 143.0 -9.0 143.0 -8.0 143.0 -7.0 143.0 -6.0 143.0 -5.0 142.0 -4.0 142.0 -3.0 142.0 -2.0 142.0 -2.0 142.0 -1.0 140.0 1.0 138.0 3.0 136.0 5.0 134.0 8.0 132.0 9.0 130.0 11.0 129.0 12.0 127.0 12.0 123.0 13.0 118.0 13.0 114.0 13.0 109.0 13.0 104.0 13.0 100.0 13.0 98.0 13.0 L91.0 13.0 Q84.0 13.0 76.0 13.0 67.0 12.0 59.0 11.0 51.0 9.0 45.0 5.0 39.0 1.0 36.0 -6.0 33.0 -15.0 32.0 -22.0 31.0 -30.0 31.0 -37.0 31.0 -44.0 31.0 -52.0 31.0 -59.0 31.0 -68.0 31.0 -69.0 30.0 -77.0 30.0 -84.0 29.0 -93.0 28.0 -102.0 27.0 -109.0 26.0 -116.0 26.0 -118.0 26.0 -127.0 26.0 -156.0 26.0 -186.0 27.0 -220.0 27.0 -253.0 27.0 -283.0 27.0 -313.0 27.0 -322.0" fill-rule="evenodd" stroke="none"/>
    </g>
    <g id="font_Apple_Casual_m0">
      <path d="M438.0 -22.0 Q438.0 -23.0 439.0 -30.0 440.0 -36.0 441.0 -51.0 442.0 -66.0 443.0 -90.0 444.0 -115.0 444.0 -152.0 444.0 -154.0 443.0 -160.0 442.0 -166.0 441.0 -173.0 440.0 -180.0 439.0 -186.0 438.0 -192.0 438.0 -194.0 438.0 -202.0 438.0 -213.0 438.0 -225.0 436.0 -235.0 434.0 -245.0 427.0 -252.0 420.0 -259.0 406.0 -259.0 398.0 -259.0 390.0 -257.0 383.0 -256.0 377.0 -253.0 370.0 -251.0 365.0 -248.0 359.0 -245.0 354.0 -242.0 355.0 -233.0 356.0 -225.0 357.0 -217.0 357.0 -208.0 358.0 -200.0 359.0 -193.0 360.0 -185.0 360.0 -178.0 360.0 -175.0 360.0 -167.0 360.0 -158.0 360.0 -146.0 359.0 -134.0 359.0 -120.0 359.0 -107.0 359.0 -95.0 359.0 -78.0 360.0 -68.0 361.0 -57.0 363.0 -51.0 364.0 -44.0 365.0 -39.0 366.0 -35.0 366.0 -31.0 366.0 -30.0 366.0 -30.0 366.0 -29.0 366.0 -28.0 365.0 -27.0 365.0 -27.0 365.0 -26.0 365.0 -26.0 365.0 -24.0 365.0 -23.0 365.0 -21.0 366.0 -19.0 366.0 -18.0 366.0 -16.0 366.0 -15.0 366.0 -14.0 366.0 -8.0 361.0 -4.0 355.0 0.0 348.0 1.0 340.0 3.0 333.0 4.0 326.0 4.0 322.0 4.0 312.0 4.0 301.0 2.0 290.0 1.0 279.0 -3.0 268.0 -7.0 259.0 -13.0 250.0 -20.0 244.0 -29.0 244.0 -30.0 245.0 -36.0 246.0 -41.0 247.0 -55.0 248.0 -69.0 249.0 -92.0 250.0 -116.0 250.0 -153.0 250.0 -155.0 249.0 -161.0 248.0 -167.0 247.0 -174.0 246.0 -181.0 245.0 -187.0 244.0 -193.0 244.0 -195.0 244.0 -202.0 244.0 -211.0 244.0 -219.0 243.0 -228.0 242.0 -237.0 238.0 -245.0 235.0 -253.0 228.0 -258.0 200.0 -257.0 182.0 -249.0 165.0 -240.0 156.0 -224.0 146.0 -208.0 143.0 -186.0 140.0 -164.0 140.0 -137.0 140.0 -127.0 140.0 -117.0 141.0 -106.0 141.0 -95.0 141.0 -83.0 142.0 -71.0 142.0 -59.0 142.0 -47.0 142.0 -35.0 140.0 -26.0 137.0 -16.0 132.0 -9.0 127.0 -2.0 119.0 2.0 111.0 6.0 100.0 6.0 96.0 6.0 92.0 6.0 88.0 6.0 85.0 5.0 82.0 4.0 79.0 3.0 76.0 1.0 74.0 -1.0 65.0 -2.0 60.0 -3.0 54.0 -4.0 50.0 -5.0 45.0 -7.0 41.0 -10.0 37.0 -14.0 31.0 -22.0 31.0 -60.0 30.0 -98.0 29.0 -136.0 29.0 -173.0 28.0 -211.0 27.0 -249.0 26.0 -287.0 26.0 -325.0 26.0 -329.0 25.0 -333.0 24.0 -336.0 23.0 -339.0 22.0 -342.0 21.0 -344.0 20.0 -346.0 20.0 -347.0 20.0 -359.0 30.0 -366.0 39.0 -373.0 52.0 -377.0 65.0 -381.0 77.0 -383.0 90.0 -384.0 96.0 -384.0 109.0 -382.0 117.0 -377.0 126.0 -371.0 131.0 -362.0 137.0 -352.0 139.0 -340.0 141.0 -327.0 141.0 -311.0 L141.0 -296.0 Q150.0 -310.0 164.0 -320.0 178.0 -330.0 194.0 -337.0 210.0 -343.0 227.0 -346.0 244.0 -349.0 260.0 -349.0 260.0 -349.0 270.0 -348.0 279.0 -346.0 291.0 -342.0 303.0 -337.0 315.0 -329.0 326.0 -321.0 332.0 -307.0 348.0 -324.0 363.0 -333.0 379.0 -342.0 394.0 -346.0 409.0 -351.0 424.0 -351.0 439.0 -352.0 455.0 -352.0 468.0 -352.0 480.0 -350.0 492.0 -349.0 502.0 -345.0 512.0 -342.0 519.0 -337.0 525.0 -332.0 528.0 -325.0 534.0 -316.0 539.0 -298.0 544.0 -280.0 547.0 -259.0 550.0 -238.0 552.0 -216.0 554.0 -195.0 555.0 -177.0 555.0 -174.0 555.0 -166.0 555.0 -157.0 555.0 -145.0 554.0 -133.0 554.0 -119.0 554.0 -106.0 554.0 -94.0 554.0 -77.0 555.0 -66.0 556.0 -55.0 557.0 -47.0 558.0 -39.0 559.0 -33.0 560.0 -28.0 560.0 -24.0 560.0 -23.0 560.0 -22.0 560.0 -21.0 560.0 -21.0 559.0 -20.0 559.0 -19.0 559.0 -18.0 559.0 -18.0 559.0 -16.0 559.0 -15.0 559.0 -13.0 560.0 -12.0 560.0 -10.0 560.0 -9.0 560.0 -8.0 560.0 -7.0 560.0 -1.0 555.0 3.0 549.0 7.0 542.0 8.0 534.0 10.0 527.0 11.0 520.0 11.0 516.0 11.0 506.0 11.0 495.0 9.0 484.0 8.0 473.0 4.0 463.0 0.0 453.0 -6.0 444.0 -13.0 438.0 -22.0" fill-rule="evenodd" stroke="none"/>
    </g>
    <g id="font_Apple_Casual_b0">
      <path d="M207.0 -285.0 Q190.0 -285.0 179.0 -277.0 168.0 -269.0 162.0 -254.0 155.0 -239.0 153.0 -218.0 150.0 -197.0 150.0 -171.0 150.0 -167.0 150.0 -163.0 150.0 -158.0 150.0 -154.0 150.0 -149.0 151.0 -145.0 151.0 -140.0 152.0 -136.0 152.0 -136.0 153.0 -135.0 153.0 -135.0 153.0 -135.0 154.0 -135.0 154.0 -135.0 154.0 -134.0 154.0 -134.0 156.0 -122.0 161.0 -114.0 166.0 -106.0 172.0 -102.0 179.0 -97.0 187.0 -96.0 196.0 -94.0 205.0 -94.0 216.0 -94.0 223.0 -100.0 229.0 -105.0 233.0 -116.0 237.0 -127.0 238.0 -143.0 239.0 -158.0 239.0 -179.0 L239.0 -198.0 Q239.0 -203.0 238.0 -217.0 236.0 -232.0 233.0 -247.0 229.0 -262.0 223.0 -273.0 217.0 -285.0 207.0 -285.0 M37.0 -28.0 L26.0 -50.0 Q26.0 -50.0 26.0 -51.0 26.0 -51.0 27.0 -52.0 27.0 -52.0 27.0 -53.0 27.0 -53.0 27.0 -53.0 29.0 -81.0 31.0 -109.0 32.0 -137.0 33.0 -164.0 34.0 -192.0 34.0 -220.0 34.0 -248.0 34.0 -276.0 L34.0 -381.0 Q34.0 -393.0 34.0 -404.0 34.0 -415.0 34.0 -426.0 34.0 -438.0 34.0 -449.0 35.0 -460.0 35.0 -472.0 35.0 -476.0 34.0 -488.0 33.0 -499.0 33.0 -513.0 32.0 -526.0 31.0 -540.0 31.0 -554.0 31.0 -563.0 31.0 -575.0 31.0 -583.0 32.0 -592.0 33.0 -599.0 33.0 -606.0 34.0 -612.0 34.0 -619.0 34.0 -627.0 34.0 -631.0 33.0 -633.0 32.0 -636.0 31.0 -639.0 30.0 -642.0 29.0 -645.0 28.0 -648.0 28.0 -653.0 28.0 -654.0 28.0 -658.0 29.0 -663.0 30.0 -668.0 30.0 -673.0 31.0 -679.0 31.0 -684.0 31.0 -687.0 31.0 -687.0 29.0 -690.0 28.0 -692.0 26.0 -694.0 23.0 -697.0 22.0 -700.0 20.0 -703.0 20.0 -705.0 20.0 -708.0 30.0 -713.0 41.0 -718.0 53.0 -723.0 66.0 -728.0 77.0 -731.0 89.0 -735.0 91.0 -735.0 103.0 -735.0 113.0 -733.0 122.0 -731.0 128.0 -725.0 135.0 -719.0 138.0 -708.0 141.0 -698.0 141.0 -682.0 141.0 -670.0 140.0 -656.0 140.0 -643.0 139.0 -630.0 138.0 -616.0 138.0 -603.0 137.0 -590.0 137.0 -578.0 L137.0 -563.0 138.0 -538.0 131.0 -332.0 Q143.0 -338.0 153.0 -344.0 163.0 -350.0 173.0 -355.0 182.0 -361.0 193.0 -364.0 204.0 -367.0 217.0 -367.0 260.0 -367.0 285.0 -351.0 309.0 -334.0 323.0 -308.0 336.0 -281.0 341.0 -248.0 345.0 -214.0 348.0 -180.0 346.0 -120.0 332.0 -86.0 319.0 -52.0 299.0 -35.0 280.0 -19.0 257.0 -15.0 235.0 -11.0 215.0 -11.0 200.0 -11.0 188.0 -14.0 175.0 -17.0 165.0 -23.0 155.0 -29.0 147.0 -39.0 138.0 -48.0 130.0 -61.0 130.0 -56.0 126.0 -48.0 122.0 -39.0 117.0 -30.0 112.0 -21.0 107.0 -15.0 102.0 -8.0 99.0 -8.0 90.0 -8.0 82.0 -10.0 74.0 -12.0 67.0 -15.0 59.0 -18.0 51.0 -21.0 44.0 -25.0 37.0 -28.0" fill-rule="evenodd" stroke="none"/>
    </g>
    <g id="font_Apple_Casual_:0">
      <path d="M20.0 -42.0 Q20.0 -42.0 20.0 -42.0 21.0 -43.0 21.0 -44.0 21.0 -44.0 22.0 -45.0 22.0 -46.0 22.0 -46.0 30.0 -56.0 37.0 -63.0 45.0 -71.0 54.0 -76.0 63.0 -81.0 73.0 -83.0 84.0 -86.0 96.0 -86.0 106.0 -86.0 114.0 -84.0 121.0 -82.0 127.0 -77.0 132.0 -72.0 134.0 -65.0 137.0 -57.0 137.0 -47.0 137.0 -41.0 135.0 -35.0 134.0 -29.0 131.0 -24.0 128.0 -19.0 124.0 -14.0 120.0 -10.0 115.0 -6.0 114.0 -6.0 110.0 -6.0 107.0 -6.0 103.0 -5.0 99.0 -5.0 96.0 -5.0 93.0 -5.0 92.0 -5.0 82.0 -5.0 72.0 -7.0 62.0 -8.0 53.0 -12.0 43.0 -16.0 35.0 -22.0 28.0 -29.0 22.0 -38.0 22.0 -38.0 22.0 -38.0 21.0 -39.0 21.0 -40.0 21.0 -40.0 20.0 -41.0 20.0 -42.0 20.0 -42.0 M20.0 -302.0 Q20.0 -302.0 20.0 -302.0 21.0 -303.0 21.0 -304.0 21.0 -304.0 22.0 -305.0 22.0 -306.0 22.0 -306.0 30.0 -316.0 37.0 -323.0 45.0 -331.0 54.0 -336.0 63.0 -341.0 73.0 -343.0 84.0 -346.0 96.0 -346.0 106.0 -346.0 114.0 -344.0 121.0 -342.0 127.0 -337.0 132.0 -332.0 134.0 -325.0 137.0 -317.0 137.0 -307.0 137.0 -301.0 135.0 -295.0 134.0 -289.0 131.0 -284.0 128.0 -279.0 124.0 -274.0 120.0 -270.0 115.0 -266.0 114.0 -266.0 110.0 -266.0 107.0 -266.0 103.0 -265.0 99.0 -265.0 96.0 -265.0 93.0 -265.0 92.0 -265.0 82.0 -265.0 72.0 -267.0 62.0 -268.0 53.0 -272.0 43.0 -276.0 35.0 -282.0 28.0 -289.0 22.0 -298.0 22.0 -298.0 22.0 -298.0 21.0 -299.0 21.0 -300.0 21.0 -300.0 20.0 -301.0 20.0 -302.0 20.0 -302.0" fill-rule="evenodd" stroke="none"/>
    </g>
    <g id="font_Apple_Casual_L0">
      <path d="M20.0 -42.0 Q20.0 -46.0 20.0 -49.0 20.0 -52.0 21.0 -55.0 21.0 -58.0 23.0 -61.0 24.0 -64.0 26.0 -68.0 26.0 -74.0 25.0 -80.0 25.0 -86.0 25.0 -92.0 25.0 -98.0 25.0 -104.0 25.0 -110.0 25.0 -116.0 25.0 -147.0 26.0 -177.0 27.0 -207.0 29.0 -237.0 30.0 -267.0 32.0 -297.0 34.0 -327.0 36.0 -357.0 38.0 -379.0 41.0 -412.0 44.0 -445.0 47.0 -479.0 50.0 -514.0 53.0 -547.0 55.0 -579.0 55.0 -601.0 55.0 -607.0 54.0 -612.0 53.0 -617.0 52.0 -622.0 51.0 -628.0 50.0 -633.0 49.0 -638.0 49.0 -644.0 49.0 -654.0 59.0 -660.0 70.0 -667.0 83.0 -671.0 97.0 -675.0 111.0 -676.0 125.0 -678.0 132.0 -678.0 141.0 -678.0 149.0 -676.0 158.0 -674.0 165.0 -670.0 172.0 -666.0 177.0 -659.0 181.0 -651.0 181.0 -641.0 181.0 -640.0 180.0 -636.0 179.0 -632.0 179.0 -627.0 178.0 -623.0 177.0 -619.0 176.0 -615.0 176.0 -614.0 172.0 -590.0 170.0 -553.0 168.0 -517.0 166.0 -478.0 165.0 -440.0 163.0 -403.0 161.0 -367.0 157.0 -342.0 153.0 -318.0 150.0 -295.0 147.0 -271.0 144.0 -248.0 142.0 -224.0 141.0 -201.0 140.0 -177.0 140.0 -153.0 140.0 -137.0 139.0 -123.0 138.0 -109.0 142.0 -99.0 147.0 -89.0 161.0 -84.0 174.0 -78.0 204.0 -78.0 215.0 -78.0 228.0 -78.0 240.0 -79.0 253.0 -79.0 266.0 -80.0 278.0 -81.0 291.0 -81.0 303.0 -81.0 320.0 -81.0 334.0 -80.0 348.0 -78.0 359.0 -74.0 370.0 -71.0 376.0 -64.0 382.0 -57.0 382.0 -47.0 382.0 -47.0 381.0 -44.0 380.0 -42.0 380.0 -40.0 379.0 -37.0 378.0 -35.0 377.0 -32.0 377.0 -31.0 377.0 -31.0 378.0 -28.0 379.0 -25.0 380.0 -21.0 380.0 -17.0 381.0 -14.0 382.0 -11.0 382.0 -11.0 382.0 -8.0 376.0 -6.0 370.0 -4.0 362.0 -2.0 354.0 0.0 347.0 1.0 339.0 3.0 335.0 4.0 L94.0 4.0 Q83.0 4.0 70.0 2.0 57.0 0.0 46.0 -5.0 35.0 -11.0 27.0 -20.0 20.0 -28.0 20.0 -42.0" fill-rule="evenodd" stroke="none"/>
    </g>
    <g id="font_Apple_Casual_e0">
      <path d="M136.0 -252.0 Q136.0 -248.0 142.0 -246.0 147.0 -243.0 155.0 -242.0 162.0 -240.0 170.0 -240.0 178.0 -239.0 184.0 -239.0 L189.0 -239.0 Q189.0 -242.0 186.0 -251.0 183.0 -260.0 179.0 -269.0 174.0 -279.0 169.0 -286.0 165.0 -293.0 160.0 -293.0 158.0 -291.0 154.0 -286.0 150.0 -281.0 146.0 -274.0 142.0 -267.0 139.0 -261.0 136.0 -255.0 136.0 -252.0 M18.0 -176.0 L18.0 -184.0 Q18.0 -200.0 20.0 -216.0 23.0 -232.0 27.0 -248.0 32.0 -264.0 39.0 -281.0 45.0 -298.0 54.0 -318.0 56.0 -321.0 61.0 -323.0 65.0 -325.0 71.0 -326.0 76.0 -328.0 81.0 -330.0 87.0 -332.0 91.0 -335.0 93.0 -338.0 99.0 -338.0 104.0 -339.0 109.0 -339.0 115.0 -340.0 119.0 -341.0 123.0 -341.0 123.0 -344.0 135.0 -346.0 144.0 -348.0 154.0 -349.0 164.0 -350.0 173.0 -350.0 183.0 -351.0 192.0 -351.0 204.0 -351.0 227.0 -351.0 239.0 -347.0 252.0 -343.0 259.0 -335.0 267.0 -326.0 272.0 -313.0 277.0 -300.0 285.0 -281.0 287.0 -275.0 291.0 -266.0 294.0 -257.0 297.0 -248.0 300.0 -240.0 303.0 -234.0 305.0 -227.0 305.0 -227.0 305.0 -227.0 305.0 -227.0 306.0 -226.0 306.0 -225.0 306.0 -225.0 307.0 -224.0 307.0 -223.0 307.0 -223.0 307.0 -207.0 297.0 -199.0 286.0 -191.0 271.0 -187.0 257.0 -183.0 241.0 -183.0 225.0 -183.0 214.0 -183.0 L131.0 -183.0 Q132.0 -165.0 133.0 -148.0 134.0 -131.0 138.0 -114.0 141.0 -98.0 147.0 -81.0 154.0 -65.0 165.0 -50.0 166.0 -48.0 167.0 -46.0 168.0 -44.0 170.0 -42.0 171.0 -40.0 173.0 -38.0 174.0 -37.0 177.0 -37.0 187.0 -38.0 199.0 -50.0 211.0 -62.0 223.0 -76.0 234.0 -90.0 244.0 -101.0 253.0 -112.0 259.0 -112.0 L315.0 -113.0 Q318.0 -113.0 322.0 -111.0 326.0 -108.0 330.0 -105.0 334.0 -101.0 336.0 -97.0 339.0 -93.0 339.0 -90.0 339.0 -90.0 328.0 -71.0 317.0 -53.0 297.0 -31.0 277.0 -9.0 250.0 10.0 222.0 28.0 188.0 28.0 182.0 28.0 168.0 26.0 155.0 25.0 141.0 23.0 127.0 20.0 116.0 18.0 104.0 16.0 102.0 14.0 76.0 5.0 60.0 -18.0 44.0 -41.0 35.0 -69.0 26.0 -98.0 23.0 -126.0 20.0 -155.0 18.0 -176.0" fill-rule="evenodd" stroke="none"/>
    </g>
    <g id="font_Apple_Casual_v0">
      <path d="M172.0 -10.0 Q154.0 -28.0 135.0 -53.0 116.0 -77.0 100.0 -104.0 83.0 -131.0 71.0 -158.0 59.0 -185.0 54.0 -207.0 52.0 -213.0 50.0 -218.0 48.0 -224.0 46.0 -229.0 43.0 -235.0 41.0 -240.0 40.0 -246.0 38.0 -251.0 37.0 -252.0 33.0 -264.0 30.0 -277.0 26.0 -292.0 23.0 -307.0 20.0 -320.0 17.0 -334.0 17.0 -337.0 17.0 -350.0 26.0 -357.0 34.0 -365.0 48.0 -370.0 61.0 -374.0 76.0 -376.0 92.0 -378.0 106.0 -380.0 124.0 -380.0 130.0 -371.0 137.0 -361.0 139.0 -347.0 141.0 -332.0 141.0 -314.0 142.0 -296.0 148.0 -278.0 151.0 -265.0 156.0 -245.0 161.0 -226.0 166.0 -208.0 171.0 -190.0 176.0 -177.0 181.0 -164.0 184.0 -164.0 184.0 -164.0 185.0 -164.0 185.0 -164.0 185.0 -164.0 186.0 -164.0 186.0 -164.0 186.0 -165.0 186.0 -165.0 L234.0 -294.0 Q236.0 -310.0 237.0 -321.0 238.0 -331.0 242.0 -338.0 245.0 -346.0 252.0 -352.0 258.0 -358.0 270.0 -365.0 274.0 -368.0 277.0 -370.0 281.0 -371.0 285.0 -373.0 288.0 -374.0 294.0 -374.0 299.0 -375.0 308.0 -375.0 320.0 -375.0 327.0 -374.0 334.0 -374.0 339.0 -370.0 344.0 -367.0 348.0 -360.0 352.0 -353.0 358.0 -341.0 358.0 -330.0 356.0 -320.0 353.0 -311.0 349.0 -302.0 346.0 -293.0 342.0 -284.0 337.0 -276.0 334.0 -267.0 326.0 -241.0 315.0 -197.0 303.0 -153.0 288.0 -111.0 273.0 -69.0 255.0 -38.0 236.0 -7.0 212.0 -7.0 210.0 -7.0 207.0 -7.0 204.0 -7.0 200.0 -7.0 195.0 -7.0 188.0 -7.0 181.0 -8.0 172.0 -10.0" fill-rule="evenodd" stroke="none"/>
    </g>
  </defs>
</svg>
