<?xml version="1.0" encoding="UTF-8" standalone="no"?>
<svg xmlns:ffdec="https://www.free-decompiler.com/flash" xmlns:xlink="http://www.w3.org/1999/xlink" ffdec:objectType="text" height="12.4px" width="60.25px" xmlns="http://www.w3.org/2000/svg">
  <g transform="matrix(1.0, 0.0, 0.0, 1.0, -24.5, 0.7)">
    <g transform="matrix(1.0, 0.0, 0.0, 1.0, 24.35, 0.0)">
      <use fill="#ffffff" height="12.4" transform="matrix(0.0127, 0.0, 0.0, 0.0127, 0.0, 10.0)" width="60.25" xlink:href="#font_Apple_Casual_R0"/>
      <use fill="#ffffff" height="12.4" transform="matrix(0.0127, 0.0, 0.0, 0.0127, 6.0, 10.0)" width="60.25" xlink:href="#font_Apple_Casual_u0"/>
      <use fill="#ffffff" height="12.4" transform="matrix(0.0127, 0.0, 0.0, 0.0127, 11.45, 10.0)" width="60.25" xlink:href="#font_Apple_Casual_n0"/>
      <use fill="#ffffff" height="12.4" transform="matrix(0.0127, 0.0, 0.0, 0.0127, 16.7, 10.0)" width="60.25" xlink:href="#font_Apple_Casual_:0"/>
      <use fill="#ffffff" height="12.4" transform="matrix(0.0127, 0.0, 0.0, 0.0127, 21.7, 10.0)" width="60.25" xlink:href="#font_Apple_Casual_L0"/>
      <use fill="#ffffff" height="12.4" transform="matrix(0.0127, 0.0, 0.0, 0.0127, 26.75, 10.0)" width="60.25" xlink:href="#font_Apple_Casual_e0"/>
      <use fill="#ffffff" height="12.4" transform="matrix(0.0127, 0.0, 0.0, 0.0127, 31.2, 10.0)" width="60.25" xlink:href="#font_Apple_Casual_v0"/>
      <use fill="#ffffff" height="12.4" transform="matrix(0.0127, 0.0, 0.0, 0.0127, 35.95, 10.0)" width="60.25" xlink:href="#font_Apple_Casual_e0"/>
      <use fill="#ffffff" height="12.4" transform="matrix(0.0127, 0.0, 0.0, 0.0127, 40.4, 10.0)" width="60.25" xlink:href="#font_Apple_Casual_l0"/>
    </g>
  </g>
  <defs>
    <g id="font_Apple_Casual_R0">
      <path d="M148.0 -417.0 Q148.0 -415.0 148.0 -412.0 149.0 -409.0 149.0 -406.0 150.0 -403.0 150.0 -401.0 151.0 -398.0 151.0 -398.0 L160.0 -393.0 Q161.0 -393.0 167.0 -395.0 172.0 -396.0 180.0 -399.0 187.0 -401.0 195.0 -404.0 203.0 -407.0 207.0 -410.0 232.0 -421.0 249.0 -437.0 266.0 -452.0 277.0 -469.0 288.0 -486.0 295.0 -503.0 302.0 -520.0 306.0 -535.0 306.0 -549.0 304.0 -562.0 303.0 -575.0 298.0 -586.0 294.0 -598.0 286.0 -609.0 278.0 -619.0 266.0 -629.0 L265.0 -629.0 Q261.0 -629.0 246.0 -629.0 231.0 -628.0 213.0 -625.0 195.0 -622.0 178.0 -615.0 161.0 -607.0 153.0 -594.0 153.0 -572.0 152.0 -550.0 151.0 -527.0 151.0 -505.0 150.0 -483.0 149.0 -461.0 148.0 -439.0 148.0 -417.0 M324.0 -40.0 Q300.0 -88.0 278.0 -131.0 256.0 -175.0 236.0 -213.0 215.0 -251.0 196.0 -281.0 177.0 -312.0 157.0 -334.0 150.0 -334.0 146.0 -331.0 142.0 -329.0 141.0 -320.0 140.0 -311.0 140.0 -294.0 140.0 -277.0 140.0 -247.0 140.0 -247.0 141.0 -228.0 142.0 -209.0 144.0 -185.0 146.0 -161.0 148.0 -140.0 150.0 -118.0 151.0 -113.0 151.0 -102.0 154.0 -92.0 157.0 -82.0 160.0 -72.0 163.0 -63.0 166.0 -54.0 169.0 -45.0 169.0 -37.0 165.0 -30.0 159.0 -25.0 153.0 -19.0 146.0 -16.0 139.0 -12.0 131.0 -11.0 124.0 -9.0 117.0 -9.0 115.0 -9.0 113.0 -9.0 111.0 -9.0 108.0 -10.0 106.0 -11.0 104.0 -12.0 102.0 -12.0 101.0 -14.0 101.0 -14.0 98.0 -14.0 96.0 -14.0 93.0 -13.0 89.0 -13.0 86.0 -13.0 82.0 -13.0 79.0 -13.0 67.0 -13.0 60.0 -18.0 53.0 -24.0 49.0 -32.0 46.0 -40.0 44.0 -50.0 43.0 -59.0 43.0 -68.0 43.0 -81.0 41.0 -91.0 40.0 -101.0 38.0 -113.0 36.0 -125.0 35.0 -142.0 33.0 -158.0 33.0 -184.0 33.0 -192.0 33.0 -205.0 32.0 -217.0 32.0 -230.0 31.0 -243.0 31.0 -252.0 30.0 -262.0 30.0 -264.0 31.0 -289.0 31.0 -320.0 31.0 -350.0 32.0 -381.0 32.0 -413.0 33.0 -444.0 35.0 -476.0 38.0 -505.0 38.0 -505.0 38.0 -508.0 38.0 -510.0 39.0 -514.0 39.0 -518.0 39.0 -523.0 39.0 -528.0 39.0 -534.0 39.0 -544.0 38.0 -557.0 38.0 -570.0 36.0 -582.0 33.0 -595.0 30.0 -605.0 26.0 -615.0 20.0 -621.0 20.0 -626.0 32.0 -634.0 44.0 -641.0 59.0 -649.0 75.0 -656.0 89.0 -662.0 104.0 -667.0 109.0 -669.0 111.0 -669.0 120.0 -672.0 130.0 -675.0 140.0 -679.0 151.0 -683.0 160.0 -686.0 169.0 -690.0 171.0 -691.0 181.0 -694.0 193.0 -695.0 204.0 -696.0 216.0 -697.0 229.0 -698.0 242.0 -698.0 255.0 -698.0 269.0 -698.0 273.0 -698.0 282.0 -697.0 292.0 -696.0 303.0 -695.0 314.0 -694.0 324.0 -693.0 333.0 -692.0 337.0 -691.0 360.0 -675.0 376.0 -663.0 392.0 -650.0 402.0 -636.0 412.0 -622.0 417.0 -602.0 421.0 -582.0 421.0 -551.0 421.0 -534.0 418.0 -516.0 414.0 -498.0 408.0 -481.0 401.0 -465.0 391.0 -450.0 381.0 -436.0 368.0 -427.0 359.0 -415.0 347.0 -403.0 335.0 -390.0 322.0 -378.0 308.0 -367.0 294.0 -356.0 279.0 -346.0 263.0 -339.0 271.0 -328.0 278.0 -317.0 285.0 -306.0 293.0 -296.0 300.0 -285.0 308.0 -275.0 315.0 -264.0 322.0 -254.0 322.0 -254.0 343.0 -222.0 364.0 -189.0 389.0 -149.0 414.0 -109.0 435.0 -73.0 456.0 -38.0 456.0 -31.0 456.0 -23.0 452.0 -18.0 449.0 -12.0 443.0 -8.0 437.0 -4.0 431.0 -2.0 424.0 0.0 418.0 0.0 408.0 0.0 394.0 -3.0 381.0 -6.0 367.0 -12.0 354.0 -17.0 342.0 -24.0 330.0 -32.0 324.0 -40.0" fill-rule="evenodd" stroke="none"/>
    </g>
    <g id="font_Apple_Casual_u0">
      <path d="M272.0 -101.0 Q260.0 -83.0 245.0 -71.0 230.0 -59.0 213.0 -51.0 196.0 -44.0 176.0 -40.0 156.0 -37.0 133.0 -37.0 125.0 -37.0 116.0 -37.0 107.0 -38.0 99.0 -39.0 91.0 -40.0 84.0 -42.0 77.0 -44.0 72.0 -47.0 48.0 -62.0 38.0 -90.0 27.0 -118.0 24.0 -148.0 21.0 -178.0 22.0 -206.0 23.0 -234.0 23.0 -250.0 23.0 -258.0 23.0 -266.0 23.0 -273.0 23.0 -280.0 23.0 -287.0 23.0 -292.0 24.0 -297.0 24.0 -300.0 22.0 -302.0 21.0 -304.0 19.0 -306.0 19.0 -307.0 18.0 -309.0 18.0 -311.0 18.0 -313.0 18.0 -315.0 18.0 -324.0 27.0 -331.0 35.0 -338.0 47.0 -343.0 59.0 -348.0 71.0 -350.0 83.0 -353.0 90.0 -353.0 96.0 -353.0 103.0 -351.0 111.0 -348.0 118.0 -344.0 125.0 -340.0 131.0 -334.0 136.0 -328.0 139.0 -321.0 139.0 -314.0 138.0 -307.0 138.0 -300.0 138.0 -293.0 138.0 -285.0 138.0 -278.0 138.0 -270.0 138.0 -262.0 138.0 -246.0 138.0 -224.0 138.0 -202.0 139.0 -181.0 141.0 -159.0 144.0 -143.0 148.0 -126.0 156.0 -121.0 194.0 -121.0 208.0 -145.0 222.0 -169.0 227.0 -203.0 231.0 -238.0 233.0 -276.0 234.0 -315.0 246.0 -344.0 249.0 -353.0 256.0 -358.0 264.0 -362.0 273.0 -364.0 282.0 -365.0 292.0 -365.0 302.0 -365.0 310.0 -365.0 331.0 -365.0 340.0 -354.0 348.0 -344.0 350.0 -328.0 352.0 -312.0 351.0 -293.0 349.0 -274.0 352.0 -258.0 358.0 -231.0 362.0 -206.0 366.0 -181.0 370.0 -157.0 375.0 -133.0 382.0 -110.0 389.0 -86.0 403.0 -62.0 403.0 -62.0 406.0 -60.0 408.0 -57.0 411.0 -55.0 414.0 -52.0 416.0 -50.0 419.0 -48.0 419.0 -47.0 419.0 -36.0 417.0 -28.0 414.0 -19.0 408.0 -13.0 402.0 -7.0 392.0 -3.0 382.0 0.0 367.0 0.0 364.0 0.0 361.0 -1.0 358.0 -2.0 354.0 -4.0 350.0 -5.0 347.0 -7.0 343.0 -9.0 340.0 -11.0 322.0 -21.0 311.0 -31.0 300.0 -42.0 293.0 -53.0 286.0 -65.0 281.0 -77.0 277.0 -89.0 272.0 -101.0" fill-rule="evenodd" stroke="none"/>
    </g>
    <g id="font_Apple_Casual_n0">
      <path d="M271.0 -11.0 Q271.0 -12.0 272.0 -21.0 273.0 -29.0 275.0 -46.0 276.0 -63.0 277.0 -89.0 278.0 -116.0 278.0 -153.0 278.0 -155.0 277.0 -161.0 276.0 -167.0 275.0 -174.0 273.0 -181.0 272.0 -187.0 271.0 -193.0 271.0 -195.0 271.0 -202.0 271.0 -211.0 271.0 -219.0 270.0 -228.0 269.0 -237.0 266.0 -245.0 263.0 -253.0 256.0 -258.0 210.0 -248.0 188.0 -232.0 166.0 -217.0 157.0 -192.0 148.0 -167.0 147.0 -132.0 146.0 -96.0 142.0 -47.0 142.0 -35.0 140.0 -26.0 137.0 -16.0 132.0 -9.0 127.0 -2.0 119.0 2.0 111.0 6.0 100.0 6.0 96.0 6.0 92.0 6.0 88.0 6.0 85.0 5.0 82.0 4.0 79.0 3.0 76.0 1.0 74.0 -1.0 65.0 -2.0 60.0 -3.0 54.0 -4.0 50.0 -5.0 45.0 -7.0 41.0 -10.0 37.0 -14.0 31.0 -22.0 31.0 -60.0 30.0 -98.0 29.0 -136.0 29.0 -173.0 28.0 -211.0 27.0 -249.0 26.0 -287.0 26.0 -325.0 26.0 -329.0 25.0 -333.0 24.0 -336.0 23.0 -339.0 22.0 -342.0 21.0 -344.0 20.0 -346.0 20.0 -347.0 20.0 -359.0 30.0 -366.0 39.0 -373.0 52.0 -377.0 65.0 -381.0 77.0 -383.0 90.0 -384.0 96.0 -384.0 L141.0 -362.0 141.0 -296.0 Q165.0 -309.0 174.0 -318.0 184.0 -326.0 196.0 -330.0 207.0 -334.0 229.0 -336.0 252.0 -337.0 301.0 -337.0 307.0 -337.0 315.0 -337.0 324.0 -337.0 332.0 -336.0 341.0 -336.0 348.0 -333.0 356.0 -331.0 361.0 -326.0 367.0 -317.0 372.0 -299.0 377.0 -281.0 380.0 -260.0 383.0 -239.0 385.0 -217.0 387.0 -196.0 388.0 -178.0 388.0 -175.0 388.0 -167.0 388.0 -158.0 388.0 -146.0 387.0 -134.0 387.0 -120.0 387.0 -107.0 387.0 -95.0 387.0 -78.0 388.0 -65.0 389.0 -52.0 390.0 -42.0 391.0 -32.0 392.0 -25.0 393.0 -17.0 393.0 -13.0 393.0 -12.0 393.0 -12.0 393.0 -11.0 393.0 -10.0 392.0 -9.0 392.0 -9.0 392.0 -8.0 392.0 -8.0 392.0 -6.0 392.0 -5.0 392.0 -3.0 393.0 -2.0 393.0 0.0 393.0 1.0 393.0 2.0 393.0 3.0 393.0 9.0 388.0 13.0 382.0 17.0 375.0 19.0 367.0 21.0 360.0 21.0 353.0 22.0 349.0 22.0 340.0 22.0 329.0 20.0 317.0 18.0 307.0 15.0 296.0 11.0 286.0 4.0 277.0 -2.0 271.0 -11.0" fill-rule="evenodd" stroke="none"/>
    </g>
    <g id="font_Apple_Casual_:0">
      <path d="M20.0 -42.0 Q20.0 -42.0 20.0 -42.0 21.0 -43.0 21.0 -44.0 21.0 -44.0 22.0 -45.0 22.0 -46.0 22.0 -46.0 30.0 -56.0 37.0 -63.0 45.0 -71.0 54.0 -76.0 63.0 -81.0 73.0 -83.0 84.0 -86.0 96.0 -86.0 106.0 -86.0 114.0 -84.0 121.0 -82.0 127.0 -77.0 132.0 -72.0 134.0 -65.0 137.0 -57.0 137.0 -47.0 137.0 -41.0 135.0 -35.0 134.0 -29.0 131.0 -24.0 128.0 -19.0 124.0 -14.0 120.0 -10.0 115.0 -6.0 114.0 -6.0 110.0 -6.0 107.0 -6.0 103.0 -5.0 99.0 -5.0 96.0 -5.0 93.0 -5.0 92.0 -5.0 82.0 -5.0 72.0 -7.0 62.0 -8.0 53.0 -12.0 43.0 -16.0 35.0 -22.0 28.0 -29.0 22.0 -38.0 22.0 -38.0 22.0 -38.0 21.0 -39.0 21.0 -40.0 21.0 -40.0 20.0 -41.0 20.0 -42.0 20.0 -42.0 M20.0 -302.0 Q20.0 -302.0 20.0 -302.0 21.0 -303.0 21.0 -304.0 21.0 -304.0 22.0 -305.0 22.0 -306.0 22.0 -306.0 30.0 -316.0 37.0 -323.0 45.0 -331.0 54.0 -336.0 63.0 -341.0 73.0 -343.0 84.0 -346.0 96.0 -346.0 106.0 -346.0 114.0 -344.0 121.0 -342.0 127.0 -337.0 132.0 -332.0 134.0 -325.0 137.0 -317.0 137.0 -307.0 137.0 -301.0 135.0 -295.0 134.0 -289.0 131.0 -284.0 128.0 -279.0 124.0 -274.0 120.0 -270.0 115.0 -266.0 114.0 -266.0 110.0 -266.0 107.0 -266.0 103.0 -265.0 99.0 -265.0 96.0 -265.0 93.0 -265.0 92.0 -265.0 82.0 -265.0 72.0 -267.0 62.0 -268.0 53.0 -272.0 43.0 -276.0 35.0 -282.0 28.0 -289.0 22.0 -298.0 22.0 -298.0 22.0 -298.0 21.0 -299.0 21.0 -300.0 21.0 -300.0 20.0 -301.0 20.0 -302.0 20.0 -302.0" fill-rule="evenodd" stroke="none"/>
    </g>
    <g id="font_Apple_Casual_L0">
      <path d="M20.0 -42.0 Q20.0 -46.0 20.0 -49.0 20.0 -52.0 21.0 -55.0 21.0 -58.0 23.0 -61.0 24.0 -64.0 26.0 -68.0 26.0 -74.0 25.0 -80.0 25.0 -86.0 25.0 -92.0 25.0 -98.0 25.0 -104.0 25.0 -110.0 25.0 -116.0 25.0 -147.0 26.0 -177.0 27.0 -207.0 29.0 -237.0 30.0 -267.0 32.0 -297.0 34.0 -327.0 36.0 -357.0 38.0 -379.0 41.0 -412.0 44.0 -445.0 47.0 -479.0 50.0 -514.0 53.0 -547.0 55.0 -579.0 55.0 -601.0 55.0 -607.0 54.0 -612.0 53.0 -617.0 52.0 -622.0 51.0 -628.0 50.0 -633.0 49.0 -638.0 49.0 -644.0 49.0 -654.0 59.0 -660.0 70.0 -667.0 83.0 -671.0 97.0 -675.0 111.0 -676.0 125.0 -678.0 132.0 -678.0 141.0 -678.0 149.0 -676.0 158.0 -674.0 165.0 -670.0 172.0 -666.0 177.0 -659.0 181.0 -651.0 181.0 -641.0 181.0 -640.0 180.0 -636.0 179.0 -632.0 179.0 -627.0 178.0 -623.0 177.0 -619.0 176.0 -615.0 176.0 -614.0 172.0 -590.0 170.0 -553.0 168.0 -517.0 166.0 -478.0 165.0 -440.0 163.0 -403.0 161.0 -367.0 157.0 -342.0 153.0 -318.0 150.0 -295.0 147.0 -271.0 144.0 -248.0 142.0 -224.0 141.0 -201.0 140.0 -177.0 140.0 -153.0 140.0 -137.0 139.0 -123.0 138.0 -109.0 142.0 -99.0 147.0 -89.0 161.0 -84.0 174.0 -78.0 204.0 -78.0 215.0 -78.0 228.0 -78.0 240.0 -79.0 253.0 -79.0 266.0 -80.0 278.0 -81.0 291.0 -81.0 303.0 -81.0 320.0 -81.0 334.0 -80.0 348.0 -78.0 359.0 -74.0 370.0 -71.0 376.0 -64.0 382.0 -57.0 382.0 -47.0 382.0 -47.0 381.0 -44.0 380.0 -42.0 380.0 -40.0 379.0 -37.0 378.0 -35.0 377.0 -32.0 377.0 -31.0 377.0 -31.0 378.0 -28.0 379.0 -25.0 380.0 -21.0 380.0 -17.0 381.0 -14.0 382.0 -11.0 382.0 -11.0 382.0 -8.0 376.0 -6.0 370.0 -4.0 362.0 -2.0 354.0 0.0 347.0 1.0 339.0 3.0 335.0 4.0 L94.0 4.0 Q83.0 4.0 70.0 2.0 57.0 0.0 46.0 -5.0 35.0 -11.0 27.0 -20.0 20.0 -28.0 20.0 -42.0" fill-rule="evenodd" stroke="none"/>
    </g>
    <g id="font_Apple_Casual_e0">
      <path d="M136.0 -252.0 Q136.0 -248.0 142.0 -246.0 147.0 -243.0 155.0 -242.0 162.0 -240.0 170.0 -240.0 178.0 -239.0 184.0 -239.0 L189.0 -239.0 Q189.0 -242.0 186.0 -251.0 183.0 -260.0 179.0 -269.0 174.0 -279.0 169.0 -286.0 165.0 -293.0 160.0 -293.0 158.0 -291.0 154.0 -286.0 150.0 -281.0 146.0 -274.0 142.0 -267.0 139.0 -261.0 136.0 -255.0 136.0 -252.0 M18.0 -176.0 L18.0 -184.0 Q18.0 -200.0 20.0 -216.0 23.0 -232.0 27.0 -248.0 32.0 -264.0 39.0 -281.0 45.0 -298.0 54.0 -318.0 56.0 -321.0 61.0 -323.0 65.0 -325.0 71.0 -326.0 76.0 -328.0 81.0 -330.0 87.0 -332.0 91.0 -335.0 93.0 -338.0 99.0 -338.0 104.0 -339.0 109.0 -339.0 115.0 -340.0 119.0 -341.0 123.0 -341.0 123.0 -344.0 135.0 -346.0 144.0 -348.0 154.0 -349.0 164.0 -350.0 173.0 -350.0 183.0 -351.0 192.0 -351.0 204.0 -351.0 227.0 -351.0 239.0 -347.0 252.0 -343.0 259.0 -335.0 267.0 -326.0 272.0 -313.0 277.0 -300.0 285.0 -281.0 287.0 -275.0 291.0 -266.0 294.0 -257.0 297.0 -248.0 300.0 -240.0 303.0 -234.0 305.0 -227.0 305.0 -227.0 305.0 -227.0 305.0 -227.0 306.0 -226.0 306.0 -225.0 306.0 -225.0 307.0 -224.0 307.0 -223.0 307.0 -223.0 307.0 -207.0 297.0 -199.0 286.0 -191.0 271.0 -187.0 257.0 -183.0 241.0 -183.0 225.0 -183.0 214.0 -183.0 L131.0 -183.0 Q132.0 -165.0 133.0 -148.0 134.0 -131.0 138.0 -114.0 141.0 -98.0 147.0 -81.0 154.0 -65.0 165.0 -50.0 166.0 -48.0 167.0 -46.0 168.0 -44.0 170.0 -42.0 171.0 -40.0 173.0 -38.0 174.0 -37.0 177.0 -37.0 187.0 -38.0 199.0 -50.0 211.0 -62.0 223.0 -76.0 234.0 -90.0 244.0 -101.0 253.0 -112.0 259.0 -112.0 L315.0 -113.0 Q318.0 -113.0 322.0 -111.0 326.0 -108.0 330.0 -105.0 334.0 -101.0 336.0 -97.0 339.0 -93.0 339.0 -90.0 339.0 -90.0 328.0 -71.0 317.0 -53.0 297.0 -31.0 277.0 -9.0 250.0 10.0 222.0 28.0 188.0 28.0 182.0 28.0 168.0 26.0 155.0 25.0 141.0 23.0 127.0 20.0 116.0 18.0 104.0 16.0 102.0 14.0 76.0 5.0 60.0 -18.0 44.0 -41.0 35.0 -69.0 26.0 -98.0 23.0 -126.0 20.0 -155.0 18.0 -176.0" fill-rule="evenodd" stroke="none"/>
    </g>
    <g id="font_Apple_Casual_v0">
      <path d="M172.0 -10.0 Q154.0 -28.0 135.0 -53.0 116.0 -77.0 100.0 -104.0 83.0 -131.0 71.0 -158.0 59.0 -185.0 54.0 -207.0 52.0 -213.0 50.0 -218.0 48.0 -224.0 46.0 -229.0 43.0 -235.0 41.0 -240.0 40.0 -246.0 38.0 -251.0 37.0 -252.0 33.0 -264.0 30.0 -277.0 26.0 -292.0 23.0 -307.0 20.0 -320.0 17.0 -334.0 17.0 -337.0 17.0 -350.0 26.0 -357.0 34.0 -365.0 48.0 -370.0 61.0 -374.0 76.0 -376.0 92.0 -378.0 106.0 -380.0 124.0 -380.0 130.0 -371.0 137.0 -361.0 139.0 -347.0 141.0 -332.0 141.0 -314.0 142.0 -296.0 148.0 -278.0 151.0 -265.0 156.0 -245.0 161.0 -226.0 166.0 -208.0 171.0 -190.0 176.0 -177.0 181.0 -164.0 184.0 -164.0 184.0 -164.0 185.0 -164.0 185.0 -164.0 185.0 -164.0 186.0 -164.0 186.0 -164.0 186.0 -165.0 186.0 -165.0 L234.0 -294.0 Q236.0 -310.0 237.0 -321.0 238.0 -331.0 242.0 -338.0 245.0 -346.0 252.0 -352.0 258.0 -358.0 270.0 -365.0 274.0 -368.0 277.0 -370.0 281.0 -371.0 285.0 -373.0 288.0 -374.0 294.0 -374.0 299.0 -375.0 308.0 -375.0 320.0 -375.0 327.0 -374.0 334.0 -374.0 339.0 -370.0 344.0 -367.0 348.0 -360.0 352.0 -353.0 358.0 -341.0 358.0 -330.0 356.0 -320.0 353.0 -311.0 349.0 -302.0 346.0 -293.0 342.0 -284.0 337.0 -276.0 334.0 -267.0 326.0 -241.0 315.0 -197.0 303.0 -153.0 288.0 -111.0 273.0 -69.0 255.0 -38.0 236.0 -7.0 212.0 -7.0 210.0 -7.0 207.0 -7.0 204.0 -7.0 200.0 -7.0 195.0 -7.0 188.0 -7.0 181.0 -8.0 172.0 -10.0" fill-rule="evenodd" stroke="none"/>
    </g>
    <g id="font_Apple_Casual_l0">
      <path d="M71.0 -46.0 Q67.0 -74.0 66.0 -102.0 64.0 -130.0 63.0 -158.0 62.0 -185.0 62.0 -213.0 62.0 -240.0 62.0 -267.0 61.0 -323.0 59.0 -378.0 58.0 -434.0 55.0 -489.0 52.0 -544.0 48.0 -599.0 43.0 -655.0 36.0 -712.0 L22.0 -741.0 Q21.0 -750.0 32.0 -756.0 43.0 -761.0 58.0 -764.0 73.0 -767.0 89.0 -767.0 104.0 -768.0 110.0 -768.0 117.0 -768.0 122.0 -766.0 128.0 -765.0 132.0 -761.0 136.0 -757.0 139.0 -752.0 142.0 -746.0 143.0 -739.0 149.0 -697.0 153.0 -654.0 158.0 -612.0 161.0 -569.0 164.0 -526.0 165.0 -484.0 167.0 -441.0 167.0 -399.0 167.0 -360.0 167.0 -320.0 166.0 -280.0 167.0 -240.0 167.0 -201.0 170.0 -161.0 172.0 -121.0 177.0 -81.0 178.0 -75.0 179.0 -69.0 181.0 -62.0 183.0 -56.0 185.0 -51.0 186.0 -47.0 188.0 -42.0 188.0 -41.0 189.0 -32.0 187.0 -24.0 185.0 -16.0 180.0 -11.0 176.0 -6.0 169.0 -3.0 162.0 0.0 153.0 0.0 142.0 0.0 128.0 -4.0 115.0 -9.0 102.0 -15.0 90.0 -21.0 81.0 -28.0 73.0 -34.0 72.0 -39.0 72.0 -40.0 72.0 -41.0 72.0 -41.0 72.0 -42.0 71.0 -43.0 71.0 -44.0 71.0 -45.0 71.0 -46.0" fill-rule="evenodd" stroke="none"/>
    </g>
  </defs>
</svg>
