<?xml version="1.0" encoding="UTF-8" standalone="no"?>
<svg xmlns:ffdec="https://www.free-decompiler.com/flash" xmlns:xlink="http://www.w3.org/1999/xlink" ffdec:objectType="text" height="19.0px" width="28.55px" xmlns="http://www.w3.org/2000/svg">
  <g transform="matrix(1.0, 0.0, 0.0, 1.0, -66.1, 2.0)">
    <g transform="matrix(1.0, 0.0, 0.0, 1.0, 66.1, -2.0)">
      <use fill="#ffffff" height="19.0" transform="matrix(0.0127, 0.0, 0.0, 0.0127, 0.0, 12.4)" width="28.55" xlink:href="#font_Apple_Casual_00"/>
      <use fill="#ffffff" height="19.0" transform="matrix(0.0127, 0.0, 0.0, 0.0127, 5.65, 12.4)" width="28.55" xlink:href="#font_Apple_Casual_00"/>
      <use fill="#ffffff" height="19.0" transform="matrix(0.0127, 0.0, 0.0, 0.0127, 11.3, 12.4)" width="28.55" xlink:href="#font_Apple_Casual_00"/>
    </g>
  </g>
  <defs>
    <g id="font_Apple_Casual_00">
      <path d="M331.0 -394.0 Q325.0 -459.0 313.0 -499.0 300.0 -539.0 285.0 -560.0 270.0 -582.0 253.0 -589.0 237.0 -596.0 223.0 -596.0 L209.0 -596.0 Q178.0 -585.0 160.0 -549.0 141.0 -512.0 131.0 -465.0 121.0 -419.0 117.0 -370.0 114.0 -320.0 114.0 -284.0 114.0 -242.0 124.0 -206.0 134.0 -169.0 150.0 -141.0 166.0 -114.0 186.0 -98.0 206.0 -82.0 226.0 -82.0 L234.0 -82.0 Q265.0 -93.0 284.0 -129.0 303.0 -166.0 314.0 -212.0 324.0 -259.0 328.0 -308.0 331.0 -358.0 331.0 -394.0 M215.0 -668.0 L232.0 -668.0 Q282.0 -667.0 318.0 -637.0 355.0 -607.0 379.0 -562.0 403.0 -517.0 415.0 -465.0 427.0 -413.0 427.0 -368.0 427.0 -322.0 422.0 -261.0 416.0 -199.0 396.0 -143.0 376.0 -88.0 336.0 -49.0 297.0 -10.0 229.0 -10.0 L212.0 -10.0 Q163.0 -10.0 126.0 -40.0 90.0 -70.0 65.0 -115.0 41.0 -160.0 29.0 -212.0 17.0 -265.0 17.0 -310.0 17.0 -356.0 23.0 -417.0 28.0 -479.0 49.0 -535.0 69.0 -590.0 108.0 -629.0 148.0 -668.0 215.0 -668.0" fill-rule="evenodd" stroke="none"/>
    </g>
  </defs>
</svg>
