<?xml version="1.0" encoding="UTF-8" standalone="no"?>
<svg xmlns:ffdec="https://www.free-decompiler.com/flash" xmlns:xlink="http://www.w3.org/1999/xlink" ffdec:objectType="text" height="67.1px" width="193.55px" xmlns="http://www.w3.org/2000/svg">
  <g transform="matrix(1.0, 0.0, 0.0, 1.0, -10.15, 1.35)">
    <g transform="matrix(1.0, 0.0, 0.0, 1.0, 0.0, 0.0)">
      <use fill="#ffffff" height="67.1" transform="matrix(0.0938, 0.0, 0.0, 0.0938, 0.0, 64.0)" width="193.55" xlink:href="#font_Santa_Fe_LET_Plain:1.0_C0"/>
      <use fill="#ffffff" height="67.1" transform="matrix(0.0938, 0.0, 0.0, 0.0938, 55.2, 64.0)" width="193.55" xlink:href="#font_Santa_Fe_LET_Plain:1.0_h0"/>
      <use fill="#ffffff" height="67.1" transform="matrix(0.0938, 0.0, 0.0, 0.0938, 89.25, 64.0)" width="193.55" xlink:href="#font_Santa_Fe_LET_Plain:1.0_e0"/>
      <use fill="#ffffff" height="67.1" transform="matrix(0.0938, 0.0, 0.0, 0.0938, 116.1, 64.0)" width="193.55" xlink:href="#font_Santa_Fe_LET_Plain:1.0_a0"/>
      <use fill="#ffffff" height="67.1" transform="matrix(0.0938, 0.0, 0.0, 0.0938, 151.4, 64.0)" width="193.55" xlink:href="#font_Santa_Fe_LET_Plain:1.0_t0"/>
      <use fill="#ffffff" height="67.1" transform="matrix(0.0938, 0.0, 0.0, 0.0938, 174.95, 64.0)" width="193.55" xlink:href="#font_Santa_Fe_LET_Plain:1.0_s0"/>
    </g>
  </g>
  <defs>
    <g id="font_Santa_Fe_LET_Plain:1.0_C0">
      <path d="M367.5 -84.0 L367.5 -84.0 Q315.0 -84.0 294.0 -86.5 273.0 -89.0 255.5 -97.5 230.5 -110.0 217.5 -136.0 204.0 -161.5 204.0 -198.5 204.0 -243.0 223.5 -296.0 242.5 -348.5 277.5 -398.0 312.5 -447.5 359.5 -488.5 393.0 -518.5 433.5 -543.5 474.0 -569.0 510.5 -582.5 547.0 -596.0 571.0 -596.0 585.5 -596.0 592.5 -589.5 600.0 -583.5 600.0 -571.0 600.0 -552.0 577.0 -500.5 L561.5 -468.0 Q548.5 -437.5 548.5 -422.0 548.5 -405.5 560.0 -395.0 571.0 -385.0 588.5 -385.0 605.0 -385.0 615.0 -394.5 625.0 -404.5 638.0 -433.0 657.0 -475.0 668.0 -504.0 679.0 -532.5 683.5 -550.0 688.0 -567.5 688.0 -586.5 688.0 -626.5 656.5 -651.0 625.0 -676.0 573.5 -676.0 507.0 -676.0 433.5 -642.5 360.5 -609.0 292.0 -548.0 233.5 -496.0 192.5 -437.0 151.5 -377.5 129.5 -315.5 108.0 -253.0 108.0 -192.5 108.0 -119.5 147.5 -68.0 186.5 -16.5 251.0 -5.0 262.5 -3.0 271.5 -2.0 280.5 -1.0 299.5 -0.5 318.5 0.0 357.0 0.0 L466.0 0.0 Q504.5 0.0 518.0 -6.5 544.0 -17.5 544.0 -45.5 544.0 -66.5 529.0 -75.0 514.0 -84.0 479.5 -84.0 L469.0 -84.0 367.5 -84.0" fill-rule="evenodd" stroke="none"/>
    </g>
    <g id="font_Santa_Fe_LET_Plain:1.0_h0">
      <path d="M273.5 -494.5 L273.5 -494.5 Q286.5 -523.5 286.5 -535.5 286.5 -552.0 275.5 -562.0 264.5 -572.0 247.0 -572.0 229.5 -572.0 219.0 -562.0 209.0 -552.5 193.0 -520.5 L-16.5 -66.0 Q-30.0 -38.5 -30.0 -27.5 -30.0 -12.5 -19.0 -2.0 -8.0 8.0 7.5 8.0 L10.5 8.0 Q19.5 5.5 27.0 0.0 36.5 -5.0 43.5 -14.5 50.0 -24.0 60.0 -45.5 L146.5 -228.5 Q171.5 -251.0 200.0 -267.5 228.5 -284.0 244.5 -284.0 260.0 -284.0 260.0 -270.0 260.0 -260.0 234.0 -215.0 196.0 -140.5 186.5 -114.0 176.0 -85.5 176.0 -67.5 176.0 -34.0 198.5 -13.0 220.5 8.0 256.0 8.0 277.5 8.0 306.0 -2.0 334.0 -12.0 364.5 -30.0 395.0 -48.0 422.5 -71.5 453.0 -98.5 453.0 -120.0 453.0 -133.0 443.5 -142.5 434.0 -152.0 421.0 -152.0 410.0 -152.0 400.0 -146.5 389.5 -140.5 363.0 -120.5 337.0 -99.5 323.0 -89.5 309.0 -80.0 300.0 -76.0 291.0 -72.0 283.5 -72.0 268.0 -72.0 268.0 -89.0 268.0 -98.5 279.5 -122.0 L300.5 -163.5 323.5 -208.5 Q352.0 -265.0 352.0 -302.0 352.0 -331.5 332.5 -350.0 313.5 -368.0 282.0 -368.0 239.0 -368.0 197.0 -336.0 L273.5 -494.5" fill-rule="evenodd" stroke="none"/>
    </g>
    <g id="font_Santa_Fe_LET_Plain:1.0_e0">
      <path d="M78.0 -180.5 L78.0 -180.5 Q0.0 -139.5 0.0 -77.0 0.0 -37.5 28.0 -15.0 55.5 8.0 104.5 8.0 145.5 8.0 190.0 -3.5 234.0 -15.5 290.0 -42.0 342.0 -68.0 361.5 -84.5 381.0 -101.0 381.0 -120.0 381.0 -134.5 371.5 -144.0 362.0 -153.5 347.5 -153.5 334.5 -153.5 299.5 -132.0 249.5 -102.0 197.5 -83.0 145.0 -64.0 113.5 -64.0 88.0 -64.0 88.0 -83.0 88.0 -95.5 100.5 -106.0 112.5 -116.5 140.5 -129.5 L185.5 -149.5 Q208.5 -160.0 217.0 -164.0 235.0 -171.5 243.0 -181.0 250.5 -190.5 250.5 -203.5 250.5 -218.5 240.0 -229.5 229.5 -240.0 216.0 -240.0 199.5 -240.0 148.5 -216.0 144.0 -227.0 144.0 -235.0 144.0 -247.5 153.5 -256.5 162.5 -266.0 184.5 -276.0 L219.0 -291.0 Q259.0 -308.5 268.0 -314.0 282.0 -324.5 282.0 -340.5 282.0 -356.0 271.5 -366.0 260.5 -376.0 244.5 -376.0 233.5 -376.0 207.5 -366.5 181.0 -357.5 152.5 -343.5 64.0 -300.0 64.0 -232.0 64.0 -207.0 78.0 -180.5" fill-rule="evenodd" stroke="none"/>
    </g>
    <g id="font_Santa_Fe_LET_Plain:1.0_a0">
      <path d="M207.0 -34.0 L207.0 -34.0 Q214.5 8.0 263.5 8.0 294.0 8.0 324.5 -4.0 354.5 -15.5 401.5 -46.5 464.0 -89.5 464.0 -119.5 464.0 -132.0 454.0 -141.5 443.5 -150.5 430.5 -150.5 421.5 -150.5 414.0 -146.0 406.0 -141.5 382.0 -123.5 341.0 -92.5 324.5 -82.0 307.5 -72.0 296.5 -72.0 279.0 -72.0 279.0 -90.5 279.0 -100.5 291.5 -126.0 295.5 -134.5 299.5 -142.5 303.0 -150.5 306.5 -158.0 L323.0 -193.5 Q336.0 -221.5 336.0 -234.5 336.0 -249.0 325.5 -258.5 315.0 -268.0 299.0 -268.0 281.0 -268.0 269.0 -255.5 256.5 -243.5 242.0 -211.5 L226.5 -178.0 Q225.0 -176.0 211.5 -143.5 L207.0 -132.5 Q179.5 -99.0 160.5 -84.5 141.0 -70.0 123.0 -70.0 110.5 -70.0 103.5 -79.5 96.0 -88.5 96.0 -104.5 96.0 -133.5 120.5 -170.0 144.5 -207.0 185.0 -237.0 217.5 -261.5 252.5 -276.5 287.0 -291.0 333.5 -300.0 362.0 -305.0 373.5 -314.0 384.5 -322.5 384.5 -339.5 384.5 -376.0 339.0 -376.0 317.5 -376.0 287.0 -369.0 256.5 -362.0 225.0 -349.5 193.0 -337.0 169.0 -322.0 97.0 -281.0 52.5 -218.0 8.0 -155.5 8.0 -94.5 8.0 -48.0 34.0 -20.0 60.5 8.0 105.0 8.0 130.5 8.0 152.5 -0.5 174.0 -9.5 207.0 -34.0" fill-rule="evenodd" stroke="none"/>
    </g>
    <g id="font_Santa_Fe_LET_Plain:1.0_t0">
      <path d="M240.5 -288.0 L240.5 -288.0 Q274.5 -288.0 285.5 -293.5 308.0 -304.0 308.0 -329.5 308.0 -348.5 295.0 -356.0 282.0 -364.0 249.0 -364.0 L217.0 -364.0 235.5 -404.0 Q249.0 -432.0 249.0 -445.0 249.0 -460.0 238.0 -470.0 227.0 -480.0 211.0 -480.0 194.0 -480.0 184.0 -470.0 173.5 -460.0 159.0 -429.5 L128.0 -364.0 97.0 -364.0 Q63.5 -364.0 52.0 -359.0 41.5 -354.0 35.5 -343.5 29.5 -333.5 29.5 -323.5 29.5 -304.0 45.5 -294.5 56.5 -288.0 88.5 -288.0 L93.0 -288.0 29.5 -150.0 Q4.0 -95.0 4.0 -62.0 4.0 -29.5 25.5 -11.0 47.0 8.0 83.5 8.0 136.0 8.0 230.5 -46.0 272.5 -70.0 289.0 -86.5 305.5 -102.5 305.5 -119.5 305.5 -128.0 301.0 -136.0 296.0 -144.5 288.0 -149.0 279.5 -154.0 271.0 -154.0 256.5 -154.0 239.5 -143.0 L213.5 -126.5 Q181.0 -106.0 150.0 -89.5 125.0 -76.0 110.5 -76.0 96.5 -76.0 96.5 -89.5 96.5 -102.5 112.5 -138.0 L182.0 -288.0 240.5 -288.0" fill-rule="evenodd" stroke="none"/>
    </g>
    <g id="font_Santa_Fe_LET_Plain:1.0_s0">
      <path d="M177.0 -256.0 L177.0 -256.0 Q179.0 -245.0 185.0 -228.5 212.0 -159.0 212.0 -135.0 212.0 -107.0 194.0 -87.5 175.5 -68.0 147.0 -68.0 111.0 -68.0 96.5 -108.5 L89.0 -129.5 Q80.0 -155.0 54.5 -155.0 35.5 -155.0 23.5 -142.0 11.0 -128.5 11.0 -107.5 11.0 -78.5 31.0 -51.5 50.5 -24.5 82.5 -8.0 114.0 8.0 150.0 8.0 190.5 8.0 224.0 -11.5 257.5 -30.5 277.0 -64.5 296.0 -99.0 296.0 -139.0 296.0 -169.0 281.5 -209.5 267.5 -248.0 253.5 -278.5 238.0 -313.0 234.0 -326.5 229.5 -340.0 229.5 -353.5 229.5 -363.5 232.0 -371.0 L238.0 -392.5 Q239.5 -396.5 239.5 -403.5 239.5 -420.5 229.0 -430.0 218.0 -440.0 200.5 -440.0 189.0 -440.0 182.0 -436.0 174.5 -432.5 168.0 -422.5 161.5 -412.5 150.0 -387.5 L91.0 -260.5 Q77.5 -232.0 77.5 -220.5 77.5 -204.5 88.5 -194.0 99.0 -184.0 115.5 -184.0 132.5 -184.0 143.0 -194.5 153.0 -205.0 167.5 -235.5 L177.0 -256.0" fill-rule="evenodd" stroke="none"/>
    </g>
  </defs>
</svg>
