<?xml version="1.0" encoding="UTF-8" standalone="no"?>
<svg xmlns:ffdec="https://www.free-decompiler.com/flash" xmlns:xlink="http://www.w3.org/1999/xlink" ffdec:objectType="text" height="129.15px" width="128.95px" xmlns="http://www.w3.org/2000/svg">
  <g transform="matrix(1.0, 0.0, 0.0, 1.0, -0.6, -1.0)">
    <g transform="matrix(1.0, 0.0, 0.0, 1.0, 0.0, 0.0)">
      <use fill="#ffffff" height="129.15" transform="matrix(0.0244, 0.0, 0.0, 0.0244, 0.0, 20.0)" width="128.95" xlink:href="#font_Apple_Casual_T0"/>
      <use fill="#ffffff" height="129.15" transform="matrix(0.0244, 0.0, 0.0, 0.0244, 12.1, 20.0)" width="128.95" xlink:href="#font_Apple_Casual_i0"/>
      <use fill="#ffffff" height="129.15" transform="matrix(0.0244, 0.0, 0.0, 0.0244, 16.2, 20.0)" width="128.95" xlink:href="#font_Apple_Casual_m0"/>
      <use fill="#ffffff" height="129.15" transform="matrix(0.0244, 0.0, 0.0, 0.0244, 30.4, 20.0)" width="128.95" xlink:href="#font_Apple_Casual_e0"/>
      <use fill="#ffffff" height="129.15" transform="matrix(0.0244, 0.0, 0.0, 0.0244, 38.9, 20.0)" width="128.95" xlink:href="#font_Apple_Casual_:0"/>
    </g>
    <g transform="matrix(1.0, 0.0, 0.0, 1.0, 0.0, 0.0)">
      <use fill="#ffffff" height="129.15" transform="matrix(0.0244, 0.0, 0.0, 0.0244, 0.0, 74.0)" width="128.95" xlink:href="#font_Apple_Casual_D0"/>
      <use fill="#ffffff" height="129.15" transform="matrix(0.0244, 0.0, 0.0, 0.0244, 9.75, 74.0)" width="128.95" xlink:href="#font_Apple_Casual_u0"/>
      <use fill="#ffffff" height="129.15" transform="matrix(0.0244, 0.0, 0.0, 0.0244, 20.2, 74.0)" width="128.95" xlink:href="#font_Apple_Casual_c0"/>
      <use fill="#ffffff" height="129.15" transform="matrix(0.0244, 0.0, 0.0, 0.0244, 27.5, 74.0)" width="128.95" xlink:href="#font_Apple_Casual_k0"/>
      <use fill="#ffffff" height="129.15" transform="matrix(0.0244, 0.0, 0.0, 0.0244, 43.2, 74.0)" width="128.95" xlink:href="#font_Apple_Casual_N0"/>
      <use fill="#ffffff" height="129.15" transform="matrix(0.0244, 0.0, 0.0, 0.0244, 54.9, 74.0)" width="128.95" xlink:href="#font_Apple_Casual_a0"/>
      <use fill="#ffffff" height="129.15" transform="matrix(0.0244, 0.0, 0.0, 0.0244, 63.8, 74.0)" width="128.95" xlink:href="#font_Apple_Casual_m0"/>
      <use fill="#ffffff" height="129.15" transform="matrix(0.0244, 0.0, 0.0, 0.0244, 78.0, 74.0)" width="128.95" xlink:href="#font_Apple_Casual_e0"/>
      <use fill="#ffffff" height="129.15" transform="matrix(0.0244, 0.0, 0.0, 0.0244, 86.5, 74.0)" width="128.95" xlink:href="#font_Apple_Casual_:0"/>
    </g>
    <g transform="matrix(1.0, 0.0, 0.0, 1.0, 0.0, 0.0)">
      <use fill="#ffffff" height="129.15" transform="matrix(0.0244, 0.0, 0.0, 0.0244, 0.0, 128.0)" width="128.95" xlink:href="#font_Apple_Casual_F0"/>
      <use fill="#ffffff" height="129.15" transform="matrix(0.0244, 0.0, 0.0, 0.0244, 9.0, 128.0)" width="128.95" xlink:href="#font_Apple_Casual_r0"/>
      <use fill="#ffffff" height="129.15" transform="matrix(0.0244, 0.0, 0.0, 0.0244, 16.75, 128.0)" width="128.95" xlink:href="#font_Apple_Casual_e0"/>
      <use fill="#ffffff" height="129.15" transform="matrix(0.0244, 0.0, 0.0, 0.0244, 25.25, 128.0)" width="128.95" xlink:href="#font_Apple_Casual_e0"/>
      <use fill="#ffffff" height="129.15" transform="matrix(0.0244, 0.0, 0.0, 0.0244, 39.5, 128.0)" width="128.95" xlink:href="#font_Apple_Casual_S0"/>
      <use fill="#ffffff" height="129.15" transform="matrix(0.0244, 0.0, 0.0, 0.0244, 48.1, 128.0)" width="128.95" xlink:href="#font_Apple_Casual_e0"/>
      <use fill="#ffffff" height="129.15" transform="matrix(0.0244, 0.0, 0.0, 0.0244, 56.6, 128.0)" width="128.95" xlink:href="#font_Apple_Casual_e0"/>
      <use fill="#ffffff" height="129.15" transform="matrix(0.0244, 0.0, 0.0, 0.0244, 65.1, 128.0)" width="128.95" xlink:href="#font_Apple_Casual_d0"/>
      <use fill="#ffffff" height="129.15" transform="matrix(0.0244, 0.0, 0.0, 0.0244, 74.25, 128.0)" width="128.95" xlink:href="#font_Apple_Casual_:0"/>
    </g>
  </g>
  <defs>
    <g id="font_Apple_Casual_T0">
      <path d="M209.0 -9.0 Q206.0 -13.0 201.0 -15.0 196.0 -17.0 191.0 -19.0 186.0 -21.0 182.0 -24.0 178.0 -28.0 178.0 -34.0 178.0 -39.0 176.0 -52.0 174.0 -65.0 173.0 -80.0 171.0 -94.0 169.0 -107.0 168.0 -120.0 168.0 -125.0 L168.0 -222.0 Q168.0 -242.0 169.0 -281.0 170.0 -321.0 171.0 -366.0 172.0 -411.0 173.0 -454.0 174.0 -497.0 174.0 -525.0 174.0 -527.0 173.0 -535.0 171.0 -543.0 169.0 -554.0 167.0 -565.0 164.0 -576.0 162.0 -588.0 160.0 -596.0 L156.0 -596.0 Q146.0 -596.0 123.0 -597.0 99.0 -597.0 74.0 -601.0 50.0 -606.0 31.0 -615.0 12.0 -625.0 12.0 -643.0 12.0 -646.0 13.0 -650.0 15.0 -654.0 18.0 -658.0 21.0 -662.0 26.0 -667.0 32.0 -671.0 39.0 -675.0 56.0 -676.0 87.0 -677.0 118.0 -678.0 155.0 -679.0 192.0 -680.0 229.0 -680.0 266.0 -681.0 295.0 -681.0 305.0 -681.0 314.0 -681.0 323.0 -681.0 329.0 -681.0 336.0 -681.0 341.0 -681.0 346.0 -680.0 348.0 -680.0 364.0 -681.0 379.0 -683.0 395.0 -685.0 408.0 -688.0 420.0 -690.0 430.0 -692.0 440.0 -694.0 444.0 -694.0 455.0 -694.0 462.0 -689.0 469.0 -685.0 474.0 -677.0 478.0 -670.0 480.0 -661.0 482.0 -652.0 482.0 -643.0 482.0 -623.0 456.0 -615.0 431.0 -607.0 398.0 -605.0 365.0 -602.0 333.0 -602.0 301.0 -602.0 288.0 -598.0 286.0 -592.0 284.0 -584.0 283.0 -577.0 282.0 -569.0 282.0 -561.0 281.0 -554.0 281.0 -546.0 281.0 -540.0 L281.0 -522.0 Q281.0 -483.0 281.0 -443.0 280.0 -403.0 280.0 -363.0 280.0 -323.0 279.0 -284.0 279.0 -246.0 279.0 -210.0 279.0 -193.0 279.0 -175.0 279.0 -157.0 280.0 -140.0 281.0 -122.0 284.0 -104.0 286.0 -87.0 290.0 -70.0 290.0 -69.0 291.0 -66.0 293.0 -62.0 295.0 -57.0 296.0 -53.0 298.0 -49.0 299.0 -45.0 299.0 -44.0 L300.0 -42.0 Q300.0 -37.0 297.0 -30.0 294.0 -24.0 289.0 -18.0 283.0 -12.0 277.0 -8.0 271.0 -4.0 265.0 -4.0 258.0 -4.0 251.0 -4.0 244.0 -5.0 237.0 -5.0 230.0 -6.0 223.0 -7.0 216.0 -8.0 209.0 -9.0" fill-rule="evenodd" stroke="none"/>
    </g>
    <g id="font_Apple_Casual_i0">
      <path d="M20.0 -490.0 Q20.0 -493.0 23.0 -496.0 25.0 -499.0 29.0 -501.0 32.0 -503.0 35.0 -505.0 38.0 -507.0 38.0 -507.0 41.0 -508.0 46.0 -511.0 51.0 -513.0 56.0 -515.0 60.0 -517.0 64.0 -519.0 67.0 -520.0 67.0 -520.0 L132.0 -520.0 Q135.0 -520.0 138.0 -517.0 141.0 -514.0 142.0 -510.0 144.0 -507.0 145.0 -502.0 146.0 -498.0 146.0 -495.0 146.0 -489.0 144.0 -484.0 142.0 -478.0 139.0 -473.0 135.0 -468.0 131.0 -464.0 127.0 -460.0 123.0 -457.0 122.0 -456.0 118.0 -456.0 115.0 -455.0 111.0 -455.0 107.0 -455.0 104.0 -455.0 100.0 -455.0 99.0 -455.0 88.0 -455.0 77.0 -457.0 66.0 -459.0 56.0 -462.0 46.0 -466.0 37.0 -472.0 28.0 -478.0 20.0 -487.0 L20.0 -490.0 M27.0 -322.0 Q26.0 -323.0 25.0 -324.0 24.0 -326.0 23.0 -327.0 22.0 -328.0 22.0 -330.0 22.0 -331.0 22.0 -332.0 L22.0 -335.0 Q27.0 -345.0 32.0 -352.0 38.0 -359.0 46.0 -364.0 53.0 -368.0 63.0 -371.0 72.0 -373.0 83.0 -373.0 94.0 -373.0 103.0 -372.0 111.0 -371.0 119.0 -367.0 126.0 -364.0 133.0 -359.0 139.0 -353.0 146.0 -344.0 L146.0 -342.0 Q146.0 -325.0 145.0 -301.0 143.0 -277.0 142.0 -252.0 140.0 -226.0 138.0 -202.0 137.0 -178.0 137.0 -161.0 137.0 -142.0 138.0 -123.0 139.0 -104.0 140.0 -85.0 141.0 -66.0 142.0 -47.0 143.0 -28.0 143.0 -9.0 143.0 -8.0 143.0 -7.0 143.0 -6.0 143.0 -5.0 142.0 -4.0 142.0 -3.0 142.0 -2.0 142.0 -2.0 142.0 -1.0 140.0 1.0 138.0 3.0 136.0 5.0 134.0 8.0 132.0 9.0 130.0 11.0 129.0 12.0 127.0 12.0 123.0 13.0 118.0 13.0 114.0 13.0 109.0 13.0 104.0 13.0 100.0 13.0 98.0 13.0 L91.0 13.0 Q84.0 13.0 76.0 13.0 67.0 12.0 59.0 11.0 51.0 9.0 45.0 5.0 39.0 1.0 36.0 -6.0 33.0 -15.0 32.0 -22.0 31.0 -30.0 31.0 -37.0 31.0 -44.0 31.0 -52.0 31.0 -59.0 31.0 -68.0 31.0 -69.0 30.0 -77.0 30.0 -84.0 29.0 -93.0 28.0 -102.0 27.0 -109.0 26.0 -116.0 26.0 -118.0 26.0 -127.0 26.0 -156.0 26.0 -186.0 27.0 -220.0 27.0 -253.0 27.0 -283.0 27.0 -313.0 27.0 -322.0" fill-rule="evenodd" stroke="none"/>
    </g>
    <g id="font_Apple_Casual_m0">
      <path d="M438.0 -22.0 Q438.0 -23.0 439.0 -30.0 440.0 -36.0 441.0 -51.0 442.0 -66.0 443.0 -90.0 444.0 -115.0 444.0 -152.0 444.0 -154.0 443.0 -160.0 442.0 -166.0 441.0 -173.0 440.0 -180.0 439.0 -186.0 438.0 -192.0 438.0 -194.0 438.0 -202.0 438.0 -213.0 438.0 -225.0 436.0 -235.0 434.0 -245.0 427.0 -252.0 420.0 -259.0 406.0 -259.0 398.0 -259.0 390.0 -257.0 383.0 -256.0 377.0 -253.0 370.0 -251.0 365.0 -248.0 359.0 -245.0 354.0 -242.0 355.0 -233.0 356.0 -225.0 357.0 -217.0 357.0 -208.0 358.0 -200.0 359.0 -193.0 360.0 -185.0 360.0 -178.0 360.0 -175.0 360.0 -167.0 360.0 -158.0 360.0 -146.0 359.0 -134.0 359.0 -120.0 359.0 -107.0 359.0 -95.0 359.0 -78.0 360.0 -68.0 361.0 -57.0 363.0 -51.0 364.0 -44.0 365.0 -39.0 366.0 -35.0 366.0 -31.0 366.0 -30.0 366.0 -30.0 366.0 -29.0 366.0 -28.0 365.0 -27.0 365.0 -27.0 365.0 -26.0 365.0 -26.0 365.0 -24.0 365.0 -23.0 365.0 -21.0 366.0 -19.0 366.0 -18.0 366.0 -16.0 366.0 -15.0 366.0 -14.0 366.0 -8.0 361.0 -4.0 355.0 0.0 348.0 1.0 340.0 3.0 333.0 4.0 326.0 4.0 322.0 4.0 312.0 4.0 301.0 2.0 290.0 1.0 279.0 -3.0 268.0 -7.0 259.0 -13.0 250.0 -20.0 244.0 -29.0 244.0 -30.0 245.0 -36.0 246.0 -41.0 247.0 -55.0 248.0 -69.0 249.0 -92.0 250.0 -116.0 250.0 -153.0 250.0 -155.0 249.0 -161.0 248.0 -167.0 247.0 -174.0 246.0 -181.0 245.0 -187.0 244.0 -193.0 244.0 -195.0 244.0 -202.0 244.0 -211.0 244.0 -219.0 243.0 -228.0 242.0 -237.0 238.0 -245.0 235.0 -253.0 228.0 -258.0 200.0 -257.0 182.0 -249.0 165.0 -240.0 156.0 -224.0 146.0 -208.0 143.0 -186.0 140.0 -164.0 140.0 -137.0 140.0 -127.0 140.0 -117.0 141.0 -106.0 141.0 -95.0 141.0 -83.0 142.0 -71.0 142.0 -59.0 142.0 -47.0 142.0 -35.0 140.0 -26.0 137.0 -16.0 132.0 -9.0 127.0 -2.0 119.0 2.0 111.0 6.0 100.0 6.0 96.0 6.0 92.0 6.0 88.0 6.0 85.0 5.0 82.0 4.0 79.0 3.0 76.0 1.0 74.0 -1.0 65.0 -2.0 60.0 -3.0 54.0 -4.0 50.0 -5.0 45.0 -7.0 41.0 -10.0 37.0 -14.0 31.0 -22.0 31.0 -60.0 30.0 -98.0 29.0 -136.0 29.0 -173.0 28.0 -211.0 27.0 -249.0 26.0 -287.0 26.0 -325.0 26.0 -329.0 25.0 -333.0 24.0 -336.0 23.0 -339.0 22.0 -342.0 21.0 -344.0 20.0 -346.0 20.0 -347.0 20.0 -359.0 30.0 -366.0 39.0 -373.0 52.0 -377.0 65.0 -381.0 77.0 -383.0 90.0 -384.0 96.0 -384.0 109.0 -382.0 117.0 -377.0 126.0 -371.0 131.0 -362.0 137.0 -352.0 139.0 -340.0 141.0 -327.0 141.0 -311.0 L141.0 -296.0 Q150.0 -310.0 164.0 -320.0 178.0 -330.0 194.0 -337.0 210.0 -343.0 227.0 -346.0 244.0 -349.0 260.0 -349.0 260.0 -349.0 270.0 -348.0 279.0 -346.0 291.0 -342.0 303.0 -337.0 315.0 -329.0 326.0 -321.0 332.0 -307.0 348.0 -324.0 363.0 -333.0 379.0 -342.0 394.0 -346.0 409.0 -351.0 424.0 -351.0 439.0 -352.0 455.0 -352.0 468.0 -352.0 480.0 -350.0 492.0 -349.0 502.0 -345.0 512.0 -342.0 519.0 -337.0 525.0 -332.0 528.0 -325.0 534.0 -316.0 539.0 -298.0 544.0 -280.0 547.0 -259.0 550.0 -238.0 552.0 -216.0 554.0 -195.0 555.0 -177.0 555.0 -174.0 555.0 -166.0 555.0 -157.0 555.0 -145.0 554.0 -133.0 554.0 -119.0 554.0 -106.0 554.0 -94.0 554.0 -77.0 555.0 -66.0 556.0 -55.0 557.0 -47.0 558.0 -39.0 559.0 -33.0 560.0 -28.0 560.0 -24.0 560.0 -23.0 560.0 -22.0 560.0 -21.0 560.0 -21.0 559.0 -20.0 559.0 -19.0 559.0 -18.0 559.0 -18.0 559.0 -16.0 559.0 -15.0 559.0 -13.0 560.0 -12.0 560.0 -10.0 560.0 -9.0 560.0 -8.0 560.0 -7.0 560.0 -1.0 555.0 3.0 549.0 7.0 542.0 8.0 534.0 10.0 527.0 11.0 520.0 11.0 516.0 11.0 506.0 11.0 495.0 9.0 484.0 8.0 473.0 4.0 463.0 0.0 453.0 -6.0 444.0 -13.0 438.0 -22.0" fill-rule="evenodd" stroke="none"/>
    </g>
    <g id="font_Apple_Casual_e0">
      <path d="M136.0 -252.0 Q136.0 -248.0 142.0 -246.0 147.0 -243.0 155.0 -242.0 162.0 -240.0 170.0 -240.0 178.0 -239.0 184.0 -239.0 L189.0 -239.0 Q189.0 -242.0 186.0 -251.0 183.0 -260.0 179.0 -269.0 174.0 -279.0 169.0 -286.0 165.0 -293.0 160.0 -293.0 158.0 -291.0 154.0 -286.0 150.0 -281.0 146.0 -274.0 142.0 -267.0 139.0 -261.0 136.0 -255.0 136.0 -252.0 M18.0 -176.0 L18.0 -184.0 Q18.0 -200.0 20.0 -216.0 23.0 -232.0 27.0 -248.0 32.0 -264.0 39.0 -281.0 45.0 -298.0 54.0 -318.0 56.0 -321.0 61.0 -323.0 65.0 -325.0 71.0 -326.0 76.0 -328.0 81.0 -330.0 87.0 -332.0 91.0 -335.0 93.0 -338.0 99.0 -338.0 104.0 -339.0 109.0 -339.0 115.0 -340.0 119.0 -341.0 123.0 -341.0 123.0 -344.0 135.0 -346.0 144.0 -348.0 154.0 -349.0 164.0 -350.0 173.0 -350.0 183.0 -351.0 192.0 -351.0 204.0 -351.0 227.0 -351.0 239.0 -347.0 252.0 -343.0 259.0 -335.0 267.0 -326.0 272.0 -313.0 277.0 -300.0 285.0 -281.0 287.0 -275.0 291.0 -266.0 294.0 -257.0 297.0 -248.0 300.0 -240.0 303.0 -234.0 305.0 -227.0 305.0 -227.0 305.0 -227.0 305.0 -227.0 306.0 -226.0 306.0 -225.0 306.0 -225.0 307.0 -224.0 307.0 -223.0 307.0 -223.0 307.0 -207.0 297.0 -199.0 286.0 -191.0 271.0 -187.0 257.0 -183.0 241.0 -183.0 225.0 -183.0 214.0 -183.0 L131.0 -183.0 Q132.0 -165.0 133.0 -148.0 134.0 -131.0 138.0 -114.0 141.0 -98.0 147.0 -81.0 154.0 -65.0 165.0 -50.0 166.0 -48.0 167.0 -46.0 168.0 -44.0 170.0 -42.0 171.0 -40.0 173.0 -38.0 174.0 -37.0 177.0 -37.0 187.0 -38.0 199.0 -50.0 211.0 -62.0 223.0 -76.0 234.0 -90.0 244.0 -101.0 253.0 -112.0 259.0 -112.0 L315.0 -113.0 Q318.0 -113.0 322.0 -111.0 326.0 -108.0 330.0 -105.0 334.0 -101.0 336.0 -97.0 339.0 -93.0 339.0 -90.0 339.0 -90.0 328.0 -71.0 317.0 -53.0 297.0 -31.0 277.0 -9.0 250.0 10.0 222.0 28.0 188.0 28.0 182.0 28.0 168.0 26.0 155.0 25.0 141.0 23.0 127.0 20.0 116.0 18.0 104.0 16.0 102.0 14.0 76.0 5.0 60.0 -18.0 44.0 -41.0 35.0 -69.0 26.0 -98.0 23.0 -126.0 20.0 -155.0 18.0 -176.0" fill-rule="evenodd" stroke="none"/>
    </g>
    <g id="font_Apple_Casual_:0">
      <path d="M20.0 -42.0 Q20.0 -42.0 20.0 -42.0 21.0 -43.0 21.0 -44.0 21.0 -44.0 22.0 -45.0 22.0 -46.0 22.0 -46.0 30.0 -56.0 37.0 -63.0 45.0 -71.0 54.0 -76.0 63.0 -81.0 73.0 -83.0 84.0 -86.0 96.0 -86.0 106.0 -86.0 114.0 -84.0 121.0 -82.0 127.0 -77.0 132.0 -72.0 134.0 -65.0 137.0 -57.0 137.0 -47.0 137.0 -41.0 135.0 -35.0 134.0 -29.0 131.0 -24.0 128.0 -19.0 124.0 -14.0 120.0 -10.0 115.0 -6.0 114.0 -6.0 110.0 -6.0 107.0 -6.0 103.0 -5.0 99.0 -5.0 96.0 -5.0 93.0 -5.0 92.0 -5.0 82.0 -5.0 72.0 -7.0 62.0 -8.0 53.0 -12.0 43.0 -16.0 35.0 -22.0 28.0 -29.0 22.0 -38.0 22.0 -38.0 22.0 -38.0 21.0 -39.0 21.0 -40.0 21.0 -40.0 20.0 -41.0 20.0 -42.0 20.0 -42.0 M20.0 -302.0 Q20.0 -302.0 20.0 -302.0 21.0 -303.0 21.0 -304.0 21.0 -304.0 22.0 -305.0 22.0 -306.0 22.0 -306.0 30.0 -316.0 37.0 -323.0 45.0 -331.0 54.0 -336.0 63.0 -341.0 73.0 -343.0 84.0 -346.0 96.0 -346.0 106.0 -346.0 114.0 -344.0 121.0 -342.0 127.0 -337.0 132.0 -332.0 134.0 -325.0 137.0 -317.0 137.0 -307.0 137.0 -301.0 135.0 -295.0 134.0 -289.0 131.0 -284.0 128.0 -279.0 124.0 -274.0 120.0 -270.0 115.0 -266.0 114.0 -266.0 110.0 -266.0 107.0 -266.0 103.0 -265.0 99.0 -265.0 96.0 -265.0 93.0 -265.0 92.0 -265.0 82.0 -265.0 72.0 -267.0 62.0 -268.0 53.0 -272.0 43.0 -276.0 35.0 -282.0 28.0 -289.0 22.0 -298.0 22.0 -298.0 22.0 -298.0 21.0 -299.0 21.0 -300.0 21.0 -300.0 20.0 -301.0 20.0 -302.0 20.0 -302.0" fill-rule="evenodd" stroke="none"/>
    </g>
    <g id="font_Apple_Casual_D0">
      <path d="M125.0 -248.0 Q125.0 -231.0 126.0 -211.0 127.0 -191.0 129.0 -173.0 130.0 -155.0 132.0 -139.0 133.0 -124.0 134.0 -116.0 L138.0 -112.0 Q141.0 -113.0 141.0 -115.0 142.0 -116.0 143.0 -118.0 143.0 -119.0 144.0 -121.0 144.0 -123.0 147.0 -125.0 171.0 -143.0 194.0 -163.0 216.0 -182.0 234.0 -205.0 252.0 -229.0 262.0 -258.0 273.0 -287.0 273.0 -325.0 273.0 -347.0 272.0 -369.0 272.0 -391.0 270.0 -413.0 269.0 -434.0 265.0 -456.0 262.0 -477.0 257.0 -499.0 254.0 -511.0 246.0 -531.0 237.0 -550.0 226.0 -568.0 214.0 -586.0 200.0 -599.0 186.0 -612.0 172.0 -612.0 L170.0 -612.0 Q167.0 -612.0 163.0 -612.0 159.0 -612.0 155.0 -611.0 151.0 -610.0 147.0 -608.0 144.0 -606.0 142.0 -603.0 142.0 -598.0 141.0 -588.0 140.0 -577.0 140.0 -564.0 139.0 -552.0 138.0 -541.0 138.0 -530.0 138.0 -526.0 138.0 -491.0 136.0 -456.0 134.0 -421.0 132.0 -386.0 129.0 -352.0 127.0 -317.0 125.0 -282.0 125.0 -248.0 M20.0 -322.0 Q20.0 -323.0 21.0 -329.0 21.0 -334.0 22.0 -340.0 23.0 -346.0 23.0 -351.0 24.0 -356.0 24.0 -358.0 26.0 -386.0 27.0 -415.0 29.0 -443.0 30.0 -472.0 31.0 -501.0 32.0 -529.0 33.0 -558.0 33.0 -586.0 33.0 -595.0 32.0 -604.0 31.0 -613.0 31.0 -621.0 30.0 -629.0 29.0 -634.0 28.0 -640.0 28.0 -641.0 28.0 -645.0 34.0 -650.0 41.0 -655.0 50.0 -660.0 58.0 -665.0 68.0 -669.0 77.0 -673.0 83.0 -675.0 96.0 -678.0 111.0 -680.0 125.0 -682.0 140.0 -683.0 155.0 -684.0 170.0 -685.0 185.0 -685.0 198.0 -685.0 203.0 -685.0 208.0 -684.0 212.0 -683.0 217.0 -681.0 222.0 -680.0 226.0 -678.0 231.0 -676.0 236.0 -675.0 282.0 -660.0 311.0 -624.0 340.0 -588.0 356.0 -543.0 372.0 -497.0 378.0 -447.0 384.0 -397.0 384.0 -354.0 384.0 -325.0 382.0 -302.0 379.0 -278.0 373.0 -256.0 366.0 -234.0 355.0 -214.0 344.0 -194.0 326.0 -173.0 312.0 -156.0 295.0 -137.0 279.0 -118.0 261.0 -101.0 243.0 -83.0 223.0 -69.0 204.0 -54.0 184.0 -45.0 181.0 -43.0 177.0 -42.0 173.0 -41.0 168.0 -40.0 163.0 -39.0 158.0 -38.0 152.0 -37.0 147.0 -35.0 144.0 -35.0 141.0 -32.0 139.0 -29.0 135.0 -25.0 132.0 -21.0 128.0 -18.0 123.0 -15.0 117.0 -15.0 L94.0 -15.0 Q79.0 -15.0 66.0 -18.0 53.0 -20.0 42.0 -30.0 32.0 -40.0 26.0 -58.0 20.0 -76.0 20.0 -108.0 L20.0 -322.0" fill-rule="evenodd" stroke="none"/>
    </g>
    <g id="font_Apple_Casual_u0">
      <path d="M272.0 -101.0 Q260.0 -83.0 245.0 -71.0 230.0 -59.0 213.0 -51.0 196.0 -44.0 176.0 -40.0 156.0 -37.0 133.0 -37.0 125.0 -37.0 116.0 -37.0 107.0 -38.0 99.0 -39.0 91.0 -40.0 84.0 -42.0 77.0 -44.0 72.0 -47.0 48.0 -62.0 38.0 -90.0 27.0 -118.0 24.0 -148.0 21.0 -178.0 22.0 -206.0 23.0 -234.0 23.0 -250.0 23.0 -258.0 23.0 -266.0 23.0 -273.0 23.0 -280.0 23.0 -287.0 23.0 -292.0 24.0 -297.0 24.0 -300.0 22.0 -302.0 21.0 -304.0 19.0 -306.0 19.0 -307.0 18.0 -309.0 18.0 -311.0 18.0 -313.0 18.0 -315.0 18.0 -324.0 27.0 -331.0 35.0 -338.0 47.0 -343.0 59.0 -348.0 71.0 -350.0 83.0 -353.0 90.0 -353.0 96.0 -353.0 103.0 -351.0 111.0 -348.0 118.0 -344.0 125.0 -340.0 131.0 -334.0 136.0 -328.0 139.0 -321.0 139.0 -314.0 138.0 -307.0 138.0 -300.0 138.0 -293.0 138.0 -285.0 138.0 -278.0 138.0 -270.0 138.0 -262.0 138.0 -246.0 138.0 -224.0 138.0 -202.0 139.0 -181.0 141.0 -159.0 144.0 -143.0 148.0 -126.0 156.0 -121.0 194.0 -121.0 208.0 -145.0 222.0 -169.0 227.0 -203.0 231.0 -238.0 233.0 -276.0 234.0 -315.0 246.0 -344.0 249.0 -353.0 256.0 -358.0 264.0 -362.0 273.0 -364.0 282.0 -365.0 292.0 -365.0 302.0 -365.0 310.0 -365.0 331.0 -365.0 340.0 -354.0 348.0 -344.0 350.0 -328.0 352.0 -312.0 351.0 -293.0 349.0 -274.0 352.0 -258.0 358.0 -231.0 362.0 -206.0 366.0 -181.0 370.0 -157.0 375.0 -133.0 382.0 -110.0 389.0 -86.0 403.0 -62.0 403.0 -62.0 406.0 -60.0 408.0 -57.0 411.0 -55.0 414.0 -52.0 416.0 -50.0 419.0 -48.0 419.0 -47.0 419.0 -36.0 417.0 -28.0 414.0 -19.0 408.0 -13.0 402.0 -7.0 392.0 -3.0 382.0 0.0 367.0 0.0 364.0 0.0 361.0 -1.0 358.0 -2.0 354.0 -4.0 350.0 -5.0 347.0 -7.0 343.0 -9.0 340.0 -11.0 322.0 -21.0 311.0 -31.0 300.0 -42.0 293.0 -53.0 286.0 -65.0 281.0 -77.0 277.0 -89.0 272.0 -101.0" fill-rule="evenodd" stroke="none"/>
    </g>
    <g id="font_Apple_Casual_c0">
      <path d="M135.0 -262.0 Q131.0 -255.0 126.0 -243.0 122.0 -231.0 119.0 -217.0 115.0 -202.0 113.0 -185.0 111.0 -168.0 111.0 -151.0 111.0 -134.0 113.0 -120.0 114.0 -106.0 119.0 -97.0 124.0 -87.0 133.0 -81.0 142.0 -76.0 156.0 -76.0 168.0 -76.0 177.0 -80.0 187.0 -84.0 194.0 -91.0 202.0 -97.0 208.0 -106.0 213.0 -115.0 217.0 -125.0 L238.0 -134.0 Q252.0 -133.0 261.0 -127.0 270.0 -121.0 275.0 -113.0 280.0 -105.0 283.0 -96.0 285.0 -87.0 286.0 -80.0 274.0 -50.0 259.0 -32.0 243.0 -15.0 224.0 -6.0 205.0 3.0 182.0 5.0 159.0 7.0 132.0 7.0 111.0 7.0 92.0 -1.0 73.0 -10.0 58.0 -23.0 43.0 -37.0 32.0 -54.0 22.0 -71.0 18.0 -89.0 18.0 -147.0 21.0 -185.0 24.0 -222.0 30.0 -246.0 35.0 -271.0 42.0 -287.0 50.0 -304.0 59.0 -321.0 L68.0 -336.0 Q73.0 -347.0 91.0 -354.0 109.0 -361.0 129.0 -366.0 149.0 -370.0 167.0 -372.0 185.0 -374.0 190.0 -374.0 L201.0 -374.0 Q204.0 -374.0 215.0 -368.0 227.0 -363.0 239.0 -351.0 251.0 -340.0 261.0 -324.0 272.0 -308.0 273.0 -287.0 273.0 -275.0 268.0 -266.0 263.0 -257.0 255.0 -252.0 247.0 -247.0 238.0 -244.0 228.0 -242.0 218.0 -242.0 207.0 -242.0 203.0 -243.0 200.0 -245.0 197.0 -248.0 194.0 -251.0 188.0 -257.0 183.0 -263.0 168.0 -272.0 168.0 -275.0 166.0 -277.0 164.0 -279.0 162.0 -281.0 160.0 -283.0 157.0 -284.0 155.0 -285.0 154.0 -285.0 151.0 -285.0 149.0 -283.0 146.0 -280.0 143.0 -277.0 140.0 -273.0 138.0 -269.0 136.0 -265.0 135.0 -262.0" fill-rule="evenodd" stroke="none"/>
    </g>
    <g id="font_Apple_Casual_k0">
      <path d="M27.0 -28.0 L31.0 -34.0 Q28.0 -94.0 25.0 -149.0 23.0 -205.0 22.0 -259.0 20.0 -314.0 21.0 -370.0 22.0 -425.0 25.0 -485.0 27.0 -521.0 30.0 -557.0 33.0 -594.0 36.0 -631.0 38.0 -667.0 39.0 -703.0 40.0 -739.0 37.0 -774.0 39.0 -782.0 44.0 -788.0 49.0 -793.0 56.0 -797.0 63.0 -801.0 70.0 -802.0 78.0 -804.0 84.0 -804.0 L87.0 -804.0 Q88.0 -804.0 89.0 -804.0 90.0 -804.0 92.0 -803.0 93.0 -803.0 94.0 -803.0 95.0 -803.0 96.0 -803.0 107.0 -801.0 116.0 -800.0 125.0 -798.0 132.0 -793.0 140.0 -789.0 144.0 -781.0 149.0 -773.0 150.0 -760.0 151.0 -742.0 150.0 -723.0 149.0 -704.0 148.0 -685.0 146.0 -667.0 144.0 -648.0 143.0 -629.0 141.0 -610.0 140.0 -594.0 138.0 -578.0 137.0 -562.0 135.0 -545.0 134.0 -529.0 133.0 -513.0 132.0 -497.0 132.0 -481.0 132.0 -479.0 133.0 -465.0 134.0 -450.0 136.0 -433.0 137.0 -417.0 138.0 -402.0 139.0 -388.0 139.0 -386.0 139.0 -385.0 138.0 -382.0 137.0 -379.0 137.0 -375.0 136.0 -371.0 135.0 -368.0 135.0 -365.0 135.0 -364.0 L135.0 -357.0 Q135.0 -355.0 136.0 -353.0 136.0 -351.0 137.0 -349.0 137.0 -347.0 138.0 -345.0 139.0 -343.0 141.0 -340.0 L146.0 -342.0 Q155.0 -346.0 165.0 -350.0 175.0 -355.0 185.0 -358.0 194.0 -362.0 204.0 -366.0 214.0 -369.0 224.0 -372.0 225.0 -372.0 229.0 -373.0 234.0 -374.0 240.0 -374.0 245.0 -375.0 250.0 -376.0 256.0 -377.0 257.0 -377.0 260.0 -378.0 266.0 -380.0 272.0 -382.0 279.0 -384.0 286.0 -386.0 293.0 -387.0 300.0 -389.0 304.0 -389.0 L306.0 -389.0 Q318.0 -386.0 328.0 -385.0 338.0 -384.0 346.0 -381.0 354.0 -378.0 361.0 -372.0 368.0 -366.0 374.0 -354.0 L374.0 -349.0 Q372.0 -344.0 369.0 -340.0 365.0 -335.0 361.0 -331.0 357.0 -327.0 352.0 -324.0 348.0 -321.0 342.0 -321.0 341.0 -321.0 334.0 -321.0 327.0 -320.0 319.0 -319.0 311.0 -319.0 304.0 -318.0 297.0 -318.0 295.0 -318.0 295.0 -318.0 290.0 -317.0 286.0 -315.0 280.0 -314.0 274.0 -312.0 268.0 -310.0 262.0 -309.0 259.0 -308.0 256.0 -307.0 251.0 -305.0 246.0 -303.0 241.0 -301.0 236.0 -300.0 232.0 -298.0 228.0 -297.0 227.0 -297.0 225.0 -296.0 221.0 -294.0 217.0 -292.0 213.0 -290.0 209.0 -288.0 206.0 -285.0 204.0 -282.0 204.0 -280.0 230.0 -246.0 253.0 -217.0 276.0 -188.0 299.0 -159.0 321.0 -130.0 344.0 -99.0 366.0 -68.0 391.0 -30.0 391.0 -30.0 392.0 -28.0 393.0 -26.0 394.0 -25.0 395.0 -23.0 395.0 -21.0 396.0 -20.0 396.0 -20.0 396.0 -15.0 392.0 -12.0 387.0 -8.0 381.0 -5.0 375.0 -3.0 368.0 -2.0 361.0 0.0 357.0 0.0 351.0 0.0 342.0 0.0 333.0 -1.0 324.0 -2.0 315.0 -3.0 307.0 -5.0 299.0 -8.0 294.0 -12.0 293.0 -13.0 288.0 -18.0 283.0 -22.0 277.0 -28.0 270.0 -34.0 264.0 -39.0 259.0 -45.0 256.0 -48.0 233.0 -84.0 216.0 -108.0 198.0 -132.0 185.0 -148.0 172.0 -165.0 161.0 -178.0 151.0 -191.0 141.0 -206.0 L136.0 -206.0 Q136.0 -205.0 136.0 -203.0 136.0 -201.0 137.0 -198.0 137.0 -196.0 137.0 -194.0 137.0 -192.0 137.0 -191.0 137.0 -183.0 137.0 -176.0 136.0 -168.0 136.0 -161.0 135.0 -154.0 134.0 -146.0 134.0 -139.0 134.0 -131.0 L139.0 -103.0 139.0 -98.0 Q139.0 -97.0 139.0 -95.0 139.0 -93.0 138.0 -91.0 138.0 -89.0 137.0 -87.0 136.0 -85.0 136.0 -84.0 L147.0 -38.0 Q147.0 -33.0 148.0 -30.0 149.0 -27.0 148.0 -24.0 147.0 -21.0 144.0 -16.0 142.0 -10.0 134.0 0.0 133.0 0.0 130.0 1.0 128.0 1.0 125.0 1.0 122.0 1.0 119.0 1.0 117.0 1.0 116.0 1.0 103.0 2.0 91.0 1.0 79.0 0.0 67.0 -3.0 56.0 -6.0 46.0 -12.0 36.0 -18.0 27.0 -28.0" fill-rule="evenodd" stroke="none"/>
    </g>
    <g id="font_Apple_Casual_N0">
      <path d="M390.0 -6.0 Q363.0 -16.0 340.0 -54.0 317.0 -91.0 289.0 -154.0 260.0 -216.0 222.0 -304.0 184.0 -392.0 127.0 -503.0 130.0 -489.0 131.0 -474.0 133.0 -460.0 134.0 -445.0 135.0 -430.0 136.0 -415.0 136.0 -400.0 136.0 -385.0 136.0 -346.0 134.0 -308.0 132.0 -270.0 130.0 -233.0 127.0 -196.0 125.0 -160.0 123.0 -123.0 123.0 -87.0 123.0 -84.0 123.0 -82.0 123.0 -79.0 124.0 -77.0 124.0 -75.0 124.0 -73.0 125.0 -71.0 125.0 -69.0 125.0 -69.0 127.0 -66.0 129.0 -62.0 132.0 -58.0 134.0 -54.0 137.0 -50.0 139.0 -45.0 139.0 -44.0 139.0 -36.0 136.0 -28.0 133.0 -20.0 128.0 -14.0 122.0 -8.0 114.0 -4.0 106.0 0.0 95.0 0.0 68.0 0.0 53.0 -12.0 38.0 -23.0 31.0 -42.0 23.0 -60.0 22.0 -84.0 20.0 -107.0 20.0 -130.0 20.0 -140.0 21.0 -156.0 22.0 -172.0 24.0 -189.0 26.0 -205.0 28.0 -220.0 30.0 -234.0 31.0 -242.0 L31.0 -485.0 Q30.0 -490.0 28.0 -507.0 26.0 -524.0 24.0 -546.0 23.0 -568.0 21.0 -592.0 20.0 -616.0 20.0 -636.0 20.0 -654.0 28.0 -663.0 36.0 -673.0 46.0 -678.0 57.0 -682.0 68.0 -683.0 79.0 -684.0 85.0 -684.0 103.0 -684.0 118.0 -677.0 134.0 -671.0 147.0 -658.0 159.0 -646.0 171.0 -628.0 182.0 -610.0 193.0 -587.0 212.0 -552.0 231.0 -510.0 249.0 -469.0 267.0 -428.0 285.0 -387.0 303.0 -350.0 320.0 -313.0 337.0 -286.0 338.0 -284.0 339.0 -282.0 340.0 -281.0 342.0 -279.0 343.0 -278.0 345.0 -277.0 347.0 -276.0 349.0 -276.0 351.0 -279.0 352.0 -285.0 354.0 -292.0 354.0 -301.0 355.0 -310.0 356.0 -322.0 356.0 -334.0 356.0 -349.0 356.0 -379.0 355.0 -417.0 354.0 -454.0 352.0 -495.0 351.0 -536.0 349.0 -578.0 348.0 -620.0 348.0 -659.0 348.0 -664.0 358.0 -670.0 369.0 -675.0 382.0 -679.0 395.0 -684.0 407.0 -686.0 420.0 -689.0 424.0 -689.0 429.0 -689.0 435.0 -688.0 441.0 -686.0 447.0 -683.0 452.0 -681.0 456.0 -676.0 460.0 -672.0 460.0 -666.0 460.0 -634.0 460.0 -602.0 459.0 -570.0 459.0 -538.0 458.0 -506.0 456.0 -475.0 454.0 -443.0 451.0 -412.0 450.0 -405.0 449.0 -398.0 448.0 -390.0 446.0 -383.0 445.0 -376.0 443.0 -368.0 442.0 -361.0 441.0 -354.0 438.0 -330.0 436.0 -306.0 434.0 -282.0 433.0 -258.0 431.0 -234.0 431.0 -210.0 430.0 -186.0 430.0 -162.0 430.0 -148.0 431.0 -129.0 431.0 -110.0 432.0 -92.0 433.0 -75.0 433.0 -62.0 434.0 -50.0 434.0 -49.0 434.0 -39.0 431.0 -32.0 428.0 -25.0 422.0 -20.0 416.0 -15.0 409.0 -12.0 401.0 -8.0 392.0 -5.0 392.0 -5.0 391.0 -5.0 391.0 -5.0 391.0 -5.0 390.0 -6.0 390.0 -6.0 390.0 -6.0 390.0 -6.0" fill-rule="evenodd" stroke="none"/>
    </g>
    <g id="font_Apple_Casual_a0">
      <path d="M131.0 -108.0 Q132.0 -106.0 133.0 -105.0 134.0 -103.0 136.0 -103.0 137.0 -102.0 138.0 -102.0 140.0 -102.0 141.0 -102.0 150.0 -102.0 160.0 -108.0 170.0 -114.0 178.0 -130.0 186.0 -145.0 191.0 -172.0 196.0 -198.0 196.0 -238.0 196.0 -249.0 195.0 -256.0 193.0 -263.0 190.0 -268.0 186.0 -272.0 180.0 -274.0 174.0 -276.0 164.0 -276.0 152.0 -276.0 146.0 -259.0 139.0 -241.0 136.0 -219.0 133.0 -196.0 132.0 -174.0 131.0 -152.0 131.0 -143.0 L131.0 -108.0 M244.0 -72.0 Q235.0 -54.0 227.0 -40.0 219.0 -27.0 208.0 -18.0 196.0 -9.0 180.0 -4.0 165.0 0.0 141.0 0.0 124.0 0.0 106.0 -3.0 87.0 -5.0 70.0 -13.0 54.0 -21.0 41.0 -36.0 28.0 -50.0 22.0 -74.0 20.0 -86.0 18.0 -130.0 17.0 -175.0 26.0 -224.0 34.0 -272.0 58.0 -311.0 81.0 -350.0 129.0 -350.0 138.0 -350.0 147.0 -349.0 156.0 -348.0 165.0 -347.0 173.0 -347.0 182.0 -346.0 191.0 -345.0 200.0 -345.0 202.0 -345.0 209.0 -352.0 216.0 -360.0 226.0 -367.0 237.0 -374.0 250.0 -376.0 264.0 -379.0 280.0 -369.0 289.0 -370.0 296.0 -358.0 303.0 -347.0 309.0 -328.0 314.0 -310.0 316.0 -287.0 319.0 -265.0 319.0 -243.0 319.0 -228.0 319.0 -219.0 318.0 -209.0 318.0 -202.0 318.0 -195.0 317.0 -190.0 317.0 -184.0 317.0 -178.0 317.0 -148.0 321.0 -126.0 325.0 -103.0 331.0 -87.0 336.0 -70.0 340.0 -58.0 344.0 -47.0 344.0 -38.0 344.0 -32.0 341.0 -27.0 339.0 -22.0 333.0 -18.0 326.0 -13.0 316.0 -9.0 305.0 -4.0 289.0 0.0 285.0 0.0 277.0 -4.0 270.0 -8.0 262.0 -16.0 255.0 -25.0 249.0 -38.0 244.0 -52.0 244.0 -72.0" fill-rule="evenodd" stroke="none"/>
    </g>
    <g id="font_Apple_Casual_F0">
      <path d="M22.0 -162.0 L20.0 -162.0 Q20.0 -163.0 21.0 -165.0 23.0 -167.0 24.0 -170.0 26.0 -173.0 27.0 -176.0 28.0 -179.0 28.0 -182.0 28.0 -184.0 27.0 -192.0 26.0 -200.0 25.0 -209.0 24.0 -218.0 23.0 -226.0 22.0 -234.0 22.0 -236.0 22.0 -240.0 23.0 -249.0 24.0 -257.0 25.0 -269.0 26.0 -281.0 27.0 -296.0 28.0 -311.0 28.0 -328.0 28.0 -354.0 29.0 -381.0 29.0 -408.0 30.0 -434.0 31.0 -461.0 33.0 -488.0 35.0 -514.0 37.0 -540.0 37.0 -541.0 38.0 -544.0 39.0 -547.0 40.0 -550.0 41.0 -553.0 42.0 -555.0 43.0 -558.0 43.0 -558.0 43.0 -573.0 40.0 -584.0 36.0 -595.0 33.0 -605.0 29.0 -615.0 25.0 -625.0 22.0 -634.0 22.0 -646.0 22.0 -661.0 33.0 -671.0 45.0 -681.0 60.0 -687.0 75.0 -693.0 91.0 -695.0 106.0 -698.0 115.0 -698.0 122.0 -698.0 128.0 -694.0 134.0 -691.0 140.0 -686.0 146.0 -682.0 152.0 -679.0 158.0 -675.0 165.0 -675.0 L318.0 -675.0 Q324.0 -675.0 330.0 -670.0 336.0 -666.0 340.0 -659.0 344.0 -652.0 347.0 -645.0 349.0 -638.0 349.0 -632.0 349.0 -622.0 345.0 -613.0 341.0 -605.0 335.0 -599.0 329.0 -593.0 323.0 -589.0 317.0 -586.0 313.0 -586.0 L155.0 -586.0 Q152.0 -586.0 150.0 -583.0 148.0 -580.0 147.0 -577.0 145.0 -573.0 145.0 -570.0 144.0 -567.0 144.0 -566.0 144.0 -566.0 145.0 -562.0 145.0 -558.0 146.0 -551.0 147.0 -544.0 147.0 -537.0 148.0 -529.0 148.0 -523.0 148.0 -521.0 147.0 -516.0 147.0 -511.0 146.0 -504.0 145.0 -498.0 145.0 -493.0 144.0 -487.0 144.0 -486.0 144.0 -477.0 155.0 -471.0 167.0 -466.0 183.0 -462.0 200.0 -459.0 219.0 -458.0 237.0 -457.0 252.0 -457.0 263.0 -455.0 280.0 -456.0 298.0 -457.0 314.0 -453.0 330.0 -450.0 341.0 -440.0 353.0 -430.0 353.0 -407.0 353.0 -395.0 337.0 -391.0 321.0 -387.0 300.0 -385.0 279.0 -384.0 259.0 -383.0 239.0 -382.0 231.0 -376.0 L148.0 -376.0 Q141.0 -376.0 136.0 -363.0 132.0 -350.0 131.0 -329.0 129.0 -307.0 128.0 -279.0 128.0 -251.0 128.0 -221.0 128.0 -204.0 128.0 -189.0 129.0 -173.0 130.0 -159.0 131.0 -145.0 133.0 -133.0 135.0 -120.0 139.0 -110.0 L139.0 -105.0 Q139.0 -99.0 140.0 -93.0 142.0 -87.0 144.0 -80.0 145.0 -73.0 147.0 -66.0 148.0 -59.0 148.0 -52.0 148.0 -48.0 146.0 -41.0 144.0 -34.0 139.0 -27.0 134.0 -20.0 124.0 -15.0 115.0 -10.0 101.0 -10.0 92.0 -10.0 80.0 -13.0 69.0 -17.0 59.0 -23.0 49.0 -29.0 42.0 -37.0 35.0 -45.0 33.0 -54.0 32.0 -63.0 30.0 -78.0 28.0 -92.0 26.0 -108.0 24.0 -124.0 23.0 -138.0 22.0 -153.0 22.0 -162.0" fill-rule="evenodd" stroke="none"/>
    </g>
    <g id="font_Apple_Casual_r0">
      <path d="M24.0 -47.0 Q21.0 -89.0 21.0 -129.0 22.0 -168.0 24.0 -207.0 25.0 -247.0 25.0 -286.0 25.0 -326.0 20.0 -368.0 24.0 -375.0 29.0 -378.0 34.0 -381.0 40.0 -383.0 46.0 -384.0 53.0 -385.0 60.0 -385.0 67.0 -387.0 67.0 -387.0 71.0 -388.0 74.0 -389.0 79.0 -390.0 83.0 -391.0 87.0 -392.0 91.0 -393.0 92.0 -393.0 L96.0 -393.0 Q102.0 -393.0 107.0 -391.0 112.0 -388.0 116.0 -383.0 120.0 -379.0 122.0 -373.0 125.0 -368.0 125.0 -362.0 125.0 -354.0 125.0 -353.0 125.0 -351.0 125.0 -351.0 125.0 -350.0 125.0 -348.0 125.0 -347.0 125.0 -338.0 127.0 -338.0 132.0 -338.0 136.0 -337.0 142.0 -337.0 147.0 -337.0 151.0 -338.0 156.0 -338.0 158.0 -339.0 172.0 -340.0 184.0 -343.0 196.0 -346.0 208.0 -348.0 220.0 -351.0 232.0 -353.0 244.0 -355.0 257.0 -356.0 L284.0 -356.0 Q288.0 -355.0 292.0 -353.0 296.0 -351.0 299.0 -348.0 302.0 -345.0 304.0 -341.0 307.0 -337.0 307.0 -333.0 307.0 -332.0 307.0 -331.0 307.0 -330.0 307.0 -329.0 307.0 -328.0 307.0 -327.0 307.0 -326.0 307.0 -326.0 306.0 -324.0 302.0 -319.0 299.0 -314.0 294.0 -309.0 290.0 -304.0 285.0 -299.0 281.0 -295.0 279.0 -294.0 278.0 -293.0 273.0 -292.0 269.0 -291.0 264.0 -290.0 259.0 -289.0 254.0 -289.0 250.0 -288.0 248.0 -288.0 248.0 -288.0 244.0 -287.0 241.0 -286.0 237.0 -285.0 233.0 -284.0 229.0 -283.0 225.0 -282.0 224.0 -282.0 222.0 -282.0 214.0 -280.0 207.0 -279.0 198.0 -278.0 189.0 -277.0 182.0 -276.0 174.0 -275.0 172.0 -275.0 150.0 -277.0 142.0 -245.0 135.0 -214.0 135.0 -174.0 134.0 -133.0 138.0 -97.0 142.0 -60.0 142.0 -52.0 142.0 -46.0 143.0 -38.0 143.0 -30.0 142.0 -22.0 141.0 -15.0 138.0 -8.0 134.0 -1.0 128.0 2.0 127.0 2.0 124.0 3.0 122.0 3.0 119.0 3.0 116.0 3.0 114.0 3.0 112.0 3.0 111.0 3.0 103.0 3.0 96.0 3.0 90.0 2.0 83.0 1.0 76.0 -1.0 70.0 -3.0 63.0 -5.0 55.0 -8.0 55.0 -8.0 54.0 -8.0 54.0 -8.0 54.0 -8.0 54.0 -9.0 54.0 -9.0 53.0 -9.0 53.0 -9.0 45.0 -11.0 40.0 -14.0 35.0 -17.0 31.0 -22.0 28.0 -26.0 26.0 -32.0 25.0 -38.0 24.0 -47.0" fill-rule="evenodd" stroke="none"/>
    </g>
    <g id="font_Apple_Casual_S0">
      <path d="M62.0 -227.0 Q100.0 -228.0 108.0 -207.0 116.0 -187.0 118.0 -162.0 119.0 -137.0 124.0 -117.0 130.0 -96.0 164.0 -96.0 178.0 -96.0 190.0 -99.0 203.0 -102.0 213.0 -109.0 222.0 -116.0 228.0 -128.0 234.0 -139.0 234.0 -157.0 234.0 -158.0 234.0 -159.0 234.0 -161.0 234.0 -162.0 233.0 -164.0 233.0 -165.0 233.0 -166.0 233.0 -168.0 225.0 -211.0 214.0 -235.0 202.0 -259.0 185.0 -279.0 168.0 -299.0 143.0 -325.0 119.0 -350.0 84.0 -397.0 66.0 -422.0 53.0 -442.0 41.0 -462.0 33.0 -479.0 24.0 -496.0 21.0 -511.0 17.0 -527.0 17.0 -542.0 17.0 -574.0 25.0 -601.0 32.0 -628.0 49.0 -648.0 65.0 -667.0 90.0 -678.0 116.0 -689.0 152.0 -689.0 176.0 -689.0 203.0 -687.0 229.0 -685.0 253.0 -675.0 277.0 -665.0 297.0 -643.0 316.0 -622.0 327.0 -582.0 L327.0 -573.0 Q327.0 -560.0 323.0 -547.0 319.0 -533.0 311.0 -522.0 304.0 -512.0 293.0 -505.0 283.0 -498.0 271.0 -498.0 264.0 -498.0 259.0 -500.0 254.0 -503.0 250.0 -507.0 247.0 -511.0 244.0 -517.0 242.0 -523.0 241.0 -529.0 L240.0 -534.0 240.0 -553.0 Q239.0 -568.0 235.0 -578.0 231.0 -588.0 224.0 -594.0 218.0 -600.0 209.0 -603.0 201.0 -606.0 190.0 -606.0 165.0 -606.0 151.0 -599.0 136.0 -592.0 129.0 -580.0 122.0 -569.0 121.0 -555.0 119.0 -540.0 119.0 -525.0 119.0 -502.0 145.0 -467.0 171.0 -432.0 202.0 -396.0 234.0 -360.0 261.0 -329.0 288.0 -298.0 290.0 -285.0 302.0 -271.0 310.0 -255.0 319.0 -238.0 324.0 -221.0 330.0 -204.0 332.0 -186.0 335.0 -169.0 335.0 -152.0 335.0 -120.0 327.0 -93.0 320.0 -65.0 303.0 -46.0 287.0 -26.0 262.0 -15.0 236.0 -4.0 201.0 -4.0 170.0 -4.0 139.0 -11.0 108.0 -17.0 83.0 -32.0 58.0 -48.0 43.0 -72.0 27.0 -97.0 28.0 -133.0 28.0 -136.0 28.0 -139.0 28.0 -143.0 29.0 -146.0 29.0 -150.0 30.0 -153.0 30.0 -157.0 31.0 -160.0 L32.0 -178.0 34.0 -189.0 Q36.0 -201.0 38.0 -208.0 40.0 -215.0 42.0 -220.0 45.0 -224.0 50.0 -225.0 54.0 -227.0 62.0 -227.0" fill-rule="evenodd" stroke="none"/>
    </g>
    <g id="font_Apple_Casual_d0">
      <path d="M136.0 -179.0 Q136.0 -153.0 140.0 -135.0 145.0 -116.0 154.0 -102.0 164.0 -89.0 179.0 -79.0 194.0 -69.0 216.0 -61.0 219.0 -61.0 221.0 -62.0 223.0 -63.0 224.0 -66.0 224.0 -69.0 225.0 -73.0 225.0 -78.0 225.0 -84.0 L225.0 -95.0 Q225.0 -116.0 224.0 -145.0 224.0 -174.0 219.0 -201.0 214.0 -227.0 203.0 -246.0 192.0 -265.0 172.0 -265.0 159.0 -265.0 152.0 -256.0 145.0 -247.0 141.0 -233.0 138.0 -220.0 137.0 -205.0 136.0 -190.0 136.0 -179.0 M17.0 -174.0 Q17.0 -207.0 27.0 -239.0 37.0 -271.0 56.0 -296.0 74.0 -321.0 99.0 -337.0 124.0 -352.0 154.0 -352.0 158.0 -352.0 167.0 -352.0 177.0 -351.0 189.0 -349.0 201.0 -347.0 214.0 -343.0 227.0 -338.0 237.0 -330.0 237.0 -330.0 238.0 -330.0 238.0 -331.0 238.0 -332.0 238.0 -333.0 238.0 -334.0 238.0 -336.0 238.0 -338.0 238.0 -342.0 238.0 -349.0 238.0 -356.0 238.0 -366.0 237.0 -377.0 237.0 -391.0 237.0 -406.0 237.0 -425.0 237.0 -447.0 237.0 -477.0 237.0 -507.0 238.0 -545.0 238.0 -583.0 239.0 -630.0 240.0 -677.0 241.0 -734.0 L241.0 -737.0 Q241.0 -745.0 246.0 -752.0 251.0 -758.0 258.0 -763.0 265.0 -767.0 273.0 -770.0 282.0 -772.0 289.0 -772.0 300.0 -772.0 311.0 -771.0 322.0 -771.0 332.0 -767.0 341.0 -763.0 347.0 -756.0 353.0 -748.0 353.0 -734.0 353.0 -725.0 352.0 -716.0 350.0 -708.0 349.0 -699.0 347.0 -691.0 346.0 -683.0 344.0 -674.0 344.0 -666.0 342.0 -623.0 341.0 -586.0 340.0 -548.0 340.0 -515.0 339.0 -482.0 339.0 -454.0 339.0 -425.0 339.0 -400.0 339.0 -315.0 341.0 -262.0 342.0 -208.0 344.0 -171.0 346.0 -133.0 347.0 -104.0 349.0 -74.0 349.0 -36.0 345.0 -30.0 340.0 -26.0 336.0 -22.0 332.0 -20.0 327.0 -17.0 323.0 -17.0 319.0 -16.0 314.0 -16.0 312.0 -16.0 310.0 -16.0 308.0 -16.0 306.0 -16.0 304.0 -17.0 302.0 -17.0 300.0 -17.0 298.0 -17.0 291.0 -17.0 286.0 -14.0 281.0 -12.0 277.0 -8.0 273.0 -4.0 268.0 -1.0 264.0 3.0 259.0 6.0 217.0 6.0 174.0 -1.0 130.0 -7.0 96.0 -27.0 61.0 -46.0 39.0 -82.0 17.0 -117.0 17.0 -174.0" fill-rule="evenodd" stroke="none"/>
    </g>
  </defs>
</svg>
