<?xml version="1.0" encoding="UTF-8" standalone="no"?>
<svg xmlns:ffdec="https://www.free-decompiler.com/flash" xmlns:xlink="http://www.w3.org/1999/xlink" ffdec:objectType="text" height="57.0px" width="162.0px" xmlns="http://www.w3.org/2000/svg">
  <g transform="matrix(1.0, 0.0, 0.0, 1.0, 2.0, 2.0)">
    <g transform="matrix(1.0, 0.0, 0.0, 1.0, -2.0, -2.0)">
      <use fill="#000000" height="57.0" transform="matrix(0.0439, 0.0, 0.0, 0.0439, 17.5, 30.0)" width="162.0" xlink:href="#font_Santa_Fe_LET_Plain:1.0_D0"/>
      <use fill="#000000" height="57.0" transform="matrix(0.0439, 0.0, 0.0, 0.0439, 50.15, 30.0)" width="162.0" xlink:href="#font_Santa_Fe_LET_Plain:1.0_u0"/>
      <use fill="#000000" height="57.0" transform="matrix(0.0439, 0.0, 0.0, 0.0439, 66.4, 30.0)" width="162.0" xlink:href="#font_Santa_Fe_LET_Plain:1.0_c0"/>
      <use fill="#000000" height="57.0" transform="matrix(0.0439, 0.0, 0.0, 0.0439, 80.45, 30.0)" width="162.0" xlink:href="#font_Santa_Fe_LET_Plain:1.0_k0"/>
      <use fill="#000000" height="57.0" transform="matrix(0.0439, 0.0, 0.0, 0.0439, 96.25, 30.0)" width="162.0" xlink:href="#font_Santa_Fe_LET_Plain:1.0_l0"/>
      <use fill="#000000" height="57.0" transform="matrix(0.0439, 0.0, 0.0, 0.0439, 104.4, 30.0)" width="162.0" xlink:href="#font_Santa_Fe_LET_Plain:1.0_i0"/>
      <use fill="#000000" height="57.0" transform="matrix(0.0439, 0.0, 0.0, 0.0439, 112.55, 30.0)" width="162.0" xlink:href="#font_Santa_Fe_LET_Plain:1.0_n0"/>
      <use fill="#000000" height="57.0" transform="matrix(0.0439, 0.0, 0.0, 0.0439, 128.5, 30.0)" width="162.0" xlink:href="#font_Santa_Fe_LET_Plain:1.0_g0"/>
    </g>
  </g>
  <defs>
    <g id="font_Santa_Fe_LET_Plain:1.0_D0">
      <path d="M522.5 -482.0 L522.5 -482.0 Q537.0 -513.0 537.0 -526.0 537.0 -542.0 525.0 -553.0 513.5 -564.5 495.5 -564.5 477.5 -564.5 466.0 -553.0 454.5 -542.0 439.5 -509.5 L252.0 -107.5 Q232.5 -66.0 232.5 -44.0 232.5 -19.5 249.5 -6.0 266.0 8.0 298.5 8.0 363.5 8.0 437.5 -14.0 511.5 -36.0 569.0 -72.0 615.5 -101.5 653.0 -140.5 691.0 -179.5 717.0 -223.5 743.5 -267.5 757.5 -317.0 772.0 -366.5 772.0 -413.0 772.0 -489.0 736.0 -549.0 700.5 -609.5 635.0 -642.5 569.0 -676.0 487.0 -676.0 387.5 -676.0 296.5 -631.0 205.5 -586.0 151.0 -511.5 96.0 -437.0 96.0 -355.5 96.0 -273.5 145.0 -223.5 179.0 -188.0 213.0 -188.0 230.5 -188.0 244.0 -201.0 257.0 -213.5 257.0 -231.5 257.0 -242.5 252.5 -249.5 247.5 -256.5 231.0 -268.5 206.0 -287.0 195.0 -307.5 184.0 -328.0 184.0 -356.0 184.0 -400.0 209.5 -444.5 235.0 -488.5 277.5 -522.0 320.0 -555.5 374.5 -575.5 429.0 -596.0 484.5 -596.0 544.0 -596.0 588.0 -573.5 632.5 -551.5 656.0 -510.5 680.0 -470.0 680.0 -416.0 680.0 -354.5 653.5 -297.0 627.5 -239.0 580.0 -193.0 532.5 -146.5 470.0 -117.0 407.5 -87.5 335.5 -80.0 L522.5 -482.0" fill-rule="evenodd" stroke="none"/>
    </g>
    <g id="font_Santa_Fe_LET_Plain:1.0_u0">
      <path d="M196.5 -37.0 L196.5 -37.0 Q206.0 -13.5 221.0 -2.5 235.5 8.0 258.0 8.0 288.0 8.0 330.5 -10.5 372.5 -29.5 408.5 -59.5 458.0 -99.5 458.0 -123.5 458.0 -137.0 448.0 -146.0 438.0 -155.5 423.5 -155.5 408.0 -155.5 384.0 -134.5 313.0 -74.5 288.0 -74.5 282.5 -74.5 277.5 -79.0 272.0 -84.0 272.0 -90.0 272.0 -97.0 282.5 -120.0 L289.0 -133.0 362.5 -291.5 Q376.0 -321.0 376.0 -332.5 376.0 -348.0 365.5 -358.0 355.0 -368.0 338.0 -368.0 321.0 -368.0 310.5 -357.5 299.5 -347.0 285.5 -317.0 L200.0 -133.0 Q164.0 -103.0 141.5 -89.5 118.5 -76.0 103.0 -76.0 88.0 -76.0 88.0 -91.0 88.0 -103.5 105.0 -139.0 L109.5 -148.0 176.0 -291.5 Q189.5 -321.0 189.5 -332.5 189.5 -348.0 179.0 -358.0 168.5 -368.0 151.5 -368.0 134.5 -368.0 124.0 -357.5 113.0 -347.0 99.0 -317.0 L24.5 -156.0 Q-4.0 -95.0 -4.0 -66.0 -4.0 -33.0 17.5 -12.5 39.0 8.0 74.0 8.0 99.5 8.0 125.0 -1.0 150.5 -10.0 189.5 -33.0 L196.5 -37.0" fill-rule="evenodd" stroke="none"/>
    </g>
    <g id="font_Santa_Fe_LET_Plain:1.0_c0">
      <path d="M230.0 -272.0 L230.0 -272.0 Q215.0 -240.5 215.0 -224.0 215.0 -210.5 225.5 -201.5 235.5 -192.0 251.5 -192.0 274.5 -192.0 289.0 -222.0 L299.5 -244.5 316.0 -280.0 Q317.0 -281.5 325.5 -303.5 331.5 -321.5 331.5 -331.5 331.5 -347.5 320.0 -358.0 308.0 -368.0 288.5 -368.0 257.5 -368.0 214.0 -348.5 170.0 -329.5 130.5 -298.0 94.5 -270.0 66.0 -235.5 37.5 -200.5 23.0 -166.0 8.0 -131.5 8.0 -100.0 8.0 -66.0 23.0 -41.5 38.0 -17.0 67.5 -4.5 96.5 8.0 136.0 8.0 174.0 8.0 217.0 -3.0 260.0 -14.5 309.5 -36.5 363.5 -62.0 385.0 -80.5 406.5 -98.5 406.5 -118.5 406.5 -132.5 398.0 -142.5 389.0 -152.0 375.0 -152.0 360.0 -152.0 334.5 -139.5 L286.5 -116.0 Q249.0 -98.0 208.5 -85.5 167.5 -72.0 141.5 -72.0 96.0 -72.0 96.0 -109.0 96.0 -131.0 115.5 -162.5 135.0 -194.5 165.5 -224.0 196.0 -253.5 230.0 -272.0" fill-rule="evenodd" stroke="none"/>
    </g>
    <g id="font_Santa_Fe_LET_Plain:1.0_k0">
      <path d="M272.5 -495.0 L272.5 -495.0 Q286.5 -523.5 286.5 -535.5 286.5 -552.0 275.5 -562.0 264.5 -572.0 248.0 -572.0 231.0 -572.0 221.0 -562.0 211.0 -552.5 196.0 -520.5 L-14.5 -68.0 Q-28.0 -39.5 -28.0 -28.0 -28.0 -12.5 -17.0 -2.0 -6.5 8.0 10.0 8.0 27.5 8.0 37.5 -2.0 48.0 -12.5 62.5 -43.0 L102.0 -126.5 103.5 -128.0 Q125.5 -145.5 145.0 -157.5 153.5 -94.0 173.0 -45.5 184.5 -16.5 201.5 -4.0 218.5 8.0 245.5 8.0 272.0 8.0 301.5 -3.5 331.0 -15.5 375.5 -42.5 421.0 -70.5 438.5 -88.0 456.0 -105.0 456.0 -121.0 456.0 -134.0 445.5 -144.5 435.0 -155.0 422.0 -155.0 414.0 -155.0 407.5 -151.5 401.0 -148.5 375.0 -131.5 293.0 -76.0 268.5 -76.0 259.0 -76.0 252.5 -85.0 245.5 -93.5 237.5 -116.0 222.0 -159.5 218.0 -209.5 L222.5 -212.5 Q255.5 -237.0 271.0 -246.0 L314.5 -272.0 345.0 -291.0 Q368.5 -304.5 375.0 -311.5 381.5 -318.5 381.5 -331.0 381.5 -340.5 377.0 -349.0 372.0 -357.5 363.5 -362.5 355.0 -368.0 346.0 -368.0 326.0 -368.0 265.5 -332.0 196.0 -290.5 165.5 -264.0 L272.5 -495.0" fill-rule="evenodd" stroke="none"/>
    </g>
    <g id="font_Santa_Fe_LET_Plain:1.0_l0">
      <path d="M20.5 -153.0 L20.5 -153.0 Q7.0 -123.0 1.5 -103.5 -4.0 -84.0 -4.0 -67.5 -4.0 -34.0 17.0 -13.0 38.5 8.0 72.5 8.0 137.0 8.0 222.0 -60.0 268.5 -97.5 268.5 -122.0 268.5 -136.0 259.0 -145.5 249.5 -155.0 236.0 -155.0 227.5 -155.0 215.5 -148.0 203.5 -141.5 180.0 -122.5 146.5 -96.5 129.5 -86.0 112.0 -76.0 99.5 -76.0 84.0 -76.0 84.0 -92.0 84.0 -101.5 94.0 -123.5 L266.0 -495.0 Q279.5 -522.5 279.5 -535.5 279.5 -552.0 269.0 -562.0 258.0 -572.0 241.5 -572.0 224.5 -572.0 214.5 -562.0 204.5 -552.5 189.5 -520.5 L20.5 -153.0" fill-rule="evenodd" stroke="none"/>
    </g>
    <g id="font_Santa_Fe_LET_Plain:1.0_i0">
      <path d="M244.0 -437.0 L244.0 -437.0 Q244.0 -456.5 231.5 -468.0 219.0 -480.0 200.0 -480.0 177.5 -480.0 163.0 -464.5 148.0 -449.5 148.0 -425.0 148.0 -405.0 160.5 -392.5 172.5 -380.0 192.0 -380.0 215.5 -380.0 230.0 -396.5 244.0 -413.0 244.0 -437.0 M20.5 -152.0 L20.5 -152.0 Q8.5 -126.0 2.5 -104.5 -4.0 -83.0 -4.0 -67.0 -4.0 -34.0 17.5 -13.0 39.0 8.0 74.5 8.0 140.0 8.0 225.0 -60.0 271.5 -97.5 271.5 -122.0 271.5 -136.0 262.0 -145.5 252.5 -155.0 239.0 -155.0 230.5 -155.0 218.5 -148.0 206.5 -141.5 183.0 -122.5 122.0 -76.0 100.0 -76.0 84.0 -76.0 84.0 -92.0 84.0 -101.5 94.5 -123.0 L175.0 -291.0 Q188.5 -319.0 188.5 -331.5 188.5 -348.0 177.5 -358.0 166.5 -368.0 150.0 -368.0 133.0 -368.0 123.0 -358.0 112.5 -348.0 98.0 -317.0 L20.5 -152.0" fill-rule="evenodd" stroke="none"/>
    </g>
    <g id="font_Santa_Fe_LET_Plain:1.0_n0">
      <path d="M189.0 -335.0 L189.0 -335.0 Q189.0 -349.5 178.5 -359.0 168.0 -368.0 151.0 -368.0 134.0 -368.0 123.5 -357.5 113.0 -347.0 99.0 -316.5 L-16.5 -66.5 Q-30.0 -38.5 -30.0 -27.5 -30.0 -12.0 -19.0 -2.0 -8.5 8.0 8.0 8.0 25.5 8.0 35.5 -1.5 45.0 -11.0 60.0 -41.5 L147.0 -229.0 Q173.0 -252.0 201.5 -268.0 230.0 -284.0 244.5 -284.0 260.0 -284.0 260.0 -270.0 260.0 -260.5 236.5 -216.0 196.5 -141.5 186.5 -116.5 176.0 -86.5 176.0 -68.5 176.0 -34.0 198.5 -13.0 221.0 8.0 256.0 8.0 317.0 8.0 405.0 -58.0 453.0 -93.5 453.0 -119.5 453.0 -133.0 443.5 -142.5 434.0 -152.0 420.5 -152.0 409.5 -152.0 399.5 -146.0 389.5 -140.5 363.0 -120.0 337.0 -99.0 323.0 -89.5 309.0 -80.0 300.0 -76.0 291.0 -72.0 283.5 -72.0 268.0 -72.0 268.0 -89.0 268.0 -99.0 279.5 -122.0 L300.5 -163.5 323.5 -208.5 Q352.0 -264.0 352.0 -302.0 352.0 -331.5 332.5 -350.0 313.0 -368.0 281.5 -368.0 259.5 -368.0 232.5 -357.0 205.0 -346.5 189.0 -332.0 L189.0 -335.0" fill-rule="evenodd" stroke="none"/>
    </g>
    <g id="font_Santa_Fe_LET_Plain:1.0_g0">
      <path d="M184.5 -88.0 L184.5 -88.0 Q154.5 -76.0 134.5 -76.0 118.0 -76.0 107.0 -87.0 96.0 -98.0 96.0 -113.0 96.0 -137.5 116.5 -168.5 136.5 -199.5 168.0 -226.5 227.5 -277.5 314.5 -296.5 L347.0 -304.0 Q382.0 -312.5 382.0 -340.0 382.0 -356.5 370.5 -366.5 359.0 -376.0 340.0 -376.0 296.5 -376.0 239.0 -354.5 181.0 -333.0 135.0 -299.5 105.0 -277.5 81.5 -253.0 58.0 -228.5 42.0 -203.5 26.5 -178.0 17.0 -150.5 8.0 -123.5 8.0 -98.5 8.0 -49.5 37.0 -24.0 65.5 2.0 119.0 2.0 L155.5 2.0 Q187.0 2.0 199.0 9.0 211.0 16.0 211.0 34.0 211.0 56.5 186.5 66.0 161.5 76.0 104.0 76.0 L-43.5 76.0 Q-78.0 76.0 -89.5 81.5 -100.0 86.5 -106.0 96.5 -112.0 106.5 -112.0 117.0 -112.0 136.0 -96.0 145.0 -89.0 149.0 -80.0 150.5 -71.0 152.0 -52.0 152.0 L101.5 152.0 Q157.0 152.0 185.0 148.0 212.5 144.0 233.0 133.5 262.5 119.0 280.5 91.0 298.5 63.0 298.5 30.0 298.5 -0.5 276.5 -31.0 263.5 -48.5 263.5 -56.5 263.5 -65.0 271.5 -84.0 L278.5 -98.5 317.5 -182.5 Q320.0 -187.0 328.5 -212.0 334.0 -229.0 334.0 -235.0 334.0 -251.0 325.0 -259.5 316.0 -268.0 300.5 -268.0 283.5 -268.0 272.5 -259.0 261.0 -249.5 249.5 -226.5 L240.5 -207.5 184.5 -88.0" fill-rule="evenodd" stroke="none"/>
    </g>
  </defs>
</svg>
