<?xml version="1.0" encoding="UTF-8" standalone="no"?>
<svg xmlns:ffdec="https://www.free-decompiler.com/flash" xmlns:xlink="http://www.w3.org/1999/xlink" ffdec:objectType="text" height="21.05px" width="143.45px" xmlns="http://www.w3.org/2000/svg">
  <g transform="matrix(1.0, 0.0, 0.0, 1.0, -1.0, -1.3)">
    <g transform="matrix(1.0, 0.0, 0.0, 1.0, 0.0, 0.0)">
      <use fill="#ffffff" height="21.05" transform="matrix(0.0244, 0.0, 0.0, 0.0244, 0.0, 20.0)" width="143.45" xlink:href="#font_Apple_Casual_B0"/>
      <use fill="#ffffff" height="21.05" transform="matrix(0.0244, 0.0, 0.0, 0.0244, 9.6, 20.0)" width="143.45" xlink:href="#font_Apple_Casual_l0"/>
      <use fill="#ffffff" height="21.05" transform="matrix(0.0244, 0.0, 0.0, 0.0244, 14.75, 20.0)" width="143.45" xlink:href="#font_Apple_Casual_a0"/>
      <use fill="#ffffff" height="21.05" transform="matrix(0.0244, 0.0, 0.0, 0.0244, 23.65, 20.0)" width="143.45" xlink:href="#font_Apple_Casual_c0"/>
      <use fill="#ffffff" height="21.05" transform="matrix(0.0244, 0.0, 0.0, 0.0244, 30.95, 20.0)" width="143.45" xlink:href="#font_Apple_Casual_k0"/>
      <use fill="#ffffff" height="21.05" transform="matrix(0.0244, 0.0, 0.0, 0.0244, 46.65, 20.0)" width="143.45" xlink:href="#font_Apple_Casual_C0"/>
      <use fill="#ffffff" height="21.05" transform="matrix(0.0244, 0.0, 0.0, 0.0244, 55.8, 20.0)" width="143.45" xlink:href="#font_Apple_Casual_r0"/>
      <use fill="#ffffff" height="21.05" transform="matrix(0.0244, 0.0, 0.0, 0.0244, 63.55, 20.0)" width="143.45" xlink:href="#font_Apple_Casual_o0"/>
      <use fill="#ffffff" height="21.05" transform="matrix(0.0244, 0.0, 0.0, 0.0244, 71.8, 20.0)" width="143.45" xlink:href="#font_Apple_Casual_w0"/>
      <use fill="#ffffff" height="21.05" transform="matrix(0.0244, 0.0, 0.0, 0.0244, 84.7, 20.0)" width="143.45" xlink:href="#font_Apple_Casual_n0"/>
      <use fill="#ffffff" height="21.05" transform="matrix(0.0244, 0.0, 0.0, 0.0244, 94.8, 20.0)" width="143.45" xlink:href="#font_Apple_Casual_:0"/>
    </g>
  </g>
  <defs>
    <g id="font_Apple_Casual_B0">
      <path d="M218.0 -617.0 Q210.0 -617.0 196.0 -618.0 183.0 -619.0 170.0 -617.0 157.0 -615.0 147.0 -608.0 138.0 -602.0 137.0 -587.0 134.0 -587.0 131.0 -569.0 129.0 -551.0 127.0 -525.0 126.0 -500.0 125.0 -471.0 124.0 -442.0 124.0 -421.0 130.0 -421.0 141.0 -422.0 152.0 -423.0 164.0 -425.0 175.0 -428.0 185.0 -431.0 195.0 -434.0 200.0 -439.0 210.0 -449.0 222.0 -467.0 235.0 -484.0 245.0 -504.0 256.0 -525.0 263.0 -548.0 270.0 -570.0 270.0 -591.0 270.0 -600.0 267.0 -605.0 264.0 -610.0 258.0 -613.0 253.0 -615.0 247.0 -616.0 240.0 -617.0 234.0 -617.0 L218.0 -617.0 M123.0 -361.0 L123.0 -286.0 Q123.0 -261.0 124.0 -223.0 125.0 -186.0 128.0 -151.0 130.0 -116.0 134.0 -91.0 138.0 -66.0 144.0 -66.0 L147.0 -68.0 Q181.0 -72.0 204.0 -81.0 227.0 -89.0 241.0 -103.0 255.0 -117.0 261.0 -136.0 267.0 -156.0 267.0 -183.0 L267.0 -191.0 Q267.0 -212.0 265.0 -246.0 264.0 -280.0 250.0 -309.0 237.0 -339.0 207.0 -356.0 178.0 -373.0 123.0 -361.0 M22.0 -360.0 Q22.0 -367.0 22.0 -384.0 22.0 -401.0 23.0 -420.0 23.0 -439.0 23.0 -456.0 23.0 -473.0 23.0 -480.0 24.0 -503.0 26.0 -526.0 28.0 -548.0 31.0 -569.0 33.0 -589.0 35.0 -606.0 37.0 -623.0 37.0 -635.0 37.0 -651.0 44.0 -660.0 50.0 -669.0 61.0 -674.0 71.0 -678.0 85.0 -680.0 99.0 -681.0 113.0 -681.0 119.0 -681.0 125.0 -681.0 131.0 -681.0 138.0 -680.0 144.0 -680.0 151.0 -680.0 157.0 -680.0 164.0 -680.0 L221.0 -680.0 Q251.0 -680.0 280.0 -677.0 308.0 -675.0 330.0 -666.0 352.0 -657.0 365.0 -639.0 378.0 -621.0 378.0 -591.0 378.0 -584.0 378.0 -578.0 378.0 -572.0 378.0 -566.0 377.0 -561.0 376.0 -555.0 375.0 -549.0 373.0 -542.0 372.0 -537.0 366.0 -525.0 360.0 -514.0 353.0 -501.0 347.0 -488.0 341.0 -477.0 335.0 -466.0 333.0 -462.0 331.0 -457.0 325.0 -451.0 320.0 -445.0 315.0 -438.0 309.0 -431.0 305.0 -425.0 301.0 -419.0 301.0 -415.0 327.0 -392.0 340.0 -370.0 352.0 -348.0 358.0 -320.0 364.0 -292.0 366.0 -257.0 369.0 -222.0 375.0 -174.0 372.0 -166.0 371.0 -158.0 370.0 -149.0 369.0 -141.0 368.0 -132.0 368.0 -123.0 367.0 -115.0 365.0 -106.0 362.0 -93.0 351.0 -80.0 340.0 -67.0 325.0 -55.0 310.0 -44.0 295.0 -35.0 279.0 -27.0 267.0 -23.0 258.0 -20.0 245.0 -14.0 232.0 -9.0 216.0 -4.0 200.0 1.0 181.0 4.0 161.0 8.0 140.0 8.0 99.0 8.0 75.0 -11.0 51.0 -29.0 39.0 -59.0 27.0 -89.0 23.0 -126.0 20.0 -163.0 20.0 -201.0 20.0 -222.0 20.0 -242.0 21.0 -262.0 21.0 -282.0 21.0 -302.0 22.0 -322.0 22.0 -341.0 22.0 -360.0" fill-rule="evenodd" stroke="none"/>
    </g>
    <g id="font_Apple_Casual_l0">
      <path d="M71.0 -46.0 Q67.0 -74.0 66.0 -102.0 64.0 -130.0 63.0 -158.0 62.0 -185.0 62.0 -213.0 62.0 -240.0 62.0 -267.0 61.0 -323.0 59.0 -378.0 58.0 -434.0 55.0 -489.0 52.0 -544.0 48.0 -599.0 43.0 -655.0 36.0 -712.0 L22.0 -741.0 Q21.0 -750.0 32.0 -756.0 43.0 -761.0 58.0 -764.0 73.0 -767.0 89.0 -767.0 104.0 -768.0 110.0 -768.0 117.0 -768.0 122.0 -766.0 128.0 -765.0 132.0 -761.0 136.0 -757.0 139.0 -752.0 142.0 -746.0 143.0 -739.0 149.0 -697.0 153.0 -654.0 158.0 -612.0 161.0 -569.0 164.0 -526.0 165.0 -484.0 167.0 -441.0 167.0 -399.0 167.0 -360.0 167.0 -320.0 166.0 -280.0 167.0 -240.0 167.0 -201.0 170.0 -161.0 172.0 -121.0 177.0 -81.0 178.0 -75.0 179.0 -69.0 181.0 -62.0 183.0 -56.0 185.0 -51.0 186.0 -47.0 188.0 -42.0 188.0 -41.0 189.0 -32.0 187.0 -24.0 185.0 -16.0 180.0 -11.0 176.0 -6.0 169.0 -3.0 162.0 0.0 153.0 0.0 142.0 0.0 128.0 -4.0 115.0 -9.0 102.0 -15.0 90.0 -21.0 81.0 -28.0 73.0 -34.0 72.0 -39.0 72.0 -40.0 72.0 -41.0 72.0 -41.0 72.0 -42.0 71.0 -43.0 71.0 -44.0 71.0 -45.0 71.0 -46.0" fill-rule="evenodd" stroke="none"/>
    </g>
    <g id="font_Apple_Casual_a0">
      <path d="M131.0 -108.0 Q132.0 -106.0 133.0 -105.0 134.0 -103.0 136.0 -103.0 137.0 -102.0 138.0 -102.0 140.0 -102.0 141.0 -102.0 150.0 -102.0 160.0 -108.0 170.0 -114.0 178.0 -130.0 186.0 -145.0 191.0 -172.0 196.0 -198.0 196.0 -238.0 196.0 -249.0 195.0 -256.0 193.0 -263.0 190.0 -268.0 186.0 -272.0 180.0 -274.0 174.0 -276.0 164.0 -276.0 152.0 -276.0 146.0 -259.0 139.0 -241.0 136.0 -219.0 133.0 -196.0 132.0 -174.0 131.0 -152.0 131.0 -143.0 L131.0 -108.0 M244.0 -72.0 Q235.0 -54.0 227.0 -40.0 219.0 -27.0 208.0 -18.0 196.0 -9.0 180.0 -4.0 165.0 0.0 141.0 0.0 124.0 0.0 106.0 -3.0 87.0 -5.0 70.0 -13.0 54.0 -21.0 41.0 -36.0 28.0 -50.0 22.0 -74.0 20.0 -86.0 18.0 -130.0 17.0 -175.0 26.0 -224.0 34.0 -272.0 58.0 -311.0 81.0 -350.0 129.0 -350.0 138.0 -350.0 147.0 -349.0 156.0 -348.0 165.0 -347.0 173.0 -347.0 182.0 -346.0 191.0 -345.0 200.0 -345.0 202.0 -345.0 209.0 -352.0 216.0 -360.0 226.0 -367.0 237.0 -374.0 250.0 -376.0 264.0 -379.0 280.0 -369.0 289.0 -370.0 296.0 -358.0 303.0 -347.0 309.0 -328.0 314.0 -310.0 316.0 -287.0 319.0 -265.0 319.0 -243.0 319.0 -228.0 319.0 -219.0 318.0 -209.0 318.0 -202.0 318.0 -195.0 317.0 -190.0 317.0 -184.0 317.0 -178.0 317.0 -148.0 321.0 -126.0 325.0 -103.0 331.0 -87.0 336.0 -70.0 340.0 -58.0 344.0 -47.0 344.0 -38.0 344.0 -32.0 341.0 -27.0 339.0 -22.0 333.0 -18.0 326.0 -13.0 316.0 -9.0 305.0 -4.0 289.0 0.0 285.0 0.0 277.0 -4.0 270.0 -8.0 262.0 -16.0 255.0 -25.0 249.0 -38.0 244.0 -52.0 244.0 -72.0" fill-rule="evenodd" stroke="none"/>
    </g>
    <g id="font_Apple_Casual_c0">
      <path d="M135.0 -262.0 Q131.0 -255.0 126.0 -243.0 122.0 -231.0 119.0 -217.0 115.0 -202.0 113.0 -185.0 111.0 -168.0 111.0 -151.0 111.0 -134.0 113.0 -120.0 114.0 -106.0 119.0 -97.0 124.0 -87.0 133.0 -81.0 142.0 -76.0 156.0 -76.0 168.0 -76.0 177.0 -80.0 187.0 -84.0 194.0 -91.0 202.0 -97.0 208.0 -106.0 213.0 -115.0 217.0 -125.0 L238.0 -134.0 Q252.0 -133.0 261.0 -127.0 270.0 -121.0 275.0 -113.0 280.0 -105.0 283.0 -96.0 285.0 -87.0 286.0 -80.0 274.0 -50.0 259.0 -32.0 243.0 -15.0 224.0 -6.0 205.0 3.0 182.0 5.0 159.0 7.0 132.0 7.0 111.0 7.0 92.0 -1.0 73.0 -10.0 58.0 -23.0 43.0 -37.0 32.0 -54.0 22.0 -71.0 18.0 -89.0 18.0 -147.0 21.0 -185.0 24.0 -222.0 30.0 -246.0 35.0 -271.0 42.0 -287.0 50.0 -304.0 59.0 -321.0 L68.0 -336.0 Q73.0 -347.0 91.0 -354.0 109.0 -361.0 129.0 -366.0 149.0 -370.0 167.0 -372.0 185.0 -374.0 190.0 -374.0 L201.0 -374.0 Q204.0 -374.0 215.0 -368.0 227.0 -363.0 239.0 -351.0 251.0 -340.0 261.0 -324.0 272.0 -308.0 273.0 -287.0 273.0 -275.0 268.0 -266.0 263.0 -257.0 255.0 -252.0 247.0 -247.0 238.0 -244.0 228.0 -242.0 218.0 -242.0 207.0 -242.0 203.0 -243.0 200.0 -245.0 197.0 -248.0 194.0 -251.0 188.0 -257.0 183.0 -263.0 168.0 -272.0 168.0 -275.0 166.0 -277.0 164.0 -279.0 162.0 -281.0 160.0 -283.0 157.0 -284.0 155.0 -285.0 154.0 -285.0 151.0 -285.0 149.0 -283.0 146.0 -280.0 143.0 -277.0 140.0 -273.0 138.0 -269.0 136.0 -265.0 135.0 -262.0" fill-rule="evenodd" stroke="none"/>
    </g>
    <g id="font_Apple_Casual_k0">
      <path d="M27.0 -28.0 L31.0 -34.0 Q28.0 -94.0 25.0 -149.0 23.0 -205.0 22.0 -259.0 20.0 -314.0 21.0 -370.0 22.0 -425.0 25.0 -485.0 27.0 -521.0 30.0 -557.0 33.0 -594.0 36.0 -631.0 38.0 -667.0 39.0 -703.0 40.0 -739.0 37.0 -774.0 39.0 -782.0 44.0 -788.0 49.0 -793.0 56.0 -797.0 63.0 -801.0 70.0 -802.0 78.0 -804.0 84.0 -804.0 L87.0 -804.0 Q88.0 -804.0 89.0 -804.0 90.0 -804.0 92.0 -803.0 93.0 -803.0 94.0 -803.0 95.0 -803.0 96.0 -803.0 107.0 -801.0 116.0 -800.0 125.0 -798.0 132.0 -793.0 140.0 -789.0 144.0 -781.0 149.0 -773.0 150.0 -760.0 151.0 -742.0 150.0 -723.0 149.0 -704.0 148.0 -685.0 146.0 -667.0 144.0 -648.0 143.0 -629.0 141.0 -610.0 140.0 -594.0 138.0 -578.0 137.0 -562.0 135.0 -545.0 134.0 -529.0 133.0 -513.0 132.0 -497.0 132.0 -481.0 132.0 -479.0 133.0 -465.0 134.0 -450.0 136.0 -433.0 137.0 -417.0 138.0 -402.0 139.0 -388.0 139.0 -386.0 139.0 -385.0 138.0 -382.0 137.0 -379.0 137.0 -375.0 136.0 -371.0 135.0 -368.0 135.0 -365.0 135.0 -364.0 L135.0 -357.0 Q135.0 -355.0 136.0 -353.0 136.0 -351.0 137.0 -349.0 137.0 -347.0 138.0 -345.0 139.0 -343.0 141.0 -340.0 L146.0 -342.0 Q155.0 -346.0 165.0 -350.0 175.0 -355.0 185.0 -358.0 194.0 -362.0 204.0 -366.0 214.0 -369.0 224.0 -372.0 225.0 -372.0 229.0 -373.0 234.0 -374.0 240.0 -374.0 245.0 -375.0 250.0 -376.0 256.0 -377.0 257.0 -377.0 260.0 -378.0 266.0 -380.0 272.0 -382.0 279.0 -384.0 286.0 -386.0 293.0 -387.0 300.0 -389.0 304.0 -389.0 L306.0 -389.0 Q318.0 -386.0 328.0 -385.0 338.0 -384.0 346.0 -381.0 354.0 -378.0 361.0 -372.0 368.0 -366.0 374.0 -354.0 L374.0 -349.0 Q372.0 -344.0 369.0 -340.0 365.0 -335.0 361.0 -331.0 357.0 -327.0 352.0 -324.0 348.0 -321.0 342.0 -321.0 341.0 -321.0 334.0 -321.0 327.0 -320.0 319.0 -319.0 311.0 -319.0 304.0 -318.0 297.0 -318.0 295.0 -318.0 295.0 -318.0 290.0 -317.0 286.0 -315.0 280.0 -314.0 274.0 -312.0 268.0 -310.0 262.0 -309.0 259.0 -308.0 256.0 -307.0 251.0 -305.0 246.0 -303.0 241.0 -301.0 236.0 -300.0 232.0 -298.0 228.0 -297.0 227.0 -297.0 225.0 -296.0 221.0 -294.0 217.0 -292.0 213.0 -290.0 209.0 -288.0 206.0 -285.0 204.0 -282.0 204.0 -280.0 230.0 -246.0 253.0 -217.0 276.0 -188.0 299.0 -159.0 321.0 -130.0 344.0 -99.0 366.0 -68.0 391.0 -30.0 391.0 -30.0 392.0 -28.0 393.0 -26.0 394.0 -25.0 395.0 -23.0 395.0 -21.0 396.0 -20.0 396.0 -20.0 396.0 -15.0 392.0 -12.0 387.0 -8.0 381.0 -5.0 375.0 -3.0 368.0 -2.0 361.0 0.0 357.0 0.0 351.0 0.0 342.0 0.0 333.0 -1.0 324.0 -2.0 315.0 -3.0 307.0 -5.0 299.0 -8.0 294.0 -12.0 293.0 -13.0 288.0 -18.0 283.0 -22.0 277.0 -28.0 270.0 -34.0 264.0 -39.0 259.0 -45.0 256.0 -48.0 233.0 -84.0 216.0 -108.0 198.0 -132.0 185.0 -148.0 172.0 -165.0 161.0 -178.0 151.0 -191.0 141.0 -206.0 L136.0 -206.0 Q136.0 -205.0 136.0 -203.0 136.0 -201.0 137.0 -198.0 137.0 -196.0 137.0 -194.0 137.0 -192.0 137.0 -191.0 137.0 -183.0 137.0 -176.0 136.0 -168.0 136.0 -161.0 135.0 -154.0 134.0 -146.0 134.0 -139.0 134.0 -131.0 L139.0 -103.0 139.0 -98.0 Q139.0 -97.0 139.0 -95.0 139.0 -93.0 138.0 -91.0 138.0 -89.0 137.0 -87.0 136.0 -85.0 136.0 -84.0 L147.0 -38.0 Q147.0 -33.0 148.0 -30.0 149.0 -27.0 148.0 -24.0 147.0 -21.0 144.0 -16.0 142.0 -10.0 134.0 0.0 133.0 0.0 130.0 1.0 128.0 1.0 125.0 1.0 122.0 1.0 119.0 1.0 117.0 1.0 116.0 1.0 103.0 2.0 91.0 1.0 79.0 0.0 67.0 -3.0 56.0 -6.0 46.0 -12.0 36.0 -18.0 27.0 -28.0" fill-rule="evenodd" stroke="none"/>
    </g>
    <g id="font_Apple_Casual_C0">
      <path d="M212.0 -114.0 Q215.0 -114.0 217.0 -113.0 219.0 -112.0 221.0 -112.0 223.0 -111.0 224.0 -110.0 226.0 -110.0 228.0 -110.0 243.0 -110.0 251.0 -122.0 260.0 -134.0 268.0 -149.0 275.0 -164.0 285.0 -176.0 295.0 -188.0 311.0 -188.0 316.0 -188.0 323.0 -187.0 331.0 -186.0 338.0 -183.0 345.0 -180.0 351.0 -174.0 356.0 -168.0 356.0 -157.0 356.0 -154.0 356.0 -150.0 355.0 -147.0 355.0 -144.0 355.0 -141.0 354.0 -138.0 354.0 -135.0 354.0 -132.0 L351.0 -114.0 Q351.0 -87.0 342.0 -68.0 334.0 -49.0 318.0 -36.0 303.0 -23.0 281.0 -16.0 260.0 -9.0 234.0 -6.0 179.0 -7.0 139.0 -38.0 98.0 -69.0 71.0 -115.0 44.0 -161.0 30.0 -215.0 17.0 -269.0 17.0 -316.0 17.0 -363.0 23.0 -427.0 30.0 -491.0 52.0 -548.0 75.0 -606.0 119.0 -646.0 163.0 -686.0 239.0 -686.0 257.0 -686.0 275.0 -683.0 293.0 -680.0 309.0 -673.0 325.0 -665.0 338.0 -652.0 351.0 -638.0 358.0 -617.0 L358.0 -609.0 Q358.0 -595.0 353.0 -582.0 349.0 -569.0 340.0 -558.0 332.0 -547.0 320.0 -541.0 309.0 -534.0 295.0 -534.0 287.0 -534.0 281.0 -536.0 275.0 -539.0 271.0 -543.0 267.0 -547.0 265.0 -553.0 262.0 -559.0 261.0 -565.0 L260.0 -569.0 Q260.0 -572.0 260.0 -575.0 260.0 -578.0 260.0 -580.0 259.0 -583.0 259.0 -586.0 259.0 -588.0 259.0 -591.0 259.0 -592.0 259.0 -594.0 259.0 -595.0 260.0 -596.0 260.0 -598.0 260.0 -599.0 260.0 -600.0 260.0 -602.0 258.0 -605.0 256.0 -606.0 253.0 -608.0 251.0 -609.0 248.0 -610.0 245.0 -611.0 242.0 -611.0 239.0 -611.0 L230.0 -611.0 Q192.0 -600.0 169.0 -563.0 146.0 -526.0 133.0 -477.0 121.0 -429.0 117.0 -378.0 113.0 -327.0 113.0 -289.0 113.0 -262.0 119.0 -233.0 125.0 -204.0 137.0 -178.0 150.0 -153.0 168.0 -135.0 187.0 -117.0 212.0 -114.0" fill-rule="evenodd" stroke="none"/>
    </g>
    <g id="font_Apple_Casual_r0">
      <path d="M24.0 -47.0 Q21.0 -89.0 21.0 -129.0 22.0 -168.0 24.0 -207.0 25.0 -247.0 25.0 -286.0 25.0 -326.0 20.0 -368.0 24.0 -375.0 29.0 -378.0 34.0 -381.0 40.0 -383.0 46.0 -384.0 53.0 -385.0 60.0 -385.0 67.0 -387.0 67.0 -387.0 71.0 -388.0 74.0 -389.0 79.0 -390.0 83.0 -391.0 87.0 -392.0 91.0 -393.0 92.0 -393.0 L96.0 -393.0 Q102.0 -393.0 107.0 -391.0 112.0 -388.0 116.0 -383.0 120.0 -379.0 122.0 -373.0 125.0 -368.0 125.0 -362.0 125.0 -354.0 125.0 -353.0 125.0 -351.0 125.0 -351.0 125.0 -350.0 125.0 -348.0 125.0 -347.0 125.0 -338.0 127.0 -338.0 132.0 -338.0 136.0 -337.0 142.0 -337.0 147.0 -337.0 151.0 -338.0 156.0 -338.0 158.0 -339.0 172.0 -340.0 184.0 -343.0 196.0 -346.0 208.0 -348.0 220.0 -351.0 232.0 -353.0 244.0 -355.0 257.0 -356.0 L284.0 -356.0 Q288.0 -355.0 292.0 -353.0 296.0 -351.0 299.0 -348.0 302.0 -345.0 304.0 -341.0 307.0 -337.0 307.0 -333.0 307.0 -332.0 307.0 -331.0 307.0 -330.0 307.0 -329.0 307.0 -328.0 307.0 -327.0 307.0 -326.0 307.0 -326.0 306.0 -324.0 302.0 -319.0 299.0 -314.0 294.0 -309.0 290.0 -304.0 285.0 -299.0 281.0 -295.0 279.0 -294.0 278.0 -293.0 273.0 -292.0 269.0 -291.0 264.0 -290.0 259.0 -289.0 254.0 -289.0 250.0 -288.0 248.0 -288.0 248.0 -288.0 244.0 -287.0 241.0 -286.0 237.0 -285.0 233.0 -284.0 229.0 -283.0 225.0 -282.0 224.0 -282.0 222.0 -282.0 214.0 -280.0 207.0 -279.0 198.0 -278.0 189.0 -277.0 182.0 -276.0 174.0 -275.0 172.0 -275.0 150.0 -277.0 142.0 -245.0 135.0 -214.0 135.0 -174.0 134.0 -133.0 138.0 -97.0 142.0 -60.0 142.0 -52.0 142.0 -46.0 143.0 -38.0 143.0 -30.0 142.0 -22.0 141.0 -15.0 138.0 -8.0 134.0 -1.0 128.0 2.0 127.0 2.0 124.0 3.0 122.0 3.0 119.0 3.0 116.0 3.0 114.0 3.0 112.0 3.0 111.0 3.0 103.0 3.0 96.0 3.0 90.0 2.0 83.0 1.0 76.0 -1.0 70.0 -3.0 63.0 -5.0 55.0 -8.0 55.0 -8.0 54.0 -8.0 54.0 -8.0 54.0 -8.0 54.0 -9.0 54.0 -9.0 53.0 -9.0 53.0 -9.0 45.0 -11.0 40.0 -14.0 35.0 -17.0 31.0 -22.0 28.0 -26.0 26.0 -32.0 25.0 -38.0 24.0 -47.0" fill-rule="evenodd" stroke="none"/>
    </g>
    <g id="font_Apple_Casual_o0">
      <path d="M128.0 -209.0 Q128.0 -203.0 132.0 -180.0 136.0 -157.0 143.0 -131.0 149.0 -106.0 157.0 -85.0 166.0 -65.0 175.0 -65.0 184.0 -65.0 191.0 -79.0 198.0 -93.0 202.0 -112.0 207.0 -131.0 209.0 -150.0 211.0 -169.0 211.0 -179.0 211.0 -191.0 210.0 -210.0 209.0 -228.0 204.0 -245.0 199.0 -262.0 189.0 -274.0 179.0 -286.0 161.0 -286.0 150.0 -286.0 144.0 -277.0 137.0 -268.0 134.0 -255.0 130.0 -242.0 129.0 -229.0 128.0 -216.0 128.0 -209.0 M18.0 -204.0 Q18.0 -213.0 20.0 -221.0 22.0 -230.0 24.0 -238.0 26.0 -247.0 28.0 -256.0 30.0 -265.0 30.0 -275.0 30.0 -276.0 30.0 -277.0 30.0 -278.0 30.0 -279.0 29.0 -280.0 29.0 -280.0 29.0 -281.0 29.0 -282.0 29.0 -300.0 44.0 -314.0 60.0 -329.0 81.0 -339.0 103.0 -349.0 127.0 -355.0 151.0 -360.0 168.0 -360.0 209.0 -360.0 238.0 -346.0 266.0 -332.0 284.0 -308.0 302.0 -284.0 310.0 -252.0 318.0 -221.0 318.0 -185.0 318.0 -170.0 316.0 -158.0 314.0 -145.0 311.0 -133.0 307.0 -120.0 303.0 -107.0 299.0 -94.0 295.0 -78.0 286.0 -44.0 268.0 -26.0 251.0 -8.0 232.0 0.0 213.0 9.0 194.0 10.0 175.0 11.0 163.0 11.0 130.0 11.0 109.0 4.0 89.0 -3.0 75.0 -19.0 62.0 -35.0 54.0 -59.0 45.0 -84.0 37.0 -120.0 34.0 -130.0 31.0 -140.0 28.0 -151.0 25.0 -161.0 22.0 -172.0 20.0 -182.0 18.0 -193.0 18.0 -204.0" fill-rule="evenodd" stroke="none"/>
    </g>
    <g id="font_Apple_Casual_w0">
      <path d="M45.0 -236.0 Q41.0 -242.0 39.0 -247.0 37.0 -252.0 35.0 -256.0 34.0 -261.0 33.0 -264.0 33.0 -268.0 33.0 -271.0 33.0 -273.0 33.0 -275.0 33.0 -276.0 34.0 -278.0 34.0 -279.0 34.0 -280.0 34.0 -281.0 34.0 -282.0 33.0 -287.0 30.0 -297.0 27.0 -307.0 24.0 -318.0 21.0 -328.0 19.0 -338.0 17.0 -348.0 17.0 -354.0 17.0 -362.0 26.0 -368.0 36.0 -373.0 48.0 -376.0 61.0 -379.0 73.0 -380.0 85.0 -382.0 91.0 -382.0 92.0 -382.0 93.0 -381.0 94.0 -381.0 95.0 -381.0 97.0 -381.0 98.0 -381.0 100.0 -381.0 101.0 -381.0 103.0 -381.0 104.0 -381.0 105.0 -381.0 107.0 -381.0 108.0 -381.0 109.0 -381.0 110.0 -382.0 111.0 -382.0 119.0 -379.0 125.0 -353.0 131.0 -328.0 136.0 -298.0 141.0 -268.0 145.0 -242.0 148.0 -217.0 151.0 -214.0 L151.0 -213.0 Q151.0 -211.0 151.0 -207.0 152.0 -203.0 153.0 -199.0 154.0 -194.0 156.0 -190.0 157.0 -186.0 160.0 -184.0 171.0 -194.0 175.0 -210.0 179.0 -227.0 186.0 -243.0 193.0 -259.0 207.0 -271.0 222.0 -283.0 254.0 -283.0 271.0 -283.0 281.0 -277.0 291.0 -271.0 299.0 -260.0 306.0 -249.0 313.0 -234.0 319.0 -220.0 329.0 -203.0 330.0 -198.0 331.0 -192.0 332.0 -185.0 334.0 -179.0 335.0 -172.0 339.0 -167.0 342.0 -161.0 348.0 -157.0 355.0 -166.0 361.0 -200.0 367.0 -234.0 375.0 -272.0 382.0 -310.0 391.0 -341.0 400.0 -371.0 412.0 -373.0 419.0 -377.0 430.0 -379.0 441.0 -381.0 453.0 -382.0 464.0 -383.0 473.0 -383.0 483.0 -383.0 487.0 -383.0 495.0 -383.0 499.0 -381.0 504.0 -379.0 507.0 -375.0 509.0 -370.0 510.0 -364.0 511.0 -357.0 511.0 -347.0 L511.0 -338.0 Q501.0 -326.0 494.0 -303.0 486.0 -280.0 480.0 -255.0 474.0 -230.0 469.0 -206.0 465.0 -182.0 461.0 -167.0 455.0 -161.0 452.0 -154.0 450.0 -147.0 449.0 -139.0 448.0 -132.0 448.0 -125.0 447.0 -117.0 444.0 -109.0 440.0 -97.0 435.0 -84.0 430.0 -72.0 425.0 -59.0 419.0 -46.0 413.0 -34.0 406.0 -22.0 400.0 -11.0 399.0 -11.0 395.0 -10.0 392.0 -10.0 389.0 -10.0 385.0 -10.0 382.0 -10.0 379.0 -10.0 378.0 -10.0 367.0 -10.0 358.0 -11.0 349.0 -12.0 340.0 -14.0 331.0 -15.0 322.0 -16.0 313.0 -18.0 301.0 -18.0 295.0 -22.0 287.0 -37.0 279.0 -52.0 271.0 -68.0 263.0 -84.0 256.0 -97.0 249.0 -110.0 244.0 -110.0 244.0 -105.0 241.0 -100.0 239.0 -96.0 237.0 -91.0 234.0 -86.0 232.0 -81.0 230.0 -76.0 230.0 -70.0 230.0 -64.0 226.0 -53.0 222.0 -42.0 216.0 -31.0 211.0 -20.0 205.0 -12.0 199.0 -4.0 196.0 -4.0 184.0 -4.0 172.0 -5.0 161.0 -7.0 149.0 -9.0 137.0 -11.0 126.0 -15.0 114.0 -18.0 102.0 -23.0 95.0 -24.0 88.0 -33.0 82.0 -41.0 78.0 -52.0 73.0 -62.0 70.0 -74.0 67.0 -85.0 66.0 -93.0 L45.0 -236.0" fill-rule="evenodd" stroke="none"/>
    </g>
    <g id="font_Apple_Casual_n0">
      <path d="M271.0 -11.0 Q271.0 -12.0 272.0 -21.0 273.0 -29.0 275.0 -46.0 276.0 -63.0 277.0 -89.0 278.0 -116.0 278.0 -153.0 278.0 -155.0 277.0 -161.0 276.0 -167.0 275.0 -174.0 273.0 -181.0 272.0 -187.0 271.0 -193.0 271.0 -195.0 271.0 -202.0 271.0 -211.0 271.0 -219.0 270.0 -228.0 269.0 -237.0 266.0 -245.0 263.0 -253.0 256.0 -258.0 210.0 -248.0 188.0 -232.0 166.0 -217.0 157.0 -192.0 148.0 -167.0 147.0 -132.0 146.0 -96.0 142.0 -47.0 142.0 -35.0 140.0 -26.0 137.0 -16.0 132.0 -9.0 127.0 -2.0 119.0 2.0 111.0 6.0 100.0 6.0 96.0 6.0 92.0 6.0 88.0 6.0 85.0 5.0 82.0 4.0 79.0 3.0 76.0 1.0 74.0 -1.0 65.0 -2.0 60.0 -3.0 54.0 -4.0 50.0 -5.0 45.0 -7.0 41.0 -10.0 37.0 -14.0 31.0 -22.0 31.0 -60.0 30.0 -98.0 29.0 -136.0 29.0 -173.0 28.0 -211.0 27.0 -249.0 26.0 -287.0 26.0 -325.0 26.0 -329.0 25.0 -333.0 24.0 -336.0 23.0 -339.0 22.0 -342.0 21.0 -344.0 20.0 -346.0 20.0 -347.0 20.0 -359.0 30.0 -366.0 39.0 -373.0 52.0 -377.0 65.0 -381.0 77.0 -383.0 90.0 -384.0 96.0 -384.0 L141.0 -362.0 141.0 -296.0 Q165.0 -309.0 174.0 -318.0 184.0 -326.0 196.0 -330.0 207.0 -334.0 229.0 -336.0 252.0 -337.0 301.0 -337.0 307.0 -337.0 315.0 -337.0 324.0 -337.0 332.0 -336.0 341.0 -336.0 348.0 -333.0 356.0 -331.0 361.0 -326.0 367.0 -317.0 372.0 -299.0 377.0 -281.0 380.0 -260.0 383.0 -239.0 385.0 -217.0 387.0 -196.0 388.0 -178.0 388.0 -175.0 388.0 -167.0 388.0 -158.0 388.0 -146.0 387.0 -134.0 387.0 -120.0 387.0 -107.0 387.0 -95.0 387.0 -78.0 388.0 -65.0 389.0 -52.0 390.0 -42.0 391.0 -32.0 392.0 -25.0 393.0 -17.0 393.0 -13.0 393.0 -12.0 393.0 -12.0 393.0 -11.0 393.0 -10.0 392.0 -9.0 392.0 -9.0 392.0 -8.0 392.0 -8.0 392.0 -6.0 392.0 -5.0 392.0 -3.0 393.0 -2.0 393.0 0.0 393.0 1.0 393.0 2.0 393.0 3.0 393.0 9.0 388.0 13.0 382.0 17.0 375.0 19.0 367.0 21.0 360.0 21.0 353.0 22.0 349.0 22.0 340.0 22.0 329.0 20.0 317.0 18.0 307.0 15.0 296.0 11.0 286.0 4.0 277.0 -2.0 271.0 -11.0" fill-rule="evenodd" stroke="none"/>
    </g>
    <g id="font_Apple_Casual_:0">
      <path d="M20.0 -42.0 Q20.0 -42.0 20.0 -42.0 21.0 -43.0 21.0 -44.0 21.0 -44.0 22.0 -45.0 22.0 -46.0 22.0 -46.0 30.0 -56.0 37.0 -63.0 45.0 -71.0 54.0 -76.0 63.0 -81.0 73.0 -83.0 84.0 -86.0 96.0 -86.0 106.0 -86.0 114.0 -84.0 121.0 -82.0 127.0 -77.0 132.0 -72.0 134.0 -65.0 137.0 -57.0 137.0 -47.0 137.0 -41.0 135.0 -35.0 134.0 -29.0 131.0 -24.0 128.0 -19.0 124.0 -14.0 120.0 -10.0 115.0 -6.0 114.0 -6.0 110.0 -6.0 107.0 -6.0 103.0 -5.0 99.0 -5.0 96.0 -5.0 93.0 -5.0 92.0 -5.0 82.0 -5.0 72.0 -7.0 62.0 -8.0 53.0 -12.0 43.0 -16.0 35.0 -22.0 28.0 -29.0 22.0 -38.0 22.0 -38.0 22.0 -38.0 21.0 -39.0 21.0 -40.0 21.0 -40.0 20.0 -41.0 20.0 -42.0 20.0 -42.0 M20.0 -302.0 Q20.0 -302.0 20.0 -302.0 21.0 -303.0 21.0 -304.0 21.0 -304.0 22.0 -305.0 22.0 -306.0 22.0 -306.0 30.0 -316.0 37.0 -323.0 45.0 -331.0 54.0 -336.0 63.0 -341.0 73.0 -343.0 84.0 -346.0 96.0 -346.0 106.0 -346.0 114.0 -344.0 121.0 -342.0 127.0 -337.0 132.0 -332.0 134.0 -325.0 137.0 -317.0 137.0 -307.0 137.0 -301.0 135.0 -295.0 134.0 -289.0 131.0 -284.0 128.0 -279.0 124.0 -274.0 120.0 -270.0 115.0 -266.0 114.0 -266.0 110.0 -266.0 107.0 -266.0 103.0 -265.0 99.0 -265.0 96.0 -265.0 93.0 -265.0 92.0 -265.0 82.0 -265.0 72.0 -267.0 62.0 -268.0 53.0 -272.0 43.0 -276.0 35.0 -282.0 28.0 -289.0 22.0 -298.0 22.0 -298.0 22.0 -298.0 21.0 -299.0 21.0 -300.0 21.0 -300.0 20.0 -301.0 20.0 -302.0 20.0 -302.0" fill-rule="evenodd" stroke="none"/>
    </g>
  </defs>
</svg>
