<?xml version="1.0" encoding="UTF-8" standalone="no"?>
<svg xmlns:ffdec="https://www.free-decompiler.com/flash" xmlns:xlink="http://www.w3.org/1999/xlink" ffdec:objectType="text" height="23.7px" width="122.15px" xmlns="http://www.w3.org/2000/svg">
  <g transform="matrix(1.0, 0.0, 0.0, 1.0, -0.6, -1.3)">
    <g transform="matrix(1.0, 0.0, 0.0, 1.0, 0.0, 0.0)">
      <use fill="#ffffff" height="23.7" transform="matrix(0.0244, 0.0, 0.0, 0.0244, 0.0, 20.0)" width="122.15" xlink:href="#font_Apple_Casual_S0"/>
      <use fill="#ffffff" height="23.7" transform="matrix(0.0244, 0.0, 0.0, 0.0244, 8.6, 20.0)" width="122.15" xlink:href="#font_Apple_Casual_u0"/>
      <use fill="#ffffff" height="23.7" transform="matrix(0.0244, 0.0, 0.0, 0.0244, 19.05, 20.0)" width="122.15" xlink:href="#font_Apple_Casual_n0"/>
      <use fill="#ffffff" height="23.7" transform="matrix(0.0244, 0.0, 0.0, 0.0244, 29.15, 20.0)" width="122.15" xlink:href="#font_Apple_Casual_g0"/>
      <use fill="#ffffff" height="23.7" transform="matrix(0.0244, 0.0, 0.0, 0.0244, 36.6, 20.0)" width="122.15" xlink:href="#font_Apple_Casual_l0"/>
      <use fill="#ffffff" height="23.7" transform="matrix(0.0244, 0.0, 0.0, 0.0244, 41.75, 20.0)" width="122.15" xlink:href="#font_Apple_Casual_a0"/>
      <use fill="#ffffff" height="23.7" transform="matrix(0.0244, 0.0, 0.0, 0.0244, 50.65, 20.0)" width="122.15" xlink:href="#font_Apple_Casual_s0"/>
      <use fill="#ffffff" height="23.7" transform="matrix(0.0244, 0.0, 0.0, 0.0244, 58.2, 20.0)" width="122.15" xlink:href="#font_Apple_Casual_s0"/>
      <use fill="#ffffff" height="23.7" transform="matrix(0.0244, 0.0, 0.0, 0.0244, 65.75, 20.0)" width="122.15" xlink:href="#font_Apple_Casual_e0"/>
      <use fill="#ffffff" height="23.7" transform="matrix(0.0244, 0.0, 0.0, 0.0244, 74.25, 20.0)" width="122.15" xlink:href="#font_Apple_Casual_s0"/>
      <use fill="#ffffff" height="23.7" transform="matrix(0.0244, 0.0, 0.0, 0.0244, 81.8, 20.0)" width="122.15" xlink:href="#font_Apple_Casual_:0"/>
    </g>
  </g>
  <defs>
    <g id="font_Apple_Casual_S0">
      <path d="M62.0 -227.0 Q100.0 -228.0 108.0 -207.0 116.0 -187.0 118.0 -162.0 119.0 -137.0 124.0 -117.0 130.0 -96.0 164.0 -96.0 178.0 -96.0 190.0 -99.0 203.0 -102.0 213.0 -109.0 222.0 -116.0 228.0 -128.0 234.0 -139.0 234.0 -157.0 234.0 -158.0 234.0 -159.0 234.0 -161.0 234.0 -162.0 233.0 -164.0 233.0 -165.0 233.0 -166.0 233.0 -168.0 225.0 -211.0 214.0 -235.0 202.0 -259.0 185.0 -279.0 168.0 -299.0 143.0 -325.0 119.0 -350.0 84.0 -397.0 66.0 -422.0 53.0 -442.0 41.0 -462.0 33.0 -479.0 24.0 -496.0 21.0 -511.0 17.0 -527.0 17.0 -542.0 17.0 -574.0 25.0 -601.0 32.0 -628.0 49.0 -648.0 65.0 -667.0 90.0 -678.0 116.0 -689.0 152.0 -689.0 176.0 -689.0 203.0 -687.0 229.0 -685.0 253.0 -675.0 277.0 -665.0 297.0 -643.0 316.0 -622.0 327.0 -582.0 L327.0 -573.0 Q327.0 -560.0 323.0 -547.0 319.0 -533.0 311.0 -522.0 304.0 -512.0 293.0 -505.0 283.0 -498.0 271.0 -498.0 264.0 -498.0 259.0 -500.0 254.0 -503.0 250.0 -507.0 247.0 -511.0 244.0 -517.0 242.0 -523.0 241.0 -529.0 L240.0 -534.0 240.0 -553.0 Q239.0 -568.0 235.0 -578.0 231.0 -588.0 224.0 -594.0 218.0 -600.0 209.0 -603.0 201.0 -606.0 190.0 -606.0 165.0 -606.0 151.0 -599.0 136.0 -592.0 129.0 -580.0 122.0 -569.0 121.0 -555.0 119.0 -540.0 119.0 -525.0 119.0 -502.0 145.0 -467.0 171.0 -432.0 202.0 -396.0 234.0 -360.0 261.0 -329.0 288.0 -298.0 290.0 -285.0 302.0 -271.0 310.0 -255.0 319.0 -238.0 324.0 -221.0 330.0 -204.0 332.0 -186.0 335.0 -169.0 335.0 -152.0 335.0 -120.0 327.0 -93.0 320.0 -65.0 303.0 -46.0 287.0 -26.0 262.0 -15.0 236.0 -4.0 201.0 -4.0 170.0 -4.0 139.0 -11.0 108.0 -17.0 83.0 -32.0 58.0 -48.0 43.0 -72.0 27.0 -97.0 28.0 -133.0 28.0 -136.0 28.0 -139.0 28.0 -143.0 29.0 -146.0 29.0 -150.0 30.0 -153.0 30.0 -157.0 31.0 -160.0 L32.0 -178.0 34.0 -189.0 Q36.0 -201.0 38.0 -208.0 40.0 -215.0 42.0 -220.0 45.0 -224.0 50.0 -225.0 54.0 -227.0 62.0 -227.0" fill-rule="evenodd" stroke="none"/>
    </g>
    <g id="font_Apple_Casual_u0">
      <path d="M272.0 -101.0 Q260.0 -83.0 245.0 -71.0 230.0 -59.0 213.0 -51.0 196.0 -44.0 176.0 -40.0 156.0 -37.0 133.0 -37.0 125.0 -37.0 116.0 -37.0 107.0 -38.0 99.0 -39.0 91.0 -40.0 84.0 -42.0 77.0 -44.0 72.0 -47.0 48.0 -62.0 38.0 -90.0 27.0 -118.0 24.0 -148.0 21.0 -178.0 22.0 -206.0 23.0 -234.0 23.0 -250.0 23.0 -258.0 23.0 -266.0 23.0 -273.0 23.0 -280.0 23.0 -287.0 23.0 -292.0 24.0 -297.0 24.0 -300.0 22.0 -302.0 21.0 -304.0 19.0 -306.0 19.0 -307.0 18.0 -309.0 18.0 -311.0 18.0 -313.0 18.0 -315.0 18.0 -324.0 27.0 -331.0 35.0 -338.0 47.0 -343.0 59.0 -348.0 71.0 -350.0 83.0 -353.0 90.0 -353.0 96.0 -353.0 103.0 -351.0 111.0 -348.0 118.0 -344.0 125.0 -340.0 131.0 -334.0 136.0 -328.0 139.0 -321.0 139.0 -314.0 138.0 -307.0 138.0 -300.0 138.0 -293.0 138.0 -285.0 138.0 -278.0 138.0 -270.0 138.0 -262.0 138.0 -246.0 138.0 -224.0 138.0 -202.0 139.0 -181.0 141.0 -159.0 144.0 -143.0 148.0 -126.0 156.0 -121.0 194.0 -121.0 208.0 -145.0 222.0 -169.0 227.0 -203.0 231.0 -238.0 233.0 -276.0 234.0 -315.0 246.0 -344.0 249.0 -353.0 256.0 -358.0 264.0 -362.0 273.0 -364.0 282.0 -365.0 292.0 -365.0 302.0 -365.0 310.0 -365.0 331.0 -365.0 340.0 -354.0 348.0 -344.0 350.0 -328.0 352.0 -312.0 351.0 -293.0 349.0 -274.0 352.0 -258.0 358.0 -231.0 362.0 -206.0 366.0 -181.0 370.0 -157.0 375.0 -133.0 382.0 -110.0 389.0 -86.0 403.0 -62.0 403.0 -62.0 406.0 -60.0 408.0 -57.0 411.0 -55.0 414.0 -52.0 416.0 -50.0 419.0 -48.0 419.0 -47.0 419.0 -36.0 417.0 -28.0 414.0 -19.0 408.0 -13.0 402.0 -7.0 392.0 -3.0 382.0 0.0 367.0 0.0 364.0 0.0 361.0 -1.0 358.0 -2.0 354.0 -4.0 350.0 -5.0 347.0 -7.0 343.0 -9.0 340.0 -11.0 322.0 -21.0 311.0 -31.0 300.0 -42.0 293.0 -53.0 286.0 -65.0 281.0 -77.0 277.0 -89.0 272.0 -101.0" fill-rule="evenodd" stroke="none"/>
    </g>
    <g id="font_Apple_Casual_n0">
      <path d="M271.0 -11.0 Q271.0 -12.0 272.0 -21.0 273.0 -29.0 275.0 -46.0 276.0 -63.0 277.0 -89.0 278.0 -116.0 278.0 -153.0 278.0 -155.0 277.0 -161.0 276.0 -167.0 275.0 -174.0 273.0 -181.0 272.0 -187.0 271.0 -193.0 271.0 -195.0 271.0 -202.0 271.0 -211.0 271.0 -219.0 270.0 -228.0 269.0 -237.0 266.0 -245.0 263.0 -253.0 256.0 -258.0 210.0 -248.0 188.0 -232.0 166.0 -217.0 157.0 -192.0 148.0 -167.0 147.0 -132.0 146.0 -96.0 142.0 -47.0 142.0 -35.0 140.0 -26.0 137.0 -16.0 132.0 -9.0 127.0 -2.0 119.0 2.0 111.0 6.0 100.0 6.0 96.0 6.0 92.0 6.0 88.0 6.0 85.0 5.0 82.0 4.0 79.0 3.0 76.0 1.0 74.0 -1.0 65.0 -2.0 60.0 -3.0 54.0 -4.0 50.0 -5.0 45.0 -7.0 41.0 -10.0 37.0 -14.0 31.0 -22.0 31.0 -60.0 30.0 -98.0 29.0 -136.0 29.0 -173.0 28.0 -211.0 27.0 -249.0 26.0 -287.0 26.0 -325.0 26.0 -329.0 25.0 -333.0 24.0 -336.0 23.0 -339.0 22.0 -342.0 21.0 -344.0 20.0 -346.0 20.0 -347.0 20.0 -359.0 30.0 -366.0 39.0 -373.0 52.0 -377.0 65.0 -381.0 77.0 -383.0 90.0 -384.0 96.0 -384.0 L141.0 -362.0 141.0 -296.0 Q165.0 -309.0 174.0 -318.0 184.0 -326.0 196.0 -330.0 207.0 -334.0 229.0 -336.0 252.0 -337.0 301.0 -337.0 307.0 -337.0 315.0 -337.0 324.0 -337.0 332.0 -336.0 341.0 -336.0 348.0 -333.0 356.0 -331.0 361.0 -326.0 367.0 -317.0 372.0 -299.0 377.0 -281.0 380.0 -260.0 383.0 -239.0 385.0 -217.0 387.0 -196.0 388.0 -178.0 388.0 -175.0 388.0 -167.0 388.0 -158.0 388.0 -146.0 387.0 -134.0 387.0 -120.0 387.0 -107.0 387.0 -95.0 387.0 -78.0 388.0 -65.0 389.0 -52.0 390.0 -42.0 391.0 -32.0 392.0 -25.0 393.0 -17.0 393.0 -13.0 393.0 -12.0 393.0 -12.0 393.0 -11.0 393.0 -10.0 392.0 -9.0 392.0 -9.0 392.0 -8.0 392.0 -8.0 392.0 -6.0 392.0 -5.0 392.0 -3.0 393.0 -2.0 393.0 0.0 393.0 1.0 393.0 2.0 393.0 3.0 393.0 9.0 388.0 13.0 382.0 17.0 375.0 19.0 367.0 21.0 360.0 21.0 353.0 22.0 349.0 22.0 340.0 22.0 329.0 20.0 317.0 18.0 307.0 15.0 296.0 11.0 286.0 4.0 277.0 -2.0 271.0 -11.0" fill-rule="evenodd" stroke="none"/>
    </g>
    <g id="font_Apple_Casual_g0">
      <path d="M131.0 -198.0 Q133.0 -189.0 136.0 -183.0 138.0 -177.0 140.0 -173.0 143.0 -170.0 146.0 -168.0 149.0 -167.0 152.0 -167.0 156.0 -167.0 159.0 -173.0 163.0 -180.0 165.0 -190.0 167.0 -201.0 169.0 -214.0 170.0 -227.0 170.0 -240.0 170.0 -250.0 169.0 -260.0 168.0 -269.0 166.0 -277.0 164.0 -284.0 161.0 -289.0 158.0 -293.0 154.0 -293.0 151.0 -293.0 147.0 -290.0 142.0 -287.0 139.0 -281.0 135.0 -275.0 132.0 -267.0 129.0 -259.0 129.0 -250.0 129.0 -241.0 129.0 -233.0 129.0 -225.0 130.0 -218.0 130.0 -211.0 130.0 -205.0 131.0 -200.0 131.0 -198.0 M186.0 106.0 L184.0 74.0 181.0 26.0 178.0 -14.0 Q178.0 -18.0 177.0 -22.0 177.0 -25.0 177.0 -28.0 177.0 -30.0 177.0 -32.0 177.0 -34.0 177.0 -34.0 177.0 -41.0 177.0 -43.0 178.0 -44.0 178.0 -45.0 178.0 -46.0 179.0 -51.0 179.0 -55.0 179.0 -69.0 179.0 -72.0 179.0 -74.0 179.0 -77.0 179.0 -79.0 179.0 -81.0 178.0 -83.0 178.0 -85.0 177.0 -87.0 165.0 -87.0 142.0 -88.0 119.0 -90.0 96.0 -95.0 73.0 -100.0 55.0 -111.0 37.0 -121.0 34.0 -138.0 34.0 -140.0 33.0 -148.0 32.0 -157.0 31.0 -166.0 31.0 -176.0 30.0 -184.0 29.0 -193.0 28.0 -196.0 28.0 -198.0 27.0 -200.0 26.0 -203.0 24.0 -205.0 23.0 -208.0 21.0 -210.0 20.0 -212.0 20.0 -213.0 20.0 -216.0 20.0 -228.0 20.0 -239.0 19.0 -252.0 19.0 -265.0 18.0 -276.0 18.0 -287.0 17.0 -289.0 17.0 -313.0 37.0 -330.0 58.0 -347.0 85.0 -357.0 111.0 -367.0 137.0 -372.0 163.0 -376.0 174.0 -376.0 177.0 -376.0 179.0 -376.0 181.0 -376.0 183.0 -375.0 185.0 -374.0 186.0 -373.0 188.0 -372.0 190.0 -371.0 208.0 -362.0 225.0 -362.0 242.0 -362.0 256.0 -360.0 269.0 -358.0 278.0 -348.0 286.0 -338.0 286.0 -310.0 286.0 -305.0 285.0 -301.0 285.0 -297.0 284.0 -293.0 283.0 -288.0 283.0 -284.0 282.0 -279.0 282.0 -274.0 282.0 -273.0 283.0 -270.0 283.0 -266.0 284.0 -262.0 284.0 -259.0 285.0 -255.0 285.0 -252.0 285.0 -251.0 285.0 -249.0 284.0 -244.0 283.0 -238.0 282.0 -232.0 281.0 -226.0 280.0 -220.0 278.0 -214.0 278.0 -213.0 278.0 -207.0 278.0 -200.0 279.0 -194.0 280.0 -187.0 280.0 -181.0 281.0 -174.0 281.0 -168.0 281.0 -162.0 281.0 -148.0 281.0 -135.0 280.0 -121.0 280.0 -107.0 280.0 -94.0 280.0 -80.0 280.0 -66.0 280.0 -52.0 L282.0 57.0 Q281.0 96.0 275.0 126.0 269.0 157.0 257.0 178.0 245.0 199.0 225.0 210.0 205.0 221.0 175.0 221.0 151.0 218.0 134.0 212.0 117.0 206.0 103.0 197.0 89.0 187.0 78.0 173.0 66.0 159.0 54.0 140.0 L46.0 121.0 Q44.0 117.0 45.0 115.0 45.0 114.0 46.0 113.0 47.0 112.0 49.0 110.0 50.0 109.0 50.0 104.0 50.0 97.0 54.0 92.0 57.0 88.0 63.0 86.0 68.0 84.0 73.0 83.0 79.0 83.0 82.0 82.0 83.0 82.0 84.0 82.0 85.0 82.0 86.0 82.0 87.0 81.0 88.0 81.0 89.0 81.0 90.0 81.0 108.0 78.0 116.0 87.0 123.0 97.0 128.0 110.0 132.0 122.0 137.0 134.0 143.0 145.0 156.0 145.0 162.0 145.0 168.0 143.0 173.0 140.0 177.0 136.0 181.0 131.0 184.0 123.0 186.0 116.0 186.0 106.0" fill-rule="evenodd" stroke="none"/>
    </g>
    <g id="font_Apple_Casual_l0">
      <path d="M71.0 -46.0 Q67.0 -74.0 66.0 -102.0 64.0 -130.0 63.0 -158.0 62.0 -185.0 62.0 -213.0 62.0 -240.0 62.0 -267.0 61.0 -323.0 59.0 -378.0 58.0 -434.0 55.0 -489.0 52.0 -544.0 48.0 -599.0 43.0 -655.0 36.0 -712.0 L22.0 -741.0 Q21.0 -750.0 32.0 -756.0 43.0 -761.0 58.0 -764.0 73.0 -767.0 89.0 -767.0 104.0 -768.0 110.0 -768.0 117.0 -768.0 122.0 -766.0 128.0 -765.0 132.0 -761.0 136.0 -757.0 139.0 -752.0 142.0 -746.0 143.0 -739.0 149.0 -697.0 153.0 -654.0 158.0 -612.0 161.0 -569.0 164.0 -526.0 165.0 -484.0 167.0 -441.0 167.0 -399.0 167.0 -360.0 167.0 -320.0 166.0 -280.0 167.0 -240.0 167.0 -201.0 170.0 -161.0 172.0 -121.0 177.0 -81.0 178.0 -75.0 179.0 -69.0 181.0 -62.0 183.0 -56.0 185.0 -51.0 186.0 -47.0 188.0 -42.0 188.0 -41.0 189.0 -32.0 187.0 -24.0 185.0 -16.0 180.0 -11.0 176.0 -6.0 169.0 -3.0 162.0 0.0 153.0 0.0 142.0 0.0 128.0 -4.0 115.0 -9.0 102.0 -15.0 90.0 -21.0 81.0 -28.0 73.0 -34.0 72.0 -39.0 72.0 -40.0 72.0 -41.0 72.0 -41.0 72.0 -42.0 71.0 -43.0 71.0 -44.0 71.0 -45.0 71.0 -46.0" fill-rule="evenodd" stroke="none"/>
    </g>
    <g id="font_Apple_Casual_a0">
      <path d="M131.0 -108.0 Q132.0 -106.0 133.0 -105.0 134.0 -103.0 136.0 -103.0 137.0 -102.0 138.0 -102.0 140.0 -102.0 141.0 -102.0 150.0 -102.0 160.0 -108.0 170.0 -114.0 178.0 -130.0 186.0 -145.0 191.0 -172.0 196.0 -198.0 196.0 -238.0 196.0 -249.0 195.0 -256.0 193.0 -263.0 190.0 -268.0 186.0 -272.0 180.0 -274.0 174.0 -276.0 164.0 -276.0 152.0 -276.0 146.0 -259.0 139.0 -241.0 136.0 -219.0 133.0 -196.0 132.0 -174.0 131.0 -152.0 131.0 -143.0 L131.0 -108.0 M244.0 -72.0 Q235.0 -54.0 227.0 -40.0 219.0 -27.0 208.0 -18.0 196.0 -9.0 180.0 -4.0 165.0 0.0 141.0 0.0 124.0 0.0 106.0 -3.0 87.0 -5.0 70.0 -13.0 54.0 -21.0 41.0 -36.0 28.0 -50.0 22.0 -74.0 20.0 -86.0 18.0 -130.0 17.0 -175.0 26.0 -224.0 34.0 -272.0 58.0 -311.0 81.0 -350.0 129.0 -350.0 138.0 -350.0 147.0 -349.0 156.0 -348.0 165.0 -347.0 173.0 -347.0 182.0 -346.0 191.0 -345.0 200.0 -345.0 202.0 -345.0 209.0 -352.0 216.0 -360.0 226.0 -367.0 237.0 -374.0 250.0 -376.0 264.0 -379.0 280.0 -369.0 289.0 -370.0 296.0 -358.0 303.0 -347.0 309.0 -328.0 314.0 -310.0 316.0 -287.0 319.0 -265.0 319.0 -243.0 319.0 -228.0 319.0 -219.0 318.0 -209.0 318.0 -202.0 318.0 -195.0 317.0 -190.0 317.0 -184.0 317.0 -178.0 317.0 -148.0 321.0 -126.0 325.0 -103.0 331.0 -87.0 336.0 -70.0 340.0 -58.0 344.0 -47.0 344.0 -38.0 344.0 -32.0 341.0 -27.0 339.0 -22.0 333.0 -18.0 326.0 -13.0 316.0 -9.0 305.0 -4.0 289.0 0.0 285.0 0.0 277.0 -4.0 270.0 -8.0 262.0 -16.0 255.0 -25.0 249.0 -38.0 244.0 -52.0 244.0 -72.0" fill-rule="evenodd" stroke="none"/>
    </g>
    <g id="font_Apple_Casual_s0">
      <path d="M19.0 -47.0 Q21.0 -52.0 28.0 -56.0 35.0 -61.0 43.0 -64.0 52.0 -67.0 60.0 -68.0 68.0 -70.0 72.0 -70.0 80.0 -70.0 87.0 -69.0 94.0 -67.0 101.0 -66.0 108.0 -64.0 115.0 -63.0 122.0 -62.0 129.0 -62.0 138.0 -62.0 149.0 -66.0 159.0 -71.0 167.0 -78.0 176.0 -86.0 181.0 -96.0 187.0 -107.0 187.0 -119.0 187.0 -134.0 163.0 -144.0 138.0 -153.0 109.0 -167.0 80.0 -182.0 55.0 -208.0 31.0 -234.0 31.0 -282.0 31.0 -304.0 42.0 -322.0 52.0 -339.0 72.0 -351.0 91.0 -363.0 120.0 -370.0 148.0 -376.0 183.0 -376.0 L189.0 -376.0 Q201.0 -376.0 217.0 -376.0 234.0 -375.0 250.0 -371.0 265.0 -368.0 276.0 -360.0 287.0 -352.0 287.0 -337.0 287.0 -329.0 286.0 -321.0 284.0 -313.0 281.0 -306.0 277.0 -299.0 271.0 -295.0 265.0 -291.0 256.0 -291.0 243.0 -291.0 230.0 -292.0 216.0 -293.0 203.0 -295.0 190.0 -296.0 180.0 -298.0 169.0 -299.0 162.0 -299.0 158.0 -299.0 155.0 -298.0 152.0 -297.0 149.0 -295.0 147.0 -292.0 146.0 -288.0 145.0 -283.0 145.0 -276.0 145.0 -275.0 145.0 -274.0 145.0 -272.0 145.0 -271.0 145.0 -269.0 145.0 -268.0 146.0 -266.0 146.0 -264.0 148.0 -249.0 170.0 -240.0 193.0 -231.0 220.0 -218.0 247.0 -206.0 269.0 -184.0 291.0 -162.0 291.0 -121.0 291.0 -96.0 285.0 -79.0 279.0 -63.0 268.0 -51.0 257.0 -39.0 242.0 -30.0 227.0 -21.0 209.0 -12.0 209.0 -12.0 205.0 -11.0 201.0 -9.0 196.0 -7.0 191.0 -5.0 187.0 -2.0 182.0 0.0 181.0 3.0 177.0 3.0 172.0 3.0 168.0 3.0 164.0 4.0 160.0 4.0 155.0 4.0 151.0 4.0 146.0 4.0 138.0 4.0 130.0 3.0 122.0 3.0 114.0 3.0 107.0 3.0 100.0 2.0 93.0 2.0 87.0 1.0 81.0 0.0 70.0 -3.0 58.0 -7.0 47.0 -13.0 35.0 -19.0 27.0 -26.0 18.0 -34.0 18.0 -43.0 18.0 -43.0 18.0 -44.0 18.0 -44.0 18.0 -45.0 18.0 -45.0 18.0 -46.0 19.0 -46.0 19.0 -47.0" fill-rule="evenodd" stroke="none"/>
    </g>
    <g id="font_Apple_Casual_e0">
      <path d="M136.0 -252.0 Q136.0 -248.0 142.0 -246.0 147.0 -243.0 155.0 -242.0 162.0 -240.0 170.0 -240.0 178.0 -239.0 184.0 -239.0 L189.0 -239.0 Q189.0 -242.0 186.0 -251.0 183.0 -260.0 179.0 -269.0 174.0 -279.0 169.0 -286.0 165.0 -293.0 160.0 -293.0 158.0 -291.0 154.0 -286.0 150.0 -281.0 146.0 -274.0 142.0 -267.0 139.0 -261.0 136.0 -255.0 136.0 -252.0 M18.0 -176.0 L18.0 -184.0 Q18.0 -200.0 20.0 -216.0 23.0 -232.0 27.0 -248.0 32.0 -264.0 39.0 -281.0 45.0 -298.0 54.0 -318.0 56.0 -321.0 61.0 -323.0 65.0 -325.0 71.0 -326.0 76.0 -328.0 81.0 -330.0 87.0 -332.0 91.0 -335.0 93.0 -338.0 99.0 -338.0 104.0 -339.0 109.0 -339.0 115.0 -340.0 119.0 -341.0 123.0 -341.0 123.0 -344.0 135.0 -346.0 144.0 -348.0 154.0 -349.0 164.0 -350.0 173.0 -350.0 183.0 -351.0 192.0 -351.0 204.0 -351.0 227.0 -351.0 239.0 -347.0 252.0 -343.0 259.0 -335.0 267.0 -326.0 272.0 -313.0 277.0 -300.0 285.0 -281.0 287.0 -275.0 291.0 -266.0 294.0 -257.0 297.0 -248.0 300.0 -240.0 303.0 -234.0 305.0 -227.0 305.0 -227.0 305.0 -227.0 305.0 -227.0 306.0 -226.0 306.0 -225.0 306.0 -225.0 307.0 -224.0 307.0 -223.0 307.0 -223.0 307.0 -207.0 297.0 -199.0 286.0 -191.0 271.0 -187.0 257.0 -183.0 241.0 -183.0 225.0 -183.0 214.0 -183.0 L131.0 -183.0 Q132.0 -165.0 133.0 -148.0 134.0 -131.0 138.0 -114.0 141.0 -98.0 147.0 -81.0 154.0 -65.0 165.0 -50.0 166.0 -48.0 167.0 -46.0 168.0 -44.0 170.0 -42.0 171.0 -40.0 173.0 -38.0 174.0 -37.0 177.0 -37.0 187.0 -38.0 199.0 -50.0 211.0 -62.0 223.0 -76.0 234.0 -90.0 244.0 -101.0 253.0 -112.0 259.0 -112.0 L315.0 -113.0 Q318.0 -113.0 322.0 -111.0 326.0 -108.0 330.0 -105.0 334.0 -101.0 336.0 -97.0 339.0 -93.0 339.0 -90.0 339.0 -90.0 328.0 -71.0 317.0 -53.0 297.0 -31.0 277.0 -9.0 250.0 10.0 222.0 28.0 188.0 28.0 182.0 28.0 168.0 26.0 155.0 25.0 141.0 23.0 127.0 20.0 116.0 18.0 104.0 16.0 102.0 14.0 76.0 5.0 60.0 -18.0 44.0 -41.0 35.0 -69.0 26.0 -98.0 23.0 -126.0 20.0 -155.0 18.0 -176.0" fill-rule="evenodd" stroke="none"/>
    </g>
    <g id="font_Apple_Casual_:0">
      <path d="M20.0 -42.0 Q20.0 -42.0 20.0 -42.0 21.0 -43.0 21.0 -44.0 21.0 -44.0 22.0 -45.0 22.0 -46.0 22.0 -46.0 30.0 -56.0 37.0 -63.0 45.0 -71.0 54.0 -76.0 63.0 -81.0 73.0 -83.0 84.0 -86.0 96.0 -86.0 106.0 -86.0 114.0 -84.0 121.0 -82.0 127.0 -77.0 132.0 -72.0 134.0 -65.0 137.0 -57.0 137.0 -47.0 137.0 -41.0 135.0 -35.0 134.0 -29.0 131.0 -24.0 128.0 -19.0 124.0 -14.0 120.0 -10.0 115.0 -6.0 114.0 -6.0 110.0 -6.0 107.0 -6.0 103.0 -5.0 99.0 -5.0 96.0 -5.0 93.0 -5.0 92.0 -5.0 82.0 -5.0 72.0 -7.0 62.0 -8.0 53.0 -12.0 43.0 -16.0 35.0 -22.0 28.0 -29.0 22.0 -38.0 22.0 -38.0 22.0 -38.0 21.0 -39.0 21.0 -40.0 21.0 -40.0 20.0 -41.0 20.0 -42.0 20.0 -42.0 M20.0 -302.0 Q20.0 -302.0 20.0 -302.0 21.0 -303.0 21.0 -304.0 21.0 -304.0 22.0 -305.0 22.0 -306.0 22.0 -306.0 30.0 -316.0 37.0 -323.0 45.0 -331.0 54.0 -336.0 63.0 -341.0 73.0 -343.0 84.0 -346.0 96.0 -346.0 106.0 -346.0 114.0 -344.0 121.0 -342.0 127.0 -337.0 132.0 -332.0 134.0 -325.0 137.0 -317.0 137.0 -307.0 137.0 -301.0 135.0 -295.0 134.0 -289.0 131.0 -284.0 128.0 -279.0 124.0 -274.0 120.0 -270.0 115.0 -266.0 114.0 -266.0 110.0 -266.0 107.0 -266.0 103.0 -265.0 99.0 -265.0 96.0 -265.0 93.0 -265.0 92.0 -265.0 82.0 -265.0 72.0 -267.0 62.0 -268.0 53.0 -272.0 43.0 -276.0 35.0 -282.0 28.0 -289.0 22.0 -298.0 22.0 -298.0 22.0 -298.0 21.0 -299.0 21.0 -300.0 21.0 -300.0 20.0 -301.0 20.0 -302.0 20.0 -302.0" fill-rule="evenodd" stroke="none"/>
    </g>
  </defs>
</svg>
