<?xml version="1.0" encoding="UTF-8" standalone="no"?>
<svg xmlns:ffdec="https://www.free-decompiler.com/flash" xmlns:xlink="http://www.w3.org/1999/xlink" ffdec:objectType="shape" height="90.85px" width="150.1px" xmlns="http://www.w3.org/2000/svg">
  <g transform="matrix(1.0, 0.0, 0.0, 1.0, 75.45, 46.95)">
    <path d="M21.0 40.9 L-3.75 42.4 Q-41.95 42.4 -73.65 27.8 -69.65 16.05 -68.6 11.85 -69.0 7.6 -64.6 1.75 L-60.9 -2.9 Q-58.85 -5.65 -57.9 -7.5 -52.25 -18.6 -44.95 -24.7 L-41.55 -28.75 Q-39.45 -31.35 -37.0 -32.05 L-31.2 -34.65 -27.7 -36.2 -25.2 -31.6 -20.35 -29.9 -11.1 -30.45 -8.4 -35.45 Q-4.75 -36.0 -3.0 -37.3 L-1.3 -39.2 0.05 -40.55 Q1.9 -41.55 6.2 -42.2 L6.3 -39.5 12.05 -31.15 16.5 -28.9 22.25 -22.6 28.05 -20.8 32.45 -15.1 32.45 -10.0 27.45 -13.75 23.25 -13.1 26.0 -11.25 25.65 -9.5 28.3 -6.95 28.95 -3.1 32.05 0.5 34.0 -3.5 Q36.0 3.55 37.65 6.5 L37.85 15.1 38.85 21.3 35.8 33.25 30.6 33.5 21.0 40.9 M14.5 -10.95 L16.9 -19.25 12.95 -25.15 6.55 -24.75 11.3 -20.85 14.5 -10.95" fill="#999999" fill-rule="evenodd" stroke="none"/>
    <path d="M7.6 -42.45 L19.05 -43.4 Q26.3 -42.9 27.5 -40.7 L28.0 -38.65 Q28.3 -37.5 29.35 -36.9 35.4 -33.5 39.6 -29.35 41.8 -27.2 49.1 -21.4 50.5 -20.15 51.0 -17.25 51.55 -13.65 51.9 -12.95 54.8 -6.95 57.15 -4.1 58.45 -2.6 59.7 0.75 60.95 4.4 61.6 5.25 L67.65 15.3 Q68.7 17.35 69.35 20.5 L72.2 23.15 Q72.7 23.65 73.0 24.95 73.3 26.3 72.95 27.8 50.15 36.45 27.05 40.05 L21.55 40.8 21.0 40.9 30.6 33.5 35.8 33.25 38.85 21.3 37.85 15.1 37.65 6.5 Q36.0 3.55 34.0 -3.5 L32.05 0.5 28.95 -3.1 28.3 -6.95 25.65 -9.5 26.0 -11.25 23.25 -13.1 27.45 -13.75 32.45 -10.0 32.45 -15.1 28.05 -20.8 22.25 -22.6 16.5 -28.9 12.05 -31.15 6.3 -39.5 6.2 -42.2 6.25 -42.2 6.35 -42.2 6.95 -42.3 7.0 -42.3 7.6 -42.45 M-27.7 -36.2 L-27.2 -36.4 -27.05 -36.5 -26.8 -36.6 -26.1 -36.85 -24.75 -37.2 -16.0 -34.9 -10.6 -35.15 -9.3 -35.25 -8.85 -35.35 -8.4 -35.45 -11.1 -30.45 -20.35 -29.9 -25.2 -31.6 -27.7 -36.2 M14.5 -10.95 L11.3 -20.85 6.55 -24.75 12.95 -25.15 16.9 -19.25 14.5 -10.95" fill="#858589" fill-rule="evenodd" stroke="none"/>
    <path d="M7.6 -42.45 L19.05 -43.4 Q26.3 -42.9 27.5 -40.7 L28.0 -38.65 Q28.3 -37.5 29.35 -36.9 35.4 -33.5 39.6 -29.35 41.8 -27.2 49.1 -21.4 50.5 -20.15 51.0 -17.25 51.55 -13.65 51.9 -12.95 54.8 -6.95 57.15 -4.1 58.45 -2.6 59.7 0.75 60.95 4.4 61.6 5.25 L67.65 15.3 Q68.7 17.35 69.35 20.5 L72.2 23.15 Q72.7 23.65 73.0 24.95 73.3 26.3 72.95 27.8 50.15 36.45 27.05 40.05 L21.55 40.8 21.0 40.9 -3.75 42.4 Q-41.95 42.4 -73.65 27.8 -69.65 16.05 -68.6 11.85 -69.0 7.6 -64.6 1.75 L-60.9 -2.9 Q-58.85 -5.65 -57.9 -7.5 -52.25 -18.6 -44.95 -24.7 L-41.55 -28.75 Q-39.45 -31.35 -37.0 -32.05 L-31.2 -34.65 -27.7 -36.2 -27.2 -36.4 -27.05 -36.5 -26.8 -36.6 -26.1 -36.85 -24.75 -37.2 -16.0 -34.9 -10.6 -35.15 -9.3 -35.25 M-8.85 -35.35 L-8.4 -35.45 Q-4.75 -36.0 -3.0 -37.3 L-1.3 -39.2 0.05 -40.55 Q1.9 -41.55 6.2 -42.2 L6.25 -42.2 6.35 -42.2 6.95 -42.3 7.0 -42.3 7.6 -42.45" fill="none" stroke="#665e66" stroke-linecap="round" stroke-linejoin="miter-clip" stroke-miterlimit="12.0" stroke-width="3.0"/>
  </g>
</svg>
