<?xml version="1.0" encoding="UTF-8" standalone="no"?>
<svg xmlns:ffdec="https://www.free-decompiler.com/flash" xmlns:xlink="http://www.w3.org/1999/xlink" ffdec:objectType="shape" height="593.3px" width="476.1px" xmlns="http://www.w3.org/2000/svg">
  <g transform="matrix(1.0, 0.0, 0.0, 1.0, -88.4, 49.0)">
    <path d="M180.3 33.0 Q189.75 19.15 202.35 6.55 208.6 0.3 215.05 -5.1 262.45 -44.85 326.05 -45.0 L327.1 -45.0 Q399.65 -44.85 450.3 6.2 L450.6 6.55 450.95 6.85 Q487.4 43.55 498.0 90.8 L499.75 99.5 499.85 100.25 Q502.15 114.85 502.15 130.6 502.15 142.75 500.8 153.95 L500.3 157.5 499.25 164.4 499.25 164.75 Q492.95 199.75 472.85 229.05 502.15 275.8 502.15 335.45 L502.15 336.05 Q502.0 410.25 456.0 465.75 449.8 473.15 442.8 480.3 L442.4 480.7 Q434.65 488.35 426.6 495.0 419.05 501.15 411.25 506.45 L410.5 506.95 Q360.9 540.15 297.75 540.3 L297.15 540.3 Q282.6 540.3 268.6 538.55 L268.2 538.55 Q209.65 530.75 164.75 491.9 158.7 486.7 153.0 480.95 L152.75 480.7 152.65 480.65 152.3 480.3 Q145.2 473.15 138.95 465.7 92.55 410.25 92.4 336.05 L92.4 335.45 92.4 334.95 Q92.55 261.25 138.35 206.5 L139.05 205.75 Q145.25 198.35 152.3 191.3 L152.75 190.9 Q155.65 187.5 159.1 184.5 L159.05 184.05 Q150.9 159.1 150.9 130.6 L150.9 130.15 Q151.05 76.1 179.8 33.85 L189.6 40.0 180.3 33.0" fill="url(#gradient0)" fill-rule="evenodd" stroke="none"/>
    <path d="M499.75 99.5 L509.6 104.3 509.6 148.2 500.8 153.95 Q502.15 142.75 502.15 130.6 502.15 114.85 499.85 100.25 L499.75 99.5" fill="#ffff00" fill-rule="evenodd" stroke="none"/>
    <path d="M180.3 33.0 Q189.75 19.15 202.35 6.55 208.6 0.3 215.05 -5.1 262.45 -44.85 326.05 -45.0 L327.1 -45.0 Q399.65 -44.85 450.3 6.2 L450.6 6.55 450.95 6.85 Q487.4 43.55 498.0 90.8 L499.75 99.5 499.85 100.25 Q502.15 114.85 502.15 130.6 502.15 142.75 500.8 153.95 L500.3 157.5 499.25 164.4 499.25 164.75 Q492.95 199.75 472.85 229.05 502.15 275.8 502.15 335.45 L502.15 336.05 Q502.0 410.25 456.0 465.75 449.8 473.15 442.8 480.3 L442.4 480.7 Q434.65 488.35 426.6 495.0 419.05 501.15 411.25 506.45 L410.5 506.95 Q360.9 540.15 297.75 540.3 L297.15 540.3 Q282.6 540.3 268.6 538.55 L268.2 538.55 Q209.65 530.75 164.75 491.9 158.7 486.7 153.0 480.95 L152.75 480.7 152.65 480.65 152.3 480.3 Q145.2 473.15 138.95 465.7 92.55 410.25 92.4 336.05 L92.4 335.45 92.4 334.95 Q92.55 261.25 138.35 206.5 L139.05 205.75 Q145.25 198.35 152.3 191.3 L152.75 190.9 Q155.65 187.5 159.1 184.5 L159.05 184.05 Q150.9 159.1 150.9 130.6 L150.9 130.15 Q151.05 76.1 179.8 33.85 L180.3 33.0 Z" fill="none" stroke="#000000" stroke-linecap="round" stroke-linejoin="round" stroke-width="8.0"/>
    <path d="M499.65 100.2 L560.5 130.6 500.2 157.55 Q502.0 144.65 502.0 130.6 502.0 114.8 499.65 100.2 M502.0 130.6 L560.5 130.6 502.0 130.6" fill="#ffcc00" fill-rule="evenodd" stroke="none"/>
    <path d="M411.85 20.6 Q396.65 22.9 384.9 34.65 369.1 50.45 369.7 72.1 369.7 94.35 384.9 109.55 396.65 121.25 412.45 124.2 400.15 130.6 384.9 130.6 360.9 130.6 343.35 113.65 326.4 96.65 326.4 72.1 326.4 48.1 343.35 30.55 356.85 17.05 375.55 14.75 379.65 13.55 383.75 13.55 L384.9 13.55 386.1 13.55 404.8 17.65 405.4 17.65 Q408.9 18.85 411.85 20.6 M404.8 17.65 Q400.7 15.9 402.5 16.5 L404.8 17.65" fill="#ffffff" fill-rule="evenodd" stroke="none"/>
    <path d="M411.85 20.6 Q417.7 22.9 422.95 27.0 L425.9 29.95 426.5 30.55 Q429.4 33.45 431.75 36.95 434.65 40.5 436.45 45.15 432.35 43.4 426.5 43.4 413.6 43.4 405.4 51.6 397.2 59.8 397.8 72.1 397.2 84.4 405.4 92.55 414.2 101.35 426.5 100.75 432.35 100.75 437.0 99.6 432.9 107.2 426.5 113.65 420.05 120.1 412.45 124.2 396.65 121.25 384.9 109.55 369.7 94.35 369.7 72.1 369.1 50.45 384.9 34.65 396.65 22.9 411.85 20.6" fill="#99ff00" fill-rule="evenodd" stroke="none"/>
    <path d="M437.0 99.6 Q432.35 100.75 426.5 100.75 414.2 101.35 405.4 92.55 397.2 84.4 397.8 72.1 397.2 59.8 405.4 51.6 413.6 43.4 426.5 43.4 432.35 43.4 436.45 45.15 441.1 53.35 442.85 63.3 L443.45 72.1 Q443.45 81.45 441.1 89.65 440.5 90.8 440.5 92.55 L437.0 99.6" fill="#000000" fill-rule="evenodd" stroke="none"/>
    <path d="M560.5 130.6 L502.0 130.6" fill="none" stroke="#b39001" stroke-linecap="round" stroke-linejoin="round" stroke-width="4.0"/>
    <path d="M436.45 45.15 Q434.65 40.5 431.75 36.95 429.4 33.45 426.5 30.55 L425.9 29.95 422.95 27.0 Q417.7 22.9 411.85 20.6 408.9 18.85 405.4 17.65 L404.8 17.65 386.1 13.55 384.9 13.55 383.75 13.55 Q379.65 13.55 375.55 14.75 356.85 17.05 343.35 30.55 326.4 48.1 326.4 72.1 326.4 96.65 343.35 113.65 360.9 130.6 384.9 130.6 400.15 130.6 412.45 124.2 420.05 120.1 426.5 113.65 432.9 107.2 437.0 99.6 432.35 100.75 426.5 100.75 414.2 101.35 405.4 92.55 397.2 84.4 397.8 72.1 397.2 59.8 405.4 51.6 413.6 43.4 426.5 43.4 432.35 43.4 436.45 45.15 441.1 53.35 442.85 63.3 L443.45 72.1 Q443.45 81.45 441.1 89.65 440.5 90.8 440.5 92.55 L437.0 99.6" fill="none" stroke="#000000" stroke-linecap="round" stroke-linejoin="round" stroke-width="4.0"/>
    <path d="M500.2 157.55 Q502.0 144.65 502.0 130.6 502.0 114.8 499.65 100.2" fill="none" stroke="#000000" stroke-linecap="round" stroke-linejoin="round" stroke-width="1.0"/>
    <path d="M499.65 100.2 L560.5 130.6 500.2 157.55" fill="none" stroke="#000000" stroke-linecap="round" stroke-linejoin="round" stroke-width="8.0"/>
  </g>
  <defs>
    <linearGradient gradientTransform="matrix(0.0, 0.2994, -0.3572, 0.0, 297.25, 247.65)" gradientUnits="userSpaceOnUse" id="gradient0" spreadMethod="pad" x1="-819.2" x2="819.2">
      <stop offset="0.0" stop-color="#ffff00"/>
      <stop offset="1.0" stop-color="#e3e302"/>
    </linearGradient>
  </defs>
</svg>
