<?xml version="1.0" encoding="UTF-8" standalone="no"?>
<svg xmlns:ffdec="https://www.free-decompiler.com/flash" xmlns:xlink="http://www.w3.org/1999/xlink" ffdec:objectType="shape" height="157.25px" width="189.6px" xmlns="http://www.w3.org/2000/svg">
  <g transform="matrix(1.0, 0.0, 0.0, 1.0, -295.4, -247.05)">
    <path d="M408.95 296.0 L408.55 292.65 401.1 295.3 399.5 281.3 395.3 282.8 397.3 300.1 408.95 296.0 M423.1 274.4 Q420.45 272.8 416.7 274.3 412.8 275.85 410.95 279.2 408.8 282.5 409.4 286.8 409.9 290.9 412.45 292.45 414.8 294.05 418.85 292.5 422.7 290.9 424.65 287.7 426.45 284.25 426.05 280.2 425.5 275.9 423.1 274.4 M421.75 281.8 L421.8 284.5 421.1 286.75 420.0 288.35 418.4 289.3 416.95 289.5 Q416.05 289.55 415.5 289.05 L414.45 287.55 Q413.9 286.5 413.75 285.1 413.55 283.5 413.8 282.15 414.05 280.95 414.45 280.05 414.9 279.0 415.65 278.5 416.25 277.9 417.15 277.6 417.8 277.2 418.6 277.35 419.35 277.3 419.95 277.85 420.6 278.25 421.15 279.35 421.55 280.25 421.75 281.8 M300.55 340.85 L297.6 315.95 Q295.9 301.5 309.65 299.25 385.55 285.05 459.15 250.7 472.35 244.9 474.15 259.25 L477.15 284.25 Q390.6 327.5 300.55 340.85 M482.85 333.6 Q484.45 347.85 471.3 354.4 398.0 391.2 321.7 401.95 308.0 404.35 306.25 390.2 396.35 378.5 482.85 333.6 M412.0 298.0 Q412.0 298.55 412.15 299.1 412.75 298.9 413.3 298.65 L413.25 297.55 412.0 298.0 M413.4 299.7 L412.35 300.05 Q412.65 303.25 413.1 306.4 L414.15 306.05 413.4 299.7 M419.5 298.85 L419.35 297.75 418.35 297.7 Q417.75 297.7 417.4 297.95 416.75 298.2 416.35 298.55 L415.55 299.25 Q415.25 299.75 415.3 300.05 415.1 300.4 415.2 300.85 415.25 301.4 415.65 301.85 L416.75 302.0 417.45 301.9 417.95 301.85 Q418.45 301.7 418.75 301.85 L419.05 302.35 418.75 303.2 417.75 303.85 416.7 304.05 415.45 303.85 415.6 305.0 416.6 305.05 417.75 304.75 419.55 303.55 Q420.0 302.75 419.95 301.85 419.9 301.15 419.55 300.8 L418.35 300.65 417.8 300.8 417.2 300.85 416.45 300.8 416.2 300.25 Q416.15 299.85 416.45 299.45 416.8 299.1 417.4 298.9 L418.45 298.7 419.4 298.85 419.5 298.85 M382.85 310.75 L381.3 310.6 Q380.65 310.7 380.4 311.1 379.75 311.5 379.45 312.15 L379.4 311.4 378.35 311.65 379.1 318.05 380.15 317.75 379.55 312.95 Q379.85 312.45 380.35 312.2 380.75 311.9 381.15 311.75 L381.8 311.65 Q382.0 311.6 382.2 311.85 L382.5 312.35 382.65 313.25 383.0 316.85 384.05 316.5 383.6 312.4 Q383.35 311.15 382.85 310.75 M365.4 317.4 L365.45 318.15 365.85 321.8 366.95 321.55 366.45 317.35 Q366.25 316.4 365.75 315.8 365.15 315.15 364.25 315.55 363.65 315.65 363.25 316.1 362.55 316.5 362.2 317.15 L361.55 316.55 360.45 316.6 Q359.9 316.65 359.5 317.05 358.75 317.35 358.65 318.0 L358.5 317.25 357.5 317.45 358.25 323.85 359.2 323.6 358.7 318.85 Q358.95 318.3 359.45 318.1 L360.25 317.6 360.95 317.5 361.25 317.85 361.55 318.4 361.65 319.15 362.1 322.8 363.15 322.55 362.65 318.5 362.6 318.15 362.5 317.8 Q362.8 317.25 363.25 317.05 363.55 316.65 364.1 316.6 L364.75 316.55 365.15 316.8 365.4 317.4 M373.2 313.2 L372.1 313.45 370.85 318.75 368.55 314.55 367.45 314.85 370.45 320.2 369.65 323.2 370.75 322.95 Q371.9 318.1 373.2 313.2 M388.0 311.9 L389.15 311.4 389.35 313.25 388.6 314.0 387.7 314.6 386.65 314.55 Q386.3 314.35 386.3 313.9 386.2 313.25 386.5 312.95 386.6 312.6 387.15 312.35 387.4 312.1 388.0 311.9 M387.25 308.7 L386.05 309.2 385.3 309.7 385.4 310.7 385.45 310.7 386.35 310.1 Q386.85 309.85 387.3 309.75 387.5 309.5 387.85 309.6 L388.45 309.6 388.85 309.75 389.05 310.35 389.05 310.5 387.45 311.25 386.15 312.0 Q385.5 312.4 385.4 312.95 385.05 313.45 385.25 314.2 385.35 315.05 386.0 315.55 L387.35 315.65 388.2 315.35 388.75 314.95 389.1 314.55 389.45 314.1 389.55 314.8 390.55 314.5 390.05 310.15 389.7 309.1 389.1 308.65 388.3 308.55 387.25 308.7 M403.1 306.1 Q403.0 305.25 403.45 304.6 403.7 304.0 404.7 303.65 L405.9 303.75 Q406.25 304.05 406.45 304.9 404.75 305.4 403.1 306.1 M404.05 308.4 L403.4 307.85 Q403.15 307.55 403.2 306.9 L407.55 305.3 407.5 304.75 Q407.3 303.3 406.5 302.9 405.75 302.25 404.65 302.75 403.25 303.25 402.7 304.45 401.9 305.65 402.2 307.15 402.25 308.7 403.25 309.35 L405.6 309.4 406.75 308.85 407.7 308.05 407.55 306.9 407.5 306.9 406.7 307.7 405.5 308.45 Q405.0 308.5 404.75 308.65 L404.05 308.4 M398.2 306.2 L398.9 306.05 Q399.1 306.0 399.25 306.25 L399.55 306.85 399.65 307.65 400.05 311.3 401.05 310.95 400.6 306.8 399.95 305.2 398.35 305.1 Q397.8 305.2 397.4 305.65 396.75 306.05 396.35 306.85 L395.7 306.35 Q395.2 306.05 394.6 306.35 393.95 306.5 393.7 306.9 L392.8 307.9 392.7 307.2 391.65 307.5 392.45 313.85 393.45 313.55 392.9 308.75 393.7 307.85 394.4 307.4 395.15 307.3 Q395.35 307.3 395.4 307.45 L395.7 308.15 395.85 308.9 396.2 312.55 397.3 312.3 396.85 308.15 396.8 307.8 396.65 307.5 397.45 306.6 Q397.8 306.35 398.2 306.2 M385.2 286.1 L381.05 287.4 383.05 304.8 394.7 301.0 394.35 297.7 386.9 300.15 385.2 286.1 M370.4 294.05 L378.05 291.9 377.6 288.6 365.8 291.95 367.75 309.25 379.6 306.0 379.2 302.6 371.6 304.8 371.1 300.45 378.2 298.3 Q377.95 296.75 377.85 295.0 L370.75 297.1 370.4 294.05 M361.5 293.2 L357.3 294.4 358.1 300.7 352.0 302.2 351.2 295.9 347.0 297.05 348.95 314.35 353.25 313.25 352.3 305.6 358.5 304.05 359.35 311.7 363.5 310.55 361.5 293.2" fill="#fe0000" fill-rule="evenodd" stroke="none"/>
    <path d="M421.75 281.8 Q421.55 280.25 421.15 279.35 420.6 278.25 419.95 277.85 419.35 277.3 418.6 277.35 417.8 277.2 417.15 277.6 416.25 277.9 415.65 278.5 414.9 279.0 414.45 280.05 414.05 280.95 413.8 282.15 413.55 283.5 413.75 285.1 413.9 286.5 414.45 287.55 L415.5 289.05 Q416.05 289.55 416.95 289.5 L418.4 289.3 420.0 288.35 421.1 286.75 421.8 284.5 421.75 281.8 M423.1 274.4 Q425.5 275.9 426.05 280.2 426.45 284.25 424.65 287.7 422.7 290.9 418.85 292.5 414.8 294.05 412.45 292.45 409.9 290.9 409.4 286.8 408.8 282.5 410.95 279.2 412.8 275.85 416.7 274.3 420.45 272.8 423.1 274.4 M408.95 296.0 L397.3 300.1 395.3 282.8 399.5 281.3 401.1 295.3 408.55 292.65 408.95 296.0 M300.55 340.85 Q390.6 327.5 477.15 284.25 L482.85 333.6 Q396.35 378.5 306.25 390.2 L300.55 340.85 M361.5 293.2 L363.5 310.55 359.35 311.7 358.5 304.05 352.3 305.6 353.25 313.25 348.95 314.35 347.0 297.05 351.2 295.9 352.0 302.2 358.1 300.7 357.3 294.4 361.5 293.2 M370.4 294.05 L370.75 297.1 377.85 295.0 Q377.95 296.75 378.2 298.3 L371.1 300.45 371.6 304.8 379.2 302.6 379.6 306.0 367.75 309.25 365.8 291.95 377.6 288.6 378.05 291.9 370.4 294.05 M385.2 286.1 L386.9 300.15 394.35 297.7 394.7 301.0 383.05 304.8 381.05 287.4 385.2 286.1 M398.2 306.2 Q397.8 306.35 397.45 306.6 L396.65 307.5 396.8 307.8 396.85 308.15 397.3 312.3 396.2 312.55 395.85 308.9 395.7 308.15 395.4 307.45 Q395.35 307.3 395.15 307.3 L394.4 307.4 393.7 307.85 392.9 308.75 393.45 313.55 392.45 313.85 391.65 307.5 392.7 307.2 392.8 307.9 393.7 306.9 Q393.95 306.5 394.6 306.35 395.2 306.05 395.7 306.35 L396.35 306.85 Q396.75 306.05 397.4 305.65 397.8 305.2 398.35 305.1 L399.95 305.2 400.6 306.8 401.05 310.95 400.05 311.3 399.65 307.65 399.55 306.85 399.25 306.25 Q399.1 306.0 398.9 306.05 L398.2 306.2 M404.05 308.4 L404.75 308.65 Q405.0 308.5 405.5 308.45 L406.7 307.7 407.5 306.9 407.55 306.9 407.7 308.05 406.75 308.85 405.6 309.4 403.25 309.35 Q402.25 308.7 402.2 307.15 401.9 305.65 402.7 304.45 403.25 303.25 404.65 302.75 405.75 302.25 406.5 302.9 407.3 303.3 407.5 304.75 L407.55 305.3 403.2 306.9 Q403.15 307.55 403.4 307.85 L404.05 308.4 M403.1 306.1 Q404.75 305.4 406.45 304.9 406.25 304.05 405.9 303.75 L404.7 303.65 Q403.7 304.0 403.45 304.6 403.0 305.25 403.1 306.1 M387.25 308.7 L388.3 308.55 389.1 308.65 389.7 309.1 390.05 310.15 390.55 314.5 389.55 314.8 389.45 314.1 389.1 314.55 388.75 314.95 388.2 315.35 387.35 315.65 386.0 315.55 Q385.35 315.05 385.25 314.2 385.05 313.45 385.4 312.95 385.5 312.4 386.15 312.0 L387.45 311.25 389.05 310.5 389.05 310.35 388.85 309.75 388.45 309.6 387.85 309.6 Q387.5 309.5 387.3 309.75 386.85 309.85 386.35 310.1 L385.45 310.7 385.4 310.7 385.3 309.7 386.05 309.2 387.25 308.7 M388.0 311.9 Q387.4 312.1 387.15 312.35 386.6 312.6 386.5 312.95 386.2 313.25 386.3 313.9 386.3 314.35 386.65 314.55 L387.7 314.6 388.6 314.0 389.35 313.25 389.15 311.4 388.0 311.9 M373.2 313.2 Q371.9 318.1 370.75 322.95 L369.65 323.2 370.45 320.2 367.45 314.85 368.55 314.55 370.85 318.75 372.1 313.45 373.2 313.2 M365.4 317.4 L365.15 316.8 364.75 316.55 364.1 316.6 Q363.55 316.65 363.25 317.05 362.8 317.25 362.5 317.8 L362.6 318.15 362.65 318.5 363.15 322.55 362.1 322.8 361.65 319.15 361.55 318.4 361.25 317.85 360.95 317.5 360.25 317.6 359.45 318.1 Q358.95 318.3 358.7 318.85 L359.2 323.6 358.25 323.85 357.5 317.45 358.5 317.25 358.65 318.0 Q358.75 317.35 359.5 317.05 359.9 316.65 360.45 316.6 L361.55 316.55 362.2 317.15 Q362.55 316.5 363.25 316.1 363.65 315.65 364.25 315.55 365.15 315.15 365.75 315.8 366.25 316.4 366.45 317.35 L366.95 321.55 365.85 321.8 365.45 318.15 365.4 317.4 M382.85 310.75 Q383.35 311.15 383.6 312.4 L384.05 316.5 383.0 316.85 382.65 313.25 382.5 312.35 382.2 311.85 Q382.0 311.6 381.8 311.65 L381.15 311.75 Q380.75 311.9 380.35 312.2 379.85 312.45 379.55 312.95 L380.15 317.75 379.1 318.05 378.35 311.65 379.4 311.4 379.45 312.15 Q379.75 311.5 380.4 311.1 380.65 310.7 381.3 310.6 L382.85 310.75 M419.5 298.85 L419.4 298.85 418.45 298.7 417.4 298.9 Q416.8 299.1 416.45 299.45 416.15 299.85 416.2 300.25 L416.45 300.8 417.2 300.85 417.8 300.8 418.35 300.65 419.55 300.8 Q419.9 301.15 419.95 301.85 420.0 302.75 419.55 303.55 L417.75 304.75 416.6 305.05 415.6 305.0 415.45 303.85 416.7 304.05 417.75 303.85 418.75 303.2 419.05 302.35 418.75 301.85 Q418.45 301.7 417.95 301.85 L417.45 301.9 416.75 302.0 415.65 301.85 Q415.25 301.4 415.2 300.85 415.1 300.4 415.3 300.05 415.25 299.75 415.55 299.25 L416.35 298.55 Q416.75 298.2 417.4 297.95 417.75 297.7 418.35 297.7 L419.35 297.75 419.5 298.85 M413.4 299.7 L414.15 306.05 413.1 306.4 Q412.65 303.25 412.35 300.05 L413.4 299.7 M412.0 298.0 L413.25 297.55 413.3 298.65 Q412.75 298.9 412.15 299.1 412.0 298.55 412.0 298.0" fill="#ffffff" fill-rule="evenodd" stroke="none"/>
    <path d="M477.15 284.25 L474.15 259.25 Q472.35 244.9 459.15 250.7 385.55 285.05 309.65 299.25 295.9 301.5 297.6 315.95 L300.55 340.85 306.25 390.2 Q308.0 404.35 321.7 401.95 398.0 391.2 471.3 354.4 484.45 347.85 482.85 333.6 L477.15 284.25 Z" fill="none" stroke="#000000" stroke-linecap="round" stroke-linejoin="round" stroke-width="4.0"/>
  </g>
</svg>
