<?xml version="1.0" encoding="UTF-8" standalone="no"?>
<svg xmlns:ffdec="https://www.free-decompiler.com/flash" xmlns:xlink="http://www.w3.org/1999/xlink" ffdec:objectType="shape" height="13.8px" width="21.5px" xmlns="http://www.w3.org/2000/svg">
  <g transform="matrix(1.0, 0.0, 0.0, 1.0, 10.5, 6.65)">
    <path d="M-2.65 3.3 L-5.0 3.85 Q-7.05 3.85 -8.55 2.4 -10.0 0.95 -10.0 -1.15 -10.0 -3.2 -8.55 -4.7 -7.4 -5.85 -5.8 -6.05 L-5.1 -6.15 -5.0 -6.15 -4.9 -6.15 -3.8 -6.0 -3.5 -5.9 -3.3 -5.8 -3.25 -5.8 -2.7 -5.55 Q-4.0 -5.35 -5.0 -4.35 -6.35 -3.0 -6.3 -1.15 -6.3 0.75 -5.0 2.05 -4.0 3.05 -2.65 3.3" fill="#ffffff" fill-rule="evenodd" stroke="none"/>
    <path d="M-2.65 3.3 Q-4.0 3.05 -5.0 2.05 -6.3 0.75 -6.3 -1.15 -6.35 -3.0 -5.0 -4.35 -4.0 -5.35 -2.7 -5.55 L-1.75 -5.0 -1.5 -4.75 -1.45 -4.7 -1.0 -4.15 -0.6 -3.45 -1.45 -3.6 Q-2.55 -3.6 -3.25 -2.9 -3.95 -2.2 -3.9 -1.15 -3.95 -0.1 -3.25 0.6 -2.5 1.35 -1.45 1.3 L-0.55 1.2 -1.45 2.4 Q-2.0 2.95 -2.65 3.3" fill="#99ff00" fill-rule="evenodd" stroke="none"/>
    <path d="M-0.55 1.2 L-1.45 1.3 Q-2.5 1.35 -3.25 0.6 -3.95 -0.1 -3.9 -1.15 -3.95 -2.2 -3.25 -2.9 -2.55 -3.6 -1.45 -3.6 L-0.6 -3.45 Q-0.2 -2.75 -0.05 -1.9 L0.0 -1.15 -0.2 0.35 -0.25 0.6 -0.55 1.2" fill="#000000" fill-rule="evenodd" stroke="none"/>
    <path d="M5.0 3.85 L4.8 1.25 10.0 3.85 4.85 6.15 5.0 3.85 10.0 3.85 5.0 3.85" fill="#ffcc00" fill-rule="evenodd" stroke="none"/>
    <path d="M-3.8 -6.0 L-4.9 -6.15 -5.0 -6.15 -5.1 -6.15 -5.8 -6.05 Q-7.4 -5.85 -8.55 -4.7 -10.0 -3.2 -10.0 -1.15 -10.0 0.95 -8.55 2.4 -7.05 3.85 -5.0 3.85 L-2.65 3.3 Q-2.0 2.95 -1.45 2.4 L-0.55 1.2 -1.45 1.3 Q-2.5 1.35 -3.25 0.6 -3.95 -0.1 -3.9 -1.15 -3.95 -2.2 -3.25 -2.9 -2.55 -3.6 -1.45 -3.6 L-0.6 -3.45 Q-0.2 -2.75 -0.05 -1.9 L0.0 -1.15 -0.2 0.35 -0.25 0.6 -0.55 1.2 M-2.7 -5.55 L-3.25 -5.8 -3.3 -5.8 M-0.6 -3.45 L-1.0 -4.15 -1.45 -4.7 -1.5 -4.75 -1.75 -5.0 -2.7 -5.55" fill="none" stroke="#000000" stroke-linecap="round" stroke-linejoin="round" stroke-width="1.0"/>
    <path d="M5.0 3.85 L10.0 3.85" fill="none" stroke="#b39001" stroke-linecap="round" stroke-linejoin="round" stroke-width="1.0"/>
    <path d="M4.85 6.15 L5.0 3.85 4.8 1.25" fill="none" stroke="#000000" stroke-linecap="round" stroke-linejoin="round" stroke-width="1.0"/>
    <path d="M4.85 6.15 L10.0 3.85 4.8 1.25" fill="none" stroke="#000000" stroke-linecap="round" stroke-linejoin="round" stroke-width="2.0"/>
  </g>
</svg>
