<?xml version="1.0" encoding="UTF-8" standalone="no"?>
<svg xmlns:ffdec="https://www.free-decompiler.com/flash" xmlns:xlink="http://www.w3.org/1999/xlink" ffdec:objectType="shape" height="513.35px" width="6491.85px" xmlns="http://www.w3.org/2000/svg">
  <g transform="matrix(1.0, 0.0, 0.0, 1.0, 0.0, 256.65)">
    <path d="M6491.85 -117.0 L6205.9 -117.0 6205.9 -150.0 6491.85 -150.0 6491.85 -117.0" fill="url(#gradient0)" fill-rule="evenodd" stroke="none"/>
    <path d="M5010.5 40.65 L5045.95 64.0 5044.85 67.1 5005.1 52.5 Q4981.95 34.65 5010.5 40.65 M5791.15 121.4 L5872.65 96.75 5874.4 100.4 5873.5 104.9 Q5871.35 112.5 5865.35 112.65 5829.3 112.7 5791.15 121.4" fill="#98ca00" fill-rule="evenodd" stroke="none"/>
    <path d="M5515.95 237.95 L4933.95 237.95 4931.3 215.2 Q4959.9 215.2 4941.9 191.85 L4961.95 198.95 4953.7 165.85 Q4975.3 164.6 4962.6 146.2 L4987.95 157.95 4975.95 116.85 Q4993.5 114.6 4984.6 97.75 L5024.95 110.0 4997.9 68.45 Q5022.45 75.0 5005.1 52.5 L5044.85 67.1 5045.95 64.0 Q5053.85 68.8 5061.9 73.35 5098.65 94.15 5137.9 110.0 5192.4 128.95 5250.9 135.95 L5416.9 149.95 Q5466.45 154.9 5515.95 151.7 L5515.95 237.95" fill="url(#gradient1)" fill-rule="evenodd" stroke="none"/>
    <path d="M5005.1 52.5 Q5022.45 75.0 4997.9 68.45 L4981.95 44.0 5005.1 52.5" fill="#767676" fill-rule="evenodd" stroke="none"/>
    <path d="M4920.95 237.95 L4286.0 237.95 Q4234.55 223.6 4256.0 195.95 4284.9 178.85 4252.0 155.95 4214.15 152.65 4224.0 126.95 4263.9 86.55 4244.05 60.2 4234.0 46.9 4217.75 48.15 4184.9 51.2 4233.0 22.0 4239.1 7.35 4215.0 4.0 L4148.75 18.35 Q4293.5 -43.15 4427.85 -136.0 4441.55 -143.3 4446.4 -139.5 4455.3 -139.75 4457.95 -138.3 4473.7 -129.8 4480.85 -112.0 L4480.85 -19.0 Q4496.25 -7.35 4517.3 -1.35 4530.9 2.5 4546.85 4.0 L4745.85 4.0 Q4770.85 2.0 4791.85 -12.0 L4791.85 -71.0 Q4798.4 -82.85 4808.15 -86.1 4825.85 -91.85 4842.85 -83.0 4922.55 -18.45 5010.5 40.65 4981.95 34.65 5005.1 52.5 L4981.95 44.0 4997.9 68.45 Q4961.85 60.55 4984.6 97.75 L4968.95 93.0 4975.95 116.85 Q4947.15 118.25 4962.6 146.2 L4946.95 138.95 4953.7 165.85 Q4928.65 165.45 4941.9 191.85 L4927.95 186.95 4931.3 215.2 Q4900.65 214.8 4920.95 237.95" fill="url(#gradient2)" fill-rule="evenodd" stroke="none"/>
    <path d="M4997.9 68.45 L5024.95 110.0 4984.6 97.75 Q4961.85 60.55 4997.9 68.45" fill="#97c800" fill-rule="evenodd" stroke="none"/>
    <path d="M4984.6 97.75 Q4993.5 114.6 4975.95 116.85 L4968.95 93.0 4984.6 97.75" fill="#707070" fill-rule="evenodd" stroke="none"/>
    <path d="M4962.6 146.2 Q4975.3 164.6 4953.7 165.85 L4946.95 138.95 4962.6 146.2" fill="#6b6b6b" fill-rule="evenodd" stroke="none"/>
    <path d="M4975.95 116.85 L4987.95 157.95 4962.6 146.2 Q4947.15 118.25 4975.95 116.85" fill="#92be00" fill-rule="evenodd" stroke="none"/>
    <path d="M4953.7 165.85 L4961.95 198.95 4941.9 191.85 Q4928.65 165.45 4953.7 165.85" fill="#8db400" fill-rule="evenodd" stroke="none"/>
    <path d="M4941.9 191.85 Q4959.9 215.2 4931.3 215.2 L4927.95 186.95 4941.9 191.85" fill="#666666" fill-rule="evenodd" stroke="none"/>
    <path d="M4933.95 237.95 L4920.95 237.95 Q4900.65 214.8 4931.3 215.2 L4933.95 237.95" fill="#88aa00" fill-rule="evenodd" stroke="none"/>
    <path d="M4286.0 237.95 L2594.1 237.95 Q2631.7 218.9 2610.1 191.95 2580.45 169.4 2590.1 138.95 2604.65 118.35 2609.1 91.0 2601.55 72.4 2587.1 71.0 2577.9 61.5 2587.1 52.0 L2606.45 34.35 Q2695.3 17.55 2786.95 15.0 2913.45 20.35 3039.95 49.0 3151.45 75.0 3257.0 112.85 3347.45 145.25 3439.9 149.95 3511.4 155.55 3582.9 149.95 L3732.9 136.95 Q3819.35 131.9 3897.9 107.0 L4112.9 33.0 4120.45 30.0 4129.0 26.55 4148.75 18.35 4215.0 4.0 Q4239.1 7.35 4233.0 22.0 4184.9 51.2 4217.75 48.15 4234.0 46.9 4244.05 60.2 4263.9 86.55 4224.0 126.95 4214.15 152.65 4252.0 155.95 4284.9 178.85 4256.0 195.95 4234.55 223.6 4286.0 237.95" fill="url(#gradient3)" fill-rule="evenodd" stroke="none"/>
    <path d="M2594.1 237.95 L2102.0 237.95 Q2251.2 157.8 2404.0 92.0 2466.6 65.1 2535.55 48.8 L2542.2 47.25 Q2562.3 42.7 2583.0 39.0 L2606.45 34.35 2587.1 52.0 Q2577.9 61.5 2587.1 71.0 2601.55 72.4 2609.1 91.0 2604.65 118.35 2590.1 138.95 2580.45 169.4 2610.1 191.95 2631.7 218.9 2594.1 237.95" fill="url(#gradient4)" fill-rule="evenodd" stroke="none"/>
    <path d="M4446.4 -139.5 Q4484.2 -146.9 4515.95 -136.0 L4517.3 -1.35 Q4496.25 -7.35 4480.85 -19.0 L4480.85 -112.0 Q4473.7 -129.8 4457.95 -138.3 4455.3 -139.75 4446.4 -139.5" fill="url(#gradient5)" fill-rule="evenodd" stroke="none"/>
    <path d="M5982.3 81.9 L5982.9 82.0 5982.9 237.95 5874.4 237.95 Q5902.95 233.1 5899.4 206.15 5889.45 191.5 5907.45 183.85 5929.35 181.8 5923.2 162.35 5916.95 150.7 5930.9 140.75 5938.15 129.05 5923.2 117.85 5904.75 104.65 5923.2 95.65 5953.45 88.0 5982.3 88.9 L5982.3 81.9" fill="url(#gradient6)" fill-rule="evenodd" stroke="none"/>
    <path d="M5872.65 96.75 L5907.45 86.15 Q5945.85 78.35 5982.3 81.85 L5982.3 81.9 5982.3 88.9 Q5953.45 88.0 5923.2 95.65 5904.75 104.65 5923.2 117.85 5938.15 129.05 5930.9 140.75 5916.95 150.7 5923.2 162.35 5929.35 181.8 5907.45 183.85 5889.45 191.5 5899.4 206.15 5902.95 233.1 5874.4 237.95 L5874.4 100.4 5872.65 96.75" fill="url(#gradient7)" fill-rule="evenodd" stroke="none"/>
    <path d="M5874.4 237.95 L5515.95 237.95 5515.95 151.7 5515.95 151.15 5545.3 151.15 5659.8 144.95 Q5728.6 139.25 5791.15 121.4 5829.3 112.7 5865.35 112.65 5871.35 112.5 5873.5 104.9 L5874.4 100.4 5874.4 237.95" fill="url(#gradient8)" fill-rule="evenodd" stroke="none"/>
    <path d="M1078.15 70.0 L924.55 202.7 Q813.7 255.4 656.9 256.7 L194.65 256.7 Q13.65 231.3 0.0 40.55 L0.0 13.55 9.0 -40.85 9.15 -41.7 9.25 -41.8 23.0 -95.8 23.25 -96.55 33.45 -135.7 Q33.45 -136.45 33.7 -137.05 L44.05 -176.85 Q44.4 -178.4 45.75 -179.4 47.0 -180.45 48.7 -180.45 L97.35 -180.45 97.35 -256.65 219.0 -256.65 264.7 -180.45 340.65 -180.45 342.7 -180.0 344.3 -178.75 379.3 -139.95 616.65 -139.95 Q622.85 -150.9 653.65 -179.15 654.95 -180.45 656.9 -180.45 L729.9 -180.45 729.9 -229.6 754.25 -229.6 798.5 -180.45 827.2 -180.45 829.3 -180.0 Q830.15 -179.6 830.85 -178.75 L864.7 -139.95 888.05 -139.95 890.0 -139.5 Q890.95 -139.1 891.7 -138.4 L927.55 -98.35 928.05 -98.0 928.8 -97.15 976.45 -44.1 976.7 -43.85 977.2 -43.25 1031.1 13.55 1143.5 13.55 1078.15 70.0 M798.0 -99.45 L798.0 -130.25 710.45 -130.25 710.45 -99.45 798.0 -99.45 M807.75 -99.45 L913.6 -99.45 885.85 -130.25 862.85 -130.25 862.25 -130.25 807.75 -130.25 807.75 -99.45 M798.0 -139.95 L798.0 -170.75 710.45 -170.75 710.45 -139.95 798.0 -139.95 M807.75 -170.75 L807.75 -139.95 851.8 -139.95 825.0 -170.75 807.75 -170.75 M700.7 -99.45 L700.7 -130.25 622.0 -130.25 594.75 -99.45 700.7 -99.45 M700.7 -139.95 L700.7 -170.75 658.85 -170.75 Q636.0 -149.7 628.3 -139.95 L700.7 -139.95 M652.05 -3.5 L652.05 -35.6 491.45 -35.6 491.45 -3.5 652.05 -3.5 M652.05 -45.35 L652.05 -89.75 588.8 -89.75 588.8 -45.35 652.05 -45.35 M700.7 -35.6 L661.8 -35.6 661.8 13.55 700.7 13.55 700.7 -35.6 M798.0 -89.75 L734.75 -89.75 734.75 -45.35 798.0 -45.35 798.0 -89.75 M807.75 -89.75 L807.75 -45.35 871.0 -45.35 871.0 -89.75 807.75 -89.75 M725.05 -89.75 L661.8 -89.75 661.8 -45.35 725.05 -45.35 725.05 -89.75 M773.7 -35.6 L710.45 -35.6 710.45 13.55 773.7 13.55 773.7 -35.6 M880.75 -45.35 L962.25 -45.35 922.35 -89.75 880.75 -89.75 880.75 -45.35 M846.7 -35.6 L783.4 -35.6 783.4 13.55 846.7 13.55 846.7 -35.6 M919.65 -35.6 L856.4 -35.6 856.4 13.55 919.65 13.55 919.65 -35.6 M971.0 -35.6 L929.4 -35.6 929.4 13.55 1015.3 13.55 971.0 -35.6 M52.45 -170.75 L44.55 -139.95 214.1 -139.95 214.1 -170.75 52.45 -170.75 M42.0 -130.25 L34.1 -99.45 214.1 -99.45 214.1 -130.25 42.0 -130.25 M53.55 -45.35 L116.8 -45.35 116.8 -89.75 53.55 -89.75 53.55 -45.35 M43.8 -35.6 L17.65 -35.6 5.0 13.55 43.8 13.55 43.8 -35.6 M126.55 -89.75 L126.55 -45.35 189.8 -45.35 189.8 -89.75 126.55 -89.75 M31.65 -89.75 L20.2 -45.35 43.8 -45.35 43.8 -89.75 31.65 -89.75 M53.55 -35.6 L53.55 13.55 116.8 13.55 116.8 -35.6 53.55 -35.6 M223.85 -130.25 L223.85 -99.45 402.55 -99.45 374.8 -130.25 223.85 -130.25 M223.85 -170.75 L223.85 -139.95 366.2 -139.95 338.45 -170.75 223.85 -170.75 M272.5 -89.75 L272.5 -45.35 335.75 -45.35 335.75 -89.75 272.5 -89.75 M199.5 -89.75 L199.5 -45.35 262.8 -45.35 262.8 -89.75 199.5 -89.75 M189.8 -35.6 L126.55 -35.6 126.55 13.55 189.8 13.55 189.8 -35.6 M262.8 -35.6 L199.5 -35.6 199.5 13.55 262.8 13.55 262.8 -35.6 M481.75 -99.45 L481.75 -130.25 388.05 -130.25 415.8 -99.45 481.75 -99.45 M345.5 -35.6 L345.5 -3.5 481.75 -3.5 481.75 -35.6 345.5 -35.6 M418.5 -45.35 L481.75 -45.35 481.75 -89.75 418.5 -89.75 418.5 -45.35 M345.5 -89.75 L345.5 -45.35 408.75 -45.35 408.75 -89.75 345.5 -89.75 M581.75 -99.45 L609.0 -130.25 491.45 -130.25 491.45 -99.45 581.75 -99.45 M491.45 -89.75 L491.45 -45.35 579.05 -45.35 579.05 -89.75 491.45 -89.75 M335.75 -35.6 L272.5 -35.6 272.5 13.55 335.75 13.55 335.75 -35.6 M491.45 6.25 L491.45 40.55 656.9 40.55 652.05 6.25 491.45 6.25 M481.75 6.25 L345.5 6.25 340.65 40.55 481.75 40.55 481.75 6.25 M912.35 40.55 Q907.4 40.55 903.85 44.45 900.2 48.45 900.2 54.05 900.2 59.55 903.85 63.55 907.4 67.55 912.35 67.55 917.35 67.55 921.0 63.55 924.55 59.55 924.55 54.05 924.55 48.45 921.0 44.45 917.35 40.55 912.35 40.55 M863.7 40.55 Q858.7 40.55 855.2 44.45 851.55 48.45 851.55 54.05 851.55 59.55 855.2 63.55 858.7 67.55 863.7 67.55 868.7 67.55 872.35 63.55 875.85 59.55 875.85 54.05 875.85 48.45 872.35 44.45 868.7 40.55 863.7 40.55 M815.05 40.55 Q810.05 40.55 806.55 44.45 802.9 48.45 802.9 54.05 802.9 59.55 806.55 63.55 810.05 67.55 815.05 67.55 820.05 67.55 823.7 63.55 827.2 59.55 827.2 54.05 827.2 48.45 823.7 44.45 820.05 40.55 815.05 40.55 M757.9 44.45 Q754.25 48.45 754.25 54.05 754.25 59.55 757.9 63.55 761.4 67.55 766.4 67.55 771.4 67.55 775.05 63.55 778.55 59.55 778.55 54.05 778.55 48.45 775.05 44.45 771.4 40.55 766.4 40.55 761.4 40.55 757.9 44.45 M709.2 44.45 Q705.55 48.45 705.55 54.05 705.55 59.55 709.2 63.55 712.75 67.55 717.75 67.55 722.7 67.55 726.35 63.55 729.9 59.55 729.9 54.05 729.9 48.45 726.35 44.45 722.7 40.55 717.75 40.55 712.75 40.55 709.2 44.45" fill="url(#gradient9)" fill-rule="evenodd" stroke="none"/>
    <path d="M798.0 -99.45 L710.45 -99.45 710.45 -130.25 798.0 -130.25 798.0 -99.45 M807.75 -99.45 L807.75 -130.25 862.25 -130.25 862.85 -130.25 885.85 -130.25 913.6 -99.45 807.75 -99.45 M700.7 -99.45 L594.75 -99.45 622.0 -130.25 700.7 -130.25 700.7 -99.45 M42.0 -130.25 L214.1 -130.25 214.1 -99.45 34.1 -99.45 42.0 -130.25 M223.85 -130.25 L374.8 -130.25 402.55 -99.45 223.85 -99.45 223.85 -130.25 M481.75 -99.45 L415.8 -99.45 388.05 -130.25 481.75 -130.25 481.75 -99.45 M581.75 -99.45 L491.45 -99.45 491.45 -130.25 609.0 -130.25 581.75 -99.45" fill="#b3c0c5" fill-rule="evenodd" stroke="none"/>
    <path d="M807.75 -170.75 L825.0 -170.75 851.8 -139.95 807.75 -139.95 807.75 -170.75 M798.0 -139.95 L710.45 -139.95 710.45 -170.75 798.0 -170.75 798.0 -139.95 M700.7 -139.95 L628.3 -139.95 Q636.0 -149.7 658.85 -170.75 L700.7 -170.75 700.7 -139.95 M52.45 -170.75 L214.1 -170.75 214.1 -139.95 44.55 -139.95 52.45 -170.75 M223.85 -170.75 L338.45 -170.75 366.2 -139.95 223.85 -139.95 223.85 -170.75" fill="#bcc7cb" fill-rule="evenodd" stroke="none"/>
    <path d="M652.05 -45.35 L588.8 -45.35 588.8 -89.75 652.05 -89.75 652.05 -45.35 M725.05 -89.75 L725.05 -45.35 661.8 -45.35 661.8 -89.75 725.05 -89.75 M807.75 -89.75 L871.0 -89.75 871.0 -45.35 807.75 -45.35 807.75 -89.75 M798.0 -89.75 L798.0 -45.35 734.75 -45.35 734.75 -89.75 798.0 -89.75 M880.75 -45.35 L880.75 -89.75 922.35 -89.75 962.25 -45.35 880.75 -45.35 M53.55 -45.35 L53.55 -89.75 116.8 -89.75 116.8 -45.35 53.55 -45.35 M31.65 -89.75 L43.8 -89.75 43.8 -45.35 20.2 -45.35 31.65 -89.75 M126.55 -89.75 L189.8 -89.75 189.8 -45.35 126.55 -45.35 126.55 -89.75 M199.5 -89.75 L262.8 -89.75 262.8 -45.35 199.5 -45.35 199.5 -89.75 M272.5 -89.75 L335.75 -89.75 335.75 -45.35 272.5 -45.35 272.5 -89.75 M345.5 -89.75 L408.75 -89.75 408.75 -45.35 345.5 -45.35 345.5 -89.75 M418.5 -45.35 L418.5 -89.75 481.75 -89.75 481.75 -45.35 418.5 -45.35 M491.45 -89.75 L579.05 -89.75 579.05 -45.35 491.45 -45.35 491.45 -89.75" fill="#a7b6bc" fill-rule="evenodd" stroke="none"/>
    <path d="M652.05 -3.5 L491.45 -3.5 491.45 -35.6 652.05 -35.6 652.05 -3.5 M700.7 -35.6 L700.7 13.55 661.8 13.55 661.8 -35.6 700.7 -35.6 M773.7 -35.6 L773.7 13.55 710.45 13.55 710.45 -35.6 773.7 -35.6 M971.0 -35.6 L1015.3 13.55 929.4 13.55 929.4 -35.6 971.0 -35.6 M919.65 -35.6 L919.65 13.55 856.4 13.55 856.4 -35.6 919.65 -35.6 M846.7 -35.6 L846.7 13.55 783.4 13.55 783.4 -35.6 846.7 -35.6 M43.8 -35.6 L43.8 13.55 5.0 13.55 17.65 -35.6 43.8 -35.6 M53.55 -35.6 L116.8 -35.6 116.8 13.55 53.55 13.55 53.55 -35.6 M262.8 -35.6 L262.8 13.55 199.5 13.55 199.5 -35.6 262.8 -35.6 M189.8 -35.6 L189.8 13.55 126.55 13.55 126.55 -35.6 189.8 -35.6 M345.5 -35.6 L481.75 -35.6 481.75 -3.5 345.5 -3.5 345.5 -35.6 M335.75 -35.6 L335.75 13.55 272.5 13.55 272.5 -35.6 335.75 -35.6" fill="#99aab2" fill-rule="evenodd" stroke="none"/>
    <path d="M1078.15 70.0 L1143.5 13.55 1143.5 70.0 1078.15 70.0" fill="#000000" fill-opacity="0.007843138" fill-rule="evenodd" stroke="none"/>
    <path d="M709.2 44.45 Q712.75 40.55 717.75 40.55 722.7 40.55 726.35 44.45 729.9 48.45 729.9 54.05 729.9 59.55 726.35 63.55 722.7 67.55 717.75 67.55 712.75 67.55 709.2 63.55 705.55 59.55 705.55 54.05 705.55 48.45 709.2 44.45 M757.9 44.45 Q761.4 40.55 766.4 40.55 771.4 40.55 775.05 44.45 778.55 48.45 778.55 54.05 778.55 59.55 775.05 63.55 771.4 67.55 766.4 67.55 761.4 67.55 757.9 63.55 754.25 59.55 754.25 54.05 754.25 48.45 757.9 44.45 M815.05 40.55 Q820.05 40.55 823.7 44.45 827.2 48.45 827.2 54.05 827.2 59.55 823.7 63.55 820.05 67.55 815.05 67.55 810.05 67.55 806.55 63.55 802.9 59.55 802.9 54.05 802.9 48.45 806.55 44.45 810.05 40.55 815.05 40.55 M863.7 40.55 Q868.7 40.55 872.35 44.45 875.85 48.45 875.85 54.05 875.85 59.55 872.35 63.55 868.7 67.55 863.7 67.55 858.7 67.55 855.2 63.55 851.55 59.55 851.55 54.05 851.55 48.45 855.2 44.45 858.7 40.55 863.7 40.55 M912.35 40.55 Q917.35 40.55 921.0 44.45 924.55 48.45 924.55 54.05 924.55 59.55 921.0 63.55 917.35 67.55 912.35 67.55 907.4 67.55 903.85 63.55 900.2 59.55 900.2 54.05 900.2 48.45 903.85 44.45 907.4 40.55 912.35 40.55" fill="#666666" fill-rule="evenodd" stroke="none"/>
    <path d="M491.45 6.25 L652.05 6.25 656.9 40.55 491.45 40.55 491.45 6.25 M481.75 6.25 L481.75 40.55 340.65 40.55 345.5 6.25 481.75 6.25" fill="#93a6ae" fill-rule="evenodd" stroke="none"/>
  </g>
  <defs>
    <linearGradient gradientTransform="matrix(0.0, -0.238, 0.2368, 0.0, 6348.85, 43.95)" gradientUnits="userSpaceOnUse" id="gradient0" spreadMethod="pad" x1="-819.2" x2="819.2">
      <stop offset="0.0" stop-color="#666666"/>
      <stop offset="1.0" stop-color="#888888"/>
    </linearGradient>
    <linearGradient gradientTransform="matrix(0.0, 0.0965, -0.1184, 0.0, 5386.9, 155.95)" gradientUnits="userSpaceOnUse" id="gradient1" spreadMethod="pad" x1="-819.2" x2="819.2">
      <stop offset="0.0" stop-color="#99cc00"/>
      <stop offset="1.0" stop-color="#88a901"/>
    </linearGradient>
    <linearGradient gradientTransform="matrix(0.0, -0.1921, 0.2315, 0.0, 4597.3, 48.35)" gradientUnits="userSpaceOnUse" id="gradient2" spreadMethod="pad" x1="-819.2" x2="819.2">
      <stop offset="0.0" stop-color="#666666"/>
      <stop offset="1.0" stop-color="#888888"/>
    </linearGradient>
    <linearGradient gradientTransform="matrix(0.0, 0.1098, -0.1428, 0.0, 3437.1, 141.95)" gradientUnits="userSpaceOnUse" id="gradient3" spreadMethod="pad" x1="-819.2" x2="819.2">
      <stop offset="0.0" stop-color="#99cc00"/>
      <stop offset="1.0" stop-color="#88a901"/>
    </linearGradient>
    <linearGradient gradientTransform="matrix(0.0, 0.1172, -0.1243, 0.0, 2356.05, 136.15)" gradientUnits="userSpaceOnUse" id="gradient4" spreadMethod="pad" x1="-819.2" x2="819.2">
      <stop offset="0.0" stop-color="#ffcc00"/>
      <stop offset="1.0" stop-color="#e3b602"/>
    </linearGradient>
    <linearGradient gradientTransform="matrix(0.0, 0.0841, -0.0862, 0.0, 4480.9, -71.9)" gradientUnits="userSpaceOnUse" id="gradient5" spreadMethod="pad" x1="-819.2" x2="819.2">
      <stop offset="0.0" stop-color="#888888"/>
      <stop offset="1.0" stop-color="#7c7c7c"/>
    </linearGradient>
    <linearGradient gradientTransform="matrix(0.0, -0.1509, 0.216, 0.0, 5911.9, 113.6)" gradientUnits="userSpaceOnUse" id="gradient6" spreadMethod="pad" x1="-819.2" x2="819.2">
      <stop offset="0.0" stop-color="#666666"/>
      <stop offset="1.0" stop-color="#888888"/>
    </linearGradient>
    <linearGradient gradientTransform="matrix(0.0, -0.0686, 0.1354, 0.0, 5914.25, 180.35)" gradientUnits="userSpaceOnUse" id="gradient7" spreadMethod="pad" x1="-819.2" x2="819.2">
      <stop offset="0.0" stop-color="#88a900"/>
      <stop offset="1.0" stop-color="#98ca00"/>
    </linearGradient>
    <linearGradient gradientTransform="matrix(0.0, 0.0678, -0.1184, 0.0, 5386.9, 180.35)" gradientUnits="userSpaceOnUse" id="gradient8" spreadMethod="pad" x1="-819.2" x2="819.2">
      <stop offset="0.0" stop-color="#99cc00"/>
      <stop offset="1.0" stop-color="#88a901"/>
    </linearGradient>
    <linearGradient gradientTransform="matrix(0.0, 0.317, -0.3133, 0.0, 571.75, 0.05)" gradientUnits="userSpaceOnUse" id="gradient9" spreadMethod="pad" x1="-819.2" x2="819.2">
      <stop offset="0.0" stop-color="#ffffff"/>
      <stop offset="1.0" stop-color="#dbd5bd"/>
    </linearGradient>
  </defs>
</svg>
