<?xml version="1.0" encoding="UTF-8" standalone="no"?>
<svg xmlns:ffdec="https://www.free-decompiler.com/flash" xmlns:xlink="http://www.w3.org/1999/xlink" ffdec:objectType="shape" height="116.55px" width="365.55px" xmlns="http://www.w3.org/2000/svg">
  <g transform="matrix(1.0, 0.0, 0.0, 1.0, 182.75, 58.25)">
    <path d="M63.3 -55.25 L63.3 -42.45 45.15 -42.45 45.15 -55.25 63.3 -55.25 M24.25 -54.7 L24.25 -15.4 44.65 -15.4 40.0 1.45 4.95 1.45 4.95 -54.7 24.25 -54.7 M68.7 -37.85 L68.7 -41.45 68.7 -42.1 68.75 -42.75 68.8 -43.45 68.95 -44.1 Q69.8 -49.3 72.85 -52.0 75.9 -54.6 81.25 -54.6 L93.45 -54.7 96.85 -40.65 89.15 -40.6 88.15 -40.25 87.45 -39.7 87.35 -39.55 87.2 -39.4 87.05 -39.15 87.0 -38.95 86.9 -38.4 91.7 -38.4 91.7 -26.4 Q92.3 -33.0 96.35 -36.65 101.05 -40.9 109.8 -41.35 L112.25 -41.45 114.6 -41.5 Q125.15 -41.45 129.4 -38.5 133.6 -35.55 133.6 -29.35 L133.6 -28.4 133.5 -27.4 Q133.35 -24.85 131.8 -21.65 130.2 -18.5 127.05 -15.15 L127.05 -15.25 126.6 -14.75 126.25 -14.4 125.85 -14.0 125.45 -13.65 131.4 -13.65 127.35 1.35 119.05 1.35 Q107.0 1.05 100.75 -3.15 L100.2 -3.55 Q94.05 -8.1 92.3 -17.1 L91.8 -20.75 91.6 -24.05 91.65 -25.55 86.7 -25.55 86.7 1.35 79.2 1.35 79.2 1.45 78.0 1.45 77.95 1.35 68.5 1.4 68.5 -25.55 65.6 -25.55 65.6 -37.85 68.7 -37.85 M63.3 -40.65 L63.3 1.45 45.15 1.45 45.15 -40.65 63.3 -40.65 M113.2 -26.55 L113.05 -26.55 112.95 -26.6 112.85 -26.55 112.5 -26.5 112.2 -26.45 Q111.3 -26.15 110.45 -25.3 109.6 -24.45 109.1 -23.4 L108.95 -22.75 108.85 -21.95 108.85 -21.5 108.95 -21.1 109.15 -20.0 Q109.25 -19.45 109.5 -19.0 L109.85 -17.95 110.05 -17.5 Q110.4 -17.35 111.1 -17.7 111.9 -18.05 112.75 -18.65 L113.95 -19.75 115.0 -20.95 115.7 -22.5 115.9 -23.7 Q115.9 -24.9 115.15 -25.65 114.3 -26.3 113.2 -26.55 M156.75 -37.55 L155.85 -37.7 154.95 -37.85 138.85 -37.85 143.2 -54.7 163.15 -54.7 165.9 -54.55 168.15 -54.3 Q172.6 -53.75 175.45 -50.5 178.35 -47.2 178.35 -42.75 L178.05 -40.2 177.25 -37.45 175.9 -34.85 Q175.1 -33.4 173.9 -31.9 L173.2 -30.95 172.3 -29.95 170.55 -28.1 173.1 -26.15 175.25 -24.0 177.6 -20.7 Q178.55 -19.1 179.1 -17.45 L179.65 -15.3 179.8 -13.15 179.7 -11.35 179.3 -9.4 Q178.6 -5.9 176.75 -3.55 175.7 -2.3 174.4 -1.35 171.35 0.9 166.35 1.35 L142.0 1.35 137.8 -15.4 156.3 -15.4 156.85 -15.45 157.2 -15.4 157.65 -15.55 Q158.9 -15.95 159.4 -16.45 160.0 -16.95 160.0 -17.75 L159.95 -18.1 159.85 -18.5 158.6 -20.25 155.05 -23.4 154.85 -23.45 154.85 -23.55 153.1 -24.9 150.45 -26.85 150.1 -27.15 149.7 -27.4 149.3 -27.65 148.95 -27.9 155.85 -32.95 Q157.1 -33.75 157.65 -34.45 158.2 -35.1 158.2 -35.75 L158.1 -36.1 157.95 -36.5 157.65 -36.9 157.3 -37.25 156.75 -37.55 M179.1 4.8 L179.1 54.2 162.25 54.2 162.25 40.85 150.5 25.8 152.35 31.55 152.25 48.9 152.35 51.8 Q152.4 52.75 152.75 53.4 L153.0 53.9 153.2 54.2 135.9 54.2 135.9 53.35 135.9 4.8 152.75 4.8 162.45 17.6 162.45 4.8 179.1 4.8 M134.65 25.35 L134.6 27.3 134.4 29.3 Q132.85 39.7 126.5 47.5 122.5 52.4 116.95 54.2 L114.9 54.2 114.9 54.75 109.55 55.3 Q99.15 55.2 92.85 47.4 86.6 39.65 85.15 29.3 L85.15 29.2 84.85 26.7 84.8 24.25 Q84.8 15.45 90.5 9.9 96.25 4.3 109.95 3.6 L110.45 3.6 110.85 3.55 111.35 3.55 111.8 3.55 Q123.35 3.6 129.05 10.15 134.75 16.7 134.65 25.35 M103.45 21.2 Q101.25 23.9 101.2 27.05 L101.2 27.15 101.2 27.25 101.35 28.7 101.7 30.1 102.0 30.95 102.25 31.8 Q103.45 35.1 105.2 37.75 106.95 40.5 110.4 40.45 114.1 40.35 115.7 37.25 117.25 34.15 118.0 30.35 L118.1 29.65 118.25 28.85 118.4 27.95 118.4 27.0 Q118.4 23.55 116.15 21.05 113.85 18.55 109.15 18.5 L109.15 18.45 109.05 18.5 108.95 18.5 Q105.55 18.5 103.45 21.2 M83.5 54.45 L66.6 54.45 66.6 19.7 55.4 19.7 55.4 54.45 38.4 54.45 38.4 19.7 27.5 19.7 27.5 54.45 0.0 54.45 Q-7.45 54.45 -12.45 49.35 -15.95 45.75 -16.95 39.65 L-21.0 54.45 -51.6 54.45 -51.6 4.8 -34.75 4.8 -34.75 39.55 -17.0 39.55 Q-17.4 37.05 -17.4 34.15 -17.4 30.0 -16.4 25.05 -15.35 20.0 -13.2 14.2 L-13.2 14.15 -11.15 9.35 -9.0 4.85 9.2 4.8 Q8.15 6.55 7.25 8.35 L5.5 11.85 3.9 15.45 2.55 18.95 Q0.7 24.05 -0.1 27.55 -1.0 31.15 -1.0 33.55 -1.0 37.05 0.85 38.35 2.75 39.65 6.2 39.65 L10.6 39.55 10.6 4.8 27.5 4.8 27.5 18.75 31.1 4.8 62.7 4.8 66.6 19.7 66.6 4.8 83.5 4.8 83.5 54.45 M-179.75 -37.85 L-175.25 -54.7 -146.75 -54.7 -144.1 -54.45 -141.55 -54.0 Q-133.35 -52.05 -128.6 -45.8 -123.9 -39.55 -123.9 -30.6 L-123.95 -28.35 -124.2 -26.15 Q-124.5 -23.5 -125.3 -21.0 -126.05 -18.45 -127.25 -16.1 -131.3 -7.95 -138.15 -3.55 L-139.15 -2.95 Q-145.65 0.8 -154.3 1.35 L-175.85 1.35 -175.85 -37.85 -179.75 -37.85 M-153.1 -37.8 L-153.1 -37.85 -156.55 -37.85 -156.55 -15.3 -155.3 -15.45 -153.5 -15.8 Q-152.55 -16.1 -151.55 -16.65 -149.95 -17.5 -148.4 -18.9 -146.85 -20.3 -145.6 -22.15 -144.25 -24.2 -143.65 -26.0 -143.05 -27.8 -143.05 -29.45 L-143.1 -30.4 -143.3 -31.3 Q-143.95 -34.5 -145.8 -35.95 -147.6 -37.4 -151.5 -37.7 L-152.2 -37.8 -153.1 -37.8 M-100.65 -32.7 L-101.6 -29.4 -102.4 -26.55 -103.2 -22.3 -103.45 -19.4 -103.45 -18.65 -103.35 -18.05 Q-102.95 -15.8 -101.85 -14.7 -100.85 -13.6 -99.1 -13.6 L-97.15 -13.65 -97.15 -40.65 -79.1 -40.65 -79.1 1.45 -102.65 1.45 Q-111.5 1.45 -116.6 -3.1 L-117.05 -3.55 Q-121.7 -8.2 -121.7 -17.75 -121.7 -21.65 -120.9 -26.45 -120.0 -31.3 -118.25 -37.0 L-118.25 -37.1 -117.2 -40.65 -97.65 -40.65 -98.55 -38.6 -99.25 -36.65 -100.0 -34.7 -100.65 -32.7 M-21.4 -54.7 L-21.4 1.35 -39.55 1.35 -39.55 -54.7 -21.4 -54.7 M-51.95 -25.55 L-53.3 -25.3 -54.6 -25.05 Q-56.1 -24.75 -57.1 -23.55 -58.05 -22.35 -58.05 -20.65 L-57.85 -19.4 -57.5 -18.15 Q-56.35 -15.7 -53.95 -14.4 -51.55 -13.05 -47.2 -13.05 L-45.7 -13.1 -44.15 -13.2 -43.05 -13.35 -42.0 -13.5 -46.1 1.35 -53.55 1.35 Q-60.65 0.65 -65.5 -2.6 L-66.8 -3.55 Q-72.15 -7.85 -74.7 -15.95 L-75.55 -19.95 -75.85 -23.9 -75.85 -24.2 -75.85 -24.5 Q-75.6 -30.7 -73.3 -34.4 -70.9 -38.1 -66.85 -39.65 L-66.85 -39.7 -64.45 -40.35 -62.15 -40.6 -45.2 -40.65 -41.3 -25.55 -51.95 -25.55 M-44.15 -0.45 L-42.05 -0.5 -42.9 -0.45 -44.15 -0.45 M-17.15 -40.65 L2.0 -40.65 -4.65 -21.7 3.8 1.45 -7.9 1.45 -10.55 1.35 -15.65 1.35 -20.75 -21.95 -17.15 -40.65 M-78.35 18.5 L-78.35 18.45 -78.45 18.5 -78.55 18.5 Q-81.95 18.5 -84.05 21.2 -86.25 23.9 -86.3 27.05 L-86.3 27.15 -86.3 27.25 -86.15 28.7 -85.8 30.1 -85.5 30.95 -85.25 31.8 Q-84.05 35.1 -82.3 37.75 -80.55 40.5 -77.1 40.45 -73.4 40.35 -71.8 37.25 -70.25 34.15 -69.5 30.35 L-69.4 29.65 -69.25 28.85 -69.1 27.95 -69.1 27.0 Q-69.1 23.55 -71.35 21.05 -73.65 18.55 -78.35 18.5 M-76.15 3.55 L-75.7 3.55 Q-64.15 3.6 -58.45 10.15 -52.75 16.7 -52.85 25.35 L-52.9 27.3 -53.1 29.3 Q-54.65 39.7 -61.0 47.5 -67.4 55.35 -77.95 55.3 -88.35 55.2 -94.65 47.4 -100.9 39.65 -102.35 29.3 L-102.35 29.2 -102.65 26.7 -102.7 24.25 Q-102.7 15.45 -97.0 9.9 -91.25 4.3 -77.55 3.6 L-77.05 3.6 -76.65 3.55 -76.15 3.55 M-117.05 4.8 L-99.4 4.8 -112.95 54.45 -131.85 54.45 -141.35 19.7 -162.25 19.7 -162.25 22.45 -143.7 22.45 -148.1 36.75 -162.25 36.75 -162.25 39.55 -139.9 39.55 -144.1 54.45 -179.1 54.45 -179.1 4.8 -127.75 4.8 -123.5 27.75 -122.45 37.2 -121.35 27.75 -117.05 4.8" fill="#000000" fill-rule="evenodd" stroke="none"/>
    <path d="M63.3 -55.25 L63.3 -42.45 45.15 -42.45 45.15 -55.25 63.3 -55.25 M24.25 -54.7 L24.25 -15.4 44.65 -15.4 40.0 1.45 4.95 1.45 4.95 -54.7 24.25 -54.7 M68.7 -37.85 L68.7 -41.45 68.7 -42.1 68.75 -42.75 68.8 -43.45 68.95 -44.1 Q69.8 -49.3 72.85 -52.0 75.9 -54.6 81.25 -54.6 L93.45 -54.7 96.85 -40.65 89.15 -40.6 88.15 -40.25 87.45 -39.7 87.35 -39.55 87.2 -39.4 87.05 -39.15 87.0 -38.95 86.9 -38.4 91.7 -38.4 91.7 -26.4 Q92.3 -33.0 96.35 -36.65 101.05 -40.9 109.8 -41.35 L112.25 -41.45 114.6 -41.5 Q125.15 -41.45 129.4 -38.5 133.6 -35.55 133.6 -29.35 L133.6 -28.4 133.5 -27.4 Q133.35 -24.85 131.8 -21.65 130.2 -18.5 127.05 -15.15 L127.05 -15.25 126.6 -14.75 126.25 -14.4 125.85 -14.0 125.45 -13.65 131.4 -13.65 127.35 1.35 119.05 1.35 Q107.0 1.05 100.75 -3.15 L100.2 -3.55 Q94.05 -8.1 92.3 -17.1 L91.8 -20.75 91.6 -24.05 91.65 -25.55 86.7 -25.55 86.7 1.35 79.2 1.35 79.2 1.45 78.0 1.45 77.95 1.35 68.5 1.4 68.5 -25.55 65.6 -25.55 65.6 -37.85 68.7 -37.85 M63.3 -40.65 L63.3 1.45 45.15 1.45 45.15 -40.65 63.3 -40.65 M113.2 -26.55 L113.05 -26.55 112.95 -26.6 112.85 -26.55 112.5 -26.5 112.2 -26.45 Q111.3 -26.15 110.45 -25.3 109.6 -24.45 109.1 -23.4 L108.95 -22.75 108.85 -21.95 108.85 -21.5 108.95 -21.1 109.15 -20.0 Q109.25 -19.45 109.5 -19.0 L109.85 -17.95 110.05 -17.5 Q110.4 -17.35 111.1 -17.7 111.9 -18.05 112.75 -18.65 L113.95 -19.75 115.0 -20.95 115.7 -22.5 115.9 -23.7 Q115.9 -24.9 115.15 -25.65 114.3 -26.3 113.2 -26.55 M156.75 -37.55 L155.85 -37.7 154.95 -37.85 138.85 -37.85 143.2 -54.7 163.15 -54.7 165.9 -54.55 168.15 -54.3 Q172.6 -53.75 175.45 -50.5 178.35 -47.2 178.35 -42.75 L178.05 -40.2 177.25 -37.45 175.9 -34.85 Q175.1 -33.4 173.9 -31.9 L173.2 -30.95 172.3 -29.95 170.55 -28.1 173.1 -26.15 175.25 -24.0 177.6 -20.7 Q178.55 -19.1 179.1 -17.45 L179.65 -15.3 179.8 -13.15 179.7 -11.35 179.3 -9.4 Q178.6 -5.9 176.75 -3.55 175.7 -2.3 174.4 -1.35 171.35 0.9 166.35 1.35 L142.0 1.35 137.8 -15.4 156.3 -15.4 156.85 -15.45 157.2 -15.4 157.65 -15.55 Q158.9 -15.95 159.4 -16.45 160.0 -16.95 160.0 -17.75 L159.95 -18.1 159.85 -18.5 158.6 -20.25 155.05 -23.4 154.85 -23.45 154.85 -23.55 153.1 -24.9 150.45 -26.85 150.1 -27.15 149.7 -27.4 149.3 -27.65 148.95 -27.9 155.85 -32.95 Q157.1 -33.75 157.65 -34.45 158.2 -35.1 158.2 -35.75 L158.1 -36.1 157.95 -36.5 157.65 -36.9 157.3 -37.25 156.75 -37.55 M179.1 4.8 L179.1 54.2 162.25 54.2 162.25 40.85 150.5 25.8 152.35 31.55 152.25 48.9 152.35 51.8 Q152.4 52.75 152.75 53.4 L153.0 53.9 153.2 54.2 135.9 54.2 135.9 53.35 135.9 4.8 152.75 4.8 162.45 17.6 162.45 4.8 179.1 4.8 M134.65 25.35 L134.6 27.3 134.4 29.3 Q132.85 39.7 126.5 47.5 122.5 52.4 116.95 54.2 L114.9 54.2 114.9 54.75 109.55 55.3 Q99.15 55.2 92.85 47.4 86.6 39.65 85.15 29.3 L85.15 29.2 84.85 26.7 84.8 24.25 Q84.8 15.45 90.5 9.9 96.25 4.3 109.95 3.6 L110.45 3.6 110.85 3.55 111.35 3.55 111.8 3.55 Q123.35 3.6 129.05 10.15 134.75 16.7 134.65 25.35 M103.45 21.2 Q101.25 23.9 101.2 27.05 L101.2 27.15 101.2 27.25 101.35 28.7 101.7 30.1 102.0 30.95 102.25 31.8 Q103.45 35.1 105.2 37.75 106.95 40.5 110.4 40.45 114.1 40.35 115.7 37.25 117.25 34.15 118.0 30.35 L118.1 29.65 118.25 28.85 118.4 27.95 118.4 27.0 Q118.4 23.55 116.15 21.05 113.85 18.55 109.15 18.5 L109.15 18.45 109.05 18.5 108.95 18.5 Q105.55 18.5 103.45 21.2 M83.5 54.45 L66.6 54.45 66.6 19.7 55.4 19.7 55.4 54.45 38.4 54.45 38.4 19.7 27.5 19.7 27.5 54.45 0.0 54.45 Q-7.45 54.45 -12.45 49.35 -15.95 45.75 -16.95 39.65 L-21.0 54.45 -51.6 54.45 -51.6 4.8 -34.75 4.8 -34.75 39.55 -17.0 39.55 Q-17.4 37.05 -17.4 34.15 -17.4 30.0 -16.4 25.05 -15.35 20.0 -13.2 14.2 L-13.2 14.15 -11.15 9.35 -9.0 4.85 9.2 4.8 Q8.15 6.55 7.25 8.35 L5.5 11.85 3.9 15.45 2.55 18.95 Q0.7 24.05 -0.1 27.55 -1.0 31.15 -1.0 33.55 -1.0 37.05 0.85 38.35 2.75 39.65 6.2 39.65 L10.6 39.55 10.6 4.8 27.5 4.8 27.5 18.75 31.1 4.8 62.7 4.8 66.6 19.7 66.6 4.8 83.5 4.8 83.5 54.45 M-179.75 -37.85 L-175.25 -54.7 -146.75 -54.7 -144.1 -54.45 -141.55 -54.0 Q-133.35 -52.05 -128.6 -45.8 -123.9 -39.55 -123.9 -30.6 L-123.95 -28.35 -124.2 -26.15 Q-124.5 -23.5 -125.3 -21.0 -126.05 -18.45 -127.25 -16.1 -131.3 -7.95 -138.15 -3.55 L-139.15 -2.95 Q-145.65 0.8 -154.3 1.35 L-175.85 1.35 -175.85 -37.85 -179.75 -37.85 M-153.1 -37.8 L-153.1 -37.85 -156.55 -37.85 -156.55 -15.3 -155.3 -15.45 -153.5 -15.8 Q-152.55 -16.1 -151.55 -16.65 -149.95 -17.5 -148.4 -18.9 -146.85 -20.3 -145.6 -22.15 -144.25 -24.2 -143.65 -26.0 -143.05 -27.8 -143.05 -29.45 L-143.1 -30.4 -143.3 -31.3 Q-143.95 -34.5 -145.8 -35.95 -147.6 -37.4 -151.5 -37.7 L-152.2 -37.8 -153.1 -37.8 M-100.65 -32.7 L-101.6 -29.4 -102.4 -26.55 -103.2 -22.3 -103.45 -19.4 -103.45 -18.65 -103.35 -18.05 Q-102.95 -15.8 -101.85 -14.7 -100.85 -13.6 -99.1 -13.6 L-97.15 -13.65 -97.15 -40.65 -79.1 -40.65 -79.1 1.45 -102.65 1.45 Q-111.5 1.45 -116.6 -3.1 L-117.05 -3.55 Q-121.7 -8.2 -121.7 -17.75 -121.7 -21.65 -120.9 -26.45 -120.0 -31.3 -118.25 -37.0 L-118.25 -37.1 -117.2 -40.65 -97.65 -40.65 -98.55 -38.6 -99.25 -36.65 -100.0 -34.7 -100.65 -32.7 M-21.4 -54.7 L-21.4 1.35 -39.55 1.35 -39.55 -54.7 -21.4 -54.7 M-51.95 -25.55 L-53.3 -25.3 -54.6 -25.05 Q-56.1 -24.75 -57.1 -23.55 -58.05 -22.35 -58.05 -20.65 L-57.85 -19.4 -57.5 -18.15 Q-56.35 -15.7 -53.95 -14.4 -51.55 -13.05 -47.2 -13.05 L-45.7 -13.1 -44.15 -13.2 -43.05 -13.35 -42.0 -13.5 -46.1 1.35 -53.55 1.35 Q-60.65 0.65 -65.5 -2.6 L-66.8 -3.55 Q-72.15 -7.85 -74.7 -15.95 L-75.55 -19.95 -75.85 -23.9 -75.85 -24.2 -75.85 -24.5 Q-75.6 -30.7 -73.3 -34.4 -70.9 -38.1 -66.85 -39.65 L-66.85 -39.7 -64.45 -40.35 -62.15 -40.6 -45.2 -40.65 -41.3 -25.55 -51.95 -25.55 M-17.15 -40.65 L2.0 -40.65 -4.65 -21.7 3.8 1.45 -7.9 1.45 -10.55 1.35 -15.65 1.35 -20.75 -21.95 -17.15 -40.65 M-78.35 18.5 L-78.35 18.45 -78.45 18.5 -78.55 18.5 Q-81.95 18.5 -84.05 21.2 -86.25 23.9 -86.3 27.05 L-86.3 27.15 -86.3 27.25 -86.15 28.7 -85.8 30.1 -85.5 30.95 -85.25 31.8 Q-84.05 35.1 -82.3 37.75 -80.55 40.5 -77.1 40.45 -73.4 40.35 -71.8 37.25 -70.25 34.15 -69.5 30.35 L-69.4 29.65 -69.25 28.85 -69.1 27.95 -69.1 27.0 Q-69.1 23.55 -71.35 21.05 -73.65 18.55 -78.35 18.5 M-76.15 3.55 L-75.7 3.55 Q-64.15 3.6 -58.45 10.15 -52.75 16.7 -52.85 25.35 L-52.9 27.3 -53.1 29.3 Q-54.65 39.7 -61.0 47.5 -67.4 55.35 -77.95 55.3 -88.35 55.2 -94.65 47.4 -100.9 39.65 -102.35 29.3 L-102.35 29.2 -102.65 26.7 -102.7 24.25 Q-102.7 15.45 -97.0 9.9 -91.25 4.3 -77.55 3.6 L-77.05 3.6 -76.65 3.55 -76.15 3.55 M-117.05 4.8 L-99.4 4.8 -112.95 54.45 -131.85 54.45 -141.35 19.7 -162.25 19.7 -162.25 22.45 -143.7 22.45 -148.1 36.75 -162.25 36.75 -162.25 39.55 -139.9 39.55 -144.1 54.45 -179.1 54.45 -179.1 4.8 -127.75 4.8 -123.5 27.75 -122.45 37.2 -121.35 27.75 -117.05 4.8 Z" fill="none" stroke="#000000" stroke-linecap="round" stroke-linejoin="round" stroke-width="6.0"/>
    <path d="M179.1 4.8 L179.1 54.2 162.25 54.2 162.25 40.85 150.5 25.8 152.35 31.55 152.25 48.9 152.35 51.8 Q152.4 52.75 152.75 53.4 L153.0 53.9 153.2 54.2 135.9 54.2 135.9 53.35 135.9 4.8 152.75 4.8 162.45 17.6 162.45 4.8 179.1 4.8" fill="url(#gradient0)" fill-rule="evenodd" stroke="none"/>
    <path d="M134.65 25.35 L134.6 27.3 134.4 29.3 Q132.85 39.7 126.5 47.5 122.5 52.4 116.95 54.2 L114.9 54.2 114.9 54.75 109.55 55.3 Q99.15 55.2 92.85 47.4 86.6 39.65 85.15 29.3 L85.15 29.2 84.85 26.7 84.8 24.25 Q84.8 15.45 90.5 9.9 96.25 4.3 109.95 3.6 L110.45 3.6 110.85 3.55 111.35 3.55 111.8 3.55 Q123.35 3.6 129.05 10.15 134.75 16.7 134.65 25.35 M109.05 18.5 L108.95 18.5 Q105.55 18.5 103.45 21.2 101.25 23.9 101.2 27.05 L101.2 27.15 101.2 27.25 101.35 28.7 101.7 30.1 102.0 30.95 102.25 31.8 Q103.45 35.1 105.2 37.75 106.95 40.5 110.4 40.45 114.1 40.35 115.7 37.25 117.25 34.15 118.0 30.35 L118.1 29.65 118.25 28.85 118.4 27.95 118.4 27.0 Q118.4 23.55 116.15 21.05 113.85 18.55 109.15 18.5 L109.15 18.45 109.05 18.5" fill="url(#gradient1)" fill-rule="evenodd" stroke="none"/>
    <path d="M66.6 19.7 L66.6 4.8 83.5 4.8 83.5 54.45 66.6 54.45 66.6 19.7" fill="url(#gradient2)" fill-rule="evenodd" stroke="none"/>
    <path d="M66.6 19.7 L55.4 19.7 55.4 54.45 38.4 54.45 38.4 19.7 27.5 19.7 27.5 54.45 0.0 54.45 Q-7.45 54.45 -12.45 49.35 -15.95 45.75 -16.95 39.65 L-21.0 54.45 -51.6 54.45 -51.6 4.8 -34.75 4.8 -34.75 39.55 -17.0 39.55 Q-17.4 37.05 -17.4 34.15 -17.4 30.0 -16.4 25.05 -15.35 20.0 -13.2 14.2 L-13.2 14.15 -11.15 9.35 -9.0 4.85 9.2 4.8 Q8.15 6.55 7.25 8.35 L5.5 11.85 3.9 15.45 2.55 18.95 Q0.7 24.05 -0.1 27.55 -1.0 31.15 -1.0 33.55 -1.0 37.05 0.85 38.35 2.75 39.65 6.2 39.65 L10.6 39.55 10.6 4.8 27.5 4.8 27.5 18.75 31.1 4.8 62.7 4.8 66.6 19.7" fill="url(#gradient3)" fill-rule="evenodd" stroke="none"/>
    <path d="M-75.7 3.55 Q-64.15 3.6 -58.45 10.15 -52.75 16.7 -52.85 25.35 L-52.9 27.3 -53.1 29.3 Q-54.65 39.7 -61.0 47.5 -67.4 55.35 -77.95 55.3 -88.35 55.2 -94.65 47.4 -100.9 39.65 -102.35 29.3 L-102.35 29.2 -102.65 26.7 -102.7 24.25 Q-102.7 15.45 -97.0 9.9 -91.25 4.3 -77.55 3.6 L-77.05 3.6 -76.65 3.55 -76.15 3.55 -75.7 3.55 M-78.35 18.5 L-78.35 18.45 -78.45 18.5 -78.55 18.5 Q-81.95 18.5 -84.05 21.2 -86.25 23.9 -86.3 27.05 L-86.3 27.15 -86.3 27.25 -86.15 28.7 -85.8 30.1 -85.5 30.95 -85.25 31.8 Q-84.05 35.1 -82.3 37.75 -80.55 40.5 -77.1 40.45 -73.4 40.35 -71.8 37.25 -70.25 34.15 -69.5 30.35 L-69.4 29.65 -69.25 28.85 -69.1 27.95 -69.1 27.0 Q-69.1 23.55 -71.35 21.05 -73.65 18.55 -78.35 18.5" fill="url(#gradient4)" fill-rule="evenodd" stroke="none"/>
    <path d="M-117.05 4.8 L-99.4 4.8 -112.95 54.45 -131.85 54.45 -141.35 19.7 -162.25 19.7 -162.25 22.45 -143.7 22.45 -148.1 36.75 -162.25 36.75 -162.25 39.55 -139.9 39.55 -144.1 54.45 -179.1 54.45 -179.1 4.8 -127.75 4.8 -123.5 27.75 -122.45 37.2 -121.35 27.75 -117.05 4.8" fill="url(#gradient5)" fill-rule="evenodd" stroke="none"/>
    <path d="M63.3 -55.25 L63.3 -42.45 45.15 -42.45 45.15 -55.25 63.3 -55.25" fill="url(#gradient6)" fill-rule="evenodd" stroke="none"/>
    <path d="M24.25 -54.7 L24.25 -15.4 44.65 -15.4 40.0 1.45 4.95 1.45 4.95 -54.7 24.25 -54.7" fill="url(#gradient7)" fill-rule="evenodd" stroke="none"/>
    <path d="M65.6 -37.85 L68.7 -37.85 68.7 -41.45 68.7 -42.1 68.75 -42.75 68.8 -43.45 68.95 -44.1 Q69.8 -49.3 72.85 -52.0 75.9 -54.6 81.25 -54.6 L93.45 -54.7 96.85 -40.65 89.15 -40.6 88.15 -40.25 87.45 -39.7 87.35 -39.55 87.2 -39.4 87.05 -39.15 87.0 -38.95 86.9 -38.4 91.7 -38.4 91.7 -26.4 Q92.3 -33.0 96.35 -36.65 101.05 -40.9 109.8 -41.35 L112.25 -41.45 114.6 -41.5 Q125.15 -41.45 129.4 -38.5 133.6 -35.55 133.6 -29.35 L133.6 -28.4 133.5 -27.4 Q133.35 -24.85 131.8 -21.65 130.2 -18.5 127.05 -15.15 L127.05 -15.25 126.6 -14.75 126.25 -14.4 125.85 -14.0 125.45 -13.65 131.4 -13.65 127.35 1.35 119.05 1.35 Q107.0 1.05 100.75 -3.15 L100.2 -3.55 Q94.05 -8.1 92.3 -17.1 L91.8 -20.75 91.6 -24.05 91.65 -25.55 86.7 -25.55 86.7 1.35 79.2 1.35 79.2 1.45 78.0 1.45 77.95 1.35 68.5 1.4 68.5 -25.55 65.6 -25.55 65.6 -37.85 M112.5 -26.5 L112.2 -26.45 Q111.3 -26.15 110.45 -25.3 109.6 -24.45 109.1 -23.4 L108.95 -22.75 108.85 -21.95 108.85 -21.5 108.95 -21.1 109.15 -20.0 Q109.25 -19.45 109.5 -19.0 L109.85 -17.95 110.05 -17.5 Q110.4 -17.35 111.1 -17.7 111.9 -18.05 112.75 -18.65 L113.95 -19.75 115.0 -20.95 115.7 -22.5 115.9 -23.7 Q115.9 -24.9 115.15 -25.65 114.3 -26.3 113.2 -26.55 L113.05 -26.55 112.95 -26.6 112.85 -26.55 112.5 -26.5" fill="url(#gradient8)" fill-rule="evenodd" stroke="none"/>
    <path d="M63.3 -40.65 L63.3 1.45 45.15 1.45 45.15 -40.65 63.3 -40.65" fill="url(#gradient9)" fill-rule="evenodd" stroke="none"/>
    <path d="M156.75 -37.55 L155.85 -37.7 154.95 -37.85 138.85 -37.85 143.2 -54.7 163.15 -54.7 165.9 -54.55 168.15 -54.3 Q172.6 -53.75 175.45 -50.5 178.35 -47.2 178.35 -42.75 L178.05 -40.2 177.25 -37.45 175.9 -34.85 Q175.1 -33.4 173.9 -31.9 L173.2 -30.95 172.3 -29.95 170.55 -28.1 173.1 -26.15 175.25 -24.0 177.6 -20.7 Q178.55 -19.1 179.1 -17.45 L179.65 -15.3 179.8 -13.15 179.7 -11.35 179.3 -9.4 Q178.6 -5.9 176.75 -3.55 175.7 -2.3 174.4 -1.35 171.35 0.9 166.35 1.35 L142.0 1.35 137.8 -15.4 156.3 -15.4 156.85 -15.45 157.2 -15.4 157.65 -15.55 Q158.9 -15.95 159.4 -16.45 160.0 -16.95 160.0 -17.75 L159.95 -18.1 159.85 -18.5 158.6 -20.25 155.05 -23.4 154.85 -23.45 154.85 -23.55 153.1 -24.9 150.45 -26.85 150.1 -27.15 149.7 -27.4 149.3 -27.65 148.95 -27.9 155.85 -32.95 Q157.1 -33.75 157.65 -34.45 158.2 -35.1 158.2 -35.75 L158.1 -36.1 157.95 -36.5 157.65 -36.9 157.3 -37.25 156.75 -37.55" fill="url(#gradient10)" fill-rule="evenodd" stroke="none"/>
    <path d="M-179.75 -37.85 L-175.25 -54.7 -146.75 -54.7 -144.1 -54.45 -141.55 -54.0 Q-133.35 -52.05 -128.6 -45.8 -123.9 -39.55 -123.9 -30.6 L-123.95 -28.35 -124.2 -26.15 Q-124.5 -23.5 -125.3 -21.0 -126.05 -18.45 -127.25 -16.1 -131.3 -7.95 -138.15 -3.55 L-139.15 -2.95 Q-145.65 0.8 -154.3 1.35 L-175.85 1.35 -175.85 -37.85 -179.75 -37.85 M-153.1 -37.8 L-153.1 -37.85 -156.55 -37.85 -156.55 -15.3 -155.3 -15.45 -153.5 -15.8 Q-152.55 -16.1 -151.55 -16.65 -149.95 -17.5 -148.4 -18.9 -146.85 -20.3 -145.6 -22.15 -144.25 -24.2 -143.65 -26.0 -143.05 -27.8 -143.05 -29.45 L-143.1 -30.4 -143.3 -31.3 Q-143.95 -34.5 -145.8 -35.95 -147.6 -37.4 -151.5 -37.7 L-152.2 -37.8 -153.1 -37.8" fill="url(#gradient11)" fill-rule="evenodd" stroke="none"/>
    <path d="M-100.65 -32.7 L-101.6 -29.4 -102.4 -26.55 -103.2 -22.3 -103.45 -19.4 -103.45 -18.65 -103.35 -18.05 Q-102.95 -15.8 -101.85 -14.7 -100.85 -13.6 -99.1 -13.6 L-97.15 -13.65 -97.15 -40.65 -79.1 -40.65 -79.1 1.45 -102.65 1.45 Q-111.5 1.45 -116.6 -3.1 L-117.05 -3.55 Q-121.7 -8.2 -121.7 -17.75 -121.7 -21.65 -120.9 -26.45 -120.0 -31.3 -118.25 -37.0 L-118.25 -37.1 -117.2 -40.65 -97.65 -40.65 -98.55 -38.6 -99.25 -36.65 -100.0 -34.7 -100.65 -32.7" fill="url(#gradient12)" fill-rule="evenodd" stroke="none"/>
    <path d="M-21.4 -54.7 L-21.4 1.35 -39.55 1.35 -39.55 -54.7 -21.4 -54.7" fill="url(#gradient13)" fill-rule="evenodd" stroke="none"/>
    <path d="M-51.95 -25.55 L-53.3 -25.3 -54.6 -25.05 Q-56.1 -24.75 -57.1 -23.55 -58.05 -22.35 -58.05 -20.65 L-57.85 -19.4 -57.5 -18.15 Q-56.35 -15.7 -53.95 -14.4 -51.55 -13.05 -47.2 -13.05 L-45.7 -13.1 -44.15 -13.2 -43.05 -13.35 -42.0 -13.5 -46.1 1.35 -53.55 1.35 Q-60.65 0.65 -65.5 -2.6 L-66.8 -3.55 Q-72.15 -7.85 -74.7 -15.95 L-75.55 -19.95 -75.85 -23.9 -75.85 -24.2 -75.85 -24.5 Q-75.6 -30.7 -73.3 -34.4 -70.9 -38.1 -66.85 -39.65 L-66.85 -39.7 -64.45 -40.35 -62.15 -40.6 -45.2 -40.65 -41.3 -25.55 -51.95 -25.55" fill="url(#gradient14)" fill-rule="evenodd" stroke="none"/>
    <path d="M-44.15 -0.45 L-42.05 -0.5 -42.9 -0.45 -44.15 -0.45" fill="#000000" fill-rule="evenodd" stroke="none"/>
    <path d="M-17.15 -40.65 L2.0 -40.65 -4.65 -21.7 3.8 1.45 -7.9 1.45 -10.55 1.35 -15.65 1.35 -20.75 -21.95 -17.15 -40.65" fill="url(#gradient15)" fill-rule="evenodd" stroke="none"/>
  </g>
  <defs>
    <linearGradient gradientTransform="matrix(0.0, 0.0293, -0.0264, 0.0, 157.5, 29.2)" gradientUnits="userSpaceOnUse" id="gradient0" spreadMethod="pad" x1="-819.2" x2="819.2">
      <stop offset="0.0" stop-color="#ff6666"/>
      <stop offset="1.0" stop-color="#cc3333"/>
    </linearGradient>
    <linearGradient gradientTransform="matrix(0.0, 0.0307, -0.0304, 0.0, 109.75, 29.3)" gradientUnits="userSpaceOnUse" id="gradient1" spreadMethod="pad" x1="-819.2" x2="819.2">
      <stop offset="0.0" stop-color="#ff6666"/>
      <stop offset="1.0" stop-color="#cc3333"/>
    </linearGradient>
    <linearGradient gradientTransform="matrix(0.0, 0.0288, -0.0103, 0.0, 75.05, 28.8)" gradientUnits="userSpaceOnUse" id="gradient2" spreadMethod="pad" x1="-819.2" x2="819.2">
      <stop offset="0.0" stop-color="#ff6666"/>
      <stop offset="1.0" stop-color="#cc3333"/>
    </linearGradient>
    <linearGradient gradientTransform="matrix(0.0, 0.0287, -0.0721, 0.0, 7.5, 29.2)" gradientUnits="userSpaceOnUse" id="gradient3" spreadMethod="pad" x1="-819.2" x2="819.2">
      <stop offset="0.0" stop-color="#ff6666"/>
      <stop offset="1.0" stop-color="#cc3333"/>
    </linearGradient>
    <linearGradient gradientTransform="matrix(0.0, 0.031, -0.0304, 0.0, -77.75, 29.1)" gradientUnits="userSpaceOnUse" id="gradient4" spreadMethod="pad" x1="-819.2" x2="819.2">
      <stop offset="0.0" stop-color="#ff6666"/>
      <stop offset="1.0" stop-color="#cc3333"/>
    </linearGradient>
    <linearGradient gradientTransform="matrix(0.0, 0.0293, -0.0486, 0.0, -139.25, 29.2)" gradientUnits="userSpaceOnUse" id="gradient5" spreadMethod="pad" x1="-819.2" x2="819.2">
      <stop offset="0.0" stop-color="#ff6666"/>
      <stop offset="1.0" stop-color="#cc3333"/>
    </linearGradient>
    <linearGradient gradientTransform="matrix(0.0, 0.0372, -0.0078, 0.0, 54.25, -29.05)" gradientUnits="userSpaceOnUse" id="gradient6" spreadMethod="pad" x1="-819.2" x2="819.2">
      <stop offset="0.0" stop-color="#ffffff"/>
      <stop offset="1.0" stop-color="#dedede"/>
    </linearGradient>
    <linearGradient gradientTransform="matrix(0.0, 0.0333, -0.0343, 0.0, 24.85, -26.6)" gradientUnits="userSpaceOnUse" id="gradient7" spreadMethod="pad" x1="-819.2" x2="819.2">
      <stop offset="0.0" stop-color="#ffffff"/>
      <stop offset="1.0" stop-color="#dedede"/>
    </linearGradient>
    <linearGradient gradientTransform="matrix(0.0, 0.0342, -0.0343, 0.0, 99.65, -26.6)" gradientUnits="userSpaceOnUse" id="gradient8" spreadMethod="pad" x1="-819.2" x2="819.2">
      <stop offset="0.0" stop-color="#ffffff"/>
      <stop offset="1.0" stop-color="#dedede"/>
    </linearGradient>
    <linearGradient gradientTransform="matrix(0.0, 0.0323, -0.0257, 0.0, 57.25, -25.55)" gradientUnits="userSpaceOnUse" id="gradient9" spreadMethod="pad" x1="-819.2" x2="819.2">
      <stop offset="0.0" stop-color="#ffffff"/>
      <stop offset="1.0" stop-color="#dedede"/>
    </linearGradient>
    <linearGradient gradientTransform="matrix(0.0, 0.0392, -0.0342, 0.0, 158.8, -26.7)" gradientUnits="userSpaceOnUse" id="gradient10" spreadMethod="pad" x1="-819.2" x2="819.2">
      <stop offset="0.0" stop-color="#ffffff"/>
      <stop offset="1.0" stop-color="#dedede"/>
    </linearGradient>
    <linearGradient gradientTransform="matrix(0.0, 0.0341, -0.0342, 0.0, -151.85, -26.7)" gradientUnits="userSpaceOnUse" id="gradient11" spreadMethod="pad" x1="-819.2" x2="819.2">
      <stop offset="0.0" stop-color="#ffffff"/>
      <stop offset="1.0" stop-color="#dedede"/>
    </linearGradient>
    <linearGradient gradientTransform="matrix(0.0, 0.026, -0.0257, 0.0, -100.4, -19.6)" gradientUnits="userSpaceOnUse" id="gradient12" spreadMethod="pad" x1="-819.2" x2="819.2">
      <stop offset="0.0" stop-color="#ffffff"/>
      <stop offset="1.0" stop-color="#dedede"/>
    </linearGradient>
    <linearGradient gradientTransform="matrix(0.0, 0.0341, -0.0342, 0.0, -30.5, -26.7)" gradientUnits="userSpaceOnUse" id="gradient13" spreadMethod="pad" x1="-819.2" x2="819.2">
      <stop offset="0.0" stop-color="#ffffff"/>
      <stop offset="1.0" stop-color="#dedede"/>
    </linearGradient>
    <linearGradient gradientTransform="matrix(0.0, 0.0242, -0.0256, 0.0, -58.6, -19.65)" gradientUnits="userSpaceOnUse" id="gradient14" spreadMethod="pad" x1="-819.2" x2="819.2">
      <stop offset="0.0" stop-color="#ffffff"/>
      <stop offset="1.0" stop-color="#dedede"/>
    </linearGradient>
    <linearGradient gradientTransform="matrix(0.0, 0.0294, -0.0257, 0.0, -8.5, -19.6)" gradientUnits="userSpaceOnUse" id="gradient15" spreadMethod="pad" x1="-819.2" x2="819.2">
      <stop offset="0.0" stop-color="#ffffff"/>
      <stop offset="1.0" stop-color="#dedede"/>
    </linearGradient>
  </defs>
</svg>
