<?xml version="1.0" encoding="UTF-8" standalone="no"?>
<svg xmlns:ffdec="https://www.free-decompiler.com/flash" xmlns:xlink="http://www.w3.org/1999/xlink" ffdec:objectType="shape" height="141.75px" width="93.3px" xmlns="http://www.w3.org/2000/svg">
  <g transform="matrix(1.0, 0.0, 0.0, 1.0, 46.4, 70.6)">
    <path d="M18.75 -34.1 L20.75 -32.95 21.25 -32.4 21.35 -32.3 22.3 -31.15 23.15 -29.7 21.35 -30.0 Q19.05 -30.0 17.6 -28.55 16.1 -27.05 16.2 -24.85 16.1 -22.65 17.6 -21.2 19.15 -19.6 21.35 -19.7 L23.25 -19.9 Q22.5 -18.55 21.35 -17.4 L18.85 -15.5 Q16.0 -16.05 13.9 -18.15 11.15 -20.85 11.15 -24.85 11.05 -28.75 13.9 -31.55 16.0 -33.65 18.75 -34.1" fill="#00ccff" fill-rule="evenodd" stroke="none"/>
    <path d="M34.5 -19.8 L34.5 -19.9 36.25 -19.1 36.25 -18.85 34.5 -19.8" fill="#ffff00" fill-rule="evenodd" stroke="none"/>
    <path d="M23.25 -19.9 L21.35 -19.7 Q19.15 -19.6 17.6 -21.2 16.1 -22.65 16.2 -24.85 16.1 -27.05 17.6 -28.55 19.05 -30.0 21.35 -30.0 L23.15 -29.7 Q24.0 -28.2 24.3 -26.45 L24.4 -24.85 Q24.4 -23.15 24.0 -21.7 L23.9 -21.2 23.25 -19.9" fill="#000000" fill-rule="evenodd" stroke="none"/>
    <path d="M18.75 -34.1 Q16.0 -33.65 13.9 -31.55 11.05 -28.75 11.15 -24.85 11.15 -20.85 13.9 -18.15 16.0 -16.05 18.85 -15.5 16.65 -14.35 13.9 -14.35 9.6 -14.35 6.45 -17.4 3.4 -20.45 3.4 -24.85 3.4 -29.15 6.45 -32.3 8.85 -34.7 12.2 -35.15 L13.7 -35.35 13.9 -35.35 14.1 -35.35 16.4 -35.05 17.05 -34.85 17.45 -34.6 17.6 -34.6 18.75 -34.1" fill="#ffffff" fill-rule="evenodd" stroke="none"/>
    <path d="M34.6 -9.5 L34.7 -10.15 34.9 -12.15 34.9 -14.35 Q34.9 -17.2 34.5 -19.8 L36.25 -18.85 45.4 -14.35 34.6 -9.5 M45.4 -14.35 L34.9 -14.35 45.4 -14.35" fill="#ffcc00" fill-rule="evenodd" stroke="none"/>
    <path d="M23.15 -29.7 L22.3 -31.15 21.35 -32.3 21.25 -32.4 20.75 -32.95 18.75 -34.1 17.6 -34.6 17.45 -34.6 17.05 -34.85 16.4 -35.05 14.1 -35.35 13.9 -35.35 13.7 -35.35 12.2 -35.15 Q8.85 -34.7 6.45 -32.3 3.4 -29.15 3.4 -24.85 3.4 -20.45 6.45 -17.4 9.6 -14.35 13.9 -14.35 16.65 -14.35 18.85 -15.5 L21.35 -17.4 Q22.5 -18.55 23.25 -19.9 L23.9 -21.2 24.0 -21.7 Q24.4 -23.15 24.4 -24.85 L24.3 -26.45 Q24.0 -28.2 23.15 -29.7 M34.6 -9.5 Q33.65 -2.5 29.65 3.3 34.9 11.7 34.9 22.4 34.9 37.65 24.2 48.45 13.4 59.15 -1.85 59.15 L-7.0 58.85 Q-18.95 57.25 -27.8 48.45 -38.6 37.65 -38.6 22.4 -38.6 7.15 -27.8 -3.55 L-26.65 -4.7 Q-28.1 -9.2 -28.1 -14.35 -28.1 -27.35 -18.85 -36.6 -9.6 -45.85 3.4 -45.85 15.8 -45.85 24.65 -37.6 L25.65 -36.6 Q32.8 -29.45 34.5 -19.9 L34.5 -19.8 Q34.9 -17.2 34.9 -14.35 L34.9 -12.15 34.7 -10.15 34.6 -9.5" fill="url(#gradient0)" fill-rule="evenodd" stroke="none"/>
    <path d="M23.15 -29.7 L22.3 -31.15 21.35 -32.3 21.25 -32.4 20.75 -32.95 18.75 -34.1 17.6 -34.6 17.45 -34.6 M18.85 -15.5 L21.35 -17.4 Q22.5 -18.55 23.25 -19.9 L21.35 -19.7 Q19.15 -19.6 17.6 -21.2 16.1 -22.65 16.2 -24.85 16.1 -27.05 17.6 -28.55 19.05 -30.0 21.35 -30.0 L23.15 -29.7 Q24.0 -28.2 24.3 -26.45 L24.4 -24.85 Q24.4 -23.15 24.0 -21.7 L23.9 -21.2 23.25 -19.9 M34.6 -9.5 L34.7 -10.15 34.9 -12.15 34.9 -14.35 Q34.9 -17.2 34.5 -19.8 M16.4 -35.05 L14.1 -35.35 13.9 -35.35 13.7 -35.35 12.2 -35.15 Q8.85 -34.7 6.45 -32.3 3.4 -29.15 3.4 -24.85 3.4 -20.45 6.45 -17.4 9.6 -14.35 13.9 -14.35 16.65 -14.35 18.85 -15.5 M34.9 -14.35 L45.4 -14.35" fill="none" stroke="#000000" stroke-linecap="round" stroke-linejoin="round" stroke-width="2.0"/>
    <path d="M34.5 -19.9 Q32.8 -29.45 25.65 -36.6 L24.65 -37.6 Q15.8 -45.85 3.4 -45.85 -9.6 -45.85 -18.85 -36.6 -28.1 -27.35 -28.1 -14.35 -28.1 -9.2 -26.65 -4.7 L-27.8 -3.55 Q-38.6 7.15 -38.6 22.4 -38.6 37.65 -27.8 48.45 -18.95 57.25 -7.0 58.85 L-1.85 59.15 Q13.4 59.15 24.2 48.45 34.9 37.65 34.9 22.4 34.9 11.7 29.65 3.3 33.65 -2.5 34.6 -9.5 L45.4 -14.35 36.25 -18.85 34.5 -19.8 34.5 -19.9 M-7.0 58.85 L-7.1 69.65 13.9 69.65" fill="none" stroke="#000000" stroke-linecap="round" stroke-linejoin="round" stroke-width="3.0"/>
    <path d="M-15.05 -53.55 L-13.35 -62.45 -4.35 -60.7 -2.65 -69.6 13.45 -45.6 -29.3 -16.95 -45.4 -40.95 -36.45 -39.2 -34.7 -48.1 -25.75 -46.35 -24.0 -55.3 -15.05 -53.55" fill="url(#gradient1)" fill-rule="evenodd" stroke="none"/>
    <path d="M-15.05 -53.55 L-24.0 -55.3 -25.75 -46.35 -34.7 -48.1 -36.45 -39.2 -45.4 -40.95 -29.3 -16.95 13.45 -45.6 -2.65 -69.6 -4.35 -60.7 -13.35 -62.45 -15.05 -53.55 Z" fill="none" stroke="#000000" stroke-linecap="round" stroke-linejoin="round" stroke-width="2.0"/>
  </g>
  <defs>
    <linearGradient gradientTransform="matrix(0.0, 0.0449, -0.0641, 0.0, -1.85, 6.65)" gradientUnits="userSpaceOnUse" id="gradient0" spreadMethod="pad" x1="-819.2" x2="819.2">
      <stop offset="0.0" stop-color="#ffff00"/>
      <stop offset="1.0" stop-color="#e3e302"/>
    </linearGradient>
    <linearGradient gradientTransform="matrix(0.0261, -0.0175, 0.0099, 0.0147, -15.95, -43.3)" gradientUnits="userSpaceOnUse" id="gradient1" spreadMethod="pad" x1="-819.2" x2="819.2">
      <stop offset="0.0" stop-color="#999900"/>
      <stop offset="0.1843137254901961" stop-color="#ffff00"/>
      <stop offset="0.5411764705882353" stop-color="#ffffff"/>
      <stop offset="0.8588235294117647" stop-color="#ffff00"/>
      <stop offset="1.0" stop-color="#999900"/>
    </linearGradient>
  </defs>
</svg>
