<?xml version="1.0" encoding="UTF-8" standalone="no"?>
<svg xmlns:ffdec="https://www.free-decompiler.com/flash" xmlns:xlink="http://www.w3.org/1999/xlink" ffdec:objectType="shape" height="48.65px" width="46.3px" xmlns="http://www.w3.org/2000/svg">
  <g transform="matrix(1.0, 0.0, 0.0, 1.0, 23.15, 24.3)">
    <path d="M-17.7 23.35 L-17.4 21.85 Q-16.35 17.15 -12.7 13.5 L-12.15 12.95 Q-12.85 10.8 -12.85 8.35 -12.85 2.15 -8.45 -2.25 -4.05 -6.65 2.15 -6.65 8.4 -6.65 12.75 -2.25 16.2 1.2 16.95 5.75 L17.15 8.35 17.0 10.65 Q16.55 14.0 14.65 16.75 16.1 19.1 16.75 21.85 L17.0 23.35 -17.7 23.35" fill="#ffff00" fill-rule="evenodd" stroke="none"/>
    <path d="M-17.7 23.35 L-17.4 21.85 Q-16.35 17.15 -12.7 13.5 L-12.15 12.95 Q-12.85 10.8 -12.85 8.35 -12.85 2.15 -8.45 -2.25 -4.05 -6.65 2.15 -6.65 8.4 -6.65 12.75 -2.25 16.2 1.2 16.95 5.75 L17.15 8.35 17.0 10.65 Q16.55 14.0 14.65 16.75 16.1 19.1 16.75 21.85 L17.0 23.35" fill="none" stroke="#000000" stroke-linecap="round" stroke-linejoin="round" stroke-width="2.0"/>
    <path d="M22.15 8.35 L17.15 8.35 22.15 8.35 17.0 10.65 17.15 8.35 16.95 5.75 22.15 8.35" fill="#ffcc00" fill-rule="evenodd" stroke="none"/>
    <path d="M8.35 -1.5 L8.65 -1.4 8.85 -1.3 8.9 -1.3 9.45 -1.05 Q8.15 -0.85 7.15 0.15 5.8 1.5 5.85 3.35 5.85 5.25 7.15 6.55 8.15 7.55 9.5 7.8 8.45 8.35 7.15 8.35 5.1 8.35 3.6 6.9 2.15 5.45 2.15 3.35 2.15 1.3 3.6 -0.2 4.75 -1.35 6.35 -1.55 L7.05 -1.65 7.15 -1.65 7.25 -1.65 8.35 -1.5" fill="#ffffff" fill-rule="evenodd" stroke="none"/>
    <path d="M9.5 7.8 Q8.15 7.55 7.15 6.55 5.85 5.25 5.85 3.35 5.8 1.5 7.15 0.15 8.15 -0.85 9.45 -1.05 L10.4 -0.5 10.65 -0.25 10.7 -0.2 11.15 0.35 11.55 1.05 10.7 0.9 Q9.6 0.9 8.9 1.6 8.2 2.3 8.25 3.35 8.2 4.4 8.9 5.1 9.65 5.85 10.7 5.8 L11.6 5.7 10.7 6.9 9.5 7.8" fill="#00ccff" fill-rule="evenodd" stroke="none"/>
    <path d="M11.6 5.7 L10.7 5.8 Q9.65 5.85 8.9 5.1 8.2 4.4 8.25 3.35 8.2 2.3 8.9 1.6 9.6 0.9 10.7 0.9 L11.55 1.05 12.1 2.6 12.15 3.35 11.95 4.85 11.9 5.1 11.6 5.7" fill="#000000" fill-rule="evenodd" stroke="none"/>
    <path d="M17.15 8.35 L22.15 8.35 M16.95 5.75 L17.15 8.35 17.0 10.65 M8.35 -1.5 L7.25 -1.65 7.15 -1.65 7.05 -1.65 6.35 -1.55 Q4.75 -1.35 3.6 -0.2 2.15 1.3 2.15 3.35 2.15 5.45 3.6 6.9 5.1 8.35 7.15 8.35 8.45 8.35 9.5 7.8 L10.7 6.9 11.6 5.7 10.7 5.8 Q9.65 5.85 8.9 5.1 8.2 4.4 8.25 3.35 8.2 2.3 8.9 1.6 9.6 0.9 10.7 0.9 L11.55 1.05 11.15 0.35 10.7 -0.2 10.65 -0.25 10.4 -0.5 9.45 -1.05 8.9 -1.3 8.85 -1.3 M11.6 5.7 L11.9 5.1 11.95 4.85 12.15 3.35 12.1 2.6 11.55 1.05" fill="none" stroke="#000000" stroke-linecap="round" stroke-linejoin="round" stroke-width="1.0"/>
    <path d="M22.15 8.35 L16.95 5.75 M17.0 10.65 L22.15 8.35" fill="none" stroke="#000000" stroke-linecap="round" stroke-linejoin="round" stroke-width="2.0"/>
    <path d="M15.1 -20.8 L10.85 -3.9 Q8.3 -5.8 5.2 -6.35 L15.1 -20.8 M5.15 -6.35 L2.15 -6.65 -0.05 -6.5 Q-2.1 -6.2 -3.95 -5.4 -6.4 -4.3 -8.45 -2.25 L-10.2 -0.2 -14.05 -15.05 -7.45 -3.2 -10.15 -19.8 -3.95 -5.4 -2.15 -23.3 -0.05 -6.5 5.15 -22.55 5.15 -6.35 M-10.2 -0.15 Q-11.5 1.65 -12.15 3.7 -12.85 5.9 -12.85 8.35 -12.85 10.8 -12.15 12.95 L-22.15 7.45 -12.85 7.45 -21.9 -3.05 -12.15 3.7 -19.65 -10.55 -10.2 -0.15" fill="#ff00ff" fill-rule="evenodd" stroke="none"/>
    <path d="M15.1 -20.8 L5.2 -6.35 Q8.3 -5.8 10.85 -3.9 L15.1 -20.8 M5.15 -6.35 L2.15 -6.65 -0.05 -6.5 Q-2.1 -6.2 -3.95 -5.4 -6.4 -4.3 -8.45 -2.25 L-10.2 -0.2 -10.2 -0.15 Q-11.5 1.65 -12.15 3.7 -12.85 5.9 -12.85 8.35 -12.85 10.8 -12.15 12.95 L-22.15 7.45 -12.85 7.45 -21.9 -3.05 -12.15 3.7 -19.65 -10.55 -10.2 -0.15 -10.2 -0.2 -14.05 -15.05 -15.15 -17.05 M5.2 -6.35 L5.15 -6.35 5.2 -6.35 M5.15 -6.35 L5.15 -22.55 -0.05 -6.5 -2.15 -23.3 -3.95 -5.4 -10.15 -19.8 -7.45 -3.2 -14.05 -15.05" fill="none" stroke="#000000" stroke-linecap="round" stroke-linejoin="round" stroke-width="2.0"/>
  </g>
</svg>
