<?xml version="1.0" encoding="UTF-8" standalone="no"?>
<svg xmlns:ffdec="https://www.free-decompiler.com/flash" xmlns:xlink="http://www.w3.org/1999/xlink" ffdec:objectType="shape" height="32.0px" width="41.85px" xmlns="http://www.w3.org/2000/svg">
  <g transform="matrix(1.0, 0.0, 0.0, 1.0, 20.95, 16.0)">
    <path d="M-19.95 15.0 L-19.65 13.5 Q-18.6 8.8 -14.95 5.15 L-14.4 4.6 Q-15.1 2.45 -15.1 0.0 -15.1 -6.2 -10.7 -10.6 -6.3 -15.0 -0.1 -15.0 6.15 -15.0 10.5 -10.6 13.95 -7.15 14.7 -2.6 L14.9 0.0 14.75 2.3 Q14.3 5.65 12.4 8.4 13.85 10.75 14.5 13.5 L14.75 15.0 -19.95 15.0" fill="#99ff00" fill-rule="evenodd" stroke="none"/>
    <path d="M-19.95 15.0 L-19.65 13.5 Q-18.6 8.8 -14.95 5.15 L-14.4 4.6 Q-15.1 2.45 -15.1 0.0 -15.1 -6.2 -10.7 -10.6 -6.3 -15.0 -0.1 -15.0 6.15 -15.0 10.5 -10.6 13.95 -7.15 14.7 -2.6 L14.9 0.0 14.75 2.3 Q14.3 5.65 12.4 8.4 13.85 10.75 14.5 13.5 L14.75 15.0" fill="none" stroke="#000000" stroke-linecap="round" stroke-linejoin="round" stroke-width="2.0"/>
    <path d="M14.7 -2.6 L19.9 0.0 14.9 0.0 19.9 0.0 14.75 2.3 14.9 0.0 14.7 -2.6" fill="#ffcc00" fill-rule="evenodd" stroke="none"/>
    <path d="M7.25 -0.55 Q6.2 0.0 4.9 0.0 2.85 0.0 1.35 -1.45 -0.1 -2.9 -0.1 -5.0 -0.1 -7.05 1.35 -8.55 2.5 -9.7 4.1 -9.9 L4.8 -10.0 4.9 -10.0 5.0 -10.0 6.1 -9.85 6.4 -9.75 6.6 -9.65 6.65 -9.65 7.2 -9.4 Q5.9 -9.2 4.9 -8.2 3.55 -6.85 3.6 -5.0 3.6 -3.1 4.9 -1.8 5.9 -0.8 7.25 -0.55" fill="#ffffff" fill-rule="evenodd" stroke="none"/>
    <path d="M7.25 -0.55 Q5.9 -0.8 4.9 -1.8 3.6 -3.1 3.6 -5.0 3.55 -6.85 4.9 -8.2 5.9 -9.2 7.2 -9.4 L8.15 -8.85 8.4 -8.6 8.45 -8.55 8.9 -8.0 9.3 -7.3 8.45 -7.45 Q7.35 -7.45 6.65 -6.75 5.95 -6.05 6.0 -5.0 5.95 -3.95 6.65 -3.25 7.4 -2.5 8.45 -2.55 L9.35 -2.65 8.45 -1.45 7.25 -0.55" fill="#00ccff" fill-rule="evenodd" stroke="none"/>
    <path d="M9.35 -2.65 L8.45 -2.55 Q7.4 -2.5 6.65 -3.25 5.95 -3.95 6.0 -5.0 5.95 -6.05 6.65 -6.75 7.35 -7.45 8.45 -7.45 L9.3 -7.3 9.85 -5.75 9.9 -5.0 9.7 -3.5 9.65 -3.25 9.35 -2.65" fill="#000000" fill-rule="evenodd" stroke="none"/>
    <path d="M14.7 -2.6 L14.9 0.0 19.9 0.0 M14.75 2.3 L14.9 0.0 M6.1 -9.85 L5.0 -10.0 4.9 -10.0 4.8 -10.0 4.1 -9.9 Q2.5 -9.7 1.35 -8.55 -0.1 -7.05 -0.1 -5.0 -0.1 -2.9 1.35 -1.45 2.85 0.0 4.9 0.0 6.2 0.0 7.25 -0.55 L8.45 -1.45 9.35 -2.65 8.45 -2.55 Q7.4 -2.5 6.65 -3.25 5.95 -3.95 6.0 -5.0 5.95 -6.05 6.65 -6.75 7.35 -7.45 8.45 -7.45 L9.3 -7.3 9.85 -5.75 9.9 -5.0 9.7 -3.5 9.65 -3.25 9.35 -2.65 M7.2 -9.4 L6.65 -9.65 6.6 -9.65 M9.3 -7.3 L8.9 -8.0 8.45 -8.55 8.4 -8.6 8.15 -8.85 7.2 -9.4" fill="none" stroke="#000000" stroke-linecap="round" stroke-linejoin="round" stroke-width="1.0"/>
    <path d="M19.9 0.0 L14.7 -2.6 M19.9 0.0 L14.75 2.3" fill="none" stroke="#000000" stroke-linecap="round" stroke-linejoin="round" stroke-width="2.0"/>
  </g>
</svg>
