<?xml version="1.0" encoding="UTF-8" standalone="no"?>
<svg xmlns:ffdec="https://www.free-decompiler.com/flash" xmlns:xlink="http://www.w3.org/1999/xlink" ffdec:objectType="shape" height="32.0px" width="41.85px" xmlns="http://www.w3.org/2000/svg">
  <g transform="matrix(1.0, 0.0, 0.0, 1.0, 20.9, 16.0)">
    <path d="M-19.9 15.0 L-19.6 13.5 Q-18.55 8.8 -14.9 5.15 L-14.35 4.6 Q-15.05 2.45 -15.05 0.0 -15.05 -6.2 -10.65 -10.6 -6.25 -15.0 -0.05 -15.0 6.2 -15.0 10.55 -10.6 14.0 -7.15 14.75 -2.6 L14.95 0.0 14.8 2.3 Q14.35 5.65 12.45 8.4 13.9 10.75 14.55 13.5 L14.8 15.0 -19.9 15.0" fill="#94f600" fill-rule="evenodd" stroke="none"/>
    <path d="M-19.9 15.0 L-19.6 13.5 Q-18.55 8.8 -14.9 5.15 L-14.35 4.6 Q-15.05 2.45 -15.05 0.0 -15.05 -6.2 -10.65 -10.6 -6.25 -15.0 -0.05 -15.0 6.2 -15.0 10.55 -10.6 14.0 -7.15 14.75 -2.6 L14.95 0.0 14.8 2.3 Q14.35 5.65 12.45 8.4 13.9 10.75 14.55 13.5 L14.8 15.0" fill="none" stroke="#000000" stroke-linecap="round" stroke-linejoin="round" stroke-width="2.0"/>
    <path d="M19.95 0.0 L14.95 0.0 19.95 0.0 14.8 2.3 14.95 0.0 14.75 -2.6 19.95 0.0" fill="#ffcc00" fill-rule="evenodd" stroke="none"/>
    <path d="M6.15 -9.85 L6.45 -9.75 6.65 -9.65 6.7 -9.65 7.25 -9.4 Q5.95 -9.2 4.95 -8.2 3.6 -6.85 3.65 -5.0 3.65 -3.1 4.95 -1.8 5.95 -0.8 7.3 -0.55 6.25 0.0 4.95 0.0 2.9 0.0 1.4 -1.45 -0.05 -2.9 -0.05 -5.0 -0.05 -7.05 1.4 -8.55 2.55 -9.7 4.15 -9.9 L4.85 -10.0 4.95 -10.0 5.05 -10.0 6.15 -9.85" fill="#ffffff" fill-rule="evenodd" stroke="none"/>
    <path d="M7.3 -0.55 Q5.95 -0.8 4.95 -1.8 3.65 -3.1 3.65 -5.0 3.6 -6.85 4.95 -8.2 5.95 -9.2 7.25 -9.4 L8.2 -8.85 8.45 -8.6 8.5 -8.55 8.95 -8.0 9.35 -7.3 8.5 -7.45 Q7.4 -7.45 6.7 -6.75 6.0 -6.05 6.05 -5.0 6.0 -3.95 6.7 -3.25 7.45 -2.5 8.5 -2.55 L9.4 -2.65 8.5 -1.45 Q7.95 -0.9 7.3 -0.55" fill="#00ccff" fill-rule="evenodd" stroke="none"/>
    <path d="M9.4 -2.65 L8.5 -2.55 Q7.45 -2.5 6.7 -3.25 6.0 -3.95 6.05 -5.0 6.0 -6.05 6.7 -6.75 7.4 -7.45 8.5 -7.45 L9.35 -7.3 9.9 -5.75 9.95 -5.0 9.75 -3.5 9.7 -3.25 9.4 -2.65" fill="#000000" fill-rule="evenodd" stroke="none"/>
    <path d="M14.95 0.0 L19.95 0.0 M14.75 -2.6 L14.95 0.0 14.8 2.3 M6.15 -9.85 L5.05 -10.0 4.95 -10.0 4.85 -10.0 4.15 -9.9 Q2.55 -9.7 1.4 -8.55 -0.05 -7.05 -0.05 -5.0 -0.05 -2.9 1.4 -1.45 2.9 0.0 4.95 0.0 6.25 0.0 7.3 -0.55 7.95 -0.9 8.5 -1.45 L9.4 -2.65 8.5 -2.55 Q7.45 -2.5 6.7 -3.25 6.0 -3.95 6.05 -5.0 6.0 -6.05 6.7 -6.75 7.4 -7.45 8.5 -7.45 L9.35 -7.3 8.95 -8.0 8.5 -8.55 8.45 -8.6 8.2 -8.85 7.25 -9.4 6.7 -9.65 6.65 -9.65 M9.4 -2.65 L9.7 -3.25 9.75 -3.5 9.95 -5.0 9.9 -5.75 9.35 -7.3" fill="none" stroke="#000000" stroke-linecap="round" stroke-linejoin="round" stroke-width="1.0"/>
    <path d="M19.95 0.0 L14.75 -2.6 M14.8 2.3 L19.95 0.0" fill="none" stroke="#000000" stroke-linecap="round" stroke-linejoin="round" stroke-width="2.0"/>
  </g>
</svg>
