<?xml version="1.0" encoding="UTF-8"?>
<svg width="827px" height="390px" viewBox="0 0 827 390" version="1.1" xmlns="http://www.w3.org/2000/svg" xmlns:xlink="http://www.w3.org/1999/xlink">
    <title>426</title>
    <g id="Page-1" stroke="none" stroke-width="1" fill="none" fill-rule="evenodd">
        <g id="426" transform="translate(0.5, 0)">
            <path d="M51.5,150 C40.4666667,150 31.0333333,146.083333 23.2,138.25 C15.4,130.45 11.5,121.033333 11.5,110 L1.5,100 L71.5,100 L71.5,80 C71.5,78.4666667 71.8,77.0666667 72.4,75.8 C72.8666667,74.7333333 73.5333333,73.7666667 74.4,72.9 C76.3666667,70.9666667 78.7333333,70 81.5,70 C84.2666667,70 86.6166667,70.9666667 88.55,72.9 C90.5166667,74.8666667 91.5,77.2333333 91.5,80 L91.5,84.9 C91.4666667,83.5666667 90.9666667,82.4166667 90,81.45 C89.0333333,80.4833333 87.8666667,80 86.5,80 L85.4,80.15 C84.4666667,80.3166667 83.65,80.75 82.95,81.45 C82.25,82.15 81.8166667,82.9666667 81.65,83.9 L81.5,85 C81.5,86.3666667 81.9833333,87.5333333 82.95,88.5 C83.95,89.5 85.1333333,90 86.5,90 C87.8666667,90 89.0333333,89.5 90,88.5 C90.9666667,87.5666667 91.4666667,86.45 91.5,85.15 L91.5,90 L91.5,100 L91.5,110 C91.5,121.033333 87.5833333,130.45 79.75,138.25 C71.95,146.083333 62.5333333,150 51.5,150" id="Path" fill-opacity="0" fill="#CC9999"></path>
            <path d="M85.4,80.15 C85.8333333,80.25 86.2333333,80.4833333 86.6,80.85 C87.2,81.45 87.5,82.1666667 87.5,83 C87.5,83.8333333 87.2,84.5333333 86.6,85.1 C86.0333333,85.7 85.3333333,86 84.5,86 C83.6666667,86 82.95,85.7 82.35,85.1 L81.65,83.9 C81.8166667,82.9666667 82.25,82.15 82.95,81.45 C83.65,80.75 84.4666667,80.3166667 85.4,80.15" id="Path" fill-opacity="0" fill="#000000"></path>
            <path d="M91.5,80 L111.5,90 L91.5,100 L91.5,90 L91.5,85.15 L91.5,84.9 L91.5,80 M111.5,90 L91.5,90 L111.5,90" id="Shape" fill-opacity="0" fill="#FFCC00"></path>
            <path d="M89.6106602,71.8393398 C91.6298458,73.8585254 92.7565543,76.2816414 92.9565515,79.0512249 L112.17082,88.6583592 C113.276393,89.2111456 113.276393,90.7888544 112.17082,91.3416408 L93,100.927051 L93,110 C93,121.432481 88.9242668,131.231584 80.8129193,139.308396 C73.0914686,147.062845 63.8018371,151.12898 53.0000001,151.431962 L53.0000001,168.5 L71.5,168.5 C72.3284271,168.5 73,169.171573 73,170 C73,170.828427 72.3284271,171.5 71.5,171.5 L51.5,171.5 C50.6715729,171.5 50,170.828427 50,170 L50,151.431981 C39.1976816,151.129078 29.8923369,147.063657 22.1393398,139.31066 C14.2141604,131.385481 10.1583155,121.809123 10.0293908,110.650711 L0.439339828,101.06066 C-0.505607464,100.115713 0.163642724,98.5 1.5,98.5 L69.9999999,98.5 L70,80 C70,78.2656148 70.3406502,76.6599493 71.0263464,75.1990267 C71.0294445,75.1903591 71.0331357,75.181952 71.0373942,75.1738321 C71.0394176,75.1683859 71.0419032,75.1631273 71.0443932,75.1578705 C71.5855805,73.933595 72.3531627,72.825517 73.3393398,71.8393398 L73.3484437,71.8303134 C75.5958944,69.6209551 78.3403017,68.5 81.5,68.5 C84.663178,68.5 87.3950825,69.6237621 89.6106602,71.8393398 Z M75.45488,73.9666951 C74.7215326,74.7011484 74.1638682,75.5106403 73.774236,76.4012283 C73.7682309,76.4149543 73.7620204,76.4285896 73.7556068,76.4421295 C73.2529909,77.5032074 73,78.6838316 73,80 L73,100 C73,100.828427 72.3284271,101.5 71.5,101.5 L5.12132045,101.5 L12.5606602,108.93934 C12.8419647,109.220644 13,109.602175 13,110 C13,120.635534 16.7419824,129.670662 24.2606602,137.18934 C31.8130076,144.741687 40.8649439,148.5 51.5,148.5 C62.1341855,148.5 71.1684157,144.7424 78.6916038,137.187081 C86.2423998,129.668416 90,120.634185 90,110 L90,100 C90,99.4318419 90.3210036,98.9124472 90.8291796,98.6583592 L108.145898,90 L90.8291796,81.3416408 C90.3210036,81.0875528 90,80.5681581 90,80 C90,77.6317486 89.1751173,75.6464376 87.4893398,73.9606602 C85.8382509,72.3095712 83.8701553,71.5 81.5,71.5 C79.1278906,71.5 77.139996,72.3113342 75.45488,73.9666951 Z" id="Path" fill-opacity="0" fill="#000000" fill-rule="nonzero"></path>
            <path d="M92,80 L92,89.5 L111.5,89.5 C111.776142,89.5 112,89.7238576 112,90 C112,90.2761424 111.776142,90.5 111.5,90.5 L92,90.5 L92,100 C92,100.276142 91.7761424,100.5 91.5,100.5 C91.2238576,100.5 91,100.276142 91,100 L91,88.1120406 C90.8133222,88.3712407 90.5968789,88.6180535 90.3534275,88.8532409 C89.2942698,89.9465496 88.0001016,90.5 86.5,90.5 C84.9994298,90.5 83.6893299,89.9464367 82.5964466,88.8535534 C81.5360196,87.7931264 81,86.499286 81,85 C81,84.9774034 81.0015318,84.9548328 81.0045849,84.9324434 L81.1545849,83.8324434 L81.156173,83.822354 L81.1577862,83.8121047 C81.342638,82.7769349 81.8249715,81.8679217 82.5964466,81.0964466 C83.3595064,80.3333868 84.25712,79.8531951 85.2787482,79.6650506 C85.2827092,79.663895 85.2867648,79.6629392 85.2909906,79.6623845 C85.2978158,79.660353 85.3049572,79.6590625 85.3121047,79.6577862 C85.3179525,79.656742 85.3238136,79.6558029 85.3296992,79.6551013 C85.3305781,79.6548419 85.3315103,79.6547122 85.3324434,79.6545849 L86.4324434,79.5045849 C86.4548328,79.5015318 86.4774034,79.5 86.5,79.5 C87.999286,79.5 89.2931264,80.0360196 90.3535534,81.0964466 C90.5968436,81.3397368 90.8134315,81.5944261 91,81.8615254 L91,80 C91,79.7238576 91.2238576,79.5 91.5,79.5 C91.7761424,79.5 92,79.7238576 92,80 Z M88,83 C88,83.9656454 87.6471713,84.7937641 86.9532188,85.4532188 C86.2937637,86.1471715 85.4656451,86.5 84.5,86.5 C83.5456921,86.5 82.7112556,86.1557896 82.0236531,85.4784198 C82.1214863,86.5057571 82.5459506,87.3888438 83.3035534,88.1464466 C84.2106701,89.0535633 85.2672369,89.5 86.5,89.5 C87.7304426,89.5 88.7675851,89.0555104 89.6405058,88.152489 L89.6527027,88.1402993 C90.5252478,87.297842 90.9696319,86.3061225 91,85.1394846 L91,84.9102518 C90.9694849,83.7069967 90.5224648,82.6795715 89.6464466,81.8035534 C88.8888422,81.0459489 88.0057532,80.6214844 86.9784198,80.5236531 C87.6557897,81.2112561 88,82.0456923 88,83 Z M83.3035534,81.8035534 C82.7191234,82.3879834 82.3458239,83.055239 82.1796779,83.8157018 L82.7445329,84.7840247 C83.2414805,85.266016 83.8184417,85.5 84.5,85.5 C85.196145,85.5 85.7645424,85.2564011 86.2364934,84.7566882 C86.2430314,84.7497657 86.2497657,84.7430314 86.2566882,84.7364934 C86.7564011,84.2645424 87,83.696145 87,83 C87,82.299954 86.75315,81.7102568 86.2464466,81.2035534 C85.9734021,80.9305088 85.6880993,80.7528779 85.3867125,80.6642281 C84.5968404,80.822799 83.906167,81.2009397 83.3035534,81.8035534 Z" id="Shape" fill-opacity="0" fill="#000000" fill-rule="nonzero"></path>
            <path d="M826.5,100 L206.5,100 L206.5,0 L826.5,0 L826.5,100 M826.5,250 L516.5,250 L516.5,120 L826.5,120 L826.5,250 M506.5,120 L506.5,250 L206.5,250 L206.5,120 L506.5,120 M506.5,260 L506.5,390 L206.5,390 L206.5,260 L506.5,260 M516.5,260 L826.5,260 L826.5,390 L516.5,390 L516.5,260" id="Shape" fill-opacity="0.45490196" fill="#000000"></path>
        </g>
    </g>
</svg>