<?xml version="1.0" encoding="UTF-8"?>
<svg width="588px" height="410px" viewBox="0 0 588 410" version="1.1" xmlns="http://www.w3.org/2000/svg" xmlns:xlink="http://www.w3.org/1999/xlink">
    <title>454</title>
    <g id="Page-1" stroke="none" stroke-width="1" fill="none" fill-rule="evenodd">
        <g id="454" transform="translate(0.5, 0)">
            <path d="M51.5,90 C40.4666667,90 31.0333333,86.0833333 23.2,78.25 C15.4,70.45 11.5,61.0333333 11.5,50 L1.5,40 L71.5,40 L71.5,20 C71.5,18.4666667 71.8,17.0666667 72.4,15.8 C72.8666667,14.7333333 73.5333333,13.7666667 74.4,12.9 C76.3666667,10.9666667 78.7333333,10 81.5,10 C84.2666667,10 86.6166667,10.9666667 88.55,12.9 C90.5166667,14.8666667 91.5,17.2333333 91.5,20 L91.5,24.9 C91.4666667,23.5666667 90.9666667,22.4166667 90,21.45 C89.0333333,20.4833333 87.8666667,20 86.5,20 L85.4,20.15 C84.4666667,20.3166667 83.65,20.75 82.95,21.45 C82.25,22.15 81.8166667,22.9666667 81.65,23.9 L81.5,25 C81.5,26.3666667 81.9833333,27.5333333 82.95,28.5 C83.95,29.5 85.1333333,30 86.5,30 C87.8666667,30 89.0333333,29.5 90,28.5 C90.9666667,27.5666667 91.4666667,26.45 91.5,25.15 L91.5,30 L91.5,40 L91.5,50 C91.5,61.0333333 87.5833333,70.45 79.75,78.25 C71.95,86.0833333 62.5333333,90 51.5,90" id="Path" fill-opacity="0" fill="#CC9999"></path>
            <path d="M85.4,20.15 C85.8333333,20.25 86.2333333,20.4833333 86.6,20.85 C87.2,21.45 87.5,22.1666667 87.5,23 C87.5,23.8333333 87.2,24.5333333 86.6,25.1 C86.0333333,25.7 85.3333333,26 84.5,26 C83.6666667,26 82.95,25.7 82.35,25.1 L81.65,23.9 C81.8166667,22.9666667 82.25,22.15 82.95,21.45 C83.65,20.75 84.4666667,20.3166667 85.4,20.15" id="Path" fill-opacity="0" fill="#000000"></path>
            <path d="M91.5,20 L111.5,30 L91.5,40 L91.5,30 L91.5,25.15 L91.5,24.9 L91.5,20 M111.5,30 L91.5,30 L111.5,30" id="Shape" fill-opacity="0" fill="#FFCC00"></path>
            <path d="M89.6106602,11.8393398 C91.6298458,13.8585254 92.7565543,16.2816414 92.9565515,19.0512249 L112.17082,28.6583592 C113.276393,29.2111456 113.276393,30.7888544 112.17082,31.3416408 L93,40.927051 L93,50 C93,61.4324812 88.9242668,71.2315843 80.8129193,79.3083962 C73.0914686,87.0628446 63.8018371,91.1289803 53.0000001,91.431962 L53.0000001,108.5 L71.5,108.5 C72.3284271,108.5 73,109.171573 73,110 C73,110.828427 72.3284271,111.5 71.5,111.5 L51.5,111.5 C50.6715729,111.5 50,110.828427 50,110 L50,91.4319811 C39.1976816,91.1290779 29.8923369,87.0636572 22.1393398,79.3106602 C14.2141604,71.3854807 10.1583155,61.809123 10.0293908,50.6507111 L0.439339828,41.0606602 C-0.505607464,40.1157129 0.163642724,38.5 1.5,38.5 L69.9999999,38.5 L70,20 C70,18.2656148 70.3406502,16.6599493 71.0263464,15.1990267 C71.0294445,15.1903591 71.0331357,15.181952 71.0373942,15.1738321 C71.0394176,15.1683859 71.0419032,15.1631273 71.0443932,15.1578705 C71.5855805,13.933595 72.3531627,12.825517 73.3393398,11.8393398 L73.3484437,11.8303134 C75.5958944,9.62095511 78.3403017,8.5 81.5,8.5 C84.663178,8.5 87.3950825,9.62376211 89.6106602,11.8393398 Z M75.45488,13.9666951 C74.7215326,14.7011484 74.1638682,15.5106403 73.774236,16.4012283 C73.7682309,16.4149543 73.7620204,16.4285896 73.7556068,16.4421295 C73.2529909,17.5032074 73,18.6838316 73,20 L73,40 C73,40.8284271 72.3284271,41.5 71.5,41.5 L5.12132045,41.5 L12.5606602,48.9393398 C12.8419647,49.2206444 13,49.6021753 13,50 C13,60.6355336 16.7419824,69.6706621 24.2606602,77.1893398 C31.8130076,84.7416872 40.8649439,88.5 51.5,88.5 C62.1341855,88.5 71.1684157,84.7423998 78.6916038,77.1870807 C86.2423998,69.6684157 90,60.6341855 90,50 L90,40 C90,39.4318419 90.3210036,38.9124472 90.8291796,38.6583592 L108.145898,30 L90.8291796,21.3416408 C90.3210036,21.0875528 90,20.5681581 90,20 C90,17.6317486 89.1751173,15.6464376 87.4893398,13.9606602 C85.8382509,12.3095712 83.8701553,11.5 81.5,11.5 C79.1278906,11.5 77.139996,12.3113342 75.45488,13.9666951 Z" id="Path" fill-opacity="0" fill="#000000" fill-rule="nonzero"></path>
            <path d="M92,20 L92,29.5 L111.5,29.5 C111.776142,29.5 112,29.7238576 112,30 C112,30.2761424 111.776142,30.5 111.5,30.5 L92,30.5 L92,40 C92,40.2761424 91.7761424,40.5 91.5,40.5 C91.2238576,40.5 91,40.2761424 91,40 L91,28.1120406 C90.8133222,28.3712407 90.5968789,28.6180535 90.3534275,28.8532409 C89.2942698,29.9465496 88.0001016,30.5 86.5,30.5 C84.9994298,30.5 83.6893299,29.9464367 82.5964466,28.8535534 C81.5360196,27.7931264 81,26.499286 81,25 C81,24.9774034 81.0015318,24.9548328 81.0045849,24.9324434 L81.1545849,23.8324434 L81.156173,23.822354 L81.1577862,23.8121047 C81.342638,22.7769349 81.8249715,21.8679217 82.5964466,21.0964466 C83.3595064,20.3333868 84.25712,19.8531951 85.2787482,19.6650506 C85.2827092,19.663895 85.2867648,19.6629392 85.2909906,19.6623845 C85.2978158,19.660353 85.3049572,19.6590625 85.3121047,19.6577862 C85.3179525,19.656742 85.3238136,19.6558029 85.3296992,19.6551013 C85.3305781,19.6548419 85.3315103,19.6547122 85.3324434,19.6545849 L86.4324434,19.5045849 C86.4548328,19.5015318 86.4774034,19.5 86.5,19.5 C87.999286,19.5 89.2931264,20.0360196 90.3535534,21.0964466 C90.5968436,21.3397368 90.8134315,21.5944261 91,21.8615254 L91,20 C91,19.7238576 91.2238576,19.5 91.5,19.5 C91.7761424,19.5 92,19.7238576 92,20 Z M88,23 C88,23.9656454 87.6471713,24.7937641 86.9532188,25.4532188 C86.2937637,26.1471715 85.4656451,26.5 84.5,26.5 C83.5456921,26.5 82.7112556,26.1557896 82.0236531,25.4784198 C82.1214863,26.5057571 82.5459506,27.3888438 83.3035534,28.1464466 C84.2106701,29.0535633 85.2672369,29.5 86.5,29.5 C87.7304426,29.5 88.7675851,29.0555104 89.6405058,28.152489 L89.6527027,28.1402993 C90.5252478,27.297842 90.9696319,26.3061225 91,25.1394846 L91,24.9102518 C90.9694849,23.7069967 90.5224648,22.6795715 89.6464466,21.8035534 C88.8888422,21.0459489 88.0057532,20.6214844 86.9784198,20.5236531 C87.6557897,21.2112561 88,22.0456923 88,23 Z M83.3035534,21.8035534 C82.7191234,22.3879834 82.3458239,23.055239 82.1796779,23.8157018 L82.7445329,24.7840247 C83.2414805,25.266016 83.8184417,25.5 84.5,25.5 C85.196145,25.5 85.7645424,25.2564011 86.2364934,24.7566882 C86.2430314,24.7497657 86.2497657,24.7430314 86.2566882,24.7364934 C86.7564011,24.2645424 87,23.696145 87,23 C87,22.299954 86.75315,21.7102568 86.2464466,21.2035534 C85.9734021,20.9305088 85.6880993,20.7528779 85.3867125,20.6642281 C84.5968404,20.822799 83.906167,21.2009397 83.3035534,21.8035534 Z" id="Shape" fill-opacity="0" fill="#000000" fill-rule="nonzero"></path>
            <path d="M257.5,0 C280.3,105.266667 313.633333,205.266667 357.5,300 C379.5,342.633333 419.5,365.966667 477.5,370 C524.833333,372 561.5,358.666667 587.5,330 L587.5,410 L197.5,410 L197.5,0 L257.5,0" id="Path" fill="#666666"></path>
        </g>
    </g>
</svg>