<?xml version="1.0" encoding="UTF-8" standalone="no"?>
<svg xmlns:ffdec="https://www.free-decompiler.com/flash" xmlns:xlink="http://www.w3.org/1999/xlink" ffdec:objectType="shape" height="60.3px" width="60.0px" xmlns="http://www.w3.org/2000/svg">
  <g transform="matrix(1.0, 0.0, 0.0, 1.0, 30.0, 30.0)">
    <path d="M0.35 28.85 L0.5 29.45 0.4 29.75 0.35 29.6 0.35 28.85" fill="url(#gradient0)" fill-rule="evenodd" stroke="none"/>
    <path d="M4.05 -29.75 L3.9 -28.85 4.5 -28.55 5.25 -28.3 6.55 -27.75 8.05 -27.0 9.75 -26.25 Q11.45 -25.6 12.6 -24.0 L13.65 -22.85 13.9 -22.55 14.85 -21.2 15.7 -19.65 17.75 -16.65 18.6 -15.45 19.65 -14.05 19.85 -13.7 Q20.3 -12.2 21.5 -10.85 L21.75 -10.5 23.05 -8.25 Q23.9 -6.6 24.15 -4.7 L24.25 -3.6 24.45 0.15 24.25 1.65 23.75 3.9 22.75 7.65 22.35 8.75 22.15 9.2 21.95 9.55 Q21.35 11.3 20.35 12.85 L19.75 13.9 19.5 14.4 17.8 18.0 17.15 19.45 16.9 19.9 16.15 21.15 15.4 21.95 15.2 22.1 14.15 23.45 13.8 23.95 13.15 24.6 12.9 24.8 12.15 25.25 9.25 26.65 7.3 27.4 7.05 27.4 Q7.8 26.45 8.8 25.65 9.4 25.2 9.6 24.35 L9.7 24.0 Q9.95 22.7 10.5 21.55 L10.65 21.15 11.25 19.5 11.9 18.05 13.5 14.6 13.65 14.25 13.95 12.15 13.95 11.8 Q14.05 9.95 14.4 8.25 L14.75 6.15 15.0 -1.7 14.95 -2.25 14.5 -3.6 Q13.9 -5.3 13.45 -7.15 L13.05 -9.2 12.9 -10.15 12.85 -10.5 12.65 -12.4 12.65 -12.6 12.3 -15.0 Q12.35 -16.0 11.45 -16.3 L11.2 -16.45 Q10.8 -17.0 10.6 -18.0 L10.55 -18.2 10.1 -20.1 Q9.6 -21.9 8.25 -22.9 L8.1 -23.1 7.95 -23.3 Q7.7 -23.5 7.55 -23.85 6.9 -25.3 5.45 -25.9 L4.8 -26.2 Q4.7 -26.25 4.55 -26.35 L3.75 -26.75 3.5 -26.8 2.6 -27.4 2.2 -27.7 0.55 -28.45 0.8 -28.15 1.05 -27.6 2.6 -24.4 2.9 -23.25 3.45 -21.6 3.5 -21.0 3.65 -19.5 3.7 -19.15 3.8 -18.2 Q3.95 -16.3 4.35 -14.45 4.5 -13.8 4.8 -13.1 L4.85 -12.75 Q4.75 -11.7 5.15 -10.85 L5.25 -10.5 5.35 -8.45 5.45 -7.35 Q5.35 -5.75 5.65 -4.5 L6.1 -2.8 6.2 -2.25 6.25 4.85 6.35 5.25 Q6.95 6.45 6.85 8.05 L6.85 8.4 6.9 12.35 6.7 14.25 6.6 14.8 Q6.3 16.7 6.35 18.75 L6.5 20.6 6.35 21.1 Q6.1 21.15 6.1 21.55 L6.0 21.9 Q5.5 22.7 5.5 23.8 L5.5 24.0 Q5.2 24.75 5.15 25.65 L5.1 25.85 Q4.75 26.45 4.6 27.35 L4.5 27.55 3.9 29.05 3.9 29.1 4.85 28.3 Q5.35 27.8 6.0 27.65 L6.2 27.65 7.05 27.4 6.75 27.75 6.55 27.9 4.35 29.5 4.4 29.7 4.0 29.75 3.35 29.85 2.8 29.9 0.4 30.0 0.4 29.75 0.5 29.45 0.35 28.85 0.45 25.85 0.45 25.5 0.55 19.65 0.45 19.1 0.25 17.4 0.35 9.55 0.25 7.65 0.0 3.35 -0.1 2.6 Q-0.55 0.65 -0.45 -1.5 L-0.3 -4.9 Q-0.25 -6.8 -0.75 -8.45 L-1.05 -10.5 -1.3 -14.25 -1.45 -16.15 Q-1.55 -18.35 -1.1 -20.45 L-1.05 -21.0 -0.95 -24.95 -1.05 -26.45 -1.15 -29.45 0.15 -28.8 -0.55 -29.65 -0.55 -30.0 0.0 -30.0 0.6 -30.0 0.9 -30.0 1.9 -29.95 4.05 -29.75 M-0.95 30.0 L-1.2 30.0 -6.2 29.4 -5.3 28.1 -6.55 26.8 -7.55 25.35 Q-8.4 24.1 -8.85 22.5 L-9.0 22.3 -10.95 19.65 -12.5 17.75 -13.1 17.0 Q-14.05 15.65 -14.45 14.05 L-15.15 11.95 -15.25 11.6 -15.4 8.05 -15.35 6.75 Q-15.05 2.95 -15.15 -0.95 L-15.1 -4.9 -15.05 -5.45 -14.95 -6.75 -14.85 -7.35 -14.75 -8.45 -14.7 -8.65 Q-13.85 -10.75 -13.65 -13.15 L-13.55 -13.7 -12.6 -17.1 -11.35 -21.2 -10.9 -22.35 -10.4 -23.5 Q-10.0 -24.45 -9.1 -25.25 -8.9 -25.4 -8.85 -25.7 L-8.35 -27.35 -8.1 -27.8 -7.2 -28.75 -6.9 -29.05 -6.5 -29.3 -4.1 -29.7 -2.25 -29.9 -2.25 -29.45 Q-3.0 -29.5 -3.25 -28.7 L-3.4 -28.5 Q-4.65 -27.3 -5.1 -25.5 L-5.4 -24.55 -5.4 -24.2 Q-5.35 -23.85 -5.55 -23.6 L-5.85 -22.9 -6.15 -21.6 -6.3 -20.45 -6.45 -18.75 -6.55 -17.25 -6.85 -15.2 -7.25 -11.45 -7.3 -9.75 Q-7.35 -6.9 -7.05 -4.15 L-7.05 -3.75 -6.95 0.35 -6.85 3.15 -6.85 3.55 -6.7 7.5 -6.5 11.8 -6.35 13.85 -6.05 15.55 -5.75 17.05 -5.7 17.25 -5.15 18.85 -4.95 19.85 Q-4.95 20.5 -4.5 20.8 -4.1 21.1 -4.0 21.5 L-3.8 21.95 -2.15 24.8 -2.05 25.1 -1.8 26.45 -1.7 27.0 -1.2 29.85 -0.95 30.0 M-6.9 29.25 Q-10.5 28.45 -13.75 26.75 L-14.5 25.1 -14.65 24.95 -16.55 23.3 Q-18.05 21.6 -19.15 20.9 L-20.0 20.2 -20.35 19.55 -20.5 18.15 Q-20.55 17.45 -20.7 17.3 L-21.9 16.25 -22.35 15.8 Q-23.5 14.7 -24.0 13.1 L-24.2 12.35 -24.55 11.0 -25.3 8.8 -25.45 8.4 Q-26.0 4.75 -25.85 0.75 -25.8 -0.05 -26.15 -0.7 L-26.75 -2.45 -26.85 -3.0 -26.95 -3.4 Q-27.15 -5.35 -26.5 -7.0 L-26.15 -7.85 Q-25.9 -8.55 -25.75 -9.75 L-25.25 -12.2 -25.2 -12.6 -24.85 -14.4 -23.2 -17.85 -23.8 -18.3 -21.2 -21.2 Q-19.35 -23.05 -17.35 -24.5 -15.85 -25.6 -14.2 -26.5 L-13.8 -26.7 Q-11.3 -28.05 -8.55 -28.8 L-9.2 -28.2 -9.95 -27.95 -10.7 -27.8 -11.0 -27.7 -13.5 -26.15 -13.85 -25.85 Q-15.55 -24.4 -16.55 -22.75 -17.45 -21.2 -17.95 -19.5 L-18.7 -15.75 -18.85 -15.25 -20.1 -11.65 -20.4 -9.95 -20.55 -8.45 -20.55 -8.1 -20.75 -6.4 Q-20.8 -6.1 -20.95 -5.95 L-22.15 -3.95 -22.7 -2.1 Q-22.75 -0.7 -22.45 0.55 -22.2 1.5 -22.1 2.6 -21.95 4.6 -22.45 6.35 L-22.6 6.85 -22.8 7.85 -22.85 10.5 Q-22.8 11.6 -22.1 12.5 L-21.0 13.6 Q-20.55 13.9 -20.5 14.3 L-20.05 14.9 -19.1 15.55 -18.4 16.3 -18.15 17.15 Q-18.1 17.75 -17.1 18.75 L-14.65 21.05 Q-13.2 22.35 -11.8 23.0 -11.0 23.35 -10.5 24.1 L-9.45 25.9 Q-8.9 27.0 -8.85 27.9 -8.8 28.8 -7.85 28.95 -6.95 29.1 -6.9 29.25" fill="#009900" fill-rule="evenodd" stroke="none"/>
    <path d="M4.4 29.7 L4.35 29.5 6.55 27.9 6.75 27.75 7.05 27.4 6.2 27.65 6.0 27.65 Q5.35 27.8 4.85 28.3 L3.9 29.1 3.9 29.05 4.5 27.55 4.6 27.35 Q4.75 26.45 5.1 25.85 L5.15 25.65 Q5.2 24.75 5.5 24.0 L5.5 23.8 Q5.5 22.7 6.0 21.9 L6.1 21.55 Q6.1 21.15 6.35 21.1 L6.5 20.6 6.35 18.75 Q6.3 16.7 6.6 14.8 L6.7 14.25 6.9 12.35 6.85 8.4 6.85 8.05 Q6.95 6.45 6.35 5.25 L6.25 4.85 6.2 -2.25 6.1 -2.8 5.65 -4.5 Q5.35 -5.75 5.45 -7.35 L5.35 -8.45 5.25 -10.5 5.15 -10.85 Q4.75 -11.7 4.85 -12.75 L4.8 -13.1 Q4.5 -13.8 4.35 -14.45 3.95 -16.3 3.8 -18.2 L3.7 -19.15 3.65 -19.5 3.5 -21.0 3.45 -21.6 2.9 -23.25 2.6 -24.4 1.05 -27.6 0.8 -28.15 0.55 -28.45 2.2 -27.7 2.6 -27.4 3.5 -26.8 3.75 -26.75 4.55 -26.35 Q4.7 -26.25 4.8 -26.2 L5.45 -25.9 Q6.9 -25.3 7.55 -23.85 7.7 -23.5 7.95 -23.3 L8.1 -23.1 8.25 -22.9 Q9.6 -21.9 10.1 -20.1 L10.55 -18.2 10.6 -18.0 Q10.8 -17.0 11.2 -16.45 L11.45 -16.3 Q12.35 -16.0 12.3 -15.0 L12.65 -12.6 12.65 -12.4 12.85 -10.5 12.9 -10.15 13.05 -9.2 13.45 -7.15 Q13.9 -5.3 14.5 -3.6 L14.95 -2.25 15.0 -1.7 14.75 6.15 14.4 8.25 Q14.05 9.95 13.95 11.8 L13.95 12.15 13.65 14.25 13.5 14.6 11.9 18.05 11.25 19.5 10.65 21.15 10.5 21.55 Q9.95 22.7 9.7 24.0 L9.6 24.35 Q9.4 25.2 8.8 25.65 7.8 26.45 7.05 27.4 L7.3 27.4 9.25 26.65 12.15 25.25 12.9 24.8 13.15 24.6 13.8 23.95 14.15 23.45 15.2 22.1 15.4 21.95 16.15 21.15 16.9 19.9 17.15 19.45 17.8 18.0 19.5 14.4 19.75 13.9 20.35 12.85 Q21.35 11.3 21.95 9.55 L22.15 9.2 22.35 8.75 22.75 7.65 23.75 3.9 24.25 1.65 24.45 0.15 24.25 -3.6 24.15 -4.7 Q23.9 -6.6 23.05 -8.25 L21.75 -10.5 21.5 -10.85 Q20.3 -12.2 19.85 -13.7 L19.65 -14.05 18.6 -15.45 17.75 -16.65 15.7 -19.65 14.85 -21.2 13.9 -22.55 13.65 -22.85 12.6 -24.0 Q11.45 -25.6 9.75 -26.25 L8.05 -27.0 6.55 -27.75 5.25 -28.3 4.5 -28.55 3.9 -28.85 4.05 -29.75 Q13.9 -28.55 21.2 -21.2 30.0 -12.4 30.0 0.0 30.0 12.45 21.2 21.2 14.05 28.4 4.4 29.7 M-0.55 -30.0 L-0.55 -29.65 0.15 -28.8 -1.15 -29.45 -1.05 -26.45 -0.95 -24.95 -1.05 -21.0 -1.1 -20.45 Q-1.55 -18.35 -1.45 -16.15 L-1.3 -14.25 -1.05 -10.5 -0.75 -8.45 Q-0.25 -6.8 -0.3 -4.9 L-0.45 -1.5 Q-0.55 0.65 -0.1 2.6 L0.0 3.35 0.25 7.65 0.35 9.55 0.25 17.4 0.45 19.1 0.55 19.65 0.45 25.5 0.45 25.85 0.35 28.85 0.35 29.6 0.4 29.75 0.4 30.0 0.0 30.0 -0.95 30.0 -1.2 29.85 -1.7 27.0 -1.8 26.45 -2.05 25.1 -2.15 24.8 -3.8 21.95 -4.0 21.5 Q-4.1 21.1 -4.5 20.8 -4.95 20.5 -4.95 19.85 L-5.15 18.85 -5.7 17.25 -5.75 17.05 -6.05 15.55 -6.35 13.85 -6.5 11.8 -6.7 7.5 -6.85 3.55 -6.85 3.15 -6.95 0.35 -7.05 -3.75 -7.05 -4.15 Q-7.35 -6.9 -7.3 -9.75 L-7.25 -11.45 -6.85 -15.2 -6.55 -17.25 -6.45 -18.75 -6.3 -20.45 -6.15 -21.6 -5.85 -22.9 -5.55 -23.6 Q-5.35 -23.85 -5.4 -24.2 L-5.4 -24.55 -5.1 -25.5 Q-4.65 -27.3 -3.4 -28.5 L-3.25 -28.7 Q-3.0 -29.5 -2.25 -29.45 L-2.25 -29.9 -1.2 -29.95 -1.15 -29.95 -0.55 -30.0 M-6.2 29.4 L-6.25 29.65 Q-6.6 31.1 -6.9 29.25 -6.95 29.1 -7.85 28.95 -8.8 28.8 -8.85 27.9 -8.9 27.0 -9.45 25.9 L-10.5 24.1 Q-11.0 23.35 -11.8 23.0 -13.2 22.35 -14.65 21.05 L-17.1 18.75 Q-18.1 17.75 -18.15 17.15 L-18.4 16.3 -19.1 15.55 -20.05 14.9 -20.5 14.3 Q-20.55 13.9 -21.0 13.6 L-22.1 12.5 Q-22.8 11.6 -22.85 10.5 L-22.8 7.85 -22.6 6.85 -22.45 6.35 Q-21.95 4.6 -22.1 2.6 -22.2 1.5 -22.45 0.55 -22.75 -0.7 -22.7 -2.1 L-22.15 -3.95 -20.95 -5.95 Q-20.8 -6.1 -20.75 -6.4 L-20.55 -8.1 -20.55 -8.45 -20.4 -9.95 -20.1 -11.65 -18.85 -15.25 -18.7 -15.75 -17.95 -19.5 Q-17.45 -21.2 -16.55 -22.75 -15.55 -24.4 -13.85 -25.85 L-13.5 -26.15 -11.0 -27.7 -10.7 -27.8 -9.95 -27.95 -9.2 -28.2 -8.55 -28.8 -6.5 -29.3 -6.9 -29.05 -7.2 -28.75 -8.1 -27.8 -8.35 -27.35 -8.85 -25.7 Q-8.9 -25.4 -9.1 -25.25 -10.0 -24.45 -10.4 -23.5 L-10.9 -22.35 -11.35 -21.2 -12.6 -17.1 -13.55 -13.7 -13.65 -13.15 Q-13.85 -10.75 -14.7 -8.65 L-14.75 -8.45 -14.85 -7.35 -14.95 -6.75 -15.05 -5.45 -15.1 -4.9 -15.15 -0.95 Q-15.05 2.95 -15.35 6.75 L-15.4 8.05 -15.25 11.6 -15.15 11.95 -14.45 14.05 Q-14.05 15.65 -13.1 17.0 L-12.5 17.75 -10.95 19.65 -9.0 22.3 -8.85 22.5 Q-8.4 24.1 -7.55 25.35 L-6.55 26.8 -5.3 28.1 -6.2 29.4 M-13.75 26.75 L-17.35 24.5 Q-19.35 23.05 -21.2 21.2 -30.0 12.45 -30.0 0.0 -30.0 -10.4 -23.8 -18.3 L-23.2 -17.85 -24.85 -14.4 -25.2 -12.6 -25.25 -12.2 -25.75 -9.75 Q-25.9 -8.55 -26.15 -7.85 L-26.5 -7.0 Q-27.15 -5.35 -26.95 -3.4 L-26.85 -3.0 -26.75 -2.45 -26.15 -0.7 Q-25.8 -0.05 -25.85 0.75 -26.0 4.75 -25.45 8.4 L-25.3 8.8 -24.55 11.0 -24.2 12.35 -24.0 13.1 Q-23.5 14.7 -22.35 15.8 L-21.9 16.25 -20.7 17.3 Q-20.55 17.45 -20.5 18.15 L-20.35 19.55 -20.0 20.2 -19.15 20.9 Q-18.05 21.6 -16.55 23.3 L-14.65 24.95 -14.5 25.1 -13.75 26.75" fill="#00ff00" fill-rule="evenodd" stroke="none"/>
  </g>
  <defs>
    <radialGradient cx="0" cy="0" gradientTransform="matrix(0.037, 0.0, 0.0, 0.037, 0.0, 0.0)" gradientUnits="userSpaceOnUse" id="gradient0" r="819.2" spreadMethod="pad">
      <stop offset="0.0" stop-color="#cccccc"/>
      <stop offset="1.0" stop-color="#999999"/>
    </radialGradient>
  </defs>
</svg>
