<?xml version="1.0" encoding="UTF-8" standalone="no"?>
<svg xmlns:ffdec="https://www.free-decompiler.com/flash" xmlns:xlink="http://www.w3.org/1999/xlink" ffdec:objectType="shape" height="62.95px" width="62.5px" xmlns="http://www.w3.org/2000/svg">
  <g transform="matrix(1.0, 0.0, 0.0, 1.0, 31.4, 31.5)">
    <path d="M21.2 -21.2 Q30.0 -12.4 30.0 0.0 30.0 12.45 21.2 21.2 12.45 30.0 0.0 30.0 -12.4 30.0 -21.2 21.2 -30.0 12.45 -30.0 0.0 -30.0 -12.4 -21.2 -21.2 -12.4 -30.0 0.0 -30.0 12.45 -30.0 21.2 -21.2" fill="url(#gradient0)" fill-rule="evenodd" stroke="none"/>
    <path d="M0.0 -30.0 L-5.05 -29.75 Q-8.5 -29.65 -10.7 -28.05 L-16.05 -24.05 Q-19.25 -21.65 -21.25 -20.75 -23.2 -19.85 -25.3 -16.85 L-28.8 -11.25 Q-30.2 -8.7 -29.8 -5.3 -29.4 -1.85 -29.45 1.05 -29.45 4.0 -28.2 7.0 -26.9 10.0 -26.3 12.7 -25.65 15.4 -24.25 18.35 -22.85 21.35 -20.3 22.65 -17.75 23.95 -15.95 25.85 -14.15 27.75 -10.55 28.3 L-4.15 28.8 Q-1.35 28.75 1.1 29.65 3.55 30.55 7.35 28.9 11.15 27.25 13.6 25.5 L18.05 22.25 22.3 19.0 Q24.55 17.25 26.1 13.7 L28.4 8.55 Q29.15 6.9 29.5 3.3 29.85 -0.3 28.85 -3.75 27.9 -7.15 27.7 -9.45 27.5 -11.7 26.4 -14.0 25.35 -16.3 23.1 -18.9 20.9 -21.45 18.25 -23.4 L13.65 -26.75 Q11.7 -28.1 8.45 -28.7 L3.7 -29.6 0.0 -30.0 Z" fill="none" stroke="#000000" stroke-linecap="round" stroke-linejoin="round" stroke-width="3.0"/>
  </g>
  <defs>
    <radialGradient cx="0" cy="0" gradientTransform="matrix(0.037, 0.0, 0.0, 0.037, 0.0, 0.0)" gradientUnits="userSpaceOnUse" id="gradient0" r="819.2" spreadMethod="pad">
      <stop offset="0.0" stop-color="#cccccc"/>
      <stop offset="1.0" stop-color="#999999"/>
    </radialGradient>
  </defs>
</svg>
