<?xml version="1.0" encoding="UTF-8" standalone="no"?>
<svg xmlns:ffdec="https://www.free-decompiler.com/flash" xmlns:xlink="http://www.w3.org/1999/xlink" ffdec:objectType="shape" height="480.0px" width="1080.0px" xmlns="http://www.w3.org/2000/svg">
  <g transform="matrix(1.0, 0.0, 0.0, 1.0, 540.0, 0.0)">
    <path d="M-58.05 10.05 Q-58.0 13.7 -57.4 17.1 -56.95 19.5 -56.65 21.95 L-56.25 25.05 Q-55.15 33.85 -55.0 43.0 L-54.7 47.95 Q-54.4 50.85 -50.9 50.5 L-41.95 50.0 Q-21.75 49.9 -3.85 54.5 L-3.6 58.7 -13.95 59.35 Q-17.15 59.55 -19.9 61.1 -24.05 63.4 -27.95 65.05 -28.95 65.5 -29.95 65.55 -33.3 65.65 -35.15 66.6 L-36.95 67.0 -46.9 67.45 Q-47.45 67.5 -48.0 67.95 -50.05 69.55 -51.15 71.9 L-52.05 72.85 Q-53.65 73.8 -53.35 77.05 L-52.55 84.95 -52.3 87.05 -51.6 91.95 Q-51.45 93.0 -51.45 94.0 -51.4 97.95 -50.35 100.2 -49.95 101.0 -49.85 102.0 -48.5 113.6 -48.9 126.0 -49.1 131.65 -49.6 137.05 L-50.2 145.0 -51.6 163.05 -52.3 170.95 -52.65 174.05 Q-53.6 180.45 -52.35 186.1 -51.95 188.0 -51.95 190.0 -51.95 203.5 -52.4 217.0 L-52.75 219.05 Q-53.85 223.35 -54.4 227.95 L-54.5 229.05 Q-54.95 236.5 -54.85 244.0 -54.75 251.3 -55.5 258.05 -55.95 262.0 -56.05 266.0 -56.15 271.1 -56.6 276.05 -57.55 286.45 -57.7 297.0 -57.95 313.0 -57.5 329.0 -57.45 331.0 -57.0 333.0 -55.9 337.75 -55.8 343.0 -55.7 347.8 -54.35 352.15 -53.95 353.5 -53.95 355.0 L-53.95 389.0 Q-53.95 401.95 -54.4 414.95 -54.45 416.45 -54.9 417.95 -56.2 422.15 -56.15 426.95 -55.95 436.95 -56.4 446.95 -56.45 447.95 -56.85 449.0 -60.4 458.3 -60.05 470.0 L-59.9 472.95 -59.9 480.0 -540.0 480.0 -540.0 0.0 -59.9 0.0 -59.9 10.0 -58.05 10.05 M60.1 10.0 L60.1 0.0 540.0 0.0 540.0 480.0 60.1 480.0 60.1 471.95 60.15 470.0 Q60.1 468.0 59.45 466.75 59.05 465.95 59.05 464.95 59.05 458.45 59.5 452.0 L59.6 450.9 Q59.85 448.2 60.7 445.85 62.1 442.0 62.1 436.95 62.05 419.45 61.6 402.0 L61.3 398.95 Q60.05 390.2 60.5 381.0 60.65 378.55 59.5 376.7 59.05 376.0 59.05 375.0 59.3 363.8 58.45 352.95 58.05 347.5 58.05 342.0 58.05 331.5 57.05 321.1 L56.05 321.0 46.2 320.2 Q45.05 320.0 44.15 318.9 42.95 317.5 41.05 317.5 L39.95 317.35 Q36.25 316.5 33.85 315.4 33.05 315.0 32.05 314.9 26.85 314.5 22.15 312.7 19.85 311.8 17.05 311.95 12.45 312.1 10.85 309.1 L10.15 307.95 Q7.85 304.7 13.3 301.4 L15.55 299.5 17.8 297.6 Q21.9 294.65 27.2 292.35 L29.05 292.0 46.0 291.55 Q46.55 291.5 47.1 291.05 48.95 289.6 51.95 287.85 L55.9 285.75 Q57.55 284.9 57.35 282.95 57.05 279.6 55.35 276.8 54.55 275.5 54.4 273.95 L53.75 266.0 53.4 261.0 52.6 249.05 52.45 247.95 Q52.05 245.5 52.05 243.0 51.95 237.1 54.55 233.65 55.05 233.0 55.1 232.0 55.5 223.1 53.9 215.05 53.05 210.8 48.0 211.6 L43.05 212.0 Q34.55 212.0 26.05 212.45 25.05 212.5 24.0 212.9 20.4 214.35 15.05 214.15 11.05 214.0 7.05 214.1 5.45 214.15 5.7 211.95 L6.45 206.05 6.65 204.95 Q7.35 200.3 13.05 201.0 17.0 201.45 19.25 200.4 20.05 200.0 20.95 199.75 L26.15 198.4 30.0 197.75 Q35.45 197.0 39.15 195.2 46.05 191.9 49.45 187.3 52.05 183.8 51.5 177.95 L50.8 168.0 Q50.6 164.05 51.65 161.8 L52.25 160.05 52.55 157.0 Q52.55 151.85 54.65 147.8 55.05 147.0 55.05 146.0 55.05 135.5 54.6 125.0 L54.2 121.95 Q51.9 112.45 53.85 102.95 55.55 94.4 55.55 85.0 55.55 84.0 55.8 82.95 57.5 75.25 57.35 67.0 57.05 49.0 57.5 31.0 L57.6 28.95 Q58.05 23.0 57.7 17.0 57.5 13.45 59.75 12.4 L61.15 11.45 60.1 10.0" fill="#999999" fill-rule="evenodd" stroke="none"/>
  </g>
</svg>
