<?xml version="1.0" encoding="UTF-8" standalone="no"?>
<svg xmlns:ffdec="https://www.free-decompiler.com/flash" xmlns:xlink="http://www.w3.org/1999/xlink" ffdec:objectType="shape" height="196.1px" width="567.3px" xmlns="http://www.w3.org/2000/svg">
  <g transform="matrix(1.0, 0.0, 0.0, 1.0, 283.65, 98.05)">
    <path d="M31.4 -89.25 L30.9 -89.2 Q-2.95 -90.35 -34.85 -81.75 -54.45 -76.55 -71.1 -64.5 L-129.1 -22.25 Q10.75 -32.15 149.65 -39.25 L149.65 -39.5 Q160.85 -52.8 149.4 -63.25 115.3 -88.95 67.15 -89.0 L31.4 -89.25 M-83.85 -28.5 L-84.1 -28.45 Q-97.6 -27.35 -102.35 -33.0 -97.05 -45.7 -88.85 -46.7 L-86.6 -46.75 Q-81.2 -40.55 -83.85 -28.5 M-255.45 -9.65 Q-205.6 -24.35 -179.35 -28.15 -151.7 -32.15 -147.85 -33.25 -144.0 -34.4 -136.6 -38.25 L-83.75 -70.05 Q-60.3 -85.4 -36.85 -91.0 27.85 -102.5 102.4 -95.25 155.1 -89.6 214.4 -51.75 L215.15 -51.75 264.9 -46.55 264.4 -41.75 253.3 -11.0 251.4 -5.75 276.4 -6.75 276.65 -6.75 283.65 5.25 283.15 35.25 Q279.4 53.35 259.9 55.75 L216.15 63.75 215.65 63.5 Q219.0 45.4 210.4 29.25 195.05 7.7 169.4 6.75 146.2 7.1 131.35 26.9 120.8 41.4 121.65 59.75 L-128.1 66.75 Q-127.35 40.95 -147.35 21.75 -162.2 8.6 -184.6 10.5 -205.15 13.05 -218.85 28.5 -231.45 44.9 -229.0 65.25 L-229.1 65.25 -228.35 72.75 -261.35 69.25 Q-273.6 67.6 -279.0 60.55 L-279.1 60.4 Q-283.1 55.0 -283.2 46.65 -284.9 30.75 -280.05 15.5 L-277.45 16.4 -252.35 15.5 -242.35 -1.5 -241.85 -4.5 -243.1 -6.5 -245.6 -7.0 -254.85 -7.25 -255.45 -9.65 M18.9 21.25 L18.9 13.5 -109.6 17.25 Q-107.4 23.55 -99.35 25.0 L18.9 21.25 M104.4 18.5 Q112.4 17.6 113.15 11.25 L30.65 14.0 30.65 20.5 104.4 18.5 M-264.6 48.75 Q-264.25 43.05 -267.85 43.25 L-281.05 42.25 Q-281.2 51.25 -277.35 59.25 L-271.35 59.25 Q-265.55 55.45 -264.6 48.75" fill="#9966ff" fill-rule="evenodd" stroke="none"/>
    <path d="M31.4 -89.25 L67.15 -89.0 Q115.3 -88.95 149.4 -63.25 160.85 -52.8 149.65 -39.5 L149.65 -39.25 Q10.75 -32.15 -129.1 -22.25 L-71.1 -64.5 Q-54.45 -76.55 -34.85 -81.75 -2.95 -90.35 30.9 -89.2 L31.4 -89.25 M35.65 -36.25 L112.65 -40.0 112.9 -78.0 Q78.6 -87.85 38.65 -85.45 L35.65 -36.25 M-83.85 -28.5 L13.65 -34.5 23.4 -85.25 Q-45.6 -85.9 -87.55 -47.85 L-88.85 -46.7 Q-97.05 -45.7 -102.35 -33.0 -97.6 -27.35 -84.1 -28.45 L-83.85 -28.5 M145.65 -60.75 Q132.85 -70.55 117.25 -76.7 L116.9 -40.5 146.9 -42.0 Q156.65 -51.85 145.65 -60.75" fill="#393a3a" fill-rule="evenodd" stroke="none"/>
    <path d="M35.65 -36.25 L38.65 -85.45 Q78.6 -87.85 112.9 -78.0 L112.65 -40.0 35.65 -36.25 M-87.55 -47.85 Q-45.6 -85.9 23.4 -85.25 L13.65 -34.5 -83.85 -28.5 Q-81.2 -40.55 -86.6 -46.75 L-87.55 -47.85 M145.65 -60.75 Q156.65 -51.85 146.9 -42.0 L116.9 -40.5 117.25 -76.7 Q132.85 -70.55 145.65 -60.75" fill="#99ccff" fill-rule="evenodd" stroke="none"/>
    <path d="M-255.45 -9.65 L-254.85 -7.25 -258.85 -6.2 Q-272.25 -1.55 -277.45 16.4 L-280.05 15.5 Q-278.7 11.2 -276.85 7.0 -271.9 -3.9 -261.1 -8.0 L-259.5 -8.45 -255.45 -9.65 M264.4 -41.75 L264.9 -46.55 265.4 -46.5 270.45 -40.5 270.6 -40.05 264.4 -41.75" fill="#9999ff" fill-rule="evenodd" stroke="none"/>
    <path d="M253.3 -11.0 L264.4 -41.75 270.6 -40.05 270.65 -39.9 Q274.5 -27.4 275.95 -12.95 L253.3 -11.0" fill="#ff0000" fill-rule="evenodd" stroke="none"/>
    <path d="M-254.85 -7.25 L-245.6 -7.0 -243.1 -6.5 -241.85 -4.5 -242.35 -1.5 -252.35 15.5 -277.45 16.4 Q-272.25 -1.55 -258.85 -6.2 L-254.85 -7.25 M276.4 -6.75 L251.4 -5.75 253.3 -11.0 275.95 -12.95 276.4 -6.75" fill="#ffffff" fill-rule="evenodd" stroke="none"/>
    <path d="M130.4 71.75 Q127.45 64.55 127.45 56.1 127.45 39.1 139.4 26.65 151.9 14.65 168.9 14.65 185.85 14.65 197.85 26.65 209.4 38.15 210.3 53.5 L210.35 56.1 Q210.35 73.1 197.85 85.05 185.85 97.55 168.9 97.55 151.9 97.55 139.4 85.05 133.45 79.1 130.45 71.85 L130.4 71.75 M192.75 33.6 Q183.35 24.2 170.05 24.2 156.75 24.2 147.3 33.6 137.9 43.05 137.9 56.35 137.9 69.65 147.3 79.05 156.75 88.5 170.05 88.5 183.35 88.5 192.75 79.05 202.2 69.65 202.2 56.35 202.2 43.05 192.75 33.6 M-141.8 73.5 L-141.85 73.65 Q-144.95 80.1 -150.65 85.55 -162.65 98.05 -179.6 98.05 -196.6 98.05 -209.1 85.55 -217.85 76.8 -220.15 65.35 L-220.2 65.25 Q-221.05 61.1 -221.05 56.6 -221.05 39.6 -209.1 27.15 -196.6 15.15 -179.6 15.15 -162.65 15.15 -150.65 27.15 -138.15 39.6 -138.15 56.6 -138.15 65.8 -141.8 73.5 M-158.15 78.95 Q-148.85 69.65 -148.85 56.5 -148.85 43.35 -158.15 34.05 -167.45 24.75 -180.6 24.75 -193.75 24.75 -203.05 34.05 -212.35 43.35 -212.35 56.5 -212.35 69.65 -203.05 78.95 -193.75 88.25 -180.6 88.25 -167.45 88.25 -158.15 78.95 M-264.6 48.75 Q-265.55 55.45 -271.35 59.25 L-277.35 59.25 Q-281.2 51.25 -281.05 42.25 L-267.85 43.25 Q-264.25 43.05 -264.6 48.75" fill="#333333" fill-rule="evenodd" stroke="none"/>
    <path d="M192.75 33.6 Q202.2 43.05 202.2 56.35 202.2 69.65 192.75 79.05 183.35 88.5 170.05 88.5 156.75 88.5 147.3 79.05 137.9 69.65 137.9 56.35 137.9 43.05 147.3 33.6 156.75 24.2 170.05 24.2 183.35 24.2 192.75 33.6 M-158.15 78.95 Q-167.45 88.25 -180.6 88.25 -193.75 88.25 -203.05 78.95 -212.35 69.65 -212.35 56.5 -212.35 43.35 -203.05 34.05 -193.75 24.75 -180.6 24.75 -167.45 24.75 -158.15 34.05 -148.85 43.35 -148.85 56.5 -148.85 69.65 -158.15 78.95" fill="#cccccc" fill-rule="evenodd" stroke="none"/>
    <path d="M-229.0 65.25 Q-231.45 44.9 -218.85 28.5 -205.15 13.05 -184.6 10.5 -162.2 8.6 -147.35 21.75 -127.35 40.95 -128.1 66.75 L121.65 59.75 Q120.8 41.4 131.35 26.9 146.2 7.1 169.4 6.75 195.05 7.7 210.4 29.25 219.0 45.4 215.65 63.5 L213.4 62.5 213.4 55.5 210.3 53.5 Q209.4 38.15 197.85 26.65 185.85 14.65 168.9 14.65 151.9 14.65 139.4 26.65 127.45 39.1 127.45 56.1 127.45 64.55 130.4 71.75 L-141.8 73.5 Q-138.15 65.8 -138.15 56.6 -138.15 39.6 -150.65 27.15 -162.65 15.15 -179.6 15.15 -196.6 15.15 -209.1 27.15 -221.05 39.6 -221.05 56.6 -221.05 61.1 -220.2 65.25 L-229.0 65.25" fill="#191919" fill-rule="evenodd" stroke="none"/>
    <path d="M104.4 18.5 L30.65 20.5 30.65 14.0 113.15 11.25 Q112.4 17.6 104.4 18.5 M18.9 21.25 L-99.35 25.0 Q-107.4 23.55 -109.6 17.25 L18.9 13.5 18.9 21.25" fill="#7c45fe" fill-rule="evenodd" stroke="none"/>
  </g>
</svg>
