<?xml version="1.0" encoding="UTF-8" standalone="no"?>
<svg xmlns:ffdec="https://www.free-decompiler.com/flash" xmlns:xlink="http://www.w3.org/1999/xlink" ffdec:objectType="frame" height="120.0px" width="111.0px" xmlns="http://www.w3.org/2000/svg">
  <g transform="matrix(1.0, 0.0, 0.0, 1.0, 84.5, 60.0)">
    <use ffdec:characterId="194" height="120.0" transform="matrix(1.0, 0.0, 0.0, 1.0, -84.5, -60.0)" width="111.0" xlink:href="#shape0"/>
    <use ffdec:characterId="199" height="29.15" transform="matrix(1.0, 0.0, 0.0, 1.0, -16.2, 3.15)" width="26.75" xlink:href="#text0"/>
  </g>
  <defs>
    <g id="shape0" transform="matrix(1.0, 0.0, 0.0, 1.0, 84.5, 60.0)">
      <path d="M-45.5 24.0 L5.5 24.0 5.5 60.0 -45.5 60.0 -45.5 24.0 -45.5 24.0" fill="#000000" fill-rule="evenodd" stroke="none"/>
      <path d="M-44.05 0.0 L5.5 0.0 7.0 0.0 Q15.0 0.2 20.65 5.85 26.3 11.5 26.5 19.5 L26.5 30.55 Q26.3 38.5 20.65 44.15 15.0 49.8 7.0 50.0 L5.5 50.0 -44.0 50.0 Q-51.95 49.85 -57.65 44.15 -63.3 38.5 -63.5 30.55 L-63.5 19.5 Q-63.3 11.5 -57.65 5.85 -52.0 0.2 -44.05 0.0" fill="#ff66cc" fill-rule="evenodd" stroke="none"/>
      <path d="M-32.0 16.05 Q-31.1 16.05 -30.45 15.25 -30.0 14.65 -30.0 14.15 -30.0 12.35 -32.0 12.2 -34.0 12.0 -34.0 14.1 L-33.7 15.15 Q-33.2 16.05 -32.0 16.05 M-39.0 14.85 L-38.75 15.9 Q-38.25 16.8 -37.0 16.8 -36.1 16.8 -35.45 16.0 -35.0 15.4 -35.0 14.9 -35.0 13.1 -37.0 12.95 -39.0 12.75 -39.0 14.85 M-39.2 21.55 Q-38.75 20.95 -38.75 20.4 -38.75 18.65 -40.75 18.45 -42.75 18.25 -42.75 20.35 L-42.5 21.35 Q-41.95 22.3 -40.75 22.3 -39.8 22.3 -39.2 21.55 M-36.0 20.95 Q-38.0 20.75 -38.0 22.85 L-37.75 23.9 Q-37.25 24.8 -36.0 24.8 -35.05 24.8 -34.45 24.05 -34.0 23.45 -34.0 22.9 -34.0 21.15 -36.0 20.95 M-30.0 14.85 L-29.75 15.9 Q-29.25 16.8 -28.0 16.8 -27.1 16.8 -26.45 16.0 -26.0 15.4 -26.0 14.9 -26.0 12.8 -28.0 12.85 -30.0 12.85 -30.0 14.85 M-34.75 20.4 Q-34.25 21.3 -33.0 21.3 -32.1 21.3 -31.45 20.5 -31.0 19.9 -31.0 19.4 -31.0 17.6 -33.0 17.45 -35.0 17.25 -35.0 19.35 L-34.75 20.4 M-27.35 24.2 Q-27.85 23.55 -29.0 23.45 -31.0 23.25 -31.0 25.35 L-30.7 26.4 Q-30.2 27.3 -29.0 27.3 -28.15 27.3 -27.5 26.6 -26.95 27.55 -25.75 27.55 -24.8 27.55 -24.2 26.8 -23.75 26.2 -23.75 25.65 -23.75 23.9 -25.75 23.7 -26.85 23.6 -27.35 24.2 M-29.25 20.35 L-29.0 21.35 Q-28.45 22.3 -27.25 22.3 -26.3 22.3 -25.7 21.55 -25.25 20.95 -25.25 20.4 -25.25 18.65 -27.25 18.45 -29.25 18.25 -29.25 20.35 M-24.0 18.25 Q-22.5 22.85 -22.5 25.1 -22.5 28.6 -26.95 28.95 L-32.75 28.8 -40.1 28.9 -42.65 29.05 Q-46.3 29.05 -49.25 25.85 -51.5 23.4 -51.5 22.35 L-51.4 21.4 Q-51.2 20.9 -50.5 20.55 L-48.25 20.4 -46.0 20.05 -44.35 18.7 Q-42.7 17.55 -40.75 17.5 -34.65 1.2 -28.05 9.9 -25.75 12.95 -24.0 18.25 M-39.5 28.55 Q-38.45 28.55 -37.75 27.45 -37.25 26.65 -37.25 26.15 -37.25 23.95 -39.35 24.15 -41.5 24.35 -41.5 26.6 L-41.2 27.65 Q-40.7 28.55 -39.5 28.55 M-46.75 25.1 L-46.45 26.15 Q-45.95 27.05 -44.75 27.05 -43.8 27.05 -43.2 26.3 -42.75 25.7 -42.75 25.15 -42.75 23.05 -44.75 23.05 -46.75 23.1 -46.75 25.1" fill="#ff00ff" fill-rule="evenodd" stroke="none"/>
      <path d="M-32.0 16.05 Q-33.2 16.05 -33.7 15.15 L-34.0 14.1 Q-34.0 12.0 -32.0 12.2 -30.0 12.35 -30.0 14.15 -30.0 14.65 -30.45 15.25 -31.1 16.05 -32.0 16.05 M-36.0 20.95 Q-34.0 21.15 -34.0 22.9 -34.0 23.45 -34.45 24.05 -35.05 24.8 -36.0 24.8 -37.25 24.8 -37.75 23.9 L-38.0 22.85 Q-38.0 20.75 -36.0 20.95 M-39.2 21.55 Q-39.8 22.3 -40.75 22.3 -41.95 22.3 -42.5 21.35 L-42.75 20.35 Q-42.75 18.25 -40.75 18.45 -38.75 18.65 -38.75 20.4 -38.75 20.95 -39.2 21.55 M-29.25 20.35 Q-29.25 18.25 -27.25 18.45 -25.25 18.65 -25.25 20.4 -25.25 20.95 -25.7 21.55 -26.3 22.3 -27.25 22.3 -28.45 22.3 -29.0 21.35 L-29.25 20.35 M-27.5 26.6 Q-28.15 27.3 -29.0 27.3 -30.2 27.3 -30.7 26.4 L-31.0 25.35 Q-31.0 23.25 -29.0 23.45 -27.85 23.55 -27.35 24.2 -27.75 24.65 -27.75 25.6 L-27.5 26.6 M-46.75 25.1 Q-46.75 23.1 -44.75 23.05 -42.75 23.05 -42.75 25.15 -42.75 25.7 -43.2 26.3 -43.8 27.05 -44.75 27.05 -45.95 27.05 -46.45 26.15 L-46.75 25.1" fill="#9900ff" fill-rule="evenodd" stroke="none"/>
      <path d="M-39.0 14.85 Q-39.0 12.75 -37.0 12.95 -35.0 13.1 -35.0 14.9 -35.0 15.4 -35.45 16.0 -36.1 16.8 -37.0 16.8 -38.25 16.8 -38.75 15.9 L-39.0 14.85 M-34.75 20.4 L-35.0 19.35 Q-35.0 17.25 -33.0 17.45 -31.0 17.6 -31.0 19.4 -31.0 19.9 -31.45 20.5 -32.1 21.3 -33.0 21.3 -34.25 21.3 -34.75 20.4 M-30.0 14.85 Q-30.0 12.85 -28.0 12.85 -26.0 12.8 -26.0 14.9 -26.0 15.4 -26.45 16.0 -27.1 16.8 -28.0 16.8 -29.25 16.8 -29.75 15.9 L-30.0 14.85 M-27.35 24.2 Q-26.85 23.6 -25.75 23.7 -23.75 23.9 -23.75 25.65 -23.75 26.2 -24.2 26.8 -24.8 27.55 -25.75 27.55 -26.95 27.55 -27.5 26.6 L-27.75 25.6 Q-27.75 24.65 -27.35 24.2 M-39.5 28.55 Q-40.7 28.55 -41.2 27.65 L-41.5 26.6 Q-41.5 24.35 -39.35 24.15 -37.25 23.95 -37.25 26.15 -37.25 26.65 -37.75 27.45 -38.45 28.55 -39.5 28.55" fill="#ffffff" fill-rule="evenodd" stroke="none"/>
      <path d="M-24.0 18.25 Q-22.5 22.85 -22.5 25.1 -22.5 28.6 -26.95 28.95 L-32.75 28.8 -40.1 28.9 -42.65 29.05 Q-46.3 29.05 -49.25 25.85 -51.5 23.4 -51.5 22.35 L-51.4 21.4 Q-51.2 20.9 -50.5 20.55 L-48.25 20.4 -46.0 20.05 -44.35 18.7 Q-42.7 17.55 -40.75 17.5 -34.65 1.2 -28.05 9.9 -25.75 12.95 -24.0 18.25 L-24.0 18.25 Z" fill="none" stroke="#000000" stroke-linecap="round" stroke-linejoin="round" stroke-width="2.0"/>
      <path d="M-20.0 -59.5 Q-15.1 -59.5 -10.6 -57.7 -6.3 -55.9 -2.85 -52.7 0.6 -49.45 2.6 -45.2 4.65 -40.85 4.95 -36.0 L5.0 -0.5 -45.0 -0.5 Q-45.2 -4.15 -47.8 -6.7 -50.55 -9.5 -54.5 -9.5 L-65.0 -9.5 Q-68.85 -9.5 -72.4 -11.0 -75.8 -12.45 -78.45 -15.05 -81.05 -17.7 -82.5 -21.1 -84.0 -24.65 -84.0 -28.5 L-84.0 -59.5 -20.0 -59.5 -20.0 -59.5" fill="url(#gradient0)" fill-rule="evenodd" stroke="none"/>
      <path d="M-20.0 -59.5 Q-15.1 -59.5 -10.6 -57.7 -6.3 -55.9 -2.85 -52.7 0.6 -49.45 2.6 -45.2 4.65 -40.85 4.95 -36.0 L5.0 -0.5 -45.0 -0.5 Q-45.2 -4.15 -47.8 -6.7 -50.55 -9.5 -54.5 -9.5 L-65.0 -9.5 Q-68.85 -9.5 -72.4 -11.0 -75.8 -12.45 -78.45 -15.05 -81.05 -17.7 -82.5 -21.1 -84.0 -24.65 -84.0 -28.5 L-84.0 -59.5 -20.0 -59.5 -20.0 -59.5 Z" fill="none" stroke="#000000" stroke-linecap="round" stroke-linejoin="round" stroke-width="1.0"/>
    </g>
    <radialGradient cx="0" cy="0" gradientTransform="matrix(0.0549, 0.0, 0.0, 0.0366, -39.5, -30.0)" gradientUnits="userSpaceOnUse" id="gradient0" r="819.2" spreadMethod="pad">
      <stop offset="0.0" stop-color="#0b0b0b"/>
      <stop offset="1.0" stop-color="#191919"/>
    </radialGradient>
    <g id="text0" transform="matrix(1.0, 0.0, 0.0, 1.0, -1.3, 2.85)">
      <g transform="matrix(1.0, 0.0, 0.0, 1.0, 0.0, 0.0)">
        <use fill="#000000" height="29.15" transform="matrix(0.0293, 0.0, 0.0, 0.0293, 0.0, 22.0)" width="26.75" xlink:href="#font_Digital-7__0"/>
        <use fill="#000000" height="29.15" transform="matrix(0.0293, 0.0, 0.0, 0.0293, 14.15, 22.0)" width="26.75" xlink:href="#font_Digital-7_00"/>
      </g>
    </g>
    <g id="font_Digital-7__0">
      <path d="M212.0 28.0 L212.0 28.0 212.0 74.5 250.0 112.0 288.0 74.5 288.0 28.0 212.0 28.0 M288.0 -104.0 L288.0 -104.0 288.0 -268.0 212.0 -268.0 212.0 -104.0 288.0 -104.0 M288.0 -400.0 L288.0 -400.0 288.0 -568.0 212.0 -568.0 212.0 -400.0 288.0 -400.0 M288.0 -700.0 L288.0 -700.0 288.0 -744.5 250.0 -780.0 212.0 -744.5 212.0 -700.0 288.0 -700.0 M363.0 -596.0 L363.0 -596.0 437.5 -624.5 Q428.0 -662.5 391.0 -672.0 L94.0 -672.0 Q57.0 -662.5 47.5 -624.5 L122.0 -596.0 363.0 -596.0 M44.0 -603.5 L44.0 -603.5 44.0 -361.5 63.0 -343.0 120.0 -398.5 120.0 -575.5 44.0 -603.5 M345.5 -76.0 L345.5 -76.0 120.0 -76.0 44.0 -47.5 Q53.5 -9.5 91.0 0.0 L373.5 0.0 345.5 -76.0 M364.0 -268.0 L364.0 -268.0 364.0 -72.5 392.5 2.0 Q430.5 -7.5 440.0 -44.5 L440.0 -305.0 421.0 -324.0 364.0 -268.0 M122.0 -372.0 L122.0 -372.0 85.0 -334.0 122.0 -296.0 364.0 -296.0 401.5 -334.0 364.0 -372.0 122.0 -372.0" fill-rule="evenodd" stroke="none"/>
    </g>
    <g id="font_Digital-7_00">
      <path d="M421.0 -344.5 L421.0 -344.5 440.0 -363.0 440.0 -624.0 Q430.5 -661.0 392.5 -670.5 L364.0 -596.0 364.0 -400.5 421.0 -344.5 M48.0 -605.5 L48.0 -605.5 48.0 -363.5 67.0 -345.0 124.0 -400.5 124.0 -577.5 48.0 -605.5 M373.5 -672.0 L373.5 -672.0 94.5 -672.0 Q57.5 -662.5 48.0 -624.5 L124.0 -596.0 345.5 -596.0 373.5 -672.0 M124.0 -94.5 L124.0 -94.5 124.0 -271.0 67.0 -327.0 48.0 -308.5 48.0 -66.5 124.0 -94.5 M346.0 -76.0 L346.0 -76.0 124.0 -76.0 49.5 -47.5 Q59.0 -9.5 96.0 0.0 L373.5 0.0 346.0 -76.0 M364.0 -271.5 L364.0 -271.5 364.0 -76.0 392.5 -1.5 Q430.5 -11.0 440.0 -48.0 L440.0 -308.5 421.0 -327.5 364.0 -271.5" fill-rule="evenodd" stroke="none"/>
    </g>
  </defs>
</svg>
