<?xml version="1.0" encoding="UTF-8" standalone="no"?>
<svg xmlns:ffdec="https://www.free-decompiler.com/flash" xmlns:xlink="http://www.w3.org/1999/xlink" ffdec:objectType="frame" height="252.7px" width="252.9px" xmlns="http://www.w3.org/2000/svg">
  <g transform="matrix(1.0, 0.0, 0.0, 1.0, 126.45, 126.35)">
    <use ffdec:characterId="10" height="245.0" transform="matrix(1.0, 0.0, 0.0, 1.0, -122.2, -122.5)" width="245.0" xlink:href="#shape0"/>
    <use ffdec:characterId="12" height="37.75" id="loader" transform="matrix(3.3688, 0.0, 0.0, 3.3688, -124.9441, -3.8601)" width="34.0" xlink:href="#sprite0"/>
    <use ffdec:characterId="13" height="80.4" transform="matrix(1.0, 0.0, 0.0, 1.0, -11.45, -95.55)" width="120.25" xlink:href="#shape2"/>
    <use ffdec:characterId="14" height="161.8" transform="matrix(0.529, 0.0, 0.0, 0.529, -78.1363, -101.6314)" width="309.05" xlink:href="#shape3"/>
    <use ffdec:characterId="14" height="161.8" transform="matrix(0.529, 0.0, 0.0, 0.529, -78.1363, -104.2814)" width="309.05" xlink:href="#shape3"/>
    <use ffdec:characterId="14" height="161.8" transform="matrix(0.529, 0.0, 0.0, 0.529, -78.1363, -108.5314)" width="309.05" xlink:href="#shape3"/>
    <use ffdec:characterId="16" height="133.8" transform="matrix(0.529, 0.0, 0.0, 0.529, -75.5268, -99.7006)" width="196.25" xlink:href="#text0"/>
    <use ffdec:characterId="17" height="252.7" transform="matrix(1.0, 0.0, 0.0, 1.0, -126.45, -126.35)" width="252.9" xlink:href="#shape4"/>
    <use ffdec:characterId="19" height="119.2" transform="matrix(0.2961, 0.0, 0.0, 0.2961, -2.9188, 49.8499)" width="285.8" xlink:href="#sprite1"/>
    <use ffdec:characterId="1159" height="40.3" transform="matrix(0.3562, 0.0, 0.0, 0.4955, -26.211, 86.1491)" width="208.45" xlink:href="#shape6"/>
    <use ffdec:characterId="1158" height="47.95" transform="matrix(0.3495, 0.0, 0.0, 0.436, -26.2349, 85.5872)" width="216.85" xlink:href="#shape7"/>
  </g>
  <defs>
    <g id="shape0" transform="matrix(1.0, 0.0, 0.0, 1.0, 122.2, 122.5)">
      <path d="M32.25 -28.85 Q21.7 -46.8 2.3 -46.8 -17.1 -46.8 -30.8 -33.1 -44.5 -19.4 -44.5 0.0 -44.5 19.4 -30.8 33.05 -17.15 46.65 1.45 45.6 20.0 44.5 31.1 32.95 42.2 21.35 42.5 5.25 42.75 -10.9 32.25 -28.85 M-105.15 62.9 Q-122.2 35.0 -122.2 0.0 -122.2 -50.85 -86.35 -86.7 -50.55 -122.5 0.3 -122.5 51.15 -122.5 87.0 -86.7 96.4 -77.3 103.35 -66.85 122.8 -37.5 122.8 0.0 122.8 35.15 105.65 63.15 62.1 48.7 -105.15 62.9" fill="url(#gradient0)" fill-rule="evenodd" stroke="none"/>
      <path d="M105.65 63.15 L99.6 72.1 Q94.0 79.65 87.0 86.65 L81.2 92.15 Q25.2 82.4 -78.55 93.85 -82.55 90.45 -86.35 86.65 -97.5 75.5 -105.15 62.9 62.1 48.7 105.65 63.15" fill="#b1e800" fill-rule="evenodd" stroke="none"/>
      <path d="M81.2 92.15 Q47.1 122.5 0.3 122.5 -45.15 122.5 -78.55 93.85 25.2 82.4 81.2 92.15" fill="#7ad002" fill-rule="evenodd" stroke="none"/>
      <path d="M105.65 63.15 L106.8 63.15 M81.2 92.15 L81.8 92.15 M-78.55 93.85 L-81.2 94.15 M-105.15 62.9 L-107.2 63.15" fill="none" stroke="#ffff00" stroke-linecap="round" stroke-linejoin="round" stroke-width="1.0"/>
    </g>
    <linearGradient gradientTransform="matrix(8.0E-4, 0.1495, -0.1495, 8.0E-4, 0.3, 0.0)" gradientUnits="userSpaceOnUse" id="gradient0" spreadMethod="pad" x1="-819.2" x2="819.2">
      <stop offset="0.0" stop-color="#6699ff"/>
      <stop offset="1.0" stop-color="#aee1ff"/>
    </linearGradient>
    <g id="sprite0" transform="matrix(1.0, 0.0, 0.0, 1.0, 13.0, 28.5)">
      <use ffdec:characterId="11" height="37.75" transform="matrix(1.0, 0.0, 0.0, 1.0, -13.0, -28.5)" width="34.0" xlink:href="#shape1"/>
    </g>
    <g id="shape1" transform="matrix(1.0, 0.0, 0.0, 1.0, 13.0, 28.5)">
      <path d="M15.0 -12.5 L14.8 -15.1 15.65 -14.65 20.0 -12.5 15.0 -12.5 20.0 -12.5 14.85 -10.2 14.9 -10.5 15.0 -11.45 15.0 -12.5" fill="#ffcc00" fill-rule="evenodd" stroke="none"/>
      <path d="M14.8 -15.1 L15.0 -12.5 15.0 -11.45 14.9 -10.5 13.8 -9.8 Q13.3 -7.0 11.7 -4.65 L11.5 -4.1 Q11.5 -3.85 11.65 -3.55 14.0 0.2 14.0 5.0 L13.85 7.3 Q-9.85 -0.4 -11.15 -21.0 L-9.9 -22.4 Q-5.8 -26.5 0.0 -26.5 5.85 -26.5 9.9 -22.4 12.8 -19.5 13.7 -15.7 L14.8 -15.15 15.65 -14.75 15.65 -14.65 14.8 -15.1 14.8 -15.15 14.8 -15.1 M7.3 -21.9 L6.75 -22.15 6.7 -22.15 6.5 -22.25 6.2 -22.35 5.1 -22.5 5.0 -22.5 4.9 -22.5 4.2 -22.4 Q2.6 -22.2 1.45 -21.05 0.0 -19.55 0.0 -17.5 0.0 -15.4 1.45 -13.95 2.95 -12.5 5.0 -12.5 6.3 -12.5 7.35 -13.05 L8.55 -13.95 9.45 -15.15 9.75 -15.75 9.8 -16.0 10.0 -17.5 9.95 -18.25 9.4 -19.8 9.0 -20.5 8.55 -21.05 8.5 -21.1 8.25 -21.35 7.3 -21.9" fill="#ffff00" fill-rule="evenodd" stroke="none"/>
      <path d="M6.7 -22.15 L6.75 -22.15 7.3 -21.9 Q6.0 -21.7 5.0 -20.7 3.65 -19.35 3.7 -17.5 3.7 -15.6 5.0 -14.3 6.0 -13.3 7.35 -13.05 6.3 -12.5 5.0 -12.5 2.95 -12.5 1.45 -13.95 0.0 -15.4 0.0 -17.5 0.0 -19.55 1.45 -21.05 2.6 -22.2 4.2 -22.4 L4.9 -22.5 5.0 -22.5 5.1 -22.5 6.2 -22.35 6.5 -22.25 6.7 -22.15" fill="#ffffff" fill-rule="evenodd" stroke="none"/>
      <path d="M7.35 -13.05 Q6.0 -13.3 5.0 -14.3 3.7 -15.6 3.7 -17.5 3.65 -19.35 5.0 -20.7 6.0 -21.7 7.3 -21.9 L8.25 -21.35 8.5 -21.1 8.55 -21.05 9.0 -20.5 9.4 -19.8 8.55 -19.95 Q7.45 -19.95 6.75 -19.25 6.05 -18.55 6.1 -17.5 6.05 -16.45 6.75 -15.75 7.5 -15.0 8.55 -15.05 L9.45 -15.15 8.55 -13.95 7.35 -13.05" fill="#99ff00" fill-rule="evenodd" stroke="none"/>
      <path d="M9.4 -19.8 L9.95 -18.25 10.0 -17.5 9.8 -16.0 9.75 -15.75 9.45 -15.15 8.55 -15.05 Q7.5 -15.0 6.75 -15.75 6.05 -16.45 6.1 -17.5 6.05 -18.55 6.75 -19.25 7.45 -19.95 8.55 -19.95 L9.4 -19.8" fill="#000000" fill-rule="evenodd" stroke="none"/>
      <path d="M14.8 -15.1 L15.0 -12.5 20.0 -12.5 M14.9 -10.5 L15.0 -11.45 15.0 -12.5 M-11.8 -21.75 L-11.15 -21.0 M7.3 -21.9 L6.75 -22.15 6.7 -22.15 M6.2 -22.35 L5.1 -22.5 5.0 -22.5 4.9 -22.5 4.2 -22.4 Q2.6 -22.2 1.45 -21.05 0.0 -19.55 0.0 -17.5 0.0 -15.4 1.45 -13.95 2.95 -12.5 5.0 -12.5 6.3 -12.5 7.35 -13.05 L8.55 -13.95 9.45 -15.15 8.55 -15.05 Q7.5 -15.0 6.75 -15.75 6.05 -16.45 6.1 -17.5 6.05 -18.55 6.75 -19.25 7.45 -19.95 8.55 -19.95 L9.4 -19.8 9.95 -18.25 10.0 -17.5 9.8 -16.0 9.75 -15.75 9.45 -15.15 M7.3 -21.9 L8.25 -21.35 8.5 -21.1 8.55 -21.05 9.0 -20.5 9.4 -19.8 M14.85 -10.2 L14.9 -10.5 M13.85 7.3 L14.75 8.25 M-12.5 -22.55 L-11.8 -21.75" fill="none" stroke="#000000" stroke-linecap="round" stroke-linejoin="round" stroke-width="1.0"/>
      <path d="M20.0 -12.5 L15.65 -14.65 14.8 -15.1 14.8 -15.15 Q14.0 -19.7 10.6 -23.1 6.25 -27.5 0.0 -27.5 -6.2 -27.5 -10.6 -23.1 L-11.8 -21.75 M12.5 -4.1 Q14.4 -6.85 14.85 -10.2 L20.0 -12.5" fill="none" stroke="#000000" stroke-linecap="round" stroke-linejoin="round" stroke-width="2.0"/>
      <path d="M14.75 8.25 L15.0 5.0 Q15.0 -0.1 12.5 -4.1" fill="none" stroke="#000000" stroke-linecap="butt" stroke-linejoin="round" stroke-width="2.0"/>
      <path d="M-11.15 -21.0 Q-9.85 -0.4 13.85 7.3" fill="none" stroke="#ffff00" stroke-linecap="round" stroke-linejoin="round" stroke-width="1.0"/>
    </g>
    <g id="shape2" transform="matrix(1.0, 0.0, 0.0, 1.0, 11.45, 95.55)">
      <path d="M68.45 -86.5 L69.45 -85.45 Q73.2 -86.6 77.55 -86.6 86.05 -86.6 92.6 -82.05 L96.45 -78.8 Q104.3 -70.95 104.3 -59.85 L104.3 -59.75 Q108.8 -52.9 108.8 -44.15 108.8 -32.15 100.25 -23.7 91.8 -15.15 79.75 -15.15 L77.55 -15.2 20.0 -15.15 20.0 -15.25 18.05 -15.25 17.45 -15.5 Q11.05 -15.5 5.75 -17.9 1.0 -20.0 -3.0 -23.95 L-5.45 -26.75 -6.25 -27.8 Q-11.45 -35.0 -11.45 -44.35 -11.45 -56.3 -3.0 -64.75 1.05 -68.9 6.0 -71.0 L8.3 -71.85 8.7 -72.0 Q12.45 -73.1 16.65 -73.15 17.5 -76.25 19.0 -79.05 21.1 -83.05 24.55 -86.5 33.2 -95.1 45.25 -95.55 L47.8 -95.55 Q55.0 -95.3 60.95 -92.1 L63.3 -90.7 64.1 -90.1 68.45 -86.5" fill="#ffffff" fill-opacity="0.49803922" fill-rule="evenodd" stroke="none"/>
    </g>
    <g id="shape3" transform="matrix(1.0, 0.0, 0.0, 1.0, 154.5, 81.15)">
      <path d="M65.0 -60.25 Q67.75 -64.05 71.6 -67.95 L81.6 -72.35 93.35 -73.4 Q98.3 -74.15 103.4 -76.15 L114.4 -72.15 Q119.6 -70.65 124.65 -68.0 L133.95 -63.2 Q136.75 -59.15 140.85 -55.0 L144.4 -48.75 147.6 -31.5 141.75 -10.8 135.1 0.15 Q132.0 5.25 127.65 8.4 124.95 12.75 121.05 17.05 L87.6 44.25 112.15 41.55 Q117.4 39.4 123.85 40.7 L135.55 39.6 Q140.65 39.8 146.55 41.15 147.25 43.65 147.75 49.35 L149.55 56.9 147.9 59.35 Q148.0 63.85 146.45 68.75 L140.45 69.65 141.3 68.0 138.8 68.05 138.85 68.9 125.4 69.9 117.0 70.85 Q115.25 70.8 114.4 69.3 L94.35 74.7 86.8 75.65 84.25 73.95 74.15 73.45 68.3 75.15 65.7 72.65 Q61.5 72.55 56.4 71.15 54.35 68.45 52.9 64.45 L51.95 53.65 Q51.05 48.5 48.45 46.0 L50.9 41.75 58.4 36.6 Q61.05 32.3 64.85 28.2 68.05 24.5 72.35 21.3 75.8 19.2 78.1 15.2 L97.35 1.35 105.6 -6.55 Q120.95 -22.9 115.75 -34.05 L110.8 -40.1 Q107.65 -43.4 103.1 -46.6 L94.65 -47.4 92.2 -46.4 Q88.45 -43.55 83.0 -40.9 L77.65 -30.35 Q75.6 -24.3 75.0 -17.6 L72.55 -13.25 70.8 -13.2 61.55 -15.6 58.2 -14.65 55.7 -12.95 Q55.5 -11.75 54.15 -11.15 L54.85 -12.95 54.1 -12.9 50.6 -20.45 51.15 -33.05 Q51.75 -37.9 53.6 -43.25 L57.5 -53.5 65.0 -60.25 M12.8 -61.95 Q15.2 -61.8 14.7 -59.4 L14.35 -45.05 Q13.8 -38.75 15.85 -39.0 16.9 -39.1 19.0 -40.3 21.05 -41.45 21.3 -42.3 L20.65 -43.6 Q20.05 -44.2 19.95 -45.2 20.3 -47.75 23.7 -48.4 L29.3 -48.95 35.5 -48.35 Q39.2 -47.65 39.6 -44.65 39.55 -42.6 37.8 -42.35 36.05 -42.1 32.95 -40.5 L31.0 -39.45 Q29.7 -38.65 29.6 -37.95 30.05 -36.2 33.75 -31.4 L38.9 -24.95 Q41.3 -22.3 43.45 -21.25 45.55 -20.3 45.7 -18.35 46.25 -14.8 38.9 -14.4 L29.25 -14.4 26.45 -14.75 Q25.65 -15.15 24.5 -16.65 L18.15 -24.7 17.05 -26.2 Q16.2 -27.3 15.6 -27.4 15.05 -27.35 14.95 -26.6 L14.9 -25.5 Q14.95 -21.35 16.2 -20.85 17.5 -20.3 17.7 -18.3 18.0 -16.75 16.1 -15.25 14.25 -13.7 6.55 -13.6 L-1.5 -14.05 Q-5.15 -14.65 -5.4 -17.9 -5.15 -19.9 -3.6 -20.3 -2.0 -20.65 -1.6 -24.55 L-1.25 -32.3 -1.05 -38.75 -1.05 -48.45 Q-1.4 -52.05 -3.7 -51.9 -5.95 -51.75 -6.3 -54.1 -6.05 -56.4 -2.15 -58.15 1.75 -59.9 6.2 -60.9 L12.8 -61.95 M139.3 45.3 Q139.5 46.1 140.95 46.9 140.75 45.75 139.3 45.3 M85.85 71.45 L85.05 71.45 85.9 73.25 85.85 71.45 M21.65 54.3 Q23.6 55.15 25.6 55.2 31.0 54.9 34.0 52.95 37.0 51.0 38.5 50.7 40.05 50.85 41.15 52.5 42.25 54.1 42.3 55.65 41.7 61.25 34.4 64.75 27.05 68.2 20.1 68.3 7.15 67.95 0.55 60.5 -6.1 53.1 -6.1 43.2 -5.75 32.2 2.0 25.25 9.8 18.35 20.85 18.1 33.05 18.65 38.75 25.2 44.5 31.7 44.45 37.35 44.35 42.05 42.6 43.4 40.8 44.8 38.45 44.7 L17.7 44.7 Q15.7 44.1 15.2 46.1 15.35 49.3 17.75 51.6 19.8 50.2 22.95 48.7 29.85 45.35 31.7 46.05 L32.1 46.3 Q32.45 46.55 32.45 48.05 32.45 50.25 25.45 53.0 L21.65 54.3 M16.6 35.3 L20.3 35.3 23.95 35.2 Q25.65 34.95 25.75 32.7 25.6 27.45 20.3 27.0 17.95 27.1 16.35 28.9 14.75 30.6 14.7 32.8 14.85 35.1 16.6 35.3 M59.85 76.15 Q57.85 76.0 55.7 74.5 L59.85 76.15 M-100.0 -55.1 Q-94.3 -48.1 -94.55 -38.65 -94.45 -28.9 -100.4 -21.65 -106.35 -14.5 -119.2 -14.15 L-126.75 -14.25 -132.65 -14.4 -138.45 -14.35 -144.25 -14.15 Q-146.1 -14.15 -147.75 -15.05 -149.35 -16.0 -149.5 -18.05 -149.4 -20.3 -148.1 -20.5 -146.8 -20.7 -145.45 -21.7 -144.1 -22.75 -143.9 -27.45 L-143.35 -50.85 Q-143.4 -54.2 -144.6 -55.05 -145.8 -55.95 -147.0 -56.35 -148.25 -56.85 -148.35 -58.85 -148.15 -61.15 -146.05 -61.85 -143.95 -62.55 -142.0 -62.5 L-119.7 -62.5 Q-105.65 -62.1 -100.0 -55.1 M-126.5 -54.15 Q-127.0 -53.25 -126.9 -51.35 L-126.9 -26.15 Q-127.0 -23.6 -126.2 -22.45 -125.4 -21.25 -122.7 -21.3 -116.4 -21.65 -114.4 -26.5 -112.4 -31.35 -112.55 -36.75 -112.8 -48.25 -116.25 -51.8 -119.7 -55.4 -123.85 -55.05 -125.95 -55.05 -126.5 -54.15 M-129.25 -1.45 Q-115.35 -1.05 -111.85 0.75 -108.45 2.6 -109.0 5.05 -109.45 8.55 -112.8 8.95 -116.1 9.45 -116.6 15.45 L-116.6 46.05 Q-116.75 51.2 -115.15 53.75 -113.6 56.3 -108.65 56.3 -100.75 56.05 -98.35 52.85 -95.9 49.65 -95.15 46.4 -94.45 43.2 -91.7 42.95 -88.5 43.15 -87.1 45.7 -85.7 48.3 -85.75 51.2 -85.95 57.2 -89.0 62.6 -92.05 67.95 -95.55 68.3 L-100.35 67.45 -107.55 66.8 -139.75 66.8 -144.9 66.35 Q-147.55 65.75 -147.7 62.65 -147.6 59.95 -145.8 59.4 -143.95 58.8 -142.1 57.4 -140.2 55.95 -140.0 50.65 -139.7 40.2 -139.75 31.8 L-140.45 15.3 Q-141.1 9.9 -144.8 9.65 -148.55 9.4 -149.1 5.95 -148.85 2.5 -145.0 0.9 -141.1 -0.65 -136.45 -1.05 L-129.25 -1.45 M-87.6 -34.0 Q-87.7 -39.0 -88.85 -40.35 -89.95 -41.65 -91.1 -42.0 -92.2 -42.35 -92.3 -44.4 -92.0 -46.5 -87.85 -47.5 L-79.45 -48.75 -74.6 -48.95 Q-72.15 -48.9 -72.55 -46.35 L-72.55 -29.05 Q-72.65 -26.8 -71.95 -24.55 -71.25 -22.25 -68.6 -22.1 -65.05 -22.4 -64.55 -25.7 -64.05 -29.0 -64.25 -31.75 -64.15 -35.5 -64.55 -39.15 -65.15 -41.45 -66.7 -41.9 -68.3 -42.35 -68.5 -44.25 -68.3 -46.2 -64.85 -47.25 -61.4 -48.25 -57.55 -48.6 L-52.2 -48.95 Q-48.6 -48.8 -48.7 -45.1 L-48.85 -38.65 -48.85 -24.95 Q-48.6 -22.25 -47.0 -21.95 -45.35 -21.6 -45.1 -19.5 -45.3 -17.2 -48.35 -15.95 -51.45 -14.65 -55.15 -14.1 L-60.9 -13.6 Q-64.35 -13.85 -64.05 -15.65 -63.8 -17.4 -65.35 -17.6 L-68.9 -15.65 Q-71.35 -13.85 -75.8 -13.6 -85.0 -13.95 -86.55 -20.0 -88.1 -26.05 -87.6 -34.0 M-19.1 -34.0 L-20.75 -38.0 Q-21.4 -40.0 -23.95 -40.15 -26.2 -40.05 -27.35 -38.35 -28.55 -36.6 -28.55 -34.5 -28.5 -30.6 -26.0 -27.6 -23.55 -24.65 -19.45 -24.5 -16.3 -24.6 -14.8 -25.35 L-12.35 -26.2 Q-10.9 -26.15 -10.1 -25.0 -9.25 -23.9 -9.25 -22.55 -9.35 -19.35 -13.5 -16.45 -17.65 -13.55 -24.9 -13.35 -32.8 -13.5 -38.05 -18.4 -43.25 -23.35 -43.45 -31.25 -43.25 -38.7 -37.75 -43.7 -32.3 -48.75 -23.5 -48.95 -15.9 -48.75 -11.95 -45.5 -8.0 -42.25 -7.95 -38.5 -8.45 -32.35 -14.6 -31.85 -18.1 -32.05 -19.1 -34.0 M-7.75 11.75 Q-8.4 18.4 -15.05 19.05 -20.95 18.5 -23.6 14.8 -26.2 11.05 -29.9 10.55 -33.0 10.85 -33.2 13.95 -32.65 18.25 -28.0 20.7 -23.35 23.1 -21.5 26.0 -21.35 27.1 -20.15 27.05 L-13.95 26.9 Q-10.95 26.9 -10.85 28.9 L-11.3 35.9 Q-11.65 37.8 -13.85 37.55 -17.95 37.3 -19.3 38.25 -20.55 39.25 -20.45 43.8 -20.5 48.2 -19.5 52.3 -17.8 56.05 -14.6 56.55 -11.3 57.0 -10.95 60.95 -10.3 62.85 -13.75 65.3 -17.2 67.7 -32.75 67.95 L-42.9 67.05 Q-49.05 65.95 -49.7 61.15 -49.3 57.6 -46.3 56.95 -43.3 56.25 -42.55 52.4 L-41.8 42.05 Q-41.3 37.55 -45.65 37.55 L-48.15 37.55 Q-49.65 37.5 -49.8 36.3 L-49.7 29.2 Q-49.5 27.6 -47.5 27.65 -45.25 27.9 -44.9 25.85 -45.15 24.5 -46.75 21.8 -48.35 19.05 -48.55 14.65 -48.15 6.15 -41.4 2.7 -34.7 -0.8 -27.05 -0.7 -15.55 -0.3 -11.55 4.0 -7.5 8.3 -7.75 11.75 M-57.25 22.25 L-57.25 49.1 Q-57.15 54.5 -55.75 56.2 -54.4 57.85 -53.05 58.45 -51.65 59.05 -51.55 61.4 -52.2 66.1 -58.25 67.15 L-68.15 67.95 Q-80.1 67.8 -83.05 65.75 -85.9 63.75 -85.4 61.9 -85.25 59.5 -83.3 58.35 -81.45 57.3 -80.35 55.2 -79.4 52.1 -79.3 44.9 -79.2 37.7 -80.0 34.4 -80.85 32.15 -83.15 31.4 -85.45 30.7 -85.7 27.75 -85.3 24.4 -79.3 22.2 -73.35 20.05 -67.3 19.05 L-60.25 18.05 Q-56.55 18.65 -57.25 22.25 M-76.2 15.4 Q-79.35 15.45 -81.9 13.85 -84.45 12.25 -84.55 8.55 -83.9 3.85 -77.6 1.75 -71.25 -0.35 -66.95 -0.3 -63.8 -0.4 -60.8 0.9 -57.8 2.15 -57.55 5.7 -58.25 11.1 -64.85 13.2 -71.4 15.25 -76.2 15.4" fill="#000000" fill-rule="evenodd" stroke="none"/>
      <path d="M65.0 -60.25 Q67.75 -64.05 71.6 -67.95 L81.6 -72.35 93.35 -73.4 Q98.3 -74.15 103.4 -76.15 L114.4 -72.15 Q119.6 -70.65 124.65 -68.0 L133.95 -63.2 Q136.75 -59.15 140.85 -55.0 L144.4 -48.75 147.6 -31.5 141.75 -10.8 135.1 0.15 Q132.0 5.25 127.65 8.4 124.95 12.75 121.05 17.05 L87.6 44.25 112.15 41.55 Q117.4 39.4 123.85 40.7 L135.55 39.6 Q140.65 39.8 146.55 41.15 147.25 43.65 147.75 49.35 L149.55 56.9 147.9 59.35 Q148.0 63.85 146.45 68.75 L140.45 69.65 141.3 68.0 138.8 68.05 138.85 68.9 125.4 69.9 117.0 70.85 Q115.25 70.8 114.4 69.3 L94.35 74.7 86.8 75.65 84.25 73.95 74.15 73.45 68.3 75.15 65.7 72.65 Q61.5 72.55 56.4 71.15 54.35 68.45 52.9 64.45 L51.95 53.65 Q51.05 48.5 48.45 46.0 L50.9 41.75 58.4 36.6 Q61.05 32.3 64.85 28.2 68.05 24.5 72.35 21.3 75.8 19.2 78.1 15.2 L97.35 1.35 105.6 -6.55 Q120.95 -22.9 115.75 -34.05 L110.8 -40.1 Q107.65 -43.4 103.1 -46.6 L94.65 -47.4 92.2 -46.4 Q88.45 -43.55 83.0 -40.9 L77.65 -30.35 Q75.6 -24.3 75.0 -17.6 L72.55 -13.25 70.8 -13.2 61.55 -15.6 58.2 -14.65 55.7 -12.95 Q55.5 -11.75 54.15 -11.15 L54.85 -12.95 54.1 -12.9 50.6 -20.45 51.15 -33.05 Q51.75 -37.9 53.6 -43.25 L57.5 -53.5 65.0 -60.25 M12.8 -61.95 Q15.2 -61.8 14.7 -59.4 L14.35 -45.05 Q13.8 -38.75 15.85 -39.0 16.9 -39.1 19.0 -40.3 21.05 -41.45 21.3 -42.3 L20.65 -43.6 Q20.05 -44.2 19.95 -45.2 20.3 -47.75 23.7 -48.4 L29.3 -48.95 35.5 -48.35 Q39.2 -47.65 39.6 -44.65 39.55 -42.6 37.8 -42.35 36.05 -42.1 32.95 -40.5 L31.0 -39.45 Q29.7 -38.65 29.6 -37.95 30.05 -36.2 33.75 -31.4 L38.9 -24.95 Q41.3 -22.3 43.45 -21.25 45.55 -20.3 45.7 -18.35 46.25 -14.8 38.9 -14.4 L29.25 -14.4 26.45 -14.75 Q25.65 -15.15 24.5 -16.65 L18.15 -24.7 17.05 -26.2 Q16.2 -27.3 15.6 -27.4 15.05 -27.35 14.95 -26.6 L14.9 -25.5 Q14.95 -21.35 16.2 -20.85 17.5 -20.3 17.7 -18.3 18.0 -16.75 16.1 -15.25 14.25 -13.7 6.55 -13.6 L-1.5 -14.05 Q-5.15 -14.65 -5.4 -17.9 -5.15 -19.9 -3.6 -20.3 -2.0 -20.65 -1.6 -24.55 L-1.25 -32.3 -1.05 -38.75 -1.05 -48.45 Q-1.4 -52.05 -3.7 -51.9 -5.95 -51.75 -6.3 -54.1 -6.05 -56.4 -2.15 -58.15 1.75 -59.9 6.2 -60.9 L12.8 -61.95 M139.3 45.3 Q139.5 46.1 140.95 46.9 140.75 45.75 139.3 45.3 M85.85 71.45 L85.05 71.45 85.9 73.25 85.85 71.45 M21.65 54.3 Q23.6 55.15 25.6 55.2 31.0 54.9 34.0 52.95 37.0 51.0 38.5 50.7 40.05 50.85 41.15 52.5 42.25 54.1 42.3 55.65 41.7 61.25 34.4 64.75 27.05 68.2 20.1 68.3 7.15 67.95 0.55 60.5 -6.1 53.1 -6.1 43.2 -5.75 32.2 2.0 25.25 9.8 18.35 20.85 18.1 33.05 18.65 38.75 25.2 44.5 31.7 44.45 37.35 44.35 42.05 42.6 43.4 40.8 44.8 38.45 44.7 L17.7 44.7 Q15.7 44.1 15.2 46.1 15.35 49.3 17.75 51.6 M16.6 35.3 L20.3 35.3 23.95 35.2 Q25.65 34.95 25.75 32.7 25.6 27.45 20.3 27.0 17.95 27.1 16.35 28.9 14.75 30.6 14.7 32.8 14.85 35.1 16.6 35.3 M-100.0 -55.1 Q-94.3 -48.1 -94.55 -38.65 -94.45 -28.9 -100.4 -21.65 -106.35 -14.5 -119.2 -14.15 L-126.75 -14.25 -132.65 -14.4 -138.45 -14.35 -144.25 -14.15 Q-146.1 -14.15 -147.75 -15.05 -149.35 -16.0 -149.5 -18.05 -149.4 -20.3 -148.1 -20.5 -146.8 -20.7 -145.45 -21.7 -144.1 -22.75 -143.9 -27.45 L-143.35 -50.85 Q-143.4 -54.2 -144.6 -55.05 -145.8 -55.95 -147.0 -56.35 -148.25 -56.85 -148.35 -58.85 -148.15 -61.15 -146.05 -61.85 -143.95 -62.55 -142.0 -62.5 L-119.7 -62.5 Q-105.65 -62.1 -100.0 -55.1 M-126.5 -54.15 Q-127.0 -53.25 -126.9 -51.35 L-126.9 -26.15 Q-127.0 -23.6 -126.2 -22.45 -125.4 -21.25 -122.7 -21.3 -116.4 -21.65 -114.4 -26.5 -112.4 -31.35 -112.55 -36.75 -112.8 -48.25 -116.25 -51.8 -119.7 -55.4 -123.85 -55.05 -125.95 -55.05 -126.5 -54.15 M-129.25 -1.45 Q-115.35 -1.05 -111.85 0.75 -108.45 2.6 -109.0 5.05 -109.45 8.55 -112.8 8.95 -116.1 9.45 -116.6 15.45 L-116.6 46.05 Q-116.75 51.2 -115.15 53.75 -113.6 56.3 -108.65 56.3 -100.75 56.05 -98.35 52.85 -95.9 49.65 -95.15 46.4 -94.45 43.2 -91.7 42.95 -88.5 43.15 -87.1 45.7 -85.7 48.3 -85.75 51.2 -85.95 57.2 -89.0 62.6 -92.05 67.95 -95.55 68.3 L-100.35 67.45 -107.55 66.8 -139.75 66.8 -144.9 66.35 Q-147.55 65.75 -147.7 62.65 -147.6 59.95 -145.8 59.4 -143.95 58.8 -142.1 57.4 -140.2 55.95 -140.0 50.65 -139.7 40.2 -139.75 31.8 L-140.45 15.3 Q-141.1 9.9 -144.8 9.65 -148.55 9.4 -149.1 5.95 -148.85 2.5 -145.0 0.9 -141.1 -0.65 -136.45 -1.05 L-129.25 -1.45 M-87.6 -34.0 Q-87.7 -39.0 -88.85 -40.35 -89.95 -41.65 -91.1 -42.0 -92.2 -42.35 -92.3 -44.4 -92.0 -46.5 -87.85 -47.5 L-79.45 -48.75 -74.6 -48.95 Q-72.15 -48.9 -72.55 -46.35 L-72.55 -29.05 Q-72.65 -26.8 -71.95 -24.55 -71.25 -22.25 -68.6 -22.1 -65.05 -22.4 -64.55 -25.7 -64.05 -29.0 -64.25 -31.75 -64.15 -35.5 -64.55 -39.15 -65.15 -41.45 -66.7 -41.9 -68.3 -42.35 -68.5 -44.25 -68.3 -46.2 -64.85 -47.25 -61.4 -48.25 -57.55 -48.6 L-52.2 -48.95 Q-48.6 -48.8 -48.7 -45.1 L-48.85 -38.65 -48.85 -24.95 Q-48.6 -22.25 -47.0 -21.95 -45.35 -21.6 -45.1 -19.5 -45.3 -17.2 -48.35 -15.95 -51.45 -14.65 -55.15 -14.1 L-60.9 -13.6 Q-64.35 -13.85 -64.05 -15.65 -63.8 -17.4 -65.35 -17.6 L-68.9 -15.65 Q-71.35 -13.85 -75.8 -13.6 -85.0 -13.95 -86.55 -20.0 -88.1 -26.05 -87.6 -34.0 M-19.1 -34.0 L-20.75 -38.0 Q-21.4 -40.0 -23.95 -40.15 -26.2 -40.05 -27.35 -38.35 -28.55 -36.6 -28.55 -34.5 -28.5 -30.6 -26.0 -27.6 -23.55 -24.65 -19.45 -24.5 -16.3 -24.6 -14.8 -25.35 L-12.35 -26.2 Q-10.9 -26.15 -10.1 -25.0 -9.25 -23.9 -9.25 -22.55 -9.35 -19.35 -13.5 -16.45 -17.65 -13.55 -24.9 -13.35 -32.8 -13.5 -38.05 -18.4 -43.25 -23.35 -43.45 -31.25 -43.25 -38.7 -37.75 -43.7 -32.3 -48.75 -23.5 -48.95 -15.9 -48.75 -11.95 -45.5 -8.0 -42.25 -7.95 -38.5 -8.45 -32.35 -14.6 -31.85 -18.1 -32.05 -19.1 -34.0 M-7.75 11.75 Q-8.4 18.4 -15.05 19.05 -20.95 18.5 -23.6 14.8 -26.2 11.05 -29.9 10.55 -33.0 10.85 -33.2 13.95 -32.65 18.25 -28.0 20.7 -23.35 23.1 -21.5 26.0 -21.35 27.1 -20.15 27.05 L-13.95 26.9 Q-10.95 26.9 -10.85 28.9 L-11.3 35.9 Q-11.65 37.8 -13.85 37.55 -17.95 37.3 -19.3 38.25 -20.55 39.25 -20.45 43.8 -20.5 48.2 -19.5 52.3 -17.8 56.05 -14.6 56.55 -11.3 57.0 -10.95 60.95 -10.3 62.85 -13.75 65.3 -17.2 67.7 -32.75 67.95 L-42.9 67.05 Q-49.05 65.95 -49.7 61.15 -49.3 57.6 -46.3 56.95 -43.3 56.25 -42.55 52.4 L-41.8 42.05 Q-41.3 37.55 -45.65 37.55 L-48.15 37.55 Q-49.65 37.5 -49.8 36.3 L-49.7 29.2 Q-49.5 27.6 -47.5 27.65 -45.25 27.9 -44.9 25.85 -45.15 24.5 -46.75 21.8 -48.35 19.05 -48.55 14.65 -48.15 6.15 -41.4 2.7 -34.7 -0.8 -27.05 -0.7 -15.55 -0.3 -11.55 4.0 -7.5 8.3 -7.75 11.75 M-57.25 22.25 L-57.25 49.1 Q-57.15 54.5 -55.75 56.2 -54.4 57.85 -53.05 58.45 -51.65 59.05 -51.55 61.4 -52.2 66.1 -58.25 67.15 L-68.15 67.95 Q-80.1 67.8 -83.05 65.75 -85.9 63.75 -85.4 61.9 -85.25 59.5 -83.3 58.35 -81.45 57.3 -80.35 55.2 -79.4 52.1 -79.3 44.9 -79.2 37.7 -80.0 34.4 -80.85 32.15 -83.15 31.4 -85.45 30.7 -85.7 27.75 -85.3 24.4 -79.3 22.2 -73.35 20.05 -67.3 19.05 L-60.25 18.05 Q-56.55 18.65 -57.25 22.25 M-76.2 15.4 Q-79.35 15.45 -81.9 13.85 -84.45 12.25 -84.55 8.55 -83.9 3.85 -77.6 1.75 -71.25 -0.35 -66.95 -0.3 -63.8 -0.4 -60.8 0.9 -57.8 2.15 -57.55 5.7 -58.25 11.1 -64.85 13.2 -71.4 15.25 -76.2 15.4 Z" fill="none" stroke="#000000" stroke-linecap="round" stroke-linejoin="round" stroke-width="10.0"/>
    </g>
    <g id="text0" transform="matrix(1.0, 0.0, 0.0, 1.0, -0.8, -17.2)">
      <g transform="matrix(1.0, 0.0, 0.0, 1.0, 0.0, 0.0)">
        <use fill="#ffffff" height="133.8" transform="matrix(0.0664, 0.0, 0.0, 0.0664, 0.0, 67.0)" width="196.25" xlink:href="#font_Cooper_Std_Black_D0"/>
        <use fill="#ffffff" height="133.8" transform="matrix(0.0664, 0.0, 0.0, 0.0664, 57.35, 67.0)" width="196.25" xlink:href="#font_Cooper_Std_Black_u0"/>
        <use fill="#ffffff" height="133.8" transform="matrix(0.0664, 0.0, 0.0, 0.0664, 105.8, 67.0)" width="196.25" xlink:href="#font_Cooper_Std_Black_c0"/>
        <use fill="#ffffff" height="133.8" transform="matrix(0.0664, 0.0, 0.0, 0.0664, 143.4, 67.0)" width="196.25" xlink:href="#font_Cooper_Std_Black_k0"/>
      </g>
      <g transform="matrix(1.0, 0.0, 0.0, 1.0, 0.0, 0.0)">
        <use fill="#ffffff" height="133.8" transform="matrix(0.0938, 0.0, 0.0, 0.0938, 0.0, 149.0)" width="196.25" xlink:href="#font_Cooper_Std_Black_L0"/>
        <use fill="#ffffff" height="133.8" transform="matrix(0.0938, 0.0, 0.0, 0.0938, 63.85, 149.0)" width="196.25" xlink:href="#font_Cooper_Std_Black_i0"/>
        <use fill="#ffffff" height="133.8" transform="matrix(0.0938, 0.0, 0.0, 0.0938, 99.85, 149.0)" width="196.25" xlink:href="#font_Cooper_Std_Black_f0"/>
        <use fill="#ffffff" height="133.8" transform="matrix(0.0938, 0.0, 0.0, 0.0938, 142.65, 149.0)" width="196.25" xlink:href="#font_Cooper_Std_Black_e0"/>
      </g>
    </g>
    <g id="font_Cooper_Std_Black_D0">
      <path d="M352.0 -556.5 L352.0 -556.5 Q350.5 -585.0 358.5 -598.5 367.0 -612.5 398.0 -612.0 461.0 -617.5 513.0 -563.5 565.0 -510.0 568.5 -336.5 571.0 -255.5 540.5 -182.5 510.5 -109.0 415.5 -104.0 375.0 -103.5 363.0 -121.0 350.5 -138.5 352.0 -177.0 L352.0 -556.5 352.0 -556.5 M96.0 -196.5 L96.0 -196.5 Q93.0 -125.5 73.0 -110.0 53.0 -94.5 33.5 -91.5 13.5 -88.5 12.0 -55.0 14.0 -24.0 38.5 -10.0 63.5 4.0 91.0 4.0 135.5 4.0 178.5 1.0 222.5 0.5 266.0 0.0 308.0 0.5 355.0 2.0 402.5 3.5 468.5 4.0 662.0 -1.5 751.5 -109.5 841.0 -218.0 839.5 -365.0 843.0 -507.5 757.5 -613.0 672.0 -718.5 461.0 -724.0 L125.0 -724.0 Q95.5 -725.0 64.0 -714.5 32.0 -704.0 29.5 -669.5 31.0 -639.0 49.5 -632.0 68.0 -625.5 86.0 -612.5 104.0 -599.0 104.5 -549.0 L96.0 -196.5 96.0 -196.5" fill-rule="evenodd" stroke="none"/>
    </g>
    <g id="font_Cooper_Std_Black_u0">
      <path d="M307.5 -481.0 L307.5 -481.0 Q313.5 -519.5 276.0 -520.0 267.0 -520.5 203.5 -517.0 139.5 -513.0 77.0 -498.5 14.5 -483.5 9.5 -451.5 11.0 -421.0 28.0 -415.5 45.0 -410.5 62.0 -390.5 79.0 -370.5 80.5 -295.5 73.0 -175.5 96.5 -84.0 119.5 7.0 258.5 12.0 325.0 8.0 362.0 -18.5 399.0 -44.0 415.5 -48.0 439.0 -45.0 435.0 -18.5 430.5 8.0 483.0 12.0 514.0 12.5 569.5 4.5 625.0 -3.5 671.5 -23.0 717.5 -42.5 720.5 -77.0 717.0 -108.5 692.0 -113.5 667.5 -118.0 664.0 -159.0 L664.0 -365.0 Q665.0 -414.0 666.0 -462.5 667.5 -518.0 614.0 -520.0 591.0 -520.5 533.0 -515.0 475.0 -510.0 423.5 -494.5 371.5 -479.0 368.5 -449.5 371.0 -421.0 395.0 -414.0 418.5 -407.0 428.0 -372.5 434.0 -317.5 432.0 -261.5 435.0 -220.0 427.5 -170.5 420.5 -120.5 367.0 -116.0 326.5 -118.5 316.5 -153.0 306.0 -187.0 307.5 -220.5 L307.5 -481.0 307.5 -481.0" fill-rule="evenodd" stroke="none"/>
    </g>
    <g id="font_Cooper_Std_Black_c0">
      <path d="M16.0 -254.0 L16.0 -254.0 Q19.0 -135.0 97.5 -60.5 176.5 13.5 295.5 16.0 404.0 13.0 467.0 -31.0 529.5 -74.5 531.0 -123.0 530.5 -143.0 518.0 -160.0 506.0 -177.0 484.5 -178.0 470.0 -176.5 447.0 -165.0 424.5 -153.5 377.0 -152.0 315.5 -154.5 278.5 -199.0 241.0 -244.0 240.0 -302.5 240.0 -334.0 258.0 -360.5 275.5 -386.5 309.5 -388.0 347.5 -385.5 357.5 -355.5 367.5 -325.5 382.5 -295.5 397.5 -265.5 450.0 -263.0 543.0 -270.5 550.5 -363.0 550.0 -419.5 490.5 -468.5 431.0 -517.0 316.0 -520.0 184.0 -517.0 101.5 -441.5 18.5 -366.0 16.0 -254.0 L16.0 -254.0" fill-rule="evenodd" stroke="none"/>
    </g>
    <g id="font_Cooper_Std_Black_k0">
      <path d="M473.0 -34.0 L473.0 -34.0 Q490.0 -11.0 502.5 -5.0 515.0 1.0 544.5 0.0 L689.5 0.0 Q800.0 -6.0 792.0 -59.5 790.0 -88.5 758.0 -103.5 726.0 -119.0 689.5 -158.5 668.0 -184.0 612.0 -256.0 556.5 -328.5 549.5 -355.0 551.5 -365.0 571.0 -377.0 590.0 -388.5 600.0 -393.0 646.5 -417.5 673.0 -421.0 699.5 -425.0 700.0 -455.5 694.0 -501.0 638.5 -511.5 582.5 -522.0 545.5 -520.0 513.0 -521.5 461.0 -512.0 409.5 -502.0 404.0 -463.5 405.5 -449.0 414.5 -440.0 423.5 -431.0 425.0 -420.5 421.0 -407.5 390.0 -390.0 358.5 -372.0 342.5 -370.5 311.5 -367.0 320.0 -461.5 L325.0 -677.5 Q332.5 -713.5 296.5 -716.0 265.0 -715.5 197.5 -700.5 130.0 -685.5 71.5 -659.0 13.0 -632.5 9.0 -598.0 14.0 -562.5 48.5 -564.5 83.0 -567.0 88.0 -513.0 L88.0 -366.5 Q88.0 -330.0 85.0 -269.5 82.5 -208.5 80.0 -152.5 74.0 -94.0 50.0 -88.5 26.0 -83.0 22.5 -52.5 26.0 -4.0 81.0 5.0 135.5 14.5 202.5 12.0 318.5 10.5 346.5 -12.5 375.0 -35.5 370.5 -58.5 367.5 -88.5 348.0 -97.0 329.0 -105.0 328.0 -167.5 328.0 -173.0 329.0 -184.0 330.5 -195.0 338.5 -196.0 347.5 -194.0 360.5 -178.0 373.5 -161.5 377.5 -155.0 L473.0 -34.0 473.0 -34.0" fill-rule="evenodd" stroke="none"/>
    </g>
    <g id="font_Cooper_Std_Black_L0">
      <path d="M456.0 0.0 L456.0 0.0 Q506.0 0.5 533.0 7.0 558.5 15.0 584.0 16.0 621.5 12.0 654.0 -45.0 686.5 -102.5 688.5 -166.5 689.0 -197.5 674.0 -225.0 659.0 -252.5 625.0 -254.5 595.5 -252.0 588.0 -217.5 580.0 -183.0 554.0 -149.0 528.5 -114.5 444.5 -112.0 391.5 -112.0 375.0 -139.0 358.0 -166.5 359.5 -221.5 L359.5 -547.5 Q365.0 -612.0 400.0 -617.0 435.5 -621.5 440.5 -658.5 446.5 -685.0 410.0 -704.5 373.0 -723.5 224.5 -728.0 197.0 -728.5 147.5 -724.0 98.0 -719.5 56.5 -703.0 15.5 -686.0 13.0 -649.0 18.5 -612.5 58.5 -609.5 98.0 -607.0 105.0 -549.5 110.0 -464.5 112.5 -373.5 113.0 -283.5 110.0 -172.5 107.5 -116.0 87.5 -100.5 67.5 -85.5 48.0 -79.0 29.0 -73.0 27.5 -44.5 29.5 -11.0 57.5 -5.0 85.5 1.5 112.5 0.0 L456.0 0.0 456.0 0.0" fill-rule="evenodd" stroke="none"/>
    </g>
    <g id="font_Cooper_Std_Black_i0">
      <path d="M308.0 -652.0 L308.0 -652.0 Q305.5 -689.5 273.5 -703.0 241.5 -717.0 208.0 -716.0 162.0 -716.5 94.5 -694.0 27.0 -671.5 20.0 -621.5 21.5 -582.0 48.5 -565.0 75.5 -548.0 109.5 -548.5 160.5 -550.0 230.5 -572.0 301.0 -594.0 308.0 -652.0 L308.0 -652.0 M311.5 -475.0 L311.5 -475.0 Q319.0 -513.5 279.5 -520.0 269.5 -520.0 204.5 -509.5 139.5 -498.5 76.0 -475.5 12.5 -452.5 8.0 -416.5 10.5 -385.0 35.0 -377.5 59.5 -369.5 69.0 -345.5 77.5 -310.5 76.5 -233.5 75.0 -157.0 65.0 -123.5 53.5 -101.5 33.5 -90.0 13.0 -78.0 11.0 -52.5 6.0 -32.5 36.5 -11.0 67.5 10.5 195.0 12.0 236.5 14.0 301.0 3.5 365.5 -7.5 372.0 -57.5 371.0 -82.5 356.5 -89.0 342.0 -95.5 327.5 -113.0 312.5 -131.0 311.5 -189.0 L311.5 -475.0 311.5 -475.0" fill-rule="evenodd" stroke="none"/>
    </g>
    <g id="font_Cooper_Std_Black_f0">
      <path d="M84.0 -153.5 L84.0 -153.5 Q76.5 -112.5 44.5 -105.0 12.5 -98.0 8.0 -60.5 15.0 -9.0 80.5 2.5 145.5 14.0 189.0 12.0 354.5 9.5 391.5 -16.0 428.5 -42.0 421.5 -62.5 417.5 -104.5 382.5 -109.5 348.0 -114.5 330.0 -154.5 319.5 -198.5 320.0 -245.5 319.0 -294.0 332.5 -304.5 346.5 -314.5 390.5 -312.0 414.0 -309.5 417.5 -329.5 L422.5 -404.5 Q421.5 -425.5 389.5 -425.5 357.5 -425.5 323.0 -424.0 310.5 -423.5 309.0 -435.0 289.0 -466.0 239.5 -492.0 190.0 -518.0 184.0 -564.0 186.0 -597.0 219.0 -600.0 258.5 -594.5 286.5 -554.5 314.5 -515.0 377.5 -509.5 448.5 -516.5 455.5 -587.0 458.0 -624.0 415.0 -670.0 372.0 -716.0 249.5 -720.0 168.0 -721.0 96.5 -684.0 24.5 -647.0 20.0 -556.5 22.5 -509.5 39.5 -480.0 56.5 -451.0 59.0 -437.0 55.5 -415.0 31.5 -417.5 10.0 -418.0 8.0 -401.0 6.0 -384.0 7.0 -325.5 8.5 -312.5 24.5 -312.0 40.5 -311.5 51.0 -312.0 97.5 -312.0 92.0 -264.0 L84.0 -153.5 84.0 -153.5" fill-rule="evenodd" stroke="none"/>
    </g>
    <g id="font_Cooper_Std_Black_e0">
      <path d="M298.0 -336.0 L298.0 -336.0 Q277.5 -334.5 258.5 -336.0 240.0 -338.0 238.5 -362.5 239.0 -386.0 256.0 -404.5 273.0 -423.5 298.0 -424.5 354.5 -419.5 356.5 -364.0 355.0 -340.0 337.0 -337.0 319.0 -334.5 298.0 -336.0 L298.0 -336.0 M491.5 -236.0 L491.5 -236.0 Q517.0 -234.5 536.0 -249.5 554.5 -264.0 555.5 -314.0 556.0 -374.5 495.0 -444.0 434.0 -513.5 304.0 -519.5 186.0 -517.0 103.0 -443.0 20.0 -369.0 16.5 -251.5 16.5 -146.0 87.5 -67.0 158.0 12.0 296.0 16.0 370.0 15.0 448.5 -22.0 526.5 -59.0 533.0 -119.0 532.5 -135.5 520.5 -152.5 509.0 -170.0 492.5 -171.5 476.5 -168.5 444.5 -148.0 412.0 -127.0 354.5 -124.0 317.0 -125.0 281.5 -153.0 246.0 -180.5 243.5 -221.0 249.0 -242.0 270.5 -236.0 L491.5 -236.0 491.5 -236.0" fill-rule="evenodd" stroke="none"/>
    </g>
    <g id="shape4" transform="matrix(1.0, 0.0, 0.0, 1.0, 126.45, 126.35)">
      <path d="M52.9 -104.4 Q55.5 -104.8 58.2 -105.85 L64.0 -103.75 Q66.75 -102.95 69.45 -101.55 L74.35 -99.0 Q75.85 -96.9 78.0 -94.7 L79.9 -91.4 81.6 -82.25 78.5 -71.3 74.95 -65.5 Q73.35 -62.8 71.05 -61.15 69.6 -58.85 67.55 -56.55 L49.85 -42.2 62.85 -43.6 Q65.6 -44.75 69.0 -44.05 L75.2 -44.65 81.05 -43.8 81.65 -39.5 82.6 -35.5 81.75 -34.2 Q81.8 -31.8 81.0 -29.2 L77.8 -28.75 78.25 -29.6 76.95 -29.6 76.95 -29.15 69.85 -28.6 65.4 -28.1 Q64.45 -28.15 64.0 -28.9 L53.4 -26.05 49.4 -25.55 48.05 -26.45 42.75 -26.75 39.65 -25.85 38.25 -27.15 Q36.05 -27.2 33.35 -27.95 32.25 -29.35 31.5 -31.5 L31.0 -37.2 Q30.5 -39.95 29.15 -41.25 L30.45 -43.5 34.4 -46.2 Q35.8 -48.5 37.8 -50.65 39.5 -52.6 41.8 -54.3 43.6 -55.45 44.8 -57.55 L55.0 -64.85 59.35 -69.05 Q67.5 -77.7 64.75 -83.6 L62.1 -86.8 Q60.45 -88.55 58.05 -90.25 L53.6 -90.65 52.3 -90.15 Q50.3 -88.65 47.4 -87.2 L44.6 -81.65 Q43.5 -78.45 43.2 -74.9 L41.9 -72.6 40.95 -72.55 36.05 -73.85 34.3 -73.35 32.95 -72.45 Q32.85 -71.8 32.15 -71.5 L32.5 -72.45 32.1 -72.4 30.25 -76.4 30.55 -83.05 Q30.9 -85.65 31.85 -88.45 L33.9 -93.9 37.9 -97.45 41.4 -101.55 46.65 -103.85 52.9 -104.4 M44.55 -51.3 L43.6 -51.7 43.6 -50.75 44.55 -51.3 M39.25 -48.1 L39.65 -46.75 40.1 -48.1 39.25 -48.1 M48.95 -26.85 L48.9 -27.8 48.5 -27.8 48.95 -26.85" fill="#f39200" fill-rule="evenodd" stroke="none"/>
      <path d="M0.1 -46.8 L1.0 -46.8 1.05 -46.8 Q19.8 -46.4 33.1 -33.1 46.8 -19.4 46.8 0.0 46.8 19.4 33.1 33.1 19.8 46.4 1.05 46.8 L1.0 46.8 0.1 46.8 0.0 46.8 Q-19.4 46.8 -33.1 33.1 -46.8 19.4 -46.8 0.0 -46.8 -19.4 -33.1 -33.1 -19.4 -46.8 0.0 -46.8 L0.1 -46.8 M1.05 -42.5 L0.95 -42.5 0.15 -42.5 0.0 -42.5 Q-17.65 -42.5 -30.1 -30.05 -42.5 -17.6 -42.5 0.0 -42.5 17.6 -30.1 30.05 -17.65 42.5 0.0 42.5 L0.15 42.5 0.95 42.5 1.05 42.5 Q18.65 42.5 31.1 30.05 43.55 17.6 43.55 0.0 43.55 -17.6 31.1 -30.05 18.65 -42.5 1.05 -42.5" fill="#9c9794" fill-rule="evenodd" stroke="none"/>
      <path d="M0.95 -42.5 L1.05 -42.5 Q17.95 -42.15 30.05 -30.05 42.5 -17.6 42.5 0.0 42.5 17.6 30.05 30.05 17.95 42.15 1.05 42.5 L0.95 42.5 0.15 42.5 0.0 42.5 Q-17.65 42.5 -30.1 30.05 -42.5 17.6 -42.5 0.0 -42.5 -17.6 -30.1 -30.05 -17.65 -42.5 0.0 -42.5 L0.15 -42.5 0.95 -42.5 M0.8 38.0 L1.05 38.0 Q16.8 38.0 27.95 26.85 39.05 15.75 39.05 0.0 39.05 -15.75 27.95 -26.9 16.8 -38.0 1.05 -38.0 L0.8 -38.0 0.3 -38.0 0.0 -38.0 Q-15.1 -37.6 -25.85 -26.9 -36.95 -15.75 -36.95 0.0 -36.95 15.75 -25.85 26.85 -15.0 37.7 0.3 38.0 L0.8 38.0 M0.0 -38.0 Q-15.75 -38.0 -26.9 -26.9 -38.0 -15.75 -38.0 0.0 -38.0 15.75 -26.9 26.85 -15.75 38.0 0.0 38.0 L0.3 38.0 0.0 38.0 Q-15.75 38.0 -26.9 26.85 -38.0 15.75 -38.0 0.0 -38.0 -15.75 -26.9 -26.9 -15.75 -38.0 0.0 -38.0" fill="#d7d2c8" fill-rule="evenodd" stroke="none"/>
      <path d="M0.8 -38.0 L1.05 -38.0 Q16.8 -38.0 27.95 -26.9 39.05 -15.75 39.05 0.0 39.05 15.75 27.95 26.85 16.8 38.0 1.05 38.0 L0.8 38.0 0.3 38.0 Q-15.0 37.7 -25.85 26.85 -36.95 15.75 -36.95 0.0 -36.95 -15.75 -25.85 -26.9 -15.1 -37.6 0.0 -38.0 L0.3 -38.0 0.8 -38.0 M0.55 -16.2 L0.0 -16.2 Q-6.85 -16.2 -11.7 -11.45 -16.5 -6.7 -16.5 0.0 -16.5 6.7 -11.7 11.45 -6.85 16.2 0.0 16.2 L0.55 16.2 Q7.05 16.0 11.65 11.45 16.5 6.7 16.5 0.0 16.5 -6.7 11.65 -11.45 7.05 -16.0 0.55 -16.2 M0.8 38.0 Q16.05 37.7 26.9 26.85 38.0 15.75 38.0 0.0 38.0 -15.75 26.9 -26.9 16.15 -37.6 1.05 -38.0 16.15 -37.6 26.9 -26.9 38.0 -15.75 38.0 0.0 38.0 15.75 26.9 26.85 16.05 37.7 0.8 38.0" fill="#e3ded5" fill-rule="evenodd" stroke="none"/>
      <path d="M1.05 42.5 Q17.95 42.15 30.05 30.05 42.5 17.6 42.5 0.0 42.5 -17.6 30.05 -30.05 17.95 -42.15 1.05 -42.5 18.65 -42.5 31.1 -30.05 43.55 -17.6 43.55 0.0 43.55 17.6 31.1 30.05 18.65 42.5 1.05 42.5" fill="#989391" fill-rule="evenodd" stroke="none"/>
      <path d="M83.25 94.7 Q48.2 125.85 0.05 125.85 -52.25 125.85 -89.1 89.05 -125.95 52.2 -125.95 0.0 -125.95 -52.25 -89.1 -89.05 -52.25 -125.85 0.05 -125.85 48.25 -125.85 83.3 -94.6 L86.35 -91.8 89.15 -89.1 89.2 -89.05 105.25 -69.75 107.2 -66.8 Q125.95 -37.35 125.95 0.05 125.95 40.75 103.65 72.15 L93.2 85.0 89.2 89.05 83.25 94.7 M103.1 -66.85 Q96.15 -77.3 86.75 -86.7 50.9 -122.5 0.05 -122.5 -50.8 -122.5 -86.6 -86.7 -122.45 -50.85 -122.45 0.0 -122.45 50.8 -86.6 86.65 -50.8 122.5 0.05 122.5 50.9 122.5 86.75 86.65 93.75 79.65 99.35 72.1 122.55 40.9 122.55 0.0 122.55 -37.5 103.1 -66.85" fill="url(#gradient1)" fill-rule="evenodd" stroke="none"/>
      <path d="M0.95 -42.5 L0.15 -42.5 0.0 -42.5 Q-17.65 -42.5 -30.1 -30.05 -42.5 -17.6 -42.5 0.0 -42.5 17.6 -30.1 30.05 -17.65 42.5 0.0 42.5 L0.15 42.5 0.95 42.5 M1.05 42.5 Q17.95 42.15 30.05 30.05 42.5 17.6 42.5 0.0 42.5 -17.6 30.05 -30.05 17.95 -42.15 1.05 -42.5" fill="none" stroke="#756e6a" stroke-linecap="round" stroke-linejoin="round" stroke-width="1.0"/>
      <path d="M0.8 38.0 L0.3 38.0 0.0 38.0 Q-15.75 38.0 -26.9 26.85 -38.0 15.75 -38.0 0.0 -38.0 -15.75 -26.9 -26.9 -15.75 -38.0 0.0 -38.0 L0.3 -38.0 0.8 -38.0 M0.55 -16.2 Q7.05 -16.0 11.65 -11.45 16.5 -6.7 16.5 0.0 16.5 6.7 11.65 11.45 7.05 16.0 0.55 16.2 L0.0 16.2 Q-6.85 16.2 -11.7 11.45 -16.5 6.7 -16.5 0.0 -16.5 -6.7 -11.7 -11.45 -6.85 -16.2 0.0 -16.2 L0.55 -16.2 M1.05 -38.0 Q16.15 -37.6 26.9 -26.9 38.0 -15.75 38.0 0.0 38.0 15.75 26.9 26.85 16.05 37.7 0.8 38.0" fill="none" stroke="#b6ac9d" stroke-linecap="round" stroke-linejoin="round" stroke-width="1.0"/>
      <path d="M83.25 94.7 Q48.2 125.85 0.05 125.85 -52.25 125.85 -89.1 89.05 -125.95 52.2 -125.95 0.0 -125.95 -52.25 -89.1 -89.05 -52.25 -125.85 0.05 -125.85 48.25 -125.85 83.3 -94.6 L86.35 -91.8 89.15 -89.1 89.2 -89.05 105.25 -69.75 107.2 -66.8 Q125.95 -37.35 125.95 0.05 125.95 40.75 103.65 72.15 L93.2 85.0 89.15 89.2 83.25 94.7 89.2 89.05 93.2 85.0" fill="none" stroke="#736c68" stroke-linecap="round" stroke-linejoin="round" stroke-width="1.0"/>
    </g>
    <linearGradient gradientTransform="matrix(-0.1191, 0.0968, -0.0967, -0.119, 0.0, 0.0)" gradientUnits="userSpaceOnUse" id="gradient1" spreadMethod="pad" x1="-819.2" x2="819.2">
      <stop offset="0.0" stop-color="#c1bdb7"/>
      <stop offset="1.0" stop-color="#8a8483"/>
    </linearGradient>
    <g id="sprite1" transform="matrix(1.0, 0.0, 0.0, 1.0, 142.9, 59.6)">
      <use ffdec:characterId="18" height="119.2" transform="matrix(1.0, 0.0, 0.0, 1.0, -142.9, -59.6)" width="285.8" xlink:href="#shape5"/>
    </g>
    <g id="shape5" transform="matrix(1.0, 0.0, 0.0, 1.0, 142.9, 59.6)">
      <path d="M-55.4 -29.4 Q-51.6 -29.4 -49.7 -28.15 -47.8 -26.85 -47.8 -24.45 -47.8 -22.5 -49.7 -18.4 L-72.05 29.4 Q-73.4 32.45 -74.5 33.5 -75.7 34.55 -77.3 34.55 -78.9 34.55 -80.05 33.55 -81.15 32.35 -81.15 30.9 -81.15 29.65 -79.8 26.85 L-57.2 -21.6 -57.5 -21.55 -58.4 -21.5 -61.05 -21.1 Q-66.3 -20.1 -70.8 -17.45 -76.55 -14.15 -80.0 -9.35 -83.4 -4.45 -83.4 0.65 -83.4 5.5 -79.05 8.7 -77.5 9.95 -77.1 10.55 -76.6 11.2 -76.6 12.3 -76.6 13.85 -77.8 14.95 -79.0 16.0 -80.8 16.0 -82.4 16.0 -84.05 15.15 L-87.4 12.6 Q-89.65 10.2 -90.65 7.15 -91.75 4.05 -91.75 0.6 -91.75 -5.0 -88.75 -10.55 -85.75 -16.0 -80.6 -20.25 L-79.5 -21.1 Q-74.8 -24.7 -68.85 -26.95 -63.45 -29.0 -57.7 -29.3 L-55.4 -29.4 M97.85 4.75 Q99.05 7.4 99.05 11.0 99.05 17.05 96.45 22.45 93.9 27.95 89.6 31.25 85.25 34.55 80.7 34.55 75.95 34.55 73.1 31.35 L71.6 29.1 Q64.4 34.55 58.7 34.55 55.4 34.55 53.35 32.6 51.4 30.7 51.4 27.55 51.4 26.15 51.95 24.05 52.55 22.1 53.7 19.6 L60.9 4.15 Q62.2 1.35 63.25 0.3 64.15 -0.6 65.8 -0.6 67.35 -0.6 68.3 0.3 69.35 1.3 69.35 2.75 69.35 4.0 68.1 6.55 L60.75 22.3 Q59.85 24.35 59.85 25.2 59.85 26.7 61.3 26.7 63.3 26.7 68.85 22.35 L70.3 21.2 Q70.5 17.65 71.7 14.2 73.15 10.15 75.85 6.6 78.55 3.15 81.9 1.3 85.1 -0.6 88.7 -0.6 91.95 -0.6 94.25 0.75 96.6 2.2 97.85 4.75 M90.95 10.95 Q90.95 8.9 90.15 7.8 89.4 6.75 87.8 6.75 85.95 6.75 84.2 8.55 82.4 10.45 80.75 14.15 78.55 19.05 78.55 22.8 78.55 24.75 79.45 25.85 80.4 26.95 81.9 26.95 85.1 26.95 88.4 20.4 90.95 15.3 90.95 10.95 M142.0 20.25 Q142.9 21.15 142.9 22.4 142.9 24.85 138.4 28.2 130.2 34.55 124.4 34.55 121.2 34.55 119.1 32.6 117.0 30.65 117.0 27.4 117.0 25.8 118.0 22.9 119.0 20.25 122.4 13.65 124.5 9.45 124.5 8.55 124.5 7.25 123.15 7.25 121.85 7.25 119.3 8.75 116.85 10.1 114.3 12.35 L106.15 29.8 Q104.65 32.85 103.8 33.65 102.9 34.55 101.25 34.55 99.85 34.55 98.75 33.6 97.75 32.7 97.75 31.15 97.75 30.05 99.0 27.35 L109.8 4.15 Q111.1 1.4 112.1 0.35 113.05 -0.6 114.65 -0.6 116.3 -0.6 117.25 0.3 118.25 1.2 118.25 2.65 L118.25 3.0 Q119.5 1.65 122.2 0.45 124.75 -0.6 126.75 -0.6 129.65 -0.6 131.45 1.05 133.3 2.75 133.3 5.5 133.3 9.0 130.65 14.2 L126.6 22.2 Q125.55 24.3 125.55 25.25 125.55 26.85 127.0 26.85 L128.55 26.45 130.7 25.2 137.85 19.9 Q138.85 19.35 139.85 19.35 141.1 19.35 142.0 20.25 M73.4 -10.2 Q74.55 -9.05 74.55 -7.25 74.55 -4.9 73.2 -3.35 71.85 -1.8 69.7 -1.8 67.85 -1.8 66.7 -3.0 65.55 -4.25 65.55 -6.05 65.55 -8.45 66.95 -9.85 68.35 -11.3 70.45 -11.3 72.25 -11.3 73.4 -10.2 M37.8 -6.95 L39.55 -7.3 Q41.15 -7.3 42.2 -6.35 43.25 -5.45 43.25 -3.85 L43.1 -2.85 42.5 -0.85 42.3 0.8 Q42.3 2.15 42.7 3.3 L44.55 7.8 47.15 14.25 Q48.5 18.0 48.5 20.85 48.5 24.6 46.7 27.8 44.9 30.9 41.75 32.8 38.65 34.55 34.85 34.55 31.6 34.55 28.5 33.05 25.55 31.55 23.65 29.0 L23.6 28.95 Q16.25 34.55 10.45 34.55 7.15 34.55 5.1 32.6 3.9 31.4 3.45 29.75 L2.2 30.35 Q-2.25 32.35 -6.45 33.55 -10.6 34.55 -14.05 34.55 -17.7 34.55 -20.45 33.4 -23.05 32.3 -24.55 29.95 L-24.65 29.75 Q-31.5 34.55 -36.55 34.55 -39.75 34.55 -41.85 32.6 -43.95 30.65 -43.95 27.4 -43.95 25.8 -42.95 22.9 -41.95 20.25 -38.55 13.65 -36.45 9.45 -36.45 8.55 -36.45 7.25 -37.8 7.25 -39.1 7.25 -41.65 8.75 -44.1 10.1 -46.65 12.35 L-54.8 29.8 Q-56.3 32.85 -57.15 33.65 -58.05 34.55 -59.7 34.55 -61.1 34.55 -62.2 33.6 -63.2 32.7 -63.2 31.15 -63.2 30.05 -61.95 27.35 L-51.15 4.15 Q-49.85 1.4 -48.85 0.35 -47.9 -0.6 -46.3 -0.6 -44.65 -0.6 -43.7 0.3 -42.7 1.2 -42.7 2.65 L-42.7 3.0 Q-41.45 1.65 -38.75 0.45 -36.2 -0.6 -34.2 -0.6 -31.3 -0.6 -29.5 1.05 -27.65 2.75 -27.65 5.5 -27.65 9.0 -30.3 14.2 L-34.35 22.2 Q-35.4 24.3 -35.4 25.25 -35.4 26.85 -33.95 26.85 L-32.4 26.45 -30.25 25.2 -25.6 21.8 -24.55 18.25 Q-23.15 14.9 -20.55 11.8 -18.1 8.75 -14.55 5.95 -11.0 3.05 -6.75 1.2 -2.7 -0.6 0.25 -0.6 2.15 -0.6 3.15 0.35 4.25 1.3 4.25 2.85 4.25 3.95 3.7 5.45 L2.8 7.7 0.3 13.2 Q-1.05 16.05 -3.25 16.05 -4.7 16.05 -5.7 15.15 -6.65 14.35 -6.65 12.95 -6.65 11.35 -5.25 8.4 -8.45 10.15 -11.3 12.85 -14.1 15.55 -16.0 18.55 -17.8 21.55 -17.8 23.55 -17.8 27.05 -13.55 27.05 -11.2 27.05 -7.25 25.75 -3.45 24.6 0.05 22.9 L4.55 20.7 5.05 20.5 5.45 19.6 12.65 4.15 Q13.95 1.35 15.0 0.3 15.9 -0.6 17.55 -0.6 19.1 -0.6 20.05 0.3 21.1 1.3 21.1 2.75 21.1 4.0 19.85 6.55 L12.5 22.3 Q11.6 24.35 11.6 25.2 11.6 26.7 13.05 26.7 15.05 26.7 20.6 22.35 L22.85 20.65 22.95 20.5 Q24.05 19.25 25.9 19.25 28.3 19.25 29.1 21.65 L29.8 23.6 Q31.15 27.4 34.55 27.4 37.25 27.4 38.95 25.6 40.65 23.85 40.65 21.2 40.65 19.05 38.1 12.6 L37.35 10.05 36.5 11.95 Q35.05 14.85 34.15 15.75 33.2 16.7 31.6 16.7 30.0 16.7 29.05 15.75 28.05 14.8 28.05 13.3 28.05 12.2 29.3 9.55 L36.5 -5.65 37.8 -6.95 M18.45 -3.0 Q17.3 -4.25 17.3 -6.05 17.3 -8.45 18.7 -9.85 20.1 -11.3 22.2 -11.3 24.0 -11.3 25.15 -10.2 26.3 -9.05 26.3 -7.25 26.3 -4.9 24.95 -3.35 23.6 -1.8 21.45 -1.8 19.6 -1.8 18.45 -3.0" fill="#000000" fill-rule="evenodd" stroke="none"/>
      <path d="M-92.7 49.9 Q-108.75 64.05 -122.7 57.55 -132.75 51.1 -137.0 39.9 -149.25 7.3 -136.0 -23.25 -132.65 -30.15 -127.4 -36.05 L-127.2 -36.3 Q-117.5 -49.05 -122.45 -59.6 -113.65 -53.35 -112.7 -40.1 L-112.7 24.1 Q-111.95 35.65 -102.7 44.4 -108.75 39.85 -112.7 33.35 -120.5 20.55 -120.2 -0.1 L-120.2 -30.1 Q-134.65 -4.55 -127.15 26.0 -126.3 31.1 -124.35 35.35 -120.6 43.65 -112.7 48.65 -104.9 51.75 -92.7 49.9" fill="#000000" fill-rule="evenodd" stroke="none"/>
      <path d="M-102.7 44.4 Q-98.25 47.7 -92.7 49.9 -104.9 51.75 -112.7 48.65 -120.6 43.65 -124.35 35.35 -126.3 31.1 -127.15 26.0 -134.65 -4.55 -120.2 -30.1 L-120.2 -0.1 Q-120.5 20.55 -112.7 33.35 -108.75 39.85 -102.7 44.4" fill="#ff6600" fill-rule="evenodd" stroke="none"/>
    </g>
    <g id="shape6" transform="matrix(1.0, 0.0, 0.0, 1.0, -0.25, -0.2)">
      <path d="M0.55 35.15 Q0.25 36.45 1.05 37.45 1.9 38.45 3.85 38.9 4.1 39.0 4.7 39.0 8.05 38.75 12.1 38.8 13.8 38.8 16.6 38.85 23.7 38.9 25.2 38.85 26.75 38.85 28.6 38.6 29.2 38.55 30.4 38.3 30.95 38.2 31.2 38.15 36.05 36.85 39.0 34.15 41.95 31.35 43.6 26.55 44.4 24.55 44.65 21.8 45.1 16.6 43.4 12.2 41.55 7.3 38.35 4.55 35.1 1.85 29.95 0.8 27.1 0.2 23.05 0.2 15.05 0.2 7.15 0.6 L5.15 0.7 4.9 0.7 Q4.8 0.75 4.55 0.75 4.3 0.8 4.2 0.8 1.9 1.3 1.05 2.05 0.25 2.8 0.55 4.1 0.8 5.35 1.25 5.6 2.85 6.4 3.35 6.9 3.95 7.6 4.2 9.0 4.35 10.0 4.55 13.4 4.6 13.9 4.6 14.15 4.85 16.75 4.8 22.85 4.8 23.35 4.8 24.3 4.75 28.6 4.65 29.85 4.55 31.6 4.2 32.25 3.95 32.75 3.05 33.1 1.5 33.7 1.15 34.0 0.75 34.3 0.55 35.15 L0.55 35.15 M24.0 32.1 Q21.0 32.8 19.85 32.25 18.55 31.6 18.25 28.95 18.0 26.75 18.3 20.8 18.6 14.35 18.4 8.95 18.3 7.45 19.15 7.1 20.0 6.65 22.4 7.35 25.35 8.1 26.7 9.8 28.05 11.55 29.15 15.95 29.5 17.35 29.55 18.85 29.85 24.75 28.15 28.35 26.65 31.55 24.0 32.1 L24.0 32.1 M48.2 26.8 Q48.35 28.9 49.2 31.05 52.15 38.6 60.4 39.6 67.05 40.5 71.8 37.3 76.25 34.3 75.55 32.0 75.1 30.7 73.95 30.2 73.1 29.85 72.85 30.0 72.7 30.1 72.4 30.3 72.25 30.35 72.2 30.4 64.95 34.4 61.5 30.45 60.2 29.05 59.95 28.0 59.5 26.65 60.6 26.45 61.0 26.45 61.15 26.55 66.35 27.3 70.5 27.05 73.9 26.8 75.15 26.0 76.4 25.2 76.65 24.35 76.9 23.5 76.5 21.1 76.0 18.2 74.1 15.85 72.1 13.45 68.95 12.1 65.95 10.85 63.3 10.85 59.55 10.9 55.9 12.95 48.3 17.2 48.15 25.35 48.15 26.3 48.2 26.8 L48.2 26.8 M63.0 21.2 Q60.35 21.3 59.9 21.05 59.4 20.75 59.75 19.1 59.8 18.7 60.1 18.0 61.0 16.45 62.45 16.15 63.85 15.85 65.05 16.85 65.65 17.6 65.8 18.1 66.4 19.7 66.1 20.35 65.8 20.95 64.55 21.15 L64.4 21.15 63.0 21.2 63.0 21.2 M80.25 7.8 Q80.6 8.9 81.55 9.3 83.4 10.05 83.95 10.8 84.7 11.8 84.85 14.2 85.0 16.1 84.85 21.8 84.65 28.65 84.35 31.1 84.05 33.05 83.45 33.35 82.7 33.65 81.9 34.1 81.1 34.55 81.1 35.7 81.1 36.85 82.05 37.7 82.85 38.55 85.75 39.0 L88.2 39.4 88.35 39.4 Q88.6 39.45 89.05 39.45 89.5 39.5 89.7 39.5 95.3 39.55 97.7 38.8 99.15 38.3 99.9 37.5 100.75 36.6 100.8 35.7 100.8 34.85 100.3 34.65 98.9 33.95 98.5 33.4 98.05 32.9 97.95 31.85 L97.75 30.0 97.75 29.7 97.65 27.95 97.55 24.55 97.35 18.35 Q97.3 15.85 97.35 14.4 L97.55 5.95 97.6 4.5 Q97.65 1.8 97.1 1.2 96.6 0.6 94.3 0.8 L91.8 1.0 Q90.8 1.1 89.9 1.3 82.0 3.15 80.65 5.5 79.9 6.75 80.25 7.8 L80.25 7.8 M104.25 14.8 Q104.15 15.45 104.35 15.95 104.8 17.05 105.25 17.2 106.65 17.75 107.2 18.45 107.45 18.8 107.65 19.25 107.65 19.3 107.7 19.45 107.8 19.7 107.75 19.8 107.65 23.0 107.65 24.55 107.65 30.7 108.55 33.95 109.5 37.35 111.7 38.65 113.8 39.95 117.75 39.7 120.25 39.55 122.85 37.8 124.0 37.15 124.4 36.65 L125.3 35.8 Q125.8 35.55 126.2 36.0 126.65 36.45 126.75 37.5 L126.85 39.05 Q127.2 39.5 128.2 39.65 129.5 39.8 132.5 39.5 134.0 39.3 134.75 39.1 L136.3 38.7 137.2 38.45 Q137.4 38.4 137.7 38.3 138.05 38.2 138.2 38.15 139.75 37.5 140.45 37.05 141.15 36.6 141.55 35.9 142.15 35.05 141.85 34.2 141.6 33.25 140.5 32.75 L138.95 31.9 138.85 31.85 Q138.45 31.35 138.65 27.7 138.75 26.8 138.75 21.95 L138.75 17.9 138.75 17.25 138.8 15.15 138.8 14.8 Q138.9 12.8 138.45 12.2 138.0 11.55 136.25 11.45 135.9 11.4 135.3 11.4 L133.65 11.5 131.4 11.6 Q126.95 11.85 125.3 12.75 123.85 13.65 123.65 14.45 123.2 15.85 124.05 16.4 125.4 17.4 125.85 18.05 126.35 18.75 126.4 19.85 L126.55 20.8 126.6 22.1 Q126.85 27.65 126.3 29.85 125.85 31.75 124.3 32.3 122.6 32.9 121.4 31.95 120.15 31.0 120.1 28.8 L120.05 27.35 120.05 26.55 Q120.0 18.7 120.3 15.0 120.45 12.9 120.15 12.3 119.75 11.5 118.1 11.45 116.75 11.4 112.55 11.9 108.7 12.35 107.7 12.65 105.8 13.15 105.1 13.65 104.4 14.05 104.25 14.8 L104.25 14.8 M143.75 38.0 Q144.1 38.85 145.1 39.25 146.25 39.7 148.6 39.75 149.6 39.75 150.6 39.75 152.35 39.7 153.3 39.45 154.55 39.2 155.2 38.05 155.8 36.95 155.3 36.15 155.3 36.15 155.25 36.1 154.55 34.9 154.5 34.45 154.45 34.0 154.95 32.7 156.4 29.25 157.6 29.7 157.8 29.8 157.8 29.95 157.95 30.4 158.6 31.6 L159.55 33.3 159.55 33.35 Q159.7 34.5 159.1 34.8 159.05 34.85 158.9 34.9 158.8 35.0 158.7 35.0 157.65 35.6 157.5 36.7 157.4 37.75 158.25 38.5 159.05 39.2 160.6 39.45 162.3 39.7 166.85 39.75 172.0 39.8 174.45 39.15 176.8 38.55 177.7 37.7 178.55 36.95 178.3 35.8 178.05 34.65 177.15 34.4 175.75 33.85 175.2 33.5 174.6 33.05 173.85 32.0 L172.85 30.75 172.45 30.15 172.0 29.5 170.15 26.95 Q169.0 25.3 169.2 25.1 169.55 24.75 170.35 23.4 171.6 21.3 172.5 20.0 174.25 17.55 175.15 17.0 175.2 16.95 175.35 16.9 176.8 16.0 177.2 15.7 177.65 15.35 177.95 14.6 178.35 13.75 177.75 13.0 177.1 12.2 175.4 11.8 174.1 11.6 172.75 11.6 171.6 11.55 170.6 11.7 167.85 12.2 167.3 12.95 166.7 13.65 167.25 15.8 167.6 17.0 167.4 17.8 167.2 18.6 166.4 19.65 166.0 20.2 165.8 20.25 165.65 20.25 165.3 19.75 L165.0 19.3 164.45 18.35 Q163.6 17.1 163.85 16.8 163.95 16.65 164.1 16.4 164.1 16.3 164.15 16.25 166.1 12.1 161.15 11.75 L159.5 11.65 158.9 11.6 Q157.65 11.6 156.35 11.6 149.5 11.75 147.25 12.45 145.35 13.05 144.6 14.15 143.95 15.2 144.45 16.25 145.05 17.35 145.95 17.5 146.15 17.55 146.5 17.6 147.5 17.75 147.8 17.9 148.1 18.05 148.85 18.8 149.3 19.25 149.55 19.5 149.6 19.55 149.65 19.6 152.2 22.05 152.75 22.85 153.55 23.95 153.15 25.05 152.9 25.85 151.25 28.15 151.1 28.4 151.0 28.5 150.2 29.55 148.95 31.75 148.95 31.75 148.95 31.75 147.85 33.85 147.4 34.25 146.95 34.75 145.5 35.1 144.15 35.45 143.75 36.25 143.3 37.0 143.75 38.0 L143.75 38.0 M180.0 26.8 Q180.15 28.9 181.0 31.05 183.95 38.6 192.2 39.6 198.85 40.5 203.6 37.3 208.05 34.3 207.35 32.0 206.9 30.7 205.75 30.2 204.9 29.85 204.65 30.0 204.5 30.1 204.2 30.3 204.05 30.35 204.0 30.4 196.75 34.4 193.3 30.45 192.0 29.05 191.75 28.0 191.3 26.65 192.4 26.45 192.8 26.45 192.95 26.55 198.15 27.3 202.3 27.05 205.7 26.8 206.95 26.0 208.2 25.2 208.45 24.35 208.7 23.5 208.3 21.1 207.8 18.2 205.9 15.85 203.9 13.45 200.75 12.1 197.75 10.85 195.1 10.85 191.35 10.9 187.7 12.95 180.1 17.2 179.95 25.35 179.95 26.3 180.0 26.8 L180.0 26.8 M194.8 21.2 Q192.15 21.3 191.7 21.05 191.2 20.75 191.55 19.1 191.6 18.7 191.9 18.0 192.8 16.45 194.25 16.15 195.65 15.85 196.85 16.85 197.45 17.6 197.6 18.1 198.2 19.7 197.9 20.35 197.6 20.95 196.35 21.15 L196.2 21.15 194.8 21.2 194.8 21.2" fill="#ffffff" fill-rule="nonzero" stroke="none"/>
    </g>
    <g id="shape7" transform="matrix(1.0, 0.0, 0.0, 1.0, 0.1, -0.2)">
      <path d="M27.05 0.2 Q31.55 0.2 34.75 0.9 40.95 2.15 44.95 5.55 48.95 8.9 51.15 14.75 53.2 20.05 52.65 26.15 52.35 29.25 51.5 31.6 L51.35 31.95 51.25 32.25 Q49.3 37.7 45.75 41.05 42.2 44.35 36.65 45.9 L36.25 46.0 36.05 46.05 35.9 46.1 Q35.7 46.15 35.1 46.25 33.75 46.5 33.1 46.55 32.3 46.65 31.7 46.75 31.55 46.75 31.25 46.75 31.25 46.8 31.25 46.8 L31.2 46.8 31.1 46.8 31.0 46.8 Q30.95 46.8 30.85 46.8 L30.75 46.8 30.65 46.85 Q30.65 46.85 30.65 46.85 30.65 46.85 30.6 46.85 L30.55 46.85 Q30.5 46.85 30.35 46.85 30.35 46.85 30.35 46.85 L30.25 46.85 Q29.75 46.85 28.7 46.85 L27.65 46.85 Q25.7 46.85 16.9 46.8 16.3 46.8 16.05 46.8 12.15 46.75 9.0 47.0 L8.85 47.0 8.7 47.0 Q8.25 47.0 7.9 46.95 7.4 46.95 6.9 46.8 L6.75 46.75 6.7 46.75 Q3.4 45.95 1.75 43.7 0.0 41.45 0.6 38.5 L0.65 38.3 0.65 38.3 0.65 38.25 0.65 38.25 0.65 38.25 0.7 38.05 Q1.1 36.4 1.95 35.45 2.75 34.6 4.55 33.8 L4.65 33.75 Q4.75 32.75 4.75 29.55 L4.75 29.2 Q4.8 29.05 4.8 26.9 4.8 26.85 4.8 26.8 4.85 20.9 4.6 18.55 L4.6 18.4 Q4.6 18.1 4.55 17.1 4.5 16.65 4.45 16.05 4.45 16.0 4.45 15.95 4.35 14.3 4.25 13.6 L4.25 13.55 4.15 13.55 Q4.0 13.45 3.65 13.25 L3.5 13.2 3.35 13.1 3.2 13.05 Q1.25 11.85 0.65 9.0 -0.1 5.75 1.75 3.65 3.5 1.7 7.4 0.9 L7.35 0.9 7.4 0.9 Q7.6 0.85 7.95 0.8 L8.1 0.75 8.4 0.7 9.05 0.7 10.95 0.6 Q18.8 0.2 26.4 0.2 L27.05 0.2 27.05 0.2 M27.45 4.2 L25.85 4.2 Q18.8 4.2 11.15 4.6 L9.15 4.7 8.9 4.7 Q8.8 4.7 8.55 4.75 8.3 4.75 8.2 4.8 5.9 5.3 5.05 6.05 4.25 6.8 4.55 8.1 4.8 9.35 5.25 9.6 6.85 10.4 7.35 10.9 7.95 11.6 8.2 13.0 8.35 14.0 8.55 17.4 8.6 17.9 8.6 18.15 8.85 20.75 8.8 26.85 8.8 27.35 8.8 28.3 8.75 32.6 8.65 33.85 8.55 35.6 8.2 36.25 7.95 36.75 7.05 37.1 5.5 37.7 5.1 38.0 4.75 38.3 4.55 39.15 4.25 40.45 5.05 41.45 5.9 42.45 7.85 42.9 8.1 43.0 8.7 43.0 12.05 42.75 16.1 42.8 17.8 42.8 20.6 42.85 25.3 42.85 26.75 42.85 L27.65 42.85 Q30.1 42.85 31.45 42.75 L31.6 42.7 Q31.65 42.7 31.7 42.7 L31.85 42.7 Q31.85 42.7 31.9 42.7 31.9 42.7 31.9 42.7 L32.1 42.65 Q32.25 42.65 32.6 42.6 33.2 42.55 34.4 42.3 34.95 42.2 35.2 42.15 40.05 40.85 42.95 38.15 45.95 35.35 47.6 30.55 48.4 28.55 48.65 25.8 49.1 20.6 47.4 16.2 45.55 11.3 42.3 8.55 39.1 5.85 33.95 4.8 33.65 4.75 33.45 4.7 L33.1 4.65 Q31.0 4.2 27.45 4.2 L27.45 4.2 M22.4 12.95 Q22.3 11.45 23.1 11.1 24.0 10.65 26.4 11.35 29.35 12.1 30.7 13.8 32.05 15.55 33.15 19.95 33.5 21.35 33.55 22.85 33.85 28.75 32.15 32.35 30.65 35.55 28.0 36.1 24.45 36.9 23.35 35.9 22.15 34.8 22.15 30.45 L22.15 29.9 Q22.15 28.2 22.3 24.8 22.6 18.35 22.4 12.95 L22.4 12.95 M26.45 15.55 L26.45 15.65 Q26.55 19.85 26.3 25.0 26.05 30.25 26.2 32.3 L26.2 32.4 26.4 32.35 Q26.6 32.3 26.85 32.25 L27.1 32.2 27.15 32.2 Q27.9 32.05 28.55 30.65 29.8 27.95 29.55 23.05 29.5 21.9 29.25 20.9 28.55 18.05 28.05 17.05 27.55 16.0 26.5 15.55 L26.45 15.55 26.45 15.55" fill="#000000" fill-rule="nonzero" stroke="none"/>
      <path d="M67.3 10.85 Q70.75 10.85 74.5 12.4 78.55 14.1 81.15 17.3 83.75 20.5 84.45 24.5 84.95 27.65 84.5 29.4 84.05 31.25 82.35 32.65 L82.25 32.7 82.3 32.7 Q82.9 33.55 83.2 34.4 L83.3 34.65 83.35 34.8 Q84.2 37.55 82.8 40.0 81.5 42.3 78.0 44.65 75.1 46.55 71.5 47.3 67.85 48.1 63.9 47.55 58.75 46.95 55.05 44.15 51.35 41.3 49.5 36.5 48.5 34.1 48.25 31.6 L48.2 31.2 48.2 31.1 48.2 31.1 48.2 30.85 Q48.2 30.75 48.15 30.55 L48.15 30.2 Q48.15 30.05 48.15 29.8 48.15 29.75 48.15 29.7 L48.15 29.25 Q48.25 24.2 50.75 20.15 53.25 16.05 57.95 13.45 62.5 10.95 67.3 10.85 L67.3 10.85 M67.3 14.85 Q63.55 14.9 59.9 16.95 52.3 21.2 52.15 29.35 52.15 30.3 52.2 30.8 52.35 32.9 53.2 35.05 56.15 42.6 64.4 43.6 71.05 44.5 75.8 41.3 80.25 38.3 79.55 36.0 79.1 34.7 77.95 34.2 77.1 33.85 76.85 34.0 76.7 34.1 76.4 34.3 76.25 34.35 76.2 34.4 68.95 38.4 65.5 34.45 64.2 33.05 63.95 32.0 63.5 30.65 64.6 30.45 65.0 30.45 65.15 30.55 70.35 31.3 74.45 31.05 77.9 30.8 79.15 30.0 80.4 29.2 80.65 28.35 80.9 27.5 80.5 25.1 80.0 22.2 78.05 19.85 76.1 17.45 72.95 16.1 69.95 14.85 67.3 14.85 L67.3 14.85 M64.1 22.0 Q65.0 20.45 66.45 20.15 67.85 19.85 69.05 20.85 69.65 21.6 69.8 22.1 70.4 23.7 70.1 24.35 69.8 24.95 68.55 25.15 L68.4 25.15 67.0 25.2 Q64.35 25.3 63.9 25.05 63.4 24.75 63.75 23.1 63.8 22.7 64.1 22.0 L64.1 22.0 M67.55 24.0 L67.55 24.0 66.8 23.55 66.5 23.9 Q66.7 24.1 67.1 24.1 67.4 24.1 67.55 24.0 L67.55 24.0 67.55 24.0 67.55 24.0 M66.7 22.2 L66.65 22.35 Q66.55 22.5 66.45 22.7 66.4 22.8 66.35 22.9 L66.35 22.95 66.95 22.5 66.85 22.35 66.7 22.2 66.7 22.2" fill="#000000" fill-rule="nonzero" stroke="none"/>
      <path d="M105.6 8.65 L105.55 10.05 105.35 18.5 105.35 18.6 Q105.3 19.9 105.35 22.2 L105.55 28.45 105.65 31.75 105.75 33.45 105.75 33.6 105.75 33.8 105.9 34.95 106.0 35.0 106.1 35.1 106.15 35.1 Q108.65 36.35 108.8 39.2 108.95 41.9 106.95 44.1 L106.8 44.25 106.65 44.4 Q105.3 45.8 102.9 46.6 99.95 47.55 93.65 47.5 L93.45 47.5 93.25 47.5 Q93.15 47.45 92.8 47.45 92.7 47.45 92.5 47.45 92.25 47.4 92.2 47.4 L92.15 47.4 91.9 47.4 91.55 47.35 89.15 46.95 Q86.85 46.6 85.6 46.1 84.25 45.6 83.25 44.6 L83.25 44.55 83.25 44.55 Q81.0 42.45 81.1 39.4 81.15 36.35 83.65 34.8 L83.85 34.65 Q83.95 34.6 84.2 34.45 84.25 34.45 84.3 34.4 L84.4 34.35 84.4 34.25 Q84.7 32.1 84.85 26.15 L84.85 25.7 Q84.9 22.8 84.95 21.1 L84.95 20.65 Q84.9 18.15 84.75 17.35 L84.75 17.3 84.7 17.3 Q84.55 17.2 84.15 17.05 L84.0 17.0 Q81.4 15.9 80.45 13.05 L80.45 13.0 Q79.6 10.25 81.2 7.5 82.4 5.4 85.2 3.95 87.85 2.6 92.95 1.4 94.2 1.1 95.5 1.0 L97.95 0.8 Q102.1 0.45 103.9 2.35 105.65 4.2 105.6 8.65 L105.6 8.65 M101.6 8.5 Q101.65 5.8 101.1 5.2 100.6 4.6 98.3 4.8 L95.8 5.0 Q94.8 5.1 93.9 5.3 86.0 7.15 84.65 9.5 83.9 10.75 84.25 11.8 84.6 12.9 85.55 13.3 87.4 14.05 87.95 14.8 88.7 15.8 88.85 18.2 89.0 20.1 88.85 25.8 88.65 32.65 88.35 35.1 88.05 37.05 87.45 37.35 86.7 37.65 85.9 38.1 85.1 38.55 85.1 39.7 85.1 40.85 86.05 41.7 86.85 42.55 89.75 43.0 L92.2 43.4 92.35 43.4 Q92.55 43.45 93.0 43.45 93.45 43.5 93.7 43.5 99.3 43.55 101.7 42.8 103.15 42.3 103.9 41.5 104.75 40.6 104.75 39.7 104.8 38.85 104.3 38.65 102.9 37.95 102.5 37.4 102.05 36.9 101.95 35.85 L101.75 34.0 101.75 33.7 101.65 31.95 101.55 28.55 101.35 22.35 Q101.3 19.85 101.35 18.4 L101.55 9.95 101.6 8.5 101.6 8.5" fill="#000000" fill-rule="nonzero" stroke="none"/>
      <path d="M139.3 11.4 L139.55 11.4 Q140.15 11.4 140.55 11.45 L140.65 11.45 140.8 11.5 Q147.05 12.0 146.8 18.75 L146.8 18.9 146.8 19.25 146.75 21.25 146.75 27.5 Q146.75 30.85 146.65 31.75 L146.65 31.9 Q146.65 31.95 146.65 32.0 L146.65 32.05 146.65 32.2 Q146.6 32.6 146.6 33.15 L146.55 33.3 146.65 33.35 Q149.1 34.75 149.75 37.25 150.45 39.8 148.9 42.05 L148.9 42.1 148.85 42.2 Q147.45 44.3 144.05 45.7 L143.7 45.85 143.5 45.95 143.3 46.0 Q143.2 46.05 142.9 46.1 142.6 46.2 142.25 46.3 L141.3 46.55 139.8 46.95 Q138.8 47.25 137.05 47.45 L136.85 47.5 Q132.95 47.85 131.15 47.55 129.15 47.25 127.95 45.85 L127.95 45.85 127.95 45.85 Q125.2 47.4 122.35 47.65 L122.0 47.7 Q114.15 48.15 110.85 43.65 107.65 39.25 107.65 28.55 107.65 27.15 107.7 25.05 L107.7 24.9 107.5 24.8 Q105.75 24.05 104.7 21.6 L104.6 21.35 Q104.1 19.95 104.3 18.3 L104.3 18.15 104.35 18.0 Q104.8 15.85 106.3 14.65 107.65 13.6 110.65 12.8 L110.6 12.8 110.65 12.8 Q111.95 12.4 115.75 11.95 L116.1 11.95 Q120.45 11.45 121.95 11.4 123.6 11.4 124.95 11.95 126.2 12.45 127.0 13.4 L127.05 13.45 127.2 13.35 127.3 13.3 127.45 13.2 Q129.85 11.9 135.2 11.6 L137.4 11.5 139.05 11.4 139.2 11.4 139.3 11.4 139.3 11.4 M139.55 15.4 L139.3 15.4 137.65 15.5 135.4 15.6 Q130.95 15.85 129.3 16.75 127.85 17.65 127.65 18.45 127.2 19.85 128.05 20.4 129.4 21.4 129.85 22.05 130.35 22.75 130.4 23.85 L130.55 24.8 130.6 26.1 Q130.85 31.65 130.3 33.85 129.85 35.75 128.3 36.3 126.6 36.9 125.4 35.95 124.15 35.0 124.1 32.8 L124.05 31.35 124.05 30.55 Q124.05 29.35 124.05 28.25 L124.05 27.05 Q124.05 22.0 124.3 19.0 124.45 16.9 124.15 16.3 123.75 15.5 122.1 15.45 120.75 15.4 116.55 15.9 112.7 16.35 111.7 16.65 109.8 17.15 109.05 17.65 108.4 18.05 108.25 18.8 108.15 19.45 108.35 19.95 108.8 21.05 109.25 21.2 110.65 21.75 111.2 22.45 111.45 22.8 111.65 23.25 111.65 23.3 111.7 23.45 111.8 23.7 111.75 23.8 111.65 27.0 111.65 28.55 111.65 34.7 112.55 37.95 113.5 41.35 115.7 42.65 117.8 43.95 121.75 43.7 124.2 43.55 126.85 41.8 128.0 41.15 128.4 40.65 L129.3 39.8 Q129.8 39.55 130.2 40.0 130.65 40.45 130.75 41.5 L130.85 43.05 Q131.2 43.5 132.2 43.65 133.5 43.8 136.5 43.5 136.5 43.5 136.5 43.5 138.0 43.3 138.75 43.1 L140.3 42.7 141.2 42.45 Q141.35 42.4 141.7 42.3 142.0 42.2 142.2 42.15 143.75 41.5 144.45 41.05 145.15 40.6 145.55 39.9 146.15 39.05 145.85 38.2 145.6 37.25 144.5 36.75 L142.95 35.9 142.85 35.85 Q142.45 35.35 142.65 31.7 142.75 30.85 142.75 27.8 L142.75 21.25 142.8 19.15 142.8 18.8 Q142.9 16.8 142.45 16.2 142.0 15.55 140.25 15.45 139.9 15.4 139.3 15.4 L139.55 15.4 139.55 15.4" fill="#000000" fill-rule="nonzero" stroke="none"/>
      <path d="M176.75 15.6 Q175.6 15.55 174.6 15.7 171.85 16.2 171.25 16.95 170.7 17.65 171.25 19.8 171.6 21.0 171.4 21.8 171.2 22.6 170.4 23.65 170.0 24.2 169.8 24.25 169.65 24.25 169.3 23.75 L169.0 23.3 168.45 22.35 Q167.6 21.1 167.85 20.8 167.95 20.65 168.1 20.4 168.1 20.3 168.15 20.25 170.1 16.1 165.15 15.75 L163.5 15.65 162.9 15.6 160.35 15.6 Q153.5 15.75 151.25 16.45 149.35 17.05 148.6 18.15 147.95 19.2 148.45 20.25 149.05 21.35 149.95 21.5 150.15 21.55 150.5 21.6 151.45 21.75 151.7 21.85 152.05 22.0 152.65 22.6 L153.05 23.0 Q153.2 23.2 153.55 23.5 153.6 23.55 153.65 23.6 156.2 26.05 156.75 26.85 157.55 27.95 157.15 29.05 156.9 29.85 155.25 32.15 155.1 32.4 155.0 32.5 154.2 33.55 152.95 35.75 152.95 35.75 152.95 35.75 151.85 37.85 151.4 38.25 150.95 38.75 149.5 39.1 148.15 39.45 147.7 40.25 147.3 41.0 147.75 42.0 148.1 42.85 149.1 43.25 150.25 43.7 152.6 43.75 L154.6 43.75 Q156.3 43.65 157.3 43.45 158.55 43.2 159.2 42.05 159.8 40.95 159.3 40.15 159.3 40.15 159.25 40.1 158.55 38.9 158.5 38.45 158.45 38.0 158.95 36.7 160.4 33.25 161.6 33.7 161.8 33.8 161.8 33.95 161.95 34.4 162.6 35.6 L163.55 37.3 163.55 37.35 Q163.7 38.5 163.1 38.8 163.0 38.85 162.9 38.9 162.75 39.0 162.7 39.0 161.65 39.6 161.5 40.7 161.4 41.75 162.25 42.5 163.05 43.2 164.6 43.45 166.3 43.7 170.85 43.75 176.0 43.8 178.45 43.15 180.8 42.55 181.7 41.7 182.55 40.95 182.3 39.8 182.05 38.65 181.15 38.4 179.75 37.85 179.2 37.5 178.6 37.05 177.85 36.0 L176.85 34.75 176.45 34.15 176.0 33.5 174.15 30.95 Q173.0 29.3 173.2 29.1 173.55 28.75 174.35 27.4 175.6 25.3 176.5 24.0 178.25 21.55 179.15 21.0 179.2 20.95 179.35 20.9 180.8 20.0 181.2 19.7 181.65 19.35 181.95 18.6 182.35 17.75 181.75 17.0 181.1 16.2 179.4 15.8 179.4 15.8 179.4 15.8 178.1 15.6 176.75 15.6 L176.75 15.6 M177.85 29.4 L177.9 29.3 179.3 31.2 179.8 31.95 180.1 32.4 180.95 33.5 181.1 33.65 Q181.15 33.75 181.25 33.9 181.55 34.3 182.1 34.5 182.3 34.55 182.4 34.6 L182.4 34.6 182.6 34.65 Q185.45 35.65 186.15 38.75 L186.2 39.0 Q187.45 44.95 179.5 47.0 176.55 47.85 170.8 47.75 166.3 47.7 164.3 47.45 162.1 47.15 160.7 46.3 L160.65 46.25 160.5 46.35 Q159.5 47.05 158.3 47.3 L158.2 47.35 Q157.0 47.6 155.2 47.7 L154.75 47.75 154.6 47.75 152.55 47.75 Q149.1 47.7 147.1 46.75 145.0 45.8 144.05 43.6 L144.0 43.45 Q142.85 40.75 144.2 38.4 145.5 36.05 148.5 35.25 148.55 35.2 148.65 35.2 148.65 35.2 148.65 35.2 L148.7 35.15 148.75 35.1 Q148.9 34.85 149.3 34.1 L149.4 33.9 149.45 33.8 Q150.75 31.45 151.7 30.25 L151.8 30.1 151.9 29.95 Q152.6 29.0 152.9 28.55 L152.95 28.5 152.9 28.45 Q152.45 28.0 151.15 26.75 L150.75 26.35 Q150.65 26.25 150.3 25.9 L150.1 25.7 150.05 25.65 149.95 25.55 149.9 25.55 Q149.7 25.5 149.35 25.45 149.3 25.45 149.3 25.45 L149.25 25.45 Q146.4 24.9 144.9 22.15 L144.85 22.0 Q143.45 19.05 145.0 16.35 146.55 13.75 150.05 12.65 152.8 11.75 160.35 11.6 L163.05 11.6 163.25 11.6 163.75 11.65 165.45 11.75 Q167.9 11.95 169.65 13.0 L169.85 13.1 169.9 13.05 Q171.35 12.25 173.65 11.8 L173.95 11.75 Q175.4 11.5 177.0 11.6 L176.85 11.6 177.15 11.6 Q178.45 11.6 179.65 11.8 L180.0 11.85 180.15 11.85 180.3 11.9 Q183.65 12.7 185.2 14.95 186.9 17.3 185.65 20.1 L185.6 20.2 185.55 20.35 185.45 20.55 Q184.85 21.8 183.9 22.65 183.25 23.25 181.2 24.45 181.05 24.5 179.8 26.3 179.05 27.3 177.95 29.15 L177.85 29.4 177.85 29.4" fill="#000000" fill-rule="nonzero" stroke="none"/>
      <path d="M199.1 10.85 Q202.55 10.85 206.3 12.4 210.35 14.1 212.95 17.3 215.55 20.5 216.25 24.5 216.75 27.65 216.3 29.4 215.85 31.25 214.15 32.65 L214.05 32.7 214.1 32.7 Q214.7 33.55 215.0 34.4 L215.1 34.65 215.15 34.8 Q216.0 37.55 214.6 40.0 213.3 42.3 209.8 44.65 206.9 46.55 203.3 47.3 199.65 48.1 195.7 47.55 190.55 46.95 186.85 44.15 183.15 41.3 181.3 36.5 180.3 34.1 180.05 31.6 L180.0 31.2 180.0 31.1 180.0 31.1 180.0 30.85 Q180.0 30.75 179.95 30.55 L179.95 30.2 Q179.95 30.05 179.95 29.8 179.95 29.75 179.95 29.7 L179.95 29.25 Q180.05 24.2 182.55 20.15 185.05 16.05 189.75 13.45 194.3 10.95 199.1 10.85 L199.1 10.85 M199.1 14.85 Q195.35 14.9 191.7 16.95 184.1 21.2 183.95 29.35 183.95 30.3 184.0 30.8 184.15 32.9 185.0 35.05 187.95 42.6 196.2 43.6 202.85 44.5 207.6 41.3 212.05 38.3 211.35 36.0 210.9 34.7 209.75 34.2 208.9 33.85 208.65 34.0 208.5 34.1 208.2 34.3 208.05 34.35 208.0 34.4 200.75 38.4 197.3 34.45 196.0 33.05 195.75 32.0 195.3 30.65 196.4 30.45 196.8 30.45 196.95 30.55 202.15 31.3 206.25 31.05 209.7 30.8 210.95 30.0 212.2 29.2 212.45 28.35 212.7 27.5 212.3 25.1 211.8 22.2 209.85 19.85 207.9 17.45 204.75 16.1 201.75 14.85 199.1 14.85 L199.1 14.85 M195.9 22.0 Q196.8 20.45 198.25 20.15 199.65 19.85 200.85 20.85 201.45 21.6 201.6 22.1 202.2 23.7 201.9 24.35 201.6 24.95 200.35 25.15 L200.2 25.15 198.8 25.2 Q196.15 25.3 195.7 25.05 195.2 24.75 195.55 23.1 195.6 22.7 195.9 22.0 L195.9 22.0 M199.35 24.0 L199.35 24.0 198.6 23.55 198.3 23.9 Q198.5 24.1 198.9 24.1 199.2 24.1 199.35 24.0 L199.35 24.0 199.35 24.0 199.35 24.0 M198.5 22.2 L198.45 22.35 Q198.35 22.5 198.25 22.7 198.2 22.8 198.15 22.9 L198.15 22.95 198.75 22.5 198.65 22.35 198.5 22.2 198.5 22.2" fill="#000000" fill-rule="nonzero" stroke="none"/>
    </g>
  </defs>
</svg>
