<?xml version="1.0" encoding="UTF-8" standalone="no"?>
<svg xmlns:ffdec="https://www.free-decompiler.com/flash" xmlns:xlink="http://www.w3.org/1999/xlink" ffdec:objectType="frame" height="166.05px" width="105.8px" xmlns="http://www.w3.org/2000/svg">
  <g transform="matrix(1.0, 0.0, 0.0, 1.0, 41.8, 108.8)">
    <use ffdec:characterId="262" height="81.3" transform="matrix(0.7833, 0.6191, -0.6191, 0.7833, 8.7063, -92.7578)" width="66.75" xlink:href="#sprite0"/>
  </g>
  <defs>
    <g id="sprite0" transform="matrix(1.0, 0.0, 0.0, 1.0, 35.45, 51.4)">
      <use ffdec:characterId="259" height="8.45" transform="matrix(1.0, 0.0, 0.0, 1.0, -12.5, 21.45)" width="12.1" xlink:href="#shape0"/>
      <use ffdec:characterId="223" height="48.0" transform="matrix(0.9658, 0.2507, -0.2507, 0.9658, -12.318, -28.916)" width="34.65" xlink:href="#sprite1"/>
      <use ffdec:characterId="260" height="50.9" transform="matrix(1.0, 0.0, 0.0, 1.0, -22.85, -26.6)" width="45.65" xlink:href="#shape2"/>
      <use ffdec:characterId="243" height="44.35" transform="matrix(0.9659, 0.255, -0.255, 0.9659, -24.1519, -51.4234)" width="57.4" xlink:href="#sprite3"/>
      <use ffdec:characterId="261" height="11.0" transform="matrix(1.0, 0.0, 0.0, 1.0, 2.85, -19.75)" width="11.0" xlink:href="#shape5"/>
    </g>
    <g id="shape0" transform="matrix(1.0, 0.0, 0.0, 1.0, 12.5, -21.45)">
      <path d="M-9.8 22.45 L-11.5 27.3 -1.4 28.9" fill="none" stroke="#000000" stroke-linecap="round" stroke-linejoin="round" stroke-width="2.0"/>
    </g>
    <g id="sprite1" transform="matrix(1.0, 0.0, 0.0, 1.0, 16.5, 24.0)">
      <use ffdec:characterId="222" height="48.0" transform="matrix(1.0, 0.0, 0.0, 1.0, -16.5, -24.0)" width="34.65" xlink:href="#sprite2"/>
    </g>
    <g id="sprite2" transform="matrix(1.0, 0.0, 0.0, 1.0, 16.5, 24.0)">
      <use ffdec:characterId="206" height="48.0" transform="matrix(1.0, 0.0, 0.0, 1.0, -16.5, -24.0)" width="34.65" xlink:href="#shape1"/>
    </g>
    <g id="shape1" transform="matrix(1.0, 0.0, 0.0, 1.0, 16.5, 24.0)">
      <path d="M16.2 -13.2 L18.15 -12.25 18.15 -8.5 16.3 -7.3 Q15.8 -4.5 14.2 -2.15 L14.0 -1.6 Q14.0 -1.35 14.15 -1.05 16.5 2.7 16.5 7.5 16.5 14.35 11.7 19.2 6.85 24.0 0.0 24.0 L-2.3 23.85 Q-7.7 23.15 -11.65 19.2 -16.5 14.35 -16.5 7.5 -16.5 0.65 -11.65 -4.15 L-11.55 -4.2 -11.15 -4.6 -10.85 -5.1 -10.85 -5.7 Q-11.5 -7.7 -11.5 -10.0 -11.5 -15.8 -7.4 -19.9 -3.3 -24.0 2.5 -24.0 8.35 -24.0 12.4 -19.9 15.3 -17.0 16.2 -13.2" fill="url(#gradient0)" fill-rule="evenodd" stroke="none"/>
    </g>
    <linearGradient gradientTransform="matrix(0.0, 0.0287, -0.0293, 0.0, 0.8, 0.0)" gradientUnits="userSpaceOnUse" id="gradient0" spreadMethod="pad" x1="-819.2" x2="819.2">
      <stop offset="0.0" stop-color="#ffff00"/>
      <stop offset="1.0" stop-color="#d1d003"/>
    </linearGradient>
    <g id="shape2" transform="matrix(1.0, 0.0, 0.0, 1.0, 22.85, 26.6)">
      <path d="M11.8 -17.85 L12.0 -17.65 12.8 -16.75 13.2 -15.85 13.3 -15.3 12.55 -15.7 10.65 -15.45 Q9.8 -14.95 9.6 -13.9 9.3 -12.9 9.75 -12.0 10.35 -11.15 11.35 -10.95 L12.2 -10.85 11.6 -10.2 11.55 -10.15 11.3 -10.0 11.1 -9.85 Q10.4 -9.45 9.7 -9.3 8.4 -9.85 7.7 -11.1 6.75 -12.65 7.2 -14.5 7.65 -16.3 9.3 -17.3 10.55 -18.0 11.8 -17.85" fill="#00ccff" fill-rule="evenodd" stroke="none"/>
      <path d="M13.3 -15.3 Q13.65 -14.25 13.3 -12.95 13.0 -11.7 12.2 -10.85 L11.35 -10.95 Q10.35 -11.15 9.75 -12.0 9.3 -12.9 9.6 -13.9 9.8 -14.95 10.65 -15.45 L12.55 -15.7 13.3 -15.3" fill="#000000" fill-rule="evenodd" stroke="none"/>
      <path d="M9.7 -9.3 L9.1 -9.2 8.5 -9.2 8.0 -9.2 7.3 -9.35 7.25 -9.35 Q5.3 -9.85 4.2 -11.6 3.1 -13.35 3.65 -15.4 4.1 -17.4 5.9 -18.5 7.65 -19.5 9.7 -19.0 L10.1 -18.85 Q10.95 -18.65 11.5 -18.1 L11.8 -17.85 Q10.55 -18.0 9.3 -17.3 7.65 -16.3 7.2 -14.5 6.75 -12.65 7.7 -11.1 8.4 -9.85 9.7 -9.3" fill="#ffffff" fill-rule="evenodd" stroke="none"/>
      <path d="M17.4 -9.4 L21.8 -5.6 16.2 -4.7 16.95 -6.85 17.4 -9.4 M21.8 -5.6 L16.95 -6.85 21.8 -5.6" fill="#ffcc00" fill-rule="evenodd" stroke="none"/>
      <path d="M11.8 -17.85 L12.0 -17.65 12.8 -16.75 13.2 -15.85 13.3 -15.3 Q13.65 -14.25 13.3 -12.95 13.0 -11.7 12.2 -10.85 L11.6 -10.2 11.55 -10.15 11.3 -10.0 11.1 -9.85 Q10.4 -9.45 9.7 -9.3 L9.1 -9.2 8.5 -9.2 8.0 -9.2 7.3 -9.35 7.25 -9.35 Q5.3 -9.85 4.2 -11.6 3.1 -13.35 3.65 -15.4 4.1 -17.4 5.9 -18.5 7.65 -19.5 9.7 -19.0 L10.1 -18.85 Q10.95 -18.65 11.5 -18.1 L11.8 -17.85 M12.2 -10.85 L11.35 -10.95 Q10.35 -11.15 9.75 -12.0 9.3 -12.9 9.6 -13.9 9.8 -14.95 10.65 -15.45 L12.55 -15.7 13.3 -15.3 M16.2 -4.7 L16.95 -6.85 17.4 -9.4 M16.95 -6.85 L21.8 -5.6" ffdec:has-small-stroke="true" ffdec:original-stroke-width="1.0" fill="none" stroke="#000000" stroke-linecap="round" stroke-linejoin="round" stroke-width="1.0015943228736"/>
      <path d="M16.2 -4.7 Q14.9 -1.5 12.5 0.65 L12.65 1.1 Q13.8 5.35 12.6 10.05 10.8 17.1 4.65 20.85 -1.65 24.5 -8.65 22.75 L-9.75 22.4 -11.0 22.0 Q-16.35 19.85 -19.3 14.75 -23.1 8.5 -21.25 1.45 -19.45 -5.6 -13.2 -9.25 L-12.55 -9.65 Q-12.7 -11.85 -12.05 -14.3 -10.6 -20.25 -5.25 -23.4 0.15 -26.6 6.15 -25.1 12.2 -23.55 15.3 -18.2 L15.95 -16.95 Q17.7 -13.35 17.4 -9.4 L21.8 -5.6 16.2 -4.7 Z" fill="none" stroke="#000000" stroke-linecap="round" stroke-linejoin="round" stroke-width="2.0"/>
    </g>
    <g id="sprite3" transform="matrix(1.0, 0.0, 0.0, 1.0, 46.3, 28.9)">
      <use ffdec:characterId="242" height="44.35" transform="matrix(1.0, 0.0, 0.0, 1.0, -46.3, -28.9)" width="57.4" xlink:href="#sprite4"/>
    </g>
    <g id="sprite4" transform="matrix(1.0, 0.0, 0.0, 1.0, 46.4, 29.15)">
      <use ffdec:characterId="225" height="13.8" transform="matrix(1.0, 0.0, 0.0, 1.0, -10.5, -6.65)" width="21.5" xlink:href="#shape3"/>
      <use ffdec:characterId="227" height="11.2" transform="matrix(1.0, 0.0, 0.0, 1.0, -24.1, -6.15)" width="28.4" xlink:href="#sprite5"/>
    </g>
    <g id="shape3" transform="matrix(1.0, 0.0, 0.0, 1.0, 10.5, 6.65)">
      <path d="M-2.65 3.3 L-5.0 3.85 Q-7.05 3.85 -8.55 2.4 -10.0 0.95 -10.0 -1.15 -10.0 -3.2 -8.55 -4.7 -7.4 -5.85 -5.8 -6.05 L-5.1 -6.15 -5.0 -6.15 -4.9 -6.15 -3.8 -6.0 -3.5 -5.9 -3.3 -5.8 -3.25 -5.8 -2.7 -5.55 Q-4.0 -5.35 -5.0 -4.35 -6.35 -3.0 -6.3 -1.15 -6.3 0.75 -5.0 2.05 -4.0 3.05 -2.65 3.3" fill="#ffffff" fill-rule="evenodd" stroke="none"/>
      <path d="M-2.65 3.3 Q-4.0 3.05 -5.0 2.05 -6.3 0.75 -6.3 -1.15 -6.35 -3.0 -5.0 -4.35 -4.0 -5.35 -2.7 -5.55 L-1.75 -5.0 -1.5 -4.75 -1.45 -4.7 -1.0 -4.15 -0.6 -3.45 -1.45 -3.6 Q-2.55 -3.6 -3.25 -2.9 -3.95 -2.2 -3.9 -1.15 -3.95 -0.1 -3.25 0.6 -2.5 1.35 -1.45 1.3 L-0.55 1.2 -1.45 2.4 Q-2.0 2.95 -2.65 3.3" fill="#99ff00" fill-rule="evenodd" stroke="none"/>
      <path d="M-0.55 1.2 L-1.45 1.3 Q-2.5 1.35 -3.25 0.6 -3.95 -0.1 -3.9 -1.15 -3.95 -2.2 -3.25 -2.9 -2.55 -3.6 -1.45 -3.6 L-0.6 -3.45 Q-0.2 -2.75 -0.05 -1.9 L0.0 -1.15 -0.2 0.35 -0.25 0.6 -0.55 1.2" fill="#000000" fill-rule="evenodd" stroke="none"/>
      <path d="M5.0 3.85 L4.8 1.25 10.0 3.85 4.85 6.15 5.0 3.85 10.0 3.85 5.0 3.85" fill="#ffcc00" fill-rule="evenodd" stroke="none"/>
      <path d="M-3.8 -6.0 L-4.9 -6.15 -5.0 -6.15 -5.1 -6.15 -5.8 -6.05 Q-7.4 -5.85 -8.55 -4.7 -10.0 -3.2 -10.0 -1.15 -10.0 0.95 -8.55 2.4 -7.05 3.85 -5.0 3.85 L-2.65 3.3 Q-2.0 2.95 -1.45 2.4 L-0.55 1.2 -1.45 1.3 Q-2.5 1.35 -3.25 0.6 -3.95 -0.1 -3.9 -1.15 -3.95 -2.2 -3.25 -2.9 -2.55 -3.6 -1.45 -3.6 L-0.6 -3.45 Q-0.2 -2.75 -0.05 -1.9 L0.0 -1.15 -0.2 0.35 -0.25 0.6 -0.55 1.2 M-2.7 -5.55 L-3.25 -5.8 -3.3 -5.8 M-0.6 -3.45 L-1.0 -4.15 -1.45 -4.7 -1.5 -4.75 -1.75 -5.0 -2.7 -5.55" ffdec:has-small-stroke="true" ffdec:original-stroke-width="1.0" fill="none" stroke="#000000" stroke-linecap="round" stroke-linejoin="round" stroke-width="1.0025681569880585"/>
      <path d="M5.0 3.85 L10.0 3.85" ffdec:has-small-stroke="true" ffdec:original-stroke-width="1.0" fill="none" stroke="#b39001" stroke-linecap="round" stroke-linejoin="round" stroke-width="1.0025681569880585"/>
      <path d="M4.85 6.15 L5.0 3.85 4.8 1.25" ffdec:has-small-stroke="true" ffdec:original-stroke-width="1.0" fill="none" stroke="#000000" stroke-linecap="round" stroke-linejoin="round" stroke-width="1.0025681569880585"/>
      <path d="M4.85 6.15 L10.0 3.85 4.8 1.25" fill="none" stroke="#000000" stroke-linecap="round" stroke-linejoin="round" stroke-width="2.0"/>
    </g>
    <g id="sprite5" transform="matrix(1.0, 0.0, 0.0, 1.0, 14.2, 5.6)">
      <use ffdec:characterId="226" height="11.2" transform="matrix(1.0, 0.0, 0.0, 1.0, -14.2, -5.6)" width="28.4" xlink:href="#shape4"/>
    </g>
    <g id="shape4" transform="matrix(1.0, 0.0, 0.0, 1.0, 14.2, 5.6)">
      <path d="M9.65 -3.95 L5.5 -4.5 1.3 -3.9 0.65 -3.2 0.2 -1.85 0.2 0.85 0.5 2.25 0.95 3.5 1.8 4.4 3.6 4.75 5.8 4.65 7.55 4.25 9.0 3.5 10.0 2.15 11.05 -0.05 11.45 -2.15 10.8 -3.15 9.65 -3.95 M14.1 -2.0 L13.05 -1.15 11.95 1.25 10.75 3.05 9.6 4.4 8.1 5.15 5.85 5.55 3.5 5.6 1.3 5.15 0.05 4.3 -0.75 2.95 -1.65 -2.05 -2.3 -2.6 -2.95 -2.7 Q-6.25 -2.6 -9.6 -1.25 -11.65 -0.05 -11.85 1.5 L-14.1 0.75 Q-14.6 -1.75 -12.0 -3.35 -7.4 -5.1 -2.8 -5.15 L6.65 -5.6 14.2 -3.85 14.1 -2.0" fill="#000000" fill-rule="evenodd" stroke="none"/>
      <path d="M9.65 -3.95 L10.8 -3.15 11.45 -2.15 11.05 -0.05 10.0 2.15 9.0 3.5 7.55 4.25 5.8 4.65 3.6 4.75 1.8 4.4 0.95 3.5 0.5 2.25 0.2 0.85 0.2 -1.85 0.65 -3.2 1.3 -3.9 5.5 -4.5 9.65 -3.95" fill="#000000" fill-opacity="0.7372549" fill-rule="evenodd" stroke="none"/>
    </g>
    <g id="shape5" transform="matrix(1.0, 0.0, 0.0, 1.0, -2.85, 19.75)">
      <path d="M7.5 -9.35 Q6.35 -9.55 5.25 -10.3 3.65 -11.55 3.4 -13.6 3.1 -15.65 4.4 -17.3 5.6 -18.95 7.65 -19.25 9.25 -19.4 10.65 -18.6 L11.25 -18.3 11.35 -18.25 11.4 -18.15 12.25 -17.4 12.4 -17.15 12.55 -16.9 12.8 -16.35 Q11.7 -17.0 10.25 -16.85 8.35 -16.6 7.3 -15.05 6.15 -13.55 6.4 -11.7 6.6 -10.3 7.5 -9.35" fill="#ffffff" fill-rule="evenodd" stroke="none"/>
      <path d="M7.5 -9.35 Q6.6 -10.3 6.4 -11.7 6.15 -13.55 7.3 -15.05 8.35 -16.6 10.25 -16.85 11.7 -17.0 12.8 -16.35 L13.25 -15.35 Q13.2 -15.2 13.3 -15.0 L13.3 -14.95 13.35 -14.2 13.25 -13.4 12.6 -14.05 Q11.75 -14.75 10.8 -14.6 9.8 -14.5 9.25 -13.6 8.55 -12.8 8.65 -11.85 8.8 -10.75 9.65 -10.15 L10.4 -9.7 Q9.8 -9.4 9.0 -9.3 L7.5 -9.35" fill="#00ccff" fill-rule="evenodd" stroke="none"/>
      <path d="M10.4 -9.7 L9.65 -10.15 Q8.8 -10.75 8.65 -11.85 8.55 -12.8 9.25 -13.6 9.8 -14.5 10.8 -14.6 11.75 -14.75 12.6 -14.05 L13.25 -13.4 12.7 -11.9 12.35 -11.2 11.25 -10.2 11.05 -10.0 10.4 -9.7" fill="#000000" fill-rule="evenodd" stroke="none"/>
      <path d="M12.25 -17.4 L11.4 -18.15 11.35 -18.25 11.25 -18.3 10.65 -18.6 Q9.25 -19.4 7.65 -19.25 5.6 -18.95 4.4 -17.3 3.1 -15.65 3.4 -13.6 3.65 -11.55 5.25 -10.3 6.35 -9.55 7.5 -9.35 L9.0 -9.3 Q9.8 -9.4 10.4 -9.7 L9.65 -10.15 Q8.8 -10.75 8.65 -11.85 8.55 -12.8 9.25 -13.6 9.8 -14.5 10.8 -14.6 11.75 -14.75 12.6 -14.05 L13.25 -13.4 13.35 -14.2 13.3 -14.95 13.3 -15.0 Q13.2 -15.2 13.25 -15.35 L12.8 -16.35 12.55 -16.9 M13.25 -13.4 L12.7 -11.9 12.35 -11.2 11.25 -10.2 11.05 -10.0 10.4 -9.7" ffdec:has-small-stroke="true" ffdec:original-stroke-width="1.0" fill="none" stroke="#000000" stroke-linecap="round" stroke-linejoin="round" stroke-width="1.0015943228736"/>
    </g>
  </defs>
</svg>
