<?xml version="1.0" encoding="UTF-8" standalone="no"?>
<svg xmlns:ffdec="https://www.free-decompiler.com/flash" xmlns:xlink="http://www.w3.org/1999/xlink" ffdec:objectType="shape" height="24.2px" width="31.0px" xmlns="http://www.w3.org/2000/svg">
  <g transform="matrix(1.0, 0.0, 0.0, 1.0, 15.5, 12.1)">
    <path d="M0.0 -1.15 Q0.9 -1.15 1.55 -1.95 L2.0 -3.05 Q2.0 -4.85 0.0 -5.0 -2.0 -5.2 -2.0 -3.1 L-1.75 -2.05 Q-1.25 -1.15 0.0 -1.15 M3.3 -2.8 Q3.8 -1.9 5.0 -1.9 5.9 -1.9 6.55 -2.7 L7.0 -3.8 Q7.0 -5.6 5.0 -5.75 3.0 -5.95 3.0 -3.85 3.0 -3.35 3.3 -2.8 M9.5 8.65 Q10.05 9.6 11.25 9.6 12.2 9.6 12.8 8.85 L13.25 7.7 Q13.25 5.95 11.25 5.75 10.15 5.65 9.65 6.25 9.15 5.6 8.0 5.5 6.0 5.3 6.0 7.4 6.0 7.9 6.3 8.45 6.8 9.35 8.0 9.35 8.85 9.35 9.5 8.65 M7.25 -2.05 Q7.75 -1.15 9.0 -1.15 9.9 -1.15 10.55 -1.95 L11.0 -3.05 Q11.0 -5.15 9.0 -5.1 7.0 -5.1 7.0 -3.1 7.0 -2.55 7.25 -2.05 M11.3 3.6 L11.75 2.45 Q11.75 0.7 9.75 0.5 7.75 0.3 7.75 2.4 L8.0 3.4 Q8.55 4.35 9.75 4.35 10.7 4.35 11.3 3.6 M14.5 7.15 Q14.5 10.65 10.05 11.0 L4.25 10.85 -3.1 10.95 -5.65 11.1 Q-9.3 11.1 -12.25 7.9 -14.5 5.45 -14.5 4.4 L-14.4 3.45 Q-14.2 2.95 -13.5 2.6 L-11.25 2.45 -9.0 2.1 -7.35 0.75 Q-5.7 -0.4 -3.75 -0.45 2.35 -16.75 8.95 -8.05 11.25 -5.0 13.0 0.3 14.5 4.9 14.5 7.15 M5.55 2.55 L6.0 1.45 Q6.0 -0.35 4.0 -0.5 2.0 -0.7 2.0 1.4 L2.25 2.45 Q2.75 3.35 4.0 3.35 4.9 3.35 5.55 2.55 M-6.2 8.35 Q-5.75 7.75 -5.75 7.2 -5.75 5.1 -7.75 5.1 -9.75 5.15 -9.75 7.15 L-9.45 8.2 Q-8.95 9.1 -7.75 9.1 -6.8 9.1 -6.2 8.35 M-3.75 4.35 Q-2.8 4.35 -2.2 3.6 -1.75 3.0 -1.75 2.45 -1.75 0.7 -3.75 0.5 -5.75 0.3 -5.75 2.4 L-5.5 3.4 Q-4.95 4.35 -3.75 4.35 M2.55 6.1 L3.0 4.95 Q3.0 3.2 1.0 3.0 -1.0 2.8 -1.0 4.9 L-0.75 5.95 Q-0.25 6.85 1.0 6.85 1.95 6.85 2.55 6.1 M-2.5 10.6 Q-1.45 10.6 -0.75 9.5 -0.25 8.7 -0.25 8.2 -0.25 6.0 -2.35 6.2 -4.5 6.4 -4.5 8.65 L-4.2 9.7 Q-3.7 10.6 -2.5 10.6" fill="#ffcc66" fill-rule="evenodd" stroke="none"/>
    <path d="M0.0 -1.15 Q-1.25 -1.15 -1.75 -2.05 L-2.0 -3.1 Q-2.0 -5.2 0.0 -5.0 2.0 -4.85 2.0 -3.05 L1.55 -1.95 Q0.9 -1.15 0.0 -1.15 M7.25 -2.05 Q7.0 -2.55 7.0 -3.1 7.0 -5.1 9.0 -5.1 11.0 -5.15 11.0 -3.05 L10.55 -1.95 Q9.9 -1.15 9.0 -1.15 7.75 -1.15 7.25 -2.05 M9.65 6.25 Q10.15 5.65 11.25 5.75 13.25 5.95 13.25 7.7 L12.8 8.85 Q12.2 9.6 11.25 9.6 10.05 9.6 9.5 8.65 L9.25 7.65 Q9.25 6.7 9.65 6.25 M5.55 2.55 Q4.9 3.35 4.0 3.35 2.75 3.35 2.25 2.45 L2.0 1.4 Q2.0 -0.7 4.0 -0.5 6.0 -0.35 6.0 1.45 L5.55 2.55 M-2.5 10.6 Q-3.7 10.6 -4.2 9.7 L-4.5 8.65 Q-4.5 6.4 -2.35 6.2 -0.25 6.0 -0.25 8.2 -0.25 8.7 -0.75 9.5 -1.45 10.6 -2.5 10.6" fill="#ffff99" fill-rule="evenodd" stroke="none"/>
    <path d="M3.3 -2.8 Q3.0 -3.35 3.0 -3.85 3.0 -5.95 5.0 -5.75 7.0 -5.6 7.0 -3.8 L6.55 -2.7 Q5.9 -1.9 5.0 -1.9 3.8 -1.9 3.3 -2.8 M9.5 8.65 Q8.85 9.35 8.0 9.35 6.8 9.35 6.3 8.45 6.0 7.9 6.0 7.4 6.0 5.3 8.0 5.5 9.15 5.6 9.65 6.25 9.25 6.7 9.25 7.65 L9.5 8.65 M11.3 3.6 Q10.7 4.35 9.75 4.35 8.55 4.35 8.0 3.4 L7.75 2.4 Q7.75 0.3 9.75 0.5 11.75 0.7 11.75 2.45 L11.3 3.6 M2.55 6.1 Q1.95 6.85 1.0 6.85 -0.25 6.85 -0.75 5.95 L-1.0 4.9 Q-1.0 2.8 1.0 3.0 3.0 3.2 3.0 4.95 L2.55 6.1 M-3.75 4.35 Q-4.95 4.35 -5.5 3.4 L-5.75 2.4 Q-5.75 0.3 -3.75 0.5 -1.75 0.7 -1.75 2.45 -1.75 3.0 -2.2 3.6 -2.8 4.35 -3.75 4.35 M-6.2 8.35 Q-6.8 9.1 -7.75 9.1 -8.95 9.1 -9.45 8.2 L-9.75 7.15 Q-9.75 5.15 -7.75 5.1 -5.75 5.1 -5.75 7.2 -5.75 7.75 -6.2 8.35" fill="#cc9966" fill-rule="evenodd" stroke="none"/>
    <path d="M14.5 7.15 Q14.5 10.65 10.05 11.0 L4.25 10.85 -3.1 10.95 -5.65 11.1 Q-9.3 11.1 -12.25 7.9 -14.5 5.45 -14.5 4.4 L-14.4 3.45 Q-14.2 2.95 -13.5 2.6 L-11.25 2.45 -9.0 2.1 -7.35 0.75 Q-5.7 -0.4 -3.75 -0.45 2.35 -16.75 8.95 -8.05 11.25 -5.0 13.0 0.3 14.5 4.9 14.5 7.15 Z" fill="none" stroke="#000000" stroke-linecap="round" stroke-linejoin="round" stroke-width="2.0"/>
  </g>
</svg>
