<?xml version="1.0" encoding="UTF-8" standalone="no"?>
<svg xmlns:ffdec="https://www.free-decompiler.com/flash" xmlns:xlink="http://www.w3.org/1999/xlink" ffdec:objectType="shape" height="69.75px" width="70.0px" xmlns="http://www.w3.org/2000/svg">
  <g transform="matrix(1.0, 0.0, 0.0, 1.0, 35.0, 14.75)">
    <path d="M-35.0 15.0 L-35.0 4.0 Q-34.35 -14.75 -15.0 -14.75 L15.0 -14.75 Q25.0 -14.75 30.0 -9.75 34.7 -5.05 35.0 4.05 L35.0 15.0 -35.0 15.0" fill="#000000" fill-opacity="0.49803922" fill-rule="evenodd" stroke="none"/>
    <path d="M-35.0 15.0 L35.0 15.0 35.0 35.0 Q35.0 55.0 15.0 55.0 L-15.0 55.0 Q-35.0 55.0 -35.0 35.0 L-35.0 15.0" fill="#000000" fill-opacity="0.49803922" fill-rule="evenodd" stroke="none"/>
    <path d="M12.65 -5.0 Q13.45 -5.0 14.05 -4.4 14.6 -3.9 14.6 -3.05 L14.6 21.3 Q14.5 23.9 12.55 25.8 L12.5 25.85 Q10.55 27.8 7.8 27.8 5.05 27.8 3.05 25.85 1.05 23.85 1.05 21.05 1.05 18.3 3.0 16.3 L3.05 16.25 Q5.05 14.35 7.8 14.35 9.4 14.35 10.7 14.95 L10.7 -1.1 -4.75 -1.1 -4.75 21.3 Q-4.8 23.9 -6.7 25.8 L-6.75 25.85 Q-8.75 27.8 -11.5 27.8 -14.25 27.8 -16.25 25.85 -18.25 23.85 -18.25 21.05 -18.25 18.3 -16.35 16.3 L-16.25 16.25 Q-14.25 14.35 -11.5 14.35 -9.9 14.35 -8.6 14.95 L-8.6 -3.05 Q-8.6 -3.9 -8.05 -4.4 -7.5 -5.0 -6.65 -5.0 L12.65 -5.0" fill="#ffffff" fill-rule="evenodd" stroke="none"/>
  </g>
</svg>
