<?xml version="1.0" encoding="UTF-8" standalone="no"?>
<svg xmlns:ffdec="https://www.free-decompiler.com/flash" xmlns:xlink="http://www.w3.org/1999/xlink" ffdec:objectType="shape" height="57.5px" width="643.0px" xmlns="http://www.w3.org/2000/svg">
  <g transform="matrix(1.0, 0.0, 0.0, 1.0, 321.5, 29.5)">
    <path d="M320.0 28.0 L111.8 28.0 -320.0 27.0 -320.0 -28.0 Q0.0 -20.95 320.0 -23.0 L320.0 28.0" fill="#009900" fill-rule="evenodd" stroke="none"/>
    <path d="M-320.0 -28.0 L-314.0 -27.9 -307.95 -27.75 -302.1 -27.45 Q-299.45 -27.2 -296.25 -27.35 L-289.9 -27.6 -284.65 -27.4 -278.1 -27.2 -271.7 -27.35 -265.85 -27.7 -258.95 -27.35 -253.4 -27.15 Q-251.0 -27.6 -248.0 -27.2 L-242.15 -27.4 -236.75 -27.85 Q-234.2 -27.7 -231.1 -27.8 L-225.05 -27.15 -217.95 -26.75 -211.8 -26.3 -205.95 -26.15 -200.15 -26.55 -194.65 -25.7 -188.05 -25.3 Q-185.05 -25.6 -182.55 -25.4 L-175.85 -25.75 Q-171.65 -26.3 -169.65 -25.25 -167.65 -24.2 -163.6 -24.25 L-157.6 -24.7 -152.7 -25.3 -146.25 -25.85 -140.5 -26.1 -134.65 -24.85 Q-131.0 -23.65 -127.35 -23.9 L-121.35 -24.55 -115.7 -24.75 -109.35 -25.1 Q-106.35 -25.6 -103.8 -24.35 -101.25 -23.05 -98.0 -23.7 L-91.9 -24.15 -86.1 -24.0 -80.65 -24.0 -74.6 -23.95 -67.65 -23.95 -62.15 -23.8 -56.55 -24.25 Q-53.0 -24.85 -50.0 -23.5 -47.0 -22.15 -44.25 -23.4 -41.45 -24.65 -37.7 -23.25 -33.9 -21.85 -31.8 -22.5 -29.65 -23.15 -26.9 -23.05 L-20.6 -23.4 Q-17.05 -23.8 -14.05 -23.45 L-7.8 -22.9 -1.9 -22.25 Q0.8 -21.8 4.05 -22.2 L9.95 -22.4 15.9 -22.3 22.05 -22.4 27.95 -22.7 34.3 -22.95 39.6 -22.75 Q41.6 -22.55 45.35 -22.75 L52.55 -22.95 58.4 -22.9 63.9 -23.35 Q67.0 -23.75 69.95 -23.35 L75.8 -22.75 81.9 -23.15 87.95 -23.35 Q90.85 -22.95 94.55 -23.25 L100.85 -22.75 106.25 -22.6 112.25 -23.2 117.5 -23.05 123.3 -22.35 Q127.0 -21.75 130.0 -22.35 L136.2 -23.0 142.15 -22.85 147.6 -22.65 153.75 -22.6 159.4 -22.95 165.2 -23.2 171.9 -23.15 177.95 -23.15 183.65 -23.6 Q186.35 -24.05 189.65 -23.7 L196.05 -23.15 201.7 -23.05 207.7 -23.0 214.0 -22.5 Q216.85 -22.1 219.55 -23.05 L225.65 -23.45 232.4 -22.9 238.75 -22.45 244.4 -21.75 Q247.1 -21.55 250.05 -22.9 253.0 -24.25 255.75 -23.7 L261.0 -23.25 267.55 -23.05 274.4 -22.85 279.75 -23.4 285.0 -23.2 Q287.7 -22.6 291.05 -23.2 294.45 -23.8 297.35 -23.3 L303.2 -22.9 309.5 -23.2 Q312.85 -23.4 313.75 -22.6 314.7 -21.8 320.0 -23.0" fill="none" stroke="#009900" stroke-linecap="round" stroke-linejoin="round" stroke-width="3.0"/>
  </g>
</svg>
