<?xml version="1.0" encoding="UTF-8" standalone="no"?>
<svg xmlns:ffdec="https://www.free-decompiler.com/flash" xmlns:xlink="http://www.w3.org/1999/xlink" ffdec:objectType="shape" height="48.0px" width="33.0px" xmlns="http://www.w3.org/2000/svg">
  <g transform="matrix(1.0, 0.0, 0.0, 1.0, 16.5, 24.0)">
    <path d="M12.4 -19.9 Q15.6 -16.7 16.35 -12.45 L16.5 -10.45 16.5 -9.7 16.35 -7.8 Q15.95 -4.7 14.2 -2.15 L14.0 -1.6 Q14.0 -1.35 14.15 -1.05 16.35 2.45 16.5 6.9 L16.5 7.95 Q16.35 14.5 11.7 19.2 L11.5 19.4 Q9.2 21.6 6.5 22.75 4.15 23.75 1.5 23.95 L0.0 24.0 -2.3 23.85 -3.5 23.65 Q-6.2 23.1 -8.5 21.7 -10.2 20.65 -11.65 19.2 L-13.5 17.05 Q-16.5 12.9 -16.5 7.5 -16.5 2.1 -13.5 -2.0 L-11.65 -4.15 -11.55 -4.2 -11.15 -4.6 -10.85 -5.1 -10.85 -5.7 Q-11.5 -7.7 -11.5 -10.0 -11.5 -14.95 -8.5 -18.65 L-7.4 -19.9 Q-5.6 -21.7 -3.5 -22.7 -1.2 -23.8 1.5 -23.95 L2.5 -24.0 6.5 -23.45 Q9.25 -22.65 11.5 -20.75 L12.4 -19.9" fill="url(#gradient0)" fill-rule="evenodd" stroke="none"/>
  </g>
  <defs>
    <linearGradient gradientTransform="matrix(0.0, 0.0278, -0.0293, 0.0, 0.0, 0.0)" gradientUnits="userSpaceOnUse" id="gradient0" spreadMethod="pad" x1="-819.2" x2="819.2">
      <stop offset="0.0" stop-color="#c7a727"/>
      <stop offset="1.0" stop-color="#a38821"/>
    </linearGradient>
  </defs>
</svg>
