<?xml version="1.0" encoding="UTF-8" standalone="no"?>
<svg xmlns:ffdec="https://www.free-decompiler.com/flash" xmlns:xlink="http://www.w3.org/1999/xlink" ffdec:objectType="shape" height="52.0px" width="37.0px" xmlns="http://www.w3.org/2000/svg">
  <g transform="matrix(1.0, 0.0, 0.0, 1.0, 21.05, 28.5)">
    <path d="M14.8 -10.2 Q14.35 -6.85 12.45 -4.1 14.95 -0.1 14.95 5.0 14.95 12.25 9.85 17.4 4.7 22.5 -2.55 22.5 L-5.0 22.35 Q-10.7 21.6 -14.9 17.4 -20.05 12.25 -20.05 5.0 -20.05 -2.25 -14.9 -7.35 L-14.35 -7.9 Q-15.05 -10.05 -15.05 -12.5 -15.05 -18.7 -10.65 -23.1 -6.25 -27.5 -0.05 -27.5 6.2 -27.5 10.55 -23.1 14.0 -19.65 14.75 -15.1 L14.95 -12.5 14.8 -10.2 Z" fill="none" stroke="#000000" stroke-linecap="round" stroke-linejoin="round" stroke-width="2.0"/>
  </g>
</svg>
