<?xml version="1.0" encoding="UTF-8" standalone="no"?>
<svg xmlns:ffdec="https://www.free-decompiler.com/flash" xmlns:xlink="http://www.w3.org/1999/xlink" ffdec:objectType="shape" height="28.95px" width="41.0px" xmlns="http://www.w3.org/2000/svg">
  <g transform="matrix(1.0, 0.0, 0.0, 1.0, 36.05, 21.8)">
    <path d="M-9.25 -18.5 L-5.6 -14.2 -2.95 -15.35 Q3.25 -17.75 3.9 -16.65 4.55 -15.5 -0.7 -11.5 -5.95 -7.35 -14.0 -2.7 -22.05 1.95 -28.2 4.4 -34.35 6.95 -35.0 5.8 -35.65 4.7 -30.45 0.55 L-28.15 -1.15 -28.85 -3.25 Q-31.4 -14.55 -21.6 -19.35 -14.85 -22.6 -9.25 -18.5 M-5.6 -14.2 L-4.15 -12.5 -5.6 -14.2 M-27.5 1.05 L-28.15 -1.15 -27.5 1.05" fill="url(#gradient0)" fill-rule="evenodd" stroke="none"/>
    <path d="M-9.25 -18.5 L-5.6 -14.2 -2.95 -15.35 Q3.25 -17.75 3.9 -16.65 4.55 -15.5 -0.7 -11.5 -5.95 -7.35 -14.0 -2.7 -22.05 1.95 -28.2 4.4 -34.35 6.95 -35.0 5.8 -35.65 4.7 -30.45 0.55 L-28.15 -1.15 M-4.15 -12.5 L-5.6 -14.2" fill="none" stroke="#000000" stroke-linecap="round" stroke-linejoin="round" stroke-width="2.0"/>
    <path d="M-28.15 -1.15 L-28.85 -3.25 Q-31.4 -14.55 -21.6 -19.35 -14.85 -22.6 -9.25 -18.5 M-28.15 -1.15 L-27.5 1.05" fill="none" stroke="#000000" stroke-linecap="round" stroke-linejoin="round" stroke-width="2.0"/>
  </g>
  <defs>
    <linearGradient gradientTransform="matrix(-0.0368, 0.0212, -0.0082, 0.0, -20.1, -11.4)" gradientUnits="userSpaceOnUse" id="gradient0" spreadMethod="pad" x1="-819.2" x2="819.2">
      <stop offset="0.0" stop-color="#e0ba63"/>
      <stop offset="1.0" stop-color="#d5a22b"/>
    </linearGradient>
  </defs>
</svg>
