<?xml version="1.0" encoding="UTF-8" standalone="no"?>
<svg xmlns:ffdec="https://www.free-decompiler.com/flash" xmlns:xlink="http://www.w3.org/1999/xlink" ffdec:objectType="shape" height="25.15px" width="24.85px" xmlns="http://www.w3.org/2000/svg">
  <g transform="matrix(1.0, 0.0, 0.0, 1.0, 11.6, 11.65)">
    <path d="M-7.6 -8.25 Q-8.25 -4.7 -10.0 -5.95 -11.9 -7.25 -7.6 -8.25 -6.65 -11.85 -5.95 -10.0 -4.1 -8.55 -7.6 -8.25" fill="#ffffff" fill-rule="evenodd" stroke="none"/>
    <path d="M-3.4 -2.7 L-2.8 -3.25 -2.95 -2.6 -3.4 -2.7" fill="#ff0000" fill-rule="evenodd" stroke="none"/>
    <path d="M8.0 -2.15 L3.7 2.05 -2.8 -3.25 Q2.6 -3.75 8.0 -2.15" fill="#ffff00" fill-rule="evenodd" stroke="none"/>
    <path d="M3.7 2.05 L-2.8 8.3 Q-4.1 2.85 -2.95 -2.6 L-2.8 -3.25 3.7 2.05" fill="#ff9900" fill-rule="evenodd" stroke="none"/>
    <path d="M-2.8 8.3 L-7.1 12.5 Q-7.8 10.35 -7.8 7.9 -7.8 1.7 -3.4 -2.7 L-2.95 -2.6 Q-4.1 2.85 -2.8 8.3" fill="#cc3333" fill-rule="evenodd" stroke="none"/>
    <path d="M-2.8 -3.25 Q1.4 -7.1 7.2 -7.1 9.9 -7.1 12.25 -6.25 L8.0 -2.15 Q2.6 -3.75 -2.8 -3.25" fill="#33cc33" fill-rule="evenodd" stroke="none"/>
    <path d="M-2.8 -3.25 Q1.4 -7.1 7.2 -7.1 9.9 -7.1 12.25 -6.25 L8.0 -2.15 3.7 2.05 -2.8 8.3 -7.1 12.5 Q-7.8 10.35 -7.8 7.9 -7.8 1.7 -3.4 -2.7 L-2.8 -3.25 -7.6 -8.25 Q-8.25 -4.7 -10.0 -5.95 -11.9 -7.25 -7.6 -8.25 -6.65 -11.85 -5.95 -10.0 -4.1 -8.55 -7.6 -8.25" fill="none" stroke="#000000" stroke-linecap="round" stroke-linejoin="round" stroke-width="2.0"/>
    <path d="M-2.8 -3.25 L-2.95 -2.6 Q-4.1 2.85 -2.8 8.3 M-2.8 -3.25 L3.7 2.05 M8.0 -2.15 Q2.6 -3.75 -2.8 -3.25" fill="none" stroke="#000000" stroke-linecap="round" stroke-linejoin="round" stroke-width="1.0"/>
  </g>
</svg>
