<?xml version="1.0" encoding="UTF-8" standalone="no"?>
<svg xmlns:ffdec="https://www.free-decompiler.com/flash" xmlns:xlink="http://www.w3.org/1999/xlink" ffdec:objectType="shape" height="38.25px" width="39.25px" xmlns="http://www.w3.org/2000/svg">
  <g transform="matrix(1.0, 0.0, 0.0, 1.0, 35.2, 29.15)">
    <path d="M-22.25 -5.0 Q-23.55 -3.2 -24.2 -1.15 -24.9 1.05 -24.9 3.5 -24.9 5.95 -24.2 8.1 L-34.2 2.6 -24.9 2.6 -33.95 -7.9 -24.2 -1.15 -31.7 -15.4 -22.25 -5.0 M-22.25 -5.05 L-26.1 -19.9 -19.5 -8.05 -22.2 -24.65 -16.0 -10.25 Q-18.45 -9.15 -20.5 -7.1 L-22.25 -5.05 M-6.9 -11.2 L-9.9 -11.5 -12.1 -11.35 Q-14.15 -11.05 -16.0 -10.25 L-14.2 -28.15 -12.1 -11.35 -6.9 -27.4 -6.9 -11.2 M-6.85 -11.2 L3.05 -25.65 -1.2 -8.75 Q-3.75 -10.65 -6.85 -11.2" fill="#ff00ff" fill-rule="evenodd" stroke="none"/>
    <path d="M-22.25 -5.0 Q-23.55 -3.2 -24.2 -1.15 -24.9 1.05 -24.9 3.5 -24.9 5.95 -24.2 8.1 L-34.2 2.6 -24.9 2.6 -33.95 -7.9 -24.2 -1.15 -31.7 -15.4 -22.25 -5.0 -22.25 -5.05 -26.1 -19.9 -27.2 -21.9 M-22.25 -5.05 L-20.5 -7.1 Q-18.45 -9.15 -16.0 -10.25 L-22.2 -24.65 -19.5 -8.05 -26.1 -19.9 M-6.9 -11.2 L-9.9 -11.5 -12.1 -11.35 Q-14.15 -11.05 -16.0 -10.25 L-14.2 -28.15 -12.1 -11.35 -6.9 -27.4 -6.9 -11.2 -6.85 -11.2 3.05 -25.65 -1.2 -8.75 Q-3.75 -10.65 -6.85 -11.2" fill="none" stroke="#000000" stroke-linecap="round" stroke-linejoin="round" stroke-width="2.0"/>
  </g>
</svg>
