<?xml version="1.0" encoding="UTF-8" standalone="no"?>
<svg xmlns:ffdec="https://www.free-decompiler.com/flash" xmlns:xlink="http://www.w3.org/1999/xlink" ffdec:objectType="shape" height="29.5px" width="31.7px" xmlns="http://www.w3.org/2000/svg">
  <g transform="matrix(1.0, 0.0, 0.0, 1.0, 27.2, 14.3)">
    <path d="M-25.6 0.0 L-26.7 -6.05 -23.05 -3.7 -22.75 -10.0 -18.4 -9.15 -18.4 -13.8 -4.75 -11.4 Q2.25 -8.5 4.0 -1.95 -2.2 -1.75 -7.25 -5.6 L-6.05 -2.55 Q-10.2 -2.15 -12.45 -5.8 -13.4 -1.1 -9.2 1.6 -12.3 2.6 -14.45 0.05 -12.8 6.4 -8.35 10.0 -13.85 8.8 -16.35 5.6 -15.0 11.45 -9.15 14.6 -18.75 15.4 -23.85 10.0 -27.35 5.4 -25.6 0.0 L-22.5 0.0 -25.6 0.0" fill="#000000" fill-rule="evenodd" stroke="none"/>
    <path d="M-25.6 0.0 Q-27.35 5.4 -23.85 10.0 -18.75 15.4 -9.15 14.6 -15.0 11.45 -16.35 5.6 -13.85 8.8 -8.35 10.0 -12.8 6.4 -14.45 0.05 -12.3 2.6 -9.2 1.6 -13.4 -1.1 -12.45 -5.8 -10.2 -2.15 -6.05 -2.55 L-7.25 -5.6 Q-2.2 -1.75 4.0 -1.95 2.25 -8.5 -4.75 -11.4 L-18.4 -13.8 -18.4 -9.15 -22.75 -10.0 -23.05 -3.7 -26.7 -6.05 -25.6 0.0" fill="none" stroke="#000000" stroke-linecap="round" stroke-linejoin="round" stroke-width="1.0"/>
    <path d="M-25.6 0.0 L-22.5 0.0" fill="none" stroke="#000000" stroke-linecap="round" stroke-linejoin="round" stroke-width="1.0"/>
  </g>
</svg>
