<?xml version="1.0" encoding="UTF-8" standalone="no"?>
<svg xmlns:ffdec="https://www.free-decompiler.com/flash" xmlns:xlink="http://www.w3.org/1999/xlink" ffdec:objectType="shape" height="17.55px" width="25.15px" xmlns="http://www.w3.org/2000/svg">
  <g transform="matrix(1.0, 0.0, 0.0, 1.0, 46.4, 19.35)">
    <path d="M-26.65 -5.65 Q-36.3 -8.25 -45.4 -4.7 -42.6 -9.8 -37.0 -10.25 -40.05 -11.85 -42.9 -10.85 -40.15 -15.1 -34.7 -13.75 -35.8 -17.05 -38.15 -18.35 -29.9 -16.6 -24.8 -8.0 L-25.75 -7.25 -26.65 -5.65" fill="#ffff00" fill-rule="evenodd" stroke="none"/>
    <path d="M-24.8 -8.0 L-24.6 -8.1 -23.2 -7.95 Q-22.5 -7.55 -22.3 -6.75 -22.1 -6.05 -22.5 -5.4 L-23.4 -3.8 Q-23.8 -3.1 -24.55 -2.85 -25.3 -2.7 -26.0 -3.1 -26.65 -3.45 -26.85 -4.2 -27.05 -4.95 -26.65 -5.65 L-25.75 -7.25 -24.8 -8.0" fill="#cc3333" fill-rule="evenodd" stroke="none"/>
    <path d="M-26.65 -5.65 Q-36.3 -8.25 -45.4 -4.7 -42.6 -9.8 -37.0 -10.25 -40.05 -11.85 -42.9 -10.85 -40.15 -15.1 -34.7 -13.75 -35.8 -17.05 -38.15 -18.35 -29.9 -16.6 -24.8 -8.0 L-24.6 -8.1 -23.2 -7.95 Q-22.5 -7.55 -22.3 -6.75 -22.1 -6.05 -22.5 -5.4 L-23.4 -3.8 Q-23.8 -3.1 -24.55 -2.85 -25.3 -2.7 -26.0 -3.1 -26.65 -3.45 -26.85 -4.2 -27.05 -4.95 -26.65 -5.65 L-25.75 -7.25 -24.8 -8.0" fill="none" stroke="#000000" stroke-linecap="round" stroke-linejoin="round" stroke-width="2.0"/>
  </g>
</svg>
