<?xml version="1.0" encoding="UTF-8" standalone="no"?>
<svg xmlns:ffdec="https://www.free-decompiler.com/flash" xmlns:xlink="http://www.w3.org/1999/xlink" ffdec:objectType="shape" height="60.15px" width="45.55px" xmlns="http://www.w3.org/2000/svg">
  <g transform="matrix(1.0, 0.0, 0.0, 1.0, 17.25, 31.5)">
    <path d="M-2.7 16.75 L-4.5 23.25 Q-0.5 28.45 5.0 27.5" fill="none" stroke="#000000" stroke-linecap="round" stroke-linejoin="round" stroke-width="2.0"/>
    <path d="M18.7 -20.3 L17.95 -20.65 16.0 -20.4 Q15.15 -19.85 14.95 -18.85 14.65 -17.85 15.2 -17.0 15.75 -16.05 16.75 -15.85 L17.65 -15.75 16.5 -14.8 15.15 -14.25 Q13.85 -14.75 13.15 -16.0 12.2 -17.55 12.65 -19.4 13.05 -21.2 14.65 -22.2 15.85 -22.95 17.2 -22.8 L18.2 -21.7 18.7 -20.3" fill="#00ccff" fill-rule="evenodd" stroke="none"/>
    <path d="M17.65 -15.75 L16.75 -15.85 Q15.75 -16.05 15.2 -17.0 14.65 -17.85 14.95 -18.85 15.15 -19.85 16.0 -20.4 L17.95 -20.65 18.7 -20.3 Q19.05 -19.15 18.75 -17.9 L18.2 -16.5 17.65 -15.75" fill="#000000" fill-rule="evenodd" stroke="none"/>
    <path d="M17.2 -22.8 Q15.85 -22.95 14.65 -22.2 13.05 -21.2 12.65 -19.4 12.2 -17.55 13.15 -16.0 13.85 -14.75 15.15 -14.25 13.95 -13.95 12.7 -14.25 10.7 -14.7 9.6 -16.5 8.55 -18.25 9.05 -20.3 9.5 -22.3 11.3 -23.4 L12.4 -23.85 13.6 -24.1 13.7 -24.1 15.1 -23.95 Q16.35 -23.65 17.2 -22.8" fill="#ffffff" fill-rule="evenodd" stroke="none"/>
    <path d="M22.85 -14.45 L27.3 -10.7 21.75 -9.7 22.45 -11.9 22.85 -14.45 M27.3 -10.7 L22.45 -11.9 27.3 -10.7" fill="#ffcc00" fill-rule="evenodd" stroke="none"/>
    <path d="M21.75 -9.7 Q20.5 -6.55 18.05 -4.35 L18.15 -3.95 Q19.45 0.35 18.25 5.1 16.5 12.15 10.35 15.9 4.15 19.65 -2.9 17.9 L-5.25 17.15 Q-10.6 15.05 -13.65 10.0 -17.45 3.75 -15.7 -3.3 -13.95 -10.35 -7.75 -14.05 L-7.05 -14.4 Q-7.25 -16.7 -6.65 -19.1 -5.2 -25.1 0.1 -28.3 5.45 -31.55 11.45 -30.05 17.5 -28.55 20.7 -23.2 L21.35 -22.05 Q23.2 -18.4 22.85 -14.45 L27.3 -10.7 21.75 -9.7" fill="none" stroke="#000000" stroke-linecap="round" stroke-linejoin="round" stroke-width="2.0"/>
    <path d="M21.75 -9.7 L22.45 -11.9 22.85 -14.45 M17.65 -15.75 L16.75 -15.85 Q15.75 -16.05 15.2 -17.0 14.65 -17.85 14.95 -18.85 15.15 -19.85 16.0 -20.4 L17.95 -20.65 18.7 -20.3 18.2 -21.7 17.2 -22.8 Q16.35 -23.65 15.1 -23.95 L13.7 -24.1 13.6 -24.1 12.4 -23.85 11.3 -23.4 Q9.5 -22.3 9.05 -20.3 8.55 -18.25 9.6 -16.5 10.7 -14.7 12.7 -14.25 13.95 -13.95 15.15 -14.25 L16.5 -14.8 17.65 -15.75 18.2 -16.5 18.75 -17.9 Q19.05 -19.15 18.7 -20.3 M22.45 -11.9 L27.3 -10.7" fill="none" stroke="#000000" stroke-linecap="round" stroke-linejoin="round" stroke-width="1.0"/>
  </g>
</svg>
