<?xml version="1.0" encoding="UTF-8" standalone="no"?>
<svg xmlns:ffdec="https://www.free-decompiler.com/flash" xmlns:xlink="http://www.w3.org/1999/xlink" ffdec:objectType="shape" height="60.0px" width="45.55px" xmlns="http://www.w3.org/2000/svg">
  <g transform="matrix(1.0, 0.0, 0.0, 1.0, 14.25, 35.25)">
    <path d="M0.3 13.0 L-1.5 19.5 Q4.0 23.7 8.0 23.75" fill="none" stroke="#000000" stroke-linecap="round" stroke-linejoin="round" stroke-width="2.0"/>
    <path d="M15.7 -18.0 Q13.7 -18.45 12.6 -20.25 11.55 -22.0 12.05 -24.05 12.5 -26.05 14.3 -27.15 L15.45 -27.65 16.55 -27.85 16.6 -27.85 18.1 -27.7 Q19.35 -27.4 20.2 -26.55 18.85 -26.7 17.65 -25.95 16.05 -24.95 15.65 -23.15 15.2 -21.3 16.15 -19.75 16.85 -18.5 18.15 -18.0 16.95 -17.7 15.7 -18.0" fill="#ffffff" fill-rule="evenodd" stroke="none"/>
    <path d="M18.15 -18.0 Q16.85 -18.5 16.15 -19.75 15.2 -21.3 15.65 -23.15 16.05 -24.95 17.65 -25.95 18.85 -26.7 20.2 -26.55 L21.2 -25.45 21.7 -24.05 20.95 -24.4 19.0 -24.15 Q18.15 -23.6 17.95 -22.6 17.65 -21.6 18.2 -20.75 18.75 -19.8 19.75 -19.6 L20.65 -19.5 Q20.2 -18.95 19.5 -18.55 L18.15 -18.0" fill="#00ccff" fill-rule="evenodd" stroke="none"/>
    <path d="M21.7 -24.05 Q22.05 -22.9 21.75 -21.65 L21.2 -20.25 20.65 -19.5 19.75 -19.6 Q18.75 -19.8 18.2 -20.75 17.65 -21.6 17.95 -22.6 18.15 -23.6 19.0 -24.15 L20.95 -24.4 21.7 -24.05" fill="#000000" fill-rule="evenodd" stroke="none"/>
    <path d="M25.85 -18.2 L30.3 -14.45 24.75 -13.45 25.45 -15.65 25.85 -18.2 M30.3 -14.45 L25.45 -15.65 30.3 -14.45" fill="#ffcc00" fill-rule="evenodd" stroke="none"/>
    <path d="M24.75 -13.45 Q23.5 -10.3 21.05 -8.1 L21.15 -7.7 Q22.45 -3.4 21.25 1.35 19.5 8.4 13.35 12.15 7.15 15.9 0.1 14.15 L-2.25 13.4 Q-7.6 11.3 -10.65 6.25 -14.45 0.0 -12.7 -7.05 -10.95 -14.1 -4.75 -17.8 L-4.05 -18.15 Q-4.25 -20.45 -3.65 -22.85 -2.2 -28.85 3.1 -32.05 8.45 -35.3 14.45 -33.8 20.5 -32.3 23.7 -26.95 L24.35 -25.8 Q26.2 -22.15 25.85 -18.2 L30.3 -14.45 24.75 -13.45" fill="none" stroke="#000000" stroke-linecap="round" stroke-linejoin="round" stroke-width="2.0"/>
    <path d="M24.75 -13.45 L25.45 -15.65 25.85 -18.2 M20.2 -26.55 Q19.35 -27.4 18.1 -27.7 L16.6 -27.85 16.55 -27.85 15.45 -27.65 14.3 -27.15 Q12.5 -26.05 12.05 -24.05 11.55 -22.0 12.6 -20.25 13.7 -18.45 15.7 -18.0 M20.2 -26.55 L21.2 -25.45 21.7 -24.05 Q22.05 -22.9 21.75 -21.65 L21.2 -20.25 20.65 -19.5 Q20.2 -18.95 19.5 -18.55 L18.15 -18.0 M20.65 -19.5 L19.75 -19.6 Q18.75 -19.8 18.2 -20.75 17.65 -21.6 17.95 -22.6 18.15 -23.6 19.0 -24.15 L20.95 -24.4 21.7 -24.05 M25.45 -15.65 L30.3 -14.45" fill="none" stroke="#000000" stroke-linecap="round" stroke-linejoin="round" stroke-width="1.0"/>
  </g>
</svg>
