<?xml version="1.0" encoding="UTF-8" standalone="no"?>
<svg xmlns:ffdec="https://www.free-decompiler.com/flash" xmlns:xlink="http://www.w3.org/1999/xlink" ffdec:objectType="shape" height="60.05px" width="44.75px" xmlns="http://www.w3.org/2000/svg">
  <g transform="matrix(1.0, 0.0, 0.0, 1.0, 8.85, 40.3)">
    <path d="M6.7 8.5 L5.3 15.1 15.05 18.75" fill="none" stroke="#000000" stroke-linecap="round" stroke-linejoin="round" stroke-width="2.0"/>
    <path d="M24.1 -32.2 L24.45 -31.95 25.2 -31.15 25.6 -30.35 25.75 -29.75 25.0 -30.05 Q23.9 -30.25 23.05 -29.7 22.3 -29.15 22.15 -28.1 21.9 -27.05 22.45 -26.3 23.05 -25.4 24.1 -25.25 L25.0 -25.2 Q24.55 -24.6 23.9 -24.15 L23.25 -23.75 23.05 -23.7 22.55 -23.55 Q21.3 -23.95 20.5 -25.15 19.4 -26.7 19.75 -28.55 20.05 -30.35 21.6 -31.45 22.8 -32.25 24.1 -32.2" fill="#00ccff" fill-rule="evenodd" stroke="none"/>
    <path d="M24.1 -32.2 Q22.8 -32.25 21.6 -31.45 20.05 -30.35 19.75 -28.55 19.4 -26.7 20.5 -25.15 21.3 -23.95 22.55 -23.55 L21.9 -23.35 20.15 -23.4 Q18.15 -23.7 16.9 -25.45 16.35 -26.3 16.15 -27.25 L16.15 -29.2 Q16.5 -31.2 18.2 -32.45 19.9 -33.6 21.95 -33.2 L23.65 -32.55 24.1 -32.2" fill="#ffffff" fill-rule="evenodd" stroke="none"/>
    <path d="M25.0 -25.2 L24.1 -25.25 Q23.05 -25.4 22.45 -26.3 21.9 -27.05 22.15 -28.1 22.3 -29.15 23.05 -29.7 23.9 -30.25 25.0 -30.05 L25.75 -29.75 Q26.2 -28.7 25.95 -27.4 L25.5 -26.0 25.0 -25.2" fill="#000000" fill-rule="evenodd" stroke="none"/>
    <path d="M30.25 -24.2 L34.9 -20.75 29.4 -19.4 30.0 -21.6 30.25 -24.2 M34.9 -20.75 L30.0 -21.6 34.9 -20.75" fill="#ffcc00" fill-rule="evenodd" stroke="none"/>
    <path d="M29.4 -19.4 Q28.35 -16.2 26.05 -13.8 L26.2 -13.4 Q27.75 -9.2 26.85 -4.4 25.55 2.75 19.65 6.85 13.65 10.95 6.55 9.65 L4.15 9.05 Q-1.3 7.35 -4.7 2.45 -8.85 -3.5 -7.55 -10.65 -6.25 -17.75 -0.3 -21.85 L0.35 -22.3 Q0.05 -24.6 0.5 -27.0 1.6 -33.1 6.75 -36.6 11.8 -40.15 17.9 -39.05 24.05 -37.95 27.55 -32.8 L28.25 -31.65 Q30.3 -28.1 30.25 -24.2 L34.9 -20.75 29.4 -19.4" fill="none" stroke="#000000" stroke-linecap="round" stroke-linejoin="round" stroke-width="2.0"/>
    <path d="M29.4 -19.4 L30.0 -21.6 30.25 -24.2 M25.75 -29.75 L25.6 -30.35 25.2 -31.15 24.45 -31.95 24.1 -32.2 23.65 -32.55 21.95 -33.2 Q19.9 -33.6 18.2 -32.45 16.5 -31.2 16.15 -29.2 L16.15 -27.25 Q16.35 -26.3 16.9 -25.45 18.15 -23.7 20.15 -23.4 L21.9 -23.35 22.55 -23.55 23.05 -23.7 23.25 -23.75 23.9 -24.15 Q24.55 -24.6 25.0 -25.2 L24.1 -25.25 Q23.05 -25.4 22.45 -26.3 21.9 -27.05 22.15 -28.1 22.3 -29.15 23.05 -29.7 23.9 -30.25 25.0 -30.05 L25.75 -29.75 Q26.2 -28.7 25.95 -27.4 L25.5 -26.0 25.0 -25.2 M30.0 -21.6 L34.9 -20.75" fill="none" stroke="#000000" stroke-linecap="round" stroke-linejoin="round" stroke-width="1.0"/>
  </g>
</svg>
