<?xml version="1.0" encoding="UTF-8" standalone="no"?>
<svg xmlns:ffdec="https://www.free-decompiler.com/flash" xmlns:xlink="http://www.w3.org/1999/xlink" ffdec:objectType="shape" height="58.8px" width="43.45px" xmlns="http://www.w3.org/2000/svg">
  <g transform="matrix(1.0, 0.0, 0.0, 1.0, 2.15, 42.85)">
    <path d="M14.9 6.55 L14.15 13.25 24.15 14.95" fill="none" stroke="#000000" stroke-linecap="round" stroke-linejoin="round" stroke-width="2.0"/>
    <path d="M28.6 -35.55 L29.15 -35.2 29.75 -34.6 30.5 -33.25 30.45 -33.25 29.65 -33.5 Q28.55 -33.6 27.8 -32.95 27.05 -32.3 27.0 -31.25 26.85 -30.2 27.5 -29.45 28.2 -28.65 29.25 -28.6 L30.0 -28.55 30.15 -28.6 29.15 -27.5 27.85 -26.7 27.65 -26.75 Q26.45 -27.15 25.6 -28.15 24.45 -29.55 24.6 -31.45 24.7 -33.3 26.2 -34.55 27.25 -35.45 28.6 -35.55" fill="#00ccff" fill-rule="evenodd" stroke="none"/>
    <path d="M30.15 -28.6 L30.0 -28.55 29.25 -28.6 Q28.2 -28.65 27.5 -29.45 26.85 -30.2 27.0 -31.25 27.05 -32.3 27.8 -32.95 28.55 -33.6 29.65 -33.5 L30.45 -33.25 30.5 -33.25 Q30.95 -32.2 30.85 -30.9 30.75 -29.6 30.15 -28.6" fill="#000000" fill-rule="evenodd" stroke="none"/>
    <path d="M28.6 -35.55 Q27.25 -35.45 26.2 -34.55 24.7 -33.3 24.6 -31.45 24.45 -29.55 25.6 -28.15 26.45 -27.15 27.65 -26.75 L27.85 -26.7 25.45 -26.4 Q23.4 -26.55 22.05 -28.1 L21.75 -28.55 Q20.8 -30.0 20.95 -31.8 21.1 -33.85 22.65 -35.2 24.25 -36.5 26.35 -36.3 27.65 -36.2 28.6 -35.55" fill="#ffffff" fill-rule="evenodd" stroke="none"/>
    <path d="M40.3 -25.15 L35.3 -25.6 40.3 -25.15 34.95 -23.3 35.3 -25.6 35.35 -28.15 40.3 -25.15" fill="#ffcc00" fill-rule="evenodd" stroke="none"/>
    <path d="M30.5 -33.25 L29.75 -34.6 29.15 -35.2 28.6 -35.55 Q27.65 -36.2 26.35 -36.3 24.25 -36.5 22.65 -35.2 21.1 -33.85 20.95 -31.8 20.8 -30.0 21.75 -28.55 L22.05 -28.1 Q23.4 -26.55 25.45 -26.4 L27.85 -26.7 29.15 -27.5 30.15 -28.6 30.0 -28.55 29.25 -28.6 Q28.2 -28.65 27.5 -29.45 26.85 -30.2 27.0 -31.25 27.05 -32.3 27.8 -32.95 28.55 -33.6 29.65 -33.5 L30.45 -33.25 30.5 -33.25 Q30.95 -32.2 30.85 -30.9 30.75 -29.6 30.15 -28.6 M35.3 -25.6 L40.3 -25.15 M35.35 -28.15 L35.3 -25.6 34.95 -23.3" fill="none" stroke="#000000" stroke-linecap="round" stroke-linejoin="round" stroke-width="1.0"/>
    <path d="M40.3 -25.15 L35.35 -28.15 Q35.05 -32.1 32.7 -35.45 L31.9 -36.5 Q27.9 -41.25 21.7 -41.8 15.55 -42.35 10.8 -38.4 6.05 -34.35 5.5 -28.2 5.3 -25.75 5.75 -23.55 L5.2 -23.05 Q-0.4 -18.45 -1.05 -11.25 -1.7 -4.0 3.0 1.55 6.8 6.1 12.45 7.35 L14.8 7.75 Q22.05 8.35 27.6 3.7 33.1 -0.95 33.75 -8.2 34.2 -13.05 32.35 -17.1 L32.1 -17.45 Q34.25 -20.0 34.95 -23.3 L40.3 -25.15 Z" fill="none" stroke="#000000" stroke-linecap="round" stroke-linejoin="round" stroke-width="2.0"/>
  </g>
</svg>
