<?xml version="1.0" encoding="UTF-8" standalone="no"?>
<svg xmlns:ffdec="https://www.free-decompiler.com/flash" xmlns:xlink="http://www.w3.org/1999/xlink" ffdec:objectType="shape" height="57.85px" width="40.95px" xmlns="http://www.w3.org/2000/svg">
  <g transform="matrix(1.0, 0.0, 0.0, 1.0, -5.3, 44.45)">
    <path d="M24.7 5.45 L24.9 12.15 35.05 12.4" fill="none" stroke="#000000" stroke-linecap="round" stroke-linejoin="round" stroke-width="2.0"/>
    <path d="M32.15 -38.2 L33.15 -37.65 33.45 -37.4 34.35 -36.2 33.5 -36.3 Q32.4 -36.25 31.75 -35.5 31.1 -34.75 31.2 -33.7 31.2 -32.65 31.95 -32.0 32.75 -31.3 33.8 -31.4 L34.5 -31.5 34.7 -31.55 33.85 -30.3 32.7 -29.35 32.5 -29.35 Q31.25 -29.55 30.3 -30.45 28.9 -31.7 28.8 -33.6 28.65 -35.4 29.9 -36.85 30.85 -37.9 32.15 -38.2" fill="#00ccff" fill-rule="evenodd" stroke="none"/>
    <path d="M32.7 -29.35 Q31.7 -28.7 30.4 -28.65 28.35 -28.5 26.75 -29.9 L26.2 -30.45 25.75 -31.1 Q25.15 -32.1 25.1 -33.35 24.95 -35.4 26.35 -37.0 27.7 -38.55 29.8 -38.65 L31.1 -38.55 31.45 -38.45 32.15 -38.2 Q30.85 -37.9 29.9 -36.85 28.65 -35.4 28.8 -33.6 28.9 -31.7 30.3 -30.45 31.25 -29.55 32.5 -29.35 L32.7 -29.35" fill="#ffffff" fill-rule="evenodd" stroke="none"/>
    <path d="M34.35 -36.2 Q35.05 -35.25 35.1 -33.95 35.15 -32.65 34.7 -31.55 L34.5 -31.5 33.8 -31.4 Q32.75 -31.3 31.95 -32.0 31.2 -32.65 31.2 -33.7 31.1 -34.75 31.75 -35.5 32.4 -36.25 33.5 -36.3 L34.35 -36.2" fill="#000000" fill-rule="evenodd" stroke="none"/>
    <path d="M39.9 -31.9 L45.25 -29.6 40.2 -27.0 40.25 -29.3 39.9 -31.9 M45.25 -29.6 L40.25 -29.3 45.25 -29.6" fill="#ffcc00" fill-rule="evenodd" stroke="none"/>
    <path d="M40.2 -27.0 L40.25 -29.3 39.9 -31.9 M32.7 -29.35 Q31.7 -28.7 30.4 -28.65 28.35 -28.5 26.75 -29.9 L26.2 -30.45 25.75 -31.1 Q25.15 -32.1 25.1 -33.35 24.95 -35.4 26.35 -37.0 27.7 -38.55 29.8 -38.65 L31.1 -38.55 31.45 -38.45 32.15 -38.2 33.15 -37.65 33.45 -37.4 34.35 -36.2 Q35.05 -35.25 35.1 -33.95 35.15 -32.65 34.7 -31.55 L33.85 -30.3 32.7 -29.35 M34.35 -36.2 L33.5 -36.3 Q32.4 -36.25 31.75 -35.5 31.1 -34.75 31.2 -33.7 31.2 -32.65 31.95 -32.0 32.75 -31.3 33.8 -31.4 L34.5 -31.5 34.7 -31.55 M40.25 -29.3 L45.25 -29.6" fill="none" stroke="#000000" stroke-linecap="round" stroke-linejoin="round" stroke-width="1.0"/>
    <path d="M40.2 -27.0 Q39.95 -23.65 38.2 -20.8 L38.5 -20.45 Q40.95 -16.75 41.25 -11.85 41.65 -4.65 36.85 0.8 32.0 6.15 24.75 6.55 L22.3 6.55 Q16.6 6.15 12.2 2.2 6.75 -2.65 6.35 -9.85 5.9 -17.1 10.8 -22.5 L11.3 -23.05 Q10.5 -25.15 10.35 -27.6 10.0 -33.8 14.15 -38.4 18.25 -43.05 24.45 -43.4 30.7 -43.75 35.25 -39.6 L36.2 -38.7 Q39.05 -35.75 39.9 -31.9 L45.25 -29.6 40.2 -27.0 Z" fill="none" stroke="#000000" stroke-linecap="round" stroke-linejoin="round" stroke-width="2.0"/>
  </g>
</svg>
