<?xml version="1.0" encoding="UTF-8" standalone="no"?>
<svg xmlns:ffdec="https://www.free-decompiler.com/flash" xmlns:xlink="http://www.w3.org/1999/xlink" ffdec:objectType="shape" height="57.35px" width="38.75px" xmlns="http://www.w3.org/2000/svg">
  <g transform="matrix(1.0, 0.0, 0.0, 1.0, -14.65, 41.35)">
    <path d="M35.8 8.4 L36.75 15.0 46.85 14.15" fill="none" stroke="#000000" stroke-linecap="round" stroke-linejoin="round" stroke-width="2.0"/>
    <path d="M39.9 -27.05 Q39.0 -26.35 37.7 -26.15 35.7 -25.75 33.95 -26.95 L33.15 -27.65 Q32.2 -28.7 31.95 -30.2 31.55 -32.2 32.75 -33.95 33.95 -35.6 36.0 -35.95 L38.35 -35.8 Q37.15 -35.35 36.3 -34.2 35.2 -32.65 35.55 -30.85 35.85 -29.0 37.4 -27.9 38.5 -27.1 39.75 -27.05 L39.9 -27.05" fill="#ffffff" fill-rule="evenodd" stroke="none"/>
    <path d="M38.35 -35.8 L38.9 -35.6 39.75 -35.15 40.8 -34.05 39.95 -34.05 Q38.85 -33.85 38.25 -33.05 37.75 -32.25 37.95 -31.25 38.05 -30.15 38.85 -29.65 39.7 -29.0 40.75 -29.25 L41.55 -29.45 41.65 -29.5 40.95 -28.15 39.9 -27.05 39.75 -27.05 Q38.5 -27.1 37.4 -27.9 35.85 -29.0 35.55 -30.85 35.2 -32.65 36.3 -34.2 37.15 -35.35 38.35 -35.8" fill="#00ccff" fill-rule="evenodd" stroke="none"/>
    <path d="M40.8 -34.05 L40.85 -33.95 Q41.55 -33.15 41.75 -31.9 41.95 -30.6 41.65 -29.5 L41.55 -29.45 40.75 -29.25 Q39.7 -29.0 38.85 -29.65 38.05 -30.15 37.95 -31.25 37.75 -32.25 38.25 -33.05 38.85 -33.85 39.95 -34.05 L40.8 -34.05" fill="#000000" fill-rule="evenodd" stroke="none"/>
    <path d="M46.8 -30.35 L52.4 -28.65 47.65 -25.55 47.45 -27.85 46.8 -30.35 M52.4 -28.65 L47.45 -27.85 52.4 -28.65" fill="#ffcc00" fill-rule="evenodd" stroke="none"/>
    <path d="M39.9 -27.05 Q39.0 -26.35 37.7 -26.15 35.7 -25.75 33.95 -26.95 L33.15 -27.65 Q32.2 -28.7 31.95 -30.2 31.55 -32.2 32.75 -33.95 33.95 -35.6 36.0 -35.95 L38.35 -35.8 38.9 -35.6 39.75 -35.15 40.8 -34.05 40.85 -33.95 Q41.55 -33.15 41.75 -31.9 41.95 -30.6 41.65 -29.5 L40.95 -28.15 39.9 -27.05 M41.65 -29.5 L41.55 -29.45 40.75 -29.25 Q39.7 -29.0 38.85 -29.65 38.05 -30.15 37.95 -31.25 37.75 -32.25 38.25 -33.05 38.85 -33.85 39.95 -34.05 L40.8 -34.05 M47.65 -25.55 L47.45 -27.85 46.8 -30.35 M47.45 -27.85 L52.4 -28.65" fill="none" stroke="#000000" stroke-linecap="round" stroke-linejoin="round" stroke-width="1.0"/>
    <path d="M47.65 -25.55 Q47.75 -22.2 46.35 -19.15 L46.7 -18.85 Q49.5 -15.45 50.35 -10.65 51.55 -3.5 47.4 2.4 43.1 8.3 36.0 9.5 L33.6 9.75 Q27.8 9.95 23.05 6.5 17.1 2.3 15.9 -4.85 14.7 -11.95 18.95 -17.85 L19.4 -18.45 Q18.35 -20.45 17.95 -22.85 16.9 -28.95 20.5 -34.05 24.1 -39.05 30.2 -40.1 36.35 -41.15 41.4 -37.55 L42.4 -36.7 Q45.5 -34.1 46.8 -30.35 L52.4 -28.65 47.65 -25.55 Z" fill="none" stroke="#000000" stroke-linecap="round" stroke-linejoin="round" stroke-width="2.0"/>
  </g>
</svg>
