<?xml version="1.0" encoding="UTF-8" standalone="no"?>
<svg xmlns:ffdec="https://www.free-decompiler.com/flash" xmlns:xlink="http://www.w3.org/1999/xlink" ffdec:objectType="shape" height="56.35px" width="37.35px" xmlns="http://www.w3.org/2000/svg">
  <g transform="matrix(1.0, 0.0, 0.0, 1.0, -21.35, 32.55)">
    <path d="M45.0 16.4 L46.85 22.8 56.7 22.6" fill="none" stroke="#000000" stroke-linecap="round" stroke-linejoin="round" stroke-width="2.0"/>
    <path d="M44.25 -19.25 L42.2 -18.05 Q40.25 -17.4 38.35 -18.35 L37.9 -18.6 Q36.45 -19.55 35.95 -21.3 35.3 -23.25 36.25 -25.15 L37.35 -26.55 37.8 -26.9 39.2 -27.55 40.65 -27.8 41.6 -27.7 Q40.4 -27.1 39.75 -25.85 38.85 -24.15 39.45 -22.4 40.0 -20.6 41.65 -19.75 42.85 -19.15 44.15 -19.25 L44.25 -19.25" fill="#ffffff" fill-rule="evenodd" stroke="none"/>
    <path d="M44.25 -19.25 L44.15 -19.25 Q42.85 -19.15 41.65 -19.75 40.0 -20.6 39.45 -22.4 38.85 -24.15 39.75 -25.85 40.4 -27.1 41.6 -27.7 L42.1 -27.6 43.05 -27.25 44.2 -26.3 43.35 -26.2 Q42.3 -25.9 41.85 -24.95 41.4 -24.1 41.75 -23.15 42.0 -22.1 42.85 -21.65 L44.85 -21.5 45.55 -21.8 45.65 -21.85 45.15 -20.45 44.25 -19.25" fill="#00ccff" fill-rule="evenodd" stroke="none"/>
    <path d="M44.2 -26.3 Q45.05 -25.55 45.45 -24.3 45.85 -23.05 45.65 -21.85 L45.55 -21.8 44.85 -21.5 42.85 -21.65 Q42.0 -22.1 41.75 -23.15 41.4 -24.1 41.85 -24.95 42.3 -25.9 43.35 -26.2 L44.2 -26.3" fill="#000000" fill-rule="evenodd" stroke="none"/>
    <path d="M50.65 -23.45 L56.4 -22.5 52.15 -18.75 51.65 -21.0 50.65 -23.45 M56.4 -22.5 L51.65 -21.0 56.4 -22.5" fill="#ffcc00" fill-rule="evenodd" stroke="none"/>
    <path d="M41.6 -27.7 L40.65 -27.8 39.2 -27.55 37.8 -26.9 37.35 -26.55 36.25 -25.15 Q35.3 -23.25 35.95 -21.3 36.45 -19.55 37.9 -18.6 L38.35 -18.35 Q40.25 -17.4 42.2 -18.05 L44.25 -19.25 45.15 -20.45 45.65 -21.85 45.55 -21.8 44.85 -21.5 42.85 -21.65 Q42.0 -22.1 41.75 -23.15 41.4 -24.1 41.85 -24.95 42.3 -25.9 43.35 -26.2 L44.2 -26.3 Q45.05 -25.55 45.45 -24.3 45.85 -23.05 45.65 -21.85 M41.6 -27.7 L42.1 -27.6 43.05 -27.25 44.2 -26.3 M52.15 -18.75 L51.65 -21.0 50.65 -23.45 M51.65 -21.0 L56.4 -22.5" fill="none" stroke="#000000" stroke-linecap="round" stroke-linejoin="round" stroke-width="1.0"/>
    <path d="M52.15 -18.75 Q52.7 -15.45 51.75 -12.25 L52.1 -12.0 Q55.4 -9.0 56.85 -4.35 59.0 2.55 55.65 8.95 52.25 15.35 45.35 17.5 L43.0 18.1 Q37.35 19.05 32.1 16.3 25.65 12.95 23.5 6.05 21.35 -0.85 24.7 -7.25 L25.1 -7.9 Q23.75 -9.75 23.05 -12.1 21.2 -18.0 24.1 -23.5 26.95 -29.0 32.85 -30.85 38.8 -32.7 44.3 -29.8 L45.45 -29.1 Q48.85 -26.95 50.65 -23.45 L56.4 -22.5 52.15 -18.75 Z" fill="none" stroke="#000000" stroke-linecap="round" stroke-linejoin="round" stroke-width="2.0"/>
  </g>
</svg>
