<?xml version="1.0" encoding="UTF-8" standalone="no"?>
<svg xmlns:ffdec="https://www.free-decompiler.com/flash" xmlns:xlink="http://www.w3.org/1999/xlink" ffdec:objectType="shape" height="57.25px" width="38.1px" xmlns="http://www.w3.org/2000/svg">
  <g transform="matrix(1.0, 0.0, 0.0, 1.0, -25.65, 30.25)">
    <path d="M47.2 19.3 L48.35 25.85 60.0 26.0" fill="none" stroke="#000000" stroke-linecap="round" stroke-linejoin="round" stroke-width="2.0"/>
    <path d="M50.35 -16.2 Q49.4 -15.45 48.15 -15.2 46.25 -14.8 44.65 -15.8 L44.45 -15.95 Q42.7 -17.1 42.3 -19.15 41.85 -21.15 43.05 -22.85 43.7 -23.85 44.65 -24.4 L44.95 -24.55 46.25 -25.0 46.65 -25.05 46.75 -25.05 46.9 -25.05 47.9 -25.05 48.6 -24.85 Q47.4 -24.4 46.6 -23.25 45.55 -21.65 45.95 -19.85 46.3 -18.0 47.8 -16.95 48.95 -16.25 50.25 -16.2 L50.35 -16.2" fill="#ffffff" fill-rule="evenodd" stroke="none"/>
    <path d="M48.6 -24.85 L49.95 -24.25 50.1 -24.15 50.85 -23.5 51.05 -23.2 50.2 -23.2 Q49.15 -22.95 48.55 -22.15 48.05 -21.35 48.3 -20.3 48.45 -19.25 49.25 -18.75 50.15 -18.15 51.1 -18.4 L51.95 -18.6 52.0 -18.65 51.35 -17.35 50.35 -16.2 50.25 -16.2 Q48.95 -16.25 47.8 -16.95 46.3 -18.0 45.95 -19.85 45.55 -21.65 46.6 -23.25 47.4 -24.4 48.6 -24.85" fill="#00ccff" fill-rule="evenodd" stroke="none"/>
    <path d="M51.05 -23.2 L51.45 -22.7 52.1 -21.05 Q52.35 -19.8 52.0 -18.65 L51.95 -18.6 51.1 -18.4 Q50.15 -18.15 49.25 -18.75 48.45 -19.25 48.3 -20.3 48.05 -21.35 48.55 -22.15 49.15 -22.95 50.2 -23.2 L51.05 -23.2" fill="#000000" fill-rule="evenodd" stroke="none"/>
    <path d="M57.2 -19.65 L62.75 -18.15 58.2 -14.9 57.9 -17.2 57.2 -19.65 M62.75 -18.15 L57.9 -17.2 62.75 -18.15" fill="#ffcc00" fill-rule="evenodd" stroke="none"/>
    <path d="M58.2 -14.9 Q58.4 -11.5 57.05 -8.45 L57.4 -8.15 Q60.3 -4.85 61.25 -0.05 62.65 7.05 58.65 13.1 54.55 19.05 47.45 20.45 L45.05 20.75 Q39.35 21.15 34.4 17.85 28.4 13.8 27.0 6.7 25.6 -0.4 29.65 -6.4 L30.1 -7.05 Q28.95 -9.0 28.5 -11.4 27.3 -17.45 30.8 -22.6 34.3 -27.75 40.35 -28.95 46.45 -30.15 51.5 -26.7 L52.6 -25.85 Q55.8 -23.35 57.2 -19.65 L62.75 -18.15 58.2 -14.9" fill="none" stroke="#000000" stroke-linecap="round" stroke-linejoin="round" stroke-width="2.0"/>
    <path d="M58.2 -14.9 L57.9 -17.2 57.2 -19.65 M50.35 -16.2 Q49.4 -15.45 48.15 -15.2 46.25 -14.8 44.65 -15.8 L44.45 -15.95 Q42.7 -17.1 42.3 -19.15 41.85 -21.15 43.05 -22.85 43.7 -23.85 44.65 -24.4 L44.95 -24.55 46.25 -25.0 46.65 -25.05 46.75 -25.05 46.9 -25.05 47.9 -25.05 48.6 -24.85 49.95 -24.25 50.1 -24.15 50.85 -23.5 51.05 -23.2 51.45 -22.7 52.1 -21.05 Q52.35 -19.8 52.0 -18.65 L51.35 -17.35 50.35 -16.2 M52.0 -18.65 L51.95 -18.6 51.1 -18.4 Q50.15 -18.15 49.25 -18.75 48.45 -19.25 48.3 -20.3 48.05 -21.35 48.55 -22.15 49.15 -22.95 50.2 -23.2 L51.05 -23.2 M57.9 -17.2 L62.75 -18.15" fill="none" stroke="#000000" stroke-linecap="round" stroke-linejoin="round" stroke-width="1.0"/>
  </g>
</svg>
