<?xml version="1.0" encoding="UTF-8" standalone="no"?>
<svg xmlns:ffdec="https://www.free-decompiler.com/flash" xmlns:xlink="http://www.w3.org/1999/xlink" ffdec:objectType="shape" height="57.35px" width="40.35px" xmlns="http://www.w3.org/2000/svg">
  <g transform="matrix(1.0, 0.0, 0.0, 1.0, -27.85, 30.35)">
    <path d="M47.2 19.3 L47.35 25.85 60.0 26.0" fill="none" stroke="#000000" stroke-linecap="round" stroke-linejoin="round" stroke-width="2.0"/>
    <path d="M56.1 -22.35 Q56.8 -21.4 56.9 -20.1 57.0 -19.05 56.7 -18.1 L56.55 -17.7 55.7 -17.55 Q54.65 -17.4 53.85 -18.1 53.1 -18.75 53.05 -19.8 52.9 -20.85 53.55 -21.6 54.2 -22.35 55.3 -22.45 L56.1 -22.35" fill="#000000" fill-rule="evenodd" stroke="none"/>
    <path d="M56.55 -17.7 L55.8 -16.45 54.65 -15.5 54.6 -15.5 Q53.25 -15.65 52.2 -16.5 50.8 -17.7 50.65 -19.6 50.45 -21.45 51.7 -22.9 52.6 -23.95 53.9 -24.25 54.65 -24.0 55.2 -23.55 L56.1 -22.35 55.3 -22.45 Q54.2 -22.35 53.55 -21.6 52.9 -20.85 53.05 -19.8 53.1 -18.75 53.85 -18.1 54.65 -17.4 55.7 -17.55 L56.55 -17.7" fill="#00ccff" fill-rule="evenodd" stroke="none"/>
    <path d="M54.65 -15.5 Q53.65 -14.85 52.35 -14.75 50.3 -14.55 48.7 -15.85 47.55 -16.85 47.15 -18.3 L47.0 -19.3 Q46.85 -20.6 47.35 -21.7 L47.9 -22.65 48.1 -22.95 48.15 -23.0 Q49.5 -24.5 51.55 -24.65 52.85 -24.75 53.9 -24.25 52.6 -23.95 51.7 -22.9 50.45 -21.45 50.65 -19.6 50.8 -17.7 52.2 -16.5 53.25 -15.65 54.6 -15.5 L54.65 -15.5" fill="#ffffff" fill-rule="evenodd" stroke="none"/>
    <path d="M61.85 -18.15 L67.2 -16.0 62.3 -13.3 62.25 -15.6 61.85 -18.15 M67.2 -16.0 L62.25 -15.6 67.2 -16.0" fill="#ffcc00" fill-rule="evenodd" stroke="none"/>
    <path d="M62.3 -13.3 Q62.1 -9.95 60.45 -7.05 L60.7 -6.75 Q63.25 -3.1 63.65 1.75 64.2 8.95 59.55 14.5 54.8 20.0 47.6 20.55 L45.2 20.6 Q39.45 20.3 34.95 16.45 29.45 11.75 28.9 4.55 28.3 -2.65 33.0 -8.15 L33.55 -8.7 Q32.65 -10.8 32.45 -13.2 32.0 -19.4 36.0 -24.1 40.05 -28.8 46.2 -29.3 52.4 -29.8 57.1 -25.8 L58.05 -24.85 Q60.9 -22.0 61.85 -18.15 L67.2 -16.0 62.3 -13.3" fill="none" stroke="#000000" stroke-linecap="round" stroke-linejoin="round" stroke-width="2.0"/>
    <path d="M62.3 -13.3 L62.25 -15.6 61.85 -18.15 M56.1 -22.35 Q56.8 -21.4 56.9 -20.1 57.0 -19.05 56.7 -18.1 L56.55 -17.7 55.8 -16.45 54.65 -15.5 Q53.65 -14.85 52.35 -14.75 50.3 -14.55 48.7 -15.85 47.55 -16.85 47.15 -18.3 L47.0 -19.3 Q46.85 -20.6 47.35 -21.7 L47.9 -22.65 48.1 -22.95 48.15 -23.0 Q49.5 -24.5 51.55 -24.65 52.85 -24.75 53.9 -24.25 54.65 -24.0 55.2 -23.55 L56.1 -22.35 55.3 -22.45 Q54.2 -22.35 53.55 -21.6 52.9 -20.85 53.05 -19.8 53.1 -18.75 53.85 -18.1 54.65 -17.4 55.7 -17.55 L56.55 -17.7 M62.25 -15.6 L67.2 -16.0" fill="none" stroke="#000000" stroke-linecap="round" stroke-linejoin="round" stroke-width="1.0"/>
  </g>
</svg>
