<?xml version="1.0" encoding="UTF-8" standalone="no"?>
<svg xmlns:ffdec="https://www.free-decompiler.com/flash" xmlns:xlink="http://www.w3.org/1999/xlink" ffdec:objectType="shape" height="58.05px" width="41.55px" xmlns="http://www.w3.org/2000/svg">
  <g transform="matrix(1.0, 0.0, 0.0, 1.0, 18.85, 30.0)">
    <path d="M-1.05 21.05 L-1.4 26.2 Q3.45 24.9 8.8 27.05" fill="none" stroke="#000000" stroke-linecap="round" stroke-linejoin="round" stroke-width="2.0"/>
    <path d="M10.9 -21.55 Q11.5 -20.6 11.55 -19.3 11.55 -17.95 11.05 -16.9 L10.2 -16.75 Q9.15 -16.7 8.35 -17.4 7.6 -18.1 7.65 -19.2 7.55 -20.25 8.25 -20.9 8.95 -21.65 10.05 -21.7 L10.9 -21.55" fill="#000000" fill-rule="evenodd" stroke="none"/>
    <path d="M11.05 -16.9 L10.65 -16.1 10.6 -16.05 10.4 -15.85 10.25 -15.65 9.05 -14.8 Q7.65 -14.9 6.6 -15.9 5.3 -17.2 5.25 -19.15 5.15 -20.95 6.45 -22.35 7.45 -23.4 8.75 -23.55 L9.0 -23.45 10.0 -22.8 10.6 -22.0 10.9 -21.55 10.05 -21.7 Q8.95 -21.65 8.25 -20.9 7.55 -20.25 7.65 -19.2 7.6 -18.1 8.35 -17.4 9.15 -16.7 10.2 -16.75 L11.05 -16.9" fill="#00ccff" fill-rule="evenodd" stroke="none"/>
    <path d="M16.4 -16.95 L21.7 -14.5 16.55 -12.05 16.65 -14.4 16.4 -16.95 M21.7 -14.5 L16.65 -14.4 21.7 -14.5" fill="#ffcc00" fill-rule="evenodd" stroke="none"/>
    <path d="M9.05 -14.8 L8.45 -14.5 7.85 -14.35 7.45 -14.25 6.7 -14.2 6.65 -14.15 Q4.65 -14.1 3.1 -15.45 1.6 -16.85 1.55 -19.0 1.45 -21.05 2.85 -22.6 4.3 -24.05 6.4 -24.1 L6.8 -24.05 8.35 -23.7 8.75 -23.55 Q7.45 -23.4 6.45 -22.35 5.15 -20.95 5.25 -19.15 5.3 -17.2 6.6 -15.9 7.65 -14.9 9.05 -14.8" fill="#ffffff" fill-rule="evenodd" stroke="none"/>
    <path d="M16.55 -12.05 Q16.2 -8.7 14.4 -5.95 L14.65 -5.55 Q17.0 -1.8 17.1 3.05 17.25 10.35 12.35 15.65 7.3 20.85 0.1 21.0 L-1.05 21.0 -2.35 20.95 Q-8.1 20.35 -12.35 16.3 -17.7 11.3 -17.85 4.0 -18.05 -3.25 -13.05 -8.45 L-12.45 -9.0 Q-13.25 -11.15 -13.3 -13.6 -13.45 -19.8 -9.2 -24.25 -4.85 -28.85 1.3 -29.0 7.55 -29.15 12.0 -24.85 L12.9 -23.85 Q15.65 -20.85 16.4 -16.95 L21.7 -14.5 16.55 -12.05" fill="none" stroke="#000000" stroke-linecap="round" stroke-linejoin="round" stroke-width="2.0"/>
    <path d="M16.55 -12.05 L16.65 -14.4 16.4 -16.95 M10.9 -21.55 Q11.5 -20.6 11.55 -19.3 11.55 -17.95 11.05 -16.9 L10.65 -16.1 10.6 -16.05 10.4 -15.85 10.25 -15.65 9.05 -14.8 8.45 -14.5 7.85 -14.35 7.45 -14.25 6.7 -14.2 6.65 -14.15 Q4.65 -14.1 3.1 -15.45 1.6 -16.85 1.55 -19.0 1.45 -21.05 2.85 -22.6 4.3 -24.05 6.4 -24.1 L6.8 -24.05 8.35 -23.7 8.75 -23.55 9.0 -23.45 10.0 -22.8 10.6 -22.0 10.9 -21.55 10.05 -21.7 Q8.95 -21.65 8.25 -20.9 7.55 -20.25 7.65 -19.2 7.6 -18.1 8.35 -17.4 9.15 -16.7 10.2 -16.75 L11.05 -16.9 M16.65 -14.4 L21.7 -14.5" fill="none" stroke="#000000" stroke-linecap="round" stroke-linejoin="round" stroke-width="1.0"/>
  </g>
</svg>
