<?xml version="1.0" encoding="UTF-8" standalone="no"?>
<svg xmlns:ffdec="https://www.free-decompiler.com/flash" xmlns:xlink="http://www.w3.org/1999/xlink" ffdec:objectType="shape" height="11.1px" width="11.05px" xmlns="http://www.w3.org/2000/svg">
  <g transform="matrix(1.0, 0.0, 0.0, 1.0, -1.2, 24.55)">
    <path d="M5.35 -14.2 Q4.2 -14.55 3.2 -15.45 1.75 -16.9 1.7 -18.95 1.65 -21.0 3.15 -22.5 4.55 -24.0 6.6 -24.05 8.25 -24.1 9.55 -23.1 L10.15 -22.7 10.2 -22.65 10.3 -22.55 10.95 -21.7 11.1 -21.45 11.15 -21.2 11.2 -21.15 11.45 -20.6 Q10.35 -21.4 8.9 -21.35 7.05 -21.3 5.8 -19.95 4.45 -18.6 4.5 -16.75 4.55 -15.3 5.35 -14.2" fill="#ffffff" fill-rule="evenodd" stroke="none"/>
    <path d="M5.35 -14.2 Q4.55 -15.3 4.5 -16.75 4.45 -18.6 5.8 -19.95 7.05 -21.3 8.9 -21.35 10.35 -21.4 11.45 -20.6 L11.7 -19.55 11.7 -19.15 11.75 -18.4 11.5 -17.65 10.95 -18.3 Q10.2 -19.05 9.2 -19.05 8.2 -19.05 7.55 -18.3 6.8 -17.55 6.75 -16.6 6.75 -15.5 7.55 -14.8 L8.3 -14.25 6.8 -13.95 5.35 -14.2" fill="#00ccff" fill-rule="evenodd" stroke="none"/>
    <path d="M11.5 -17.65 L10.8 -16.15 10.3 -15.55 9.15 -14.6 8.95 -14.5 8.3 -14.25 7.55 -14.8 Q6.75 -15.5 6.75 -16.6 6.8 -17.55 7.55 -18.3 8.2 -19.05 9.2 -19.05 10.2 -19.05 10.95 -18.3 L11.5 -17.65" fill="#000000" fill-rule="evenodd" stroke="none"/>
    <path d="M10.95 -21.7 L10.3 -22.55 10.2 -22.65 10.15 -22.7 9.55 -23.1 Q8.25 -24.1 6.6 -24.05 4.55 -24.0 3.15 -22.5 1.65 -21.0 1.7 -18.95 1.75 -16.9 3.2 -15.45 4.2 -14.55 5.35 -14.2 L6.8 -13.95 8.3 -14.25 8.95 -14.5 9.15 -14.6 10.3 -15.55 10.8 -16.15 11.5 -17.65 10.95 -18.3 Q10.2 -19.05 9.2 -19.05 8.2 -19.05 7.55 -18.3 6.8 -17.55 6.75 -16.6 6.75 -15.5 7.55 -14.8 L8.3 -14.25 M11.45 -20.6 L11.2 -21.15 11.15 -21.2 M11.45 -20.6 L11.7 -19.55 11.7 -19.15 11.75 -18.4 11.5 -17.65" fill="none" stroke="#000000" stroke-linecap="round" stroke-linejoin="round" stroke-width="1.0"/>
  </g>
</svg>
