<?xml version="1.0" encoding="UTF-8" standalone="no"?>
<svg xmlns:ffdec="https://www.free-decompiler.com/flash" xmlns:xlink="http://www.w3.org/1999/xlink" ffdec:objectType="shape" height="56.55px" width="43.7px" xmlns="http://www.w3.org/2000/svg">
  <g transform="matrix(1.0, 0.0, 0.0, 1.0, 19.35, 25.55)">
    <path d="M-3.85 24.85 L-4.85 29.9 5.4 30.0" fill="none" stroke="#000000" stroke-linecap="round" stroke-linejoin="round" stroke-width="2.0"/>
    <path d="M13.55 -15.85 L12.75 -16.1 Q11.65 -16.2 10.9 -15.55 10.1 -14.95 10.05 -13.9 9.9 -12.85 10.5 -12.05 11.2 -11.25 12.25 -11.2 L13.1 -11.2 12.6 -10.5 12.55 -10.45 12.35 -10.25 12.15 -10.1 Q11.5 -9.6 10.85 -9.35 9.5 -9.7 8.6 -10.8 7.45 -12.25 7.65 -14.15 7.8 -16.0 9.3 -17.2 10.4 -18.1 11.7 -18.1 L11.95 -17.95 12.85 -17.2 13.35 -16.35 13.55 -15.85" fill="#00ccff" fill-rule="evenodd" stroke="none"/>
    <path d="M13.1 -11.2 L12.25 -11.2 Q11.2 -11.25 10.5 -12.05 9.9 -12.85 10.05 -13.9 10.1 -14.95 10.9 -15.55 11.65 -16.2 12.75 -16.1 L13.55 -15.85 Q14.05 -14.8 13.9 -13.5 13.75 -12.2 13.1 -11.2" fill="#000000" fill-rule="evenodd" stroke="none"/>
    <path d="M11.7 -18.1 Q10.4 -18.1 9.3 -17.2 7.8 -16.0 7.65 -14.15 7.45 -12.25 8.6 -10.8 9.5 -9.7 10.85 -9.35 L10.25 -9.15 9.65 -9.05 9.2 -9.0 8.45 -9.05 8.4 -9.05 Q6.4 -9.25 5.05 -10.8 3.75 -12.4 4.0 -14.5 4.15 -16.6 5.75 -17.9 7.35 -19.15 9.45 -18.95 L9.85 -18.85 Q10.7 -18.75 11.35 -18.3 L11.7 -18.1" fill="#ffffff" fill-rule="evenodd" stroke="none"/>
    <path d="M18.45 -10.55 L23.35 -7.45 17.95 -5.7 18.35 -8.0 18.45 -10.55 M23.35 -7.45 L18.35 -8.0 23.35 -7.45" fill="#ffcc00" fill-rule="evenodd" stroke="none"/>
    <path d="M13.1 -11.2 L12.25 -11.2 Q11.2 -11.25 10.5 -12.05 9.9 -12.85 10.05 -13.9 10.1 -14.95 10.9 -15.55 11.65 -16.2 12.75 -16.1 L13.55 -15.85 13.35 -16.35 12.85 -17.2 11.95 -17.95 11.7 -18.1 11.35 -18.3 Q10.7 -18.75 9.85 -18.85 L9.45 -18.95 Q7.35 -19.15 5.75 -17.9 4.15 -16.6 4.0 -14.5 3.75 -12.4 5.05 -10.8 6.4 -9.25 8.4 -9.05 L8.45 -9.05 9.2 -9.0 9.65 -9.05 10.25 -9.15 10.85 -9.35 Q11.5 -9.6 12.15 -10.1 L12.35 -10.25 12.55 -10.45 12.6 -10.5 13.1 -11.2 Q13.75 -12.2 13.9 -13.5 14.05 -14.8 13.55 -15.85 M17.95 -5.7 L18.35 -8.0 18.45 -10.55 M18.35 -8.0 L23.35 -7.45" fill="none" stroke="#000000" stroke-linecap="round" stroke-linejoin="round" stroke-width="1.0"/>
    <path d="M17.95 -5.7 Q17.15 -2.4 15.05 0.1 L15.25 0.5 Q17.05 4.55 16.55 9.4 15.75 16.65 10.2 21.25 4.5 25.75 -2.7 25.0 L-3.85 24.85 -5.1 24.6 Q-10.7 23.25 -14.4 18.65 -19.05 13.0 -18.25 5.75 -17.5 -1.45 -11.85 -5.95 L-11.2 -6.45 Q-11.7 -8.65 -11.45 -11.1 -10.8 -17.25 -6.0 -21.15 -1.1 -25.1 5.05 -24.45 11.25 -23.8 15.1 -18.95 L15.9 -17.85 Q18.2 -14.5 18.45 -10.55 L23.35 -7.45 17.95 -5.7 Z" fill="none" stroke="#000000" stroke-linecap="round" stroke-linejoin="round" stroke-width="2.0"/>
  </g>
</svg>
