<?xml version="1.0" encoding="UTF-8" standalone="no"?>
<svg xmlns:ffdec="https://www.free-decompiler.com/flash" xmlns:xlink="http://www.w3.org/1999/xlink" ffdec:objectType="shape" height="11.05px" width="11.05px" xmlns="http://www.w3.org/2000/svg">
  <g transform="matrix(1.0, 0.0, 0.0, 1.0, -3.3, 19.6)">
    <path d="M12.95 -16.8 L13.5 -15.85 13.6 -15.55 13.65 -15.45 13.8 -14.75 13.8 -13.95 13.1 -14.5 Q12.15 -15.05 11.2 -14.8 10.25 -14.5 9.8 -13.55 9.25 -12.65 9.5 -11.7 9.75 -10.7 10.7 -10.2 L11.55 -9.85 Q11.0 -9.45 10.2 -9.25 L8.7 -9.05 Q7.65 -9.9 7.3 -11.25 6.75 -13.05 7.7 -14.7 8.55 -16.35 10.35 -16.9 L12.95 -16.8" fill="#00ccff" fill-rule="evenodd" stroke="none"/>
    <path d="M12.95 -16.8 L10.35 -16.9 Q8.55 -16.35 7.7 -14.7 6.75 -13.05 7.3 -11.25 7.65 -9.9 8.7 -9.05 7.5 -9.1 6.4 -9.7 4.6 -10.75 4.0 -12.7 3.4 -14.7 4.45 -16.5 5.45 -18.3 7.45 -18.9 L10.5 -18.75 11.15 -18.5 11.25 -18.45 11.35 -18.4 12.25 -17.75 12.45 -17.55 12.6 -17.35 12.6 -17.3 12.95 -16.8" fill="#ffffff" fill-rule="evenodd" stroke="none"/>
    <path d="M11.55 -9.85 L10.7 -10.2 Q9.75 -10.7 9.5 -11.7 9.25 -12.65 9.8 -13.55 10.25 -14.5 11.2 -14.8 12.15 -15.05 13.1 -14.5 L13.8 -13.95 13.5 -12.35 13.2 -11.65 12.3 -10.45 12.1 -10.25 11.55 -9.85" fill="#000000" fill-rule="evenodd" stroke="none"/>
    <path d="M13.8 -13.95 L13.8 -14.75 13.65 -15.45 13.6 -15.55 13.5 -15.85 12.95 -16.8 12.6 -17.3 12.6 -17.35 M8.7 -9.05 L10.2 -9.25 Q11.0 -9.45 11.55 -9.85 L10.7 -10.2 Q9.75 -10.7 9.5 -11.7 9.25 -12.65 9.8 -13.55 10.25 -14.5 11.2 -14.8 12.15 -15.05 13.1 -14.5 L13.8 -13.95 13.5 -12.35 13.2 -11.65 12.3 -10.45 12.1 -10.25 11.55 -9.85 M12.25 -17.75 L11.35 -18.4 11.25 -18.45 11.15 -18.5 10.5 -18.75 7.45 -18.9 Q5.45 -18.3 4.45 -16.5 3.4 -14.7 4.0 -12.7 4.6 -10.75 6.4 -9.7 7.5 -9.1 8.7 -9.05" fill="none" stroke="#000000" stroke-linecap="round" stroke-linejoin="round" stroke-width="1.0"/>
  </g>
</svg>
