<?xml version="1.0" encoding="UTF-8" standalone="no"?>
<svg xmlns:ffdec="https://www.free-decompiler.com/flash" xmlns:xlink="http://www.w3.org/1999/xlink" ffdec:objectType="shape" height="50.9px" width="45.65px" xmlns="http://www.w3.org/2000/svg">
  <g transform="matrix(1.0, 0.0, 0.0, 1.0, 22.85, 26.6)">
    <path d="M11.8 -17.85 L12.0 -17.65 12.8 -16.75 13.2 -15.85 13.3 -15.3 12.55 -15.7 10.65 -15.45 Q9.8 -14.95 9.6 -13.9 9.3 -12.9 9.75 -12.0 10.35 -11.15 11.35 -10.95 L12.2 -10.85 11.6 -10.2 11.55 -10.15 11.3 -10.0 11.1 -9.85 Q10.4 -9.45 9.7 -9.3 8.4 -9.85 7.7 -11.1 6.75 -12.65 7.2 -14.5 7.65 -16.3 9.3 -17.3 10.55 -18.0 11.8 -17.85" fill="#00ccff" fill-rule="evenodd" stroke="none"/>
    <path d="M13.3 -15.3 Q13.65 -14.25 13.3 -12.95 13.0 -11.7 12.2 -10.85 L11.35 -10.95 Q10.35 -11.15 9.75 -12.0 9.3 -12.9 9.6 -13.9 9.8 -14.95 10.65 -15.45 L12.55 -15.7 13.3 -15.3" fill="#000000" fill-rule="evenodd" stroke="none"/>
    <path d="M9.7 -9.3 L9.1 -9.2 8.5 -9.2 8.0 -9.2 7.3 -9.35 7.25 -9.35 Q5.3 -9.85 4.2 -11.6 3.1 -13.35 3.65 -15.4 4.1 -17.4 5.9 -18.5 7.65 -19.5 9.7 -19.0 L10.1 -18.85 Q10.95 -18.65 11.5 -18.1 L11.8 -17.85 Q10.55 -18.0 9.3 -17.3 7.65 -16.3 7.2 -14.5 6.75 -12.65 7.7 -11.1 8.4 -9.85 9.7 -9.3" fill="#ffffff" fill-rule="evenodd" stroke="none"/>
    <path d="M17.4 -9.4 L21.8 -5.6 16.2 -4.7 16.95 -6.85 17.4 -9.4 M21.8 -5.6 L16.95 -6.85 21.8 -5.6" fill="#ffcc00" fill-rule="evenodd" stroke="none"/>
    <path d="M11.8 -17.85 L12.0 -17.65 12.8 -16.75 13.2 -15.85 13.3 -15.3 Q13.65 -14.25 13.3 -12.95 13.0 -11.7 12.2 -10.85 L11.6 -10.2 11.55 -10.15 11.3 -10.0 11.1 -9.85 Q10.4 -9.45 9.7 -9.3 L9.1 -9.2 8.5 -9.2 8.0 -9.2 7.3 -9.35 7.25 -9.35 Q5.3 -9.85 4.2 -11.6 3.1 -13.35 3.65 -15.4 4.1 -17.4 5.9 -18.5 7.65 -19.5 9.7 -19.0 L10.1 -18.85 Q10.95 -18.65 11.5 -18.1 L11.8 -17.85 M12.2 -10.85 L11.35 -10.95 Q10.35 -11.15 9.75 -12.0 9.3 -12.9 9.6 -13.9 9.8 -14.95 10.65 -15.45 L12.55 -15.7 13.3 -15.3 M16.2 -4.7 L16.95 -6.85 17.4 -9.4 M16.95 -6.85 L21.8 -5.6" fill="none" stroke="#000000" stroke-linecap="round" stroke-linejoin="round" stroke-width="1.0"/>
    <path d="M16.2 -4.7 Q14.9 -1.5 12.5 0.65 L12.65 1.1 Q13.8 5.35 12.6 10.05 10.8 17.1 4.65 20.85 -1.65 24.5 -8.65 22.75 L-9.75 22.4 -11.0 22.0 Q-16.35 19.85 -19.3 14.75 -23.1 8.5 -21.25 1.45 -19.45 -5.6 -13.2 -9.25 L-12.55 -9.65 Q-12.7 -11.85 -12.05 -14.3 -10.6 -20.25 -5.25 -23.4 0.15 -26.6 6.15 -25.1 12.2 -23.55 15.3 -18.2 L15.95 -16.95 Q17.7 -13.35 17.4 -9.4 L21.8 -5.6 16.2 -4.7 Z" fill="none" stroke="#000000" stroke-linecap="round" stroke-linejoin="round" stroke-width="2.0"/>
  </g>
</svg>
