<?xml version="1.0" encoding="UTF-8" standalone="no"?>
<svg xmlns:ffdec="https://www.free-decompiler.com/flash" xmlns:xlink="http://www.w3.org/1999/xlink" ffdec:objectType="shape" height="11.0px" width="11.0px" xmlns="http://www.w3.org/2000/svg">
  <g transform="matrix(1.0, 0.0, 0.0, 1.0, -2.85, 19.75)">
    <path d="M7.5 -9.35 Q6.35 -9.55 5.25 -10.3 3.65 -11.55 3.4 -13.6 3.1 -15.65 4.4 -17.3 5.6 -18.95 7.65 -19.25 9.25 -19.4 10.65 -18.6 L11.25 -18.3 11.35 -18.25 11.4 -18.15 12.25 -17.4 12.4 -17.15 12.55 -16.9 12.8 -16.35 Q11.7 -17.0 10.25 -16.85 8.35 -16.6 7.3 -15.05 6.15 -13.55 6.4 -11.7 6.6 -10.3 7.5 -9.35" fill="#ffffff" fill-rule="evenodd" stroke="none"/>
    <path d="M7.5 -9.35 Q6.6 -10.3 6.4 -11.7 6.15 -13.55 7.3 -15.05 8.35 -16.6 10.25 -16.85 11.7 -17.0 12.8 -16.35 L13.25 -15.35 Q13.2 -15.2 13.3 -15.0 L13.3 -14.95 13.35 -14.2 13.25 -13.4 12.6 -14.05 Q11.75 -14.75 10.8 -14.6 9.8 -14.5 9.25 -13.6 8.55 -12.8 8.65 -11.85 8.8 -10.75 9.65 -10.15 L10.4 -9.7 Q9.8 -9.4 9.0 -9.3 L7.5 -9.35" fill="#00ccff" fill-rule="evenodd" stroke="none"/>
    <path d="M10.4 -9.7 L9.65 -10.15 Q8.8 -10.75 8.65 -11.85 8.55 -12.8 9.25 -13.6 9.8 -14.5 10.8 -14.6 11.75 -14.75 12.6 -14.05 L13.25 -13.4 12.7 -11.9 12.35 -11.2 11.25 -10.2 11.05 -10.0 10.4 -9.7" fill="#000000" fill-rule="evenodd" stroke="none"/>
    <path d="M12.25 -17.4 L11.4 -18.15 11.35 -18.25 11.25 -18.3 10.65 -18.6 Q9.25 -19.4 7.65 -19.25 5.6 -18.95 4.4 -17.3 3.1 -15.65 3.4 -13.6 3.65 -11.55 5.25 -10.3 6.35 -9.55 7.5 -9.35 L9.0 -9.3 Q9.8 -9.4 10.4 -9.7 L9.65 -10.15 Q8.8 -10.75 8.65 -11.85 8.55 -12.8 9.25 -13.6 9.8 -14.5 10.8 -14.6 11.75 -14.75 12.6 -14.05 L13.25 -13.4 13.35 -14.2 13.3 -14.95 13.3 -15.0 Q13.2 -15.2 13.25 -15.35 L12.8 -16.35 12.55 -16.9 M13.25 -13.4 L12.7 -11.9 12.35 -11.2 11.25 -10.2 11.05 -10.0 10.4 -9.7" fill="none" stroke="#000000" stroke-linecap="round" stroke-linejoin="round" stroke-width="1.0"/>
  </g>
</svg>
