<?xml version="1.0" encoding="UTF-8" standalone="no"?>
<svg xmlns:ffdec="https://www.free-decompiler.com/flash" xmlns:xlink="http://www.w3.org/1999/xlink" ffdec:objectType="shape" height="52.0px" width="42.0px" xmlns="http://www.w3.org/2000/svg">
  <g transform="matrix(1.0, 0.0, 0.0, 1.0, 18.75, 34.0)">
    <path d="M8.75 -27.75 Q8.35 -27.6 8.0 -27.25 7.25 -26.5 7.25 -25.5 7.25 -24.45 8.0 -23.75 8.75 -23.0 9.75 -23.0 10.8 -23.0 11.5 -23.75 L12.05 -24.45 12.25 -23.0 12.05 -21.5 Q10.95 -20.75 9.5 -20.75 7.65 -20.75 6.3 -22.05 5.0 -23.35 5.0 -25.25 5.0 -26.65 5.75 -27.75 L7.25 -28.0 8.75 -27.75" fill="#00ccff" fill-rule="evenodd" stroke="none"/>
    <path d="M12.05 -24.45 L11.5 -23.75 Q10.8 -23.0 9.75 -23.0 8.75 -23.0 8.0 -23.75 7.25 -24.45 7.25 -25.5 7.25 -26.5 8.0 -27.25 8.35 -27.6 8.75 -27.75 9.9 -27.45 10.8 -26.55 11.7 -25.6 12.05 -24.45" fill="#000000" fill-rule="evenodd" stroke="none"/>
    <path d="M5.75 -27.75 Q5.0 -26.65 5.0 -25.25 5.0 -23.35 6.3 -22.05 7.65 -20.75 9.5 -20.75 10.95 -20.75 12.05 -21.5 11.7 -20.35 10.8 -19.45 9.35 -18.0 7.25 -18.0 5.2 -18.0 3.7 -19.45 2.25 -20.9 2.25 -23.0 2.25 -25.05 3.7 -26.55 4.65 -27.45 5.75 -27.75" fill="#ffffff" fill-rule="evenodd" stroke="none"/>
    <path d="M17.05 -20.6 L22.25 -18.0 17.1 -15.7 17.25 -18.0 17.05 -20.6 M22.25 -18.0 L17.25 -18.0 22.25 -18.0" fill="#ffcc00" fill-rule="evenodd" stroke="none"/>
    <path d="M17.1 -15.7 Q16.65 -12.35 14.75 -9.6 17.25 -5.6 17.25 -0.5 17.25 6.75 12.15 11.9 7.0 17.0 -0.25 17.0 L-2.7 16.85 Q-8.4 16.1 -12.6 11.9 -17.75 6.75 -17.75 -0.5 -17.75 -7.75 -12.6 -12.85 L-12.05 -13.4 Q-12.75 -15.55 -12.75 -18.0 -12.75 -24.2 -8.35 -28.6 -3.95 -33.0 2.25 -33.0 8.5 -33.0 12.85 -28.6 16.3 -25.15 17.05 -20.6 L22.25 -18.0 17.1 -15.7" fill="none" stroke="#000000" stroke-linecap="round" stroke-linejoin="round" stroke-width="2.0"/>
    <path d="M8.75 -27.75 Q8.35 -27.6 8.0 -27.25 7.25 -26.5 7.25 -25.5 7.25 -24.45 8.0 -23.75 8.75 -23.0 9.75 -23.0 10.8 -23.0 11.5 -23.75 L12.05 -24.45 Q11.7 -25.6 10.8 -26.55 9.9 -27.45 8.75 -27.75 L7.25 -28.0 5.75 -27.75 Q4.65 -27.45 3.7 -26.55 2.25 -25.05 2.25 -23.0 2.25 -20.9 3.7 -19.45 5.2 -18.0 7.25 -18.0 9.35 -18.0 10.8 -19.45 11.7 -20.35 12.05 -21.5 L12.25 -23.0 12.05 -24.45 M17.1 -15.7 L17.25 -18.0 17.05 -20.6 M17.25 -18.0 L22.25 -18.0" fill="none" stroke="#000000" stroke-linecap="round" stroke-linejoin="round" stroke-width="1.0"/>
  </g>
</svg>
