<?xml version="1.0" encoding="UTF-8" standalone="no"?>
<svg xmlns:ffdec="https://www.free-decompiler.com/flash" xmlns:xlink="http://www.w3.org/1999/xlink" ffdec:objectType="shape" height="14.5px" width="19.25px" xmlns="http://www.w3.org/2000/svg">
  <g transform="matrix(1.0, 0.0, 0.0, 1.0, 9.6, 7.25)">
    <path d="M-2.8 5.5 L-2.75 5.85 -2.85 5.5 -2.8 5.5" fill="#0099ff" fill-rule="evenodd" stroke="none"/>
    <path d="M2.95 -1.05 L3.4 -2.2 Q3.4 -4.05 1.4 -4.15 -0.6 -4.3 -0.6 -2.25 L-0.35 -1.25 Q0.2 -0.25 1.4 -0.25 2.3 -0.25 2.95 -1.05 M7.1 -2.8 Q8.65 -0.55 8.65 2.15 8.65 3.8 8.15 4.25 7.35 5.05 3.9 5.75 L-2.75 5.85 -4.1 6.25 Q-5.9 6.25 -7.4 4.0 -8.6 2.25 -8.6 1.6 L-4.85 -2.15 Q-0.95 -5.75 0.15 -6.25 4.9 -6.05 7.1 -2.8 M5.95 3.2 L6.4 2.05 Q6.4 0.2 4.4 0.1 2.4 -0.05 2.4 2.0 L2.4 2.05 2.65 3.0 Q3.2 4.0 4.4 4.0 5.3 4.0 5.95 3.2 M-1.05 4.4 Q-0.55 5.0 0.4 5.0 1.3 5.0 1.95 4.2 L2.4 3.05 2.3 2.15 Q1.9 0.9 0.4 1.0 -0.95 1.05 -1.35 1.95 -1.9 1.4 -2.95 1.3 -5.1 1.1 -5.1 3.25 L-4.8 4.4 Q-4.25 5.5 -2.85 5.5 L-2.75 5.85 -2.8 5.5 Q-1.95 5.5 -1.35 4.8 L-1.05 4.4" fill="#ff51ff" fill-rule="evenodd" stroke="none"/>
    <path d="M5.95 3.2 Q5.3 4.0 4.4 4.0 3.2 4.0 2.65 3.0 L2.4 2.05 2.4 2.0 Q2.4 -0.05 4.4 0.1 6.4 0.2 6.4 2.05 L5.95 3.2 M-1.05 4.4 L-1.35 4.8 Q-1.95 5.5 -2.8 5.5 L-2.85 5.5 Q-4.25 5.5 -4.8 4.4 L-5.1 3.25 Q-5.1 1.1 -2.95 1.3 -1.9 1.4 -1.35 1.95 L-1.6 3.0 -1.35 4.0 -1.05 4.4" fill="#a60e9f" fill-rule="evenodd" stroke="none"/>
    <path d="M2.95 -1.05 Q2.3 -0.25 1.4 -0.25 0.2 -0.25 -0.35 -1.25 L-0.6 -2.25 Q-0.6 -4.3 1.4 -4.15 3.4 -4.05 3.4 -2.2 L2.95 -1.05 M-1.35 1.95 Q-0.95 1.05 0.4 1.0 1.9 0.9 2.3 2.15 L2.4 3.05 1.95 4.2 Q1.3 5.0 0.4 5.0 -0.55 5.0 -1.05 4.4 L-1.35 4.0 -1.6 3.0 -1.35 1.95" fill="#ffb0ff" fill-rule="evenodd" stroke="none"/>
    <path d="M7.1 -2.8 Q8.65 -0.55 8.65 2.15 8.65 3.8 8.15 4.25 7.35 5.05 3.9 5.75 L-2.75 5.85 -4.1 6.25 Q-5.9 6.25 -7.4 4.0 -8.6 2.25 -8.6 1.6 L-4.85 -2.15 Q-0.95 -5.75 0.15 -6.25 4.9 -6.05 7.1 -2.8 Z" fill="none" stroke="#000000" stroke-linecap="round" stroke-linejoin="round" stroke-width="2.0"/>
  </g>
</svg>
