<?xml version="1.0" encoding="UTF-8" standalone="no"?>
<svg xmlns:ffdec="https://www.free-decompiler.com/flash" xmlns:xlink="http://www.w3.org/1999/xlink" ffdec:objectType="shape" height="120.0px" width="110.0px" xmlns="http://www.w3.org/2000/svg">
  <g transform="matrix(1.0, 0.0, 0.0, 1.0, 75.0, 60.0)">
    <path d="M-4.0 24.0 L-55.0 24.0 -55.0 60.0 -4.0 60.0 -4.0 24.0 -4.0 24.0" fill="#000000" fill-rule="evenodd" stroke="none"/>
    <path d="M-5.0 0.0 L-4.45 0.0 Q3.5 0.2 9.15 5.85 14.8 11.5 15.0 19.5 L15.0 30.55 Q14.8 38.5 9.15 44.15 3.45 49.85 -4.5 50.0 L-55.0 50.0 -55.5 50.0 Q-63.5 49.8 -69.15 44.15 -74.8 38.5 -75.0 30.55 L-75.0 19.5 Q-74.8 11.5 -69.15 5.85 -63.5 0.2 -55.5 0.0 L-55.0 0.0 -5.0 0.0" fill="#ffcc33" fill-rule="evenodd" stroke="none"/>
    <path d="M34.5 -59.5 L34.5 -28.5 Q34.5 -24.65 33.0 -21.1 31.55 -17.7 28.95 -15.05 26.3 -12.45 22.9 -11.0 19.35 -9.5 15.5 -9.5 L5.0 -9.5 Q1.05 -9.5 -1.7 -6.7 -4.3 -4.15 -4.5 -0.5 L-54.5 -0.5 -54.5 -35.95 Q-54.2 -40.8 -52.1 -45.2 -50.1 -49.45 -46.65 -52.7 -43.2 -55.9 -38.9 -57.7 -34.4 -59.5 -29.5 -59.5 L34.5 -59.5 34.5 -59.5" fill="url(#gradient0)" fill-rule="evenodd" stroke="none"/>
    <path d="M34.5 -59.5 L34.5 -28.5 Q34.5 -24.65 33.0 -21.1 31.55 -17.7 28.95 -15.05 26.3 -12.45 22.9 -11.0 19.35 -9.5 15.5 -9.5 L5.0 -9.5 Q1.05 -9.5 -1.7 -6.7 -4.3 -4.15 -4.5 -0.5 L-54.5 -0.5 -54.5 -35.95 Q-54.2 -40.8 -52.1 -45.2 -50.1 -49.45 -46.65 -52.7 -43.2 -55.9 -38.9 -57.7 -34.4 -59.5 -29.5 -59.5 L34.5 -59.5 34.5 -59.5 Z" fill="none" stroke="#000000" stroke-linecap="round" stroke-linejoin="round" stroke-width="1.0"/>
    <path d="M-34.95 15.0 Q-34.5 14.4 -34.5 13.9 -34.5 11.8 -36.5 11.85 -38.5 11.85 -38.5 13.85 L-38.25 14.9 Q-37.75 15.8 -36.5 15.8 -35.6 15.8 -34.95 15.0 M-35.85 23.2 Q-36.35 22.55 -37.5 22.45 -39.5 22.25 -39.5 24.35 L-39.2 25.4 Q-38.7 26.3 -37.5 26.3 -36.65 26.3 -36.0 25.6 -35.45 26.55 -34.25 26.55 -33.3 26.55 -32.7 25.8 -32.25 25.2 -32.25 24.65 -32.25 22.9 -34.25 22.7 -35.35 22.6 -35.85 23.2 M-38.95 14.25 Q-38.5 13.65 -38.5 13.15 -38.5 11.35 -40.5 11.2 -42.5 11.0 -42.5 13.1 L-42.2 14.15 Q-41.7 15.05 -40.5 15.05 -39.6 15.05 -38.95 14.25 M-37.75 19.35 L-37.5 20.35 Q-36.95 21.3 -35.75 21.3 -34.8 21.3 -34.2 20.55 -33.75 19.95 -33.75 19.4 -33.75 17.65 -35.75 17.45 -37.75 17.25 -37.75 19.35 M-31.0 24.1 Q-31.0 27.6 -35.45 27.95 L-41.25 27.8 -48.6 27.9 -51.15 28.05 Q-54.8 28.05 -57.75 24.85 -60.0 22.4 -60.0 21.35 L-59.9 20.4 Q-59.7 19.9 -59.0 19.55 L-56.75 19.4 -54.5 19.05 -52.85 17.7 Q-51.2 16.55 -49.25 16.5 -43.15 0.2 -36.55 8.9 -34.25 11.95 -32.5 17.25 -31.0 21.85 -31.0 24.1 M-39.95 19.5 Q-39.5 18.9 -39.5 18.4 -39.5 16.6 -41.5 16.45 -43.5 16.25 -43.5 18.35 L-43.25 19.4 Q-42.75 20.3 -41.5 20.3 -40.6 20.3 -39.95 19.5 M-51.25 19.35 L-51.0 20.35 Q-50.45 21.3 -49.25 21.3 -48.3 21.3 -47.7 20.55 -47.25 19.95 -47.25 19.4 -47.25 17.65 -49.25 17.45 -51.25 17.25 -51.25 19.35 M-53.25 22.05 Q-55.25 22.1 -55.25 24.1 L-54.95 25.15 Q-54.45 26.05 -53.25 26.05 -52.3 26.05 -51.7 25.3 -51.25 24.7 -51.25 24.15 -51.25 22.05 -53.25 22.05 M-45.5 15.8 Q-44.6 15.8 -43.95 15.0 -43.5 14.4 -43.5 13.9 -43.5 12.1 -45.5 11.95 -47.5 11.75 -47.5 13.85 L-47.25 14.9 Q-46.75 15.8 -45.5 15.8 M-46.5 21.85 L-46.25 22.9 Q-45.75 23.8 -44.5 23.8 -43.55 23.8 -42.95 23.05 -42.5 22.45 -42.5 21.9 -42.5 20.15 -44.5 19.95 -46.5 19.75 -46.5 21.85 M-50.0 25.6 L-49.7 26.65 Q-49.2 27.55 -48.0 27.55 -46.95 27.55 -46.25 26.45 -45.75 25.65 -45.75 25.15 -45.75 22.95 -47.85 23.15 -50.0 23.35 -50.0 25.6" fill="#ffcc66" fill-rule="evenodd" stroke="none"/>
    <path d="M-34.95 15.0 Q-35.6 15.8 -36.5 15.8 -37.75 15.8 -38.25 14.9 L-38.5 13.85 Q-38.5 11.85 -36.5 11.85 -34.5 11.8 -34.5 13.9 -34.5 14.4 -34.95 15.0 M-35.85 23.2 Q-35.35 22.6 -34.25 22.7 -32.25 22.9 -32.25 24.65 -32.25 25.2 -32.7 25.8 -33.3 26.55 -34.25 26.55 -35.45 26.55 -36.0 25.6 L-36.25 24.6 Q-36.25 23.65 -35.85 23.2 M-39.95 19.5 Q-40.6 20.3 -41.5 20.3 -42.75 20.3 -43.25 19.4 L-43.5 18.35 Q-43.5 16.25 -41.5 16.45 -39.5 16.6 -39.5 18.4 -39.5 18.9 -39.95 19.5 M-45.5 15.8 Q-46.75 15.8 -47.25 14.9 L-47.5 13.85 Q-47.5 11.75 -45.5 11.95 -43.5 12.1 -43.5 13.9 -43.5 14.4 -43.95 15.0 -44.6 15.8 -45.5 15.8 M-50.0 25.6 Q-50.0 23.35 -47.85 23.15 -45.75 22.95 -45.75 25.15 -45.75 25.65 -46.25 26.45 -46.95 27.55 -48.0 27.55 -49.2 27.55 -49.7 26.65 L-50.0 25.6" fill="#ffff99" fill-rule="evenodd" stroke="none"/>
    <path d="M-38.95 14.25 Q-39.6 15.05 -40.5 15.05 -41.7 15.05 -42.2 14.15 L-42.5 13.1 Q-42.5 11.0 -40.5 11.2 -38.5 11.35 -38.5 13.15 -38.5 13.65 -38.95 14.25 M-36.0 25.6 Q-36.65 26.3 -37.5 26.3 -38.7 26.3 -39.2 25.4 L-39.5 24.35 Q-39.5 22.25 -37.5 22.45 -36.35 22.55 -35.85 23.2 -36.25 23.65 -36.25 24.6 L-36.0 25.6 M-37.75 19.35 Q-37.75 17.25 -35.75 17.45 -33.75 17.65 -33.75 19.4 -33.75 19.95 -34.2 20.55 -34.8 21.3 -35.75 21.3 -36.95 21.3 -37.5 20.35 L-37.75 19.35 M-53.25 22.05 Q-51.25 22.05 -51.25 24.15 -51.25 24.7 -51.7 25.3 -52.3 26.05 -53.25 26.05 -54.45 26.05 -54.95 25.15 L-55.25 24.1 Q-55.25 22.1 -53.25 22.05 M-51.25 19.35 Q-51.25 17.25 -49.25 17.45 -47.25 17.65 -47.25 19.4 -47.25 19.95 -47.7 20.55 -48.3 21.3 -49.25 21.3 -50.45 21.3 -51.0 20.35 L-51.25 19.35 M-46.5 21.85 Q-46.5 19.75 -44.5 19.95 -42.5 20.15 -42.5 21.9 -42.5 22.45 -42.95 23.05 -43.55 23.8 -44.5 23.8 -45.75 23.8 -46.25 22.9 L-46.5 21.85" fill="#cc9966" fill-rule="evenodd" stroke="none"/>
    <path d="M-31.0 24.1 Q-31.0 27.6 -35.45 27.95 L-41.25 27.8 -48.6 27.9 -51.15 28.05 Q-54.8 28.05 -57.75 24.85 -60.0 22.4 -60.0 21.35 L-59.9 20.4 Q-59.7 19.9 -59.0 19.55 L-56.75 19.4 -54.5 19.05 -52.85 17.7 Q-51.2 16.55 -49.25 16.5 -43.15 0.2 -36.55 8.9 -34.25 11.95 -32.5 17.25 -31.0 21.85 -31.0 24.1 L-31.0 24.1 Z" fill="none" stroke="#000000" stroke-linecap="round" stroke-linejoin="round" stroke-width="2.0"/>
  </g>
  <defs>
    <radialGradient cx="0" cy="0" gradientTransform="matrix(0.0549, 0.0, 0.0, 0.0366, -10.0, -30.0)" gradientUnits="userSpaceOnUse" id="gradient0" r="819.2" spreadMethod="pad">
      <stop offset="0.0" stop-color="#0b0b0b"/>
      <stop offset="1.0" stop-color="#191919"/>
    </radialGradient>
  </defs>
</svg>
