<?xml version="1.0" encoding="UTF-8" standalone="no"?>
<svg xmlns:ffdec="https://www.free-decompiler.com/flash" xmlns:xlink="http://www.w3.org/1999/xlink" ffdec:objectType="shape" height="24.8px" width="42.9px" xmlns="http://www.w3.org/2000/svg">
  <g transform="matrix(1.0, 0.0, 0.0, 1.0, 79.4, 13.8)">
    <path d="M-65.3 -12.5 Q-64.25 -12.2 -63.4 -11.45 -61.85 -10.1 -61.6 -8.0 -59.35 -3.95 -55.05 -2.3 -45.75 1.95 -36.5 6.15 L-39.15 11.0 -59.35 2.55 Q-64.1 1.35 -68.35 2.4 L-69.6 2.7 Q-72.65 3.4 -74.15 2.3 L-76.1 0.7 -77.4 -1.15 Q-78.2 -2.45 -79.4 -7.2 L-74.0 -2.5 Q-69.05 -4.0 -68.35 -9.05 L-73.75 -13.8 -66.85 -12.9 -65.3 -12.5" fill="#ffffff" fill-rule="evenodd" stroke="none"/>
  </g>
</svg>
