<?xml version="1.0" encoding="UTF-8" standalone="no"?>
<svg xmlns:ffdec="https://www.free-decompiler.com/flash" xmlns:xlink="http://www.w3.org/1999/xlink" ffdec:objectType="shape" height="40.0px" width="185.0px" xmlns="http://www.w3.org/2000/svg">
  <g transform="matrix(1.0, 0.0, 0.0, 1.0, 92.5, 20.0)">
    <path d="M72.5 -20.0 Q80.8 -20.0 86.65 -14.15 92.5 -8.3 92.5 0.0 92.5 8.3 86.65 14.15 80.8 20.0 72.5 20.0 L-72.5 20.0 Q-80.8 20.0 -86.65 14.15 -92.5 8.3 -92.5 0.0 -92.5 -8.3 -86.65 -14.15 -80.8 -20.0 -72.5 -20.0 L72.5 -20.0" fill="#000000" fill-opacity="0.49803922" fill-rule="evenodd" stroke="none"/>
    <path d="M6.6 -4.65 Q6.6 -7.35 4.7 -9.25 2.8 -11.15 0.1 -11.15 -2.6 -11.15 -4.55 -9.25 -6.4 -7.35 -6.4 -4.65 L-6.4 -4.4 -6.4 0.0 6.65 0.0 6.6 -4.4 6.6 -4.65 M9.45 -4.7 L9.45 0.0 11.75 0.0 11.75 14.0 -11.55 14.0 -11.55 0.0 -9.2 0.0 -9.2 -4.7 Q-9.2 -8.55 -6.5 -11.3 -3.75 -14.0 0.1 -14.0 4.0 -14.0 6.7 -11.3 9.45 -8.55 9.45 -4.7" fill="#ffffff" fill-rule="evenodd" stroke="none"/>
  </g>
</svg>
