<?xml version="1.0" encoding="UTF-8" standalone="no"?>
<svg xmlns:ffdec="https://www.free-decompiler.com/flash" xmlns:xlink="http://www.w3.org/1999/xlink" ffdec:objectType="shape" height="880.0px" width="620.0px" xmlns="http://www.w3.org/2000/svg">
  <g transform="matrix(1.0, 0.0, 0.0, 1.0, -10.0, -10.0)">
    <path d="M250.0 37.95 L149.8 37.95 149.8 30.8 250.0 30.8 250.0 37.95 M250.0 97.95 L149.8 97.95 149.8 90.8 250.0 90.8 250.0 97.95 M250.0 156.95 L19.8 156.95 19.8 149.8 250.0 149.8 250.0 156.95 M120.0 36.95 L19.8 36.95 19.8 29.8 120.0 29.8 120.0 36.95 M120.0 96.95 L19.8 96.95 19.8 89.8 120.0 89.8 120.0 96.95" fill="#ffffff" fill-rule="evenodd" stroke="none"/>
    <path d="M250.0 37.95 L250.0 30.8 149.8 30.8 149.8 37.95 250.0 37.95 M260.0 28.0 L260.0 41.25 Q259.4 59.4 241.25 60.0 L158.75 60.0 Q140.6 59.4 140.0 41.25 L140.0 28.0 140.05 28.0 Q141.0 10.6 158.75 10.0 L241.25 10.0 Q259.0 10.6 260.0 28.0 M250.0 97.95 L250.0 90.8 149.8 90.8 149.8 97.95 250.0 97.95 M260.0 87.5 L260.0 101.25 Q259.4 119.4 241.25 120.0 L158.75 120.0 Q140.6 119.4 140.0 101.25 L140.0 87.5 140.1 87.5 Q141.25 70.6 158.75 70.0 L241.25 70.0 Q258.75 70.6 259.95 87.5 L260.0 87.5 M260.0 145.5 L260.0 161.25 Q259.4 179.4 241.25 180.0 L28.75 180.0 Q10.6 179.4 10.0 161.25 L10.0 145.5 10.3 145.5 Q12.3 130.55 28.75 130.0 L241.25 130.0 Q257.7 130.55 259.75 145.5 L260.0 145.5 M250.0 156.95 L250.0 149.8 19.8 149.8 19.8 156.95 250.0 156.95 M130.0 41.25 Q129.4 59.4 111.25 60.0 L28.75 60.0 Q10.6 59.4 10.0 41.25 L10.0 25.5 10.3 25.5 Q12.3 10.55 28.75 10.0 L111.25 10.0 Q127.7 10.55 129.75 25.5 L130.0 25.5 130.0 41.25 M120.0 96.95 L120.0 89.8 19.8 89.8 19.8 96.95 120.0 96.95 M120.0 36.95 L120.0 29.8 19.8 29.8 19.8 36.95 120.0 36.95 M111.25 70.0 Q129.0 70.6 130.0 88.0 L130.0 101.25 Q129.4 119.4 111.25 120.0 L28.75 120.0 Q10.6 119.4 10.0 101.25 L10.0 88.0 10.05 88.0 Q11.0 70.6 28.75 70.0 L111.25 70.0" fill="#000000" fill-opacity="0.49803922" fill-rule="evenodd" stroke="none"/>
    <path d="M295.0 684.0 L162.0 684.0 162.0 718.0 295.0 718.0 295.0 684.0 M10.0 638.75 Q10.6 620.6 28.75 620.0 L291.25 620.0 295.0 620.35 298.75 620.0 611.25 620.0 Q629.4 620.6 630.0 638.75 L630.0 871.25 Q629.4 889.4 611.25 890.0 L298.75 890.0 295.0 889.65 291.25 890.0 28.75 890.0 Q10.6 889.4 10.0 871.25 L10.0 638.75 M10.0 591.25 L10.0 508.75 Q10.6 490.6 28.75 490.0 L611.25 490.0 Q629.4 490.6 630.0 508.75 L630.0 591.25 Q629.4 609.4 611.25 610.0 L28.75 610.0 Q10.6 609.4 10.0 591.25" fill="#000000" fill-opacity="0.49411765" fill-rule="evenodd" stroke="none"/>
  </g>
</svg>
