<?xml version="1.0" encoding="UTF-8" standalone="no"?>
<svg xmlns:ffdec="https://www.free-decompiler.com/flash" xmlns:xlink="http://www.w3.org/1999/xlink" ffdec:objectType="shape" height="80.0px" width="60.0px" xmlns="http://www.w3.org/2000/svg">
  <g transform="matrix(1.0, 0.0, 0.0, 1.0, 30.0, 30.0)">
    <path d="M11.25 -30.0 Q29.4 -29.4 30.0 -11.25 L30.0 31.25 Q29.4 49.4 11.25 50.0 L-11.25 50.0 Q-29.4 49.4 -30.0 31.25 L-30.0 -11.25 Q-29.4 -29.4 -11.25 -30.0 L11.25 -30.0" fill="#000000" fill-opacity="0.49411765" fill-rule="evenodd" stroke="none"/>
    <path d="M17.15 -4.3 L17.15 21.45 -17.2 21.45 -17.2 -4.3 -25.75 -4.3 0.0 -21.45 25.75 -4.3 17.15 -4.3 M3.2 -7.1 L3.2 -13.55 -3.25 -13.55 -3.25 -7.1 -9.7 -7.1 -9.7 -0.65 -3.25 5.8 -9.7 5.8 -9.7 12.2 -3.25 12.2 -3.25 18.65 3.2 18.65 3.2 12.2 9.65 12.2 9.65 5.8 3.2 -0.65 9.65 -0.65 9.65 -7.1 3.2 -7.1" fill="#ffffff" fill-opacity="0.99215686" fill-rule="evenodd" stroke="none"/>
  </g>
</svg>
