<?xml version="1.0" encoding="UTF-8" standalone="no"?>
<svg xmlns:ffdec="https://www.free-decompiler.com/flash" xmlns:xlink="http://www.w3.org/1999/xlink" ffdec:objectType="shape" height="80.0px" width="60.0px" xmlns="http://www.w3.org/2000/svg">
  <g transform="matrix(1.0, 0.0, 0.0, 1.0, 30.0, 30.0)">
    <path d="M11.25 -30.0 Q29.4 -29.4 30.0 -11.25 L30.0 31.25 Q29.4 49.4 11.25 50.0 L-11.25 50.0 Q-29.4 49.4 -30.0 31.25 L-30.0 -11.25 Q-29.4 -29.4 -11.25 -30.0 L11.25 -30.0" fill="#000000" fill-opacity="0.49803922" fill-rule="evenodd" stroke="none"/>
    <path d="M2.85 -14.0 Q5.6 -13.45 7.9 -11.9 L12.15 -16.1 16.15 -12.1 11.95 -7.85 Q13.5 -5.55 14.0 -2.85 L20.0 -2.85 20.0 2.85 14.0 2.85 Q13.45 5.6 11.95 7.9 L16.15 12.15 12.1 16.2 7.9 11.95 Q5.6 13.5 2.85 14.05 L2.85 20.0 -2.85 20.0 -2.85 14.05 Q-5.6 13.55 -7.9 11.95 L-12.1 16.2 -16.15 12.15 -11.9 7.95 Q-13.5 5.6 -14.05 2.85 L-20.0 2.85 -20.0 -2.85 -14.05 -2.85 Q-13.5 -5.6 -11.95 -7.85 L-16.15 -12.1 -12.1 -16.15 -7.9 -11.9 Q-5.6 -13.5 -2.85 -14.0 L-2.85 -20.0 2.85 -20.0 2.85 -14.0 M8.1 -2.85 Q7.5 -4.6 6.05 -6.05 4.6 -7.45 2.85 -8.05 L0.0 -8.55 -2.85 -8.05 Q-4.65 -7.45 -6.05 -6.05 -7.5 -4.6 -8.1 -2.85 L-8.55 0.0 -8.1 2.85 Q-7.5 4.65 -6.05 6.05 -4.65 7.5 -2.85 8.15 L0.0 8.6 2.85 8.15 Q4.6 7.5 6.05 6.05 7.5 4.65 8.1 2.85 L8.55 0.0 8.1 -2.85" fill="#ffffff" fill-opacity="0.99215686" fill-rule="evenodd" stroke="none"/>
  </g>
</svg>
