<?xml version="1.0" encoding="UTF-8" standalone="no"?>
<svg xmlns:ffdec="https://www.free-decompiler.com/flash" xmlns:xlink="http://www.w3.org/1999/xlink" ffdec:objectType="shape" height="22.0px" width="22.0px" xmlns="http://www.w3.org/2000/svg">
  <g transform="matrix(1.0, 0.0, 0.0, 1.0, 11.0, 11.0)">
    <path d="M7.65 -7.2 L6.6 -6.8 5.2 -5.6 -1.0 0.6 -1.95 1.45 -2.5 1.75 -3.05 1.25 -3.4 -0.65 -3.45 -0.95 Q-3.65 -2.75 -4.6 -2.75 -5.6 -2.75 -6.45 -1.9 -7.3 -1.05 -7.3 0.0 L-7.1 3.4 -6.7 5.5 -5.6 6.65 Q-4.7 7.2 -4.1 7.2 -3.55 7.2 -2.2 6.05 L1.05 2.95 7.2 -3.55 Q8.25 -4.65 8.25 -5.8 L8.25 -6.1 8.1 -6.95 7.65 -7.2 M10.0 10.0 L-10.0 10.0 -10.0 -10.0 10.0 -10.0 10.0 10.0" fill="#ffffff" fill-rule="evenodd" stroke="none"/>
    <path d="M7.65 -7.2 L8.1 -6.95 8.25 -6.1 8.25 -5.8 Q8.25 -4.65 7.2 -3.55 L1.05 2.95 -2.2 6.05 Q-3.55 7.2 -4.1 7.2 -4.7 7.2 -5.6 6.65 L-6.7 5.5 -7.1 3.4 -7.3 0.0 Q-7.3 -1.05 -6.45 -1.9 -5.6 -2.75 -4.6 -2.75 -3.65 -2.75 -3.45 -0.95 L-3.4 -0.65 -3.05 1.25 -2.5 1.75 -1.95 1.45 -1.0 0.6 5.2 -5.6 6.6 -6.8 7.65 -7.2" fill="#000000" fill-rule="evenodd" stroke="none"/>
    <path d="M10.0 10.0 L-10.0 10.0 -10.0 -10.0 10.0 -10.0 10.0 10.0 Z" fill="none" stroke="#000000" stroke-linecap="round" stroke-linejoin="round" stroke-width="2.0"/>
  </g>
</svg>
