<?xml version="1.0" encoding="UTF-8" standalone="no"?>
<svg xmlns:ffdec="https://www.free-decompiler.com/flash" xmlns:xlink="http://www.w3.org/1999/xlink" ffdec:objectType="shape" height="127.15px" width="230.35px" xmlns="http://www.w3.org/2000/svg">
  <g transform="matrix(1.0, 0.0, 0.0, 1.0, -19.65, -29.8)">
    <path d="M116.05 29.8 L120.0 29.8 120.0 33.75 Q119.95 32.1 118.8 30.95 117.7 29.85 116.05 29.8 M120.0 37.95 L116.05 37.95 Q117.7 37.9 118.8 36.75 119.95 35.65 120.0 34.0 L120.0 37.95 M23.75 29.8 Q22.1 29.85 20.95 30.95 19.85 32.1 19.8 33.75 L19.8 29.8 23.75 29.8 M20.95 36.75 Q22.1 37.9 23.75 37.95 L19.8 37.95 19.8 34.0 Q19.85 35.65 20.95 36.75" fill="#365080" fill-rule="evenodd" stroke="none"/>
    <path d="M120.0 89.8 L120.0 93.75 Q119.95 92.1 118.8 90.95 117.7 89.85 116.05 89.8 L120.0 89.8 M116.05 97.95 Q117.7 97.9 118.8 96.75 119.95 95.65 120.0 94.0 L120.0 97.95 116.05 97.95 M20.95 90.95 Q19.85 92.1 19.8 93.75 L19.8 89.8 23.75 89.8 Q22.1 89.85 20.95 90.95 M23.75 97.95 L19.8 97.95 19.8 94.0 Q19.85 95.65 20.95 96.75 22.1 97.9 23.75 97.95" fill="#365080" fill-rule="evenodd" stroke="none"/>
    <path d="M250.0 34.75 Q249.95 33.1 248.8 31.95 247.7 30.85 246.05 30.8 L250.0 30.8 250.0 34.75 M248.8 37.75 Q249.95 36.65 250.0 35.0 L250.0 38.95 246.05 38.95 Q247.7 38.9 248.8 37.75 M149.8 34.75 L149.8 30.8 153.75 30.8 Q152.1 30.85 150.95 31.95 149.85 33.1 149.8 34.75 M149.8 38.95 L149.8 35.0 Q149.85 36.65 150.95 37.75 152.1 38.9 153.75 38.95 L149.8 38.95" fill="#365080" fill-rule="evenodd" stroke="none"/>
    <path d="M248.8 91.95 Q247.7 90.85 246.05 90.8 L250.0 90.8 250.0 94.75 Q249.95 93.1 248.8 91.95 M250.0 95.0 L250.0 98.95 246.05 98.95 Q247.7 98.9 248.8 97.75 249.95 96.65 250.0 95.0 M149.8 90.8 L153.75 90.8 Q152.1 90.85 150.95 91.95 149.85 93.1 149.8 94.75 L149.8 90.8 M149.8 95.0 Q149.85 96.65 150.95 97.75 152.1 98.9 153.75 98.95 L149.8 98.95 149.8 95.0" fill="#365080" fill-rule="evenodd" stroke="none"/>
    <path d="M248.75 155.7 Q249.8 154.7 249.8 153.25 L249.8 153.2 Q249.8 151.75 248.75 150.7 247.8 149.75 246.4 149.7 L250.0 149.7 250.0 156.95 19.65 156.95 19.65 153.35 Q19.7 154.75 20.65 155.7 21.7 156.75 23.15 156.75 L246.3 156.75 Q247.75 156.75 248.75 155.7 M19.65 153.1 L19.65 149.7 23.05 149.7 Q21.65 149.75 20.65 150.7 19.7 151.7 19.65 153.1" fill="#425c80" fill-rule="evenodd" stroke="none"/>
  </g>
</svg>
