<?xml version="1.0" encoding="UTF-8" standalone="no"?>
<svg xmlns:ffdec="https://www.free-decompiler.com/flash" xmlns:xlink="http://www.w3.org/1999/xlink" ffdec:objectType="frame" height="90.45px" width="94.1px" xmlns="http://www.w3.org/2000/svg">
  <g transform="matrix(1.0, 0.0, 0.0, 1.0, 40.7, 55.55)">
    <use ffdec:characterId="108" height="7.15" transform="matrix(1.0, 0.0, 0.0, 1.0, -6.0, 21.35)" width="12.0" xlink:href="#shape0"/>
    <use ffdec:characterId="266" height="24.2" transform="matrix(1.0, 0.0, 0.0, 1.0, 12.75, 4.5)" width="31.0" xlink:href="#sprite0"/>
    <use ffdec:characterId="268" height="68.8" transform="matrix(1.0, 0.0, 0.0, 1.0, -36.3, -45.3)" width="57.4" xlink:href="#sprite1"/>
  </g>
  <defs>
    <g id="shape0" transform="matrix(1.0, 0.0, 0.0, 1.0, 6.0, -21.35)">
      <path d="M-4.95 22.35 L-5.0 27.5 5.0 27.5" fill="none" stroke="#000000" stroke-linecap="round" stroke-linejoin="round" stroke-width="2.0"/>
    </g>
    <g id="sprite0" transform="matrix(1.0, 0.0, 0.0, 1.0, 15.5, 12.1)">
      <use ffdec:characterId="184" height="24.2" transform="matrix(1.0, 0.0, 0.0, 1.0, -15.5, -12.1)" width="31.0" xlink:href="#shape1"/>
    </g>
    <g id="shape1" transform="matrix(1.0, 0.0, 0.0, 1.0, 15.5, 12.1)">
      <path d="M0.0 -1.15 Q0.9 -1.15 1.55 -1.95 L2.0 -3.05 Q2.0 -4.85 0.0 -5.0 -2.0 -5.2 -2.0 -3.1 L-1.75 -2.05 Q-1.25 -1.15 0.0 -1.15 M3.3 -2.8 Q3.8 -1.9 5.0 -1.9 5.9 -1.9 6.55 -2.7 L7.0 -3.8 Q7.0 -5.6 5.0 -5.75 3.0 -5.95 3.0 -3.85 3.0 -3.35 3.3 -2.8 M9.5 8.65 Q10.05 9.6 11.25 9.6 12.2 9.6 12.8 8.85 L13.25 7.7 Q13.25 5.95 11.25 5.75 10.15 5.65 9.65 6.25 9.15 5.6 8.0 5.5 6.0 5.3 6.0 7.4 6.0 7.9 6.3 8.45 6.8 9.35 8.0 9.35 8.85 9.35 9.5 8.65 M7.25 -2.05 Q7.75 -1.15 9.0 -1.15 9.9 -1.15 10.55 -1.95 L11.0 -3.05 Q11.0 -5.15 9.0 -5.1 7.0 -5.1 7.0 -3.1 7.0 -2.55 7.25 -2.05 M11.3 3.6 L11.75 2.45 Q11.75 0.7 9.75 0.5 7.75 0.3 7.75 2.4 L8.0 3.4 Q8.55 4.35 9.75 4.35 10.7 4.35 11.3 3.6 M14.5 7.15 Q14.5 10.65 10.05 11.0 L4.25 10.85 -3.1 10.95 -5.65 11.1 Q-9.3 11.1 -12.25 7.9 -14.5 5.45 -14.5 4.4 L-14.4 3.45 Q-14.2 2.95 -13.5 2.6 L-11.25 2.45 -9.0 2.1 -7.35 0.75 Q-5.7 -0.4 -3.75 -0.45 2.35 -16.75 8.95 -8.05 11.25 -5.0 13.0 0.3 14.5 4.9 14.5 7.15 M5.55 2.55 L6.0 1.45 Q6.0 -0.35 4.0 -0.5 2.0 -0.7 2.0 1.4 L2.25 2.45 Q2.75 3.35 4.0 3.35 4.9 3.35 5.55 2.55 M-6.2 8.35 Q-5.75 7.75 -5.75 7.2 -5.75 5.1 -7.75 5.1 -9.75 5.15 -9.75 7.15 L-9.45 8.2 Q-8.95 9.1 -7.75 9.1 -6.8 9.1 -6.2 8.35 M-3.75 4.35 Q-2.8 4.35 -2.2 3.6 -1.75 3.0 -1.75 2.45 -1.75 0.7 -3.75 0.5 -5.75 0.3 -5.75 2.4 L-5.5 3.4 Q-4.95 4.35 -3.75 4.35 M2.55 6.1 L3.0 4.95 Q3.0 3.2 1.0 3.0 -1.0 2.8 -1.0 4.9 L-0.75 5.95 Q-0.25 6.85 1.0 6.85 1.95 6.85 2.55 6.1 M-2.5 10.6 Q-1.45 10.6 -0.75 9.5 -0.25 8.7 -0.25 8.2 -0.25 6.0 -2.35 6.2 -4.5 6.4 -4.5 8.65 L-4.2 9.7 Q-3.7 10.6 -2.5 10.6" fill="#ffcc66" fill-rule="evenodd" stroke="none"/>
      <path d="M0.0 -1.15 Q-1.25 -1.15 -1.75 -2.05 L-2.0 -3.1 Q-2.0 -5.2 0.0 -5.0 2.0 -4.85 2.0 -3.05 L1.55 -1.95 Q0.9 -1.15 0.0 -1.15 M7.25 -2.05 Q7.0 -2.55 7.0 -3.1 7.0 -5.1 9.0 -5.1 11.0 -5.15 11.0 -3.05 L10.55 -1.95 Q9.9 -1.15 9.0 -1.15 7.75 -1.15 7.25 -2.05 M9.65 6.25 Q10.15 5.65 11.25 5.75 13.25 5.95 13.25 7.7 L12.8 8.85 Q12.2 9.6 11.25 9.6 10.05 9.6 9.5 8.65 L9.25 7.65 Q9.25 6.7 9.65 6.25 M5.55 2.55 Q4.9 3.35 4.0 3.35 2.75 3.35 2.25 2.45 L2.0 1.4 Q2.0 -0.7 4.0 -0.5 6.0 -0.35 6.0 1.45 L5.55 2.55 M-2.5 10.6 Q-3.7 10.6 -4.2 9.7 L-4.5 8.65 Q-4.5 6.4 -2.35 6.2 -0.25 6.0 -0.25 8.2 -0.25 8.7 -0.75 9.5 -1.45 10.6 -2.5 10.6" fill="#ffff99" fill-rule="evenodd" stroke="none"/>
      <path d="M3.3 -2.8 Q3.0 -3.35 3.0 -3.85 3.0 -5.95 5.0 -5.75 7.0 -5.6 7.0 -3.8 L6.55 -2.7 Q5.9 -1.9 5.0 -1.9 3.8 -1.9 3.3 -2.8 M9.5 8.65 Q8.85 9.35 8.0 9.35 6.8 9.35 6.3 8.45 6.0 7.9 6.0 7.4 6.0 5.3 8.0 5.5 9.15 5.6 9.65 6.25 9.25 6.7 9.25 7.65 L9.5 8.65 M11.3 3.6 Q10.7 4.35 9.75 4.35 8.55 4.35 8.0 3.4 L7.75 2.4 Q7.75 0.3 9.75 0.5 11.75 0.7 11.75 2.45 L11.3 3.6 M2.55 6.1 Q1.95 6.85 1.0 6.85 -0.25 6.85 -0.75 5.95 L-1.0 4.9 Q-1.0 2.8 1.0 3.0 3.0 3.2 3.0 4.95 L2.55 6.1 M-3.75 4.35 Q-4.95 4.35 -5.5 3.4 L-5.75 2.4 Q-5.75 0.3 -3.75 0.5 -1.75 0.7 -1.75 2.45 -1.75 3.0 -2.2 3.6 -2.8 4.35 -3.75 4.35 M-6.2 8.35 Q-6.8 9.1 -7.75 9.1 -8.95 9.1 -9.45 8.2 L-9.75 7.15 Q-9.75 5.15 -7.75 5.1 -5.75 5.1 -5.75 7.2 -5.75 7.75 -6.2 8.35" fill="#cc9966" fill-rule="evenodd" stroke="none"/>
      <path d="M14.5 7.15 Q14.5 10.65 10.05 11.0 L4.25 10.85 -3.1 10.95 -5.65 11.1 Q-9.3 11.1 -12.25 7.9 -14.5 5.45 -14.5 4.4 L-14.4 3.45 Q-14.2 2.95 -13.5 2.6 L-11.25 2.45 -9.0 2.1 -7.35 0.75 Q-5.7 -0.4 -3.75 -0.45 2.35 -16.75 8.95 -8.05 11.25 -5.0 13.0 0.3 14.5 4.9 14.5 7.15 Z" fill="none" stroke="#000000" stroke-linecap="round" stroke-linejoin="round" stroke-width="2.0"/>
    </g>
    <g id="sprite1" transform="matrix(1.0, 0.0, 0.0, 1.0, 34.05, 50.8)">
      <use ffdec:characterId="223" height="48.0" transform="matrix(0.9987, 4.0E-4, -4.0E-4, 0.9987, -16.7197, -31.9755)" width="34.65" xlink:href="#sprite2"/>
      <use ffdec:characterId="267" height="52.0" transform="matrix(1.0, 0.0, 0.0, 1.0, -18.75, -34.0)" width="42.0" xlink:href="#shape3"/>
      <use ffdec:characterId="243" height="44.35" transform="matrix(1.0, 0.0, 0.0, 1.0, -34.05, -50.8)" width="57.4" xlink:href="#sprite4"/>
    </g>
    <g id="sprite2" transform="matrix(1.0, 0.0, 0.0, 1.0, 16.5, 24.0)">
      <use ffdec:characterId="222" height="48.0" transform="matrix(1.0, 0.0, 0.0, 1.0, -16.5, -24.0)" width="34.65" xlink:href="#sprite3"/>
    </g>
    <g id="sprite3" transform="matrix(1.0, 0.0, 0.0, 1.0, 16.5, 24.0)">
      <use ffdec:characterId="206" height="48.0" transform="matrix(1.0, 0.0, 0.0, 1.0, -16.5, -24.0)" width="34.65" xlink:href="#shape2"/>
    </g>
    <g id="shape2" transform="matrix(1.0, 0.0, 0.0, 1.0, 16.5, 24.0)">
      <path d="M16.2 -13.2 L18.15 -12.25 18.15 -8.5 16.3 -7.3 Q15.8 -4.5 14.2 -2.15 L14.0 -1.6 Q14.0 -1.35 14.15 -1.05 16.5 2.7 16.5 7.5 16.5 14.35 11.7 19.2 6.85 24.0 0.0 24.0 L-2.3 23.85 Q-7.7 23.15 -11.65 19.2 -16.5 14.35 -16.5 7.5 -16.5 0.65 -11.65 -4.15 L-11.55 -4.2 -11.15 -4.6 -10.85 -5.1 -10.85 -5.7 Q-11.5 -7.7 -11.5 -10.0 -11.5 -15.8 -7.4 -19.9 -3.3 -24.0 2.5 -24.0 8.35 -24.0 12.4 -19.9 15.3 -17.0 16.2 -13.2" fill="url(#gradient0)" fill-rule="evenodd" stroke="none"/>
    </g>
    <linearGradient gradientTransform="matrix(0.0, 0.0287, -0.0293, 0.0, 0.8, 0.0)" gradientUnits="userSpaceOnUse" id="gradient0" spreadMethod="pad" x1="-819.2" x2="819.2">
      <stop offset="0.0" stop-color="#ffff00"/>
      <stop offset="1.0" stop-color="#d1d003"/>
    </linearGradient>
    <g id="shape3" transform="matrix(1.0, 0.0, 0.0, 1.0, 18.75, 34.0)">
      <path d="M8.75 -27.75 Q8.35 -27.6 8.0 -27.25 7.25 -26.5 7.25 -25.5 7.25 -24.45 8.0 -23.75 8.75 -23.0 9.75 -23.0 10.8 -23.0 11.5 -23.75 L12.05 -24.45 12.25 -23.0 12.05 -21.5 Q10.95 -20.75 9.5 -20.75 7.65 -20.75 6.3 -22.05 5.0 -23.35 5.0 -25.25 5.0 -26.65 5.75 -27.75 L7.25 -28.0 8.75 -27.75" fill="#00ccff" fill-rule="evenodd" stroke="none"/>
      <path d="M12.05 -24.45 L11.5 -23.75 Q10.8 -23.0 9.75 -23.0 8.75 -23.0 8.0 -23.75 7.25 -24.45 7.25 -25.5 7.25 -26.5 8.0 -27.25 8.35 -27.6 8.75 -27.75 9.9 -27.45 10.8 -26.55 11.7 -25.6 12.05 -24.45" fill="#000000" fill-rule="evenodd" stroke="none"/>
      <path d="M5.75 -27.75 Q5.0 -26.65 5.0 -25.25 5.0 -23.35 6.3 -22.05 7.65 -20.75 9.5 -20.75 10.95 -20.75 12.05 -21.5 11.7 -20.35 10.8 -19.45 9.35 -18.0 7.25 -18.0 5.2 -18.0 3.7 -19.45 2.25 -20.9 2.25 -23.0 2.25 -25.05 3.7 -26.55 4.65 -27.45 5.75 -27.75" fill="#ffffff" fill-rule="evenodd" stroke="none"/>
      <path d="M17.05 -20.6 L22.25 -18.0 17.1 -15.7 17.25 -18.0 17.05 -20.6 M22.25 -18.0 L17.25 -18.0 22.25 -18.0" fill="#ffcc00" fill-rule="evenodd" stroke="none"/>
      <path d="M17.1 -15.7 Q16.65 -12.35 14.75 -9.6 17.25 -5.6 17.25 -0.5 17.25 6.75 12.15 11.9 7.0 17.0 -0.25 17.0 L-2.7 16.85 Q-8.4 16.1 -12.6 11.9 -17.75 6.75 -17.75 -0.5 -17.75 -7.75 -12.6 -12.85 L-12.05 -13.4 Q-12.75 -15.55 -12.75 -18.0 -12.75 -24.2 -8.35 -28.6 -3.95 -33.0 2.25 -33.0 8.5 -33.0 12.85 -28.6 16.3 -25.15 17.05 -20.6 L22.25 -18.0 17.1 -15.7" fill="none" stroke="#000000" stroke-linecap="round" stroke-linejoin="round" stroke-width="2.0"/>
      <path d="M8.75 -27.75 Q8.35 -27.6 8.0 -27.25 7.25 -26.5 7.25 -25.5 7.25 -24.45 8.0 -23.75 8.75 -23.0 9.75 -23.0 10.8 -23.0 11.5 -23.75 L12.05 -24.45 Q11.7 -25.6 10.8 -26.55 9.9 -27.45 8.75 -27.75 L7.25 -28.0 5.75 -27.75 Q4.65 -27.45 3.7 -26.55 2.25 -25.05 2.25 -23.0 2.25 -20.9 3.7 -19.45 5.2 -18.0 7.25 -18.0 9.35 -18.0 10.8 -19.45 11.7 -20.35 12.05 -21.5 L12.25 -23.0 12.05 -24.45 M17.1 -15.7 L17.25 -18.0 17.05 -20.6 M17.25 -18.0 L22.25 -18.0" fill="none" stroke="#000000" stroke-linecap="round" stroke-linejoin="round" stroke-width="1.0"/>
    </g>
    <g id="sprite4" transform="matrix(1.0, 0.0, 0.0, 1.0, 46.3, 28.9)">
      <use ffdec:characterId="242" height="44.35" transform="matrix(1.0, 0.0, 0.0, 1.0, -46.3, -28.9)" width="57.4" xlink:href="#sprite5"/>
    </g>
    <g id="sprite5" transform="matrix(1.0, 0.0, 0.0, 1.0, 46.4, 29.15)">
      <use ffdec:characterId="225" height="13.8" transform="matrix(1.0, 0.0, 0.0, 1.0, -10.5, -6.65)" width="21.5" xlink:href="#shape4"/>
      <use ffdec:characterId="227" height="11.2" transform="matrix(1.0, 0.0, 0.0, 1.0, -24.1, -6.15)" width="28.4" xlink:href="#sprite6"/>
    </g>
    <g id="shape4" transform="matrix(1.0, 0.0, 0.0, 1.0, 10.5, 6.65)">
      <path d="M-2.65 3.3 L-5.0 3.85 Q-7.05 3.85 -8.55 2.4 -10.0 0.95 -10.0 -1.15 -10.0 -3.2 -8.55 -4.7 -7.4 -5.85 -5.8 -6.05 L-5.1 -6.15 -5.0 -6.15 -4.9 -6.15 -3.8 -6.0 -3.5 -5.9 -3.3 -5.8 -3.25 -5.8 -2.7 -5.55 Q-4.0 -5.35 -5.0 -4.35 -6.35 -3.0 -6.3 -1.15 -6.3 0.75 -5.0 2.05 -4.0 3.05 -2.65 3.3" fill="#ffffff" fill-rule="evenodd" stroke="none"/>
      <path d="M-2.65 3.3 Q-4.0 3.05 -5.0 2.05 -6.3 0.75 -6.3 -1.15 -6.35 -3.0 -5.0 -4.35 -4.0 -5.35 -2.7 -5.55 L-1.75 -5.0 -1.5 -4.75 -1.45 -4.7 -1.0 -4.15 -0.6 -3.45 -1.45 -3.6 Q-2.55 -3.6 -3.25 -2.9 -3.95 -2.2 -3.9 -1.15 -3.95 -0.1 -3.25 0.6 -2.5 1.35 -1.45 1.3 L-0.55 1.2 -1.45 2.4 Q-2.0 2.95 -2.65 3.3" fill="#99ff00" fill-rule="evenodd" stroke="none"/>
      <path d="M-0.55 1.2 L-1.45 1.3 Q-2.5 1.35 -3.25 0.6 -3.95 -0.1 -3.9 -1.15 -3.95 -2.2 -3.25 -2.9 -2.55 -3.6 -1.45 -3.6 L-0.6 -3.45 Q-0.2 -2.75 -0.05 -1.9 L0.0 -1.15 -0.2 0.35 -0.25 0.6 -0.55 1.2" fill="#000000" fill-rule="evenodd" stroke="none"/>
      <path d="M5.0 3.85 L4.8 1.25 10.0 3.85 4.85 6.15 5.0 3.85 10.0 3.85 5.0 3.85" fill="#ffcc00" fill-rule="evenodd" stroke="none"/>
      <path d="M-3.8 -6.0 L-4.9 -6.15 -5.0 -6.15 -5.1 -6.15 -5.8 -6.05 Q-7.4 -5.85 -8.55 -4.7 -10.0 -3.2 -10.0 -1.15 -10.0 0.95 -8.55 2.4 -7.05 3.85 -5.0 3.85 L-2.65 3.3 Q-2.0 2.95 -1.45 2.4 L-0.55 1.2 -1.45 1.3 Q-2.5 1.35 -3.25 0.6 -3.95 -0.1 -3.9 -1.15 -3.95 -2.2 -3.25 -2.9 -2.55 -3.6 -1.45 -3.6 L-0.6 -3.45 Q-0.2 -2.75 -0.05 -1.9 L0.0 -1.15 -0.2 0.35 -0.25 0.6 -0.55 1.2 M-2.7 -5.55 L-3.25 -5.8 -3.3 -5.8 M-0.6 -3.45 L-1.0 -4.15 -1.45 -4.7 -1.5 -4.75 -1.75 -5.0 -2.7 -5.55" fill="none" stroke="#000000" stroke-linecap="round" stroke-linejoin="round" stroke-width="1.0"/>
      <path d="M5.0 3.85 L10.0 3.85" fill="none" stroke="#b39001" stroke-linecap="round" stroke-linejoin="round" stroke-width="1.0"/>
      <path d="M4.85 6.15 L5.0 3.85 4.8 1.25" fill="none" stroke="#000000" stroke-linecap="round" stroke-linejoin="round" stroke-width="1.0"/>
      <path d="M4.85 6.15 L10.0 3.85 4.8 1.25" fill="none" stroke="#000000" stroke-linecap="round" stroke-linejoin="round" stroke-width="2.0"/>
    </g>
    <g id="sprite6" transform="matrix(1.0, 0.0, 0.0, 1.0, 14.2, 5.6)">
      <use ffdec:characterId="226" height="11.2" transform="matrix(1.0, 0.0, 0.0, 1.0, -14.2, -5.6)" width="28.4" xlink:href="#shape5"/>
    </g>
    <g id="shape5" transform="matrix(1.0, 0.0, 0.0, 1.0, 14.2, 5.6)">
      <path d="M9.65 -3.95 L5.5 -4.5 1.3 -3.9 0.65 -3.2 0.2 -1.85 0.2 0.85 0.5 2.25 0.95 3.5 1.8 4.4 3.6 4.75 5.8 4.65 7.55 4.25 9.0 3.5 10.0 2.15 11.05 -0.05 11.45 -2.15 10.8 -3.15 9.65 -3.95 M14.1 -2.0 L13.05 -1.15 11.95 1.25 10.75 3.05 9.6 4.4 8.1 5.15 5.85 5.55 3.5 5.6 1.3 5.15 0.05 4.3 -0.75 2.95 -1.65 -2.05 -2.3 -2.6 -2.95 -2.7 Q-6.25 -2.6 -9.6 -1.25 -11.65 -0.05 -11.85 1.5 L-14.1 0.75 Q-14.6 -1.75 -12.0 -3.35 -7.4 -5.1 -2.8 -5.15 L6.65 -5.6 14.2 -3.85 14.1 -2.0" fill="#000000" fill-rule="evenodd" stroke="none"/>
      <path d="M9.65 -3.95 L10.8 -3.15 11.45 -2.15 11.05 -0.05 10.0 2.15 9.0 3.5 7.55 4.25 5.8 4.65 3.6 4.75 1.8 4.4 0.95 3.5 0.5 2.25 0.2 0.85 0.2 -1.85 0.65 -3.2 1.3 -3.9 5.5 -4.5 9.65 -3.95" fill="#000000" fill-opacity="0.7372549" fill-rule="evenodd" stroke="none"/>
    </g>
  </defs>
</svg>
