<?xml version="1.0" encoding="UTF-8" standalone="no"?>
<svg xmlns:ffdec="https://www.free-decompiler.com/flash" xmlns:xlink="http://www.w3.org/1999/xlink" ffdec:objectType="frame" height="90.45px" width="94.1px" xmlns="http://www.w3.org/2000/svg">
  <g transform="matrix(1.0, 0.0, 0.0, 1.0, 40.7, 55.55)">
    <use ffdec:characterId="108" height="7.15" transform="matrix(1.0, 0.0, 0.0, 1.0, -6.0, 21.35)" width="12.0" xlink:href="#shape0"/>
    <use ffdec:characterId="271" height="21.1" transform="matrix(1.0, 0.0, 0.0, 1.0, 17.0, 8.4)" width="26.0" xlink:href="#sprite0"/>
    <use ffdec:characterId="268" height="68.8" transform="matrix(0.9986, 0.049, -0.049, 0.9986, -33.7648, -46.896)" width="57.4" xlink:href="#sprite1"/>
  </g>
  <defs>
    <g id="shape0" transform="matrix(1.0, 0.0, 0.0, 1.0, 6.0, -21.35)">
      <path d="M-4.95 22.35 L-5.0 27.5 5.0 27.5" fill="none" stroke="#000000" stroke-linecap="round" stroke-linejoin="round" stroke-width="2.0"/>
    </g>
    <g id="sprite0" transform="matrix(1.0, 0.0, 0.0, 1.0, 13.0, 10.55)">
      <use ffdec:characterId="269" height="21.1" transform="matrix(1.0, 0.0, 0.0, 1.0, -13.0, -10.55)" width="26.0" xlink:href="#shape1"/>
    </g>
    <g id="shape1" transform="matrix(1.0, 0.0, 0.0, 1.0, 13.0, 10.55)">
      <path d="M5.0 -7.1 Q3.0 -7.25 3.0 -5.2 L3.25 -4.2 Q3.8 -3.2 5.0 -3.2 5.9 -3.2 6.55 -4.0 L7.0 -5.15 Q7.0 -7.0 5.0 -7.1 M9.85 -5.15 Q12.0 -0.7 12.0 2.95 12.0 5.45 11.45 6.45 10.35 8.35 6.5 9.55 L-5.5 9.55 Q-6.95 9.3 -7.4 8.85 -7.75 8.55 -8.75 8.55 -11.0 8.55 -11.7 6.65 L-12.0 4.6 Q-12.0 2.35 -9.35 0.45 L-5.0 -2.5 Q-3.35 -3.55 -1.25 -5.9 0.85 -8.25 3.15 -9.2 7.1 -10.8 9.85 -5.15 M10.2 2.2 Q10.75 1.45 10.75 0.85 10.75 -1.3 8.65 -1.2 6.5 -1.1 6.5 1.05 L6.8 2.05 Q7.3 3.05 8.5 3.05 9.5 3.05 10.2 2.2 M7.25 5.35 Q7.25 3.5 5.25 3.4 3.25 3.25 3.25 5.3 L3.5 6.3 Q4.05 7.3 5.25 7.3 6.15 7.3 6.8 6.5 L7.25 5.35 M1.85 1.95 Q2.4 2.8 3.5 2.8 4.4 2.8 5.05 2.0 L5.5 0.85 Q5.5 -1.3 3.5 -1.2 1.5 -1.15 1.5 0.8 L1.75 1.7 Q1.25 0.95 0.0 0.9 -2.0 0.75 -2.0 2.8 L-1.75 3.8 Q-1.2 4.8 0.0 4.8 0.9 4.8 1.55 4.0 L2.0 2.85 1.85 1.95 M-1.5 5.35 Q-1.5 3.5 -3.5 3.4 -5.5 3.25 -5.5 5.3 L-5.2 6.3 Q-4.7 7.3 -3.5 7.3 -2.6 7.3 -1.95 6.5 -1.5 5.85 -1.5 5.35 M-3.75 -2.35 Q-5.75 -2.5 -5.75 -0.45 L-5.5 0.55 Q-4.95 1.55 -3.75 1.55 -2.85 1.55 -2.2 0.75 L-1.75 -0.4 Q-1.75 -2.25 -3.75 -2.35 M-5.7 4.5 Q-5.25 3.85 -5.25 3.35 -5.25 1.5 -7.25 1.4 -9.25 1.25 -9.25 3.3 L-8.95 4.3 Q-8.45 5.3 -7.25 5.3 -6.35 5.3 -5.7 4.5" fill="#ffcc66" fill-rule="evenodd" stroke="none"/>
      <path d="M5.0 -7.1 Q7.0 -7.0 7.0 -5.15 L6.55 -4.0 Q5.9 -3.2 5.0 -3.2 3.8 -3.2 3.25 -4.2 L3.0 -5.2 Q3.0 -7.25 5.0 -7.1 M7.25 5.35 L6.8 6.5 Q6.15 7.3 5.25 7.3 4.05 7.3 3.5 6.3 L3.25 5.3 Q3.25 3.25 5.25 3.4 7.25 3.5 7.25 5.35 M1.75 1.7 L1.5 0.8 Q1.5 -1.15 3.5 -1.2 5.5 -1.3 5.5 0.85 L5.05 2.0 Q4.4 2.8 3.5 2.8 2.4 2.8 1.85 1.95 L1.75 1.7 M-3.75 -2.35 Q-1.75 -2.25 -1.75 -0.4 L-2.2 0.75 Q-2.85 1.55 -3.75 1.55 -4.95 1.55 -5.5 0.55 L-5.75 -0.45 Q-5.75 -2.5 -3.75 -2.35 M-1.5 5.35 Q-1.5 5.85 -1.95 6.5 -2.6 7.3 -3.5 7.3 -4.7 7.3 -5.2 6.3 L-5.5 5.3 Q-5.5 3.25 -3.5 3.4 -1.5 3.5 -1.5 5.35" fill="#cc9966" fill-rule="evenodd" stroke="none"/>
      <path d="M10.2 2.2 Q9.5 3.05 8.5 3.05 7.3 3.05 6.8 2.05 L6.5 1.05 Q6.5 -1.1 8.65 -1.2 10.75 -1.3 10.75 0.85 10.75 1.45 10.2 2.2 M1.75 1.7 L1.85 1.95 2.0 2.85 1.55 4.0 Q0.9 4.8 0.0 4.8 -1.2 4.8 -1.75 3.8 L-2.0 2.8 Q-2.0 0.75 0.0 0.9 1.25 0.95 1.75 1.7 M-5.7 4.5 Q-6.35 5.3 -7.25 5.3 -8.45 5.3 -8.95 4.3 L-9.25 3.3 Q-9.25 1.25 -7.25 1.4 -5.25 1.5 -5.25 3.35 -5.25 3.85 -5.7 4.5" fill="#ffff99" fill-rule="evenodd" stroke="none"/>
      <path d="M9.85 -5.15 Q12.0 -0.7 12.0 2.95 12.0 5.45 11.45 6.45 10.35 8.35 6.5 9.55 L-5.5 9.55 Q-6.95 9.3 -7.4 8.85 -7.75 8.55 -8.75 8.55 -11.0 8.55 -11.7 6.65 L-12.0 4.6 Q-12.0 2.35 -9.35 0.45 L-5.0 -2.5 Q-3.35 -3.55 -1.25 -5.9 0.85 -8.25 3.15 -9.2 7.1 -10.8 9.85 -5.15 Z" fill="none" stroke="#000000" stroke-linecap="round" stroke-linejoin="round" stroke-width="2.0"/>
    </g>
    <g id="sprite1" transform="matrix(1.0, 0.0, 0.0, 1.0, 34.05, 50.8)">
      <use ffdec:characterId="223" height="48.0" transform="matrix(0.9987, 4.0E-4, -4.0E-4, 0.9987, -16.7197, -31.9755)" width="34.65" xlink:href="#sprite2"/>
      <use ffdec:characterId="267" height="52.0" transform="matrix(1.0, 0.0, 0.0, 1.0, -18.75, -34.0)" width="42.0" xlink:href="#shape3"/>
      <use ffdec:characterId="243" height="44.35" transform="matrix(1.0, 0.0, 0.0, 1.0, -34.05, -50.8)" width="57.4" xlink:href="#sprite4"/>
    </g>
    <g id="sprite2" transform="matrix(1.0, 0.0, 0.0, 1.0, 16.5, 24.0)">
      <use ffdec:characterId="222" height="48.0" transform="matrix(1.0, 0.0, 0.0, 1.0, -16.5, -24.0)" width="34.65" xlink:href="#sprite3"/>
    </g>
    <g id="sprite3" transform="matrix(1.0, 0.0, 0.0, 1.0, 16.5, 24.0)">
      <use ffdec:characterId="206" height="48.0" transform="matrix(1.0, 0.0, 0.0, 1.0, -16.5, -24.0)" width="34.65" xlink:href="#shape2"/>
    </g>
    <g id="shape2" transform="matrix(1.0, 0.0, 0.0, 1.0, 16.5, 24.0)">
      <path d="M16.2 -13.2 L18.15 -12.25 18.15 -8.5 16.3 -7.3 Q15.8 -4.5 14.2 -2.15 L14.0 -1.6 Q14.0 -1.35 14.15 -1.05 16.5 2.7 16.5 7.5 16.5 14.35 11.7 19.2 6.85 24.0 0.0 24.0 L-2.3 23.85 Q-7.7 23.15 -11.65 19.2 -16.5 14.35 -16.5 7.5 -16.5 0.65 -11.65 -4.15 L-11.55 -4.2 -11.15 -4.6 -10.85 -5.1 -10.85 -5.7 Q-11.5 -7.7 -11.5 -10.0 -11.5 -15.8 -7.4 -19.9 -3.3 -24.0 2.5 -24.0 8.35 -24.0 12.4 -19.9 15.3 -17.0 16.2 -13.2" fill="url(#gradient0)" fill-rule="evenodd" stroke="none"/>
    </g>
    <linearGradient gradientTransform="matrix(0.0, 0.0287, -0.0293, 0.0, 0.8, 0.0)" gradientUnits="userSpaceOnUse" id="gradient0" spreadMethod="pad" x1="-819.2" x2="819.2">
      <stop offset="0.0" stop-color="#ffff00"/>
      <stop offset="1.0" stop-color="#d1d003"/>
    </linearGradient>
    <g id="shape3" transform="matrix(1.0, 0.0, 0.0, 1.0, 18.75, 34.0)">
      <path d="M8.75 -27.75 Q8.35 -27.6 8.0 -27.25 7.25 -26.5 7.25 -25.5 7.25 -24.45 8.0 -23.75 8.75 -23.0 9.75 -23.0 10.8 -23.0 11.5 -23.75 L12.05 -24.45 12.25 -23.0 12.05 -21.5 Q10.95 -20.75 9.5 -20.75 7.65 -20.75 6.3 -22.05 5.0 -23.35 5.0 -25.25 5.0 -26.65 5.75 -27.75 L7.25 -28.0 8.75 -27.75" fill="#00ccff" fill-rule="evenodd" stroke="none"/>
      <path d="M12.05 -24.45 L11.5 -23.75 Q10.8 -23.0 9.75 -23.0 8.75 -23.0 8.0 -23.75 7.25 -24.45 7.25 -25.5 7.25 -26.5 8.0 -27.25 8.35 -27.6 8.75 -27.75 9.9 -27.45 10.8 -26.55 11.7 -25.6 12.05 -24.45" fill="#000000" fill-rule="evenodd" stroke="none"/>
      <path d="M5.75 -27.75 Q5.0 -26.65 5.0 -25.25 5.0 -23.35 6.3 -22.05 7.65 -20.75 9.5 -20.75 10.95 -20.75 12.05 -21.5 11.7 -20.35 10.8 -19.45 9.35 -18.0 7.25 -18.0 5.2 -18.0 3.7 -19.45 2.25 -20.9 2.25 -23.0 2.25 -25.05 3.7 -26.55 4.65 -27.45 5.75 -27.75" fill="#ffffff" fill-rule="evenodd" stroke="none"/>
      <path d="M17.05 -20.6 L22.25 -18.0 17.1 -15.7 17.25 -18.0 17.05 -20.6 M22.25 -18.0 L17.25 -18.0 22.25 -18.0" fill="#ffcc00" fill-rule="evenodd" stroke="none"/>
      <path d="M17.1 -15.7 Q16.65 -12.35 14.75 -9.6 17.25 -5.6 17.25 -0.5 17.25 6.75 12.15 11.9 7.0 17.0 -0.25 17.0 L-2.7 16.85 Q-8.4 16.1 -12.6 11.9 -17.75 6.75 -17.75 -0.5 -17.75 -7.75 -12.6 -12.85 L-12.05 -13.4 Q-12.75 -15.55 -12.75 -18.0 -12.75 -24.2 -8.35 -28.6 -3.95 -33.0 2.25 -33.0 8.5 -33.0 12.85 -28.6 16.3 -25.15 17.05 -20.6 L22.25 -18.0 17.1 -15.7" fill="none" stroke="#000000" stroke-linecap="round" stroke-linejoin="round" stroke-width="2.0"/>
      <path d="M8.75 -27.75 Q8.35 -27.6 8.0 -27.25 7.25 -26.5 7.25 -25.5 7.25 -24.45 8.0 -23.75 8.75 -23.0 9.75 -23.0 10.8 -23.0 11.5 -23.75 L12.05 -24.45 Q11.7 -25.6 10.8 -26.55 9.9 -27.45 8.75 -27.75 L7.25 -28.0 5.75 -27.75 Q4.65 -27.45 3.7 -26.55 2.25 -25.05 2.25 -23.0 2.25 -20.9 3.7 -19.45 5.2 -18.0 7.25 -18.0 9.35 -18.0 10.8 -19.45 11.7 -20.35 12.05 -21.5 L12.25 -23.0 12.05 -24.45 M17.1 -15.7 L17.25 -18.0 17.05 -20.6 M17.25 -18.0 L22.25 -18.0" ffdec:has-small-stroke="true" ffdec:original-stroke-width="1.0" fill="none" stroke="#000000" stroke-linecap="round" stroke-linejoin="round" stroke-width="1.000204077861446"/>
    </g>
    <g id="sprite4" transform="matrix(1.0, 0.0, 0.0, 1.0, 46.3, 28.9)">
      <use ffdec:characterId="242" height="44.35" transform="matrix(1.0, 0.0, 0.0, 1.0, -46.3, -28.9)" width="57.4" xlink:href="#sprite5"/>
    </g>
    <g id="sprite5" transform="matrix(1.0, 0.0, 0.0, 1.0, 46.4, 29.15)">
      <use ffdec:characterId="225" height="13.8" transform="matrix(1.0, 0.0, 0.0, 1.0, -10.5, -6.65)" width="21.5" xlink:href="#shape4"/>
      <use ffdec:characterId="227" height="11.2" transform="matrix(1.0, 0.0, 0.0, 1.0, -24.1, -6.15)" width="28.4" xlink:href="#sprite6"/>
    </g>
    <g id="shape4" transform="matrix(1.0, 0.0, 0.0, 1.0, 10.5, 6.65)">
      <path d="M-2.65 3.3 L-5.0 3.85 Q-7.05 3.85 -8.55 2.4 -10.0 0.95 -10.0 -1.15 -10.0 -3.2 -8.55 -4.7 -7.4 -5.85 -5.8 -6.05 L-5.1 -6.15 -5.0 -6.15 -4.9 -6.15 -3.8 -6.0 -3.5 -5.9 -3.3 -5.8 -3.25 -5.8 -2.7 -5.55 Q-4.0 -5.35 -5.0 -4.35 -6.35 -3.0 -6.3 -1.15 -6.3 0.75 -5.0 2.05 -4.0 3.05 -2.65 3.3" fill="#ffffff" fill-rule="evenodd" stroke="none"/>
      <path d="M-2.65 3.3 Q-4.0 3.05 -5.0 2.05 -6.3 0.75 -6.3 -1.15 -6.35 -3.0 -5.0 -4.35 -4.0 -5.35 -2.7 -5.55 L-1.75 -5.0 -1.5 -4.75 -1.45 -4.7 -1.0 -4.15 -0.6 -3.45 -1.45 -3.6 Q-2.55 -3.6 -3.25 -2.9 -3.95 -2.2 -3.9 -1.15 -3.95 -0.1 -3.25 0.6 -2.5 1.35 -1.45 1.3 L-0.55 1.2 -1.45 2.4 Q-2.0 2.95 -2.65 3.3" fill="#99ff00" fill-rule="evenodd" stroke="none"/>
      <path d="M-0.55 1.2 L-1.45 1.3 Q-2.5 1.35 -3.25 0.6 -3.95 -0.1 -3.9 -1.15 -3.95 -2.2 -3.25 -2.9 -2.55 -3.6 -1.45 -3.6 L-0.6 -3.45 Q-0.2 -2.75 -0.05 -1.9 L0.0 -1.15 -0.2 0.35 -0.25 0.6 -0.55 1.2" fill="#000000" fill-rule="evenodd" stroke="none"/>
      <path d="M5.0 3.85 L4.8 1.25 10.0 3.85 4.85 6.15 5.0 3.85 10.0 3.85 5.0 3.85" fill="#ffcc00" fill-rule="evenodd" stroke="none"/>
      <path d="M-3.8 -6.0 L-4.9 -6.15 -5.0 -6.15 -5.1 -6.15 -5.8 -6.05 Q-7.4 -5.85 -8.55 -4.7 -10.0 -3.2 -10.0 -1.15 -10.0 0.95 -8.55 2.4 -7.05 3.85 -5.0 3.85 L-2.65 3.3 Q-2.0 2.95 -1.45 2.4 L-0.55 1.2 -1.45 1.3 Q-2.5 1.35 -3.25 0.6 -3.95 -0.1 -3.9 -1.15 -3.95 -2.2 -3.25 -2.9 -2.55 -3.6 -1.45 -3.6 L-0.6 -3.45 Q-0.2 -2.75 -0.05 -1.9 L0.0 -1.15 -0.2 0.35 -0.25 0.6 -0.55 1.2 M-2.7 -5.55 L-3.25 -5.8 -3.3 -5.8 M-0.6 -3.45 L-1.0 -4.15 -1.45 -4.7 -1.5 -4.75 -1.75 -5.0 -2.7 -5.55" ffdec:has-small-stroke="true" ffdec:original-stroke-width="1.0" fill="none" stroke="#000000" stroke-linecap="round" stroke-linejoin="round" stroke-width="1.000204077861446"/>
      <path d="M5.0 3.85 L10.0 3.85" ffdec:has-small-stroke="true" ffdec:original-stroke-width="1.0" fill="none" stroke="#b39001" stroke-linecap="round" stroke-linejoin="round" stroke-width="1.000204077861446"/>
      <path d="M4.85 6.15 L5.0 3.85 4.8 1.25" ffdec:has-small-stroke="true" ffdec:original-stroke-width="1.0" fill="none" stroke="#000000" stroke-linecap="round" stroke-linejoin="round" stroke-width="1.000204077861446"/>
      <path d="M4.85 6.15 L10.0 3.85 4.8 1.25" fill="none" stroke="#000000" stroke-linecap="round" stroke-linejoin="round" stroke-width="2.0"/>
    </g>
    <g id="sprite6" transform="matrix(1.0, 0.0, 0.0, 1.0, 14.2, 5.6)">
      <use ffdec:characterId="226" height="11.2" transform="matrix(1.0, 0.0, 0.0, 1.0, -14.2, -5.6)" width="28.4" xlink:href="#shape5"/>
    </g>
    <g id="shape5" transform="matrix(1.0, 0.0, 0.0, 1.0, 14.2, 5.6)">
      <path d="M9.65 -3.95 L5.5 -4.5 1.3 -3.9 0.65 -3.2 0.2 -1.85 0.2 0.85 0.5 2.25 0.95 3.5 1.8 4.4 3.6 4.75 5.8 4.65 7.55 4.25 9.0 3.5 10.0 2.15 11.05 -0.05 11.45 -2.15 10.8 -3.15 9.65 -3.95 M14.1 -2.0 L13.05 -1.15 11.95 1.25 10.75 3.05 9.6 4.4 8.1 5.15 5.85 5.55 3.5 5.6 1.3 5.15 0.05 4.3 -0.75 2.95 -1.65 -2.05 -2.3 -2.6 -2.95 -2.7 Q-6.25 -2.6 -9.6 -1.25 -11.65 -0.05 -11.85 1.5 L-14.1 0.75 Q-14.6 -1.75 -12.0 -3.35 -7.4 -5.1 -2.8 -5.15 L6.65 -5.6 14.2 -3.85 14.1 -2.0" fill="#000000" fill-rule="evenodd" stroke="none"/>
      <path d="M9.65 -3.95 L10.8 -3.15 11.45 -2.15 11.05 -0.05 10.0 2.15 9.0 3.5 7.55 4.25 5.8 4.65 3.6 4.75 1.8 4.4 0.95 3.5 0.5 2.25 0.2 0.85 0.2 -1.85 0.65 -3.2 1.3 -3.9 5.5 -4.5 9.65 -3.95" fill="#000000" fill-opacity="0.7372549" fill-rule="evenodd" stroke="none"/>
    </g>
  </defs>
</svg>
