<?xml version="1.0" encoding="UTF-8" standalone="no"?>
<svg xmlns:ffdec="https://www.free-decompiler.com/flash" xmlns:xlink="http://www.w3.org/1999/xlink" ffdec:objectType="frame" height="34.85px" width="84.05px" xmlns="http://www.w3.org/2000/svg">
  <g transform="matrix(1.0, 0.0, 0.0, 1.0, 42.0, 17.4)">
    <use ffdec:characterId="359" height="34.85" transform="matrix(1.0, 0.0, 0.0, 1.0, -42.0, -17.4)" width="84.05" xlink:href="#shape0"/>
  </g>
  <defs>
    <g id="shape0" transform="matrix(1.0, 0.0, 0.0, 1.0, 42.0, 17.4)">
      <path d="M-16.7 -11.7 Q-11.0 -17.4 -2.95 -17.4 5.1 -17.4 10.8 -11.7 16.5 -6.0 16.5 2.05 L16.3 5.05 Q28.55 8.2 41.5 15.55 L42.0 16.15 41.9 16.9 41.3 17.4 40.5 17.3 Q27.35 9.85 14.95 6.8 L14.9 6.8 14.85 6.75 Q-3.75 2.1 -20.55 7.3 L-20.6 7.3 -20.65 7.35 Q-30.9 10.5 -40.4 17.25 L-41.15 17.4 Q-41.6 17.3 -41.8 17.0 L-41.95 16.25 Q-41.9 15.8 -41.55 15.6 -32.15 8.9 -22.05 5.7 -22.4 3.95 -22.4 2.05 -22.4 -6.0 -16.7 -11.7" fill="#ffffff" fill-rule="evenodd" stroke="none"/>
    </g>
  </defs>
</svg>
