<?xml version="1.0" encoding="UTF-8" standalone="no"?>
<svg xmlns:ffdec="https://www.free-decompiler.com/flash" xmlns:xlink="http://www.w3.org/1999/xlink" ffdec:objectType="frame" height="11.2px" width="28.4px" xmlns="http://www.w3.org/2000/svg">
  <g transform="matrix(1.0, 0.0, 0.0, 1.0, 14.2, 5.6)">
    <use ffdec:characterId="226" height="11.2" transform="matrix(1.0, 0.0, 0.0, 1.0, -14.2, -5.6)" width="28.4" xlink:href="#shape0"/>
  </g>
  <defs>
    <g id="shape0" transform="matrix(1.0, 0.0, 0.0, 1.0, 14.2, 5.6)">
      <path d="M9.65 -3.95 L5.5 -4.5 1.3 -3.9 0.65 -3.2 0.2 -1.85 0.2 0.85 0.5 2.25 0.95 3.5 1.8 4.4 3.6 4.75 5.8 4.65 7.55 4.25 9.0 3.5 10.0 2.15 11.05 -0.05 11.45 -2.15 10.8 -3.15 9.65 -3.95 M14.1 -2.0 L13.05 -1.15 11.95 1.25 10.75 3.05 9.6 4.4 8.1 5.15 5.85 5.55 3.5 5.6 1.3 5.15 0.05 4.3 -0.75 2.95 -1.65 -2.05 -2.3 -2.6 -2.95 -2.7 Q-6.25 -2.6 -9.6 -1.25 -11.65 -0.05 -11.85 1.5 L-14.1 0.75 Q-14.6 -1.75 -12.0 -3.35 -7.4 -5.1 -2.8 -5.15 L6.65 -5.6 14.2 -3.85 14.1 -2.0" fill="#000000" fill-rule="evenodd" stroke="none"/>
      <path d="M9.65 -3.95 L10.8 -3.15 11.45 -2.15 11.05 -0.05 10.0 2.15 9.0 3.5 7.55 4.25 5.8 4.65 3.6 4.75 1.8 4.4 0.95 3.5 0.5 2.25 0.2 0.85 0.2 -1.85 0.65 -3.2 1.3 -3.9 5.5 -4.5 9.65 -3.95" fill="#000000" fill-opacity="0.7372549" fill-rule="evenodd" stroke="none"/>
    </g>
  </defs>
</svg>
