<?xml version="1.0" encoding="UTF-8" standalone="no"?>
<svg xmlns:ffdec="https://www.free-decompiler.com/flash" xmlns:xlink="http://www.w3.org/1999/xlink" ffdec:objectType="frame" height="70.0px" width="90.95px" xmlns="http://www.w3.org/2000/svg">
  <g transform="matrix(1.0, 0.0, 0.0, 1.0, 45.95, 15.0)">
    <use ffdec:characterId="190" height="70.0" transform="matrix(1.0, 0.0, 0.0, 1.0, -45.95, -15.0)" width="90.95" xlink:href="#shape0"/>
    <use ffdec:characterId="191" height="13.8" transform="matrix(1.0, 0.0, 0.0, 1.0, -17.75, 34.45)" width="36.2" xlink:href="#text0"/>
    <use ffdec:characterId="192" height="33.0" transform="matrix(1.0, 0.0, 0.0, 1.0, -29.5, -4.0)" width="58.75" xlink:href="#shape1"/>
  </g>
  <defs>
    <g id="shape0" transform="matrix(1.0, 0.0, 0.0, 1.0, 45.95, 15.0)">
      <path d="M-45.95 -13.95 L-45.95 -15.0 -45.0 -15.0 -45.95 -13.95" fill="#000000" fill-opacity="0.49411765" fill-rule="evenodd" stroke="none"/>
      <path d="M25.0 -15.0 Q35.0 -15.0 40.0 -10.0 45.0 -5.0 45.0 5.0 L45.0 35.0 Q45.0 55.0 25.0 55.0 L-25.0 55.0 Q-45.0 55.0 -45.0 35.0 L-45.0 5.0 Q-45.0 -4.0 -40.95 -8.95 L-40.0 -10.0 Q-35.0 -15.0 -25.0 -15.0 L25.0 -15.0" fill="#000000" fill-opacity="0.49803922" fill-rule="evenodd" stroke="none"/>
    </g>
    <g id="text0" transform="matrix(1.0, 0.0, 0.0, 1.0, -32.25, -0.95)">
      <g transform="matrix(1.0, 0.0, 0.0, 1.0, 0.0, 0.0)">
        <use fill="#ffffff" height="13.8" transform="matrix(0.0156, 0.0, 0.0, 0.0156, 32.0, 13.0)" width="36.2" xlink:href="#font_Apple_Casual_S0"/>
        <use fill="#ffffff" height="13.8" transform="matrix(0.0156, 0.0, 0.0, 0.0156, 37.5, 13.0)" width="36.2" xlink:href="#font_Apple_Casual_t0"/>
        <use fill="#ffffff" height="13.8" transform="matrix(0.0156, 0.0, 0.0, 0.0156, 43.1, 13.0)" width="36.2" xlink:href="#font_Apple_Casual_a0"/>
        <use fill="#ffffff" height="13.8" transform="matrix(0.0156, 0.0, 0.0, 0.0156, 48.8, 13.0)" width="36.2" xlink:href="#font_Apple_Casual_t0"/>
        <use fill="#ffffff" height="13.8" transform="matrix(0.0156, 0.0, 0.0, 0.0156, 54.4, 13.0)" width="36.2" xlink:href="#font_Apple_Casual_s0"/>
      </g>
    </g>
    <g id="font_Apple_Casual_S0">
      <path d="M62.0 -227.0 Q100.0 -228.0 108.0 -207.0 116.0 -187.0 118.0 -162.0 119.0 -137.0 124.0 -117.0 130.0 -96.0 164.0 -96.0 178.0 -96.0 190.0 -99.0 203.0 -102.0 213.0 -109.0 222.0 -116.0 228.0 -128.0 234.0 -139.0 234.0 -157.0 234.0 -158.0 234.0 -159.0 234.0 -161.0 234.0 -162.0 233.0 -164.0 233.0 -165.0 233.0 -166.0 233.0 -168.0 225.0 -211.0 214.0 -235.0 202.0 -259.0 185.0 -279.0 168.0 -299.0 143.0 -325.0 119.0 -350.0 84.0 -397.0 66.0 -422.0 53.0 -442.0 41.0 -462.0 33.0 -479.0 24.0 -496.0 21.0 -511.0 17.0 -527.0 17.0 -542.0 17.0 -574.0 25.0 -601.0 32.0 -628.0 49.0 -648.0 65.0 -667.0 90.0 -678.0 116.0 -689.0 152.0 -689.0 176.0 -689.0 203.0 -687.0 229.0 -685.0 253.0 -675.0 277.0 -665.0 297.0 -643.0 316.0 -622.0 327.0 -582.0 L327.0 -573.0 Q327.0 -560.0 323.0 -547.0 319.0 -533.0 311.0 -522.0 304.0 -512.0 293.0 -505.0 283.0 -498.0 271.0 -498.0 264.0 -498.0 259.0 -500.0 254.0 -503.0 250.0 -507.0 247.0 -511.0 244.0 -517.0 242.0 -523.0 241.0 -529.0 L240.0 -534.0 240.0 -553.0 Q239.0 -568.0 235.0 -578.0 231.0 -588.0 224.0 -594.0 218.0 -600.0 209.0 -603.0 201.0 -606.0 190.0 -606.0 165.0 -606.0 151.0 -599.0 136.0 -592.0 129.0 -580.0 122.0 -569.0 121.0 -555.0 119.0 -540.0 119.0 -525.0 119.0 -502.0 145.0 -467.0 171.0 -432.0 202.0 -396.0 234.0 -360.0 261.0 -329.0 288.0 -298.0 290.0 -285.0 302.0 -271.0 310.0 -255.0 319.0 -238.0 324.0 -221.0 330.0 -204.0 332.0 -186.0 335.0 -169.0 335.0 -152.0 335.0 -120.0 327.0 -93.0 320.0 -65.0 303.0 -46.0 287.0 -26.0 262.0 -15.0 236.0 -4.0 201.0 -4.0 170.0 -4.0 139.0 -11.0 108.0 -17.0 83.0 -32.0 58.0 -48.0 43.0 -72.0 27.0 -97.0 28.0 -133.0 28.0 -136.0 28.0 -139.0 28.0 -143.0 29.0 -146.0 29.0 -150.0 30.0 -153.0 30.0 -157.0 31.0 -160.0 L32.0 -178.0 34.0 -189.0 Q36.0 -201.0 38.0 -208.0 40.0 -215.0 42.0 -220.0 45.0 -224.0 50.0 -225.0 54.0 -227.0 62.0 -227.0" fill-rule="evenodd" stroke="none"/>
    </g>
    <g id="font_Apple_Casual_t0">
      <path d="M148.0 -10.0 Q148.0 -24.0 147.0 -37.0 147.0 -50.0 147.0 -61.0 146.0 -72.0 146.0 -83.0 146.0 -93.0 146.0 -103.0 146.0 -119.0 146.0 -134.0 146.0 -149.0 147.0 -164.0 147.0 -179.0 147.0 -196.0 147.0 -212.0 147.0 -230.0 147.0 -240.0 147.0 -268.0 146.0 -295.0 146.0 -326.0 145.0 -357.0 144.0 -384.0 144.0 -410.0 144.0 -418.0 L140.0 -422.0 Q138.0 -422.0 134.0 -422.0 130.0 -421.0 125.0 -421.0 120.0 -421.0 113.0 -420.0 107.0 -420.0 99.0 -420.0 85.0 -420.0 69.0 -421.0 54.0 -423.0 41.0 -427.0 27.0 -432.0 19.0 -440.0 10.0 -448.0 10.0 -462.0 10.0 -476.0 20.0 -484.0 30.0 -492.0 45.0 -496.0 60.0 -501.0 78.0 -502.0 96.0 -503.0 112.0 -503.0 L142.0 -503.0 147.0 -508.0 Q147.0 -509.0 147.0 -518.0 148.0 -526.0 149.0 -538.0 149.0 -550.0 150.0 -561.0 150.0 -573.0 150.0 -580.0 150.0 -590.0 149.0 -599.0 149.0 -609.0 148.0 -618.0 147.0 -628.0 146.0 -637.0 145.0 -646.0 145.0 -655.0 153.0 -664.0 158.0 -671.0 163.0 -678.0 169.0 -682.0 174.0 -687.0 181.0 -689.0 188.0 -691.0 198.0 -691.0 209.0 -691.0 219.0 -689.0 229.0 -686.0 236.0 -681.0 244.0 -675.0 248.0 -667.0 253.0 -658.0 253.0 -645.0 253.0 -643.0 253.0 -635.0 252.0 -627.0 252.0 -616.0 251.0 -606.0 250.0 -596.0 250.0 -586.0 250.0 -581.0 250.0 -574.0 250.0 -565.0 251.0 -555.0 252.0 -544.0 252.0 -534.0 253.0 -523.0 254.0 -512.0 254.0 -503.0 L322.0 -503.0 Q325.0 -503.0 329.0 -501.0 333.0 -498.0 337.0 -495.0 340.0 -492.0 343.0 -488.0 347.0 -485.0 348.0 -482.0 345.0 -476.0 341.0 -470.0 337.0 -463.0 332.0 -457.0 327.0 -452.0 321.0 -448.0 316.0 -443.0 309.0 -442.0 300.0 -440.0 290.0 -439.0 280.0 -437.0 271.0 -435.0 263.0 -433.0 257.0 -429.0 251.0 -425.0 250.0 -418.0 249.0 -387.0 249.0 -350.0 248.0 -313.0 247.0 -276.0 247.0 -240.0 246.0 -208.0 246.0 -175.0 246.0 -153.0 246.0 -145.0 246.0 -137.0 246.0 -128.0 246.0 -119.0 246.0 -110.0 246.0 -101.0 247.0 -91.0 247.0 -80.0 247.0 -65.0 248.0 -57.0 249.0 -49.0 250.0 -44.0 252.0 -39.0 253.0 -36.0 255.0 -32.0 258.0 -25.0 258.0 -13.0 252.0 -5.0 247.0 3.0 238.0 7.0 230.0 12.0 220.0 13.0 210.0 15.0 202.0 15.0 196.0 15.0 188.0 13.0 180.0 12.0 173.0 9.0 165.0 5.0 159.0 1.0 152.0 -4.0 148.0 -10.0" fill-rule="evenodd" stroke="none"/>
    </g>
    <g id="font_Apple_Casual_a0">
      <path d="M131.0 -108.0 Q132.0 -106.0 133.0 -105.0 134.0 -103.0 136.0 -103.0 137.0 -102.0 138.0 -102.0 140.0 -102.0 141.0 -102.0 150.0 -102.0 160.0 -108.0 170.0 -114.0 178.0 -130.0 186.0 -145.0 191.0 -172.0 196.0 -198.0 196.0 -238.0 196.0 -249.0 195.0 -256.0 193.0 -263.0 190.0 -268.0 186.0 -272.0 180.0 -274.0 174.0 -276.0 164.0 -276.0 152.0 -276.0 146.0 -259.0 139.0 -241.0 136.0 -219.0 133.0 -196.0 132.0 -174.0 131.0 -152.0 131.0 -143.0 L131.0 -108.0 M244.0 -72.0 Q235.0 -54.0 227.0 -40.0 219.0 -27.0 208.0 -18.0 196.0 -9.0 180.0 -4.0 165.0 0.0 141.0 0.0 124.0 0.0 106.0 -3.0 87.0 -5.0 70.0 -13.0 54.0 -21.0 41.0 -36.0 28.0 -50.0 22.0 -74.0 20.0 -86.0 18.0 -130.0 17.0 -175.0 26.0 -224.0 34.0 -272.0 58.0 -311.0 81.0 -350.0 129.0 -350.0 138.0 -350.0 147.0 -349.0 156.0 -348.0 165.0 -347.0 173.0 -347.0 182.0 -346.0 191.0 -345.0 200.0 -345.0 202.0 -345.0 209.0 -352.0 216.0 -360.0 226.0 -367.0 237.0 -374.0 250.0 -376.0 264.0 -379.0 280.0 -369.0 289.0 -370.0 296.0 -358.0 303.0 -347.0 309.0 -328.0 314.0 -310.0 316.0 -287.0 319.0 -265.0 319.0 -243.0 319.0 -228.0 319.0 -219.0 318.0 -209.0 318.0 -202.0 318.0 -195.0 317.0 -190.0 317.0 -184.0 317.0 -178.0 317.0 -148.0 321.0 -126.0 325.0 -103.0 331.0 -87.0 336.0 -70.0 340.0 -58.0 344.0 -47.0 344.0 -38.0 344.0 -32.0 341.0 -27.0 339.0 -22.0 333.0 -18.0 326.0 -13.0 316.0 -9.0 305.0 -4.0 289.0 0.0 285.0 0.0 277.0 -4.0 270.0 -8.0 262.0 -16.0 255.0 -25.0 249.0 -38.0 244.0 -52.0 244.0 -72.0" fill-rule="evenodd" stroke="none"/>
    </g>
    <g id="font_Apple_Casual_s0">
      <path d="M19.0 -47.0 Q21.0 -52.0 28.0 -56.0 35.0 -61.0 43.0 -64.0 52.0 -67.0 60.0 -68.0 68.0 -70.0 72.0 -70.0 80.0 -70.0 87.0 -69.0 94.0 -67.0 101.0 -66.0 108.0 -64.0 115.0 -63.0 122.0 -62.0 129.0 -62.0 138.0 -62.0 149.0 -66.0 159.0 -71.0 167.0 -78.0 176.0 -86.0 181.0 -96.0 187.0 -107.0 187.0 -119.0 187.0 -134.0 163.0 -144.0 138.0 -153.0 109.0 -167.0 80.0 -182.0 55.0 -208.0 31.0 -234.0 31.0 -282.0 31.0 -304.0 42.0 -322.0 52.0 -339.0 72.0 -351.0 91.0 -363.0 120.0 -370.0 148.0 -376.0 183.0 -376.0 L189.0 -376.0 Q201.0 -376.0 217.0 -376.0 234.0 -375.0 250.0 -371.0 265.0 -368.0 276.0 -360.0 287.0 -352.0 287.0 -337.0 287.0 -329.0 286.0 -321.0 284.0 -313.0 281.0 -306.0 277.0 -299.0 271.0 -295.0 265.0 -291.0 256.0 -291.0 243.0 -291.0 230.0 -292.0 216.0 -293.0 203.0 -295.0 190.0 -296.0 180.0 -298.0 169.0 -299.0 162.0 -299.0 158.0 -299.0 155.0 -298.0 152.0 -297.0 149.0 -295.0 147.0 -292.0 146.0 -288.0 145.0 -283.0 145.0 -276.0 145.0 -275.0 145.0 -274.0 145.0 -272.0 145.0 -271.0 145.0 -269.0 145.0 -268.0 146.0 -266.0 146.0 -264.0 148.0 -249.0 170.0 -240.0 193.0 -231.0 220.0 -218.0 247.0 -206.0 269.0 -184.0 291.0 -162.0 291.0 -121.0 291.0 -96.0 285.0 -79.0 279.0 -63.0 268.0 -51.0 257.0 -39.0 242.0 -30.0 227.0 -21.0 209.0 -12.0 209.0 -12.0 205.0 -11.0 201.0 -9.0 196.0 -7.0 191.0 -5.0 187.0 -2.0 182.0 0.0 181.0 3.0 177.0 3.0 172.0 3.0 168.0 3.0 164.0 4.0 160.0 4.0 155.0 4.0 151.0 4.0 146.0 4.0 138.0 4.0 130.0 3.0 122.0 3.0 114.0 3.0 107.0 3.0 100.0 2.0 93.0 2.0 87.0 1.0 81.0 0.0 70.0 -3.0 58.0 -7.0 47.0 -13.0 35.0 -19.0 27.0 -26.0 18.0 -34.0 18.0 -43.0 18.0 -43.0 18.0 -44.0 18.0 -44.0 18.0 -45.0 18.0 -45.0 18.0 -46.0 19.0 -46.0 19.0 -47.0" fill-rule="evenodd" stroke="none"/>
    </g>
    <g id="shape1" transform="matrix(1.0, 0.0, 0.0, 1.0, 29.5, 4.0)">
      <path d="M29.25 -4.0 L29.25 29.0 11.15 29.0 11.15 -4.0 29.25 -4.0 M8.9 29.0 L-9.15 29.0 -9.15 7.0 8.9 7.0 8.9 29.0 M-29.5 18.0 L-11.45 18.0 -11.45 29.0 -29.5 29.0 -29.5 18.0" fill="#ffffff" fill-rule="evenodd" stroke="none"/>
    </g>
  </defs>
</svg>
