<?xml version="1.0" encoding="UTF-8" standalone="no"?>
<svg xmlns:ffdec="https://www.free-decompiler.com/flash" xmlns:xlink="http://www.w3.org/1999/xlink" ffdec:objectType="frame" height="480.0px" width="720.0px" xmlns="http://www.w3.org/2000/svg">
  <g transform="matrix(1.0, 0.0, 0.0, 1.0, 360.0, 240.0)">
    <use ffdec:characterId="293" height="480.0" transform="matrix(1.0, 0.0, 0.0, 1.0, -360.0, -240.0)" width="720.0" xlink:href="#shape0"/>
  </g>
  <defs>
    <g id="shape0" transform="matrix(1.0, 0.0, 0.0, 1.0, 360.0, 240.0)">
      <path d="M360.0 -240.0 L360.0 240.0 -360.0 240.0 -360.0 -240.0 360.0 -240.0 Z" ffdec:has-small-stroke="true" ffdec:original-stroke-width="0.05" fill="none" stroke="#000000" stroke-linecap="round" stroke-linejoin="round" stroke-width="1.0"/>
      <path d="M0.0 -25.7 L0.1 -25.7 Q10.75 -25.7 18.3 -18.2 25.85 -10.65 25.85 0.0 25.85 10.6 18.3 18.15 10.75 25.7 0.1 25.7 L0.0 25.7 Q-10.55 25.65 -18.05 18.15 -25.6 10.6 -25.6 0.0 L-25.6 -0.05 Q-25.6 -10.65 -18.05 -18.2 -10.55 -25.65 0.0 -25.7" fill="#ffffff" fill-opacity="0.0627451" fill-rule="evenodd" stroke="none"/>
      <path d="M0.0 -25.7 L0.0 -34.25" fill="none" stroke="#000000" stroke-linecap="round" stroke-linejoin="round" stroke-width="1.0"/>
      <path d="M0.0 -25.7 L0.1 -25.7 Q10.75 -25.7 18.3 -18.2 25.85 -10.65 25.85 0.0 L51.45 0.0 M0.0 25.7 L0.0 34.3 M25.85 0.0 Q25.85 10.6 18.3 18.15 10.75 25.7 0.1 25.7 L0.0 25.7 Q-10.55 25.65 -18.05 18.15 -25.6 10.6 -25.6 0.0 L-51.4 0.0 M-25.6 0.0 L-25.6 -0.05 Q-25.6 -10.65 -18.05 -18.2 -10.55 -25.65 0.0 -25.7" ffdec:has-small-stroke="true" ffdec:original-stroke-width="0.05" fill="none" stroke="#000000" stroke-linecap="round" stroke-linejoin="round" stroke-width="1.0"/>
      <path d="M242.8 226.25 L242.8 197.7 256.2 197.7 256.2 226.25 242.8 226.25" fill="#ffffff" fill-rule="evenodd" stroke="none"/>
      <path d="M336.55 197.7 L349.95 197.7 349.95 226.25 349.8 226.25 336.55 226.25 336.55 197.7" fill="#000000" fill-rule="evenodd" stroke="none"/>
      <path d="M309.75 197.7 L323.15 197.7 323.15 226.25 309.75 226.25 309.75 197.7" fill="#ff0000" fill-rule="evenodd" stroke="none"/>
      <path d="M256.2 197.7 L269.6 197.7 269.6 226.25 256.2 226.25 256.2 197.7" fill="#ffff00" fill-rule="evenodd" stroke="none"/>
      <path d="M269.6 197.7 L283.0 197.7 283.0 226.25 269.6 226.25 269.6 197.7" fill="#00ffff" fill-rule="evenodd" stroke="none"/>
      <path d="M283.0 197.7 L296.4 197.7 296.4 226.25 283.0 226.25 283.0 197.7" fill="#00ff00" fill-rule="evenodd" stroke="none"/>
      <path d="M296.4 197.7 L309.75 197.7 309.75 226.25 296.4 226.25 296.4 197.7" fill="#ff00ff" fill-rule="evenodd" stroke="none"/>
      <path d="M323.15 197.7 L336.55 197.7 336.55 226.25 323.15 226.25 323.15 197.7" fill="#0000ff" fill-rule="evenodd" stroke="none"/>
      <path d="M349.8 226.25 L349.8 232.6 242.75 232.6 242.75 226.25 242.8 226.25 256.2 226.25 269.6 226.25 283.0 226.25 296.4 226.25 309.75 226.25 323.15 226.25 336.55 226.25 349.8 226.25" fill="url(#gradient0)" fill-rule="evenodd" stroke="none"/>
    </g>
    <linearGradient gradientTransform="matrix(0.0654, 0.0, 0.0, 0.0039, 296.25, 229.4)" gradientUnits="userSpaceOnUse" id="gradient0" spreadMethod="pad" x1="-819.2" x2="819.2">
      <stop offset="0.0" stop-color="#ffffff"/>
      <stop offset="1.0" stop-color="#000000"/>
    </linearGradient>
  </defs>
</svg>
