<?xml version="1.0" encoding="UTF-8" standalone="no"?>
<svg xmlns:ffdec="https://www.free-decompiler.com/flash" xmlns:xlink="http://www.w3.org/1999/xlink" ffdec:objectType="frame" height="26.0px" width="110.0px" xmlns="http://www.w3.org/2000/svg">
  <g transform="matrix(1.0, 0.0, 0.0, 1.0, 55.0, 13.0)">
    <use ffdec:characterId="314" height="26.0" transform="matrix(1.0, 0.0, 0.0, 1.0, -55.0, -13.0)" width="110.0" xlink:href="#shape0"/>
    <use ffdec:characterId="315" height="15.35" transform="matrix(1.0, 0.0, 0.0, 1.0, -37.0, -6.05)" width="74.7" xlink:href="#text0"/>
  </g>
  <defs>
    <g id="shape0" transform="matrix(1.0, 0.0, 0.0, 1.0, 55.0, 13.0)">
      <path d="M51.2 -9.2 Q54.9 -5.5 55.0 -0.3 L55.0 0.35 Q54.9 5.5 51.2 9.2 47.5 12.9 42.35 13.0 L-42.3 13.0 Q-47.5 12.9 -51.2 9.2 -54.9 5.5 -55.0 0.35 L-55.0 -0.3 Q-54.9 -5.5 -51.2 -9.2 -47.5 -12.9 -42.3 -13.0 L42.35 -13.0 Q47.5 -12.9 51.2 -9.2" fill="#000000" fill-opacity="0.45490196" fill-rule="evenodd" stroke="none"/>
    </g>
    <g id="text0" transform="matrix(1.0, 0.0, 0.0, 1.0, -35.0, 0.5)">
      <g transform="matrix(1.0, 0.0, 0.0, 1.0, 34.55, 0.0)">
        <use fill="#ffffff" height="15.35" transform="matrix(0.0137, 0.0, 0.0, 0.0137, 0.0, 11.0)" width="74.7" xlink:href="#font_Apple_Casual_T0"/>
        <use fill="#ffffff" height="15.35" transform="matrix(0.0137, 0.0, 0.0, 0.0137, 6.75, 11.0)" width="74.7" xlink:href="#font_Apple_Casual_r0"/>
        <use fill="#ffffff" height="15.35" transform="matrix(0.0137, 0.0, 0.0, 0.0137, 11.1, 11.0)" width="74.7" xlink:href="#font_Apple_Casual_a0"/>
        <use fill="#ffffff" height="15.35" transform="matrix(0.0137, 0.0, 0.0, 0.0137, 16.1, 11.0)" width="74.7" xlink:href="#font_Apple_Casual_i0"/>
        <use fill="#ffffff" height="15.35" transform="matrix(0.0137, 0.0, 0.0, 0.0137, 18.4, 11.0)" width="74.7" xlink:href="#font_Apple_Casual_n0"/>
        <use fill="#ffffff" height="15.35" transform="matrix(0.0137, 0.0, 0.0, 0.0137, 27.3, 11.0)" width="74.7" xlink:href="#font_Apple_Casual_F0"/>
        <use fill="#ffffff" height="15.35" transform="matrix(0.0137, 0.0, 0.0, 0.0137, 32.35, 11.0)" width="74.7" xlink:href="#font_Apple_Casual_l0"/>
        <use fill="#ffffff" height="15.35" transform="matrix(0.0137, 0.0, 0.0, 0.0137, 35.2, 11.0)" width="74.7" xlink:href="#font_Apple_Casual_y0"/>
        <use fill="#ffffff" height="15.35" transform="matrix(0.0137, 0.0, 0.0, 0.0137, 40.6, 11.0)" width="74.7" xlink:href="#font_Apple_Casual_i0"/>
        <use fill="#ffffff" height="15.35" transform="matrix(0.0137, 0.0, 0.0, 0.0137, 42.9, 11.0)" width="74.7" xlink:href="#font_Apple_Casual_n0"/>
        <use fill="#ffffff" height="15.35" transform="matrix(0.0137, 0.0, 0.0, 0.0137, 48.55, 11.0)" width="74.7" xlink:href="#font_Apple_Casual_g0"/>
      </g>
    </g>
    <g id="font_Apple_Casual_T0">
      <path d="M209.0 -9.0 Q206.0 -13.0 201.0 -15.0 196.0 -17.0 191.0 -19.0 186.0 -21.0 182.0 -24.0 178.0 -28.0 178.0 -34.0 178.0 -39.0 176.0 -52.0 174.0 -65.0 173.0 -80.0 171.0 -94.0 169.0 -107.0 168.0 -120.0 168.0 -125.0 L168.0 -222.0 Q168.0 -242.0 169.0 -281.0 170.0 -321.0 171.0 -366.0 172.0 -411.0 173.0 -454.0 174.0 -497.0 174.0 -525.0 174.0 -527.0 173.0 -535.0 171.0 -543.0 169.0 -554.0 167.0 -565.0 164.0 -576.0 162.0 -588.0 160.0 -596.0 L156.0 -596.0 Q146.0 -596.0 123.0 -597.0 99.0 -597.0 74.0 -601.0 50.0 -606.0 31.0 -615.0 12.0 -625.0 12.0 -643.0 12.0 -646.0 13.0 -650.0 15.0 -654.0 18.0 -658.0 21.0 -662.0 26.0 -667.0 32.0 -671.0 39.0 -675.0 56.0 -676.0 87.0 -677.0 118.0 -678.0 155.0 -679.0 192.0 -680.0 229.0 -680.0 266.0 -681.0 295.0 -681.0 305.0 -681.0 314.0 -681.0 323.0 -681.0 329.0 -681.0 336.0 -681.0 341.0 -681.0 346.0 -680.0 348.0 -680.0 364.0 -681.0 379.0 -683.0 395.0 -685.0 408.0 -688.0 420.0 -690.0 430.0 -692.0 440.0 -694.0 444.0 -694.0 455.0 -694.0 462.0 -689.0 469.0 -685.0 474.0 -677.0 478.0 -670.0 480.0 -661.0 482.0 -652.0 482.0 -643.0 482.0 -623.0 456.0 -615.0 431.0 -607.0 398.0 -605.0 365.0 -602.0 333.0 -602.0 301.0 -602.0 288.0 -598.0 286.0 -592.0 284.0 -584.0 283.0 -577.0 282.0 -569.0 282.0 -561.0 281.0 -554.0 281.0 -546.0 281.0 -540.0 L281.0 -522.0 Q281.0 -483.0 281.0 -443.0 280.0 -403.0 280.0 -363.0 280.0 -323.0 279.0 -284.0 279.0 -246.0 279.0 -210.0 279.0 -193.0 279.0 -175.0 279.0 -157.0 280.0 -140.0 281.0 -122.0 284.0 -104.0 286.0 -87.0 290.0 -70.0 290.0 -69.0 291.0 -66.0 293.0 -62.0 295.0 -57.0 296.0 -53.0 298.0 -49.0 299.0 -45.0 299.0 -44.0 L300.0 -42.0 Q300.0 -37.0 297.0 -30.0 294.0 -24.0 289.0 -18.0 283.0 -12.0 277.0 -8.0 271.0 -4.0 265.0 -4.0 258.0 -4.0 251.0 -4.0 244.0 -5.0 237.0 -5.0 230.0 -6.0 223.0 -7.0 216.0 -8.0 209.0 -9.0" fill-rule="evenodd" stroke="none"/>
    </g>
    <g id="font_Apple_Casual_r0">
      <path d="M24.0 -47.0 Q21.0 -89.0 21.0 -129.0 22.0 -168.0 24.0 -207.0 25.0 -247.0 25.0 -286.0 25.0 -326.0 20.0 -368.0 24.0 -375.0 29.0 -378.0 34.0 -381.0 40.0 -383.0 46.0 -384.0 53.0 -385.0 60.0 -385.0 67.0 -387.0 67.0 -387.0 71.0 -388.0 74.0 -389.0 79.0 -390.0 83.0 -391.0 87.0 -392.0 91.0 -393.0 92.0 -393.0 L96.0 -393.0 Q102.0 -393.0 107.0 -391.0 112.0 -388.0 116.0 -383.0 120.0 -379.0 122.0 -373.0 125.0 -368.0 125.0 -362.0 125.0 -354.0 125.0 -353.0 125.0 -351.0 125.0 -351.0 125.0 -350.0 125.0 -348.0 125.0 -347.0 125.0 -338.0 127.0 -338.0 132.0 -338.0 136.0 -337.0 142.0 -337.0 147.0 -337.0 151.0 -338.0 156.0 -338.0 158.0 -339.0 172.0 -340.0 184.0 -343.0 196.0 -346.0 208.0 -348.0 220.0 -351.0 232.0 -353.0 244.0 -355.0 257.0 -356.0 L284.0 -356.0 Q288.0 -355.0 292.0 -353.0 296.0 -351.0 299.0 -348.0 302.0 -345.0 304.0 -341.0 307.0 -337.0 307.0 -333.0 307.0 -332.0 307.0 -331.0 307.0 -330.0 307.0 -329.0 307.0 -328.0 307.0 -327.0 307.0 -326.0 307.0 -326.0 306.0 -324.0 302.0 -319.0 299.0 -314.0 294.0 -309.0 290.0 -304.0 285.0 -299.0 281.0 -295.0 279.0 -294.0 278.0 -293.0 273.0 -292.0 269.0 -291.0 264.0 -290.0 259.0 -289.0 254.0 -289.0 250.0 -288.0 248.0 -288.0 248.0 -288.0 244.0 -287.0 241.0 -286.0 237.0 -285.0 233.0 -284.0 229.0 -283.0 225.0 -282.0 224.0 -282.0 222.0 -282.0 214.0 -280.0 207.0 -279.0 198.0 -278.0 189.0 -277.0 182.0 -276.0 174.0 -275.0 172.0 -275.0 150.0 -277.0 142.0 -245.0 135.0 -214.0 135.0 -174.0 134.0 -133.0 138.0 -97.0 142.0 -60.0 142.0 -52.0 142.0 -46.0 143.0 -38.0 143.0 -30.0 142.0 -22.0 141.0 -15.0 138.0 -8.0 134.0 -1.0 128.0 2.0 127.0 2.0 124.0 3.0 122.0 3.0 119.0 3.0 116.0 3.0 114.0 3.0 112.0 3.0 111.0 3.0 103.0 3.0 96.0 3.0 90.0 2.0 83.0 1.0 76.0 -1.0 70.0 -3.0 63.0 -5.0 55.0 -8.0 55.0 -8.0 54.0 -8.0 54.0 -8.0 54.0 -8.0 54.0 -9.0 54.0 -9.0 53.0 -9.0 53.0 -9.0 45.0 -11.0 40.0 -14.0 35.0 -17.0 31.0 -22.0 28.0 -26.0 26.0 -32.0 25.0 -38.0 24.0 -47.0" fill-rule="evenodd" stroke="none"/>
    </g>
    <g id="font_Apple_Casual_a0">
      <path d="M131.0 -108.0 Q132.0 -106.0 133.0 -105.0 134.0 -103.0 136.0 -103.0 137.0 -102.0 138.0 -102.0 140.0 -102.0 141.0 -102.0 150.0 -102.0 160.0 -108.0 170.0 -114.0 178.0 -130.0 186.0 -145.0 191.0 -172.0 196.0 -198.0 196.0 -238.0 196.0 -249.0 195.0 -256.0 193.0 -263.0 190.0 -268.0 186.0 -272.0 180.0 -274.0 174.0 -276.0 164.0 -276.0 152.0 -276.0 146.0 -259.0 139.0 -241.0 136.0 -219.0 133.0 -196.0 132.0 -174.0 131.0 -152.0 131.0 -143.0 L131.0 -108.0 M244.0 -72.0 Q235.0 -54.0 227.0 -40.0 219.0 -27.0 208.0 -18.0 196.0 -9.0 180.0 -4.0 165.0 0.0 141.0 0.0 124.0 0.0 106.0 -3.0 87.0 -5.0 70.0 -13.0 54.0 -21.0 41.0 -36.0 28.0 -50.0 22.0 -74.0 20.0 -86.0 18.0 -130.0 17.0 -175.0 26.0 -224.0 34.0 -272.0 58.0 -311.0 81.0 -350.0 129.0 -350.0 138.0 -350.0 147.0 -349.0 156.0 -348.0 165.0 -347.0 173.0 -347.0 182.0 -346.0 191.0 -345.0 200.0 -345.0 202.0 -345.0 209.0 -352.0 216.0 -360.0 226.0 -367.0 237.0 -374.0 250.0 -376.0 264.0 -379.0 280.0 -369.0 289.0 -370.0 296.0 -358.0 303.0 -347.0 309.0 -328.0 314.0 -310.0 316.0 -287.0 319.0 -265.0 319.0 -243.0 319.0 -228.0 319.0 -219.0 318.0 -209.0 318.0 -202.0 318.0 -195.0 317.0 -190.0 317.0 -184.0 317.0 -178.0 317.0 -148.0 321.0 -126.0 325.0 -103.0 331.0 -87.0 336.0 -70.0 340.0 -58.0 344.0 -47.0 344.0 -38.0 344.0 -32.0 341.0 -27.0 339.0 -22.0 333.0 -18.0 326.0 -13.0 316.0 -9.0 305.0 -4.0 289.0 0.0 285.0 0.0 277.0 -4.0 270.0 -8.0 262.0 -16.0 255.0 -25.0 249.0 -38.0 244.0 -52.0 244.0 -72.0" fill-rule="evenodd" stroke="none"/>
    </g>
    <g id="font_Apple_Casual_i0">
      <path d="M20.0 -490.0 Q20.0 -493.0 23.0 -496.0 25.0 -499.0 29.0 -501.0 32.0 -503.0 35.0 -505.0 38.0 -507.0 38.0 -507.0 41.0 -508.0 46.0 -511.0 51.0 -513.0 56.0 -515.0 60.0 -517.0 64.0 -519.0 67.0 -520.0 67.0 -520.0 L132.0 -520.0 Q135.0 -520.0 138.0 -517.0 141.0 -514.0 142.0 -510.0 144.0 -507.0 145.0 -502.0 146.0 -498.0 146.0 -495.0 146.0 -489.0 144.0 -484.0 142.0 -478.0 139.0 -473.0 135.0 -468.0 131.0 -464.0 127.0 -460.0 123.0 -457.0 122.0 -456.0 118.0 -456.0 115.0 -455.0 111.0 -455.0 107.0 -455.0 104.0 -455.0 100.0 -455.0 99.0 -455.0 88.0 -455.0 77.0 -457.0 66.0 -459.0 56.0 -462.0 46.0 -466.0 37.0 -472.0 28.0 -478.0 20.0 -487.0 L20.0 -490.0 M27.0 -322.0 Q26.0 -323.0 25.0 -324.0 24.0 -326.0 23.0 -327.0 22.0 -328.0 22.0 -330.0 22.0 -331.0 22.0 -332.0 L22.0 -335.0 Q27.0 -345.0 32.0 -352.0 38.0 -359.0 46.0 -364.0 53.0 -368.0 63.0 -371.0 72.0 -373.0 83.0 -373.0 94.0 -373.0 103.0 -372.0 111.0 -371.0 119.0 -367.0 126.0 -364.0 133.0 -359.0 139.0 -353.0 146.0 -344.0 L146.0 -342.0 Q146.0 -325.0 145.0 -301.0 143.0 -277.0 142.0 -252.0 140.0 -226.0 138.0 -202.0 137.0 -178.0 137.0 -161.0 137.0 -142.0 138.0 -123.0 139.0 -104.0 140.0 -85.0 141.0 -66.0 142.0 -47.0 143.0 -28.0 143.0 -9.0 143.0 -8.0 143.0 -7.0 143.0 -6.0 143.0 -5.0 142.0 -4.0 142.0 -3.0 142.0 -2.0 142.0 -2.0 142.0 -1.0 140.0 1.0 138.0 3.0 136.0 5.0 134.0 8.0 132.0 9.0 130.0 11.0 129.0 12.0 127.0 12.0 123.0 13.0 118.0 13.0 114.0 13.0 109.0 13.0 104.0 13.0 100.0 13.0 98.0 13.0 L91.0 13.0 Q84.0 13.0 76.0 13.0 67.0 12.0 59.0 11.0 51.0 9.0 45.0 5.0 39.0 1.0 36.0 -6.0 33.0 -15.0 32.0 -22.0 31.0 -30.0 31.0 -37.0 31.0 -44.0 31.0 -52.0 31.0 -59.0 31.0 -68.0 31.0 -69.0 30.0 -77.0 30.0 -84.0 29.0 -93.0 28.0 -102.0 27.0 -109.0 26.0 -116.0 26.0 -118.0 26.0 -127.0 26.0 -156.0 26.0 -186.0 27.0 -220.0 27.0 -253.0 27.0 -283.0 27.0 -313.0 27.0 -322.0" fill-rule="evenodd" stroke="none"/>
    </g>
    <g id="font_Apple_Casual_n0">
      <path d="M271.0 -11.0 Q271.0 -12.0 272.0 -21.0 273.0 -29.0 275.0 -46.0 276.0 -63.0 277.0 -89.0 278.0 -116.0 278.0 -153.0 278.0 -155.0 277.0 -161.0 276.0 -167.0 275.0 -174.0 273.0 -181.0 272.0 -187.0 271.0 -193.0 271.0 -195.0 271.0 -202.0 271.0 -211.0 271.0 -219.0 270.0 -228.0 269.0 -237.0 266.0 -245.0 263.0 -253.0 256.0 -258.0 210.0 -248.0 188.0 -232.0 166.0 -217.0 157.0 -192.0 148.0 -167.0 147.0 -132.0 146.0 -96.0 142.0 -47.0 142.0 -35.0 140.0 -26.0 137.0 -16.0 132.0 -9.0 127.0 -2.0 119.0 2.0 111.0 6.0 100.0 6.0 96.0 6.0 92.0 6.0 88.0 6.0 85.0 5.0 82.0 4.0 79.0 3.0 76.0 1.0 74.0 -1.0 65.0 -2.0 60.0 -3.0 54.0 -4.0 50.0 -5.0 45.0 -7.0 41.0 -10.0 37.0 -14.0 31.0 -22.0 31.0 -60.0 30.0 -98.0 29.0 -136.0 29.0 -173.0 28.0 -211.0 27.0 -249.0 26.0 -287.0 26.0 -325.0 26.0 -329.0 25.0 -333.0 24.0 -336.0 23.0 -339.0 22.0 -342.0 21.0 -344.0 20.0 -346.0 20.0 -347.0 20.0 -359.0 30.0 -366.0 39.0 -373.0 52.0 -377.0 65.0 -381.0 77.0 -383.0 90.0 -384.0 96.0 -384.0 L141.0 -362.0 141.0 -296.0 Q165.0 -309.0 174.0 -318.0 184.0 -326.0 196.0 -330.0 207.0 -334.0 229.0 -336.0 252.0 -337.0 301.0 -337.0 307.0 -337.0 315.0 -337.0 324.0 -337.0 332.0 -336.0 341.0 -336.0 348.0 -333.0 356.0 -331.0 361.0 -326.0 367.0 -317.0 372.0 -299.0 377.0 -281.0 380.0 -260.0 383.0 -239.0 385.0 -217.0 387.0 -196.0 388.0 -178.0 388.0 -175.0 388.0 -167.0 388.0 -158.0 388.0 -146.0 387.0 -134.0 387.0 -120.0 387.0 -107.0 387.0 -95.0 387.0 -78.0 388.0 -65.0 389.0 -52.0 390.0 -42.0 391.0 -32.0 392.0 -25.0 393.0 -17.0 393.0 -13.0 393.0 -12.0 393.0 -12.0 393.0 -11.0 393.0 -10.0 392.0 -9.0 392.0 -9.0 392.0 -8.0 392.0 -8.0 392.0 -6.0 392.0 -5.0 392.0 -3.0 393.0 -2.0 393.0 0.0 393.0 1.0 393.0 2.0 393.0 3.0 393.0 9.0 388.0 13.0 382.0 17.0 375.0 19.0 367.0 21.0 360.0 21.0 353.0 22.0 349.0 22.0 340.0 22.0 329.0 20.0 317.0 18.0 307.0 15.0 296.0 11.0 286.0 4.0 277.0 -2.0 271.0 -11.0" fill-rule="evenodd" stroke="none"/>
    </g>
    <g id="font_Apple_Casual_F0">
      <path d="M22.0 -162.0 L20.0 -162.0 Q20.0 -163.0 21.0 -165.0 23.0 -167.0 24.0 -170.0 26.0 -173.0 27.0 -176.0 28.0 -179.0 28.0 -182.0 28.0 -184.0 27.0 -192.0 26.0 -200.0 25.0 -209.0 24.0 -218.0 23.0 -226.0 22.0 -234.0 22.0 -236.0 22.0 -240.0 23.0 -249.0 24.0 -257.0 25.0 -269.0 26.0 -281.0 27.0 -296.0 28.0 -311.0 28.0 -328.0 28.0 -354.0 29.0 -381.0 29.0 -408.0 30.0 -434.0 31.0 -461.0 33.0 -488.0 35.0 -514.0 37.0 -540.0 37.0 -541.0 38.0 -544.0 39.0 -547.0 40.0 -550.0 41.0 -553.0 42.0 -555.0 43.0 -558.0 43.0 -558.0 43.0 -573.0 40.0 -584.0 36.0 -595.0 33.0 -605.0 29.0 -615.0 25.0 -625.0 22.0 -634.0 22.0 -646.0 22.0 -661.0 33.0 -671.0 45.0 -681.0 60.0 -687.0 75.0 -693.0 91.0 -695.0 106.0 -698.0 115.0 -698.0 122.0 -698.0 128.0 -694.0 134.0 -691.0 140.0 -686.0 146.0 -682.0 152.0 -679.0 158.0 -675.0 165.0 -675.0 L318.0 -675.0 Q324.0 -675.0 330.0 -670.0 336.0 -666.0 340.0 -659.0 344.0 -652.0 347.0 -645.0 349.0 -638.0 349.0 -632.0 349.0 -622.0 345.0 -613.0 341.0 -605.0 335.0 -599.0 329.0 -593.0 323.0 -589.0 317.0 -586.0 313.0 -586.0 L155.0 -586.0 Q152.0 -586.0 150.0 -583.0 148.0 -580.0 147.0 -577.0 145.0 -573.0 145.0 -570.0 144.0 -567.0 144.0 -566.0 144.0 -566.0 145.0 -562.0 145.0 -558.0 146.0 -551.0 147.0 -544.0 147.0 -537.0 148.0 -529.0 148.0 -523.0 148.0 -521.0 147.0 -516.0 147.0 -511.0 146.0 -504.0 145.0 -498.0 145.0 -493.0 144.0 -487.0 144.0 -486.0 144.0 -477.0 155.0 -471.0 167.0 -466.0 183.0 -462.0 200.0 -459.0 219.0 -458.0 237.0 -457.0 252.0 -457.0 263.0 -455.0 280.0 -456.0 298.0 -457.0 314.0 -453.0 330.0 -450.0 341.0 -440.0 353.0 -430.0 353.0 -407.0 353.0 -395.0 337.0 -391.0 321.0 -387.0 300.0 -385.0 279.0 -384.0 259.0 -383.0 239.0 -382.0 231.0 -376.0 L148.0 -376.0 Q141.0 -376.0 136.0 -363.0 132.0 -350.0 131.0 -329.0 129.0 -307.0 128.0 -279.0 128.0 -251.0 128.0 -221.0 128.0 -204.0 128.0 -189.0 129.0 -173.0 130.0 -159.0 131.0 -145.0 133.0 -133.0 135.0 -120.0 139.0 -110.0 L139.0 -105.0 Q139.0 -99.0 140.0 -93.0 142.0 -87.0 144.0 -80.0 145.0 -73.0 147.0 -66.0 148.0 -59.0 148.0 -52.0 148.0 -48.0 146.0 -41.0 144.0 -34.0 139.0 -27.0 134.0 -20.0 124.0 -15.0 115.0 -10.0 101.0 -10.0 92.0 -10.0 80.0 -13.0 69.0 -17.0 59.0 -23.0 49.0 -29.0 42.0 -37.0 35.0 -45.0 33.0 -54.0 32.0 -63.0 30.0 -78.0 28.0 -92.0 26.0 -108.0 24.0 -124.0 23.0 -138.0 22.0 -153.0 22.0 -162.0" fill-rule="evenodd" stroke="none"/>
    </g>
    <g id="font_Apple_Casual_l0">
      <path d="M71.0 -46.0 Q67.0 -74.0 66.0 -102.0 64.0 -130.0 63.0 -158.0 62.0 -185.0 62.0 -213.0 62.0 -240.0 62.0 -267.0 61.0 -323.0 59.0 -378.0 58.0 -434.0 55.0 -489.0 52.0 -544.0 48.0 -599.0 43.0 -655.0 36.0 -712.0 L22.0 -741.0 Q21.0 -750.0 32.0 -756.0 43.0 -761.0 58.0 -764.0 73.0 -767.0 89.0 -767.0 104.0 -768.0 110.0 -768.0 117.0 -768.0 122.0 -766.0 128.0 -765.0 132.0 -761.0 136.0 -757.0 139.0 -752.0 142.0 -746.0 143.0 -739.0 149.0 -697.0 153.0 -654.0 158.0 -612.0 161.0 -569.0 164.0 -526.0 165.0 -484.0 167.0 -441.0 167.0 -399.0 167.0 -360.0 167.0 -320.0 166.0 -280.0 167.0 -240.0 167.0 -201.0 170.0 -161.0 172.0 -121.0 177.0 -81.0 178.0 -75.0 179.0 -69.0 181.0 -62.0 183.0 -56.0 185.0 -51.0 186.0 -47.0 188.0 -42.0 188.0 -41.0 189.0 -32.0 187.0 -24.0 185.0 -16.0 180.0 -11.0 176.0 -6.0 169.0 -3.0 162.0 0.0 153.0 0.0 142.0 0.0 128.0 -4.0 115.0 -9.0 102.0 -15.0 90.0 -21.0 81.0 -28.0 73.0 -34.0 72.0 -39.0 72.0 -40.0 72.0 -41.0 72.0 -41.0 72.0 -42.0 71.0 -43.0 71.0 -44.0 71.0 -45.0 71.0 -46.0" fill-rule="evenodd" stroke="none"/>
    </g>
    <g id="font_Apple_Casual_y0">
      <path d="M51.0 294.0 Q51.0 289.0 51.0 285.0 51.0 280.0 51.0 277.0 50.0 273.0 50.0 269.0 50.0 266.0 50.0 263.0 50.0 238.0 54.0 213.0 59.0 188.0 66.0 164.0 72.0 139.0 80.0 115.0 88.0 91.0 94.0 67.0 94.0 48.0 104.0 24.0 115.0 0.0 128.0 -26.0 140.0 -53.0 151.0 -79.0 161.0 -106.0 161.0 -131.0 161.0 -145.0 156.0 -156.0 151.0 -166.0 143.0 -175.0 136.0 -184.0 126.0 -192.0 117.0 -201.0 109.0 -210.0 102.0 -217.0 86.0 -238.0 71.0 -258.0 56.0 -281.0 40.0 -304.0 29.0 -325.0 17.0 -345.0 17.0 -354.0 17.0 -362.0 26.0 -368.0 35.0 -374.0 47.0 -377.0 58.0 -381.0 68.0 -383.0 79.0 -385.0 82.0 -385.0 99.0 -385.0 111.0 -375.0 122.0 -365.0 131.0 -351.0 140.0 -336.0 147.0 -321.0 154.0 -305.0 163.0 -294.0 170.0 -286.0 177.0 -278.0 184.0 -270.0 190.0 -262.0 196.0 -255.0 201.0 -251.0 206.0 -246.0 209.0 -246.0 214.0 -246.0 219.0 -251.0 223.0 -256.0 227.0 -263.0 231.0 -270.0 234.0 -278.0 238.0 -286.0 241.0 -292.0 241.0 -324.0 245.0 -342.0 250.0 -359.0 259.0 -367.0 268.0 -375.0 283.0 -377.0 297.0 -378.0 317.0 -378.0 331.0 -378.0 339.0 -376.0 348.0 -374.0 355.0 -369.0 362.0 -364.0 367.0 -356.0 372.0 -348.0 378.0 -336.0 375.0 -331.0 372.0 -329.0 369.0 -327.0 366.0 -326.0 363.0 -324.0 360.0 -321.0 357.0 -317.0 354.0 -310.0 353.0 -308.0 350.0 -300.0 347.0 -291.0 344.0 -281.0 341.0 -271.0 338.0 -262.0 335.0 -253.0 335.0 -251.0 334.0 -248.0 329.0 -237.0 325.0 -226.0 319.0 -213.0 313.0 -201.0 308.0 -190.0 303.0 -179.0 301.0 -176.0 291.0 -152.0 281.0 -128.0 272.0 -104.0 262.0 -80.0 253.0 -56.0 244.0 -32.0 234.0 -7.0 225.0 17.0 219.0 33.0 213.0 56.0 206.0 80.0 199.0 104.0 192.0 127.0 186.0 146.0 180.0 165.0 175.0 172.0 175.0 172.0 175.0 174.0 175.0 177.0 176.0 179.0 176.0 182.0 176.0 184.0 176.0 186.0 176.0 187.0 176.0 190.0 173.0 203.0 171.0 215.0 168.0 229.0 165.0 243.0 163.0 255.0 160.0 267.0 160.0 270.0 155.0 279.0 155.0 287.0 154.0 296.0 154.0 303.0 154.0 310.0 152.0 315.0 150.0 321.0 141.0 322.0 131.0 322.0 118.0 321.0 106.0 321.0 93.0 318.0 81.0 315.0 70.0 310.0 59.0 304.0 51.0 294.0" fill-rule="evenodd" stroke="none"/>
    </g>
    <g id="font_Apple_Casual_g0">
      <path d="M131.0 -198.0 Q133.0 -189.0 136.0 -183.0 138.0 -177.0 140.0 -173.0 143.0 -170.0 146.0 -168.0 149.0 -167.0 152.0 -167.0 156.0 -167.0 159.0 -173.0 163.0 -180.0 165.0 -190.0 167.0 -201.0 169.0 -214.0 170.0 -227.0 170.0 -240.0 170.0 -250.0 169.0 -260.0 168.0 -269.0 166.0 -277.0 164.0 -284.0 161.0 -289.0 158.0 -293.0 154.0 -293.0 151.0 -293.0 147.0 -290.0 142.0 -287.0 139.0 -281.0 135.0 -275.0 132.0 -267.0 129.0 -259.0 129.0 -250.0 129.0 -241.0 129.0 -233.0 129.0 -225.0 130.0 -218.0 130.0 -211.0 130.0 -205.0 131.0 -200.0 131.0 -198.0 M186.0 106.0 L184.0 74.0 181.0 26.0 178.0 -14.0 Q178.0 -18.0 177.0 -22.0 177.0 -25.0 177.0 -28.0 177.0 -30.0 177.0 -32.0 177.0 -34.0 177.0 -34.0 177.0 -41.0 177.0 -43.0 178.0 -44.0 178.0 -45.0 178.0 -46.0 179.0 -51.0 179.0 -55.0 179.0 -69.0 179.0 -72.0 179.0 -74.0 179.0 -77.0 179.0 -79.0 179.0 -81.0 178.0 -83.0 178.0 -85.0 177.0 -87.0 165.0 -87.0 142.0 -88.0 119.0 -90.0 96.0 -95.0 73.0 -100.0 55.0 -111.0 37.0 -121.0 34.0 -138.0 34.0 -140.0 33.0 -148.0 32.0 -157.0 31.0 -166.0 31.0 -176.0 30.0 -184.0 29.0 -193.0 28.0 -196.0 28.0 -198.0 27.0 -200.0 26.0 -203.0 24.0 -205.0 23.0 -208.0 21.0 -210.0 20.0 -212.0 20.0 -213.0 20.0 -216.0 20.0 -228.0 20.0 -239.0 19.0 -252.0 19.0 -265.0 18.0 -276.0 18.0 -287.0 17.0 -289.0 17.0 -313.0 37.0 -330.0 58.0 -347.0 85.0 -357.0 111.0 -367.0 137.0 -372.0 163.0 -376.0 174.0 -376.0 177.0 -376.0 179.0 -376.0 181.0 -376.0 183.0 -375.0 185.0 -374.0 186.0 -373.0 188.0 -372.0 190.0 -371.0 208.0 -362.0 225.0 -362.0 242.0 -362.0 256.0 -360.0 269.0 -358.0 278.0 -348.0 286.0 -338.0 286.0 -310.0 286.0 -305.0 285.0 -301.0 285.0 -297.0 284.0 -293.0 283.0 -288.0 283.0 -284.0 282.0 -279.0 282.0 -274.0 282.0 -273.0 283.0 -270.0 283.0 -266.0 284.0 -262.0 284.0 -259.0 285.0 -255.0 285.0 -252.0 285.0 -251.0 285.0 -249.0 284.0 -244.0 283.0 -238.0 282.0 -232.0 281.0 -226.0 280.0 -220.0 278.0 -214.0 278.0 -213.0 278.0 -207.0 278.0 -200.0 279.0 -194.0 280.0 -187.0 280.0 -181.0 281.0 -174.0 281.0 -168.0 281.0 -162.0 281.0 -148.0 281.0 -135.0 280.0 -121.0 280.0 -107.0 280.0 -94.0 280.0 -80.0 280.0 -66.0 280.0 -52.0 L282.0 57.0 Q281.0 96.0 275.0 126.0 269.0 157.0 257.0 178.0 245.0 199.0 225.0 210.0 205.0 221.0 175.0 221.0 151.0 218.0 134.0 212.0 117.0 206.0 103.0 197.0 89.0 187.0 78.0 173.0 66.0 159.0 54.0 140.0 L46.0 121.0 Q44.0 117.0 45.0 115.0 45.0 114.0 46.0 113.0 47.0 112.0 49.0 110.0 50.0 109.0 50.0 104.0 50.0 97.0 54.0 92.0 57.0 88.0 63.0 86.0 68.0 84.0 73.0 83.0 79.0 83.0 82.0 82.0 83.0 82.0 84.0 82.0 85.0 82.0 86.0 82.0 87.0 81.0 88.0 81.0 89.0 81.0 90.0 81.0 108.0 78.0 116.0 87.0 123.0 97.0 128.0 110.0 132.0 122.0 137.0 134.0 143.0 145.0 156.0 145.0 162.0 145.0 168.0 143.0 173.0 140.0 177.0 136.0 181.0 131.0 184.0 123.0 186.0 116.0 186.0 106.0" fill-rule="evenodd" stroke="none"/>
    </g>
  </defs>
</svg>
