<?xml version="1.0" encoding="UTF-8" standalone="no"?>
<svg xmlns:ffdec="https://www.free-decompiler.com/flash" xmlns:xlink="http://www.w3.org/1999/xlink" ffdec:objectType="frame" height="30.5px" width="83.65px" xmlns="http://www.w3.org/2000/svg">
  <g transform="matrix(1.0, 0.0, 0.0, 1.0, 41.05, 16.4)">
    <use ffdec:characterId="1164" height="30.5" transform="matrix(1.0, 0.0, 0.0, 1.0, -41.05, -16.4)" width="83.65" xlink:href="#text0"/>
  </g>
  <defs>
    <g id="text0" transform="matrix(1.0, 0.0, 0.0, 1.0, 4.8, -2.6)">
      <g transform="matrix(1.0, 0.0, 0.0, 1.0, -6.25, 0.0)">
        <use fill="#ffffff" height="30.5" transform="matrix(0.0371, 0.0, 0.0, 0.0371, 0.0, 30.0)" width="83.65" xlink:href="#font_Apple_Casual_10"/>
        <use fill="#ffffff" height="30.5" transform="matrix(0.0371, 0.0, 0.0, 0.0371, 13.15, 30.0)" width="83.65" xlink:href="#font_Apple_Casual_00"/>
        <use fill="#ffffff" height="30.5" transform="matrix(0.0371, 0.0, 0.0, 0.0371, 29.65, 30.0)" width="83.65" xlink:href="#font_Apple_Casual_00"/>
        <use fill="#ffffff" height="30.5" transform="matrix(0.0371, 0.0, 0.0, 0.0371, 46.15, 30.0)" width="83.65" xlink:href="#font_Apple_Casual__0"/>
      </g>
    </g>
    <g id="font_Apple_Casual_10">
      <path d="M279.0 2.0 Q265.0 3.0 252.0 3.0 239.0 4.0 227.0 4.0 215.0 5.0 204.0 5.0 193.0 5.0 182.0 5.0 124.0 5.0 90.0 1.0 56.0 -3.0 39.0 -10.0 21.0 -17.0 17.0 -25.0 12.0 -34.0 12.0 -42.0 12.0 -57.0 18.0 -64.0 24.0 -71.0 39.0 -74.0 53.0 -77.0 77.0 -80.0 102.0 -82.0 138.0 -90.0 140.0 -128.0 140.0 -167.0 139.0 -205.0 139.0 -244.0 138.0 -283.0 139.0 -321.0 140.0 -360.0 146.0 -397.0 145.0 -401.0 144.0 -411.0 143.0 -421.0 143.0 -433.0 142.0 -446.0 142.0 -459.0 141.0 -472.0 141.0 -482.0 L137.0 -493.0 Q134.0 -489.0 130.0 -485.0 125.0 -480.0 121.0 -477.0 117.0 -473.0 114.0 -470.0 110.0 -468.0 108.0 -468.0 L55.0 -468.0 Q53.0 -470.0 46.0 -474.0 39.0 -478.0 32.0 -482.0 25.0 -487.0 20.0 -491.0 14.0 -496.0 14.0 -499.0 13.0 -500.0 24.0 -513.0 34.0 -526.0 47.0 -541.0 61.0 -557.0 74.0 -572.0 87.0 -587.0 91.0 -592.0 L122.0 -630.0 Q130.0 -640.0 132.0 -647.0 134.0 -653.0 136.0 -658.0 138.0 -662.0 143.0 -666.0 148.0 -669.0 162.0 -673.0 169.0 -675.0 174.0 -677.0 179.0 -678.0 183.0 -680.0 186.0 -681.0 190.0 -682.0 194.0 -683.0 200.0 -683.0 L202.0 -683.0 Q206.0 -683.0 211.0 -683.0 216.0 -683.0 220.0 -682.0 225.0 -681.0 229.0 -679.0 233.0 -677.0 234.0 -673.0 236.0 -662.0 237.0 -651.0 238.0 -640.0 239.0 -629.0 240.0 -618.0 240.0 -607.0 240.0 -596.0 240.0 -585.0 240.0 -562.0 239.0 -540.0 238.0 -518.0 237.0 -495.0 236.0 -473.0 235.0 -451.0 234.0 -429.0 234.0 -407.0 234.0 -377.0 235.0 -347.0 236.0 -317.0 237.0 -286.0 237.0 -256.0 238.0 -226.0 239.0 -196.0 239.0 -166.0 239.0 -160.0 239.0 -157.0 239.0 -153.0 239.0 -147.0 238.0 -142.0 238.0 -134.0 237.0 -126.0 236.0 -111.0 236.0 -96.0 240.0 -90.0 243.0 -83.0 249.0 -82.0 255.0 -80.0 262.0 -81.0 269.0 -81.0 276.0 -79.0 279.0 -79.0 281.0 -80.0 284.0 -80.0 286.0 -80.0 288.0 -80.0 290.0 -80.0 292.0 -80.0 294.0 -80.0 309.0 -80.0 319.0 -75.0 328.0 -70.0 333.0 -63.0 339.0 -56.0 340.0 -48.0 342.0 -41.0 342.0 -35.0 342.0 -21.0 337.0 -13.0 332.0 -6.0 324.0 -2.0 316.0 1.0 304.0 2.0 293.0 2.0 279.0 2.0" fill-rule="evenodd" stroke="none"/>
    </g>
    <g id="font_Apple_Casual_00">
      <path d="M331.0 -394.0 Q325.0 -459.0 313.0 -499.0 300.0 -539.0 285.0 -560.0 270.0 -582.0 253.0 -589.0 237.0 -596.0 223.0 -596.0 L209.0 -596.0 Q178.0 -585.0 160.0 -549.0 141.0 -512.0 131.0 -465.0 121.0 -419.0 117.0 -370.0 114.0 -320.0 114.0 -284.0 114.0 -242.0 124.0 -206.0 134.0 -169.0 150.0 -141.0 166.0 -114.0 186.0 -98.0 206.0 -82.0 226.0 -82.0 L234.0 -82.0 Q265.0 -93.0 284.0 -129.0 303.0 -166.0 314.0 -212.0 324.0 -259.0 328.0 -308.0 331.0 -358.0 331.0 -394.0 M215.0 -668.0 L232.0 -668.0 Q282.0 -667.0 318.0 -637.0 355.0 -607.0 379.0 -562.0 403.0 -517.0 415.0 -465.0 427.0 -413.0 427.0 -368.0 427.0 -322.0 422.0 -261.0 416.0 -199.0 396.0 -143.0 376.0 -88.0 336.0 -49.0 297.0 -10.0 229.0 -10.0 L212.0 -10.0 Q163.0 -10.0 126.0 -40.0 90.0 -70.0 65.0 -115.0 41.0 -160.0 29.0 -212.0 17.0 -265.0 17.0 -310.0 17.0 -356.0 23.0 -417.0 28.0 -479.0 49.0 -535.0 69.0 -590.0 108.0 -629.0 148.0 -668.0 215.0 -668.0" fill-rule="evenodd" stroke="none"/>
    </g>
    <g id="font_Apple_Casual__0">
      <path d="M297.0 -126.0 Q296.0 -145.0 292.0 -156.0 288.0 -167.0 283.0 -173.0 278.0 -178.0 272.0 -180.0 267.0 -181.0 263.0 -181.0 L261.0 -181.0 Q252.0 -178.0 246.0 -168.0 241.0 -158.0 238.0 -145.0 234.0 -133.0 233.0 -119.0 232.0 -105.0 232.0 -95.0 232.0 -82.0 234.0 -73.0 236.0 -64.0 240.0 -59.0 243.0 -54.0 248.0 -51.0 252.0 -49.0 257.0 -49.0 270.0 -49.0 278.0 -53.0 286.0 -57.0 291.0 -64.0 295.0 -71.0 297.0 -81.0 298.0 -90.0 298.0 -101.0 298.0 -104.0 298.0 -108.0 298.0 -111.0 298.0 -114.0 297.0 -117.0 297.0 -120.0 297.0 -123.0 297.0 -126.0 M124.0 -591.0 Q123.0 -610.0 119.0 -621.0 115.0 -632.0 110.0 -638.0 105.0 -643.0 99.0 -645.0 94.0 -646.0 90.0 -646.0 L88.0 -646.0 Q79.0 -643.0 73.0 -633.0 67.0 -623.0 64.0 -610.0 61.0 -598.0 60.0 -584.0 59.0 -570.0 59.0 -560.0 59.0 -547.0 61.0 -538.0 63.0 -529.0 67.0 -524.0 70.0 -519.0 75.0 -516.0 79.0 -514.0 84.0 -514.0 97.0 -514.0 105.0 -518.0 113.0 -522.0 118.0 -529.0 122.0 -536.0 124.0 -546.0 125.0 -555.0 125.0 -566.0 125.0 -569.0 125.0 -572.0 125.0 -575.0 125.0 -578.0 124.0 -582.0 124.0 -585.0 124.0 -588.0 124.0 -591.0 M89.0 -678.0 L96.0 -678.0 Q114.0 -678.0 128.0 -669.0 141.0 -660.0 150.0 -647.0 159.0 -633.0 164.0 -618.0 168.0 -602.0 168.0 -589.0 168.0 -575.0 166.0 -557.0 164.0 -539.0 157.0 -522.0 149.0 -506.0 134.0 -494.0 120.0 -483.0 94.0 -483.0 L88.0 -483.0 Q70.0 -483.0 56.0 -492.0 42.0 -501.0 33.0 -514.0 24.0 -528.0 20.0 -543.0 15.0 -559.0 15.0 -572.0 15.0 -585.0 17.0 -604.0 20.0 -622.0 27.0 -638.0 35.0 -655.0 50.0 -666.0 64.0 -678.0 89.0 -678.0 M262.0 -213.0 L269.0 -213.0 Q287.0 -213.0 301.0 -204.0 314.0 -195.0 323.0 -182.0 332.0 -168.0 337.0 -153.0 341.0 -137.0 341.0 -124.0 341.0 -110.0 339.0 -92.0 337.0 -74.0 330.0 -57.0 322.0 -41.0 307.0 -29.0 293.0 -18.0 267.0 -18.0 L261.0 -18.0 Q243.0 -18.0 229.0 -27.0 215.0 -36.0 206.0 -49.0 197.0 -63.0 193.0 -79.0 188.0 -94.0 188.0 -108.0 188.0 -121.0 190.0 -139.0 193.0 -157.0 200.0 -174.0 208.0 -190.0 223.0 -202.0 237.0 -213.0 262.0 -213.0 M301.0 -647.0 L117.0 -99.0 Q115.0 -92.0 112.0 -77.0 108.0 -63.0 103.0 -48.0 98.0 -33.0 91.0 -21.0 84.0 -10.0 74.0 -10.0 70.0 -10.0 66.0 -12.0 63.0 -14.0 61.0 -18.0 59.0 -21.0 58.0 -26.0 57.0 -31.0 57.0 -36.0 57.0 -43.0 59.0 -54.0 60.0 -64.0 63.0 -76.0 66.0 -88.0 71.0 -102.0 75.0 -116.0 80.0 -132.0 92.0 -168.0 113.0 -225.0 133.0 -283.0 156.0 -350.0 180.0 -418.0 203.0 -490.0 227.0 -563.0 246.0 -629.0 250.0 -642.0 256.0 -651.0 263.0 -659.0 270.0 -664.0 278.0 -669.0 284.0 -671.0 291.0 -673.0 294.0 -673.0 296.0 -673.0 298.0 -672.0 299.0 -670.0 300.0 -668.0 301.0 -666.0 301.0 -662.0 301.0 -659.0 301.0 -655.0 L301.0 -647.0" fill-rule="evenodd" stroke="none"/>
    </g>
  </defs>
</svg>
