<?xml version="1.0" encoding="UTF-8" standalone="no"?>
<svg xmlns:ffdec="https://www.free-decompiler.com/flash" xmlns:xlink="http://www.w3.org/1999/xlink" ffdec:objectType="shape" height="41.3px" width="41.85px" xmlns="http://www.w3.org/2000/svg">
  <g transform="matrix(1.0, 0.0, 0.0, 1.0, 20.9, 23.3)">
    <path d="M-19.9 17.0 L-19.6 15.5 Q-18.55 10.8 -14.9 7.15 L-14.35 6.6 Q-15.05 4.45 -15.05 2.0 -15.05 -4.2 -10.65 -8.6 -6.25 -13.0 -0.05 -13.0 6.2 -13.0 10.55 -8.6 14.0 -5.15 14.75 -0.6 L14.95 2.0 14.8 4.3 Q14.35 7.65 12.45 10.4 13.9 12.75 14.55 15.5 L14.8 17.0 -19.9 17.0" fill="#ffff00" fill-rule="evenodd" stroke="none"/>
    <path d="M-19.9 17.0 L-19.6 15.5 Q-18.55 10.8 -14.9 7.15 L-14.35 6.6 Q-15.05 4.45 -15.05 2.0 -15.05 -4.2 -10.65 -8.6 -6.25 -13.0 -0.05 -13.0 6.2 -13.0 10.55 -8.6 14.0 -5.15 14.75 -0.6 L14.95 2.0 14.8 4.3 Q14.35 7.65 12.45 10.4 13.9 12.75 14.55 15.5 L14.8 17.0" fill="none" stroke="#000000" stroke-linecap="round" stroke-linejoin="round" stroke-width="2.0"/>
    <path d="M14.75 -0.6 L19.95 2.0 14.95 2.0 19.95 2.0 14.8 4.3 14.95 2.0 14.75 -0.6" fill="#ffcc00" fill-rule="evenodd" stroke="none"/>
    <path d="M7.3 1.45 Q6.25 2.0 4.95 2.0 2.9 2.0 1.4 0.55 -0.05 -0.9 -0.05 -3.0 -0.05 -5.05 1.4 -6.55 2.55 -7.7 4.15 -7.9 L4.85 -8.0 4.95 -8.0 5.05 -8.0 6.15 -7.85 6.45 -7.75 6.65 -7.65 6.7 -7.65 7.25 -7.4 Q5.95 -7.2 4.95 -6.2 3.6 -4.85 3.65 -3.0 3.65 -1.1 4.95 0.2 5.95 1.2 7.3 1.45" fill="#ffffff" fill-rule="evenodd" stroke="none"/>
    <path d="M7.3 1.45 Q5.95 1.2 4.95 0.2 3.65 -1.1 3.65 -3.0 3.6 -4.85 4.95 -6.2 5.95 -7.2 7.25 -7.4 L8.2 -6.85 8.45 -6.6 8.5 -6.55 8.95 -6.0 9.35 -5.3 8.5 -5.45 Q7.4 -5.45 6.7 -4.75 6.0 -4.05 6.05 -3.0 6.0 -1.95 6.7 -1.25 7.45 -0.5 8.5 -0.55 L9.4 -0.65 8.5 0.55 Q7.95 1.1 7.3 1.45" fill="#00ccff" fill-rule="evenodd" stroke="none"/>
    <path d="M9.4 -0.65 L8.5 -0.55 Q7.45 -0.5 6.7 -1.25 6.0 -1.95 6.05 -3.0 6.0 -4.05 6.7 -4.75 7.4 -5.45 8.5 -5.45 L9.35 -5.3 9.9 -3.75 9.95 -3.0 9.75 -1.5 9.7 -1.25 9.4 -0.65" fill="#000000" fill-rule="evenodd" stroke="none"/>
    <path d="M14.75 -0.6 L14.95 2.0 19.95 2.0 M14.8 4.3 L14.95 2.0 M6.15 -7.85 L5.05 -8.0 4.95 -8.0 4.85 -8.0 4.15 -7.9 Q2.55 -7.7 1.4 -6.55 -0.05 -5.05 -0.05 -3.0 -0.05 -0.9 1.4 0.55 2.9 2.0 4.95 2.0 6.25 2.0 7.3 1.45 7.95 1.1 8.5 0.55 L9.4 -0.65 8.5 -0.55 Q7.45 -0.5 6.7 -1.25 6.0 -1.95 6.05 -3.0 6.0 -4.05 6.7 -4.75 7.4 -5.45 8.5 -5.45 L9.35 -5.3 8.95 -6.0 8.5 -6.55 8.45 -6.6 8.2 -6.85 7.25 -7.4 6.7 -7.65 6.65 -7.65 M9.4 -0.65 L9.7 -1.25 9.75 -1.5 9.95 -3.0 9.9 -3.75 9.35 -5.3" fill="none" stroke="#000000" stroke-linecap="round" stroke-linejoin="round" stroke-width="1.0"/>
    <path d="M19.95 2.0 L14.75 -0.6 M19.95 2.0 L14.8 4.3" fill="none" stroke="#000000" stroke-linecap="round" stroke-linejoin="round" stroke-width="2.0"/>
    <path d="M-16.7 6.5 L-16.35 6.9 4.6 -14.05 3.9 -14.6 5.05 -14.0 -16.25 7.3 -16.7 6.5" fill="#ff0000" fill-rule="evenodd" stroke="none"/>
    <path d="M3.9 -14.6 L4.6 -14.05 -16.35 6.9 -16.7 6.5 Q-19.8 2.55 -19.8 -2.6 -19.8 -8.75 -15.45 -13.15 -11.05 -17.5 -4.9 -17.5 0.05 -17.5 3.9 -14.6" fill="#ffffff" fill-rule="evenodd" stroke="none"/>
    <path d="M3.9 -14.6 L4.6 -14.05 -16.35 6.9 -16.7 6.5 -16.25 7.3 5.05 -14.0 3.9 -14.6 Q0.05 -17.5 -4.9 -17.5 -11.05 -17.5 -15.45 -13.15 -19.8 -8.75 -19.8 -2.6 -19.8 2.55 -16.7 6.5 M-17.3 8.35 L-16.25 7.3 M5.05 -14.0 L13.45 -22.3" fill="none" stroke="#000000" stroke-linecap="round" stroke-linejoin="round" stroke-width="2.0"/>
  </g>
</svg>
