<?xml version="1.0" encoding="UTF-8" standalone="no"?>
<svg xmlns:ffdec="https://www.free-decompiler.com/flash" xmlns:xlink="http://www.w3.org/1999/xlink" ffdec:objectType="shape" height="39.8px" width="218.55px" xmlns="http://www.w3.org/2000/svg">
  <g transform="matrix(1.0, 0.0, 0.0, 1.0, -67.6, -502.2)">
    <path d="M127.9 519.2 L145.55 509.0 156.0 521.5 132.65 535.0 127.9 519.2" fill="#000000" fill-rule="evenodd" stroke="none"/>
    <path d="M127.9 519.2 L132.65 535.0 156.0 521.5 145.55 509.0 127.9 519.2 M132.65 535.0 L129.2 537.0 M156.0 521.5 L160.5 518.95" fill="none" stroke="#000000" stroke-linecap="round" stroke-linejoin="round" stroke-width="2.0"/>
    <path d="M92.3 518.05 L93.45 518.65 72.15 539.95 71.7 539.15 72.05 539.55 93.0 518.6 92.3 518.05" fill="#ff0000" fill-rule="evenodd" stroke="none"/>
    <path d="M92.3 518.05 L93.0 518.6 72.05 539.55 71.7 539.15 Q68.6 535.2 68.6 530.05 68.6 523.9 72.95 519.5 77.35 515.15 83.5 515.15 88.45 515.15 92.3 518.05" fill="#ffffff" fill-rule="evenodd" stroke="none"/>
    <path d="M71.7 539.15 L72.15 539.95 93.45 518.65 92.3 518.05 93.0 518.6 72.05 539.55 71.7 539.15 Q68.6 535.2 68.6 530.05 68.6 523.9 72.95 519.5 77.35 515.15 83.5 515.15 88.45 515.15 92.3 518.05 M72.15 539.95 L71.1 541.0 M93.45 518.65 L101.85 510.35" fill="none" stroke="#000000" stroke-linecap="round" stroke-linejoin="round" stroke-width="2.0"/>
    <path d="M192.95 518.3 Q192.3 521.85 188.25 522.5 188.65 519.3 192.95 518.3 193.9 514.7 197.75 514.0 196.45 518.0 192.95 518.3" fill="#ffffff" fill-rule="evenodd" stroke="none"/>
    <path d="M197.75 534.85 L193.45 539.05 Q192.75 536.9 192.75 534.45 192.75 528.25 197.15 523.85 L197.75 523.3 Q196.35 529.1 197.75 534.85" fill="#ff0000" fill-rule="evenodd" stroke="none"/>
    <path d="M208.55 524.4 L204.25 528.6 197.75 523.3 Q203.15 522.8 208.55 524.4" fill="#ffff00" fill-rule="evenodd" stroke="none"/>
    <path d="M204.25 528.6 L197.75 534.85 Q196.35 529.1 197.75 523.3 L204.25 528.6" fill="#ff9900" fill-rule="evenodd" stroke="none"/>
    <path d="M197.75 523.3 Q201.95 519.45 207.75 519.45 210.45 519.45 212.8 520.3 L208.55 524.4 Q203.15 522.8 197.75 523.3" fill="#00ff00" fill-rule="evenodd" stroke="none"/>
    <path d="M192.95 518.3 Q192.3 521.85 188.25 522.5 188.65 519.3 192.95 518.3 193.9 514.7 197.75 514.0 196.45 518.0 192.95 518.3 L197.75 523.3 Q201.95 519.45 207.75 519.45 210.45 519.45 212.8 520.3 L208.55 524.4 204.25 528.6 197.75 534.85 193.45 539.05 Q192.75 536.9 192.75 534.45 192.75 528.25 197.15 523.85 L197.75 523.3 Q203.15 522.8 208.55 524.4 M197.75 523.3 L204.25 528.6 M197.75 534.85 Q196.35 529.1 197.75 523.3" fill="none" stroke="#000000" stroke-linecap="round" stroke-linejoin="round" stroke-width="2.0"/>
    <path d="M285.15 505.7 L280.9 522.6 Q278.35 520.7 275.25 520.15 L285.15 505.7 M275.2 520.15 L272.2 519.85 270.0 520.0 Q267.95 520.3 266.1 521.1 263.65 522.2 261.6 524.25 L259.85 526.3 256.0 511.45 262.6 523.3 259.9 506.7 266.1 521.1 267.9 503.2 270.0 520.0 275.2 503.95 275.2 520.15 M259.85 526.35 Q258.55 528.15 257.9 530.2 257.2 532.4 257.2 534.85 257.2 537.3 257.9 539.45 L247.9 533.95 257.2 533.95 248.15 523.45 257.9 530.2 250.4 515.95 259.85 526.35" fill="#ff00ff" fill-rule="evenodd" stroke="none"/>
    <path d="M285.15 505.7 L275.25 520.15 Q278.35 520.7 280.9 522.6 L285.15 505.7 M275.2 520.15 L272.2 519.85 270.0 520.0 Q267.95 520.3 266.1 521.1 263.65 522.2 261.6 524.25 L259.85 526.3 259.85 526.35 Q258.55 528.15 257.9 530.2 257.2 532.4 257.2 534.85 257.2 537.3 257.9 539.45 L247.9 533.95 257.2 533.95 248.15 523.45 257.9 530.2 250.4 515.95 259.85 526.35 259.85 526.3 256.0 511.45 254.9 509.45 M275.25 520.15 L275.2 520.15 275.2 503.95 270.0 520.0 267.9 503.2 266.1 521.1 259.9 506.7 262.6 523.3 256.0 511.45 M275.2 520.15 L275.25 520.15" fill="none" stroke="#000000" stroke-linecap="round" stroke-linejoin="round" stroke-width="2.0"/>
  </g>
</svg>
