<?xml version="1.0" encoding="UTF-8" standalone="no"?>
<svg xmlns:ffdec="https://www.free-decompiler.com/flash" xmlns:xlink="http://www.w3.org/1999/xlink" ffdec:objectType="frame" height="21.1px" width="26.0px" xmlns="http://www.w3.org/2000/svg">
  <g transform="matrix(1.0, 0.0, 0.0, 1.0, 13.0, 10.55)">
    <use ffdec:characterId="270" height="21.1" transform="matrix(1.0, 0.0, 0.0, 1.0, -13.0, -10.55)" width="26.0" xlink:href="#shape0"/>
  </g>
  <defs>
    <g id="shape0" transform="matrix(1.0, 0.0, 0.0, 1.0, 13.0, 10.55)">
      <path d="M-5.4 -2.25 L-5.0 -2.5 -4.95 -2.15 -5.25 -1.95 -5.4 -2.25" fill="#0099ff" fill-rule="evenodd" stroke="none"/>
      <path d="M7.0 -5.15 Q7.0 -7.0 5.0 -7.1 3.0 -7.25 3.0 -5.2 L3.25 -4.2 Q3.8 -3.2 5.0 -3.2 5.9 -3.2 6.55 -4.0 L7.0 -5.15 M-5.0 -2.5 Q-3.35 -3.55 -1.25 -5.9 0.85 -8.25 3.15 -9.2 7.1 -10.8 9.85 -5.15 12.0 -0.7 12.0 2.95 12.0 5.45 11.45 6.45 10.35 8.35 6.5 9.55 L-5.5 9.55 Q-6.95 9.3 -7.4 8.85 -7.75 8.55 -8.75 8.55 -11.0 8.55 -11.7 6.65 L-12.0 4.6 Q-12.0 2.35 -9.35 0.45 L-5.4 -2.25 -5.25 -1.95 Q-5.75 -1.45 -5.75 -0.45 L-5.5 0.55 Q-4.95 1.55 -3.75 1.55 -2.85 1.55 -2.2 0.75 L-1.75 -0.4 Q-1.75 -2.25 -3.75 -2.35 L-4.95 -2.15 -5.0 -2.5 M-1.5 5.35 Q-1.5 4.45 -2.0 3.95 -2.5 3.45 -3.5 3.4 -4.65 3.3 -5.1 3.95 -5.5 4.4 -5.5 5.3 L-5.2 6.3 Q-4.7 7.3 -3.5 7.3 -2.6 7.3 -1.95 6.5 -1.5 5.85 -1.5 5.35 M1.75 1.7 Q1.25 0.95 0.0 0.9 -2.0 0.75 -2.0 2.8 L-1.75 3.8 Q-1.2 4.8 0.0 4.8 0.9 4.8 1.55 4.0 L2.0 2.85 1.85 1.95 Q2.4 2.8 3.5 2.8 4.4 2.8 5.05 2.0 L5.5 0.85 Q5.5 -1.3 3.5 -1.2 1.5 -1.15 1.5 0.8 L1.75 1.7 M10.2 2.2 Q10.75 1.45 10.75 0.85 10.75 -1.3 8.65 -1.2 6.5 -1.1 6.5 1.05 L6.8 2.05 Q7.3 3.05 8.5 3.05 9.5 3.05 10.2 2.2 M-9.25 3.3 L-8.95 4.3 Q-8.45 5.3 -7.25 5.3 -6.35 5.3 -5.7 4.5 L-5.35 3.9 -5.25 3.35 Q-5.25 1.5 -7.25 1.4 -9.25 1.25 -9.25 3.3 M7.25 5.35 Q7.25 3.5 5.25 3.4 3.25 3.25 3.25 5.3 L3.5 6.3 Q4.05 7.3 5.25 7.3 6.15 7.3 6.8 6.5 L7.25 5.35" fill="#ff51ff" fill-rule="evenodd" stroke="none"/>
      <path d="M7.0 -5.15 L6.55 -4.0 Q5.9 -3.2 5.0 -3.2 3.8 -3.2 3.25 -4.2 L3.0 -5.2 Q3.0 -7.25 5.0 -7.1 7.0 -7.0 7.0 -5.15 M-4.95 -2.15 L-3.75 -2.35 Q-1.75 -2.25 -1.75 -0.4 L-2.2 0.75 Q-2.85 1.55 -3.75 1.55 -4.95 1.55 -5.5 0.55 L-5.75 -0.45 Q-5.75 -1.45 -5.25 -1.95 L-4.95 -2.15 M-1.5 5.35 Q-1.5 5.85 -1.95 6.5 -2.6 7.3 -3.5 7.3 -4.7 7.3 -5.2 6.3 L-5.5 5.3 Q-5.5 4.4 -5.1 3.95 -4.65 3.3 -3.5 3.4 -2.5 3.45 -2.0 3.95 -1.5 4.45 -1.5 5.35 M1.75 1.7 L1.5 0.8 Q1.5 -1.15 3.5 -1.2 5.5 -1.3 5.5 0.85 L5.05 2.0 Q4.4 2.8 3.5 2.8 2.4 2.8 1.85 1.95 L1.75 1.7 M7.25 5.35 L6.8 6.5 Q6.15 7.3 5.25 7.3 4.05 7.3 3.5 6.3 L3.25 5.3 Q3.25 3.25 5.25 3.4 7.25 3.5 7.25 5.35" fill="#a60e9f" fill-rule="evenodd" stroke="none"/>
      <path d="M1.85 1.95 L2.0 2.85 1.55 4.0 Q0.9 4.8 0.0 4.8 -1.2 4.8 -1.75 3.8 L-2.0 2.8 Q-2.0 0.75 0.0 0.9 1.25 0.95 1.75 1.7 L1.85 1.95 M-9.25 3.3 Q-9.25 1.25 -7.25 1.4 -5.25 1.5 -5.25 3.35 L-5.35 3.9 -5.7 4.5 Q-6.35 5.3 -7.25 5.3 -8.45 5.3 -8.95 4.3 L-9.25 3.3 M10.2 2.2 Q9.5 3.05 8.5 3.05 7.3 3.05 6.8 2.05 L6.5 1.05 Q6.5 -1.1 8.65 -1.2 10.75 -1.3 10.75 0.85 10.75 1.45 10.2 2.2" fill="#ffb0ff" fill-rule="evenodd" stroke="none"/>
      <path d="M-5.0 -2.5 Q-3.35 -3.55 -1.25 -5.9 0.85 -8.25 3.15 -9.2 7.1 -10.8 9.85 -5.15 12.0 -0.7 12.0 2.95 12.0 5.45 11.45 6.45 10.35 8.35 6.5 9.55 L-5.5 9.55 Q-6.95 9.3 -7.4 8.85 -7.75 8.55 -8.75 8.55 -11.0 8.55 -11.7 6.65 L-12.0 4.6 Q-12.0 2.35 -9.35 0.45 L-5.4 -2.25 -5.0 -2.5 Z" fill="none" stroke="#000000" stroke-linecap="round" stroke-linejoin="round" stroke-width="2.0"/>
    </g>
  </defs>
</svg>
