<?xml version="1.0" encoding="UTF-8"?>
<svg width="26px" height="18px" viewBox="0 0 26 18" version="1.1" xmlns="http://www.w3.org/2000/svg" xmlns:xlink="http://www.w3.org/1999/xlink">
    <title>Group</title>
    <g id="Page-1" stroke="none" stroke-width="1" fill="none" fill-rule="evenodd">
        <g id="Group">
            <polyline id="Path" fill="#FFCC00" points="12.3 11.7480643 17.5 12.3729002 12.35 16.6290723 12.5 14.2720965 17.5 12.3729002 12.5 14.2720965"></polyline>
            <path d="M7.85,9.95 L5.5,10.5 C4.13333333,10.5 2.95,10.0166667 1.95,9.05 C0.983333333,8.08333333 0.5,6.9 0.5,5.5 C0.5,4.13333333 0.983333333,2.95 1.95,1.95 C2.71666667,1.18333333 3.63333333,0.733333333 4.7,0.6 L5.4,0.5 L5.5,0.5 L5.6,0.5 L6.7,0.65 L7,0.75 L7.2,0.85 L7.25,0.85 L7.8,1.1 C6.93333333,1.23333333 6.16666667,1.63333333 5.5,2.3 C4.6,3.2 4.16666667,4.26666667 4.2,5.5 C4.2,6.76666667 4.63333333,7.83333333 5.5,8.7 C6.16666667,9.36666667 6.95,9.78333333 7.85,9.95" id="Path-Copy-3" fill="#FFFFFF"></path>
            <path d="M7.85,9.95 C6.95,9.78333333 6.16666667,9.36666667 5.5,8.7 C4.63333333,7.83333333 4.2,6.76666667 4.2,5.5 C4.16666667,4.26666667 4.6,3.2 5.5,2.3 C6.16666667,1.63333333 6.93333333,1.23333333 7.8,1.1 L8.75,1.65 L9,1.9 L9.05,1.95 L9.5,2.5 L9.9,3.2 L9.05,3.05 C8.31666667,3.05 7.71666667,3.28333333 7.25,3.75 C6.78333333,4.21666667 6.56666667,4.8 6.6,5.5 C6.56666667,6.2 6.78333333,6.78333333 7.25,7.25 C7.75,7.75 8.35,7.98333333 9.05,7.95 L9.95,7.85 L9.05,9.05 C8.68333333,9.41666667 8.28333333,9.71666667 7.85,9.95" id="Path-Copy-2" fill="#99FF00"></path>
            <circle id="Oval" fill="#FFFFFF" cx="5.5" cy="5.5" r="5.5"></circle>
            <circle id="Oval-Copy" fill="#99FF00" cx="5.5" cy="5.5" r="3.5"></circle>
            <circle id="Oval-Copy-2" fill="#000000" cx="5.5" cy="5.5" r="2.5"></circle>
            <path d="M6.7,0.65 L5.6,0.5 L5.5,0.5 L5.4,0.5 L4.7,0.6 C3.63333333,0.733333333 2.71666667,1.18333333 1.95,1.95 C0.983333333,2.95 0.5,4.13333333 0.5,5.5 C0.5,6.9 0.983333333,8.08333333 1.95,9.05 C2.95,10.0166667 4.13333333,10.5 5.5,10.5 L7.85,9.95 C8.28333333,9.71666667 8.68333333,9.41666667 9.05,9.05 L9.95,7.85 L9.9,3.2 C10.1666667,3.66666667 10.35,4.18333333 10.45,4.75 L10.5,5.5 L10.3,7 L10.25,7.25 L9.95,7.85 M7.8,1.1 L7.25,0.85 L7.2,0.85 M9.9,3.2 L9.5,2.5 L9.05,1.95 L9,1.9 L8.75,1.65 L7.8,1.1" id="Shape-Copy-2" stroke="#000000" stroke-linecap="round" stroke-linejoin="round"></path>
            <path d="M22.85,9.95 L20.5,10.5 C19.1333333,10.5 17.95,10.0166667 16.95,9.05 C15.9833333,8.08333333 15.5,6.9 15.5,5.5 C15.5,4.13333333 15.9833333,2.95 16.95,1.95 C17.7166667,1.18333333 18.6333333,0.733333333 19.7,0.6 L20.4,0.5 L20.5,0.5 L20.6,0.5 L21.7,0.65 L22,0.75 L22.2,0.85 L22.25,0.85 L22.8,1.1 C21.9333333,1.23333333 21.1666667,1.63333333 20.5,2.3 C19.6,3.2 19.1666667,4.26666667 19.2,5.5 C19.2,6.76666667 19.6333333,7.83333333 20.5,8.7 C21.1666667,9.36666667 21.95,9.78333333 22.85,9.95" id="Path-Copy-5" fill="#FFFFFF"></path>
            <path d="M22.85,9.95 C21.95,9.78333333 21.1666667,9.36666667 20.5,8.7 C19.6333333,7.83333333 19.2,6.76666667 19.2,5.5 C19.1666667,4.26666667 19.6,3.2 20.5,2.3 C21.1666667,1.63333333 21.9333333,1.23333333 22.8,1.1 L23.75,1.65 L24,1.9 L24.05,1.95 L24.5,2.5 L24.9,3.2 L24.05,3.05 C23.3166667,3.05 22.7166667,3.28333333 22.25,3.75 C21.7833333,4.21666667 21.5666667,4.8 21.6,5.5 C21.5666667,6.2 21.7833333,6.78333333 22.25,7.25 C22.75,7.75 23.35,7.98333333 24.05,7.95 L24.95,7.85 L24.05,9.05 C23.6833333,9.41666667 23.2833333,9.71666667 22.85,9.95" id="Path-Copy-4" fill="#99FF00"></path>
            <circle id="Oval-Copy-5" fill="#FFFFFF" cx="20.5" cy="5.5" r="5.5"></circle>
            <circle id="Oval-Copy-4" fill="#99FF00" cx="20.5" cy="5.5" r="3.5"></circle>
            <circle id="Oval-Copy-3" fill="#000000" cx="20.5" cy="5.5" r="2.5"></circle>
            <path d="M21.7,0.65 L20.6,0.5 L20.5,0.5 L20.4,0.5 L19.7,0.6 C18.6333333,0.733333333 17.7166667,1.18333333 16.95,1.95 C15.9833333,2.95 15.5,4.13333333 15.5,5.5 C15.5,6.9 15.9833333,8.08333333 16.95,9.05 C17.95,10.0166667 19.1333333,10.5 20.5,10.5 L22.85,9.95 C23.2833333,9.71666667 23.6833333,9.41666667 24.05,9.05 L24.95,7.85 L24.9,3.2 C25.1666667,3.66666667 25.35,4.18333333 25.45,4.75 L25.5,5.5 L25.3,7 L25.25,7.25 L24.95,7.85 M22.8,1.1 L22.25,0.85 L22.2,0.85 M24.9,3.2 L24.5,2.5 L24.05,1.95 L24,1.9 L23.75,1.65 L22.8,1.1" id="Shape-Copy-3" stroke="#000000" stroke-linecap="round" stroke-linejoin="round"></path>
            <line x1="12.5" y1="14.2720965" x2="17.5" y2="12.3729002" id="Path" stroke="#B39001" stroke-linecap="round" stroke-linejoin="round"></line>
            <polyline id="Path" stroke="#000000" stroke-linecap="round" stroke-linejoin="round" points="12.35 16.6290723 12.5 14.2720965 12.3 11.7480643"></polyline>
            <polyline id="Path" stroke="#000000" stroke-width="2" stroke-linecap="round" stroke-linejoin="round" points="12.35 16.6290723 17.5 12.3729002 12.3 11.7480643"></polyline>
        </g>
    </g>
</svg>