<?xml version="1.0" encoding="UTF-8"?>
<svg width="6494px" height="408px" viewBox="0 0 6494 408" version="1.1" xmlns="http://www.w3.org/2000/svg" xmlns:xlink="http://www.w3.org/1999/xlink">
    <title>Group</title>
    <defs>
        <linearGradient x1="49.9912572%" y1="1178.54424%" x2="49.9912572%" y2="-3.08969697%" id="linearGradient-1">
            <stop stop-color="#666666" offset="0%"></stop>
            <stop stop-color="#888888" offset="100%"></stop>
        </linearGradient>
        <linearGradient x1="77.9269649%" y1="13.1556754%" x2="77.9269649%" y2="98.4107846%" id="linearGradient-2">
            <stop stop-color="#99CC00" offset="0%"></stop>
            <stop stop-color="#88A901" offset="100%"></stop>
        </linearGradient>
        <linearGradient x1="50.1673026%" y1="20.517991%" x2="50.1673026%" y2="97.4131909%" id="linearGradient-3">
            <stop stop-color="#99CC00" offset="0%"></stop>
            <stop stop-color="#88A901" offset="100%"></stop>
        </linearGradient>
        <linearGradient x1="49.2363014%" y1="2.84369352%" x2="49.2363014%" y2="97.1563065%" id="linearGradient-4">
            <stop stop-color="#FFCC00" offset="0%"></stop>
            <stop stop-color="#E3B602" offset="100%"></stop>
        </linearGradient>
        <linearGradient x1="34.562212%" y1="99.5304582%" x2="34.562212%" y2="-58.9024543%" id="linearGradient-5">
            <stop stop-color="#666666" offset="0%"></stop>
            <stop stop-color="#888888" offset="100%"></stop>
        </linearGradient>
        <linearGradient x1="37.9388965%" y1="99.1074923%" x2="37.9388965%" y2="27.6026385%" id="linearGradient-6">
            <stop stop-color="#88A900" offset="0%"></stop>
            <stop stop-color="#98CA00" offset="100%"></stop>
        </linearGradient>
        <linearGradient x1="-36.0022318%" y1="17.7449945%" x2="-36.0022318%" y2="98.5036423%" id="linearGradient-7">
            <stop stop-color="#99CC00" offset="0%"></stop>
            <stop stop-color="#88A901" offset="100%"></stop>
        </linearGradient>
        <linearGradient x1="50%" y1="-0.581747346%" x2="50%" y2="100.591487%" id="linearGradient-8">
            <stop stop-color="#FFFFFF" offset="0%"></stop>
            <stop stop-color="#DBD5BD" offset="100%"></stop>
        </linearGradient>
    </defs>
    <g id="Page-1" stroke="none" stroke-width="1" fill="none" fill-rule="evenodd">
        <g id="1189" transform="translate(2, -106)">
            <g id="Group" transform="translate(0, 256.65)">
                <polyline id="Path" fill="url(#linearGradient-1)" points="6491.85 -117 6205.9 -117 6205.9 -150 6491.85 -150 6491.85 -117"></polyline>
                <path d="M5010.5,40.65 L5045.95,64 L5044.85,67.1 L5005.1,52.5 C4989.66667,40.6 4991.46667,36.65 5010.5,40.65 M5791.15,121.4 L5872.65,96.75 L5874.4,100.4 L5873.5,104.9 C5872.06667,109.966667 5869.35,112.55 5865.35,112.65 C5841.31667,112.683333 5816.58333,115.6 5791.15,121.4" id="Shape" fill="#98CA00"></path>
                <path d="M5515.95,237.95 L4933.95,237.95 L4931.3,215.2 C4950.36667,215.2 4953.9,207.416667 4941.9,191.85 L4961.95,198.95 L4953.7,165.85 C4968.1,165.016667 4971.06667,158.466667 4962.6,146.2 L4987.95,157.95 L4975.95,116.85 C4987.65,115.35 4990.53333,108.983333 4984.6,97.75 L5024.95,110 L4997.9,68.45 C5014.26667,72.8166667 5016.66667,67.5 5005.1,52.5 L5044.85,67.1 L5045.95,64 C5051.21667,67.2 5056.53333,70.3166667 5061.9,73.35 C5086.4,87.2166667 5111.73333,99.4333333 5137.9,110 C5174.23333,122.633333 5211.9,131.283333 5250.9,135.95 L5416.9,149.95 C5449.93333,153.25 5482.95,153.833333 5515.95,151.7 L5515.95,237.95" id="Path" fill="url(#linearGradient-2)"></path>
                <path d="M5005.1,52.5 C5016.66667,67.5 5014.26667,72.8166667 4997.9,68.45 L4981.95,44 L5005.1,52.5" id="Path" fill="#767676"></path>
                <path d="M4997.9,68.45 L5024.95,110 L4984.6,97.75 C4969.43333,72.95 4973.86667,63.1833333 4997.9,68.45" id="Path" fill="#97C800"></path>
                <path d="M4984.6,97.75 C4990.53333,108.983333 4987.65,115.35 4975.95,116.85 L4968.95,93 L4984.6,97.75" id="Path" fill="#707070"></path>
                <path d="M4962.6,146.2 C4971.06667,158.466667 4968.1,165.016667 4953.7,165.85 L4946.95,138.95 L4962.6,146.2" id="Path" fill="#6B6B6B"></path>
                <path d="M4975.95,116.85 L4987.95,157.95 L4962.6,146.2 C4952.3,127.566667 4956.75,117.783333 4975.95,116.85" id="Path" fill="#92BE00"></path>
                <path d="M4953.7,165.85 L4961.95,198.95 L4941.9,191.85 C4933.06667,174.25 4937,165.583333 4953.7,165.85" id="Path" fill="#8DB400"></path>
                <path d="M4941.9,191.85 C4953.9,207.416667 4950.36667,215.2 4931.3,215.2 L4927.95,186.95 L4941.9,191.85" id="Path" fill="#666666"></path>
                <path d="M4933.95,237.95 L4920.95,237.95 C4907.41667,222.516667 4910.86667,214.933333 4931.3,215.2 L4933.95,237.95" id="Path" fill="#88AA00"></path>
                <path d="M2594.1,237.95 C2619.16667,225.25 2624.5,209.916667 2610.1,191.95 C2590.33333,176.916667 2583.66667,159.25 2590.1,138.95 C2599.8,125.216667 2606.13333,109.233333 2609.1,91 C2604.06667,78.6 2596.73333,71.9333333 2587.1,71 C2580.96667,64.6666667 2580.96667,58.3333333 2587.1,52 L2606.45,34.35 C2665.68333,23.15 2978.85,-65.3456232 3039.95,-67.0456232 C3124.28333,-63.4789565 2955.61667,29.9 3039.95,49 C3089.50556,60.5555556 3447.15556,55.2222222 4112.9,33 L4120.45,30 L4129,26.55 L4148.75,18.35 L4215,4 C4231.06667,6.23333333 4237.06667,12.2333333 4233,22 C4200.93333,41.4666667 4195.85,50.1833333 4217.75,48.15 C4228.58333,47.3166667 4237.35,51.3333333 4244.05,60.2 C4257.28333,77.7666667 4250.6,100.016667 4224,126.95 C4217.43333,144.083333 4226.76667,153.75 4252,155.95 C4273.93333,171.216667 4275.26667,184.55 4256,195.95 C4241.7,214.383333 4251.7,228.383333 4286,237.95 L2594.1,237.95 Z" id="Path" fill="url(#linearGradient-3)"></path>
                <path d="M2594.1,237.95 L2102,237.95 C2201.46667,184.516667 2302.13333,135.866667 2404,92 C2445.73333,74.0666667 2489.58333,59.6666667 2535.55,48.8 L2542.2,47.25 C2555.6,44.2166667 2569.2,41.4666667 2583,39 L2606.45,34.35 L2587.1,52 C2580.96667,58.3333333 2580.96667,64.6666667 2587.1,71 C2596.73333,71.9333333 2604.06667,78.6 2609.1,91 C2606.13333,109.233333 2599.8,125.216667 2590.1,138.95 C2583.66667,159.25 2590.33333,176.916667 2610.1,191.95 C2624.5,209.916667 2619.16667,225.25 2594.1,237.95" id="Path" fill="url(#linearGradient-4)"></path>
                <path d="M5982.3,81.9 L5982.9,82 L5982.9,237.95 L5874.4,237.95 C5893.43333,234.716667 5901.76667,224.116667 5899.4,206.15 C5892.76667,196.383333 5895.45,188.95 5907.45,183.85 C5922.05,182.483333 5927.3,175.316667 5923.2,162.35 C5919.03333,154.583333 5921.6,147.383333 5930.9,140.75 C5935.73333,132.95 5933.16667,125.316667 5923.2,117.85 C5910.9,109.05 5910.9,101.65 5923.2,95.65 C5943.36667,90.55 5963.06667,88.3 5982.3,88.9 L5982.3,81.9" id="Path" fill="url(#linearGradient-5)"></path>
                <path d="M5872.65,96.75 L5907.45,86.15 C5933.05,80.95 5958,79.5166667 5982.3,81.85 L5982.3,81.9 L5982.3,88.9 C5963.06667,88.3 5943.36667,90.55 5923.2,95.65 C5910.9,101.65 5910.9,109.05 5923.2,117.85 C5933.16667,125.316667 5935.73333,132.95 5930.9,140.75 C5921.6,147.383333 5919.03333,154.583333 5923.2,162.35 C5927.3,175.316667 5922.05,182.483333 5907.45,183.85 C5895.45,188.95 5892.76667,196.383333 5899.4,206.15 C5901.76667,224.116667 5893.43333,234.716667 5874.4,237.95 L5874.4,100.4 L5872.65,96.75" id="Path" fill="url(#linearGradient-6)"></path>
                <path d="M5874.4,237.95 L5515.95,237.95 L5515.95,151.7 L5515.95,151.15 L5545.3,151.15 L5659.8,144.95 C5705.66667,141.15 5749.45,133.3 5791.15,121.4 C5816.58333,115.6 5841.31667,112.683333 5865.35,112.65 C5869.35,112.55 5872.06667,109.966667 5873.5,104.9 L5874.4,100.4 L5874.4,237.95" id="Path" fill="url(#linearGradient-7)"></path>
                <path d="M1002.38736,207.752273 C928.487357,242.885606 761.433333,255.833333 656.9,256.7 L83.6896573,256.7 C-36.9770093,239.766667 9.1,127.191667 -1.42552636e-13,0.025 L1002.38736,0.025 L1002.38736,207.752273 Z" id="Shape" fill="url(#linearGradient-8)"></path>
                <polyline id="Path" fill-opacity="0.007843138" fill="#000000" points="1078.15 70 1143.5 13.55 1143.5 70 1078.15 70"></polyline>
            </g>
        </g>
    </g>
</svg>