<?xml version="1.0" encoding="UTF-8"?>
<svg width="366px" height="117px" viewBox="0 0 366 117" version="1.1" xmlns="http://www.w3.org/2000/svg" xmlns:xlink="http://www.w3.org/1999/xlink">
    <title>Group 5</title>
    <defs>
        <linearGradient x1="50%" y1="0.804534413%" x2="50%" y2="97.9808907%" id="linearGradient-1">
            <stop stop-color="#FF6666" offset="0%"></stop>
            <stop stop-color="#CC3333" offset="100%"></stop>
        </linearGradient>
        <linearGradient x1="49.9552372%" y1="0.11646744%" x2="49.9552372%" y2="99.7943265%" id="linearGradient-2">
            <stop stop-color="#FFFFFF" offset="0%"></stop>
            <stop stop-color="#DEDEDE" offset="100%"></stop>
        </linearGradient>
        <linearGradient x1="50.0484195%" y1="1.16050242%" x2="50.0484195%" y2="98.3564058%" id="linearGradient-3">
            <stop stop-color="#FF6666" offset="0%"></stop>
            <stop stop-color="#CC3333" offset="100%"></stop>
        </linearGradient>
        <linearGradient x1="50%" y1="0.819818731%" x2="50%" y2="95.8569184%" id="linearGradient-4">
            <stop stop-color="#FF6666" offset="0%"></stop>
            <stop stop-color="#CC3333" offset="100%"></stop>
        </linearGradient>
        <linearGradient x1="50%" y1="1.79045317%" x2="50%" y2="96.4975629%" id="linearGradient-5">
            <stop stop-color="#FF6666" offset="0%"></stop>
            <stop stop-color="#CC3333" offset="100%"></stop>
        </linearGradient>
        <linearGradient x1="50.0484195%" y1="0.299128606%" x2="50.0484195%" y2="98.4442289%" id="linearGradient-6">
            <stop stop-color="#FF6666" offset="0%"></stop>
            <stop stop-color="#CC3333" offset="100%"></stop>
        </linearGradient>
        <linearGradient x1="49.9552372%" y1="0.11646744%" x2="49.9552372%" y2="99.7943265%" id="linearGradient-7">
            <stop stop-color="#FFFFFF" offset="0%"></stop>
            <stop stop-color="#DEDEDE" offset="100%"></stop>
        </linearGradient>
        <linearGradient x1="50%" y1="0.800483384%" x2="50%" y2="97.4875327%" id="linearGradient-8">
            <stop stop-color="#FF6666" offset="0%"></stop>
            <stop stop-color="#CC3333" offset="100%"></stop>
        </linearGradient>
        <linearGradient x1="50.137741%" y1="-33.3925%" x2="50.137741%" y2="442.7675%" id="linearGradient-9">
            <stop stop-color="#FFFFFF" offset="0%"></stop>
            <stop stop-color="#DEDEDE" offset="100%"></stop>
        </linearGradient>
        <linearGradient x1="50.1259446%" y1="1.4615138%" x2="50.1259446%" y2="98.6275334%" id="linearGradient-10">
            <stop stop-color="#FFFFFF" offset="0%"></stop>
            <stop stop-color="#DEDEDE" offset="100%"></stop>
        </linearGradient>
        <linearGradient x1="50.0735294%" y1="0.148459484%" x2="50.0735294%" y2="99.9405877%" id="linearGradient-11">
            <stop stop-color="#FFFFFF" offset="0%"></stop>
            <stop stop-color="#DEDEDE" offset="100%"></stop>
        </linearGradient>
        <linearGradient x1="66.6666667%" y1="-26.983753%" x2="66.6666667%" y2="98.7177197%" id="linearGradient-12">
            <stop stop-color="#FFFFFF" offset="0%"></stop>
            <stop stop-color="#DEDEDE" offset="100%"></stop>
        </linearGradient>
        <linearGradient x1="50%" y1="-7.33744871%" x2="50%" y2="107.248243%" id="linearGradient-13">
            <stop stop-color="#FFFFFF" offset="0%"></stop>
            <stop stop-color="#DEDEDE" offset="100%"></stop>
        </linearGradient>
    </defs>
    <g id="Page-1" stroke="none" stroke-width="1" fill="none" fill-rule="evenodd">
        <g id="Group-5" transform="translate(3.65, 1.5856)">
            <path d="M242.4,1.41435233 L242.4,14.2143523 L224.25,14.2143523 L224.25,1.41435233 L242.4,1.41435233 M203.35,1.96435233 L203.35,41.2643523 L223.75,41.2643523 L219.1,58.1143523 L184.05,58.1143523 L184.05,1.96435233 L203.35,1.96435233 M247.8,18.8143523 L247.8,15.2143523 L247.8,14.5643523 L247.85,13.9143523 L247.9,13.2143523 L248.05,12.5643523 C248.616667,9.09768566 249.916667,6.46435233 251.95,4.66435233 C253.983333,2.931019 256.783333,2.06435233 260.35,2.06435233 L272.55,1.96435233 L275.95,16.0143523 L268.25,16.0643523 L267.25,16.4143523 L266.55,16.9643523 L266.45,17.1143523 L266.3,17.2643523 L266.15,17.5143523 L266.1,17.7143523 L266,18.2643523 L270.8,18.2643523 L270.8,30.2643523 C271.2,25.8643523 272.75,22.4476857 275.45,20.0143523 C278.583333,17.181019 283.066667,15.6143523 288.9,15.3143523 L291.35,15.2143523 L293.7,15.1643523 C300.733333,15.1976857 305.666667,16.1976857 308.5,18.1643523 C311.3,20.131019 312.7,23.181019 312.7,27.3143523 L312.7,28.2643523 L312.6,29.2643523 C312.5,30.9643523 311.933333,32.881019 310.9,35.0143523 C309.833333,37.1143523 308.25,39.281019 306.15,41.5143523 L306.15,41.4143523 L305.7,41.9143523 L305.35,42.2643523 L304.95,42.6643523 L304.55,43.0143523 L310.5,43.0143523 L306.45,58.0143523 L298.15,58.0143523 C290.116667,57.8143523 284.016667,56.3143523 279.85,53.5143523 L279.3,53.1143523 C275.2,50.081019 272.566667,45.5643523 271.4,39.5643523 L270.9,35.9143523 L270.7,32.6143523 L270.75,31.1143523 L265.8,31.1143523 L265.8,58.0143523 L258.3,58.0143523 L258.3,58.1143523 L257.1,58.1143523 L257.05,58.0143523 L247.6,58.0643523 L247.6,31.1143523 L244.7,31.1143523 L244.7,18.8143523 L247.8,18.8143523 M242.4,16.0143523 L242.4,58.1143523 L224.25,58.1143523 L224.25,16.0143523 L242.4,16.0143523 M292.3,30.1143523 L292.15,30.1143523 L292.05,30.0643523 L291.95,30.1143523 L291.6,30.1643523 L291.3,30.2143523 C290.7,30.4143523 290.116667,30.7976857 289.55,31.3643523 C288.983333,31.931019 288.533333,32.5643523 288.2,33.2643523 L288.05,33.9143523 L287.95,34.7143523 L287.95,35.1643523 L288.05,35.5643523 L288.25,36.6643523 C288.316667,37.031019 288.433333,37.3643523 288.6,37.6643523 L288.95,38.7143523 L289.15,39.1643523 C289.383333,39.2643523 289.733333,39.1976857 290.2,38.9643523 C290.733333,38.731019 291.283333,38.4143523 291.85,38.0143523 L293.05,36.9143523 L294.1,35.7143523 L294.8,34.1643523 L295,32.9643523 C295,32.1643523 294.75,31.5143523 294.25,31.0143523 C293.683333,30.581019 293.033333,30.281019 292.3,30.1143523 M335.85,19.1143523 L334.95,18.9643523 L334.05,18.8143523 L317.95,18.8143523 L322.3,1.96435233 L342.25,1.96435233 L345,2.11435233 L347.25,2.36435233 C350.216667,2.731019 352.65,3.99768566 354.55,6.16435233 C356.483333,8.36435233 357.45,10.9476857 357.45,13.9143523 L357.15,16.4643523 L356.35,19.2143523 L355,21.8143523 C354.466667,22.781019 353.8,23.7643523 353,24.7643523 L352.3,25.7143523 L351.4,26.7143523 L349.65,28.5643523 L352.2,30.5143523 L354.35,32.6643523 L356.7,35.9643523 C357.333333,37.031019 357.833333,38.1143523 358.2,39.2143523 L358.75,41.3643523 L358.9,43.5143523 L358.8,45.3143523 L358.4,47.2643523 C357.933333,49.5976857 357.083333,51.5476857 355.85,53.1143523 C355.15,53.9476857 354.366667,54.681019 353.5,55.3143523 C351.466667,56.8143523 348.783333,57.7143523 345.45,58.0143523 L321.1,58.0143523 L316.9,41.2643523 L335.4,41.2643523 L335.95,41.2143523 L336.3,41.2643523 L336.75,41.1143523 C337.583333,40.8476857 338.166667,40.5476857 338.5,40.2143523 C338.9,39.881019 339.1,39.4476857 339.1,38.9143523 L339.05,38.5643523 L338.95,38.1643523 L337.7,36.4143523 L334.15,33.2643523 L333.95,33.2143523 L333.95,33.1143523 L332.2,31.7643523 L329.55,29.8143523 L329.2,29.5143523 L328.8,29.2643523 L328.4,29.0143523 L328.05,28.7643523 L334.95,23.7143523 C335.783333,23.181019 336.383333,22.681019 336.75,22.2143523 C337.116667,21.781019 337.3,21.3476857 337.3,20.9143523 L337.2,20.5643523 L337.05,20.1643523 L336.75,19.7643523 L336.4,19.4143523 L335.85,19.1143523 M358.2,61.4643523 L358.2,110.864352 L341.35,110.864352 L341.35,97.5143523 L329.6,82.4643523 L331.45,88.2143523 L331.35,105.564352 L331.45,108.464352 C331.483333,109.097686 331.616667,109.631019 331.85,110.064352 L332.1,110.564352 L332.3,110.864352 L315,110.864352 L315,110.014352 L315,61.4643523 L331.85,61.4643523 L341.55,74.2643523 L341.55,61.4643523 L358.2,61.4643523 M313.75,82.0143523 L313.7,83.9643523 L313.5,85.9643523 C312.466667,92.8976857 309.833333,98.9643523 305.6,104.164352 C302.933333,107.431019 299.75,109.664352 296.05,110.864352 L294,110.864352 L294,111.414352 L288.65,111.964352 C281.716667,111.897686 276.15,109.264352 271.95,104.064352 C267.783333,98.8976857 265.216667,92.8643523 264.25,85.9643523 L264.25,85.8643523 L263.95,83.3643523 L263.9,80.9143523 C263.9,75.0476857 265.8,70.2643523 269.6,66.5643523 C273.433333,62.831019 279.916667,60.731019 289.05,60.2643523 L289.55,60.2643523 L289.95,60.2143523 L290.45,60.2143523 L290.9,60.2143523 C298.6,60.2476857 304.35,62.4476857 308.15,66.8143523 C311.95,71.181019 313.816667,76.2476857 313.75,82.0143523 M282.55,77.8643523 C281.083333,79.6643523 280.333333,81.6143523 280.3,83.7143523 L280.3,83.8143523 L280.3,83.9143523 L280.45,85.3643523 L280.8,86.7643523 L281.1,87.6143523 L281.35,88.4643523 C282.15,90.6643523 283.133333,92.6476857 284.3,94.4143523 C285.466667,96.2476857 287.2,97.1476857 289.5,97.1143523 C291.966667,97.0476857 293.733333,95.981019 294.8,93.9143523 C295.833333,91.8476857 296.6,89.5476857 297.1,87.0143523 L297.2,86.3143523 L297.35,85.5143523 L297.5,84.6143523 L297.5,83.6643523 C297.5,81.3643523 296.75,79.381019 295.25,77.7143523 C293.716667,76.0476857 291.383333,75.1976857 288.25,75.1643523 L288.25,75.1143523 L288.15,75.1643523 L288.05,75.1643523 C285.783333,75.1643523 283.95,76.0643523 282.55,77.8643523 M262.6,111.114352 L245.7,111.114352 L245.7,76.3643523 L234.5,76.3643523 L234.5,111.114352 L217.5,111.114352 L217.5,76.3643523 L206.6,76.3643523 L206.6,111.114352 L179.1,111.114352 C174.133333,111.114352 169.983333,109.414352 166.65,106.014352 C164.316667,103.614352 162.816667,100.381019 162.15,96.3143523 L158.1,111.114352 L127.5,111.114352 L127.5,61.4643523 L144.35,61.4643523 L144.35,96.2143523 L162.1,96.2143523 C161.833333,94.5476857 161.7,92.7476857 161.7,90.8143523 C161.7,88.0476857 162.033333,85.0143523 162.7,81.7143523 C163.4,78.3476857 164.466667,74.731019 165.9,70.8643523 L165.9,70.8143523 L167.95,66.0143523 L170.1,61.5143523 L188.3,61.4643523 C187.6,62.631019 186.95,63.8143523 186.35,65.0143523 L184.6,68.5143523 L183,72.1143523 L181.65,75.6143523 C180.416667,79.0143523 179.533333,81.881019 179,84.2143523 C178.4,86.6143523 178.1,88.6143523 178.1,90.2143523 C178.1,92.5476857 178.716667,94.1476857 179.95,95.0143523 C181.216667,95.881019 183,96.3143523 185.3,96.3143523 L189.7,96.2143523 L189.7,61.4643523 L206.6,61.4643523 L206.6,75.4143523 L210.2,61.4643523 L241.8,61.4643523 L245.7,76.3643523 L245.7,61.4643523 L262.6,61.4643523 L262.6,111.114352 M134.95,56.2143523 L137.05,56.1643523 L136.2,56.2143523 L134.95,56.2143523 M100.75,75.1643523 L100.75,75.1143523 L100.65,75.1643523 L100.55,75.1643523 C98.2833333,75.1643523 96.45,76.0643523 95.05,77.8643523 C93.5833333,79.6643523 92.8333333,81.6143523 92.8,83.7143523 L92.8,83.8143523 L92.8,83.9143523 L92.95,85.3643523 L93.3,86.7643523 L93.6,87.6143523 L93.85,88.4643523 C94.65,90.6643523 95.6333333,92.6476857 96.8,94.4143523 C97.9666667,96.2476857 99.7,97.1476857 102,97.1143523 C104.466667,97.0476857 106.233333,95.981019 107.3,93.9143523 C108.333333,91.8476857 109.1,89.5476857 109.6,87.0143523 L109.7,86.3143523 L109.85,85.5143523 L110,84.6143523 L110,83.6643523 C110,81.3643523 109.25,79.381019 107.75,77.7143523 C106.216667,76.0476857 103.883333,75.1976857 100.75,75.1643523 M102.95,60.2143523 L103.4,60.2143523 C111.1,60.2476857 116.85,62.4476857 120.65,66.8143523 C124.45,71.181019 126.316667,76.2476857 126.25,82.0143523 L126.2,83.9643523 L126,85.9643523 C124.966667,92.8976857 122.333333,98.9643523 118.1,104.164352 C113.833333,109.397686 108.183333,111.997686 101.15,111.964669 C94.2166667,111.897686 88.65,109.264352 84.45,104.064352 C80.2833333,98.8976857 77.7166667,92.8643523 76.75,85.9643523 L76.75,85.8643523 L76.45,83.3643523 L76.4,80.9143523 C76.4,75.0476857 78.3,70.2643523 82.1,66.5643523 C85.9333333,62.831019 92.4166667,60.731019 101.55,60.2643523 L102.05,60.2643523 L102.45,60.2143523 L102.95,60.2143523 M62.05,61.4643523 L79.7,61.4643523 L66.15,111.114352 L47.25,111.114352 L37.75,76.3643523 L16.85,76.3643523 L16.85,79.1143523 L35.4,79.1143523 L31,93.4143523 L16.85,93.4143523 L16.85,96.2143523 L39.2,96.2143523 L35,111.114352 L2.27373675e-13,111.114352 L2.27373675e-13,61.4643523 L51.35,61.4643523 L55.6,84.4143523 L56.65,93.8643523 L57.75,84.4143523 L62.05,61.4643523" id="Shape" fill="#000000"></path>
            <path d="M242.4,14.2143523 L224.25,14.2143523 L224.25,1.41435233 L242.4,1.41435233 L242.4,14.2143523 Z M203.35,41.2643523 L223.75,41.2643523 L219.1,58.1143523 L184.05,58.1143523 L184.05,1.96435233 L203.35,1.96435233 L203.35,41.2643523 Z M247.8,15.2143523 L247.8,14.5643523 L247.85,13.9143523 L247.9,13.2143523 L248.05,12.5643523 C248.616667,9.09768566 249.916667,6.46435233 251.95,4.66435233 C253.983333,2.931019 256.783333,2.06435233 260.35,2.06435233 L272.55,1.96435233 L275.95,16.0143523 L268.25,16.0643523 L267.25,16.4143523 L266.55,16.9643523 L266.45,17.1143523 L266.3,17.2643523 L266.15,17.5143523 L266.1,17.7143523 L266,18.2643523 L270.8,18.2643523 L270.8,30.2643523 C271.2,25.8643523 272.75,22.4476857 275.45,20.0143523 C278.583333,17.181019 283.066667,15.6143523 288.9,15.3143523 L291.35,15.2143523 L293.7,15.1643523 C300.733333,15.1976857 305.666667,16.1976857 308.5,18.1643523 C311.3,20.131019 312.7,23.181019 312.7,27.3143523 L312.7,28.2643523 L312.6,29.2643523 C312.5,30.9643523 311.933333,32.881019 310.9,35.0143523 C309.833333,37.1143523 308.25,39.281019 306.15,41.5143523 L306.15,41.4143523 L305.7,41.9143523 L305.35,42.2643523 L304.95,42.6643523 L304.55,43.0143523 L310.5,43.0143523 L306.45,58.0143523 L298.15,58.0143523 C290.116667,57.8143523 284.016667,56.3143523 279.85,53.5143523 L279.3,53.1143523 C275.2,50.081019 272.566667,45.5643523 271.4,39.5643523 L270.9,35.9143523 L270.7,32.6143523 L270.75,31.1143523 L265.8,31.1143523 L265.8,58.0143523 L258.3,58.0143523 L258.3,58.1143523 L257.1,58.1143523 L257.05,58.0143523 L247.6,58.0643523 L247.6,31.1143523 L244.7,31.1143523 L244.7,18.8143523 L247.8,18.8143523 L247.8,15.2143523 Z M242.4,58.1143523 L224.25,58.1143523 L224.25,16.0143523 L242.4,16.0143523 L242.4,58.1143523 Z M292.15,30.1143523 L292.05,30.0643523 L291.95,30.1143523 L291.6,30.1643523 L291.3,30.2143523 C290.7,30.4143523 290.116667,30.7976857 289.55,31.3643523 C288.983333,31.931019 288.533333,32.5643523 288.2,33.2643523 L288.05,33.9143523 L287.95,34.7143523 L287.95,35.1643523 L288.05,35.5643523 L288.25,36.6643523 C288.316667,37.031019 288.433333,37.3643523 288.6,37.6643523 L288.95,38.7143523 L289.15,39.1643523 C289.383333,39.2643523 289.733333,39.1976857 290.2,38.9643523 C290.733333,38.731019 291.283333,38.4143523 291.85,38.0143523 L293.05,36.9143523 L294.1,35.7143523 L294.8,34.1643523 L295,32.9643523 C295,32.1643523 294.75,31.5143523 294.25,31.0143523 C293.683333,30.581019 293.033333,30.281019 292.3,30.1143523 L292.15,30.1143523 Z M334.95,18.9643523 L334.05,18.8143523 L317.95,18.8143523 L322.3,1.96435233 L342.25,1.96435233 L345,2.11435233 L347.25,2.36435233 C350.216667,2.731019 352.65,3.99768566 354.55,6.16435233 C356.483333,8.36435233 357.45,10.9476857 357.45,13.9143523 L357.15,16.4643523 L356.35,19.2143523 L355,21.8143523 C354.466667,22.781019 353.8,23.7643523 353,24.7643523 L352.3,25.7143523 L351.4,26.7143523 L349.65,28.5643523 L352.2,30.5143523 L354.35,32.6643523 L356.7,35.9643523 C357.333333,37.031019 357.833333,38.1143523 358.2,39.2143523 L358.75,41.3643523 L358.9,43.5143523 L358.8,45.3143523 L358.4,47.2643523 C357.933333,49.5976857 357.083333,51.5476857 355.85,53.1143523 C355.15,53.9476857 354.366667,54.681019 353.5,55.3143523 C351.466667,56.8143523 348.783333,57.7143523 345.45,58.0143523 L321.1,58.0143523 L316.9,41.2643523 L335.4,41.2643523 L335.95,41.2143523 L336.3,41.2643523 L336.75,41.1143523 C337.583333,40.8476857 338.166667,40.5476857 338.5,40.2143523 C338.9,39.881019 339.1,39.4476857 339.1,38.9143523 L339.05,38.5643523 L338.95,38.1643523 L337.7,36.4143523 L334.15,33.2643523 L333.95,33.2143523 L333.95,33.1143523 L332.2,31.7643523 L329.55,29.8143523 L329.2,29.5143523 L328.8,29.2643523 L328.4,29.0143523 L328.05,28.7643523 L334.95,23.7143523 C335.783333,23.181019 336.383333,22.681019 336.75,22.2143523 C337.116667,21.781019 337.3,21.3476857 337.3,20.9143523 L337.2,20.5643523 L337.05,20.1643523 L336.75,19.7643523 L336.4,19.4143523 L335.85,19.1143523 L334.95,18.9643523 Z M358.2,110.864352 L341.35,110.864352 L341.35,97.5143523 L329.6,82.4643523 L331.45,88.2143523 L331.35,105.564352 L331.45,108.464352 C331.483333,109.097686 331.616667,109.631019 331.85,110.064352 L332.1,110.564352 L332.3,110.864352 L315,110.864352 L315,110.014352 L315,61.4643523 L331.85,61.4643523 L341.55,74.2643523 L341.55,61.4643523 L358.2,61.4643523 L358.2,110.864352 Z M313.7,83.9643523 L313.5,85.9643523 C312.466667,92.8976857 309.833333,98.9643523 305.6,104.164352 C302.933333,107.431019 299.75,109.664352 296.05,110.864352 L294,110.864352 L294,111.414352 L288.65,111.964352 C281.716667,111.897686 276.15,109.264352 271.95,104.064352 C267.783333,98.8976857 265.216667,92.8643523 264.25,85.9643523 L264.25,85.8643523 L263.95,83.3643523 L263.9,80.9143523 C263.9,75.0476857 265.8,70.2643523 269.6,66.5643523 C273.433333,62.831019 279.916667,60.731019 289.05,60.2643523 L289.55,60.2643523 L289.95,60.2143523 L290.45,60.2143523 L290.9,60.2143523 C298.6,60.2476857 304.35,62.4476857 308.15,66.8143523 C311.95,71.181019 313.816667,76.2476857 313.75,82.0143523 L313.7,83.9643523 Z M280.3,83.7143523 L280.3,83.8143523 L280.3,83.9143523 L280.45,85.3643523 L280.8,86.7643523 L281.1,87.6143523 L281.35,88.4643523 C282.15,90.6643523 283.133333,92.6476857 284.3,94.4143523 C285.466667,96.2476857 287.2,97.1476857 289.5,97.1143523 C291.966667,97.0476857 293.733333,95.981019 294.8,93.9143523 C295.833333,91.8476857 296.6,89.5476857 297.1,87.0143523 L297.2,86.3143523 L297.35,85.5143523 L297.5,84.6143523 L297.5,83.6643523 C297.5,81.3643523 296.75,79.381019 295.25,77.7143523 C293.716667,76.0476857 291.383333,75.1976857 288.25,75.1643523 L288.25,75.1143523 L288.15,75.1643523 L288.05,75.1643523 C285.783333,75.1643523 283.95,76.0643523 282.55,77.8643523 C281.083333,79.6643523 280.333333,81.6143523 280.3,83.7143523 Z M245.7,111.114352 L245.7,76.3643523 L234.5,76.3643523 L234.5,111.114352 L217.5,111.114352 L217.5,76.3643523 L206.6,76.3643523 L206.6,111.114352 L179.1,111.114352 C174.133333,111.114352 169.983333,109.414352 166.65,106.014352 C164.316667,103.614352 162.816667,100.381019 162.15,96.3143523 L158.1,111.114352 L127.5,111.114352 L127.5,61.4643523 L144.35,61.4643523 L144.35,96.2143523 L162.1,96.2143523 C161.833333,94.5476857 161.7,92.7476857 161.7,90.8143523 C161.7,88.0476857 162.033333,85.0143523 162.7,81.7143523 C163.4,78.3476857 164.466667,74.731019 165.9,70.8643523 L165.9,70.8143523 L167.95,66.0143523 L170.1,61.5143523 L188.3,61.4643523 C187.6,62.631019 186.95,63.8143523 186.35,65.0143523 L184.6,68.5143523 L183,72.1143523 L181.65,75.6143523 C180.416667,79.0143523 179.533333,81.881019 179,84.2143523 C178.4,86.6143523 178.1,88.6143523 178.1,90.2143523 C178.1,92.5476857 178.716667,94.1476857 179.95,95.0143523 C181.216667,95.881019 183,96.3143523 185.3,96.3143523 L189.7,96.2143523 L189.7,61.4643523 L206.6,61.4643523 L206.6,75.4143523 L210.2,61.4643523 L241.8,61.4643523 L245.7,76.3643523 L245.7,61.4643523 L262.6,61.4643523 L262.6,111.114352 L245.7,111.114352 Z M24.8,58.0143523 L3.25,58.0143523 M100,58.1143523 L76.45,58.1143523 M157.7,58.0143523 L139.55,58.0143523 M133,58.0143523 L125.55,58.0143523 M182.9,58.1143523 L171.2,58.1143523 L168.55,58.0143523 L163.45,58.0143523 M100.75,75.1143523 L100.65,75.1643523 L100.55,75.1643523 C98.2833333,75.1643523 96.45,76.0643523 95.05,77.8643523 C93.5833333,79.6643523 92.8333333,81.6143523 92.8,83.7143523 L92.8,83.8143523 L92.8,83.9143523 L92.95,85.3643523 L93.3,86.7643523 L93.6,87.6143523 L93.85,88.4643523 C94.65,90.6643523 95.6333333,92.6476857 96.8,94.4143523 C97.9666667,96.2476857 99.7,97.1476857 102,97.1143523 C104.466667,97.0476857 106.233333,95.981019 107.3,93.9143523 C108.333333,91.8476857 109.1,89.5476857 109.6,87.0143523 L109.7,86.3143523 L109.85,85.5143523 L110,84.6143523 L110,83.6643523 C110,81.3643523 109.25,79.381019 107.75,77.7143523 C106.216667,76.0476857 103.883333,75.1976857 100.75,75.1643523 L100.75,75.1143523 Z M103.4,60.2143523 C111.1,60.2476857 116.85,62.4476857 120.65,66.8143523 C124.45,71.181019 126.316667,76.2476857 126.25,82.0143523 L126.2,83.9643523 L126,85.9643523 C124.966667,92.8976857 122.333333,98.9643523 118.1,104.164352 C113.833333,109.397686 108.183333,111.997686 101.15,111.964352 C94.2166667,111.897686 88.65,109.264352 84.45,104.064352 C80.2833333,98.8976857 77.7166667,92.8643523 76.75,85.9643523 L76.75,85.8643523 L76.45,83.3643523 L76.4,80.9143523 C76.4,75.0476857 78.3,70.2643523 82.1,66.5643523 C85.9333333,62.831019 92.4166667,60.731019 101.55,60.2643523 L102.05,60.2643523 L102.45,60.2143523 L102.95,60.2143523 L103.4,60.2143523 Z M62.05,61.4643523 L79.7,61.4643523 L66.15,111.114352 L47.25,111.114352 L37.75,76.3643523 L16.85,76.3643523 L16.85,79.1143523 L35.4,79.1143523 L31,93.4143523 L16.85,93.4143523 L16.85,96.2143523 L39.2,96.2143523 L35,111.114352 L2.27373675e-13,111.114352 L2.27373675e-13,61.4643523 L51.35,61.4643523 L55.6,84.4143523 L56.65,93.8643523 L57.75,84.4143523 L62.05,61.4643523 Z" id="Shape" stroke="#000000" stroke-width="6" stroke-linecap="round" stroke-linejoin="round"></path>
            <path d="M358.2,61.4643523 L358.2,110.864352 L341.35,110.864352 L341.35,97.5143523 L329.6,82.4643523 L331.45,88.2143523 L331.35,105.564352 L331.45,108.464352 C331.483333,109.097686 331.616667,109.631019 331.85,110.064352 L332.1,110.564352 L332.3,110.864352 L315,110.864352 L315,110.014352 L315,61.4643523 L331.85,61.4643523 L341.55,74.2643523 L341.55,61.4643523 L358.2,61.4643523" id="Path" fill="url(#linearGradient-1)"></path>
            <path d="M124.512304,1.25 L124.512304,57.5700906 L106.468536,57.5700906 L106.468536,42.3499852 L93.8860868,25.1917389 L95.8671533,31.7472151 L95.7600686,51.5276517 L95.8671533,54.8338919 C95.9028482,55.5559443 96.0456278,56.1639885 96.295492,56.6580244 L96.5632037,57.2280658 L96.7773731,57.5700906 L78.2517241,57.5700906 L78.2517241,56.6010202 L78.2517241,1.25 L96.295492,1.25 L106.682706,15.8430599 L106.682706,1.25 L124.512304,1.25" id="Path-Copy-12" fill="url(#linearGradient-2)"></path>
            <path d="M124.640109,0.00645360909 C125.270429,0.0704661011 125.762304,0.602791309 125.762304,1.25 L125.762304,58.8200906 L105.218536,58.8200906 L105.217724,42.759 L97.1167241,31.711 L97.117135,31.753982 L97.0094135,51.4871871 L97.1156287,54.7721731 C97.1431771,55.3294339 97.2461862,55.768111 97.4269303,56.1266607 L97.6617241,56.627 L97.8368084,56.9066927 L99.0349412,58.8200906 L77.0017241,58.8200906 L77.0017241,0 L96.9400722,0 L97.3138589,0.525135273 L105.431724,11.93 L105.432706,0 L124.512304,0 L124.640109,0.00645360909 Z M95.6507241,2.5 L79.5017241,2.5 L79.5017241,56.32 L94.8377241,56.32 L94.7900768,56.1404369 C94.7202535,55.8474464 94.6708392,55.5371741 94.6410647,55.2087978 L94.6178084,54.8743565 L94.510087,51.5208848 L94.6157241,31.929 L92.689531,25.5533384 L90.5783507,18.5673075 L94.8941005,24.4525444 L107.47655,41.6107907 L107.718536,41.940779 L107.717724,56.32 L123.261724,56.32 L123.261724,2.5 L107.931724,2.5 L107.932706,19.7547672 L105.664339,16.5679246 L95.6507241,2.5 Z" id="Path-Copy-12" fill="#000000" fill-rule="nonzero"></path>
            <path d="M313.75,82.0143523 L313.7,83.9643523 L313.5,85.9643523 C312.466667,92.8976857 309.833333,98.9643523 305.6,104.164352 C302.933333,107.431019 299.75,109.664352 296.05,110.864352 L294,110.864352 L294,111.414352 L288.65,111.964352 C281.716667,111.897686 276.15,109.264352 271.95,104.064352 C267.783333,98.8976857 265.216667,92.8643523 264.25,85.9643523 L264.25,85.8643523 L263.95,83.3643523 L263.9,80.9143523 C263.9,75.0476857 265.8,70.2643523 269.6,66.5643523 C273.433333,62.831019 279.916667,60.731019 289.05,60.2643523 L289.55,60.2643523 L289.95,60.2143523 L290.45,60.2143523 L290.9,60.2143523 C298.6,60.2476857 304.35,62.4476857 308.15,66.8143523 C311.95,71.181019 313.816667,76.2476857 313.75,82.0143523 M288.15,75.1643523 L288.05,75.1643523 C285.783333,75.1643523 283.95,76.0643523 282.55,77.8643523 C281.083333,79.6643523 280.333333,81.6143523 280.3,83.7143523 L280.3,83.8143523 L280.3,83.9143523 L280.45,85.3643523 L280.8,86.7643523 L281.1,87.6143523 L281.35,88.4643523 C282.15,90.6643523 283.133333,92.6476857 284.3,94.4143523 C285.466667,96.2476857 287.2,97.1476857 289.5,97.1143523 C291.966667,97.0476857 293.733333,95.981019 294.8,93.9143523 C295.833333,91.8476857 296.6,89.5476857 297.1,87.0143523 L297.2,86.3143523 L297.35,85.5143523 L297.5,84.6143523 L297.5,83.6643523 C297.5,81.3643523 296.75,79.381019 295.25,77.7143523 C293.716667,76.0476857 291.383333,75.1976857 288.25,75.1643523 L288.25,75.1143523 L288.15,75.1643523" id="Shape" fill="url(#linearGradient-3)"></path>
            <polyline id="Path" fill="url(#linearGradient-4)" points="245.7 76.3643523 245.7 61.4643523 262.6 61.4643523 262.6 111.114352 245.7 111.114352 245.7 76.3643523"></polyline>
            <path d="M245.7,76.3643523 L234.5,76.3643523 L234.5,111.114352 L217.5,111.114352 L217.5,76.3643523 L206.6,76.3643523 L206.6,111.114352 L179.1,111.114352 C174.133333,111.114352 169.983333,109.414352 166.65,106.014352 C164.316667,103.614352 162.816667,100.381019 162.15,96.3143523 L158.1,111.114352 L127.5,111.114352 L127.5,61.4643523 L144.35,61.4643523 L144.35,96.2143523 L162.1,96.2143523 C161.833333,94.5476857 161.7,92.7476857 161.7,90.8143523 C161.7,88.0476857 162.033333,85.0143523 162.7,81.7143523 C163.4,78.3476857 164.466667,74.731019 165.9,70.8643523 L165.9,70.8143523 L167.95,66.0143523 L170.1,61.5143523 L188.3,61.4643523 C187.6,62.631019 186.95,63.8143523 186.35,65.0143523 L184.6,68.5143523 L183,72.1143523 L181.65,75.6143523 C180.416667,79.0143523 179.533333,81.881019 179,84.2143523 C178.4,86.6143523 178.1,88.6143523 178.1,90.2143523 C178.1,92.5476857 178.716667,94.1476857 179.95,95.0143523 C181.216667,95.881019 183,96.3143523 185.3,96.3143523 L189.7,96.2143523 L189.7,61.4643523 L206.6,61.4643523 L206.6,75.4143523 L210.2,61.4643523 L241.8,61.4643523 L245.7,76.3643523" id="Path" fill="url(#linearGradient-5)"></path>
            <path d="M103.4,60.2143523 C111.1,60.2476857 116.85,62.4476857 120.65,66.8143523 C124.45,71.181019 126.316667,76.2476857 126.25,82.0143523 L126.2,83.9643523 L126,85.9643523 C124.966667,92.8976857 122.333333,98.9643523 118.1,104.164352 C113.833333,109.397686 108.183333,111.997686 101.15,111.964669 C94.2166667,111.897686 88.65,109.264352 84.45,104.064352 C80.2833333,98.8976857 77.7166667,92.8643523 76.75,85.9643523 L76.75,85.8643523 L76.45,83.3643523 L76.4,80.9143523 C76.4,75.0476857 78.3,70.2643523 82.1,66.5643523 C85.9333333,62.831019 92.4166667,60.731019 101.55,60.2643523 L102.05,60.2643523 L102.45,60.2143523 L102.95,60.2143523 L103.4,60.2143523 M100.75,75.1643523 L100.75,75.1143523 L100.65,75.1643523 L100.55,75.1643523 C98.2833333,75.1643523 96.45,76.0643523 95.05,77.8643523 C93.5833333,79.6643523 92.8333333,81.6143523 92.8,83.7143523 L92.8,83.8143523 L92.8,83.9143523 L92.95,85.3643523 L93.3,86.7643523 L93.6,87.6143523 L93.85,88.4643523 C94.65,90.6643523 95.6333333,92.6476857 96.8,94.4143523 C97.9666667,96.2476857 99.7,97.1476857 102,97.1143523 C104.466667,97.0476857 106.233333,95.981019 107.3,93.9143523 C108.333333,91.8476857 109.1,89.5476857 109.6,87.0143523 L109.7,86.3143523 L109.85,85.5143523 L110,84.6143523 L110,83.6643523 C110,81.3643523 109.25,79.381019 107.75,77.7143523 C106.216667,76.0476857 103.883333,75.1976857 100.75,75.1643523" id="Shape" fill="url(#linearGradient-6)"></path>
            <path d="M156.055126,1.41435233 C164.241402,1.45235532 170.354531,3.96055254 174.394511,8.938944 C178.434492,13.9173355 180.419044,19.6937897 180.348167,26.2683066 L180.295009,28.4914814 L180.082379,30.7716607 C178.983788,38.6762823 176.184152,45.5928261 171.683472,51.5212923 C167.147353,57.4877614 161.14054,60.4519945 153.663032,60.4143523 C146.291839,60.3379856 140.373622,57.3357495 135.90838,51.4072833 C131.478577,45.5168202 128.749818,38.6382793 127.722103,30.7716607 L127.722103,30.6576518 L127.403158,27.8074276 L127.35,25.014208 C127.35,18.3256821 129.36999,12.8722533 133.409971,8.65392159 C137.48539,4.39758691 144.378164,2.00339865 154.088293,1.47135681 L154.619869,1.47135681 L155.04513,1.41435233 L155.576707,1.41435233 L156.055126,1.41435233 M152.669767,18.4711682 L152.669767,18.4143523 L152.565116,18.4711682 L152.460465,18.4711682 C150.088372,18.4711682 148.169767,19.493854 146.704651,21.5392255 C145.169767,23.584597 144.384884,25.8004162 144.35,28.186683 L144.35,28.3003148 L144.35,28.4139465 L144.506977,30.0616069 L144.873256,31.6524514 L145.187209,32.6183213 L145.448837,33.5841912 C146.286047,36.0840898 147.315116,38.3377862 148.536047,40.3452805 C149.756977,42.4285292 151.57093,43.451215 153.977907,43.4133378 C156.559302,43.3375833 158.40814,42.1255112 159.524419,39.7771217 C160.605814,37.4287322 161.40814,34.8152019 161.931395,31.9365308 L162.036047,31.1411085 L162.193023,30.2320545 L162.35,29.2093688 L162.35,28.1298671 C162.35,25.5163368 161.565116,23.2626404 159.995349,21.3687779 C158.390698,19.4749153 155.948837,18.5090455 152.669767,18.4711682" id="Shape-Copy" fill="url(#linearGradient-7)"></path>
            <path d="M156.055126,0.16435233 L156.076,0.16535233 L156.581091,0.170060849 C164.689825,0.310489752 170.895065,2.85775452 175.099479,7.83057761 L175.365127,8.15128614 C179.590044,13.3575715 181.672092,19.4178066 181.59781,26.2981864 L181.53961,28.6075425 L181.320479,30.9437329 C180.192923,39.0567604 177.311714,46.1748311 172.678546,52.2778157 C167.90492,58.5566833 161.52738,61.7039577 153.650082,61.6646557 C145.890051,61.5838901 139.608066,58.3970233 134.909354,52.1585805 C130.347291,46.0922471 127.537777,39.0101407 126.482636,30.9335878 L126.472103,30.7716607 L126.473,30.7333523 L126.160911,27.9464375 L126.153384,27.831212 L126.1,25.014208 C126.1,18.0147847 128.235435,12.2496868 132.507108,7.78943452 C136.837779,3.26651614 144.022191,0.771028321 154.088293,0.221356812 L154.535,0.22235233 L154.879058,0.1754334 L155.04513,0.16435233 L156.055126,0.16435233 Z M156.069,2.66335233 L156.055126,2.66435233 L155.121,2.66435233 L154.785941,2.71027574 L154.619869,2.72135681 L154.156681,2.71948464 C144.734137,3.23576897 138.133001,5.52865767 134.312733,9.51851462 C130.504546,13.4948198 128.599774,18.6365795 128.599774,24.9904236 L128.651,27.7203523 L128.96435,30.5186419 L128.972103,30.6576518 L128.972,30.6883523 L129.057045,31.303092 C130.09052,38.439861 132.578074,44.7108606 136.520758,50.1331589 L136.906851,50.6552485 C141.139068,56.2743297 146.693445,59.0920792 153.669324,59.1647068 C160.75388,59.2000322 166.389895,56.4186953 170.687868,50.7654657 C175.056589,45.0108212 177.774652,38.2958041 178.837779,30.6555997 L179.045367,28.4616016 L179.09824,26.2548317 C179.165996,19.9697727 177.27894,14.4770994 173.423895,9.72660186 C169.638449,5.06186775 163.883689,2.70070818 156.049323,2.66433886 L156.069,2.66335233 Z M153.919767,16.3133807 L153.919,17.2793523 L154.183415,17.3042348 C156.95856,17.5882479 159.165365,18.5921325 160.754027,20.339015 L160.957734,20.5710847 C162.71656,22.6930389 163.6,25.2297269 163.6,28.1298671 L163.6,29.2093688 L163.58553,29.3990159 L163.424793,30.4447583 L163.275366,31.3041619 L163.161243,32.1600802 C162.619753,35.1390677 161.786601,37.8530142 160.653368,40.3137541 C159.336077,43.0850251 157.066007,44.5732515 153.997575,44.663183 C151.139525,44.7081586 148.906214,43.449044 147.468057,40.9948171 C146.197257,38.9053256 145.129516,36.5669372 144.242316,33.911005 L143.998433,33.0047299 L143.68448,32.03886 L143.655126,31.9329159 L143.288847,30.3420714 L143.262611,30.1801607 L143.105635,28.5325003 L143.1,28.4139465 L143.1,28.1684118 C143.138955,25.5127627 144.014159,23.0419592 145.688457,20.8113176 C147.384336,18.4437909 149.678031,17.2211682 152.460465,17.2211682 L152.241,17.2243523 L153.919767,16.3133807 Z M152.655329,19.7210848 L152.460465,19.7210848 C150.498713,19.7210848 148.955199,20.5439171 147.704451,22.289493 C146.325376,24.1272349 145.630812,26.0880697 145.6,28.186683 L145.6,28.3583523 L145.743,29.8583523 L146.078,31.3153523 L146.39373,32.2915076 L146.634134,33.1872385 C147.442577,35.6012423 148.432976,37.7702467 149.614483,39.7132407 C150.60774,41.4080145 152.002336,42.1942715 153.94124,42.1638757 C156.052598,42.101915 157.480202,41.1659974 158.389014,39.2542864 C159.425027,37.0044501 160.196526,34.491336 160.692076,31.7734775 L160.804277,30.9284048 L160.957493,30.0424074 L161.1,29.1103523 L161.1,28.1298671 C161.1,25.9254162 160.484016,24.0406713 159.252587,22.440843 L159.041651,22.1768371 C157.692134,20.5840925 155.596207,19.7550555 152.655329,19.7210848 Z" id="Shape-Copy" fill="#000000" fill-rule="nonzero"></path>
            <polyline id="Path" fill="url(#linearGradient-8)" points="62.05 61.4643523 79.7 61.4643523 66.15 111.114352 47.25 111.114352 37.75 76.3643523 16.85 76.3643523 16.85 79.1143523 35.4 79.1143523 31 93.4143523 16.85 93.4143523 16.85 96.2143523 39.2 96.2143523 35 111.114352 2.27373675e-13 111.114352 2.27373675e-13 61.4643523 51.35 61.4643523 55.6 84.4143523 56.65 93.8643523 57.75 84.4143523 62.05 61.4643523"></polyline>
            <polyline id="Path" fill="url(#linearGradient-9)" points="242.4 1.41435233 242.4 14.2143523 224.25 14.2143523 224.25 1.41435233 242.4 1.41435233"></polyline>
            <polyline id="Path" fill="url(#linearGradient-10)" points="203.35 1.96435233 203.35 41.2643523 223.75 41.2643523 219.1 58.1143523 184.05 58.1143523 184.05 1.96435233 203.35 1.96435233"></polyline>
            <path d="M244.7,18.8143523 L247.8,18.8143523 L247.8,15.2143523 L247.8,14.5643523 L247.85,13.9143523 L247.9,13.2143523 L248.05,12.5643523 C248.616667,9.09768566 249.916667,6.46435233 251.95,4.66435233 C253.983333,2.931019 256.783333,2.06435233 260.35,2.06435233 L272.55,1.96435233 L275.95,16.0143523 L268.25,16.0643523 L267.25,16.4143523 L266.55,16.9643523 L266.45,17.1143523 L266.3,17.2643523 L266.15,17.5143523 L266.1,17.7143523 L266,18.2643523 L270.8,18.2643523 L270.8,30.2643523 C271.2,25.8643523 272.75,22.4476857 275.45,20.0143523 C278.583333,17.181019 283.066667,15.6143523 288.9,15.3143523 L291.35,15.2143523 L293.7,15.1643523 C300.733333,15.1976857 305.666667,16.1976857 308.5,18.1643523 C311.3,20.131019 312.7,23.181019 312.7,27.3143523 L312.7,28.2643523 L312.6,29.2643523 C312.5,30.9643523 311.933333,32.881019 310.9,35.0143523 C309.833333,37.1143523 308.25,39.281019 306.15,41.5143523 L306.15,41.4143523 L305.7,41.9143523 L305.35,42.2643523 L304.95,42.6643523 L304.55,43.0143523 L310.5,43.0143523 L306.45,58.0143523 L298.15,58.0143523 C290.116667,57.8143523 284.016667,56.3143523 279.85,53.5143523 L279.3,53.1143523 C275.2,50.081019 272.566667,45.5643523 271.4,39.5643523 L270.9,35.9143523 L270.7,32.6143523 L270.75,31.1143523 L265.8,31.1143523 L265.8,58.0143523 L258.3,58.0143523 L258.3,58.1143523 L257.1,58.1143523 L257.05,58.0143523 L247.6,58.0643523 L247.6,31.1143523 L244.7,31.1143523 L244.7,18.8143523 M291.6,30.1643523 L291.3,30.2143523 C290.7,30.4143523 290.116667,30.7976857 289.55,31.3643523 C288.983333,31.931019 288.533333,32.5643523 288.2,33.2643523 L288.05,33.9143523 L287.95,34.7143523 L287.95,35.1643523 L288.05,35.5643523 L288.25,36.6643523 C288.316667,37.031019 288.433333,37.3643523 288.6,37.6643523 L288.95,38.7143523 L289.15,39.1643523 C289.383333,39.2643523 289.733333,39.1976857 290.2,38.9643523 C290.733333,38.731019 291.283333,38.4143523 291.85,38.0143523 L293.05,36.9143523 L294.1,35.7143523 L294.8,34.1643523 L295,32.9643523 C295,32.1643523 294.75,31.5143523 294.25,31.0143523 C293.683333,30.581019 293.033333,30.281019 292.3,30.1143523 L292.15,30.1143523 L292.05,30.0643523 L291.95,30.1143523 L291.6,30.1643523" id="Shape" fill="url(#linearGradient-11)"></path>
            <polyline id="Path" fill="url(#linearGradient-12)" points="242.4 16.0143523 242.4 58.1143523 224.25 58.1143523 224.25 16.0143523 242.4 16.0143523"></polyline>
            <path d="M335.85,19.1143523 L334.95,18.9643523 L334.05,18.8143523 L317.95,18.8143523 L322.3,1.96435233 L342.25,1.96435233 L345,2.11435233 L347.25,2.36435233 C350.216667,2.731019 352.65,3.99768566 354.55,6.16435233 C356.483333,8.36435233 357.45,10.9476857 357.45,13.9143523 L357.15,16.4643523 L356.35,19.2143523 L355,21.8143523 C354.466667,22.781019 353.8,23.7643523 353,24.7643523 L352.3,25.7143523 L351.4,26.7143523 L349.65,28.5643523 L352.2,30.5143523 L354.35,32.6643523 L356.7,35.9643523 C357.333333,37.031019 357.833333,38.1143523 358.2,39.2143523 L358.75,41.3643523 L358.9,43.5143523 L358.8,45.3143523 L358.4,47.2643523 C357.933333,49.5976857 357.083333,51.5476857 355.85,53.1143523 C355.15,53.9476857 354.366667,54.681019 353.5,55.3143523 C351.466667,56.8143523 348.783333,57.7143523 345.45,58.0143523 L321.1,58.0143523 L316.9,41.2643523 L335.4,41.2643523 L335.95,41.2143523 L336.3,41.2643523 L336.75,41.1143523 C337.583333,40.8476857 338.166667,40.5476857 338.5,40.2143523 C338.9,39.881019 339.1,39.4476857 339.1,38.9143523 L339.05,38.5643523 L338.95,38.1643523 L337.7,36.4143523 L334.15,33.2643523 L333.95,33.2143523 L333.95,33.1143523 L332.2,31.7643523 L329.55,29.8143523 L329.2,29.5143523 L328.8,29.2643523 L328.4,29.0143523 L328.05,28.7643523 L334.95,23.7143523 C335.783333,23.181019 336.383333,22.681019 336.75,22.2143523 C337.116667,21.781019 337.3,21.3476857 337.3,20.9143523 L337.2,20.5643523 L337.05,20.1643523 L336.75,19.7643523 L336.4,19.4143523 L335.85,19.1143523" id="Path" fill="url(#linearGradient-13)"></path>
            <polyline id="Path" fill="#000000" points="134.95 56.2143523 137.05 56.1643523 136.2 56.2143523 134.95 56.2143523"></polyline>
        </g>
    </g>
</svg>