<?xml version="1.0" encoding="UTF-8"?>
<svg width="302px" height="162px" viewBox="0 0 302 162" version="1.1" xmlns="http://www.w3.org/2000/svg" xmlns:xlink="http://www.w3.org/1999/xlink">
    <title>14</title>
    <g id="Page-1" stroke="none" stroke-width="1" fill="none" fill-rule="evenodd">
        <g id="14" transform="translate(1, 5)">
            <path d="M210.5,15.9 C212.333333,13.3666667 214.533333,10.8 217.1,8.2 L227.1,3.8 L238.85,2.75 C242.15,2.25 245.5,1.33333333 248.9,0 L259.9,4 C263.366667,5 266.783333,6.38333333 270.15,8.15 L279.45,12.95 C281.316667,15.65 283.616667,18.3833333 286.35,21.15 L289.9,27.4 L293.1,44.65 L287.25,65.35 L280.6,76.3 C278.533333,79.7 276.05,82.45 273.15,84.55 C271.35,87.45 269.15,90.3333333 266.55,93.2 L233.1,120.4 L257.65,117.7 C261.15,116.266667 265.05,115.983333 269.35,116.85 L281.05,115.75 C284.45,115.883333 288.116667,116.4 292.05,117.3 C292.516667,118.966667 292.916667,121.7 293.25,125.5 L295.05,133.05 L293.4,135.5 C293.466667,138.5 292.983333,141.633333 291.95,144.9 L285.95,145.8 L286.8,144.15 L284.3,144.2 L284.35,145.05 L270.9,146.05 L262.5,147 C261.333333,146.966667 260.466667,146.45 259.9,145.45 L239.85,150.85 L232.3,151.8 L229.75,150.1 L219.65,149.6 L213.8,151.3 L211.2,148.8 C208.4,148.733333 205.3,148.233333 201.9,147.3 C200.533333,145.5 199.366667,143.266667 198.4,140.6 L197.45,129.8 C196.85,126.366667 195.683333,123.816667 193.95,122.15 L196.4,117.9 L203.9,112.75 C205.666667,109.883333 207.816667,107.083333 210.35,104.35 C212.483333,101.883333 214.983333,99.5833333 217.85,97.45 C220.15,96.05 222.066667,94.0166667 223.6,91.35 L242.85,77.5 L251.1,69.6 C261.333333,58.7 264.716667,49.5333333 261.25,42.1 L256.3,36.05 C254.2,33.85 251.633333,31.6833333 248.6,29.55 L240.15,28.75 L237.7,29.75 C235.2,31.65 232.133333,33.4833333 228.5,35.25 L223.15,45.8 C221.783333,49.8333333 220.9,54.0833333 220.5,58.55 L218.05,62.9 L216.3,62.95 L207.05,60.55 L203.7,61.5 L201.2,63.2 C201.066667,64 200.55,64.6 199.65,65 L200.35,63.2 L199.6,63.25 L196.1,55.7 L196.65,43.1 C197.05,39.8666667 197.866667,36.4666667 199.1,32.9 L203,22.65 L210.5,15.9" id="Shape" fill="#000000"></path>
            <path d="M210.5,15.9 C212.333333,13.3666667 214.533333,10.8 217.1,8.2 L227.1,3.8 L238.85,2.75 C242.15,2.25 245.5,1.33333333 248.9,0 L259.9,4 C263.366667,5 266.783333,6.38333333 270.15,8.15 L279.45,12.95 C281.316667,15.65 283.616667,18.3833333 286.35,21.15 L289.9,27.4 L293.1,44.65 L287.25,65.35 L280.6,76.3 C278.533333,79.7 276.05,82.45 273.15,84.55 C271.35,87.45 269.15,90.3333333 266.55,93.2 L233.1,120.4 L257.65,117.7 C261.15,116.266667 265.05,115.983333 269.35,116.85 L281.05,115.75 C284.45,115.883333 288.116667,116.4 292.05,117.3 C292.516667,118.966667 292.916667,121.7 293.25,125.5 L295.05,133.05 L293.4,135.5 C293.466667,138.5 292.983333,141.633333 291.95,144.9 L285.95,145.8 L286.8,144.15 L284.3,144.2 L284.35,145.05 L270.9,146.05 L262.5,147 C261.333333,146.966667 260.466667,146.45 259.9,145.45 L239.85,150.85 L232.3,151.8 L229.75,150.1 L219.65,149.6 L213.8,151.3 L211.2,148.8 C208.4,148.733333 205.3,148.233333 201.9,147.3 C200.533333,145.5 199.366667,143.266667 198.4,140.6 L197.45,129.8 C196.85,126.366667 195.683333,123.816667 193.95,122.15 L196.4,117.9 L203.9,112.75 C205.666667,109.883333 207.816667,107.083333 210.35,104.35 C212.483333,101.883333 214.983333,99.5833333 217.85,97.45 C220.15,96.05 222.066667,94.0166667 223.6,91.35 L242.85,77.5 L251.1,69.6 C261.333333,58.7 264.716667,49.5333333 261.25,42.1 L256.3,36.05 C254.2,33.85 251.633333,31.6833333 248.6,29.55 L240.15,28.75 L237.7,29.75 C235.2,31.65 232.133333,33.4833333 228.5,35.25 L223.15,45.8 C221.783333,49.8333333 220.9,54.0833333 220.5,58.55 L218.05,62.9 L216.3,62.95 L207.05,60.55 L203.7,61.5 L201.2,63.2 C201.066667,64 200.55,64.6 199.65,65 L200.35,63.2 L199.6,63.25 L196.1,55.7 L196.65,43.1 C197.05,39.8666667 197.866667,36.4666667 199.1,32.9 L203,22.65 L210.5,15.9" id="Shape" stroke="#000000" stroke-width="10" stroke-linecap="round" stroke-linejoin="round"></path>
            <path d="M45.152,61.6712 L45.152,61.4056 C44.9749333,57.0674667 44.8421333,53.1056 44.7536,49.52 C44.6650667,45.9344 44.5765333,42.4373333 44.488,39.0288 C44.4437333,35.576 44.4216,32.0568 44.4216,28.4712 C44.4216,24.9298667 44.4216,20.968 44.4216,16.5856 C44.4216,15.4346667 43.9346667,14.5493333 42.9608,13.9296 C41.9426667,13.3541333 40.836,13.0664 39.6408,13.0664 C38.4013333,13.0664 37.2725333,13.3541333 36.2544,13.9296 C35.192,14.5493333 34.6608,15.4346667 34.6608,16.5856 L34.6608,47.5944 C31.0752,43.1677333 27.5117333,38.3869333 23.9704,33.252 C20.4290667,28.1170667 16.7992,22.296 13.0808,15.7888 C12.5496,14.8149333 11.7970667,14.1066667 10.8232,13.664 C9.84933333,13.2213333 8.8312,13 7.7688,13 C6.88346667,13 6.0424,13.1328 5.2456,13.3984 C4.40453333,13.664 3.652,14.0402667 2.988,14.5272 C2.324,15.0584 1.7928,15.7002667 1.3944,16.4528 C0.996,17.2496 0.7968,18.1128 0.7968,19.0424 C0.7968,23.3805333 0.7968,27.3424 0.7968,30.928 C0.752533333,34.4693333 0.708266667,37.8778667 0.664,41.1536 C0.619733333,44.4293333 0.5312,47.6829333 0.3984,50.9144 C0.309866667,54.1901333 0.177066667,57.7536 0,61.6048 L0,61.9368 C0,62.9549333 0.177066667,63.8181333 0.5312,64.5264 C0.885333333,65.1904 1.37226667,65.7658667 1.992,66.2528 C2.61173333,66.7397333 3.29786667,67.0938667 4.0504,67.3152 C4.80293333,67.5365333 5.5776,67.6472 6.3744,67.6472 C7.1712,67.6472 7.94586667,67.5365333 8.6984,67.3152 C9.45093333,67.0938667 10.1370667,66.7618667 10.7568,66.3192 C11.3765333,65.9208 11.8634667,65.3674667 12.2176,64.6592 C12.5717333,63.9952 12.7488,63.2205333 12.7488,62.3352 C12.7488,62.2466667 12.7488,62.136 12.7488,62.0032 C12.7045333,61.8704 12.6824,61.7376 12.6824,61.6048 C12.5496,59.9669333 12.4168,58.2626667 12.284,56.492 C12.1512,54.6770667 12.0184,52.8621333 11.8856,51.0472 C11.7528,49.188 11.62,47.3509333 11.4872,45.536 C11.3986667,43.7210667 11.3101333,42.0168 11.2216,40.4232 C10.956,36.5277333 10.7125333,32.6544 10.4912,28.8032 C11.5093333,31.0608 12.7488,33.6504 14.2096,36.572 C15.6704,39.5378667 17.2418667,42.6365333 18.924,45.868 C20.6504,49.0552 22.4653333,52.2645333 24.3688,55.496 C26.2722667,58.7717333 28.1757333,61.8261333 30.0792,64.6592 C30.7874667,65.7216 31.8056,66.4741333 33.1336,66.9168 C34.4616,67.4037333 35.8781333,67.6472 37.3832,67.6472 C38.3128,67.6472 39.2424,67.5365333 40.172,67.3152 C41.1016,67.0938667 41.9426667,66.7397333 42.6952,66.2528 C43.4034667,65.7658667 43.9789333,65.1461333 44.4216,64.3936 C44.9085333,63.6410667 45.152,62.7336 45.152,61.6712 M84.9644,44.9384 C84.9644,48.0813333 83.9905333,50.6266667 82.0428,52.5744 C80.0950667,54.5664 77.3726667,55.5624 73.8756,55.5624 C70.3785333,55.5624 67.6561333,54.5664 65.7084,52.5744 C63.7606667,50.6266667 62.7868,48.0813333 62.7868,44.9384 C62.7868,43.3448 63.0524,41.884 63.5836,40.556 C64.1148,39.228 64.8673333,38.0549333 65.8412,37.0368 C66.8150667,36.0186667 67.9881333,35.2218667 69.3604,34.6464 C70.6884,34.0709333 72.1934667,33.7832 73.8756,33.7832 C75.5577333,33.7832 77.0849333,34.0709333 78.4572,34.6464 C79.8294667,35.2218667 81.0025333,36.0186667 81.9764,37.0368 C82.9502667,38.0549333 83.6806667,39.228 84.1676,40.556 C84.6988,41.884 84.9644,43.3448 84.9644,44.9384 M73.8756,68.2448 C76.9742667,68.2448 79.7852,67.7136 82.3084,66.6512 C84.8758667,65.5445333 87.0892,64.0173333 88.9484,62.0696 C90.8076,60.1218667 92.2462667,57.8421333 93.2644,55.2304 C94.2825333,52.5744 94.7916,49.7413333 94.7916,46.7312 C94.7916,43.6325333 94.2825333,40.7773333 93.2644,38.1656 C92.2462667,35.5096 90.8076,33.2077333 88.9484,31.26 C87.0892,29.268 84.8758667,27.7186667 82.3084,26.612 C79.7852,25.5053333 76.9742667,24.952 73.8756,24.952 C70.8654667,24.952 68.0766667,25.5053333 65.5092,26.612 C62.9417333,27.7186667 60.7284,29.268 58.8692,31.26 C57.01,33.2077333 55.5713333,35.5096 54.5532,38.1656 C53.5350667,40.7773333 53.026,43.6325333 53.026,46.7312 C53.026,49.7413333 53.5350667,52.5744 54.5532,55.2304 C55.5713333,57.8421333 57.01,60.1218667 58.8692,62.0696 C60.7284,64.0173333 62.9417333,65.5445333 65.5092,66.6512 C68.0766667,67.7136 70.8654667,68.2448 73.8756,68.2448 M12.588,148.9832 L47.9506,148.9832 C49.0136667,148.9832 49.9204,148.7018 50.6708,148.139 C51.4212,147.638733 52.0465333,146.950867 52.5468,146.0754 C53.1096,145.199933 53.5160667,144.230667 53.7662,143.1676 C54.0163333,142.042 54.1414,140.9164 54.1414,139.7908 C54.1414,138.602667 54.0163333,137.4458 53.7662,136.3202 C53.5160667,135.1946 53.1096,134.225333 52.5468,133.4124 C52.0465333,132.536933 51.4212,131.849067 50.6708,131.3488 C49.9829333,130.786 49.1074667,130.5046 48.0444,130.5046 L18.4974,130.5046 C16.9340667,130.5046 16.1524,129.816733 16.1524,128.441 L16.1524,77.789 C16.1524,76.1631333 15.4332667,74.9437333 13.995,74.1308 C12.5567333,73.3178667 10.9934,72.9114 9.305,72.9114 C7.49153333,72.9114 5.86566667,73.3178667 4.4274,74.1308 C2.98913333,74.9437333 2.27,76.1631333 2.27,77.789 L2.27,138.5714 C2.27,145.5126 5.70933333,148.9832 12.588,148.9832 M74.221,80.0402 C74.221,78.0391333 73.4393333,76.3507333 71.876,74.975 C70.2501333,73.5992667 68.3116,72.9114 66.0604,72.9114 C63.8092,72.9114 61.9019333,73.5992667 60.3386,74.975 C58.7127333,76.3507333 57.8998,78.0391333 57.8998,80.0402 C57.8998,82.0412667 58.7127333,83.6984 60.3386,85.0116 C61.9019333,86.3873333 63.8092,87.0752 66.0604,87.0752 C68.3116,87.0752 70.2501333,86.3873333 71.876,85.0116 C73.4393333,83.6984 74.221,82.0412667 74.221,80.0402 M72.814,99.0816 L72.814,95.2358 C72.814,93.6099333 72.1261333,92.4218 70.7504,91.6714 C69.3746667,90.8584667 67.8426,90.452 66.1542,90.452 C64.5283333,90.452 63.0275333,90.8584667 61.6518,91.6714 C60.2760667,92.4218 59.5882,93.6099333 59.5882,95.2358 L59.5882,98.894 C59.5882,103.521467 59.5569333,107.6174 59.4944,111.1818 C59.4944,114.7462 59.3693333,118.154267 59.1192,121.406 C58.9316,124.657733 58.6814667,127.940733 58.3688,131.255 C57.9936,134.569267 57.4620667,138.227467 56.7742,142.2296 C56.7116667,142.479733 56.6804,142.8862 56.6804,143.449 C56.6804,144.512067 56.9618,145.450067 57.5246,146.263 C58.0248667,147.138467 58.744,147.826333 59.682,148.3266 C60.5574667,148.8894 61.558,149.295867 62.6836,149.546 C63.8717333,149.796133 65.0286,149.9212 66.1542,149.9212 C67.3423333,149.9212 68.4992,149.796133 69.6248,149.546 C70.8129333,149.295867 71.8447333,148.8894 72.7202,148.3266 C73.5956667,147.826333 74.3148,147.138467 74.8776,146.263 C75.4404,145.450067 75.7218,144.512067 75.7218,143.449 C75.7218,142.8862 75.6905333,142.479733 75.628,142.2296 C74.9401333,138.227467 74.4086,134.569267 74.0334,131.255 C73.6582,127.940733 73.3768,124.689 73.1892,121.4998 C73.0016,118.248067 72.8765333,114.84 72.814,111.2756 C72.814,107.7112 72.814,103.646533 72.814,99.0816 M87.6832,142.1358 L87.6832,142.8862 C87.6832,144.136867 87.9646,145.199933 88.5274,146.0754 C89.0902,146.950867 89.8093333,147.67 90.6848,148.2328 C91.5602667,148.7956 92.5920667,149.233333 93.7802,149.546 C94.9058,149.796133 96.0939333,149.9212 97.3446,149.9212 C98.4702,149.9212 99.5958,149.796133 100.7214,149.546 C101.847,149.295867 102.847533,148.8894 103.723,148.3266 C104.535933,147.826333 105.2238,147.138467 105.7866,146.263 C106.3494,145.450067 106.6308,144.4808 106.6308,143.3552 C106.6308,142.7924 106.599533,142.385933 106.537,142.1358 C106.036733,138.633933 105.567733,135.3822 105.13,132.3806 C104.692267,129.379 104.348333,126.346133 104.0982,123.282 C103.848067,120.217867 103.660467,117.0912 103.5354,113.902 C103.3478,110.650267 103.254,107.085867 103.254,103.2088 L110.3828,103.2088 C112.2588,103.2088 113.634533,102.614733 114.51,101.4266 C115.385467,100.238467 115.8232,98.894 115.8232,97.3932 C115.8232,95.9549333 115.385467,94.6417333 114.51,93.4536 C113.634533,92.2654667 112.2588,91.6714 110.3828,91.6714 L103.254,91.6714 L103.254,86.5124 C103.254,84.4488 104.160733,83.417 105.9742,83.417 C106.7246,83.417 107.818933,83.6671333 109.2572,84.1674 C109.569867,84.2924667 109.851267,84.3862667 110.1014,84.4488 C110.351533,84.5113333 110.632933,84.5426 110.9456,84.5426 C112.4464,84.5426 113.6658,83.8547333 114.6038,82.479 C115.604333,81.1658 116.1046,79.7588 116.1046,78.258 C116.1046,77.3825333 115.885733,76.5383333 115.448,75.7254 C115.010267,74.9124667 114.3224,74.3184 113.3844,73.9432 C111.633467,73.2553333 109.9138,72.7238 108.2254,72.3486 C106.537,72.0359333 104.911133,71.8796 103.3478,71.8796 C99.5332667,71.8796 96.3440667,72.8801333 93.7802,74.8812 C91.2163333,76.8822667 89.9344,79.9151333 89.9344,83.9798 L89.9344,91.6714 L86.5576,91.6714 C84.8692,91.6714 83.6185333,92.2654667 82.8056,93.4536 C82.0552,94.6417333 81.68,95.9549333 81.68,97.3932 C81.68,98.894 82.0552,100.238467 82.8056,101.4266 C83.6185333,102.614733 84.8692,103.2088 86.5576,103.2088 L89.9344,103.2088 C89.9344,107.085867 89.8718667,110.650267 89.7468,113.902 C89.6842667,117.0912 89.5592,120.217867 89.3716,123.282 C89.1214667,126.346133 88.8713333,129.379 88.6212,132.3806 C88.3710667,135.444733 88.0584,138.696467 87.6832,142.1358 M163.4974,111.8384 L134.4194,111.8384 C135.3574,108.961867 137.014533,106.523067 139.3908,104.522 C141.767067,102.520933 145.0188,101.5204 149.146,101.5204 C153.023067,101.5204 156.0872,102.4584 158.3384,104.3344 C160.652133,106.272933 162.3718,108.774267 163.4974,111.8384 M133.8566,122.9068 L169.5944,122.9068 C172.283333,122.9068 174.159333,122.281467 175.2224,121.0308 C176.285467,119.7176 176.817,118.091733 176.817,116.1532 C176.817,115.840533 176.817,115.4966 176.817,115.1214 C176.754467,114.683667 176.691933,114.2772 176.6294,113.902 C176.129133,110.587733 175.097333,107.461067 173.534,104.522 C172.0332,101.645467 170.094667,99.1128667 167.7184,96.9242 C165.342133,94.7355333 162.590667,93.0158667 159.464,91.7652 C156.337333,90.5145333 152.866733,89.8892 149.0522,89.8892 C145.050067,89.8892 141.298067,90.6083333 137.7962,92.0466 C134.294333,93.4848667 131.261467,95.5484667 128.6976,98.2374 C126.133733,100.8638 124.132667,104.084267 122.6944,107.8988 C121.256133,111.6508 120.537,115.8718 120.537,120.5618 C120.537,124.751533 121.224867,128.691133 122.6006,132.3806 C123.976333,136.007533 125.914867,139.165467 128.4162,141.8544 C130.917533,144.543333 133.919133,146.669467 137.421,148.2328 C140.9854,149.7336 144.893733,150.484 149.146,150.484 C156.4624,150.484 162.309267,149.014467 166.6866,146.0754 C171.0014,143.136333 173.971733,139.102933 175.5976,133.9752 C175.7852,133.287333 175.879,132.693267 175.879,132.193 C175.879,130.379533 175.191133,128.878733 173.8154,127.6906 C172.439667,126.502467 170.938867,125.9084 169.313,125.9084 C168.625133,125.9084 167.937267,126.033467 167.2494,126.2836 C166.561533,126.533733 165.967467,127.002733 165.4672,127.6906 C163.903867,129.504067 161.9028,130.8798 159.464,131.8178 C157.0252,132.693267 153.617133,133.131 149.2398,133.131 C145.050067,133.131 141.5482,132.193 138.7342,130.317 C135.857667,128.441 134.2318,125.970933 133.8566,122.9068" id="Combined-Shape" fill="#000000" fill-rule="nonzero"></path>
            <path d="M149.0522,88.8892 C152.990155,88.8892 156.586605,89.5372091 159.835391,90.8367233 C163.073793,92.1320841 165.92919,93.9167074 168.395876,96.1886549 C170.857178,98.4556438 172.866425,101.080628 174.416872,104.052387 C176.033499,107.091645 177.101054,110.32666 177.615794,113.737601 C177.679653,114.120753 177.743358,114.534837 177.806949,114.979979 L177.817,115.1214 L177.817,116.1532 C177.817,118.312845 177.212576,120.161671 175.984339,121.678448 C174.699612,123.189893 172.548889,123.9068 169.5944,123.9068 L135.056,123.906 L135.073354,123.976789 C135.620162,126.095714 136.916359,127.856149 138.999898,129.291265 L139.2889,129.48495 C141.928379,131.244602 145.237597,132.131 149.2398,132.131 C153.511861,132.131 156.812831,131.707022 159.105021,130.884454 C161.39328,130.004355 163.256682,128.723266 164.658464,127.102428 C165.271587,126.259384 166.024558,125.664934 166.907657,125.343807 C167.703375,125.054454 168.506675,124.9084 169.313,124.9084 C171.186611,124.9084 172.916892,125.593303 174.46902,126.933777 C176.064553,128.311737 176.879,130.088713 176.879,132.193 C176.879,132.791223 176.771714,133.470699 176.550831,134.277444 C174.857804,139.61699 171.751025,143.835669 167.244034,146.905621 C162.685575,149.966301 156.64707,151.484 149.146,151.484 C144.763543,151.484 140.723315,150.708276 137.013349,149.145938 C133.390155,147.528441 130.277884,145.323916 127.684013,142.535504 C125.093333,139.750523 123.08657,136.48144 121.66362,132.729982 C120.245528,128.926917 119.537,124.868986 119.537,120.5618 C119.537,115.753875 120.276733,111.411961 121.758703,107.545996 C123.24444,103.605562 125.318959,100.266883 127.973862,97.5473247 C130.635053,94.7563202 133.785215,92.612911 137.416281,91.1215802 C141.040462,89.6330773 144.921561,88.8892 149.0522,88.8892 Z M103.3478,70.8796 C104.973718,70.8796 106.660378,71.0417788 108.44233,71.3724129 C110.182521,71.7591219 111.951774,72.305982 113.755791,73.0147233 C114.906398,73.4749661 115.776708,74.2265981 116.328471,75.2513002 C116.843601,76.2079693 117.1046,77.2146811 117.1046,78.258 C117.1046,79.9836688 116.529214,81.6019411 115.430027,83.0423368 C114.311214,84.6832635 112.787844,85.5426 110.9456,85.5426 C110.554723,85.5426 110.192512,85.5023543 109.858864,85.4189425 C109.561625,85.3446327 109.23807,85.236781 108.928679,85.1118968 C107.587136,84.6452732 106.588441,84.417 105.9742,84.417 C104.743835,84.417 104.254,84.9743984 104.254,86.5124 L104.253,90.671 L110.3828,90.6714 C112.458379,90.6714 114.082715,91.3320783 115.164253,92.6653559 L115.315056,92.860401 C116.316285,94.2192115 116.8232,95.7399575 116.8232,97.3932 C116.8232,99.1065146 116.317732,100.659025 115.315056,102.019799 C114.236391,103.483702 112.557216,104.2088 110.3828,104.2088 L104.256,104.208 L104.256314,104.253395 C104.270198,107.36396 104.346583,110.265908 104.485872,112.969099 L104.534632,113.862814 C104.659152,117.038069 104.845908,120.150678 105.094885,123.200638 C105.343305,126.24379 105.684858,129.255665 106.119533,132.236293 C106.469836,134.638374 106.840145,137.200511 107.230461,139.922714 L107.52,141.952 L107.537463,142.02993 C107.593474,142.315438 107.62204,142.674852 107.629059,143.123417 L107.6308,143.3552 C107.6308,144.67764 107.291632,145.845886 106.627778,146.803758 C105.985658,147.802611 105.190673,148.597596 104.263758,149.167778 C103.286424,149.796064 102.176134,150.24712 100.93833,150.522187 C99.7419333,150.788053 98.5436112,150.9212 97.3446,150.9212 C96.0224025,150.9212 94.7616105,150.788485 93.5257067,150.513075 C92.2400301,150.174739 91.1117413,149.696071 90.1440424,149.073978 C89.1480731,148.433712 88.3264875,147.612127 87.6862215,146.616158 C87.0142559,145.570878 86.6832,144.320222 86.6832,142.8862 L86.6832,142.1358 L87.678,142.135 L86.6890978,142.027352 C87.0217588,138.97796 87.3050828,136.076977 87.5391766,133.323286 L87.6246542,132.297555 C87.8747406,129.296519 88.1248276,126.264213 88.373469,123.22089 C88.5602144,120.170714 88.6847278,117.057881 88.7475388,113.863567 C88.8720897,110.625243 88.9344,107.073558 88.9344,103.2088 L88.932,104.208 L86.5576,104.2088 C84.6488712,104.2088 83.1391243,103.534844 82.1107471,102.170435 L81.9601111,101.960593 C81.1069565,100.609765 80.68,99.0798374 80.68,97.3932 C80.68,95.7670608 81.108145,94.2685534 81.9802927,92.8889161 C82.9891471,91.4144366 84.5534347,90.6714 86.5576,90.6714 L88.934,90.671 L88.9344,83.9798 C88.9344,79.7607034 90.2543826,76.505971 92.9043304,74.3028079 L93.1649291,74.0928842 C95.9127093,71.9482753 99.3191119,70.8796 103.3478,70.8796 Z M73.8138461,111.258059 C73.8761501,114.809386 74.0007277,118.204125 74.1874744,121.441078 C74.3740062,124.61212 74.6538555,127.845933 75.027053,131.142511 C75.3999822,134.436719 75.9287863,138.076135 76.5981425,141.987064 C76.685241,142.335459 76.7218,142.810725 76.7218,143.449 C76.7218,144.711672 76.3806978,145.84868 75.7187785,146.803758 C75.06969,147.813451 74.2326598,148.614088 73.2609576,149.167778 C72.2788694,149.799121 71.1336508,150.250268 69.8417305,150.522187 C68.6443593,150.78827 67.4147526,150.9212 66.1542,150.9212 C64.9580033,150.9212 63.7322236,150.788683 62.4666695,150.522187 C61.228866,150.24712 60.1185757,149.796064 59.2114118,149.208953 C58.1093821,148.621204 57.2514766,147.800599 56.7024078,146.83221 C56.0215022,145.84868 55.6804,144.711672 55.6804,143.449 C55.6804,142.810725 55.716959,142.335459 55.7886511,142.060209 C56.4734137,138.076135 57.0022178,134.436719 57.3732205,131.161077 C57.6847527,127.858836 57.9339634,124.587945 58.1221455,121.329304 C58.3702704,118.10368 58.4944,114.721149 58.4945539,111.164259 C58.5569772,107.606128 58.5882,103.515942 58.5882,98.894 L58.5882,95.2358 C58.5882,93.2481008 59.4722056,91.721182 61.1430707,90.8104735 C62.67359,89.9060757 64.3501772,89.452 66.1542,89.452 C68.0190418,89.452 69.7270229,89.9051378 71.2292521,90.7935044 C72.9299944,91.721182 73.814,93.2481008 73.814,95.2358 L73.814,99.0816 L73.8138461,111.258059 Z M12.588,149.9832 C5.15501263,149.9832 1.27,146.062869 1.27,138.5714 L1.27,77.789 C1.27,75.8007984 2.18474814,74.2497037 3.93534274,73.2602372 C5.52756199,72.3602872 7.3231106,71.9114 9.305,71.9114 C11.164862,71.9114 12.8978084,72.3619661 14.4870573,73.2602372 C16.2376519,74.2497037 17.1524,75.8007984 17.1524,77.789 L17.1524,128.441 C17.1524,129.233979 17.4599243,129.5046 18.4974,129.5046 L48.0444,129.5046 C49.328154,129.5046 50.4280753,129.858146 51.2255002,130.51675 C52.1090175,131.105761 52.839856,131.909684 53.3689922,132.84319 C54.0085386,133.766979 54.4652063,134.855956 54.7423871,136.10327 C55.0084695,137.300641 55.1414,138.530247 55.1414,139.7908 C55.1414,140.989811 55.0082531,142.188133 54.7396172,143.396639 C54.4637567,144.569046 54.0130311,145.643854 53.4150431,146.571539 C52.839856,147.578116 52.1090175,148.382039 51.2708,148.939 C50.3411108,149.636267 49.2232152,149.9832 47.9506,149.9832 L12.588,149.9832 Z M149.0522,90.8892 C145.178572,90.8892 141.555671,91.5835894 138.176119,92.9716198 C134.803452,94.3568223 131.887881,96.3406131 129.413174,98.9359367 C126.948507,101.460717 125.020893,104.562972 123.628146,108.256736 C122.235533,111.889639 121.537,115.989725 121.537,120.5618 C121.537,124.63408 122.204206,128.45535 123.535598,132.025946 C124.866097,135.533626 126.7364,138.580411 129.148387,141.173296 C131.557182,143.762751 134.448112,145.810493 137.809057,147.311165 C141.247485,148.758924 145.023924,149.484 149.146,149.484 C156.27773,149.484 161.932959,148.062632 166.123635,145.248919 C170.251775,142.436998 173.085663,138.588877 174.632836,133.712083 C174.798686,133.103967 174.879,132.595311 174.879,132.193 C174.879,130.670353 174.317714,129.44573 173.16178,128.447423 C171.962441,127.41163 170.691123,126.9084 169.313,126.9084 C168.743592,126.9084 168.171158,127.012479 167.591143,127.223393 C167.098509,127.402533 166.663347,127.746082 166.22461,128.34354 C164.551052,130.284867 162.41232,131.755245 159.801865,132.758995 C157.237569,133.679511 153.722406,134.131 149.2398,134.131 C144.862536,134.131 141.168021,133.141398 138.187932,131.154611 C135.071443,129.122118 133.27623,126.394775 132.864014,123.028341 L133.856,122.907 L133.8566,121.9068 L169.5944,121.9068 C172.017777,121.9068 173.619055,121.373041 174.445155,120.401602 C175.358357,119.273529 175.817,117.870621 175.817,116.1532 L175.816,115.187 L175.765526,114.842432 C175.744972,114.705428 175.724343,114.571366 175.703551,114.439688 L175.640601,114.051253 C175.157213,110.848807 174.161168,107.830488 172.647415,104.984566 C171.199975,102.210305 169.332155,99.7700895 167.040924,97.6597451 C164.755077,95.5543593 162.107541,93.8996492 159.092609,92.6936767 C156.088062,91.4918576 152.743312,90.8892 149.0522,90.8892 Z M103.3478,72.8796 C99.7474214,72.8796 96.7754241,73.8119913 94.3954709,75.6695158 C92.0917504,77.4675415 90.9344,80.2056631 90.9344,83.9798 L90.9344,92.6714 L86.5576,92.6714 C85.1849653,92.6714 84.2479195,93.1164967 83.6510889,93.987593 C83.002255,95.0149133 82.68,96.1428059 82.68,97.3932 C82.68,98.7081626 83.0034435,99.8671684 83.6309073,100.861916 C84.2479195,101.763703 85.1849653,102.2088 86.5576,102.2088 L90.9344,102.2088 L90.9344,103.2088 C90.9344,107.098175 90.8716436,110.67529 90.7466078,113.921604 C90.6838056,117.124519 90.5581856,120.26502 90.3682846,123.363362 C90.1181057,126.428054 89.8679261,129.461481 89.6178846,132.461962 L89.5319333,133.493383 C89.2965435,136.262337 89.0116634,139.179269 88.6773022,142.244248 L88.683,142.188 L88.6832,142.8862 C88.6832,143.856483 88.8747241,144.668226 89.2503688,145.337964 L89.3685785,145.534642 C89.8539125,146.289606 90.4705936,146.906288 91.2255576,147.391622 C92.0087921,147.895129 92.9441032,148.291928 93.9971305,148.569813 C95.0499895,148.803782 96.1654642,148.9212 97.3446,148.9212 C98.3967888,148.9212 99.4496667,148.804214 100.50447,148.569813 C101.517866,148.344614 102.408642,147.982736 103.198903,147.474942 C103.881194,147.05507 104.461942,146.474322 104.964408,145.69379 C105.407168,145.054247 105.6308,144.28396 105.6308,143.3552 C105.6308,142.867875 105.604826,142.530208 105.566857,142.378336 L105.547051,142.277221 C105.046916,138.776283 104.578054,135.525506 104.140467,132.524907 C103.699675,129.502335 103.353362,126.448477 103.101515,123.363362 C102.850225,120.285055 102.661782,117.144331 102.53706,113.959597 C102.348302,110.687784 102.254,107.104322 102.254,103.2088 L102.254,102.2088 L110.3828,102.2088 C111.960384,102.2088 113.032676,101.745765 113.704944,100.833401 C114.453202,99.8179084 114.8232,98.6814854 114.8232,97.3932 C114.8232,96.1699091 114.454649,95.0642552 113.704944,94.046799 C113.032676,93.1344351 111.960384,92.6714 110.3828,92.6714 L102.254,92.6714 L102.254,86.5124 C102.254,83.9232016 103.577632,82.417 105.9742,82.417 C106.860759,82.417 108.05073,82.6889935 109.628591,83.2389233 C109.901663,83.3481523 110.140908,83.4279006 110.343936,83.4786575 C110.510555,83.5203124 110.711144,83.5426 110.9456,83.5426 C112.104956,83.5426 113.020386,83.0262031 113.808368,81.8729568 C114.679452,80.7296589 115.1046,79.5339312 115.1046,78.258 C115.1046,77.5503855 114.927866,76.8686973 114.567529,76.1994998 C114.243825,75.5983352 113.738402,75.1618339 113.018748,74.8739515 C111.315159,74.2046847 109.645079,73.6884781 108.043311,73.331882 C106.413622,73.0300879 104.848549,72.8796 103.3478,72.8796 Z M149.146,100.5204 C153.242072,100.5204 156.532308,101.527615 158.98062,103.56788 C161.431187,105.621057 163.251394,108.268631 164.43607,111.493583 L163.497,111.838 L163.4974,112.8384 L133.04149,112.8384 L133.46867,111.528379 C134.464877,108.473344 136.228779,105.877413 138.746664,103.757089 C141.318905,101.590991 144.798326,100.5204 149.146,100.5204 Z M149.146,102.5204 C145.239274,102.5204 142.215228,103.450876 140.034936,105.286911 C138.27074,106.77255 136.933036,108.507409 136.015078,110.499608 L135.865,110.838 L162.007,110.838 L161.811631,110.422296 C160.854224,108.452596 159.596431,106.778796 158.036997,105.394766 L157.698216,105.102621 C155.642092,103.389185 152.804061,102.5204 149.146,102.5204 Z M75.2158225,80.3379102 C75.1399102,82.5059963 74.2297923,84.3404003 72.5219422,85.7749863 C70.7126993,87.3058842 68.5446274,88.0752 66.0604,88.0752 C63.5710149,88.0752 61.4279448,87.3022895 59.7102629,85.7895412 C57.8522465,84.2888356 56.8998,82.3473101 56.8998,80.0402 C56.8998,77.7395343 57.8461458,75.7740469 59.6779721,74.2242865 C61.4279448,72.6843105 63.5710149,71.9114 66.0604,71.9114 C68.5446274,71.9114 70.7126993,72.6807158 72.5366279,74.2242865 C74.3132852,75.7877449 75.221,77.7484088 75.221,80.0402 L75.2158225,80.3379102 Z M73.2896621,69.2382832 C70.3728502,69.1731061 67.6490906,68.6188961 65.1133707,67.5695241 C62.4237043,66.4101851 60.0987217,64.8059472 58.1458445,62.7600757 C56.1955441,60.716904 54.6865654,58.3257531 53.6194539,55.588336 C52.5568703,52.8163788 52.026,49.8619702 52.026,46.7312 C52.026,43.5112967 52.5570112,40.5330164 53.6194539,37.807664 C54.68435,35.0296741 56.1938559,32.6144646 58.1381447,30.5776817 C60.0922222,28.4840273 62.4198933,26.8546575 65.1133707,25.6936759 C67.8083109,24.5320637 70.7318322,23.952 73.8756,23.952 C77.1086087,23.952 80.0561878,24.5322321 82.7042293,25.6936759 C85.3977067,26.8546575 87.7253778,28.4840273 89.6717555,30.5695243 C91.6237441,32.6144646 93.13325,35.0296741 94.196108,37.8023918 C95.2605888,40.5330164 95.7916,43.5112967 95.7916,46.7312 C95.7916,49.8619702 95.2607297,52.8163788 94.196108,55.5936082 C93.1310346,58.3257531 91.6220559,60.716904 89.6717555,62.7600757 C87.7188783,64.8059472 85.3938957,66.4101851 82.696457,67.5728354 C80.0462784,68.6887001 77.1035829,69.2448 73.8756,69.2448 L73.2896621,69.2382832 Z M46.1458812,61.9798355 C46.1010393,63.0997034 45.8100494,64.0884442 45.2835342,64.9006201 C44.7670517,65.7786405 44.0909438,66.5067566 43.2384513,67.0923702 C42.388768,67.6421652 41.4421715,68.0407322 40.4036205,68.2880062 C39.3986595,68.5272826 38.3913537,68.6472 37.3832,68.6472 C35.7624883,68.6472 34.229421,68.3837041 32.8173722,67.8654833 C31.2834165,67.3541647 30.081981,66.4661472 29.2491504,65.2168896 C27.3332289,62.3652855 25.4182936,59.2924823 23.5071694,56.0035359 C21.5976799,52.7618445 19.7768571,49.5420967 18.0369822,46.3297353 C16.351497,43.0918294 14.7766774,39.9865513 13.3151728,37.0192136 C12.8639681,36.1168042 12.4337154,35.2457738 12.024408,34.4061009 L11.801,33.947 L11.8379289,34.5354601 C11.8987884,35.5036907 11.9610543,36.4736978 12.0247388,37.4456774 L12.2200604,40.36773 C12.3087229,41.963656 12.3973726,43.6701624 12.4845337,45.4630244 C12.6173761,47.2785373 12.7502178,49.1161801 12.8829337,50.9742244 C12.9256194,51.5575958 12.9500113,51.8909509 12.9717897,52.1885894 L12.9932777,52.4822593 C13.0150562,52.7798978 13.039448,53.1132529 13.0821337,53.6966244 L13.1020246,53.9684668 C13.1328772,54.3901181 13.1528392,54.6629335 13.1709791,54.9108466 L13.1924527,55.2043208 C13.2142123,55.5017054 13.2385712,55.8346162 13.2811993,56.4172101 C13.4138514,58.1859049 13.5464951,59.888166 13.6824,61.6048 C13.6824,61.6286379 13.6867615,61.6548068 13.6974833,61.6869722 L13.7488,61.8409223 L13.7488,62.3352 C13.7488,63.3783273 13.5348509,64.3143545 13.1120272,65.1064136 C12.6790106,65.9724468 12.0714102,66.6629018 11.3380382,67.1329335 C10.6267494,67.6409969 9.83942665,68.0219595 8.98056632,68.2745655 C8.1360333,68.5229576 7.26633628,68.6472 6.3744,68.6472 C5.48246372,68.6472 4.6127667,68.5229576 3.76823368,68.2745655 C2.89369117,68.0173471 2.09366939,67.6044327 1.37417845,67.0391183 C0.646585489,66.4674382 0.0690896219,65.784943 -0.363227191,64.9736136 C-0.791808954,64.1164501 -1,63.1015187 -1,61.9368 L-0.99894473,61.5588715 C-0.822157075,57.71374 -0.689590447,54.1565355 -0.600756632,50.8733388 C-0.468335075,47.6510809 -0.380051633,44.4066644 -0.335908705,41.1400877 C-0.291646695,37.864699 -0.247384408,34.4565029 -0.2032,30.928 L-0.2032,19.0424 C-0.2032,17.9592379 0.0313596512,16.9428127 0.510612084,15.9849123 C0.973026285,15.1114632 1.59239553,14.3630587 2.39663634,13.720795 C3.15029046,13.1681153 4.0010312,12.7427449 4.92937223,12.4497167 C5.82954277,12.1496599 6.77738853,12 7.7688,12 C8.97420643,12 10.1334117,12.2520012 11.2370029,12.7536335 C12.41023,13.2869185 13.3246703,14.1475683 13.9490431,15.2926611 C17.6540261,21.7763813 21.2690879,27.573706 24.7936128,32.684267 C27.7328325,36.9461357 30.6866885,40.9621675 33.6550832,44.732362 L33.66,44.738 L33.6608,16.5856 C33.6608,15.1511935 34.3125347,13.989474 35.5505836,13.189076 L35.7623427,13.0590372 C36.9329477,12.3973909 38.2314504,12.0664 39.6408,12.0664 C41.007462,12.0664 42.2837417,12.3982327 43.4976755,13.0859385 C44.7597331,13.8890661 45.4216,15.0924605 45.4216,16.5856 L45.4216,28.4712 C45.4216,32.0525662 45.4437065,35.5674944 45.4876628,39.0028347 C45.5762074,42.4118007 45.6647516,45.9092943 45.7532953,49.4953162 C45.8416893,53.0752708 45.974311,57.0318204 46.152,61.4056 L46.152,61.6712 L46.1458812,61.9798355 Z M73.8756,25.952 C70.9991012,25.952 68.3450224,26.4786029 65.9050293,27.5303241 C63.4635733,28.5826758 61.3645778,30.0519727 59.5925555,31.9504757 C57.8261441,33.8010021 56.4583167,35.9895259 55.484908,38.5288082 C54.5131221,41.0216503 54.026,43.7537699 54.026,46.7312 C54.026,49.6206964 54.513263,52.3324212 55.484908,54.8671918 C56.4561012,57.3585135 57.8244559,59.5268293 59.5925555,61.3791243 C61.3580783,63.2287195 63.4597624,64.6788815 65.8915518,65.7271832 C68.3351948,66.7383458 70.9940794,67.2448 73.8756,67.2448 L74.4289525,67.2388685 C76.995394,67.1835158 79.3396409,66.7408609 81.4613297,65.9155773 L81.9125707,65.7328759 C84.3578376,64.6788815 86.4595217,63.2287195 88.2250445,61.3791243 C89.9931441,59.5268293 91.3614988,57.3585135 92.3306539,54.872464 C93.304337,52.3324212 93.7916,49.6206964 93.7916,46.7312 C93.7916,43.7537699 93.3044779,41.0216503 92.3306539,38.523536 C91.3592833,35.9895259 89.9914559,33.8010021 88.2173447,31.9423183 C86.4530222,30.0519727 84.3540267,28.5826758 81.9067385,27.5277882 C79.5142122,26.4784346 76.8399246,25.952 73.8756,25.952 Z M85.9596438,45.32794 C85.8803774,48.5519409 84.8104414,51.2209687 82.7578067,53.2735176 C80.608703,55.4714646 77.6268128,56.5624 73.8756,56.5624 C70.1243872,56.5624 67.142497,55.4714646 65.0012932,53.2815068 C62.8586532,51.1388668 61.7868,48.3374323 61.7868,44.9384 C61.7868,43.2209088 62.0752971,41.6341749 62.6551233,40.1846093 C63.2336595,38.7382689 64.0559056,37.4565323 65.1185581,36.3455774 C66.1887231,35.2267685 67.4764986,34.3520531 68.9627926,33.7288444 C70.4214931,33.0967408 72.0615527,32.7832 73.8756,32.7832 C75.6866155,32.7832 77.3451117,33.0956703 78.8439267,33.7242056 C80.3411014,34.3520531 81.6288769,35.2267685 82.6990419,36.3455774 C83.7682086,37.4633426 84.5721762,38.7545633 85.0960767,40.1846093 C85.6759029,41.6341749 85.9644,43.2209088 85.9644,44.9384 L85.9596438,45.32794 Z M12.588,147.9832 L47.9506,147.9832 C48.8041181,147.9832 49.4996892,147.767333 50.1160998,147.30695 C50.7333825,146.895428 51.2532106,146.323617 51.7056215,145.534642 C52.2061689,144.756013 52.5683766,143.892287 52.7900129,142.95067 C53.0244136,141.895867 53.1414,140.842989 53.1414,139.7908 C53.1414,138.675086 53.0241971,137.590959 52.7900129,136.53713 C52.5669271,135.533244 52.2106614,134.683687 51.6785569,133.908539 C51.2532106,133.164183 50.7333825,132.592372 50.0375622,132.122757 C49.5377913,131.713854 48.8867794,131.5046 48.0444,131.5046 L18.4974,131.5046 C16.408209,131.5046 15.1524,130.399488 15.1524,128.441 L15.1524,77.789 C15.1524,76.5254683 14.6288815,75.637763 13.5029427,75.0013628 C12.2156583,74.2737673 10.821938,73.9114 9.305,73.9114 C7.65995607,73.9114 6.20377134,74.2754462 4.91945726,75.0013628 C3.79351852,75.637763 3.27,76.5254683 3.27,77.789 L3.27,138.5714 C3.27,144.962331 6.26365404,147.9832 12.588,147.9832 Z M71.814,95.2358 C71.814,93.9717658 71.3222723,93.122418 70.2416707,92.5323265 C69.0223105,91.8117955 67.6661582,91.452 66.1542,91.452 C64.7064895,91.452 63.3814766,91.8108577 62.1306521,92.5492956 C61.0799277,93.122418 60.5882,93.9717658 60.5882,95.2358 L60.5882,98.894 C60.5882,103.526991 60.5568895,107.628672 60.4944,111.1818 C60.4944,114.771251 60.3683963,118.204854 60.1175399,121.463597 C59.9292366,124.727521 59.6781807,128.02263 59.362453,131.367489 C58.9849822,134.701815 58.4507196,138.378798 57.7443425,142.472136 C57.7063744,142.624008 57.6804,142.961675 57.6804,143.449 C57.6804,144.312461 57.9020978,145.051454 58.3928431,145.766861 C58.7982567,146.476335 59.3786179,147.031463 60.2227576,147.485422 C60.9963576,147.982736 61.887134,148.344614 62.8896105,148.56745 C64.0112431,148.803583 65.0991967,148.9212 66.1542,148.9212 C67.2699141,148.9212 68.3540407,148.803997 69.4187895,148.56745 C70.4922159,148.341466 71.4105973,147.979679 72.2240611,147.458357 C72.9586735,147.038578 73.55991,146.463483 74.0554078,145.69379 C74.5001022,145.051454 74.7218,144.312461 74.7218,143.449 C74.7218,142.961675 74.6958256,142.624008 74.6424511,142.398991 C73.9514804,138.378798 73.4172178,134.701815 73.039747,131.367489 C72.6625445,128.035533 72.3795938,124.76588 72.1908601,121.557397 C72.0024723,118.292009 71.8769165,114.870614 71.814,111.2756 L71.814,99.0816 L71.814,95.2358 Z M73.2149253,79.7578579 C73.1460556,78.1732526 72.4911968,76.8484253 71.2300578,75.7383863 C69.7875674,74.5178175 68.0785726,73.9114 66.0604,73.9114 C64.0473851,73.9114 62.3759219,74.5142228 60.9845422,75.7383863 C59.5793209,76.9274197 58.8998,78.3387323 58.8998,80.0402 C58.8998,81.7352233 59.5732202,83.1079644 60.9992279,84.2608865 C62.3759219,85.4723772 64.0473851,86.0752 66.0604,86.0752 C68.0785726,86.0752 69.7875674,85.4687825 71.2328079,84.2458951 C72.5712448,83.1216081 73.221,81.7441271 73.221,80.0402 L73.2149253,79.7578579 Z M44.1528319,61.4463824 C43.9755556,57.1031129 43.8425774,53.1359292 43.7539047,49.5446838 C43.6653818,45.9595057 43.5768592,42.4628659 43.4880822,39.0416195 C43.4437602,35.5845056 43.4216,32.0610338 43.4216,28.4712 L43.4216,16.5856 C43.4216,15.7768729 43.1096003,15.2096006 42.4687427,14.8001628 C41.6015916,14.3100339 40.664538,14.0664 39.6408,14.0664 C38.5712162,14.0664 37.612119,14.3108758 36.758271,14.7933789 C35.9970388,15.237431 35.6608,15.7978291 35.6608,16.5856 L35.6608,50.4177278 L33.8837361,48.2238217 C30.2815837,43.7767199 26.7027902,38.9753573 23.1471872,33.819733 C19.5890454,28.6604273 15.9443739,22.8156187 12.2029044,16.2676521 C11.7745297,15.4822984 11.1839033,14.9264148 10.4093971,14.5743665 C9.56525494,14.1906655 8.68819357,14 7.7688,14 C6.98954481,14 6.25525723,14.1159401 5.54673137,14.3519827 C4.80803547,14.5852551 4.15370954,14.912418 3.61269505,15.3080688 C3.05560447,15.7537413 2.61257371,16.2890701 2.28882719,16.9000136 C1.96064035,17.5563873 1.7968,18.2663621 1.7968,19.0424 L1.79672188,30.940499 C1.75245107,34.4821638 1.70818003,37.8910344 1.6639087,41.1671123 C1.6195183,44.4520023 1.53073508,47.7147858 1.39803497,50.9414172 C1.30932378,54.2237312 1.17629041,57.79346 1,61.6048 L1,61.9368 C1,62.8083479 1.14594229,63.5198166 1.41355294,64.0558118 C1.70157704,64.595857 2.09794784,65.0642952 2.60982155,65.4664817 C3.12979727,65.875034 3.70204217,66.1703862 4.33256632,66.3558345 C4.99309996,66.5501091 5.67273628,66.6472 6.3744,66.6472 C7.07606372,66.6472 7.75570004,66.5501091 8.41623368,66.3558345 C9.06244002,66.1657738 9.64738396,65.8827364 10.2160424,65.4780215 C10.6816565,65.1786982 11.0479228,64.7624865 11.3352471,64.1886118 C11.6086157,63.6760455 11.7488,63.0627394 11.7488,62.3352 L11.748,62.137 L11.7252752,62.0418348 C11.7066179,61.9519489 11.6943628,61.8665103 11.6888474,61.7909259 L11.685671,61.6856159 C11.5527049,60.0457007 11.4197486,58.3394284 11.2866663,56.5649756 C11.1870663,55.2037756 11.1870663,55.2037756 11.0874663,53.8425756 L11.0675753,53.5707319 C10.9873575,52.4744219 10.9807431,52.3840236 10.8881413,51.118447 C10.7553822,49.2598199 10.6226239,47.4233293 10.4883876,45.5847226 C10.3999607,43.771971 10.3115438,42.069944 10.2239163,40.4912239 C9.95807513,36.59222 9.71438539,32.7153377 9.49284739,28.8605766 L9.18304772,23.4700622 L11.4027868,28.3920922 C12.4150189,30.6366071 13.6488425,33.2144169 15.106689,36.1301502 C16.5641226,39.089182 18.1322364,42.1812372 19.803292,45.3917169 C21.5239429,48.5683033 23.3329867,51.7672222 25.2334252,54.9935826 C27.1262398,58.2509844 29.0182378,61.2869812 30.9112503,64.1044998 C31.4929523,64.9770528 32.3277835,65.5941019 33.4778546,65.9779237 C34.693779,66.4237626 35.9937784,66.6472 37.3832,66.6472 C38.2342463,66.6472 39.0861405,66.545784 39.9403795,66.3423938 C40.7610285,66.1470012 41.4965654,65.8373014 42.1286712,65.4287581 C42.7159895,65.0249767 43.190815,64.5136262 43.5820298,63.8503487 C43.9591522,63.2675233 44.152,62.5487269 44.152,61.6712 L44.1528319,61.4463824 Z M83.9571113,44.5014991 C83.9133567,43.2027309 83.6723997,42.010468 83.2287237,40.9002546 C82.7891571,39.7014367 82.1323247,38.646524 81.2537581,37.7280226 C80.3761898,36.8105648 79.3178319,36.0916803 78.0704733,35.5685944 C76.824755,35.0461964 75.4288511,34.7832 73.8756,34.7832 C72.3253806,34.7832 70.9553069,35.0451259 69.7471267,35.5685944 C68.4997681,36.0916803 67.4414102,36.8105648 66.5638419,37.7280226 C65.6787611,38.6533344 64.9959405,39.7177311 64.5120767,40.9273907 C64.0295029,42.1338251 63.7868,43.4686912 63.7868,44.9384 C63.7868,47.8252344 64.6626801,50.1144666 66.4234067,51.8752824 C68.1697696,53.6613354 70.6326795,54.5624 73.8756,54.5624 C77.1185205,54.5624 79.5814304,53.6613354 81.3356932,51.8672932 C83.0885199,50.1144666 83.9644,47.8252344 83.9644,44.9384 L83.9571113,44.5014991 Z" id="Combined-Shape" fill="#000000" fill-rule="nonzero"></path>
        </g>
    </g>
</svg>