<?xml version="1.0" encoding="UTF-8"?>
<svg width="313px" height="210px" viewBox="0 0 313 210" version="1.1" xmlns="http://www.w3.org/2000/svg" xmlns:xlink="http://www.w3.org/1999/xlink">
    <title>14</title>
    <g id="Page-1" stroke="none" stroke-width="1" fill="none" fill-rule="evenodd">
        <g id="14" transform="translate(5, 5)">
            <path d="M217.5,15.9 C219.333333,13.3666667 221.533333,10.8 224.1,8.2 L234.1,3.8 L245.85,2.75 C249.15,2.25 252.5,1.33333333 255.9,0 L266.9,4 C270.366667,5 273.783333,6.38333333 277.15,8.15 L286.45,12.95 C288.316667,15.65 290.616667,18.3833333 293.35,21.15 L296.9,27.4 L300.1,44.65 L294.25,65.35 L287.6,76.3 C285.533333,79.7 283.05,82.45 280.15,84.55 C278.35,87.45 276.15,90.3333333 273.55,93.2 L240.1,120.4 L264.65,117.7 C268.15,116.266667 272.05,115.983333 276.35,116.85 L288.05,115.75 C291.45,115.883333 295.116667,116.4 299.05,117.3 C299.516667,118.966667 299.916667,121.7 300.25,125.5 L302.05,133.05 L300.4,135.5 C300.466667,138.5 299.983333,141.633333 298.95,144.9 L292.95,145.8 L293.8,144.15 L291.3,144.2 L291.35,145.05 L277.9,146.05 L269.5,147 C268.333333,146.966667 267.466667,146.45 266.9,145.45 L246.85,150.85 L239.3,151.8 L236.75,150.1 L226.65,149.6 L220.8,151.3 L218.2,148.8 C215.4,148.733333 212.3,148.233333 208.9,147.3 C207.533333,145.5 206.366667,143.266667 205.4,140.6 L204.45,129.8 C203.85,126.366667 202.683333,123.816667 200.95,122.15 L203.4,117.9 L210.9,112.75 C212.666667,109.883333 214.816667,107.083333 217.35,104.35 C219.483333,101.883333 221.983333,99.5833333 224.85,97.45 C227.15,96.05 229.066667,94.0166667 230.6,91.35 L249.85,77.5 L258.1,69.6 C268.333333,58.7 271.716667,49.5333333 268.25,42.1 L263.3,36.05 C261.2,33.85 258.633333,31.6833333 255.6,29.55 L247.15,28.75 L244.7,29.75 C242.2,31.65 239.133333,33.4833333 235.5,35.25 L230.15,45.8 C228.783333,49.8333333 227.9,54.0833333 227.5,58.55 L225.05,62.9 L223.3,62.95 L214.05,60.55 L210.7,61.5 L208.2,63.2 C208.066667,64 207.55,64.6 206.65,65 L207.35,63.2 L206.6,63.25 L203.1,55.7 L203.65,43.1 C204.05,39.8666667 204.866667,36.4666667 206.1,32.9 L210,22.65 L217.5,15.9 M165.3,14.2 C166.9,14.3 167.533333,15.15 167.2,16.75 L166.85,31.1 C166.483333,35.3 166.983333,37.3166667 168.35,37.15 C169.05,37.0833333 170.1,36.65 171.5,35.85 C172.866667,35.0833333 173.633333,34.4166667 173.8,33.85 L173.15,32.55 C172.75,32.15 172.516667,31.6166667 172.45,30.95 C172.683333,29.25 173.933333,28.1833333 176.2,27.75 L181.8,27.2 L188,27.8 C190.466667,28.2666667 191.833333,29.5 192.1,31.5 C192.066667,32.8666667 191.466667,33.6333333 190.3,33.8 C189.133333,33.9666667 187.516667,34.5833333 185.45,35.65 L183.5,36.7 C182.633333,37.2333333 182.166667,37.7333333 182.1,38.2 C182.4,39.3666667 183.783333,41.55 186.25,44.75 L191.4,51.2 C193,52.9666667 194.516667,54.2 195.95,54.9 C197.35,55.5333333 198.1,56.5 198.2,57.8 C198.566667,60.1666667 196.3,61.4833333 191.4,61.75 L181.75,61.75 L178.95,61.4 C178.416667,61.1333333 177.766667,60.5 177,59.5 L170.65,51.45 L169.55,49.95 C168.983333,49.2166667 168.5,48.8166667 168.1,48.75 C167.733333,48.7833333 167.516667,49.05 167.45,49.55 L167.4,50.65 C167.433333,53.4166667 167.866667,54.9666667 168.7,55.3 C169.566667,55.6666667 170.066667,56.5166667 170.2,57.85 C170.4,58.8833333 169.866667,59.9 168.6,60.9 C167.366667,61.9333333 164.183333,62.4833333 159.05,62.55 L151,62.1 C148.566667,61.7 147.266667,60.4166667 147.1,58.25 C147.266667,56.9166667 147.866667,56.1166667 148.9,55.85 C149.966667,55.6166667 150.633333,54.2 150.9,51.6 L151.25,43.85 L151.45,37.4 L151.45,27.7 C151.216667,25.3 150.333333,24.15 148.8,24.25 C147.3,24.35 146.433333,23.6166667 146.2,22.05 C146.366667,20.5166667 147.75,19.1666667 150.35,18 C152.95,16.8333333 155.733333,15.9166667 158.7,15.25 L165.3,14.2 M291.8,121.45 C291.933333,121.983333 292.483333,122.516667 293.45,123.05 C293.316667,122.283333 292.766667,121.75 291.8,121.45 M238.35,147.6 L237.55,147.6 L238.4,149.4 L238.35,147.6 M174.15,130.45 C175.45,131.016667 176.766667,131.316667 178.1,131.35 C181.7,131.15 184.5,130.4 186.5,129.1 C188.5,127.8 190,127.05 191,126.85 C192.033333,126.95 192.916667,127.55 193.65,128.65 C194.383333,129.716667 194.766667,130.766667 194.8,131.8 C194.4,135.533333 191.766667,138.566667 186.9,140.9 C182,143.2 177.233333,144.383333 172.6,144.45 C163.966667,144.216667 157.45,141.616667 153.05,136.65 C148.616667,131.716667 146.4,125.95 146.4,119.35 C146.633333,112.016667 149.333333,106.033333 154.5,101.4 C159.7,96.8 165.983333,94.4166667 173.35,94.25 C181.483333,94.6166667 187.45,96.9833333 191.25,101.35 C195.083333,105.683333 196.983333,109.733333 196.950431,113.5 C196.883333,116.633333 196.266667,118.65 195.1,119.55 C193.9,120.483333 192.516667,120.916667 190.95,120.85 L170.2,120.85 C168.866667,120.45 168.033333,120.916667 167.7,122.25 C167.8,124.383333 168.65,126.216667 170.25,127.75 C171.616667,126.816667 173.35,125.85 175.45,124.85 C180.05,122.616667 182.966667,121.733333 184.2,122.2 L184.6,122.45 C184.833333,122.616667 184.95,123.2 184.95,124.2 C184.95,125.666667 182.616667,127.316667 177.95,129.15 L174.15,130.45 M169.1,111.45 L172.8,111.45 L176.45,111.35 C177.583333,111.183333 178.183333,110.35 178.25,108.85 C178.15,105.35 176.333333,103.45 172.8,103.15 C171.233333,103.216667 169.916667,103.85 168.85,105.05 C167.783333,106.183333 167.233333,107.483333 167.2,108.95 C167.3,110.483333 167.933333,111.316667 169.1,111.45 M212.35,152.3 C211.016667,152.2 209.633333,151.65 208.2,150.65 L212.35,152.3 M52.5,21.05 C56.3,25.7166667 58.1166667,31.2 57.95,37.5 C58.0166667,44 56.0666667,49.6666667 52.1,54.5 C48.1333333,59.2666667 41.8666667,61.7666667 33.3,62 L25.75,61.9 L19.85,61.75 L14.05,61.8 L8.25,62 C7.01666667,62 5.85,61.7 4.75,61.1 C3.68333333,60.4666667 3.1,59.4666667 3,58.1 C3.06666667,56.6 3.53333333,55.7833333 4.4,55.65 C5.26666667,55.5166667 6.15,55.1166667 7.05,54.45 C7.95,53.75 8.46666667,51.8333333 8.6,48.7 L9.15,25.3 C9.11666667,23.0666667 8.7,21.6666667 7.9,21.1 C7.1,20.5 6.3,20.0666667 5.5,19.8 C4.66666667,19.4666667 4.21666667,18.6333333 4.15,17.3 C4.28333333,15.7666667 5.05,14.7666667 6.45,14.3 C7.85,13.8333333 9.2,13.6166667 10.5,13.65 L32.8,13.65 C42.1666667,13.9166667 48.7333333,16.3833333 52.5,21.05 M26,22 C25.6666667,22.6 25.5333333,23.5333333 25.6,24.8 L25.6,50 C25.5333333,51.7 25.7666667,52.9333333 26.3,53.7 C26.8333333,54.5 28,54.8833333 29.8,54.85 C34,54.6166667 36.7666667,52.8833333 38.1,49.65 C39.4333333,46.4166667 40.05,43 39.95,39.4 C39.7833333,31.7333333 38.55,26.7166667 36.25,24.35 C33.95,21.95 31.4166667,20.8666667 28.65,21.1 C27.25,21.1 26.3666667,21.4 26,22 M23.25,74.7 C32.5166667,74.9666667 38.3166667,75.7 40.65,76.9 C42.9166667,78.1333333 43.8666667,79.5666667 43.5,81.2 C43.2,83.5333333 41.9333333,84.8333333 39.7,85.1 C37.5,85.4333333 36.2333333,87.6 35.9,91.6 L35.9,122.2 C35.8,125.633333 36.2833333,128.2 37.35,129.9 C38.3833333,131.6 40.55,132.45 43.85,132.45 C49.1166667,132.283333 52.55,131.133333 54.15,129 C55.7833333,126.866667 56.85,124.716667 57.35,122.55 C57.8166667,120.416667 58.9666667,119.266667 60.8,119.1 C62.9333333,119.233333 64.4666667,120.15 65.4,121.85 C66.3333333,123.583333 66.7833333,125.416667 66.75,127.35 C66.6166667,131.35 65.5333333,135.15 63.5,138.75 C61.4666667,142.316667 59.2833333,144.216667 56.95,144.45 L52.15,143.6 L44.95,142.95 L12.75,142.95 L7.6,142.5 C5.83333333,142.1 4.9,140.866667 4.8,138.8 C4.86666667,137 5.5,135.916667 6.7,135.55 C7.93333333,135.15 9.16666667,134.483333 10.4,133.55 C11.6666667,132.583333 12.3666667,130.333333 12.5,126.8 C12.7,119.833333 12.7833333,113.55 12.75,107.95 L12.05,91.45 C11.6166667,87.85 10.1666667,85.9666667 7.7,85.8 C5.2,85.6333333 3.76666667,84.4 3.4,82.1 C3.56666667,79.8 4.93333333,78.1166667 7.5,77.05 C10.1,76.0166667 12.95,75.3666667 16.05,75.1 L23.25,74.7 M64.9,42.15 C64.8333333,38.8166667 64.4166667,36.7 63.65,35.8 C62.9166667,34.9333333 62.1666667,34.3833333 61.4,34.15 C60.6666667,33.9166667 60.2666667,33.1166667 60.2,31.75 C60.4,30.35 61.8833333,29.3166667 64.65,28.65 L73.05,27.4 L77.9,27.2 C79.5333333,27.2333333 80.2166667,28.1 79.95,29.8 L79.95,47.1 C79.8833333,48.6 80.0833333,50.1 80.55,51.6 C81.0166667,53.1333333 82.1333333,53.95 83.9,54.05 C86.2666667,53.85 87.6166667,52.65 87.95,50.45 C88.2833333,48.25 88.3833333,46.2333333 88.25,44.4 C88.3166667,41.9 88.2166667,39.4333333 87.95,37 C87.55,35.4666667 86.8333333,34.55 85.8,34.25 C84.7333333,33.95 84.1333333,33.1666667 84,31.9 C84.1333333,30.6 85.35,29.6 87.65,28.9 C89.95,28.2333333 92.3833333,27.7833333 94.95,27.55 L100.3,27.2 C102.7,27.3 103.866667,28.5833333 103.8,31.05 L103.65,37.5 L103.65,51.2 C103.816667,53 104.433333,54 105.5,54.2 C106.6,54.4333333 107.233333,55.25 107.4,56.65 C107.266667,58.1833333 106.183333,59.3666667 104.15,60.2 C102.083333,61.0666667 99.8166667,61.6833333 97.35,62.05 L91.6,62.55 C89.3,62.3833333 88.25,61.7 88.45,60.5 C88.6166667,59.3333333 88.1833333,58.6833333 87.15,58.55 L83.6,60.5 C81.9666667,61.7 79.6666667,62.3833333 76.7,62.55 C70.5666667,62.3166667 66.9833333,60.1833333 65.95,56.15 C64.9166667,52.1166667 64.5666667,47.45 64.9,42.15 M133.4,42.15 L131.75,38.15 C131.316667,36.8166667 130.25,36.1 128.55,36 C127.05,36.0666667 125.916667,36.6666667 125.15,37.8 C124.35,38.9666667 123.95,40.25 123.95,41.65 C123.983333,44.25 124.833333,46.55 126.5,48.55 C128.133333,50.5166667 130.316667,51.55 133.05,51.65 C135.15,51.5833333 136.7,51.3 137.7,50.8 L140.15,49.95 C141.116667,49.9833333 141.866667,50.3833333 142.4,51.15 C142.966667,51.8833333 143.25,52.7 143.25,53.6 C143.183333,55.7333333 141.766667,57.7666667 139,59.7 C136.233333,61.6333333 132.433333,62.6666667 127.6,62.8 C122.333333,62.7 117.95,61.0166667 114.45,57.75 C110.983333,54.45 109.183333,50.1666667 109.05,44.9 C109.183333,39.9333333 111.083333,35.7833333 114.75,32.45 C118.383333,29.0833333 123.133333,27.3333333 129,27.2 C134.066667,27.3333333 137.916667,28.4833333 140.55,30.65 C143.183333,32.8166667 144.516667,35.15 144.55,37.65 C144.216667,41.75 142,43.9666667 137.9,44.3 C135.566667,44.1666667 134.066667,43.45 133.4,42.15 M144.75,87.9 C144.316667,92.3333333 141.883333,94.7666667 137.45,95.2 C133.516667,94.8333333 130.666667,93.4166667 128.9,90.95 C127.166667,88.45 125.066667,87.0333333 122.6,86.7 C120.533333,86.9 119.433333,88.0333333 119.3,90.1 C119.666667,92.9666667 121.4,95.2166667 124.5,96.85 C127.6,98.45 129.766667,100.216667 131,102.15 C131.1,102.883333 131.55,103.233333 132.35,103.2 L138.55,103.05 C140.55,103.05 141.583333,103.716667 141.65,105.05 L141.2,112.05 C140.966667,113.316667 140.116667,113.866667 138.65,113.7 C135.916667,113.533333 134.1,113.766667 133.2,114.4 C132.366667,115.066667 131.983333,116.916667 132.05,119.95 C132.016667,122.883333 132.333333,125.716667 133,128.45 C134.133333,130.95 135.766667,132.366667 137.9,132.7 C140.1,133 141.316667,134.466667 141.55,137.1 C141.983333,138.366667 141.05,139.816667 138.75,141.45 C136.45,143.05 130.116667,143.933333 119.75,144.1 L109.6,143.2 C105.5,142.466667 103.233333,140.5 102.8,137.3 C103.066667,134.933333 104.2,133.533333 106.2,133.1 C108.2,132.633333 109.45,131.116667 109.95,128.55 L110.7,118.2 C111.033333,115.2 109.75,113.7 106.85,113.7 L104.35,113.7 C103.35,113.666667 102.8,113.25 102.7,112.45 L102.8,105.35 C102.933333,104.283333 103.666667,103.766667 105,103.8 C106.5,103.966667 107.366667,103.366667 107.6,102 C107.433333,101.1 106.816667,99.75 105.75,97.95 C104.683333,96.1166667 104.083333,93.7333333 103.95,90.8 C104.216667,85.1333333 106.6,81.15 111.1,78.85 C115.566667,76.5166667 120.35,75.3833333 125.45,75.45 C133.116667,75.7166667 138.283333,77.2833333 140.95,80.15 C143.65,83.0166667 144.916667,85.6 144.75,87.9 M95.25,98.4 L95.25,125.25 C95.3166667,128.85 95.8166667,131.216667 96.75,132.35 C97.65,133.45 98.55,134.2 99.45,134.6 C100.383333,135 100.883333,135.983333 100.95,137.55 C100.516667,140.683333 98.2833333,142.6 94.25,143.3 L84.35,144.1 C76.3833333,144 71.4166667,143.266667 69.45,141.9 C67.55,140.566667 66.7666667,139.283333 67.1,138.05 C67.2,136.45 67.9,135.266667 69.2,134.5 C70.4333333,133.8 71.4166667,132.75 72.15,131.35 C72.7833333,129.283333 73.1333333,125.85 73.2,121.05 C73.2666667,116.25 73.0333333,112.75 72.5,110.55 C71.9333333,109.05 70.8833333,108.05 69.35,107.55 C67.8166667,107.083333 66.9666667,105.866667 66.8,103.9 C67.0666667,101.666667 69.2,99.8166667 73.2,98.35 C77.1666667,96.9166667 81.1666667,95.8666667 85.2,95.2 L92.25,94.2 C94.7166667,94.6 95.7166667,96 95.25,98.4 M67.8,161.85 C69.75,161.85 71.65,162.35 73.45,163.1 C77.7,164.9 80.35,168.3 81,172.1 C81.5,175.3 81.35,175.9 79.65,177 C78.25,177.9 73.25,178.65 65.65,177.55 C65.5,177.45 65.3,177.45 65.1,177.45 C64.5,177.55 64.15,178.1 64.45,179 C64.65,179.8 65,180.35 66,181.45 C68.2,183.95 71.7,184.15 76.7,181.4 C76.95,181.25 77.15,181.15 77.35,181 C77.5,180.9 77.75,180.9 78.45,181.2 C79.15,181.5 79.75,182.15 80.05,183 C80.5,184.45 79.65,186.05 76.3,188.3 C73.45,190.2 69.45,191.2 64.9,190.6 C59.5,189.95 55.7,187.15 53.7,182.05 C53.15,180.65 52.8,179.2 52.7,177.8 C52.65,177.3 52.65,176.85 52.65,176.35 C52.75,171.1 55.3,166.8 60.4,163.95 C62.75,162.65 65.3,161.9 67.8,161.85 Z M199.6,161.85 C201.55,161.85 203.45,162.35 205.25,163.1 C209.5,164.9 212.15,168.3 212.8,172.1 C213.3,175.3 213.15,175.9 211.45,177 C210.05,177.9 205.05,178.65 197.45,177.55 C197.3,177.45 197.1,177.45 196.9,177.45 C196.3,177.55 195.95,178.1 196.25,179 C196.45,179.8 196.8,180.35 197.8,181.45 C200,183.95 203.5,184.15 208.5,181.4 C208.75,181.25 208.95,181.15 209.15,181 C209.3,180.9 209.55,180.9 210.25,181.2 C210.95,181.5 211.55,182.15 211.85,183 C212.3,184.45 211.45,186.05 208.1,188.3 C205.25,190.2 201.25,191.2 196.7,190.6 C191.3,189.95 187.5,187.15 185.5,182.05 C184.95,180.65 184.6,179.2 184.5,177.8 C184.45,177.3 184.45,176.85 184.45,176.35 C184.55,171.1 187.1,166.8 192.2,163.95 C194.55,162.65 197.1,161.9 199.6,161.85 Z M175.1,162.7 C175.7,162.6 176.4,162.55 177.25,162.6 C178.6,162.6 179.25,162.7 179.9,162.8 C182.25,163.35 182.95,164.55 182.45,165.6 C182,166.65 181.7,166.8 179.65,168 C179.15,168.3 178.6,168.75 177,171 C176.55,171.65 175.95,172.55 174.85,174.4 C174.2,175.5 173.9,175.9 173.7,176.1 C173.55,176.25 173.65,176.5 174.65,177.95 L176.5,180.5 L176.95,181.15 L177.35,181.75 L178.35,183 C179.4,184.45 179.8,184.7 181.65,185.4 C182.25,185.55 182.65,186.05 182.8,186.8 C183.1,188.25 182.2,189.3 178.95,190.15 C177.5,190.55 175,190.8 171.35,190.75 C165.1,190.7 163.8,190.4 162.75,189.5 C161.65,188.55 161.75,186.8 163.2,186 C163.35,185.95 163.45,185.85 163.6,185.8 C163.9,185.65 164.15,185.15 164.05,184.35 L164.05,184.3 L163.1,182.6 C162.65,181.8 162.4,181.3 162.3,180.95 C162.3,180.85 162.2,180.75 162.1,180.7 C161.55,180.5 160.65,180.9 159.45,183.7 C158.75,185.45 158.8,185.5 159.8,187.15 C160.45,188.15 159.55,190.1 157.8,190.45 C157.15,190.6 156.25,190.7 155.1,190.75 L153.1,190.75 C149.75,190.7 148.7,190.05 148.25,189 C147.65,187.7 148.2,186.6 150,186.1 C151.95,185.6 152,185.5 153.45,182.75 C154.15,181.5 154.8,180.4 155.5,179.5 C158.75,174.95 158.85,175.1 154.05,170.5 C152.1,168.6 152.65,168.85 150.45,168.5 C149.9,168.4 149.35,168 148.95,167.25 C148.3,165.9 149.1,164.3 151.75,163.45 C153,163.05 155.8,162.7 160.85,162.6 L163.4,162.6 L164,162.65 L165.65,162.75 C169,163 169.9,164.6 168.65,167.25 C168.55,167.45 168.5,167.6 168.35,167.8 C168.2,168 168.25,168.3 168.95,169.35 L169.5,170.3 L169.8,170.75 C170.25,171.4 170.35,171.4 170.9,170.65 C171.95,169.25 172.2,168.4 171.75,166.8 C171.05,164 171.4,163.35 175.1,162.7 Z M139.8,162.4 C140.1,162.4 140.4,162.4 140.75,162.45 C143.1,162.6 143.45,163.15 143.3,165.8 L143.3,166.15 L143.25,168.25 L143.25,172.95 C143.25,173.065625 143.25,173.17876 143.249997,173.289474 L143.249341,174.777466 C143.246484,177.072461 143.23125,177.96875 143.15,178.7 C142.95,181.95 143.05,182.5 143.35,182.85 L143.45,182.9 L145,183.75 C146.45,184.45 146.85,185.8 146.05,186.9 C145.5,187.8 144.8,188.3 142.7,189.15 C142.35,189.25 142.05,189.35 141.7,189.45 L140.8,189.7 L139.25,190.1 C138.5,190.3 137.75,190.4 137,190.5 C132.7,190.9 131.75,190.6 131.35,190.05 L131.25,188.5 C131.1,187 130.45,186.5 129.8,186.8 L128.9,187.65 C128.65,187.95 128.3,188.25 127.35,188.8 C125.4,190.1 123.9,190.6 122.25,190.7 C114.5,191.15 112.15,187.65 112.15,175.55 C112.15,174 112.2,172.4 112.25,170.8 C112.3,170.7 112.25,170.6 112.15,170.25 C112.05,170 111.9,169.7 111.7,169.45 C111.3,168.95 111,168.7 109.75,168.2 C109.45,168.1 109.15,167.7 108.85,166.95 C108.7,166.55 108.7,166.2 108.75,165.8 C108.95,164.85 109.6,164.35 112.2,163.65 C112.85,163.45 114.45,163.2 117.05,162.9 C124.85,162 125.1,162.15 124.8,166 C124.642105,167.855263 124.546537,170.115651 124.537899,174.035902 L124.53794,175.263028 C124.539439,175.973823 124.543421,176.734211 124.55,177.55 L124.55,178.35 L124.6,179.8 C124.7,182.75 126.55,184.1 128.8,183.3 C130.75,182.6 131.45,180.8 131.1,173.1 L131.05,171.8 L130.9,170.85 C130.8,169.35 130.35,168.7 128.55,167.4 C128.1,167.1 127.85,166.4 128.15,165.45 C128.3,164.9 128.75,164.4 129.8,163.75 C130.65,163.3 132.55,162.8 135.9,162.6 L138.15,162.5 Z M98.8,151.8 C101.85,151.55 102.15,151.9 102.1,155.5 L102.05,156.95 L101.85,165.4 C101.8,166.4 101.8,167.65 101.85,169.35 L102.05,175.55 L102.15,178.95 L102.25,180.7 L102.25,181 L102.45,182.85 C102.6,184.25 102.95,184.7 104.8,185.65 C105.35,185.9 105.65,187.2 104.4,188.5 C103.95,189 103.4,189.4 102.2,189.8 C100.95,190.2 98.5,190.55 94.2,190.5 C93.75,190.45 93.3,190.45 92.85,190.4 L92.7,190.4 L90.25,190 C87.95,189.65 87.15,189.35 86.55,188.7 C85.25,187.55 85.35,185.7 86.4,185.1 C86.9,184.8 87.4,184.55 87.95,184.35 L88.0152733,184.31608 C88.7233997,183.907526 89.1073529,182.263235 89.35,172.8 C89.3933333,170.98 89.4246489,169.455938 89.4291047,168.172872 L89.4292,167.5976 C89.41,162.012 88.77,161.38 86.05,160.3 C85.45,160.05 85,159.55 84.75,158.8 C84.55,158.15 84.65,157.35 85.15,156.5 C85.95,155.1 88.15,153.75 94.4,152.3 C95,152.15 95.65,152.05 96.3,152 Z M27.55,151.2 C31.0017241,151.2 32.484126,151.400951 33.9429681,151.694756 L34.2800914,151.764156 L34.45,151.8 C41.3,153.2 45.45,156.6 47.9,163.2 C49.05,166.15 49.45,169.45 49.15,172.8 C49,174.45 48.7,176.05 48.1,177.55 C45.9,184 42.1,187.45 35.7,189.15 C34.85,189.3 34,189.5 33.1,189.6 C32.8511111,189.631111 32.626321,189.659062 32.4135144,189.684098 L32.2559671,189.702332 C32.2040741,189.70823 32.1527407,189.713951 32.1017778,189.719496 L31.9498107,189.735614 C31.8993992,189.740814 31.8491687,189.745844 31.79893,189.750707 L31.648,189.7648 C31.4966667,189.7784 31.3435556,189.790533 31.1835556,189.801304 L31.02107,189.811624 C30.3329012,189.852762 29.4955556,189.870838 28.1393056,189.873354 L27.2603292,189.873056 C25.1134321,189.86842 21.87,189.837778 16.6,189.8 C13.4,189.75 11.1,189.85 9.2,190 C8.9,190 8.6,190 8.35,189.9 C5.65,189.3 4.65,187.85 5.05,186.15 C5.3,185 5.5,184.9 7.55,184.1 C9.3,183.45 9.2,182.9 9.3,173.85 C9.31071429,172.939286 9.31683673,172.106633 9.31787536,171.341709 L9.31720117,170.59898 C9.30918367,168.195918 9.24285714,166.507143 9.1,165.15 C8.7,158.35 8.8,158.1 5.75,156.6 C5.5,156.45 5.25,156.05 5.05,155.1 C4.65,153.4 5.55,152.45 8.7,151.8 C8.9,151.75 9.2,151.75 9.4,151.7 L9.65,151.7 L11.65,151.6 C18.6095238,151.247619 23.1632086,151.205669 26.3365849,151.200675 L27.3186872,151.200005 Z M26.9,158.35 C23.6,157.4 22.8,158.05 22.9,159.95 C23.05,163.7 23,167.7 22.8,171.8 C22.7011236,173.804494 22.6361823,175.495493 22.6295789,176.913377 L22.6298849,177.43236 C22.6669928,183.424031 23.9129213,184.137079 28.5,183.1 C31.75,182.4 34.5,178.2 34.05,169.85 C34,168.8 33.85,167.8 33.65,166.95 C32.2,161 30.8,159.35 26.9,158.35 Z M69.55,167.85 C68,166.55 65.8,166.9 64.6,169 C64.45,169.35 64.3,169.7 64.25,170.1 C63.8,172.3 64.05,172.35 67.5,172.2 L68.9,172.15 L69.05,172.15 C70.7,171.9 71.1,171.25 70.3,169.1 C70.15,168.65 69.9,168.3 69.55,167.85 Z M201.35,167.85 C199.8,166.55 197.6,166.9 196.4,169 C196.25,169.35 196.1,169.7 196.05,170.1 C195.6,172.3 195.85,172.35 199.3,172.2 L200.7,172.15 L200.85,172.15 C202.5,171.9 202.9,171.25 202.1,169.1 C201.95,168.65 201.7,168.3 201.35,167.85 Z M91.7,77.05 C93.7,77.8833333 94.7833333,79.4833333 94.95,81.85 C94.4833333,85.45 92.05,87.95 87.65,89.35 C83.2833333,90.7166667 79.5,91.45 76.3,91.55 C74.2,91.5833333 72.3,91.0666667 70.6,90 C68.9,88.9333333 68.0166667,87.1666667 67.95,84.7 C68.3833333,81.5666667 70.7,79.3 74.9,77.9 C79.1333333,76.5 82.6833333,75.8166667 85.55,75.85 C87.65,75.7833333 89.7,76.1833333 91.7,77.05 Z" id="Shape" fill="#000000"></path>
            <path d="M217.5,15.9 C219.333333,13.3666667 221.533333,10.8 224.1,8.2 L234.1,3.8 L245.85,2.75 C249.15,2.25 252.5,1.33333333 255.9,0 L266.9,4 C270.366667,5 273.783333,6.38333333 277.15,8.15 L286.45,12.95 C288.316667,15.65 290.616667,18.3833333 293.35,21.15 L296.9,27.4 L300.1,44.65 L294.25,65.35 L287.6,76.3 C285.533333,79.7 283.05,82.45 280.15,84.55 C278.35,87.45 276.15,90.3333333 273.55,93.2 L240.1,120.4 L264.65,117.7 C268.15,116.266667 272.05,115.983333 276.35,116.85 L288.05,115.75 C291.45,115.883333 295.116667,116.4 299.05,117.3 C299.516667,118.966667 299.916667,121.7 300.25,125.5 L302.05,133.05 L300.4,135.5 C300.466667,138.5 299.983333,141.633333 298.95,144.9 L292.95,145.8 L293.8,144.15 L291.3,144.2 L291.35,145.05 L277.9,146.05 L269.5,147 C268.333333,146.966667 267.466667,146.45 266.9,145.45 L246.85,150.85 L239.3,151.8 L236.75,150.1 L226.65,149.6 L220.8,151.3 L218.2,148.8 C215.4,148.733333 212.3,148.233333 208.9,147.3 C207.533333,145.5 206.366667,143.266667 205.4,140.6 L204.45,129.8 C203.85,126.366667 202.683333,123.816667 200.95,122.15 L203.4,117.9 L210.9,112.75 C212.666667,109.883333 214.816667,107.083333 217.35,104.35 C219.483333,101.883333 221.983333,99.5833333 224.85,97.45 C227.15,96.05 229.066667,94.0166667 230.6,91.35 L249.85,77.5 L258.1,69.6 C268.333333,58.7 271.716667,49.5333333 268.25,42.1 L263.3,36.05 C261.2,33.85 258.633333,31.6833333 255.6,29.55 L247.15,28.75 L244.7,29.75 C242.2,31.65 239.133333,33.4833333 235.5,35.25 L230.15,45.8 C228.783333,49.8333333 227.9,54.0833333 227.5,58.55 L225.05,62.9 L223.3,62.95 L214.05,60.55 L210.7,61.5 L208.2,63.2 C208.066667,64 207.55,64.6 206.65,65 L207.35,63.2 L206.6,63.25 L203.1,55.7 L203.65,43.1 C204.05,39.8666667 204.866667,36.4666667 206.1,32.9 L210,22.65 L217.5,15.9 M165.3,14.2 C166.9,14.3 167.533333,15.15 167.2,16.75 L166.85,31.1 C166.483333,35.3 166.983333,37.3166667 168.35,37.15 C169.05,37.0833333 170.1,36.65 171.5,35.85 C172.866667,35.0833333 173.633333,34.4166667 173.8,33.85 L173.15,32.55 C172.75,32.15 172.516667,31.6166667 172.45,30.95 C172.683333,29.25 173.933333,28.1833333 176.2,27.75 L181.8,27.2 L188,27.8 C190.466667,28.2666667 191.833333,29.5 192.1,31.5 C192.066667,32.8666667 191.466667,33.6333333 190.3,33.8 C189.133333,33.9666667 187.516667,34.5833333 185.45,35.65 L183.5,36.7 C182.633333,37.2333333 182.166667,37.7333333 182.1,38.2 C182.4,39.3666667 183.783333,41.55 186.25,44.75 L191.4,51.2 C193,52.9666667 194.516667,54.2 195.95,54.9 C197.35,55.5333333 198.1,56.5 198.2,57.8 C198.566667,60.1666667 196.3,61.4833333 191.4,61.75 L181.75,61.75 L178.95,61.4 C178.416667,61.1333333 177.766667,60.5 177,59.5 L170.65,51.45 L169.55,49.95 C168.983333,49.2166667 168.5,48.8166667 168.1,48.75 C167.733333,48.7833333 167.516667,49.05 167.45,49.55 L167.4,50.65 C167.433333,53.4166667 167.866667,54.9666667 168.7,55.3 C169.566667,55.6666667 170.066667,56.5166667 170.2,57.85 C170.4,58.8833333 169.866667,59.9 168.6,60.9 C167.366667,61.9333333 164.183333,62.4833333 159.05,62.55 L151,62.1 C148.566667,61.7 147.266667,60.4166667 147.1,58.25 C147.266667,56.9166667 147.866667,56.1166667 148.9,55.85 C149.966667,55.6166667 150.633333,54.2 150.9,51.6 L151.25,43.85 L151.45,37.4 L151.45,27.7 C151.216667,25.3 150.333333,24.15 148.8,24.25 C147.3,24.35 146.433333,23.6166667 146.2,22.05 C146.366667,20.5166667 147.75,19.1666667 150.35,18 C152.95,16.8333333 155.733333,15.9166667 158.7,15.25 L165.3,14.2 M291.8,121.45 C291.933333,121.983333 292.483333,122.516667 293.45,123.05 C293.316667,122.283333 292.766667,121.75 291.8,121.45 M238.35,147.6 L237.55,147.6 L238.4,149.4 L238.35,147.6 M174.15,130.45 C175.45,131.016667 176.766667,131.316667 178.1,131.35 C181.7,131.15 184.5,130.4 186.5,129.1 C188.5,127.8 190,127.05 191,126.85 C192.033333,126.95 192.916667,127.55 193.65,128.65 C194.383333,129.716667 194.766667,130.766667 194.8,131.8 C194.4,135.533333 191.766667,138.566667 186.9,140.9 C182,143.2 177.233333,144.383333 172.6,144.45 C163.966667,144.216667 157.45,141.616667 153.05,136.65 C148.616667,131.716667 146.4,125.95 146.4,119.35 C146.633333,112.016667 149.333333,106.033333 154.5,101.4 C159.7,96.8 165.983333,94.4166667 173.35,94.25 C181.483333,94.6166667 187.45,96.9833333 191.25,101.35 C195.083333,105.683333 196.983333,109.733333 196.950431,113.5 C196.883333,116.633333 196.266667,118.65 195.1,119.55 C193.9,120.483333 192.516667,120.916667 190.95,120.85 L170.2,120.85 C168.866667,120.45 168.033333,120.916667 167.7,122.25 C167.8,124.383333 168.65,126.216667 170.25,127.75 M169.1,111.45 L172.8,111.45 L176.45,111.35 C177.583333,111.183333 178.183333,110.35 178.25,108.85 C178.15,105.35 176.333333,103.45 172.8,103.15 C171.233333,103.216667 169.916667,103.85 168.85,105.05 C167.783333,106.183333 167.233333,107.483333 167.2,108.95 C167.3,110.483333 167.933333,111.316667 169.1,111.45 M52.5,21.05 C56.3,25.7166667 58.1166667,31.2 57.95,37.5 C58.0166667,44 56.0666667,49.6666667 52.1,54.5 C48.1333333,59.2666667 41.8666667,61.7666667 33.3,62 L25.75,61.9 L19.85,61.75 L14.05,61.8 L8.25,62 C7.01666667,62 5.85,61.7 4.75,61.1 C3.68333333,60.4666667 3.1,59.4666667 3,58.1 C3.06666667,56.6 3.53333333,55.7833333 4.4,55.65 C5.26666667,55.5166667 6.15,55.1166667 7.05,54.45 C7.95,53.75 8.46666667,51.8333333 8.6,48.7 L9.15,25.3 C9.11666667,23.0666667 8.7,21.6666667 7.9,21.1 C7.1,20.5 6.3,20.0666667 5.5,19.8 C4.66666667,19.4666667 4.21666667,18.6333333 4.15,17.3 C4.28333333,15.7666667 5.05,14.7666667 6.45,14.3 C7.85,13.8333333 9.2,13.6166667 10.5,13.65 L32.8,13.65 C42.1666667,13.9166667 48.7333333,16.3833333 52.5,21.05 M26,22 C25.6666667,22.6 25.5333333,23.5333333 25.6,24.8 L25.6,50 C25.5333333,51.7 25.7666667,52.9333333 26.3,53.7 C26.8333333,54.5 28,54.8833333 29.8,54.85 C34,54.6166667 36.7666667,52.8833333 38.1,49.65 C39.4333333,46.4166667 40.05,43 39.95,39.4 C39.7833333,31.7333333 38.55,26.7166667 36.25,24.35 C33.95,21.95 31.4166667,20.8666667 28.65,21.1 C27.25,21.1 26.3666667,21.4 26,22 M23.25,74.7 C32.5166667,74.9666667 38.3166667,75.7 40.65,76.9 C42.9166667,78.1333333 43.8666667,79.5666667 43.5,81.2 C43.2,83.5333333 41.9333333,84.8333333 39.7,85.1 C37.5,85.4333333 36.2333333,87.6 35.9,91.6 L35.9,122.2 C35.8,125.633333 36.2833333,128.2 37.35,129.9 C38.3833333,131.6 40.55,132.45 43.85,132.45 C49.1166667,132.283333 52.55,131.133333 54.15,129 C55.7833333,126.866667 56.85,124.716667 57.35,122.55 C57.8166667,120.416667 58.9666667,119.266667 60.8,119.1 C62.9333333,119.233333 64.4666667,120.15 65.4,121.85 C66.3333333,123.583333 66.7833333,125.416667 66.75,127.35 C66.6166667,131.35 65.5333333,135.15 63.5,138.75 C61.4666667,142.316667 59.2833333,144.216667 56.95,144.45 L52.15,143.6 L44.95,142.95 L12.75,142.95 L7.6,142.5 C5.83333333,142.1 4.9,140.866667 4.8,138.8 C4.86666667,137 5.5,135.916667 6.7,135.55 C7.93333333,135.15 9.16666667,134.483333 10.4,133.55 C11.6666667,132.583333 12.3666667,130.333333 12.5,126.8 C12.7,119.833333 12.7833333,113.55 12.75,107.95 L12.05,91.45 C11.6166667,87.85 10.1666667,85.9666667 7.7,85.8 C5.2,85.6333333 3.76666667,84.4 3.4,82.1 C3.56666667,79.8 4.93333333,78.1166667 7.5,77.05 C10.1,76.0166667 12.95,75.3666667 16.05,75.1 L23.25,74.7 M64.9,42.15 C64.8333333,38.8166667 64.4166667,36.7 63.65,35.8 C62.9166667,34.9333333 62.1666667,34.3833333 61.4,34.15 C60.6666667,33.9166667 60.2666667,33.1166667 60.2,31.75 C60.4,30.35 61.8833333,29.3166667 64.65,28.65 L73.05,27.4 L77.9,27.2 C79.5333333,27.2333333 80.2166667,28.1 79.95,29.8 L79.95,47.1 C79.8833333,48.6 80.0833333,50.1 80.55,51.6 C81.0166667,53.1333333 82.1333333,53.95 83.9,54.05 C86.2666667,53.85 87.6166667,52.65 87.95,50.45 C88.2833333,48.25 88.3833333,46.2333333 88.25,44.4 C88.3166667,41.9 88.2166667,39.4333333 87.95,37 C87.55,35.4666667 86.8333333,34.55 85.8,34.25 C84.7333333,33.95 84.1333333,33.1666667 84,31.9 C84.1333333,30.6 85.35,29.6 87.65,28.9 C89.95,28.2333333 92.3833333,27.7833333 94.95,27.55 L100.3,27.2 C102.7,27.3 103.866667,28.5833333 103.8,31.05 L103.65,37.5 L103.65,51.2 C103.816667,53 104.433333,54 105.5,54.2 C106.6,54.4333333 107.233333,55.25 107.4,56.65 C107.266667,58.1833333 106.183333,59.3666667 104.15,60.2 C102.083333,61.0666667 99.8166667,61.6833333 97.35,62.05 L91.6,62.55 C89.3,62.3833333 88.25,61.7 88.45,60.5 C88.6166667,59.3333333 88.1833333,58.6833333 87.15,58.55 L83.6,60.5 C81.9666667,61.7 79.6666667,62.3833333 76.7,62.55 C70.5666667,62.3166667 66.9833333,60.1833333 65.95,56.15 C64.9166667,52.1166667 64.5666667,47.45 64.9,42.15 M133.4,42.15 L131.75,38.15 C131.316667,36.8166667 130.25,36.1 128.55,36 C127.05,36.0666667 125.916667,36.6666667 125.15,37.8 C124.35,38.9666667 123.95,40.25 123.95,41.65 C123.983333,44.25 124.833333,46.55 126.5,48.55 C128.133333,50.5166667 130.316667,51.55 133.05,51.65 C135.15,51.5833333 136.7,51.3 137.7,50.8 L140.15,49.95 C141.116667,49.9833333 141.866667,50.3833333 142.4,51.15 C142.966667,51.8833333 143.25,52.7 143.25,53.6 C143.183333,55.7333333 141.766667,57.7666667 139,59.7 C136.233333,61.6333333 132.433333,62.6666667 127.6,62.8 C122.333333,62.7 117.95,61.0166667 114.45,57.75 C110.983333,54.45 109.183333,50.1666667 109.05,44.9 C109.183333,39.9333333 111.083333,35.7833333 114.75,32.45 C118.383333,29.0833333 123.133333,27.3333333 129,27.2 C134.066667,27.3333333 137.916667,28.4833333 140.55,30.65 C143.183333,32.8166667 144.516667,35.15 144.55,37.65 C144.216667,41.75 142,43.9666667 137.9,44.3 C135.566667,44.1666667 134.066667,43.45 133.4,42.15 M144.75,87.9 C144.316667,92.3333333 141.883333,94.7666667 137.45,95.2 C133.516667,94.8333333 130.666667,93.4166667 128.9,90.95 C127.166667,88.45 125.066667,87.0333333 122.6,86.7 C120.533333,86.9 119.433333,88.0333333 119.3,90.1 C119.666667,92.9666667 121.4,95.2166667 124.5,96.85 C127.6,98.45 129.766667,100.216667 131,102.15 C131.1,102.883333 131.55,103.233333 132.35,103.2 L138.55,103.05 C140.55,103.05 141.583333,103.716667 141.65,105.05 L141.2,112.05 C140.966667,113.316667 140.116667,113.866667 138.65,113.7 C135.916667,113.533333 134.1,113.766667 133.2,114.4 C132.366667,115.066667 131.983333,116.916667 132.05,119.95 C132.016667,122.883333 132.333333,125.716667 133,128.45 C134.133333,130.95 135.766667,132.366667 137.9,132.7 C140.1,133 141.316667,134.466667 141.55,137.1 C141.983333,138.366667 141.05,139.816667 138.75,141.45 C136.45,143.05 130.116667,143.933333 119.75,144.1 L109.6,143.2 C105.5,142.466667 103.233333,140.5 102.8,137.3 C103.066667,134.933333 104.2,133.533333 106.2,133.1 C108.2,132.633333 109.45,131.116667 109.95,128.55 L110.7,118.2 C111.033333,115.2 109.75,113.7 106.85,113.7 L104.35,113.7 C103.35,113.666667 102.8,113.25 102.7,112.45 L102.8,105.35 C102.933333,104.283333 103.666667,103.766667 105,103.8 C106.5,103.966667 107.366667,103.366667 107.6,102 C107.433333,101.1 106.816667,99.75 105.75,97.95 C104.683333,96.1166667 104.083333,93.7333333 103.95,90.8 C104.216667,85.1333333 106.6,81.15 111.1,78.85 C115.566667,76.5166667 120.35,75.3833333 125.45,75.45 C133.116667,75.7166667 138.283333,77.2833333 140.95,80.15 C143.65,83.0166667 144.916667,85.6 144.75,87.9 M95.25,98.4 L95.25,125.25 C95.3166667,128.85 95.8166667,131.216667 96.75,132.35 C97.65,133.45 98.55,134.2 99.45,134.6 C100.383333,135 100.883333,135.983333 100.95,137.55 C100.516667,140.683333 98.2833333,142.6 94.25,143.3 L84.35,144.1 C76.3833333,144 71.4166667,143.266667 69.45,141.9 C67.55,140.566667 66.7666667,139.283333 67.1,138.05 C67.2,136.45 67.9,135.266667 69.2,134.5 C70.4333333,133.8 71.4166667,132.75 72.15,131.35 C72.7833333,129.283333 73.1333333,125.85 73.2,121.05 C73.2666667,116.25 73.0333333,112.75 72.5,110.55 C71.9333333,109.05 70.8833333,108.05 69.35,107.55 C67.8166667,107.083333 66.9666667,105.866667 66.8,103.9 C67.0666667,101.666667 69.2,99.8166667 73.2,98.35 C77.1666667,96.9166667 81.1666667,95.8666667 85.2,95.2 L92.25,94.2 C94.7166667,94.6 95.7166667,96 95.25,98.4 M27.55,152.2 C31.1551473,152.2 32.8679003,152.375402 35.2509609,152.881013 C43.5113491,154.569267 48.7384954,158.964822 51.626832,166.747167 C52.0585461,167.854608 52.4037479,169.002834 52.6626422,170.181906 C54.1843834,168.347894 56.1261852,166.756137 58.4637545,165.449864 C61.4012567,163.824863 64.5828833,162.913542 67.8,162.85 C70.1962791,162.85 72.5710829,163.400451 75.0099735,164.416729 C80.377479,166.690026 84.0388012,171.141045 84.9520481,176.482492 C85.5908374,180.570744 85.2022845,182.726175 82.8267131,184.637895 L82.761,184.689 L82.7781452,184.711188 C83.1629478,185.225438 83.481818,185.795337 83.7232601,186.405032 L83.8219613,186.66872 L83.8702565,186.814403 L83.9082576,186.94432 C83.9837704,186.891599 84.0611669,186.840359 84.1404541,186.790665 L84.342017,186.670028 C84.4894101,186.581592 84.6363488,186.496686 84.7833466,186.415169 L84.9014255,186.351863 L84.9153536,186.240021 C85.0926473,184.760091 85.2304394,182.206298 85.3391711,178.160485 L85.3511333,177.704789 C85.3970525,175.776183 85.422593,174.275173 85.4265864,173.097285 L85.4270318,172.643115 C85.4241947,170.893386 85.3657982,169.935188 85.2470568,169.340592 L85.2374255,169.294863 L85.1976284,169.277351 C85.0750128,169.223191 84.9009155,169.149141 84.6624471,169.052804 L84.5115385,168.992308 C82.7910303,168.275429 81.5543068,166.862031 80.9552668,165.064911 L80.926884,164.976343 C80.3668982,163.15639 80.6811981,161.20773 81.6770274,159.515444 C83.3202513,156.639802 86.7847626,154.960498 93.4298575,153.41943 C94.2442976,153.21582 95.1137769,153.079431 95.9810191,153.012739 L98.473227,152.81337 C104.057373,152.355653 106.180331,154.74398 106.097624,160.637849 L106.04888,162.044648 L105.918138,167.530227 C106.899904,166.29045 108.48186,165.536807 110.837183,164.876248 L111.12,164.798 L111.156194,164.787612 C112.114459,164.513892 113.717421,164.263955 116.226823,163.968839 L116.591504,163.926364 C122.227566,163.276049 123.616883,163.210864 125.468008,163.962884 C126.28622,164.295282 126.96462,164.782921 127.494167,165.388759 L127.541096,165.446 L127.694582,165.348939 L127.809255,165.277951 L127.928449,165.214848 C129.556048,164.353178 132.159671,163.816181 135.722398,163.603945 L137.90802,163.507326 L139.55802,163.407326 L139.678899,163.4 L139.8,163.4 L140.054337,163.401005 C140.438441,163.404443 140.723142,163.417738 141.055338,163.456301 L141.163096,163.471 L141.287799,163.479193 C144.141484,163.722705 145.905794,164.836216 146.740707,166.817638 C147.723204,165.8794 149.01845,165.125428 150.530897,164.640303 C152.411799,164.038415 155.769542,163.699819 160.85,163.6 L163.566378,163.6 L163.732182,163.613817 L164.24198,163.657326 L165.94768,163.761092 C167.609631,163.885118 169.028306,164.314141 170.156828,164.984507 L170.325963,165.089385 L170.375966,165.060466 C171.368581,164.51001 172.620237,164.099133 174.135776,163.810522 L174.442404,163.754424 C175.259513,163.618239 176.11145,163.560089 177.023649,163.586576 L177.348,163.6 L177.638116,163.602077 C178.630129,163.613269 179.300218,163.670608 180.171181,163.796182 L180.508229,163.846513 L180.661018,163.870019 L180.811538,163.905247 C183.529135,164.541281 185.641731,166.129603 186.377481,168.200434 C187.51564,167.180561 188.813533,166.260272 190.263754,165.449864 C193.201257,163.824863 196.382883,162.913542 199.6,162.85 C201.996279,162.85 204.371083,163.400451 206.809973,164.416729 C212.177479,166.690026 215.838801,171.141045 216.752048,176.482492 C217.390837,180.570744 217.002284,182.726175 214.626713,184.637895 L214.561,184.689 L214.578145,184.711188 C214.962948,185.225438 215.281818,185.795337 215.52326,186.405032 L215.621961,186.66872 L215.670257,186.814403 C216.832648,190.559885 214.788396,193.626263 210.318801,196.628201 C206.482979,199.185416 201.458404,200.26211 196.221969,199.571333 C192.195369,199.08665 188.810246,197.59323 186.187688,195.157175 C185.146204,196.979375 182.970333,198.232927 180.013716,199.00597 C178.026009,199.554303 175.087805,199.801578 171.318001,199.749872 C165.504859,199.703367 163.093626,199.466852 161.203686,198.31294 L161.131963,198.268385 L160.981921,198.372757 C160.328094,198.808854 159.593246,199.138388 158.801722,199.324999 L158.698963,199.346385 C157.87543,199.537721 156.894874,199.657627 155.722465,199.723867 L155.273749,199.746225 L155.1,199.75 L153.040305,199.749555 C149.522895,199.697056 147.09825,199.005129 145.59632,197.249679 C145.266921,197.407095 144.911187,197.563897 144.527401,197.723728 L144.200771,197.857787 L144.003507,197.937632 L143.798885,197.996096 C143.68706,198.028046 143.594955,198.055851 143.376343,198.123116 C143.107455,198.205851 142.978726,198.244712 142.770575,198.304072 L141.799512,198.573109 L140.280651,198.96494 C139.436692,199.189995 138.821355,199.292552 137.528655,199.464912 L137.370493,199.482805 C132.368253,199.94813 130.123585,199.763537 128.469509,197.850748 L128.449096,197.826 L128.431574,197.836419 C126.561989,198.915142 124.802536,199.492125 122.870631,199.664224 L122.481868,199.693274 C115.137899,200.119698 111.075087,197.509675 109.282945,191.133038 C109.390334,192.831037 108.730369,194.676929 107.43927,196.10518 L107.283332,196.272435 L107.170524,196.393165 C106.212091,197.384419 105.06798,198.060356 103.419103,198.609697 C101.446148,199.241042 98.3822201,199.548901 94.1534915,199.49973 L93.9552832,199.497425 L93.7582739,199.475535 C93.6681555,199.465522 93.5673111,199.458519 93.3031199,199.443841 C93.0292474,199.428626 92.8494429,199.417408 92.6755942,199.402241 L92.6534255,199.399863 L92.3756168,199.4 L92.0554724,199.347732 L89.648232,198.954475 C86.6611515,198.49992 85.1352135,197.979865 83.7679208,196.578745 L83.7484255,196.556863 L83.7252487,196.536212 C82.9016688,195.755388 82.3083938,194.804464 81.9572409,193.794541 C81.0611245,194.757351 79.9069306,195.695884 78.5188008,196.628201 C74.6829793,199.185416 69.6584036,200.26211 64.4219692,199.571333 C57.5171761,198.740201 52.4986583,194.942856 49.976994,188.512609 L49.904577,188.320173 C47.1537237,193.180881 43.0171474,196.252889 37.1466599,197.90128 L36.7268904,198.015941 L36.5625714,198.059588 L36.3951413,198.089134 C36.1954588,198.124372 36.0602194,198.150185 35.6129915,198.237307 C34.6820481,198.41866 34.1863016,198.503915 33.5961389,198.569112 C32.905688,198.655418 32.5836743,198.693326 32.1920232,198.731352 C32.0268349,198.74739 31.8886098,198.761983 31.7626698,198.775182 L31.6803688,198.783776 L31.6007413,198.791959 L31.5228209,198.799736 C31.4583301,198.806048 31.3946108,198.81194 31.3291461,198.817421 L31.2495897,198.8238 L31.1673913,198.829788 C31.1534177,198.830753 31.1392938,198.831703 31.1249993,198.832636 L31.0370259,198.838042 C30.9767982,198.841518 30.9131985,198.844738 30.8449381,198.847707 L30.7388908,198.851973 C30.3909852,198.864887 29.9233854,198.872179 29.1979879,198.874321 L28.1342762,198.874322 C26.0985416,198.869875 22.6624906,198.843476 16.5375076,198.799512 C13.772556,198.756309 11.5889719,198.823843 9.51480994,198.987593 L9.35764947,199 L9.2,199 C8.85757091,199 8.68451729,198.996357 8.40973153,198.972462 C8.06357707,198.942362 7.72489222,198.886128 7.38241209,198.789923 L7.26788892,198.754 L7.21608047,198.74246 C2.90262416,197.6817 0.288459787,194.503376 1.10221196,190.481145 L1.14129454,190.300281 L1.14588892,190.284 L1.15088892,190.26 L1.15488892,190.244 L1.15633133,190.233843 L1.19772072,190.05236 C1.73787621,187.786373 2.66891233,186.845804 5.04659754,185.806106 L5.16588892,185.754 C5.2160674,184.972507 5.2464025,183.705495 5.27110606,181.550875 L5.27477093,181.220976 C5.27665296,181.046229 5.29410755,179.361168 5.30027679,178.802944 C5.31050428,177.933608 5.31636212,177.142722 5.31767002,176.420305 L5.3174546,175.720343 C5.31134561,173.347769 5.2487636,171.773201 5.12197819,170.568739 L5.10690251,170.384888 C5.09108438,170.11598 5.03989613,169.236105 5.03054564,169.076808 C5.00323165,168.611482 4.98254828,168.270456 4.96263717,167.961023 C4.88359906,166.732716 4.81037928,166.000364 4.74021084,165.592635 L4.73788892,165.574 L4.66439005,165.534904 C4.53328456,165.464262 4.36815623,165.379556 4.15439206,165.273274 L3.98472138,165.1894 L3.83504514,165.115789 L3.69201698,165.029972 C2.20628235,164.138531 1.52617396,162.778314 1.15633133,161.016157 C0.100529287,156.528999 2.90213724,153.912112 7.89163389,152.882533 L7.83388892,152.895 L7.8902067,152.881189 C8.09033606,152.836187 8.24530169,152.813182 8.46927872,152.78878 L8.61088892,152.774 L8.9075775,152.7 L9.55088892,152.7 L11.4477275,152.605118 C17.6835009,152.289382 21.568389,152.206502 26.8785353,152.2 L27.55,152.2 Z M199.6,166.85 C197.1,166.9 194.55,167.65 192.2,168.95 C187.1,171.8 184.55,176.1 184.45,181.35 C184.45,181.85 184.45,182.3 184.5,182.8 C184.6,184.2 184.95,185.65 185.5,187.05 C187.5,192.15 191.3,194.95 196.7,195.6 C201.25,196.2 205.25,195.2 208.1,193.3 C211.45,191.05 212.3,189.45 211.85,188 C211.55,187.15 210.95,186.5 210.25,186.2 C209.55,185.9 209.3,185.9 209.15,186 C208.95,186.15 208.75,186.25 208.5,186.4 C203.5,189.15 200,188.95 197.8,186.45 C196.8,185.35 196.45,184.8 196.25,184 C195.95,183.1 196.3,182.55 196.9,182.45 C197.1,182.45 197.3,182.45 197.45,182.55 C205.05,183.65 210.05,182.9 211.45,182 C213.15,180.9 213.3,180.3 212.8,177.1 C212.15,173.3 209.5,169.9 205.25,168.1 C203.45,167.35 201.55,166.85 199.6,166.85 Z M67.8,166.85 C65.3,166.9 62.75,167.65 60.4,168.95 C56.5607343,171.095472 54.1665628,174.062664 53.1748243,177.63827 C53.1632172,177.813051 53.1492119,177.987508 53.1335728,178.162143 C53.0321689,179.277586 52.8758126,180.323792 52.6508112,181.320015 C52.650392,181.329894 52.6501915,181.339945 52.65,181.35 C52.65,181.85 52.65,182.3 52.7,182.8 C52.8,184.2 53.15,185.65 53.7,187.05 C55.7,192.15 59.5,194.95 64.9,195.6 C69.45,196.2 73.45,195.2 76.3,193.3 C79.65,191.05 80.5,189.45 80.05,188 C79.75,187.15 79.15,186.5 78.45,186.2 C77.75,185.9 77.5,185.9 77.35,186 C77.15,186.15 76.95,186.25 76.7,186.4 C71.7,189.15 68.2,188.95 66,186.45 C65,185.35 64.65,184.8 64.45,184 C64.15,183.1 64.5,182.55 65.1,182.45 C65.3,182.45 65.5,182.45 65.65,182.55 C73.25,183.65 78.25,182.9 79.65,182 C81.35,180.9 81.5,180.3 81,177.1 C80.35,173.3 77.7,169.9 73.45,168.1 C71.65,167.35 69.75,166.85 67.8,166.85 Z M175.1,167.7 C171.4,168.35 171.05,169 171.75,171.8 C172.2,173.4 171.95,174.25 170.9,175.65 C170.35,176.4 170.25,176.4 169.8,175.75 L169.5,175.3 L168.95,174.35 C168.25,173.3 168.2,173 168.35,172.8 C168.5,172.6 168.55,172.45 168.65,172.25 C169.9,169.6 169,168 165.65,167.75 L164,167.65 L163.4,167.6 L160.85,167.6 C155.8,167.7 153,168.05 151.75,168.45 C149.1,169.3 148.3,170.9 148.95,172.25 C149.35,173 149.9,173.4 150.45,173.5 C152.21,173.78 152.21,173.676 153.138,174.596 L153.53475,174.99175 C153.685,175.1415 153.855,175.31 154.05,175.5 C158.85,180.1 158.75,179.95 155.5,184.5 C154.8,185.4 154.15,186.5 153.45,187.75 C152.124393,190.264082 151.968882,190.563339 150.461995,190.978224 C150.417692,192.019795 150.084126,193.075753 149.421991,194.057122 L149.387096,194.105 L149.328836,194.199169 C149.182232,194.425233 149.030337,194.637273 148.870692,194.837612 C149.545472,195.388281 150.763142,195.715122 153.1,195.75 L155.1,195.75 C156.25,195.7 157.15,195.6 157.8,195.45 C159.55,195.1 160.45,193.15 159.8,192.15 C158.8,190.5 158.75,190.45 159.45,188.7 C160.65,185.9 161.55,185.5 162.1,185.7 C162.2,185.75 162.3,185.85 162.3,185.95 C162.4,186.3 162.65,186.8 163.1,187.6 L164.05,189.3 L164.05,189.35 C164.15,190.15 163.9,190.65 163.6,190.8 C163.45,190.85 163.35,190.95 163.2,191 C161.75,191.8 161.65,193.55 162.75,194.5 C163.8,195.4 165.1,195.7 171.35,195.75 C175,195.8 177.5,195.55 178.95,195.15 C182.2,194.3 183.1,193.25 182.8,191.8 C182.65,191.05 182.25,190.55 181.65,190.4 C179.8,189.7 179.4,189.45 178.35,188 L177.35,186.75 L176.95,186.15 L176.5,185.5 L174.65,182.95 C173.65,181.5 173.55,181.25 173.7,181.1 C173.9,180.9 174.2,180.5 174.85,179.4 C175.95,177.55 176.55,176.65 177,176 C178.6,173.75 179.15,173.3 179.65,173 C181.7,171.8 182,171.65 182.45,170.6 C182.95,169.55 182.25,168.35 179.9,167.8 C179.25,167.7 178.6,167.6 177.25,167.6 C176.4,167.55 175.7,167.6 175.1,167.7 Z M140.025781,167.400781 L139.8,167.4 L138.15,167.5 L135.9,167.6 C132.55,167.8 130.65,168.3 129.8,168.75 C128.75,169.4 128.3,169.9 128.15,170.45 C127.85,171.4 128.1,172.1 128.55,172.4 C130.35,173.7 130.8,174.35 130.9,175.85 L131.05,176.8 L131.1,178.1 C131.45,185.8 130.75,187.6 128.8,188.3 C126.55,189.1 124.7,187.75 124.6,184.8 L124.55,183.35 L124.55,182.55 C124.543421,181.734211 124.539439,180.973823 124.53794,180.263028 L124.537899,179.035902 C124.546537,175.115651 124.642105,172.855263 124.8,171 C125.1,167.15 124.85,167 117.05,167.9 C114.45,168.2 112.85,168.45 112.2,168.65 C109.6,169.35 108.95,169.85 108.75,170.8 C108.7,171.2 108.7,171.55 108.85,171.95 C109.15,172.7 109.45,173.1 109.75,173.2 C111,173.7 111.3,173.95 111.7,174.45 C111.9,174.7 112.05,175 112.15,175.25 C112.25,175.6 112.3,175.7 112.25,175.8 C112.2,177.4 112.15,179 112.15,180.55 C112.15,192.65 114.5,196.15 122.25,195.7 C123.9,195.6 125.4,195.1 127.35,193.8 C128.3,193.25 128.65,192.95 128.9,192.65 L129.8,191.8 C130.45,191.5 131.1,192 131.25,193.5 L131.35,195.05 C131.75,195.6 132.7,195.9 137,195.5 C137.75,195.4 138.5,195.3 139.25,195.1 L140.8,194.7 L141.7,194.45 C142.05,194.35 142.35,194.25 142.7,194.15 C143.225,193.9375 143.6625,193.746875 144.032031,193.566406 C143.867575,191.881637 144.460265,190.328501 145.624669,189.142234 C145.445921,188.996175 145.236984,188.864406 145,188.75 L143.45,187.9 L143.35,187.85 C143.05,187.5 142.95,186.95 143.15,183.7 C143.23125,182.96875 143.246484,182.072461 143.249341,179.777466 L143.25,173.25 L143.3,171.15 L143.3,170.8 C143.45,168.15 143.1,167.6 140.75,167.45 C140.575,167.425 140.4125,167.4125 140.25625,167.40625 L140.025781,167.400781 Z M98.8,156.8 L96.3,157 C95.65,157.05 95,157.15 94.4,157.3 C88.15,158.75 85.95,160.1 85.15,161.5 C84.65,162.35 84.55,163.15 84.75,163.8 C85,164.55 85.45,165.05 86.05,165.3 C88.77,166.38 89.41,167.012 89.4292,172.5976 L89.4291047,173.172872 C89.4246489,174.455938 89.3933333,175.98 89.35,177.8 C89.1,187.55 88.7,189 87.95,189.35 C87.4,189.55 86.9,189.8 86.4,190.1 C85.35,190.7 85.25,192.55 86.55,193.7 C87.15,194.35 87.95,194.65 90.25,195 L92.7,195.4 L92.85,195.4 C93.3,195.45 93.75,195.45 94.2,195.5 C98.5,195.55 100.95,195.2 102.2,194.8 C103.4,194.4 103.95,194 104.4,193.5 C105.65,192.2 105.35,190.9 104.8,190.65 C102.95,189.7 102.6,189.25 102.45,187.85 L102.25,186 L102.25,185.7 L102.15,183.95 L102.05,180.55 L101.85,174.35 C101.8,172.65 101.8,171.4 101.85,170.4 L102.05,161.95 L102.1,160.5 C102.15,156.9 101.85,156.55 98.8,156.8 Z M27.939647,156.200675 L26.3365849,156.200675 C23.1632086,156.205669 18.6095238,156.247619 11.65,156.6 L9.65,156.7 L9.4,156.7 C9.2,156.75 8.9,156.75 8.7,156.8 C5.55,157.45 4.65,158.4 5.05,160.1 C5.25,161.05 5.5,161.45 5.75,161.6 C8.8,163.1 8.7,163.35 9.1,170.15 C9.24285714,171.507143 9.30918367,173.195918 9.31720117,175.59898 L9.31787536,176.341709 C9.31683673,177.106633 9.31071429,177.939286 9.3,178.85 C9.2,187.9 9.3,188.45 7.55,189.1 C5.5,189.9 5.3,190 5.05,191.15 C4.65,192.85 5.65,194.3 8.35,194.9 C8.6,195 8.9,195 9.2,195 C11.1,194.85 13.4,194.75 16.6,194.8 C21.87,194.837778 25.1134321,194.86842 27.2603292,194.873056 L28.1393056,194.873354 C30.1465556,194.869631 31.0171975,194.831824 31.9498107,194.735614 L32.1017778,194.719496 C32.1272593,194.716723 32.1528333,194.713907 32.1785237,194.711046 L32.33425,194.69335 C32.3605,194.690311 32.3869136,194.687227 32.4135144,194.684098 L32.5755556,194.66477 C32.7402222,194.644889 32.9133333,194.623333 33.1,194.6 C34,194.5 34.85,194.3 35.7,194.15 C42.1,192.45 45.9,189 48.1,182.55 C48.3310448,181.972388 48.5176048,181.379948 48.6682451,180.775534 C48.722971,179.466507 48.9043304,178.205168 49.20698,176.997325 C49.3812037,173.924266 48.9580046,170.914012 47.9,168.2 C45.45,161.6 41.3,158.2 34.45,156.8 C34.2793103,156.763793 34.1112961,156.728656 33.9429681,156.694756 L33.6050084,156.628652 C32.301103,156.381951 30.8616343,156.214418 27.939647,156.200675 Z M105.869293,174.908469 L106.048271,180.432404 L106.145425,183.747863 L106.243485,185.471801 L106.25,185.585807 L106.249425,185.782863 L106.376425,186.959863 L106.479318,187.015032 L106.606425,187.080863 L106.664207,187.108787 C107.730113,187.647799 108.454538,188.452464 108.869146,189.390202 C108.37473,186.924975 108.15,183.988508 108.15,180.55 C108.15,179.486108 108.165977,178.585768 108.210257,177.052158 L108.215096,176.896 L108.005715,176.809883 C107.06501,176.393647 106.400526,175.757046 105.869293,174.908469 Z M26.9,163.35 C30.8,164.35 32.2,166 33.65,171.95 C33.85,172.8 34,173.8 34.05,174.85 C34.5,183.2 31.75,187.4 28.5,188.1 C23.9129213,189.137079 22.6669928,188.424031 22.6298849,182.43236 L22.6295789,181.913377 C22.6361823,180.495493 22.7011236,178.804494 22.8,176.8 C23,172.7 23.05,168.7 22.9,164.95 C22.8,163.05 23.6,162.4 26.9,163.35 Z M147.250367,176.326301 L147.249344,179.506288 C147.24641,182.17938 147.231534,183.006689 147.164851,183.753547 L147.150302,183.9075 C147.147749,183.933161 147.145132,183.958871 147.142449,183.984702 L147.136096,184.04 L147.126488,184.210436 C147.106232,184.553928 147.09005,184.859603 147.077637,185.129895 L147.068096,185.318 L147.156549,185.365983 C147.99541,185.839145 148.693678,186.452258 149.229272,187.155048 L149.247228,187.12463 C149.370218,186.902755 149.549175,186.57029 149.810018,186.076989 L149.911724,185.884363 L149.959976,185.795587 C150.835384,184.232358 151.4719,183.195942 152.178216,182.258907 L152.283963,182.119385 L152.387934,181.974982 C152.893301,181.267082 153.198364,180.837208 153.401599,180.541279 L153.432963,180.494385 L153.413812,180.474214 C153.079526,180.122147 152.598439,179.6513 151.650648,178.741072 L151.258541,178.364918 C151.137796,178.247269 150.96119,178.072682 150.785955,177.898869 L150.579994,177.694358 L150.531285,177.645943 L150.428963,177.543385 L150.414823,177.541698 C150.180221,177.505195 149.925077,177.465835 149.79577,177.44534 L149.734458,177.43548 C148.813767,177.268081 147.975024,176.882916 147.250367,176.326301 Z M180.906187,177.421459 L180.876869,177.462444 C180.713237,177.684748 180.519013,177.953178 180.288769,178.27684 C179.809662,178.968883 179.333698,179.70521 178.643809,180.849874 L178.382963,181.284385 L179.788769,183.22316 L180.278201,183.931199 L180.582963,184.387385 L180.673379,184.502998 C180.62447,184.193397 180.584204,183.884343 180.552795,183.576345 L180.52,183.182 L180.512,183.098 L180.490918,182.862232 C180.482585,182.750505 180.475841,182.638586 180.470375,182.525308 L180.457634,182.180227 C180.453596,182.026769 180.451623,181.898662 180.450725,181.706916 L180.450725,181.273823 C180.476131,179.940028 180.629102,178.653821 180.906187,177.421459 Z M26.9718889,167.554 L26.9742196,167.66635 C27.016687,170.603345 26.954981,173.72039 26.7951425,176.99707 C26.6101497,180.747379 26.5928765,183.042019 26.6899885,184.28846 L26.6978889,184.386 L26.8870392,184.351969 C27.0327475,184.324233 27.1892503,184.292333 27.3572368,184.256098 L27.6179152,184.198471 L27.6577757,184.189673 C28.0580271,184.103465 28.5555311,183.665815 29.050293,182.625623 C29.83866,180.968153 30.2360685,178.41031 30.0545274,175.040261 C30.0185104,174.283903 29.911684,173.526406 29.7637354,172.897073 C28.8544308,169.165789 28.4163948,168.144397 27.00636,167.567918 L26.9718889,167.554 Z M201.35,172.85 C201.7,173.3 201.95,173.65 202.1,174.1 C202.9,176.25 202.5,176.9 200.85,177.15 L200.7,177.15 L199.3,177.2 C195.85,177.35 195.6,177.3 196.05,175.1 C196.1,174.7 196.25,174.35 196.4,174 C197.6,171.9 199.8,171.55 201.35,172.85 Z M69.55,172.85 C69.9,173.3 70.15,173.65 70.3,174.1 C71.1,176.25 70.7,176.9 69.05,177.15 L68.9,177.15 L67.5,177.2 C64.05,177.35 63.8,177.3 64.25,175.1 C64.3,174.7 64.45,174.35 64.6,174 C65.8,171.9 68,171.55 69.55,172.85 Z M199.093,175.539 L198.779551,175.914766 C199.105176,176.187871 199.722213,176.084686 199.851314,176.004022 L199.867,175.987 L199.859,175.976 L199.093,175.539 Z M67.294,175.539 L66.979551,175.914766 C67.3051759,176.187871 67.9222128,176.084686 68.0513137,176.004022 L68.067,175.987 L68.059,175.976 L67.294,175.539 Z M199.022,174.21 L198.94013,174.332973 C198.866553,174.450762 198.799568,174.576007 198.740542,174.708367 C198.711392,174.773735 198.685267,174.837744 198.661949,174.900323 L198.643,174.955 L199.248,174.484 L199.158103,174.365528 L199.022,174.21 Z M67.222,174.21 L67.1401299,174.332973 C67.0665526,174.450762 66.9995679,174.576007 66.9405425,174.708367 C66.911392,174.773735 66.8852673,174.837744 66.8619492,174.900323 L66.843,174.955 L67.448,174.484 L67.3581026,174.365528 L67.222,174.21 Z M91.7,77.05 C93.7,77.8833333 94.7833333,79.4833333 94.95,81.85 C94.4833333,85.45 92.05,87.95 87.65,89.35 C83.2833333,90.7166667 79.5,91.45 76.3,91.55 C74.2,91.5833333 72.3,91.0666667 70.6,90 C68.9,88.9333333 68.0166667,87.1666667 67.95,84.7 C68.3833333,81.5666667 70.7,79.3 74.9,77.9 C79.1333333,76.5 82.6833333,75.8166667 85.55,75.85 C87.65,75.7833333 89.7,76.1833333 91.7,77.05 Z" id="Shape" stroke="#000000" stroke-width="10" stroke-linecap="round" stroke-linejoin="round"></path>
        </g>
    </g>
</svg>