<?xml version="1.0" encoding="UTF-8"?>
<svg width="33px" height="48px" viewBox="0 0 33 48" version="1.1" xmlns="http://www.w3.org/2000/svg" xmlns:xlink="http://www.w3.org/1999/xlink">
    <title>208</title>
    <g id="Page-1" stroke="none" stroke-width="1" fill="none" fill-rule="evenodd">
        <g id="208" transform="translate(0, -0.0061)">
            <path d="M33,14.0060982 L32.85,16.2060982 C32.5833333,18.2727649 31.8666667,20.1560982 30.7,21.8560982 L30.5,22.4060982 C30.5,22.5727649 30.55,22.7560982 30.65,22.9560982 C32.2166667,25.4560982 33,28.3060982 33,31.5060982 C33,36.0727649 31.4,39.9727649 28.2,43.2060982 C24.9666667,46.4060982 21.0666667,48.0060982 16.5,48.0060982 L14.2,47.8560982 C10.6,47.3894315 7.48333333,45.8394315 4.85,43.2060982 C1.61666667,39.9727649 0,36.0727649 0,31.5060982 C0,26.9394315 1.61666667,23.0560982 4.85,19.8560982 L4.95,19.8060982 L5.35,19.4060982 L5.65,18.9060982 L5.65,18.3060982 C5.21666667,16.9727649 5,15.5394315 5,14.0060982 C5,10.1394315 6.36666667,6.83943153 9.1,4.1060982 C11.8333333,1.37276486 15.1333333,0.00609819672 19,0.00609819672 C22.9,0.00609819672 26.2,1.37276486 28.9,4.1060982 C31.0333333,6.23943153 32.35,8.72276486 32.85,11.5560982 L33,14.0060982" id="Path" fill="#FFFFFF"></path>
            <path d="M32.85,16.2060982 C32.5833333,18.2727649 31.8666667,20.1560982 30.7,21.8560982 L30.5,22.4060982 C30.5,22.5727649 30.55,22.7560982 30.65,22.9560982 C32.2166667,25.4560982 33,28.3060982 33,31.5060982 C33,36.0727649 31.4,39.9727649 28.2,43.2060982 C24.9666667,46.4060982 21.0666667,48.0060982 16.5,48.0060982 L16.6018066,0.159113333 C17.4576091,0.0664883155 18.0884075,0.0154832699 18.4942017,0.00609819672 C20.1017001,-0.0310794912 21.4045632,0.106329931 22.1756592,0.293085501 C25.5501483,1.11036975 27.6776309,2.86863814 28.9,4.1060982 C31.0333333,6.23943153 32.35,8.72276486 32.85,11.5560982 L33,14.0060982 L32.85,16.2060982 Z" id="Path-Copy-9" fill="#000000"></path>
            <circle id="Oval" fill="#8D0000" cx="24" cy="12.0060982" r="6"></circle>
        </g>
    </g>
</svg>