<?xml version="1.0" encoding="UTF-8"?>
<svg width="199px" height="140px" viewBox="0 0 199 140" version="1.1" xmlns="http://www.w3.org/2000/svg" xmlns:xlink="http://www.w3.org/1999/xlink">
    <title>302 copy</title>
    <g id="Page-1" stroke="none" stroke-width="1" fill="none" fill-rule="evenodd">
        <g id="302-copy" transform="translate(0.6349, 0.0959)">
            <path d="M92.5,26.4 C93.3333333,30.3333333 94.65,33.2 96.45,35 L98.8,36.8 M98.8,129 L23.7,129 L18.2,130 C16.2333333,130.233333 14.6,129.9 13.3,129 C12.4666667,128.433333 11.75,127.666667 11.15,126.7 C10.1833333,125.1 9.7,123.566667 9.7,122.1 C9.7,121.733333 13.8,114.6 22,100.7 C30.9333333,85.5666667 36.6666667,74.4166667 39.2,67.25 C39.6,66.0833333 42.0166667,63.85 46.45,60.55 C51.0166667,57.15 53.6833333,54.6333333 54.45,53 C55.1166667,51.6333333 56.55,49.4333333 58.75,46.4 C60.35,43.6333333 60.6666667,41.3333333 59.7,39.5" id="Shape" stroke-opacity="0" stroke="#FF0000" stroke-width="19.45" stroke-linecap="round" stroke-linejoin="round"></path>
            <path d="M59.7,39.5 C61.4666667,32.9 63.0833333,27.75 64.55,24.05 C67.25,17.3833333 70.55,13.2833333 74.45,11.75 C79.7166667,9.65 83.65,9.16666667 86.25,10.3 C88.3166667,11.2 89.8,13.3166667 90.7,16.65 C91.2333333,18.6166667 91.8333333,21.8666667 92.5,26.4" id="Path" stroke-opacity="0" stroke="#C1C1C1" stroke-width="19.45" stroke-linecap="round" stroke-linejoin="round"></path>
            <path d="M72.6,20.75 L72.85,21.75 C73.2166667,22.4166667 73.8333333,22.75 74.7,22.75 C75.3333333,22.75 75.8666667,22.5333333 76.3,22.1 C76.6666667,21.7333333 76.85,21.3 76.85,20.8 C76.85,19.3666667 76.15,18.6833333 74.75,18.75 C73.3166667,18.7833333 72.6,19.45 72.6,20.75 M71.6,24.1 C70.2666667,24 69.6,24.6333333 69.6,26 L69.85,27 C70.2166667,27.6666667 70.8,28 71.6,28 C72.2,28 72.7166667,27.7333333 73.15,27.2 C73.45,26.7666667 73.6,26.3833333 73.6,26.05 C73.6,24.8166667 72.9333333,24.1666667 71.6,24.1 M76.1,30.25 L76.35,31.25 C76.7166667,31.9166667 77.3,32.25 78.1,32.25 C78.7,32.25 79.2166667,31.9833333 79.65,31.45 L80.1,30.3 C80.1,29.0666667 79.4333333,28.4166667 78.1,28.35 C76.7666667,28.25 76.1,28.8833333 76.1,30.25 M71.6,32.55 C71.6,31.1166667 70.9,30.4333333 69.5,30.5 C68.0666667,30.5333333 67.35,31.2 67.35,32.5 L67.6,33.5 C67.9666667,34.1666667 68.5833333,34.5 69.45,34.5 C70.0833333,34.5 70.6166667,34.3 71.05,33.9 C71.4166667,33.5 71.6,33.05 71.6,32.55 M77.1,36.85 C75.7666667,36.75 75.1,37.3833333 75.1,38.75 L75.4,39.75 C75.7333333,40.4166667 76.3,40.75 77.1,40.75 C77.7,40.75 78.2166667,40.4833333 78.65,39.95 L79.1,38.8 C79.1,37.5666667 78.4333333,36.9166667 77.1,36.85 M64.15,40 C64.4833333,40.6666667 65.05,41 65.85,41 C66.45,41 66.9666667,40.7333333 67.4,40.2 C67.7,39.7666667 67.85,39.3833333 67.85,39.05 C67.85,37.6166667 67.1833333,36.9333333 65.85,37 C64.5166667,37.0333333 63.85,37.7 63.85,39 L64.15,40 M71.85,41.35 C70.5166667,41.25 69.85,41.8833333 69.85,43.25 L70.15,44.25 C70.4833333,44.9166667 71.05,45.25 71.85,45.25 C72.45,45.25 72.9666667,44.9833333 73.4,44.45 C73.7,44.0166667 73.85,43.6333333 73.85,43.3 C73.85,42.0666667 73.1833333,41.4166667 71.85,41.35 M98.8,129 L23.7,129 L18.2,130 C16.2333333,130.233333 14.6,129.9 13.3,129 C12.4666667,128.433333 11.75,127.666667 11.15,126.7 C10.1833333,125.1 9.7,123.566667 9.7,122.1 C9.7,121.733333 13.8,114.6 22,100.7 C30.9333333,85.5666667 36.6666667,74.4166667 39.2,67.25 C39.6,66.0833333 42.0166667,63.85 46.45,60.55 C51.0166667,57.15 53.6833333,54.6333333 54.45,53 C55.1166667,51.6333333 56.55,49.4333333 58.75,46.4 C60.35,43.6333333 60.6666667,41.3333333 59.7,39.5 C61.4666667,32.9 63.0833333,27.75 64.55,24.05 C67.25,17.3833333 70.55,13.2833333 74.45,11.75 C79.7166667,9.65 83.65,9.16666667 86.25,10.3 C88.3166667,11.2 89.8,13.3166667 90.7,16.65 C91.2333333,18.6166667 91.8333333,21.8666667 92.5,26.4 C93.3333333,30.3333333 94.65,33.2 96.45,35 L98.8,36.8 L98.8,44.15 L98.6,44.1 C97.2666667,44 96.6,44.6333333 96.6,46 L96.85,47 C97.2166667,47.6666667 97.8,48 98.6,48 L98.8,48 L98.8,57.4 L98.35,57.35 C97.0166667,57.25 96.35,57.8833333 96.35,59.25 L96.6,60.25 C96.9666667,60.9166667 97.55,61.25 98.35,61.25 L98.8,61.2 L98.8,74.9 L98.6,74.85 C97.2666667,74.75 96.6,75.3833333 96.6,76.75 L96.85,77.75 C97.2166667,78.4166667 97.8,78.75 98.6,78.75 L98.8,78.75 L98.8,109.35 C97.5,109.683333 96.85,110.4 96.85,111.5 L97.15,112.5 C97.4833333,112.966667 98.0333333,113.266667 98.8,113.4 L98.8,117.7 C98.4666667,117.333333 97.95,117.166667 97.25,117.2 C95.8166667,117.3 95.1,118.066667 95.1,119.5 L95.35,120.5 C95.7166667,121.166667 96.3333333,121.5 97.2,121.5 C97.8666667,121.5 98.4,121.283333 98.8,120.85 L98.8,129 M46.1,68.75 L46.35,69.75 C46.7166667,70.4166667 47.3,70.75 48.1,70.75 C48.7,70.75 49.2166667,70.4833333 49.65,69.95 C49.95,69.5166667 50.1,69.1333333 50.1,68.8 C50.1,67.5666667 49.4333333,66.9166667 48.1,66.85 C46.7666667,66.75 46.1,67.3833333 46.1,68.75 M56.1,55.1 C54.7666667,55 54.1,55.6333333 54.1,57 L54.4,58 C54.7333333,58.6666667 55.3,59 56.1,59 C56.7,59 57.2166667,58.7333333 57.65,58.2 C57.95,57.7666667 58.1,57.3833333 58.1,57.05 C58.1,55.8166667 57.4333333,55.1666667 56.1,55.1 M55.15,63.2 C55.45,62.7666667 55.6,62.3833333 55.6,62.05 C55.6,60.8166667 54.9333333,60.1666667 53.6,60.1 C52.2666667,60 51.6,60.6333333 51.6,62 L51.85,63 C52.2166667,63.6666667 52.8,64 53.6,64 C54.2,64 54.7166667,63.7333333 55.15,63.2 M68.85,55.75 C69.2166667,56.4166667 69.8,56.75 70.6,56.75 C71.2,56.75 71.7166667,56.4833333 72.15,55.95 C72.45,55.5166667 72.6,55.1333333 72.6,54.8 C72.6,53.5666667 71.9333333,52.9166667 70.6,52.85 C69.2666667,52.75 68.6,53.3833333 68.6,54.75 L68.85,55.75 M66.35,60.05 C66.35,58.8166667 65.6833333,58.1666667 64.35,58.1 C63.0166667,58 62.35,58.6333333 62.35,60 L62.65,61 C62.9833333,61.6666667 63.55,62 64.35,62 C64.95,62 65.4666667,61.7333333 65.9,61.2 C66.2,60.7666667 66.35,60.3833333 66.35,60.05 M64.35,52 C64.95,52 65.4666667,51.7333333 65.9,51.2 C66.2,50.7666667 66.35,50.3833333 66.35,50.05 C66.35,48.8166667 65.6833333,48.1666667 64.35,48.1 C63.0166667,48 62.35,48.6333333 62.35,50 L62.65,51 C62.9833333,51.6666667 63.55,52 64.35,52 M60.35,69.05 C60.35,67.8166667 59.6833333,67.1666667 58.35,67.1 C57.0166667,67 56.35,67.6333333 56.35,69 L56.65,70 C56.9833333,70.6666667 57.55,71 58.35,71 C58.95,71 59.4666667,70.7333333 59.9,70.2 C60.2,69.7666667 60.35,69.3833333 60.35,69.05 M62.6,67.75 L62.85,68.75 C63.2166667,69.4166667 63.8,69.75 64.6,69.75 C65.2,69.75 65.7166667,69.4833333 66.15,68.95 C66.45,68.5166667 66.6,68.1333333 66.6,67.8 C66.6,66.5666667 65.9333333,65.9166667 64.6,65.85 C63.2666667,65.75 62.6,66.3833333 62.6,67.75 M76.85,65.55 C76.85,64.3166667 76.1833333,63.6666667 74.85,63.6 C73.5166667,63.5 72.85,64.1333333 72.85,65.5 L73.15,66.5 C73.4833333,67.1666667 74.05,67.5 74.85,67.5 C75.45,67.5 75.9666667,67.2333333 76.4,66.7 C76.7,66.2666667 76.85,65.8833333 76.85,65.55 M75.6,57.25 L75.85,58.25 C76.2166667,58.9166667 76.8,59.25 77.6,59.25 C78.2,59.25 78.7166667,58.9833333 79.15,58.45 L79.6,57.3 C79.6,56.0666667 78.9333333,55.4166667 77.6,55.35 C76.2666667,55.25 75.6,55.8833333 75.6,57.25 M79.6,15 L79.9,16 C80.2333333,16.6666667 80.8,17 81.6,17 C82.2,17 82.7166667,16.7333333 83.15,16.2 L83.6,15.05 C83.6,13.8166667 82.9333333,13.1666667 81.6,13.1 C80.2666667,13 79.6,13.6333333 79.6,15 M89.85,29.6 C88.5166667,29.5 87.85,30.1333333 87.85,31.5 L88.15,32.5 C88.4833333,33.1666667 89.05,33.5 89.85,33.5 C90.45,33.5 90.9666667,33.2333333 91.4,32.7 L91.85,31.55 C91.85,30.3166667 91.1833333,29.6666667 89.85,29.6 M96.1,38.15 C96.1,36.85 95.4333333,36.1666667 94.1,36.1 C92.7666667,36.0333333 92.1,36.6833333 92.1,38.05 L92.3,39.15 C92.6,39.8833333 93.2,40.25 94.1,40.25 C94.7,40.25 95.2,40 95.6,39.5 C95.9333333,39.1 96.1,38.65 96.1,38.15 M84.75,36.15 C85.15,35.75 85.35,35.3 85.35,34.8 C85.35,33.3666667 84.65,32.6833333 83.25,32.75 C81.8166667,32.7833333 81.1,33.45 81.1,34.75 L81.4,35.75 C81.7333333,36.4166667 82.3333333,36.75 83.2,36.75 C83.8333333,36.75 84.35,36.55 84.75,36.15 M85.1,21.85 C83.7666667,21.75 83.1,22.3833333 83.1,23.75 L83.35,24.75 C83.7166667,25.4166667 84.3,25.75 85.1,25.75 C85.7,25.75 86.2166667,25.4833333 86.65,24.95 L87.1,23.8 C87.1,22.5666667 86.4333333,21.9166667 85.1,21.85 M90.65,43.7 L91.1,42.55 C91.1,41.1166667 90.4333333,40.4333333 89.1,40.5 C87.7666667,40.5333333 87.1,41.2 87.1,42.5 L87.4,43.5 C87.7333333,44.1666667 88.3,44.5 89.1,44.5 C89.7,44.5 90.2166667,44.2333333 90.65,43.7 M88.35,48.75 C88.7166667,49.4166667 89.3,49.75 90.1,49.75 C90.7,49.75 91.2166667,49.4833333 91.65,48.95 L92.1,47.8 C92.1,46.5666667 91.4333333,45.9166667 90.1,45.85 C88.7666667,45.75 88.1,46.3833333 88.1,47.75 L88.35,48.75 M90.6,53.6 C89.2666667,53.5333333 88.6,54.1833333 88.6,55.55 L88.8,56.65 C89.1,57.3833333 89.7,57.75 90.6,57.75 C91.2,57.75 91.7,57.5166667 92.1,57.05 C92.4333333,56.6166667 92.6,56.15 92.6,55.65 C92.6,54.35 91.9333333,53.6666667 90.6,53.6 M77.6,45.75 L77.85,46.75 C78.2166667,47.4166667 78.8,47.75 79.6,47.75 C80.2,47.75 80.7166667,47.4833333 81.15,46.95 L81.6,45.8 C81.6,44.5666667 80.9333333,43.9166667 79.6,43.85 C78.2666667,43.75 77.6,44.3833333 77.6,45.75 M79.6,53.25 C79.9666667,53.9166667 80.55,54.25 81.35,54.25 C81.95,54.25 82.4666667,53.9833333 82.9,53.45 L83.35,52.3 C83.35,51.0666667 82.6833333,50.4166667 81.35,50.35 C80.0166667,50.25 79.35,50.8833333 79.35,52.25 L79.6,53.25 M83.35,57.5 L83.65,58.5 C83.9833333,59.1666667 84.55,59.5 85.35,59.5 C85.95,59.5 86.4666667,59.2333333 86.9,58.7 L87.35,57.55 C87.35,56.3166667 86.6833333,55.6666667 85.35,55.6 C84.0166667,55.5 83.35,56.1333333 83.35,57.5 M83.6,66 C84.8,66 85.4666667,65.3 85.6,63.9 C85.6,62.6 84.8166667,61.8333333 83.25,61.6 C81.65,61.3666667 80.85,61.9833333 80.85,63.45 L81.2,64.65 C81.6666667,65.55 82.4666667,66 83.6,66 M93.1,64.35 C91.7666667,64.25 91.1,64.8833333 91.1,66.25 L91.35,67.25 C91.7166667,67.9166667 92.3,68.25 93.1,68.25 C93.7,68.25 94.2166667,67.9833333 94.65,67.45 L95.1,66.3 C95.1,65.0666667 94.4333333,64.4166667 93.1,64.35 M90.1,81.8 C90.1,80.5666667 89.4333333,79.9166667 88.1,79.85 C86.7666667,79.75 86.1,80.3833333 86.1,81.75 L86.35,82.75 C86.7166667,83.4166667 87.3,83.75 88.1,83.75 C88.7,83.75 89.2166667,83.4833333 89.65,82.95 L90.1,81.8 M89.9,72.7 L90.35,71.55 C90.35,70.3166667 89.6833333,69.6666667 88.35,69.6 C87.0166667,69.5 86.35,70.1333333 86.35,71.5 L86.65,72.5 C86.9833333,73.1666667 87.55,73.5 88.35,73.5 C88.95,73.5 89.4666667,73.2333333 89.9,72.7 M80.65,75.7 L81.1,74.55 C81.1,73.1166667 80.4333333,72.4333333 79.1,72.5 C77.7666667,72.5333333 77.1,73.2 77.1,74.5 L77.35,75.5 C77.7166667,76.1666667 78.3,76.5 79.1,76.5 C79.7,76.5 80.2166667,76.2333333 80.65,75.7 M96.6,98.6 C95.2666667,98.5333333 94.6,99.1833333 94.6,100.55 L94.8,101.65 C95.1,102.383333 95.7,102.75 96.6,102.75 C97.2,102.75 97.7,102.516667 98.1,102.05 C98.4333333,101.616667 98.6,101.15 98.6,100.65 C98.6,99.35 97.9333333,98.6666667 96.6,98.6 M95.4,87.7 L95.85,86.55 C95.85,85.3166667 95.1833333,84.6666667 93.85,84.6 C92.5166667,84.5 91.85,85.1333333 91.85,86.5 L92.1,87.5 C92.4666667,88.1666667 93.05,88.5 93.85,88.5 C94.45,88.5 94.9666667,88.2333333 95.4,87.7 M83.65,89.75 C83.9833333,90.4166667 84.55,90.75 85.35,90.75 C85.95,90.75 86.4666667,90.4833333 86.9,89.95 L87.35,88.8 C87.35,87.5666667 86.6833333,86.9166667 85.35,86.85 C84.0166667,86.75 83.35,87.3833333 83.35,88.75 L83.65,89.75 M78.15,94.2 L78.6,93.05 C78.6,91.8166667 77.9333333,91.1666667 76.6,91.1 C75.2666667,91 74.6,91.6333333 74.6,93 L74.85,94 C75.2166667,94.6666667 75.8,95 76.6,95 C77.2,95 77.7166667,94.7333333 78.15,94.2 M83.65,85.95 L84.1,84.8 C84.1,83.5666667 83.4333333,82.9166667 82.1,82.85 C80.7666667,82.75 80.1,83.3833333 80.1,84.75 L80.35,85.75 C80.7166667,86.4166667 81.3,86.75 82.1,86.75 C82.7,86.75 83.2166667,86.4833333 83.65,85.95 M80.35,99.05 C80.35,97.8166667 79.6833333,97.1666667 78.35,97.1 C77.0166667,97 76.35,97.6333333 76.35,99 L76.6,100 C76.9666667,100.666667 77.55,101 78.35,101 C78.95,101 79.4666667,100.733333 79.9,100.2 L80.35,99.05 M90.1,105.3 C90.1,104.066667 89.4333333,103.416667 88.1,103.35 C86.7666667,103.25 86.1,103.883333 86.1,105.25 L86.35,106.25 C86.7166667,106.916667 87.3,107.25 88.1,107.25 C88.7,107.25 89.2166667,106.983333 89.65,106.45 L90.1,105.3 M87.85,97 C88.2166667,97.6666667 88.8,98 89.6,98 C90.2,98 90.7166667,97.7333333 91.15,97.2 L91.6,96.05 C91.6,94.8166667 90.9333333,94.1666667 89.6,94.1 C88.2666667,94 87.6,94.6333333 87.6,96 L87.85,97 M85.65,111.2 L86.1,110.05 C86.1,108.816667 85.4333333,108.166667 84.1,108.1 C82.7666667,108 82.1,108.633333 82.1,110 L82.35,111 C82.7166667,111.666667 83.3,112 84.1,112 C84.7,112 85.2166667,111.733333 85.65,111.2 M85.35,100.5 C85.95,100.5 86.4666667,100.233333 86.9,99.7 L87.35,98.55 C87.35,97.3166667 86.6833333,96.6666667 85.35,96.6 C84.0166667,96.5 83.35,97.1333333 83.35,98.5 L83.65,99.5 C83.9833333,100.166667 84.55,100.5 85.35,100.5 M78.65,109.2 L79.1,108.05 C79.1,106.816667 78.4333333,106.166667 77.1,106.1 C75.7666667,106 75.1,106.633333 75.1,108 L75.4,109 C75.7333333,109.666667 76.3,110 77.1,110 C77.7,110 78.2166667,109.733333 78.65,109.2 M77.6,115.75 C78.2,115.75 78.7166667,115.483333 79.15,114.95 L79.6,113.8 C79.6,112.566667 78.9333333,111.916667 77.6,111.85 C76.2666667,111.75 75.6,112.383333 75.6,113.75 L75.85,114.75 C76.2166667,115.416667 76.8,115.75 77.6,115.75 M86.6,115.75 L86.85,116.75 C87.2166667,117.416667 87.8,117.75 88.6,117.75 C89.2,117.75 89.7166667,117.483333 90.15,116.95 L90.6,115.8 C90.6,114.566667 89.9333333,113.916667 88.6,113.85 C87.2666667,113.75 86.6,114.383333 86.6,115.75 M84.85,122.25 C85.45,122.25 85.9666667,121.983333 86.4,121.45 L86.85,120.3 C86.85,119.066667 86.1833333,118.416667 84.85,118.35 C83.5166667,118.25 82.85,118.883333 82.85,120.25 L83.1,121.25 C83.4666667,121.916667 84.05,122.25 84.85,122.25 M77.35,122 C77.7166667,122.666667 78.3,123 79.1,123 C79.7,123 80.2166667,122.733333 80.65,122.2 L81.1,121.05 C81.1,119.616667 80.4333333,118.933333 79.1,119 C77.7666667,119.033333 77.1,119.7 77.1,121 L77.35,122 M68.6,77.25 L68.85,78.25 C69.2166667,78.9166667 69.8,79.25 70.6,79.25 C71.2,79.25 71.7166667,78.9833333 72.15,78.45 C72.45,78.0166667 72.6,77.6333333 72.6,77.3 C72.6,76.0666667 71.9333333,75.4166667 70.6,75.35 C69.2666667,75.25 68.6,75.8833333 68.6,77.25 M67.9,72.75 C68.2333333,73.4166667 68.8,73.75 69.6,73.75 C70.2,73.75 70.7166667,73.4833333 71.15,72.95 C71.45,72.5166667 71.6,72.1333333 71.6,71.8 C71.6,70.5666667 70.9333333,69.9166667 69.6,69.85 C68.2666667,69.75 67.6,70.3833333 67.6,71.75 L67.9,72.75 M57.4,78.95 C57.7,78.5166667 57.85,78.1333333 57.85,77.8 C57.85,76.5666667 57.1833333,75.9166667 55.85,75.85 C54.5166667,75.75 53.85,76.3833333 53.85,77.75 L54.1,78.75 C54.4666667,79.4166667 55.05,79.75 55.85,79.75 C56.45,79.75 56.9666667,79.4833333 57.4,78.95 M67.15,76.7 C67.45,76.2666667 67.6,75.8833333 67.6,75.55 C67.6,74.1166667 66.9333333,73.4333333 65.6,73.5 C64.2666667,73.5333333 63.6,74.2 63.6,75.5 L63.85,76.5 C64.2166667,77.1666667 64.8,77.5 65.6,77.5 C66.2,77.5 66.7166667,77.2333333 67.15,76.7 M63.85,91.7 L64.2,92.95 C64.8333333,93.8166667 66.05,94.25 67.85,94.25 C68.6833333,94.25 69.3333333,94.05 69.8,93.65 C70.1666667,93.2833333 70.35,92.8333333 70.35,92.3 C70.35,90.9666667 69.2666667,90.1166667 67.1,89.75 C64.9333333,89.4166667 63.85,90.0666667 63.85,91.7 M60.35,93.8 C60.35,92.5666667 59.6833333,91.9166667 58.35,91.85 C57.0166667,91.75 56.35,92.3833333 56.35,93.75 L56.65,94.75 C56.9833333,95.4166667 57.55,95.75 58.35,95.75 C58.95,95.75 59.4666667,95.4833333 59.9,94.95 C60.2,94.5166667 60.35,94.1333333 60.35,93.8 M65.85,80.8 C65.85,79.5666667 65.1833333,78.9166667 63.85,78.85 C62.5166667,78.75 61.85,79.3833333 61.85,80.75 L62.1,81.75 C62.4666667,82.4166667 63.05,82.75 63.85,82.75 C64.45,82.75 64.9666667,82.4833333 65.4,81.95 C65.7,81.5166667 65.85,81.1333333 65.85,80.8 M73.15,86.8 C73.4833333,87.4333333 74.05,87.75 74.85,87.75 C75.45,87.75 75.9666667,87.4833333 76.4,86.95 C76.7,86.5166667 76.85,86.1333333 76.85,85.8 C76.85,84.5666667 76.1833333,83.9166667 74.85,83.85 C73.8833333,83.7833333 73.2666667,84.1 73,84.8 C72.6666667,84.3666667 72.1166667,84.1333333 71.35,84.1 C70.0166667,84 69.35,84.6333333 69.35,86 L69.6,87 C69.9666667,87.6666667 70.55,88 71.35,88 C71.95,88 72.4666667,87.7333333 72.9,87.2 L73.15,86.8 M61.6,86.35 C60.2666667,86.25 59.6,86.8833333 59.6,88.25 L59.85,89.25 C60.2166667,89.9166667 60.8,90.25 61.6,90.25 C62.2,90.25 62.7166667,89.9833333 63.15,89.45 C63.45,89.0166667 63.6,88.6333333 63.6,88.3 C63.6,87.0666667 62.9333333,86.4166667 61.6,86.35 M50.85,73.85 C49.5166667,73.75 48.85,74.3833333 48.85,75.75 L49.15,76.75 C49.4833333,77.4166667 50.05,77.75 50.85,77.75 C51.45,77.75 51.9666667,77.4833333 52.4,76.95 C52.7,76.5166667 52.85,76.1333333 52.85,75.8 C52.85,74.5666667 52.1833333,73.9166667 50.85,73.85 M47.4,81.95 L47.85,80.8 C47.85,79.5666667 47.1833333,78.9166667 45.85,78.85 C44.5166667,78.75 43.85,79.3833333 43.85,80.75 L44.1,81.75 C44.4666667,82.4166667 45.05,82.75 45.85,82.75 C46.45,82.75 46.9666667,82.4833333 47.4,81.95 M40.25,82.85 C38.8166667,83.15 38.1,84.2166667 38.1,86.05 L38.3,87.2 C38.5666667,87.9 39.1666667,88.25 40.1,88.25 C41,88.25 41.65,87.7333333 42.05,86.7 C42.25,86.1 42.35,85.4666667 42.35,84.8 C42.35,83.2 41.65,82.55 40.25,82.85 M43.9,74.7 C44.2,74.2666667 44.35,73.8833333 44.35,73.55 C44.35,72.3166667 43.6833333,71.6666667 42.35,71.6 C41.0166667,71.5 40.35,72.1333333 40.35,73.5 L40.6,74.5 C40.9666667,75.1666667 41.55,75.5 42.35,75.5 C42.95,75.5 43.4666667,75.2333333 43.9,74.7 M45.6,90.25 L45.85,91.25 C46.2166667,91.9166667 46.8,92.25 47.6,92.25 C48.2,92.25 48.7166667,91.9833333 49.15,91.45 C49.45,91.0166667 49.6,90.6333333 49.6,90.3 C49.6,89.0666667 48.9333333,88.4166667 47.6,88.35 C46.2666667,88.25 45.6,88.8833333 45.6,90.25 M54.85,86.5 C55.55,86.5 56.1166667,86.2833333 56.55,85.85 C56.9166667,85.4833333 57.1,85.05 57.1,84.55 C57.1,83.1166667 56.35,82.4333333 54.85,82.5 C53.35,82.5333333 52.6,83.2 52.6,84.5 L52.9,85.5 C53.2666667,86.1666667 53.9166667,86.5 54.85,86.5 M52.9,98.7 C53.2,98.2666667 53.35,97.8833333 53.35,97.55 C53.35,96.3166667 52.6833333,95.6666667 51.35,95.6 C50.0166667,95.5 49.35,96.1333333 49.35,97.5 L49.6,98.5 C49.9666667,99.1666667 50.55,99.5 51.35,99.5 C51.95,99.5 52.4666667,99.2333333 52.9,98.7 M53.15,103.9 C53.5166667,104.633333 54.1666667,105 55.1,105 C55.7,105 56.2,104.766667 56.6,104.3 C56.9333333,103.866667 57.1,103.416667 57.1,102.95 C57.1,101.65 56.4,100.933333 55,100.8 C53.5666667,100.666667 52.85,101.316667 52.85,102.75 L53.15,103.9 M37.9,99.2 C38.2,98.7666667 38.35,98.3833333 38.35,98.05 C38.35,96.8166667 37.6833333,96.1666667 36.35,96.1 C35.0166667,96 34.35,96.6333333 34.35,98 L34.6,99 C34.9666667,99.6666667 35.55,100 36.35,100 C36.95,100 37.4666667,99.7333333 37.9,99.2 M44.15,102.2 C44.45,101.766667 44.6,101.383333 44.6,101.05 C44.6,99.8166667 43.9333333,99.1666667 42.6,99.1 C41.2666667,99 40.6,99.6333333 40.6,101 L40.9,102 C41.2333333,102.666667 41.8,103 42.6,103 C43.2,103 43.7166667,102.733333 44.15,102.2 M44.1,110.1 C42.7666667,110.033333 42.1,110.683333 42.1,112.05 L42.3,113.1 C42.6,113.866667 43.2,114.25 44.1,114.25 C44.7,114.25 45.2,114 45.6,113.5 C45.9333333,113.1 46.1,112.65 46.1,112.15 C46.1,110.85 45.4333333,110.166667 44.1,110.1 M38.15,116.95 C38.45,116.516667 38.6,116.133333 38.6,115.8 C38.6,114.566667 37.9333333,113.916667 36.6,113.85 C35.2666667,113.75 34.6,114.383333 34.6,115.75 L34.9,116.75 C35.2333333,117.416667 35.8,117.75 36.6,117.75 C37.2,117.75 37.7166667,117.483333 38.15,116.95 M37.35,110.25 C37.95,110.25 38.4666667,109.983333 38.9,109.45 C39.2,109.016667 39.35,108.633333 39.35,108.3 C39.35,107.066667 38.6833333,106.416667 37.35,106.35 C36.0166667,106.25 35.35,106.883333 35.35,108.25 L35.65,109.25 C35.9833333,109.916667 36.55,110.25 37.35,110.25 M51.35,109.55 C51.35,108.316667 50.6833333,107.666667 49.35,107.6 C48.0166667,107.5 47.35,108.133333 47.35,109.5 L47.65,110.5 C47.9833333,111.166667 48.55,111.5 49.35,111.5 C49.95,111.5 50.4666667,111.233333 50.9,110.7 C51.2,110.266667 51.35,109.883333 51.35,109.55 M68.35,105.25 C68.95,105.25 69.4666667,104.983333 69.9,104.45 L70.35,103.3 C70.35,102.066667 69.6833333,101.416667 68.35,101.35 C67.0166667,101.25 66.35,101.883333 66.35,103.25 L66.6,104.25 C66.9666667,104.916667 67.55,105.25 68.35,105.25 M50.1,117.75 L50.35,118.75 C50.7166667,119.416667 51.3,119.75 52.1,119.75 C52.7,119.75 53.2166667,119.483333 53.65,118.95 C53.95,118.516667 54.1,118.133333 54.1,117.8 C54.1,116.366667 53.4333333,115.683333 52.1,115.75 C50.7666667,115.783333 50.1,116.45 50.1,117.75 M62.6,115.3 C62.6,113.6 61.65,112.933333 59.75,113.3 C57.8166667,113.666667 56.85,114.483333 56.85,115.75 L57.1,116.75 C57.4666667,117.416667 58.0833333,117.75 58.95,117.75 C60.1833333,117.75 61.15,117.416667 61.85,116.75 C62.35,116.283333 62.6,115.8 62.6,115.3 M64.85,117.25 L65.15,118.25 C65.5166667,118.916667 66.1666667,119.25 67.1,119.25 C67.8,119.25 68.3666667,119.05 68.8,118.65 C69.1666667,118.283333 69.35,117.833333 69.35,117.3 C69.35,115.866667 68.6,115.183333 67.1,115.25 C65.6,115.283333 64.85,115.95 64.85,117.25 M64.35,106.3 C64.35,104.866667 63.6833333,104.183333 62.35,104.25 C61.0166667,104.283333 60.35,104.95 60.35,106.25 L60.6,107.25 C60.9666667,107.916667 61.55,108.25 62.35,108.25 C62.95,108.25 63.4666667,107.983333 63.9,107.45 C64.2,107.016667 64.35,106.633333 64.35,106.3 M62.1,99.75 L62.35,100.75 C62.7166667,101.416667 63.3,101.75 64.1,101.75 C64.7,101.75 65.2166667,101.483333 65.65,100.95 C65.95,100.516667 66.1,100.133333 66.1,99.8 C66.1,98.5666667 65.4333333,97.9166667 64.1,97.85 C62.7666667,97.75 62.1,98.3833333 62.1,99.75 M71.35,113 C71.6833333,112.6 71.85,112.15 71.85,111.65 C71.85,110.35 71.1833333,109.666667 69.85,109.6 C68.5166667,109.533333 67.85,110.183333 67.85,111.55 L68.05,112.65 C68.35,113.383333 68.95,113.75 69.85,113.75 C70.45,113.75 70.95,113.5 71.35,113 M34.6,87.35 C33.2666667,87.25 32.6,87.8833333 32.6,89.25 L32.85,90.25 C33.2166667,90.9166667 33.8,91.25 34.6,91.25 C35.2,91.25 35.7166667,90.9833333 36.15,90.45 C36.45,90.0166667 36.6,89.6333333 36.6,89.3 C36.6,88.0666667 35.9333333,87.4166667 34.6,87.35 M25.1,114.8 C25.1,113.566667 24.4333333,112.916667 23.1,112.85 C21.7666667,112.75 21.1,113.383333 21.1,114.75 L21.4,115.75 C21.7333333,116.416667 22.3,116.75 23.1,116.75 C23.7,116.75 24.2166667,116.483333 24.65,115.95 C24.95,115.516667 25.1,115.133333 25.1,114.8 M29.4,102.7 C29.7,102.266667 29.85,101.883333 29.85,101.55 C29.85,100.316667 29.1833333,99.6666667 27.85,99.6 C26.5166667,99.5 25.85,100.133333 25.85,101.5 L26.1,102.5 C26.4666667,103.166667 27.05,103.5 27.85,103.5 C28.45,103.5 28.9666667,103.233333 29.4,102.7 M17.9,120.95 C18.2,120.516667 18.35,120.133333 18.35,119.8 C18.35,118.566667 17.6833333,117.916667 16.35,117.85 C15.0166667,117.75 14.35,118.383333 14.35,119.75 L14.65,120.75 C14.9833333,121.416667 15.55,121.75 16.35,121.75 C16.95,121.75 17.4666667,121.483333 17.9,120.95 M31.85,122.05 C31.85,120.816667 31.1833333,120.166667 29.85,120.1 C28.5166667,120 27.85,120.633333 27.85,122 L28.15,123 C28.4833333,123.666667 29.05,124 29.85,124 C30.45,124 30.9666667,123.733333 31.4,123.2 C31.7,122.766667 31.85,122.383333 31.85,122.05 M28.35,112.5 C28.95,112.5 29.4666667,112.233333 29.9,111.7 C30.2,111.266667 30.35,110.883333 30.35,110.55 C30.35,109.116667 29.6833333,108.433333 28.35,108.5 C27.0166667,108.533333 26.35,109.2 26.35,110.5 L26.65,111.5 C26.9833333,112.166667 27.55,112.5 28.35,112.5 M58.35,123.25 C58.6833333,122.85 58.85,122.4 58.85,121.9 C58.85,120.6 58.1833333,119.916667 56.85,119.85 C55.5166667,119.783333 54.85,120.433333 54.85,121.8 L55.05,122.85 C55.35,123.616667 55.95,124 56.85,124 C57.45,124 57.95,123.75 58.35,123.25 M71.1,122.75 C71.4666667,123.416667 72.05,123.75 72.85,123.75 C73.45,123.75 73.9666667,123.483333 74.4,122.95 C74.7,122.516667 74.85,122.133333 74.85,121.8 C74.85,120.566667 74.1833333,119.916667 72.85,119.85 C71.5166667,119.75 70.85,120.383333 70.85,121.75 L71.1,122.75 M20.85,125.25 C21.2166667,125.916667 21.8,126.25 22.6,126.25 C23.2,126.25 23.7166667,125.983333 24.15,125.45 L24.6,124.3 C24.6,123.066667 23.9333333,122.416667 22.6,122.35 C21.2666667,122.25 20.6,122.883333 20.6,124.25 L20.85,125.25 M40.1,122.25 L40.35,123.25 C40.7833333,123.916667 41.6166667,124.25 42.85,124.25 C44.6833333,124.25 45.6,123.6 45.6,122.3 C45.6,120.733333 44.6833333,119.983333 42.85,120.05 C41.0166667,120.15 40.1,120.883333 40.1,122.25" id="Shape" fill="#FFCC66"></path>
            <path d="M72.6,20.75 C72.6,19.45 73.3166667,18.7833333 74.75,18.75 C76.15,18.6833333 76.85,19.3666667 76.85,20.8 C76.85,21.3 76.6666667,21.7333333 76.3,22.1 C75.8666667,22.5333333 75.3333333,22.75 74.7,22.75 C73.8333333,22.75 73.2166667,22.4166667 72.85,21.75 L72.6,20.75 M71.6,32.55 C71.6,33.05 71.4166667,33.5 71.05,33.9 C70.6166667,34.3 70.0833333,34.5 69.45,34.5 C68.5833333,34.5 67.9666667,34.1666667 67.6,33.5 L67.35,32.5 C67.35,31.2 68.0666667,30.5333333 69.5,30.5 C70.9,30.4333333 71.6,31.1166667 71.6,32.55 M76.1,30.25 C76.1,28.8833333 76.7666667,28.25 78.1,28.35 C79.4333333,28.4166667 80.1,29.0666667 80.1,30.3 L79.65,31.45 C79.2166667,31.9833333 78.7,32.25 78.1,32.25 C77.3,32.25 76.7166667,31.9166667 76.35,31.25 L76.1,30.25 M71.85,41.35 C73.1833333,41.4166667 73.85,42.0666667 73.85,43.3 C73.85,43.6333333 73.7,44.0166667 73.4,44.45 C72.9666667,44.9833333 72.45,45.25 71.85,45.25 C71.05,45.25 70.4833333,44.9166667 70.15,44.25 L69.85,43.25 C69.85,41.8833333 70.5166667,41.25 71.85,41.35 M98.8,44.15 L98.8,48 L98.6,48 C97.8,48 97.2166667,47.6666667 96.85,47 L96.6,46 C96.6,44.6333333 97.2666667,44 98.6,44.1 L98.8,44.15 M98.8,74.9 L98.8,78.75 L98.6,78.75 C97.8,78.75 97.2166667,78.4166667 96.85,77.75 L96.6,76.75 C96.6,75.3833333 97.2666667,74.75 98.6,74.85 L98.8,74.9 M98.8,117.7 L98.8,120.85 C98.4,121.283333 97.8666667,121.5 97.2,121.5 C96.3333333,121.5 95.7166667,121.166667 95.35,120.5 L95.1,119.5 C95.1,118.066667 95.8166667,117.3 97.25,117.2 C97.95,117.166667 98.4666667,117.333333 98.8,117.7 M56.1,55.1 C57.4333333,55.1666667 58.1,55.8166667 58.1,57.05 C58.1,57.3833333 57.95,57.7666667 57.65,58.2 C57.2166667,58.7333333 56.7,59 56.1,59 C55.3,59 54.7333333,58.6666667 54.4,58 L54.1,57 C54.1,55.6333333 54.7666667,55 56.1,55.1 M46.1,68.75 C46.1,67.3833333 46.7666667,66.75 48.1,66.85 C49.4333333,66.9166667 50.1,67.5666667 50.1,68.8 C50.1,69.1333333 49.95,69.5166667 49.65,69.95 C49.2166667,70.4833333 48.7,70.75 48.1,70.75 C47.3,70.75 46.7166667,70.4166667 46.35,69.75 L46.1,68.75 M68.85,55.75 L68.6,54.75 C68.6,53.3833333 69.2666667,52.75 70.6,52.85 C71.9333333,52.9166667 72.6,53.5666667 72.6,54.8 C72.6,55.1333333 72.45,55.5166667 72.15,55.95 C71.7166667,56.4833333 71.2,56.75 70.6,56.75 C69.8,56.75 69.2166667,56.4166667 68.85,55.75 M60.35,69.05 C60.35,69.3833333 60.2,69.7666667 59.9,70.2 C59.4666667,70.7333333 58.95,71 58.35,71 C57.55,71 56.9833333,70.6666667 56.65,70 L56.35,69 C56.35,67.6333333 57.0166667,67 58.35,67.1 C59.6833333,67.1666667 60.35,67.8166667 60.35,69.05 M76.85,65.55 C76.85,65.8833333 76.7,66.2666667 76.4,66.7 C75.9666667,67.2333333 75.45,67.5 74.85,67.5 C74.05,67.5 73.4833333,67.1666667 73.15,66.5 L72.85,65.5 C72.85,64.1333333 73.5166667,63.5 74.85,63.6 C76.1833333,63.6666667 76.85,64.3166667 76.85,65.55 M79.6,15 C79.6,13.6333333 80.2666667,13 81.6,13.1 C82.9333333,13.1666667 83.6,13.8166667 83.6,15.05 L83.15,16.2 C82.7166667,16.7333333 82.2,17 81.6,17 C80.8,17 80.2333333,16.6666667 79.9,16 L79.6,15 M89.85,29.6 C91.1833333,29.6666667 91.85,30.3166667 91.85,31.55 L91.4,32.7 C90.9666667,33.2333333 90.45,33.5 89.85,33.5 C89.05,33.5 88.4833333,33.1666667 88.15,32.5 L87.85,31.5 C87.85,30.1333333 88.5166667,29.5 89.85,29.6 M90.65,43.7 C90.2166667,44.2333333 89.7,44.5 89.1,44.5 C88.3,44.5 87.7333333,44.1666667 87.4,43.5 L87.1,42.5 C87.1,41.2 87.7666667,40.5333333 89.1,40.5 C90.4333333,40.4333333 91.1,41.1166667 91.1,42.55 L90.65,43.7 M90.6,53.6 C91.9333333,53.6666667 92.6,54.35 92.6,55.65 C92.6,56.15 92.4333333,56.6166667 92.1,57.05 C91.7,57.5166667 91.2,57.75 90.6,57.75 C89.7,57.75 89.1,57.3833333 88.8,56.65 L88.6,55.55 C88.6,54.1833333 89.2666667,53.5333333 90.6,53.6 M79.6,53.25 L79.35,52.25 C79.35,50.8833333 80.0166667,50.25 81.35,50.35 C82.6833333,50.4166667 83.35,51.0666667 83.35,52.3 L82.9,53.45 C82.4666667,53.9833333 81.95,54.25 81.35,54.25 C80.55,54.25 79.9666667,53.9166667 79.6,53.25 M83.6,66 C82.4666667,66 81.6666667,65.55 81.2,64.65 L80.85,63.45 C80.85,61.9833333 81.65,61.3666667 83.25,61.6 C84.8166667,61.8333333 85.6,62.6 85.6,63.9 C85.4666667,65.3 84.8,66 83.6,66 M93.1,64.35 C94.4333333,64.4166667 95.1,65.0666667 95.1,66.3 L94.65,67.45 C94.2166667,67.9833333 93.7,68.25 93.1,68.25 C92.3,68.25 91.7166667,67.9166667 91.35,67.25 L91.1,66.25 C91.1,64.8833333 91.7666667,64.25 93.1,64.35 M90.1,81.8 L89.65,82.95 C89.2166667,83.4833333 88.7,83.75 88.1,83.75 C87.3,83.75 86.7166667,83.4166667 86.35,82.75 L86.1,81.75 C86.1,80.3833333 86.7666667,79.75 88.1,79.85 C89.4333333,79.9166667 90.1,80.5666667 90.1,81.8 M80.65,75.7 C80.2166667,76.2333333 79.7,76.5 79.1,76.5 C78.3,76.5 77.7166667,76.1666667 77.35,75.5 L77.1,74.5 C77.1,73.2 77.7666667,72.5333333 79.1,72.5 C80.4333333,72.4333333 81.1,73.1166667 81.1,74.55 L80.65,75.7 M87.85,97 L87.6,96 C87.6,94.6333333 88.2666667,94 89.6,94.1 C90.9333333,94.1666667 91.6,94.8166667 91.6,96.05 L91.15,97.2 C90.7166667,97.7333333 90.2,98 89.6,98 C88.8,98 88.2166667,97.6666667 87.85,97 M90.1,105.3 L89.65,106.45 C89.2166667,106.983333 88.7,107.25 88.1,107.25 C87.3,107.25 86.7166667,106.916667 86.35,106.25 L86.1,105.25 C86.1,103.883333 86.7666667,103.25 88.1,103.35 C89.4333333,103.416667 90.1,104.066667 90.1,105.3 M80.35,99.05 L79.9,100.2 C79.4666667,100.733333 78.95,101 78.35,101 C77.55,101 76.9666667,100.666667 76.6,100 L76.35,99 C76.35,97.6333333 77.0166667,97 78.35,97.1 C79.6833333,97.1666667 80.35,97.8166667 80.35,99.05 M78.65,109.2 C78.2166667,109.733333 77.7,110 77.1,110 C76.3,110 75.7333333,109.666667 75.4,109 L75.1,108 C75.1,106.633333 75.7666667,106 77.1,106.1 C78.4333333,106.166667 79.1,106.816667 79.1,108.05 L78.65,109.2 M86.6,115.75 C86.6,114.383333 87.2666667,113.75 88.6,113.85 C89.9333333,113.916667 90.6,114.566667 90.6,115.8 L90.15,116.95 C89.7166667,117.483333 89.2,117.75 88.6,117.75 C87.8,117.75 87.2166667,117.416667 86.85,116.75 L86.6,115.75 M77.35,122 L77.1,121 C77.1,119.7 77.7666667,119.033333 79.1,119 C80.4333333,118.933333 81.1,119.616667 81.1,121.05 L80.65,122.2 C80.2166667,122.733333 79.7,123 79.1,123 C78.3,123 77.7166667,122.666667 77.35,122 M67.15,76.7 C66.7166667,77.2333333 66.2,77.5 65.6,77.5 C64.8,77.5 64.2166667,77.1666667 63.85,76.5 L63.6,75.5 C63.6,74.2 64.2666667,73.5333333 65.6,73.5 C66.9333333,73.4333333 67.6,74.1166667 67.6,75.55 C67.6,75.8833333 67.45,76.2666667 67.15,76.7 M57.4,78.95 C56.9666667,79.4833333 56.45,79.75 55.85,79.75 C55.05,79.75 54.4666667,79.4166667 54.1,78.75 L53.85,77.75 C53.85,76.3833333 54.5166667,75.75 55.85,75.85 C57.1833333,75.9166667 57.85,76.5666667 57.85,77.8 C57.85,78.1333333 57.7,78.5166667 57.4,78.95 M61.6,86.35 C62.9333333,86.4166667 63.6,87.0666667 63.6,88.3 C63.6,88.6333333 63.45,89.0166667 63.15,89.45 C62.7166667,89.9833333 62.2,90.25 61.6,90.25 C60.8,90.25 60.2166667,89.9166667 59.85,89.25 L59.6,88.25 C59.6,86.8833333 60.2666667,86.25 61.6,86.35 M73,84.8 C73.2666667,84.1 73.8833333,83.7833333 74.85,83.85 C76.1833333,83.9166667 76.85,84.5666667 76.85,85.8 C76.85,86.1333333 76.7,86.5166667 76.4,86.95 C75.9666667,87.4833333 75.45,87.75 74.85,87.75 C74.05,87.75 73.4833333,87.4333333 73.15,86.8 L73.35,86.05 C73.35,85.5166667 73.2333333,85.1 73,84.8 M47.4,81.95 C46.9666667,82.4833333 46.45,82.75 45.85,82.75 C45.05,82.75 44.4666667,82.4166667 44.1,81.75 L43.85,80.75 C43.85,79.3833333 44.5166667,78.75 45.85,78.85 C47.1833333,78.9166667 47.85,79.5666667 47.85,80.8 L47.4,81.95 M45.6,90.25 C45.6,88.8833333 46.2666667,88.25 47.6,88.35 C48.9333333,88.4166667 49.6,89.0666667 49.6,90.3 C49.6,90.6333333 49.45,91.0166667 49.15,91.45 C48.7166667,91.9833333 48.2,92.25 47.6,92.25 C46.8,92.25 46.2166667,91.9166667 45.85,91.25 L45.6,90.25 M52.9,98.7 C52.4666667,99.2333333 51.95,99.5 51.35,99.5 C50.55,99.5 49.9666667,99.1666667 49.6,98.5 L49.35,97.5 C49.35,96.1333333 50.0166667,95.5 51.35,95.6 C52.6833333,95.6666667 53.35,96.3166667 53.35,97.55 C53.35,97.8833333 53.2,98.2666667 52.9,98.7 M37.9,99.2 C37.4666667,99.7333333 36.95,100 36.35,100 C35.55,100 34.9666667,99.6666667 34.6,99 L34.35,98 C34.35,96.6333333 35.0166667,96 36.35,96.1 C37.6833333,96.1666667 38.35,96.8166667 38.35,98.05 C38.35,98.3833333 38.2,98.7666667 37.9,99.2 M44.1,110.1 C45.4333333,110.166667 46.1,110.85 46.1,112.15 C46.1,112.65 45.9333333,113.1 45.6,113.5 C45.2,114 44.7,114.25 44.1,114.25 C43.2,114.25 42.6,113.866667 42.3,113.1 L42.1,112.05 C42.1,110.683333 42.7666667,110.033333 44.1,110.1 M51.35,109.55 C51.35,109.883333 51.2,110.266667 50.9,110.7 C50.4666667,111.233333 49.95,111.5 49.35,111.5 C48.55,111.5 47.9833333,111.166667 47.65,110.5 L47.35,109.5 C47.35,108.133333 48.0166667,107.5 49.35,107.6 C50.6833333,107.666667 51.35,108.316667 51.35,109.55 M62.1,99.75 C62.1,98.3833333 62.7666667,97.75 64.1,97.85 C65.4333333,97.9166667 66.1,98.5666667 66.1,99.8 C66.1,100.133333 65.95,100.516667 65.65,100.95 C65.2166667,101.483333 64.7,101.75 64.1,101.75 C63.3,101.75 62.7166667,101.416667 62.35,100.75 L62.1,99.75 M64.35,106.3 C64.35,106.633333 64.2,107.016667 63.9,107.45 C63.4666667,107.983333 62.95,108.25 62.35,108.25 C61.55,108.25 60.9666667,107.916667 60.6,107.25 L60.35,106.25 C60.35,104.95 61.0166667,104.283333 62.35,104.25 C63.6833333,104.183333 64.35,104.866667 64.35,106.3 M64.85,117.25 C64.85,115.95 65.6,115.283333 67.1,115.25 C68.6,115.183333 69.35,115.866667 69.35,117.3 C69.35,117.833333 69.1666667,118.283333 68.8,118.65 C68.3666667,119.05 67.8,119.25 67.1,119.25 C66.1666667,119.25 65.5166667,118.916667 65.15,118.25 L64.85,117.25 M62.6,115.3 C62.6,115.8 62.35,116.283333 61.85,116.75 C61.15,117.416667 60.1833333,117.75 58.95,117.75 C58.0833333,117.75 57.4666667,117.416667 57.1,116.75 L56.85,115.75 C56.85,114.483333 57.8166667,113.666667 59.75,113.3 C61.65,112.933333 62.6,113.6 62.6,115.3 M34.6,87.35 C35.9333333,87.4166667 36.6,88.0666667 36.6,89.3 C36.6,89.6333333 36.45,90.0166667 36.15,90.45 C35.7166667,90.9833333 35.2,91.25 34.6,91.25 C33.8,91.25 33.2166667,90.9166667 32.85,90.25 L32.6,89.25 C32.6,87.8833333 33.2666667,87.25 34.6,87.35 M28.35,112.5 C27.55,112.5 26.9833333,112.166667 26.65,111.5 L26.35,110.5 C26.35,109.2 27.0166667,108.533333 28.35,108.5 C29.6833333,108.433333 30.35,109.116667 30.35,110.55 C30.35,110.883333 30.2,111.266667 29.9,111.7 C29.4666667,112.233333 28.95,112.5 28.35,112.5 M31.85,122.05 C31.85,122.383333 31.7,122.766667 31.4,123.2 C30.9666667,123.733333 30.45,124 29.85,124 C29.05,124 28.4833333,123.666667 28.15,123 L27.85,122 C27.85,120.633333 28.5166667,120 29.85,120.1 C31.1833333,120.166667 31.85,120.816667 31.85,122.05 M17.9,120.95 C17.4666667,121.483333 16.95,121.75 16.35,121.75 C15.55,121.75 14.9833333,121.416667 14.65,120.75 L14.35,119.75 C14.35,118.383333 15.0166667,117.75 16.35,117.85 C17.6833333,117.916667 18.35,118.566667 18.35,119.8 C18.35,120.133333 18.2,120.516667 17.9,120.95 M40.1,122.25 C40.1,120.883333 41.0166667,120.15 42.85,120.05 C44.6833333,119.983333 45.6,120.733333 45.6,122.3 C45.6,123.6 44.6833333,124.25 42.85,124.25 C41.6166667,124.25 40.7833333,123.916667 40.35,123.25 L40.1,122.25" id="Shape" fill="#CC9966"></path>
            <path d="M71.6,24.1 C72.9333333,24.1666667 73.6,24.8166667 73.6,26.05 C73.6,26.3833333 73.45,26.7666667 73.15,27.2 C72.7166667,27.7333333 72.2,28 71.6,28 C70.8,28 70.2166667,27.6666667 69.85,27 L69.6,26 C69.6,24.6333333 70.2666667,24 71.6,24.1 M64.15,40 L63.85,39 C63.85,37.7 64.5166667,37.0333333 65.85,37 C67.1833333,36.9333333 67.85,37.6166667 67.85,39.05 C67.85,39.3833333 67.7,39.7666667 67.4,40.2 C66.9666667,40.7333333 66.45,41 65.85,41 C65.05,41 64.4833333,40.6666667 64.15,40 M77.1,36.85 C78.4333333,36.9166667 79.1,37.5666667 79.1,38.8 L78.65,39.95 C78.2166667,40.4833333 77.7,40.75 77.1,40.75 C76.3,40.75 75.7333333,40.4166667 75.4,39.75 L75.1,38.75 C75.1,37.3833333 75.7666667,36.75 77.1,36.85 M98.8,57.4 L98.8,61.2 L98.35,61.25 C97.55,61.25 96.9666667,60.9166667 96.6,60.25 L96.35,59.25 C96.35,57.8833333 97.0166667,57.25 98.35,57.35 L98.8,57.4 M98.8,109.35 L98.8,113.4 C98.0333333,113.266667 97.4833333,112.966667 97.15,112.5 L96.85,111.5 C96.85,110.4 97.5,109.683333 98.8,109.35 M55.15,63.2 C54.7166667,63.7333333 54.2,64 53.6,64 C52.8,64 52.2166667,63.6666667 51.85,63 L51.6,62 C51.6,60.6333333 52.2666667,60 53.6,60.1 C54.9333333,60.1666667 55.6,60.8166667 55.6,62.05 C55.6,62.3833333 55.45,62.7666667 55.15,63.2 M64.35,52 C63.55,52 62.9833333,51.6666667 62.65,51 L62.35,50 C62.35,48.6333333 63.0166667,48 64.35,48.1 C65.6833333,48.1666667 66.35,48.8166667 66.35,50.05 C66.35,50.3833333 66.2,50.7666667 65.9,51.2 C65.4666667,51.7333333 64.95,52 64.35,52 M66.35,60.05 C66.35,60.3833333 66.2,60.7666667 65.9,61.2 C65.4666667,61.7333333 64.95,62 64.35,62 C63.55,62 62.9833333,61.6666667 62.65,61 L62.35,60 C62.35,58.6333333 63.0166667,58 64.35,58.1 C65.6833333,58.1666667 66.35,58.8166667 66.35,60.05 M62.6,67.75 C62.6,66.3833333 63.2666667,65.75 64.6,65.85 C65.9333333,65.9166667 66.6,66.5666667 66.6,67.8 C66.6,68.1333333 66.45,68.5166667 66.15,68.95 C65.7166667,69.4833333 65.2,69.75 64.6,69.75 C63.8,69.75 63.2166667,69.4166667 62.85,68.75 L62.6,67.75 M75.6,57.25 C75.6,55.8833333 76.2666667,55.25 77.6,55.35 C78.9333333,55.4166667 79.6,56.0666667 79.6,57.3 L79.15,58.45 C78.7166667,58.9833333 78.2,59.25 77.6,59.25 C76.8,59.25 76.2166667,58.9166667 75.85,58.25 L75.6,57.25 M85.1,21.85 C86.4333333,21.9166667 87.1,22.5666667 87.1,23.8 L86.65,24.95 C86.2166667,25.4833333 85.7,25.75 85.1,25.75 C84.3,25.75 83.7166667,25.4166667 83.35,24.75 L83.1,23.75 C83.1,22.3833333 83.7666667,21.75 85.1,21.85 M84.75,36.15 C84.35,36.55 83.8333333,36.75 83.2,36.75 C82.3333333,36.75 81.7333333,36.4166667 81.4,35.75 L81.1,34.75 C81.1,33.45 81.8166667,32.7833333 83.25,32.75 C84.65,32.6833333 85.35,33.3666667 85.35,34.8 C85.35,35.3 85.15,35.75 84.75,36.15 M96.1,38.15 C96.1,38.65 95.9333333,39.1 95.6,39.5 C95.2,40 94.7,40.25 94.1,40.25 C93.2,40.25 92.6,39.8833333 92.3,39.15 L92.1,38.05 C92.1,36.6833333 92.7666667,36.0333333 94.1,36.1 C95.4333333,36.1666667 96.1,36.85 96.1,38.15 M88.35,48.75 L88.1,47.75 C88.1,46.3833333 88.7666667,45.75 90.1,45.85 C91.4333333,45.9166667 92.1,46.5666667 92.1,47.8 L91.65,48.95 C91.2166667,49.4833333 90.7,49.75 90.1,49.75 C89.3,49.75 88.7166667,49.4166667 88.35,48.75 M77.6,45.75 C77.6,44.3833333 78.2666667,43.75 79.6,43.85 C80.9333333,43.9166667 81.6,44.5666667 81.6,45.8 L81.15,46.95 C80.7166667,47.4833333 80.2,47.75 79.6,47.75 C78.8,47.75 78.2166667,47.4166667 77.85,46.75 L77.6,45.75 M83.35,57.5 C83.35,56.1333333 84.0166667,55.5 85.35,55.6 C86.6833333,55.6666667 87.35,56.3166667 87.35,57.55 L86.9,58.7 C86.4666667,59.2333333 85.95,59.5 85.35,59.5 C84.55,59.5 83.9833333,59.1666667 83.65,58.5 L83.35,57.5 M89.9,72.7 C89.4666667,73.2333333 88.95,73.5 88.35,73.5 C87.55,73.5 86.9833333,73.1666667 86.65,72.5 L86.35,71.5 C86.35,70.1333333 87.0166667,69.5 88.35,69.6 C89.6833333,69.6666667 90.35,70.3166667 90.35,71.55 L89.9,72.7 M83.65,85.95 C83.2166667,86.4833333 82.7,86.75 82.1,86.75 C81.3,86.75 80.7166667,86.4166667 80.35,85.75 L80.1,84.75 C80.1,83.3833333 80.7666667,82.75 82.1,82.85 C83.4333333,82.9166667 84.1,83.5666667 84.1,84.8 L83.65,85.95 M78.15,94.2 C77.7166667,94.7333333 77.2,95 76.6,95 C75.8,95 75.2166667,94.6666667 74.85,94 L74.6,93 C74.6,91.6333333 75.2666667,91 76.6,91.1 C77.9333333,91.1666667 78.6,91.8166667 78.6,93.05 L78.15,94.2 M83.65,89.75 L83.35,88.75 C83.35,87.3833333 84.0166667,86.75 85.35,86.85 C86.6833333,86.9166667 87.35,87.5666667 87.35,88.8 L86.9,89.95 C86.4666667,90.4833333 85.95,90.75 85.35,90.75 C84.55,90.75 83.9833333,90.4166667 83.65,89.75 M95.4,87.7 C94.9666667,88.2333333 94.45,88.5 93.85,88.5 C93.05,88.5 92.4666667,88.1666667 92.1,87.5 L91.85,86.5 C91.85,85.1333333 92.5166667,84.5 93.85,84.6 C95.1833333,84.6666667 95.85,85.3166667 95.85,86.55 L95.4,87.7 M96.6,98.6 C97.9333333,98.6666667 98.6,99.35 98.6,100.65 C98.6,101.15 98.4333333,101.616667 98.1,102.05 C97.7,102.516667 97.2,102.75 96.6,102.75 C95.7,102.75 95.1,102.383333 94.8,101.65 L94.6,100.55 C94.6,99.1833333 95.2666667,98.5333333 96.6,98.6 M85.35,100.5 C84.55,100.5 83.9833333,100.166667 83.65,99.5 L83.35,98.5 C83.35,97.1333333 84.0166667,96.5 85.35,96.6 C86.6833333,96.6666667 87.35,97.3166667 87.35,98.55 L86.9,99.7 C86.4666667,100.233333 85.95,100.5 85.35,100.5 M85.65,111.2 C85.2166667,111.733333 84.7,112 84.1,112 C83.3,112 82.7166667,111.666667 82.35,111 L82.1,110 C82.1,108.633333 82.7666667,108 84.1,108.1 C85.4333333,108.166667 86.1,108.816667 86.1,110.05 L85.65,111.2 M77.6,115.75 C76.8,115.75 76.2166667,115.416667 75.85,114.75 L75.6,113.75 C75.6,112.383333 76.2666667,111.75 77.6,111.85 C78.9333333,111.916667 79.6,112.566667 79.6,113.8 L79.15,114.95 C78.7166667,115.483333 78.2,115.75 77.6,115.75 M84.85,122.25 C84.05,122.25 83.4666667,121.916667 83.1,121.25 L82.85,120.25 C82.85,118.883333 83.5166667,118.25 84.85,118.35 C86.1833333,118.416667 86.85,119.066667 86.85,120.3 L86.4,121.45 C85.9666667,121.983333 85.45,122.25 84.85,122.25 M67.9,72.75 L67.6,71.75 C67.6,70.3833333 68.2666667,69.75 69.6,69.85 C70.9333333,69.9166667 71.6,70.5666667 71.6,71.8 C71.6,72.1333333 71.45,72.5166667 71.15,72.95 C70.7166667,73.4833333 70.2,73.75 69.6,73.75 C68.8,73.75 68.2333333,73.4166667 67.9,72.75 M68.6,77.25 C68.6,75.8833333 69.2666667,75.25 70.6,75.35 C71.9333333,75.4166667 72.6,76.0666667 72.6,77.3 C72.6,77.6333333 72.45,78.0166667 72.15,78.45 C71.7166667,78.9833333 71.2,79.25 70.6,79.25 C69.8,79.25 69.2166667,78.9166667 68.85,78.25 L68.6,77.25 M65.85,80.8 C65.85,81.1333333 65.7,81.5166667 65.4,81.95 C64.9666667,82.4833333 64.45,82.75 63.85,82.75 C63.05,82.75 62.4666667,82.4166667 62.1,81.75 L61.85,80.75 C61.85,79.3833333 62.5166667,78.75 63.85,78.85 C65.1833333,78.9166667 65.85,79.5666667 65.85,80.8 M60.35,93.8 C60.35,94.1333333 60.2,94.5166667 59.9,94.95 C59.4666667,95.4833333 58.95,95.75 58.35,95.75 C57.55,95.75 56.9833333,95.4166667 56.65,94.75 L56.35,93.75 C56.35,92.3833333 57.0166667,91.75 58.35,91.85 C59.6833333,91.9166667 60.35,92.5666667 60.35,93.8 M63.85,91.7 C63.85,90.0666667 64.9333333,89.4166667 67.1,89.75 C69.2666667,90.1166667 70.35,90.9666667 70.35,92.3 C70.35,92.8333333 70.1666667,93.2833333 69.8,93.65 C69.3333333,94.05 68.6833333,94.25 67.85,94.25 C66.05,94.25 64.8333333,93.8166667 64.2,92.95 L63.85,91.7 M73.15,86.8 L72.9,87.2 C72.4666667,87.7333333 71.95,88 71.35,88 C70.55,88 69.9666667,87.6666667 69.6,87 L69.35,86 C69.35,84.6333333 70.0166667,84 71.35,84.1 C72.1166667,84.1333333 72.6666667,84.3666667 73,84.8 C73.2333333,85.1 73.35,85.5166667 73.35,86.05 L73.15,86.8 M50.85,73.85 C52.1833333,73.9166667 52.85,74.5666667 52.85,75.8 C52.85,76.1333333 52.7,76.5166667 52.4,76.95 C51.9666667,77.4833333 51.45,77.75 50.85,77.75 C50.05,77.75 49.4833333,77.4166667 49.15,76.75 L48.85,75.75 C48.85,74.3833333 49.5166667,73.75 50.85,73.85 M43.9,74.7 C43.4666667,75.2333333 42.95,75.5 42.35,75.5 C41.55,75.5 40.9666667,75.1666667 40.6,74.5 L40.35,73.5 C40.35,72.1333333 41.0166667,71.5 42.35,71.6 C43.6833333,71.6666667 44.35,72.3166667 44.35,73.55 C44.35,73.8833333 44.2,74.2666667 43.9,74.7 M40.25,82.85 C41.65,82.55 42.35,83.2 42.35,84.8 C42.35,85.4666667 42.25,86.1 42.05,86.7 C41.65,87.7333333 41,88.25 40.1,88.25 C39.1666667,88.25 38.5666667,87.9 38.3,87.2 L38.1,86.05 C38.1,84.2166667 38.8166667,83.15 40.25,82.85 M54.85,86.5 C53.9166667,86.5 53.2666667,86.1666667 52.9,85.5 L52.6,84.5 C52.6,83.2 53.35,82.5333333 54.85,82.5 C56.35,82.4333333 57.1,83.1166667 57.1,84.55 C57.1,85.05 56.9166667,85.4833333 56.55,85.85 C56.1166667,86.2833333 55.55,86.5 54.85,86.5 M53.15,103.9 L52.85,102.75 C52.85,101.316667 53.5666667,100.666667 55,100.8 C56.4,100.933333 57.1,101.65 57.1,102.95 C57.1,103.416667 56.9333333,103.866667 56.6,104.3 C56.2,104.766667 55.7,105 55.1,105 C54.1666667,105 53.5166667,104.633333 53.15,103.9 M44.15,102.2 C43.7166667,102.733333 43.2,103 42.6,103 C41.8,103 41.2333333,102.666667 40.9,102 L40.6,101 C40.6,99.6333333 41.2666667,99 42.6,99.1 C43.9333333,99.1666667 44.6,99.8166667 44.6,101.05 C44.6,101.383333 44.45,101.766667 44.15,102.2 M37.35,110.25 C36.55,110.25 35.9833333,109.916667 35.65,109.25 L35.35,108.25 C35.35,106.883333 36.0166667,106.25 37.35,106.35 C38.6833333,106.416667 39.35,107.066667 39.35,108.3 C39.35,108.633333 39.2,109.016667 38.9,109.45 C38.4666667,109.983333 37.95,110.25 37.35,110.25 M38.15,116.95 C37.7166667,117.483333 37.2,117.75 36.6,117.75 C35.8,117.75 35.2333333,117.416667 34.9,116.75 L34.6,115.75 C34.6,114.383333 35.2666667,113.75 36.6,113.85 C37.9333333,113.916667 38.6,114.566667 38.6,115.8 C38.6,116.133333 38.45,116.516667 38.15,116.95 M50.1,117.75 C50.1,116.45 50.7666667,115.783333 52.1,115.75 C53.4333333,115.683333 54.1,116.366667 54.1,117.8 C54.1,118.133333 53.95,118.516667 53.65,118.95 C53.2166667,119.483333 52.7,119.75 52.1,119.75 C51.3,119.75 50.7166667,119.416667 50.35,118.75 L50.1,117.75 M68.35,105.25 C67.55,105.25 66.9666667,104.916667 66.6,104.25 L66.35,103.25 C66.35,101.883333 67.0166667,101.25 68.35,101.35 C69.6833333,101.416667 70.35,102.066667 70.35,103.3 L69.9,104.45 C69.4666667,104.983333 68.95,105.25 68.35,105.25 M71.35,113 C70.95,113.5 70.45,113.75 69.85,113.75 C68.95,113.75 68.35,113.383333 68.05,112.65 L67.85,111.55 C67.85,110.183333 68.5166667,109.533333 69.85,109.6 C71.1833333,109.666667 71.85,110.35 71.85,111.65 C71.85,112.15 71.6833333,112.6 71.35,113 M29.4,102.7 C28.9666667,103.233333 28.45,103.5 27.85,103.5 C27.05,103.5 26.4666667,103.166667 26.1,102.5 L25.85,101.5 C25.85,100.133333 26.5166667,99.5 27.85,99.6 C29.1833333,99.6666667 29.85,100.316667 29.85,101.55 C29.85,101.883333 29.7,102.266667 29.4,102.7 M25.1,114.8 C25.1,115.133333 24.95,115.516667 24.65,115.95 C24.2166667,116.483333 23.7,116.75 23.1,116.75 C22.3,116.75 21.7333333,116.416667 21.4,115.75 L21.1,114.75 C21.1,113.383333 21.7666667,112.75 23.1,112.85 C24.4333333,112.916667 25.1,113.566667 25.1,114.8 M20.85,125.25 L20.6,124.25 C20.6,122.883333 21.2666667,122.25 22.6,122.35 C23.9333333,122.416667 24.6,123.066667 24.6,124.3 L24.15,125.45 C23.7166667,125.983333 23.2,126.25 22.6,126.25 C21.8,126.25 21.2166667,125.916667 20.85,125.25 M71.1,122.75 L70.85,121.75 C70.85,120.383333 71.5166667,119.75 72.85,119.85 C74.1833333,119.916667 74.85,120.566667 74.85,121.8 C74.85,122.133333 74.7,122.516667 74.4,122.95 C73.9666667,123.483333 73.45,123.75 72.85,123.75 C72.05,123.75 71.4666667,123.416667 71.1,122.75 M58.35,123.25 C57.95,123.75 57.45,124 56.85,124 C55.95,124 55.35,123.616667 55.05,122.85 L54.85,121.8 C54.85,120.433333 55.5166667,119.783333 56.85,119.85 C58.1833333,119.916667 58.85,120.6 58.85,121.9 C58.85,122.4 58.6833333,122.85 58.35,123.25" id="Shape" fill="#FFFF66"></path>
            <path d="M98.8,129 L23.7,129 L18.2,130 C16.2333333,130.233333 14.6,129.9 13.3,129 C12.4666667,128.433333 11.75,127.666667 11.15,126.7 C10.1833333,125.1 9.7,123.566667 9.7,122.1 C9.7,121.733333 13.8,114.6 22,100.7 C30.9333333,85.5666667 36.6666667,74.4166667 39.2,67.25 C39.6,66.0833333 42.0166667,63.85 46.45,60.55 C51.0166667,57.15 53.6833333,54.6333333 54.45,53 C55.1166667,51.6333333 56.55,49.4333333 58.75,46.4 C60.35,43.6333333 60.6666667,41.3333333 59.7,39.5 C61.4666667,32.9 63.0833333,27.75 64.55,24.05 C67.25,17.3833333 70.55,13.2833333 74.45,11.75 C79.7166667,9.65 83.65,9.16666667 86.25,10.3 C88.3166667,11.2 89.8,13.3166667 90.7,16.65 C91.2333333,18.6166667 91.8333333,21.8666667 92.5,26.4 C93.3333333,30.3333333 94.65,33.2 96.45,35 L98.8,36.8" id="Path" stroke="#000000" stroke-width="2" stroke-linecap="round" stroke-linejoin="round"></path>
            <g id="302-copy-2" transform="translate(89, 0)">
                <path d="M92.5,26.4 C93.3333333,30.3333333 94.65,33.2 96.45,35 L98.8,36.8 M98.8,129 L23.7,129 L18.2,130 C16.2333333,130.233333 14.6,129.9 13.3,129 C12.4666667,128.433333 11.75,127.666667 11.15,126.7 C10.1833333,125.1 9.7,123.566667 9.7,122.1 C9.7,121.733333 13.8,114.6 22,100.7 C30.9333333,85.5666667 36.6666667,74.4166667 39.2,67.25 C39.6,66.0833333 42.0166667,63.85 46.45,60.55 C51.0166667,57.15 53.6833333,54.6333333 54.45,53 C55.1166667,51.6333333 56.55,49.4333333 58.75,46.4 C60.35,43.6333333 60.6666667,41.3333333 59.7,39.5" id="Shape" stroke-opacity="0" stroke="#FF0000" stroke-width="19.45" stroke-linecap="round" stroke-linejoin="round" transform="translate(54.25, 78.236) scale(-1, 1) translate(-54.25, -78.236)"></path>
                <path d="M59.7,39.5 C61.4666667,32.9 63.0833333,27.75 64.55,24.05 C67.25,17.3833333 70.55,13.2833333 74.45,11.75 C79.7166667,9.65 83.65,9.16666667 86.25,10.3 C88.3166667,11.2 89.8,13.3166667 90.7,16.65 C91.2333333,18.6166667 91.8333333,21.8666667 92.5,26.4" id="Path" stroke-opacity="0" stroke="#C1C1C1" stroke-width="19.45" stroke-linecap="round" stroke-linejoin="round" transform="translate(76.1, 24.6021) scale(-1, 1) translate(-76.1, -24.6021)"></path>
                <path d="M72.6,20.75 L72.85,21.75 C73.2166667,22.4166667 73.8333333,22.75 74.7,22.75 C75.3333333,22.75 75.8666667,22.5333333 76.3,22.1 C76.6666667,21.7333333 76.85,21.3 76.85,20.8 C76.85,19.3666667 76.15,18.6833333 74.75,18.75 C73.3166667,18.7833333 72.6,19.45 72.6,20.75 M71.6,24.1 C70.2666667,24 69.6,24.6333333 69.6,26 L69.85,27 C70.2166667,27.6666667 70.8,28 71.6,28 C72.2,28 72.7166667,27.7333333 73.15,27.2 C73.45,26.7666667 73.6,26.3833333 73.6,26.05 C73.6,24.8166667 72.9333333,24.1666667 71.6,24.1 M76.1,30.25 L76.35,31.25 C76.7166667,31.9166667 77.3,32.25 78.1,32.25 C78.7,32.25 79.2166667,31.9833333 79.65,31.45 L80.1,30.3 C80.1,29.0666667 79.4333333,28.4166667 78.1,28.35 C76.7666667,28.25 76.1,28.8833333 76.1,30.25 M71.6,32.55 C71.6,31.1166667 70.9,30.4333333 69.5,30.5 C68.0666667,30.5333333 67.35,31.2 67.35,32.5 L67.6,33.5 C67.9666667,34.1666667 68.5833333,34.5 69.45,34.5 C70.0833333,34.5 70.6166667,34.3 71.05,33.9 C71.4166667,33.5 71.6,33.05 71.6,32.55 M77.1,36.85 C75.7666667,36.75 75.1,37.3833333 75.1,38.75 L75.4,39.75 C75.7333333,40.4166667 76.3,40.75 77.1,40.75 C77.7,40.75 78.2166667,40.4833333 78.65,39.95 L79.1,38.8 C79.1,37.5666667 78.4333333,36.9166667 77.1,36.85 M64.15,40 C64.4833333,40.6666667 65.05,41 65.85,41 C66.45,41 66.9666667,40.7333333 67.4,40.2 C67.7,39.7666667 67.85,39.3833333 67.85,39.05 C67.85,37.6166667 67.1833333,36.9333333 65.85,37 C64.5166667,37.0333333 63.85,37.7 63.85,39 L64.15,40 M71.85,41.35 C70.5166667,41.25 69.85,41.8833333 69.85,43.25 L70.15,44.25 C70.4833333,44.9166667 71.05,45.25 71.85,45.25 C72.45,45.25 72.9666667,44.9833333 73.4,44.45 C73.7,44.0166667 73.85,43.6333333 73.85,43.3 C73.85,42.0666667 73.1833333,41.4166667 71.85,41.35 M98.8,129 L23.7,129 L18.2,130 C16.2333333,130.233333 14.6,129.9 13.3,129 C12.4666667,128.433333 11.75,127.666667 11.15,126.7 C10.1833333,125.1 9.7,123.566667 9.7,122.1 C9.7,121.733333 13.8,114.6 22,100.7 C30.9333333,85.5666667 36.6666667,74.4166667 39.2,67.25 C39.6,66.0833333 42.0166667,63.85 46.45,60.55 C51.0166667,57.15 53.6833333,54.6333333 54.45,53 C55.1166667,51.6333333 56.55,49.4333333 58.75,46.4 C60.35,43.6333333 60.6666667,41.3333333 59.7,39.5 C61.4666667,32.9 63.0833333,27.75 64.55,24.05 C67.25,17.3833333 70.55,13.2833333 74.45,11.75 C79.7166667,9.65 83.65,9.16666667 86.25,10.3 C88.3166667,11.2 89.8,13.3166667 90.7,16.65 C91.2333333,18.6166667 91.8333333,21.8666667 92.5,26.4 C93.3333333,30.3333333 94.65,33.2 96.45,35 L98.8,36.8 L98.8,44.15 L98.6,44.1 C97.2666667,44 96.6,44.6333333 96.6,46 L96.85,47 C97.2166667,47.6666667 97.8,48 98.6,48 L98.8,48 L98.8,57.4 L98.35,57.35 C97.0166667,57.25 96.35,57.8833333 96.35,59.25 L96.6,60.25 C96.9666667,60.9166667 97.55,61.25 98.35,61.25 L98.8,61.2 L98.8,74.9 L98.6,74.85 C97.2666667,74.75 96.6,75.3833333 96.6,76.75 L96.85,77.75 C97.2166667,78.4166667 97.8,78.75 98.6,78.75 L98.8,78.75 L98.8,109.35 C97.5,109.683333 96.85,110.4 96.85,111.5 L97.15,112.5 C97.4833333,112.966667 98.0333333,113.266667 98.8,113.4 L98.8,117.7 C98.4666667,117.333333 97.95,117.166667 97.25,117.2 C95.8166667,117.3 95.1,118.066667 95.1,119.5 L95.35,120.5 C95.7166667,121.166667 96.3333333,121.5 97.2,121.5 C97.8666667,121.5 98.4,121.283333 98.8,120.85 L98.8,129 M46.1,68.75 L46.35,69.75 C46.7166667,70.4166667 47.3,70.75 48.1,70.75 C48.7,70.75 49.2166667,70.4833333 49.65,69.95 C49.95,69.5166667 50.1,69.1333333 50.1,68.8 C50.1,67.5666667 49.4333333,66.9166667 48.1,66.85 C46.7666667,66.75 46.1,67.3833333 46.1,68.75 M56.1,55.1 C54.7666667,55 54.1,55.6333333 54.1,57 L54.4,58 C54.7333333,58.6666667 55.3,59 56.1,59 C56.7,59 57.2166667,58.7333333 57.65,58.2 C57.95,57.7666667 58.1,57.3833333 58.1,57.05 C58.1,55.8166667 57.4333333,55.1666667 56.1,55.1 M55.15,63.2 C55.45,62.7666667 55.6,62.3833333 55.6,62.05 C55.6,60.8166667 54.9333333,60.1666667 53.6,60.1 C52.2666667,60 51.6,60.6333333 51.6,62 L51.85,63 C52.2166667,63.6666667 52.8,64 53.6,64 C54.2,64 54.7166667,63.7333333 55.15,63.2 M68.85,55.75 C69.2166667,56.4166667 69.8,56.75 70.6,56.75 C71.2,56.75 71.7166667,56.4833333 72.15,55.95 C72.45,55.5166667 72.6,55.1333333 72.6,54.8 C72.6,53.5666667 71.9333333,52.9166667 70.6,52.85 C69.2666667,52.75 68.6,53.3833333 68.6,54.75 L68.85,55.75 M66.35,60.05 C66.35,58.8166667 65.6833333,58.1666667 64.35,58.1 C63.0166667,58 62.35,58.6333333 62.35,60 L62.65,61 C62.9833333,61.6666667 63.55,62 64.35,62 C64.95,62 65.4666667,61.7333333 65.9,61.2 C66.2,60.7666667 66.35,60.3833333 66.35,60.05 M64.35,52 C64.95,52 65.4666667,51.7333333 65.9,51.2 C66.2,50.7666667 66.35,50.3833333 66.35,50.05 C66.35,48.8166667 65.6833333,48.1666667 64.35,48.1 C63.0166667,48 62.35,48.6333333 62.35,50 L62.65,51 C62.9833333,51.6666667 63.55,52 64.35,52 M60.35,69.05 C60.35,67.8166667 59.6833333,67.1666667 58.35,67.1 C57.0166667,67 56.35,67.6333333 56.35,69 L56.65,70 C56.9833333,70.6666667 57.55,71 58.35,71 C58.95,71 59.4666667,70.7333333 59.9,70.2 C60.2,69.7666667 60.35,69.3833333 60.35,69.05 M62.6,67.75 L62.85,68.75 C63.2166667,69.4166667 63.8,69.75 64.6,69.75 C65.2,69.75 65.7166667,69.4833333 66.15,68.95 C66.45,68.5166667 66.6,68.1333333 66.6,67.8 C66.6,66.5666667 65.9333333,65.9166667 64.6,65.85 C63.2666667,65.75 62.6,66.3833333 62.6,67.75 M76.85,65.55 C76.85,64.3166667 76.1833333,63.6666667 74.85,63.6 C73.5166667,63.5 72.85,64.1333333 72.85,65.5 L73.15,66.5 C73.4833333,67.1666667 74.05,67.5 74.85,67.5 C75.45,67.5 75.9666667,67.2333333 76.4,66.7 C76.7,66.2666667 76.85,65.8833333 76.85,65.55 M75.6,57.25 L75.85,58.25 C76.2166667,58.9166667 76.8,59.25 77.6,59.25 C78.2,59.25 78.7166667,58.9833333 79.15,58.45 L79.6,57.3 C79.6,56.0666667 78.9333333,55.4166667 77.6,55.35 C76.2666667,55.25 75.6,55.8833333 75.6,57.25 M79.6,15 L79.9,16 C80.2333333,16.6666667 80.8,17 81.6,17 C82.2,17 82.7166667,16.7333333 83.15,16.2 L83.6,15.05 C83.6,13.8166667 82.9333333,13.1666667 81.6,13.1 C80.2666667,13 79.6,13.6333333 79.6,15 M89.85,29.6 C88.5166667,29.5 87.85,30.1333333 87.85,31.5 L88.15,32.5 C88.4833333,33.1666667 89.05,33.5 89.85,33.5 C90.45,33.5 90.9666667,33.2333333 91.4,32.7 L91.85,31.55 C91.85,30.3166667 91.1833333,29.6666667 89.85,29.6 M96.1,38.15 C96.1,36.85 95.4333333,36.1666667 94.1,36.1 C92.7666667,36.0333333 92.1,36.6833333 92.1,38.05 L92.3,39.15 C92.6,39.8833333 93.2,40.25 94.1,40.25 C94.7,40.25 95.2,40 95.6,39.5 C95.9333333,39.1 96.1,38.65 96.1,38.15 M84.75,36.15 C85.15,35.75 85.35,35.3 85.35,34.8 C85.35,33.3666667 84.65,32.6833333 83.25,32.75 C81.8166667,32.7833333 81.1,33.45 81.1,34.75 L81.4,35.75 C81.7333333,36.4166667 82.3333333,36.75 83.2,36.75 C83.8333333,36.75 84.35,36.55 84.75,36.15 M85.1,21.85 C83.7666667,21.75 83.1,22.3833333 83.1,23.75 L83.35,24.75 C83.7166667,25.4166667 84.3,25.75 85.1,25.75 C85.7,25.75 86.2166667,25.4833333 86.65,24.95 L87.1,23.8 C87.1,22.5666667 86.4333333,21.9166667 85.1,21.85 M90.65,43.7 L91.1,42.55 C91.1,41.1166667 90.4333333,40.4333333 89.1,40.5 C87.7666667,40.5333333 87.1,41.2 87.1,42.5 L87.4,43.5 C87.7333333,44.1666667 88.3,44.5 89.1,44.5 C89.7,44.5 90.2166667,44.2333333 90.65,43.7 M88.35,48.75 C88.7166667,49.4166667 89.3,49.75 90.1,49.75 C90.7,49.75 91.2166667,49.4833333 91.65,48.95 L92.1,47.8 C92.1,46.5666667 91.4333333,45.9166667 90.1,45.85 C88.7666667,45.75 88.1,46.3833333 88.1,47.75 L88.35,48.75 M90.6,53.6 C89.2666667,53.5333333 88.6,54.1833333 88.6,55.55 L88.8,56.65 C89.1,57.3833333 89.7,57.75 90.6,57.75 C91.2,57.75 91.7,57.5166667 92.1,57.05 C92.4333333,56.6166667 92.6,56.15 92.6,55.65 C92.6,54.35 91.9333333,53.6666667 90.6,53.6 M77.6,45.75 L77.85,46.75 C78.2166667,47.4166667 78.8,47.75 79.6,47.75 C80.2,47.75 80.7166667,47.4833333 81.15,46.95 L81.6,45.8 C81.6,44.5666667 80.9333333,43.9166667 79.6,43.85 C78.2666667,43.75 77.6,44.3833333 77.6,45.75 M79.6,53.25 C79.9666667,53.9166667 80.55,54.25 81.35,54.25 C81.95,54.25 82.4666667,53.9833333 82.9,53.45 L83.35,52.3 C83.35,51.0666667 82.6833333,50.4166667 81.35,50.35 C80.0166667,50.25 79.35,50.8833333 79.35,52.25 L79.6,53.25 M83.35,57.5 L83.65,58.5 C83.9833333,59.1666667 84.55,59.5 85.35,59.5 C85.95,59.5 86.4666667,59.2333333 86.9,58.7 L87.35,57.55 C87.35,56.3166667 86.6833333,55.6666667 85.35,55.6 C84.0166667,55.5 83.35,56.1333333 83.35,57.5 M83.6,66 C84.8,66 85.4666667,65.3 85.6,63.9 C85.6,62.6 84.8166667,61.8333333 83.25,61.6 C81.65,61.3666667 80.85,61.9833333 80.85,63.45 L81.2,64.65 C81.6666667,65.55 82.4666667,66 83.6,66 M93.1,64.35 C91.7666667,64.25 91.1,64.8833333 91.1,66.25 L91.35,67.25 C91.7166667,67.9166667 92.3,68.25 93.1,68.25 C93.7,68.25 94.2166667,67.9833333 94.65,67.45 L95.1,66.3 C95.1,65.0666667 94.4333333,64.4166667 93.1,64.35 M90.1,81.8 C90.1,80.5666667 89.4333333,79.9166667 88.1,79.85 C86.7666667,79.75 86.1,80.3833333 86.1,81.75 L86.35,82.75 C86.7166667,83.4166667 87.3,83.75 88.1,83.75 C88.7,83.75 89.2166667,83.4833333 89.65,82.95 L90.1,81.8 M89.9,72.7 L90.35,71.55 C90.35,70.3166667 89.6833333,69.6666667 88.35,69.6 C87.0166667,69.5 86.35,70.1333333 86.35,71.5 L86.65,72.5 C86.9833333,73.1666667 87.55,73.5 88.35,73.5 C88.95,73.5 89.4666667,73.2333333 89.9,72.7 M80.65,75.7 L81.1,74.55 C81.1,73.1166667 80.4333333,72.4333333 79.1,72.5 C77.7666667,72.5333333 77.1,73.2 77.1,74.5 L77.35,75.5 C77.7166667,76.1666667 78.3,76.5 79.1,76.5 C79.7,76.5 80.2166667,76.2333333 80.65,75.7 M96.6,98.6 C95.2666667,98.5333333 94.6,99.1833333 94.6,100.55 L94.8,101.65 C95.1,102.383333 95.7,102.75 96.6,102.75 C97.2,102.75 97.7,102.516667 98.1,102.05 C98.4333333,101.616667 98.6,101.15 98.6,100.65 C98.6,99.35 97.9333333,98.6666667 96.6,98.6 M95.4,87.7 L95.85,86.55 C95.85,85.3166667 95.1833333,84.6666667 93.85,84.6 C92.5166667,84.5 91.85,85.1333333 91.85,86.5 L92.1,87.5 C92.4666667,88.1666667 93.05,88.5 93.85,88.5 C94.45,88.5 94.9666667,88.2333333 95.4,87.7 M83.65,89.75 C83.9833333,90.4166667 84.55,90.75 85.35,90.75 C85.95,90.75 86.4666667,90.4833333 86.9,89.95 L87.35,88.8 C87.35,87.5666667 86.6833333,86.9166667 85.35,86.85 C84.0166667,86.75 83.35,87.3833333 83.35,88.75 L83.65,89.75 M78.15,94.2 L78.6,93.05 C78.6,91.8166667 77.9333333,91.1666667 76.6,91.1 C75.2666667,91 74.6,91.6333333 74.6,93 L74.85,94 C75.2166667,94.6666667 75.8,95 76.6,95 C77.2,95 77.7166667,94.7333333 78.15,94.2 M83.65,85.95 L84.1,84.8 C84.1,83.5666667 83.4333333,82.9166667 82.1,82.85 C80.7666667,82.75 80.1,83.3833333 80.1,84.75 L80.35,85.75 C80.7166667,86.4166667 81.3,86.75 82.1,86.75 C82.7,86.75 83.2166667,86.4833333 83.65,85.95 M80.35,99.05 C80.35,97.8166667 79.6833333,97.1666667 78.35,97.1 C77.0166667,97 76.35,97.6333333 76.35,99 L76.6,100 C76.9666667,100.666667 77.55,101 78.35,101 C78.95,101 79.4666667,100.733333 79.9,100.2 L80.35,99.05 M90.1,105.3 C90.1,104.066667 89.4333333,103.416667 88.1,103.35 C86.7666667,103.25 86.1,103.883333 86.1,105.25 L86.35,106.25 C86.7166667,106.916667 87.3,107.25 88.1,107.25 C88.7,107.25 89.2166667,106.983333 89.65,106.45 L90.1,105.3 M87.85,97 C88.2166667,97.6666667 88.8,98 89.6,98 C90.2,98 90.7166667,97.7333333 91.15,97.2 L91.6,96.05 C91.6,94.8166667 90.9333333,94.1666667 89.6,94.1 C88.2666667,94 87.6,94.6333333 87.6,96 L87.85,97 M85.65,111.2 L86.1,110.05 C86.1,108.816667 85.4333333,108.166667 84.1,108.1 C82.7666667,108 82.1,108.633333 82.1,110 L82.35,111 C82.7166667,111.666667 83.3,112 84.1,112 C84.7,112 85.2166667,111.733333 85.65,111.2 M85.35,100.5 C85.95,100.5 86.4666667,100.233333 86.9,99.7 L87.35,98.55 C87.35,97.3166667 86.6833333,96.6666667 85.35,96.6 C84.0166667,96.5 83.35,97.1333333 83.35,98.5 L83.65,99.5 C83.9833333,100.166667 84.55,100.5 85.35,100.5 M78.65,109.2 L79.1,108.05 C79.1,106.816667 78.4333333,106.166667 77.1,106.1 C75.7666667,106 75.1,106.633333 75.1,108 L75.4,109 C75.7333333,109.666667 76.3,110 77.1,110 C77.7,110 78.2166667,109.733333 78.65,109.2 M77.6,115.75 C78.2,115.75 78.7166667,115.483333 79.15,114.95 L79.6,113.8 C79.6,112.566667 78.9333333,111.916667 77.6,111.85 C76.2666667,111.75 75.6,112.383333 75.6,113.75 L75.85,114.75 C76.2166667,115.416667 76.8,115.75 77.6,115.75 M86.6,115.75 L86.85,116.75 C87.2166667,117.416667 87.8,117.75 88.6,117.75 C89.2,117.75 89.7166667,117.483333 90.15,116.95 L90.6,115.8 C90.6,114.566667 89.9333333,113.916667 88.6,113.85 C87.2666667,113.75 86.6,114.383333 86.6,115.75 M84.85,122.25 C85.45,122.25 85.9666667,121.983333 86.4,121.45 L86.85,120.3 C86.85,119.066667 86.1833333,118.416667 84.85,118.35 C83.5166667,118.25 82.85,118.883333 82.85,120.25 L83.1,121.25 C83.4666667,121.916667 84.05,122.25 84.85,122.25 M77.35,122 C77.7166667,122.666667 78.3,123 79.1,123 C79.7,123 80.2166667,122.733333 80.65,122.2 L81.1,121.05 C81.1,119.616667 80.4333333,118.933333 79.1,119 C77.7666667,119.033333 77.1,119.7 77.1,121 L77.35,122 M68.6,77.25 L68.85,78.25 C69.2166667,78.9166667 69.8,79.25 70.6,79.25 C71.2,79.25 71.7166667,78.9833333 72.15,78.45 C72.45,78.0166667 72.6,77.6333333 72.6,77.3 C72.6,76.0666667 71.9333333,75.4166667 70.6,75.35 C69.2666667,75.25 68.6,75.8833333 68.6,77.25 M67.9,72.75 C68.2333333,73.4166667 68.8,73.75 69.6,73.75 C70.2,73.75 70.7166667,73.4833333 71.15,72.95 C71.45,72.5166667 71.6,72.1333333 71.6,71.8 C71.6,70.5666667 70.9333333,69.9166667 69.6,69.85 C68.2666667,69.75 67.6,70.3833333 67.6,71.75 L67.9,72.75 M57.4,78.95 C57.7,78.5166667 57.85,78.1333333 57.85,77.8 C57.85,76.5666667 57.1833333,75.9166667 55.85,75.85 C54.5166667,75.75 53.85,76.3833333 53.85,77.75 L54.1,78.75 C54.4666667,79.4166667 55.05,79.75 55.85,79.75 C56.45,79.75 56.9666667,79.4833333 57.4,78.95 M67.15,76.7 C67.45,76.2666667 67.6,75.8833333 67.6,75.55 C67.6,74.1166667 66.9333333,73.4333333 65.6,73.5 C64.2666667,73.5333333 63.6,74.2 63.6,75.5 L63.85,76.5 C64.2166667,77.1666667 64.8,77.5 65.6,77.5 C66.2,77.5 66.7166667,77.2333333 67.15,76.7 M63.85,91.7 L64.2,92.95 C64.8333333,93.8166667 66.05,94.25 67.85,94.25 C68.6833333,94.25 69.3333333,94.05 69.8,93.65 C70.1666667,93.2833333 70.35,92.8333333 70.35,92.3 C70.35,90.9666667 69.2666667,90.1166667 67.1,89.75 C64.9333333,89.4166667 63.85,90.0666667 63.85,91.7 M60.35,93.8 C60.35,92.5666667 59.6833333,91.9166667 58.35,91.85 C57.0166667,91.75 56.35,92.3833333 56.35,93.75 L56.65,94.75 C56.9833333,95.4166667 57.55,95.75 58.35,95.75 C58.95,95.75 59.4666667,95.4833333 59.9,94.95 C60.2,94.5166667 60.35,94.1333333 60.35,93.8 M65.85,80.8 C65.85,79.5666667 65.1833333,78.9166667 63.85,78.85 C62.5166667,78.75 61.85,79.3833333 61.85,80.75 L62.1,81.75 C62.4666667,82.4166667 63.05,82.75 63.85,82.75 C64.45,82.75 64.9666667,82.4833333 65.4,81.95 C65.7,81.5166667 65.85,81.1333333 65.85,80.8 M73.15,86.8 C73.4833333,87.4333333 74.05,87.75 74.85,87.75 C75.45,87.75 75.9666667,87.4833333 76.4,86.95 C76.7,86.5166667 76.85,86.1333333 76.85,85.8 C76.85,84.5666667 76.1833333,83.9166667 74.85,83.85 C73.8833333,83.7833333 73.2666667,84.1 73,84.8 C72.6666667,84.3666667 72.1166667,84.1333333 71.35,84.1 C70.0166667,84 69.35,84.6333333 69.35,86 L69.6,87 C69.9666667,87.6666667 70.55,88 71.35,88 C71.95,88 72.4666667,87.7333333 72.9,87.2 L73.15,86.8 M61.6,86.35 C60.2666667,86.25 59.6,86.8833333 59.6,88.25 L59.85,89.25 C60.2166667,89.9166667 60.8,90.25 61.6,90.25 C62.2,90.25 62.7166667,89.9833333 63.15,89.45 C63.45,89.0166667 63.6,88.6333333 63.6,88.3 C63.6,87.0666667 62.9333333,86.4166667 61.6,86.35 M50.85,73.85 C49.5166667,73.75 48.85,74.3833333 48.85,75.75 L49.15,76.75 C49.4833333,77.4166667 50.05,77.75 50.85,77.75 C51.45,77.75 51.9666667,77.4833333 52.4,76.95 C52.7,76.5166667 52.85,76.1333333 52.85,75.8 C52.85,74.5666667 52.1833333,73.9166667 50.85,73.85 M47.4,81.95 L47.85,80.8 C47.85,79.5666667 47.1833333,78.9166667 45.85,78.85 C44.5166667,78.75 43.85,79.3833333 43.85,80.75 L44.1,81.75 C44.4666667,82.4166667 45.05,82.75 45.85,82.75 C46.45,82.75 46.9666667,82.4833333 47.4,81.95 M40.25,82.85 C38.8166667,83.15 38.1,84.2166667 38.1,86.05 L38.3,87.2 C38.5666667,87.9 39.1666667,88.25 40.1,88.25 C41,88.25 41.65,87.7333333 42.05,86.7 C42.25,86.1 42.35,85.4666667 42.35,84.8 C42.35,83.2 41.65,82.55 40.25,82.85 M43.9,74.7 C44.2,74.2666667 44.35,73.8833333 44.35,73.55 C44.35,72.3166667 43.6833333,71.6666667 42.35,71.6 C41.0166667,71.5 40.35,72.1333333 40.35,73.5 L40.6,74.5 C40.9666667,75.1666667 41.55,75.5 42.35,75.5 C42.95,75.5 43.4666667,75.2333333 43.9,74.7 M45.6,90.25 L45.85,91.25 C46.2166667,91.9166667 46.8,92.25 47.6,92.25 C48.2,92.25 48.7166667,91.9833333 49.15,91.45 C49.45,91.0166667 49.6,90.6333333 49.6,90.3 C49.6,89.0666667 48.9333333,88.4166667 47.6,88.35 C46.2666667,88.25 45.6,88.8833333 45.6,90.25 M54.85,86.5 C55.55,86.5 56.1166667,86.2833333 56.55,85.85 C56.9166667,85.4833333 57.1,85.05 57.1,84.55 C57.1,83.1166667 56.35,82.4333333 54.85,82.5 C53.35,82.5333333 52.6,83.2 52.6,84.5 L52.9,85.5 C53.2666667,86.1666667 53.9166667,86.5 54.85,86.5 M52.9,98.7 C53.2,98.2666667 53.35,97.8833333 53.35,97.55 C53.35,96.3166667 52.6833333,95.6666667 51.35,95.6 C50.0166667,95.5 49.35,96.1333333 49.35,97.5 L49.6,98.5 C49.9666667,99.1666667 50.55,99.5 51.35,99.5 C51.95,99.5 52.4666667,99.2333333 52.9,98.7 M53.15,103.9 C53.5166667,104.633333 54.1666667,105 55.1,105 C55.7,105 56.2,104.766667 56.6,104.3 C56.9333333,103.866667 57.1,103.416667 57.1,102.95 C57.1,101.65 56.4,100.933333 55,100.8 C53.5666667,100.666667 52.85,101.316667 52.85,102.75 L53.15,103.9 M37.9,99.2 C38.2,98.7666667 38.35,98.3833333 38.35,98.05 C38.35,96.8166667 37.6833333,96.1666667 36.35,96.1 C35.0166667,96 34.35,96.6333333 34.35,98 L34.6,99 C34.9666667,99.6666667 35.55,100 36.35,100 C36.95,100 37.4666667,99.7333333 37.9,99.2 M44.15,102.2 C44.45,101.766667 44.6,101.383333 44.6,101.05 C44.6,99.8166667 43.9333333,99.1666667 42.6,99.1 C41.2666667,99 40.6,99.6333333 40.6,101 L40.9,102 C41.2333333,102.666667 41.8,103 42.6,103 C43.2,103 43.7166667,102.733333 44.15,102.2 M44.1,110.1 C42.7666667,110.033333 42.1,110.683333 42.1,112.05 L42.3,113.1 C42.6,113.866667 43.2,114.25 44.1,114.25 C44.7,114.25 45.2,114 45.6,113.5 C45.9333333,113.1 46.1,112.65 46.1,112.15 C46.1,110.85 45.4333333,110.166667 44.1,110.1 M38.15,116.95 C38.45,116.516667 38.6,116.133333 38.6,115.8 C38.6,114.566667 37.9333333,113.916667 36.6,113.85 C35.2666667,113.75 34.6,114.383333 34.6,115.75 L34.9,116.75 C35.2333333,117.416667 35.8,117.75 36.6,117.75 C37.2,117.75 37.7166667,117.483333 38.15,116.95 M37.35,110.25 C37.95,110.25 38.4666667,109.983333 38.9,109.45 C39.2,109.016667 39.35,108.633333 39.35,108.3 C39.35,107.066667 38.6833333,106.416667 37.35,106.35 C36.0166667,106.25 35.35,106.883333 35.35,108.25 L35.65,109.25 C35.9833333,109.916667 36.55,110.25 37.35,110.25 M51.35,109.55 C51.35,108.316667 50.6833333,107.666667 49.35,107.6 C48.0166667,107.5 47.35,108.133333 47.35,109.5 L47.65,110.5 C47.9833333,111.166667 48.55,111.5 49.35,111.5 C49.95,111.5 50.4666667,111.233333 50.9,110.7 C51.2,110.266667 51.35,109.883333 51.35,109.55 M68.35,105.25 C68.95,105.25 69.4666667,104.983333 69.9,104.45 L70.35,103.3 C70.35,102.066667 69.6833333,101.416667 68.35,101.35 C67.0166667,101.25 66.35,101.883333 66.35,103.25 L66.6,104.25 C66.9666667,104.916667 67.55,105.25 68.35,105.25 M50.1,117.75 L50.35,118.75 C50.7166667,119.416667 51.3,119.75 52.1,119.75 C52.7,119.75 53.2166667,119.483333 53.65,118.95 C53.95,118.516667 54.1,118.133333 54.1,117.8 C54.1,116.366667 53.4333333,115.683333 52.1,115.75 C50.7666667,115.783333 50.1,116.45 50.1,117.75 M62.6,115.3 C62.6,113.6 61.65,112.933333 59.75,113.3 C57.8166667,113.666667 56.85,114.483333 56.85,115.75 L57.1,116.75 C57.4666667,117.416667 58.0833333,117.75 58.95,117.75 C60.1833333,117.75 61.15,117.416667 61.85,116.75 C62.35,116.283333 62.6,115.8 62.6,115.3 M64.85,117.25 L65.15,118.25 C65.5166667,118.916667 66.1666667,119.25 67.1,119.25 C67.8,119.25 68.3666667,119.05 68.8,118.65 C69.1666667,118.283333 69.35,117.833333 69.35,117.3 C69.35,115.866667 68.6,115.183333 67.1,115.25 C65.6,115.283333 64.85,115.95 64.85,117.25 M64.35,106.3 C64.35,104.866667 63.6833333,104.183333 62.35,104.25 C61.0166667,104.283333 60.35,104.95 60.35,106.25 L60.6,107.25 C60.9666667,107.916667 61.55,108.25 62.35,108.25 C62.95,108.25 63.4666667,107.983333 63.9,107.45 C64.2,107.016667 64.35,106.633333 64.35,106.3 M62.1,99.75 L62.35,100.75 C62.7166667,101.416667 63.3,101.75 64.1,101.75 C64.7,101.75 65.2166667,101.483333 65.65,100.95 C65.95,100.516667 66.1,100.133333 66.1,99.8 C66.1,98.5666667 65.4333333,97.9166667 64.1,97.85 C62.7666667,97.75 62.1,98.3833333 62.1,99.75 M71.35,113 C71.6833333,112.6 71.85,112.15 71.85,111.65 C71.85,110.35 71.1833333,109.666667 69.85,109.6 C68.5166667,109.533333 67.85,110.183333 67.85,111.55 L68.05,112.65 C68.35,113.383333 68.95,113.75 69.85,113.75 C70.45,113.75 70.95,113.5 71.35,113 M34.6,87.35 C33.2666667,87.25 32.6,87.8833333 32.6,89.25 L32.85,90.25 C33.2166667,90.9166667 33.8,91.25 34.6,91.25 C35.2,91.25 35.7166667,90.9833333 36.15,90.45 C36.45,90.0166667 36.6,89.6333333 36.6,89.3 C36.6,88.0666667 35.9333333,87.4166667 34.6,87.35 M25.1,114.8 C25.1,113.566667 24.4333333,112.916667 23.1,112.85 C21.7666667,112.75 21.1,113.383333 21.1,114.75 L21.4,115.75 C21.7333333,116.416667 22.3,116.75 23.1,116.75 C23.7,116.75 24.2166667,116.483333 24.65,115.95 C24.95,115.516667 25.1,115.133333 25.1,114.8 M29.4,102.7 C29.7,102.266667 29.85,101.883333 29.85,101.55 C29.85,100.316667 29.1833333,99.6666667 27.85,99.6 C26.5166667,99.5 25.85,100.133333 25.85,101.5 L26.1,102.5 C26.4666667,103.166667 27.05,103.5 27.85,103.5 C28.45,103.5 28.9666667,103.233333 29.4,102.7 M17.9,120.95 C18.2,120.516667 18.35,120.133333 18.35,119.8 C18.35,118.566667 17.6833333,117.916667 16.35,117.85 C15.0166667,117.75 14.35,118.383333 14.35,119.75 L14.65,120.75 C14.9833333,121.416667 15.55,121.75 16.35,121.75 C16.95,121.75 17.4666667,121.483333 17.9,120.95 M31.85,122.05 C31.85,120.816667 31.1833333,120.166667 29.85,120.1 C28.5166667,120 27.85,120.633333 27.85,122 L28.15,123 C28.4833333,123.666667 29.05,124 29.85,124 C30.45,124 30.9666667,123.733333 31.4,123.2 C31.7,122.766667 31.85,122.383333 31.85,122.05 M28.35,112.5 C28.95,112.5 29.4666667,112.233333 29.9,111.7 C30.2,111.266667 30.35,110.883333 30.35,110.55 C30.35,109.116667 29.6833333,108.433333 28.35,108.5 C27.0166667,108.533333 26.35,109.2 26.35,110.5 L26.65,111.5 C26.9833333,112.166667 27.55,112.5 28.35,112.5 M58.35,123.25 C58.6833333,122.85 58.85,122.4 58.85,121.9 C58.85,120.6 58.1833333,119.916667 56.85,119.85 C55.5166667,119.783333 54.85,120.433333 54.85,121.8 L55.05,122.85 C55.35,123.616667 55.95,124 56.85,124 C57.45,124 57.95,123.75 58.35,123.25 M71.1,122.75 C71.4666667,123.416667 72.05,123.75 72.85,123.75 C73.45,123.75 73.9666667,123.483333 74.4,122.95 C74.7,122.516667 74.85,122.133333 74.85,121.8 C74.85,120.566667 74.1833333,119.916667 72.85,119.85 C71.5166667,119.75 70.85,120.383333 70.85,121.75 L71.1,122.75 M20.85,125.25 C21.2166667,125.916667 21.8,126.25 22.6,126.25 C23.2,126.25 23.7166667,125.983333 24.15,125.45 L24.6,124.3 C24.6,123.066667 23.9333333,122.416667 22.6,122.35 C21.2666667,122.25 20.6,122.883333 20.6,124.25 L20.85,125.25 M40.1,122.25 L40.35,123.25 C40.7833333,123.916667 41.6166667,124.25 42.85,124.25 C44.6833333,124.25 45.6,123.6 45.6,122.3 C45.6,120.733333 44.6833333,119.983333 42.85,120.05 C41.0166667,120.15 40.1,120.883333 40.1,122.25" id="Shape" fill="#FFCC66" transform="translate(54.25, 69.8881) scale(-1, 1) translate(-54.25, -69.8881)"></path>
                <path d="M67.6,20.75 C67.6,19.45 68.3166667,18.7833333 69.75,18.75 C71.15,18.6833333 71.85,19.3666667 71.85,20.8 C71.85,21.3 71.6666667,21.7333333 71.3,22.1 C70.8666667,22.5333333 70.3333333,22.75 69.7,22.75 C68.8333333,22.75 68.2166667,22.4166667 67.85,21.75 L67.6,20.75 M66.6,32.55 C66.6,33.05 66.4166667,33.5 66.05,33.9 C65.6166667,34.3 65.0833333,34.5 64.45,34.5 C63.5833333,34.5 62.9666667,34.1666667 62.6,33.5 L62.35,32.5 C62.35,31.2 63.0666667,30.5333333 64.5,30.5 C65.9,30.4333333 66.6,31.1166667 66.6,32.55 M71.1,30.25 C71.1,28.8833333 71.7666667,28.25 73.1,28.35 C74.4333333,28.4166667 75.1,29.0666667 75.1,30.3 L74.65,31.45 C74.2166667,31.9833333 73.7,32.25 73.1,32.25 C72.3,32.25 71.7166667,31.9166667 71.35,31.25 L71.1,30.25 M66.85,41.35 C68.1833333,41.4166667 68.85,42.0666667 68.85,43.3 C68.85,43.6333333 68.7,44.0166667 68.4,44.45 C67.9666667,44.9833333 67.45,45.25 66.85,45.25 C66.05,45.25 65.4833333,44.9166667 65.15,44.25 L64.85,43.25 C64.85,41.8833333 65.5166667,41.25 66.85,41.35 M93.8,44.15 L93.8,48 L93.6,48 C92.8,48 92.2166667,47.6666667 91.85,47 L91.6,46 C91.6,44.6333333 92.2666667,44 93.6,44.1 L93.8,44.15 M93.8,74.9 L93.8,78.75 L93.6,78.75 C92.8,78.75 92.2166667,78.4166667 91.85,77.75 L91.6,76.75 C91.6,75.3833333 92.2666667,74.75 93.6,74.85 L93.8,74.9 M93.8,117.7 L93.8,120.85 C93.4,121.283333 92.8666667,121.5 92.2,121.5 C91.3333333,121.5 90.7166667,121.166667 90.35,120.5 L90.1,119.5 C90.1,118.066667 90.8166667,117.3 92.25,117.2 C92.95,117.166667 93.4666667,117.333333 93.8,117.7 M51.1,55.1 C52.4333333,55.1666667 53.1,55.8166667 53.1,57.05 C53.1,57.3833333 52.95,57.7666667 52.65,58.2 C52.2166667,58.7333333 51.7,59 51.1,59 C50.3,59 49.7333333,58.6666667 49.4,58 L49.1,57 C49.1,55.6333333 49.7666667,55 51.1,55.1 M41.1,68.75 C41.1,67.3833333 41.7666667,66.75 43.1,66.85 C44.4333333,66.9166667 45.1,67.5666667 45.1,68.8 C45.1,69.1333333 44.95,69.5166667 44.65,69.95 C44.2166667,70.4833333 43.7,70.75 43.1,70.75 C42.3,70.75 41.7166667,70.4166667 41.35,69.75 L41.1,68.75 M63.85,55.75 L63.6,54.75 C63.6,53.3833333 64.2666667,52.75 65.6,52.85 C66.9333333,52.9166667 67.6,53.5666667 67.6,54.8 C67.6,55.1333333 67.45,55.5166667 67.15,55.95 C66.7166667,56.4833333 66.2,56.75 65.6,56.75 C64.8,56.75 64.2166667,56.4166667 63.85,55.75 M55.35,69.05 C55.35,69.3833333 55.2,69.7666667 54.9,70.2 C54.4666667,70.7333333 53.95,71 53.35,71 C52.55,71 51.9833333,70.6666667 51.65,70 L51.35,69 C51.35,67.6333333 52.0166667,67 53.35,67.1 C54.6833333,67.1666667 55.35,67.8166667 55.35,69.05 M71.85,65.55 C71.85,65.8833333 71.7,66.2666667 71.4,66.7 C70.9666667,67.2333333 70.45,67.5 69.85,67.5 C69.05,67.5 68.4833333,67.1666667 68.15,66.5 L67.85,65.5 C67.85,64.1333333 68.5166667,63.5 69.85,63.6 C71.1833333,63.6666667 71.85,64.3166667 71.85,65.55 M74.6,15 C74.6,13.6333333 75.2666667,13 76.6,13.1 C77.9333333,13.1666667 78.6,13.8166667 78.6,15.05 L78.15,16.2 C77.7166667,16.7333333 77.2,17 76.6,17 C75.8,17 75.2333333,16.6666667 74.9,16 L74.6,15 M84.85,29.6 C86.1833333,29.6666667 86.85,30.3166667 86.85,31.55 L86.4,32.7 C85.9666667,33.2333333 85.45,33.5 84.85,33.5 C84.05,33.5 83.4833333,33.1666667 83.15,32.5 L82.85,31.5 C82.85,30.1333333 83.5166667,29.5 84.85,29.6 M85.65,43.7 C85.2166667,44.2333333 84.7,44.5 84.1,44.5 C83.3,44.5 82.7333333,44.1666667 82.4,43.5 L82.1,42.5 C82.1,41.2 82.7666667,40.5333333 84.1,40.5 C85.4333333,40.4333333 86.1,41.1166667 86.1,42.55 L85.65,43.7 M85.6,53.6 C86.9333333,53.6666667 87.6,54.35 87.6,55.65 C87.6,56.15 87.4333333,56.6166667 87.1,57.05 C86.7,57.5166667 86.2,57.75 85.6,57.75 C84.7,57.75 84.1,57.3833333 83.8,56.65 L83.6,55.55 C83.6,54.1833333 84.2666667,53.5333333 85.6,53.6 M74.6,53.25 L74.35,52.25 C74.35,50.8833333 75.0166667,50.25 76.35,50.35 C77.6833333,50.4166667 78.35,51.0666667 78.35,52.3 L77.9,53.45 C77.4666667,53.9833333 76.95,54.25 76.35,54.25 C75.55,54.25 74.9666667,53.9166667 74.6,53.25 M78.6,66 C77.4666667,66 76.6666667,65.55 76.2,64.65 L75.85,63.45 C75.85,61.9833333 76.65,61.3666667 78.25,61.6 C79.8166667,61.8333333 80.6,62.6 80.6,63.9 C80.4666667,65.3 79.8,66 78.6,66 M88.1,64.35 C89.4333333,64.4166667 90.1,65.0666667 90.1,66.3 L89.65,67.45 C89.2166667,67.9833333 88.7,68.25 88.1,68.25 C87.3,68.25 86.7166667,67.9166667 86.35,67.25 L86.1,66.25 C86.1,64.8833333 86.7666667,64.25 88.1,64.35 M85.1,81.8 L84.65,82.95 C84.2166667,83.4833333 83.7,83.75 83.1,83.75 C82.3,83.75 81.7166667,83.4166667 81.35,82.75 L81.1,81.75 C81.1,80.3833333 81.7666667,79.75 83.1,79.85 C84.4333333,79.9166667 85.1,80.5666667 85.1,81.8 M75.65,75.7 C75.2166667,76.2333333 74.7,76.5 74.1,76.5 C73.3,76.5 72.7166667,76.1666667 72.35,75.5 L72.1,74.5 C72.1,73.2 72.7666667,72.5333333 74.1,72.5 C75.4333333,72.4333333 76.1,73.1166667 76.1,74.55 L75.65,75.7 M82.85,97 L82.6,96 C82.6,94.6333333 83.2666667,94 84.6,94.1 C85.9333333,94.1666667 86.6,94.8166667 86.6,96.05 L86.15,97.2 C85.7166667,97.7333333 85.2,98 84.6,98 C83.8,98 83.2166667,97.6666667 82.85,97 M85.1,105.3 L84.65,106.45 C84.2166667,106.983333 83.7,107.25 83.1,107.25 C82.3,107.25 81.7166667,106.916667 81.35,106.25 L81.1,105.25 C81.1,103.883333 81.7666667,103.25 83.1,103.35 C84.4333333,103.416667 85.1,104.066667 85.1,105.3 M75.35,99.05 L74.9,100.2 C74.4666667,100.733333 73.95,101 73.35,101 C72.55,101 71.9666667,100.666667 71.6,100 L71.35,99 C71.35,97.6333333 72.0166667,97 73.35,97.1 C74.6833333,97.1666667 75.35,97.8166667 75.35,99.05 M73.65,109.2 C73.2166667,109.733333 72.7,110 72.1,110 C71.3,110 70.7333333,109.666667 70.4,109 L70.1,108 C70.1,106.633333 70.7666667,106 72.1,106.1 C73.4333333,106.166667 74.1,106.816667 74.1,108.05 L73.65,109.2 M81.6,115.75 C81.6,114.383333 82.2666667,113.75 83.6,113.85 C84.9333333,113.916667 85.6,114.566667 85.6,115.8 L85.15,116.95 C84.7166667,117.483333 84.2,117.75 83.6,117.75 C82.8,117.75 82.2166667,117.416667 81.85,116.75 L81.6,115.75 M72.35,122 L72.1,121 C72.1,119.7 72.7666667,119.033333 74.1,119 C75.4333333,118.933333 76.1,119.616667 76.1,121.05 L75.65,122.2 C75.2166667,122.733333 74.7,123 74.1,123 C73.3,123 72.7166667,122.666667 72.35,122 M62.15,76.7 C61.7166667,77.2333333 61.2,77.5 60.6,77.5 C59.8,77.5 59.2166667,77.1666667 58.85,76.5 L58.6,75.5 C58.6,74.2 59.2666667,73.5333333 60.6,73.5 C61.9333333,73.4333333 62.6,74.1166667 62.6,75.55 C62.6,75.8833333 62.45,76.2666667 62.15,76.7 M52.4,78.95 C51.9666667,79.4833333 51.45,79.75 50.85,79.75 C50.05,79.75 49.4666667,79.4166667 49.1,78.75 L48.85,77.75 C48.85,76.3833333 49.5166667,75.75 50.85,75.85 C52.1833333,75.9166667 52.85,76.5666667 52.85,77.8 C52.85,78.1333333 52.7,78.5166667 52.4,78.95 M56.6,86.35 C57.9333333,86.4166667 58.6,87.0666667 58.6,88.3 C58.6,88.6333333 58.45,89.0166667 58.15,89.45 C57.7166667,89.9833333 57.2,90.25 56.6,90.25 C55.8,90.25 55.2166667,89.9166667 54.85,89.25 L54.6,88.25 C54.6,86.8833333 55.2666667,86.25 56.6,86.35 M68,84.8 C68.2666667,84.1 68.8833333,83.7833333 69.85,83.85 C71.1833333,83.9166667 71.85,84.5666667 71.85,85.8 C71.85,86.1333333 71.7,86.5166667 71.4,86.95 C70.9666667,87.4833333 70.45,87.75 69.85,87.75 C69.05,87.75 68.4833333,87.4333333 68.15,86.8 L68.35,86.05 C68.35,85.5166667 68.2333333,85.1 68,84.8 M42.4,81.95 C41.9666667,82.4833333 41.45,82.75 40.85,82.75 C40.05,82.75 39.4666667,82.4166667 39.1,81.75 L38.85,80.75 C38.85,79.3833333 39.5166667,78.75 40.85,78.85 C42.1833333,78.9166667 42.85,79.5666667 42.85,80.8 L42.4,81.95 M40.6,90.25 C40.6,88.8833333 41.2666667,88.25 42.6,88.35 C43.9333333,88.4166667 44.6,89.0666667 44.6,90.3 C44.6,90.6333333 44.45,91.0166667 44.15,91.45 C43.7166667,91.9833333 43.2,92.25 42.6,92.25 C41.8,92.25 41.2166667,91.9166667 40.85,91.25 L40.6,90.25 M47.9,98.7 C47.4666667,99.2333333 46.95,99.5 46.35,99.5 C45.55,99.5 44.9666667,99.1666667 44.6,98.5 L44.35,97.5 C44.35,96.1333333 45.0166667,95.5 46.35,95.6 C47.6833333,95.6666667 48.35,96.3166667 48.35,97.55 C48.35,97.8833333 48.2,98.2666667 47.9,98.7 M32.9,99.2 C32.4666667,99.7333333 31.95,100 31.35,100 C30.55,100 29.9666667,99.6666667 29.6,99 L29.35,98 C29.35,96.6333333 30.0166667,96 31.35,96.1 C32.6833333,96.1666667 33.35,96.8166667 33.35,98.05 C33.35,98.3833333 33.2,98.7666667 32.9,99.2 M39.1,110.1 C40.4333333,110.166667 41.1,110.85 41.1,112.15 C41.1,112.65 40.9333333,113.1 40.6,113.5 C40.2,114 39.7,114.25 39.1,114.25 C38.2,114.25 37.6,113.866667 37.3,113.1 L37.1,112.05 C37.1,110.683333 37.7666667,110.033333 39.1,110.1 M46.35,109.55 C46.35,109.883333 46.2,110.266667 45.9,110.7 C45.4666667,111.233333 44.95,111.5 44.35,111.5 C43.55,111.5 42.9833333,111.166667 42.65,110.5 L42.35,109.5 C42.35,108.133333 43.0166667,107.5 44.35,107.6 C45.6833333,107.666667 46.35,108.316667 46.35,109.55 M57.1,99.75 C57.1,98.3833333 57.7666667,97.75 59.1,97.85 C60.4333333,97.9166667 61.1,98.5666667 61.1,99.8 C61.1,100.133333 60.95,100.516667 60.65,100.95 C60.2166667,101.483333 59.7,101.75 59.1,101.75 C58.3,101.75 57.7166667,101.416667 57.35,100.75 L57.1,99.75 M59.35,106.3 C59.35,106.633333 59.2,107.016667 58.9,107.45 C58.4666667,107.983333 57.95,108.25 57.35,108.25 C56.55,108.25 55.9666667,107.916667 55.6,107.25 L55.35,106.25 C55.35,104.95 56.0166667,104.283333 57.35,104.25 C58.6833333,104.183333 59.35,104.866667 59.35,106.3 M59.85,117.25 C59.85,115.95 60.6,115.283333 62.1,115.25 C63.6,115.183333 64.35,115.866667 64.35,117.3 C64.35,117.833333 64.1666667,118.283333 63.8,118.65 C63.3666667,119.05 62.8,119.25 62.1,119.25 C61.1666667,119.25 60.5166667,118.916667 60.15,118.25 L59.85,117.25 M57.6,115.3 C57.6,115.8 57.35,116.283333 56.85,116.75 C56.15,117.416667 55.1833333,117.75 53.95,117.75 C53.0833333,117.75 52.4666667,117.416667 52.1,116.75 L51.85,115.75 C51.85,114.483333 52.8166667,113.666667 54.75,113.3 C56.65,112.933333 57.6,113.6 57.6,115.3 M29.6,87.35 C30.9333333,87.4166667 31.6,88.0666667 31.6,89.3 C31.6,89.6333333 31.45,90.0166667 31.15,90.45 C30.7166667,90.9833333 30.2,91.25 29.6,91.25 C28.8,91.25 28.2166667,90.9166667 27.85,90.25 L27.6,89.25 C27.6,87.8833333 28.2666667,87.25 29.6,87.35 M23.35,112.5 C22.55,112.5 21.9833333,112.166667 21.65,111.5 L21.35,110.5 C21.35,109.2 22.0166667,108.533333 23.35,108.5 C24.6833333,108.433333 25.35,109.116667 25.35,110.55 C25.35,110.883333 25.2,111.266667 24.9,111.7 C24.4666667,112.233333 23.95,112.5 23.35,112.5 M26.85,122.05 C26.85,122.383333 26.7,122.766667 26.4,123.2 C25.9666667,123.733333 25.45,124 24.85,124 C24.05,124 23.4833333,123.666667 23.15,123 L22.85,122 C22.85,120.633333 23.5166667,120 24.85,120.1 C26.1833333,120.166667 26.85,120.816667 26.85,122.05 M12.9,120.95 C12.4666667,121.483333 11.95,121.75 11.35,121.75 C10.55,121.75 9.98333333,121.416667 9.65,120.75 L9.35,119.75 C9.35,118.383333 10.0166667,117.75 11.35,117.85 C12.6833333,117.916667 13.35,118.566667 13.35,119.8 C13.35,120.133333 13.2,120.516667 12.9,120.95 M35.1,122.25 C35.1,120.883333 36.0166667,120.15 37.85,120.05 C39.6833333,119.983333 40.6,120.733333 40.6,122.3 C40.6,123.6 39.6833333,124.25 37.85,124.25 C36.6166667,124.25 35.7833333,123.916667 35.35,123.25 L35.1,122.25" id="Shape" fill="#CC9966" transform="translate(51.575, 68.6699) scale(-1, 1) translate(-51.575, -68.6699)"></path>
                <path d="M60.6,24.1 C61.9333333,24.1666667 62.6,24.8166667 62.6,26.05 C62.6,26.3833333 62.45,26.7666667 62.15,27.2 C61.7166667,27.7333333 61.2,28 60.6,28 C59.8,28 59.2166667,27.6666667 58.85,27 L58.6,26 C58.6,24.6333333 59.2666667,24 60.6,24.1 M53.15,40 L52.85,39 C52.85,37.7 53.5166667,37.0333333 54.85,37 C56.1833333,36.9333333 56.85,37.6166667 56.85,39.05 C56.85,39.3833333 56.7,39.7666667 56.4,40.2 C55.9666667,40.7333333 55.45,41 54.85,41 C54.05,41 53.4833333,40.6666667 53.15,40 M66.1,36.85 C67.4333333,36.9166667 68.1,37.5666667 68.1,38.8 L67.65,39.95 C67.2166667,40.4833333 66.7,40.75 66.1,40.75 C65.3,40.75 64.7333333,40.4166667 64.4,39.75 L64.1,38.75 C64.1,37.3833333 64.7666667,36.75 66.1,36.85 M87.8,57.4 L87.8,61.2 L87.35,61.25 C86.55,61.25 85.9666667,60.9166667 85.6,60.25 L85.35,59.25 C85.35,57.8833333 86.0166667,57.25 87.35,57.35 L87.8,57.4 M87.8,109.35 L87.8,113.4 C87.0333333,113.266667 86.4833333,112.966667 86.15,112.5 L85.85,111.5 C85.85,110.4 86.5,109.683333 87.8,109.35 M44.15,63.2 C43.7166667,63.7333333 43.2,64 42.6,64 C41.8,64 41.2166667,63.6666667 40.85,63 L40.6,62 C40.6,60.6333333 41.2666667,60 42.6,60.1 C43.9333333,60.1666667 44.6,60.8166667 44.6,62.05 C44.6,62.3833333 44.45,62.7666667 44.15,63.2 M53.35,52 C52.55,52 51.9833333,51.6666667 51.65,51 L51.35,50 C51.35,48.6333333 52.0166667,48 53.35,48.1 C54.6833333,48.1666667 55.35,48.8166667 55.35,50.05 C55.35,50.3833333 55.2,50.7666667 54.9,51.2 C54.4666667,51.7333333 53.95,52 53.35,52 M55.35,60.05 C55.35,60.3833333 55.2,60.7666667 54.9,61.2 C54.4666667,61.7333333 53.95,62 53.35,62 C52.55,62 51.9833333,61.6666667 51.65,61 L51.35,60 C51.35,58.6333333 52.0166667,58 53.35,58.1 C54.6833333,58.1666667 55.35,58.8166667 55.35,60.05 M51.6,67.75 C51.6,66.3833333 52.2666667,65.75 53.6,65.85 C54.9333333,65.9166667 55.6,66.5666667 55.6,67.8 C55.6,68.1333333 55.45,68.5166667 55.15,68.95 C54.7166667,69.4833333 54.2,69.75 53.6,69.75 C52.8,69.75 52.2166667,69.4166667 51.85,68.75 L51.6,67.75 M64.6,57.25 C64.6,55.8833333 65.2666667,55.25 66.6,55.35 C67.9333333,55.4166667 68.6,56.0666667 68.6,57.3 L68.15,58.45 C67.7166667,58.9833333 67.2,59.25 66.6,59.25 C65.8,59.25 65.2166667,58.9166667 64.85,58.25 L64.6,57.25 M74.1,21.85 C75.4333333,21.9166667 76.1,22.5666667 76.1,23.8 L75.65,24.95 C75.2166667,25.4833333 74.7,25.75 74.1,25.75 C73.3,25.75 72.7166667,25.4166667 72.35,24.75 L72.1,23.75 C72.1,22.3833333 72.7666667,21.75 74.1,21.85 M73.75,36.15 C73.35,36.55 72.8333333,36.75 72.2,36.75 C71.3333333,36.75 70.7333333,36.4166667 70.4,35.75 L70.1,34.75 C70.1,33.45 70.8166667,32.7833333 72.25,32.75 C73.65,32.6833333 74.35,33.3666667 74.35,34.8 C74.35,35.3 74.15,35.75 73.75,36.15 M85.1,38.15 C85.1,38.65 84.9333333,39.1 84.6,39.5 C84.2,40 83.7,40.25 83.1,40.25 C82.2,40.25 81.6,39.8833333 81.3,39.15 L81.1,38.05 C81.1,36.6833333 81.7666667,36.0333333 83.1,36.1 C84.4333333,36.1666667 85.1,36.85 85.1,38.15 M77.35,48.75 L77.1,47.75 C77.1,46.3833333 77.7666667,45.75 79.1,45.85 C80.4333333,45.9166667 81.1,46.5666667 81.1,47.8 L80.65,48.95 C80.2166667,49.4833333 79.7,49.75 79.1,49.75 C78.3,49.75 77.7166667,49.4166667 77.35,48.75 M66.6,45.75 C66.6,44.3833333 67.2666667,43.75 68.6,43.85 C69.9333333,43.9166667 70.6,44.5666667 70.6,45.8 L70.15,46.95 C69.7166667,47.4833333 69.2,47.75 68.6,47.75 C67.8,47.75 67.2166667,47.4166667 66.85,46.75 L66.6,45.75 M72.35,57.5 C72.35,56.1333333 73.0166667,55.5 74.35,55.6 C75.6833333,55.6666667 76.35,56.3166667 76.35,57.55 L75.9,58.7 C75.4666667,59.2333333 74.95,59.5 74.35,59.5 C73.55,59.5 72.9833333,59.1666667 72.65,58.5 L72.35,57.5 M78.9,72.7 C78.4666667,73.2333333 77.95,73.5 77.35,73.5 C76.55,73.5 75.9833333,73.1666667 75.65,72.5 L75.35,71.5 C75.35,70.1333333 76.0166667,69.5 77.35,69.6 C78.6833333,69.6666667 79.35,70.3166667 79.35,71.55 L78.9,72.7 M72.65,85.95 C72.2166667,86.4833333 71.7,86.75 71.1,86.75 C70.3,86.75 69.7166667,86.4166667 69.35,85.75 L69.1,84.75 C69.1,83.3833333 69.7666667,82.75 71.1,82.85 C72.4333333,82.9166667 73.1,83.5666667 73.1,84.8 L72.65,85.95 M67.15,94.2 C66.7166667,94.7333333 66.2,95 65.6,95 C64.8,95 64.2166667,94.6666667 63.85,94 L63.6,93 C63.6,91.6333333 64.2666667,91 65.6,91.1 C66.9333333,91.1666667 67.6,91.8166667 67.6,93.05 L67.15,94.2 M72.65,89.75 L72.35,88.75 C72.35,87.3833333 73.0166667,86.75 74.35,86.85 C75.6833333,86.9166667 76.35,87.5666667 76.35,88.8 L75.9,89.95 C75.4666667,90.4833333 74.95,90.75 74.35,90.75 C73.55,90.75 72.9833333,90.4166667 72.65,89.75 M84.4,87.7 C83.9666667,88.2333333 83.45,88.5 82.85,88.5 C82.05,88.5 81.4666667,88.1666667 81.1,87.5 L80.85,86.5 C80.85,85.1333333 81.5166667,84.5 82.85,84.6 C84.1833333,84.6666667 84.85,85.3166667 84.85,86.55 L84.4,87.7 M85.6,98.6 C86.9333333,98.6666667 87.6,99.35 87.6,100.65 C87.6,101.15 87.4333333,101.616667 87.1,102.05 C86.7,102.516667 86.2,102.75 85.6,102.75 C84.7,102.75 84.1,102.383333 83.8,101.65 L83.6,100.55 C83.6,99.1833333 84.2666667,98.5333333 85.6,98.6 M74.35,100.5 C73.55,100.5 72.9833333,100.166667 72.65,99.5 L72.35,98.5 C72.35,97.1333333 73.0166667,96.5 74.35,96.6 C75.6833333,96.6666667 76.35,97.3166667 76.35,98.55 L75.9,99.7 C75.4666667,100.233333 74.95,100.5 74.35,100.5 M74.65,111.2 C74.2166667,111.733333 73.7,112 73.1,112 C72.3,112 71.7166667,111.666667 71.35,111 L71.1,110 C71.1,108.633333 71.7666667,108 73.1,108.1 C74.4333333,108.166667 75.1,108.816667 75.1,110.05 L74.65,111.2 M66.6,115.75 C65.8,115.75 65.2166667,115.416667 64.85,114.75 L64.6,113.75 C64.6,112.383333 65.2666667,111.75 66.6,111.85 C67.9333333,111.916667 68.6,112.566667 68.6,113.8 L68.15,114.95 C67.7166667,115.483333 67.2,115.75 66.6,115.75 M73.85,122.25 C73.05,122.25 72.4666667,121.916667 72.1,121.25 L71.85,120.25 C71.85,118.883333 72.5166667,118.25 73.85,118.35 C75.1833333,118.416667 75.85,119.066667 75.85,120.3 L75.4,121.45 C74.9666667,121.983333 74.45,122.25 73.85,122.25 M56.9,72.75 L56.6,71.75 C56.6,70.3833333 57.2666667,69.75 58.6,69.85 C59.9333333,69.9166667 60.6,70.5666667 60.6,71.8 C60.6,72.1333333 60.45,72.5166667 60.15,72.95 C59.7166667,73.4833333 59.2,73.75 58.6,73.75 C57.8,73.75 57.2333333,73.4166667 56.9,72.75 M57.6,77.25 C57.6,75.8833333 58.2666667,75.25 59.6,75.35 C60.9333333,75.4166667 61.6,76.0666667 61.6,77.3 C61.6,77.6333333 61.45,78.0166667 61.15,78.45 C60.7166667,78.9833333 60.2,79.25 59.6,79.25 C58.8,79.25 58.2166667,78.9166667 57.85,78.25 L57.6,77.25 M54.85,80.8 C54.85,81.1333333 54.7,81.5166667 54.4,81.95 C53.9666667,82.4833333 53.45,82.75 52.85,82.75 C52.05,82.75 51.4666667,82.4166667 51.1,81.75 L50.85,80.75 C50.85,79.3833333 51.5166667,78.75 52.85,78.85 C54.1833333,78.9166667 54.85,79.5666667 54.85,80.8 M49.35,93.8 C49.35,94.1333333 49.2,94.5166667 48.9,94.95 C48.4666667,95.4833333 47.95,95.75 47.35,95.75 C46.55,95.75 45.9833333,95.4166667 45.65,94.75 L45.35,93.75 C45.35,92.3833333 46.0166667,91.75 47.35,91.85 C48.6833333,91.9166667 49.35,92.5666667 49.35,93.8 M52.85,91.7 C52.85,90.0666667 53.9333333,89.4166667 56.1,89.75 C58.2666667,90.1166667 59.35,90.9666667 59.35,92.3 C59.35,92.8333333 59.1666667,93.2833333 58.8,93.65 C58.3333333,94.05 57.6833333,94.25 56.85,94.25 C55.05,94.25 53.8333333,93.8166667 53.2,92.95 L52.85,91.7 M62.15,86.8 L61.9,87.2 C61.4666667,87.7333333 60.95,88 60.35,88 C59.55,88 58.9666667,87.6666667 58.6,87 L58.35,86 C58.35,84.6333333 59.0166667,84 60.35,84.1 C61.1166667,84.1333333 61.6666667,84.3666667 62,84.8 C62.2333333,85.1 62.35,85.5166667 62.35,86.05 L62.15,86.8 M39.85,73.85 C41.1833333,73.9166667 41.85,74.5666667 41.85,75.8 C41.85,76.1333333 41.7,76.5166667 41.4,76.95 C40.9666667,77.4833333 40.45,77.75 39.85,77.75 C39.05,77.75 38.4833333,77.4166667 38.15,76.75 L37.85,75.75 C37.85,74.3833333 38.5166667,73.75 39.85,73.85 M32.9,74.7 C32.4666667,75.2333333 31.95,75.5 31.35,75.5 C30.55,75.5 29.9666667,75.1666667 29.6,74.5 L29.35,73.5 C29.35,72.1333333 30.0166667,71.5 31.35,71.6 C32.6833333,71.6666667 33.35,72.3166667 33.35,73.55 C33.35,73.8833333 33.2,74.2666667 32.9,74.7 M29.25,82.85 C30.65,82.55 31.35,83.2 31.35,84.8 C31.35,85.4666667 31.25,86.1 31.05,86.7 C30.65,87.7333333 30,88.25 29.1,88.25 C28.1666667,88.25 27.5666667,87.9 27.3,87.2 L27.1,86.05 C27.1,84.2166667 27.8166667,83.15 29.25,82.85 M43.85,86.5 C42.9166667,86.5 42.2666667,86.1666667 41.9,85.5 L41.6,84.5 C41.6,83.2 42.35,82.5333333 43.85,82.5 C45.35,82.4333333 46.1,83.1166667 46.1,84.55 C46.1,85.05 45.9166667,85.4833333 45.55,85.85 C45.1166667,86.2833333 44.55,86.5 43.85,86.5 M42.15,103.9 L41.85,102.75 C41.85,101.316667 42.5666667,100.666667 44,100.8 C45.4,100.933333 46.1,101.65 46.1,102.95 C46.1,103.416667 45.9333333,103.866667 45.6,104.3 C45.2,104.766667 44.7,105 44.1,105 C43.1666667,105 42.5166667,104.633333 42.15,103.9 M33.15,102.2 C32.7166667,102.733333 32.2,103 31.6,103 C30.8,103 30.2333333,102.666667 29.9,102 L29.6,101 C29.6,99.6333333 30.2666667,99 31.6,99.1 C32.9333333,99.1666667 33.6,99.8166667 33.6,101.05 C33.6,101.383333 33.45,101.766667 33.15,102.2 M26.35,110.25 C25.55,110.25 24.9833333,109.916667 24.65,109.25 L24.35,108.25 C24.35,106.883333 25.0166667,106.25 26.35,106.35 C27.6833333,106.416667 28.35,107.066667 28.35,108.3 C28.35,108.633333 28.2,109.016667 27.9,109.45 C27.4666667,109.983333 26.95,110.25 26.35,110.25 M27.15,116.95 C26.7166667,117.483333 26.2,117.75 25.6,117.75 C24.8,117.75 24.2333333,117.416667 23.9,116.75 L23.6,115.75 C23.6,114.383333 24.2666667,113.75 25.6,113.85 C26.9333333,113.916667 27.6,114.566667 27.6,115.8 C27.6,116.133333 27.45,116.516667 27.15,116.95 M39.1,117.75 C39.1,116.45 39.7666667,115.783333 41.1,115.75 C42.4333333,115.683333 43.1,116.366667 43.1,117.8 C43.1,118.133333 42.95,118.516667 42.65,118.95 C42.2166667,119.483333 41.7,119.75 41.1,119.75 C40.3,119.75 39.7166667,119.416667 39.35,118.75 L39.1,117.75 M57.35,105.25 C56.55,105.25 55.9666667,104.916667 55.6,104.25 L55.35,103.25 C55.35,101.883333 56.0166667,101.25 57.35,101.35 C58.6833333,101.416667 59.35,102.066667 59.35,103.3 L58.9,104.45 C58.4666667,104.983333 57.95,105.25 57.35,105.25 M60.35,113 C59.95,113.5 59.45,113.75 58.85,113.75 C57.95,113.75 57.35,113.383333 57.05,112.65 L56.85,111.55 C56.85,110.183333 57.5166667,109.533333 58.85,109.6 C60.1833333,109.666667 60.85,110.35 60.85,111.65 C60.85,112.15 60.6833333,112.6 60.35,113 M18.4,102.7 C17.9666667,103.233333 17.45,103.5 16.85,103.5 C16.05,103.5 15.4666667,103.166667 15.1,102.5 L14.85,101.5 C14.85,100.133333 15.5166667,99.5 16.85,99.6 C18.1833333,99.6666667 18.85,100.316667 18.85,101.55 C18.85,101.883333 18.7,102.266667 18.4,102.7 M14.1,114.8 C14.1,115.133333 13.95,115.516667 13.65,115.95 C13.2166667,116.483333 12.7,116.75 12.1,116.75 C11.3,116.75 10.7333333,116.416667 10.4,115.75 L10.1,114.75 C10.1,113.383333 10.7666667,112.75 12.1,112.85 C13.4333333,112.916667 14.1,113.566667 14.1,114.8 M9.85,125.25 L9.6,124.25 C9.6,122.883333 10.2666667,122.25 11.6,122.35 C12.9333333,122.416667 13.6,123.066667 13.6,124.3 L13.15,125.45 C12.7166667,125.983333 12.2,126.25 11.6,126.25 C10.8,126.25 10.2166667,125.916667 9.85,125.25 M60.1,122.75 L59.85,121.75 C59.85,120.383333 60.5166667,119.75 61.85,119.85 C63.1833333,119.916667 63.85,120.566667 63.85,121.8 C63.85,122.133333 63.7,122.516667 63.4,122.95 C62.9666667,123.483333 62.45,123.75 61.85,123.75 C61.05,123.75 60.4666667,123.416667 60.1,122.75 M47.35,123.25 C46.95,123.75 46.45,124 45.85,124 C44.95,124 44.35,123.616667 44.05,122.85 L43.85,121.8 C43.85,120.433333 44.5166667,119.783333 45.85,119.85 C47.1833333,119.916667 47.85,120.6 47.85,121.9 C47.85,122.4 47.6833333,122.85 47.35,123.25" id="Shape" fill="#FFFF66" transform="translate(48.7, 74.0449) scale(-1, 1) translate(-48.7, -74.0449)"></path>
                <path d="M98.8,129 L23.7,129 L18.2,130 C16.2333333,130.233333 14.6,129.9 13.3,129 C12.4666667,128.433333 11.75,127.666667 11.15,126.7 C10.1833333,125.1 9.7,123.566667 9.7,122.1 C9.7,121.733333 13.8,114.6 22,100.7 C30.9333333,85.5666667 36.6666667,74.4166667 39.2,67.25 C39.6,66.0833333 42.0166667,63.85 46.45,60.55 C51.0166667,57.15 53.6833333,54.6333333 54.45,53 C55.1166667,51.6333333 56.55,49.4333333 58.75,46.4 C60.35,43.6333333 60.6666667,41.3333333 59.7,39.5 C61.4666667,32.9 63.0833333,27.75 64.55,24.05 C67.25,17.3833333 70.55,13.2833333 74.45,11.75 C79.7166667,9.65 83.65,9.16666667 86.25,10.3 C88.3166667,11.2 89.8,13.3166667 90.7,16.65 C91.2333333,18.6166667 91.8333333,21.8666667 92.5,26.4 C93.3333333,30.3333333 94.65,33.2 96.45,35 L98.8,36.8" id="Path" stroke="#000000" stroke-width="2" stroke-linecap="round" stroke-linejoin="round" transform="translate(54.25, 69.8881) scale(-1, 1) translate(-54.25, -69.8881)"></path>
            </g>
        </g>
    </g>
</svg>