<?xml version="1.0" encoding="UTF-8"?>
<svg width="155px" height="109px" viewBox="0 0 155 109" version="1.1" xmlns="http://www.w3.org/2000/svg" xmlns:xlink="http://www.w3.org/1999/xlink">
    <title>303 copy</title>
    <g id="Page-1" stroke="none" stroke-width="1" fill="none" fill-rule="evenodd">
        <g id="303-copy" transform="translate(0.6849, 0.5)">
            <g id="Group" transform="translate(9.4, 5.4)">
                <path d="M70.95,92.5 L6.1,92.5 L4.15,91.15 C3.68333333,90.8166667 2.58333333,90.3 0.85,89.6 L0.7,87.05 L0.6,84.95 L0.75,83.85 C1.58333333,79.6166667 6.53333333,70.0333333 15.6,55.1 C16.7333333,53.2666667 18.0333333,51.55 19.5,49.95 C20.4333333,48.9833333 21.4666667,47.1166667 22.6,44.35 L23.85,41.05 L24.95,38.65 L25,38.5 C26.2,36.1333333 27.4833333,34.5 28.85,33.6 L29.85,33.1 L32.5,32.45 L34.95,32 L38.4,31.55 L38.75,31.5 C40.9833333,31.2333333 43.1666667,30.7333333 45.3,30 C46.5333333,29.5666667 47.75,29.0833333 48.95,28.55 L49.35,28.35 C49.9833333,28.0833333 50.9666667,26.4 52.3,23.3 C54.3,18.6 56.0666667,14.8666667 57.6,12.1 C59.0333333,9.43333333 63.4833333,7.15 70.95,5.25 L73.6,4.6" id="Path" stroke-opacity="0.011764706" stroke="#000000" stroke-width="20" stroke-linecap="round" stroke-linejoin="round"></path>
                <path d="M70.95,5.25 L70.95,7.65 L70.75,7.6 C69.4166667,7.5 68.75,8.13333333 68.75,9.5 L69,10.5 C69.3666667,11.1666667 69.95,11.5 70.75,11.5 L70.95,11.5 L70.95,20.9 L70.5,20.85 C69.1666667,20.75 68.5,21.3833333 68.5,22.75 L68.75,23.75 C69.1166667,24.4166667 69.7,24.75 70.5,24.75 L70.95,24.7 L70.95,38.4 L70.75,38.35 C69.4166667,38.25 68.75,38.8833333 68.75,40.25 L69,41.25 C69.3666667,41.9166667 69.95,42.25 70.75,42.25 L70.95,42.25 L70.95,72.85 C69.65,73.1833333 69,73.9 69,75 L69.3,76 C69.6333333,76.4666667 70.1833333,76.7666667 70.95,76.9 L70.95,81.2 C70.6166667,80.8333333 70.1,80.6666667 69.4,80.7 C67.9666667,80.8 67.25,81.5666667 67.25,83 L67.5,84 C67.8666667,84.6666667 68.4833333,85 69.35,85 C70.0166667,85 70.55,84.7833333 70.95,84.35 L70.95,92.5 L6.1,92.5 L4.15,91.15 C3.68333333,90.8166667 2.58333333,90.3 0.85,89.6 L0.7,87.05 C1.03333333,87.35 1.46666667,87.5 2,87.5 C2.6,87.5 3.11666667,87.2333333 3.55,86.7 C3.85,86.2666667 4,85.8833333 4,85.55 C4,84.3166667 3.33333333,83.6666667 2,83.6 C1.46666667,83.5666667 1.05,83.65 0.75,83.85 C1.58333333,79.6166667 6.53333333,70.0333333 15.6,55.1 C16.7333333,53.2666667 18.0333333,51.55 19.5,49.95 C20.4333333,48.9833333 21.4666667,47.1166667 22.6,44.35 L23.85,41.05 L24.55,40.45 C24.85,40.0166667 25,39.6333333 25,39.3 L24.95,38.65 L25,38.5 C26.2,36.1333333 27.4833333,34.5 28.85,33.6 C29.1833333,34.2 29.7333333,34.5 30.5,34.5 C31.1,34.5 31.6166667,34.2333333 32.05,33.7 C32.35,33.2666667 32.5,32.8833333 32.5,32.55 L32.5,32.45 L34.95,32 L35,32.25 C35.3666667,32.9166667 35.95,33.25 36.75,33.25 C37.35,33.25 37.8666667,32.9833333 38.3,32.45 C38.5333333,32.1166667 38.6833333,31.8 38.75,31.5 C40.9833333,31.2333333 43.1666667,30.7333333 45.3,30 C45.6333333,30.6666667 46.2,31 47,31 C47.6,31 48.1166667,30.7333333 48.55,30.2 C48.85,29.7666667 49,29.3833333 49,29.05 L48.95,28.55 L49.35,28.35 C49.9833333,28.0833333 50.9666667,26.4 52.3,23.3 C54.3,18.6 56.0666667,14.8666667 57.6,12.1 C59.0333333,9.43333333 63.4833333,7.15 70.95,5.25 M62.25,13.25 C62.85,13.25 63.3666667,12.9833333 63.8,12.45 L64.25,11.3 C64.25,10.0666667 63.5833333,9.41666667 62.25,9.35 C60.9166667,9.25 60.25,9.88333333 60.25,11.25 L60.5,12.25 C60.8666667,12.9166667 61.45,13.25 62.25,13.25 M62.75,17.1 C61.4166667,17.0333333 60.75,17.6833333 60.75,19.05 L60.95,20.15 C61.25,20.8833333 61.85,21.25 62.75,21.25 C63.35,21.25 63.85,21.0166667 64.25,20.55 C64.5833333,20.1166667 64.75,19.65 64.75,19.15 C64.75,17.85 64.0833333,17.1666667 62.75,17.1 M57.5,23 C58.1,23 58.6166667,22.7333333 59.05,22.2 L59.5,21.05 C59.5,19.8166667 58.8333333,19.1666667 57.5,19.1 C56.1666667,19 55.5,19.6333333 55.5,21 L55.8,22 C56.1333333,22.6666667 56.7,23 57.5,23 M65.25,27.85 C63.9166667,27.75 63.25,28.3833333 63.25,29.75 L63.5,30.75 C63.8666667,31.4166667 64.45,31.75 65.25,31.75 C65.85,31.75 66.3666667,31.4833333 66.8,30.95 L67.25,29.8 C67.25,28.5666667 66.5833333,27.9166667 65.25,27.85 M55.75,29.5 C56.95,29.5 57.6166667,28.8 57.75,27.4 C57.75,26.1 56.9666667,25.3333333 55.4,25.1 C53.8,24.8666667 53,25.4833333 53,26.95 L53.35,28.15 C53.8166667,29.05 54.6166667,29.5 55.75,29.5 M40.75,40.75 L41,41.75 C41.3666667,42.4166667 41.95,42.75 42.75,42.75 C43.35,42.75 43.8666667,42.4833333 44.3,41.95 C44.6,41.5166667 44.75,41.1333333 44.75,40.8 C44.75,39.5666667 44.0833333,38.9166667 42.75,38.85 C41.4166667,38.75 40.75,39.3833333 40.75,40.75 M40.05,36.25 C40.3833333,36.9166667 40.95,37.25 41.75,37.25 C42.35,37.25 42.8666667,36.9833333 43.3,36.45 C43.6,36.0166667 43.75,35.6333333 43.75,35.3 C43.75,34.0666667 43.0833333,33.4166667 41.75,33.35 C40.4166667,33.25 39.75,33.8833333 39.75,35.25 L40.05,36.25 M29.55,42.45 C29.85,42.0166667 30,41.6333333 30,41.3 C30,40.0666667 29.3333333,39.4166667 28,39.35 C26.6666667,39.25 26,39.8833333 26,41.25 L26.25,42.25 C26.6166667,42.9166667 27.2,43.25 28,43.25 C28.6,43.25 29.1166667,42.9833333 29.55,42.45 M39.3,40.2 C39.6,39.7666667 39.75,39.3833333 39.75,39.05 C39.75,37.6166667 39.0833333,36.9333333 37.75,37 C36.4166667,37.0333333 35.75,37.7 35.75,39 L36,40 C36.3666667,40.6666667 36.95,41 37.75,41 C38.35,41 38.8666667,40.7333333 39.3,40.2 M37.55,45.45 C37.85,45.0166667 38,44.6333333 38,44.3 C38,43.0666667 37.3333333,42.4166667 36,42.35 C34.6666667,42.25 34,42.8833333 34,44.25 L34.25,45.25 C34.6166667,45.9166667 35.2,46.25 36,46.25 C36.6,46.25 37.1166667,45.9833333 37.55,45.45 M33.75,49.85 C32.4166667,49.75 31.75,50.3833333 31.75,51.75 L32,52.75 C32.3666667,53.4166667 32.95,53.75 33.75,53.75 C34.35,53.75 34.8666667,53.4833333 35.3,52.95 C35.6,52.5166667 35.75,52.1333333 35.75,51.8 C35.75,50.5666667 35.0833333,49.9166667 33.75,49.85 M32.5,57.3 C32.5,56.0666667 31.8333333,55.4166667 30.5,55.35 C29.1666667,55.25 28.5,55.8833333 28.5,57.25 L28.8,58.25 C29.1333333,58.9166667 29.7,59.25 30.5,59.25 C31.1,59.25 31.6166667,58.9833333 32.05,58.45 C32.35,58.0166667 32.5,57.6333333 32.5,57.3 M36,55.2 L36.35,56.45 C36.9833333,57.3166667 38.2,57.75 40,57.75 C40.8333333,57.75 41.4833333,57.55 41.95,57.15 C42.3166667,56.7833333 42.5,56.3333333 42.5,55.8 C42.5,54.4666667 41.4166667,53.6166667 39.25,53.25 C37.0833333,52.9166667 36,53.5666667 36,55.2 M45.15,48.3 C44.8166667,47.8666667 44.2666667,47.6333333 43.5,47.6 C42.1666667,47.5 41.5,48.1333333 41.5,49.5 L41.75,50.5 C42.1166667,51.1666667 42.7,51.5 43.5,51.5 C44.1,51.5 44.6166667,51.2333333 45.05,50.7 L45.3,50.3 C45.6333333,50.9333333 46.2,51.25 47,51.25 C47.6,51.25 48.1166667,50.9833333 48.55,50.45 C48.85,50.0166667 49,49.6333333 49,49.3 C49,48.0666667 48.3333333,47.4166667 47,47.35 C46.0333333,47.2833333 45.4166667,47.6 45.15,48.3 M48.75,54.6 C47.4166667,54.5 46.75,55.1333333 46.75,56.5 L47,57.5 C47.3666667,58.1666667 47.95,58.5 48.75,58.5 C49.35,58.5 49.8666667,58.2333333 50.3,57.7 L50.75,56.55 C50.75,55.3166667 50.0833333,54.6666667 48.75,54.6 M17.75,53.75 L18,54.75 C18.3666667,55.4166667 18.95,55.75 19.75,55.75 C20.35,55.75 20.8666667,55.4833333 21.3,54.95 C21.6,54.5166667 21.75,54.1333333 21.75,53.8 C21.75,52.5666667 21.0833333,51.9166667 19.75,51.85 C18.4166667,51.75 17.75,52.3833333 17.75,53.75 M27,50 C27.7,50 28.2666667,49.7833333 28.7,49.35 C29.0666667,48.9833333 29.25,48.55 29.25,48.05 C29.25,46.6166667 28.5,45.9333333 27,46 C25.5,46.0333333 24.75,46.7 24.75,48 L25.05,49 C25.4166667,49.6666667 26.0666667,50 27,50 M25.05,62.2 C25.35,61.7666667 25.5,61.3833333 25.5,61.05 C25.5,59.8166667 24.8333333,59.1666667 23.5,59.1 C22.1666667,59 21.5,59.6333333 21.5,61 L21.75,62 C22.1166667,62.6666667 22.7,63 23.5,63 C24.1,63 24.6166667,62.7333333 25.05,62.2 M16.3,65.7 C16.6,65.2666667 16.75,64.8833333 16.75,64.55 C16.75,63.3166667 16.0833333,62.6666667 14.75,62.6 C13.4166667,62.5 12.75,63.1333333 12.75,64.5 L13.05,65.5 C13.3833333,66.1666667 13.95,66.5 14.75,66.5 C15.35,66.5 15.8666667,66.2333333 16.3,65.7 M25.3,67.4 C25.6666667,68.1333333 26.3166667,68.5 27.25,68.5 C27.85,68.5 28.35,68.2666667 28.75,67.8 C29.0833333,67.3666667 29.25,66.9166667 29.25,66.45 C29.25,65.15 28.55,64.4333333 27.15,64.3 C25.7166667,64.1666667 25,64.8166667 25,66.25 L25.3,67.4 M18.25,75.65 C18.25,74.35 17.5833333,73.6666667 16.25,73.6 C14.9166667,73.5333333 14.25,74.1833333 14.25,75.55 L14.45,76.6 C14.75,77.3666667 15.35,77.75 16.25,77.75 C16.85,77.75 17.35,77.5 17.75,77 C18.0833333,76.6 18.25,76.15 18.25,75.65 M10.3,80.45 C10.6,80.0166667 10.75,79.6333333 10.75,79.3 C10.75,78.0666667 10.0833333,77.4166667 8.75,77.35 C7.41666667,77.25 6.75,77.8833333 6.75,79.25 L7.05,80.25 C7.38333333,80.9166667 7.95,81.25 8.75,81.25 C9.35,81.25 9.86666667,80.9833333 10.3,80.45 M11.05,72.95 C11.35,72.5166667 11.5,72.1333333 11.5,71.8 C11.5,70.5666667 10.8333333,69.9166667 9.5,69.85 C8.16666667,69.75 7.5,70.3833333 7.5,71.75 L7.8,72.75 C8.13333333,73.4166667 8.7,73.75 9.5,73.75 C10.1,73.75 10.6166667,73.4833333 11.05,72.95 M23.05,74.2 C23.35,73.7666667 23.5,73.3833333 23.5,73.05 C23.5,71.8166667 22.8333333,71.1666667 21.5,71.1 C20.1666667,71 19.5,71.6333333 19.5,73 L19.8,74 C20.1333333,74.6666667 20.7,75 21.5,75 C22.1,75 22.6166667,74.7333333 23.05,74.2 M40.5,68.75 C41.1,68.75 41.6166667,68.4833333 42.05,67.95 L42.5,66.8 C42.5,65.5666667 41.8333333,64.9166667 40.5,64.85 C39.1666667,64.75 38.5,65.3833333 38.5,66.75 L38.75,67.75 C39.1166667,68.4166667 39.7,68.75 40.5,68.75 M22.25,81.25 L22.5,82.25 C22.8666667,82.9166667 23.45,83.25 24.25,83.25 C24.85,83.25 25.3666667,82.9833333 25.8,82.45 C26.1,82.0166667 26.25,81.6333333 26.25,81.3 C26.25,79.8666667 25.5833333,79.1833333 24.25,79.25 C22.9166667,79.2833333 22.25,79.95 22.25,81.25 M47.25,71.5 L47.55,72.5 C47.8833333,73.1666667 48.45,73.5 49.25,73.5 C49.85,73.5 50.3666667,73.2333333 50.8,72.7 L51.25,71.55 C51.25,70.3166667 50.5833333,69.6666667 49.25,69.6 C47.9166667,69.5 47.25,70.1333333 47.25,71.5 M37,80.75 L37.3,81.75 C37.6666667,82.4166667 38.3166667,82.75 39.25,82.75 C39.95,82.75 40.5166667,82.55 40.95,82.15 C41.3166667,81.7833333 41.5,81.3333333 41.5,80.8 C41.5,79.3666667 40.75,78.6833333 39.25,78.75 C37.75,78.7833333 37,79.45 37,80.75 M34.75,78.8 C34.75,77.1 33.8,76.4333333 31.9,76.8 C29.9666667,77.1666667 29,77.9833333 29,79.25 L29.25,80.25 C29.6166667,80.9166667 30.2333333,81.25 31.1,81.25 C32.3333333,81.25 33.3,80.9166667 34,80.25 C34.5,79.7833333 34.75,79.3 34.75,78.8 M36.5,69.8 C36.5,68.3666667 35.8333333,67.6833333 34.5,67.75 C33.1666667,67.7833333 32.5,68.45 32.5,69.75 L32.75,70.75 C33.1166667,71.4166667 33.7,71.75 34.5,71.75 C35.1,71.75 35.6166667,71.4833333 36.05,70.95 C36.35,70.5166667 36.5,70.1333333 36.5,69.8 M36.25,61.35 C34.9166667,61.25 34.25,61.8833333 34.25,63.25 L34.5,64.25 C34.8666667,64.9166667 35.45,65.25 36.25,65.25 C36.85,65.25 37.3666667,64.9833333 37.8,64.45 C38.1,64.0166667 38.25,63.6333333 38.25,63.3 C38.25,62.0666667 37.5833333,61.4166667 36.25,61.35 M48.5,62.5 L48.75,63.5 C49.1166667,64.1666667 49.7,64.5 50.5,64.5 C51.1,64.5 51.6166667,64.2333333 52.05,63.7 L52.5,62.55 C52.5,61.3166667 51.8333333,60.6666667 50.5,60.6 C49.1666667,60.5 48.5,61.1333333 48.5,62.5 M47.75,77.25 L48,78.25 C48.3666667,78.9166667 48.95,79.25 49.75,79.25 C50.35,79.25 50.8666667,78.9833333 51.3,78.45 L51.75,77.3 C51.75,76.0666667 51.0833333,75.4166667 49.75,75.35 C48.4166667,75.25 47.75,75.8833333 47.75,77.25 M43.5,76.5 C43.8333333,76.1 44,75.65 44,75.15 C44,73.85 43.3333333,73.1666667 42,73.1 C40.6666667,73.0333333 40,73.6833333 40,75.05 L40.2,76.15 C40.5,76.8833333 41.1,77.25 42,77.25 C42.6,77.25 43.1,77 43.5,76.5 M43,85.25 L43.25,86.25 C43.6166667,86.9166667 44.2,87.25 45,87.25 C45.6,87.25 46.1166667,86.9833333 46.55,86.45 C46.85,86.0166667 47,85.6333333 47,85.3 C47,84.0666667 46.3333333,83.4166667 45,83.35 C43.6666667,83.25 43,83.8833333 43,85.25 M30.5,86.75 C30.8333333,86.35 31,85.9 31,85.4 C31,84.1 30.3333333,83.4166667 29,83.35 C27.6666667,83.2833333 27,83.9333333 27,85.3 L27.2,86.35 C27.5,87.1166667 28.1,87.5 29,87.5 C29.6,87.5 30.1,87.25 30.5,86.75 M12.25,85.75 L12.5,86.75 C12.9333333,87.4166667 13.7666667,87.75 15,87.75 C16.8333333,87.75 17.75,87.1 17.75,85.8 C17.75,84.2333333 16.8333333,83.4833333 15,83.55 C13.1666667,83.65 12.25,84.3833333 12.25,85.75 M62.05,36.2 L62.5,35.05 C62.5,33.8166667 61.8333333,33.1666667 60.5,33.1 C59.1666667,33 58.5,33.6333333 58.5,35 L58.8,36 C59.1333333,36.6666667 59.7,37 60.5,37 C61.1,37 61.6166667,36.7333333 62.05,36.2 M52.8,39.2 L53.25,38.05 C53.25,36.6166667 52.5833333,35.9333333 51.25,36 C49.9166667,36.0333333 49.25,36.7 49.25,38 L49.5,39 C49.8666667,39.6666667 50.45,40 51.25,40 C51.85,40 52.3666667,39.7333333 52.8,39.2 M62.25,45.3 C62.25,44.0666667 61.5833333,43.4166667 60.25,43.35 C58.9166667,43.25 58.25,43.8833333 58.25,45.25 L58.5,46.25 C58.8666667,46.9166667 59.45,47.25 60.25,47.25 C60.85,47.25 61.3666667,46.9833333 61.8,46.45 L62.25,45.3 M68.75,62.1 C67.4166667,62.0333333 66.75,62.6833333 66.75,64.05 L66.95,65.15 C67.25,65.8833333 67.85,66.25 68.75,66.25 C69.35,66.25 69.85,66.0166667 70.25,65.55 C70.5833333,65.1166667 70.75,64.65 70.75,64.15 C70.75,62.85 70.0833333,62.1666667 68.75,62.1 M67.55,51.2 L68,50.05 C68,48.8166667 67.3333333,48.1666667 66,48.1 C64.6666667,48 64,48.6333333 64,50 L64.25,51 C64.6166667,51.6666667 65.2,52 66,52 C66.6,52 67.1166667,51.7333333 67.55,51.2 M55.8,53.25 C56.1333333,53.9166667 56.7,54.25 57.5,54.25 C58.1,54.25 58.6166667,53.9833333 59.05,53.45 L59.5,52.3 C59.5,51.0666667 58.8333333,50.4166667 57.5,50.35 C56.1666667,50.25 55.5,50.8833333 55.5,52.25 L55.8,53.25 M55.8,49.45 L56.25,48.3 C56.25,47.0666667 55.5833333,46.4166667 54.25,46.35 C52.9166667,46.25 52.25,46.8833333 52.25,48.25 L52.5,49.25 C52.8666667,49.9166667 53.45,50.25 54.25,50.25 C54.85,50.25 55.3666667,49.9833333 55.8,49.45 M61.8,69.95 L62.25,68.8 C62.25,67.5666667 61.5833333,66.9166667 60.25,66.85 C58.9166667,66.75 58.25,67.3833333 58.25,68.75 L58.5,69.75 C58.8666667,70.4166667 59.45,70.75 60.25,70.75 C60.85,70.75 61.3666667,70.4833333 61.8,69.95 M60,60.5 C60.3666667,61.1666667 60.95,61.5 61.75,61.5 C62.35,61.5 62.8666667,61.2333333 63.3,60.7 L63.75,59.55 C63.75,58.3166667 63.0833333,57.6666667 61.75,57.6 C60.4166667,57.5 59.75,58.1333333 59.75,59.5 L60,60.5 M56.25,75.5 C56.85,75.5 57.3666667,75.2333333 57.8,74.7 L58.25,73.55 C58.25,72.3166667 57.5833333,71.6666667 56.25,71.6 C54.9166667,71.5 54.25,72.1333333 54.25,73.5 L54.5,74.5 C54.8666667,75.1666667 55.45,75.5 56.25,75.5 M57.5,64 C58.1,64 58.6166667,63.7333333 59.05,63.2 L59.5,62.05 C59.5,60.8166667 58.8333333,60.1666667 57.5,60.1 C56.1666667,60 55.5,60.6333333 55.5,62 L55.8,63 C56.1333333,63.6666667 56.7,64 57.5,64 M58.75,79.25 L59,80.25 C59.3666667,80.9166667 59.95,81.25 60.75,81.25 C61.35,81.25 61.8666667,80.9833333 62.3,80.45 L62.75,79.3 C62.75,78.0666667 62.0833333,77.4166667 60.75,77.35 C59.4166667,77.25 58.75,77.8833333 58.75,79.25 M52.8,85.7 L53.25,84.55 C53.25,83.1166667 52.5833333,82.4333333 51.25,82.5 C49.9166667,82.5333333 49.25,83.2 49.25,84.5 L49.5,85.5 C49.8666667,86.1666667 50.45,86.5 51.25,86.5 C51.85,86.5 52.3666667,86.2333333 52.8,85.7 M57,85.75 C57.6,85.75 58.1166667,85.4833333 58.55,84.95 L59,83.8 C59,82.5666667 58.3333333,81.9166667 57,81.85 C55.6666667,81.75 55,82.3833333 55,83.75 L55.25,84.75 C55.6166667,85.4166667 56.2,85.75 57,85.75" id="Shape" fill="#FFCC66"></path>
                <path d="M48.95,28.55 L49,29.05 C49,29.3833333 48.85,29.7666667 48.55,30.2 C48.1166667,30.7333333 47.6,31 47,31 C46.2,31 45.6333333,30.6666667 45.3,30 C46.5333333,29.5666667 47.75,29.0833333 48.95,28.55 M32.5,32.45 L32.5,32.55 C32.5,32.8833333 32.35,33.2666667 32.05,33.7 C31.6166667,34.2333333 31.1,34.5 30.5,34.5 C29.7333333,34.5 29.1833333,34.2 28.85,33.6 L29.85,33.1 L32.5,32.45 M0.75,83.85 C1.05,83.65 1.46666667,83.5666667 2,83.6 C3.33333333,83.6666667 4,84.3166667 4,85.55 C4,85.8833333 3.85,86.2666667 3.55,86.7 C3.11666667,87.2333333 2.6,87.5 2,87.5 C1.46666667,87.5 1.03333333,87.35 0.7,87.05 L0.3,86.5 L0,85.5 C0,84.6666667 0.25,84.1166667 0.75,83.85 L0.6,84.95 L0.7,87.05 L0.6,84.95 L0.75,83.85 M70.95,84.35 C70.55,84.7833333 70.0166667,85 69.35,85 C68.4833333,85 67.8666667,84.6666667 67.5,84 L67.25,83 C67.25,81.5666667 67.9666667,80.8 69.4,80.7 C70.1,80.6666667 70.6166667,80.8333333 70.95,81.2 L70.95,84.35 M70.95,42.25 L70.75,42.25 C69.95,42.25 69.3666667,41.9166667 69,41.25 L68.75,40.25 C68.75,38.8833333 69.4166667,38.25 70.75,38.35 L70.95,38.4 L70.95,42.25 M70.95,11.5 L70.75,11.5 C69.95,11.5 69.3666667,11.1666667 69,10.5 L68.75,9.5 C68.75,8.13333333 69.4166667,7.5 70.75,7.6 L70.95,7.65 L70.95,11.5 M62.75,17.1 C64.0833333,17.1666667 64.75,17.85 64.75,19.15 C64.75,19.65 64.5833333,20.1166667 64.25,20.55 C63.85,21.0166667 63.35,21.25 62.75,21.25 C61.85,21.25 61.25,20.8833333 60.95,20.15 L60.75,19.05 C60.75,17.6833333 61.4166667,17.0333333 62.75,17.1 M55.75,29.5 C54.6166667,29.5 53.8166667,29.05 53.35,28.15 L53,26.95 C53,25.4833333 53.8,24.8666667 55.4,25.1 C56.9666667,25.3333333 57.75,26.1 57.75,27.4 C57.6166667,28.8 56.95,29.5 55.75,29.5 M65.25,27.85 C66.5833333,27.9166667 67.25,28.5666667 67.25,29.8 L66.8,30.95 C66.3666667,31.4833333 65.85,31.75 65.25,31.75 C64.45,31.75 63.8666667,31.4166667 63.5,30.75 L63.25,29.75 C63.25,28.3833333 63.9166667,27.75 65.25,27.85 M39.3,40.2 C38.8666667,40.7333333 38.35,41 37.75,41 C36.95,41 36.3666667,40.6666667 36,40 L35.75,39 C35.75,37.7 36.4166667,37.0333333 37.75,37 C39.0833333,36.9333333 39.75,37.6166667 39.75,39.05 C39.75,39.3833333 39.6,39.7666667 39.3,40.2 M29.55,42.45 C29.1166667,42.9833333 28.6,43.25 28,43.25 C27.2,43.25 26.6166667,42.9166667 26.25,42.25 L26,41.25 C26,39.8833333 26.6666667,39.25 28,39.35 C29.3333333,39.4166667 30,40.0666667 30,41.3 C30,41.6333333 29.85,42.0166667 29.55,42.45 M33.75,49.85 C35.0833333,49.9166667 35.75,50.5666667 35.75,51.8 C35.75,52.1333333 35.6,52.5166667 35.3,52.95 C34.8666667,53.4833333 34.35,53.75 33.75,53.75 C32.95,53.75 32.3666667,53.4166667 32,52.75 L31.75,51.75 C31.75,50.3833333 32.4166667,49.75 33.75,49.85 M45.3,50.3 L45.5,49.55 C45.5,49.0166667 45.3833333,48.6 45.15,48.3 C45.4166667,47.6 46.0333333,47.2833333 47,47.35 C48.3333333,47.4166667 49,48.0666667 49,49.3 C49,49.6333333 48.85,50.0166667 48.55,50.45 C48.1166667,50.9833333 47.6,51.25 47,51.25 C46.2,51.25 45.6333333,50.9333333 45.3,50.3 M17.75,53.75 C17.75,52.3833333 18.4166667,51.75 19.75,51.85 C21.0833333,51.9166667 21.75,52.5666667 21.75,53.8 C21.75,54.1333333 21.6,54.5166667 21.3,54.95 C20.8666667,55.4833333 20.35,55.75 19.75,55.75 C18.95,55.75 18.3666667,55.4166667 18,54.75 L17.75,53.75 M25.05,62.2 C24.6166667,62.7333333 24.1,63 23.5,63 C22.7,63 22.1166667,62.6666667 21.75,62 L21.5,61 C21.5,59.6333333 22.1666667,59 23.5,59.1 C24.8333333,59.1666667 25.5,59.8166667 25.5,61.05 C25.5,61.3833333 25.35,61.7666667 25.05,62.2 M18.25,75.65 C18.25,76.15 18.0833333,76.6 17.75,77 C17.35,77.5 16.85,77.75 16.25,77.75 C15.35,77.75 14.75,77.3666667 14.45,76.6 L14.25,75.55 C14.25,74.1833333 14.9166667,73.5333333 16.25,73.6 C17.5833333,73.6666667 18.25,74.35 18.25,75.65 M23.05,74.2 C22.6166667,74.7333333 22.1,75 21.5,75 C20.7,75 20.1333333,74.6666667 19.8,74 L19.5,73 C19.5,71.6333333 20.1666667,71 21.5,71.1 C22.8333333,71.1666667 23.5,71.8166667 23.5,73.05 C23.5,73.3833333 23.35,73.7666667 23.05,74.2 M48.5,62.5 C48.5,61.1333333 49.1666667,60.5 50.5,60.6 C51.8333333,60.6666667 52.5,61.3166667 52.5,62.55 L52.05,63.7 C51.6166667,64.2333333 51.1,64.5 50.5,64.5 C49.7,64.5 49.1166667,64.1666667 48.75,63.5 L48.5,62.5 M36.25,61.35 C37.5833333,61.4166667 38.25,62.0666667 38.25,63.3 C38.25,63.6333333 38.1,64.0166667 37.8,64.45 C37.3666667,64.9833333 36.85,65.25 36.25,65.25 C35.45,65.25 34.8666667,64.9166667 34.5,64.25 L34.25,63.25 C34.25,61.8833333 34.9166667,61.25 36.25,61.35 M36.5,69.8 C36.5,70.1333333 36.35,70.5166667 36.05,70.95 C35.6166667,71.4833333 35.1,71.75 34.5,71.75 C33.7,71.75 33.1166667,71.4166667 32.75,70.75 L32.5,69.75 C32.5,68.45 33.1666667,67.7833333 34.5,67.75 C35.8333333,67.6833333 36.5,68.3666667 36.5,69.8 M34.75,78.8 C34.75,79.3 34.5,79.7833333 34,80.25 C33.3,80.9166667 32.3333333,81.25 31.1,81.25 C30.2333333,81.25 29.6166667,80.9166667 29.25,80.25 L29,79.25 C29,77.9833333 29.9666667,77.1666667 31.9,76.8 C33.8,76.4333333 34.75,77.1 34.75,78.8 M37,80.75 C37,79.45 37.75,78.7833333 39.25,78.75 C40.75,78.6833333 41.5,79.3666667 41.5,80.8 C41.5,81.3333333 41.3166667,81.7833333 40.95,82.15 C40.5166667,82.55 39.95,82.75 39.25,82.75 C38.3166667,82.75 37.6666667,82.4166667 37.3,81.75 L37,80.75 M47.25,71.5 C47.25,70.1333333 47.9166667,69.5 49.25,69.6 C50.5833333,69.6666667 51.25,70.3166667 51.25,71.55 L50.8,72.7 C50.3666667,73.2333333 49.85,73.5 49.25,73.5 C48.45,73.5 47.8833333,73.1666667 47.55,72.5 L47.25,71.5 M12.25,85.75 C12.25,84.3833333 13.1666667,83.65 15,83.55 C16.8333333,83.4833333 17.75,84.2333333 17.75,85.8 C17.75,87.1 16.8333333,87.75 15,87.75 C13.7666667,87.75 12.9333333,87.4166667 12.5,86.75 L12.25,85.75 M62.25,45.3 L61.8,46.45 C61.3666667,46.9833333 60.85,47.25 60.25,47.25 C59.45,47.25 58.8666667,46.9166667 58.5,46.25 L58.25,45.25 C58.25,43.8833333 58.9166667,43.25 60.25,43.35 C61.5833333,43.4166667 62.25,44.0666667 62.25,45.3 M52.8,39.2 C52.3666667,39.7333333 51.85,40 51.25,40 C50.45,40 49.8666667,39.6666667 49.5,39 L49.25,38 C49.25,36.7 49.9166667,36.0333333 51.25,36 C52.5833333,35.9333333 53.25,36.6166667 53.25,38.05 L52.8,39.2 M60,60.5 L59.75,59.5 C59.75,58.1333333 60.4166667,57.5 61.75,57.6 C63.0833333,57.6666667 63.75,58.3166667 63.75,59.55 L63.3,60.7 C62.8666667,61.2333333 62.35,61.5 61.75,61.5 C60.95,61.5 60.3666667,61.1666667 60,60.5 M61.8,69.95 C61.3666667,70.4833333 60.85,70.75 60.25,70.75 C59.45,70.75 58.8666667,70.4166667 58.5,69.75 L58.25,68.75 C58.25,67.3833333 58.9166667,66.75 60.25,66.85 C61.5833333,66.9166667 62.25,67.5666667 62.25,68.8 L61.8,69.95 M58.75,79.25 C58.75,77.8833333 59.4166667,77.25 60.75,77.35 C62.0833333,77.4166667 62.75,78.0666667 62.75,79.3 L62.3,80.45 C61.8666667,80.9833333 61.35,81.25 60.75,81.25 C59.95,81.25 59.3666667,80.9166667 59,80.25 L58.75,79.25 M52.8,85.7 C52.3666667,86.2333333 51.85,86.5 51.25,86.5 C50.45,86.5 49.8666667,86.1666667 49.5,85.5 L49.25,84.5 C49.25,83.2 49.9166667,82.5333333 51.25,82.5 C52.5833333,82.4333333 53.25,83.1166667 53.25,84.55 L52.8,85.7" id="Shape" fill="#CC9966"></path>
                <path d="M38.75,31.5 C38.6833333,31.8 38.5333333,32.1166667 38.3,32.45 C37.8666667,32.9833333 37.35,33.25 36.75,33.25 C35.95,33.25 35.3666667,32.9166667 35,32.25 L34.95,32 L38.4,31.55 L38.75,31.5 M24.95,38.65 L25,39.3 C25,39.6333333 24.85,40.0166667 24.55,40.45 L23.85,41.05 L24.95,38.65 M70.95,76.9 C70.1833333,76.7666667 69.6333333,76.4666667 69.3,76 L69,75 C69,73.9 69.65,73.1833333 70.95,72.85 L70.95,76.9 M70.95,24.7 L70.5,24.75 C69.7,24.75 69.1166667,24.4166667 68.75,23.75 L68.5,22.75 C68.5,21.3833333 69.1666667,20.75 70.5,20.85 L70.95,20.9 L70.95,24.7 M56.2,0.1 L56.2,0 L56.45,0 L56.2,0.1 M62.25,13.25 C61.45,13.25 60.8666667,12.9166667 60.5,12.25 L60.25,11.25 C60.25,9.88333333 60.9166667,9.25 62.25,9.35 C63.5833333,9.41666667 64.25,10.0666667 64.25,11.3 L63.8,12.45 C63.3666667,12.9833333 62.85,13.25 62.25,13.25 M57.5,23 C56.7,23 56.1333333,22.6666667 55.8,22 L55.5,21 C55.5,19.6333333 56.1666667,19 57.5,19.1 C58.8333333,19.1666667 59.5,19.8166667 59.5,21.05 L59.05,22.2 C58.6166667,22.7333333 58.1,23 57.5,23 M25.75,27.5 C25.1833333,27.5 24.7333333,27.3333333 24.4,27 L27.05,27 C26.65,27.3333333 26.2166667,27.5 25.75,27.5 M40.05,36.25 L39.75,35.25 C39.75,33.8833333 40.4166667,33.25 41.75,33.35 C43.0833333,33.4166667 43.75,34.0666667 43.75,35.3 C43.75,35.6333333 43.6,36.0166667 43.3,36.45 C42.8666667,36.9833333 42.35,37.25 41.75,37.25 C40.95,37.25 40.3833333,36.9166667 40.05,36.25 M40.75,40.75 C40.75,39.3833333 41.4166667,38.75 42.75,38.85 C44.0833333,38.9166667 44.75,39.5666667 44.75,40.8 C44.75,41.1333333 44.6,41.5166667 44.3,41.95 C43.8666667,42.4833333 43.35,42.75 42.75,42.75 C41.95,42.75 41.3666667,42.4166667 41,41.75 L40.75,40.75 M37.55,45.45 C37.1166667,45.9833333 36.6,46.25 36,46.25 C35.2,46.25 34.6166667,45.9166667 34.25,45.25 L34,44.25 C34,42.8833333 34.6666667,42.25 36,42.35 C37.3333333,42.4166667 38,43.0666667 38,44.3 C38,44.6333333 37.85,45.0166667 37.55,45.45 M36,55.2 C36,53.5666667 37.0833333,52.9166667 39.25,53.25 C41.4166667,53.6166667 42.5,54.4666667 42.5,55.8 C42.5,56.3333333 42.3166667,56.7833333 41.95,57.15 C41.4833333,57.55 40.8333333,57.75 40,57.75 C38.2,57.75 36.9833333,57.3166667 36.35,56.45 L36,55.2 M32.5,57.3 C32.5,57.6333333 32.35,58.0166667 32.05,58.45 C31.6166667,58.9833333 31.1,59.25 30.5,59.25 C29.7,59.25 29.1333333,58.9166667 28.8,58.25 L28.5,57.25 C28.5,55.8833333 29.1666667,55.25 30.5,55.35 C31.8333333,55.4166667 32.5,56.0666667 32.5,57.3 M45.15,48.3 C45.3833333,48.6 45.5,49.0166667 45.5,49.55 L45.3,50.3 L45.05,50.7 C44.6166667,51.2333333 44.1,51.5 43.5,51.5 C42.7,51.5 42.1166667,51.1666667 41.75,50.5 L41.5,49.5 C41.5,48.1333333 42.1666667,47.5 43.5,47.6 C44.2666667,47.6333333 44.8166667,47.8666667 45.15,48.3 M48.75,54.6 C50.0833333,54.6666667 50.75,55.3166667 50.75,56.55 L50.3,57.7 C49.8666667,58.2333333 49.35,58.5 48.75,58.5 C47.95,58.5 47.3666667,58.1666667 47,57.5 L46.75,56.5 C46.75,55.1333333 47.4166667,54.5 48.75,54.6 M27,50 C26.0666667,50 25.4166667,49.6666667 25.05,49 L24.75,48 C24.75,46.7 25.5,46.0333333 27,46 C28.5,45.9333333 29.25,46.6166667 29.25,48.05 C29.25,48.55 29.0666667,48.9833333 28.7,49.35 C28.2666667,49.7833333 27.7,50 27,50 M25.3,67.4 L25,66.25 C25,64.8166667 25.7166667,64.1666667 27.15,64.3 C28.55,64.4333333 29.25,65.15 29.25,66.45 C29.25,66.9166667 29.0833333,67.3666667 28.75,67.8 C28.35,68.2666667 27.85,68.5 27.25,68.5 C26.3166667,68.5 25.6666667,68.1333333 25.3,67.4 M16.3,65.7 C15.8666667,66.2333333 15.35,66.5 14.75,66.5 C13.95,66.5 13.3833333,66.1666667 13.05,65.5 L12.75,64.5 C12.75,63.1333333 13.4166667,62.5 14.75,62.6 C16.0833333,62.6666667 16.75,63.3166667 16.75,64.55 C16.75,64.8833333 16.6,65.2666667 16.3,65.7 M11.05,72.95 C10.6166667,73.4833333 10.1,73.75 9.5,73.75 C8.7,73.75 8.13333333,73.4166667 7.8,72.75 L7.5,71.75 C7.5,70.3833333 8.16666667,69.75 9.5,69.85 C10.8333333,69.9166667 11.5,70.5666667 11.5,71.8 C11.5,72.1333333 11.35,72.5166667 11.05,72.95 M10.3,80.45 C9.86666667,80.9833333 9.35,81.25 8.75,81.25 C7.95,81.25 7.38333333,80.9166667 7.05,80.25 L6.75,79.25 C6.75,77.8833333 7.41666667,77.25 8.75,77.35 C10.0833333,77.4166667 10.75,78.0666667 10.75,79.3 C10.75,79.6333333 10.6,80.0166667 10.3,80.45 M22.25,81.25 C22.25,79.95 22.9166667,79.2833333 24.25,79.25 C25.5833333,79.1833333 26.25,79.8666667 26.25,81.3 C26.25,81.6333333 26.1,82.0166667 25.8,82.45 C25.3666667,82.9833333 24.85,83.25 24.25,83.25 C23.45,83.25 22.8666667,82.9166667 22.5,82.25 L22.25,81.25 M40.5,68.75 C39.7,68.75 39.1166667,68.4166667 38.75,67.75 L38.5,66.75 C38.5,65.3833333 39.1666667,64.75 40.5,64.85 C41.8333333,64.9166667 42.5,65.5666667 42.5,66.8 L42.05,67.95 C41.6166667,68.4833333 41.1,68.75 40.5,68.75 M43.5,76.5 C43.1,77 42.6,77.25 42,77.25 C41.1,77.25 40.5,76.8833333 40.2,76.15 L40,75.05 C40,73.6833333 40.6666667,73.0333333 42,73.1 C43.3333333,73.1666667 44,73.85 44,75.15 C44,75.65 43.8333333,76.1 43.5,76.5 M47.75,77.25 C47.75,75.8833333 48.4166667,75.25 49.75,75.35 C51.0833333,75.4166667 51.75,76.0666667 51.75,77.3 L51.3,78.45 C50.8666667,78.9833333 50.35,79.25 49.75,79.25 C48.95,79.25 48.3666667,78.9166667 48,78.25 L47.75,77.25 M30.5,86.75 C30.1,87.25 29.6,87.5 29,87.5 C28.1,87.5 27.5,87.1166667 27.2,86.35 L27,85.3 C27,83.9333333 27.6666667,83.2833333 29,83.35 C30.3333333,83.4166667 31,84.1 31,85.4 C31,85.9 30.8333333,86.35 30.5,86.75 M43,85.25 C43,83.8833333 43.6666667,83.25 45,83.35 C46.3333333,83.4166667 47,84.0666667 47,85.3 C47,85.6333333 46.85,86.0166667 46.55,86.45 C46.1166667,86.9833333 45.6,87.25 45,87.25 C44.2,87.25 43.6166667,86.9166667 43.25,86.25 L43,85.25 M62.05,36.2 C61.6166667,36.7333333 61.1,37 60.5,37 C59.7,37 59.1333333,36.6666667 58.8,36 L58.5,35 C58.5,33.6333333 59.1666667,33 60.5,33.1 C61.8333333,33.1666667 62.5,33.8166667 62.5,35.05 L62.05,36.2 M55.8,49.45 C55.3666667,49.9833333 54.85,50.25 54.25,50.25 C53.45,50.25 52.8666667,49.9166667 52.5,49.25 L52.25,48.25 C52.25,46.8833333 52.9166667,46.25 54.25,46.35 C55.5833333,46.4166667 56.25,47.0666667 56.25,48.3 L55.8,49.45 M55.8,53.25 L55.5,52.25 C55.5,50.8833333 56.1666667,50.25 57.5,50.35 C58.8333333,50.4166667 59.5,51.0666667 59.5,52.3 L59.05,53.45 C58.6166667,53.9833333 58.1,54.25 57.5,54.25 C56.7,54.25 56.1333333,53.9166667 55.8,53.25 M67.55,51.2 C67.1166667,51.7333333 66.6,52 66,52 C65.2,52 64.6166667,51.6666667 64.25,51 L64,50 C64,48.6333333 64.6666667,48 66,48.1 C67.3333333,48.1666667 68,48.8166667 68,50.05 L67.55,51.2 M68.75,62.1 C70.0833333,62.1666667 70.75,62.85 70.75,64.15 C70.75,64.65 70.5833333,65.1166667 70.25,65.55 C69.85,66.0166667 69.35,66.25 68.75,66.25 C67.85,66.25 67.25,65.8833333 66.95,65.15 L66.75,64.05 C66.75,62.6833333 67.4166667,62.0333333 68.75,62.1 M57.5,64 C56.7,64 56.1333333,63.6666667 55.8,63 L55.5,62 C55.5,60.6333333 56.1666667,60 57.5,60.1 C58.8333333,60.1666667 59.5,60.8166667 59.5,62.05 L59.05,63.2 C58.6166667,63.7333333 58.1,64 57.5,64 M56.25,75.5 C55.45,75.5 54.8666667,75.1666667 54.5,74.5 L54.25,73.5 C54.25,72.1333333 54.9166667,71.5 56.25,71.6 C57.5833333,71.6666667 58.25,72.3166667 58.25,73.55 L57.8,74.7 C57.3666667,75.2333333 56.85,75.5 56.25,75.5 M57,85.75 C56.2,85.75 55.6166667,85.4166667 55.25,84.75 L55,83.75 C55,82.3833333 55.6666667,81.75 57,81.85 C58.3333333,81.9166667 59,82.5666667 59,83.8 L58.55,84.95 C58.1166667,85.4833333 57.6,85.75 57,85.75" id="Shape" fill="#FFFF66"></path>
                <path d="M70.95,5.25 C63.4833333,7.15 59.0333333,9.43333333 57.6,12.1 C56.0666667,14.8666667 54.3,18.6 52.3,23.3 C50.9666667,26.4 49.9833333,28.0833333 49.35,28.35 L48.95,28.55 C47.75,29.0833333 46.5333333,29.5666667 45.3,30 C43.1666667,30.7333333 40.9833333,31.2333333 38.75,31.5 L38.4,31.55 L34.95,32 L32.5,32.45 L29.85,33.1 L28.85,33.6 C27.4833333,34.5 26.2,36.1333333 25,38.5 L24.95,38.65 L23.85,41.05 L22.6,44.35 C21.4666667,47.1166667 20.4333333,48.9833333 19.5,49.95 C18.0333333,51.55 16.7333333,53.2666667 15.6,55.1 C6.53333333,70.0333333 1.58333333,79.6166667 0.75,83.85 L0.6,84.95 L0.7,87.05 L0.85,89.6 C2.58333333,90.3 3.68333333,90.8166667 4.15,91.15 L6.1,92.5 L70.95,92.5 M70.95,5.25 L73.6,4.6" id="Shape" stroke="#000000" stroke-width="2" stroke-linecap="round" stroke-linejoin="round"></path>
            </g>
            <g id="Group-2" transform="translate(60.3151, -0.5)">
                <g transform="translate(37.0849, 60.4) scale(-1, 1) translate(-37.0849, -60.4)translate(-9.9151, 5.9)">
                    <path d="M70.95,92.5 L6.1,92.5 L4.15,91.15 C3.68333333,90.8166667 2.58333333,90.3 0.85,89.6 L0.7,87.05 L0.6,84.95 L0.75,83.85 C1.58333333,79.6166667 6.53333333,70.0333333 15.6,55.1 C16.7333333,53.2666667 18.0333333,51.55 19.5,49.95 C20.4333333,48.9833333 21.4666667,47.1166667 22.6,44.35 L23.85,41.05 L24.95,38.65 L25,38.5 C26.2,36.1333333 27.4833333,34.5 28.85,33.6 L29.85,33.1 L32.5,32.45 L34.95,32 L38.4,31.55 L38.75,31.5 C40.9833333,31.2333333 43.1666667,30.7333333 45.3,30 C46.5333333,29.5666667 47.75,29.0833333 48.95,28.55 L49.35,28.35 C49.9833333,28.0833333 50.9666667,26.4 52.3,23.3 C54.3,18.6 56.0666667,14.8666667 57.6,12.1 C59.0333333,9.43333333 63.4833333,7.15 70.95,5.25 L73.6,4.6" id="Path" stroke-opacity="0.011764706" stroke="#000000" stroke-width="20" stroke-linecap="round" stroke-linejoin="round"></path>
                    <path d="M70.95,7.65 L70.75,7.6 C69.4166667,7.5 68.75,8.13333333 68.75,9.5 L69,10.5 C69.3666667,11.1666667 69.95,11.5 70.75,11.5 L70.95,11.5 L70.95,20.9 L70.5,20.85 C69.1666667,20.75 68.5,21.3833333 68.5,22.75 L68.75,23.75 C69.1166667,24.4166667 69.7,24.75 70.5,24.75 L70.95,24.7 L70.95,38.4 L70.75,38.35 C69.4166667,38.25 68.75,38.8833333 68.75,40.25 L69,41.25 C69.3666667,41.9166667 69.95,42.25 70.75,42.25 L70.95,42.25 L70.95,72.85 C69.65,73.1833333 69,73.9 69,75 L69.3,76 C69.6333333,76.4666667 70.1833333,76.7666667 70.95,76.9 L70.95,81.2 C70.6166667,80.8333333 70.1,80.6666667 69.4,80.7 C67.9666667,80.8 67.25,81.5666667 67.25,83 L67.5,84 C67.8666667,84.6666667 68.4833333,85 69.35,85 C70.0166667,85 70.55,84.7833333 70.95,84.35 L70.95,92.5 L6.1,92.5 L4.15,91.15 C3.68333333,90.8166667 2.58333333,90.3 0.85,89.6 L0.7,87.05 C1.03333333,87.35 1.46666667,87.5 2,87.5 C2.6,87.5 3.11666667,87.2333333 3.55,86.7 C3.85,86.2666667 4,85.8833333 4,85.55 C4,84.3166667 3.33333333,83.6666667 2,83.6 C1.46666667,83.5666667 1.05,83.65 0.75,83.85 C1.58333333,79.6166667 6.53333333,70.0333333 15.6,55.1 C16.7333333,53.2666667 18.0333333,51.55 19.5,49.95 C20.4333333,48.9833333 21.4666667,47.1166667 22.6,44.35 L23.85,41.05 L24.55,40.45 C24.85,40.0166667 25,39.6333333 25,39.3 L24.95,38.65 L25,38.5 C26.2,36.1333333 27.4833333,34.5 28.85,33.6 C29.1833333,34.2 29.7333333,34.5 30.5,34.5 C31.1,34.5 31.6166667,34.2333333 32.05,33.7 C32.35,33.2666667 32.5,32.8833333 32.5,32.55 L32.5,32.45 L34.95,32 L35,32.25 C35.3666667,32.9166667 35.95,33.25 36.75,33.25 C37.35,33.25 37.8666667,32.9833333 38.3,32.45 C38.5333333,32.1166667 38.6833333,31.8 38.75,31.5 C40.9833333,31.2333333 43.1666667,30.7333333 45.3,30 C45.6333333,30.6666667 46.2,31 47,31 C47.6,31 48.1166667,30.7333333 48.55,30.2 C48.85,29.7666667 49,29.3833333 49,29.05 L48.95,28.55 L49.35,28.35 C49.9833333,28.0833333 50.9666667,26.4 52.3,23.3 C54.3,18.6 56.0666667,14.8666667 57.6,12.1 C59.0333333,9.43333333 63.4833333,7.15 70.95,5.25 L70.95,7.65 Z M63.8,12.45 L64.25,11.3 C64.25,10.0666667 63.5833333,9.41666667 62.25,9.35 C60.9166667,9.25 60.25,9.88333333 60.25,11.25 L60.5,12.25 C60.8666667,12.9166667 61.45,13.25 62.25,13.25 C62.85,13.25 63.3666667,12.9833333 63.8,12.45 Z M60.75,19.05 L60.95,20.15 C61.25,20.8833333 61.85,21.25 62.75,21.25 C63.35,21.25 63.85,21.0166667 64.25,20.55 C64.5833333,20.1166667 64.75,19.65 64.75,19.15 C64.75,17.85 64.0833333,17.1666667 62.75,17.1 C61.4166667,17.0333333 60.75,17.6833333 60.75,19.05 Z M59.05,22.2 L59.5,21.05 C59.5,19.8166667 58.8333333,19.1666667 57.5,19.1 C56.1666667,19 55.5,19.6333333 55.5,21 L55.8,22 C56.1333333,22.6666667 56.7,23 57.5,23 C58.1,23 58.6166667,22.7333333 59.05,22.2 Z M63.25,29.75 L63.5,30.75 C63.8666667,31.4166667 64.45,31.75 65.25,31.75 C65.85,31.75 66.3666667,31.4833333 66.8,30.95 L67.25,29.8 C67.25,28.5666667 66.5833333,27.9166667 65.25,27.85 C63.9166667,27.75 63.25,28.3833333 63.25,29.75 Z M57.75,27.4 C57.75,26.1 56.9666667,25.3333333 55.4,25.1 C53.8,24.8666667 53,25.4833333 53,26.95 L53.35,28.15 C53.8166667,29.05 54.6166667,29.5 55.75,29.5 C56.95,29.5 57.6166667,28.8 57.75,27.4 Z M41,41.75 C41.3666667,42.4166667 41.95,42.75 42.75,42.75 C43.35,42.75 43.8666667,42.4833333 44.3,41.95 C44.6,41.5166667 44.75,41.1333333 44.75,40.8 C44.75,39.5666667 44.0833333,38.9166667 42.75,38.85 C41.4166667,38.75 40.75,39.3833333 40.75,40.75 L41,41.75 Z M41.75,37.25 C42.35,37.25 42.8666667,36.9833333 43.3,36.45 C43.6,36.0166667 43.75,35.6333333 43.75,35.3 C43.75,34.0666667 43.0833333,33.4166667 41.75,33.35 C40.4166667,33.25 39.75,33.8833333 39.75,35.25 L40.05,36.25 C40.3833333,36.9166667 40.95,37.25 41.75,37.25 Z M30,41.3 C30,40.0666667 29.3333333,39.4166667 28,39.35 C26.6666667,39.25 26,39.8833333 26,41.25 L26.25,42.25 C26.6166667,42.9166667 27.2,43.25 28,43.25 C28.6,43.25 29.1166667,42.9833333 29.55,42.45 C29.85,42.0166667 30,41.6333333 30,41.3 Z M39.75,39.05 C39.75,37.6166667 39.0833333,36.9333333 37.75,37 C36.4166667,37.0333333 35.75,37.7 35.75,39 L36,40 C36.3666667,40.6666667 36.95,41 37.75,41 C38.35,41 38.8666667,40.7333333 39.3,40.2 C39.6,39.7666667 39.75,39.3833333 39.75,39.05 Z M38,44.3 C38,43.0666667 37.3333333,42.4166667 36,42.35 C34.6666667,42.25 34,42.8833333 34,44.25 L34.25,45.25 C34.6166667,45.9166667 35.2,46.25 36,46.25 C36.6,46.25 37.1166667,45.9833333 37.55,45.45 C37.85,45.0166667 38,44.6333333 38,44.3 Z M31.75,51.75 L32,52.75 C32.3666667,53.4166667 32.95,53.75 33.75,53.75 C34.35,53.75 34.8666667,53.4833333 35.3,52.95 C35.6,52.5166667 35.75,52.1333333 35.75,51.8 C35.75,50.5666667 35.0833333,49.9166667 33.75,49.85 C32.4166667,49.75 31.75,50.3833333 31.75,51.75 Z M30.5,55.35 C29.1666667,55.25 28.5,55.8833333 28.5,57.25 L28.8,58.25 C29.1333333,58.9166667 29.7,59.25 30.5,59.25 C31.1,59.25 31.6166667,58.9833333 32.05,58.45 C32.35,58.0166667 32.5,57.6333333 32.5,57.3 C32.5,56.0666667 31.8333333,55.4166667 30.5,55.35 Z M36.35,56.45 C36.9833333,57.3166667 38.2,57.75 40,57.75 C40.8333333,57.75 41.4833333,57.55 41.95,57.15 C42.3166667,56.7833333 42.5,56.3333333 42.5,55.8 C42.5,54.4666667 41.4166667,53.6166667 39.25,53.25 C37.0833333,52.9166667 36,53.5666667 36,55.2 L36.35,56.45 Z M43.5,47.6 C42.1666667,47.5 41.5,48.1333333 41.5,49.5 L41.75,50.5 C42.1166667,51.1666667 42.7,51.5 43.5,51.5 C44.1,51.5 44.6166667,51.2333333 45.05,50.7 L45.3,50.3 C45.6333333,50.9333333 46.2,51.25 47,51.25 C47.6,51.25 48.1166667,50.9833333 48.55,50.45 C48.85,50.0166667 49,49.6333333 49,49.3 C49,48.0666667 48.3333333,47.4166667 47,47.35 C46.0333333,47.2833333 45.4166667,47.6 45.15,48.3 C44.8166667,47.8666667 44.2666667,47.6333333 43.5,47.6 Z M46.75,56.5 L47,57.5 C47.3666667,58.1666667 47.95,58.5 48.75,58.5 C49.35,58.5 49.8666667,58.2333333 50.3,57.7 L50.75,56.55 C50.75,55.3166667 50.0833333,54.6666667 48.75,54.6 C47.4166667,54.5 46.75,55.1333333 46.75,56.5 Z M18,54.75 C18.3666667,55.4166667 18.95,55.75 19.75,55.75 C20.35,55.75 20.8666667,55.4833333 21.3,54.95 C21.6,54.5166667 21.75,54.1333333 21.75,53.8 C21.75,52.5666667 21.0833333,51.9166667 19.75,51.85 C18.4166667,51.75 17.75,52.3833333 17.75,53.75 L18,54.75 Z M28.7,49.35 C29.0666667,48.9833333 29.25,48.55 29.25,48.05 C29.25,46.6166667 28.5,45.9333333 27,46 C25.5,46.0333333 24.75,46.7 24.75,48 L25.05,49 C25.4166667,49.6666667 26.0666667,50 27,50 C27.7,50 28.2666667,49.7833333 28.7,49.35 Z M25.5,61.05 C25.5,59.8166667 24.8333333,59.1666667 23.5,59.1 C22.1666667,59 21.5,59.6333333 21.5,61 L21.75,62 C22.1166667,62.6666667 22.7,63 23.5,63 C24.1,63 24.6166667,62.7333333 25.05,62.2 C25.35,61.7666667 25.5,61.3833333 25.5,61.05 Z M16.75,64.55 C16.75,63.3166667 16.0833333,62.6666667 14.75,62.6 C13.4166667,62.5 12.75,63.1333333 12.75,64.5 L13.05,65.5 C13.3833333,66.1666667 13.95,66.5 14.75,66.5 C15.35,66.5 15.8666667,66.2333333 16.3,65.7 C16.6,65.2666667 16.75,64.8833333 16.75,64.55 Z M27.25,68.5 C27.85,68.5 28.35,68.2666667 28.75,67.8 C29.0833333,67.3666667 29.25,66.9166667 29.25,66.45 C29.25,65.15 28.55,64.4333333 27.15,64.3 C25.7166667,64.1666667 25,64.8166667 25,66.25 L25.3,67.4 C25.6666667,68.1333333 26.3166667,68.5 27.25,68.5 Z M16.25,73.6 C14.9166667,73.5333333 14.25,74.1833333 14.25,75.55 L14.45,76.6 C14.75,77.3666667 15.35,77.75 16.25,77.75 C16.85,77.75 17.35,77.5 17.75,77 C18.0833333,76.6 18.25,76.15 18.25,75.65 C18.25,74.35 17.5833333,73.6666667 16.25,73.6 Z M10.75,79.3 C10.75,78.0666667 10.0833333,77.4166667 8.75,77.35 C7.41666667,77.25 6.75,77.8833333 6.75,79.25 L7.05,80.25 C7.38333333,80.9166667 7.95,81.25 8.75,81.25 C9.35,81.25 9.86666667,80.9833333 10.3,80.45 C10.6,80.0166667 10.75,79.6333333 10.75,79.3 Z M11.5,71.8 C11.5,70.5666667 10.8333333,69.9166667 9.5,69.85 C8.16666667,69.75 7.5,70.3833333 7.5,71.75 L7.8,72.75 C8.13333333,73.4166667 8.7,73.75 9.5,73.75 C10.1,73.75 10.6166667,73.4833333 11.05,72.95 C11.35,72.5166667 11.5,72.1333333 11.5,71.8 Z M23.5,73.05 C23.5,71.8166667 22.8333333,71.1666667 21.5,71.1 C20.1666667,71 19.5,71.6333333 19.5,73 L19.8,74 C20.1333333,74.6666667 20.7,75 21.5,75 C22.1,75 22.6166667,74.7333333 23.05,74.2 C23.35,73.7666667 23.5,73.3833333 23.5,73.05 Z M42.05,67.95 L42.5,66.8 C42.5,65.5666667 41.8333333,64.9166667 40.5,64.85 C39.1666667,64.75 38.5,65.3833333 38.5,66.75 L38.75,67.75 C39.1166667,68.4166667 39.7,68.75 40.5,68.75 C41.1,68.75 41.6166667,68.4833333 42.05,67.95 Z M22.5,82.25 C22.8666667,82.9166667 23.45,83.25 24.25,83.25 C24.85,83.25 25.3666667,82.9833333 25.8,82.45 C26.1,82.0166667 26.25,81.6333333 26.25,81.3 C26.25,79.8666667 25.5833333,79.1833333 24.25,79.25 C22.9166667,79.2833333 22.25,79.95 22.25,81.25 L22.5,82.25 Z M47.55,72.5 C47.8833333,73.1666667 48.45,73.5 49.25,73.5 C49.85,73.5 50.3666667,73.2333333 50.8,72.7 L51.25,71.55 C51.25,70.3166667 50.5833333,69.6666667 49.25,69.6 C47.9166667,69.5 47.25,70.1333333 47.25,71.5 L47.55,72.5 Z M37.3,81.75 C37.6666667,82.4166667 38.3166667,82.75 39.25,82.75 C39.95,82.75 40.5166667,82.55 40.95,82.15 C41.3166667,81.7833333 41.5,81.3333333 41.5,80.8 C41.5,79.3666667 40.75,78.6833333 39.25,78.75 C37.75,78.7833333 37,79.45 37,80.75 L37.3,81.75 Z M31.9,76.8 C29.9666667,77.1666667 29,77.9833333 29,79.25 L29.25,80.25 C29.6166667,80.9166667 30.2333333,81.25 31.1,81.25 C32.3333333,81.25 33.3,80.9166667 34,80.25 C34.5,79.7833333 34.75,79.3 34.75,78.8 C34.75,77.1 33.8,76.4333333 31.9,76.8 Z M34.5,67.75 C33.1666667,67.7833333 32.5,68.45 32.5,69.75 L32.75,70.75 C33.1166667,71.4166667 33.7,71.75 34.5,71.75 C35.1,71.75 35.6166667,71.4833333 36.05,70.95 C36.35,70.5166667 36.5,70.1333333 36.5,69.8 C36.5,68.3666667 35.8333333,67.6833333 34.5,67.75 Z M34.25,63.25 L34.5,64.25 C34.8666667,64.9166667 35.45,65.25 36.25,65.25 C36.85,65.25 37.3666667,64.9833333 37.8,64.45 C38.1,64.0166667 38.25,63.6333333 38.25,63.3 C38.25,62.0666667 37.5833333,61.4166667 36.25,61.35 C34.9166667,61.25 34.25,61.8833333 34.25,63.25 Z M48.75,63.5 C49.1166667,64.1666667 49.7,64.5 50.5,64.5 C51.1,64.5 51.6166667,64.2333333 52.05,63.7 L52.5,62.55 C52.5,61.3166667 51.8333333,60.6666667 50.5,60.6 C49.1666667,60.5 48.5,61.1333333 48.5,62.5 L48.75,63.5 Z M48,78.25 C48.3666667,78.9166667 48.95,79.25 49.75,79.25 C50.35,79.25 50.8666667,78.9833333 51.3,78.45 L51.75,77.3 C51.75,76.0666667 51.0833333,75.4166667 49.75,75.35 C48.4166667,75.25 47.75,75.8833333 47.75,77.25 L48,78.25 Z M44,75.15 C44,73.85 43.3333333,73.1666667 42,73.1 C40.6666667,73.0333333 40,73.6833333 40,75.05 L40.2,76.15 C40.5,76.8833333 41.1,77.25 42,77.25 C42.6,77.25 43.1,77 43.5,76.5 C43.8333333,76.1 44,75.65 44,75.15 Z M43.25,86.25 C43.6166667,86.9166667 44.2,87.25 45,87.25 C45.6,87.25 46.1166667,86.9833333 46.55,86.45 C46.85,86.0166667 47,85.6333333 47,85.3 C47,84.0666667 46.3333333,83.4166667 45,83.35 C43.6666667,83.25 43,83.8833333 43,85.25 L43.25,86.25 Z M31,85.4 C31,84.1 30.3333333,83.4166667 29,83.35 C27.6666667,83.2833333 27,83.9333333 27,85.3 L27.2,86.35 C27.5,87.1166667 28.1,87.5 29,87.5 C29.6,87.5 30.1,87.25 30.5,86.75 C30.8333333,86.35 31,85.9 31,85.4 Z M12.5,86.75 C12.9333333,87.4166667 13.7666667,87.75 15,87.75 C16.8333333,87.75 17.75,87.1 17.75,85.8 C17.75,84.2333333 16.8333333,83.4833333 15,83.55 C13.1666667,83.65 12.25,84.3833333 12.25,85.75 L12.5,86.75 Z M62.5,35.05 C62.5,33.8166667 61.8333333,33.1666667 60.5,33.1 C59.1666667,33 58.5,33.6333333 58.5,35 L58.8,36 C59.1333333,36.6666667 59.7,37 60.5,37 C61.1,37 61.6166667,36.7333333 62.05,36.2 L62.5,35.05 Z M53.25,38.05 C53.25,36.6166667 52.5833333,35.9333333 51.25,36 C49.9166667,36.0333333 49.25,36.7 49.25,38 L49.5,39 C49.8666667,39.6666667 50.45,40 51.25,40 C51.85,40 52.3666667,39.7333333 52.8,39.2 L53.25,38.05 Z M60.25,43.35 C58.9166667,43.25 58.25,43.8833333 58.25,45.25 L58.5,46.25 C58.8666667,46.9166667 59.45,47.25 60.25,47.25 C60.85,47.25 61.3666667,46.9833333 61.8,46.45 L62.25,45.3 C62.25,44.0666667 61.5833333,43.4166667 60.25,43.35 Z M66.75,64.05 L66.95,65.15 C67.25,65.8833333 67.85,66.25 68.75,66.25 C69.35,66.25 69.85,66.0166667 70.25,65.55 C70.5833333,65.1166667 70.75,64.65 70.75,64.15 C70.75,62.85 70.0833333,62.1666667 68.75,62.1 C67.4166667,62.0333333 66.75,62.6833333 66.75,64.05 Z M68,50.05 C68,48.8166667 67.3333333,48.1666667 66,48.1 C64.6666667,48 64,48.6333333 64,50 L64.25,51 C64.6166667,51.6666667 65.2,52 66,52 C66.6,52 67.1166667,51.7333333 67.55,51.2 L68,50.05 Z M57.5,54.25 C58.1,54.25 58.6166667,53.9833333 59.05,53.45 L59.5,52.3 C59.5,51.0666667 58.8333333,50.4166667 57.5,50.35 C56.1666667,50.25 55.5,50.8833333 55.5,52.25 L55.8,53.25 C56.1333333,53.9166667 56.7,54.25 57.5,54.25 Z M56.25,48.3 C56.25,47.0666667 55.5833333,46.4166667 54.25,46.35 C52.9166667,46.25 52.25,46.8833333 52.25,48.25 L52.5,49.25 C52.8666667,49.9166667 53.45,50.25 54.25,50.25 C54.85,50.25 55.3666667,49.9833333 55.8,49.45 L56.25,48.3 Z M62.25,68.8 C62.25,67.5666667 61.5833333,66.9166667 60.25,66.85 C58.9166667,66.75 58.25,67.3833333 58.25,68.75 L58.5,69.75 C58.8666667,70.4166667 59.45,70.75 60.25,70.75 C60.85,70.75 61.3666667,70.4833333 61.8,69.95 L62.25,68.8 Z M61.75,61.5 C62.35,61.5 62.8666667,61.2333333 63.3,60.7 L63.75,59.55 C63.75,58.3166667 63.0833333,57.6666667 61.75,57.6 C60.4166667,57.5 59.75,58.1333333 59.75,59.5 L60,60.5 C60.3666667,61.1666667 60.95,61.5 61.75,61.5 Z M57.8,74.7 L58.25,73.55 C58.25,72.3166667 57.5833333,71.6666667 56.25,71.6 C54.9166667,71.5 54.25,72.1333333 54.25,73.5 L54.5,74.5 C54.8666667,75.1666667 55.45,75.5 56.25,75.5 C56.85,75.5 57.3666667,75.2333333 57.8,74.7 Z M59.05,63.2 L59.5,62.05 C59.5,60.8166667 58.8333333,60.1666667 57.5,60.1 C56.1666667,60 55.5,60.6333333 55.5,62 L55.8,63 C56.1333333,63.6666667 56.7,64 57.5,64 C58.1,64 58.6166667,63.7333333 59.05,63.2 Z M59,80.25 C59.3666667,80.9166667 59.95,81.25 60.75,81.25 C61.35,81.25 61.8666667,80.9833333 62.3,80.45 L62.75,79.3 C62.75,78.0666667 62.0833333,77.4166667 60.75,77.35 C59.4166667,77.25 58.75,77.8833333 58.75,79.25 L59,80.25 Z M53.25,84.55 C53.25,83.1166667 52.5833333,82.4333333 51.25,82.5 C49.9166667,82.5333333 49.25,83.2 49.25,84.5 L49.5,85.5 C49.8666667,86.1666667 50.45,86.5 51.25,86.5 C51.85,86.5 52.3666667,86.2333333 52.8,85.7 L53.25,84.55 Z M58.55,84.95 L59,83.8 C59,82.5666667 58.3333333,81.9166667 57,81.85 C55.6666667,81.75 55,82.3833333 55,83.75 L55.25,84.75 C55.6166667,85.4166667 56.2,85.75 57,85.75 C57.6,85.75 58.1166667,85.4833333 58.55,84.95 Z" id="Shape" fill="#FFCC66" fill-rule="nonzero"></path>
                    <path d="M48.95,28.55 L49,29.05 C49,29.3833333 48.85,29.7666667 48.55,30.2 C48.1166667,30.7333333 47.6,31 47,31 C46.2,31 45.6333333,30.6666667 45.3,30 C46.5333333,29.5666667 47.75,29.0833333 48.95,28.55 M32.5,32.45 L32.5,32.55 C32.5,32.8833333 32.35,33.2666667 32.05,33.7 C31.6166667,34.2333333 31.1,34.5 30.5,34.5 C29.7333333,34.5 29.1833333,34.2 28.85,33.6 L29.85,33.1 L32.5,32.45 M0.75,83.85 C1.05,83.65 1.46666667,83.5666667 2,83.6 C3.33333333,83.6666667 4,84.3166667 4,85.55 C4,85.8833333 3.85,86.2666667 3.55,86.7 C3.11666667,87.2333333 2.6,87.5 2,87.5 C1.46666667,87.5 1.03333333,87.35 0.7,87.05 L0.3,86.5 L0,85.5 C0,84.6666667 0.25,84.1166667 0.75,83.85 L0.6,84.95 L0.7,87.05 L0.6,84.95 L0.75,83.85 M70.95,84.35 C70.55,84.7833333 70.0166667,85 69.35,85 C68.4833333,85 67.8666667,84.6666667 67.5,84 L67.25,83 C67.25,81.5666667 67.9666667,80.8 69.4,80.7 C70.1,80.6666667 70.6166667,80.8333333 70.95,81.2 L70.95,84.35 M70.95,42.25 L70.75,42.25 C69.95,42.25 69.3666667,41.9166667 69,41.25 L68.75,40.25 C68.75,38.8833333 69.4166667,38.25 70.75,38.35 L70.95,38.4 L70.95,42.25 M70.95,11.5 L70.75,11.5 C69.95,11.5 69.3666667,11.1666667 69,10.5 L68.75,9.5 C68.75,8.13333333 69.4166667,7.5 70.75,7.6 L70.95,7.65 L70.95,11.5 M62.75,17.1 C64.0833333,17.1666667 64.75,17.85 64.75,19.15 C64.75,19.65 64.5833333,20.1166667 64.25,20.55 C63.85,21.0166667 63.35,21.25 62.75,21.25 C61.85,21.25 61.25,20.8833333 60.95,20.15 L60.75,19.05 C60.75,17.6833333 61.4166667,17.0333333 62.75,17.1 M55.75,29.5 C54.6166667,29.5 53.8166667,29.05 53.35,28.15 L53,26.95 C53,25.4833333 53.8,24.8666667 55.4,25.1 C56.9666667,25.3333333 57.75,26.1 57.75,27.4 C57.6166667,28.8 56.95,29.5 55.75,29.5 M65.25,27.85 C66.5833333,27.9166667 67.25,28.5666667 67.25,29.8 L66.8,30.95 C66.3666667,31.4833333 65.85,31.75 65.25,31.75 C64.45,31.75 63.8666667,31.4166667 63.5,30.75 L63.25,29.75 C63.25,28.3833333 63.9166667,27.75 65.25,27.85 M39.3,40.2 C38.8666667,40.7333333 38.35,41 37.75,41 C36.95,41 36.3666667,40.6666667 36,40 L35.75,39 C35.75,37.7 36.4166667,37.0333333 37.75,37 C39.0833333,36.9333333 39.75,37.6166667 39.75,39.05 C39.75,39.3833333 39.6,39.7666667 39.3,40.2 M29.55,42.45 C29.1166667,42.9833333 28.6,43.25 28,43.25 C27.2,43.25 26.6166667,42.9166667 26.25,42.25 L26,41.25 C26,39.8833333 26.6666667,39.25 28,39.35 C29.3333333,39.4166667 30,40.0666667 30,41.3 C30,41.6333333 29.85,42.0166667 29.55,42.45 M33.75,49.85 C35.0833333,49.9166667 35.75,50.5666667 35.75,51.8 C35.75,52.1333333 35.6,52.5166667 35.3,52.95 C34.8666667,53.4833333 34.35,53.75 33.75,53.75 C32.95,53.75 32.3666667,53.4166667 32,52.75 L31.75,51.75 C31.75,50.3833333 32.4166667,49.75 33.75,49.85 M45.3,50.3 L45.5,49.55 C45.5,49.0166667 45.3833333,48.6 45.15,48.3 C45.4166667,47.6 46.0333333,47.2833333 47,47.35 C48.3333333,47.4166667 49,48.0666667 49,49.3 C49,49.6333333 48.85,50.0166667 48.55,50.45 C48.1166667,50.9833333 47.6,51.25 47,51.25 C46.2,51.25 45.6333333,50.9333333 45.3,50.3 M17.75,53.75 C17.75,52.3833333 18.4166667,51.75 19.75,51.85 C21.0833333,51.9166667 21.75,52.5666667 21.75,53.8 C21.75,54.1333333 21.6,54.5166667 21.3,54.95 C20.8666667,55.4833333 20.35,55.75 19.75,55.75 C18.95,55.75 18.3666667,55.4166667 18,54.75 L17.75,53.75 M25.05,62.2 C24.6166667,62.7333333 24.1,63 23.5,63 C22.7,63 22.1166667,62.6666667 21.75,62 L21.5,61 C21.5,59.6333333 22.1666667,59 23.5,59.1 C24.8333333,59.1666667 25.5,59.8166667 25.5,61.05 C25.5,61.3833333 25.35,61.7666667 25.05,62.2 M18.25,75.65 C18.25,76.15 18.0833333,76.6 17.75,77 C17.35,77.5 16.85,77.75 16.25,77.75 C15.35,77.75 14.75,77.3666667 14.45,76.6 L14.25,75.55 C14.25,74.1833333 14.9166667,73.5333333 16.25,73.6 C17.5833333,73.6666667 18.25,74.35 18.25,75.65 M23.05,74.2 C22.6166667,74.7333333 22.1,75 21.5,75 C20.7,75 20.1333333,74.6666667 19.8,74 L19.5,73 C19.5,71.6333333 20.1666667,71 21.5,71.1 C22.8333333,71.1666667 23.5,71.8166667 23.5,73.05 C23.5,73.3833333 23.35,73.7666667 23.05,74.2 M48.5,62.5 C48.5,61.1333333 49.1666667,60.5 50.5,60.6 C51.8333333,60.6666667 52.5,61.3166667 52.5,62.55 L52.05,63.7 C51.6166667,64.2333333 51.1,64.5 50.5,64.5 C49.7,64.5 49.1166667,64.1666667 48.75,63.5 L48.5,62.5 M36.25,61.35 C37.5833333,61.4166667 38.25,62.0666667 38.25,63.3 C38.25,63.6333333 38.1,64.0166667 37.8,64.45 C37.3666667,64.9833333 36.85,65.25 36.25,65.25 C35.45,65.25 34.8666667,64.9166667 34.5,64.25 L34.25,63.25 C34.25,61.8833333 34.9166667,61.25 36.25,61.35 M36.5,69.8 C36.5,70.1333333 36.35,70.5166667 36.05,70.95 C35.6166667,71.4833333 35.1,71.75 34.5,71.75 C33.7,71.75 33.1166667,71.4166667 32.75,70.75 L32.5,69.75 C32.5,68.45 33.1666667,67.7833333 34.5,67.75 C35.8333333,67.6833333 36.5,68.3666667 36.5,69.8 M34.75,78.8 C34.75,79.3 34.5,79.7833333 34,80.25 C33.3,80.9166667 32.3333333,81.25 31.1,81.25 C30.2333333,81.25 29.6166667,80.9166667 29.25,80.25 L29,79.25 C29,77.9833333 29.9666667,77.1666667 31.9,76.8 C33.8,76.4333333 34.75,77.1 34.75,78.8 M37,80.75 C37,79.45 37.75,78.7833333 39.25,78.75 C40.75,78.6833333 41.5,79.3666667 41.5,80.8 C41.5,81.3333333 41.3166667,81.7833333 40.95,82.15 C40.5166667,82.55 39.95,82.75 39.25,82.75 C38.3166667,82.75 37.6666667,82.4166667 37.3,81.75 L37,80.75 M47.25,71.5 C47.25,70.1333333 47.9166667,69.5 49.25,69.6 C50.5833333,69.6666667 51.25,70.3166667 51.25,71.55 L50.8,72.7 C50.3666667,73.2333333 49.85,73.5 49.25,73.5 C48.45,73.5 47.8833333,73.1666667 47.55,72.5 L47.25,71.5 M12.25,85.75 C12.25,84.3833333 13.1666667,83.65 15,83.55 C16.8333333,83.4833333 17.75,84.2333333 17.75,85.8 C17.75,87.1 16.8333333,87.75 15,87.75 C13.7666667,87.75 12.9333333,87.4166667 12.5,86.75 L12.25,85.75 M62.25,45.3 L61.8,46.45 C61.3666667,46.9833333 60.85,47.25 60.25,47.25 C59.45,47.25 58.8666667,46.9166667 58.5,46.25 L58.25,45.25 C58.25,43.8833333 58.9166667,43.25 60.25,43.35 C61.5833333,43.4166667 62.25,44.0666667 62.25,45.3 M52.8,39.2 C52.3666667,39.7333333 51.85,40 51.25,40 C50.45,40 49.8666667,39.6666667 49.5,39 L49.25,38 C49.25,36.7 49.9166667,36.0333333 51.25,36 C52.5833333,35.9333333 53.25,36.6166667 53.25,38.05 L52.8,39.2 M60,60.5 L59.75,59.5 C59.75,58.1333333 60.4166667,57.5 61.75,57.6 C63.0833333,57.6666667 63.75,58.3166667 63.75,59.55 L63.3,60.7 C62.8666667,61.2333333 62.35,61.5 61.75,61.5 C60.95,61.5 60.3666667,61.1666667 60,60.5 M61.8,69.95 C61.3666667,70.4833333 60.85,70.75 60.25,70.75 C59.45,70.75 58.8666667,70.4166667 58.5,69.75 L58.25,68.75 C58.25,67.3833333 58.9166667,66.75 60.25,66.85 C61.5833333,66.9166667 62.25,67.5666667 62.25,68.8 L61.8,69.95 M58.75,79.25 C58.75,77.8833333 59.4166667,77.25 60.75,77.35 C62.0833333,77.4166667 62.75,78.0666667 62.75,79.3 L62.3,80.45 C61.8666667,80.9833333 61.35,81.25 60.75,81.25 C59.95,81.25 59.3666667,80.9166667 59,80.25 L58.75,79.25 M52.8,85.7 C52.3666667,86.2333333 51.85,86.5 51.25,86.5 C50.45,86.5 49.8666667,86.1666667 49.5,85.5 L49.25,84.5 C49.25,83.2 49.9166667,82.5333333 51.25,82.5 C52.5833333,82.4333333 53.25,83.1166667 53.25,84.55 L52.8,85.7" id="Shape" fill="#CC9966" fill-rule="nonzero"></path>
                    <path d="M38.75,31.5 C38.6833333,31.8 38.5333333,32.1166667 38.3,32.45 C37.8666667,32.9833333 37.35,33.25 36.75,33.25 C35.95,33.25 35.3666667,32.9166667 35,32.25 L34.95,32 L38.4,31.55 L38.75,31.5 M24.95,38.65 L25,39.3 C25,39.6333333 24.85,40.0166667 24.55,40.45 L23.85,41.05 L24.95,38.65 M70.95,76.9 C70.1833333,76.7666667 69.6333333,76.4666667 69.3,76 L69,75 C69,73.9 69.65,73.1833333 70.95,72.85 L70.95,76.9 M70.95,24.7 L70.5,24.75 C69.7,24.75 69.1166667,24.4166667 68.75,23.75 L68.5,22.75 C68.5,21.3833333 69.1666667,20.75 70.5,20.85 L70.95,20.9 L70.95,24.7 M56.2,0.1 L56.2,5.55111512e-17 L56.45,5.55111512e-17 L56.2,0.1 M62.25,13.25 C61.45,13.25 60.8666667,12.9166667 60.5,12.25 L60.25,11.25 C60.25,9.88333333 60.9166667,9.25 62.25,9.35 C63.5833333,9.41666667 64.25,10.0666667 64.25,11.3 L63.8,12.45 C63.3666667,12.9833333 62.85,13.25 62.25,13.25 M57.5,23 C56.7,23 56.1333333,22.6666667 55.8,22 L55.5,21 C55.5,19.6333333 56.1666667,19 57.5,19.1 C58.8333333,19.1666667 59.5,19.8166667 59.5,21.05 L59.05,22.2 C58.6166667,22.7333333 58.1,23 57.5,23 M25.75,27.5 C25.1833333,27.5 24.7333333,27.3333333 24.4,27 L27.05,27 C26.65,27.3333333 26.2166667,27.5 25.75,27.5 M40.05,36.25 L39.75,35.25 C39.75,33.8833333 40.4166667,33.25 41.75,33.35 C43.0833333,33.4166667 43.75,34.0666667 43.75,35.3 C43.75,35.6333333 43.6,36.0166667 43.3,36.45 C42.8666667,36.9833333 42.35,37.25 41.75,37.25 C40.95,37.25 40.3833333,36.9166667 40.05,36.25 M40.75,40.75 C40.75,39.3833333 41.4166667,38.75 42.75,38.85 C44.0833333,38.9166667 44.75,39.5666667 44.75,40.8 C44.75,41.1333333 44.6,41.5166667 44.3,41.95 C43.8666667,42.4833333 43.35,42.75 42.75,42.75 C41.95,42.75 41.3666667,42.4166667 41,41.75 L40.75,40.75 M37.55,45.45 C37.1166667,45.9833333 36.6,46.25 36,46.25 C35.2,46.25 34.6166667,45.9166667 34.25,45.25 L34,44.25 C34,42.8833333 34.6666667,42.25 36,42.35 C37.3333333,42.4166667 38,43.0666667 38,44.3 C38,44.6333333 37.85,45.0166667 37.55,45.45 M36,55.2 C36,53.5666667 37.0833333,52.9166667 39.25,53.25 C41.4166667,53.6166667 42.5,54.4666667 42.5,55.8 C42.5,56.3333333 42.3166667,56.7833333 41.95,57.15 C41.4833333,57.55 40.8333333,57.75 40,57.75 C38.2,57.75 36.9833333,57.3166667 36.35,56.45 L36,55.2 M32.5,57.3 C32.5,57.6333333 32.35,58.0166667 32.05,58.45 C31.6166667,58.9833333 31.1,59.25 30.5,59.25 C29.7,59.25 29.1333333,58.9166667 28.8,58.25 L28.5,57.25 C28.5,55.8833333 29.1666667,55.25 30.5,55.35 C31.8333333,55.4166667 32.5,56.0666667 32.5,57.3 M45.15,48.3 C45.3833333,48.6 45.5,49.0166667 45.5,49.55 L45.3,50.3 L45.05,50.7 C44.6166667,51.2333333 44.1,51.5 43.5,51.5 C42.7,51.5 42.1166667,51.1666667 41.75,50.5 L41.5,49.5 C41.5,48.1333333 42.1666667,47.5 43.5,47.6 C44.2666667,47.6333333 44.8166667,47.8666667 45.15,48.3 M48.75,54.6 C50.0833333,54.6666667 50.75,55.3166667 50.75,56.55 L50.3,57.7 C49.8666667,58.2333333 49.35,58.5 48.75,58.5 C47.95,58.5 47.3666667,58.1666667 47,57.5 L46.75,56.5 C46.75,55.1333333 47.4166667,54.5 48.75,54.6 M27,50 C26.0666667,50 25.4166667,49.6666667 25.05,49 L24.75,48 C24.75,46.7 25.5,46.0333333 27,46 C28.5,45.9333333 29.25,46.6166667 29.25,48.05 C29.25,48.55 29.0666667,48.9833333 28.7,49.35 C28.2666667,49.7833333 27.7,50 27,50 M25.3,67.4 L25,66.25 C25,64.8166667 25.7166667,64.1666667 27.15,64.3 C28.55,64.4333333 29.25,65.15 29.25,66.45 C29.25,66.9166667 29.0833333,67.3666667 28.75,67.8 C28.35,68.2666667 27.85,68.5 27.25,68.5 C26.3166667,68.5 25.6666667,68.1333333 25.3,67.4 M16.3,65.7 C15.8666667,66.2333333 15.35,66.5 14.75,66.5 C13.95,66.5 13.3833333,66.1666667 13.05,65.5 L12.75,64.5 C12.75,63.1333333 13.4166667,62.5 14.75,62.6 C16.0833333,62.6666667 16.75,63.3166667 16.75,64.55 C16.75,64.8833333 16.6,65.2666667 16.3,65.7 M11.05,72.95 C10.6166667,73.4833333 10.1,73.75 9.5,73.75 C8.7,73.75 8.13333333,73.4166667 7.8,72.75 L7.5,71.75 C7.5,70.3833333 8.16666667,69.75 9.5,69.85 C10.8333333,69.9166667 11.5,70.5666667 11.5,71.8 C11.5,72.1333333 11.35,72.5166667 11.05,72.95 M10.3,80.45 C9.86666667,80.9833333 9.35,81.25 8.75,81.25 C7.95,81.25 7.38333333,80.9166667 7.05,80.25 L6.75,79.25 C6.75,77.8833333 7.41666667,77.25 8.75,77.35 C10.0833333,77.4166667 10.75,78.0666667 10.75,79.3 C10.75,79.6333333 10.6,80.0166667 10.3,80.45 M22.25,81.25 C22.25,79.95 22.9166667,79.2833333 24.25,79.25 C25.5833333,79.1833333 26.25,79.8666667 26.25,81.3 C26.25,81.6333333 26.1,82.0166667 25.8,82.45 C25.3666667,82.9833333 24.85,83.25 24.25,83.25 C23.45,83.25 22.8666667,82.9166667 22.5,82.25 L22.25,81.25 M40.5,68.75 C39.7,68.75 39.1166667,68.4166667 38.75,67.75 L38.5,66.75 C38.5,65.3833333 39.1666667,64.75 40.5,64.85 C41.8333333,64.9166667 42.5,65.5666667 42.5,66.8 L42.05,67.95 C41.6166667,68.4833333 41.1,68.75 40.5,68.75 M43.5,76.5 C43.1,77 42.6,77.25 42,77.25 C41.1,77.25 40.5,76.8833333 40.2,76.15 L40,75.05 C40,73.6833333 40.6666667,73.0333333 42,73.1 C43.3333333,73.1666667 44,73.85 44,75.15 C44,75.65 43.8333333,76.1 43.5,76.5 M47.75,77.25 C47.75,75.8833333 48.4166667,75.25 49.75,75.35 C51.0833333,75.4166667 51.75,76.0666667 51.75,77.3 L51.3,78.45 C50.8666667,78.9833333 50.35,79.25 49.75,79.25 C48.95,79.25 48.3666667,78.9166667 48,78.25 L47.75,77.25 M30.5,86.75 C30.1,87.25 29.6,87.5 29,87.5 C28.1,87.5 27.5,87.1166667 27.2,86.35 L27,85.3 C27,83.9333333 27.6666667,83.2833333 29,83.35 C30.3333333,83.4166667 31,84.1 31,85.4 C31,85.9 30.8333333,86.35 30.5,86.75 M43,85.25 C43,83.8833333 43.6666667,83.25 45,83.35 C46.3333333,83.4166667 47,84.0666667 47,85.3 C47,85.6333333 46.85,86.0166667 46.55,86.45 C46.1166667,86.9833333 45.6,87.25 45,87.25 C44.2,87.25 43.6166667,86.9166667 43.25,86.25 L43,85.25 M62.05,36.2 C61.6166667,36.7333333 61.1,37 60.5,37 C59.7,37 59.1333333,36.6666667 58.8,36 L58.5,35 C58.5,33.6333333 59.1666667,33 60.5,33.1 C61.8333333,33.1666667 62.5,33.8166667 62.5,35.05 L62.05,36.2 M55.8,49.45 C55.3666667,49.9833333 54.85,50.25 54.25,50.25 C53.45,50.25 52.8666667,49.9166667 52.5,49.25 L52.25,48.25 C52.25,46.8833333 52.9166667,46.25 54.25,46.35 C55.5833333,46.4166667 56.25,47.0666667 56.25,48.3 L55.8,49.45 M55.8,53.25 L55.5,52.25 C55.5,50.8833333 56.1666667,50.25 57.5,50.35 C58.8333333,50.4166667 59.5,51.0666667 59.5,52.3 L59.05,53.45 C58.6166667,53.9833333 58.1,54.25 57.5,54.25 C56.7,54.25 56.1333333,53.9166667 55.8,53.25 M67.55,51.2 C67.1166667,51.7333333 66.6,52 66,52 C65.2,52 64.6166667,51.6666667 64.25,51 L64,50 C64,48.6333333 64.6666667,48 66,48.1 C67.3333333,48.1666667 68,48.8166667 68,50.05 L67.55,51.2 M68.75,62.1 C70.0833333,62.1666667 70.75,62.85 70.75,64.15 C70.75,64.65 70.5833333,65.1166667 70.25,65.55 C69.85,66.0166667 69.35,66.25 68.75,66.25 C67.85,66.25 67.25,65.8833333 66.95,65.15 L66.75,64.05 C66.75,62.6833333 67.4166667,62.0333333 68.75,62.1 M57.5,64 C56.7,64 56.1333333,63.6666667 55.8,63 L55.5,62 C55.5,60.6333333 56.1666667,60 57.5,60.1 C58.8333333,60.1666667 59.5,60.8166667 59.5,62.05 L59.05,63.2 C58.6166667,63.7333333 58.1,64 57.5,64 M56.25,75.5 C55.45,75.5 54.8666667,75.1666667 54.5,74.5 L54.25,73.5 C54.25,72.1333333 54.9166667,71.5 56.25,71.6 C57.5833333,71.6666667 58.25,72.3166667 58.25,73.55 L57.8,74.7 C57.3666667,75.2333333 56.85,75.5 56.25,75.5 M57,85.75 C56.2,85.75 55.6166667,85.4166667 55.25,84.75 L55,83.75 C55,82.3833333 55.6666667,81.75 57,81.85 C58.3333333,81.9166667 59,82.5666667 59,83.8 L58.55,84.95 C58.1166667,85.4833333 57.6,85.75 57,85.75" id="Shape" fill="#FFFF66" fill-rule="nonzero"></path>
                    <path d="M70.95,5.25 C63.4833333,7.15 59.0333333,9.43333333 57.6,12.1 C56.0666667,14.8666667 54.3,18.6 52.3,23.3 C50.9666667,26.4 49.9833333,28.0833333 49.35,28.35 L48.95,28.55 C47.75,29.0833333 46.5333333,29.5666667 45.3,30 C43.1666667,30.7333333 40.9833333,31.2333333 38.75,31.5 L38.4,31.55 L34.95,32 L32.5,32.45 L29.85,33.1 L28.85,33.6 C27.4833333,34.5 26.2,36.1333333 25,38.5 L24.95,38.65 L23.85,41.05 L22.6,44.35 C21.4666667,47.1166667 20.4333333,48.9833333 19.5,49.95 C18.0333333,51.55 16.7333333,53.2666667 15.6,55.1 C6.53333333,70.0333333 1.58333333,79.6166667 0.75,83.85 L0.6,84.95 L0.7,87.05 L0.85,89.6 C2.58333333,90.3 3.68333333,90.8166667 4.15,91.15 L6.1,92.5 L70.95,92.5 M70.95,5.25 L73.6,4.6" id="Shape" stroke="#000000" stroke-width="2" stroke-linecap="round" stroke-linejoin="round"></path>
                </g>
            </g>
        </g>
    </g>
</svg>