<?xml version="1.0" encoding="UTF-8"?>
<svg width="828px" height="401px" viewBox="0 0 828 401" version="1.1" xmlns="http://www.w3.org/2000/svg" xmlns:xlink="http://www.w3.org/1999/xlink">
    <title>358</title>
    <g id="Page-1" stroke="none" stroke-width="1" fill="none" fill-rule="evenodd">
        <g id="358" transform="translate(0.5, 0)">
            <path d="M826.6,100.05 L646.6,100.05 L646.6,0.05 L826.6,0.05 L826.6,100.05 M636.5,0 L636.5,100 L206.5,100 L206.5,0 L636.5,0 M826.5,240 L516.5,240 L516.5,110 L826.5,110 L826.5,240 M506.5,110 L506.5,240 L206.5,240 L206.5,110 L506.5,110 M506.5,250 L506.5,400 L206.5,400 L206.5,250 L506.5,250 M517.45,400.05 L517.45,250 L665.45,250 L665.45,400.05 L517.45,400.05" id="Shape" fill-opacity="0.45490196" fill="#000000"></path>
            <path d="M677.5,250 L826.45,250 L826.45,317.5 L677.5,317.5 L677.5,250 M825.45,330 L825.45,399 L676.5,399 L676.5,330 L825.45,330" id="Shape" fill-opacity="0.4862745" fill="#000000"></path>
            <path d="M51.5,150 C40.4666667,150 31.0333333,146.083333 23.2,138.25 C15.4,130.45 11.5,121.033333 11.5,110 L1.5,100 L71.5,100 L71.5,80 C71.5,78.4666667 71.8,77.0666667 72.4,75.8 C72.8666667,74.7333333 73.5333333,73.7666667 74.4,72.9 C76.3666667,70.9666667 78.7333333,70 81.5,70 C84.2666667,70 86.6166667,70.9666667 88.55,72.9 C90.5166667,74.8666667 91.5,77.2333333 91.5,80 L111.5,90 L91.5,100 L91.5,110 C91.5,121.033333 87.5833333,130.45 79.75,138.25 C71.95,146.083333 62.5333333,150 51.5,150 L51.5,170 L71.5,170" id="Path" stroke-opacity="0" stroke="#FFFFFF" stroke-width="3" stroke-linecap="round" stroke-linejoin="round"></path>
        </g>
    </g>
</svg>