<?xml version="1.0" encoding="UTF-8"?>
<svg width="52px" height="61px" viewBox="0 0 52 61" version="1.1" xmlns="http://www.w3.org/2000/svg" xmlns:xlink="http://www.w3.org/1999/xlink">
    <title>371</title>
    <g id="Page-1" stroke="none" stroke-width="1" fill="none" fill-rule="evenodd">
        <g id="371" transform="translate(0, 0.335)">
            <path d="M8.45,59.3150391 L8.75,57.8150391 C9.45,54.6817057 11.0166667,51.8983724 13.45,49.4650391 L14,48.9150391 C13.5333333,47.4817057 13.3,45.9483724 13.3,44.3150391 C13.3,40.1817057 14.7666667,36.6483724 17.7,33.7150391 C20.6333333,30.7817057 24.1666667,29.3150391 28.3,29.3150391 C32.4666667,29.3150391 36,30.7817057 38.9,33.7150391 C41.2,36.0150391 42.6,38.6817057 43.1,41.7150391 L43.3,44.3150391 L43.15,46.6150391 C42.85,48.8483724 42.0666667,50.8817057 40.8,52.7150391 C41.7666667,54.2817057 42.4666667,55.9817057 42.9,57.8150391 L43.15,59.3150391 L8.45,59.3150391" id="Path" fill="#FFFF00"></path>
            <path d="M8.45,59.3150391 L8.75,57.8150391 C9.45,54.6817057 11.0166667,51.8983724 13.45,49.4650391 L14,48.9150391 C13.5333333,47.4817057 13.3,45.9483724 13.3,44.3150391 C13.3,40.1817057 14.7666667,36.6483724 17.7,33.7150391 C20.6333333,30.7817057 24.1666667,29.3150391 28.3,29.3150391 C32.4666667,29.3150391 36,30.7817057 38.9,33.7150391 C41.2,36.0150391 42.6,38.6817057 43.1,41.7150391 L43.3,44.3150391 L43.15,46.6150391 C42.85,48.8483724 42.0666667,50.8817057 40.8,52.7150391 C41.7666667,54.2817057 42.4666667,55.9817057 42.9,57.8150391 L43.15,59.3150391" id="Path" stroke="#000000" stroke-width="2" stroke-linecap="round" stroke-linejoin="round"></path>
            <polyline id="Path" fill="#FFCC00" points="48.3 44.3150391 43.3 44.3150391 48.3 44.3150391 43.15 46.6150391 43.3 44.3150391 43.1 41.7150391 48.3 44.3150391"></polyline>
            <path d="M34.5,34.4650391 L34.8,34.5650391 L35,34.6650391 L35.05,34.6650391 L35.6,34.9150391 C34.7333333,35.0483724 33.9666667,35.4483724 33.3,36.1150391 C32.4,37.0150391 31.9666667,38.0817057 32,39.3150391 C32,40.5817057 32.4333333,41.6483724 33.3,42.5150391 C33.9666667,43.1817057 34.75,43.5983724 35.65,43.7650391 C34.95,44.1317057 34.1666667,44.3150391 33.3,44.3150391 C31.9333333,44.3150391 30.75,43.8317057 29.75,42.8650391 C28.7833333,41.8983724 28.3,40.7150391 28.3,39.3150391 C28.3,37.9483724 28.7833333,36.7650391 29.75,35.7650391 C30.5166667,34.9983724 31.4333333,34.5483724 32.5,34.4150391 L33.2,34.3150391 L33.3,34.3150391 L33.4,34.3150391 L34.5,34.4650391" id="Path" fill="#FFFFFF"></path>
            <path d="M35.65,43.7650391 C34.75,43.5983724 33.9666667,43.1817057 33.3,42.5150391 C32.4333333,41.6483724 32,40.5817057 32,39.3150391 C31.9666667,38.0817057 32.4,37.0150391 33.3,36.1150391 C33.9666667,35.4483724 34.7333333,35.0483724 35.6,34.9150391 L36.55,35.4650391 L36.8,35.7150391 L36.85,35.7650391 L37.3,36.3150391 L37.7,37.0150391 L36.85,36.8650391 C36.1166667,36.8650391 35.5166667,37.0983724 35.05,37.5650391 C34.5833333,38.0317057 34.3666667,38.6150391 34.4,39.3150391 C34.3666667,40.0150391 34.5833333,40.5983724 35.05,41.0650391 C35.55,41.5650391 36.15,41.7983724 36.85,41.7650391 L37.75,41.6650391 L36.85,42.8650391 L35.65,43.7650391" id="Path" fill="#00CCFF"></path>
            <path d="M37.75,41.6650391 L36.85,41.7650391 C36.15,41.7983724 35.55,41.5650391 35.05,41.0650391 C34.5833333,40.5983724 34.3666667,40.0150391 34.4,39.3150391 C34.3666667,38.6150391 34.5833333,38.0317057 35.05,37.5650391 C35.5166667,37.0983724 36.1166667,36.8650391 36.85,36.8650391 L37.7,37.0150391 L38.25,38.5650391 L38.3,39.3150391 L38.1,40.8150391 L38.05,41.0650391 L37.75,41.6650391" id="Path" fill="#000000"></path>
            <path d="M43.3,44.3150391 L48.3,44.3150391 M43.1,41.7150391 L43.3,44.3150391 L43.15,46.6150391 M34.5,34.4650391 L33.4,34.3150391 L33.3,34.3150391 L33.2,34.3150391 L32.5,34.4150391 C31.4333333,34.5483724 30.5166667,34.9983724 29.75,35.7650391 C28.7833333,36.7650391 28.3,37.9483724 28.3,39.3150391 C28.3,40.7150391 28.7833333,41.8983724 29.75,42.8650391 C30.75,43.8317057 31.9333333,44.3150391 33.3,44.3150391 C34.1666667,44.3150391 34.95,44.1317057 35.65,43.7650391 L36.85,42.8650391 L37.75,41.6650391 L36.85,41.7650391 C36.15,41.7983724 35.55,41.5650391 35.05,41.0650391 C34.5833333,40.5983724 34.3666667,40.0150391 34.4,39.3150391 C34.3666667,38.6150391 34.5833333,38.0317057 35.05,37.5650391 C35.5166667,37.0983724 36.1166667,36.8650391 36.85,36.8650391 L37.7,37.0150391 L37.3,36.3150391 L36.85,35.7650391 L36.8,35.7150391 L36.55,35.4650391 L35.6,34.9150391 L35.05,34.6650391 L35,34.6650391 M37.75,41.6650391 L38.05,41.0650391 L38.1,40.8150391 L38.3,39.3150391 L38.25,38.5650391 L37.7,37.0150391" id="Shape" stroke="#000000" stroke-linecap="round" stroke-linejoin="round"></path>
            <path d="M48.3,44.3150391 L43.1,41.7150391 M43.15,46.6150391 L48.3,44.3150391" id="Shape" stroke="#000000" stroke-width="2" stroke-linecap="round" stroke-linejoin="round"></path>
            <g id="52-copy">
                <rect id="Rectangle" stroke="#8F7651" fill="#E8C09E" x="11.5" y="11.1650391" width="29" height="28"></rect>
                <polygon id="Rectangle-Copy-2" fill="#E8C09E" points="41 11 52 14.3372479 52 36.6627521 41 40"></polygon>
                <path d="M41,11 L52,14.3372479 L52,36.6627521 L41,40 L41,11 Z M42,12.347 L42,38.652 L51,35.92 L51,15.079 L42,12.347 Z" id="Rectangle-Copy-2" fill="#8F7651" fill-rule="nonzero"></path>
                <polygon id="Rectangle-Copy-3" fill="#E8C09E" transform="translate(5.5, 25.5) scale(-1, 1) translate(-5.5, -25.5)" points="0 11 11 14.3372479 11 36.6627521 0 40"></polygon>
                <path d="M0,11 L11,14.3372479 L11,36.6627521 L0,40 L0,11 Z M1,12.347 L1,38.652 L10,35.92 L10,15.079 L1,12.347 Z" id="Rectangle-Copy-3" fill="#8F7651" fill-rule="nonzero" transform="translate(5.5, 25.5) scale(-1, 1) translate(-5.5, -25.5)"></path>
                <polygon id="Rectangle-Copy-4" fill="#E8C09E" transform="translate(26, 5.5) scale(-1, 1) rotate(-90) translate(-26, -5.5)" points="20.5 -9.5 31.5 -6.0476746 31.5 17.0476746 20.5 20.5"></polygon>
                <path d="M20.5,-9.5 L31.5,-6.0476746 L31.5,17.0476746 L20.5,20.5 L20.5,-9.5 Z M21.5,-8.138 L21.5,19.137 L30.5,16.313 L30.5,-5.314 L21.5,-8.138 Z" id="Rectangle-Copy-4" fill="#8F7651" fill-rule="nonzero" transform="translate(26, 5.5) scale(-1, 1) rotate(-90) translate(-26, -5.5)"></path>
            </g>
        </g>
    </g>
</svg>