<?xml version="1.0" encoding="UTF-8"?>
<svg width="42px" height="32px" viewBox="0 0 42 32" version="1.1" xmlns="http://www.w3.org/2000/svg" xmlns:xlink="http://www.w3.org/1999/xlink">
    <title>406 copy</title>
    <g id="Page-1" stroke="none" stroke-width="1" fill="none" fill-rule="evenodd">
        <g id="406-copy">
            <path d="M1,31 L1.3,29.5 C2,26.3666667 3.56666667,23.5833333 6,21.15 L6.55,20.6 C6.08333333,19.1666667 5.85,17.6333333 5.85,16 C5.85,11.8666667 7.31666667,8.33333333 10.25,5.4 C13.1833333,2.46666667 16.7166667,1 20.85,1 C25.0166667,1 28.55,2.46666667 31.45,5.4 C33.75,7.7 35.15,10.3666667 35.65,13.4 L35.85,16 L35.7,18.3 C35.4,20.5333333 34.6166667,22.5666667 33.35,24.4 C34.3166667,25.9666667 35.0166667,27.6666667 35.45,29.5 L35.7,31 L1,31" id="Path" fill="#0099FF"></path>
            <path d="M1,31 L1.3,29.5 C2,26.3666667 3.56666667,23.5833333 6,21.15 L6.55,20.6 C6.08333333,19.1666667 5.85,17.6333333 5.85,16 C5.85,11.8666667 7.31666667,8.33333333 10.25,5.4 C13.1833333,2.46666667 16.7166667,1 20.85,1 C25.0166667,1 28.55,2.46666667 31.45,5.4 C33.75,7.7 35.15,10.3666667 35.65,13.4 L35.85,16 L35.7,18.3 C35.4,20.5333333 34.6166667,22.5666667 33.35,24.4 C34.3166667,25.9666667 35.0166667,27.6666667 35.45,29.5 L35.7,31" id="Path" stroke="#000000" stroke-width="2" stroke-linecap="round" stroke-linejoin="round"></path>
            <polyline id="Path" fill="#FFCC00" points="40.85 16 35.85 16 40.85 16 35.7 18.3 35.85 16 35.65 13.4 40.85 16"></polyline>
            <path d="M27.05,6.15 L27.35,6.25 L27.55,6.35 L27.6,6.35 L28.15,6.6 C27.2833333,6.73333333 26.5166667,7.13333333 25.85,7.8 C24.95,8.7 24.5166667,9.76666667 24.55,11 C24.55,12.2666667 24.9833333,13.3333333 25.85,14.2 C26.5166667,14.8666667 27.3,15.2833333 28.2,15.45 C27.5,15.8166667 26.7166667,16 25.85,16 C24.4833333,16 23.3,15.5166667 22.3,14.55 C21.3333333,13.5833333 20.85,12.4 20.85,11 C20.85,9.63333333 21.3333333,8.45 22.3,7.45 C23.0666667,6.68333333 23.9833333,6.23333333 25.05,6.1 L25.75,6 L25.85,6 L25.95,6 L27.05,6.15" id="Path" fill="#FFFFFF"></path>
            <path d="M28.2,15.45 C27.3,15.2833333 26.5166667,14.8666667 25.85,14.2 C24.9833333,13.3333333 24.55,12.2666667 24.55,11 C24.5166667,9.76666667 24.95,8.7 25.85,7.8 C26.5166667,7.13333333 27.2833333,6.73333333 28.15,6.6 L29.1,7.15 L29.35,7.4 L29.4,7.45 L29.85,8 L30.25,8.7 L29.4,8.55 C28.6666667,8.55 28.0666667,8.78333333 27.6,9.25 C27.1333333,9.71666667 26.9166667,10.3 26.95,11 C26.9166667,11.7 27.1333333,12.2833333 27.6,12.75 C28.1,13.25 28.7,13.4833333 29.4,13.45 L30.3,13.35 L29.4,14.55 C29.0333333,14.9166667 28.6333333,15.2166667 28.2,15.45" id="Path" fill="#00CCFF"></path>
            <path d="M30.3,13.35 L29.4,13.45 C28.7,13.4833333 28.1,13.25 27.6,12.75 C27.1333333,12.2833333 26.9166667,11.7 26.95,11 C26.9166667,10.3 27.1333333,9.71666667 27.6,9.25 C28.0666667,8.78333333 28.6666667,8.55 29.4,8.55 L30.25,8.7 L30.8,10.25 L30.85,11 L30.65,12.5 L30.6,12.75 L30.3,13.35" id="Path" fill="#000000"></path>
            <path d="M35.85,16 L40.85,16 M35.65,13.4 L35.85,16 L35.7,18.3 M27.05,6.15 L25.95,6 L25.85,6 L25.75,6 L25.05,6.1 C23.9833333,6.23333333 23.0666667,6.68333333 22.3,7.45 C21.3333333,8.45 20.85,9.63333333 20.85,11 C20.85,12.4 21.3333333,13.5833333 22.3,14.55 C23.3,15.5166667 24.4833333,16 25.85,16 C26.7166667,16 27.5,15.8166667 28.2,15.45 C28.6333333,15.2166667 29.0333333,14.9166667 29.4,14.55 L30.3,13.35 L29.4,13.45 C28.7,13.4833333 28.1,13.25 27.6,12.75 C27.1333333,12.2833333 26.9166667,11.7 26.95,11 C26.9166667,10.3 27.1333333,9.71666667 27.6,9.25 C28.0666667,8.78333333 28.6666667,8.55 29.4,8.55 L30.25,8.7 L29.85,8 L29.4,7.45 L29.35,7.4 L29.1,7.15 L28.15,6.6 L27.6,6.35 L27.55,6.35 M30.3,13.35 L30.6,12.75 L30.65,12.5 L30.85,11 L30.8,10.25 L30.25,8.7" id="Shape" stroke="#000000" stroke-linecap="round" stroke-linejoin="round"></path>
            <path d="M40.85,16 L35.65,13.4 M35.7,18.3 L40.85,16" id="Shape" stroke="#000000" stroke-width="2" stroke-linecap="round" stroke-linejoin="round"></path>
        </g>
    </g>
</svg>