<?xml version="1.0" encoding="UTF-8"?>
<svg width="760px" height="481px" viewBox="0 0 760 481" version="1.1" xmlns="http://www.w3.org/2000/svg" xmlns:xlink="http://www.w3.org/1999/xlink">
    <title>42</title>
    <defs>
        <linearGradient x1="50%" y1="0%" x2="50%" y2="100%" id="linearGradient-1">
            <stop stop-color="#0107B6" offset="0%"></stop>
            <stop stop-color="#000000" offset="100%"></stop>
        </linearGradient>
        <linearGradient x1="50%" y1="0%" x2="50%" y2="100%" id="linearGradient-2">
            <stop stop-color="#FFDA65" offset="0%"></stop>
            <stop stop-color="#FFB435" offset="100%"></stop>
        </linearGradient>
        <linearGradient x1="50%" y1="0%" x2="50%" y2="100%" id="linearGradient-3">
            <stop stop-color="#FFDA65" offset="0%"></stop>
            <stop stop-color="#FFB435" offset="100%"></stop>
        </linearGradient>
        <linearGradient x1="50%" y1="0%" x2="50%" y2="100%" id="linearGradient-4">
            <stop stop-color="#FFDA65" offset="0%"></stop>
            <stop stop-color="#FFB435" offset="100%"></stop>
        </linearGradient>
        <linearGradient x1="50%" y1="50.1923077%" x2="50%" y2="50.1923077%" id="linearGradient-5">
            <stop stop-color="#FFFFFF" offset="0%"></stop>
            <stop stop-color="#C3C3C3" offset="100%"></stop>
        </linearGradient>
    </defs>
    <g id="Page-1" stroke="none" stroke-width="1" fill="none" fill-rule="evenodd">
        <g id="42" transform="translate(0, -0)">
            <polyline id="Path" fill="#000000" points="0 0 759.95 0 759.95 480.05 0 480.05 0 0"></polyline>
            <g id="Group-2-Copy" transform="translate(522, 116)">
                <g id="114-copy-4" transform="translate(5.9597, 44.2641)">
                    <path d="M115.449562,86.4865524 C121.350736,95.9077455 124.301323,106.647906 124.301323,118.707033 C124.301323,135.916412 118.274592,150.613473 106.22113,162.798216 C94.0421119,174.857343 79.3519556,180.886907 62.1506614,180.886907 L53.4872359,180.321635 C39.9270916,178.563013 28.1875222,172.721873 18.2685277,162.798216 C6.08950925,150.613473 0,135.916412 0,118.707033 C0,101.497653 6.08950925,86.8634002 18.2685277,74.804273 L18.6451984,74.6158492 L20.1518811,73.1084583 L21.2818931,71.2242197 L21.2818931,68.9631333 C19.6496536,63.938497 18.8335338,58.537013 18.8335338,52.7586812 C18.8335338,38.1872359 23.9813663,25.7512611 34.2770314,15.4507566 C44.5726966,5.15025221 57.0028288,0 71.5674283,0 C86.2575846,0 98.6877169,5.15025221 108.857825,15.4507566 C116.893466,23.4901747 121.852963,32.8485599 123.736317,43.525912 L124.301323,52.7586812 L123.736317,61.0493311 C122.731862,68.8375174 120.032389,75.9348162 115.637897,82.3412275 L114.884556,84.41389 C114.884556,85.0419695 115.072891,85.732857 115.449562,86.4865524 Z" id="Path-Copy-14" fill="url(#linearGradient-1)"></path>
                    <path d="M45.9999483,74.6664248 L41.0890768,76.1410446 C39.3068362,76.6762098 37.4288133,75.6648871 36.8943954,73.8821921 C36.705017,73.2504695 36.7051229,72.5769846 36.8946999,71.9452024 L38.3688051,67.0326157 C38.580775,66.3262072 38.5808934,65.57317 38.3691456,64.8668281 L36.8965847,59.9547048 C36.3621667,58.1720098 37.3737269,56.2930129 39.1559676,55.7578477 C39.7875292,55.5682046 40.4607789,55.5680987 41.092281,55.7575433 L46.0026891,57.2306187 C46.7087844,57.4424406 47.4615586,57.4423222 48.1677205,57.2302783 L53.078592,55.7556584 C54.8608326,55.2204933 56.7388555,56.231816 57.2732734,58.0145109 C57.4626518,58.6462335 57.4625459,59.3197185 57.2729689,59.9515007 L55.7988637,64.8640874 C55.5868938,65.5704959 55.5867754,66.323533 55.7985233,67.0298749 L57.2710841,71.9419983 C57.8055021,73.7246932 56.7939419,75.6036901 55.0117013,76.1388553 C54.3801396,76.3284985 53.7068899,76.3286044 53.0753878,76.1391598 L48.1649797,74.6660843 C47.4588845,74.4542625 46.7061102,74.4543809 45.9999483,74.6664248 Z" id="Star-Copy-4" fill="url(#linearGradient-2)" transform="translate(47.0838, 65.9484) rotate(-21) translate(-47.0838, -65.9484)"></path>
                    <path d="M79.9014573,116.120046 L74.9910545,117.594139 C73.2089839,118.129114 71.3309442,117.117498 70.7963354,115.334633 C70.6068893,114.70285 70.6069114,114.029326 70.7963987,113.397531 L72.2698068,108.484843 C72.4816765,107.77842 72.4817011,107.025339 72.2698776,106.318929 L70.7967907,101.406337 C70.2621819,99.6234724 71.2734494,97.7444923 73.05552,97.209518 C73.6870213,97.0199425 74.360232,97.0199205 74.9917209,97.2094547 L79.9020274,98.6832273 C80.608108,98.8951494 81.3608385,98.8951248 82.066933,98.6831565 L86.9773358,97.2090627 C88.7594064,96.6740884 90.6374461,97.6857038 91.172055,99.4685688 C91.361501,100.100352 91.361479,100.773876 91.1719916,101.405671 L89.6985835,106.318359 C89.4867139,107.024783 89.4866893,107.777863 89.6985127,108.484273 L91.1715996,113.396865 C91.7062085,115.17973 90.6949409,117.05871 88.9128704,117.593684 C88.281369,117.78326 87.6081584,117.783282 86.9766694,117.593747 L82.066363,116.119975 C81.3602823,115.908053 80.6075518,115.908077 79.9014573,116.120046 Z" id="Star-Copy" fill="url(#linearGradient-3)" transform="translate(80.9842, 107.4016) rotate(-4) translate(-80.9842, -107.4016)"></path>
                    <path d="M34.7030581,153.803003 L29.7921758,155.275557 C28.0099313,155.809973 26.1312976,154.798046 25.5961301,153.015355 C25.406486,152.383634 25.4063325,151.710228 25.5956885,151.078593 L27.0680754,146.167152 C27.2797982,145.460909 27.2796266,144.70796 27.0675817,144.00162 L25.5929554,139.089507 C25.0577879,137.306816 26.0687435,135.42843 27.8509881,134.894015 C28.4825511,134.704637 29.1558802,134.704791 29.7875296,134.894456 L34.6990838,136.36925 C35.4053438,136.581319 36.1582067,136.581491 36.8643702,136.369744 L41.7752524,134.897189 C43.557497,134.362774 45.4361307,135.374701 45.9712982,137.157392 C46.1609423,137.789113 46.1610958,138.462519 45.9717398,139.094154 L44.4993529,144.005594 C44.2876301,144.711838 44.2878017,145.464786 44.4998466,146.171127 L45.9744729,151.083239 C46.5096404,152.86593 45.4986848,154.744316 43.7164402,155.278732 C43.0848772,155.46811 42.4115481,155.467956 41.7798987,155.278291 L36.8683445,153.803497 C36.1620845,153.591428 35.4092216,153.591256 34.7030581,153.803003 Z" id="Star-Copy-3" fill="url(#linearGradient-4)" transform="translate(35.7837, 145.0864) rotate(38) translate(-35.7837, -145.0864)"></path>
                </g>
                <polyline id="Path" stroke="#FFFFFF" stroke-width="7.12393487" stroke-linecap="round" stroke-linejoin="round" points="65.4024157 221.660669 64.7047982 240 101.378287 240"></polyline>
                <path d="M73.6875842,39.8705331 C89.4791942,39.4916337 103.106537,44.7756216 114.361126,55.6479955 C114.420667,55.7055149 114.478185,55.7650925 114.533574,55.8266196 L117.717473,59.3635811 C124.219452,66.4547925 128.536112,74.5758215 130.635227,83.6752056 L130.676874,83.8587445 L147.931345,91.8330906 L147.963502,91.8479283 C148.025742,91.8773945 148.087165,91.9086726 148.147684,91.9417313 L148.192292,91.9667341 L148.225111,91.9853999 L148.232307,91.9892918 L148.237774,91.992651 C148.327164,92.0448984 148.414422,92.1011174 148.499253,92.1612031 L148.583075,92.2225295 C148.642076,92.2669031 148.697481,92.3113796 148.751308,92.3573025 L148.783575,92.3855405 L148.824928,92.421919 L148.830401,92.4268253 C148.856981,92.4509341 148.882703,92.4749585 148.908022,92.4993226 L148.935972,92.5268451 L148.976742,92.567277 C149.026034,92.6173653 149.073985,92.6690788 149.120507,92.7223864 L149.124912,92.7274794 C149.330714,92.9642219 149.502928,93.2258389 149.638632,93.504388 L149.646873,93.5223615 L149.653765,93.5360498 L149.667306,93.5662 L149.68251,93.5978539 L149.691571,93.6185508 L149.699892,93.636949 L149.708173,93.6572818 L149.72366,93.6925087 L149.734991,93.7211243 L149.742626,93.7385273 L149.75287,93.7653884 L149.762057,93.7882869 L149.767343,93.8028426 L149.781987,93.8407189 C149.907601,94.1823071 149.977417,94.5330247 149.995322,94.881933 L149.995882,94.8973011 C150.015944,95.313311 149.96302,95.7374575 149.830184,96.150914 L149.815021,96.1952316 L149.810506,96.2094697 L149.805656,96.2228966 L149.795306,96.2540445 L149.78352,96.284611 L149.775956,96.3066932 L149.766066,96.3314288 L149.757075,96.3566642 L149.745633,96.3837796 L149.738618,96.4028893 L149.730734,96.4203826 L149.715465,96.4587077 L149.705193,96.4816713 L149.698516,96.4979923 L149.682206,96.5335965 L149.670454,96.5601098 L149.663901,96.5727532 L149.655672,96.5919366 L149.637083,96.6289345 L149.622366,96.6600897 L149.614947,96.6744755 L149.61011,96.6846567 C149.578834,96.7460474 149.545762,96.8065781 149.510924,96.8661613 L149.488943,96.9017545 L149.462206,96.946883 C149.404976,97.039146 149.344001,97.1280383 149.279575,97.2134515 L149.217026,97.2939033 C149.15182,97.3753518 149.082817,97.4541762 149.010122,97.5300812 L149.004165,97.5362936 C148.979797,97.5616082 148.955089,97.5865201 148.930052,97.6110255 L148.882335,97.6559465 L148.859839,97.6779112 C148.782267,97.7497925 148.701072,97.8185574 148.616361,97.8839107 L148.564345,97.9223823 L148.531187,97.9476113 C148.418971,98.0289686 148.302364,98.1034999 148.182062,98.1709488 L148.168028,98.1786033 L148.163976,98.1808797 L148.13525,98.1960536 L148.091155,98.2202035 L148.083316,98.2237186 L148.06672,98.2327283 L148.036064,98.2475531 L147.998927,98.2667783 L147.970934,98.2794743 L147.96726,98.2819086 L131.389478,106.166143 L131.369584,106.309191 C130.39014,113.134437 128.184038,119.473641 124.757278,125.301728 L124.632084,125.512105 L124.772419,125.740686 C130.352957,134.921207 133.294948,145.376835 133.602912,157.045183 L133.61334,157.488868 C133.988414,175.737703 128.011665,191.587667 115.748124,204.848841 L115.687945,204.912334 C103.044349,217.928074 87.6088002,224.66755 69.5728631,225.043972 L69.4986782,225.043972 L65.4024157,225.043972 C65.3567746,225.043972 65.3111378,225.043972 65.2655304,225.041342 L60.6349727,224.86329 C60.5572262,224.8603 60.4795984,224.854765 60.4022144,224.846692 C45.9614522,223.340224 33.3550472,217.47978 22.7201723,207.347791 C9.31417885,194.822105 2.37610703,179.310114 2.00075011,161.043237 C1.49953448,142.878926 7.55544196,127.175527 20.0913333,114.141613 C20.1432316,114.087653 20.1968187,114.035342 20.2520148,113.984759 L20.6680747,113.602936 L20.5835221,113.335811 C19.1505261,108.742218 18.362981,103.902384 18.219002,98.8328855 L18.2073893,98.3569477 C17.8283543,82.694266 23.0493358,69.1359978 33.7844544,57.8987023 C44.7610635,46.2942918 58.1256432,40.249993 73.6875842,39.8705331 Z M109.114092,60.4854875 C99.295466,51.1352203 87.6110455,46.6612179 73.8598828,46.9911591 C60.2123021,47.3239398 48.6431097,52.5562522 38.9481825,62.8056124 C29.5109442,72.6843696 24.9958814,84.4094506 25.3295404,98.1981312 C25.4402493,103.621448 26.3764081,108.686393 28.1343042,113.409502 C28.6399456,114.768058 28.2715642,116.297476 27.2027786,117.27694 L25.1527132,119.1551 L24.8917232,119.428993 C14.0203848,130.894892 8.78410167,144.473288 9.11083854,160.384058 L9.12257833,160.871851 C9.45901196,177.240669 15.5814874,190.929167 27.6093547,202.167452 C37.1338022,211.241314 48.2738468,216.420079 61.1415016,217.762439 L61.0315238,217.750382 L65.472742,217.921054 L69.4588981,217.921054 L69.9085105,217.910251 C85.6952006,217.470167 99.0778339,211.626998 110.23671,200.298335 L110.547722,199.980052 L110.845962,199.655566 C121.521967,187.947822 126.719356,174.164505 126.499342,158.127104 L126.490914,157.635459 C126.266423,146.750488 123.536802,137.171471 118.304838,128.824772 L117.414346,127.400358 C116.678044,126.222582 116.693753,124.724275 117.454589,123.562191 C121.416268,117.511209 123.777812,110.812769 124.550361,103.420307 C124.679371,102.185823 125.44191,101.107545 126.562957,100.574371 L138.047687,95.1120382 L126.064252,89.5740593 C125.060354,89.1101144 124.331134,88.2074891 124.086106,87.1339217 L124.060884,87.0139466 C122.405287,78.4070993 118.55366,70.8158793 112.444378,64.1527326 L109.323439,60.6860677 L109.114092,60.4854875 Z" id="Path" fill="#FFFFFF" fill-rule="nonzero"></path>
                <polyline id="Path" fill="#FFCC00" points="128.449239 95.4219753 127.558747 86.3413358 146.437175 95.0658718 128.449239 95.4219753 146.437175 95.0658718 128.093043 103.790408 128.449239 95.4219753"></polyline>
                <path d="M100.309697,62.8385042 C97.2226581,63.1946077 94.4918164,64.6190217 92.1171714,67.1117463 C89.030133,70.435379 87.605346,74.2338165 87.8428105,78.5070586 C87.9615428,83.1364042 89.5644281,86.9941922 92.6514666,90.0804226 C95.1448438,92.454446 98.0537838,93.7601589 101.378287,93.9975612 L99.2411063,95.0658718 L97.1039258,95.600027 L95.6791389,95.9561305 L93.0076633,96.1341823 L92.8295649,96.312234 C88.080275,96.4309352 83.8652802,94.88782 80.1845805,91.6828884 C76.6226131,88.3592557 74.7822633,84.1453641 74.663531,79.0412138 C74.4260665,74.1744659 75.9695857,69.9012238 79.2940887,66.2214875 C82.7373239,62.7791536 86.9523187,60.998636 91.9390731,60.8799349 L93.36386,61.0579866 L98.8849096,62.3043489 L100.309697,62.8385042" id="Path" fill="#FFFFFF"></path>
                <path d="M108.502222,86.5193875 L105.474549,87.0535428 C102.981172,87.172244 100.784626,86.4006864 98.8849096,84.73887 C97.1039258,83.0770536 96.2728001,80.9404326 96.3915324,78.3290068 C96.1540679,75.8362823 96.8664614,73.8183624 98.5287128,72.2752472 C100.190964,70.4947296 102.328145,69.5451203 104.940254,69.4264191 L107.967927,69.9605744 C109.392714,72.2158966 110.164473,74.8866729 110.283205,77.9729033 C110.283205,81.1778349 109.689544,84.026663 108.502222,86.5193875" id="Path" fill="#000000"></path>
                <path d="M107.967927,69.9605744 L104.940254,69.4264191 C102.328145,69.5451203 100.190964,70.4947296 98.5287128,72.2752472 C96.8664614,73.8183624 96.1540679,75.8362823 96.3915324,78.3290068 C96.2728001,80.9404326 97.1039258,83.0770536 98.8849096,84.73887 C100.784626,86.4006864 102.981172,87.172244 105.474549,87.0535428 L108.502222,86.5193875 L107.077435,89.3682156 L106.899336,89.5462674 L106.186943,90.2584744 L105.652648,90.9706814 L101.378287,93.9975612 C98.0537838,93.7601589 95.1448438,92.454446 92.6514666,90.0804226 C89.5644281,86.9941922 87.9615428,83.1364042 87.8428105,78.5070586 C87.605346,74.2338165 89.030133,70.435379 92.1171714,67.1117463 C94.4918164,64.6190217 97.2226581,63.1946077 100.309697,62.8385042 L101.200188,63.1946077 L104.762156,65.5092805 L106.899336,68.3581086 L107.967927,69.9605744" id="Path" fill="#FF30D8"></path>
                <path d="M108.502222,86.5193875 L105.474549,87.0535428 C102.981172,87.172244 100.784626,86.4006864 98.8849096,84.73887 C97.1039258,83.0770536 96.2728001,80.9404326 96.3915324,78.3290068 C96.1540679,75.8362823 96.8664614,73.8183624 98.5287128,72.2752472 C100.190964,70.4947296 102.328145,69.5451203 104.940254,69.4264191 L107.967927,69.9605744 L106.899336,68.3581086 L104.762156,65.5092805 L101.200188,63.1946077 L100.309697,62.8385042 L98.8849096,62.3043489 L93.36386,61.0579866 L91.9390731,60.8799349 C86.9523187,60.998636 82.7373239,62.7791536 79.2940887,66.2214875 C75.9695857,69.9012238 74.4260665,74.1744659 74.663531,79.0412138 C74.7822633,84.1453641 76.6226131,88.3592557 80.1845805,91.6828884 C83.8652802,94.88782 88.080275,96.4309352 92.8295649,96.312234 L93.0076633,96.1341823 L95.6791389,95.9561305 L97.1039258,95.600027 L99.2411063,95.0658718 L101.378287,93.9975612 L105.652648,90.9706814 L106.186943,90.2584744 L106.899336,89.5462674 L107.077435,89.3682156 L108.502222,86.5193875 C109.689544,84.026663 110.283205,81.1778349 110.283205,77.9729033 C110.164473,74.8866729 109.392714,72.2158966 107.967927,69.9605744 M127.558747,86.3413358 L128.449239,95.4219753 L146.437175,95.0658718 M128.093043,103.790408 L128.449239,95.4219753" id="Shape" stroke="#000000" stroke-width="3.56196744" stroke-linecap="round" stroke-linejoin="round"></path>
                <path d="M127.558747,86.3413358 L128.449239,95.4219753 L146.437175,95.0658718 M128.093043,103.790408 L128.449239,95.4219753" id="Shape-Copy-2" stroke="#FFFFFF" stroke-width="3.56196744" stroke-linecap="round" stroke-linejoin="round"></path>
                <g id="Group">
                    <polyline id="Path" fill="url(#linearGradient-5)" points="59.6925006 0 95.0345194 42.3716179 16.064554 88.1329653 0 34.5752402 59.6925006 0"></polyline>
                    <path d="M59.6925006,0 L0,34.5752402 L16.064554,88.1329653 L95.0345194,42.3716179 L59.6925006,0 M16.064554,88.1329653 L4.39661478,94.9124242 M95.0345194,42.3716179 L110.253571,33.7278079" id="Shape" stroke="#FFFFFF" stroke-width="6.76752904" stroke-linecap="round" stroke-linejoin="round"></path>
                </g>
            </g>
            <g id="Night-Vision-Mode:-O" transform="translate(498.9286, 366.9455)" fill="#00FF0A" fill-rule="nonzero">
                <path d="M1.67272727,8.99090909 L1.67272727,13.3818182 L1.04545455,15.0545455 C0.487878788,14.9151515 0.139393939,14.5666667 0,14.0090909 L0,8.15454545 L0.418181818,7.73636364 L1.67272727,8.99090909 Z M6.69090909,6.27272727 L5.22727273,6.27272727 L2.09090909,3.13636364 L2.09090909,1.88181818 L3.34545455,1.88181818 L6.69090909,5.22727273 L6.69090909,6.27272727 Z M8.36363636,7.73636364 L8.78181818,8.15454545 L8.78181818,14.0090909 C8.64242424,14.5666667 8.29393939,14.9151515 7.73636364,15.0545455 L7.10909091,13.3818182 L7.10909091,8.99090909 L8.36363636,7.73636364 Z M7.10909091,6.27272727 L7.10909091,1.88181818 L7.73636364,0.209090909 C8.29393939,0.348484848 8.64242424,0.696969697 8.78181818,1.25454545 L8.78181818,7.10909091 L8.36363636,7.52727273 L7.10909091,6.27272727 Z M0.418181818,7.52727273 L0,7.10909091 L0,1.25454545 C0.139393939,0.696969697 0.487878788,0.348484848 1.04545455,0.209090909 L1.67272727,1.88181818 L1.67272727,6.27272727 L0.418181818,7.52727273 Z" id="Shape"></path>
                <path d="M10.8727273,6.06363636 L10.8727273,1.67272727 L11.5,7.10542736e-15 C12.0575758,0.139393939 12.4060606,0.487878788 12.5454545,1.04545455 L12.5454545,6.9 L12.1272727,7.31818182 L10.8727273,6.06363636 Z M12.1272727,7.52727273 L12.5454545,7.94545455 L12.5454545,13.8 C12.4060606,14.3575758 12.0575758,14.7060606 11.5,14.8454545 L10.8727273,13.1727273 L10.8727273,8.78181818 L12.1272727,7.52727273 Z" id="Shape"></path>
                <path d="M21.7454545,6.69090909 L22.5818182,7.52727273 L21.7454545,8.36363636 L19.8636364,8.36363636 L19.0272727,7.52727273 L19.8636364,6.69090909 L21.7454545,6.69090909 Z M23,7.73636364 L23.4181818,8.15454545 L23.4181818,14.0090909 C23.2787879,14.5666667 22.930303,14.9151515 22.3727273,15.0545455 L21.7454545,13.3818182 L21.7454545,8.99090909 L23,7.73636364 Z M21.9545455,15.0545455 L15.6818182,15.0545455 C15.1242424,14.9151515 14.7757576,14.5666667 14.6363636,14.0090909 L16.3090909,13.3818182 L21.3272727,13.3818182 L21.9545455,15.0545455 Z M14.6363636,13.5909091 L14.6363636,8.15454545 L15.0545455,7.73636364 L16.3090909,8.99090909 L16.3090909,12.9636364 L14.6363636,13.5909091 Z M21.9545455,1.67272727 L16.33,1.67272727 L14.6572727,1.04545455 C14.7966667,0.487878788 15.1451515,0.139393939 15.7027273,7.10542736e-15 L22.5818182,7.10542736e-15 L21.9545455,1.67272727 Z M16.3090909,2.09090909 L16.3090909,6.06363636 L15.0545455,7.31818182 L14.6363636,6.9 L14.6363636,1.46363636 L16.3090909,2.09090909 Z" id="Shape"></path>
                <path d="M32.6181818,6.69090909 L33.4545455,7.52727273 L32.6181818,8.36363636 L27.1818182,8.36363636 L26.3454545,7.52727273 L27.1818182,6.69090909 L32.6181818,6.69090909 Z M33.8727273,7.73636364 L34.2909091,8.15454545 L34.2909091,14.0090909 C34.1515152,14.5666667 33.8030303,14.9151515 33.2454545,15.0545455 L32.6181818,13.3818182 L32.6181818,8.99090909 L33.8727273,7.73636364 Z M32.6181818,6.06363636 L32.6181818,1.67272727 L33.2454545,7.10542736e-15 C33.8030303,0.139393939 34.1515152,0.487878788 34.2909091,1.04545455 L34.2909091,6.9 L33.8727273,7.31818182 L32.6181818,6.06363636 Z M27.1818182,8.99090909 L27.1818182,13.3818182 L26.5545455,15.0545455 C25.9969697,14.9151515 25.6484848,14.5666667 25.5090909,14.0090909 L25.5090909,8.15454545 L25.9272727,7.73636364 L27.1818182,8.99090909 Z M25.9272727,7.52727273 L25.5090909,7.10909091 L25.5090909,1.25454545 C25.6484848,0.696969697 25.9969697,0.348484848 26.5545455,0.209090909 L27.1818182,1.88181818 L27.1818182,6.27272727 L25.9272727,7.52727273 Z" id="Shape"></path>
                <path d="M40.7518182,7.73636364 L41.5881818,8.57272727 L41.5881818,14.0090909 C41.4487879,14.5666667 41.100303,14.9151515 40.5427273,15.0545455 L39.9154545,13.3818182 L39.9154545,8.57272727 L40.7518182,7.73636364 Z M39.9154545,6.48181818 L39.9154545,2.09090909 L41.5881818,2.09090909 L41.5881818,6.48181818 L40.7518182,7.31818182 L39.9154545,6.48181818 Z M38.0545455,1.67272727 L36.3818182,1.04545455 C36.5212121,0.487878788 36.869697,0.139393939 37.4272727,7.10542736e-15 L44.0972727,7.10542736e-15 C44.6548485,0.139393939 45.0033333,0.487878788 45.1427273,1.04545455 L43.47,1.67272727 L38.0545455,1.67272727 Z" id="Shape"></path>
                <path d="M53.9245455,7.52727273 L53.5063636,7.10909091 L53.5063636,1.25454545 C53.6457576,0.696969697 53.9942424,0.348484848 54.5518182,0.209090909 L55.1790909,1.88181818 L55.1790909,6.27272727 L53.9245455,7.52727273 Z M60.6154545,6.27272727 L60.6154545,1.88181818 L61.2427273,0.209090909 C61.800303,0.348484848 62.1487879,0.696969697 62.2881818,1.25454545 L62.2881818,7.10909091 L61.87,7.52727273 L60.6154545,6.27272727 Z M57.6881818,12.5454545 L57.6881818,15.0545455 L53.5063636,9.61818182 L53.5063636,8.36363636 L53.9245455,7.94545455 L55.1790909,9.2 L57.6881818,12.5454545 Z M60.6154545,9.2 L61.87,7.94545455 L62.2881818,8.36363636 L62.2881818,9.61818182 L58.1063636,15.0545455 L58.1063636,12.5454545 L60.6154545,9.2 Z" id="Shape"></path>
                <path d="M64.3790909,6.06363636 L64.3790909,1.67272727 L65.0063636,7.10542736e-15 C65.5639394,0.139393939 65.9124242,0.487878788 66.0518182,1.04545455 L66.0518182,6.9 L65.6336364,7.31818182 L64.3790909,6.06363636 Z M65.6336364,7.52727273 L66.0518182,7.94545455 L66.0518182,13.8 C65.9124242,14.3575758 65.5639394,14.7060606 65.0063636,14.8454545 L64.3790909,13.1727273 L64.3790909,8.78181818 L65.6336364,7.52727273 Z" id="Shape"></path>
                <path d="M75.2518182,6.69090909 L76.0881818,7.52727273 L75.2518182,8.36363636 L69.8154545,8.36363636 L68.9790909,7.52727273 L69.8154545,6.69090909 L75.2518182,6.69090909 Z M76.5063636,7.73636364 L76.9245455,8.15454545 L76.9245455,14.0090909 C76.7851515,14.5666667 76.4366667,14.9151515 75.8790909,15.0545455 L75.2518182,13.3818182 L75.2518182,8.99090909 L76.5063636,7.73636364 Z M75.4609091,15.0545455 L69.1881818,15.0545455 C68.6306061,14.9151515 68.2821212,14.5666667 68.1427273,14.0090909 L69.8154545,13.3818182 L74.8336364,13.3818182 L75.4609091,15.0545455 Z M69.8154545,2.09090909 L69.8154545,6.06363636 L68.5609091,7.31818182 L68.1427273,6.9 L68.1427273,1.46363636 L69.8154545,2.09090909 Z M69.8363636,1.67272727 L68.1636364,1.04545455 C68.3030303,0.487878788 68.6515152,0.139393939 69.2090909,7.10542736e-15 L75.8790909,7.10542736e-15 C76.4366667,0.139393939 76.7851515,0.487878788 76.9245455,1.04545455 L75.2518182,1.67272727 L69.8363636,1.67272727 Z" id="Shape"></path>
                <path d="M79.0154545,6.06363636 L79.0154545,1.67272727 L79.6427273,7.10542736e-15 C80.200303,0.139393939 80.5487879,0.487878788 80.6881818,1.04545455 L80.6881818,6.9 L80.27,7.31818182 L79.0154545,6.06363636 Z M80.27,7.52727273 L80.6881818,7.94545455 L80.6881818,13.8 C80.5487879,14.3575758 80.200303,14.7060606 79.6427273,14.8454545 L79.0154545,13.1727273 L79.0154545,8.78181818 L80.27,7.52727273 Z" id="Shape"></path>
                <path d="M89.47,1.67272727 L84.87,1.67272727 L84.0336364,0.836363636 L84.87,7.10542736e-15 L89.47,7.10542736e-15 L90.3063636,0.836363636 L89.47,1.67272727 Z M89.8881818,6.06363636 L89.8881818,1.67272727 L90.5154545,1.04545455 L91.5609091,2.09090909 L91.5609091,6.9 L91.1427273,7.31818182 L89.8881818,6.06363636 Z M91.1427273,7.73636364 L91.5609091,8.15454545 L91.5609091,12.9636364 L90.5154545,14.0090909 L89.8881818,13.3818182 L89.8881818,8.99090909 L91.1427273,7.73636364 Z M83.1972727,7.31818182 L82.7790909,6.9 L82.7790909,2.09090909 L83.8245455,1.04545455 L84.4518182,1.67272727 L84.4518182,6.06363636 L83.1972727,7.31818182 Z M90.3063636,14.2181818 L89.47,15.0545455 L84.87,15.0545455 L84.0336364,14.2181818 L84.87,13.3818182 L89.47,13.3818182 L90.3063636,14.2181818 Z M84.4518182,8.99090909 L84.4518182,13.3818182 L83.8245455,14.0090909 L82.7790909,12.9636364 L82.7790909,8.15454545 L83.1972727,7.73636364 L84.4518182,8.99090909 Z" id="Shape"></path>
                <path d="M95.3245455,8.99090909 L95.3245455,13.3818182 L94.6972727,15.0545455 C94.139697,14.9151515 93.7912121,14.5666667 93.6518182,14.0090909 L93.6518182,8.15454545 L94.07,7.73636364 L95.3245455,8.99090909 Z M100.342727,6.27272727 L98.8790909,6.27272727 L95.7427273,3.13636364 L95.7427273,1.88181818 L96.9972727,1.88181818 L100.342727,5.22727273 L100.342727,6.27272727 Z M102.015455,7.73636364 L102.433636,8.15454545 L102.433636,14.0090909 C102.294242,14.5666667 101.945758,14.9151515 101.388182,15.0545455 L100.760909,13.3818182 L100.760909,8.99090909 L102.015455,7.73636364 Z M100.760909,6.27272727 L100.760909,1.88181818 L101.388182,0.209090909 C101.945758,0.348484848 102.294242,0.696969697 102.433636,1.25454545 L102.433636,7.10909091 L102.015455,7.52727273 L100.760909,6.27272727 Z M94.07,7.52727273 L93.6518182,7.10909091 L93.6518182,1.25454545 C93.7912121,0.696969697 94.139697,0.348484848 94.6972727,0.209090909 L95.3245455,1.88181818 L95.3245455,6.27272727 L94.07,7.52727273 Z" id="Shape"></path>
                <path d="M116.024545,6.9 L115.188182,7.73636364 L114.351818,6.9 L114.351818,2.09090909 L116.024545,2.09090909 L116.024545,6.9 Z M119.160909,7.73636364 L119.579091,8.15454545 L119.579091,14.0090909 C119.439697,14.5666667 119.091212,14.9151515 118.533636,15.0545455 L117.906364,13.3818182 L117.906364,8.99090909 L119.160909,7.73636364 Z M117.488182,1.67272727 L112.490909,1.67272727 L110.818182,1.04545455 C110.957576,0.487878788 111.306061,0.139393939 111.863636,7.10542736e-15 L118.115455,7.10542736e-15 L117.488182,1.67272727 Z M112.47,2.09090909 L112.47,6.06363636 L111.215455,7.31818182 L110.797273,6.9 L110.797273,1.46363636 L112.47,2.09090909 Z M117.906364,6.06363636 L117.906364,1.67272727 L118.533636,7.10542736e-15 C119.091212,0.139393939 119.439697,0.487878788 119.579091,1.04545455 L119.579091,6.9 L119.160909,7.31818182 L117.906364,6.06363636 Z M112.47,8.99090909 L112.47,13.3818182 L111.842727,15.0545455 C111.285152,14.9151515 110.936667,14.5666667 110.797273,14.0090909 L110.797273,8.15454545 L111.215455,7.73636364 L112.47,8.99090909 Z" id="Shape"></path>
                <path d="M128.360909,1.67272727 L123.760909,1.67272727 L122.924545,0.836363636 L123.760909,7.10542736e-15 L128.360909,7.10542736e-15 L129.197273,0.836363636 L128.360909,1.67272727 Z M128.779091,6.06363636 L128.779091,1.67272727 L129.406364,1.04545455 L130.451818,2.09090909 L130.451818,6.9 L130.033636,7.31818182 L128.779091,6.06363636 Z M130.033636,7.73636364 L130.451818,8.15454545 L130.451818,12.9636364 L129.406364,14.0090909 L128.779091,13.3818182 L128.779091,8.99090909 L130.033636,7.73636364 Z M122.088182,7.31818182 L121.67,6.9 L121.67,2.09090909 L122.715455,1.04545455 L123.342727,1.67272727 L123.342727,6.06363636 L122.088182,7.31818182 Z M129.197273,14.2181818 L128.360909,15.0545455 L123.760909,15.0545455 L122.924545,14.2181818 L123.760909,13.3818182 L128.360909,13.3818182 L129.197273,14.2181818 Z M123.342727,8.99090909 L123.342727,13.3818182 L122.715455,14.0090909 L121.67,12.9636364 L121.67,8.15454545 L122.088182,7.73636364 L123.342727,8.99090909 Z" id="Shape"></path>
                <path d="M132.542727,13.5909091 L132.542727,8.15454545 L132.960909,7.73636364 L134.215455,8.99090909 L134.215455,12.9636364 L132.542727,13.5909091 Z M139.233636,1.67272727 L134.215455,1.67272727 L132.542727,1.04545455 L132.542727,7.10542736e-15 L139.233636,7.10542736e-15 L140.07,0.836363636 L139.233636,1.67272727 Z M134.215455,2.09090909 L134.215455,6.06363636 L132.960909,7.31818182 L132.542727,6.9 L132.542727,1.46363636 L134.215455,2.09090909 Z M139.651818,6.06363636 L139.651818,1.67272727 L140.279091,1.04545455 L141.324545,2.09090909 L141.324545,6.9 L140.906364,7.31818182 L139.651818,6.06363636 Z M140.906364,7.73636364 L141.324545,8.15454545 L141.324545,12.9636364 L140.279091,14.0090909 L139.651818,13.3818182 L139.651818,8.99090909 L140.906364,7.73636364 Z M140.049091,14.2181818 L139.212727,15.0545455 L132.542727,15.0545455 L132.542727,14.0090909 L134.215455,13.3818182 L139.212727,13.3818182 L140.049091,14.2181818 Z" id="Shape"></path>
                <path d="M150.524545,6.69090909 L151.360909,7.52727273 L150.524545,8.36363636 L145.088182,8.36363636 L144.251818,7.52727273 L145.088182,6.69090909 L150.524545,6.69090909 Z M151.360909,15.0545455 L144.460909,15.0545455 C143.903333,14.9151515 143.554848,14.5666667 143.415455,14.0090909 L145.088182,13.3818182 L150.733636,13.3818182 L151.360909,15.0545455 Z M143.415455,13.5909091 L143.415455,8.15454545 L143.833636,7.73636364 L145.088182,8.99090909 L145.088182,12.9636364 L143.415455,13.5909091 Z M150.733636,1.67272727 L145.109091,1.67272727 L143.436364,1.04545455 C143.575758,0.487878788 143.924242,0.139393939 144.481818,7.10542736e-15 L151.360909,7.10542736e-15 L150.733636,1.67272727 Z M145.088182,2.09090909 L145.088182,6.06363636 L143.833636,7.31818182 L143.415455,6.9 L143.415455,1.46363636 L145.088182,2.09090909 Z" id="Shape"></path>
                <path d="M155.124545,11.7090909 L153.451818,11.7090909 L153.451818,10.0363636 L155.124545,10.0363636 L155.124545,11.7090909 Z M155.124545,5.01818182 L153.451818,5.01818182 L153.451818,3.34545455 L155.124545,3.34545455 L155.124545,5.01818182 Z" id="Shape"></path>
                <path d="M170.179091,1.67272727 L165.579091,1.67272727 L164.742727,0.836363636 L165.579091,7.10542736e-15 L170.179091,7.10542736e-15 L171.015455,0.836363636 L170.179091,1.67272727 Z M170.597273,6.06363636 L170.597273,1.67272727 L171.224545,1.04545455 L172.27,2.09090909 L172.27,6.9 L171.851818,7.31818182 L170.597273,6.06363636 Z M171.851818,7.73636364 L172.27,8.15454545 L172.27,12.9636364 L171.224545,14.0090909 L170.597273,13.3818182 L170.597273,8.99090909 L171.851818,7.73636364 Z M163.906364,7.31818182 L163.488182,6.9 L163.488182,2.09090909 L164.533636,1.04545455 L165.160909,1.67272727 L165.160909,6.06363636 L163.906364,7.31818182 Z M171.015455,14.2181818 L170.179091,15.0545455 L165.579091,15.0545455 L164.742727,14.2181818 L165.579091,13.3818182 L170.179091,13.3818182 L171.015455,14.2181818 Z M165.160909,8.99090909 L165.160909,13.3818182 L164.533636,14.0090909 L163.488182,12.9636364 L163.488182,8.15454545 L163.906364,7.73636364 L165.160909,8.99090909 Z" id="Shape"></path>
                <path d="M176.033636,8.99090909 L176.033636,13.3818182 L175.406364,15.0545455 C174.848788,14.9151515 174.500303,14.5666667 174.360909,14.0090909 L174.360909,8.15454545 L174.779091,7.73636364 L176.033636,8.99090909 Z M181.051818,6.27272727 L179.588182,6.27272727 L176.451818,3.13636364 L176.451818,1.88181818 L177.706364,1.88181818 L181.051818,5.22727273 L181.051818,6.27272727 Z M182.724545,7.73636364 L183.142727,8.15454545 L183.142727,14.0090909 C183.003333,14.5666667 182.654848,14.9151515 182.097273,15.0545455 L181.47,13.3818182 L181.47,8.99090909 L182.724545,7.73636364 Z M181.47,6.27272727 L181.47,1.88181818 L182.097273,0.209090909 C182.654848,0.348484848 183.003333,0.696969697 183.142727,1.25454545 L183.142727,7.10909091 L182.724545,7.52727273 L181.47,6.27272727 Z M174.779091,7.52727273 L174.360909,7.10909091 L174.360909,1.25454545 C174.500303,0.696969697 174.848788,0.348484848 175.406364,0.209090909 L176.033636,1.88181818 L176.033636,6.27272727 L174.779091,7.52727273 Z" id="Shape"></path>
            </g>
        </g>
    </g>
</svg>