<?xml version="1.0" encoding="UTF-8"?>
<svg width="219px" height="40px" viewBox="0 0 219 40" version="1.1" xmlns="http://www.w3.org/2000/svg" xmlns:xlink="http://www.w3.org/1999/xlink">
    <title>431</title>
    <g id="Page-1" stroke="none" stroke-width="1" fill="none" fill-rule="evenodd">
        <g id="431" transform="translate(1, 1)">
            <polygon id="Path" fill="#000000" points="76.95 5.8 87.4 18.3 64.05 31.8 59.3 16"></polygon>
            <path d="M59.3,16 L64.05,31.8 L87.4,18.3 L76.95,5.8 L59.3,16 M64.05,31.8 L60.6,33.8 M87.4,18.3 L91.9,15.75" id="Shape" stroke="#000000" stroke-width="2" stroke-linecap="round" stroke-linejoin="round"></path>
            <polyline id="Path" fill="#FF0000" points="23.7 14.85 24.85 15.45 3.55 36.75 3.1 35.95 3.45 36.35 24.4 15.4 23.7 14.85"></polyline>
            <path d="M23.7,14.85 L24.4,15.4 L3.45,36.35 L3.1,35.95 C1.03333333,33.3166667 0,30.2833333 0,26.85 C0,22.75 1.45,19.2333333 4.35,16.3 C7.28333333,13.4 10.8,11.95 14.9,11.95 C18.2,11.95 21.1333333,12.9166667 23.7,14.85" id="Path" fill="#FFFFFF"></path>
            <path d="M3.1,35.95 L3.55,36.75 L24.85,15.45 L23.7,14.85 L24.4,15.4 L3.45,36.35 L3.1,35.95 C1.03333333,33.3166667 0,30.2833333 0,26.85 C0,22.75 1.45,19.2333333 4.35,16.3 C7.28333333,13.4 10.8,11.95 14.9,11.95 C18.2,11.95 21.1333333,12.9166667 23.7,14.85 M3.55,36.75 L2.5,37.8 M24.85,15.45 L33.25,7.15" id="Shape" stroke="#000000" stroke-width="2" stroke-linecap="round" stroke-linejoin="round"></path>
            <path d="M124.35,15.1 C123.916667,17.4666667 122.35,18.8666667 119.65,19.3 C119.916667,17.1666667 121.483333,15.7666667 124.35,15.1 C124.983333,12.7 126.583333,11.2666667 129.15,10.8 C128.283333,13.4666667 126.683333,14.9 124.35,15.1" id="Path" fill="#FFFFFF"></path>
            <path d="M129.15,31.65 L124.85,35.85 C124.383333,34.4166667 124.15,32.8833333 124.15,31.25 C124.15,27.1166667 125.616667,23.5833333 128.55,20.65 L129.15,20.1 C128.216667,23.9666667 128.216667,27.8166667 129.15,31.65" id="Path" fill="#FF0000"></path>
            <path d="M139.95,21.2 L135.65,25.4 L129.15,20.1 C132.75,19.7666667 136.35,20.1333333 139.95,21.2" id="Path" fill="#FFFF00"></path>
            <path d="M135.65,25.4 L129.15,31.65 C128.216667,27.8166667 128.216667,23.9666667 129.15,20.1 L135.65,25.4" id="Path" fill="#FF9900"></path>
            <path d="M129.15,20.1 C131.95,17.5333333 135.283333,16.25 139.15,16.25 C140.95,16.25 142.633333,16.5333333 144.2,17.1 L139.95,21.2 C136.35,20.1333333 132.75,19.7666667 129.15,20.1" id="Path" fill="#00FF00"></path>
            <path d="M124.35,15.1 C123.916667,17.4666667 122.35,18.8666667 119.65,19.3 C119.916667,17.1666667 121.483333,15.7666667 124.35,15.1 C124.983333,12.7 126.583333,11.2666667 129.15,10.8 C128.283333,13.4666667 126.683333,14.9 124.35,15.1 L129.15,20.1 C131.95,17.5333333 135.283333,16.25 139.15,16.25 C140.95,16.25 142.633333,16.5333333 144.2,17.1 L139.95,21.2 L135.65,25.4 L129.15,31.65 L124.85,35.85 C124.383333,34.4166667 124.15,32.8833333 124.15,31.25 C124.15,27.1166667 125.616667,23.5833333 128.55,20.65 L129.15,20.1 C132.75,19.7666667 136.35,20.1333333 139.95,21.2 M129.15,20.1 L135.65,25.4 M129.15,31.65 C128.216667,27.8166667 128.216667,23.9666667 129.15,20.1" id="Shape" stroke="#000000" stroke-width="2" stroke-linecap="round" stroke-linejoin="round"></path>
            <path d="M216.55,2.5 L212.3,19.4 C210.6,18.1333333 208.716667,17.3166667 206.65,16.95 L216.55,2.5 M206.6,16.95 L203.6,16.65 L201.4,16.8 C200.033333,17 198.733333,17.3666667 197.5,17.9 C195.866667,18.6333333 194.366667,19.6833333 193,21.05 L191.25,23.1 L187.4,8.25 L194,20.1 L191.3,3.5 L197.5,17.9 L199.3,0 L201.4,16.8 L206.6,0.75 L206.6,16.95 M191.25,23.15 C190.383333,24.35 189.733333,25.6333333 189.3,27 C188.833333,28.4666667 188.6,30.0166667 188.6,31.65 C188.6,33.2833333 188.833333,34.8166667 189.3,36.25 L179.3,30.75 L188.6,30.75 L179.55,20.25 L189.3,27 L181.8,12.75 L191.25,23.15" id="Shape" fill="#FF00FF"></path>
            <path d="M216.55,2.5 L206.65,16.95 C208.716667,17.3166667 210.6,18.1333333 212.3,19.4 L216.55,2.5 M206.6,16.95 L203.6,16.65 L201.4,16.8 C200.033333,17 198.733333,17.3666667 197.5,17.9 C195.866667,18.6333333 194.366667,19.6833333 193,21.05 L191.25,23.1 L191.25,23.15 C190.383333,24.35 189.733333,25.6333333 189.3,27 C188.833333,28.4666667 188.6,30.0166667 188.6,31.65 C188.6,33.2833333 188.833333,34.8166667 189.3,36.25 L179.3,30.75 L188.6,30.75 L179.55,20.25 L189.3,27 L181.8,12.75 L191.25,23.15 L191.25,23.1 L187.4,8.25 L186.3,6.25 M206.65,16.95 L206.6,16.95 L206.6,0.75 L201.4,16.8 L199.3,5.68434189e-14 L197.5,17.9 L191.3,3.5 L194,20.1 L187.4,8.25" id="Shape" stroke="#000000" stroke-width="2" stroke-linecap="round" stroke-linejoin="round"></path>
            <path d="M5,25.706 L5,17.706 L13,17.706 L13,25.706 L5,25.706 Z M12.1287129,18.5772871 L5.87128713,18.5772871 L5.87128713,24.8347129 L12.1287129,24.8347129 L12.1287129,18.5772871 Z M9.45544554,21.2505545 L9.45544554,19.4881782 L10.3267327,19.4881782 L10.3267327,21.2505545 L9.45544554,21.2505545 Z M10.3465347,23.0327327 L10.3465347,22.1614455 L11.2178218,22.1614455 L11.2178218,23.0327327 L10.3465347,23.0327327 Z M7.67326733,21.2505545 L7.67326733,19.4881782 L8.54455446,19.4881782 L8.54455446,21.2505545 L7.67326733,21.2505545 Z M7.67326733,23.9238218 L7.67326733,23.0525347 L10.3267327,23.0525347 L10.3267327,23.9238218 L7.67326733,23.9238218 Z M6.78217822,23.0327327 L6.78217822,22.1614455 L7.65346535,22.1614455 L7.65346535,23.0327327 L6.78217822,23.0327327 Z" id="Shape" fill="#000000" fill-rule="nonzero" transform="translate(9, 21.706) rotate(-45) translate(-9, -21.706)"></path>
        </g>
    </g>
</svg>