<?xml version="1.0" encoding="UTF-8"?>
<svg width="60px" height="60px" viewBox="0 0 60 60" version="1.1" xmlns="http://www.w3.org/2000/svg" xmlns:xlink="http://www.w3.org/1999/xlink">
    <title>490</title>
    <defs>
        <radialGradient cx="50%" cy="50%" fx="50%" fy="50%" r="50.5173333%" id="radialGradient-1">
            <stop stop-color="#CCCCCC" offset="0%"></stop>
            <stop stop-color="#999999" offset="100%"></stop>
        </radialGradient>
        <radialGradient cx="50%" cy="50%" fx="50%" fy="50%" r="55.6409418%" gradientTransform="translate(0.5, 0.5), scale(0.9079, 1), translate(-0.5, -0.5)" id="radialGradient-2">
            <stop stop-color="#CCCCCC" offset="0%"></stop>
            <stop stop-color="#999999" offset="100%"></stop>
        </radialGradient>
        <radialGradient cx="50%" cy="50%" fx="50%" fy="50%" r="64.4345392%" gradientTransform="translate(0.5, 0.5), scale(0.784, 1), translate(-0.5, -0.5)" id="radialGradient-3">
            <stop stop-color="#CCCCCC" offset="0%"></stop>
            <stop stop-color="#999999" offset="100%"></stop>
        </radialGradient>
        <radialGradient cx="50%" cy="50%" fx="50%" fy="50%" r="50.5173333%" gradientTransform="translate(0.5, 0.5), scale(1, 0.1983), translate(-0.5, -0.5)" id="radialGradient-4">
            <stop stop-color="#CCCCCC" offset="0%"></stop>
            <stop stop-color="#999999" offset="100%"></stop>
        </radialGradient>
    </defs>
    <g id="Page-1" stroke="none" stroke-width="1" fill="none" fill-rule="evenodd">
        <g id="490" fill-rule="nonzero">
            <path d="M60,0 L60,60 L0,60 L0,0 L60,0 Z M53.3046389,6.96632941 L6.69536107,6.96632941 L6.69536107,53.0336706 L53.3046389,53.0336706 L53.3046389,6.96632941 Z" id="Rectangle" fill="url(#radialGradient-1)"></path>
            <path d="M37.8127969,9.33656295 C38.179203,8.68088877 39.0077629,8.4463907 39.663437,8.81279686 C40.3191112,9.17920303 40.5536093,10.0077629 40.1872031,10.663437 L30.6872031,27.663437 L30.667,27.695 L30.6492553,27.7276806 L30.629,27.755 L30.6132412,27.7813964 L30.592,27.808 L30.5734139,27.8356672 L30.552,27.859 L30.5293777,27.8892212 L30.504,27.915 L30.4866481,27.9365429 L30.46,27.96 L30.4365429,27.9866481 L30.415,28.004 L30.3892212,28.0293777 L30.359,28.052 L30.3356672,28.0734139 L30.308,28.092 L30.2813964,28.1132412 L30.255,28.129 L30.2276806,28.1492553 L30.195,28.167 L30.163437,28.1872031 L30.135,28.201 L30.1135135,28.213909 L30.066,28.234 L30.0386272,28.2489063 L30.026,28.253 L29.9940961,28.2671117 L29.938,28.286 L29.9106955,28.2967891 L29.89,28.301 L29.8703586,28.3086002 L29.833,28.317 L29.7805723,28.3311147 L29.757,28.335 L29.7432312,28.3381112 L29.707,28.343 L29.6491878,28.3521465 L29.625,28.353 L29.6136441,28.3553814 L29.577,28.356 L29.5174723,28.3601476 L29.5,28.359 L29.4825277,28.3601476 L29.422,28.356 L29.3863559,28.3553814 L29.374,28.353 L29.3508122,28.3521465 L29.292,28.343 L29.2567688,28.3381112 L29.242,28.335 L29.2194277,28.3311147 L29.166,28.317 L29.1296414,28.3086002 L29.109,28.301 L29.0893045,28.2967891 L29.061,28.286 L29.0059039,28.2671117 L28.973,28.253 L28.9613728,28.2489063 L28.933,28.234 L28.8864865,28.213909 L28.864,28.201 L28.836563,28.1872031 L28.804,28.167 L28.7723194,28.1492553 L28.744,28.129 L28.7186036,28.1132412 L28.691,28.092 L28.6643328,28.0734139 L28.64,28.052 L28.6107788,28.0293777 L28.584,28.004 L28.5634571,27.9866481 L28.539,27.96 L28.5133519,27.9365429 L28.495,27.915 L28.4706223,27.8892212 L28.447,27.859 L28.4265861,27.8356672 L28.407,27.808 L28.3867588,27.7813964 L28.37,27.755 L28.3507447,27.7276806 L28.332,27.695 L28.3127969,27.663437 L18.8127969,10.663437 C18.4463907,10.0077629 18.6808888,9.17920303 19.336563,8.81279686 C19.9922371,8.4463907 20.820797,8.68088877 21.1872031,9.33656295 L29.5,24.211 L37.8127969,9.33656295 Z" id="Line-2" fill="url(#radialGradient-2)"></path>
            <path d="M36.5915452,37.4919054 C36.9996084,36.8613132 37.841605,36.6809178 38.4721972,37.088981 C39.1027894,37.4970443 39.2831847,38.3390408 38.8751215,38.9696331 L31.4084548,50.5080946 C31.1024074,50.9810387 30.5522725,51.2007472 30.0303019,51.1088907 L29.9996667,51.1017692 L29.9696981,51.1088907 C29.491225,51.1930925 28.9890861,51.0154932 28.6729846,50.6210211 L28.5915452,50.5080946 L21.1248785,38.9696331 C20.7168153,38.3390408 20.8972106,37.4970443 21.5278028,37.088981 C22.158395,36.6809178 23.0003916,36.8613132 23.4084548,37.4919054 L29.9996667,47.6777692 L36.5915452,37.4919054 Z" id="Line-2-Copy" fill="url(#radialGradient-3)" transform="translate(30, 44) scale(1, -1) translate(-30, -44)"></path>
            <path d="M38.5,21.14 C39.2511073,21.14 39.86,21.7488927 39.86,22.5 L39.86,33.5 C39.86,34.2511073 39.2511073,34.86 38.5,34.86 C37.7488927,34.86 37.14,34.2511073 37.14,33.5 L37.14,22.5 C37.14,21.7488927 37.7488927,21.14 38.5,21.14 Z" id="Line-3" fill="url(#radialGradient-4)"></path>
            <path d="M19.5,21.14 C20.2511073,21.14 20.86,21.7488927 20.86,22.5 L20.86,33.5 C20.86,34.2511073 20.2511073,34.86 19.5,34.86 C18.7488927,34.86 18.14,34.2511073 18.14,33.5 L18.14,22.5 C18.14,21.7488927 18.7488927,21.14 19.5,21.14 Z" id="Line-3-Copy" fill="url(#radialGradient-4)"></path>
        </g>
    </g>
</svg>