<?xml version="1.0" encoding="UTF-8"?>
<svg width="60px" height="61px" viewBox="0 0 60 61" version="1.1" xmlns="http://www.w3.org/2000/svg" xmlns:xlink="http://www.w3.org/1999/xlink">
    <title>493</title>
    <defs>
        <radialGradient cx="50%" cy="50.0106812%" fx="50%" fy="50.0106812%" r="51.7461333%" gradientTransform="translate(0.5, 0.5001), scale(1, 0.9952), translate(-0.5, -0.5001)" id="radialGradient-1">
            <stop stop-color="#FF9900" offset="0%"></stop>
            <stop stop-color="#DB8402" offset="100%"></stop>
        </radialGradient>
        <radialGradient cx="50%" cy="50.0106812%" fx="50%" fy="50.0106812%" r="56.7202224%" gradientTransform="translate(0.5, 0.5001), scale(0.9123, 1), translate(-0.5, -0.5001)" id="radialGradient-2">
            <stop stop-color="#FF9900" offset="0%"></stop>
            <stop stop-color="#DB8402" offset="100%"></stop>
        </radialGradient>
        <radialGradient cx="50%" cy="50.0106812%" fx="50%" fy="50.0106812%" r="65.6843912%" gradientTransform="translate(0.5, 0.5001), scale(0.7878, 1), translate(-0.5, -0.5001)" id="radialGradient-3">
            <stop stop-color="#FF9900" offset="0%"></stop>
            <stop stop-color="#DB8402" offset="100%"></stop>
        </radialGradient>
        <radialGradient cx="50%" cy="50.0106812%" fx="50%" fy="50.0106812%" r="51.7461333%" gradientTransform="translate(0.5, 0.5001), scale(1, 0.1973), translate(-0.5, -0.5001)" id="radialGradient-4">
            <stop stop-color="#FF9900" offset="0%"></stop>
            <stop stop-color="#DB8402" offset="100%"></stop>
        </radialGradient>
    </defs>
    <g id="Page-1" stroke="none" stroke-width="1" fill="none" fill-rule="evenodd">
        <g id="493">
            <path d="M60,0 L60,60.29 L0,60.29 L0,0 L60,0 Z M53.3046389,7 L6.69536107,7 L6.69536107,53.29 L53.3046389,53.29 L53.3046389,7 Z" id="Rectangle" fill="url(#radialGradient-1)" fill-rule="nonzero"></path>
            <path d="M37.8127969,9.38168967 C38.179203,8.7228464 39.0077629,8.48721492 39.663437,8.85539205 C40.3191112,9.22356918 40.5536093,10.0561337 40.1872031,10.714977 L30.6872031,27.7971437 L30.667,27.8288592 L30.6492553,27.8616978 L30.629,27.8891492 L30.6132412,27.9156732 L30.592,27.9424053 L30.5734139,27.9702062 L30.552,27.9936518 L30.5293777,28.0240191 L30.504,28.0499225 L30.4866481,28.0715696 L30.46,28.09514 L30.4365429,28.1219169 L30.415,28.1393527 L30.3892212,28.164853 L30.359,28.1875847 L30.3356672,28.2091021 L30.308,28.227778 L30.2813964,28.2491218 L30.255,28.2649568 L30.2276806,28.28531 L30.195,28.3031405 L30.163437,28.3234413 L30.135,28.3373048 L30.1135135,28.3502762 L30.066,28.3704643 L30.0386272,28.3854427 L30.026,28.3895562 L29.9940961,28.4037361 L29.938,28.4227157 L29.9106955,28.4335569 L29.89,28.4377882 L29.8703586,28.4454251 L29.833,28.4538655 L29.7805723,28.4680484 L29.757,28.4719525 L29.7432312,28.4750788 L29.707,28.4799912 L29.6491878,28.4891818 L29.625,28.4900395 L29.6136441,28.4924325 L29.577,28.493054 L29.5174723,28.4972217 L29.5,28.4960685 L29.4825277,28.4972217 L29.422,28.493054 L29.3863559,28.4924325 L29.374,28.4900395 L29.3508122,28.4891818 L29.292,28.4799912 L29.2567688,28.4750788 L29.242,28.4719525 L29.2194277,28.4680484 L29.166,28.4538655 L29.1296414,28.4454251 L29.109,28.4377882 L29.0893045,28.4335569 L29.061,28.4227157 L29.0059039,28.4037361 L28.973,28.3895562 L28.9613728,28.3854427 L28.933,28.3704643 L28.8864865,28.3502762 L28.864,28.3373048 L28.836563,28.3234413 L28.804,28.3031405 L28.7723194,28.28531 L28.744,28.2649568 L28.7186036,28.2491218 L28.691,28.227778 L28.6643328,28.2091021 L28.64,28.1875847 L28.6107788,28.164853 L28.584,28.1393527 L28.5634571,28.1219169 L28.539,28.09514 L28.5133519,28.0715696 L28.495,28.0499225 L28.4706223,28.0240191 L28.447,27.9936518 L28.4265861,27.9702062 L28.407,27.9424053 L28.3867588,27.9156732 L28.37,27.8891492 L28.3507447,27.8616978 L28.332,27.8288592 L28.3127969,27.7971437 L18.8127969,10.714977 C18.4463907,10.0561337 18.6808888,9.22356918 19.336563,8.85539205 C19.9922371,8.48721492 20.820797,8.7228464 21.1872031,9.38168967 L29.5,24.3280198 L37.8127969,9.38168967 Z" id="Line-2" fill="url(#radialGradient-2)" fill-rule="nonzero"></path>
            <path d="M36.5915452,37.6731163 C36.9996084,37.0394762 37.841605,36.8582089 38.4721972,37.2682445 C39.1027894,37.67828 39.2831847,38.5243462 38.8751215,39.1579863 L31.4084548,50.752217 C31.1024074,51.2274471 30.5522725,51.4482175 30.0303019,51.355917 L29.9996667,51.3487611 L29.9696981,51.355917 C29.491225,51.4405258 28.9890861,51.2620681 28.6729846,50.8656894 L28.5915452,50.752217 L21.1248785,39.1579863 C20.7168153,38.5243462 20.8972106,37.67828 21.5278028,37.2682445 C22.158395,36.8582089 23.0003916,37.0394762 23.4084548,37.6731163 L29.9996667,47.9082118 L36.5915452,37.6731163 Z" id="Line-2-Copy" fill="url(#radialGradient-3)" fill-rule="nonzero" transform="translate(30, 44.2127) scale(1, -1) translate(-30, -44.2127)"></path>
            <path d="M38.5,21.2421767 C39.2511073,21.2421767 39.86,21.8540124 39.86,22.60875 L39.86,33.6619167 C39.86,34.4166543 39.2511073,35.02849 38.5,35.02849 C37.7488927,35.02849 37.14,34.4166543 37.14,33.6619167 L37.14,22.60875 C37.14,21.8540124 37.7488927,21.2421767 38.5,21.2421767 Z" id="Line-3" fill="url(#radialGradient-4)" fill-rule="nonzero"></path>
            <path d="M19.5,21.2421767 C20.2511073,21.2421767 20.86,21.8540124 20.86,22.60875 L20.86,33.6619167 C20.86,34.4166543 20.2511073,35.02849 19.5,35.02849 C18.7488927,35.02849 18.14,34.4166543 18.14,33.6619167 L18.14,22.60875 C18.14,21.8540124 18.7488927,21.2421767 19.5,21.2421767 Z" id="Line-3-Copy" fill="url(#radialGradient-4)" fill-rule="nonzero"></path>
            <polyline id="Path" fill="#00CC00" points="45.65 9.95 37 3 47.5 7.1 56.3 5.65 51.9 8.95 58.85 13.9 49.4 11.35 41.4 14.7 45.65 9.95"></polyline>
        </g>
    </g>
</svg>