<?xml version="1.0" encoding="UTF-8"?>
<svg width="30px" height="30px" viewBox="0 0 30 30" version="1.1" xmlns="http://www.w3.org/2000/svg" xmlns:xlink="http://www.w3.org/1999/xlink">
    <title>511</title>
    <g id="Page-1" stroke="none" stroke-width="1" fill="none" fill-rule="evenodd">
        <g id="511" fill-rule="nonzero">
            <path d="M30,0 L30,30 L0,30 L0,0 L30,0 Z M26.6523195,3.4831647 L3.34768054,3.4831647 L3.34768054,26.5168353 L26.6523195,26.5168353 L26.6523195,3.4831647 Z" id="Rectangle" fill="#CCFF00"></path>
            <path d="M18.7098851,4.3533437 C18.8954458,4.02085833 19.3150569,3.90194687 19.6471127,4.08774752 C19.9791686,4.27354816 20.0979265,4.69370199 19.9123658,5.02618736 L15.1012403,13.6467055 L15.0910088,13.6627108 L15.0820223,13.6792828 L15.0717643,13.6931361 L15.0637835,13.7065215 L15.0530262,13.7200118 L15.0436136,13.7340416 L15.0327688,13.7458734 L15.0213121,13.7611983 L15.00846,13.7742704 L14.9996724,13.7851946 L14.9861769,13.7970894 L14.9742974,13.8106024 L14.9633873,13.8194014 L14.9503321,13.8322701 L14.935027,13.8437416 L14.9232105,13.8546004 L14.9091989,13.8640252 L14.8957259,13.8747964 L14.8823579,13.8827875 L14.8685224,13.8930588 L14.8519718,13.9020569 L14.8359873,13.9123017 L14.8215858,13.9192979 L14.8107043,13.925844 L14.7866418,13.9360319 L14.7727793,13.9435907 L14.7663844,13.9456666 L14.7502272,13.9528225 L14.7218182,13.9624005 L14.7079903,13.9678716 L14.6975094,13.9700069 L14.6875623,13.9738609 L14.6686426,13.9781203 L14.6420914,13.9852777 L14.6301536,13.9872479 L14.6231806,13.9888256 L14.6048319,13.9913046 L14.5755538,13.9959427 L14.5633043,13.9963755 L14.5575533,13.9975831 L14.5389954,13.9978968 L14.5088486,14 L14.5,13.9994181 L14.4911514,14 L14.4604981,13.9978968 L14.4424467,13.9975831 L14.4361893,13.9963755 L14.4244462,13.9959427 L14.3946617,13.9913046 L14.3768194,13.9888256 L14.36934,13.9872479 L14.3579086,13.9852777 L14.330851,13.9781203 L14.3124377,13.9738609 L14.3019842,13.9700069 L14.2920097,13.9678716 L14.2776754,13.9624005 L14.2497728,13.9528225 L14.2331091,13.9456666 L14.2272207,13.9435907 L14.2128518,13.9360319 L14.1892957,13.925844 L14.1779078,13.9192979 L14.1640127,13.9123017 L14.1475218,13.9020569 L14.1314776,13.8930588 L14.1171357,13.8827875 L14.1042741,13.8747964 L14.0902947,13.8640252 L14.0767895,13.8546004 L14.0644665,13.8437416 L14.0496679,13.8322701 L14.0361062,13.8194014 L14.0257026,13.8106024 L14.0133167,13.7970894 L14.0003276,13.7851946 L13.9910336,13.7742704 L13.9786879,13.7611983 L13.9667247,13.7458734 L13.9563864,13.7340416 L13.9464674,13.7200118 L13.9362165,13.7065215 L13.9277293,13.6931361 L13.9179777,13.6792828 L13.9084848,13.6627108 L13.8987597,13.6467055 L9.08763417,5.02618736 C8.90207353,4.69370199 9.02083139,4.27354816 9.35288726,4.08774752 C9.68494313,3.90194687 10.1045542,4.02085833 10.2901149,4.3533437 L14.5,11.8960116 L18.7098851,4.3533437 Z" id="Line-2" fill="#CCFF00"></path>
            <path d="M17.761887,18.305011 C17.9638208,17.9954372 18.3804906,17.9068766 18.692545,18.1072052 C19.0045993,18.3075338 19.0938696,18.7208913 18.8919358,19.030465 L15.1969869,24.694989 C15.0455365,24.9271693 14.7732971,25.0350298 14.5149952,24.9899351 L14.499835,24.986439 L14.4850048,24.9899351 C14.248228,25.0312719 13.9997399,24.9440839 13.8433142,24.7504275 L13.8030131,24.694989 L10.1080642,19.030465 C9.90613035,18.7208913 9.99540067,18.3075338 10.307455,18.1072052 C10.6195094,17.9068766 11.0361792,17.9954372 11.238113,18.305011 L14.499835,23.3055104 L17.761887,18.305011 Z" id="Line-2-Copy" fill="#CCFF00" transform="translate(14.5, 21.5) scale(1, -1) translate(-14.5, -21.5)"></path>
            <path d="M19.5,10 C19.7761424,10 20,10.3106596 20,10.6938776 L20,16.3061224 C20,16.6893404 19.7761424,17 19.5,17 C19.2238576,17 19,16.6893404 19,16.3061224 L19,10.6938776 C19,10.3106596 19.2238576,10 19.5,10 Z" id="Line-3" fill="#FFFFFF"></path>
            <path d="M9.5,10 C9.77614237,10 10,10.3106596 10,10.6938776 L10,16.3061224 C10,16.6893404 9.77614237,17 9.5,17 C9.22385763,17 9,16.6893404 9,16.3061224 L9,10.6938776 C9,10.3106596 9.22385763,10 9.5,10 Z" id="Line-3-Copy" fill="#FFFFFF"></path>
        </g>
    </g>
</svg>