<?xml version="1.0" encoding="UTF-8"?>
<svg width="1080px" height="480px" viewBox="0 0 1080 480" version="1.1" xmlns="http://www.w3.org/2000/svg" xmlns:xlink="http://www.w3.org/1999/xlink">
    <title>568</title>
    <g id="Page-1" stroke="none" stroke-width="1" fill="none" fill-rule="evenodd">
        <g id="568" fill="#999999">
            <path d="M821.05,3 L820.8,3.3 C820.9,2.4 820.983333,2.3 821.05,3 M697.45,0 L697.45,2.15 L697.8,2.25 L697.6,3.9 L696.3,10.05 L695.55,12.85 C694.95,14.7166667 694.45,16.7666667 694.05,19 C693.683333,21.1333333 693.1,23.1666667 692.3,25.1 L690.6,28.8 C689.766667,30.5 688.85,32.55 687.85,34.95 C685.35,40.8833333 682.95,46.85 680.65,52.85 C679.883333,54.8166667 679.366667,56.8666667 679.1,59 L678.6,60.8 C677.6,62.7 676.666667,65.0833333 675.8,67.95 L675.05,70.05 L672.8,74.9 L672.2,76.1 L670.65,78.75 C668.783333,81.3833333 667.116667,84.4166667 665.65,87.85 C664.416667,90.85 662.316667,94.3166667 659.35,98.25 C657.85,100.283333 656.3,102.1 654.7,103.7 L644.15,114.15 C642.45,115.75 640.733333,118.033333 639,121 C637.666667,123.3 635.983333,125.616667 633.95,127.95 C633.316667,128.65 632.783333,129.4 632.35,130.2 C631.116667,132.4 629.983333,134.666667 628.95,137 C628.65,137.666667 628.266667,138.05 627.8,138.15 C626.033333,138.516667 624.966667,139.783333 624.6,141.95 L624.5,142.95 C624.6,144.416667 624.116667,145.233333 623.05,145.4 C622.683333,145.466667 622.433333,145.7 622.3,146.1 C621.433333,148.6 620,150.9 618,153 C617.666667,153.333333 617.433333,153.7 617.3,154.1 L615.5,153.45 L613.45,159.15 C613.15,160.05 613.016667,161 613.05,162 L613.1,165.95 C612.9,174.383333 610.933333,182.433333 607.2,190.1 C601.74307,201.369046 596.880429,212.982154 592.612078,224.939325 C525.481747,233.964936 480.109021,238.984611 456.492187,240 C443.608724,240.553916 430.653018,225.213928 421.34375,225.539063 C409.245599,225.961601 397.222106,240 386.359375,240 C384.482167,240 380.766291,240.695588 375.812671,241.858073 C382.041035,219.46261 385.15625,198.176365 385.15625,178 C385.15625,126.810764 365.104167,67.4774306 325,0 L697.45,0 Z M199.018175,54.7696524 L199.018175,56.6844924 C199.004865,72.2196587 198.665474,85.2388279 198,95.742 C197.18258,108.643333 183.046875,120.776715 183.046875,134.1866 C183.046875,148.704421 220.659116,220.463842 221.617188,240 C222.828336,264.696692 217.293316,295.693285 205.012128,332.989781 C202.535754,339.226297 200.198764,345.896472 198,353 L325,353 L325.064493,352.895716 C325.7662,352.929731 326.463453,352.964492 327.15625,353 C331.542818,353.224822 338.135483,358.346534 345.035153,364.068859 L345.9997,364.870788 C354.695108,372.115455 363.735385,379.992188 369.359375,379.992188 C397.082451,379.992188 426.241329,356.742112 471.46875,353 C487.304463,351.689755 509.513194,350.956386 538.094942,350.799893 L535.8,353.85 C534.966667,355.05 534.4,356.1 534.1,357 C533.366667,359.3 532.05,361.016667 530.15,362.15 C529.75,362.383333 529.483333,362.7 529.35,363.1 C529.15,363.7 528.9,364.233333 528.6,364.7 L527.3,366.25 C524.033333,369.316667 520.616667,373.233333 517.05,378 L511,385.95 L510.45,387.1 C509.716667,390.6 507.95,393.266667 505.15,395.1 L504.2,396.1 C503.1,398 501.583333,400.2 499.65,402.7 C498.383333,404.366667 497.533333,405.8 497.1,407 L495.5,411.2 C494.6,413.133333 493.783333,414.733333 493.05,416 C491.85,418.133333 490.716667,420.4 489.65,422.8 C488.916667,424.4 488.333333,426.466667 487.9,429 C487.333333,432.333333 486.633333,435.65 485.8,438.95 L485.55,441 C485.483333,443.6 484.95,445.916667 483.95,447.95 C483.216667,449.483333 482.766667,451.15 482.6,452.95 L482.5,454.05 C482.2,459.35 482.3,464.816667 482.8,470.45 L482,473.95 C481.8,475.083333 481.3,475.966667 480.5,476.6 L479.6,477.75 L478.6,479.7 L0,480 L0,0 L198,0 C198.665474,20.7725479 199.004865,39.0290987 199.018175,54.7696524 Z M820.65,4.15 C821.25,2.98333333 821.366667,1.6 821,0 L1080,0 L1080,480 L601,480 L601,478.95 L598.1,477.8 C599.233333,475.533333 599.816667,473.266667 599.85,471 C599.916667,467.5 600.8,464.7 602.5,462.6 C602.833333,462.2 603.05,461.683333 603.15,461.05 C603.383333,459.683333 603.716667,458.35 604.15,457.05 L604.65,454.95 L605.35,450.05 L605.85,447.95 C606.683333,445.416667 607.916667,442.683333 609.55,439.75 L610.25,438.05 C610.616667,436.816667 611.033333,435.966667 611.5,435.5 L612.35,434.15 C613.016667,432.516667 613.4,431.116667 613.5,429.95 C613.7,428.15 614.116667,426.466667 614.75,424.9 L615.9,421 C616.366667,418.566667 617.05,416.216667 617.95,413.95 L621.1,406.05 C623.1,401.283333 625.983333,396.866667 629.75,392.8 L631.1,391.05 C634.033333,386.583333 637.233333,382.15 640.7,377.75 L643.35,379 C644.983333,375.6 646.816667,372.233333 648.85,368.9 L650.65,365.9 L653.3,361.2 L659.9,349.95 L662.45,345.2 C664.216667,341.466667 666.2,337.816667 668.4,334.25 C672.266667,327.95 676.433333,321.833333 680.9,315.9 L684.35,311.25 L687.6,306.75 L689.35,304.2 C692.916667,298.766667 695.816667,293.033333 698.05,287 L704.2,270.1 C705.4,266.733333 706.866667,263.3 708.6,259.8 L710.3,256.15 L718.05,238.05 C720.716667,231.583333 722.866667,224.933333 724.5,218.1 C724.833333,216.7 725.366667,215.35 726.1,214.05 C732.533333,202.583333 737.166667,190.9 740,179 C740.866667,175.266667 742.4,171.833333 744.6,168.7 C745.833333,166.966667 746.75,165.1 747.35,163.1 L748.65,158.9 C749.316667,156.766667 749.816667,154.566667 750.15,152.3 C753.75,150.866667 755.516667,148.766667 755.45,146 C755.45,145.666667 755.583333,145.316667 755.85,144.95 C757.216667,142.95 758.383333,140.683333 759.35,138.15 C760.616667,134.816667 762.033333,132.016667 763.6,129.75 L765.05,127.05 C765.516667,125.816667 765.983333,124.966667 766.45,124.5 C766.783333,124.166667 767.05,123.7 767.25,123.1 L767.85,121.95 C770.55,117.95 773.25,113.633333 775.95,109 C777.116667,107.033333 778.35,105.566667 779.65,104.6 L781.1,103.15 C784.666667,98.45 788.35,94.1333333 792.15,90.2 C793.983333,88.3 795.3,86.25 796.1,84.05 L796.9,82 L804.3,65.15 L806.35,60.15 L807.75,55.95 C808.616667,52.7166667 809.933333,49.6833333 811.7,46.85 C813.3,44.25 814.183333,41.3 814.35,38 C814.416667,37 814.6,36 814.9,35 C815.766667,32.2 816.066667,29.2 815.8,26 C815.466667,22.4 816.016667,19.6166667 817.45,17.65 L818.2,16.05 L818.45,14 C818.483333,11.4 818.833333,9.01666667 819.5,6.85 C819.8,5.95 820.183333,5.08333333 820.65,4.25 L820.65,4.15" id="Shape"></path>
        </g>
    </g>
</svg>