<?xml version="1.0" encoding="UTF-8"?>
<svg width="640px" height="480px" viewBox="0 0 640 480" version="1.1" xmlns="http://www.w3.org/2000/svg" xmlns:xlink="http://www.w3.org/1999/xlink">
    <title>Frame Copy</title>
    <defs>
        <linearGradient x1="50%" y1="0%" x2="50%" y2="100%" id="linearGradient-1">
            <stop stop-color="#40AAFF" offset="0%"></stop>
            <stop stop-color="#63A8FF" offset="100%"></stop>
        </linearGradient>
        <linearGradient x1="48.7012987%" y1="4.18970766%" x2="48.7012987%" y2="95.8200697%" id="linearGradient-2">
            <stop stop-color="#ADCA82" offset="0%"></stop>
            <stop stop-color="#6BCD29" offset="100%"></stop>
        </linearGradient>
        <linearGradient x1="50%" y1="0.0724975321%" x2="50%" y2="100.026219%" id="linearGradient-3">
            <stop stop-color="#BC9C6D" offset="0%"></stop>
            <stop stop-color="#937242" offset="100%"></stop>
        </linearGradient>
        <linearGradient x1="52.9441046%" y1="33.7314975%" x2="48.232366%" y2="66.9909114%" id="linearGradient-4">
            <stop stop-color="#ADCA82" offset="0%"></stop>
            <stop stop-color="#6BCD29" offset="100%"></stop>
        </linearGradient>
        <linearGradient x1="51.4765815%" y1="0.232855741%" x2="49.3424049%" y2="99.2764671%" id="linearGradient-5">
            <stop stop-color="#BC9C6D" offset="0%"></stop>
            <stop stop-color="#937242" offset="100%"></stop>
        </linearGradient>
    </defs>
    <g id="Frame-Copy" stroke="none" fill="none" fill-rule="evenodd">
        <rect id="Rectangle-3" fill="url(#linearGradient-1)" x="0" y="0" width="640" height="480"></rect>
        <path d="M181.416408,76.7055288 C178.90636,73.4282302 177.651336,70.2473228 177.651336,67.1628065 L175.62399,67.1628065 L156.219391,76.4163554 C125.905739,91.26059 103.41185,105.622869 88.7377253,119.503192 C88.3515641,102.34557 92.7924177,87.9832914 102.060286,76.4163554 C115.189766,59.8370803 138.166356,49.1376644 170.990056,44.3181077 C151.875078,25.81101 123.878392,11.9306867 87,2.67713781 L87,-1.08211642 C133.532422,-19.7819964 166.838823,-6.86558446 186.919204,37.6671195 C202.944893,0.652923996 233.355086,-17.5650003 278.149782,-16.9866535 C247.64305,-1.56407209 225.631862,17.4249813 212.116221,39.9805067 C241.27139,42.6794584 266.371867,54.8247413 287.417651,76.4163554 C295.527035,84.7059929 303.057178,94.5378886 310.00808,105.912042 C288.383054,92.8028482 265.792625,82.9709525 242.236793,76.4163554 L209.799254,69.4761937 L207.482287,69.4761937 C207.675368,71.0184519 207.289207,72.56071 206.323804,74.1029681 L204.296457,76.7055288 L181.416408,76.7055288" id="Path" fill="url(#linearGradient-2)"></path>
        <path d="M204.296457,76.7055288 C214.722809,170.590493 217.329397,268.234712 212.116221,369.638185 L153.902424,369.638185 C169.928113,265.150196 179.099441,167.505977 181.416408,76.7055288 L204.296457,76.7055288" id="Path" fill="url(#linearGradient-3)"></path>
        <path d="M427.014916,81.3323032 C424.89103,77.8622224 423.925627,74.6813149 424.118707,71.7895809 L422.091361,71.5004075 L402.397141,79.018916 C370.731925,91.1641989 347.079553,103.598655 331.440025,116.322285 C332.598508,99.164663 338.197845,85.1879486 348.238036,74.3921415 C362.71908,59.1623424 386.564533,50.4871403 419.774394,48.3665354 C402.20406,28.3171795 375.462399,12.1234689 339.54941,-0.21459621 L339.83903,-3.97385044 C387.723016,-18.6253028 419.774394,-3.0099391 435.993163,42.8722407 C455.108142,7.40030338 486.869898,-8.21506034 531.278434,-3.97385044 C499.806298,8.74977926 476.347006,25.9074011 460.900559,47.4990151 C489.669567,52.5113541 513.7081,66.5844597 533.016159,89.7183319 C540.353221,98.7790985 547.014502,109.285732 553,121.238233 C532.533458,106.201216 510.908432,94.4414974 488.124922,85.9590776 L456.266625,76.7055288 L453.949658,76.4163554 L452.211933,80.7539564 L449.894966,83.0673436 L427.014916,81.3323032" id="Path" fill="url(#linearGradient-4)"></path>
        <path d="M427.014916,81.3323032 L449.894966,83.0673436 C452.598094,177.723437 447.095297,275.367656 433.386576,376 L375.462399,371.084052 C399.983634,268.331103 417.167806,171.747187 427.014916,81.3323032" id="Path" fill="url(#linearGradient-5)"></path>
        <path d="M529.306692,354.705882 L530.218683,355.307657 C531.767356,356.329544 533.05797,357.69663 533.989117,359.3015 L629.543519,523.993448 C632.869475,529.725871 630.918648,537.069138 625.186226,540.395095 C623.356732,541.456568 621.279179,542.015625 619.164049,542.015625 L23.756987,542.015625 C17.12957,542.015625 11.756987,536.643042 11.756987,530.015625 C11.756987,527.452698 12.5775477,524.957094 14.0985087,522.894263 L138.106692,354.705882 L138.106692,354.705882 C141.79558,350.812617 146.617803,347.270247 152.573358,344.078772 C167.951136,338.447741 188.59558,333.894459 214.506692,330.418926 L233.906692,328.163171 C262.173358,325.172208 290.462247,323.484569 318.773358,323.100256 L328.579063,323.000619 C328.619704,323.000206 328.660347,323 328.70099,323 L331.440025,323 L350.637483,323 C350.816933,323 350.99636,323.004025 351.175629,323.012073 L359.792606,323.398894 C359.824218,323.400313 359.855825,323.401858 359.887426,323.403527 L367.906692,323.82711 L367.906692,323.82711 C396.306692,325.347656 423.128914,327.636829 448.373358,330.694629 L457.106692,332.148338 C487.462247,337.51202 511.528914,345.031202 529.306692,354.705882 Z" id="Path-Copy" fill="#C89112" transform="translate(320, 432.5078) scale(1, -1) translate(-320, -432.5078)"></path>
    </g>
</svg>