<?xml version="1.0" encoding="UTF-8"?>
<svg width="477px" height="594px" viewBox="0 0 477 594" version="1.1" xmlns="http://www.w3.org/2000/svg" xmlns:xlink="http://www.w3.org/1999/xlink">
    <title>107</title>
    <defs>
        <linearGradient x1="49.9938987%" y1="8.09525372%" x2="49.9938987%" y2="91.9047463%" id="linearGradient-1">
            <stop stop-color="#FFFF00" offset="0%"></stop>
            <stop stop-color="#E3E302" offset="100%"></stop>
        </linearGradient>
    </defs>
    <g id="107" stroke="none" fill="none" fill-rule="evenodd" stroke-width="1">
        <g id="Group" transform="translate(-88.4, 49)">
            <path d="M180.3,33 C186.6,23.7666667 193.95,14.95 202.35,6.55 C206.516667,2.38333333 210.75,-1.5 215.05,-5.1 C246.65,-31.6 283.65,-44.9 326.05,-45 L327.1,-45 C375.466667,-44.9 416.533333,-27.8333333 450.3,6.2 L450.6,6.55 L450.95,6.85 C475.25,31.3166667 490.933333,59.3 498,90.8 L499.75,99.5 L499.85,100.25 C501.383333,109.983333 502.15,120.1 502.15,130.6 C502.15,138.7 501.7,146.483333 500.8,153.95 L500.3,157.5 L499.25,164.4 L499.25,164.75 C495.05,188.083333 486.25,209.516667 472.85,229.05 C492.383333,260.216667 502.15,295.683333 502.15,335.45 L502.15,336.05 C502.05,385.516667 486.666667,428.75 456,465.75 C451.866667,470.683333 447.466667,475.533333 442.8,480.3 L442.4,480.7 C437.233333,485.8 431.966667,490.566667 426.6,495 C421.566667,499.1 416.45,502.916667 411.25,506.45 L410.5,506.95 C377.433333,529.083333 339.85,540.2 297.75,540.3 L297.15,540.3 C287.45,540.3 277.933333,539.716667 268.6,538.55 L268.2,538.55 C229.166667,533.35 194.683333,517.8 164.75,491.9 C160.716667,488.433333 156.8,484.783333 153,480.95 L152.75,480.7 L152.65,480.65 L152.3,480.3 C147.566667,475.533333 143.116667,470.666667 138.95,465.7 C108.016667,428.733333 92.5,385.516667 92.4,336.05 L92.4,335.45 L92.4,334.95 C92.5,285.816667 107.816667,243 138.35,206.5 L139.05,205.75 C143.183333,200.816667 147.6,196 152.3,191.3 L152.75,190.9 C154.683333,188.633333 156.8,186.5 159.1,184.5 L159.05,184.05 C153.616667,167.416667 150.9,149.6 150.9,130.6 L150.9,130.15 C151,94.1166667 160.633333,62.0166667 179.8,33.85 L189.6,40 L180.3,33" id="Path" fill="url(#linearGradient-1)"></path>
            <path d="M499.75,99.5 L509.6,104.3 L509.6,148.2 L500.8,153.95 C501.7,146.483333 502.15,138.7 502.15,130.6 C502.15,120.1 501.383333,109.983333 499.85,100.25 L499.75,99.5" id="Path" fill="#FFFF00"></path>
            <path d="M180.3,33 C186.6,23.7666667 193.95,14.95 202.35,6.55 C206.516667,2.38333333 210.75,-1.5 215.05,-5.1 C246.65,-31.6 283.65,-44.9 326.05,-45 L327.1,-45 C375.466667,-44.9 416.533333,-27.8333333 450.3,6.2 L450.6,6.55 L450.95,6.85 C475.25,31.3166667 490.933333,59.3 498,90.8 L499.75,99.5 L499.85,100.25 C501.383333,109.983333 502.15,120.1 502.15,130.6 C502.15,138.7 501.7,146.483333 500.8,153.95 L500.3,157.5 L499.25,164.4 L499.25,164.75 C495.05,188.083333 486.25,209.516667 472.85,229.05 C492.383333,260.216667 502.15,295.683333 502.15,335.45 L502.15,336.05 C502.05,385.516667 486.666667,428.75 456,465.75 C451.866667,470.683333 447.466667,475.533333 442.8,480.3 L442.4,480.7 C437.233333,485.8 431.966667,490.566667 426.6,495 C421.566667,499.1 416.45,502.916667 411.25,506.45 L410.5,506.95 C377.433333,529.083333 339.85,540.2 297.75,540.3 L297.15,540.3 C287.45,540.3 277.933333,539.716667 268.6,538.55 L268.2,538.55 C229.166667,533.35 194.683333,517.8 164.75,491.9 C160.716667,488.433333 156.8,484.783333 153,480.95 L152.75,480.7 L152.65,480.65 L152.3,480.3 C147.566667,475.533333 143.116667,470.666667 138.95,465.7 C108.016667,428.733333 92.5,385.516667 92.4,336.05 L92.4,335.45 L92.4,334.95 C92.5,285.816667 107.816667,243 138.35,206.5 L139.05,205.75 C143.183333,200.816667 147.6,196 152.3,191.3 L152.75,190.9 C154.683333,188.633333 156.8,186.5 159.1,184.5 L159.05,184.05 C153.616667,167.416667 150.9,149.6 150.9,130.6 L150.9,130.15 C151,94.1166667 160.633333,62.0166667 179.8,33.85 L180.3,33 Z" id="Path" stroke="#000000" stroke-width="12" stroke-linecap="round" stroke-linejoin="round"></path>
            <path d="M499.65,100.2 L560.5,130.6 L500.2,157.55 C501.4,148.95 502,139.966667 502,130.6 C502,120.066667 501.216667,109.933333 499.65,100.2 M502,130.6 L560.5,130.6 L502,130.6" id="Shape" fill="#FFCC00"></path>
            <path d="M411.85,20.6 C401.716667,22.1333333 392.733333,26.8166667 384.9,34.65 C374.366667,45.1833333 369.3,57.6666667 369.7,72.1 C369.7,86.9333333 374.766667,99.4166667 384.9,109.55 C392.733333,117.35 401.916667,122.233333 412.45,124.2 C404.25,128.466667 395.066667,130.6 384.9,130.6 C368.9,130.6 355.05,124.95 343.35,113.65 C332.05,102.316667 326.4,88.4666667 326.4,72.1 C326.4,56.1 332.05,42.25 343.35,30.55 C352.35,21.55 363.083333,16.2833333 375.55,14.75 C378.283333,13.95 381.016667,13.55 383.75,13.55 L384.9,13.55 L386.1,13.55 L404.8,17.65 L405.4,17.65 C407.733333,18.45 409.883333,19.4333333 411.85,20.6 M404.8,17.65 C402.066667,16.4833333 401.3,16.1 402.5,16.5 L404.8,17.65" id="Shape" fill="#FFFFFF"></path>
            <path d="M411.85,20.6 C415.75,22.1333333 419.45,24.2666667 422.95,27 L425.9,29.95 L426.5,30.55 C428.433333,32.4833333 430.183333,34.6166667 431.75,36.95 C433.683333,39.3166667 435.25,42.05 436.45,45.15 C433.716667,43.9833333 430.4,43.4 426.5,43.4 C417.9,43.4 410.866667,46.1333333 405.4,51.6 C399.933333,57.0666667 397.4,63.9 397.8,72.1 C397.4,80.3 399.933333,87.1166667 405.4,92.55 C411.266667,98.4166667 418.3,101.15 426.5,100.75 C430.4,100.75 433.9,100.366667 437,99.6 C434.266667,104.666667 430.766667,109.35 426.5,113.65 C422.2,117.95 417.516667,121.466667 412.45,124.2 C401.916667,122.233333 392.733333,117.35 384.9,109.55 C374.766667,99.4166667 369.7,86.9333333 369.7,72.1 C369.3,57.6666667 374.366667,45.1833333 384.9,34.65 C392.733333,26.8166667 401.716667,22.1333333 411.85,20.6" id="Path" fill="#99FF00"></path>
            <path d="M437,99.6 C433.9,100.366667 430.4,100.75 426.5,100.75 C418.3,101.15 411.266667,98.4166667 405.4,92.55 C399.933333,87.1166667 397.4,80.3 397.8,72.1 C397.4,63.9 399.933333,57.0666667 405.4,51.6 C410.866667,46.1333333 417.9,43.4 426.5,43.4 C430.4,43.4 433.716667,43.9833333 436.45,45.15 C439.55,50.6166667 441.683333,56.6666667 442.85,63.3 L443.45,72.1 C443.45,78.3333333 442.666667,84.1833333 441.1,89.65 C440.7,90.4166667 440.5,91.3833333 440.5,92.55 L437,99.6" id="Path" fill="#000000"></path>
            <line x1="560.5" y1="130.6" x2="502" y2="130.6" id="Path" stroke="#B39001" stroke-width="8" stroke-linecap="round" stroke-linejoin="round"></line>
            <path d="M436.45,45.15 C435.25,42.05 433.683333,39.3166667 431.75,36.95 C430.183333,34.6166667 428.433333,32.4833333 426.5,30.55 L425.9,29.95 L422.95,27 C419.45,24.2666667 415.75,22.1333333 411.85,20.6 C409.883333,19.4333333 407.733333,18.45 405.4,17.65 L404.8,17.65 L386.1,13.55 L384.9,13.55 L383.75,13.55 C381.016667,13.55 378.283333,13.95 375.55,14.75 C363.083333,16.2833333 352.35,21.55 343.35,30.55 C332.05,42.25 326.4,56.1 326.4,72.1 C326.4,88.4666667 332.05,102.316667 343.35,113.65 C355.05,124.95 368.9,130.6 384.9,130.6 C395.066667,130.6 404.25,128.466667 412.45,124.2 C417.516667,121.466667 422.2,117.95 426.5,113.65 C430.766667,109.35 434.266667,104.666667 437,99.6 C433.9,100.366667 430.4,100.75 426.5,100.75 C418.3,101.15 411.266667,98.4166667 405.4,92.55 C399.933333,87.1166667 397.4,80.3 397.8,72.1 C397.4,63.9 399.933333,57.0666667 405.4,51.6 C410.866667,46.1333333 417.9,43.4 426.5,43.4 C430.4,43.4 433.716667,43.9833333 436.45,45.15 C439.55,50.6166667 441.683333,56.6666667 442.85,63.3 L443.45,72.1 C443.45,78.3333333 442.666667,84.1833333 441.1,89.65 C440.7,90.4166667 440.5,91.3833333 440.5,92.55 L437,99.6" id="Path" stroke="#000000" stroke-width="12" stroke-linecap="round" stroke-linejoin="round"></path>
            <path d="M500.2,157.55 C501.4,148.95 502,139.966667 502,130.6 C502,120.066667 501.216667,109.933333 499.65,100.2" id="Path" stroke="#000000" stroke-width="5" stroke-linecap="round" stroke-linejoin="round"></path>
            <polyline id="Path" stroke="#000000" stroke-width="12" stroke-linecap="round" stroke-linejoin="round" points="499.65 100.2 560.5 130.6 500.2 157.55"></polyline>
        </g>
    </g>
</svg>