<?xml version="1.0" encoding="UTF-8" standalone="no"?>
<!-- Created with Inkscape (http://www.inkscape.org/) -->

<svg
   width="669.38055mm"
   height="93.224236mm"
   viewBox="0 0 669.38055 93.224236"
   version="1.1"
   id="svg5"
   inkscape:version="1.1.2 (b8e25be833, 2022-02-05)"
   sodipodi:docname="drawing-1.svg"
   xmlns:inkscape="http://www.inkscape.org/namespaces/inkscape"
   xmlns:sodipodi="http://sodipodi.sourceforge.net/DTD/sodipodi-0.dtd"
   xmlns="http://www.w3.org/2000/svg"
   xmlns:svg="http://www.w3.org/2000/svg">
  <sodipodi:namedview
     id="namedview7"
     pagecolor="#ffffff"
     bordercolor="#666666"
     borderopacity="1.0"
     inkscape:pageshadow="2"
     inkscape:pageopacity="0.0"
     inkscape:pagecheckerboard="0"
     inkscape:document-units="mm"
     showgrid="false"
     inkscape:zoom="0.32026164"
     inkscape:cx="1097.5401"
     inkscape:cy="143.63256"
     inkscape:window-width="1920"
     inkscape:window-height="1017"
     inkscape:window-x="-8"
     inkscape:window-y="-8"
     inkscape:window-maximized="1"
     inkscape:current-layer="layer1" />
  <defs
     id="defs2">
    <filter
       id="filter0_d"
       x="38"
       y="9"
       width="361"
       height="51.806198"
       filterUnits="userSpaceOnUse"
       color-interpolation-filters="sRGB">
      <feFlood
         flood-opacity="0"
         result="BackgroundImageFix"
         id="feFlood836" />
      <feColorMatrix
         in="SourceAlpha"
         type="matrix"
         values="0 0 0 0 0 0 0 0 0 0 0 0 0 0 0 0 0 0 127 0"
         id="feColorMatrix838" />
      <feOffset
         dy="4"
         id="feOffset840" />
      <feGaussianBlur
         stdDeviation="3.5"
         id="feGaussianBlur842" />
      <feColorMatrix
         type="matrix"
         values="0 0 0 0 0 0 0 0 0 0 0 0 0 0 0 0 0 0 0.3 0"
         id="feColorMatrix844" />
      <feBlend
         mode="normal"
         in2="BackgroundImageFix"
         result="effect1_dropShadow"
         id="feBlend846" />
      <feBlend
         mode="normal"
         in="SourceGraphic"
         in2="effect1_dropShadow"
         result="shape"
         id="feBlend848" />
    </filter>
  </defs>
  <g
     inkscape:label="Layer 1"
     inkscape:groupmode="layer"
     id="layer1"
     transform="translate(238.03102,-139.39752)">
    <g
       style="fill:none"
       id="g871"
       transform="matrix(1.5282661,0,0,1.5282661,-238.03102,139.39752)">
      <ellipse
         cx="219"
         cy="31.2425"
         rx="219"
         ry="23.2425"
         fill="#3e96ee"
         id="ellipse824" />
      <ellipse
         cx="219"
         cy="30.5"
         rx="55"
         ry="30.5"
         fill="#2dd92d"
         id="ellipse826" />
      <g
         filter="url(#filter0_d)"
         id="g832">
        <path
           d="m 58.1354,49.8062 c -1.5844,0 -3.096,-0.2566 -4.4957,-0.7626 C 51.6,48.3054 49.8632,47.138 48.4796,45.571 c -1.3819,-1.5653 -2.3815,-3.4884 -2.968,-5.7133 -0.58,-2.204 -0.6675,-4.6278 -0.2592,-7.207 0.3953,-2.4936 1.147,-4.9279 2.2374,-7.2349 1.087,-2.2999 2.4576,-4.3905 4.0713,-6.214 1.6249,-1.8358 3.5123,-3.3784 5.6104,-4.5877 2.1304,-1.2268 4.4569,-1.9946 6.9162,-2.2825 0.0081,-0.0018 0.0162,-0.0018 0.0243,-0.0035 0.4779,-0.0489 0.9785,-0.0733 1.4889,-0.0733 0.4196,0 0.857,0.0157 1.3009,0.0488 1.0272,0.0751 2.0478,0.2915 3.0328,0.6405 1.0126,0.3577 1.9587,0.8725 2.8142,1.5269 0.9186,0.705 1.6735,1.6176 2.2438,2.7135 0.5719,1.0994 0.9073,2.4047 0.9964,3.8792 0.0858,1.4152 -0.1215,3.0625 -0.6141,4.8931 -0.1782,0.6648 -0.7047,1.1517 -1.3414,1.2424 l -8.3014,1.1919 c -0.0713,0.0105 -0.1426,0.0157 -0.2139,0.0157 -0.4406,0 -0.8667,-0.1937 -1.1745,-0.5427 -0.3581,-0.4048 -0.5136,-0.9702 -0.418,-1.5199 0.1085,-0.6317 0.175,-1.225 0.196,-1.7643 0.0195,-0.506 -0.0356,-0.8027 -0.0842,-0.9632 -0.0049,-0.014 -0.0081,-0.0262 -0.013,-0.0384 0,0 -0.0437,0.007 -0.0534,0.007 -0.7583,0.0942 -1.4193,0.3909 -2.0203,0.9057 -0.7064,0.6037 -1.3269,1.3244 -1.8486,2.1429 -0.5524,0.869 -1.0239,1.7869 -1.3981,2.7239 -0.3856,0.9633 -0.6691,1.8114 -0.8457,2.5216 -0.243,0.979 -0.4002,1.9527 -0.4666,2.9003 -0.0583,0.8376 0,1.5705 0.1734,2.1795 0.1361,0.4764 0.3434,0.8167 0.6529,1.0732 0.2009,0.1658 0.5573,0.253 1.0287,0.253 0.1037,0 0.2139,-0.0035 0.3257,-0.0122 0.6091,-0.0419 1.1308,-0.1623 1.5585,-0.3595 0.4472,-0.2059 0.8344,-0.4589 1.1487,-0.7521 0.3143,-0.2914 0.5783,-0.6229 0.7841,-0.9842 0.2284,-0.3996 0.4115,-0.8201 0.5443,-1.2459 0.222,-0.7155 0.8425,-1.1936 1.5359,-1.1936 0.0275,0 0.0551,0 0.0843,0.0017 l 9.335,0.5166 c 0.1442,0.0087 0.2867,0.0366 0.4212,0.0837 0.0308,-0.6648 0.1004,-1.3402 0.2122,-2.026 0.3241,-2.0068 0.9138,-3.9263 1.753,-5.7045 0.8457,-1.7939 1.9279,-3.3906 3.2159,-4.7482 1.3042,-1.3751 2.8287,-2.4727 4.5314,-3.2632 1.7092,-0.794 3.5821,-1.225 5.5667,-1.2844 0.0065,0 0.0129,0 0.0194,0 0.0681,-0.0017 0.1345,-0.0017 0.2025,-0.0017 1.7384,0 3.3553,0.3926 4.8053,1.1657 1.5034,0.8009 2.7687,1.9335 3.7618,3.3661 0.9753,1.4065 1.6723,3.0643 2.0693,4.9263 0.042,0.2006 0.081,0.4031 0.115,0.6072 0.1,-0.2355 0.205,-0.4694 0.314,-0.6997 0.836,-1.7712 1.905,-3.3505 3.177,-4.6924 1.29,-1.3594 2.796,-2.4448 4.48,-3.2248 1.689,-0.7836 3.539,-1.2111 5.501,-1.2704 0.007,0 0.013,0 0.02,0 0.066,-0.0018 0.133,-0.0018 0.199,-0.0018 1.719,0 3.318,0.3874 4.754,1.1518 1.485,0.7922 2.737,1.9125 3.721,3.3295 0.965,1.3908 1.652,3.0294 2.044,4.8704 0.277,1.2983 0.373,2.6629 0.287,4.0746 l 5.465,-16.6197 c 0.215,-0.6526 0.768,-1.1081 1.411,-1.1587 l 9.056,-0.705 c 0.039,-0.0035 0.078,-0.0052 0.117,-0.0052 0.499,0 0.974,0.2478 1.281,0.6771 0.333,0.4624 0.428,1.0732 0.253,1.6263 l -9.602,30.5573 c -0.196,0.6265 -0.705,1.0784 -1.312,1.1692 l -9.749,1.4501 c -0.074,0.0105 -0.147,0.0157 -0.222,0.0157 -0.482,0 -0.946,-0.2321 -1.255,-0.6422 -0.358,-0.4729 -0.46,-1.1115 -0.271,-1.6857 l 1.841,-5.598 c -0.718,1.129 -1.533,2.1586 -2.439,3.073 -1.326,1.3419 -2.831,2.4221 -4.473,3.2108 -1.68,0.808 -3.425,1.2181 -5.184,1.2198 -0.063,0.0018 -0.125,0.0018 -0.188,0.0018 -1.748,0 -3.363,-0.3962 -4.8,-1.1779 -1.479,-0.8045 -2.725,-1.9196 -3.705,-3.3156 -0.968,-1.3803 -1.658,-3.0137 -2.0515,-4.8582 -0.0469,-0.2198 -0.0891,-0.4415 -0.1247,-0.6648 -0.1458,0.3263 -0.2997,0.6491 -0.4634,0.9667 -0.9218,1.7957 -2.0656,3.3906 -3.3989,4.7395 -1.3431,1.3577 -2.866,2.4501 -4.5266,3.2493 -1.6995,0.8167 -3.4638,1.232 -5.2443,1.2337 -0.0632,0.0018 -0.1263,0.0018 -0.1895,0.0018 -1.7676,0 -3.4006,-0.4014 -4.8555,-1.1919 -1.4953,-0.8132 -2.7558,-1.9422 -3.7456,-3.3539 -0.9122,-1.3001 -1.5813,-2.8253 -1.9895,-4.5371 -0.4585,1.204 -1.0304,2.3104 -1.7076,3.3051 -1.0466,1.5356 -2.2876,2.8583 -3.6906,3.928 -1.3836,1.0558 -2.9324,1.9126 -4.6043,2.5478 -1.6412,0.623 -3.352,1.0522 -5.0839,1.2791 -0.721,0.1029 -1.4468,0.1536 -2.1467,0.1536 z m 28.253,-12.505 c 0.1588,0 0.3499,-0.0698 0.5687,-0.2094 0.3936,-0.2495 0.7857,-0.616 1.1648,-1.0871 0.4067,-0.5043 0.7777,-1.1064 1.1001,-1.7904 0.3191,-0.6754 0.554,-1.3891 0.6966,-2.1185 0.1183,-0.616 0.2479,-1.3454 0.3807,-2.1638 0.1151,-0.7085 0.1572,-1.3873 0.1264,-2.0138 -0.0211,-0.4485 -0.1118,-0.8149 -0.2657,-1.0907 -0.0308,-0.0122 -0.1037,-0.0349 -0.243,-0.0418 -0.1815,0.0087 -0.3969,0.1134 -0.6448,0.3123 -0.4131,0.3333 -0.8182,0.794 -1.2038,1.3699 -0.4115,0.6125 -0.7711,1.3088 -1.0692,2.0661 -0.2933,0.7469 -0.4958,1.485 -0.5978,2.1953 -0.0033,0.0244 -0.0081,0.0488 -0.0114,0.0732 -0.0923,0.4921 -0.1798,1.0872 -0.2608,1.7678 -0.0713,0.5985 -0.0875,1.1779 -0.047,1.7223 0.0292,0.3961 0.1069,0.7329 0.2317,1.0034 0.0113,0.0035 0.0243,0.0052 0.0405,0.0087 0.0113,-0.0035 0.0227,-0.0035 0.034,-0.0035 z m 24.4996,-0.0855 c 0.152,0 0.337,-0.068 0.549,-0.2041 0.387,-0.2461 0.771,-0.6056 1.145,-1.068 0.4,-0.4973 0.765,-1.0906 1.082,-1.7625 0.315,-0.6648 0.545,-1.3663 0.687,-2.0853 0.117,-0.6055 0.243,-1.3262 0.375,-2.1342 0.113,-0.698 0.155,-1.3646 0.124,-1.9823 -0.021,-0.4345 -0.107,-0.7905 -0.254,-1.0593 -0.032,-0.0122 -0.1,-0.0314 -0.225,-0.0384 -0.174,0.0088 -0.384,0.11 -0.624,0.3037 -0.405,0.328 -0.804,0.7818 -1.184,1.3471 -0.405,0.6038 -0.76,1.2879 -1.053,2.0348 -0.29,0.7346 -0.488,1.4623 -0.588,2.1603 -0.004,0.0244 -0.008,0.0489 -0.012,0.0733 -0.09,0.4869 -0.176,1.0732 -0.257,1.7433 -0.072,0.5881 -0.086,1.1587 -0.047,1.6944 0.029,0.3839 0.103,0.7102 0.222,0.972 0.008,0.0017 0.017,0.0035 0.029,0.0052 0.01,0 0.019,0 0.031,0 z m 155.525,12.559 c -1.58,0 -3.09,-0.2565 -4.485,-0.7608 -2.035,-0.7347 -3.767,-1.9003 -5.145,-3.4621 -1.379,-1.5618 -2.375,-3.4779 -2.96,-5.6993 -0.58,-2.197 -0.666,-4.6156 -0.259,-7.1896 0.393,-2.4884 1.145,-4.9157 2.232,-7.2139 1.084,-2.2947 2.451,-4.3783 4.06,-6.1966 1.62,-1.8306 3.503,-3.3697 5.596,-4.5738 2.124,-1.2232 4.445,-1.9893 6.898,-2.2755 0.008,-0.0017 0.016,-0.0017 0.024,-0.0035 0.477,-0.0488 0.976,-0.0733 1.486,-0.0733 0.42,0 0.856,0.0157 1.296,0.0489 1.026,0.075 2.043,0.2897 3.025,0.6387 1.009,0.3577 1.954,0.869 2.806,1.5234 0.917,0.7032 1.67,1.6141 2.239,2.7083 0.57,1.0959 0.906,2.3976 0.995,3.8705 0.086,1.4117 -0.12,3.0538 -0.613,4.8791 -0.154,0.5723 -0.567,1.0138 -1.085,1.1831 l 0.967,-0.0454 c 0.024,-0.0017 0.047,-0.0017 0.07,-0.0017 0.486,0 0.946,0.2338 1.255,0.6422 0.324,0.4257 0.441,0.9929 0.316,1.5269 -0.189,0.8201 -0.4,1.6874 -0.628,2.5896 1.053,-1.4379 2.329,-2.621 3.807,-3.532 -0.13,-0.0872 -0.248,-0.1937 -0.353,-0.3193 -0.433,-0.5218 -0.535,-1.2739 -0.258,-1.9073 l 3.044,-6.9487 c 0.187,-0.4258 0.525,-0.7522 0.937,-0.9057 0.777,-0.2879 1.628,-0.5218 2.53,-0.6928 0.781,-0.1448 1.677,-0.2321 2.667,-0.26 0.117,-0.0035 0.233,-0.0052 0.352,-0.0052 0.923,0 1.926,0.1029 2.982,0.3053 0.023,0.0053 0.045,0.0088 0.068,0.014 0.697,0.1675 1.476,0.3979 2.315,0.6841 0.992,0.3402 1.923,0.8934 2.769,1.6438 0.872,0.7748 1.597,1.8183 2.158,3.1044 0.567,1.3 0.842,2.8898 0.842,4.8599 0,0.3944 -0.071,0.8952 -0.233,1.6264 l -0.029,0.1291 c -0.138,0.6073 -0.313,1.3018 -0.518,2.0731 l -0.221,0.8097 c -0.191,0.6928 -0.402,1.4379 -0.63,2.2249 -0.22,0.7644 -0.45,1.5339 -0.68,2.2895 l -0.627,2.04 c -0.621,2.0155 -1.308,4.2177 -2.042,6.5456 -0.18,0.5706 -0.62,1.0016 -1.166,1.1377 l -8.844,2.225 c -0.123,0.0314 -0.247,0.0453 -0.368,0.0453 -0.481,0 -0.946,-0.2321 -1.257,-0.6456 -0.373,-0.4956 -0.465,-1.1692 -0.243,-1.7555 -0.535,0.0645 -1.076,0.0977 -1.616,0.0977 -0.92,0 -1.832,-0.1152 -2.713,-0.3403 -0.94,-0.2408 -1.794,-0.6282 -2.541,-1.1535 -0.811,-0.5706 -1.464,-1.3279 -1.942,-2.2511 -0.484,-0.937 -0.731,-2.0504 -0.731,-3.3085 0,-0.007 0,-0.014 0,-0.0192 0.002,-0.1135 0.004,-0.2269 0.007,-0.3403 -0.326,0.6875 -0.682,1.3646 -1.063,2.026 -0.8,1.3873 -1.789,2.6594 -2.937,3.7797 -1.155,1.1273 -2.52,2.0958 -4.055,2.8793 -1.549,0.7905 -3.352,1.3227 -5.356,1.5828 -0.723,0.0959 -1.447,0.1465 -2.145,0.1465 z m 27.948,-12.538 c 0.079,0.0366 0.175,0.0645 0.283,0.0837 0.017,-0.0471 0.094,-0.2861 0.094,-0.2861 0.187,-0.5777 0.384,-1.164 0.584,-1.7364 -0.245,0.178 -0.702,0.623 -0.948,1.8463 -0.005,0.0349 -0.01,0.0663 -0.013,0.0925 z M 271.726,24.21 c -0.064,0 -0.136,0.0052 -0.212,0.0157 -0.006,0 -0.013,0.0018 -0.019,0.0018 -0.812,0.1012 -1.546,0.3891 -2.249,0.8794 -0.763,0.5323 -1.453,1.2041 -2.054,1.9981 -0.619,0.8167 -1.139,1.7206 -1.544,2.6856 -0.405,0.9668 -0.687,1.9405 -0.834,2.895 -0.151,0.9685 -0.2,1.8567 -0.148,2.6403 0.044,0.6491 0.186,1.2005 0.425,1.6368 0.05,0.0925 0.105,0.178 0.165,0.2583 -0.029,-0.2077 -0.025,-0.4223 0.018,-0.6317 l 1.471,-7.3693 c 0.155,-0.7765 0.777,-1.3419 1.513,-1.3768 l 4.159,-0.1955 c -0.23,-0.3787 -0.316,-0.8446 -0.232,-1.2965 0.249,-1.3455 0.023,-1.8323 -0.054,-1.9492 -0.077,-0.1187 -0.139,-0.192 -0.405,-0.192 z m -89.303,25.2157 c -0.481,0 -0.946,-0.2321 -1.257,-0.6456 -0.384,-0.5096 -0.47,-1.2076 -0.224,-1.8061 -0.56,0.0698 -1.126,0.1047 -1.693,0.1047 -0.934,0 -1.861,-0.117 -2.755,-0.3456 -0.953,-0.2443 -1.821,-0.6386 -2.578,-1.1709 -0.821,-0.5776 -1.484,-1.3454 -1.968,-2.2807 -0.339,-0.6544 -0.563,-1.3926 -0.668,-2.2058 -0.492,1.4484 -1.038,2.9492 -1.636,4.4935 -0.238,0.616 -0.783,1.0331 -1.403,1.0715 l -8.285,0.513 c -0.031,0.0017 -0.062,0.0035 -0.094,0.0035 -0.511,0 -0.995,-0.26 -1.301,-0.705 -0.326,-0.4729 -0.409,-1.0889 -0.221,-1.6403 l 0.269,-0.7888 c 0.864,-2.5547 1.59,-4.8878 2.157,-6.9278 0.261,-0.944 0.5,-1.8881 0.714,-2.806 0.094,-0.4083 0.178,-0.7957 0.248,-1.1604 -0.381,1.1971 -0.808,2.4517 -1.275,3.7378 l -0.183,0.4991 c -0.604,1.6403 -1.204,3.3383 -1.781,5.0501 -0.17,0.5061 -0.547,0.897 -1.022,1.0645 -1.022,0.356 -2.257,0.6143 -3.776,0.787 -0.546,0.0611 -1.126,0.0925 -1.727,0.0925 -1.076,0 -2.26,-0.1012 -3.518,-0.3001 -0.489,-0.0768 -0.918,-0.3909 -1.166,-0.8516 -0.248,-0.4607 -0.287,-1.0174 -0.105,-1.513 0.836,-2.2912 1.526,-4.3765 2.049,-6.1966 0.194,-0.698 0.379,-1.4065 0.548,-2.0975 -0.021,0.0489 -0.041,0.0977 -0.06,0.1466 l -0.247,0.6195 c -0.126,0.3193 -0.243,0.6177 -0.346,0.8917 -0.383,1.0069 -0.737,1.9771 -1.055,2.8845 l -0.768,2.2319 c -0.095,0.2775 -0.186,0.5462 -0.274,0.8027 l -0.239,0.7591 c -0.195,0.6178 -0.381,1.225 -0.553,1.8026 -0.199,0.6649 -0.748,1.1395 -1.395,1.2024 l -7.661,0.7503 c -0.049,0.0053 -0.099,0.007 -0.148,0.007 -0.479,0 -0.938,-0.2303 -1.247,-0.6317 -0.34,-0.4432 -0.457,-1.04 -0.31,-1.5932 l 0.517,-1.9405 c 0.253,-0.9475 0.498,-1.8567 0.732,-2.7257 0.002,-0.007 0.004,-0.014 0.007,-0.021 0.167,-0.588 0.329,-1.1918 0.483,-1.7939 l 0.28,-1.0819 0.301,-1.1465 c 0.075,-0.2879 0.146,-0.5619 0.209,-0.8201 l 0.112,-0.4503 c 0.086,-0.3402 0.159,-0.6055 0.224,-0.8184 0.283,-1.1342 0.74,-2.5774 1.357,-4.2875 l 0.172,-0.4712 c 0.698,-1.8986 1.581,-4.2561 2.63,-7.0133 0.168,-0.445 0.5,-0.794 0.917,-0.9667 0.38,-0.1571 0.904,-0.3159 1.65,-0.4956 l 0.136,-0.0332 c 0.749,-0.178 1.548,-0.342 2.379,-0.4921 0.682,-0.1221 1.349,-0.2321 1.983,-0.328 l 0.374,-0.0559 c 0.668,-0.096 1.176,-0.1431 1.555,-0.1431 0.122,0 0.234,0.0053 0.337,0.014 0.49,0.0436 0.934,0.3246 1.209,0.7626 0.159,0.253 0.249,0.5409 0.272,0.8376 0.627,-0.2112 1.298,-0.3979 2.006,-0.5602 0.784,-0.1814 1.579,-0.2722 2.365,-0.2722 0.211,0 0.423,0.007 0.634,0.0192 0.016,0.0017 0.032,0.0017 0.048,0.0035 0.843,0.0785 1.567,0.3403 2.155,0.7765 0.538,0.3996 0.982,0.8987 1.319,1.4833 0.162,0.281 0.304,0.5776 0.426,0.8882 0.082,-0.0506 0.167,-0.0994 0.251,-0.15 0.799,-0.4782 1.615,-0.9284 2.427,-1.3385 0.828,-0.4188 1.644,-0.78 2.425,-1.0732 0.851,-0.3211 1.602,-0.4764 2.299,-0.4764 0,0 0.058,0 0.07,0 l 0.116,0.0035 c 1.873,0.0506 2.912,1.0226 3.453,1.8288 0.641,0.958 1.038,2.1708 1.178,3.6035 0.123,1.2704 0.077,2.7135 -0.137,4.2858 -0.139,1.0191 -0.315,2.0644 -0.526,3.1219 1.077,-1.4641 2.382,-2.6664 3.895,-3.5913 -0.146,-0.0907 -0.281,-0.2077 -0.397,-0.349 -0.433,-0.5218 -0.535,-1.2739 -0.256,-1.9073 l 3.101,-7.0779 c 0.186,-0.4258 0.525,-0.7521 0.936,-0.9057 0.791,-0.2931 1.656,-0.5304 2.573,-0.705 0.794,-0.1465 1.703,-0.2355 2.712,-0.2652 0.118,-0.0035 0.236,-0.0052 0.358,-0.0052 0.938,0 1.959,0.1047 3.033,0.3088 0.022,0.0035 0.045,0.0088 0.068,0.014 0.708,0.1693 1.5,0.4031 2.354,0.6963 1.006,0.3455 1.952,0.9056 2.809,1.6682 0.885,0.7853 1.622,1.8463 2.19,3.1498 0.321,0.7364 0.551,1.5653 0.691,2.5024 l 0.912,-3.1864 c 0.191,-0.6667 0.732,-1.1483 1.377,-1.2216 l 0.319,-0.0366 c 0.452,-0.0471 1.058,-0.096 1.818,-0.1483 l 2.069,-0.1449 c 0.085,-0.2443 0.168,-0.4799 0.246,-0.7067 l 0.313,-0.9162 0.837,-2.4901 0.216,-0.6265 c 0.082,-0.2373 0.16,-0.4607 0.236,-0.6718 0.18,-0.5026 0.564,-0.8865 1.04,-1.0436 0.642,-0.2111 1.431,-0.3961 2.409,-0.5706 0.916,-0.1623 1.873,-0.3123 2.85,-0.4467 0.826,-0.1134 1.633,-0.2199 2.398,-0.3141 l 0.718,-0.089 c 0.669,-0.0855 1.219,-0.1728 1.631,-0.2565 0.1,-0.021 0.202,-0.0314 0.303,-0.0314 0.473,0 0.93,0.2233 1.241,0.6229 0.377,0.4834 0.483,1.15 0.274,1.7398 l -0.23,0.6562 c -0.073,0.2094 -0.146,0.417 -0.216,0.6212 l -0.283,0.8236 c -0.127,0.3648 -0.261,0.7417 -0.402,1.1378 l -0.251,0.691 c -0.091,0.2478 -0.183,0.4974 -0.28,0.7574 l -0.19,0.5026 0.556,-0.0559 c 0.447,-0.0454 0.873,-0.082 1.268,-0.1099 l 0.23,-0.014 c 0.478,-0.0279 0.893,-0.0436 1.243,-0.0436 0.455,0 0.889,0.2059 1.196,0.5689 0.252,0.2984 0.4,0.6788 0.421,1.0767 0.094,-0.2984 0.189,-0.5951 0.285,-0.8935 0.371,-1.157 0.752,-2.3087 1.132,-3.4203 0.384,-1.122 0.757,-2.1551 1.107,-3.0695 0.18,-0.4694 0.539,-0.8306 0.985,-0.9912 0.3,-0.1081 0.695,-0.2094 1.249,-0.3176 l 0.373,-0.0715 c 0.4,-0.0733 0.831,-0.1466 1.291,-0.2181 0.624,-0.096 1.286,-0.1798 1.973,-0.2478 l 0.783,-0.0768 c 0.26,-0.0244 0.513,-0.0489 0.759,-0.0698 l 0.367,-0.0332 c 0.539,-0.0471 1.035,-0.0855 1.479,-0.1116 l 0.186,-0.0105 C 234.391,12.007 234.621,12 234.825,12 c 0.237,0 0.436,0.0105 0.606,0.0297 0.493,0.0593 0.932,0.356 1.194,0.8097 0.263,0.4519 0.319,1.0086 0.153,1.5112 l -2.426,7.3343 c 0.639,-0.1448 1.351,-0.2687 2.121,-0.3682 0.612,-0.0785 1.236,-0.1186 1.853,-0.1186 0.412,0 0.83,0.0174 1.243,0.0523 0.007,0 0.013,0.0018 0.02,0.0018 1.769,0.1727 3.118,0.8166 4.011,1.9125 0.842,1.0331 1.333,2.3558 1.463,3.9281 0.112,1.3786 -0.016,2.9474 -0.386,4.6627 -0.342,1.595 -0.795,3.2912 -1.349,5.0414 -0.545,1.7189 -1.152,3.5075 -1.807,5.3171 -0.643,1.7782 -1.25,3.511 -1.808,5.1514 -0.18,0.5305 -0.586,0.9353 -1.092,1.0836 -1.093,0.3246 -2.441,0.5445 -4.12,0.6719 -0.414,0.0314 -0.85,0.0471 -1.294,0.0471 -1.353,0 -2.871,-0.1483 -4.509,-0.4432 -0.489,-0.0873 -0.915,-0.4136 -1.153,-0.883 -0.238,-0.4694 -0.264,-1.0313 -0.07,-1.5234 1.197,-3.0259 2.198,-5.8023 2.975,-8.2523 l 0.105,-0.335 c 0.335,-1.0575 0.649,-2.115 0.938,-3.1481 0.277,-0.9929 0.486,-1.8864 0.622,-2.6559 0,-0.0053 0.002,-0.0105 0.003,-0.0157 -0.202,0.2687 -0.389,0.5688 -0.552,0.8934 -0.217,0.431 -0.402,0.8481 -0.553,1.2407 -0.429,1.1029 -0.823,2.225 -1.178,3.3435 l -0.194,0.6195 c -0.248,0.7957 -0.475,1.5513 -0.672,2.2389 l -0.075,0.2583 c -0.312,1.0906 -0.606,2.1638 -0.868,3.1969 -0.185,0.7207 -0.775,1.2354 -1.466,1.2791 l -8.713,0.5549 c -0.033,0.0017 -0.063,0.0035 -0.096,0.0035 -0.484,0 -0.946,-0.2339 -1.255,-0.6422 -0.329,-0.4345 -0.444,-1.0121 -0.311,-1.5531 l 0.239,-0.9667 c 0.358,-1.4344 0.713,-2.8113 1.057,-4.0956 l 0.338,-1.314 0.17,-0.6666 c 0.114,-0.445 0.222,-0.8725 0.324,-1.2844 l 0.311,-1.2459 c 0.054,-0.2129 0.106,-0.4119 0.154,-0.6021 l 0.159,-0.6037 c 0.099,-0.3805 0.148,-0.5986 0.172,-0.712 0.008,-0.0367 0.016,-0.0733 0.026,-0.11 l 0.236,-0.8725 c 0,0 0.342,-1.2337 0.345,-1.2477 -0.264,0.3263 -0.636,0.5427 -1.049,0.5898 l -5.196,0.6003 -0.005,0.014 c -0.416,1.2669 -0.815,2.4448 -1.184,3.504 -0.397,1.1378 -0.692,2.2476 -0.875,3.3016 l -0.041,0.2426 c 0.122,0.0454 0.256,0.0698 0.365,0.082 0.165,0.0192 0.34,0.0279 0.522,0.0279 0.304,0 0.635,-0.0279 0.981,-0.0802 0.65,-0.0995 1.246,-0.2129 1.771,-0.3368 0.115,-0.0262 0.23,-0.0402 0.344,-0.0402 0.466,0 0.915,0.2164 1.228,0.6056 0.387,0.4851 0.497,1.1587 0.286,1.7572 l -2.551,7.2489 c -0.19,0.5374 -0.613,0.9405 -1.133,1.0767 -0.949,0.2495 -1.957,0.4659 -2.992,0.6456 -1.071,0.185 -2.147,0.2862 -3.195,0.3002 -0.081,0.0017 -0.164,0.0017 -0.245,0.0017 -0.978,0 -1.926,-0.082 -2.82,-0.2443 -1.087,-0.1972 -2.063,-0.5916 -2.899,-1.1674 -0.883,-0.609 -1.589,-1.4327 -2.101,-2.4466 -0.491,-0.9719 -0.737,-2.1603 -0.735,-3.5319 0,-0.0052 0.001,-0.1989 0.001,-0.1989 0.002,-0.8272 0.141,-1.773 0.43,-2.8863 0.252,-0.9825 0.555,-2.0278 0.897,-3.1044 0.251,-0.7905 0.514,-1.5915 0.781,-2.382 0,0 0.295,-0.8638 0.309,-0.9039 l -2.354,0.3402 c -0.071,0.0105 -0.144,0.0158 -0.215,0.0158 -0.329,0 -0.65,-0.1082 -0.919,-0.3072 l -0.103,0.3804 c -0.195,0.705 -0.41,1.4659 -0.64,2.2633 -0.224,0.7731 -0.457,1.5566 -0.692,2.3314 l -0.638,2.0784 c -0.634,2.0573 -1.334,4.2997 -2.079,6.666 -0.18,0.5706 -0.62,1.0016 -1.165,1.1377 l -9.008,2.2668 c -0.128,0.0384 -0.252,0.0541 -0.374,0.0541 z m 1.347,-12.0075 c 0.092,0.0471 0.207,0.0802 0.341,0.1012 0.02,-0.0559 0.106,-0.3194 0.106,-0.3194 0.131,-0.4066 0.269,-0.8236 0.41,-1.2355 l 0.215,-0.6229 c -0.514,0.3437 -0.859,0.9824 -1.055,1.9527 -0.008,0.0506 -0.014,0.0924 -0.017,0.1239 z m 166.94,11.1001 c -1.701,0 -3.163,-0.3193 -4.344,-0.9475 -1.255,-0.6684 -2.273,-1.609 -3.025,-2.7973 -0.714,-1.1291 -1.213,-2.4396 -1.485,-3.8897 -0.243,-1.3001 -0.371,-2.6682 -0.378,-4.0677 -0.759,2.656 -1.736,5.5265 -2.917,8.5786 -0.239,0.6177 -0.783,1.0331 -1.403,1.0715 l -8.227,0.5095 c -0.031,0.0018 -0.062,0.0035 -0.094,0.0035 -0.511,0 -0.995,-0.26 -1.301,-0.705 -0.326,-0.4729 -0.409,-1.0889 -0.221,-1.6403 l 0.268,-0.7835 c 0.858,-2.5373 1.578,-4.853 2.14,-6.879 0.257,-0.9353 0.497,-1.8741 0.708,-2.7868 0.078,-0.3315 0.146,-0.6509 0.207,-0.9545 -0.363,1.1308 -0.766,2.3121 -1.205,3.5215 l -0.182,0.4955 c -0.599,1.6282 -1.194,3.3139 -1.769,5.0153 -0.17,0.506 -0.547,0.8987 -1.022,1.0644 -1.016,0.3543 -2.242,0.6108 -3.752,0.7818 -0.543,0.0611 -1.12,0.0925 -1.716,0.0925 -1.069,0 -2.244,-0.0995 -3.493,-0.2967 -0.489,-0.0767 -0.918,-0.3908 -1.166,-0.8515 -0.248,-0.4607 -0.287,-1.0174 -0.106,-1.513 0.832,-2.2772 1.517,-4.3469 2.035,-6.1512 0.18,-0.6457 0.35,-1.2966 0.507,-1.9318 0,0.0018 -0.246,0.6195 -0.246,0.6195 -0.125,0.3176 -0.241,0.6143 -0.345,0.8865 -0.379,0.9982 -0.732,1.9632 -1.047,2.8619 l -0.882,2.5669 -0.153,0.4485 -0.238,0.7521 c -0.194,0.6212 -0.379,1.2232 -0.549,1.7886 -0.199,0.6649 -0.749,1.1395 -1.395,1.2024 l -7.608,0.7451 c -0.049,0.0052 -0.099,0.007 -0.147,0.007 -0.48,0 -0.939,-0.2304 -1.248,-0.6335 -0.34,-0.4432 -0.457,-1.04 -0.309,-1.5932 l 0.512,-1.9265 c 0.251,-0.9406 0.494,-1.8428 0.727,-2.7066 0.002,-0.0069 0.003,-0.0139 0.006,-0.0209 0.166,-0.5828 0.326,-1.1831 0.48,-1.7799 l 0.279,-1.075 0.299,-1.1395 c 0.075,-0.2844 0.145,-0.5584 0.208,-0.8149 l 0.112,-0.4467 c 0.085,-0.3386 0.158,-0.6038 0.221,-0.8132 0.312,-1.2442 0.809,-2.7921 1.522,-4.7308 l 0.878,-2.368 c 0.505,-1.3524 1.087,-2.895 1.732,-4.5912 0.168,-0.445 0.5,-0.794 0.917,-0.9667 0.377,-0.1571 0.899,-0.3124 1.641,-0.4939 l 0.136,-0.0331 c 0.744,-0.1763 1.536,-0.3403 2.36,-0.4887 0.678,-0.1221 1.34,-0.2303 1.969,-0.3263 l 0.371,-0.0541 c 0.664,-0.096 1.168,-0.1413 1.547,-0.1413 0.122,0 0.232,0.0052 0.335,0.0139 0.49,0.0437 0.934,0.3246 1.209,0.7626 0.156,0.2478 0.246,0.5323 0.271,0.8219 0.618,-0.2076 1.281,-0.3909 1.978,-0.5531 0.777,-0.1798 1.57,-0.2705 2.351,-0.2705 0.209,0 0.419,0.007 0.628,0.0192 0.016,0.0017 0.033,0.0017 0.049,0.0035 0.839,0.0785 1.56,0.3385 2.145,0.773 0.534,0.3979 0.977,0.8935 1.312,1.4763 0.159,0.2757 0.298,0.5671 0.42,0.8708 0.077,-0.0471 0.157,-0.0943 0.238,-0.1431 0.794,-0.4747 1.604,-0.9214 2.41,-1.3297 0.822,-0.4153 1.634,-0.7748 2.41,-1.0662 0.845,-0.3194 1.594,-0.4747 2.286,-0.4747 0,0 0.058,0 0.068,0 l 0.115,0.0035 c 1.864,0.0506 2.898,1.0174 3.436,1.8201 0.638,0.9528 1.033,2.1586 1.171,3.5843 0.123,1.2634 0.078,2.696 -0.136,4.2578 -0.006,0.0437 -0.011,0.0873 -0.018,0.1309 0.66,-1.4012 1.471,-2.8042 2.422,-4.1846 l 0.222,-0.3176 c 0.916,-1.3332 2.11,-2.5721 3.542,-3.668 1.435,-1.0976 2.994,-1.9265 4.637,-2.4623 1.265,-0.4135 2.566,-0.6229 3.865,-0.6229 0.421,0 0.849,0.0226 1.272,0.0663 1.826,0.1867 3.537,0.9248 5.085,2.19 0.953,0.7783 1.68,1.8951 2.163,3.3208 0.426,1.2582 0.69,2.6175 0.786,4.0397 0.094,1.3978 0.039,2.7816 -0.162,4.1113 -0.214,1.4153 -0.596,2.6263 -1.137,3.5966 -0.294,0.5252 -0.82,0.848 -1.39,0.848 -0.788,0 -1.643,0.0332 -2.554,0.0995 l 1.697,0.1832 c 0.52,0.0559 0.983,0.3787 1.242,0.8673 0.261,0.4886 0.285,1.0819 0.068,1.5932 -0.554,1.3088 -1.244,2.5635 -2.049,3.7274 -0.835,1.2076 -1.844,2.2808 -3.002,3.1917 -1.16,0.9109 -2.494,1.6456 -3.965,2.183 -1.476,0.5392 -3.156,0.8289 -4.993,0.8568 -0.078,0.0053 -0.157,0.007 -0.236,0.007 z m 1.233,-10.8646 c 0.222,0 0.309,-0.0331 0.311,-0.0331 0.05,-0.0227 0.105,-0.0611 0.162,-0.1204 0.116,-0.1187 0.238,-0.2792 0.363,-0.4817 0,0 0.194,-0.3176 0.207,-0.3385 -0.4,0.0227 -0.791,0.0401 -1.167,0.0524 -0.024,0.1954 -0.024,0.3926 0,0.595 0.018,0.1414 0.047,0.2461 0.081,0.3246 0.013,0.0017 0.028,0.0017 0.043,0.0017 z m 20.949,10.2015 c -1.456,0 -2.722,-0.2373 -3.759,-0.705 -1.108,-0.5008 -2.02,-1.1639 -2.71,-1.9754 -0.7,-0.8236 -1.196,-1.7607 -1.469,-2.7885 -0.26,-0.9668 -0.358,-1.9039 -0.295,-2.7868 0.034,-0.4747 0.246,-0.9144 0.589,-1.2163 0.316,-0.2792 0.739,-0.5811 1.293,-0.9266 l 1.818,-1.1151 c 0.395,-0.2443 0.791,-0.4851 1.183,-0.7242 l 0.585,-0.356 c 0.351,-0.2129 0.651,-0.4049 0.899,-0.5759 -0.084,-0.0418 -0.169,-0.0837 -0.251,-0.1273 -0.647,-0.3403 -1.232,-0.7557 -1.739,-1.2338 -0.687,-0.6491 -1.116,-1.4972 -1.242,-2.4518 -0.159,-1.1918 -0.052,-2.3558 0.314,-3.4569 0.337,-1.0103 0.826,-1.9527 1.455,-2.8042 0.594,-0.8045 1.294,-1.5514 2.078,-2.218 0.739,-0.6282 1.484,-1.1883 2.215,-1.6665 0.719,-0.4711 1.414,-0.8795 2.064,-1.2145 l 0.407,-0.2077 c 0.461,-0.2321 0.834,-0.4101 1.145,-0.5427 0.005,-0.0017 0.011,-0.0052 0.016,-0.007 1.326,-0.5532 2.756,-0.9004 4.248,-1.0313 0.431,-0.0384 0.862,-0.0576 1.282,-0.0576 1.035,0 2.044,0.1169 2.999,0.3473 1.409,0.3403 2.66,0.9545 3.713,1.8218 1.184,0.9755 1.937,2.2476 2.236,3.785 0.147,0.7591 -0.188,1.5304 -0.822,1.8968 l -6.244,3.5965 c -0.137,0.0803 -0.282,0.1362 -0.429,0.1693 l 0.01,0.0035 c 0.706,0.2478 1.351,0.6195 1.92,1.1081 0.557,0.4799 1.035,1.047 1.417,1.684 0.392,0.6491 0.672,1.3628 0.836,2.1184 0.172,0.7923 0.188,1.5915 0.052,2.3733 -0.229,1.3751 -0.719,2.7414 -1.458,4.0624 -0.745,1.3332 -1.782,2.5443 -3.08,3.6 -1.273,1.0348 -2.847,1.8934 -4.676,2.5513 -1.816,0.6526 -3.943,1.0103 -6.321,1.0662 -0.097,0.0035 -0.188,0.0052 -0.279,0.0052 z m 3.691,-10.6412 c 0.022,0.0017 0.047,0.0017 0.069,0.0017 0.128,0 0.274,-0.0209 0.435,-0.061 0.184,-0.0472 0.367,-0.1082 0.544,-0.1833 -0.02,-0.0087 -0.041,-0.0192 -0.062,-0.0279 -0.484,-0.2199 -1.035,-0.4275 -1.638,-0.616 l -1.845,-0.5793 -0.021,-0.0053 c 0.118,0.2374 0.229,0.4468 0.327,0.623 0.104,0.1832 0.217,0.3281 0.339,0.431 0.086,0.0733 0.233,0.1361 0.415,0.1815 0.356,0.0855 0.839,0.1658 1.437,0.2356 z m 4.321,-9.3918 c 0.225,0.0995 0.455,0.2007 0.688,0.3002 0.439,0.1867 0.864,0.3629 1.264,0.5235 -0.209,-0.2653 -0.47,-0.4904 -0.794,-0.6893 -0.186,-0.1152 -0.446,-0.1728 -0.77,-0.1728 -0.055,0 -0.111,0.0018 -0.168,0.0053 -0.073,0.0087 -0.146,0.0209 -0.22,0.0331 z"
           fill="#f3f000"
           id="path828" />
        <path
           d="m 239.432,22.9955 c 1.347,0.1326 2.328,0.5741 2.94,1.3262 0.612,0.7521 0.969,1.7293 1.066,2.9299 0.097,1.2006 -0.018,2.574 -0.35,4.1183 -0.33,1.5444 -0.766,3.1672 -1.306,4.8704 -0.539,1.7031 -1.134,3.4517 -1.782,5.2473 -0.648,1.7957 -1.255,3.5232 -1.819,5.1863 -0.98,0.2896 -2.249,0.4955 -3.804,0.6142 -1.556,0.1187 -3.364,-0.007 -5.423,-0.3769 1.219,-3.08 2.225,-5.8703 3.019,-8.3727 L 232.079,38.2 c 0.344,-1.082 0.661,-2.1517 0.956,-3.2074 0.295,-1.0558 0.516,-1.9998 0.661,-2.8304 0.148,-0.8324 0.203,-1.5112 0.166,-2.04 -0.038,-0.5287 -0.203,-0.8045 -0.496,-0.8324 -0.491,-0.0523 -0.932,0.0454 -1.324,0.2967 -0.392,0.2513 -0.747,0.5741 -1.066,0.9702 -0.319,0.3961 -0.601,0.8376 -0.846,1.3262 -0.244,0.4887 -0.453,0.9563 -0.625,1.4065 -0.441,1.1343 -0.846,2.2825 -1.213,3.4447 l -0.196,0.623 c -0.255,0.8167 -0.483,1.5775 -0.686,2.2825 l -0.074,0.2618 c -0.319,1.1081 -0.613,2.1917 -0.883,3.2475 l -8.713,0.5549 0.24,-0.9667 c 0.358,-1.4327 0.706,-2.7869 1.046,-4.0607 l 0.344,-1.328 0.172,-0.6701 c 0.115,-0.4485 0.223,-0.8795 0.327,-1.2931 l 0.311,-1.2477 c 0.052,-0.2041 0.102,-0.3996 0.15,-0.5846 l 0.158,-0.6002 c 0.089,-0.3438 0.154,-0.6143 0.194,-0.808 l 0.237,-0.8725 0.33,-1.1971 c 0.167,-0.5933 0.358,-1.2547 0.574,-1.9824 l 0.073,-0.2443 c 0.26,-0.8795 0.547,-1.8166 0.857,-2.8112 l 0.116,-0.3752 c 0.355,-1.1343 0.716,-2.2773 1.084,-3.4255 0.368,-1.1482 0.742,-2.2773 1.121,-3.3854 0.379,-1.1081 0.742,-2.1115 1.084,-3.0084 0.22,-0.0785 0.564,-0.1658 1.029,-0.2565 l 0.361,-0.0698 c 0.374,-0.0698 0.787,-0.1379 1.238,-0.2077 0.601,-0.0925 1.231,-0.171 1.894,-0.2373 l 0.779,-0.0768 c 0.254,-0.0244 0.505,-0.0471 0.75,-0.0698 l 0.365,-0.0331 c 0.525,-0.0454 1.004,-0.0821 1.435,-0.1082 l 0.181,-0.0105 c 0.478,-0.0262 0.828,-0.0262 1.049,0 l -3.456,10.4527 c 0.784,-0.2635 1.593,-0.5008 2.427,-0.7119 0.711,-0.185 1.526,-0.3368 2.445,-0.4555 0.92,-0.1221 1.847,-0.1413 2.777,-0.0628 z M 65.149,35.4864 c -0.1717,0.5567 -0.4067,1.0924 -0.7015,1.609 -0.2949,0.5165 -0.6643,0.9807 -1.1065,1.3908 -0.4423,0.41 -0.9656,0.7556 -1.5683,1.033 -0.6027,0.2775 -1.2977,0.4433 -2.0851,0.4973 -1.0579,0.0803 -1.876,-0.1186 -2.4528,-0.5968 -0.5784,-0.4763 -0.9834,-1.1255 -1.2183,-1.9474 -0.2333,-0.8219 -0.3143,-1.7625 -0.2398,-2.8217 0.0745,-1.0593 0.2463,-2.1325 0.5168,-3.2196 0.196,-0.794 0.5039,-1.7154 0.9219,-2.7624 0.4179,-1.047 0.9348,-2.0539 1.5504,-3.0207 0.6156,-0.9667 1.3398,-1.8078 2.1774,-2.5233 0.836,-0.7154 1.7837,-1.1395 2.8417,-1.2721 l 0.0972,-0.014 c 0.4455,-0.0558 0.8019,0.0227 1.066,0.2321 0.2835,0.2251 0.4925,0.5567 0.627,0.9929 0.1361,0.438 0.1912,0.9668 0.1652,1.5898 -0.0243,0.6229 -0.0988,1.2913 -0.2219,2.0068 l 8.3014,-1.1919 c 0.4423,-1.6421 0.627,-3.073 0.5541,-4.2928 -0.0746,-1.218 -0.3386,-2.265 -0.7939,-3.1393 -0.4552,-0.8743 -1.045,-1.5897 -1.7708,-2.1464 -0.7258,-0.5567 -1.5196,-0.9877 -2.3799,-1.2913 -0.8603,-0.3054 -1.74,-0.4904 -2.6375,-0.5567 -0.8976,-0.0663 -1.74,-0.0593 -2.5274,0.0192 -2.2633,0.2653 -4.3726,0.9598 -6.3281,2.0871 -1.9555,1.1255 -3.689,2.5442 -5.2021,4.2526 -1.5132,1.7084 -2.7801,3.6437 -3.8008,5.8023 -1.0207,2.1586 -1.7157,4.4044 -2.0851,6.7358 -0.3694,2.3314 -0.2948,4.4777 0.222,6.4374 0.5168,1.9614 1.3771,3.6227 2.5824,4.9873 1.2054,1.3646 2.7056,2.3715 4.5007,3.0207 1.795,0.6491 3.7764,0.8271 5.9409,0.5357 1.6233,-0.2111 3.2045,-0.609 4.7404,-1.1919 1.5375,-0.5828 2.9389,-1.3576 4.2058,-2.3243 1.2669,-0.9668 2.3734,-2.1464 3.3212,-3.5372 0.9478,-1.3908 1.6541,-3.0137 2.1223,-4.8687 z M 92.0443,27.8257 C 92.007,27.0632 91.8337,26.4158 91.5226,25.88 c -0.311,-0.5339 -0.8376,-0.8149 -1.5828,-0.8428 -0.546,0 -1.0919,0.2199 -1.6379,0.6613 -0.546,0.4415 -1.0612,1.0226 -1.5456,1.7451 -0.4844,0.7224 -0.8992,1.5234 -1.2475,2.4064 -0.3483,0.883 -0.5832,1.752 -0.708,2.6071 -0.0988,0.5339 -0.1928,1.1622 -0.2786,1.8846 -0.0875,0.7224 -0.1053,1.417 -0.0551,2.0853 0.0502,0.6684 0.1993,1.2495 0.4471,1.745 0.2479,0.4939 0.6708,0.7818 1.2653,0.8621 0.5217,0.0541 1.0547,-0.0942 1.6007,-0.4415 0.546,-0.3473 1.0677,-0.8289 1.5634,-1.4431 0.4958,-0.6143 0.9364,-1.3298 1.322,-2.1464 0.384,-0.815 0.6642,-1.6648 0.8376,-2.546 0.1247,-0.6422 0.2544,-1.3838 0.3904,-2.2267 0.1378,-0.8394 0.188,-1.6421 0.1507,-2.4047 z m 2.7736,14.0982 c -1.2167,1.2302 -2.5759,2.2057 -4.0778,2.9281 -1.5018,0.7225 -3.0344,1.0837 -4.5978,1.0837 -1.5893,0.0262 -3.0215,-0.3071 -4.2998,-1.0034 -1.2782,-0.6963 -2.3394,-1.6438 -3.1835,-2.8479 -0.844,-1.2023 -1.4402,-2.621 -1.7869,-4.2509 -0.3484,-1.6316 -0.3727,-3.3696 -0.0746,-5.2141 0.2981,-1.8446 0.8311,-3.5826 1.6007,-5.2142 0.7695,-1.6316 1.7384,-3.0608 2.9048,-4.291 1.1665,-1.2303 2.5128,-2.1988 4.0406,-2.9073 1.5261,-0.7085 3.1835,-1.0889 4.9704,-1.143 1.5634,-0.0261 2.9843,0.3002 4.2625,0.9825 1.2783,0.6823 2.3395,1.6316 3.1835,2.8479 0.8441,1.2163 1.4403,2.6402 1.787,4.2718 0.3467,1.6316 0.3726,3.3697 0.0745,5.2142 -0.2981,1.8445 -0.8683,3.5895 -1.7124,5.2333 -0.8441,1.6421 -1.8745,3.08 -3.0912,4.3103 z M 115.11,34.9734 c -0.379,0.8045 -0.815,1.5112 -1.304,2.1185 -0.49,0.6072 -1.005,1.0819 -1.544,1.4257 -0.54,0.3437 -1.066,0.4886 -1.58,0.4362 -0.588,-0.0785 -1.004,-0.3629 -1.249,-0.8516 -0.245,-0.4886 -0.392,-1.0627 -0.441,-1.7223 -0.048,-0.6596 -0.031,-1.3454 0.055,-2.0591 0.086,-0.7138 0.178,-1.3332 0.276,-1.8602 0.123,-0.8446 0.355,-1.7015 0.698,-2.5722 0.343,-0.8708 0.753,-1.663 1.231,-2.375 0.478,-0.712 0.987,-1.2861 1.525,-1.7224 0.539,-0.4362 1.077,-0.6526 1.617,-0.6526 0.735,0.0262 1.255,0.3036 1.561,0.8306 0.307,0.527 0.478,1.1675 0.516,1.9196 0.037,0.7521 -0.013,1.5443 -0.148,2.375 -0.134,0.8306 -0.264,1.5635 -0.385,2.197 -0.174,0.869 -0.449,1.7066 -0.828,2.5128 z m 8.764,-7.7392 c -0.343,-1.6089 -0.931,-3.0154 -1.764,-4.216 -0.833,-1.2006 -1.881,-2.1377 -3.141,-2.8113 -1.262,-0.6736 -2.665,-0.9964 -4.208,-0.9702 -1.764,0.0523 -3.399,0.4293 -4.905,1.1273 -1.507,0.698 -2.835,1.656 -3.987,2.8706 -1.152,1.2145 -2.108,2.6262 -2.866,4.2352 -0.76,1.6089 -1.287,3.3242 -1.58,5.1461 -0.293,1.8218 -0.269,3.5354 0.073,5.1461 0.343,1.6089 0.932,3.0084 1.764,4.1968 0.833,1.1883 1.881,2.1237 3.142,2.8112 1.262,0.6858 2.676,1.0156 4.244,0.9895 1.544,0 3.057,-0.356 4.538,-1.068 1.481,-0.712 2.824,-1.6752 4.025,-2.8898 1.2,-1.2145 2.217,-2.6315 3.05,-4.2561 0.833,-1.6229 1.397,-3.3452 1.69,-5.1653 0.293,-1.8201 0.267,-3.5372 -0.075,-5.1461 z m 8.858,-12.3531 -10.293,31.3007 9.748,-1.4502 9.603,-30.5573 z m 37.063,5.9697 -0.117,-0.0034 c -0.512,-0.0053 -1.108,0.1221 -1.79,0.3786 -0.734,0.2757 -1.491,0.6125 -2.273,1.0069 -0.783,0.3944 -1.559,0.8219 -2.328,1.2826 -0.77,0.4607 -1.449,0.876 -2.035,1.2442 -0.073,-0.4205 -0.172,-0.862 -0.293,-1.3227 -0.122,-0.4607 -0.294,-0.8813 -0.514,-1.2634 -0.22,-0.3822 -0.507,-0.705 -0.862,-0.9668 -0.355,-0.2635 -0.813,-0.4205 -1.375,-0.4746 -0.856,-0.0524 -1.711,0.0192 -2.567,0.2164 -0.855,0.1972 -1.637,0.4275 -2.345,0.691 -0.832,0.3159 -1.638,0.6841 -2.419,1.1064 l 0.807,-2.8043 c -0.294,-0.0262 -0.807,0.0139 -1.54,0.1186 l -0.369,0.0541 c -0.62,0.0925 -1.269,0.2007 -1.939,0.3211 -0.807,0.1449 -1.57,0.3019 -2.291,0.4747 l -0.133,0.0314 c -0.653,0.1588 -1.127,0.2984 -1.426,0.4223 -1.051,2.7641 -1.924,5.0937 -2.621,6.9888 l -0.17,0.466 c -0.608,1.6839 -1.047,3.0677 -1.316,4.1531 -0.058,0.1903 -0.129,0.4468 -0.21,0.7714 l -0.112,0.4502 c -0.066,0.2635 -0.138,0.5462 -0.215,0.8446 l -0.3,1.1395 -0.279,1.0784 c -0.159,0.6195 -0.324,1.2303 -0.494,1.8358 -0.235,0.869 -0.478,1.7747 -0.731,2.7205 l -0.516,1.9405 7.661,-0.7504 c 0.175,-0.5828 0.361,-1.1919 0.561,-1.8288 l 0.244,-0.7765 c 0.089,-0.2635 0.185,-0.5393 0.284,-0.8289 l 0.771,-2.2406 c 0.324,-0.9249 0.68,-1.9039 1.072,-2.9334 0.107,-0.2793 0.226,-0.5846 0.357,-0.9162 l 0.248,-0.623 c 0.231,-0.5793 0.5,-1.1185 0.807,-1.6194 0.306,-0.5008 0.635,-0.9144 0.989,-1.2442 0.355,-0.3298 0.752,-0.4799 1.191,-0.4537 0.269,0.0262 0.441,0.2304 0.514,0.6125 0.073,0.3822 0.079,0.876 0.018,1.4816 -0.062,0.6055 -0.183,1.2895 -0.367,2.0539 -0.183,0.7625 -0.385,1.5408 -0.604,2.3296 -0.538,1.8689 -1.234,3.9752 -2.09,6.3188 1.833,0.2896 3.446,0.3559 4.839,0.1971 1.394,-0.1588 2.542,-0.3943 3.446,-0.7102 0.587,-1.738 1.186,-3.436 1.797,-5.0937 l 0.182,-0.4956 c 0.536,-1.4781 1.014,-2.8933 1.432,-4.244 0.39,-0.7625 0.782,-1.3558 1.173,-1.7764 0.39,-0.4205 0.917,-0.6055 1.576,-0.5532 0.269,0.0262 0.428,0.2705 0.476,0.7312 0.049,0.4607 0.025,1.0592 -0.073,1.7974 -0.097,0.7364 -0.256,1.5792 -0.476,2.5268 -0.22,0.9475 -0.465,1.9091 -0.734,2.8828 -0.578,2.0818 -1.307,4.4254 -2.187,7.029 l -0.269,0.7887 8.285,-0.513 c 1.711,-4.4219 2.97,-8.3971 3.777,-11.9256 0.342,-1.5007 0.611,-2.9683 0.807,-4.4027 0.196,-1.4344 0.238,-2.7187 0.128,-3.8495 -0.111,-1.1326 -0.404,-2.0539 -0.88,-2.7642 -0.478,-0.7137 -1.204,-1.0819 -2.182,-1.1081 z m 12.406,16.0927 c -0.098,0.5305 -0.068,0.9546 0.093,1.2722 0.16,0.3176 0.393,0.5636 0.701,0.7364 0.308,0.1727 0.664,0.2792 1.071,0.3176 0.407,0.0384 0.794,0.0192 1.163,-0.0594 l 0.076,-0.1832 c 0.117,-0.2914 0.248,-0.6579 0.393,-1.0976 l 0.048,-0.1501 c 0.131,-0.4066 0.266,-0.8097 0.402,-1.211 l 0.381,-1.0977 c 0.111,-0.3228 0.215,-0.6299 0.311,-0.9179 l 0.345,-1.0627 c 0.005,-0.0157 0.01,-0.0296 0.014,-0.0436 l 0.008,-0.0279 c 0.007,-0.0192 0.012,-0.0367 0.017,-0.0541 -1.181,-0.2914 -2.239,-0.1396 -3.176,0.4572 -0.936,0.5968 -1.552,1.6386 -1.847,3.1218 z m 13.992,-7.6537 c -0.148,0.6492 -0.339,1.4048 -0.572,2.2668 l -0.161,0.5864 c -0.192,0.698 -0.403,1.4431 -0.633,2.2371 -0.222,0.7661 -0.451,1.5339 -0.685,2.3069 l -0.637,2.0731 c -0.634,2.0557 -1.325,4.2736 -2.074,6.6538 l -9.008,2.2668 c 0.172,-0.3978 0.332,-0.7957 0.48,-1.1936 0.099,-0.2757 0.209,-0.5601 0.33,-0.8533 l 0.519,-1.2145 c -0.616,0.2914 -1.317,0.5165 -2.105,0.6753 -0.787,0.1588 -1.587,0.2391 -2.399,0.2391 -0.812,0 -1.606,-0.0995 -2.382,-0.2984 -0.776,-0.199 -1.464,-0.5096 -2.067,-0.9336 -0.603,-0.4241 -1.082,-0.9807 -1.44,-1.67 -0.357,-0.6893 -0.535,-1.5234 -0.535,-2.5059 0.025,-2.3331 0.616,-4.401 1.773,-6.2036 1.156,-1.8026 2.645,-3.1951 4.466,-4.1759 0.836,-0.4502 1.68,-0.8027 2.529,-1.054 0.849,-0.2512 1.661,-0.417 2.437,-0.4973 0.776,-0.0803 1.502,-0.0995 2.177,-0.0593 0.676,0.0401 1.274,0.1134 1.79,0.2181 0.025,-0.2652 0.056,-0.5165 0.093,-0.7556 0.037,-0.2391 0.048,-0.4642 0.037,-0.6753 -0.013,-0.2129 -0.079,-0.4049 -0.202,-0.5759 -0.124,-0.1727 -0.333,-0.3385 -0.627,-0.4973 -0.665,-0.3176 -1.496,-0.438 -2.492,-0.3577 -0.996,0.0802 -1.962,0.239 -2.898,0.4763 -1.109,0.2915 -2.239,0.6492 -3.396,1.0732 l 3.101,-7.0778 c 0.714,-0.2653 1.489,-0.4764 2.326,-0.6369 0.715,-0.1327 1.538,-0.2129 2.474,-0.2391 0.935,-0.0262 1.957,0.0663 3.064,0.2792 0.664,0.1588 1.403,0.3769 2.214,0.6561 0.812,0.2792 1.569,0.7294 2.27,1.3524 0.702,0.623 1.286,1.4711 1.753,2.5443 0.468,1.0732 0.702,2.4727 0.702,4.195 0,0.2478 -0.065,0.6632 -0.193,1.2442 z m 24.014,-6.2175 c 0.185,-0.6509 0.29,-1.1221 0.315,-1.4135 -0.321,0 -0.703,0.014 -1.147,0.0401 l -0.226,0.014 c -0.38,0.0262 -0.785,0.0611 -1.216,0.1047 l -0.391,0.0401 -1.199,0.1187 c -0.542,0.0523 -1.072,0.0803 -1.591,0.0803 l 1.159,-3.0748 c 0.095,-0.2565 0.188,-0.5043 0.275,-0.7416 l 0.25,-0.6858 c 0.139,-0.3892 0.27,-0.7609 0.393,-1.1151 l 0.284,-0.8237 c 0.071,-0.2059 0.144,-0.417 0.219,-0.6317 l 0.23,-0.6561 c -0.449,0.0925 -1.032,0.185 -1.748,0.2757 l -0.718,0.089 c -0.761,0.0943 -1.554,0.199 -2.377,0.3124 -0.96,0.1326 -1.892,0.2792 -2.791,0.438 -0.899,0.1588 -1.633,0.3315 -2.2,0.5183 -0.075,0.2076 -0.151,0.424 -0.229,0.6509 l -0.212,0.6177 -0.841,2.4989 -0.316,0.9214 c -0.133,0.3821 -0.275,0.7922 -0.431,1.2285 l -0.191,0.5357 c -0.246,0.0174 -0.489,0.0349 -0.729,0.0523 l -2.378,0.1676 c -0.749,0.0523 -1.332,0.0994 -1.752,0.1431 l -0.319,0.0366 -2.292,8.0062 4.956,-0.7172 c -0.246,0.8498 -0.549,1.7922 -0.906,2.8287 l -0.266,0.7783 c -0.264,0.78 -0.52,1.5618 -0.769,2.3488 -0.332,1.0488 -0.622,2.0522 -0.868,3.0067 -0.247,0.9563 -0.37,1.766 -0.37,2.4291 l -0.001,0.1937 c -0.002,1.0819 0.178,1.9806 0.537,2.6943 0.383,0.7574 0.9,1.3611 1.554,1.8131 0.653,0.452 1.418,0.7574 2.293,0.9162 0.874,0.1588 1.799,0.232 2.773,0.2198 0.974,-0.0139 1.96,-0.1064 2.958,-0.2792 0.998,-0.1727 1.954,-0.3786 2.866,-0.6177 l 2.552,-7.2489 c -0.567,0.1326 -1.196,0.253 -1.886,0.3577 -0.69,0.1065 -1.325,0.1257 -1.905,0.0594 -0.58,-0.0663 -1.055,-0.2583 -1.424,-0.5776 -0.369,-0.3194 -0.493,-0.8237 -0.369,-1.513 l 0.048,-0.2897 c 0.201,-1.1587 0.519,-2.3575 0.951,-3.5947 0.368,-1.054 0.758,-2.2092 1.173,-3.4691 l 0.344,-1.0523 6.213,-0.7172 c 0.086,-0.2304 0.212,-0.5951 0.38,-1.0941 l 0.208,-0.6178 c 0.084,-0.2548 0.17,-0.5148 0.257,-0.78 l 0.264,-0.8132 c 0.218,-0.691 0.422,-1.3629 0.606,-2.012 z m 62.433,9.5279 c 0.343,-1.321 0.649,-2.5618 0.92,-3.7239 l -15.231,0.7137 -1.471,7.3692 6.474,-0.1186 c -0.073,0.185 -0.245,0.4293 -0.515,0.7329 -0.271,0.3036 -0.638,0.6073 -1.103,0.9109 -0.467,0.3036 -1.024,0.5811 -1.674,0.8324 -0.65,0.2513 -1.367,0.4031 -2.151,0.4554 -1.055,0.0786 -1.925,-0.0523 -2.612,-0.3961 -0.687,-0.3437 -1.213,-0.8516 -1.581,-1.5251 -0.368,-0.6736 -0.583,-1.4728 -0.643,-2.3977 -0.06,-0.9249 -0.007,-1.9422 0.165,-3.0503 0.172,-1.1099 0.491,-2.2197 0.956,-3.3278 0.466,-1.1099 1.054,-2.1324 1.766,-3.0713 0.711,-0.9371 1.521,-1.7241 2.428,-2.3575 0.907,-0.6335 1.889,-1.0174 2.944,-1.1482 0.956,-0.1327 1.673,0.171 2.151,0.9109 0.478,0.7399 0.584,1.8357 0.313,3.2894 l 8.277,-1.1884 c 0.441,-1.6386 0.625,-3.0643 0.553,-4.2788 -0.073,-1.2146 -0.337,-2.2581 -0.791,-3.1306 -0.454,-0.8725 -1.042,-1.5845 -1.766,-2.1394 -0.724,-0.555 -1.515,-0.9842 -2.373,-1.2879 -0.859,-0.3036 -1.736,-0.4886 -2.631,-0.5549 -0.896,-0.0663 -1.736,-0.0593 -2.52,0.0192 -2.256,0.2635 -4.359,0.958 -6.308,2.0801 -1.949,1.122 -3.68,2.5355 -5.188,4.2404 -1.508,1.7032 -2.772,3.6314 -3.789,5.7848 -1.018,2.1534 -1.711,4.3922 -2.079,6.7166 -0.368,2.3244 -0.295,4.4638 0.22,6.4183 0.516,1.9544 1.374,3.6122 2.575,4.9733 1.2,1.3611 2.697,2.3645 4.487,3.0119 1.791,0.6474 3.766,0.8254 5.924,0.5358 1.838,-0.2374 3.457,-0.7138 4.855,-1.4257 1.398,-0.7137 2.618,-1.5775 3.66,-2.5949 1.042,-1.0173 1.924,-2.1534 2.649,-3.408 0.724,-1.2547 1.336,-2.5495 1.838,-3.8827 0.504,-1.3402 0.927,-2.6665 1.271,-3.9874 z m 10.148,4.1898 c -0.097,0.52 -0.066,0.9371 0.091,1.2494 0.157,0.3124 0.387,0.5532 0.688,0.7225 0.302,0.1692 0.653,0.2739 1.052,0.3123 0.398,0.0384 0.779,0.0192 1.142,-0.0593 l 0.074,-0.1797 c 0.115,-0.2862 0.243,-0.6457 0.386,-1.0785 l 0.049,-0.1466 c 0.192,-0.5985 0.392,-1.1901 0.597,-1.7764 l 0.17,-0.4886 c 0.111,-0.3176 0.211,-0.6177 0.305,-0.9022 l 0.339,-1.0435 c 0.008,-0.0244 0.014,-0.0471 0.021,-0.0681 l 0.013,-0.0419 0.003,-0.0122 c -1.16,-0.2862 -2.199,-0.1361 -3.117,0.4485 -0.919,0.5863 -1.523,1.6072 -1.813,3.0643 z m 13.738,-7.5141 c -0.131,0.5793 -0.298,1.2459 -0.5,1.9963 l -0.219,0.8044 c -0.189,0.6841 -0.397,1.417 -0.622,2.197 -0.217,0.7522 -0.442,1.506 -0.672,2.2651 l -0.626,2.0364 c -0.622,2.0191 -1.301,4.1969 -2.036,6.5317 l -8.844,2.2249 c 0.168,-0.3909 0.325,-0.78 0.471,-1.1709 0.097,-0.2705 0.204,-0.5497 0.324,-0.8376 l 0.509,-1.1936 c -0.604,0.2862 -1.293,0.5078 -2.066,0.6631 -0.773,0.1553 -1.558,0.2338 -2.355,0.2338 -0.798,0 -1.577,-0.0977 -2.338,-0.2931 -0.762,-0.1955 -1.437,-0.5009 -2.03,-0.9179 -0.592,-0.4171 -1.063,-0.9633 -1.415,-1.6403 -0.35,-0.6771 -0.524,-1.4973 -0.524,-2.4588 0.024,-2.2912 0.604,-4.3207 1.74,-6.0902 1.135,-1.7694 2.597,-3.1358 4.385,-4.099 0.822,-0.4433 1.649,-0.7871 2.484,-1.0349 0.834,-0.2477 1.631,-0.41 2.393,-0.4886 0.761,-0.0785 1.474,-0.0977 2.138,-0.0593 0.664,0.0384 1.251,0.1099 1.758,0.2146 0.024,-0.26 0.055,-0.5078 0.091,-0.7416 0.035,-0.2338 0.048,-0.4554 0.035,-0.6631 -0.011,-0.2077 -0.077,-0.3961 -0.199,-0.5654 -0.121,-0.1693 -0.326,-0.3316 -0.616,-0.4886 -0.652,-0.3124 -1.467,-0.4293 -2.446,-0.3508 -0.978,0.0786 -1.926,0.2339 -2.845,0.4677 -1.087,0.2862 -2.198,0.6369 -3.334,1.054 l 3.044,-6.9487 c 0.702,-0.26 1.462,-0.4677 2.283,-0.6247 0.701,-0.1309 1.51,-0.2077 2.428,-0.2339 0.919,-0.0261 1.922,0.0646 3.009,0.274 0.653,0.1553 1.377,0.3717 2.174,0.6439 0.797,0.274 1.541,0.7155 2.229,1.328 0.689,0.6125 1.262,1.4449 1.723,2.4989 0.46,1.054 0.688,2.4273 0.688,4.1183 0,0.2425 -0.063,0.6509 -0.189,1.2215 z m 32.177,-8.432 -0.116,-0.0035 c -0.509,-0.0035 -1.102,0.1204 -1.778,0.3752 -0.727,0.2739 -1.48,0.6072 -2.256,0.9999 -0.776,0.3926 -1.548,0.8166 -2.312,1.2738 -0.765,0.4572 -1.439,0.8691 -2.021,1.2355 -0.073,-0.4188 -0.17,-0.8568 -0.291,-1.314 -0.122,-0.4572 -0.292,-0.876 -0.511,-1.2547 -0.218,-0.3786 -0.503,-0.6997 -0.855,-0.9597 -0.352,-0.2618 -0.807,-0.4188 -1.366,-0.4712 -0.849,-0.0523 -1.699,0.0192 -2.548,0.2164 -0.849,0.1954 -1.627,0.424 -2.33,0.6858 -0.824,0.3141 -1.626,0.6788 -2.402,1.0976 l 0.8,-2.7833 c -0.292,-0.0262 -0.8,0.0122 -1.529,0.1169 l -0.368,0.0541 c -0.618,0.0925 -1.259,0.1989 -1.927,0.3193 -0.8,0.1431 -1.558,0.3002 -2.274,0.4712 l -0.131,0.0314 c -0.648,0.1571 -1.12,0.2967 -1.416,0.4188 -0.642,1.6892 -1.219,3.2144 -1.727,4.5772 l -0.877,2.3628 c -0.692,1.8829 -1.183,3.4116 -1.474,4.5877 -0.059,0.1885 -0.128,0.4432 -0.209,0.7661 l -0.112,0.4484 c -0.065,0.2618 -0.136,0.5428 -0.214,0.8394 l -0.298,1.1325 -0.277,1.0697 c -0.157,0.6143 -0.321,1.2216 -0.491,1.8236 -0.233,0.862 -0.475,1.7625 -0.726,2.7013 l -0.512,1.9265 7.608,-0.7451 c 0.174,-0.5793 0.36,-1.1849 0.558,-1.8166 l 0.243,-0.7713 0.16,-0.4694 c 0.039,-0.1152 0.079,-0.2338 0.122,-0.3542 l 0.766,-2.225 c 0.321,-0.9196 0.676,-1.8898 1.064,-2.9124 0.107,-0.2775 0.224,-0.5811 0.355,-0.9092 l 0.246,-0.6195 c 0.23,-0.5758 0.498,-1.1116 0.801,-1.6071 0.303,-0.4974 0.63,-0.9092 0.983,-1.2355 0.352,-0.3263 0.747,-0.4764 1.183,-0.4502 0.267,0.0261 0.437,0.2286 0.51,0.6072 0.073,0.3787 0.08,0.8691 0.018,1.4711 -0.06,0.602 -0.181,1.2808 -0.365,2.0382 -0.181,0.7573 -0.382,1.5286 -0.601,2.3139 -0.534,1.8567 -1.224,3.9473 -2.075,6.2734 1.819,0.2879 3.422,0.3525 4.805,0.1954 1.384,-0.157 2.524,-0.3926 3.422,-0.705 0.583,-1.7258 1.178,-3.4115 1.784,-5.0588 l 0.179,-0.4921 c 0.533,-1.4676 1.007,-2.8723 1.423,-4.2143 0.389,-0.7573 0.776,-1.3454 1.165,-1.7642 0.389,-0.4188 0.91,-0.602 1.565,-0.5497 0.267,0.0262 0.424,0.2688 0.473,0.726 0.048,0.4572 0.024,1.0522 -0.073,1.7834 -0.097,0.7312 -0.254,1.5688 -0.473,2.5093 -0.219,0.9406 -0.462,1.8952 -0.728,2.8619 -0.573,2.0679 -1.297,4.394 -2.172,6.9801 l -0.267,0.7836 8.226,-0.5096 c 1.7,-4.3922 2.949,-8.3378 3.749,-11.8418 0.341,-1.4903 0.606,-2.9474 0.801,-4.3713 0.194,-1.424 0.236,-2.6996 0.128,-3.8234 -0.109,-1.1238 -0.4,-2.0382 -0.874,-2.7449 -0.473,-0.7067 -1.19,-1.0715 -2.161,-1.0976 z m 19.975,6.5386 c 0,-0.274 -0.056,-0.5095 -0.164,-0.705 -0.109,-0.1954 -0.298,-0.3071 -0.564,-0.3333 -1.359,-0.157 -2.403,0.0593 -3.13,0.6474 -0.727,0.5881 -1.298,1.3664 -1.711,2.3331 0.292,0.0786 0.674,0.1169 1.147,0.1169 0.473,0 0.964,-0.0069 1.475,-0.0192 0.408,-0.0104 0.795,-0.0244 1.164,-0.0436 l 0.53,-0.0296 c 0.326,-0.0175 0.587,-0.0245 0.781,-0.0245 0.122,-0.3403 0.23,-0.6788 0.327,-1.0191 0.098,-0.3403 0.145,-0.6491 0.145,-0.9231 z m -0.24,7.0883 -0.925,0.0873 c -1.238,0.1169 -2.445,0.2216 -3.623,0.3141 -1.178,0.0907 -2.25,0.1378 -3.222,0.1378 -0.146,0.2356 -0.274,0.5951 -0.383,1.0785 -0.108,0.4833 -0.132,0.9737 -0.073,1.471 0.06,0.4974 0.219,0.9284 0.474,1.2931 0.254,0.3647 0.673,0.5497 1.255,0.5497 0.365,0 0.668,-0.0524 0.911,-0.1571 0.243,-0.1047 0.466,-0.2617 0.674,-0.4711 0.205,-0.2094 0.406,-0.4712 0.601,-0.7835 l 0.171,-0.281 c 0.149,-0.246 0.31,-0.5183 0.483,-0.8167 l 8.7,0.9406 c -0.51,1.2023 -1.134,2.3401 -1.874,3.4116 -0.741,1.0714 -1.627,2.012 -2.657,2.8234 -1.031,0.8115 -2.209,1.4571 -3.532,1.9405 -1.322,0.4834 -2.821,0.7381 -4.496,0.7643 -1.554,0.0262 -2.833,-0.2286 -3.841,-0.7643 -1.008,-0.5357 -1.808,-1.2739 -2.403,-2.2162 -0.594,-0.9423 -1.007,-2.026 -1.238,-3.2545 -0.23,-1.2285 -0.345,-2.5093 -0.345,-3.8426 0,-2.2214 0.365,-4.2142 1.092,-5.9802 0.686,-1.6613 1.596,-3.3155 2.733,-4.9646 l 0.216,-0.3089 c 0.825,-1.2023 1.887,-2.2999 3.185,-3.2929 1.298,-0.9929 2.688,-1.731 4.169,-2.2161 1.48,-0.4852 2.985,-0.6475 4.513,-0.4904 1.528,0.1571 2.949,0.7713 4.259,1.8428 0.704,0.5758 1.245,1.4187 1.62,2.5285 0.376,1.1116 0.606,2.3 0.692,3.5686 0.086,1.2686 0.036,2.5024 -0.146,3.7047 -0.181,1.2023 -0.49,2.1953 -0.928,2.9805 -1.019,0 -2.129,0.0524 -3.331,0.1571 -0.899,0.0768 -1.809,0.1588 -2.731,0.246 z m 25.698,-6.8963 6.244,-3.5966 c -0.217,-1.1203 -0.763,-2.0399 -1.633,-2.7571 -0.87,-0.7172 -1.901,-1.218 -3.085,-1.506 -1.186,-0.2862 -2.45,-0.3717 -3.793,-0.2547 -1.343,0.1169 -2.606,0.424 -3.792,0.9196 -0.279,0.1204 -0.631,0.2862 -1.053,0.4991 l -0.401,0.2041 c -0.604,0.3124 -1.245,0.6911 -1.924,1.1343 -0.679,0.4432 -1.361,0.958 -2.051,1.5444 -0.691,0.5863 -1.295,1.232 -1.815,1.9352 -0.52,0.7033 -0.92,1.4728 -1.197,2.3069 -0.277,0.8342 -0.357,1.7067 -0.237,2.6193 0.073,0.548 0.308,1.0104 0.708,1.3873 0.399,0.3787 0.859,0.7033 1.379,0.9773 0.52,0.2739 1.058,0.4955 1.615,0.6648 0.371,0.1134 0.705,0.2112 1,0.2949 l 0.415,0.1152 1.869,0.5863 c 0.666,0.2077 1.27,0.4363 1.815,0.6841 0.544,0.2478 0.986,0.5025 1.325,0.7626 0.339,0.26 0.471,0.5479 0.399,0.8603 -0.073,0.3123 -0.242,0.6003 -0.509,0.8603 -0.268,0.26 -0.569,0.4764 -0.907,0.6456 -0.339,0.1693 -0.691,0.3002 -1.054,0.3909 -0.362,0.0908 -0.701,0.1239 -1.015,0.0977 -0.678,-0.0785 -1.228,-0.1692 -1.651,-0.2739 -0.423,-0.1047 -0.775,-0.274 -1.053,-0.5078 -0.279,-0.2339 -0.52,-0.534 -0.726,-0.8987 -0.165,-0.2915 -0.348,-0.6509 -0.553,-1.0767 l -0.155,-0.3316 c -0.339,0.26 -0.799,0.5672 -1.379,0.9197 l -0.583,0.3542 c -0.39,0.2373 -0.783,0.4781 -1.178,0.7207 l -1.808,1.1098 c -0.473,0.2949 -0.831,0.5497 -1.077,0.7661 -0.049,0.6771 0.031,1.4013 0.236,2.1708 0.206,0.7696 0.575,1.4659 1.107,2.0923 0.533,0.6247 1.246,1.1395 2.142,1.5444 0.896,0.4048 2.02,0.5933 3.376,0.5671 2.226,-0.0523 4.175,-0.3787 5.844,-0.9772 1.668,-0.5985 3.073,-1.3611 4.21,-2.2877 1.138,-0.9249 2.027,-1.9615 2.669,-3.1079 0.641,-1.1465 1.057,-2.307 1.252,-3.4796 0.097,-0.548 0.084,-1.1012 -0.036,-1.6613 -0.121,-0.5602 -0.327,-1.0819 -0.617,-1.5636 -0.29,-0.4816 -0.648,-0.9056 -1.071,-1.2704 -0.423,-0.3647 -0.901,-0.6386 -1.434,-0.8219 l -1.39,-0.5462 c -0.495,-0.1954 -1.019,-0.4118 -1.568,-0.6456 -0.642,-0.274 -1.246,-0.548 -1.814,-0.8219 -0.569,-0.274 -0.95,-0.5026 -1.144,-0.6841 -0.266,-0.2338 -0.345,-0.4764 -0.237,-0.7242 0.109,-0.2478 0.332,-0.4764 0.673,-0.684 0.338,-0.2077 0.738,-0.3787 1.197,-0.5078 0.46,-0.1309 0.896,-0.2216 1.307,-0.274 0.75,-0.0524 1.379,0.0785 1.888,0.3909 0.507,0.3141 0.931,0.691 1.27,1.1343 z"
           fill="#ff0000"
           id="path830" />
      </g>
    </g>
  </g>
</svg>
