<?xml version="1.0" encoding="UTF-8"?>
<svg width="209px" height="40px" viewBox="0 0 209 40" version="1.1" xmlns="http://www.w3.org/2000/svg" xmlns:xlink="http://www.w3.org/1999/xlink">
    <title>Group</title>
    <defs>
        <path d="M1.08911108,34.95 C0.689111082,36.65 1.68911108,38.1 4.38911108,38.7 C4.63911108,38.8 4.93911108,38.8 5.23911108,38.8 C7.13911108,38.65 9.43911108,38.55 12.6391111,38.6 C26.5891111,38.7 26.3391111,38.75 29.1391111,38.4 C30.0391111,38.3 30.8891111,38.1 31.7391111,37.95 C38.1391111,36.25 41.9391111,32.8 44.1391111,26.35 C44.7391111,24.85 45.0391111,23.25 45.1891111,21.6 C45.4891111,18.25 45.0891111,14.95 43.9391111,12 C41.4891111,5.4 37.3391111,2 30.4891111,0.6 C28.8391111,0.25 27.4391111,0 23.5891111,0 C20.3891111,0 15.5891111,0 7.68911108,0.4 L5.68911108,0.5 L5.43911108,0.5 C5.23911108,0.55 4.93911108,0.55 4.73911108,0.6 C1.58911108,1.25 0.689111082,2.2 1.08911108,3.9 C1.28911108,4.85 1.53911108,5.25 1.78911108,5.4 C4.83911108,6.9 4.73911108,7.15 5.13911108,13.95 C5.33911108,15.85 5.38911108,18.4 5.33911108,22.65 C5.23911108,31.7 5.33911108,32.25 3.58911108,32.9 C1.53911108,33.7 1.33911108,33.8 1.08911108,34.95 Z M24.5391111,31.9 C18.7891111,33.2 18.2891111,31.75 18.8391111,20.6 C19.0391111,16.5 19.0891111,12.5 18.9391111,8.75 C18.8391111,6.85 19.6391111,6.2 22.9391111,7.15 C26.8391111,8.15 28.2391111,9.8 29.6891111,15.75 C29.8891111,16.6 30.0391111,17.6 30.0891111,18.65 C30.5391111,27 27.7891111,31.2 24.5391111,31.9 Z" id="path-1"></path>
        <path d="M48.7391111,26.6 C48.8391111,28 49.1891111,29.45 49.7391111,30.85 C51.7391111,35.95 55.5391111,38.75 60.9391111,39.4 C65.4891111,40 69.4891111,39 72.3391111,37.1 C75.6891111,34.85 76.5391111,33.25 76.0891111,31.8 C75.7891111,30.95 75.1891111,30.3 74.4891111,30 C73.7891111,29.7 73.5391111,29.7 73.3891111,29.8 C73.1891111,29.95 72.9891111,30.05 72.7391111,30.2 C67.7391111,32.95 64.2391111,32.75 62.0391111,30.25 C61.0391111,29.15 60.6891111,28.6 60.4891111,27.8 C60.1891111,26.9 60.5391111,26.35 61.1391111,26.25 C61.3391111,26.25 61.5391111,26.25 61.6891111,26.35 C69.2891111,27.45 74.2891111,26.7 75.6891111,25.8 C77.3891111,24.7 77.5391111,24.1 77.0391111,20.9 C76.3891111,17.1 73.7391111,13.7 69.4891111,11.9 C67.6891111,11.15 65.7891111,10.65 63.8391111,10.65 C61.3391111,10.7 58.7891111,11.45 56.4391111,12.75 C51.3391111,15.6 48.7891111,19.9 48.6891111,25.15 C48.6891111,25.65 48.6891111,26.1 48.7391111,26.6 Z M63.5391111,21 C60.0891111,21.15 59.8391111,21.1 60.2891111,18.9 C60.3391111,18.5 60.4891111,18.15 60.6391111,17.8 C61.8391111,15.7 64.0391111,15.35 65.5891111,16.65 C65.9391111,17.1 66.1891111,17.45 66.3391111,17.9 C67.1391111,20.05 66.7391111,20.7 65.0891111,20.95 L64.9391111,20.95 L63.5391111,21 Z" id="path-2"></path>
        <path d="M80.7891111,7.6 C81.0391111,8.35 81.4891111,8.85 82.0891111,9.1 C85.4891111,10.45 85.6391111,11.1 85.3891111,21.6 C85.1391111,31.35 84.7391111,32.8 83.9891111,33.15 C83.4391111,33.35 82.9391111,33.6 82.4391111,33.9 C81.3891111,34.5 81.2891111,36.35 82.5891111,37.5 C83.1891111,38.15 83.9891111,38.45 86.2891111,38.8 L88.7391111,39.2 L88.8891111,39.2 C89.3391111,39.25 89.7891111,39.25 90.2391111,39.3 C94.5391111,39.35 96.9891111,39 98.2391111,38.6 C99.4391111,38.2 99.9891111,37.8 100.439111,37.3 C101.689111,36 101.389111,34.7 100.839111,34.45 C98.9891111,33.5 98.6391111,33.05 98.4891111,31.65 L98.2891111,29.8 L98.2891111,29.5 L98.1891111,27.75 L98.0891111,24.35 L97.8891111,18.15 C97.8391111,16.45 97.8391111,15.2 97.8891111,14.2 L98.0891111,5.75 L98.1391111,4.3 C98.1891111,0.7 97.8891111,0.35 94.8391111,0.6 L92.3391111,0.8 C91.6891111,0.85 91.0391111,0.95 90.4391111,1.1 C84.1891111,2.55 81.9891111,3.9 81.1891111,5.3 C80.6891111,6.15 80.5891111,6.95 80.7891111,7.6 Z" id="path-3"></path>
        <path d="M104.789111,14.6 C104.739111,15 104.739111,15.35 104.889111,15.75 C105.189111,16.5 105.489111,16.9 105.789111,17 C107.039111,17.5 107.339111,17.75 107.739111,18.25 C107.939111,18.5 108.089111,18.8 108.189111,19.05 C108.289111,19.4 108.339111,19.5 108.289111,19.6 C108.239111,21.2 108.189111,22.8 108.189111,24.35 C108.189111,36.45 110.539111,39.95 118.289111,39.5 C119.939111,39.4 121.439111,38.9 123.389111,37.6 C124.339111,37.05 124.689111,36.75 124.939111,36.45 L125.839111,35.6 C126.489111,35.3 127.139111,35.8 127.289111,37.3 L127.389111,38.85 C127.789111,39.4 128.739111,39.7 133.039111,39.3 C133.789111,39.2 134.539111,39.1 135.289111,38.9 L136.839111,38.5 L137.739111,38.25 C138.089111,38.15 138.389111,38.05 138.739111,37.95 C140.839111,37.1 141.539111,36.6 142.089111,35.7 C142.889111,34.6 142.489111,33.25 141.039111,32.55 L139.489111,31.7 L139.389111,31.65 C139.089111,31.3 138.989111,30.75 139.189111,27.5 C139.289111,26.6 139.289111,25.45 139.289111,21.75 L139.289111,17.7 L139.289111,17.05 L139.339111,14.95 L139.339111,14.6 C139.489111,11.95 139.139111,11.4 136.789111,11.25 C136.439111,11.2 136.139111,11.2 135.839111,11.2 L134.189111,11.3 L131.939111,11.4 C128.589111,11.6 126.689111,12.1 125.839111,12.55 C124.789111,13.2 124.339111,13.7 124.189111,14.25 C123.889111,15.2 124.139111,15.9 124.589111,16.2 C126.389111,17.5 126.839111,18.15 126.939111,19.65 L127.089111,20.6 L127.139111,21.9 C127.489111,29.6 126.789111,31.4 124.839111,32.1 C122.589111,32.9 120.739111,31.55 120.639111,28.6 L120.589111,27.15 L120.589111,26.35 C120.539111,20.15 120.639111,17.15 120.839111,14.8 C121.139111,10.95 120.889111,10.8 113.089111,11.7 C110.489111,12 108.889111,12.25 108.239111,12.45 C105.639111,13.15 104.989111,13.65 104.789111,14.6 Z" id="path-4"></path>
        <path d="M144.289111,37.8 C144.739111,38.85 145.789111,39.5 149.139111,39.55 C149.689111,39.55 150.339111,39.55 151.139111,39.55 C152.289111,39.5 153.189111,39.4 153.839111,39.25 C155.589111,38.9 156.489111,36.95 155.839111,35.95 C154.839111,34.3 154.789111,34.25 155.489111,32.5 C156.689111,29.7 157.589111,29.3 158.139111,29.5 C158.239111,29.55 158.339111,29.65 158.339111,29.75 C158.439111,30.1 158.689111,30.6 159.139111,31.4 L160.089111,33.1 L160.089111,33.15 C160.189111,33.95 159.939111,34.45 159.639111,34.6 C159.489111,34.65 159.389111,34.75 159.239111,34.8 C157.789111,35.6 157.689111,37.35 158.789111,38.3 C159.839111,39.2 161.139111,39.5 167.389111,39.55 C171.039111,39.6 173.539111,39.35 174.989111,38.95 C178.239111,38.1 179.139111,37.05 178.839111,35.6 C178.689111,34.85 178.289111,34.35 177.689111,34.2 C175.839111,33.5 175.439111,33.25 174.389111,31.8 L173.389111,30.55 L172.989111,29.95 L172.539111,29.3 L170.689111,26.75 C169.689111,25.3 169.589111,25.05 169.739111,24.9 C169.939111,24.7 170.239111,24.3 170.889111,23.2 C171.989111,21.35 172.589111,20.45 173.039111,19.8 C174.639111,17.55 175.189111,17.1 175.689111,16.8 C177.739111,15.6 178.039111,15.45 178.489111,14.4 C178.989111,13.35 178.289111,12.15 175.939111,11.6 C175.289111,11.5 174.639111,11.4 173.289111,11.4 C172.439111,11.35 171.739111,11.4 171.139111,11.5 C167.439111,12.15 167.089111,12.8 167.789111,15.6 C168.239111,17.2 167.989111,18.05 166.939111,19.45 C166.389111,20.2 166.289111,20.2 165.839111,19.55 L165.539111,19.1 L164.989111,18.15 C164.289111,17.1 164.239111,16.8 164.389111,16.6 C164.539111,16.4 164.589111,16.25 164.689111,16.05 C165.939111,13.4 165.039111,11.8 161.689111,11.55 L160.039111,11.45 L159.439111,11.4 C158.639111,11.4 157.739111,11.4 156.889111,11.4 C151.839111,11.5 149.039111,11.85 147.789111,12.25 C145.139111,13.1 144.339111,14.7 144.989111,16.05 C145.389111,16.8 145.939111,17.2 146.489111,17.3 C148.689111,17.65 148.139111,17.4 150.089111,19.3 C154.889111,23.9 154.789111,23.75 151.539111,28.3 C150.839111,29.2 150.189111,30.3 149.489111,31.55 C148.039111,34.3 147.989111,34.4 146.039111,34.9 C144.239111,35.4 143.689111,36.5 144.289111,37.8 Z" id="path-5"></path>
        <path d="M180.539111,26.6 C180.639111,28 180.989111,29.45 181.539111,30.85 C183.539111,35.95 187.339111,38.75 192.739111,39.4 C197.289111,40 201.289111,39 204.139111,37.1 C207.489111,34.85 208.339111,33.25 207.889111,31.8 C207.589111,30.95 206.989111,30.3 206.289111,30 C205.589111,29.7 205.339111,29.7 205.189111,29.8 C204.989111,29.95 204.789111,30.05 204.539111,30.2 C199.539111,32.95 196.039111,32.75 193.839111,30.25 C192.839111,29.15 192.489111,28.6 192.289111,27.8 C191.989111,26.9 192.339111,26.35 192.939111,26.25 C193.139111,26.25 193.339111,26.25 193.489111,26.35 C201.089111,27.45 206.089111,26.7 207.489111,25.8 C209.189111,24.7 209.339111,24.1 208.839111,20.9 C208.189111,17.1 205.539111,13.7 201.289111,11.9 C199.489111,11.15 197.589111,10.65 195.639111,10.65 C193.139111,10.7 190.589111,11.45 188.239111,12.75 C183.139111,15.6 180.589111,19.9 180.489111,25.15 C180.489111,25.65 180.489111,26.1 180.539111,26.6 Z M195.339111,21 C191.889111,21.15 191.639111,21.1 192.089111,18.9 C192.139111,18.5 192.289111,18.15 192.439111,17.8 C193.639111,15.7 195.839111,15.35 197.389111,16.65 C197.739111,17.1 197.989111,17.45 198.139111,17.9 C198.939111,20.05 198.539111,20.7 196.889111,20.95 L196.739111,20.95 L195.339111,21 Z" id="path-6"></path>
    </defs>
    <g id="Page-1" stroke="none" stroke-width="1" fill="none" fill-rule="evenodd">
        <g id="Group" transform="translate(-0.5391, 0.2)" fill-rule="nonzero">
            <g id="Shape">
                <use fill="#000000" xlink:href="#path-1"></use>
                <use fill="#FFFFFF" xlink:href="#path-1"></use>
            </g>
            <g id="Shape">
                <use fill="#000000" xlink:href="#path-2"></use>
                <use fill="#FFFFFF" xlink:href="#path-2"></use>
            </g>
            <g id="Path">
                <use fill="#000000" xlink:href="#path-3"></use>
                <use fill="#FFFFFF" xlink:href="#path-3"></use>
            </g>
            <g id="Path">
                <use fill="#000000" xlink:href="#path-4"></use>
                <use fill="#FFFFFF" xlink:href="#path-4"></use>
            </g>
            <g id="Path">
                <use fill="#000000" xlink:href="#path-5"></use>
                <use fill="#FFFFFF" xlink:href="#path-5"></use>
            </g>
            <g id="Shape">
                <use fill="#000000" xlink:href="#path-6"></use>
                <use fill="#FFFFFF" xlink:href="#path-6"></use>
            </g>
        </g>
    </g>
</svg>