<?xml version="1.0" encoding="UTF-8"?>
<svg width="91px" height="144px" viewBox="0 0 91 144" version="1.1" xmlns="http://www.w3.org/2000/svg" xmlns:xlink="http://www.w3.org/1999/xlink">
    <title>Group</title>
    <defs>
        <linearGradient x1="50%" y1="14.9694476%" x2="50%" y2="85.0305524%" id="linearGradient-1">
            <stop stop-color="#FFFF00" offset="0%"></stop>
            <stop stop-color="#E3E302" offset="100%"></stop>
        </linearGradient>
        <circle id="path-2" cx="57" cy="47" r="16"></circle>
        <linearGradient x1="13.7109261%" y1="71.7558183%" x2="86.3740357%" y2="28.1681709%" id="linearGradient-3">
            <stop stop-color="#999900" offset="0%"></stop>
            <stop stop-color="#FFFF00" offset="18.4313725%"></stop>
            <stop stop-color="#FFFFFF" offset="54.1176471%"></stop>
            <stop stop-color="#FFFF00" offset="85.8823529%"></stop>
            <stop stop-color="#999900" offset="100%"></stop>
        </linearGradient>
    </defs>
    <g id="Page-1" stroke="none" stroke-width="1" fill="none" fill-rule="evenodd">
        <g id="Group" transform="translate(1, 1)">
            <path d="M61.15,37.5 L63.15,38.65 L63.65,39.2 L63.75,39.3 L64.7,40.45 L65.55,41.9 L63.75,41.6 C62.2166667,41.6 60.9666667,42.0833333 60,43.05 C59,44.05 58.5333333,45.2833333 58.6,46.75 C58.5333333,48.2166667 59,49.4333333 60,50.4 C61.0333333,51.4666667 62.2833333,51.9666667 63.75,51.9 L65.65,51.7 C65.15,52.6 64.5166667,53.4333333 63.75,54.2 L61.25,56.1 C59.35,55.7333333 57.7,54.85 56.3,53.45 C54.4666667,51.65 53.55,49.4166667 53.55,46.75 C53.4833333,44.15 54.4,41.9166667 56.3,40.05 C57.7,38.65 59.3166667,37.8 61.15,37.5" id="Path" fill="#00CCFF"></path>
            <polyline id="Path" fill="#FFFF00" points="76.9 51.8 76.9 51.7 78.65 52.5 78.65 52.75 76.9 51.8"></polyline>
            <path d="M65.65,51.7 L63.75,51.9 C62.2833333,51.9666667 61.0333333,51.4666667 60,50.4 C59,49.4333333 58.5333333,48.2166667 58.6,46.75 C58.5333333,45.2833333 59,44.05 60,43.05 C60.9666667,42.0833333 62.2166667,41.6 63.75,41.6 L65.55,41.9 C66.1166667,42.9 66.5,43.9833333 66.7,45.15 L66.8,46.75 C66.8,47.8833333 66.6666667,48.9333333 66.4,49.9 L66.3,50.4 L65.65,51.7" id="Path" fill="#000000"></path>
            <path d="M56.3,40.05 C54.4,41.9166667 53.4833333,44.15 53.55,46.75 C53.55,49.4166667 54.4666667,51.65 56.3,53.45 C57.7,54.85 59.35,55.7333333 61.25,56.1 C59.7833333,56.8666667 58.1333333,53.0085338 56.3,53.0085338 C53.4333333,53.0085338 50.95,56.2333333 48.85,54.2 C46.8166667,52.1666667 45.8,49.6833333 45.8,46.75 C45.8,43.8833333 46.8166667,41.4 48.85,39.3 C50.45,37.7 52.3666667,36.75 54.6,36.45 L56.1,36.25 L56.3,36.25 L56.5,36.25 L58.8,36.55 L59.45,36.75 L59.85,37 L60,37 L61.15,37.5 C59.3166667,37.8 57.7,38.65 56.3,40.05 Z" id="Path" fill="#FFFFFF"></path>
            <path d="M77,62.1 L77.1,61.45 L77.3,59.45 L77.3,57.25 C77.3,55.35 77.1666667,53.5333333 76.9,51.8 L78.65,52.75 L87.8,57.25 L77,62.1 M87.8,57.25 L77.3,57.25 L87.8,57.25" id="Shape" fill="#FFCC00"></path>
            <path d="M64.7,40.45 L63.75,39.3 L63.65,39.2 L63.15,38.65 L61.15,37.5 L60,37 L59.85,37 L59.45,36.75 L58.8,36.55 L56.5,36.25 L56.3,36.25 L56.1,36.25 L54.6,36.45 C52.3666667,36.75 50.45,37.7 48.85,39.3 C46.8166667,41.4 45.8,43.8833333 45.8,46.75 C45.8,49.6833333 46.8166667,52.1666667 48.85,54.2 C50.95,56.2333333 53.4333333,53.0085338 56.3,53.0085338 C58.1333333,53.0085338 59.7833333,56.8666667 61.25,56.1 L63.75,54.2 C64.5166667,53.4333333 65.15,52.6 65.65,51.7 L66.3,50.4 L66.4,49.9 C66.6666667,48.9333333 66.8,47.8833333 66.8,46.75 L66.7,45.15 C66.5,43.9833333 66.1166667,42.9 65.55,41.9 L64.7,40.45 Z M72.05,74.9 C75.55,80.5 77.3,86.8666667 77.3,94 C77.3,104.166667 73.7333333,112.85 66.6,120.05 C59.4,127.183333 50.7166667,130.75 40.55,130.75 L35.4,130.45 C27.4333333,129.383333 20.5,125.916667 14.6,120.05 C7.4,112.85 3.8,104.166667 3.8,94 C3.8,83.8333333 7.4,75.1833333 14.6,68.05 L15.75,66.9 C14.7833333,63.9 14.3,60.6833333 14.3,57.25 C14.3,48.5833333 17.3833333,41.1666667 23.55,35 C29.7166667,28.8333333 37.1333333,25.75 45.8,25.75 C54.0666667,25.75 61.15,28.5 67.05,34 L68.05,35 C72.8166667,39.7666667 75.7666667,45.3333333 76.9,51.7 L76.9,51.8 C77.1666667,53.5333333 77.3,55.35 77.3,57.25 L77.3,59.45 L77.1,61.45 L77,62.1 C76.3666667,66.7666667 74.7166667,71.0333333 72.05,74.9 Z" id="Shape" fill="url(#linearGradient-1)"></path>
            <path d="M65.55,41.9 L64.7,40.45 L63.75,39.3 L63.65,39.2 L63.15,38.65 L61.15,37.5 L60,37 L59.85,37 M61.25,56.1 L63.75,54.2 C64.5166667,53.4333333 65.15,52.6 65.65,51.7 L63.75,51.9 C62.2833333,51.9666667 61.0333333,51.4666667 60,50.4 C59,49.4333333 58.5333333,48.2166667 58.6,46.75 C58.5333333,45.2833333 59,44.05 60,43.05 C60.9666667,42.0833333 62.2166667,41.6 63.75,41.6 L65.55,41.9 C66.1166667,42.9 66.5,43.9833333 66.7,45.15 L66.8,46.75 C66.8,47.8833333 66.6666667,48.9333333 66.4,49.9 L66.3,50.4 L65.65,51.7 M77,62.1 L77.1,61.45 L77.3,59.45 L77.3,57.25 C77.3,55.35 77.1666667,53.5333333 76.9,51.8 M58.8,36.55 L56.5,36.25 L56.3,36.25 L56.1,36.25 L54.6,36.45 C52.3666667,36.75 50.45,37.7 48.85,39.3 C46.8166667,41.4 45.8,43.8833333 45.8,46.75 C45.8,49.6833333 46.8166667,52.1666667 48.85,54.2 C50.95,56.2333333 53.6333333,52.75 56.5,52.75 C58.3333333,52.75 59.7833333,56.8666667 61.25,56.1 M77.3,57.25 L87.8,57.25" id="Shape" stroke="#000000" stroke-width="2" stroke-linecap="round" stroke-linejoin="round"></path>
            <path d="M4.5,96.5 L7.34979709,107.386939 C15.0471622,112.274637 20.6977169,115.529956 24.3014612,117.152898 C27.9052056,118.775839 32.9609374,120.402781 39.4686567,122.033725 C43.3005215,122.247377 47.274359,121.517663 51.390169,119.844581 C55.5059791,118.171499 63.5425894,114.018952 75.5,107.386939 L77.3,96.5 C68.6987597,101.903524 62.2313695,105.532504 57.8978294,107.386939 C53.5642893,109.241375 47.9316795,110.790304 41,112.033725 C32.0977866,110.142374 25.5345121,108.297799 21.3101766,106.5 C17.0858411,104.702201 11.4824489,101.368868 4.5,96.5 Z" id="Path" fill="#B16E47"></path>
            <path d="M76.5,96.5 C60.8516159,106.855817 48.8516159,112.033725 40.5,112.033725 C32.1483841,112.033725 20.1483841,106.855817 4.5,96.5" id="Line" stroke="#000000" stroke-width="2" stroke-linecap="square"></path>
            <path d="M75.5,106.5 C60.5036319,116.855817 49.0036319,122.033725 41,122.033725 C32.9963681,122.033725 21.4963681,116.855817 6.5,106.5" id="Line-Copy" stroke="#000000" stroke-width="2" stroke-linecap="square"></path>
            <path d="M11.556781,70.5 L7.34979709,80.4889205 C16.3804955,85.9752973 22.6977169,89.5299563 26.3014612,91.1528976 C29.9052056,92.775839 34.9609374,94.4027814 41.4686567,96.033725 C45.3005215,96.2473774 49.274359,95.5176626 53.390169,93.8445808 C57.5059791,92.1714989 64.8759228,88.0189518 75.5,81.3869394 L73.8,75.5475919 C68.8654264,77.5860544 64.2313695,79.5325036 59.8978294,81.3869394 C55.5642893,83.2413752 49.9316795,84.7903037 43,86.033725 C34.0977866,84.1423741 27.5345121,82.2977991 23.3101766,80.5 C21.8018537,79.8580857 20.8841189,77.7456602 19.453956,76.7122192 C17.7371086,75.4716189 15.1047169,73.4008792 11.556781,70.5 Z" id="Path-Copy" fill="#585858"></path>
            <path d="M73,75.5475919 C61.0182826,82.5383473 50.8516159,86.033725 42.5,86.033725 C34.1483841,86.033725 23.8339778,80.8558166 11.556781,70.5" id="Line-Copy-3" stroke="#000000" stroke-width="2" stroke-linecap="square"></path>
            <path d="M75.5,80.5 C61.8369652,90.8558166 51.0036319,96.033725 43,96.033725 C34.9963681,96.033725 22.8297014,90.556477 6.5,79.6019811" id="Line-Copy-2" stroke="#000000" stroke-width="2" stroke-linecap="square"></path>
            <path d="M17.7257874,100.750409 C18.0147524,100.530823 18.3967907,100.433454 18.800949,100.50082 L47.6905953,105.316239 C48.1155509,105.387072 48.483834,105.624001 48.737631,105.946564 C48.9889405,106.265965 49.1296583,106.671584 49.0928097,107.089846 L48.3519859,115.498832 C48.1124674,118.217573 46.7884964,120.49594 44.8367647,121.979071 C42.8813928,123.464968 40.2995212,124.150691 37.5570846,123.693573 L25.6027482,121.700986 C22.8395142,121.240401 20.4372369,119.70941 18.7851585,117.609704 C17.1355676,115.51316 16.2322812,112.847317 16.4737026,110.106977 L17.2145264,101.697991 C17.2494721,101.301328 17.4404626,100.967229 17.7257874,100.750409 Z" id="Rectangle-2" stroke="#000000" fill="#3CD4CC"></path>
            <rect id="Rectangle-3" stroke="#000000" fill="#B16E47" x="15.5" y="47.5" width="27" height="2"></rect>
            <path d="M45.8,24.25 C54.4437307,24.25 61.8932105,27.142151 68.1106602,32.9393398 L69.1106602,33.9393398 C73.799016,38.6276956 76.8181642,44.080222 78.1473679,50.2682496 L78.264,50.834 L79.3119795,51.4039751 L88.4619795,55.9039751 C89.6012413,56.4642678 89.5726558,58.0982552 88.4144932,58.618356 L78.361,63.133 L78.3062161,63.4698007 C77.6037075,67.5304216 76.1457961,71.3003369 73.9364916,74.7688168 L73.825,74.939 L73.9659015,75.176246 C77.0847994,80.5764254 78.6943722,86.6354151 78.7949701,93.3285714 L78.8,94 C78.8,104.561732 75.0774488,113.624579 67.6557154,121.115582 C60.1745788,128.527449 51.1117323,132.25 40.4627692,132.247461 L36.884,132.039 L36.813,139.749 L56.3,139.75 C57.0796961,139.75 57.7204487,140.344888 57.7931334,141.10554 L57.8,141.25 C57.8,142.078427 57.1284271,142.75 56.3,142.75 L35.3,142.75 C34.4661439,142.75 33.7923437,142.069932 33.8000643,141.236112 L33.888,131.737 L33.480387,131.667699 C26.0918857,130.343361 19.5780984,126.958657 13.9690223,121.532114 L13.5393398,121.11066 C6.05815687,113.629477 2.3,104.564664 2.3,94 C2.3,83.4334377 6.05970937,74.3996916 13.5393398,66.9893398 L14.053,66.475 L13.9431694,66.0875268 C13.2392051,63.5191092 12.8608057,60.8105014 12.8067559,57.9643907 L12.8,57.25 C12.8,48.1848082 16.0418607,40.3868189 22.4893398,33.9393398 C28.9368189,27.4918607 36.7348082,24.25 45.8,24.25 Z M45.8,27.25 C37.5318584,27.25 30.4965144,30.1748059 24.6106602,36.0606602 C18.7248059,41.9465144 15.8,48.9818584 15.8,57.25 C15.8,60.5304053 16.2600287,63.5919755 17.1777124,66.4399593 C17.3503014,66.9755804 17.2085778,67.5627425 16.8106602,67.9606602 L15.6557154,69.1155819 C8.74029063,75.9669751 5.3,84.2332289 5.3,94 C5.3,103.76867 8.74184313,112.070523 15.6576512,118.986339 C21.3274699,124.624125 27.9602013,127.940491 35.5990605,128.963267 L35.546,128.955 L40.55,129.25 C50.1372312,129.25 58.311547,125.966712 65.1418526,119.378066 L65.5344181,118.994285 C72.3892178,112.075421 75.8,103.771601 75.8,94 C75.8,87.1422807 74.1258455,81.0515471 70.7780025,75.6949984 C70.4610077,75.1878066 70.4756171,74.540768 70.8151808,74.0484006 C73.3480492,70.3757414 74.9119424,66.3317348 75.5136258,61.8982778 C75.5832943,61.3849315 75.9129202,60.9438704 76.3855068,60.731644 L84.275,57.188 L77.9343622,54.0682801 L76.1843622,53.1182801 C75.7009981,52.8558825 75.4,52.349994 75.4,51.8 L75.402,51.848 L75.3203817,51.414009 C74.2086727,45.7642586 71.5748641,40.7945933 67.3983366,36.4765064 L66.9893398,36.0606602 L66.0271854,35.0972011 C60.4067895,29.857849 53.6896026,27.25 45.8,27.25 Z" id="Shape" fill="#000000" fill-rule="nonzero"></path>
            <g id="Oval" stroke-linejoin="square">
                <circle stroke="#000000" stroke-width="3" cx="57" cy="47" r="14.5"></circle>
                <circle stroke="#A8A8A8" stroke-width="2" cx="57" cy="47" r="15"></circle>
                <circle stroke="#000000" stroke-width="1" cx="57" cy="47" r="15.5"></circle>
            </g>
            <g transform="translate(31.5, 78.6963)">
                <path d="M18.1653835,5.36534393 L28.6527533,5.36534393 L34.1955673,7.85547566 L32,21.8036975 L29.2190626,21.8036975 C18.8854616,21.6075471 13.0669362,20.5402665 11.7634864,18.6018559 C10.4600365,16.6634453 12.5940022,12.2512746 18.1653835,5.36534393 Z" id="Path" fill="#999999"></path>
                <path d="M2.30997866,4 L0,16.8036975 L3.37940948,20.6428502 L6.97545188,21.8036975 L13.9262083,20.6428502 L16.9816441,7.58456418 C13.6967454,8.22194 11.2255977,8.33816127 9.56820075,7.93322799 C7.91080384,7.52829471 5.49139648,6.21721871 2.30997866,4 Z" id="Path" fill="#999999"></path>
                <path d="M32,21.8036975 L35,5.80369746 M0,16.8036975 L3,0.803697456 M5.46043748,0.567790923 L29.9760239,1.0388555 L29.9760239,1.0388555 C30.4351846,1.04836026 30.8770856,1.21559952 31.2274887,1.51247758 L31.7497225,1.96157299 C33.339671,3.34564813 34.3235722,4.36817793 34.7007557,5.02995379 L34.7552689,5.13144688 C35.0977519,5.81332004 34.8226217,6.64372473 34.1407485,6.98620765 C33.8270688,7.14375887 33.4651808,7.17600708 33.1285856,7.0764025 C32.3933277,6.85883486 31.7976644,6.63919848 31.3415936,6.41750114 C30.9047539,6.20515211 30.2983614,5.83879575 29.5224161,5.31843207 L29.2570603,5.13990221 C28.938508,4.92319318 28.5641422,4.8031061 28.178971,4.79407853 L25.4370162,4.74103429 C20.4832811,4.66407148 17.8700918,4.74290587 17.5974489,4.977514 C17.1046745,5.40154441 17.6653945,7.03169503 16.9816441,7.58456418 C16.563537,7.92263862 15.5069821,8.18546774 13.8119794,8.37305154 L13.506229,8.40532576 C13.3934787,8.41661131 13.2799733,8.41829436 13.166938,8.41035675 L12.5074269,8.35950616 C11.1383788,8.24508241 10.1586331,8.10304209 9.56820075,7.93322799 C7.16842182,7.24302818 5.70533354,6.14338223 4.89472518,5.5123557 C4.24903761,5.00971349 3.78686761,4.27624084 3.50821517,3.31193777 L3.43746148,3.0430531 C3.17431254,1.97028732 3.83063666,0.88731447 4.90340244,0.62416553 C5.01532062,0.596712053 5.12929669,0.579008392 5.24405281,0.571197089 L5.37279117,0.568027646 C5.40200137,0.567308512 5.43122382,0.567229586 5.46043748,0.567790923 Z" id="Path-2-Copy" stroke="#000000" fill="#999999"></path>
                <path d="M3.55271368e-15,16.1526907 L31.7552689,18.1314469 L31.8524226,18.3373861 C32.1883904,19.0874929 32.915953,21.0852299 31.7552689,21.8036975 C31.3211175,22.0724387 29.9558068,22.1035634 27.659337,21.8970715 L26.684603,21.8009437 L24.4933126,21.5558031 L22.2009728,21.3139342 C19.5179391,21.0425662 17.7781629,20.9156642 16.9816441,20.933228 C15.484332,20.9662447 14.7381362,20.1186555 14.079816,20.515447 L13.9816441,20.5845642 C13.563537,20.9226386 12.5069821,21.1854677 10.8119794,21.3730515 L10.506229,21.4053258 C10.3934787,21.4166113 10.2799733,21.4182944 10.166938,21.4103568 L9.5074269,21.3595062 L8.90320138,21.3047337 C7.84613314,21.2007203 7.06779737,21.0769168 6.56820075,20.933228 C4.16842182,20.2430282 2.70533354,19.1433822 1.89472518,18.5123557 C0.727619394,17.60381 0.0960443331,16.817255 3.55271368e-15,16.1526907 Z" id="Path" stroke="#000000"></path>
                <path d="M24.5811254,9.64606545 C26.354717,9.3544346 27.9647983,9.7998496 29.129149,10.7727467 C30.2905287,11.7431613 31,13.2323777 31,15.0016839 C31,16.8169074 30.2591267,18.5786419 29.070428,19.9627978 C27.8798023,21.3491976 26.2367583,22.3604021 24.4188746,22.6593159 C22.6452831,22.9509467 21.0352017,22.5055317 19.870851,21.5326347 C18.7094713,20.5622201 18,19.0730036 18,17.3036975 C18,15.488474 18.7408733,13.7267395 19.929572,12.3425835 C21.1201977,10.9561838 22.7632417,9.94497922 24.5811254,9.64606545 Z" id="Oval-2" stroke="#000000" fill="#6C6C6C"></path>
            </g>
            <polyline id="Path" fill="url(#linearGradient-3)" points="30.35 16.05 32.05 7.15 41.05 8.9 42.75 0 58.85 24 16.1 52.65 0 28.65 8.95 30.4 10.7 21.5 19.65 23.25 21.4 14.3 30.35 16.05"></polyline>
            <polygon id="Path" stroke="#000000" stroke-width="2" stroke-linecap="round" stroke-linejoin="round" points="30.35 16.05 21.4 14.3 19.65 23.25 10.7 21.5 8.95 30.4 0 28.65 16.1 52.65 58.85 24 42.75 0 41.05 8.9 32.05 7.15"></polygon>
        </g>
    </g>
</svg>