<?xml version="1.0" encoding="UTF-8"?>
<svg width="88px" height="119px" viewBox="0 0 88 119" version="1.1" xmlns="http://www.w3.org/2000/svg" xmlns:xlink="http://www.w3.org/1999/xlink">
    <title>Group</title>
    <defs>
        <linearGradient x1="50%" y1="14.9694476%" x2="50%" y2="85.0305524%" id="linearGradient-1">
            <stop stop-color="#FFFF00" offset="0%"></stop>
            <stop stop-color="#E3E302" offset="100%"></stop>
        </linearGradient>
        <circle id="path-2" cx="54.7" cy="22.75" r="16"></circle>
    </defs>
    <g id="Page-1" stroke="none" stroke-width="1" fill="none" fill-rule="evenodd">
        <g id="Group" transform="translate(0.3, 0.25)">
            <path d="M58.85,13.25 L60.85,14.4 L61.35,14.95 L61.45,15.05 L62.4,16.2 L63.25,17.65 L61.45,17.35 C59.9166667,17.35 58.6666667,17.8333333 57.7,18.8 C56.7,19.8 56.2333333,21.0333333 56.3,22.5 C56.2333333,23.9666667 56.7,25.1833333 57.7,26.15 C58.7333333,27.2166667 59.9833333,27.7166667 61.45,27.65 L63.35,27.45 C62.85,28.35 62.2166667,29.1833333 61.45,29.95 L58.95,31.85 C57.05,31.4833333 55.4,30.6 54,29.2 C52.1666667,27.4 51.25,25.1666667 51.25,22.5 C51.1833333,19.9 52.1,17.6666667 54,15.8 C55.4,14.4 57.0166667,13.55 58.85,13.25" id="Path" fill="#00CCFF"></path>
            <polyline id="Path" fill="#FFFF00" points="74.6 27.55 74.6 27.45 76.35 28.25 76.35 28.5 74.6 27.55"></polyline>
            <path d="M63.35,27.45 L61.45,27.65 C59.9833333,27.7166667 58.7333333,27.2166667 57.7,26.15 C56.7,25.1833333 56.2333333,23.9666667 56.3,22.5 C56.2333333,21.0333333 56.7,19.8 57.7,18.8 C58.6666667,17.8333333 59.9166667,17.35 61.45,17.35 L63.25,17.65 C63.8166667,18.65 64.2,19.7333333 64.4,20.9 L64.5,22.5 C64.5,23.6333333 64.3666667,24.6833333 64.1,25.65 L64,26.15 L63.35,27.45" id="Path" fill="#000000"></path>
            <path d="M54,15.8 C52.1,17.6666667 51.1833333,19.9 51.25,22.5 C51.25,25.1666667 52.1666667,27.4 54,29.2 C55.4,30.6 57.05,31.4833333 58.95,31.85 C57.4833333,32.6166667 55.8333333,28.7585338 54,28.7585338 C51.1333333,28.7585338 48.65,31.9833333 46.55,29.95 C44.5166667,27.9166667 43.5,25.4333333 43.5,22.5 C43.5,19.6333333 44.5166667,17.15 46.55,15.05 C48.15,13.45 50.0666667,12.5 52.3,12.2 L53.8,12 L54,12 L54.2,12 L56.5,12.3 L57.15,12.5 L57.55,12.75 L57.7,12.75 L58.85,13.25 C57.0166667,13.55 55.4,14.4 54,15.8 Z" id="Path" fill="#FFFFFF"></path>
            <path d="M74.7,37.85 L74.8,37.2 L75,35.2 L75,33 C75,31.1 74.8666667,29.2833333 74.6,27.55 L76.35,28.5 L85.5,33 L74.7,37.85 M85.5,33 L75,33 L85.5,33" id="Shape" fill="#FFCC00"></path>
            <path d="M62.4,16.2 L61.45,15.05 L61.35,14.95 L60.85,14.4 L58.85,13.25 L57.7,12.75 L57.55,12.75 L57.15,12.5 L56.5,12.3 L54.2,12 L54,12 L53.8,12 L52.3,12.2 C50.0666667,12.5 48.15,13.45 46.55,15.05 C44.5166667,17.15 43.5,19.6333333 43.5,22.5 C43.5,25.4333333 44.5166667,27.9166667 46.55,29.95 C48.65,31.9833333 51.1333333,28.7585338 54,28.7585338 C55.8333333,28.7585338 57.4833333,32.6166667 58.95,31.85 L61.45,29.95 C62.2166667,29.1833333 62.85,28.35 63.35,27.45 L64,26.15 L64.1,25.65 C64.3666667,24.6833333 64.5,23.6333333 64.5,22.5 L64.4,20.9 C64.2,19.7333333 63.8166667,18.65 63.25,17.65 L62.4,16.2 Z M69.75,50.65 C73.25,56.25 75,62.6166667 75,69.75 C75,79.9166667 71.4333333,88.6 64.3,95.8 C57.1,102.933333 48.4166667,106.5 38.25,106.5 L33.1,106.2 C25.1333333,105.133333 18.2,101.666667 12.3,95.8 C5.1,88.6 1.5,79.9166667 1.5,69.75 C1.5,59.5833333 5.1,50.9333333 12.3,43.8 L13.45,42.65 C12.4833333,39.65 12,36.4333333 12,33 C12,24.3333333 15.0833333,16.9166667 21.25,10.75 C27.4166667,4.58333333 34.8333333,1.5 43.5,1.5 C51.7666667,1.5 58.85,4.25 64.75,9.75 L65.75,10.75 C70.5166667,15.5166667 73.4666667,21.0833333 74.6,27.45 L74.6,27.55 C74.8666667,29.2833333 75,31.1 75,33 L75,35.2 L74.8,37.2 L74.7,37.85 C74.0666667,42.5166667 72.4166667,46.7833333 69.75,50.65 Z" id="Shape" fill="url(#linearGradient-1)"></path>
            <path d="M63.25,17.65 L62.4,16.2 L61.45,15.05 L61.35,14.95 L60.85,14.4 L58.85,13.25 L57.7,12.75 L57.55,12.75 M58.95,31.85 L61.45,29.95 C62.2166667,29.1833333 62.85,28.35 63.35,27.45 L61.45,27.65 C59.9833333,27.7166667 58.7333333,27.2166667 57.7,26.15 C56.7,25.1833333 56.2333333,23.9666667 56.3,22.5 C56.2333333,21.0333333 56.7,19.8 57.7,18.8 C58.6666667,17.8333333 59.9166667,17.35 61.45,17.35 L63.25,17.65 C63.8166667,18.65 64.2,19.7333333 64.4,20.9 L64.5,22.5 C64.5,23.6333333 64.3666667,24.6833333 64.1,25.65 L64,26.15 L63.35,27.45 M74.7,37.85 L74.8,37.2 L75,35.2 L75,33 C75,31.1 74.8666667,29.2833333 74.6,27.55 M56.5,12.3 L54.2,12 L54,12 L53.8,12 L52.3,12.2 C50.0666667,12.5 48.15,13.45 46.55,15.05 C44.5166667,17.15 43.5,19.6333333 43.5,22.5 C43.5,25.4333333 44.5166667,27.9166667 46.55,29.95 C48.65,31.9833333 51.3333333,28.5 54.2,28.5 C56.0333333,28.5 57.4833333,32.6166667 58.95,31.85 M75,33 L85.5,33" id="Shape" stroke="#000000" stroke-width="2" stroke-linecap="round" stroke-linejoin="round"></path>
            <path d="M2.2,72.25 L5.04979709,83.1369394 C12.7471622,88.0246369 18.3977169,91.2799563 22.0014612,92.9028976 C25.6052056,94.525839 30.6609374,96.1527814 37.1686567,97.783725 C41.0005215,97.9973774 44.974359,97.2676626 49.090169,95.5945808 C53.2059791,93.9214989 61.2425894,89.7689518 73.2,83.1369394 L75,72.25 C66.3987597,77.6535238 59.9313695,81.2825036 55.5978294,83.1369394 C51.2642893,84.9913752 45.6316795,86.5403037 38.7,87.783725 C29.7977866,85.8923741 23.2345121,84.0477991 19.0101766,82.25 C14.7858411,80.4522009 9.18244886,77.1188676 2.2,72.25 Z" id="Path" fill="#B16E47"></path>
            <path d="M74.2,72.25 C58.5516159,82.6058166 46.5516159,87.783725 38.2,87.783725 C29.8483841,87.783725 17.8483841,82.6058166 2.2,72.25" id="Line" stroke="#000000" stroke-width="2" stroke-linecap="square"></path>
            <path d="M73.2,82.25 C58.2036319,92.6058166 46.7036319,97.783725 38.7,97.783725 C30.6963681,97.783725 19.1963681,92.6058166 4.2,82.25" id="Line-Copy" stroke="#000000" stroke-width="2" stroke-linecap="square"></path>
            <path d="M9.25678101,46.25 L5.04979709,56.2389205 C14.0804955,61.7252973 20.3977169,65.2799563 24.0014612,66.9028976 C27.6052056,68.525839 32.6609374,70.1527814 39.1686567,71.783725 C43.0005215,71.9973774 46.974359,71.2676626 51.090169,69.5945808 C55.2059791,67.9214989 62.5759228,63.7689518 73.2,57.1369394 L71.5,51.2975919 C66.5654264,53.3360544 61.9313695,55.2825036 57.5978294,57.1369394 C53.2642893,58.9913752 47.6316795,60.5403037 40.7,61.783725 C31.7977866,59.8923741 25.2345121,58.0477991 21.0101766,56.25 C19.5018537,55.6080857 18.5841189,53.4956602 17.153956,52.4622192 C15.4371086,51.2216189 12.8047169,49.1508792 9.25678101,46.25 Z" id="Path-Copy" fill="#585858"></path>
            <path d="M70.7,51.2975919 C58.7182826,58.2883473 48.5516159,61.783725 40.2,61.783725 C31.8483841,61.783725 21.5339778,56.6058166 9.25678101,46.25" id="Line-Copy-3" stroke="#000000" stroke-width="2" stroke-linecap="square"></path>
            <path d="M73.2,56.25 C59.5369652,66.6058166 48.7036319,71.783725 40.7,71.783725 C32.6963681,71.783725 20.5297014,66.306477 4.2,55.3519811" id="Line-Copy-2" stroke="#000000" stroke-width="2" stroke-linecap="square"></path>
            <path d="M15.4257874,76.5004093 C15.7147524,76.2808234 16.0967907,76.1834538 16.500949,76.2508202 L45.3905953,81.0662387 C45.8155509,81.1370717 46.183834,81.3740009 46.437631,81.6965637 C46.6889405,82.0159652 46.8296583,82.4215838 46.7928097,82.8398462 L46.0519859,91.2488319 C45.8124674,93.9675727 44.4884964,96.2459396 42.5367647,97.7290705 C40.5813928,99.2149676 37.9995212,99.900691 35.2570846,99.4435729 L23.3027482,97.4509859 C20.5395142,96.9904013 18.1372369,95.4594103 16.4851585,93.3597044 C14.8355676,91.2631598 13.9322812,88.5973166 14.1737026,85.8569769 L14.9145264,77.4479912 C14.9494721,77.0513277 15.1404626,76.7172292 15.4257874,76.5004093 Z" id="Rectangle-2" stroke="#000000" fill="#3CD4CC"></path>
            <rect id="Rectangle-3" stroke="#000000" fill="#B16E47" x="13.2" y="23.25" width="27" height="2"></rect>
            <path d="M43.5,0 C52.1437307,0 59.5932105,2.89215096 65.8106602,8.68933983 L66.8106602,9.68933983 C71.499016,14.3776956 74.5181642,19.830222 75.8473679,26.0182496 L75.964,26.584 L77.0119795,27.1539751 L86.1619795,31.6539751 C87.3012413,32.2142678 87.2726558,33.8482552 86.1144932,34.368356 L76.061,38.883 L76.0062161,39.2198007 C75.3037075,43.2804216 73.8457961,47.0503369 71.6364916,50.5188168 L71.525,50.689 L71.6659015,50.926246 C74.7847994,56.3264254 76.3943722,62.3854151 76.4949701,69.0785714 L76.5,69.75 C76.5,80.3117323 72.7774488,89.3745788 65.3557154,96.8655819 C57.8745788,104.277449 48.8117323,108 38.1627692,107.997461 L34.584,107.789 L34.513,115.499 L54,115.5 C54.7796961,115.5 55.4204487,116.094888 55.4931334,116.85554 L55.5,117 C55.5,117.828427 54.8284271,118.5 54,118.5 L33,118.5 C32.1661439,118.5 31.4923437,117.819932 31.5000643,116.986112 L31.588,107.487 L31.180387,107.417699 C23.7918857,106.093361 17.2780984,102.708657 11.6690223,97.2821136 L11.2393398,96.8606602 C3.75815687,89.3794772 9.09494702e-13,80.3146637 9.09494702e-13,69.75 C9.09494702e-13,59.1834377 3.75970937,50.1496916 11.2393398,42.7393398 L11.753,42.225 L11.6431694,41.8375268 C10.9392051,39.2691092 10.5608057,36.5605014 10.5067559,33.7143907 L10.5,33 C10.5,23.9348082 13.7418607,16.1368189 20.1893398,9.68933983 C26.6368189,3.24186072 34.4348082,0 43.5,0 Z M43.5,3 C35.2318584,3 28.1965144,5.92480595 22.3106602,11.8106602 C16.4248059,17.6965144 13.5,24.7318584 13.5,33 C13.5,36.2804053 13.9600287,39.3419755 14.8777124,42.1899593 C15.0503014,42.7255804 14.9085778,43.3127425 14.5106602,43.7106602 L13.3557154,44.8655819 C6.44029063,51.7169751 3,59.9832289 3,69.75 C3,79.5186697 6.44184313,87.8205228 13.3576512,94.7363394 C19.0274699,100.374125 25.6602013,103.690491 33.2990605,104.713267 L33.246,104.705 L38.25,105 C47.8372312,105 56.011547,101.716712 62.8418526,95.1280661 L63.2344181,94.7442846 C70.0892178,87.8254212 73.5,79.5216011 73.5,69.75 C73.5,62.8922807 71.8258455,56.8015471 68.4780025,51.4449984 C68.1610077,50.9378066 68.1756171,50.290768 68.5151808,49.7984006 C71.0480492,46.1257414 72.6119424,42.0817348 73.2136258,37.6482778 C73.2832943,37.1349315 73.6129202,36.6938704 74.0855068,36.481644 L81.975,32.938 L75.6343622,29.8182801 L73.8843622,28.8682801 C73.4009981,28.6058825 73.1,28.099994 73.1,27.55 L73.102,27.598 L73.0203817,27.164009 C71.9086727,21.5142586 69.2748641,16.5445933 65.0983366,12.2265064 L64.6893398,11.8106602 L63.7271854,10.8472011 C58.1067895,5.60784904 51.3896026,3 43.5,3 Z" id="Shape" fill="#000000" fill-rule="nonzero"></path>
            <g id="Oval" stroke-linejoin="square">
                <circle stroke="#000000" stroke-width="3" cx="54.7" cy="22.75" r="14.5"></circle>
                <circle stroke="#A8A8A8" stroke-width="2" cx="54.7" cy="22.75" r="15"></circle>
                <circle stroke="#000000" stroke-width="1" cx="54.7" cy="22.75" r="15.5"></circle>
            </g>
            <g transform="translate(29.2, 54.4463)">
                <path d="M18.1653835,5.36534393 L28.6527533,5.36534393 L34.1955673,7.85547566 L32,21.8036975 L29.2190626,21.8036975 C18.8854616,21.6075471 13.0669362,20.5402665 11.7634864,18.6018559 C10.4600365,16.6634453 12.5940022,12.2512746 18.1653835,5.36534393 Z" id="Path" fill="#999999"></path>
                <path d="M2.30997866,4 L0,16.8036975 L3.37940948,20.6428502 L6.97545188,21.8036975 L13.9262083,20.6428502 L16.9816441,7.58456418 C13.6967454,8.22194 11.2255977,8.33816127 9.56820075,7.93322799 C7.91080384,7.52829471 5.49139648,6.21721871 2.30997866,4 Z" id="Path" fill="#999999"></path>
                <path d="M32,21.8036975 L35,5.80369746 M0,16.8036975 L3,0.803697456 M5.46043748,0.567790923 L29.9760239,1.0388555 L29.9760239,1.0388555 C30.4351846,1.04836026 30.8770856,1.21559952 31.2274887,1.51247758 L31.7497225,1.96157299 C33.339671,3.34564813 34.3235722,4.36817793 34.7007557,5.02995379 L34.7552689,5.13144688 C35.0977519,5.81332004 34.8226217,6.64372473 34.1407485,6.98620765 C33.8270688,7.14375887 33.4651808,7.17600708 33.1285856,7.0764025 C32.3933277,6.85883486 31.7976644,6.63919848 31.3415936,6.41750114 C30.9047539,6.20515211 30.2983614,5.83879575 29.5224161,5.31843207 L29.2570603,5.13990221 C28.938508,4.92319318 28.5641422,4.8031061 28.178971,4.79407853 L25.4370162,4.74103429 C20.4832811,4.66407148 17.8700918,4.74290587 17.5974489,4.977514 C17.1046745,5.40154441 17.6653945,7.03169503 16.9816441,7.58456418 C16.563537,7.92263862 15.5069821,8.18546774 13.8119794,8.37305154 L13.506229,8.40532576 C13.3934787,8.41661131 13.2799733,8.41829436 13.166938,8.41035675 L12.5074269,8.35950616 C11.1383788,8.24508241 10.1586331,8.10304209 9.56820075,7.93322799 C7.16842182,7.24302818 5.70533354,6.14338223 4.89472518,5.5123557 C4.24903761,5.00971349 3.78686761,4.27624084 3.50821517,3.31193777 L3.43746148,3.0430531 C3.17431254,1.97028732 3.83063666,0.88731447 4.90340244,0.62416553 C5.01532062,0.596712053 5.12929669,0.579008392 5.24405281,0.571197089 L5.37279117,0.568027646 C5.40200137,0.567308512 5.43122382,0.567229586 5.46043748,0.567790923 Z" id="Path-2-Copy" stroke="#000000" fill="#999999"></path>
                <path d="M3.55271368e-15,16.1526907 L31.7552689,18.1314469 L31.8524226,18.3373861 C32.1883904,19.0874929 32.915953,21.0852299 31.7552689,21.8036975 C31.3211175,22.0724387 29.9558068,22.1035634 27.659337,21.8970715 L26.684603,21.8009437 L24.4933126,21.5558031 L22.2009728,21.3139342 C19.5179391,21.0425662 17.7781629,20.9156642 16.9816441,20.933228 C15.484332,20.9662447 14.7381362,20.1186555 14.079816,20.515447 L13.9816441,20.5845642 C13.563537,20.9226386 12.5069821,21.1854677 10.8119794,21.3730515 L10.506229,21.4053258 C10.3934787,21.4166113 10.2799733,21.4182944 10.166938,21.4103568 L9.5074269,21.3595062 L8.90320138,21.3047337 C7.84613314,21.2007203 7.06779737,21.0769168 6.56820075,20.933228 C4.16842182,20.2430282 2.70533354,19.1433822 1.89472518,18.5123557 C0.727619394,17.60381 0.0960443331,16.817255 3.55271368e-15,16.1526907 Z" id="Path" stroke="#000000"></path>
                <path d="M24.5811254,9.64606545 C26.354717,9.3544346 27.9647983,9.7998496 29.129149,10.7727467 C30.2905287,11.7431613 31,13.2323777 31,15.0016839 C31,16.8169074 30.2591267,18.5786419 29.070428,19.9627978 C27.8798023,21.3491976 26.2367583,22.3604021 24.4188746,22.6593159 C22.6452831,22.9509467 21.0352017,22.5055317 19.870851,21.5326347 C18.7094713,20.5622201 18,19.0730036 18,17.3036975 C18,15.488474 18.7408733,13.7267395 19.929572,12.3425835 C21.1201977,10.9561838 22.7632417,9.94497922 24.5811254,9.64606545 Z" id="Oval-2" stroke="#000000" fill="#6C6C6C"></path>
            </g>
        </g>
    </g>
</svg>