<?xml version="1.0" encoding="UTF-8"?>
<svg width="347px" height="487px" viewBox="0 0 347 487" version="1.1" xmlns="http://www.w3.org/2000/svg" xmlns:xlink="http://www.w3.org/1999/xlink">
    <title>Artboard Copy</title>
    <g id="Artboard-Copy" stroke="none" stroke-width="1" fill="none" fill-rule="evenodd">
        <path d="M148.638794,426.799355 L145.71016,469.888242 C172.76516,462.637038 201.214746,465.007624 231.058921,477" id="Path" stroke="#000000" stroke-width="16.735051" stroke-linecap="round" stroke-linejoin="round"></path>
        <path d="M339,129.36053 L294.652115,108.861933 C290.468352,87.1083205 280.706239,67.8647397 265.365775,51.1311912 L257.835002,42.764417 C233.011343,18.7796642 203.167169,7.20562649 168.302479,8.04230391 C133.995625,8.87898134 104.709285,22.1263739 80.4434614,47.7844815 C56.7354724,72.6059118 45.2998542,102.30796 46.1366067,136.890627 C46.4155242,150.556358 48.7863231,163.385412 53.2490034,175.377789 L48.2284881,179.979515 C20.3367363,208.984332 6.94869551,243.706445 8.06436558,284.145854 C8.90111813,324.864155 24.2415816,359.167929 54.085756,387.057177 C77.7937449,409.647467 105.685497,422.615967 137.761011,425.962677 L148.638794,426.381016 L158.261449,426.381016 C198.425571,425.544338 232.592967,410.623591 260.763636,381.618774 C288.097553,352.056171 301.346135,316.91572 300.509383,276.197418 C299.951548,249.144848 293.118068,225.160095 280.008945,204.24316 L277.917064,200.89645 C287.958094,185.557364 293.954821,168.544923 295.907244,149.859127 L339,129.36053" id="Path" fill="#B4E1FF"></path>
        <path d="M294.652115,163.21875 C243.953917,152.377468 204.724567,144.647274 176.964066,140.028168 C149.203564,135.409061 106.330126,128.576195 48.34375,119.529571 L55.640625,99.4493125 L72.6445313,43.9140625 C115.96834,36.609375 148.533022,32.9570312 170.338577,32.9570312 C192.144133,32.9570312 220.25437,36.609375 254.669289,43.9140625 C276.477318,66.4740453 289.804926,84.9857953 294.652115,99.4493125 C299.499303,113.91283 299.499303,135.169309 294.652115,163.21875 Z" id="Path-2" fill="#B1003C"></path>
        <path d="M8,241.632506 L294.632512,241.632506 C303.666567,260.423237 308.183594,274.923237 308.183594,285.132506 C308.183594,295.341776 303.666567,309.841776 294.632512,328.632506 L8,328.632506 C2.42167497,310.514383 -0.36748754,296.014383 -0.36748754,285.132506 C-0.36748754,274.25063 2.42167497,259.75063 8,241.632506 Z" id="Rectangle" fill="#602D3E"></path>
        <rect id="Rectangle" stroke="#000000" stroke-width="13" fill="#602D3E" x="79.5" y="248.5" width="135" height="74"></rect>
        <path d="M168.101735,-0.322813233 C205.198284,-1.21305047 237.210688,11.2018606 263.649182,36.7468765 C263.789053,36.8820203 263.92417,37.0219998 264.054285,37.1665599 L271.533679,45.4767723 C286.807674,62.137817 296.948072,81.2184537 301.879166,102.597769 L301.977,103.029 L342.51,121.765 L342.585542,121.799862 C342.73175,121.869094 342.876041,121.942582 343.018209,122.020255 L343.123,122.079 L343.200095,122.122856 L343.217,122.132 L343.229842,122.139893 C343.439832,122.26265 343.644812,122.394738 343.84409,122.535912 L344.041,122.68 C344.1796,122.784257 344.309755,122.888757 344.436201,122.996654 L344.512,123.063 L344.609143,123.148472 L344.622,123.16 C344.68444,123.216645 344.744864,123.273091 344.804341,123.330335 L344.87,123.395 L344.965774,123.489996 C345.081568,123.60768 345.194211,123.729183 345.303498,123.854431 L345.313845,123.866397 C345.797301,124.422632 346.201854,125.03731 346.52064,125.691771 L346.54,125.734 L346.556189,125.766161 L346.588,125.837 L346.623716,125.911372 L346.645,125.96 L346.664549,126.003227 L346.684,126.051 L346.720382,126.133767 L346.747,126.201 L346.764934,126.241889 L346.789,126.305 L346.810582,126.358801 L346.823,126.393 L346.8574,126.481992 C347.152483,127.284565 347.316489,128.108588 347.358551,128.92836 L347.359866,128.964468 C347.406995,129.941897 347.28267,130.938444 346.970621,131.909874 L346.935,132.014 L346.924394,132.047453 L346.913,132.079 L346.888688,132.152183 L346.861,132.224 L346.843232,132.275883 L346.82,132.334 L346.798877,132.393292 L346.772,132.457 L346.755521,132.501899 L346.737,132.543 L346.701132,132.633046 L346.677,132.687 L346.661315,132.725347 L346.623,132.809 L346.595395,132.871294 L346.58,132.901 L346.560669,132.946072 L346.517,133.033 L346.482429,133.1062 L346.465,133.14 L346.453637,133.163921 C346.380167,133.308161 346.302476,133.45038 346.220638,133.590373 L346.169,133.674 L346.106192,133.780031 C345.971752,133.996806 345.828514,134.205661 345.677169,134.406343 L345.530232,134.595367 C345.377055,134.786733 345.214958,134.971934 345.044187,135.150275 L345.030195,135.164871 C344.972951,135.224349 344.914909,135.28288 344.856093,135.340457 L344.744,135.446 L344.691153,135.497607 C344.508927,135.666494 344.31819,135.82806 344.119191,135.98161 L343.997,136.072 L343.919109,136.131276 C343.655498,136.322428 343.381572,136.497542 343.098968,136.656016 L343.066,136.674 L343.05648,136.679349 L342.989,136.715 L342.885414,136.771741 L342.867,136.78 L342.828015,136.801169 L342.756,136.836 L342.66876,136.88117 L342.603,136.911 L342.594369,136.916719 L303.651,155.441 L303.604267,155.777095 C301.303425,171.813246 296.121004,186.707421 288.071097,200.400713 L287.777,200.895 L288.106666,201.43206 C301.216076,223.002009 308.127196,247.567866 308.850644,274.983051 L308.875142,276.025504 C309.75624,318.901769 295.716078,356.141803 266.907422,387.299388 L266.766052,387.448567 C237.0646,418.029495 200.804484,433.864123 158.435719,434.748541 L158.261449,434.748541 L148.638794,434.748541 C148.531578,434.748541 148.424371,434.748541 148.317233,434.74236 L137.43945,434.324022 C137.256813,434.316998 137.074455,434.303992 136.89267,434.285025 C102.969439,430.745527 73.355351,416.976213 48.3726444,393.170755 C16.8802195,363.741225 0.581784948,327.295271 -0.299977348,284.376615 C-1.47739815,241.698943 12.7487174,204.803269 42.1971592,174.179639 C42.3190751,174.052858 42.4449582,173.929952 42.5746209,173.811106 L43.552,172.914 L43.3533748,172.28638 C39.9870805,161.493576 38.1370346,150.12222 37.798809,138.211259 L37.7715294,137.093026 C36.8811267,100.293018 49.1458925,68.4374011 74.3640845,42.0349894 C100.149569,14.7700284 131.544708,0.56874087 168.101735,-0.322813233 Z M251.323217,48.1127301 C228.257985,26.1439561 200.809759,15.6321338 168.506486,16.4073421 C136.446541,17.1892218 109.269001,29.4827194 86.4943544,53.5639432 C64.3250522,76.7744225 53.7185816,104.322903 54.50239,136.719882 C54.7624596,149.462151 56.9616187,161.362413 61.0911455,172.45952 C62.2789632,175.651494 61.4135872,179.244914 58.9028706,181.546198 L54.087,185.959 L53.4739005,186.602519 C27.9357103,213.542044 15.6349991,245.44495 16.4025466,282.827852 L16.4301249,283.973939 C17.2204513,322.433039 31.6029437,354.594634 59.8579708,380.999371 C82.2321389,402.318722 108.401555,414.486408 138.629352,417.64033 L138.371,417.612 L148.804,418.013 L158.168,418.013 L159.224198,417.987618 C196.30919,416.953625 227.746739,403.2249 253.960393,376.607816 L254.691,375.86 L255.391605,375.097609 C280.470932,347.589862 292.680276,315.205486 292.163432,277.525061 L292.143635,276.369923 C291.616277,250.795311 285.204042,228.289081 272.913477,208.678226 L270.821595,205.331516 C269.091924,202.564291 269.128828,199.043966 270.916131,196.31361 C280.222631,182.096622 285.770206,166.358406 287.585024,148.989564 C287.888085,146.0891 289.679388,143.555649 292.312874,142.302938 L319.292,129.469 L291.141351,116.457328 C288.783062,115.367274 287.070029,113.246525 286.494427,110.724141 L286.435177,110.442256 C282.545966,90.2201723 273.497992,72.3843403 259.146493,56.7290484 L251.815,48.584 L251.323217,48.1127301 Z" id="Path" fill="#000000" fill-rule="nonzero"></path>
        <path d="M294.632512,241.632506 C303.666567,260.423237 308.183594,274.923237 308.183594,285.132506 C308.183594,295.341776 303.666567,309.841776 294.632512,328.632506 L8,328.632506 C2.42167497,310.514383 -0.36748754,296.014383 -0.36748754,285.132506 C-0.36748754,274.25063 2.42167497,259.75063 8,241.632506 L294.632512,241.632506 Z M286.315512,254.632506 L17.7605125,254.632506 L17.5635572,255.364853 C14.3287311,267.43631 12.7024597,277.243879 12.6325125,284.652723 L12.6325125,285.132506 C12.6325125,292.595788 14.2584088,302.56628 17.5635572,314.90016 L17.7605125,315.632506 L286.315512,315.632506 L286.405574,315.429261 C292.2113,302.224576 295.088501,292.097823 295.183594,285.461416 L295.183594,285.132506 C295.183594,278.503893 292.308063,268.260515 286.405574,254.835752 L286.315512,254.632506 Z" id="Rectangle" fill="#000000" fill-rule="nonzero"></path>
        <polyline id="Path" fill="#FFCC00" points="296.743996 130.197208 294.652115 108.861933 339 129.36053 296.743996 130.197208 339 129.36053 295.907244 149.859127 296.743996 130.197208"></polyline>
        <path d="M230.640544,53.6412235 C223.388689,54.4779009 216.973586,57.8246106 211.395236,63.6813526 C204.14338,71.4903419 200.79637,80.4149011 201.354205,90.4550302 C201.633123,101.331837 205.398509,110.395842 212.650365,117.647046 C218.507632,123.224896 225.341112,126.292713 233.150802,126.850498 L228.130287,129.36053 L223.109772,130.615547 L219.762761,131.452224 L213.487117,131.870563 L213.068741,132.288901 C201.91204,132.567794 192.010468,128.942192 183.364025,121.412095 C174.9965,113.603106 170.673278,103.702423 170.394361,91.7100463 C169.836526,80.2754548 173.462453,70.2353258 181.272144,61.589659 C189.360752,53.5017773 199.262324,49.3183902 210.97686,49.0394977 L214.32387,49.4578364 L227.293534,52.3862074 L230.640544,53.6412235" id="Path" fill="#FFFFFF"></path>
        <path d="M249.885853,109.280272 L242.773456,110.535288 C236.916189,110.814181 231.756215,109.00138 227.293534,105.096885 C223.109772,101.19239 221.157349,96.1723259 221.436266,90.0366915 C220.878431,84.1799495 222.551936,79.4387774 226.456782,75.8131752 C230.361627,71.6297881 235.382142,69.3986483 241.518328,69.1197559 L248.630724,70.374772 C251.977735,75.673729 253.790698,81.9488097 254.069616,89.200014 C254.069616,96.7301108 252.675028,103.42353 249.885853,109.280272" id="Path" fill="#000000"></path>
        <path d="M248.630724,70.374772 L241.518328,69.1197559 C235.382142,69.3986483 230.361627,71.6297881 226.456782,75.8131752 C222.551936,79.4387774 220.878431,84.1799495 221.436266,90.0366915 C221.157349,96.1723259 223.109772,101.19239 227.293534,105.096885 C231.756215,109.00138 236.916189,110.814181 242.773456,110.535288 L249.885853,109.280272 L246.538843,115.973692 L246.120467,116.39203 L244.446962,118.065385 L243.191833,119.73874 L233.150802,126.850498 C225.341112,126.292713 218.507632,123.224896 212.650365,117.647046 C205.398509,110.395842 201.633123,101.331837 201.354205,90.4550302 C200.79637,80.4149011 204.14338,71.4903419 211.395236,63.6813526 C216.973586,57.8246106 223.388689,54.4779009 230.640544,53.6412235 L232.732426,54.4779009 L241.099951,59.9163042 L246.120467,66.6097236 L248.630724,70.374772" id="Path" fill="#B1003C"></path>
        <path d="M249.885853,109.280272 L242.773456,110.535288 C236.916189,110.814181 231.756215,109.00138 227.293534,105.096885 C223.109772,101.19239 221.157349,96.1723259 221.436266,90.0366915 C220.878431,84.1799495 222.551936,79.4387774 226.456782,75.8131752 C230.361627,71.6297881 235.382142,69.3986483 241.518328,69.1197559 L248.630724,70.374772 L246.120467,66.6097236 L241.099951,59.9163042 L232.732426,54.4779009 L230.640544,53.6412235 L227.293534,52.3862074 L214.32387,49.4578364 L210.97686,49.0394977 C199.262324,49.3183902 189.360752,53.5017773 181.272144,61.589659 C173.462453,70.2353258 169.836526,80.2754548 170.394361,91.7100463 C170.673278,103.702423 174.9965,113.603106 183.364025,121.412095 C192.010468,128.942192 201.91204,132.567794 213.068741,132.288901 L213.487117,131.870563 L219.762761,131.452224 L223.109772,130.615547 L228.130287,129.36053 L233.150802,126.850498 L243.191833,119.73874 L244.446962,118.065385 L246.120467,116.39203 L246.538843,115.973692 L249.885853,109.280272 C252.675028,103.42353 254.069616,96.7301108 254.069616,89.200014 C253.790698,81.9488097 251.977735,75.673729 248.630724,70.374772 M294.652115,108.861933 L296.743996,130.197208 L339,129.36053 M295.907244,149.859127 L296.743996,130.197208" id="Shape" stroke="#000000" stroke-width="8.36752552" stroke-linecap="round" stroke-linejoin="round"></path>
        <g id="Rectangle-2" transform="translate(116, 258)">
            <rect id="Rectangle" fill="#587C3F" x="0" y="0" width="67" height="35"></rect>
            <text id="$50" font-family="SeuratPro-B, FOT-Seurat Pro" font-size="21" font-style="expanded" font-weight="bold" fill="#FFFFFF">
                <tspan x="13.525" y="25">$50</tspan>
            </text>
        </g>
        <g id="Rectangle-2-Copy" transform="translate(145.5, 275.5) rotate(8) translate(-145.5, -275.5)translate(112, 258)">
            <rect id="Rectangle" fill="#587C3F" x="0" y="0" width="67" height="35"></rect>
            <text id="$50" font-family="SeuratPro-B, FOT-Seurat Pro" font-size="21" font-style="expanded" font-weight="bold" fill="#FFFFFF">
                <tspan x="13.525" y="25">$50</tspan>
            </text>
        </g>
        <g id="Rectangle-2-Copy-2" transform="translate(153.5, 268.5) rotate(-5) translate(-153.5, -268.5)translate(120, 251)">
            <rect id="Rectangle" fill="#587C3F" x="0" y="0" width="67" height="35"></rect>
            <text id="$50" font-family="SeuratPro-B, FOT-Seurat Pro" font-size="21" font-style="expanded" font-weight="bold" fill="#FFFFFF">
                <tspan x="13.525" y="25">$50</tspan>
            </text>
        </g>
        <polyline id="Path-7" stroke="#000000" stroke-width="13" stroke-linecap="square" stroke-linejoin="round" points="110.803586 251 110.803586 293.0625 188.384541 293.0625 188.384541 251"></polyline>
    </g>
</svg>