<?xml version="1.0" encoding="UTF-8"?>
<svg width="1080px" height="480px" viewBox="0 0 1080 480" version="1.1" xmlns="http://www.w3.org/2000/svg" xmlns:xlink="http://www.w3.org/1999/xlink">
    <title>578</title>
    <g id="578" stroke="none" fill="none" stroke-width="1">
        <g id="Group" fill-rule="evenodd" transform="translate(540, 0)" fill="#999999">
            <path d="M-279.029037,0 L-279.029037,10 L-278.023421,10.05 C-278.005302,12.4833333 -277.887527,14.8333333 -277.670097,17.1 C-277.507024,18.7 -277.37113,20.3166667 -277.262414,21.95 L-277.044984,25.05 C-276.646361,30.9166667 -276.419871,36.9 -276.365514,43 L-276.202441,47.95 C-276.151806,48.8504566 -275.643265,53.7676644 -275.154618,58.9229462 L-275.06869,59.834404 C-274.541274,65.460815 -274.070703,71.1059361 -274.272745,71.9 L-274.761964,72.85 C-275.341778,73.4833333 -275.577328,74.8833333 -275.468613,77.05 L-275.033752,84.95 L-274.897858,87.05 L-274.545,91.599 L-274.446773,90.3118621 C-248.089054,94.0841595 -277.217834,88.3795444 -228.897207,118.524363 C-220.138811,123.988288 -209.944222,126.773321 -200.85825,131.673228 C-191.85151,136.530407 -183.829979,143.117693 -174.705141,147.749205 C-149.525719,160.529571 -134.13862,162.186873 -113.999382,178.339261 C-106.543477,184.319163 -66.1979056,203.47199 -64.111212,226.804369 C-62.5740195,243.992497 -68.482843,263.154432 -72.1983713,278.613095 C-74.0396658,286.273903 -75.8805119,294.028767 -79.0996454,301.220119 C-79.6709496,302.496378 -81.9383999,301.848166 -83.0043897,302.753092 C-93.9727282,312.064197 -102.235213,320.125193 -116.128191,324.851053 C-147.30415,335.455923 -177.668461,348.492639 -209.22308,357.911221 C-217.704663,360.442847 -226.989905,358.686811 -235.648076,360.525954 C-241.348509,361.736822 -246.131224,366.133355 -251.897597,366.976013 C-259.245259,368.049749 -267.667133,368.067461 -275.794631,366.757927 L-275.794759,389 C-275.794759,397.633333 -275.876295,406.283333 -276.039368,414.95 C-276.057487,415.95 -276.148083,416.95 -276.311156,417.95 C-276.782255,420.75 -277.008745,423.75 -276.990626,426.95 C-276.918149,433.616667 -276.963447,440.283333 -277.12652,446.95 C-277.14464,447.616667 -277.226176,448.3 -277.37113,449 C-278.657593,455.2 -279.237408,462.2 -279.110574,470 L-279.029037,472.95 L-279.029037,480 L-540,480 L-540,0 L-279.029037,0 Z M60.1,0 L540,0 L540,480 L60.1,480 L60.1,471.95 L60.15,470 C60.1166667,468.666667 59.8833333,467.583333 59.45,466.75 C59.1833333,466.216667 59.05,465.616667 59.05,464.95 C59.05,460.616667 59.2,456.3 59.5,452 L59.6,450.9 C59.7666667,449.1 60.1333333,447.416667 60.7,445.85 C61.6333333,443.283333 62.1,440.316667 62.1,436.95 C62.0666667,425.283333 61.9,413.633333 61.6,402 L61.3,398.95 C60.4666667,393.116667 60.2,387.133333 60.5,381 C60.6,379.366667 60.2666667,377.933333 59.5,376.7 C59.2,376.233333 59.05,375.666667 59.05,375 C59.2166667,367.533333 59.0166667,360.183333 58.45,352.95 C58.1833333,349.316667 58.05,345.666667 58.05,342 C58.05,335 57.7166667,328.033333 57.05,321.1 L56.05,321 C51.9833333,299.677778 50.6166667,288.627778 51.95,287.85 L55.9,285.75 C57,285.183333 57.4833333,284.25 57.35,282.95 C57.15,280.716667 56.4833333,278.666667 55.35,276.8 C54.8166667,275.933333 54.5,274.983333 54.4,273.95 L53.75,266 L53.4,261 L52.6,249.05 L52.45,247.95 C52.1833333,246.316667 52.05,244.666667 52.05,243 C51.9833333,239.066667 52.8166667,235.95 54.55,233.65 C54.8833333,233.216667 55.0666667,232.666667 55.1,232 C55.3666667,226.066667 54.9666667,220.416667 53.9,215.05 C53.3333333,212.216667 47.1833333,190.366667 49.45,187.3 C51.1833333,184.966667 51.8666667,181.85 51.5,177.95 L50.8,168 C50.6666667,165.366667 50.95,163.3 51.65,161.8 L52.25,160.05 L52.55,157 C52.55,153.566667 53.25,150.5 54.65,147.8 C54.9166667,147.266667 55.05,146.666667 55.05,146 C55.05,139 54.9,132 54.6,125 L54.2,121.95 C52.6666667,115.616667 52.55,109.283333 53.85,102.95 C54.9833333,97.25 55.55,91.2666667 55.55,85 C55.55,84.3333333 55.6333333,83.65 55.8,82.95 C56.9333333,77.8166667 57.45,72.5 57.35,67 C57.15,55 57.2,43 57.5,31 L57.6,28.95 C57.9,24.9833333 57.9333333,21 57.7,17 C57.5666667,14.6333333 58.25,13.1 59.75,12.4 L61.15,11.45 L60.1,10 L60.1,0 Z" id="Shape"></path>
        </g>
        <path d="M594.431041,139.187691 C652.660594,139.187691 630.203864,144.38556 663.391718,134.056568" id="Path-2" stroke="#979797"></path>
    </g>
</svg>