<?xml version="1.0" encoding="UTF-8"?>
<svg width="118px" height="118px" viewBox="0 0 118 118" version="1.1" xmlns="http://www.w3.org/2000/svg" xmlns:xlink="http://www.w3.org/1999/xlink">
    <title>Group</title>
    <g id="Page-1" stroke="none" stroke-width="1" fill="none" fill-rule="evenodd">
        <g id="Group" transform="translate(-2, 0)" fill-rule="nonzero">
            <polygon id="Path" fill="#00275A" points="2 0 2 118 120 118 120 0"></polygon>
            <path d="M95.28232,48.45536 L95.28232,58.0076 C95.28232,60.85088 92.76712,62.978 88.3336,62.978 L85.28152,62.978 L85.28152,81.1196 C85.32616,82.63448 85.96792,83.3432 87.72184,83.41808 L88.81888,83.41808 L88.81888,84.7016 L78.37024,84.7016 L78.37024,83.41808 L78.86296,83.41808 C80.36344,83.35088 80.75848,82.97768 80.80336,81.95504 L80.80336,35.14952 L78.37024,35.14952 L78.37024,33.6416 L87.63232,33.6416 C93.10264,33.6416 95.28232,36.20168 95.28232,39.05216 L95.28232,48.45536 Z M70.59376,84.7016 L61.2952,84.7016 L61.2952,83.4032 L62.0116,83.4032 C63.42928,83.31344 63.55648,82.8728 63.5716,81.68648 L61.2352,62.94752 L55.5856,62.94752 L53.37664,81.71672 C53.39896,82.01504 53.48128,82.40288 53.76496,82.73144 C54.20488,83.14952 55.10032,83.40296 56.04064,83.40296 L56.04064,84.7016 L48.72712,84.7016 L48.72712,83.24624 C51.01072,83.11904 51.04072,82.73864 51.3688,81.22424 L57.30952,33.64184 L61.93672,33.64184 L61.93672,33.6272 L61.96672,33.6272 L67.87,81.11936 L67.87,81.07472 C67.98184,82.22384 68.56408,83.31344 70.35496,83.40296 L70.594,83.40296 L70.59376,84.7016 Z M42.7864,62.94752 L40.54768,62.94752 L40.54768,84.88784 L39.1516,84.88784 C39.1516,83.918 38.6296,83.08232 37.95016,83.40296 C36.91288,83.9108 35.73352,85.32848 33.06208,85.31348 C29.63632,85.26848 26.1436,84.05216 26.09104,77.45504 L26.09104,39.5072 C26.10616,34.3436 29.97208,33.164 32.65144,33.1565812 C34.30816,33.14192 36.01744,33.88784 37.52464,34.88072 C37.95016,35.1272 38.46544,35.19416 38.47264,34.38056 L38.47264,33.60464 L40.0624,33.60464 L40.0624,49.73144 L38.10688,49.73144 C37.204,49.73144 36.90568,49.44752 36.90568,48.61928 C36.90568,46.17176 36.5548,40.61216 35.98768,38.19416 C35.45032,35.88824 34.30792,34.38056 32.65144,34.358 C30.6364,34.3436 30.40528,37.09712 30.40528,38.28392 L30.40528,81.2384 C30.40528,82.8728 31.56928,84.18632 33.11416,84.18632 C34.68856,84.18632 35.95024,82.91024 35.95024,81.2384 L35.95024,62.94752 L33.21112,62.94752 L33.21112,61.31312 L42.7864,61.31312 L42.7864,62.94752 Z M55.80568,61.3352 L61.01464,61.3352 L58.23856,40.7828 L55.80568,61.3352 Z M87.61792,35.15216 L85.28176,35.15216 L85.28176,61.2718665 L87.84184,61.2718665 C89.81224,61.27904 90.82672,59.81672 90.82672,58.21904 L90.82672,38.44328 C90.82672,37.01768 89.812,35.15216 87.61792,35.15216 Z" id="Shape" fill="#FFFFFF"></path>
        </g>
    </g>
</svg>