<?xml version="1.0" encoding="UTF-8"?>
<svg width="120px" height="143px" viewBox="0 0 120 143" version="1.1" xmlns="http://www.w3.org/2000/svg" xmlns:xlink="http://www.w3.org/1999/xlink">
    <title>Group 3</title>
    <defs>
        <linearGradient x1="99.9712%" y1="49.9975534%" x2="0.0288%" y2="49.9975534%" id="linearGradient-1">
            <stop stop-color="#999999" offset="0%"></stop>
            <stop stop-color="#848484" offset="100%"></stop>
        </linearGradient>
        <path d="M99,0 L100.5,0 C105.833333,0.133333333 110.383333,2.08333333 114.15,5.85 C117.916667,9.61666667 119.866667,14.1666667 120,19.5 L120,30.55 C119.866667,35.85 117.916667,40.3833333 114.15,44.15 C110.383333,47.9166667 105.833333,49.8666667 100.5,50 L99,50 L19.5,50 C14.2,49.9 9.65,47.95 5.85,44.15 C2.08333333,40.3833333 0.133333333,35.85 0,30.55 L0,19.5 C0.133333333,14.1666667 2.08333333,9.61666667 5.85,5.85 C9.61666667,2.08333333 14.15,0.133333333 19.45,0 L99,0 Z" id="path-2"></path>
    </defs>
    <g id="Page-1" stroke="none" stroke-width="1" fill="none" fill-rule="evenodd">
        <g id="Group-3" transform="translate(0, -0.0029)">
            <polygon id="Path-Copy-7" fill="url(#linearGradient-1)" points="35 143 35.45 50.15 85 50.15 85 143"></polygon>
            <polygon id="Path-Copy-8" fill="#7C7C7C" points="40 138 40.369 97 81 97 81 138"></polygon>
            <g id="Path-8">
                <mask id="mask-3" fill="white">
                    <use xlink:href="#path-2"></use>
                </mask>
                <use id="Path" fill="#3CEA42" xlink:href="#path-2"></use>
                <text id="Click-to-dispenc" mask="url(#mask-3)" font-family="CaratStd-UB, FOT-Carat Std" font-size="12" font-weight="800" fill="#000000" fill-opacity="0.489783654">
                    <tspan x="3.588" y="43.0029358">Click to dispenc</tspan>
                </text>
            </g>
            <path d="M31.5,16.05 C32.1,16.05 32.6166667,15.7833333 33.05,15.25 C33.35,14.85 33.5,14.4833333 33.5,14.15 C33.5,12.95 32.8333333,12.3 31.5,12.2 C30.1666667,12.0666667 29.5,12.7 29.5,14.1 L29.8,15.15 C30.1333333,15.75 30.7,16.05 31.5,16.05 M24.5,14.85 L24.75,15.9 C25.0833333,16.5 25.6666667,16.8 26.5,16.8 C27.1,16.8 27.6166667,16.5333333 28.05,16 C28.35,15.6 28.5,15.2333333 28.5,14.9 C28.5,13.7 27.8333333,13.05 26.5,12.95 C25.1666667,12.8166667 24.5,13.45 24.5,14.85 M24.3,21.55 C24.6,21.15 24.75,20.7666667 24.75,20.4 C24.75,19.2333333 24.0833333,18.5833333 22.75,18.45 C21.4166667,18.3166667 20.75,18.95 20.75,20.35 L21,21.35 C21.3666667,21.9833333 21.95,22.3 22.75,22.3 C23.3833333,22.3 23.9,22.05 24.3,21.55 M27.5,20.95 C26.1666667,20.8166667 25.5,21.45 25.5,22.85 L25.75,23.9 C26.0833333,24.5 26.6666667,24.8 27.5,24.8 C28.1333333,24.8 28.65,24.55 29.05,24.05 C29.35,23.65 29.5,23.2666667 29.5,22.9 C29.5,21.7333333 28.8333333,21.0833333 27.5,20.95 M33.5,14.85 L33.75,15.9 C34.0833333,16.5 34.6666667,16.8 35.5,16.8 C36.1,16.8 36.6166667,16.5333333 37.05,16 C37.35,15.6 37.5,15.2333333 37.5,14.9 C37.5,13.5 36.8333333,12.8166667 35.5,12.85 C34.1666667,12.85 33.5,13.5166667 33.5,14.85 M28.75,20.4 C29.0833333,21 29.6666667,21.3 30.5,21.3 C31.1,21.3 31.6166667,21.0333333 32.05,20.5 C32.35,20.1 32.5,19.7333333 32.5,19.4 C32.5,18.2 31.8333333,17.55 30.5,17.45 C29.1666667,17.3166667 28.5,17.95 28.5,19.35 L28.75,20.4 M36.15,24.2 C35.8166667,23.7666667 35.2666667,23.5166667 34.5,23.45 C33.1666667,23.3166667 32.5,23.95 32.5,25.35 L32.8,26.4 C33.1333333,27 33.7,27.3 34.5,27.3 C35.0666667,27.3 35.5666667,27.0666667 36,26.6 C36.3666667,27.2333333 36.95,27.55 37.75,27.55 C38.3833333,27.55 38.9,27.3 39.3,26.8 C39.6,26.4 39.75,26.0166667 39.75,25.65 C39.75,24.4833333 39.0833333,23.8333333 37.75,23.7 C37.0166667,23.6333333 36.4833333,23.8 36.15,24.2 M34.25,20.35 L34.5,21.35 C34.8666667,21.9833333 35.45,22.3 36.25,22.3 C36.8833333,22.3 37.4,22.05 37.8,21.55 C38.1,21.15 38.25,20.7666667 38.25,20.4 C38.25,19.2333333 37.5833333,18.5833333 36.25,18.45 C34.9166667,18.3166667 34.25,18.95 34.25,20.35 M39.5,18.25 C40.5,21.3166667 41,23.6 41,25.1 C41,27.4333333 39.5166667,28.7166667 36.55,28.95 L30.75,28.8 L23.4,28.9 L20.85,29.05 C18.4166667,29.05 16.2166667,27.9833333 14.25,25.85 C12.75,24.2166667 12,23.05 12,22.35 L12.1,21.4 C12.2333333,21.0666667 12.5333333,20.7833333 13,20.55 L15.25,20.4 L17.5,20.05 L19.15,18.7 C20.25,17.9333333 21.45,17.5333333 22.75,17.5 C26.8166667,6.63333333 31.05,4.1 35.45,9.9 C36.9833333,11.9333333 38.3333333,14.7166667 39.5,18.25 M24,28.55 C24.7,28.55 25.2833333,28.1833333 25.75,27.45 C26.0833333,26.9166667 26.25,26.4833333 26.25,26.15 C26.25,24.6833333 25.55,24.0166667 24.15,24.15 C22.7166667,24.2833333 22,25.1 22,26.6 L22.3,27.65 C22.6333333,28.25 23.2,28.55 24,28.55 M16.75,25.1 L17.05,26.15 C17.3833333,26.75 17.95,27.05 18.75,27.05 C19.3833333,27.05 19.9,26.8 20.3,26.3 C20.6,25.9 20.75,25.5166667 20.75,25.15 C20.75,23.75 20.0833333,23.05 18.75,23.05 C17.4166667,23.0833333 16.75,23.7666667 16.75,25.1" id="Shape" fill="#53BA56"></path>
            <path d="M31.5,16.05 C30.7,16.05 30.1333333,15.75 29.8,15.15 L29.5,14.1 C29.5,12.7 30.1666667,12.0666667 31.5,12.2 C32.8333333,12.3 33.5,12.95 33.5,14.15 C33.5,14.4833333 33.35,14.85 33.05,15.25 C32.6166667,15.7833333 32.1,16.05 31.5,16.05 M27.5,20.95 C28.8333333,21.0833333 29.5,21.7333333 29.5,22.9 C29.5,23.2666667 29.35,23.65 29.05,24.05 C28.65,24.55 28.1333333,24.8 27.5,24.8 C26.6666667,24.8 26.0833333,24.5 25.75,23.9 L25.5,22.85 C25.5,21.45 26.1666667,20.8166667 27.5,20.95 M24.3,21.55 C23.9,22.05 23.3833333,22.3 22.75,22.3 C21.95,22.3 21.3666667,21.9833333 21,21.35 L20.75,20.35 C20.75,18.95 21.4166667,18.3166667 22.75,18.45 C24.0833333,18.5833333 24.75,19.2333333 24.75,20.4 C24.75,20.7666667 24.6,21.15 24.3,21.55 M34.25,20.35 C34.25,18.95 34.9166667,18.3166667 36.25,18.45 C37.5833333,18.5833333 38.25,19.2333333 38.25,20.4 C38.25,20.7666667 38.1,21.15 37.8,21.55 C37.4,22.05 36.8833333,22.3 36.25,22.3 C35.45,22.3 34.8666667,21.9833333 34.5,21.35 L34.25,20.35 M36,26.6 C35.5666667,27.0666667 35.0666667,27.3 34.5,27.3 C33.7,27.3 33.1333333,27 32.8,26.4 L32.5,25.35 C32.5,23.95 33.1666667,23.3166667 34.5,23.45 C35.2666667,23.5166667 35.8166667,23.7666667 36.15,24.2 C35.8833333,24.5 35.75,24.9666667 35.75,25.6 L36,26.6 M16.75,25.1 C16.75,23.7666667 17.4166667,23.0833333 18.75,23.05 C20.0833333,23.05 20.75,23.75 20.75,25.15 C20.75,25.5166667 20.6,25.9 20.3,26.3 C19.9,26.8 19.3833333,27.05 18.75,27.05 C17.95,27.05 17.3833333,26.75 17.05,26.15 L16.75,25.1" id="Shape" fill="#02A207"></path>
            <path d="M24.5,14.85 C24.5,13.45 25.1666667,12.8166667 26.5,12.95 C27.8333333,13.05 28.5,13.7 28.5,14.9 C28.5,15.2333333 28.35,15.6 28.05,16 C27.6166667,16.5333333 27.1,16.8 26.5,16.8 C25.6666667,16.8 25.0833333,16.5 24.75,15.9 L24.5,14.85 M28.75,20.4 L28.5,19.35 C28.5,17.95 29.1666667,17.3166667 30.5,17.45 C31.8333333,17.55 32.5,18.2 32.5,19.4 C32.5,19.7333333 32.35,20.1 32.05,20.5 C31.6166667,21.0333333 31.1,21.3 30.5,21.3 C29.6666667,21.3 29.0833333,21 28.75,20.4 M33.5,14.85 C33.5,13.5166667 34.1666667,12.85 35.5,12.85 C36.8333333,12.8166667 37.5,13.5 37.5,14.9 C37.5,15.2333333 37.35,15.6 37.05,16 C36.6166667,16.5333333 36.1,16.8 35.5,16.8 C34.6666667,16.8 34.0833333,16.5 33.75,15.9 L33.5,14.85 M36.15,24.2 C36.4833333,23.8 37.0166667,23.6333333 37.75,23.7 C39.0833333,23.8333333 39.75,24.4833333 39.75,25.65 C39.75,26.0166667 39.6,26.4 39.3,26.8 C38.9,27.3 38.3833333,27.55 37.75,27.55 C36.95,27.55 36.3666667,27.2333333 36,26.6 L35.75,25.6 C35.75,24.9666667 35.8833333,24.5 36.15,24.2 M24,28.55 C23.2,28.55 22.6333333,28.25 22.3,27.65 L22,26.6 C22,25.1 22.7166667,24.2833333 24.15,24.15 C25.55,24.0166667 26.25,24.6833333 26.25,26.15 C26.25,26.4833333 26.0833333,26.9166667 25.75,27.45 C25.2833333,28.1833333 24.7,28.55 24,28.55" id="Shape" fill="#FFFFFF"></path>
            <path d="M39.5,18.25 C40.5,21.3166667 41,23.6 41,25.1 C41,27.4333333 39.5166667,28.7166667 36.55,28.95 L30.75,28.8 L23.4,28.9 L20.85,29.05 C18.4166667,29.05 16.2166667,27.9833333 14.25,25.85 C12.75,24.2166667 12,23.05 12,22.35 L12.1,21.4 C12.2333333,21.0666667 12.5333333,20.7833333 13,20.55 L15.25,20.4 L17.5,20.05 L19.15,18.7 C20.25,17.9333333 21.45,17.5333333 22.75,17.5 C26.8166667,6.63333333 31.05,4.1 35.45,9.9 C36.9833333,11.9333333 38.3333333,14.7166667 39.5,18.25 Z" id="Path" stroke="#000000" stroke-width="2" stroke-linecap="round" stroke-linejoin="round"></path>
            <text id="$1000" font-family="Digital-7" font-size="26" font-weight="normal" fill="#000000">
                <tspan x="46.2909091" y="26.0029358">$1000</tspan>
            </text>
        </g>
    </g>
</svg>