<?xml version="1.0" encoding="UTF-8"?>
<svg width="106px" height="66px" viewBox="0 0 106 66" version="1.1" xmlns="http://www.w3.org/2000/svg" xmlns:xlink="http://www.w3.org/1999/xlink">
    <title>Group 2</title>
    <g id="Page-1" stroke="none" stroke-width="1" fill="none" fill-rule="evenodd">
        <g id="Group" transform="translate(6.7099, 10.65)">
            <g id="305-copy" transform="translate(-6, -10)">
                <path d="M51.85,55.15 L12.75,55.15 L10.6,54.6 C10.2,54.3666667 10,53.75 10,52.75 C10,51.2833333 11.3333333,49.7166667 14,48.05 L20.5,44 L22.15,42.2 L23.8,39.7 L24.4,38.6 L24.9,37.7 C25.7666667,36.1 26.3833333,34.7833333 26.75,33.75 C27.5833333,30.6833333 28.75,28.6833333 30.25,27.75 L31.3,27.15 L32.9,26.45 L33.65,26.15 L36.6,25.25 L37.25,25 L40.35,24.1 L41.45,23.8 L43.75,23.2 L44.5,22.9 C46.2666667,22.0666667 47.7666667,20.6833333 49,18.75 C49.3,17.15 49.65,15.7 50.05,14.4 C50.5166667,12.9 51.1166667,11.7833333 51.85,11.05 C52.35,10.55 52.9,10.2 53.5,10" id="Path" stroke-opacity="0.007843138" stroke="#000000" stroke-width="20" stroke-linecap="round" stroke-linejoin="round"></path>
                <path d="M44.5,22.9 C46.2666667,22.0666667 47.7666667,20.6833333 49,18.75 C49.3,17.15 49.65,15.7 50.05,14.4 C50.5166667,12.9 51.1166667,11.7833333 51.85,11.05 L51.85,35.5 C50.55,35.8333333 49.9,36.55 49.9,37.65 L50.2,38.65 C50.5333333,39.1166667 51.0833333,39.4166667 51.85,39.55 L51.85,43.85 C51.5166667,43.4833333 51,43.3166667 50.3,43.35 C48.8666667,43.45 48.15,44.2166667 48.15,45.65 L48.4,46.65 C48.7666667,47.3166667 49.3833333,47.65 50.25,47.65 C50.9166667,47.65 51.45,47.4333333 51.85,47 L51.85,55.15 L12.75,55.15 L10.6,54.6 C10.2,54.3666667 10,53.75 10,52.75 C10,51.2833333 11.3333333,49.7166667 14,48.05 L18.8,45.05 C19.1666667,45.2833333 19.6166667,45.4 20.15,45.4 C20.85,45.4 21.4166667,45.2 21.85,44.8 C22.2166667,44.4333333 22.4,43.9833333 22.4,43.45 C22.4,42.95 22.3166667,42.5333333 22.15,42.2 L23.8,39.7 L24.4,39.15 C24.7333333,38.75 24.9,38.3 24.9,37.8 L24.9,37.7 C25.7666667,36.1 26.3833333,34.7833333 26.75,33.75 C27.5833333,30.6833333 28.75,28.6833333 30.25,27.75 L31.3,27.15 L31.4,27.15 C31.9666667,27.15 32.4666667,26.9166667 32.9,26.45 L33.65,26.15 L36.6,25.25 L36.7,25.65 C37.0333333,26.3166667 37.6,26.65 38.4,26.65 C39,26.65 39.5166667,26.3833333 39.95,25.85 L40.4,24.7 L40.35,24.1 L41.45,23.8 L42.65,24.15 C43.25,24.15 43.7666667,23.8833333 44.2,23.35 L44.5,22.9 M49.65,24.75 C48.3166667,24.6833333 47.65,25.3333333 47.65,26.7 L47.85,27.8 C48.15,28.5333333 48.75,28.9 49.65,28.9 C50.25,28.9 50.75,28.6666667 51.15,28.2 C51.4833333,27.7666667 51.65,27.3 51.65,26.8 C51.65,25.5 50.9833333,24.8166667 49.65,24.75 M42.7,32.6 L43.15,31.45 C43.15,30.2166667 42.4833333,29.5666667 41.15,29.5 C39.8166667,29.4 39.15,30.0333333 39.15,31.4 L39.4,32.4 C39.7666667,33.0666667 40.35,33.4 41.15,33.4 C41.75,33.4 42.2666667,33.1333333 42.7,32.6 M35.4,37.15 C35.7666667,37.8166667 36.35,38.15 37.15,38.15 C37.75,38.15 38.2666667,37.8833333 38.7,37.35 L39.15,36.2 C39.15,34.9666667 38.4833333,34.3166667 37.15,34.25 C35.8166667,34.15 35.15,34.7833333 35.15,36.15 L35.4,37.15 M31.7,35.35 L32.15,34.2 C32.15,32.9666667 31.4833333,32.3166667 30.15,32.25 C28.8166667,32.15 28.15,32.7833333 28.15,34.15 L28.45,35.15 C28.7833333,35.8166667 29.35,36.15 30.15,36.15 C30.75,36.15 31.2666667,35.8833333 31.7,35.35 M32.2,41.1 L32.65,39.95 C32.65,38.7166667 31.9833333,38.0666667 30.65,38 C29.3166667,37.9 28.65,38.5333333 28.65,39.9 L28.9,40.9 C29.2666667,41.5666667 29.85,41.9 30.65,41.9 C31.25,41.9 31.7666667,41.6333333 32.2,41.1 M39.65,41.9 L39.9,42.9 C40.2666667,43.5666667 40.85,43.9 41.65,43.9 C42.25,43.9 42.7666667,43.6333333 43.2,43.1 L43.65,41.95 C43.65,40.7166667 42.9833333,40.0666667 41.65,40 C40.3166667,39.9 39.65,40.5333333 39.65,41.9 M30.4,48.15 C30.7666667,48.8166667 31.35,49.15 32.15,49.15 C32.75,49.15 33.2666667,48.8833333 33.7,48.35 L34.15,47.2 C34.15,45.7666667 33.4833333,45.0833333 32.15,45.15 C30.8166667,45.1833333 30.15,45.85 30.15,47.15 L30.4,48.15 M39.45,47.6 L39.9,46.45 C39.9,45.2166667 39.2333333,44.5666667 37.9,44.5 C36.5666667,44.4 35.9,45.0333333 35.9,46.4 L36.15,47.4 C36.5166667,48.0666667 37.1,48.4 37.9,48.4 C38.5,48.4 39.0166667,48.1333333 39.45,47.6 M25.9,49.9 C26.5,49.9 27.0166667,49.6333333 27.45,49.1 C27.75,48.6666667 27.9,48.2833333 27.9,47.95 C27.9,46.7166667 27.2333333,46.0666667 25.9,46 C24.5666667,45.9 23.9,46.5333333 23.9,47.9 L24.15,48.9 C24.5166667,49.5666667 25.1,49.9 25.9,49.9" id="Shape" fill="#FFCC66"></path>
                <path d="M51.85,43.85 L51.85,47 C51.45,47.4333333 50.9166667,47.65 50.25,47.65 C49.3833333,47.65 48.7666667,47.3166667 48.4,46.65 L48.15,45.65 C48.15,44.2166667 48.8666667,43.45 50.3,43.35 C51,43.3166667 51.5166667,43.4833333 51.85,43.85 M18.8,45.05 L20.5,44 L22.15,42.2 C22.3166667,42.5333333 22.4,42.95 22.4,43.45 C22.4,43.9833333 22.2166667,44.4333333 21.85,44.8 C21.4166667,45.2 20.85,45.4 20.15,45.4 C19.6166667,45.4 19.1666667,45.2833333 18.8,45.05 M31.3,27.15 L32.9,26.45 C32.4666667,26.9166667 31.9666667,27.15 31.4,27.15 L31.3,27.15 M41.45,23.8 L43.75,23.2 L44.5,22.9 L44.2,23.35 C43.7666667,23.8833333 43.25,24.15 42.65,24.15 L41.45,23.8 M42.7,32.6 C42.2666667,33.1333333 41.75,33.4 41.15,33.4 C40.35,33.4 39.7666667,33.0666667 39.4,32.4 L39.15,31.4 C39.15,30.0333333 39.8166667,29.4 41.15,29.5 C42.4833333,29.5666667 43.15,30.2166667 43.15,31.45 L42.7,32.6 M31.7,35.35 C31.2666667,35.8833333 30.75,36.15 30.15,36.15 C29.35,36.15 28.7833333,35.8166667 28.45,35.15 L28.15,34.15 C28.15,32.7833333 28.8166667,32.15 30.15,32.25 C31.4833333,32.3166667 32.15,32.9666667 32.15,34.2 L31.7,35.35 M39.65,41.9 C39.65,40.5333333 40.3166667,39.9 41.65,40 C42.9833333,40.0666667 43.65,40.7166667 43.65,41.95 L43.2,43.1 C42.7666667,43.6333333 42.25,43.9 41.65,43.9 C40.85,43.9 40.2666667,43.5666667 39.9,42.9 L39.65,41.9 M30.4,48.15 L30.15,47.15 C30.15,45.85 30.8166667,45.1833333 32.15,45.15 C33.4833333,45.0833333 34.15,45.7666667 34.15,47.2 L33.7,48.35 C33.2666667,48.8833333 32.75,49.15 32.15,49.15 C31.35,49.15 30.7666667,48.8166667 30.4,48.15" id="Shape" fill="#CC9966"></path>
                <path d="M51.85,35.5 L51.85,39.55 C51.0833333,39.4166667 50.5333333,39.1166667 50.2,38.65 L49.9,37.65 C49.9,36.55 50.55,35.8333333 51.85,35.5 M23.8,39.7 L24.4,38.6 L24.9,37.7 L24.9,37.8 C24.9,38.3 24.7333333,38.75 24.4,39.15 L23.8,39.7 M36.6,25.25 L37.25,25 L40.35,24.1 L40.4,24.7 L39.95,25.85 C39.5166667,26.3833333 39,26.65 38.4,26.65 C37.6,26.65 37.0333333,26.3166667 36.7,25.65 L36.6,25.25 M49.65,24.75 C50.9833333,24.8166667 51.65,25.5 51.65,26.8 C51.65,27.3 51.4833333,27.7666667 51.15,28.2 C50.75,28.6666667 50.25,28.9 49.65,28.9 C48.75,28.9 48.15,28.5333333 47.85,27.8 L47.65,26.7 C47.65,25.3333333 48.3166667,24.6833333 49.65,24.75 M35.4,37.15 L35.15,36.15 C35.15,34.7833333 35.8166667,34.15 37.15,34.25 C38.4833333,34.3166667 39.15,34.9666667 39.15,36.2 L38.7,37.35 C38.2666667,37.8833333 37.75,38.15 37.15,38.15 C36.35,38.15 35.7666667,37.8166667 35.4,37.15 M32.2,41.1 C31.7666667,41.6333333 31.25,41.9 30.65,41.9 C29.85,41.9 29.2666667,41.5666667 28.9,40.9 L28.65,39.9 C28.65,38.5333333 29.3166667,37.9 30.65,38 C31.9833333,38.0666667 32.65,38.7166667 32.65,39.95 L32.2,41.1 M39.45,47.6 C39.0166667,48.1333333 38.5,48.4 37.9,48.4 C37.1,48.4 36.5166667,48.0666667 36.15,47.4 L35.9,46.4 C35.9,45.0333333 36.5666667,44.4 37.9,44.5 C39.2333333,44.5666667 39.9,45.2166667 39.9,46.45 L39.45,47.6 M6.85,44.65 L7,44.65 L6.85,44.9 L6.85,44.65 M25.9,49.9 C25.1,49.9 24.5166667,49.5666667 24.15,48.9 L23.9,47.9 C23.9,46.5333333 24.5666667,45.9 25.9,46 C27.2333333,46.0666667 27.9,46.7166667 27.9,47.95 C27.9,48.2833333 27.75,48.6666667 27.45,49.1 C27.0166667,49.6333333 26.5,49.9 25.9,49.9" id="Shape" fill="#FFFF66"></path>
                <path d="M51.85,11.05 C52.35,10.55 52.9,10.2 53.5,10 M44.5,22.9 C46.2666667,22.0666667 47.7666667,20.6833333 49,18.75 C49.3,17.15 49.65,15.7 50.05,14.4 C50.5166667,12.9 51.1166667,11.7833333 51.85,11.05 M51.85,55.15 L12.75,55.15 L10.6,54.6 C10.2,54.3666667 10,53.75 10,52.75 C10,51.2833333 11.3333333,49.7166667 14,48.05 L18.8,45.05 L20.5,44 L22.15,42.2 L23.8,39.7 L24.4,38.6 L24.9,37.7 C25.7666667,36.1 26.3833333,34.7833333 26.75,33.75 C27.5833333,30.6833333 28.75,28.6833333 30.25,27.75 L31.3,27.15 L32.9,26.45 L33.65,26.15 L36.6,25.25 L37.25,25 L40.35,24.1 L41.45,23.8 L43.75,23.2 L44.5,22.9" id="Shape" stroke="#000000" stroke-width="2" stroke-linecap="round" stroke-linejoin="round"></path>
            </g>
            <g id="305-copy-2" transform="translate(35, -10)">
                <path d="M51.85,55.15 L12.75,55.15 L10.6,54.6 C10.2,54.3666667 10,53.75 10,52.75 C10,51.2833333 11.3333333,49.7166667 14,48.05 L20.5,44 L22.15,42.2 L23.8,39.7 L24.4,38.6 L24.9,37.7 C25.7666667,36.1 26.3833333,34.7833333 26.75,33.75 C27.5833333,30.6833333 28.75,28.6833333 30.25,27.75 L31.3,27.15 L32.9,26.45 L33.65,26.15 L36.6,25.25 L37.25,25 L40.35,24.1 L41.45,23.8 L43.75,23.2 L44.5,22.9 C46.2666667,22.0666667 47.7666667,20.6833333 49,18.75 C49.3,17.15 49.65,15.7 50.05,14.4 C50.5166667,12.9 51.1166667,11.7833333 51.85,11.05 C52.35,10.55 52.9,10.2 53.5,10" id="Path" stroke-opacity="0.007843138" stroke="#000000" stroke-width="20" stroke-linecap="round" stroke-linejoin="round" transform="translate(31.75, 32.575) scale(-1, 1) translate(-31.75, -32.575)"></path>
                <path d="M44.5,22.9 C46.2666667,22.0666667 47.7666667,20.6833333 49,18.75 C49.3,17.15 49.65,15.7 50.05,14.4 C50.5166667,12.9 51.1166667,11.7833333 51.85,11.05 L51.85,35.5 C50.55,35.8333333 49.9,36.55 49.9,37.65 L50.2,38.65 C50.5333333,39.1166667 51.0833333,39.4166667 51.85,39.55 L51.85,43.85 C51.5166667,43.4833333 51,43.3166667 50.3,43.35 C48.8666667,43.45 48.15,44.2166667 48.15,45.65 L48.4,46.65 C48.7666667,47.3166667 49.3833333,47.65 50.25,47.65 C50.9166667,47.65 51.45,47.4333333 51.85,47 L51.85,55.15 L12.75,55.15 L10.6,54.6 C10.2,54.3666667 10,53.75 10,52.75 C10,51.2833333 11.3333333,49.7166667 14,48.05 L18.8,45.05 C19.1666667,45.2833333 19.6166667,45.4 20.15,45.4 C20.85,45.4 21.4166667,45.2 21.85,44.8 C22.2166667,44.4333333 22.4,43.9833333 22.4,43.45 C22.4,42.95 22.3166667,42.5333333 22.15,42.2 L23.8,39.7 L24.4,39.15 C24.7333333,38.75 24.9,38.3 24.9,37.8 L24.9,37.7 C25.7666667,36.1 26.3833333,34.7833333 26.75,33.75 C27.5833333,30.6833333 28.75,28.6833333 30.25,27.75 L31.3,27.15 L31.4,27.15 C31.9666667,27.15 32.4666667,26.9166667 32.9,26.45 L33.65,26.15 L36.6,25.25 L36.7,25.65 C37.0333333,26.3166667 37.6,26.65 38.4,26.65 C39,26.65 39.5166667,26.3833333 39.95,25.85 L40.4,24.7 L40.35,24.1 L41.45,23.8 L42.65,24.15 C43.25,24.15 43.7666667,23.8833333 44.2,23.35 L44.5,22.9 M49.65,24.75 C48.3166667,24.6833333 47.65,25.3333333 47.65,26.7 L47.85,27.8 C48.15,28.5333333 48.75,28.9 49.65,28.9 C50.25,28.9 50.75,28.6666667 51.15,28.2 C51.4833333,27.7666667 51.65,27.3 51.65,26.8 C51.65,25.5 50.9833333,24.8166667 49.65,24.75 M42.7,32.6 L43.15,31.45 C43.15,30.2166667 42.4833333,29.5666667 41.15,29.5 C39.8166667,29.4 39.15,30.0333333 39.15,31.4 L39.4,32.4 C39.7666667,33.0666667 40.35,33.4 41.15,33.4 C41.75,33.4 42.2666667,33.1333333 42.7,32.6 M35.4,37.15 C35.7666667,37.8166667 36.35,38.15 37.15,38.15 C37.75,38.15 38.2666667,37.8833333 38.7,37.35 L39.15,36.2 C39.15,34.9666667 38.4833333,34.3166667 37.15,34.25 C35.8166667,34.15 35.15,34.7833333 35.15,36.15 L35.4,37.15 M31.7,35.35 L32.15,34.2 C32.15,32.9666667 31.4833333,32.3166667 30.15,32.25 C28.8166667,32.15 28.15,32.7833333 28.15,34.15 L28.45,35.15 C28.7833333,35.8166667 29.35,36.15 30.15,36.15 C30.75,36.15 31.2666667,35.8833333 31.7,35.35 M32.2,41.1 L32.65,39.95 C32.65,38.7166667 31.9833333,38.0666667 30.65,38 C29.3166667,37.9 28.65,38.5333333 28.65,39.9 L28.9,40.9 C29.2666667,41.5666667 29.85,41.9 30.65,41.9 C31.25,41.9 31.7666667,41.6333333 32.2,41.1 M39.65,41.9 L39.9,42.9 C40.2666667,43.5666667 40.85,43.9 41.65,43.9 C42.25,43.9 42.7666667,43.6333333 43.2,43.1 L43.65,41.95 C43.65,40.7166667 42.9833333,40.0666667 41.65,40 C40.3166667,39.9 39.65,40.5333333 39.65,41.9 M30.4,48.15 C30.7666667,48.8166667 31.35,49.15 32.15,49.15 C32.75,49.15 33.2666667,48.8833333 33.7,48.35 L34.15,47.2 C34.15,45.7666667 33.4833333,45.0833333 32.15,45.15 C30.8166667,45.1833333 30.15,45.85 30.15,47.15 L30.4,48.15 M39.45,47.6 L39.9,46.45 C39.9,45.2166667 39.2333333,44.5666667 37.9,44.5 C36.5666667,44.4 35.9,45.0333333 35.9,46.4 L36.15,47.4 C36.5166667,48.0666667 37.1,48.4 37.9,48.4 C38.5,48.4 39.0166667,48.1333333 39.45,47.6 M25.9,49.9 C26.5,49.9 27.0166667,49.6333333 27.45,49.1 C27.75,48.6666667 27.9,48.2833333 27.9,47.95 C27.9,46.7166667 27.2333333,46.0666667 25.9,46 C24.5666667,45.9 23.9,46.5333333 23.9,47.9 L24.15,48.9 C24.5166667,49.5666667 25.1,49.9 25.9,49.9" id="Shape" fill="#FFCC66" transform="translate(30.925, 33.1) scale(-1, 1) translate(-30.925, -33.1)"></path>
                <path d="M42.85,43.85 L42.85,47 C42.45,47.4333333 41.9166667,47.65 41.25,47.65 C40.3833333,47.65 39.7666667,47.3166667 39.4,46.65 L39.15,45.65 C39.15,44.2166667 39.8666667,43.45 41.3,43.35 C42,43.3166667 42.5166667,43.4833333 42.85,43.85 M9.8,45.05 L11.5,44 L13.15,42.2 C13.3166667,42.5333333 13.4,42.95 13.4,43.45 C13.4,43.9833333 13.2166667,44.4333333 12.85,44.8 C12.4166667,45.2 11.85,45.4 11.15,45.4 C10.6166667,45.4 10.1666667,45.2833333 9.8,45.05 M22.3,27.15 L23.9,26.45 C23.4666667,26.9166667 22.9666667,27.15 22.4,27.15 L22.3,27.15 M32.45,23.8 L34.75,23.2 L35.5,22.9 L35.2,23.35 C34.7666667,23.8833333 34.25,24.15 33.65,24.15 L32.45,23.8 M33.7,32.6 C33.2666667,33.1333333 32.75,33.4 32.15,33.4 C31.35,33.4 30.7666667,33.0666667 30.4,32.4 L30.15,31.4 C30.15,30.0333333 30.8166667,29.4 32.15,29.5 C33.4833333,29.5666667 34.15,30.2166667 34.15,31.45 L33.7,32.6 M22.7,35.35 C22.2666667,35.8833333 21.75,36.15 21.15,36.15 C20.35,36.15 19.7833333,35.8166667 19.45,35.15 L19.15,34.15 C19.15,32.7833333 19.8166667,32.15 21.15,32.25 C22.4833333,32.3166667 23.15,32.9666667 23.15,34.2 L22.7,35.35 M30.65,41.9 C30.65,40.5333333 31.3166667,39.9 32.65,40 C33.9833333,40.0666667 34.65,40.7166667 34.65,41.95 L34.2,43.1 C33.7666667,43.6333333 33.25,43.9 32.65,43.9 C31.85,43.9 31.2666667,43.5666667 30.9,42.9 L30.65,41.9 M21.4,48.15 L21.15,47.15 C21.15,45.85 21.8166667,45.1833333 23.15,45.15 C24.4833333,45.0833333 25.15,45.7666667 25.15,47.2 L24.7,48.35 C24.2666667,48.8833333 23.75,49.15 23.15,49.15 C22.35,49.15 21.7666667,48.8166667 21.4,48.15" id="Shape" fill="#CC9966" transform="translate(26.325, 36.025) scale(-1, 1) translate(-26.325, -36.025)"></path>
                <path d="M54.85,35.5 L54.85,39.55 C54.0833333,39.4166667 53.5333333,39.1166667 53.2,38.65 L52.9,37.65 C52.9,36.55 53.55,35.8333333 54.85,35.5 M26.8,39.7 L27.4,38.6 L27.9,37.7 L27.9,37.8 C27.9,38.3 27.7333333,38.75 27.4,39.15 L26.8,39.7 M39.6,25.25 L40.25,25 L43.35,24.1 L43.4,24.7 L42.95,25.85 C42.5166667,26.3833333 42,26.65 41.4,26.65 C40.6,26.65 40.0333333,26.3166667 39.7,25.65 L39.6,25.25 M52.65,24.75 C53.9833333,24.8166667 54.65,25.5 54.65,26.8 C54.65,27.3 54.4833333,27.7666667 54.15,28.2 C53.75,28.6666667 53.25,28.9 52.65,28.9 C51.75,28.9 51.15,28.5333333 50.85,27.8 L50.65,26.7 C50.65,25.3333333 51.3166667,24.6833333 52.65,24.75 M38.4,37.15 L38.15,36.15 C38.15,34.7833333 38.8166667,34.15 40.15,34.25 C41.4833333,34.3166667 42.15,34.9666667 42.15,36.2 L41.7,37.35 C41.2666667,37.8833333 40.75,38.15 40.15,38.15 C39.35,38.15 38.7666667,37.8166667 38.4,37.15 M35.2,41.1 C34.7666667,41.6333333 34.25,41.9 33.65,41.9 C32.85,41.9 32.2666667,41.5666667 31.9,40.9 L31.65,39.9 C31.65,38.5333333 32.3166667,37.9 33.65,38 C34.9833333,38.0666667 35.65,38.7166667 35.65,39.95 L35.2,41.1 M42.45,47.6 C42.0166667,48.1333333 41.5,48.4 40.9,48.4 C40.1,48.4 39.5166667,48.0666667 39.15,47.4 L38.9,46.4 C38.9,45.0333333 39.5666667,44.4 40.9,44.5 C42.2333333,44.5666667 42.9,45.2166667 42.9,46.45 L42.45,47.6 M9.85,44.65 L10,44.65 L9.85,44.9 L9.85,44.65 M28.9,49.9 C28.1,49.9 27.5166667,49.5666667 27.15,48.9 L26.9,47.9 C26.9,46.5333333 27.5666667,45.9 28.9,46 C30.2333333,46.0666667 30.9,46.7166667 30.9,47.95 C30.9,48.2833333 30.75,48.6666667 30.45,49.1 C30.0166667,49.6333333 29.5,49.9 28.9,49.9" id="Shape" fill="#FFFF66" transform="translate(32.35, 37) scale(-1, 1) translate(-32.35, -37)"></path>
                <path d="M50.85,11.05 C51.35,10.55 51.9,10.2 52.5,10 M43.5,22.9 C45.2666667,22.0666667 46.7666667,20.6833333 48,18.75 C48.3,17.15 48.65,15.7 49.05,14.4 C49.5166667,12.9 50.1166667,11.7833333 50.85,11.05 M50.85,55.15 L11.75,55.15 L9.6,54.6 C9.2,54.3666667 9,53.75 9,52.75 C9,51.2833333 10.3333333,49.7166667 13,48.05 L17.8,45.05 L19.5,44 L21.15,42.2 L22.8,39.7 L23.4,38.6 L23.9,37.7 C24.7666667,36.1 25.3833333,34.7833333 25.75,33.75 C26.5833333,30.6833333 27.75,28.6833333 29.25,27.75 L30.3,27.15 L31.9,26.45 L32.65,26.15 L35.6,25.25 L36.25,25 L39.35,24.1 L40.45,23.8 L42.75,23.2 L43.5,22.9" id="Shape" stroke="#000000" stroke-width="2" stroke-linecap="round" stroke-linejoin="round" transform="translate(30.75, 32.575) scale(-1, 1) translate(-30.75, -32.575)"></path>
            </g>
        </g>
    </g>
</svg>