<?xml version="1.0" encoding="UTF-8"?>
<svg width="217px" height="48px" viewBox="0 0 217 48" version="1.1" xmlns="http://www.w3.org/2000/svg" xmlns:xlink="http://www.w3.org/1999/xlink">
    <title>Group</title>
    <defs>
        <path d="M4.11488577,38.95 C3.71488577,40.65 4.71488577,42.1 7.41488577,42.7 C7.66488577,42.8 7.96488577,42.8 8.26488577,42.8 C10.1648858,42.65 12.4648858,42.55 15.6648858,42.6 C29.6148858,42.7 29.3648858,42.75 32.1648858,42.4 C33.0648858,42.3 33.9148858,42.1 34.7648858,41.95 C41.1648858,40.25 44.9648858,36.8 47.1648858,30.35 C47.7648858,28.85 48.0648858,27.25 48.2148858,25.6 C48.5148858,22.25 48.1148858,18.95 46.9648858,16 C44.5148858,9.4 40.3648858,6 33.5148858,4.6 C31.8648858,4.25 30.4648858,4 26.6148858,4 C23.4148858,4 18.6148858,4 10.7148858,4.4 L8.71488577,4.5 L8.46488577,4.5 C8.26488577,4.55 7.96488577,4.55 7.76488577,4.6 C4.61488577,5.25 3.71488577,6.2 4.11488577,7.9 C4.31488577,8.85 4.56488577,9.25 4.81488577,9.4 C7.86488577,10.9 7.76488577,11.15 8.16488577,17.95 C8.36488577,19.85 8.41488577,22.4 8.36488577,26.65 C8.26488577,35.7 8.36488577,36.25 6.61488577,36.9 C4.56488577,37.7 4.36488577,37.8 4.11488577,38.95 Z M27.5648858,35.9 C21.8148858,37.2 21.3148858,35.75 21.8648858,24.6 C22.0648858,20.5 22.1148858,16.5 21.9648858,12.75 C21.8648858,10.85 22.6648858,10.2 25.9648858,11.15 C29.8648858,12.15 31.2648858,13.8 32.7148858,19.75 C32.9148858,20.6 33.0648858,21.6 33.1148858,22.65 C33.5648858,31 30.8148858,35.2 27.5648858,35.9 Z" id="path-1"></path>
        <path d="M51.7648858,30.6 C51.8648858,32 52.2148858,33.45 52.7648858,34.85 C54.7648858,39.95 58.5648858,42.75 63.9648858,43.4 C68.5148858,44 72.5148858,43 75.3648858,41.1 C78.7148858,38.85 79.5648858,37.25 79.1148858,35.8 C78.8148858,34.95 78.2148858,34.3 77.5148858,34 C76.8148858,33.7 76.5648858,33.7 76.4148858,33.8 C76.2148858,33.95 76.0148858,34.05 75.7648858,34.2 C70.7648858,36.95 67.2648858,36.75 65.0648858,34.25 C64.0648858,33.15 63.7148858,32.6 63.5148858,31.8 C63.2148858,30.9 63.5648858,30.35 64.1648858,30.25 C64.3648858,30.25 64.5648858,30.25 64.7148858,30.35 C72.3148858,31.45 77.3148858,30.7 78.7148858,29.8 C80.4148858,28.7 80.5648858,28.1 80.0648858,24.9 C79.4148858,21.1 76.7648858,17.7 72.5148858,15.9 C70.7148858,15.15 68.8148858,14.65 66.8648858,14.65 C64.3648858,14.7 61.8148858,15.45 59.4648858,16.75 C54.3648858,19.6 51.8148858,23.9 51.7148858,29.15 C51.7148858,29.65 51.7148858,30.1 51.7648858,30.6 Z M66.5648858,25 C63.1148858,25.15 62.8648858,25.1 63.3148858,22.9 C63.3648858,22.5 63.5148858,22.15 63.6648858,21.8 C64.8648858,19.7 67.0648858,19.35 68.6148858,20.65 C68.9648858,21.1 69.2148858,21.45 69.3648858,21.9 C70.1648858,24.05 69.7648858,24.7 68.1148858,24.95 L67.9648858,24.95 L66.5648858,25 Z" id="path-2"></path>
        <path d="M83.8148858,11.6 C84.0648858,12.35 84.5148858,12.85 85.1148858,13.1 C88.5148858,14.45 88.6648858,15.1 88.4148858,25.6 C88.1648858,35.35 87.7648858,36.8 87.0148858,37.15 C86.4648858,37.35 85.9648858,37.6 85.4648858,37.9 C84.4148858,38.5 84.3148858,40.35 85.6148858,41.5 C86.2148858,42.15 87.0148858,42.45 89.3148858,42.8 L91.7648858,43.2 L91.9148858,43.2 C92.3648858,43.25 92.8148858,43.25 93.2648858,43.3 C97.5648858,43.35 100.014886,43 101.264886,42.6 C102.464886,42.2 103.014886,41.8 103.464886,41.3 C104.714886,40 104.414886,38.7 103.864886,38.45 C102.014886,37.5 101.664886,37.05 101.514886,35.65 L101.314886,33.8 L101.314886,33.5 L101.214886,31.75 L101.114886,28.35 L100.914886,22.15 C100.864886,20.45 100.864886,19.2 100.914886,18.2 L101.114886,9.75 L101.164886,8.3 C101.214886,4.7 100.914886,4.35 97.8648858,4.6 L95.3648858,4.8 C94.7148858,4.85 94.0648858,4.95 93.4648858,5.1 C87.2148858,6.55 85.0148858,7.9 84.2148858,9.3 C83.7148858,10.15 83.6148858,10.95 83.8148858,11.6 Z" id="path-3"></path>
        <path d="M107.814886,18.6 C107.764886,19 107.764886,19.35 107.914886,19.75 C108.214886,20.5 108.514886,20.9 108.814886,21 C110.064886,21.5 110.364886,21.75 110.764886,22.25 C110.964886,22.5 111.114886,22.8 111.214886,23.05 C111.314886,23.4 111.364886,23.5 111.314886,23.6 C111.264886,25.2 111.214886,26.8 111.214886,28.35 C111.214886,40.45 113.564886,43.95 121.314886,43.5 C122.964886,43.4 124.464886,42.9 126.414886,41.6 C127.364886,41.05 127.714886,40.75 127.964886,40.45 L128.864886,39.6 C129.514886,39.3 130.164886,39.8 130.314886,41.3 L130.414886,42.85 C130.814886,43.4 131.764886,43.7 136.064886,43.3 C136.814886,43.2 137.564886,43.1 138.314886,42.9 L139.864886,42.5 L140.764886,42.25 C141.114886,42.15 141.414886,42.05 141.764886,41.95 C143.864886,41.1 144.564886,40.6 145.114886,39.7 C145.914886,38.6 145.514886,37.25 144.064886,36.55 L142.514886,35.7 L142.414886,35.65 C142.114886,35.3 142.014886,34.75 142.214886,31.5 C142.314886,30.6 142.314886,29.45 142.314886,25.75 L142.314886,21.7 L142.314886,21.05 L142.364886,18.95 L142.364886,18.6 C142.514886,15.95 142.164886,15.4 139.814886,15.25 C139.464886,15.2 139.164886,15.2 138.864886,15.2 L137.214886,15.3 L134.964886,15.4 C131.614886,15.6 129.714886,16.1 128.864886,16.55 C127.814886,17.2 127.364886,17.7 127.214886,18.25 C126.914886,19.2 127.164886,19.9 127.614886,20.2 C129.414886,21.5 129.864886,22.15 129.964886,23.65 L130.114886,24.6 L130.164886,25.9 C130.514886,33.6 129.814886,35.4 127.864886,36.1 C125.614886,36.9 123.764886,35.55 123.664886,32.6 L123.614886,31.15 L123.614886,30.35 C123.564886,24.15 123.664886,21.15 123.864886,18.8 C124.164886,14.95 123.914886,14.8 116.114886,15.7 C113.514886,16 111.914886,16.25 111.264886,16.45 C108.664886,17.15 108.014886,17.65 107.814886,18.6 Z" id="path-4"></path>
        <path d="M147.314886,41.8 C147.764886,42.85 148.814886,43.5 152.164886,43.55 C152.714886,43.55 153.364886,43.55 154.164886,43.55 C155.314886,43.5 156.214886,43.4 156.864886,43.25 C158.614886,42.9 159.514886,40.95 158.864886,39.95 C157.864886,38.3 157.814886,38.25 158.514886,36.5 C159.714886,33.7 160.614886,33.3 161.164886,33.5 C161.264886,33.55 161.364886,33.65 161.364886,33.75 C161.464886,34.1 161.714886,34.6 162.164886,35.4 L163.114886,37.1 L163.114886,37.15 C163.214886,37.95 162.964886,38.45 162.664886,38.6 C162.514886,38.65 162.414886,38.75 162.264886,38.8 C160.814886,39.6 160.714886,41.35 161.814886,42.3 C162.864886,43.2 164.164886,43.5 170.414886,43.55 C174.064886,43.6 176.564886,43.35 178.014886,42.95 C181.264886,42.1 182.164886,41.05 181.864886,39.6 C181.714886,38.85 181.314886,38.35 180.714886,38.2 C178.864886,37.5 178.464886,37.25 177.414886,35.8 L176.414886,34.55 L176.014886,33.95 L175.564886,33.3 L173.714886,30.75 C172.714886,29.3 172.614886,29.05 172.764886,28.9 C172.964886,28.7 173.264886,28.3 173.914886,27.2 C175.014886,25.35 175.614886,24.45 176.064886,23.8 C177.664886,21.55 178.214886,21.1 178.714886,20.8 C180.764886,19.6 181.064886,19.45 181.514886,18.4 C182.014886,17.35 181.314886,16.15 178.964886,15.6 C178.314886,15.5 177.664886,15.4 176.314886,15.4 C175.464886,15.35 174.764886,15.4 174.164886,15.5 C170.464886,16.15 170.114886,16.8 170.814886,19.6 C171.264886,21.2 171.014886,22.05 169.964886,23.45 C169.414886,24.2 169.314886,24.2 168.864886,23.55 L168.564886,23.1 L168.014886,22.15 C167.314886,21.1 167.264886,20.8 167.414886,20.6 C167.564886,20.4 167.614886,20.25 167.714886,20.05 C168.964886,17.4 168.064886,15.8 164.714886,15.55 L163.064886,15.45 L162.464886,15.4 C161.664886,15.4 160.764886,15.4 159.914886,15.4 C154.864886,15.5 152.064886,15.85 150.814886,16.25 C148.164886,17.1 147.364886,18.7 148.014886,20.05 C148.414886,20.8 148.964886,21.2 149.514886,21.3 C151.714886,21.65 151.164886,21.4 153.114886,23.3 C157.914886,27.9 157.814886,27.75 154.564886,32.3 C153.864886,33.2 153.214886,34.3 152.514886,35.55 C151.064886,38.3 151.014886,38.4 149.064886,38.9 C147.264886,39.4 146.714886,40.5 147.314886,41.8 Z" id="path-5"></path>
        <path d="M183.564886,30.6 C183.664886,32 184.014886,33.45 184.564886,34.85 C186.564886,39.95 190.364886,42.75 195.764886,43.4 C200.314886,44 204.314886,43 207.164886,41.1 C210.514886,38.85 211.364886,37.25 210.914886,35.8 C210.614886,34.95 210.014886,34.3 209.314886,34 C208.614886,33.7 208.364886,33.7 208.214886,33.8 C208.014886,33.95 207.814886,34.05 207.564886,34.2 C202.564886,36.95 199.064886,36.75 196.864886,34.25 C195.864886,33.15 195.514886,32.6 195.314886,31.8 C195.014886,30.9 195.364886,30.35 195.964886,30.25 C196.164886,30.25 196.364886,30.25 196.514886,30.35 C204.114886,31.45 209.114886,30.7 210.514886,29.8 C212.214886,28.7 212.364886,28.1 211.864886,24.9 C211.214886,21.1 208.564886,17.7 204.314886,15.9 C202.514886,15.15 200.614886,14.65 198.664886,14.65 C196.164886,14.7 193.614886,15.45 191.264886,16.75 C186.164886,19.6 183.614886,23.9 183.514886,29.15 C183.514886,29.65 183.514886,30.1 183.564886,30.6 Z M198.364886,25 C194.914886,25.15 194.664886,25.1 195.114886,22.9 C195.164886,22.5 195.314886,22.15 195.464886,21.8 C196.664886,19.7 198.864886,19.35 200.414886,20.65 C200.764886,21.1 201.014886,21.45 201.164886,21.9 C201.964886,24.05 201.564886,24.7 199.914886,24.95 L199.764886,24.95 L198.364886,25 Z" id="path-6"></path>
    </defs>
    <g id="Page-1" stroke="none" stroke-width="1" fill="none" fill-rule="evenodd">
        <g id="Group" transform="translate(0.4351, 0.2)" fill-rule="nonzero">
            <path d="M26.6148858,0 C30.220033,0 31.9327861,0.17540242 34.3158467,0.68101268 C42.5762349,2.3692672 47.8033812,6.76482204 50.6917178,14.5471672 C52.0568778,18.0490993 52.5569645,21.9588681 52.1984586,25.962143 C52.0173631,27.9541938 51.6610041,29.7254202 51.0513889,31.38549 L50.9197747,31.727 L50.8060437,32.0559294 C48.2116136,39.325213 43.5759074,43.6334203 36.2115457,45.7012797 L35.7917762,45.8159405 L35.6274572,45.8595878 L35.4600271,45.8891342 C35.2603446,45.9243723 35.1251052,45.9501847 34.6778773,46.0373071 C33.7469339,46.2186597 33.2511874,46.3039154 32.6610247,46.3691115 C31.9705737,46.4554179 31.6485601,46.4933263 31.2569089,46.5313515 C31.0917207,46.5473896 30.9534956,46.5619831 30.8275556,46.5751822 L30.7452546,46.5837755 L30.6656271,46.5919589 L30.5877067,46.5997358 C30.5232159,46.6060479 30.4594965,46.61194 30.3940319,46.6174205 L30.3144755,46.6238001 L30.2322771,46.6297879 C30.2183035,46.6307534 30.2041795,46.6317028 30.1898851,46.6326359 L30.1019116,46.6380422 C30.041684,46.6415182 29.9780843,46.6447384 29.9098239,46.6477074 L29.8037766,46.6519728 C29.455871,46.6648866 28.9882711,46.6721793 28.2628736,46.6743211 L27.1991619,46.6743221 C25.1634274,46.6698749 21.7273763,46.6434757 15.6023934,46.5995118 C12.8374418,46.5563094 10.6538576,46.623843 8.57969571,46.7875926 L8.42253524,46.8 L8.26488577,46.8 C7.92245667,46.8 7.74940305,46.7963568 7.4746173,46.7724624 C7.12846284,46.742362 6.78977799,46.6861285 6.44729786,46.5899233 L6.33277469,46.554 L6.28096624,46.5424604 C1.96750993,45.4816998 -0.646654444,42.3033758 0.16709773,38.2811453 L0.206180313,38.1002814 L0.210774687,38.084 L0.215774687,38.06 L0.219774687,38.044 L0.221217096,38.0338427 L0.262606493,37.8523604 C0.80276198,35.5863726 1.7337981,34.6458035 4.11148331,33.6061059 L4.23077469,33.554 C4.28095317,32.7725066 4.31128827,31.5054952 4.33599183,29.3508755 L4.3396567,29.0209762 C4.34153873,28.8462288 4.35899332,27.1611677 4.36516256,26.6029444 C4.41459542,22.4011512 4.36194857,20.0320429 4.18686396,18.3687391 L4.17178828,18.1848881 C4.15597015,17.91598 4.10478189,17.0361051 4.09543141,16.8768084 C4.06811742,16.4114818 4.04743405,16.070456 4.02752294,15.7610235 C3.94848483,14.532716 3.87526505,13.8003635 3.80509661,13.3926355 L3.80277469,13.374 L3.72927582,13.3349043 C3.59817033,13.2642624 3.433042,13.1795557 3.21927783,13.0732739 L3.04960715,12.9893999 L2.89993091,12.9157886 L2.75690275,12.8299717 C1.27116812,11.9385309 0.591059726,10.5783141 0.221217096,8.81615733 C-0.834584944,4.32899867 1.96702301,1.71211212 6.95651965,0.682533443 L6.89877469,0.695 L6.95509247,0.681188935 C7.15522183,0.636187219 7.31018746,0.613181618 7.53416449,0.588779851 L7.67577469,0.574 L7.97246327,0.5 L8.61577469,0.5 L10.5126132,0.405117546 C16.7483867,0.0893821802 20.6332748,0.00650238634 25.9434211,0 L26.6148858,0 Z M27.0045327,4.00067487 L25.4014706,4.00067487 C22.2280944,4.00566893 17.6744096,4.04761905 10.7148858,4.4 L8.71488577,4.5 L8.46488577,4.5 C8.26488577,4.55 7.96488577,4.55 7.76488577,4.6 C4.61488577,5.25 3.71488577,6.2 4.11488577,7.9 C4.31488577,8.85 4.56488577,9.25 4.81488577,9.4 C7.86488577,10.9 7.76488577,11.15 8.16488577,17.95 C8.36488577,19.85 8.41488577,22.4 8.36488577,26.65 C8.26488577,35.7 8.36488577,36.25 6.61488577,36.9 C4.56488577,37.7 4.36488577,37.8 4.11488577,38.95 C3.71488577,40.65 4.71488577,42.1 7.41488577,42.7 C7.66488577,42.8 7.96488577,42.8 8.26488577,42.8 C10.1648858,42.65 12.4648858,42.55 15.6648858,42.6 C20.9348858,42.6377778 24.1783179,42.6684198 26.325215,42.6730557 L27.2041913,42.6733537 C29.2114413,42.6696309 30.0820833,42.6318239 31.0146965,42.5356137 L31.1666635,42.5194963 C31.192145,42.5167235 31.2177191,42.513907 31.2434094,42.5110464 L31.3991358,42.49335 C31.4253858,42.4903111 31.4517993,42.4872272 31.4784002,42.4840977 L31.6404413,42.4647704 C31.805108,42.4448889 31.9782191,42.4233333 32.1648858,42.4 C33.0648858,42.3 33.9148858,42.1 34.7648858,41.95 C41.1648858,40.25 44.9648858,36.8 47.1648858,30.35 C47.7648858,28.85 48.0648858,27.25 48.2148858,25.6 C48.5148858,22.25 48.1148858,18.95 46.9648858,16 C44.5148858,9.4 40.3648858,6 33.5148858,4.6 C33.3441961,4.5637931 33.1761818,4.52865636 33.0078539,4.49475583 L32.6698942,4.42865226 C31.3659887,4.18195088 29.9265201,4.01441839 27.0045327,4.00067487 Z M21.9648858,12.75 C21.8648858,10.85 22.6648858,10.2 25.9648858,11.15 C29.8648858,12.15 31.2648858,13.8 32.7148858,19.75 C32.9148858,20.6 33.0648858,21.6 33.1148858,22.65 C33.5648858,31 30.8148858,35.2 27.5648858,35.9 C22.9778071,36.9370787 21.7318786,36.2240311 21.6947706,30.2323596 L21.6944647,29.7133766 C21.7010681,28.295493 21.7660094,26.6044944 21.8648858,24.6 C22.0648858,20.5 22.1148858,16.5 21.9648858,12.75 Z M26.0367747,15.354 L26.0391053,15.4663501 C26.0815728,18.4033452 26.0198667,21.5203904 25.8600283,24.7970698 C25.6750354,28.5473791 25.6577623,30.8420186 25.7548742,32.0884598 L25.7627747,32.186 L25.951925,32.1519695 C26.0976333,32.1242326 26.2541361,32.0923333 26.4221225,32.056098 L26.682801,31.9984713 L26.7226615,31.9896729 C27.1229128,31.9034649 27.6204169,31.4658151 28.1151788,30.4256229 C28.9035457,28.7681526 29.3009542,26.21031 29.1194132,22.8402606 C29.0833962,22.0839026 28.9765697,21.3264061 28.8286211,20.6970729 C27.9193166,16.9657887 27.4812806,15.9443972 26.0712457,15.3679179 L26.0367747,15.354 Z" id="Shape" fill="#000000"></path>
            <path d="M66.8648858,10.65 C69.2611649,10.65 71.6359687,11.2004512 74.0748592,12.2167293 C79.4423647,14.4900258 83.1036869,18.9410449 84.0169339,24.2824925 C84.6557232,28.370744 84.2671702,30.5261746 81.8915989,32.4378948 L81.8258858,32.489 L81.8430309,32.511188 C82.2278336,33.0254379 82.5467038,33.5953368 82.7881459,34.2050315 L82.8868471,34.4687195 L82.9351423,34.6144031 C84.0975333,38.3598851 82.0532814,41.4262629 77.5836866,44.4282012 C73.7478651,46.9854155 68.7232893,48.0621103 63.4868549,47.3713331 C56.5820618,46.5402006 51.5635441,42.7428555 49.0418798,36.3126095 C48.4038542,34.6885444 47.9850354,33.0174547 47.8176811,31.3763448 L47.7848858,30.982 L47.7768858,30.898 L47.7768858,30.895 L47.7558038,30.6622319 C47.7474706,30.5505055 47.7407273,30.4385864 47.7352605,30.3253081 L47.7225201,29.9802267 C47.7184817,29.8267694 47.7165092,29.698662 47.7156112,29.5069163 L47.7156112,29.0738233 C47.8446875,22.2973151 51.2665708,16.7492132 57.5286402,13.2498638 C60.4661424,11.6248626 63.6477691,10.7135424 66.8648858,10.65 Z M66.8648858,14.65 C64.3648858,14.7 61.8148858,15.45 59.4648858,16.75 C54.3648858,19.6 51.8148858,23.9 51.7148858,29.15 C51.7148858,29.65 51.7148858,30.1 51.7648858,30.6 C51.8648858,32 52.2148858,33.45 52.7648858,34.85 C54.7648858,39.95 58.5648858,42.75 63.9648858,43.4 C68.5148858,44 72.5148858,43 75.3648858,41.1 C78.7148858,38.85 79.5648858,37.25 79.1148858,35.8 C78.8148858,34.95 78.2148858,34.3 77.5148858,34 C76.8148858,33.7 76.5648858,33.7 76.4148858,33.8 C76.2148858,33.95 76.0148858,34.05 75.7648858,34.2 C70.7648858,36.95 67.2648858,36.75 65.0648858,34.25 C64.0648858,33.15 63.7148858,32.6 63.5148858,31.8 C63.2148858,30.9 63.5648858,30.35 64.1648858,30.25 C64.3648858,30.25 64.5648858,30.25 64.7148858,30.35 C72.3148858,31.45 77.3148858,30.7 78.7148858,29.8 C80.4148858,28.7 80.5648858,28.1 80.0648858,24.9 C79.4148858,21.1 76.7648858,17.7 72.5148858,15.9 C70.7148858,15.15 68.8148858,14.65 66.8648858,14.65 Z M63.6648858,21.8 C64.8648858,19.7 67.0648858,19.35 68.6148858,20.65 C68.9648858,21.1 69.2148858,21.45 69.3648858,21.9 C70.1648858,24.05 69.7648858,24.7 68.1148858,24.95 L67.9648858,24.95 L66.5648858,25 C63.1148858,25.15 62.8648858,25.1 63.3148858,22.9 C63.3648858,22.5 63.5148858,22.15 63.6648858,21.8 Z M67.1258858,23.794 L67.1238858,23.776 L66.3588858,23.339 L66.0444367,23.7147662 C66.3700616,23.9878709 66.9870985,23.8846856 67.1161995,23.8040217 L67.1338858,23.787 L67.1258858,23.794 Z M66.2868858,22.01 L66.2050157,22.1329729 C66.1314384,22.250762 66.0644537,22.3760067 66.0054282,22.5083669 C65.9762778,22.5737345 65.9501531,22.6377437 65.926835,22.7003231 L65.9078858,22.755 L66.5128858,22.284 L66.4229884,22.1655285 L66.2868858,22.01 Z" id="Shape" fill="#000000"></path>
            <path d="M105.16251,8.4378491 L105.113766,9.84464805 L104.913766,18.294648 L104.909895,18.3997505 C104.866006,19.2775388 104.866006,20.4292671 104.912806,22.0210348 L105.113157,28.2324038 L105.210311,31.5478632 L105.308371,33.2718008 L105.314886,33.3858074 L105.314311,33.5828632 L105.441311,34.7598632 L105.544204,34.8150317 L105.671311,34.8808632 L105.729092,34.9087872 C109.142175,36.6347286 109.05402,41.0844466 106.504156,43.9051804 L106.348218,44.0724349 L106.23541,44.1931654 C105.276977,45.1844189 104.132866,45.8603564 102.483989,46.4096966 C100.511034,47.0410421 97.4471058,47.3489009 93.2183773,47.2997296 L93.020169,47.2974249 L92.8231597,47.2755349 C92.7330413,47.2655218 92.6321969,47.2585187 92.3680057,47.2438414 C92.0941332,47.2286263 91.9143287,47.2174078 91.74048,47.2022405 L91.7183112,47.1998632 L91.4405026,47.2 L91.1203582,47.1477315 L88.7131178,46.7544753 C85.7260373,46.2999196 84.2000993,45.7798645 82.8328066,44.3787446 L82.8133112,44.3568632 L82.7901344,44.336212 C79.8806754,41.577797 79.8454108,36.6965405 83.2053399,34.5906653 L83.4069027,34.4700283 C83.5542959,34.3815924 83.7012346,34.2966856 83.8482323,34.2151691 L83.9663112,34.1518632 L83.9802394,34.0400213 C84.1575331,32.5600915 84.2953251,30.0062983 84.4040568,25.9604849 L84.4160191,25.5047889 C84.4619383,23.576183 84.4874788,22.0751731 84.4914722,20.8972845 L84.4919176,20.4431146 C84.4890805,18.6933863 84.430684,17.735188 84.3119425,17.1405919 L84.3023112,17.0948632 L84.2625142,17.0773513 C84.1398985,17.0231912 83.9658013,16.9491414 83.7273329,16.8528039 L83.5764242,16.7923077 C81.855916,16.0754293 80.6191926,14.662031 80.0201526,12.8649111 L79.9917697,12.7763434 C79.4317839,10.9563895 79.7460838,9.00773012 80.7419132,7.31544425 C82.3851371,4.43980248 85.8496484,2.76049787 92.4947433,1.21943 C93.3091834,1.01581998 94.1786627,0.879431067 95.0459049,0.812738886 L97.5381128,0.613369915 C103.122259,0.155653006 105.245216,2.54397983 105.16251,8.4378491 Z M101.164886,8.3 C101.214886,4.7 100.914886,4.35 97.8648858,4.6 L95.3648858,4.8 C94.7148858,4.85 94.0648858,4.95 93.4648858,5.1 C87.2148858,6.55 85.0148858,7.9 84.2148858,9.3 C83.7148858,10.15 83.6148858,10.95 83.8148858,11.6 C84.0648858,12.35 84.5148858,12.85 85.1148858,13.1 C88.5148858,14.45 88.6648858,15.1 88.4148858,25.6 C88.1648858,35.35 87.7648858,36.8 87.0148858,37.15 C86.4648858,37.35 85.9648858,37.6 85.4648858,37.9 C84.4148858,38.5 84.3148858,40.35 85.6148858,41.5 C86.2148858,42.15 87.0148858,42.45 89.3148858,42.8 L91.7648858,43.2 L91.9148858,43.2 C92.3648858,43.25 92.8148858,43.25 93.2648858,43.3 C97.5648858,43.35 100.014886,43 101.264886,42.6 C102.464886,42.2 103.014886,41.8 103.464886,41.3 C104.714886,40 104.414886,38.7 103.864886,38.45 C102.014886,37.5 101.664886,37.05 101.514886,35.65 L101.314886,33.8 L101.314886,33.5 L101.214886,31.75 L101.114886,28.35 L100.914886,22.15 C100.864886,20.45 100.864886,19.2 100.914886,18.2 L101.114886,9.75 L101.164886,8.3 Z" id="Path" fill="#000000"></path>
            <path d="M138.864886,11.2 L139.119222,11.2010047 C139.503327,11.2044428 139.788028,11.2177377 140.120224,11.256301 L140.227982,11.271 L140.352685,11.2791928 C144.731665,11.652863 146.545504,14.0751091 146.372245,18.5383911 L146.363982,18.703 L146.363752,19.0452111 L146.314886,21.05 L146.314229,27.3062877 C146.311296,29.9793799 146.29642,30.8066889 146.229736,31.553547 L146.215188,31.7075005 C146.212635,31.7331611 146.210018,31.7588708 146.207334,31.784702 L146.200982,31.84 L146.191373,32.0104364 C146.171118,32.353928 146.154936,32.6596029 146.142522,32.9298954 L146.132982,33.118 L146.221435,33.1659827 C149.406731,34.9626604 150.564903,38.777222 148.486877,41.8571217 L148.451982,41.905 L148.393722,41.9991695 C147.353126,43.6037611 146.046038,44.501845 143.592287,45.5237279 L143.265657,45.6577873 L143.068393,45.7376322 L142.86377,45.7960958 C142.751945,45.8280457 142.65984,45.8558511 142.441229,45.923116 C142.17234,46.0058511 142.043612,46.0447124 141.835461,46.1040716 L140.864398,46.3731093 L139.345536,46.7649398 C138.501577,46.9899955 137.886241,47.0925516 136.593541,47.2649116 L136.435379,47.2828049 C131.433139,47.7481296 129.188471,47.5635374 127.534394,45.6507479 L127.513982,45.626 L127.49646,45.6364187 C125.626875,46.715142 123.867421,47.2921253 121.935517,47.464224 L121.546753,47.493274 C110.99237,48.1061092 107.214886,42.4474683 107.214886,28.35 C107.214886,27.2861075 107.230863,26.3857685 107.275142,24.8521577 L107.279982,24.696 L107.0706,24.6098827 C105.699499,24.0032084 104.915194,22.928393 104.275008,21.4114134 L104.169569,21.1544938 C103.777877,20.1099806 103.714271,19.1558903 103.845774,18.1038611 L103.866411,17.9387675 L103.900687,17.7759581 C104.520217,14.8331875 106.40229,13.616726 110.224992,12.587537 L110.158982,12.606 L110.22108,12.5876119 C111.179344,12.3138923 112.782307,12.0639551 115.291709,11.7688385 L115.656389,11.7263643 C121.292452,11.0760493 122.681769,11.0108643 124.532894,11.7628837 C125.351105,12.0952821 126.029506,12.5829209 126.559053,13.1887595 L126.605982,13.246 L126.759467,13.1489394 L126.874141,13.0779512 L126.993335,13.0148483 C128.620934,12.1531782 131.224557,11.616181 134.787283,11.4039448 L136.972906,11.307326 L138.622906,11.207326 L138.743785,11.2 L138.864886,11.2 Z M139.090667,15.2007813 L138.864886,15.2 L137.214886,15.3 L134.964886,15.4 C131.614886,15.6 129.714886,16.1 128.864886,16.55 C127.814886,17.2 127.364886,17.7 127.214886,18.25 C126.914886,19.2 127.164886,19.9 127.614886,20.2 C129.414886,21.5 129.864886,22.15 129.964886,23.65 L130.114886,24.6 L130.164886,25.9 C130.514886,33.6 129.814886,35.4 127.864886,36.1 C125.614886,36.9 123.764886,35.55 123.664886,32.6 L123.614886,31.15 L123.614886,30.35 C123.608307,29.5342105 123.604325,28.7738227 123.602826,28.0630276 L123.602785,26.8359017 C123.611423,22.915651 123.706991,20.6552632 123.864886,18.8 C124.164886,14.95 123.914886,14.8 116.114886,15.7 C113.514886,16 111.914886,16.25 111.264886,16.45 C108.664886,17.15 108.014886,17.65 107.814886,18.6 C107.764886,19 107.764886,19.35 107.914886,19.75 C108.214886,20.5 108.514886,20.9 108.814886,21 C110.064886,21.5 110.364886,21.75 110.764886,22.25 C110.964886,22.5 111.114886,22.8 111.214886,23.05 C111.314886,23.4 111.364886,23.5 111.314886,23.6 C111.264886,25.2 111.214886,26.8 111.214886,28.35 C111.214886,40.45 113.564886,43.95 121.314886,43.5 C122.964886,43.4 124.464886,42.9 126.414886,41.6 C127.364886,41.05 127.714886,40.75 127.964886,40.45 L128.864886,39.6 C129.514886,39.3 130.164886,39.8 130.314886,41.3 L130.414886,42.85 C130.814886,43.4 131.764886,43.7 136.064886,43.3 C136.814886,43.2 137.564886,43.1 138.314886,42.9 L139.864886,42.5 L140.764886,42.25 C141.114886,42.15 141.414886,42.05 141.764886,41.95 C143.864886,41.1 144.564886,40.6 145.114886,39.7 C145.914886,38.6 145.514886,37.25 144.064886,36.55 L142.514886,35.7 L142.414886,35.65 C142.114886,35.3 142.014886,34.75 142.214886,31.5 C142.296136,30.76875 142.31137,29.8724609 142.314227,27.5774658 L142.314886,21.05 L142.364886,18.95 L142.364886,18.6 C142.514886,15.95 142.164886,15.4 139.814886,15.25 C139.464886,15.2 139.164886,15.2 138.864886,15.2 L139.090667,15.2007813 Z" id="Path" fill="#000000"></path>
            <path d="M176.314886,15.4 C175.464886,15.35 174.764886,15.4 174.164886,15.5 C170.464886,16.15 170.114886,16.8 170.814886,19.6 C171.264886,21.2 171.014886,22.05 169.964886,23.45 C169.414886,24.2 169.314886,24.2 168.864886,23.55 L168.564886,23.1 L168.014886,22.15 C167.314886,21.1 167.264886,20.8 167.414886,20.6 C167.564886,20.4 167.614886,20.25 167.714886,20.05 C168.964886,17.4 168.064886,15.8 164.714886,15.55 L163.064886,15.45 L162.464886,15.4 L159.914886,15.4 C154.864886,15.5 152.064886,15.85 150.814886,16.25 C148.164886,17.1 147.364886,18.7 148.014886,20.05 C148.414886,20.8 148.964886,21.2 149.514886,21.3 C151.274886,21.58 151.274886,21.476 152.202886,22.396 L152.599636,22.79175 C152.749886,22.9415 152.919886,23.11 153.114886,23.3 C157.914886,27.9 157.814886,27.75 154.564886,32.3 C153.864886,33.2 153.214886,34.3 152.514886,35.55 C151.064886,38.3 151.014886,38.4 149.064886,38.9 C147.264886,39.4 146.714886,40.5 147.314886,41.8 C147.764886,42.85 148.814886,43.5 152.164886,43.55 L154.164886,43.55 C155.314886,43.5 156.214886,43.4 156.864886,43.25 C158.614886,42.9 159.514886,40.95 158.864886,39.95 C157.864886,38.3 157.814886,38.25 158.514886,36.5 C159.714886,33.7 160.614886,33.3 161.164886,33.5 C161.264886,33.55 161.364886,33.65 161.364886,33.75 C161.464886,34.1 161.714886,34.6 162.164886,35.4 L163.114886,37.1 L163.114886,37.15 C163.214886,37.95 162.964886,38.45 162.664886,38.6 C162.514886,38.65 162.414886,38.75 162.264886,38.8 C160.814886,39.6 160.714886,41.35 161.814886,42.3 C162.864886,43.2 164.164886,43.5 170.414886,43.55 C174.064886,43.6 176.564886,43.35 178.014886,42.95 C181.264886,42.1 182.164886,41.05 181.864886,39.6 C181.714886,38.85 181.314886,38.35 180.714886,38.2 C178.864886,37.5 178.464886,37.25 177.414886,35.8 L176.414886,34.55 L176.014886,33.95 L175.564886,33.3 L173.714886,30.75 C172.714886,29.3 172.614886,29.05 172.764886,28.9 C172.964886,28.7 173.264886,28.3 173.914886,27.2 C175.014886,25.35 175.614886,24.45 176.064886,23.8 C177.664886,21.55 178.214886,21.1 178.714886,20.8 C180.764886,19.6 181.064886,19.45 181.514886,18.4 C182.014886,17.35 181.314886,16.15 178.964886,15.6 C178.314886,15.5 177.664886,15.4 176.314886,15.4 Z M177.390849,29.1793848 L177.447849,29.0843848 L178.853655,31.0231601 L179.343087,31.7311992 L179.647849,32.1873848 L180.538361,33.3012198 L180.654654,33.4539608 C181.163766,34.1570195 180.946651,34.0184394 181.959949,34.3949308 L181.980849,34.4023848 L182.166464,34.4626547 C184.039992,35.1126961 185.282386,36.672112 185.730112,38.5528538 L185.781927,38.7895776 C186.652999,42.9997578 183.906839,45.5435698 179.078602,46.8059705 C177.090895,47.3543035 174.15269,47.6015781 170.382887,47.549872 C164.569745,47.5033669 162.158512,47.2668519 160.268571,46.1129396 L160.196849,46.0683848 L160.046807,46.1727571 C159.392979,46.6088538 158.658132,46.9383875 157.866607,47.1249994 L157.763849,47.1463848 C156.940316,47.3377205 155.95976,47.4576266 154.78735,47.5238675 L154.338635,47.5462246 L154.164886,47.55 L152.105191,47.5495545 C147.632548,47.4827987 144.926796,46.3821537 143.638306,43.3756772 L143.587554,43.2604491 C142.035142,39.5957474 144.092357,36.1298202 148.071384,35.0253445 C148.123551,35.0119685 148.171492,34.9996002 148.215742,34.9880954 L148.286849,34.9683848 L148.312114,34.92463 C148.435103,34.702755 148.614061,34.3702903 148.874904,33.8769888 L148.976609,33.6843634 L149.024862,33.5955865 C149.90027,32.0323578 150.536786,30.9959422 151.243101,30.0589069 L151.348849,29.9193848 L151.45282,29.7749822 C151.958187,29.0670824 152.263249,28.6372082 152.466485,28.341279 L152.497849,28.2943848 L152.478698,28.2742136 C152.144412,27.9221466 151.663325,27.4513004 150.715534,26.5410717 L150.323427,26.1649184 C150.202681,26.047269 150.026076,25.8726822 149.850841,25.698869 L149.64488,25.494358 L149.59617,25.4459433 L149.493849,25.3433848 L149.479709,25.3416985 C149.245107,25.305195 148.989962,25.2658351 148.860656,25.2453395 L148.799344,25.2354796 C146.937856,24.8970272 145.411356,23.6683808 144.485474,21.9323529 L144.410879,21.7852625 C142.477087,17.7689243 145.059473,13.8953453 149.595783,12.4403034 C151.476684,11.8384149 154.834428,11.499819 159.914886,11.4 L162.631264,11.4 L162.797068,11.413817 L163.306866,11.457326 L165.012565,11.561092 C166.674516,11.6851182 168.093192,12.1141413 169.221714,12.7845067 L169.390849,12.8893848 L169.440852,12.8604662 C170.433467,12.31001 171.685122,11.8991333 173.200662,11.6105216 L173.50729,11.5544243 C174.460584,11.395542 175.461283,11.3428736 176.549774,11.4069025 L176.396849,11.4003848 L176.703002,11.4020769 C177.695015,11.4132687 178.365104,11.4706083 179.236067,11.5961816 L179.573115,11.6465132 L179.725904,11.6700193 L179.876424,11.7052473 C184.135541,12.702062 186.908637,16.0379181 185.224496,19.9043956 L185.175849,20.0093848 L185.106977,20.1681475 L185.021558,20.3526764 C184.627409,21.1803155 184.143961,21.8525844 183.453483,22.464346 C182.829735,23.016985 182.584591,23.1697231 180.772869,24.2299717 C180.709707,24.2678689 180.412778,24.5879949 179.353655,26.0768399 C178.834622,26.8265537 178.319279,27.6282391 177.53164,28.9447574 L177.390849,29.1793848 Z" id="Path" fill="#000000"></path>
            <path d="M198.664886,10.65 C201.061165,10.65 203.435969,11.2004512 205.874859,12.2167293 C211.242365,14.4900258 214.903687,18.9410449 215.816934,24.2824925 C216.455723,28.370744 216.06717,30.5261746 213.691599,32.4378948 L213.625886,32.489 L213.643031,32.511188 C214.027834,33.0254379 214.346704,33.5953368 214.588146,34.2050315 L214.686847,34.4687195 L214.735142,34.6144031 C215.897533,38.3598851 213.853281,41.4262629 209.383687,44.4282012 C205.547865,46.9854155 200.523289,48.0621103 195.286855,47.3713331 C188.382062,46.5402006 183.363544,42.7428555 180.84188,36.3126095 C180.203854,34.6885444 179.785035,33.0174547 179.617681,31.3763448 L179.584886,30.982 L179.576886,30.898 L179.576886,30.895 L179.555804,30.6622319 C179.547471,30.5505055 179.540727,30.4385864 179.53526,30.3253081 L179.52252,29.9802267 C179.518482,29.8267694 179.516509,29.698662 179.515611,29.5069163 L179.515611,29.0738233 C179.644688,22.2973151 183.066571,16.7492132 189.32864,13.2498638 C192.266142,11.6248626 195.447769,10.7135424 198.664886,10.65 Z M198.664886,14.65 C196.164886,14.7 193.614886,15.45 191.264886,16.75 C186.164886,19.6 183.614886,23.9 183.514886,29.15 C183.514886,29.65 183.514886,30.1 183.564886,30.6 C183.664886,32 184.014886,33.45 184.564886,34.85 C186.564886,39.95 190.364886,42.75 195.764886,43.4 C200.314886,44 204.314886,43 207.164886,41.1 C210.514886,38.85 211.364886,37.25 210.914886,35.8 C210.614886,34.95 210.014886,34.3 209.314886,34 C208.614886,33.7 208.364886,33.7 208.214886,33.8 C208.014886,33.95 207.814886,34.05 207.564886,34.2 C202.564886,36.95 199.064886,36.75 196.864886,34.25 C195.864886,33.15 195.514886,32.6 195.314886,31.8 C195.014886,30.9 195.364886,30.35 195.964886,30.25 C196.164886,30.25 196.364886,30.25 196.514886,30.35 C204.114886,31.45 209.114886,30.7 210.514886,29.8 C212.214886,28.7 212.364886,28.1 211.864886,24.9 C211.214886,21.1 208.564886,17.7 204.314886,15.9 C202.514886,15.15 200.614886,14.65 198.664886,14.65 Z M195.464886,21.8 C196.664886,19.7 198.864886,19.35 200.414886,20.65 C200.764886,21.1 201.014886,21.45 201.164886,21.9 C201.964886,24.05 201.564886,24.7 199.914886,24.95 L199.764886,24.95 L198.364886,25 C194.914886,25.15 194.664886,25.1 195.114886,22.9 C195.164886,22.5 195.314886,22.15 195.464886,21.8 Z M198.925886,23.794 L198.923886,23.776 L198.157886,23.339 L197.844437,23.7147662 C198.170062,23.9878709 198.787099,23.8846856 198.916199,23.8040217 L198.933886,23.787 L198.925886,23.794 Z M198.086886,22.01 L198.005016,22.1329729 C197.931438,22.250762 197.864454,22.3760067 197.805428,22.5083669 C197.776278,22.5737345 197.750153,22.6377437 197.726835,22.7003231 L197.707886,22.755 L198.312886,22.284 L198.222988,22.1655285 L198.086886,22.01 Z" id="Shape" fill="#000000"></path>
            <g id="Shape">
                <use fill="#000000" xlink:href="#path-1"></use>
                <use fill="#FFFFFF" xlink:href="#path-1"></use>
            </g>
            <g id="Shape">
                <use fill="#000000" xlink:href="#path-2"></use>
                <use fill="#FFFFFF" xlink:href="#path-2"></use>
            </g>
            <g id="Path">
                <use fill="#000000" xlink:href="#path-3"></use>
                <use fill="#FFFFFF" xlink:href="#path-3"></use>
            </g>
            <g id="Path">
                <use fill="#000000" xlink:href="#path-4"></use>
                <use fill="#FFFFFF" xlink:href="#path-4"></use>
            </g>
            <g id="Path">
                <use fill="#000000" xlink:href="#path-5"></use>
                <use fill="#FFFFFF" xlink:href="#path-5"></use>
            </g>
            <g id="Shape">
                <use fill="#000000" xlink:href="#path-6"></use>
                <use fill="#FFFFFF" xlink:href="#path-6"></use>
            </g>
        </g>
    </g>
</svg>