<?xml version="1.0" encoding="UTF-8"?>
<svg width="406px" height="164px" viewBox="0 0 406 164" version="1.1" xmlns="http://www.w3.org/2000/svg" xmlns:xlink="http://www.w3.org/1999/xlink">
    <title>Group 10</title>
    <defs>
        <linearGradient x1="50.1079914%" y1="102.555912%" x2="50.1079914%" y2="-59.490219%" id="linearGradient-1">
            <stop stop-color="#FFFFFF" offset="0%"></stop>
            <stop stop-color="#9DA4B8" offset="100%"></stop>
        </linearGradient>
        <linearGradient x1="49.8920086%" y1="102.45296%" x2="49.8920086%" y2="-53.0659194%" id="linearGradient-2">
            <stop stop-color="#FFFFFF" offset="0%"></stop>
            <stop stop-color="#9DA4B8" offset="100%"></stop>
        </linearGradient>
        <linearGradient x1="49.9515034%" y1="102.632782%" x2="49.9515034%" y2="-64.2869173%" id="linearGradient-3">
            <stop stop-color="#FFFFFF" offset="0%"></stop>
            <stop stop-color="#9DA4B8" offset="100%"></stop>
        </linearGradient>
        <linearGradient x1="50.0457457%" y1="102.144931%" x2="50.0457457%" y2="-33.8447779%" id="linearGradient-4">
            <stop stop-color="#FFFFFF" offset="0%"></stop>
            <stop stop-color="#9DA4B8" offset="100%"></stop>
        </linearGradient>
        <linearGradient x1="49.9552372%" y1="0.11646744%" x2="49.9552372%" y2="99.7943265%" id="linearGradient-5">
            <stop stop-color="#FFFFFF" offset="0%"></stop>
            <stop stop-color="#DEDEDE" offset="100%"></stop>
        </linearGradient>
        <path d="M67,0 L67,81 L40.8668981,81 L40.8668981,59.1103239 L22.6435185,34.4331984 L25.5127315,43.861336 L25.3576389,72.3097166 L25.5127315,77.0647773 C25.564429,78.1032389 25.7712191,78.9777328 26.1331019,79.6882591 L26.5208333,80.5080972 L26.8310185,81 L0,81 L0,79.6062753 L0,0 L26.1331019,0 L41.1770833,20.9878543 L41.1770833,0 L67,0 M118.703673,0 C130.596943,0.0547497393 139.47828,3.66823253 145.347686,10.8404484 C151.217092,18.0126642 154.100309,26.3346246 153.997337,35.8063295 L153.920108,39.0091892 L153.611192,42.2941736 C152.015125,53.6821193 147.94773,63.6465719 141.409006,72.1875312 C134.818796,80.7832403 126.091916,85.0537199 115.228367,84.99949 C104.519276,84.8894707 95.9211109,80.5642413 89.4338729,72.023282 C82.9981209,63.5370724 79.0336976,53.6273696 77.5406032,42.2941736 L77.5406032,42.1299244 L77.077229,38.0236939 L77,33.9995881 C77,24.363634 79.9347029,16.5070464 85.8041087,10.4298253 C91.7250006,4.29785453 101.739031,0.848620959 115.846199,0.0821246089 L116.618489,0.0821246089 L117.236322,0 L118.008612,0 L118.703673,0 M113.785323,24.5732314 L113.785323,24.4913785 L113.633282,24.5732314 L113.481242,24.5732314 C110.034993,24.5732314 107.247587,26.0465834 105.119022,28.9932874 C102.889096,31.9399914 101.748793,35.1322541 101.698113,38.5700755 L101.698113,38.7337812 L101.698113,38.897487 L101.926174,41.2712208 L102.458315,43.5631017 L102.914436,44.9546008 L103.294537,46.3461 C104.51086,49.9476271 106.005924,53.1944584 107.779728,56.0865938 C109.553532,59.0878664 112.188899,60.5612184 115.685827,60.5066499 C119.436156,60.3975127 122.122203,58.6513177 123.743967,55.2680649 C125.31505,51.8848122 126.480693,48.1195792 127.240895,43.9723662 L127.392935,42.8264257 L127.620996,41.5167795 L127.849057,40.0434275 L127.849057,38.4882226 C127.849057,34.7229897 126.708754,31.4761584 124.428148,28.7477287 C122.096863,26.0192991 118.549254,24.6278 113.785323,24.5732314" id="path-6"></path>
        <linearGradient x1="50%" y1="0%" x2="50%" y2="100%" id="linearGradient-8">
            <stop stop-color="#BFC4D0" offset="0%"></stop>
            <stop stop-color="#FFFFFF" offset="100%"></stop>
        </linearGradient>
    </defs>
    <g id="Page-1" stroke="none" stroke-width="1" fill="none" fill-rule="evenodd">
        <g id="Group-10" transform="translate(0.7929, 4)">
            <path d="M264.007148,22.45 L264.357148,24.15 L264.357148,82.2 C264.357148,83.5666667 263.840481,84.7333333 262.807148,85.7 C261.707148,86.6666667 260.490481,87.15 259.157148,87.15 L233.607148,87.15 C232.207148,87.15 230.973815,86.6666667 229.907148,85.7 C228.907148,84.7666667 228.407148,83.6 228.407148,82.2 L228.407148,24.15 C228.407148,23.5833333 228.507148,23.0166667 228.707148,22.45 C228.507148,21.8833333 228.407148,21.35 228.407148,20.85 L228.407148,5.2 C228.407148,3.8 228.907148,2.65 229.907148,1.75 C230.873815,0.75 232.107148,0.25 233.607148,0.25 L259.157148,0.25 C260.590481,0.25 261.807148,0.75 262.807148,1.75 C263.840481,2.68333333 264.357148,3.83333333 264.357148,5.2 L264.357148,20.85 L264.007148,22.45" id="Path" fill="#000000"></path>
            <path d="M309.607148,1.75 C310.640481,2.68333333 311.157148,3.83333333 311.157148,5.2 L311.157148,23.7 C311.157148,25 310.640481,26.1666667 309.607148,27.2 C308.640481,28.1333333 307.423815,28.6 305.957148,28.6 L303.907148,28.6 L303.907148,45 C303.907148,46.4 303.407148,47.5666667 302.407148,48.5 C301.373815,49.4333333 300.157148,49.9 298.757148,49.9 L297.007148,49.9 L297.007148,82.2 C297.007148,83.5333333 296.507148,84.7 295.507148,85.7 C294.440481,86.6666667 293.207148,87.15 291.807148,87.15 L266.257148,87.15 C264.857148,87.15 263.623815,86.6666667 262.557148,85.7 C261.557148,84.7666667 261.057148,83.6 261.057148,82.2 L261.057148,49.85 C259.923815,49.6166667 259.007148,49.1666667 258.307148,48.5 C257.307148,47.5666667 256.807148,46.4 256.807148,45 L256.807148,28.05 C256.807148,26.6166667 257.307148,25.45 258.307148,24.55 C259.007148,23.85 259.923815,23.3833333 261.057148,23.15 C261.190481,18.7166667 261.957148,14.9833333 263.357148,11.95 C264.923815,8.51666667 267.290481,5.86666667 270.457148,4 C273.190481,2.36666667 276.407148,1.25 280.107148,0.65 L290.707148,0 L305.957148,0.25 C307.490481,0.25 308.707148,0.75 309.607148,1.75" id="Path" fill="#000000"></path>
            <path d="M201.207148,0.25 C202.707148,0.25 203.907148,0.75 204.807148,1.75 C205.840481,2.68333333 206.357148,3.83333333 206.357148,5.2 L206.357148,53.35 L229.607148,53.35 C231.040481,53.35 232.257148,53.85 233.257148,54.85 C234.290481,55.7833333 234.807148,56.95 234.807148,58.35 L234.807148,82.2 C234.807148,83.5666667 234.290481,84.7333333 233.257148,85.7 C232.257148,86.6666667 231.040481,87.15 229.607148,87.15 L175.607148,87.15 C174.207148,87.15 172.973815,86.6666667 171.907148,85.7 C170.907148,84.7666667 170.407148,83.6 170.407148,82.2 L170.407148,5.2 C170.407148,3.8 170.907148,2.65 171.907148,1.75 C172.907148,0.75 174.140481,0.25 175.607148,0.25 L201.207148,0.25" id="Path" fill="#000000"></path>
            <path d="M349.257148,20.5 C354.690481,21.7666667 358.857148,24 361.757148,27.2 C364.090481,29.7333333 365.490481,32.8666667 365.957148,36.6 L366.207148,40.7 C366.207148,47 364.440481,52.75 360.907148,57.95 L361.457148,58.4 C362.457148,59.3333333 362.957148,60.5 362.957148,61.9 L362.957148,82.05 C362.957148,83.4166667 362.457148,84.5833333 361.457148,85.55 C360.490481,86.5166667 359.290481,87 357.857148,87 L334.207148,87.15 C330.673815,87.1166667 327.023815,86.5 323.257148,85.3 C318.890481,83.8666667 314.907148,81.7833333 311.307148,79.05 C307.140481,75.8833333 303.873815,71.95 301.507148,67.25 C298.773815,61.9166667 297.423815,55.9833333 297.456546,49.45 C297.456546,42.9166667 298.590481,37.4166667 300.857148,32.95 C302.890481,28.8166667 305.907148,25.6333333 309.907148,23.4 C313.040481,21.7333333 316.707148,20.6 320.907148,20 L330.357148,19.35 L335.907148,19.2 C341.040481,19.2 345.490481,19.6333333 349.257148,20.5" id="Path" fill="#000000"></path>
            <polyline id="Path" fill="#FFFFFF" points="259.157148 20.85 233.607148 20.85 233.607148 5.2 259.157148 5.2 259.157148 20.85"></polyline>
            <polyline id="Path" fill="#FFFFFF" points="259.157148 82.2 233.607148 82.2 233.607148 24.15 259.157148 24.15 259.157148 82.2"></polyline>
            <path d="M305.957148,5.2 L305.957148,23.7 L294.657148,24.05 C292.757148,24.4166667 291.807148,25.4333333 291.807148,27.1 L291.807148,28.05 L298.757148,28.05 L298.757148,45 L291.807148,45 L291.807148,82.2 L266.257148,82.2 L266.257148,45 L262.007148,45 L262.007148,28.05 L266.257148,28.05 L266.257148,24.15 C266.257148,14.1833333 270.273815,8.16666667 278.307148,6.1 C281.373815,5.3 285.623815,4.9 291.057148,4.9 L305.957148,5.2" id="Path" fill="#FFFFFF"></path>
            <polyline id="Path" fill="#FFFFFF" points="201.207148 58.35 229.607148 58.35 229.607148 82.2 175.607148 82.2 175.607148 5.2 201.207148 5.2 201.207148 58.35"></polyline>
            <path d="M335.857148,50.25 C337.623815,46.2166667 336.623815,44.2 332.857148,44.2 C328.657148,44.2 326.590481,46.3666667 326.657148,50.7 C326.757148,52.8 327.240481,54.9333333 328.107148,57.1 C331.473815,56.5 334.057148,54.2166667 335.857148,50.25 M349.207148,25.55 C356.207148,27.5166667 360.057148,31.4 360.757148,37.2 C361.623815,44.2333333 360.073815,50.4666667 356.107148,55.9 C354.840481,57.6333333 353.407148,59.15 351.807148,60.45 L349.807148,61.9 L357.757148,61.9 L357.757148,82.05 L334.257148,82.2 C327.223815,82.2 320.673815,79.85 314.607148,75.15 C306.640481,69.05 302.657148,60.4833333 302.657148,49.45 C302.657148,38.65 305.940481,31.4 312.507148,27.7 C316.040481,25.7666667 322.090481,24.6166667 330.657148,24.25 C338.623815,23.9166667 344.807148,24.35 349.207148,25.55" id="Shape" fill="#FFFFFF"></path>
            <polyline id="Path" fill="url(#linearGradient-1)" points="257.907148 53.55 257.907148 80.95 234.757148 80.95 234.757148 54.05 257.907148 53.55"></polyline>
            <polyline id="Path" fill="url(#linearGradient-2)" points="267.457148 53.2 290.607148 52.4 290.607148 80.95 267.457148 80.95 267.457148 53.2"></polyline>
            <polyline id="Path" fill="url(#linearGradient-3)" points="176.857148 80.95 176.857148 54.35 199.957148 54.4 199.957148 59.6 228.407148 59.6 228.407148 80.95 176.857148 80.95"></polyline>
            <path d="M356.607148,63.15 L356.607148,80.8 L334.257148,80.95 C328.257148,80.95 322.423815,79.05 316.757148,75.25 C308.790481,69.9166667 304.523815,62.0833333 303.957148,51.75 L325.507148,50.55 C325.507148,52.85 326.007148,55.1833333 327.007148,57.55 L327.407148,58.55 L328.357148,58.35 C330.323815,57.95 332.173815,56.8833333 333.907148,55.15 C335.540481,53.5166667 336.673815,51.7333333 337.307148,49.8 L358.607148,48.3 C357.507148,51.8 355.657148,54.9166667 353.057148,57.65 C351.490481,59.2833333 350.190481,60.3666667 349.157148,60.9 L345.357148,63.15 L356.607148,63.15" id="Path" fill="url(#linearGradient-4)"></path>
            <g id="Group-8" transform="translate(6.2071, 2)">
                <mask id="mask-7" fill="white">
                    <use xlink:href="#path-6"></use>
                </mask>
                <use id="Path-Copy-15" stroke="#000000" stroke-width="11" fill="url(#linearGradient-5)" stroke-linecap="round" stroke-linejoin="round" xlink:href="#path-6"></use>
                <rect id="Rectangle" fill="#FFFFFF" mask="url(#mask-7)" x="-19" y="-9" width="183" height="94"></rect>
                <path d="M152.75,52.35 L-18.75,38 C-23.95,81.4333333 -26.55,103.333333 -26.55,103.7 C-26.55,104.25 162.75,100.15 164.2,100.15 C165.166667,100.15 161.35,84.2166667 152.75,52.35 Z" id="Path-12" fill="url(#linearGradient-8)" mask="url(#mask-7)"></path>
            </g>
            <path d="M18.626,120.957 C24.656,128.595 34.505,140.32 34.505,140.32 C31.624,142.866 27.872,146.35 27.872,146.35 C20.301,136.635 12.596,127.188 12.596,127.188 C11.055,128.93 8.643,131.945 8.643,131.945 C8.509,137.573 8.643,142.33 8.643,142.33 C5.226,142.464 0,142.531 0,142.531 C0.536,121.694 0.804,94.358 0.804,94.358 C5.159,94.559 10.586,94.693 10.586,94.693 C9.983,105.614 9.179,119.55 9.179,119.55 C17.487,108.227 26.465,95.43 26.465,95.43 C29.882,97.373 34.572,100.656 34.572,100.656 C27.537,109.433 18.626,120.957 18.626,120.957 Z" id="Path" fill="#FA6400" fill-rule="nonzero"></path>
            <path d="M34.3834074,120.957 C35.9914074,114.391 41.0834074,109.634 49.0564074,109.634 C57.8334074,109.634 63.7964074,114.726 63.9974074,125.178 C64.1314074,132.682 64.1984074,142.397 64.1984074,142.397 C64.1984074,142.397 60.5134074,142.531 56.7614074,142.531 C56.7614074,142.531 56.6274074,140.856 56.4264074,139.248 C53.3444074,143.469 48.8554074,144.742 45.5724074,144.742 C40.7484074,144.742 34.1824074,142.263 34.1824074,134.893 C34.1824074,125.915 46.0414074,122.967 55.1534074,122.967 C54.8184074,119.617 53.3444074,116.87 49.2574074,116.87 C45.9744074,116.87 43.7634074,119.081 42.8924074,122.096 C42.8924074,122.096 39.2074074,121.493 34.3834074,120.957 Z M56.0244074,128.461 C55.3544074,128.394 54.7514074,128.394 54.0814074,128.394 C48.1184074,128.394 43.2944074,131.074 43.2944074,134.357 C43.2944074,136.836 45.5054074,137.841 47.3144074,137.841 C51.0664074,137.841 56.0244074,134.424 56.0244074,128.461 Z" id="Shape" fill="#FA6400" fill-rule="nonzero"></path>
            <path d="M87.8618148,118.679 C80.3578148,118.947 76.8068148,121.493 76.7398148,131.476 C76.6728148,136.635 76.7398148,143.469 76.7398148,143.469 C73.3228148,143.67 68.0968148,143.737 68.0968148,143.737 C68.0298148,131.409 67.4268148,110.036 67.4268148,110.036 C70.5088148,110.036 75.2658148,110.17 75.2658148,110.17 C75.0648148,113.051 74.8638148,116.334 74.8638148,116.334 C77.5438148,112.582 82.0328148,110.438 87.6608148,110.371 C87.7278148,113.721 87.8618148,118.679 87.8618148,118.679 Z" id="Path" fill="#FA6400" fill-rule="nonzero"></path>
            <path d="M90.4872222,109.835 C90.4872222,109.835 93.5692222,109.768 98.5272222,109.634 C98.5272222,109.634 98.5272222,111.51 98.5942222,113.788 C100.872222,111.242 104.222222,109.299 107.907222,109.299 C112.597222,109.299 114.942222,111.711 116.751222,114.927 C119.096222,112.515 122.312222,110.706 126.265222,110.706 C133.099222,110.706 138.057222,114.994 138.057222,123.235 C138.057222,130.069 137.588222,137.774 137.119222,142.531 C137.119222,142.531 133.032222,142.196 128.476222,142.196 C128.945222,137.506 129.414222,132.213 129.414222,125.714 C129.414222,120.22 127.806222,117.741 124.456222,117.741 C118.761222,117.741 118.493222,125.982 118.627222,140.521 C118.627222,140.521 114.473222,140.521 110.185222,140.454 C110.453222,134.96 110.587222,130.672 110.587222,124.106 C110.587222,120.555 109.448222,116.535 106.165222,116.535 C99.0632222,116.535 99.6662222,129.466 99.6662222,134.223 C99.6662222,137.841 99.7332222,141.191 99.9342222,144.206 C99.9342222,144.206 95.3112222,144.407 91.1572222,144.675 C91.1572222,144.675 90.9562222,128.327 90.4872222,109.835 Z" id="Path" fill="#FA6400" fill-rule="nonzero"></path>
            <path d="M140.68263,120.957 C142.29063,114.391 147.38263,109.634 155.35563,109.634 C164.13263,109.634 170.09563,114.726 170.29663,125.178 C170.43063,132.682 170.49763,142.397 170.49763,142.397 C170.49763,142.397 166.81263,142.531 163.06063,142.531 C163.06063,142.531 162.92663,140.856 162.72563,139.248 C159.64363,143.469 155.15463,144.742 151.87163,144.742 C147.04763,144.742 140.48163,142.263 140.48163,134.893 C140.48163,125.915 152.34063,122.967 161.45263,122.967 C161.11763,119.617 159.64363,116.87 155.55663,116.87 C152.27363,116.87 150.06263,119.081 149.19163,122.096 C149.19163,122.096 145.50663,121.493 140.68263,120.957 Z M162.32363,128.461 C161.65363,128.394 161.05063,128.394 160.38063,128.394 C154.41763,128.394 149.59363,131.074 149.59363,134.357 C149.59363,136.836 151.80463,137.841 153.61363,137.841 C157.36563,137.841 162.32363,134.424 162.32363,128.461 Z" id="Shape" fill="#FA6400" fill-rule="nonzero"></path>
            <path d="M187.808444,96.1 C204.759444,96.033 217.221444,95.765 217.221444,95.765 C217.087444,100.187 217.087444,104.341 217.087444,104.341 C205.362444,104.408 196.049444,104.743 196.049444,104.743 C195.781444,111.644 195.714444,119.751 195.714444,119.751 C204.223444,119.885 211.928444,119.684 211.928444,119.684 C211.928444,122.364 211.995444,127.456 212.062444,127.858 C203.285444,127.925 196.250444,128.394 196.250444,128.394 C196.049444,134.156 195.982444,143.469 195.982444,143.469 C193.905444,143.469 186.468444,143.469 186.870444,143.402 C187.339444,124.307 187.808444,96.1 187.808444,96.1 Z" id="Path" fill="#FA6400" fill-rule="nonzero"></path>
            <path d="M214.687852,120.957 C216.295852,114.391 221.387852,109.634 229.360852,109.634 C238.137852,109.634 244.100852,114.726 244.301852,125.178 C244.435852,132.682 244.502852,142.397 244.502852,142.397 C244.502852,142.397 240.817852,142.531 237.065852,142.531 C237.065852,142.531 236.931852,140.856 236.730852,139.248 C233.648852,143.469 229.159852,144.742 225.876852,144.742 C221.052852,144.742 214.486852,142.263 214.486852,134.893 C214.486852,125.915 226.345852,122.967 235.457852,122.967 C235.122852,119.617 233.648852,116.87 229.561852,116.87 C226.278852,116.87 224.067852,119.081 223.196852,122.096 C223.196852,122.096 219.511852,121.493 214.687852,120.957 Z M236.328852,128.461 C235.658852,128.394 235.055852,128.394 234.385852,128.394 C228.422852,128.394 223.598852,131.074 223.598852,134.357 C223.598852,136.836 225.809852,137.841 227.618852,137.841 C231.370852,137.841 236.328852,134.424 236.328852,128.461 Z" id="Shape" fill="#FA6400" fill-rule="nonzero"></path>
            <path d="M268.166259,118.679 C260.662259,118.947 257.111259,121.493 257.044259,131.476 C256.977259,136.635 257.044259,143.469 257.044259,143.469 C253.627259,143.67 248.401259,143.737 248.401259,143.737 C248.334259,131.409 247.731259,110.036 247.731259,110.036 C250.813259,110.036 255.570259,110.17 255.570259,110.17 C255.369259,113.051 255.168259,116.334 255.168259,116.334 C257.848259,112.582 262.337259,110.438 267.965259,110.371 C268.032259,113.721 268.166259,118.679 268.166259,118.679 Z" id="Path" fill="#FA6400" fill-rule="nonzero"></path>
            <path d="M270.791667,109.835 C270.791667,109.835 273.873667,109.768 278.831667,109.634 C278.831667,109.634 278.831667,111.51 278.898667,113.788 C281.176667,111.242 284.526667,109.299 288.211667,109.299 C292.901667,109.299 295.246667,111.711 297.055667,114.927 C299.400667,112.515 302.616667,110.706 306.569667,110.706 C313.403667,110.706 318.361667,114.994 318.361667,123.235 C318.361667,130.069 317.892667,137.774 317.423667,142.531 C317.423667,142.531 313.336667,142.196 308.780667,142.196 C309.249667,137.506 309.718667,132.213 309.718667,125.714 C309.718667,120.22 308.110667,117.741 304.760667,117.741 C299.065667,117.741 298.797667,125.982 298.931667,140.521 C298.931667,140.521 294.777667,140.521 290.489667,140.454 C290.757667,134.96 290.891667,130.672 290.891667,124.106 C290.891667,120.555 289.752667,116.535 286.469667,116.535 C279.367667,116.535 279.970667,129.466 279.970667,134.223 C279.970667,137.841 280.037667,141.191 280.238667,144.206 C280.238667,144.206 275.615667,144.407 271.461667,144.675 C271.461667,144.675 271.260667,128.327 270.791667,109.835 Z" id="Path" fill="#FA6400" fill-rule="nonzero"></path>
            <path d="M322.863074,110.036 C322.863074,110.036 327.084074,110.17 331.774074,110.17 C331.774074,110.17 331.506074,123.168 331.439074,143.268 C331.439074,143.268 326.548074,143.402 322.595074,143.402 C322.595074,143.402 322.863074,123.101 322.863074,110.036 Z M327.285074,92.616 C330.635074,92.616 333.181074,95.296 333.181074,98.713 C333.181074,102.666 330.568074,105.145 327.151074,105.145 C323.600074,105.145 320.920074,102.8 320.920074,98.847 C320.920074,95.095 323.801074,92.616 327.285074,92.616 Z" id="Shape" fill="#FA6400" fill-rule="nonzero"></path>
            <path d="M357.983481,141.727 C358.251481,133.486 358.251481,130.203 358.117481,124.441 C357.983481,119.885 356.375481,117.54 353.226481,117.607 C348.201481,117.741 345.454481,122.498 345.320481,128.595 C345.186481,133.687 345.320481,139.181 345.521481,144.809 C342.037481,144.675 339.491481,144.675 336.811481,144.675 C336.610481,129.265 336.074481,110.304 336.074481,110.304 C339.759481,110.371 343.645481,110.438 343.645481,110.438 C343.511481,112.85 343.444481,115.262 343.444481,115.262 C345.923481,112.314 350.144481,110.036 354.298481,110.036 C361.467481,110.036 366.961481,114.056 366.961481,124.575 C366.961481,132.012 366.693481,141.861 366.693481,141.861 C362.740481,141.861 357.983481,141.727 357.983481,141.727 Z" id="Path" fill="#FA6400" fill-rule="nonzero"></path>
            <path d="M374.745889,131.476 C373.472889,132.816 372.869889,134.692 372.869889,136.434 C372.869889,137.64 373.137889,138.712 373.673889,139.583 C370.323889,141.392 367.978889,144.139 367.978889,148.092 C367.978889,154.122 373.673889,159.482 386.202889,159.482 C394.845889,159.482 402.014889,155.73 402.014889,147.958 C402.014889,140.99 393.907889,137.305 384.460889,137.305 C382.249889,137.305 381.646889,137.372 380.507889,137.506 C380.239889,136.97 380.105889,136.434 380.105889,135.831 C380.105889,135.161 380.239889,134.424 380.641889,133.821 C382.450889,134.223 384.326889,134.424 386.336889,134.424 C394.376889,134.223 400.942889,130.136 400.942889,122.096 C400.942889,119.014 399.736889,116.535 397.927889,114.592 C401.344889,109.634 404.426889,105.48 404.426889,105.48 C400.674889,102.934 397.994889,101.46 397.994889,101.46 C395.381889,105.48 392.031889,110.572 392.031889,110.572 C389.619889,109.567 386.939889,108.964 384.326889,108.964 C375.080889,108.964 369.050889,114.257 369.117889,121.493 C369.184889,126.049 371.529889,129.399 374.745889,131.476 Z M384.795889,115.329 C389.217889,115.396 392.165889,118.076 392.165889,121.828 C392.165889,125.647 389.619889,128.461 385.398889,128.461 C381.110889,128.461 378.095889,125.781 378.095889,121.56 C378.229889,118.076 380.909889,115.329 384.795889,115.329 Z M384.795889,143.268 C389.552889,143.335 393.036889,145.412 393.036889,147.958 C393.036889,151.107 389.485889,152.715 385.130889,152.715 C379.971889,152.715 376.889889,150.638 376.889889,147.757 C376.889889,145.747 378.698889,143.201 384.795889,143.268 Z" id="Shape" fill="#FA6400" fill-rule="nonzero"></path>
        </g>
    </g>
</svg>