<?xml version="1.0" encoding="UTF-8"?>
<svg width="650px" height="333px" viewBox="0 0 650 333" version="1.1" xmlns="http://www.w3.org/2000/svg" xmlns:xlink="http://www.w3.org/1999/xlink">
    <title>Group 9</title>
    <g id="Page-1" stroke="none" stroke-width="1" fill="none" fill-rule="evenodd">
        <g id="Group-9" transform="translate(0.1111, 0)">
            <polyline id="Path" fill-opacity="0.9098039" fill="#5A3372" points="1.88893591 112 323.838936 112 323.838936 0 632.838936 0 632.838936 112 649.838936 112 649.838936 332.95 1.88893591 332.95 1.88893591 112"></polyline>
            <path d="M66.1887152,255.462557 L77.9333173,257.322719 L83.8483018,260.262217 L82.7185321,267.395302 L77.094495,268.646918 L81.8711736,279.067449 L79.1905874,278.642886 L74.9577725,268.611221 L70.7324418,267.941995 L69.2860487,277.074161 L62.9253358,276.066723 L66.1887152,255.462557 Z M45.6867065,252.215358 L57.4313085,254.07552 L63.3462931,257.015017 L62.2165234,264.148103 L56.5924862,265.399719 L61.3691648,275.82025 L58.6885787,275.395687 L54.4557638,265.364022 L50.2304331,264.694796 L48.78404,273.826962 L42.4233271,272.819524 L45.6867065,252.215358 Z M23.7308205,248.737887 L43.108278,251.806975 L40.5249193,268.11766 L28.0820953,271.106977 L20.7085066,267.820026 L23.7308205,248.737887 Z M12.8980686,246.486554 L20.8740064,250.381215 L19.9572917,252.052384 L12.496645,248.28591 L9.88985375,248.571636 L9.26380302,252.524365 L19.7428964,257.816815 L18.4955218,265.839454 L8.66329847,268.077915 L-5.59552404e-14,263.818233 L0.962148385,262.15426 L8.98351982,266.056117 L11.9539918,265.385545 L12.6663943,260.887613 L2.27457026,255.632271 L3.62381752,247.113459 L12.8980686,246.486554 Z M29.8156168,251.63442 L27.6928011,265.037351 L33.1224074,267.806825 L38.6627732,266.495383 L40.7424129,253.365054 L29.8156168,251.63442 Z M72.2543927,258.332775 L71.0274772,266.079215 L76.1387644,266.888763 L80.9173405,265.829253 L81.6261451,261.354037 L77.3393651,259.161442 L72.2543927,258.332775 Z M51.752384,255.085576 L50.5254685,262.832015 L55.6367556,263.641564 L60.4153318,262.582053 L61.1241363,258.106838 L56.8373563,255.914243 L51.752384,255.085576 Z M94.990212,281.145301 L96.1487656,273.830481 L105.318526,261.66011 L97.4130686,260.408009 L90.3941391,270.613655 L87.1904943,258.788912 L84.9415279,258.432711 L88.7957081,272.619298 L87.6299585,279.979551 L94.990212,281.145301 Z M132.840172,266.01911 L152.217629,269.088198 L149.634271,285.398883 L137.191447,288.3882 L129.817858,285.101249 L132.840172,266.01911 Z M112.724349,262.833077 L114.927882,263.182082 L126.432836,276.112043 L128.149078,265.276114 L130.21631,265.603532 L126.848589,286.866486 L113.555,271.114984 L111.550918,283.768259 L109.46097,283.437244 L112.724349,262.833077 Z M138.924968,268.915643 L136.802153,282.318574 L142.231759,285.088049 L147.772125,283.776607 L149.851764,270.646278 L138.924968,268.915643 Z M163.754334,292.036468 L166.729874,273.249648 L172.658967,274.188724 L172.946806,272.371377 L154.023686,269.374249 L153.735846,271.191596 L159.823957,272.155858 L156.848417,290.942678 L163.754334,292.036468 Z M242.926347,283.455048 L254.670949,285.31521 L260.585934,288.254707 L259.456164,295.387793 L253.832127,296.639409 L258.608805,307.05994 L255.928219,306.635377 L251.695404,296.603712 L247.470074,295.934486 L246.023681,305.066652 L239.662968,304.059214 L242.926347,283.455048 Z M222.424338,280.207849 L234.16894,282.068011 L240.083925,285.007508 L238.954155,292.140593 L233.330118,293.39221 L238.106797,303.812741 L235.42621,303.388178 L231.193396,293.356513 L226.968065,292.687287 L225.521672,301.819453 L219.160959,300.812015 L222.424338,280.207849 Z M200.468452,276.730378 L219.84591,279.799466 L217.262551,296.110151 L204.819727,299.099468 L197.446138,295.812517 L200.468452,276.730378 Z M189.6357,274.479044 L197.611638,278.373706 L196.694923,280.044875 L189.234277,276.278401 L186.627486,276.564127 L186.001435,280.516855 L196.480528,285.809306 L195.233154,293.831945 L185.40093,296.070406 L176.737632,291.810724 L177.69978,290.146751 L185.721152,294.048608 L188.691624,293.378036 L189.404026,288.880104 L179.012202,283.624762 L180.361449,275.10595 L189.6357,274.479044 Z M206.553249,279.626911 L204.430433,293.029842 L209.860039,295.799316 L215.400405,294.487874 L217.480045,281.357545 L206.553249,279.626911 Z M248.992025,286.325266 L247.765109,294.071706 L252.876396,294.881254 L257.654972,293.821744 L258.363777,289.346528 L254.076997,287.153933 L248.992025,286.325266 Z M228.490016,283.078067 L227.2631,290.824506 L232.374387,291.634055 L237.152964,290.574544 L237.861768,286.099328 L233.574988,283.906734 L228.490016,283.078067 Z M271.727844,309.137792 L272.886397,301.822972 L282.056158,289.652601 L274.1507,288.400499 L267.131771,298.606145 L263.928126,286.781403 L261.67916,286.425201 L265.53334,300.611788 L264.36759,307.972042 L271.727844,309.137792 Z M70.1887152,139.462557 L81.9333173,141.322719 L87.8483018,144.262217 L86.7185321,151.395302 L81.094495,152.646918 L85.8711736,163.067449 L83.1905874,162.642886 L78.9577725,152.611221 L74.7324418,151.941995 L73.2860487,161.074161 L66.9253358,160.066723 L70.1887152,139.462557 Z M49.6867065,136.215358 L61.4313085,138.07552 L67.3462931,141.015017 L66.2165234,148.148103 L60.5924862,149.399719 L65.3691648,159.82025 L62.6885787,159.395687 L58.4557638,149.364022 L54.2304331,148.694796 L52.78404,157.826962 L46.4233271,156.819524 L49.6867065,136.215358 Z M27.7308205,132.737887 L47.108278,135.806975 L44.5249193,152.11766 L32.0820953,155.106977 L24.7085066,151.820026 L27.7308205,132.737887 Z M16.8980686,130.486554 L24.8740064,134.381215 L23.9572917,136.052384 L16.496645,132.28591 L13.8898537,132.571636 L13.263803,136.524365 L23.7428964,141.816815 L22.4955218,149.839454 L12.6632985,152.077915 L4,147.818233 L4.96214839,146.15426 L12.9835198,150.056117 L15.9539918,149.385545 L16.6663943,144.887613 L6.27457026,139.632271 L7.62381752,131.113459 L16.8980686,130.486554 Z M33.8156168,135.63442 L31.6928011,149.037351 L37.1224074,151.806825 L42.6627732,150.495383 L44.7424129,137.365054 L33.8156168,135.63442 Z M76.2543927,142.332775 L75.0274772,150.079215 L80.1387644,150.888763 L84.9173405,149.829253 L85.6261451,145.354037 L81.3393651,143.161442 L76.2543927,142.332775 Z M55.752384,139.085576 L54.5254685,146.832015 L59.6367556,147.641564 L64.4153318,146.582053 L65.1241363,142.106838 L60.8373563,139.914243 L55.752384,139.085576 Z M98.990212,165.145301 L100.148766,157.830481 L109.318526,145.66011 L101.413069,144.408009 L94.3941391,154.613655 L91.1904943,142.788912 L88.9415279,142.432711 L92.7957081,156.619298 L91.6299585,163.979551 L98.990212,165.145301 Z M136.840172,150.01911 L156.217629,153.088198 L153.634271,169.398883 L141.191447,172.3882 L133.817858,169.101249 L136.840172,150.01911 Z M116.724349,146.833077 L118.927882,147.182082 L130.432836,160.112043 L132.149078,149.276114 L134.21631,149.603532 L130.848589,170.866486 L117.555,155.114984 L115.550918,167.768259 L113.46097,167.437244 L116.724349,146.833077 Z M142.924968,152.915643 L140.802153,166.318574 L146.231759,169.088049 L151.772125,167.776607 L153.851764,154.646278 L142.924968,152.915643 Z M167.754334,176.036468 L170.729874,157.249648 L176.658967,158.188724 L176.946806,156.371377 L158.023686,153.374249 L157.735846,155.191596 L163.823957,156.155858 L160.848417,174.942678 L167.754334,176.036468 Z M246.926347,167.455048 L258.670949,169.31521 L264.585934,172.254707 L263.456164,179.387793 L257.832127,180.639409 L262.608805,191.05994 L259.928219,190.635377 L255.695404,180.603712 L251.470074,179.934486 L250.023681,189.066652 L243.662968,188.059214 L246.926347,167.455048 Z M226.424338,164.207849 L238.16894,166.068011 L244.083925,169.007508 L242.954155,176.140593 L237.330118,177.39221 L242.106797,187.812741 L239.42621,187.388178 L235.193396,177.356513 L230.968065,176.687287 L229.521672,185.819453 L223.160959,184.812015 L226.424338,164.207849 Z M204.468452,160.730378 L223.84591,163.799466 L221.262551,180.110151 L208.819727,183.099468 L201.446138,179.812517 L204.468452,160.730378 Z M193.6357,158.479044 L201.611638,162.373706 L200.694923,164.044875 L193.234277,160.278401 L190.627486,160.564127 L190.001435,164.516855 L200.480528,169.809306 L199.233154,177.831945 L189.40093,180.070406 L180.737632,175.810724 L181.69978,174.146751 L189.721152,178.048608 L192.691624,177.378036 L193.404026,172.880104 L183.012202,167.624762 L184.361449,159.10595 L193.6357,158.479044 Z M210.553249,163.626911 L208.430433,177.029842 L213.860039,179.799316 L219.400405,178.487874 L221.480045,165.357545 L210.553249,163.626911 Z M252.992025,170.325266 L251.765109,178.071706 L256.876396,178.881254 L261.654972,177.821744 L262.363777,173.346528 L258.076997,171.153933 L252.992025,170.325266 Z M232.490016,167.078067 L231.2631,174.824506 L236.374387,175.634055 L241.152964,174.574544 L241.861768,170.099328 L237.574988,167.906734 L232.490016,167.078067 Z M275.727844,193.137792 L276.886397,185.822972 L286.056158,173.652601 L278.1507,172.400499 L271.131771,182.606145 L267.928126,170.781403 L265.67916,170.425201 L269.53334,184.611788 L268.36759,191.972042 L275.727844,193.137792 Z M404.188715,135.462557 L415.933317,137.322719 L421.848302,140.262217 L420.718532,147.395302 L415.094495,148.646918 L419.871174,159.067449 L417.190587,158.642886 L412.957773,148.611221 L408.732442,147.941995 L407.286049,157.074161 L400.925336,156.066723 L404.188715,135.462557 Z M383.686706,132.215358 L395.431309,134.07552 L401.346293,137.015017 L400.216523,144.148103 L394.592486,145.399719 L399.369165,155.82025 L396.688579,155.395687 L392.455764,145.364022 L388.230433,144.694796 L386.78404,153.826962 L380.423327,152.819524 L383.686706,132.215358 Z M361.73082,128.737887 L381.108278,131.806975 L378.524919,148.11766 L366.082095,151.106977 L358.708507,147.820026 L361.73082,128.737887 Z M350.898069,126.486554 L358.874006,130.381215 L357.957292,132.052384 L350.496645,128.28591 L347.889854,128.571636 L347.263803,132.524365 L357.742896,137.816815 L356.495522,145.839454 L346.663298,148.077915 L338,143.818233 L338.962148,142.15426 L346.98352,146.056117 L349.953992,145.385545 L350.666394,140.887613 L340.27457,135.632271 L341.623818,127.113459 L350.898069,126.486554 Z M367.815617,131.63442 L365.692801,145.037351 L371.122407,147.806825 L376.662773,146.495383 L378.742413,133.365054 L367.815617,131.63442 Z M410.254393,138.332775 L409.027477,146.079215 L414.138764,146.888763 L418.917341,145.829253 L419.626145,141.354037 L415.339365,139.161442 L410.254393,138.332775 Z M389.752384,135.085576 L388.525468,142.832015 L393.636756,143.641564 L398.415332,142.582053 L399.124136,138.106838 L394.837356,135.914243 L389.752384,135.085576 Z M432.990212,161.145301 L434.148766,153.830481 L443.318526,141.66011 L435.413069,140.408009 L428.394139,150.613655 L425.190494,138.788912 L422.941528,138.432711 L426.795708,152.619298 L425.629958,159.979551 L432.990212,161.145301 Z M470.840172,146.01911 L490.217629,149.088198 L487.634271,165.398883 L475.191447,168.3882 L467.817858,165.101249 L470.840172,146.01911 Z M450.724349,142.833077 L452.927882,143.182082 L464.432836,156.112043 L466.149078,145.276114 L468.21631,145.603532 L464.848589,166.866486 L451.555,151.114984 L449.550918,163.768259 L447.46097,163.437244 L450.724349,142.833077 Z M476.924968,148.915643 L474.802153,162.318574 L480.231759,165.088049 L485.772125,163.776607 L487.851764,150.646278 L476.924968,148.915643 Z M501.754334,172.036468 L504.729874,153.249648 L510.658967,154.188724 L510.946806,152.371377 L492.023686,149.374249 L491.735846,151.191596 L497.823957,152.155858 L494.848417,170.942678 L501.754334,172.036468 Z M580.926347,163.455048 L592.670949,165.31521 L598.585934,168.254707 L597.456164,175.387793 L591.832127,176.639409 L596.608805,187.05994 L593.928219,186.635377 L589.695404,176.603712 L585.470074,175.934486 L584.023681,185.066652 L577.662968,184.059214 L580.926347,163.455048 Z M560.424338,160.207849 L572.16894,162.068011 L578.083925,165.007508 L576.954155,172.140593 L571.330118,173.39221 L576.106797,183.812741 L573.42621,183.388178 L569.193396,173.356513 L564.968065,172.687287 L563.521672,181.819453 L557.160959,180.812015 L560.424338,160.207849 Z M538.468452,156.730378 L557.84591,159.799466 L555.262551,176.110151 L542.819727,179.099468 L535.446138,175.812517 L538.468452,156.730378 Z M527.6357,154.479044 L535.611638,158.373706 L534.694923,160.044875 L527.234277,156.278401 L524.627486,156.564127 L524.001435,160.516855 L534.480528,165.809306 L533.233154,173.831945 L523.40093,176.070406 L514.737632,171.810724 L515.69978,170.146751 L523.721152,174.048608 L526.691624,173.378036 L527.404026,168.880104 L517.012202,163.624762 L518.361449,155.10595 L527.6357,154.479044 Z M544.553249,159.626911 L542.430433,173.029842 L547.860039,175.799316 L553.400405,174.487874 L555.480045,161.357545 L544.553249,159.626911 Z M586.992025,166.325266 L585.765109,174.071706 L590.876396,174.881254 L595.654972,173.821744 L596.363777,169.346528 L592.076997,167.153933 L586.992025,166.325266 Z M566.490016,163.078067 L565.2631,170.824506 L570.374387,171.634055 L575.152964,170.574544 L575.861768,166.099328 L571.574988,163.906734 L566.490016,163.078067 Z M609.727844,189.137792 L610.886397,181.822972 L620.056158,169.652601 L612.1507,168.400499 L605.131771,178.606145 L601.928126,166.781403 L599.67916,166.425201 L603.53334,180.611788 L602.36759,187.972042 L609.727844,189.137792 Z M408.188715,33.4625568 L419.933317,35.322719 L425.848302,38.2622166 L424.718532,45.3953018 L419.094495,46.646918 L423.871174,57.0674492 L421.190587,56.642886 L416.957773,46.6112215 L412.732442,45.9419948 L411.286049,55.0741612 L404.925336,54.0667233 L408.188715,33.4625568 Z M387.686706,30.2153576 L399.431309,32.0755198 L405.346293,35.0150174 L404.216523,42.1481026 L398.592486,43.3997188 L403.369165,53.82025 L400.688579,53.3956869 L396.455764,43.3640223 L392.230433,42.6947957 L390.78404,51.826962 L384.423327,50.8195241 L387.686706,30.2153576 Z M365.73082,26.7378869 L385.108278,29.8069747 L382.524919,46.1176599 L370.082095,49.1069769 L362.708507,45.8200256 L365.73082,26.7378869 Z M354.898069,24.4865535 L362.874006,28.3812148 L361.957292,30.0523839 L354.496645,26.2859101 L351.889854,26.5716359 L351.263803,30.5243646 L361.742896,35.8168148 L360.495522,43.8394544 L350.663298,46.077915 L342,41.8182328 L342.962148,40.1542597 L350.98352,44.056117 L353.953992,43.3855453 L354.666394,38.8876126 L344.27457,33.6322712 L345.623818,25.1134593 L354.898069,24.4865535 Z M371.815617,29.6344199 L369.692801,43.0373507 L375.122407,45.806825 L380.662773,44.4953832 L382.742413,31.3650544 L371.815617,29.6344199 Z M414.254393,36.332775 L413.027477,44.0792146 L418.138764,44.888763 L422.917341,43.8292526 L423.626145,39.3540368 L419.339365,37.1614422 L414.254393,36.332775 Z M393.752384,33.0855758 L392.525468,40.8320154 L397.636756,41.6415638 L402.415332,40.5820535 L403.124136,36.1068376 L398.837356,33.914243 L393.752384,33.0855758 Z M436.990212,59.1453007 L438.148766,51.8304809 L447.318526,39.66011 L439.413069,38.4080085 L432.394139,48.6136545 L429.190494,36.7889118 L426.941528,36.4327105 L430.795708,50.6192976 L429.629958,57.9795511 L436.990212,59.1453007 Z M474.840172,44.0191105 L494.217629,47.0881982 L491.634271,63.3988835 L479.191447,66.3882004 L471.817858,63.1012492 L474.840172,44.0191105 Z M454.724349,40.8330772 L456.927882,41.1820824 L468.432836,54.112043 L470.149078,43.2761142 L472.21631,43.6035315 L468.848589,64.8664861 L455.555,49.1149836 L453.550918,61.768259 L451.46097,61.4372436 L454.724349,40.8330772 Z M480.924968,46.9156435 L478.802153,60.3185742 L484.231759,63.0880486 L489.772125,61.7766067 L491.851764,48.6462779 L480.924968,46.9156435 Z M505.754334,70.0364677 L508.729874,51.2496478 L514.658967,52.1887239 L514.946806,50.3713773 L496.023686,47.3742494 L495.735846,49.191596 L501.823957,50.155858 L498.848417,68.9426779 L505.754334,70.0364677 Z M584.926347,61.4550477 L596.670949,63.3152099 L602.585934,66.2547075 L601.456164,73.3877927 L595.832127,74.6394089 L600.608805,85.0599401 L597.928219,84.6353769 L593.695404,74.6037124 L589.470074,73.9344857 L588.023681,83.0666521 L581.662968,82.0592142 L584.926347,61.4550477 Z M564.424338,58.2078485 L576.16894,60.0680107 L582.083925,63.0075083 L580.954155,70.1405935 L575.330118,71.3922097 L580.106797,81.8127409 L577.42621,81.3881778 L573.193396,71.3565132 L568.968065,70.6872866 L567.521672,79.8194529 L561.160959,78.812015 L564.424338,58.2078485 Z M542.468452,54.7303778 L561.84591,57.7994656 L559.262551,74.1101508 L546.819727,77.0994678 L539.446138,73.8125165 L542.468452,54.7303778 Z M531.6357,52.4790444 L539.611638,56.3737057 L538.694923,58.0448748 L531.234277,54.278401 L528.627486,54.5641268 L528.001435,58.5168555 L538.480528,63.8093057 L537.233154,71.8319453 L527.40093,74.0704059 L518.737632,69.8107237 L519.69978,68.1467506 L527.721152,72.0486079 L530.691624,71.3780362 L531.404026,66.8801035 L521.012202,61.6247621 L522.361449,53.1059502 L531.6357,52.4790444 Z M548.553249,57.6269108 L546.430433,71.0298416 L551.860039,73.7993159 L557.400405,72.4878741 L559.480045,59.3575453 L548.553249,57.6269108 Z M590.992025,64.3252659 L589.765109,72.0717055 L594.876396,72.8812539 L599.654972,71.8217435 L600.363777,67.3465277 L596.076997,65.1539331 L590.992025,64.3252659 Z M570.490016,61.0780667 L569.2631,68.8245063 L574.374387,69.6340547 L579.152964,68.5745444 L579.861768,64.0993285 L575.574988,61.9067339 L570.490016,61.0780667 Z M613.727844,87.1377916 L614.886397,79.8229718 L624.056158,67.6526009 L616.1507,66.4004994 L609.131771,76.6061454 L605.928126,64.7814027 L603.67916,64.4252014 L607.53334,78.6117885 L606.36759,85.972042 L613.727844,87.1377916 Z M408.188715,244.462557 L419.933317,246.322719 L425.848302,249.262217 L424.718532,256.395302 L419.094495,257.646918 L423.871174,268.067449 L421.190587,267.642886 L416.957773,257.611221 L412.732442,256.941995 L411.286049,266.074161 L404.925336,265.066723 L408.188715,244.462557 Z M387.686706,241.215358 L399.431309,243.07552 L405.346293,246.015017 L404.216523,253.148103 L398.592486,254.399719 L403.369165,264.82025 L400.688579,264.395687 L396.455764,254.364022 L392.230433,253.694796 L390.78404,262.826962 L384.423327,261.819524 L387.686706,241.215358 Z M365.73082,237.737887 L385.108278,240.806975 L382.524919,257.11766 L370.082095,260.106977 L362.708507,256.820026 L365.73082,237.737887 Z M354.898069,235.486554 L362.874006,239.381215 L361.957292,241.052384 L354.496645,237.28591 L351.889854,237.571636 L351.263803,241.524365 L361.742896,246.816815 L360.495522,254.839454 L350.663298,257.077915 L342,252.818233 L342.962148,251.15426 L350.98352,255.056117 L353.953992,254.385545 L354.666394,249.887613 L344.27457,244.632271 L345.623818,236.113459 L354.898069,235.486554 Z M371.815617,240.63442 L369.692801,254.037351 L375.122407,256.806825 L380.662773,255.495383 L382.742413,242.365054 L371.815617,240.63442 Z M414.254393,247.332775 L413.027477,255.079215 L418.138764,255.888763 L422.917341,254.829253 L423.626145,250.354037 L419.339365,248.161442 L414.254393,247.332775 Z M393.752384,244.085576 L392.525468,251.832015 L397.636756,252.641564 L402.415332,251.582053 L403.124136,247.106838 L398.837356,244.914243 L393.752384,244.085576 Z M436.990212,270.145301 L438.148766,262.830481 L447.318526,250.66011 L439.413069,249.408009 L432.394139,259.613655 L429.190494,247.788912 L426.941528,247.432711 L430.795708,261.619298 L429.629958,268.979551 L436.990212,270.145301 Z M474.840172,255.01911 L494.217629,258.088198 L491.634271,274.398883 L479.191447,277.3882 L471.817858,274.101249 L474.840172,255.01911 Z M454.724349,251.833077 L456.927882,252.182082 L468.432836,265.112043 L470.149078,254.276114 L472.21631,254.603532 L468.848589,275.866486 L455.555,260.114984 L453.550918,272.768259 L451.46097,272.437244 L454.724349,251.833077 Z M480.924968,257.915643 L478.802153,271.318574 L484.231759,274.088049 L489.772125,272.776607 L491.851764,259.646278 L480.924968,257.915643 Z M505.754334,281.036468 L508.729874,262.249648 L514.658967,263.188724 L514.946806,261.371377 L496.023686,258.374249 L495.735846,260.191596 L501.823957,261.155858 L498.848417,279.942678 L505.754334,281.036468 Z M584.926347,272.455048 L596.670949,274.31521 L602.585934,277.254707 L601.456164,284.387793 L595.832127,285.639409 L600.608805,296.05994 L597.928219,295.635377 L593.695404,285.603712 L589.470074,284.934486 L588.023681,294.066652 L581.662968,293.059214 L584.926347,272.455048 Z M564.424338,269.207849 L576.16894,271.068011 L582.083925,274.007508 L580.954155,281.140593 L575.330118,282.39221 L580.106797,292.812741 L577.42621,292.388178 L573.193396,282.356513 L568.968065,281.687287 L567.521672,290.819453 L561.160959,289.812015 L564.424338,269.207849 Z M542.468452,265.730378 L561.84591,268.799466 L559.262551,285.110151 L546.819727,288.099468 L539.446138,284.812517 L542.468452,265.730378 Z M531.6357,263.479044 L539.611638,267.373706 L538.694923,269.044875 L531.234277,265.278401 L528.627486,265.564127 L528.001435,269.516855 L538.480528,274.809306 L537.233154,282.831945 L527.40093,285.070406 L518.737632,280.810724 L519.69978,279.146751 L527.721152,283.048608 L530.691624,282.378036 L531.404026,277.880104 L521.012202,272.624762 L522.361449,264.10595 L531.6357,263.479044 Z M548.553249,268.626911 L546.430433,282.029842 L551.860039,284.799316 L557.400405,283.487874 L559.480045,270.357545 L548.553249,268.626911 Z M590.992025,275.325266 L589.765109,283.071706 L594.876396,283.881254 L599.654972,282.821744 L600.363777,278.346528 L596.076997,276.153933 L590.992025,275.325266 Z M570.490016,272.078067 L569.2631,279.824506 L574.374387,280.634055 L579.152964,279.574544 L579.861768,275.099328 L575.574988,272.906734 L570.490016,272.078067 Z M613.727844,298.137792 L614.886397,290.822972 L624.056158,278.652601 L616.1507,277.400499 L609.131771,287.606145 L605.928126,275.781403 L603.67916,275.425201 L607.53334,289.611788 L606.36759,296.972042 L613.727844,298.137792 Z" id="Combined-Shape" fill="#FF0101" fill-rule="nonzero"></path>
        </g>
    </g>
</svg>