<?xml version="1.0" encoding="UTF-8"?>
<svg width="130px" height="84px" viewBox="0 0 130 84" version="1.1" xmlns="http://www.w3.org/2000/svg" xmlns:xlink="http://www.w3.org/1999/xlink">
    <title>Group</title>
    <g id="Page-1" stroke="none" stroke-width="1" fill="none" fill-rule="evenodd">
        <g id="Group" transform="translate(9.9599, 10)">
            <g id="304-copy" transform="translate(-9, -9.6)">
                <path d="M65.85,73.25 L13.5,73.25 C11.8,72.9166667 10.7333333,71.3333333 10.3,68.5 L10,64.7 L10,64.3 C10.0666667,62.4333333 10.5,60.5 11.3,58.5 L12.9,55.25 L15,52.05 L19.95,46.4 L21,45.15 L21,45.1 L24,39.45 L25.75,36.15 L26.2,35.25 L27.1,33.75 C27.8666667,32.55 28.7,31.5666667 29.6,30.8 C30.7,29.8 31.9166667,29.15 33.25,28.85 C40.5833333,27.1833333 46.1333333,24.9833333 49.9,22.25 L53.45,19.25 L55.35,17.75 L56.5,17.1 L57,16.9 C57.7666667,16.5333333 58.7333333,16.1333333 59.9,15.7 C61.1,15.2333333 62.05,14.6166667 62.75,13.85 L64.45,11.25 L65.85,10" id="Path" stroke-opacity="0.03137255" stroke="#000000" stroke-width="20" stroke-linecap="round" stroke-linejoin="round"></path>
                <path d="M57,16.9 C57.7666667,16.5333333 58.7333333,16.1333333 59.9,15.7 C61.1,15.2333333 62.05,14.6166667 62.75,13.85 L64.45,11.25 L65.85,10 L65.85,19.15 L65.65,19.1 C64.3166667,19 63.65,19.6333333 63.65,21 L63.9,22 C64.2666667,22.6666667 64.85,23 65.65,23 L65.85,23 L65.85,53.6 C64.55,53.9333333 63.9,54.65 63.9,55.75 L64.2,56.75 C64.5333333,57.2166667 65.0833333,57.5166667 65.85,57.65 L65.85,61.95 C65.5166667,61.5833333 65,61.4166667 64.3,61.45 C62.8666667,61.55 62.15,62.3166667 62.15,63.75 L62.4,64.75 C62.7666667,65.4166667 63.3833333,65.75 64.25,65.75 C64.9166667,65.75 65.45,65.5333333 65.85,65.1 L65.85,73.25 L13.5,73.25 C11.8,72.9166667 10.7333333,71.3333333 10.3,68.5 C11.8666667,68.4 12.65,67.75 12.65,66.55 C12.65,65.0166667 11.7666667,64.2666667 10,64.3 C10.0666667,62.4333333 10.5,60.5 11.3,58.5 C11.8333333,58.4666667 12.2833333,58.2166667 12.65,57.75 C12.9833333,57.35 13.15,56.9 13.15,56.4 C13.15,55.9333333 13.0666667,55.55 12.9,55.25 L15,52.05 L19.95,46.4 L19.9,47 L20.2,48.15 C20.5666667,48.8833333 21.2166667,49.25 22.15,49.25 C22.75,49.25 23.25,49.0166667 23.65,48.55 C23.9833333,48.1166667 24.15,47.6666667 24.15,47.2 C24.15,45.9 23.45,45.1833333 22.05,45.05 L21,45.15 L21,45.1 L24,39.45 C24.3333333,39.8166667 24.8,40 25.4,40 C26,40 26.5166667,39.7333333 26.95,39.2 C27.25,38.7666667 27.4,38.3833333 27.4,38.05 C27.4,36.9166667 26.85,36.2833333 25.75,36.15 L26.2,35.25 L27.1,33.75 C27.4333333,34.25 27.95,34.5 28.65,34.5 C29.25,34.5 29.7666667,34.2333333 30.2,33.7 C30.5,33.2666667 30.65,32.8833333 30.65,32.55 C30.65,31.65 30.3,31.0666667 29.6,30.8 C30.7,29.8 31.9166667,29.15 33.25,28.85 C40.5833333,27.1833333 46.1333333,24.9833333 49.9,22.25 L53.45,19.25 L55.35,17.75 L55.4,17.75 C56,17.75 56.5166667,17.4833333 56.95,16.95 L57,16.9 M57.15,26.05 C57.15,24.8166667 56.4833333,24.1666667 55.15,24.1 C53.8166667,24 53.15,24.6333333 53.15,26 L53.4,27 C53.7666667,27.6666667 54.35,28 55.15,28 C55.75,28 56.2666667,27.7333333 56.7,27.2 L57.15,26.05 M63.65,42.85 C62.3166667,42.7833333 61.65,43.4333333 61.65,44.8 L61.85,45.9 C62.15,46.6333333 62.75,47 63.65,47 C64.25,47 64.75,46.7666667 65.15,46.3 C65.4833333,45.8666667 65.65,45.4 65.65,44.9 C65.65,43.6 64.9833333,42.9166667 63.65,42.85 M60.9,32.75 C61.5,32.75 62.0166667,32.4833333 62.45,31.95 L62.9,30.8 C62.9,29.5666667 62.2333333,28.9166667 60.9,28.85 C59.5666667,28.75 58.9,29.3833333 58.9,30.75 L59.15,31.75 C59.5166667,32.4166667 60.1,32.75 60.9,32.75 M50.7,34 C51.0333333,34.6666667 51.6,35 52.4,35 C53,35 53.5166667,34.7333333 53.95,34.2 L54.4,33.05 C54.4,31.8166667 53.7333333,31.1666667 52.4,31.1 C51.0666667,31 50.4,31.6333333 50.4,33 L50.7,34 M45.2,38.45 L45.65,37.3 C45.65,36.0666667 44.9833333,35.4166667 43.65,35.35 C42.3166667,35.25 41.65,35.8833333 41.65,37.25 L41.9,38.25 C42.2666667,38.9166667 42.85,39.25 43.65,39.25 C44.25,39.25 44.7666667,38.9833333 45.2,38.45 M50.7,30.2 L51.15,29.05 C51.15,27.8166667 50.4833333,27.1666667 49.15,27.1 C47.8166667,27 47.15,27.6333333 47.15,29 L47.4,30 C47.7666667,30.6666667 48.35,31 49.15,31 C49.75,31 50.2666667,30.7333333 50.7,30.2 M56.7,50.7 L57.15,49.55 C57.15,48.3166667 56.4833333,47.6666667 55.15,47.6 C53.8166667,47.5 53.15,48.1333333 53.15,49.5 L53.4,50.5 C53.7666667,51.1666667 54.35,51.5 55.15,51.5 C55.75,51.5 56.2666667,51.2333333 56.7,50.7 M54.65,40.25 L54.9,41.25 C55.2666667,41.9166667 55.85,42.25 56.65,42.25 C57.25,42.25 57.7666667,41.9833333 58.2,41.45 L58.65,40.3 C58.65,39.0666667 57.9833333,38.4166667 56.65,38.35 C55.3166667,38.25 54.65,38.8833333 54.65,40.25 M50.7,43.75 C51.0333333,44.4166667 51.6,44.75 52.4,44.75 C53,44.75 53.5166667,44.4833333 53.95,43.95 L54.4,42.8 C54.4,41.5666667 53.7333333,40.9166667 52.4,40.85 C51.0666667,40.75 50.4,41.3833333 50.4,42.75 L50.7,43.75 M46.95,44.45 L47.4,43.3 C47.4,42.0666667 46.7333333,41.4166667 45.4,41.35 C44.0666667,41.25 43.4,41.8833333 43.4,43.25 L43.65,44.25 C44.0166667,44.9166667 44.6,45.25 45.4,45.25 C46,45.25 46.5166667,44.9833333 46.95,44.45 M49.4,55.25 C49.7666667,55.9166667 50.35,56.25 51.15,56.25 C51.75,56.25 52.2666667,55.9833333 52.7,55.45 L53.15,54.3 C53.15,53.0666667 52.4833333,52.4166667 51.15,52.35 C49.8166667,52.25 49.15,52.8833333 49.15,54.25 L49.4,55.25 M45.7,53.45 L46.15,52.3 C46.15,51.0666667 45.4833333,50.4166667 44.15,50.35 C42.8166667,50.25 42.15,50.8833333 42.15,52.25 L42.45,53.25 C42.7833333,53.9166667 43.35,54.25 44.15,54.25 C44.75,54.25 45.2666667,53.9833333 45.7,53.45 M44.65,60 C45.25,60 45.7666667,59.7333333 46.2,59.2 L46.65,58.05 C46.65,56.8166667 45.9833333,56.1666667 44.65,56.1 C43.3166667,56 42.65,56.6333333 42.65,58 L42.9,59 C43.2666667,59.6666667 43.85,60 44.65,60 M53.65,60 L53.9,61 C54.2666667,61.6666667 54.85,62 55.65,62 C56.25,62 56.7666667,61.7333333 57.2,61.2 L57.65,60.05 C57.65,58.8166667 56.9833333,58.1666667 55.65,58.1 C54.3166667,58 53.65,58.6333333 53.65,60 M53.45,65.7 L53.9,64.55 C53.9,63.3166667 53.2333333,62.6666667 51.9,62.6 C50.5666667,62.5 49.9,63.1333333 49.9,64.5 L50.15,65.5 C50.5166667,66.1666667 51.1,66.5 51.9,66.5 C52.5,66.5 53.0166667,66.2333333 53.45,65.7 M46.15,67.25 C46.75,67.25 47.2666667,66.9833333 47.7,66.45 L48.15,65.3 C48.15,63.8666667 47.4833333,63.1833333 46.15,63.25 C44.8166667,63.2833333 44.15,63.95 44.15,65.25 L44.4,66.25 C44.7666667,66.9166667 45.35,67.25 46.15,67.25 M30.9,35.95 L31.25,37.2 C31.8833333,38.0666667 33.1,38.5 34.9,38.5 C35.7333333,38.5 36.3833333,38.3 36.85,37.9 C37.2166667,37.5333333 37.4,37.0833333 37.4,36.55 C37.4,35.2166667 36.3166667,34.3666667 34.15,34 C31.9833333,33.6666667 30.9,34.3166667 30.9,35.95 M40.2,31.05 C40.5333333,31.6833333 41.1,32 41.9,32 C42.5,32 43.0166667,31.7333333 43.45,31.2 C43.75,30.7666667 43.9,30.3833333 43.9,30.05 C43.9,28.8166667 43.2333333,28.1666667 41.9,28.1 C40.9333333,28.0333333 40.3166667,28.35 40.05,29.05 C39.7166667,28.6166667 39.1666667,28.3833333 38.4,28.35 C37.0666667,28.25 36.4,28.8833333 36.4,30.25 L36.65,31.25 C37.0166667,31.9166667 37.6,32.25 38.4,32.25 C39,32.25 39.5166667,31.9833333 39.95,31.45 L40.2,31.05 M16.4,55.75 C17,55.75 17.5166667,55.4833333 17.95,54.95 C18.25,54.5166667 18.4,54.1333333 18.4,53.8 C18.4,52.5666667 17.7333333,51.9166667 16.4,51.85 C15.0666667,51.75 14.4,52.3833333 14.4,53.75 L14.7,54.75 C15.0333333,55.4166667 15.6,55.75 16.4,55.75 M35.4,49.5 C36,49.5 36.5166667,49.2333333 36.95,48.7 L37.4,47.55 C37.4,46.3166667 36.7333333,45.6666667 35.4,45.6 C34.0666667,45.5 33.4,46.1333333 33.4,47.5 L33.65,48.5 C34.0166667,49.1666667 34.6,49.5 35.4,49.5 M17.15,62 L17.4,63 C17.7666667,63.6666667 18.35,64 19.15,64 C19.75,64 20.2666667,63.7333333 20.7,63.2 C21,62.7666667 21.15,62.3833333 21.15,62.05 C21.15,60.6166667 20.4833333,59.9333333 19.15,60 C17.8166667,60.0333333 17.15,60.7 17.15,62 M31.9,61.5 L32.2,62.5 C32.5666667,63.1666667 33.2166667,63.5 34.15,63.5 C34.85,63.5 35.4166667,63.3 35.85,62.9 C36.2166667,62.5333333 36.4,62.0833333 36.4,61.55 C36.4,60.1166667 35.65,59.4333333 34.15,59.5 C32.65,59.5333333 31.9,60.2 31.9,61.5 M28.9,61 C29.4,60.5333333 29.65,60.05 29.65,59.55 C29.65,57.85 28.7,57.1833333 26.8,57.55 C24.8666667,57.9166667 23.9,58.7333333 23.9,60 L24.15,61 C24.5166667,61.6666667 25.1333333,62 26,62 C27.2333333,62 28.2,61.6666667 28.9,61 M31.4,50.55 C31.4,49.1166667 30.7333333,48.4333333 29.4,48.5 C28.0666667,48.5333333 27.4,49.2 27.4,50.5 L27.65,51.5 C28.0166667,52.1666667 28.6,52.5 29.4,52.5 C30,52.5 30.5166667,52.2333333 30.95,51.7 C31.25,51.2666667 31.4,50.8833333 31.4,50.55 M31.15,42.1 C29.8166667,42 29.15,42.6333333 29.15,44 L29.4,45 C29.7666667,45.6666667 30.35,46 31.15,46 C31.75,46 32.2666667,45.7333333 32.7,45.2 C33,44.7666667 33.15,44.3833333 33.15,44.05 C33.15,42.8166667 32.4833333,42.1666667 31.15,42.1 M25.4,67.5 C25.7333333,67.1 25.9,66.65 25.9,66.15 C25.9,64.85 25.2333333,64.1666667 23.9,64.1 C22.5666667,64.0333333 21.9,64.6833333 21.9,66.05 L22.1,67.1 C22.4,67.8666667 23,68.25 23.9,68.25 C24.5,68.25 25,68 25.4,67.5 M37.9,66 L38.15,67 C38.5166667,67.6666667 39.1,68 39.9,68 C40.5,68 41.0166667,67.7333333 41.45,67.2 C41.75,66.7666667 41.9,66.3833333 41.9,66.05 C41.9,64.8166667 41.2333333,64.1666667 39.9,64.1 C38.5666667,64 37.9,64.6333333 37.9,66 M38.4,57.25 C38.7333333,56.85 38.9,56.4 38.9,55.9 C38.9,54.6 38.2333333,53.9166667 36.9,53.85 C35.5666667,53.7833333 34.9,54.4333333 34.9,55.8 L35.1,56.9 C35.4,57.6333333 36,58 36.9,58 C37.5,58 38,57.75 38.4,57.25" id="Shape" fill="#FFCC66"></path>
                <path d="M65.85,19.15 L65.85,23 L65.65,23 C64.85,23 64.2666667,22.6666667 63.9,22 L63.65,21 C63.65,19.6333333 64.3166667,19 65.65,19.1 L65.85,19.15 M65.85,61.95 L65.85,65.1 C65.45,65.5333333 64.9166667,65.75 64.25,65.75 C63.3833333,65.75 62.7666667,65.4166667 62.4,64.75 L62.15,63.75 C62.15,62.3166667 62.8666667,61.55 64.3,61.45 C65,61.4166667 65.5166667,61.5833333 65.85,61.95 M10.3,68.5 L10,64.7 L10,64.3 C11.7666667,64.2666667 12.65,65.0166667 12.65,66.55 C12.65,67.75 11.8666667,68.4 10.3,68.5 M11.3,58.5 L12.9,55.25 C13.0666667,55.55 13.15,55.9333333 13.15,56.4 C13.15,56.9 12.9833333,57.35 12.65,57.75 C12.2833333,58.2166667 11.8333333,58.4666667 11.3,58.5 M27.1,33.75 L26.9,33.5 L26.65,32.5 C26.65,31.1333333 27.3166667,30.5 28.65,30.6 L29.6,30.8 C30.3,31.0666667 30.65,31.65 30.65,32.55 C30.65,32.8833333 30.5,33.2666667 30.2,33.7 C29.7666667,34.2333333 29.25,34.5 28.65,34.5 C27.95,34.5 27.4333333,34.25 27.1,33.75 C27.8666667,32.55 28.7,31.5666667 29.6,30.8 C28.7,31.5666667 27.8666667,32.55 27.1,33.75 M57.15,26.05 L56.7,27.2 C56.2666667,27.7333333 55.75,28 55.15,28 C54.35,28 53.7666667,27.6666667 53.4,27 L53.15,26 C53.15,24.6333333 53.8166667,24 55.15,24.1 C56.4833333,24.1666667 57.15,24.8166667 57.15,26.05 M54.65,40.25 C54.65,38.8833333 55.3166667,38.25 56.65,38.35 C57.9833333,38.4166667 58.65,39.0666667 58.65,40.3 L58.2,41.45 C57.7666667,41.9833333 57.25,42.25 56.65,42.25 C55.85,42.25 55.2666667,41.9166667 54.9,41.25 L54.65,40.25 M56.7,50.7 C56.2666667,51.2333333 55.75,51.5 55.15,51.5 C54.35,51.5 53.7666667,51.1666667 53.4,50.5 L53.15,49.5 C53.15,48.1333333 53.8166667,47.5 55.15,47.6 C56.4833333,47.6666667 57.15,48.3166667 57.15,49.55 L56.7,50.7 M46.95,44.45 C46.5166667,44.9833333 46,45.25 45.4,45.25 C44.6,45.25 44.0166667,44.9166667 43.65,44.25 L43.4,43.25 C43.4,41.8833333 44.0666667,41.25 45.4,41.35 C46.7333333,41.4166667 47.4,42.0666667 47.4,43.3 L46.95,44.45 M45.7,53.45 C45.2666667,53.9833333 44.75,54.25 44.15,54.25 C43.35,54.25 42.7833333,53.9166667 42.45,53.25 L42.15,52.25 C42.15,50.8833333 42.8166667,50.25 44.15,50.35 C45.4833333,50.4166667 46.15,51.0666667 46.15,52.3 L45.7,53.45 M53.65,60 C53.65,58.6333333 54.3166667,58 55.65,58.1 C56.9833333,58.1666667 57.65,58.8166667 57.65,60.05 L57.2,61.2 C56.7666667,61.7333333 56.25,62 55.65,62 C54.85,62 54.2666667,61.6666667 53.9,61 L53.65,60 M46.15,67.25 C45.35,67.25 44.7666667,66.9166667 44.4,66.25 L44.15,65.25 C44.15,63.95 44.8166667,63.2833333 46.15,63.25 C47.4833333,63.1833333 48.15,63.8666667 48.15,65.3 L47.7,66.45 C47.2666667,66.9833333 46.75,67.25 46.15,67.25 M40.05,29.05 C40.3166667,28.35 40.9333333,28.0333333 41.9,28.1 C43.2333333,28.1666667 43.9,28.8166667 43.9,30.05 C43.9,30.3833333 43.75,30.7666667 43.45,31.2 C43.0166667,31.7333333 42.5,32 41.9,32 C41.1,32 40.5333333,31.6833333 40.2,31.05 L40.4,30.3 C40.4,29.7666667 40.2833333,29.35 40.05,29.05 M16.4,55.75 C15.6,55.75 15.0333333,55.4166667 14.7,54.75 L14.4,53.75 C14.4,52.3833333 15.0666667,51.75 16.4,51.85 C17.7333333,51.9166667 18.4,52.5666667 18.4,53.8 C18.4,54.1333333 18.25,54.5166667 17.95,54.95 C17.5166667,55.4833333 17,55.75 16.4,55.75 M31.15,42.1 C32.4833333,42.1666667 33.15,42.8166667 33.15,44.05 C33.15,44.3833333 33,44.7666667 32.7,45.2 C32.2666667,45.7333333 31.75,46 31.15,46 C30.35,46 29.7666667,45.6666667 29.4,45 L29.15,44 C29.15,42.6333333 29.8166667,42 31.15,42.1 M31.4,50.55 C31.4,50.8833333 31.25,51.2666667 30.95,51.7 C30.5166667,52.2333333 30,52.5 29.4,52.5 C28.6,52.5 28.0166667,52.1666667 27.65,51.5 L27.4,50.5 C27.4,49.2 28.0666667,48.5333333 29.4,48.5 C30.7333333,48.4333333 31.4,49.1166667 31.4,50.55 M28.9,61 C28.2,61.6666667 27.2333333,62 26,62 C25.1333333,62 24.5166667,61.6666667 24.15,61 L23.9,60 C23.9,58.7333333 24.8666667,57.9166667 26.8,57.55 C28.7,57.1833333 29.65,57.85 29.65,59.55 C29.65,60.05 29.4,60.5333333 28.9,61 M31.9,61.5 C31.9,60.2 32.65,59.5333333 34.15,59.5 C35.65,59.4333333 36.4,60.1166667 36.4,61.55 C36.4,62.0833333 36.2166667,62.5333333 35.85,62.9 C35.4166667,63.3 34.85,63.5 34.15,63.5 C33.2166667,63.5 32.5666667,63.1666667 32.2,62.5 L31.9,61.5" id="Shape" fill="#CC9966"></path>
                <path d="M65.85,53.6 L65.85,57.65 C65.0833333,57.5166667 64.5333333,57.2166667 64.2,56.75 L63.9,55.75 C63.9,54.65 64.55,53.9333333 65.85,53.6 M19.95,46.4 C20.0833333,45.7333333 20.4333333,45.3166667 21,45.15 L19.95,46.4 L21,45.15 L22.05,45.05 C23.45,45.1833333 24.15,45.9 24.15,47.2 C24.15,47.6666667 23.9833333,48.1166667 23.65,48.55 C23.25,49.0166667 22.75,49.25 22.15,49.25 C21.2166667,49.25 20.5666667,48.8833333 20.2,48.15 L19.9,47 L19.95,46.4 M24,39.45 L23.7,39 L23.4,38 C23.4,36.6333333 24.0666667,36 25.4,36.1 L25.75,36.15 C26.85,36.2833333 27.4,36.9166667 27.4,38.05 C27.4,38.3833333 27.25,38.7666667 26.95,39.2 C26.5166667,39.7333333 26,40 25.4,40 C24.8,40 24.3333333,39.8166667 24,39.45 L25.75,36.15 L24,39.45 M55.35,17.75 L56.5,17.1 L57,16.9 L56.95,16.95 C56.5166667,17.4833333 56,17.75 55.4,17.75 L55.35,17.75 M50.7,30.2 C50.2666667,30.7333333 49.75,31 49.15,31 C48.35,31 47.7666667,30.6666667 47.4,30 L47.15,29 C47.15,27.6333333 47.8166667,27 49.15,27.1 C50.4833333,27.1666667 51.15,27.8166667 51.15,29.05 L50.7,30.2 M45.2,38.45 C44.7666667,38.9833333 44.25,39.25 43.65,39.25 C42.85,39.25 42.2666667,38.9166667 41.9,38.25 L41.65,37.25 C41.65,35.8833333 42.3166667,35.25 43.65,35.35 C44.9833333,35.4166667 45.65,36.0666667 45.65,37.3 L45.2,38.45 M50.7,34 L50.4,33 C50.4,31.6333333 51.0666667,31 52.4,31.1 C53.7333333,31.1666667 54.4,31.8166667 54.4,33.05 L53.95,34.2 C53.5166667,34.7333333 53,35 52.4,35 C51.6,35 51.0333333,34.6666667 50.7,34 M60.9,32.75 C60.1,32.75 59.5166667,32.4166667 59.15,31.75 L58.9,30.75 C58.9,29.3833333 59.5666667,28.75 60.9,28.85 C62.2333333,28.9166667 62.9,29.5666667 62.9,30.8 L62.45,31.95 C62.0166667,32.4833333 61.5,32.75 60.9,32.75 M63.65,42.85 C64.9833333,42.9166667 65.65,43.6 65.65,44.9 C65.65,45.4 65.4833333,45.8666667 65.15,46.3 C64.75,46.7666667 64.25,47 63.65,47 C62.75,47 62.15,46.6333333 61.85,45.9 L61.65,44.8 C61.65,43.4333333 62.3166667,42.7833333 63.65,42.85 M50.7,43.75 L50.4,42.75 C50.4,41.3833333 51.0666667,40.75 52.4,40.85 C53.7333333,40.9166667 54.4,41.5666667 54.4,42.8 L53.95,43.95 C53.5166667,44.4833333 53,44.75 52.4,44.75 C51.6,44.75 51.0333333,44.4166667 50.7,43.75 M49.4,55.25 L49.15,54.25 C49.15,52.8833333 49.8166667,52.25 51.15,52.35 C52.4833333,52.4166667 53.15,53.0666667 53.15,54.3 L52.7,55.45 C52.2666667,55.9833333 51.75,56.25 51.15,56.25 C50.35,56.25 49.7666667,55.9166667 49.4,55.25 M44.65,60 C43.85,60 43.2666667,59.6666667 42.9,59 L42.65,58 C42.65,56.6333333 43.3166667,56 44.65,56.1 C45.9833333,56.1666667 46.65,56.8166667 46.65,58.05 L46.2,59.2 C45.7666667,59.7333333 45.25,60 44.65,60 M53.45,65.7 C53.0166667,66.2333333 52.5,66.5 51.9,66.5 C51.1,66.5 50.5166667,66.1666667 50.15,65.5 L49.9,64.5 C49.9,63.1333333 50.5666667,62.5 51.9,62.6 C53.2333333,62.6666667 53.9,63.3166667 53.9,64.55 L53.45,65.7 M30.9,35.95 C30.9,34.3166667 31.9833333,33.6666667 34.15,34 C36.3166667,34.3666667 37.4,35.2166667 37.4,36.55 C37.4,37.0833333 37.2166667,37.5333333 36.85,37.9 C36.3833333,38.3 35.7333333,38.5 34.9,38.5 C33.1,38.5 31.8833333,38.0666667 31.25,37.2 L30.9,35.95 M40.2,31.05 L39.95,31.45 C39.5166667,31.9833333 39,32.25 38.4,32.25 C37.6,32.25 37.0166667,31.9166667 36.65,31.25 L36.4,30.25 C36.4,28.8833333 37.0666667,28.25 38.4,28.35 C39.1666667,28.3833333 39.7166667,28.6166667 40.05,29.05 C40.2833333,29.35 40.4,29.7666667 40.4,30.3 L40.2,31.05 M17.15,62 C17.15,60.7 17.8166667,60.0333333 19.15,60 C20.4833333,59.9333333 21.15,60.6166667 21.15,62.05 C21.15,62.3833333 21,62.7666667 20.7,63.2 C20.2666667,63.7333333 19.75,64 19.15,64 C18.35,64 17.7666667,63.6666667 17.4,63 L17.15,62 M35.4,49.5 C34.6,49.5 34.0166667,49.1666667 33.65,48.5 L33.4,47.5 C33.4,46.1333333 34.0666667,45.5 35.4,45.6 C36.7333333,45.6666667 37.4,46.3166667 37.4,47.55 L36.95,48.7 C36.5166667,49.2333333 36,49.5 35.4,49.5 M38.4,57.25 C38,57.75 37.5,58 36.9,58 C36,58 35.4,57.6333333 35.1,56.9 L34.9,55.8 C34.9,54.4333333 35.5666667,53.7833333 36.9,53.85 C38.2333333,53.9166667 38.9,54.6 38.9,55.9 C38.9,56.4 38.7333333,56.85 38.4,57.25 M37.9,66 C37.9,64.6333333 38.5666667,64 39.9,64.1 C41.2333333,64.1666667 41.9,64.8166667 41.9,66.05 C41.9,66.3833333 41.75,66.7666667 41.45,67.2 C41.0166667,67.7333333 40.5,68 39.9,68 C39.1,68 38.5166667,67.6666667 38.15,67 L37.9,66 M25.4,67.5 C25,68 24.5,68.25 23.9,68.25 C23,68.25 22.4,67.8666667 22.1,67.1 L21.9,66.05 C21.9,64.6833333 22.5666667,64.0333333 23.9,64.1 C25.2333333,64.1666667 25.9,64.85 25.9,66.15 C25.9,66.65 25.7333333,67.1 25.4,67.5" id="Shape" fill="#FFFF66"></path>
                <path d="M57,16.9 C57.7666667,16.5333333 58.7333333,16.1333333 59.9,15.7 C61.1,15.2333333 62.05,14.6166667 62.75,13.85 L64.45,11.25 L65.85,10 M65.85,73.25 L13.5,73.25 C11.8,72.9166667 10.7333333,71.3333333 10.3,68.5 L10,64.7 L10,64.3 C10.0666667,62.4333333 10.5,60.5 11.3,58.5 L12.9,55.25 L15,52.05 L19.95,46.4 L21,45.15 L21,45.1 L24,39.45 L25.75,36.15 L26.2,35.25 L27.1,33.75 C27.8666667,32.55 28.7,31.5666667 29.6,30.8 C30.7,29.8 31.9166667,29.15 33.25,28.85 C40.5833333,27.1833333 46.1333333,24.9833333 49.9,22.25 L53.45,19.25 L55.35,17.75 L56.5,17.1 L57,16.9" id="Shape" stroke="#000000" stroke-width="2" stroke-linecap="round" stroke-linejoin="round"></path>
            </g>
            <g id="304-copy-2" transform="translate(43.0401, -10)">
                <path d="M66.8099,73.65 L14.4599,73.65 C12.7599,73.3166667 11.6932333,71.7333333 11.2599,68.9 L10.9599,65.1 L10.9599,64.7 C11.0265667,62.8333333 11.4599,60.9 12.2599,58.9 L13.8599,55.65 L15.9599,52.45 L20.9099,46.8 L21.9599,45.55 L21.9599,45.5 L24.9599,39.85 L26.7099,36.55 L27.1599,35.65 L28.0599,34.15 C28.8265667,32.95 29.6599,31.9666667 30.5599,31.2 C31.6599,30.2 32.8765667,29.55 34.2099,29.25 C41.5432333,27.5833333 47.0932333,25.3833333 50.8599,22.65 L54.4099,19.65 L56.3099,18.15 L57.4599,17.5 L57.9599,17.3 C58.7265667,16.9333333 59.6932333,16.5333333 60.8599,16.1 C62.0599,15.6333333 63.0099,15.0166667 63.7099,14.25 L65.4099,11.65 L66.8099,10.4" id="Path" stroke-opacity="0.03137255" stroke="#000000" stroke-width="20" stroke-linecap="round" stroke-linejoin="round" transform="translate(38.8849, 42.025) scale(-1, 1) translate(-38.8849, -42.025)"></path>
                <path d="M57.9599,17.3 C58.7265667,16.9333333 59.6932333,16.5333333 60.8599,16.1 C62.0599,15.6333333 63.0099,15.0166667 63.7099,14.25 L65.4099,11.65 L66.8099,10.4 L66.8099,19.55 L66.6099,19.5 C65.2765667,19.4 64.6099,20.0333333 64.6099,21.4 L64.8599,22.4 C65.2265667,23.0666667 65.8099,23.4 66.6099,23.4 L66.8099,23.4 L66.8099,54 C65.5099,54.3333333 64.8599,55.05 64.8599,56.15 L65.1599,57.15 C65.4932333,57.6166667 66.0432333,57.9166667 66.8099,58.05 L66.8099,62.35 C66.4765667,61.9833333 65.9599,61.8166667 65.2599,61.85 C63.8265667,61.95 63.1099,62.7166667 63.1099,64.15 L63.3599,65.15 C63.7265667,65.8166667 64.3432333,66.15 65.2099,66.15 C65.8765667,66.15 66.4099,65.9333333 66.8099,65.5 L66.8099,73.65 L14.4599,73.65 C12.7599,73.3166667 11.6932333,71.7333333 11.2599,68.9 C12.8265667,68.8 13.6099,68.15 13.6099,66.95 C13.6099,65.4166667 12.7265667,64.6666667 10.9599,64.7 C11.0265667,62.8333333 11.4599,60.9 12.2599,58.9 C12.7932333,58.8666667 13.2432333,58.6166667 13.6099,58.15 C13.9432333,57.75 14.1099,57.3 14.1099,56.8 C14.1099,56.3333333 14.0265667,55.95 13.8599,55.65 L15.9599,52.45 L20.9099,46.8 L20.8599,47.4 L21.1599,48.55 C21.5265667,49.2833333 22.1765667,49.65 23.1099,49.65 C23.7099,49.65 24.2099,49.4166667 24.6099,48.95 C24.9432333,48.5166667 25.1099,48.0666667 25.1099,47.6 C25.1099,46.3 24.4099,45.5833333 23.0099,45.45 L21.9599,45.55 L21.9599,45.5 L24.9599,39.85 C25.2932333,40.2166667 25.7599,40.4 26.3599,40.4 C26.9599,40.4 27.4765667,40.1333333 27.9099,39.6 C28.2099,39.1666667 28.3599,38.7833333 28.3599,38.45 C28.3599,37.3166667 27.8099,36.6833333 26.7099,36.55 L27.1599,35.65 L28.0599,34.15 C28.3932333,34.65 28.9099,34.9 29.6099,34.9 C30.2099,34.9 30.7265667,34.6333333 31.1599,34.1 C31.4599,33.6666667 31.6099,33.2833333 31.6099,32.95 C31.6099,32.05 31.2599,31.4666667 30.5599,31.2 C31.6599,30.2 32.8765667,29.55 34.2099,29.25 C41.5432333,27.5833333 47.0932333,25.3833333 50.8599,22.65 L54.4099,19.65 L56.3099,18.15 L56.3599,18.15 C56.9599,18.15 57.4765667,17.8833333 57.9099,17.35 L57.9599,17.3 M58.1099,26.45 C58.1099,25.2166667 57.4432333,24.5666667 56.1099,24.5 C54.7765667,24.4 54.1099,25.0333333 54.1099,26.4 L54.3599,27.4 C54.7265667,28.0666667 55.3099,28.4 56.1099,28.4 C56.7099,28.4 57.2265667,28.1333333 57.6599,27.6 L58.1099,26.45 M64.6099,43.25 C63.2765667,43.1833333 62.6099,43.8333333 62.6099,45.2 L62.8099,46.3 C63.1099,47.0333333 63.7099,47.4 64.6099,47.4 C65.2099,47.4 65.7099,47.1666667 66.1099,46.7 C66.4432333,46.2666667 66.6099,45.8 66.6099,45.3 C66.6099,44 65.9432333,43.3166667 64.6099,43.25 M61.8599,33.15 C62.4599,33.15 62.9765667,32.8833333 63.4099,32.35 L63.8599,31.2 C63.8599,29.9666667 63.1932333,29.3166667 61.8599,29.25 C60.5265667,29.15 59.8599,29.7833333 59.8599,31.15 L60.1099,32.15 C60.4765667,32.8166667 61.0599,33.15 61.8599,33.15 M51.6599,34.4 C51.9932333,35.0666667 52.5599,35.4 53.3599,35.4 C53.9599,35.4 54.4765667,35.1333333 54.9099,34.6 L55.3599,33.45 C55.3599,32.2166667 54.6932333,31.5666667 53.3599,31.5 C52.0265667,31.4 51.3599,32.0333333 51.3599,33.4 L51.6599,34.4 M46.1599,38.85 L46.6099,37.7 C46.6099,36.4666667 45.9432333,35.8166667 44.6099,35.75 C43.2765667,35.65 42.6099,36.2833333 42.6099,37.65 L42.8599,38.65 C43.2265667,39.3166667 43.8099,39.65 44.6099,39.65 C45.2099,39.65 45.7265667,39.3833333 46.1599,38.85 M51.6599,30.6 L52.1099,29.45 C52.1099,28.2166667 51.4432333,27.5666667 50.1099,27.5 C48.7765667,27.4 48.1099,28.0333333 48.1099,29.4 L48.3599,30.4 C48.7265667,31.0666667 49.3099,31.4 50.1099,31.4 C50.7099,31.4 51.2265667,31.1333333 51.6599,30.6 M57.6599,51.1 L58.1099,49.95 C58.1099,48.7166667 57.4432333,48.0666667 56.1099,48 C54.7765667,47.9 54.1099,48.5333333 54.1099,49.9 L54.3599,50.9 C54.7265667,51.5666667 55.3099,51.9 56.1099,51.9 C56.7099,51.9 57.2265667,51.6333333 57.6599,51.1 M55.6099,40.65 L55.8599,41.65 C56.2265667,42.3166667 56.8099,42.65 57.6099,42.65 C58.2099,42.65 58.7265667,42.3833333 59.1599,41.85 L59.6099,40.7 C59.6099,39.4666667 58.9432333,38.8166667 57.6099,38.75 C56.2765667,38.65 55.6099,39.2833333 55.6099,40.65 M51.6599,44.15 C51.9932333,44.8166667 52.5599,45.15 53.3599,45.15 C53.9599,45.15 54.4765667,44.8833333 54.9099,44.35 L55.3599,43.2 C55.3599,41.9666667 54.6932333,41.3166667 53.3599,41.25 C52.0265667,41.15 51.3599,41.7833333 51.3599,43.15 L51.6599,44.15 M47.9099,44.85 L48.3599,43.7 C48.3599,42.4666667 47.6932333,41.8166667 46.3599,41.75 C45.0265667,41.65 44.3599,42.2833333 44.3599,43.65 L44.6099,44.65 C44.9765667,45.3166667 45.5599,45.65 46.3599,45.65 C46.9599,45.65 47.4765667,45.3833333 47.9099,44.85 M50.3599,55.65 C50.7265667,56.3166667 51.3099,56.65 52.1099,56.65 C52.7099,56.65 53.2265667,56.3833333 53.6599,55.85 L54.1099,54.7 C54.1099,53.4666667 53.4432333,52.8166667 52.1099,52.75 C50.7765667,52.65 50.1099,53.2833333 50.1099,54.65 L50.3599,55.65 M46.6599,53.85 L47.1099,52.7 C47.1099,51.4666667 46.4432333,50.8166667 45.1099,50.75 C43.7765667,50.65 43.1099,51.2833333 43.1099,52.65 L43.4099,53.65 C43.7432333,54.3166667 44.3099,54.65 45.1099,54.65 C45.7099,54.65 46.2265667,54.3833333 46.6599,53.85 M45.6099,60.4 C46.2099,60.4 46.7265667,60.1333333 47.1599,59.6 L47.6099,58.45 C47.6099,57.2166667 46.9432333,56.5666667 45.6099,56.5 C44.2765667,56.4 43.6099,57.0333333 43.6099,58.4 L43.8599,59.4 C44.2265667,60.0666667 44.8099,60.4 45.6099,60.4 M54.6099,60.4 L54.8599,61.4 C55.2265667,62.0666667 55.8099,62.4 56.6099,62.4 C57.2099,62.4 57.7265667,62.1333333 58.1599,61.6 L58.6099,60.45 C58.6099,59.2166667 57.9432333,58.5666667 56.6099,58.5 C55.2765667,58.4 54.6099,59.0333333 54.6099,60.4 M54.4099,66.1 L54.8599,64.95 C54.8599,63.7166667 54.1932333,63.0666667 52.8599,63 C51.5265667,62.9 50.8599,63.5333333 50.8599,64.9 L51.1099,65.9 C51.4765667,66.5666667 52.0599,66.9 52.8599,66.9 C53.4599,66.9 53.9765667,66.6333333 54.4099,66.1 M47.1099,67.65 C47.7099,67.65 48.2265667,67.3833333 48.6599,66.85 L49.1099,65.7 C49.1099,64.2666667 48.4432333,63.5833333 47.1099,63.65 C45.7765667,63.6833333 45.1099,64.35 45.1099,65.65 L45.3599,66.65 C45.7265667,67.3166667 46.3099,67.65 47.1099,67.65 M31.8599,36.35 L32.2099,37.6 C32.8432333,38.4666667 34.0599,38.9 35.8599,38.9 C36.6932333,38.9 37.3432333,38.7 37.8099,38.3 C38.1765667,37.9333333 38.3599,37.4833333 38.3599,36.95 C38.3599,35.6166667 37.2765667,34.7666667 35.1099,34.4 C32.9432333,34.0666667 31.8599,34.7166667 31.8599,36.35 M41.1599,31.45 C41.4932333,32.0833333 42.0599,32.4 42.8599,32.4 C43.4599,32.4 43.9765667,32.1333333 44.4099,31.6 C44.7099,31.1666667 44.8599,30.7833333 44.8599,30.45 C44.8599,29.2166667 44.1932333,28.5666667 42.8599,28.5 C41.8932333,28.4333333 41.2765667,28.75 41.0099,29.45 C40.6765667,29.0166667 40.1265667,28.7833333 39.3599,28.75 C38.0265667,28.65 37.3599,29.2833333 37.3599,30.65 L37.6099,31.65 C37.9765667,32.3166667 38.5599,32.65 39.3599,32.65 C39.9599,32.65 40.4765667,32.3833333 40.9099,31.85 L41.1599,31.45 M17.3599,56.15 C17.9599,56.15 18.4765667,55.8833333 18.9099,55.35 C19.2099,54.9166667 19.3599,54.5333333 19.3599,54.2 C19.3599,52.9666667 18.6932333,52.3166667 17.3599,52.25 C16.0265667,52.15 15.3599,52.7833333 15.3599,54.15 L15.6599,55.15 C15.9932333,55.8166667 16.5599,56.15 17.3599,56.15 M36.3599,49.9 C36.9599,49.9 37.4765667,49.6333333 37.9099,49.1 L38.3599,47.95 C38.3599,46.7166667 37.6932333,46.0666667 36.3599,46 C35.0265667,45.9 34.3599,46.5333333 34.3599,47.9 L34.6099,48.9 C34.9765667,49.5666667 35.5599,49.9 36.3599,49.9 M18.1099,62.4 L18.3599,63.4 C18.7265667,64.0666667 19.3099,64.4 20.1099,64.4 C20.7099,64.4 21.2265667,64.1333333 21.6599,63.6 C21.9599,63.1666667 22.1099,62.7833333 22.1099,62.45 C22.1099,61.0166667 21.4432333,60.3333333 20.1099,60.4 C18.7765667,60.4333333 18.1099,61.1 18.1099,62.4 M32.8599,61.9 L33.1599,62.9 C33.5265667,63.5666667 34.1765667,63.9 35.1099,63.9 C35.8099,63.9 36.3765667,63.7 36.8099,63.3 C37.1765667,62.9333333 37.3599,62.4833333 37.3599,61.95 C37.3599,60.5166667 36.6099,59.8333333 35.1099,59.9 C33.6099,59.9333333 32.8599,60.6 32.8599,61.9 M29.8599,61.4 C30.3599,60.9333333 30.6099,60.45 30.6099,59.95 C30.6099,58.25 29.6599,57.5833333 27.7599,57.95 C25.8265667,58.3166667 24.8599,59.1333333 24.8599,60.4 L25.1099,61.4 C25.4765667,62.0666667 26.0932333,62.4 26.9599,62.4 C28.1932333,62.4 29.1599,62.0666667 29.8599,61.4 M32.3599,50.95 C32.3599,49.5166667 31.6932333,48.8333333 30.3599,48.9 C29.0265667,48.9333333 28.3599,49.6 28.3599,50.9 L28.6099,51.9 C28.9765667,52.5666667 29.5599,52.9 30.3599,52.9 C30.9599,52.9 31.4765667,52.6333333 31.9099,52.1 C32.2099,51.6666667 32.3599,51.2833333 32.3599,50.95 M32.1099,42.5 C30.7765667,42.4 30.1099,43.0333333 30.1099,44.4 L30.3599,45.4 C30.7265667,46.0666667 31.3099,46.4 32.1099,46.4 C32.7099,46.4 33.2265667,46.1333333 33.6599,45.6 C33.9599,45.1666667 34.1099,44.7833333 34.1099,44.45 C34.1099,43.2166667 33.4432333,42.5666667 32.1099,42.5 M26.3599,67.9 C26.6932333,67.5 26.8599,67.05 26.8599,66.55 C26.8599,65.25 26.1932333,64.5666667 24.8599,64.5 C23.5265667,64.4333333 22.8599,65.0833333 22.8599,66.45 L23.0599,67.5 C23.3599,68.2666667 23.9599,68.65 24.8599,68.65 C25.4599,68.65 25.9599,68.4 26.3599,67.9 M38.8599,66.4 L39.1099,67.4 C39.4765667,68.0666667 40.0599,68.4 40.8599,68.4 C41.4599,68.4 41.9765667,68.1333333 42.4099,67.6 C42.7099,67.1666667 42.8599,66.7833333 42.8599,66.45 C42.8599,65.2166667 42.1932333,64.5666667 40.8599,64.5 C39.5265667,64.4 38.8599,65.0333333 38.8599,66.4 M39.3599,57.65 C39.6932333,57.25 39.8599,56.8 39.8599,56.3 C39.8599,55 39.1932333,54.3166667 37.8599,54.25 C36.5265667,54.1833333 35.8599,54.8333333 35.8599,56.2 L36.0599,57.3 C36.3599,58.0333333 36.9599,58.4 37.8599,58.4 C38.4599,58.4 38.9599,58.15 39.3599,57.65" id="Shape" fill="#FFCC66" fill-rule="nonzero" transform="translate(38.8849, 42.025) scale(-1, 1) translate(-38.8849, -42.025)"></path>
                <path d="M66.8099,19.55 L66.8099,23.4 L66.6099,23.4 C65.8099,23.4 65.2265667,23.0666667 64.8599,22.4 L64.6099,21.4 C64.6099,20.0333333 65.2765667,19.4 66.6099,19.5 L66.8099,19.55 M66.8099,62.35 L66.8099,65.5 C66.4099,65.9333333 65.8765667,66.15 65.2099,66.15 C64.3432333,66.15 63.7265667,65.8166667 63.3599,65.15 L63.1099,64.15 C63.1099,62.7166667 63.8265667,61.95 65.2599,61.85 C65.9599,61.8166667 66.4765667,61.9833333 66.8099,62.35 M11.2599,68.9 L10.9599,65.1 L10.9599,64.7 C12.7265667,64.6666667 13.6099,65.4166667 13.6099,66.95 C13.6099,68.15 12.8265667,68.8 11.2599,68.9 M12.2599,58.9 L13.8599,55.65 C14.0265667,55.95 14.1099,56.3333333 14.1099,56.8 C14.1099,57.3 13.9432333,57.75 13.6099,58.15 C13.2432333,58.6166667 12.7932333,58.8666667 12.2599,58.9 M28.0599,34.15 L27.8599,33.9 L27.6099,32.9 C27.6099,31.5333333 28.2765667,30.9 29.6099,31 L30.5599,31.2 C31.2599,31.4666667 31.6099,32.05 31.6099,32.95 C31.6099,33.2833333 31.4599,33.6666667 31.1599,34.1 C30.7265667,34.6333333 30.2099,34.9 29.6099,34.9 C28.9099,34.9 28.3932333,34.65 28.0599,34.15 C28.8265667,32.95 29.6599,31.9666667 30.5599,31.2 C29.6599,31.9666667 28.8265667,32.95 28.0599,34.15 M58.1099,26.45 L57.6599,27.6 C57.2265667,28.1333333 56.7099,28.4 56.1099,28.4 C55.3099,28.4 54.7265667,28.0666667 54.3599,27.4 L54.1099,26.4 C54.1099,25.0333333 54.7765667,24.4 56.1099,24.5 C57.4432333,24.5666667 58.1099,25.2166667 58.1099,26.45 M55.6099,40.65 C55.6099,39.2833333 56.2765667,38.65 57.6099,38.75 C58.9432333,38.8166667 59.6099,39.4666667 59.6099,40.7 L59.1599,41.85 C58.7265667,42.3833333 58.2099,42.65 57.6099,42.65 C56.8099,42.65 56.2265667,42.3166667 55.8599,41.65 L55.6099,40.65 M57.6599,51.1 C57.2265667,51.6333333 56.7099,51.9 56.1099,51.9 C55.3099,51.9 54.7265667,51.5666667 54.3599,50.9 L54.1099,49.9 C54.1099,48.5333333 54.7765667,47.9 56.1099,48 C57.4432333,48.0666667 58.1099,48.7166667 58.1099,49.95 L57.6599,51.1 M47.9099,44.85 C47.4765667,45.3833333 46.9599,45.65 46.3599,45.65 C45.5599,45.65 44.9765667,45.3166667 44.6099,44.65 L44.3599,43.65 C44.3599,42.2833333 45.0265667,41.65 46.3599,41.75 C47.6932333,41.8166667 48.3599,42.4666667 48.3599,43.7 L47.9099,44.85 M46.6599,53.85 C46.2265667,54.3833333 45.7099,54.65 45.1099,54.65 C44.3099,54.65 43.7432333,54.3166667 43.4099,53.65 L43.1099,52.65 C43.1099,51.2833333 43.7765667,50.65 45.1099,50.75 C46.4432333,50.8166667 47.1099,51.4666667 47.1099,52.7 L46.6599,53.85 M54.6099,60.4 C54.6099,59.0333333 55.2765667,58.4 56.6099,58.5 C57.9432333,58.5666667 58.6099,59.2166667 58.6099,60.45 L58.1599,61.6 C57.7265667,62.1333333 57.2099,62.4 56.6099,62.4 C55.8099,62.4 55.2265667,62.0666667 54.8599,61.4 L54.6099,60.4 M47.1099,67.65 C46.3099,67.65 45.7265667,67.3166667 45.3599,66.65 L45.1099,65.65 C45.1099,64.35 45.7765667,63.6833333 47.1099,63.65 C48.4432333,63.5833333 49.1099,64.2666667 49.1099,65.7 L48.6599,66.85 C48.2265667,67.3833333 47.7099,67.65 47.1099,67.65 M41.0099,29.45 C41.2765667,28.75 41.8932333,28.4333333 42.8599,28.5 C44.1932333,28.5666667 44.8599,29.2166667 44.8599,30.45 C44.8599,30.7833333 44.7099,31.1666667 44.4099,31.6 C43.9765667,32.1333333 43.4599,32.4 42.8599,32.4 C42.0599,32.4 41.4932333,32.0833333 41.1599,31.45 L41.3599,30.7 C41.3599,30.1666667 41.2432333,29.75 41.0099,29.45 M17.3599,56.15 C16.5599,56.15 15.9932333,55.8166667 15.6599,55.15 L15.3599,54.15 C15.3599,52.7833333 16.0265667,52.15 17.3599,52.25 C18.6932333,52.3166667 19.3599,52.9666667 19.3599,54.2 C19.3599,54.5333333 19.2099,54.9166667 18.9099,55.35 C18.4765667,55.8833333 17.9599,56.15 17.3599,56.15 M32.1099,42.5 C33.4432333,42.5666667 34.1099,43.2166667 34.1099,44.45 C34.1099,44.7833333 33.9599,45.1666667 33.6599,45.6 C33.2265667,46.1333333 32.7099,46.4 32.1099,46.4 C31.3099,46.4 30.7265667,46.0666667 30.3599,45.4 L30.1099,44.4 C30.1099,43.0333333 30.7765667,42.4 32.1099,42.5 M32.3599,50.95 C32.3599,51.2833333 32.2099,51.6666667 31.9099,52.1 C31.4765667,52.6333333 30.9599,52.9 30.3599,52.9 C29.5599,52.9 28.9765667,52.5666667 28.6099,51.9 L28.3599,50.9 C28.3599,49.6 29.0265667,48.9333333 30.3599,48.9 C31.6932333,48.8333333 32.3599,49.5166667 32.3599,50.95 M29.8599,61.4 C29.1599,62.0666667 28.1932333,62.4 26.9599,62.4 C26.0932333,62.4 25.4765667,62.0666667 25.1099,61.4 L24.8599,60.4 C24.8599,59.1333333 25.8265667,58.3166667 27.7599,57.95 C29.6599,57.5833333 30.6099,58.25 30.6099,59.95 C30.6099,60.45 30.3599,60.9333333 29.8599,61.4 M32.8599,61.9 C32.8599,60.6 33.6099,59.9333333 35.1099,59.9 C36.6099,59.8333333 37.3599,60.5166667 37.3599,61.95 C37.3599,62.4833333 37.1765667,62.9333333 36.8099,63.3 C36.3765667,63.7 35.8099,63.9 35.1099,63.9 C34.1765667,63.9 33.5265667,63.5666667 33.1599,62.9 L32.8599,61.9" id="Shape" fill="#CC9966" fill-rule="nonzero" transform="translate(38.8849, 44.1949) scale(-1, 1) translate(-38.8849, -44.1949)"></path>
                <path d="M59.8099,54 L59.8099,58.05 C59.0432333,57.9166667 58.4932333,57.6166667 58.1599,57.15 L57.8599,56.15 C57.8599,55.05 58.5099,54.3333333 59.8099,54 M13.9099,46.8 C14.0432333,46.1333333 14.3932333,45.7166667 14.9599,45.55 L13.9099,46.8 L14.9599,45.55 L16.0099,45.45 C17.4099,45.5833333 18.1099,46.3 18.1099,47.6 C18.1099,48.0666667 17.9432333,48.5166667 17.6099,48.95 C17.2099,49.4166667 16.7099,49.65 16.1099,49.65 C15.1765667,49.65 14.5265667,49.2833333 14.1599,48.55 L13.8599,47.4 L13.9099,46.8 M17.9599,39.85 L17.6599,39.4 L17.3599,38.4 C17.3599,37.0333333 18.0265667,36.4 19.3599,36.5 L19.7099,36.55 C20.8099,36.6833333 21.3599,37.3166667 21.3599,38.45 C21.3599,38.7833333 21.2099,39.1666667 20.9099,39.6 C20.4765667,40.1333333 19.9599,40.4 19.3599,40.4 C18.7599,40.4 18.2932333,40.2166667 17.9599,39.85 L19.7099,36.55 L17.9599,39.85 M49.3099,18.15 L50.4599,17.5 L50.9599,17.3 L50.9099,17.35 C50.4765667,17.8833333 49.9599,18.15 49.3599,18.15 L49.3099,18.15 M44.6599,30.6 C44.2265667,31.1333333 43.7099,31.4 43.1099,31.4 C42.3099,31.4 41.7265667,31.0666667 41.3599,30.4 L41.1099,29.4 C41.1099,28.0333333 41.7765667,27.4 43.1099,27.5 C44.4432333,27.5666667 45.1099,28.2166667 45.1099,29.45 L44.6599,30.6 M39.1599,38.85 C38.7265667,39.3833333 38.2099,39.65 37.6099,39.65 C36.8099,39.65 36.2265667,39.3166667 35.8599,38.65 L35.6099,37.65 C35.6099,36.2833333 36.2765667,35.65 37.6099,35.75 C38.9432333,35.8166667 39.6099,36.4666667 39.6099,37.7 L39.1599,38.85 M44.6599,34.4 L44.3599,33.4 C44.3599,32.0333333 45.0265667,31.4 46.3599,31.5 C47.6932333,31.5666667 48.3599,32.2166667 48.3599,33.45 L47.9099,34.6 C47.4765667,35.1333333 46.9599,35.4 46.3599,35.4 C45.5599,35.4 44.9932333,35.0666667 44.6599,34.4 M54.8599,33.15 C54.0599,33.15 53.4765667,32.8166667 53.1099,32.15 L52.8599,31.15 C52.8599,29.7833333 53.5265667,29.15 54.8599,29.25 C56.1932333,29.3166667 56.8599,29.9666667 56.8599,31.2 L56.4099,32.35 C55.9765667,32.8833333 55.4599,33.15 54.8599,33.15 M57.6099,43.25 C58.9432333,43.3166667 59.6099,44 59.6099,45.3 C59.6099,45.8 59.4432333,46.2666667 59.1099,46.7 C58.7099,47.1666667 58.2099,47.4 57.6099,47.4 C56.7099,47.4 56.1099,47.0333333 55.8099,46.3 L55.6099,45.2 C55.6099,43.8333333 56.2765667,43.1833333 57.6099,43.25 M44.6599,44.15 L44.3599,43.15 C44.3599,41.7833333 45.0265667,41.15 46.3599,41.25 C47.6932333,41.3166667 48.3599,41.9666667 48.3599,43.2 L47.9099,44.35 C47.4765667,44.8833333 46.9599,45.15 46.3599,45.15 C45.5599,45.15 44.9932333,44.8166667 44.6599,44.15 M43.3599,55.65 L43.1099,54.65 C43.1099,53.2833333 43.7765667,52.65 45.1099,52.75 C46.4432333,52.8166667 47.1099,53.4666667 47.1099,54.7 L46.6599,55.85 C46.2265667,56.3833333 45.7099,56.65 45.1099,56.65 C44.3099,56.65 43.7265667,56.3166667 43.3599,55.65 M38.6099,60.4 C37.8099,60.4 37.2265667,60.0666667 36.8599,59.4 L36.6099,58.4 C36.6099,57.0333333 37.2765667,56.4 38.6099,56.5 C39.9432333,56.5666667 40.6099,57.2166667 40.6099,58.45 L40.1599,59.6 C39.7265667,60.1333333 39.2099,60.4 38.6099,60.4 M47.4099,66.1 C46.9765667,66.6333333 46.4599,66.9 45.8599,66.9 C45.0599,66.9 44.4765667,66.5666667 44.1099,65.9 L43.8599,64.9 C43.8599,63.5333333 44.5265667,62.9 45.8599,63 C47.1932333,63.0666667 47.8599,63.7166667 47.8599,64.95 L47.4099,66.1 M24.8599,36.35 C24.8599,34.7166667 25.9432333,34.0666667 28.1099,34.4 C30.2765667,34.7666667 31.3599,35.6166667 31.3599,36.95 C31.3599,37.4833333 31.1765667,37.9333333 30.8099,38.3 C30.3432333,38.7 29.6932333,38.9 28.8599,38.9 C27.0599,38.9 25.8432333,38.4666667 25.2099,37.6 L24.8599,36.35 M34.1599,31.45 L33.9099,31.85 C33.4765667,32.3833333 32.9599,32.65 32.3599,32.65 C31.5599,32.65 30.9765667,32.3166667 30.6099,31.65 L30.3599,30.65 C30.3599,29.2833333 31.0265667,28.65 32.3599,28.75 C33.1265667,28.7833333 33.6765667,29.0166667 34.0099,29.45 C34.2432333,29.75 34.3599,30.1666667 34.3599,30.7 L34.1599,31.45 M11.1099,62.4 C11.1099,61.1 11.7765667,60.4333333 13.1099,60.4 C14.4432333,60.3333333 15.1099,61.0166667 15.1099,62.45 C15.1099,62.7833333 14.9599,63.1666667 14.6599,63.6 C14.2265667,64.1333333 13.7099,64.4 13.1099,64.4 C12.3099,64.4 11.7265667,64.0666667 11.3599,63.4 L11.1099,62.4 M29.3599,49.9 C28.5599,49.9 27.9765667,49.5666667 27.6099,48.9 L27.3599,47.9 C27.3599,46.5333333 28.0265667,45.9 29.3599,46 C30.6932333,46.0666667 31.3599,46.7166667 31.3599,47.95 L30.9099,49.1 C30.4765667,49.6333333 29.9599,49.9 29.3599,49.9 M32.3599,57.65 C31.9599,58.15 31.4599,58.4 30.8599,58.4 C29.9599,58.4 29.3599,58.0333333 29.0599,57.3 L28.8599,56.2 C28.8599,54.8333333 29.5265667,54.1833333 30.8599,54.25 C32.1932333,54.3166667 32.8599,55 32.8599,56.3 C32.8599,56.8 32.6932333,57.25 32.3599,57.65 M31.8599,66.4 C31.8599,65.0333333 32.5265667,64.4 33.8599,64.5 C35.1932333,64.5666667 35.8599,65.2166667 35.8599,66.45 C35.8599,66.7833333 35.7099,67.1666667 35.4099,67.6 C34.9765667,68.1333333 34.4599,68.4 33.8599,68.4 C33.0599,68.4 32.4765667,68.0666667 32.1099,67.4 L31.8599,66.4 M19.3599,67.9 C18.9599,68.4 18.4599,68.65 17.8599,68.65 C16.9599,68.65 16.3599,68.2666667 16.0599,67.5 L15.8599,66.45 C15.8599,65.0833333 16.5265667,64.4333333 17.8599,64.5 C19.1932333,64.5666667 19.8599,65.25 19.8599,66.55 C19.8599,67.05 19.6932333,67.5 19.3599,67.9" id="Shape" fill="#FFFF66" fill-rule="nonzero" transform="translate(35.4599, 42.975) scale(-1, 1) translate(-35.4599, -42.975)"></path>
                <path d="M57.9599,17.3 C58.7265667,16.9333333 59.6932333,16.5333333 60.8599,16.1 C62.0599,15.6333333 63.0099,15.0166667 63.7099,14.25 L65.4099,11.65 L66.8099,10.4 M66.8099,73.65 L14.4599,73.65 C12.7599,73.3166667 11.6932333,71.7333333 11.2599,68.9 L10.9599,65.1 L10.9599,64.7 C11.0265667,62.8333333 11.4599,60.9 12.2599,58.9 L13.8599,55.65 L15.9599,52.45 L20.9099,46.8 L21.9599,45.55 L21.9599,45.5 L24.9599,39.85 L26.7099,36.55 L27.1599,35.65 L28.0599,34.15 C28.8265667,32.95 29.6599,31.9666667 30.5599,31.2 C31.6599,30.2 32.8765667,29.55 34.2099,29.25 C41.5432333,27.5833333 47.0932333,25.3833333 50.8599,22.65 L54.4099,19.65 L56.3099,18.15 L57.4599,17.5 L57.9599,17.3" id="Shape" stroke="#000000" stroke-width="2" stroke-linecap="round" stroke-linejoin="round" transform="translate(38.8849, 42.025) scale(-1, 1) translate(-38.8849, -42.025)"></path>
            </g>
        </g>
    </g>
</svg>