<?xml version="1.0" encoding="UTF-8"?>
<svg width="111px" height="120px" viewBox="0 0 111 120" version="1.1" xmlns="http://www.w3.org/2000/svg" xmlns:xlink="http://www.w3.org/1999/xlink">
    <title>194</title>
    <defs>
        <radialGradient cx="50%" cy="50%" fx="50%" fy="50%" r="50%" gradientTransform="translate(0.5, 0.5), scale(0.6667, 1), rotate(90), translate(-0.5, -0.5)" id="radialGradient-1">
            <stop stop-color="#0B0B0B" offset="0%"></stop>
            <stop stop-color="#191919" offset="100%"></stop>
        </radialGradient>
    </defs>
    <g id="194" stroke="none" fill="none">
        <rect id="Rectangle-Copy-2" fill="#000000" fill-rule="evenodd" x="39" y="84" width="51" height="36"></rect>
        <path d="M40.45,60 L90,60 L91.5,60 C96.8333333,60.1333333 101.383333,62.0833333 105.15,65.85 C108.916667,69.6166667 110.866667,74.1666667 111,79.5 L111,90.55 C110.866667,95.85 108.916667,100.383333 105.15,104.15 C101.383333,107.916667 96.8333333,109.866667 91.5,110 L90,110 L40.5,110 C35.2,109.9 30.65,107.95 26.85,104.15 C23.0833333,100.383333 21.1333333,95.85 21,90.55 L21,79.5 C21.1333333,74.1666667 23.0833333,69.6166667 26.85,65.85 C30.6166667,62.0833333 35.15,60.1333333 40.45,60" id="Path" fill="#FF66CC" fill-rule="evenodd"></path>
        <path d="M52.5,76.05 C53.1,76.05 53.6166667,75.7833333 54.05,75.25 C54.35,74.85 54.5,74.4833333 54.5,74.15 C54.5,72.95 53.8333333,72.3 52.5,72.2 C51.1666667,72.0666667 50.5,72.7 50.5,74.1 L50.8,75.15 C51.1333333,75.75 51.7,76.05 52.5,76.05 M45.5,74.85 L45.75,75.9 C46.0833333,76.5 46.6666667,76.8 47.5,76.8 C48.1,76.8 48.6166667,76.5333333 49.05,76 C49.35,75.6 49.5,75.2333333 49.5,74.9 C49.5,73.7 48.8333333,73.05 47.5,72.95 C46.1666667,72.8166667 45.5,73.45 45.5,74.85 M45.3,81.55 C45.6,81.15 45.75,80.7666667 45.75,80.4 C45.75,79.2333333 45.0833333,78.5833333 43.75,78.45 C42.4166667,78.3166667 41.75,78.95 41.75,80.35 L42,81.35 C42.3666667,81.9833333 42.95,82.3 43.75,82.3 C44.3833333,82.3 44.9,82.05 45.3,81.55 M48.5,80.95 C47.1666667,80.8166667 46.5,81.45 46.5,82.85 L46.75,83.9 C47.0833333,84.5 47.6666667,84.8 48.5,84.8 C49.1333333,84.8 49.65,84.55 50.05,84.05 C50.35,83.65 50.5,83.2666667 50.5,82.9 C50.5,81.7333333 49.8333333,81.0833333 48.5,80.95 M54.5,74.85 L54.75,75.9 C55.0833333,76.5 55.6666667,76.8 56.5,76.8 C57.1,76.8 57.6166667,76.5333333 58.05,76 C58.35,75.6 58.5,75.2333333 58.5,74.9 C58.5,73.5 57.8333333,72.8166667 56.5,72.85 C55.1666667,72.85 54.5,73.5166667 54.5,74.85 M49.75,80.4 C50.0833333,81 50.6666667,81.3 51.5,81.3 C52.1,81.3 52.6166667,81.0333333 53.05,80.5 C53.35,80.1 53.5,79.7333333 53.5,79.4 C53.5,78.2 52.8333333,77.55 51.5,77.45 C50.1666667,77.3166667 49.5,77.95 49.5,79.35 L49.75,80.4 M57.15,84.2 C56.8166667,83.7666667 56.2666667,83.5166667 55.5,83.45 C54.1666667,83.3166667 53.5,83.95 53.5,85.35 L53.8,86.4 C54.1333333,87 54.7,87.3 55.5,87.3 C56.0666667,87.3 56.5666667,87.0666667 57,86.6 C57.3666667,87.2333333 57.95,87.55 58.75,87.55 C59.3833333,87.55 59.9,87.3 60.3,86.8 C60.6,86.4 60.75,86.0166667 60.75,85.65 C60.75,84.4833333 60.0833333,83.8333333 58.75,83.7 C58.0166667,83.6333333 57.4833333,83.8 57.15,84.2 M55.25,80.35 L55.5,81.35 C55.8666667,81.9833333 56.45,82.3 57.25,82.3 C57.8833333,82.3 58.4,82.05 58.8,81.55 C59.1,81.15 59.25,80.7666667 59.25,80.4 C59.25,79.2333333 58.5833333,78.5833333 57.25,78.45 C55.9166667,78.3166667 55.25,78.95 55.25,80.35 M60.5,78.25 C61.5,81.3166667 62,83.6 62,85.1 C62,87.4333333 60.5166667,88.7166667 57.55,88.95 L51.75,88.8 L44.4,88.9 L41.85,89.05 C39.4166667,89.05 37.2166667,87.9833333 35.25,85.85 C33.75,84.2166667 33,83.05 33,82.35 L33.1,81.4 C33.2333333,81.0666667 33.5333333,80.7833333 34,80.55 L36.25,80.4 L38.5,80.05 L40.15,78.7 C41.25,77.9333333 42.45,77.5333333 43.75,77.5 C47.8166667,66.6333333 52.05,64.1 56.45,69.9 C57.9833333,71.9333333 59.3333333,74.7166667 60.5,78.25 M45,88.55 C45.7,88.55 46.2833333,88.1833333 46.75,87.45 C47.0833333,86.9166667 47.25,86.4833333 47.25,86.15 C47.25,84.6833333 46.55,84.0166667 45.15,84.15 C43.7166667,84.2833333 43,85.1 43,86.6 L43.3,87.65 C43.6333333,88.25 44.2,88.55 45,88.55 M37.75,85.1 L38.05,86.15 C38.3833333,86.75 38.95,87.05 39.75,87.05 C40.3833333,87.05 40.9,86.8 41.3,86.3 C41.6,85.9 41.75,85.5166667 41.75,85.15 C41.75,83.75 41.0833333,83.05 39.75,83.05 C38.4166667,83.0833333 37.75,83.7666667 37.75,85.1" id="Shape" fill="#FF00FF" fill-rule="evenodd"></path>
        <path d="M52.5,76.05 C51.7,76.05 51.1333333,75.75 50.8,75.15 L50.5,74.1 C50.5,72.7 51.1666667,72.0666667 52.5,72.2 C53.8333333,72.3 54.5,72.95 54.5,74.15 C54.5,74.4833333 54.35,74.85 54.05,75.25 C53.6166667,75.7833333 53.1,76.05 52.5,76.05 M48.5,80.95 C49.8333333,81.0833333 50.5,81.7333333 50.5,82.9 C50.5,83.2666667 50.35,83.65 50.05,84.05 C49.65,84.55 49.1333333,84.8 48.5,84.8 C47.6666667,84.8 47.0833333,84.5 46.75,83.9 L46.5,82.85 C46.5,81.45 47.1666667,80.8166667 48.5,80.95 M45.3,81.55 C44.9,82.05 44.3833333,82.3 43.75,82.3 C42.95,82.3 42.3666667,81.9833333 42,81.35 L41.75,80.35 C41.75,78.95 42.4166667,78.3166667 43.75,78.45 C45.0833333,78.5833333 45.75,79.2333333 45.75,80.4 C45.75,80.7666667 45.6,81.15 45.3,81.55 M55.25,80.35 C55.25,78.95 55.9166667,78.3166667 57.25,78.45 C58.5833333,78.5833333 59.25,79.2333333 59.25,80.4 C59.25,80.7666667 59.1,81.15 58.8,81.55 C58.4,82.05 57.8833333,82.3 57.25,82.3 C56.45,82.3 55.8666667,81.9833333 55.5,81.35 L55.25,80.35 M57,86.6 C56.5666667,87.0666667 56.0666667,87.3 55.5,87.3 C54.7,87.3 54.1333333,87 53.8,86.4 L53.5,85.35 C53.5,83.95 54.1666667,83.3166667 55.5,83.45 C56.2666667,83.5166667 56.8166667,83.7666667 57.15,84.2 C56.8833333,84.5 56.75,84.9666667 56.75,85.6 L57,86.6 M37.75,85.1 C37.75,83.7666667 38.4166667,83.0833333 39.75,83.05 C41.0833333,83.05 41.75,83.75 41.75,85.15 C41.75,85.5166667 41.6,85.9 41.3,86.3 C40.9,86.8 40.3833333,87.05 39.75,87.05 C38.95,87.05 38.3833333,86.75 38.05,86.15 L37.75,85.1" id="Shape" fill="#9900FF" fill-rule="evenodd"></path>
        <path d="M45.5,74.85 C45.5,73.45 46.1666667,72.8166667 47.5,72.95 C48.8333333,73.05 49.5,73.7 49.5,74.9 C49.5,75.2333333 49.35,75.6 49.05,76 C48.6166667,76.5333333 48.1,76.8 47.5,76.8 C46.6666667,76.8 46.0833333,76.5 45.75,75.9 L45.5,74.85 M49.75,80.4 L49.5,79.35 C49.5,77.95 50.1666667,77.3166667 51.5,77.45 C52.8333333,77.55 53.5,78.2 53.5,79.4 C53.5,79.7333333 53.35,80.1 53.05,80.5 C52.6166667,81.0333333 52.1,81.3 51.5,81.3 C50.6666667,81.3 50.0833333,81 49.75,80.4 M54.5,74.85 C54.5,73.5166667 55.1666667,72.85 56.5,72.85 C57.8333333,72.8166667 58.5,73.5 58.5,74.9 C58.5,75.2333333 58.35,75.6 58.05,76 C57.6166667,76.5333333 57.1,76.8 56.5,76.8 C55.6666667,76.8 55.0833333,76.5 54.75,75.9 L54.5,74.85 M57.15,84.2 C57.4833333,83.8 58.0166667,83.6333333 58.75,83.7 C60.0833333,83.8333333 60.75,84.4833333 60.75,85.65 C60.75,86.0166667 60.6,86.4 60.3,86.8 C59.9,87.3 59.3833333,87.55 58.75,87.55 C57.95,87.55 57.3666667,87.2333333 57,86.6 L56.75,85.6 C56.75,84.9666667 56.8833333,84.5 57.15,84.2 M45,88.55 C44.2,88.55 43.6333333,88.25 43.3,87.65 L43,86.6 C43,85.1 43.7166667,84.2833333 45.15,84.15 C46.55,84.0166667 47.25,84.6833333 47.25,86.15 C47.25,86.4833333 47.0833333,86.9166667 46.75,87.45 C46.2833333,88.1833333 45.7,88.55 45,88.55" id="Shape" fill="#FFFFFF" fill-rule="evenodd"></path>
        <path d="M60.5,78.25 C61.5,81.3166667 62,83.6 62,85.1 C62,87.4333333 60.5166667,88.7166667 57.55,88.95 L51.75,88.8 L44.4,88.9 L41.85,89.05 C39.4166667,89.05 37.2166667,87.9833333 35.25,85.85 C33.75,84.2166667 33,83.05 33,82.35 L33.1,81.4 C33.2333333,81.0666667 33.5333333,80.7833333 34,80.55 L36.25,80.4 L38.5,80.05 L40.15,78.7 C41.25,77.9333333 42.45,77.5333333 43.75,77.5 C47.8166667,66.6333333 52.05,64.1 56.45,69.9 C57.9833333,71.9333333 59.3333333,74.7166667 60.5,78.25 Z" id="Path" stroke="#000000" stroke-width="2" stroke-linecap="round" stroke-linejoin="round"></path>
        <path d="M64.5,0.5 C71.1371964,0.5 77.1703096,3.08643606 81.6463623,7.30643681 C86.145496,11.5481982 89.0716779,17.4403333 89.456655,24.0152504 L89.4993974,59.5 L39.4870679,59.5 C39.3613577,57.0756491 38.3267661,54.8917373 36.7175144,53.2824856 C34.9983526,51.5633237 32.6233526,50.5 30,50.5 L19.5,50.5 C14.2532949,50.5 9.50329488,48.3733526 6.06497116,44.9350288 C2.62664744,41.4967051 0.5,36.7467051 0.5,31.5 L0.5,0.5 L64.5,0.5 Z" id="Path" stroke="#000000" stroke-width="1" fill="url(#radialGradient-1)" fill-rule="evenodd"></path>
    </g>
</svg>