<?xml version="1.0" encoding="UTF-8"?>
<svg width="33px" height="48px" viewBox="0 0 33 48" version="1.1" xmlns="http://www.w3.org/2000/svg" xmlns:xlink="http://www.w3.org/1999/xlink">
    <title>114 copy 2</title>
    <defs>
        <linearGradient x1="50%" y1="0%" x2="50%" y2="100%" id="linearGradient-1">
            <stop stop-color="#0107B6" offset="0%"></stop>
            <stop stop-color="#000000" offset="100%"></stop>
        </linearGradient>
        <linearGradient x1="50%" y1="0%" x2="50%" y2="100%" id="linearGradient-2">
            <stop stop-color="#FFDA65" offset="0%"></stop>
            <stop stop-color="#FFB435" offset="100%"></stop>
        </linearGradient>
    </defs>
    <g id="Page-1" stroke="none" stroke-width="1" fill="none" fill-rule="evenodd">
        <g id="114-copy-2">
            <path d="M30.65,22.95 C32.2166667,25.45 33,28.3 33,31.5 C33,36.0666667 31.4,39.9666667 28.2,43.2 C24.9666667,46.4 21.0666667,48 16.5,48 L14.2,47.85 C10.6,47.3833333 7.48333333,45.8333333 4.85,43.2 C1.61666667,39.9666667 0,36.0666667 0,31.5 C0,26.9333333 1.61666667,23.05 4.85,19.85 L4.95,19.8 L5.35,19.4 L5.65,18.9 L5.65,18.3 C5.21666667,16.9666667 5,15.5333333 5,14 C5,10.1333333 6.36666667,6.83333333 9.1,4.1 C11.8333333,1.36666667 15.1333333,0 19,0 C22.9,0 26.2,1.36666667 28.9,4.1 C31.0333333,6.23333333 32.35,8.71666667 32.85,11.55 L33,14 L32.85,16.2 C32.5833333,18.2666667 31.8666667,20.15 30.7,21.85 L30.5,22.4 C30.5,22.5666667 30.55,22.75 30.65,22.95 Z" id="Path-Copy-5" fill="url(#linearGradient-1)"></path>
            <path d="M12.2126269,19.8135151 L10.9090097,20.2046377 C10.4359044,20.3465829 9.93730747,20.0781246 9.79536228,19.6050193 C9.74506204,19.4373679 9.74506204,19.2586417 9.79536228,19.0909903 L10.1864849,17.7873731 C10.2427266,17.5999187 10.2427266,17.4000813 10.1864849,17.2126269 L9.79536228,15.9090097 C9.65341709,15.4359044 9.92187542,14.9373075 10.3949807,14.7953623 C10.5626321,14.745062 10.7413583,14.745062 10.9090097,14.7953623 L12.2126269,15.1864849 C12.4000813,15.2427266 12.5999187,15.2427266 12.7873731,15.1864849 L14.0909903,14.7953623 C14.5640956,14.6534171 15.0626925,14.9218754 15.2046377,15.3949807 C15.254938,15.5626321 15.254938,15.7413583 15.2046377,15.9090097 L14.8135151,17.2126269 C14.7572734,17.4000813 14.7572734,17.5999187 14.8135151,17.7873731 L15.2046377,19.0909903 C15.3465829,19.5640956 15.0781246,20.0626925 14.6050193,20.2046377 C14.4373679,20.254938 14.2586417,20.254938 14.0909903,20.2046377 L12.7873731,19.8135151 C12.5999187,19.7572734 12.4000813,19.7572734 12.2126269,19.8135151 Z" id="Star-Copy-4" fill="url(#linearGradient-2)" transform="translate(12.5, 17.5) rotate(-21) translate(-12.5, -17.5)"></path>
            <path d="M21.2126269,30.8135151 L19.9090097,31.2046377 C19.4359044,31.3465829 18.9373075,31.0781246 18.7953623,30.6050193 C18.745062,30.4373679 18.745062,30.2586417 18.7953623,30.0909903 L19.1864849,28.7873731 C19.2427266,28.5999187 19.2427266,28.4000813 19.1864849,28.2126269 L18.7953623,26.9090097 C18.6534171,26.4359044 18.9218754,25.9373075 19.3949807,25.7953623 C19.5626321,25.745062 19.7413583,25.745062 19.9090097,25.7953623 L21.2126269,26.1864849 C21.4000813,26.2427266 21.5999187,26.2427266 21.7873731,26.1864849 L23.0909903,25.7953623 C23.5640956,25.6534171 24.0626925,25.9218754 24.2046377,26.3949807 C24.254938,26.5626321 24.254938,26.7413583 24.2046377,26.9090097 L23.8135151,28.2126269 C23.7572734,28.4000813 23.7572734,28.5999187 23.8135151,28.7873731 L24.2046377,30.0909903 C24.3465829,30.5640956 24.0781246,31.0626925 23.6050193,31.2046377 C23.4373679,31.254938 23.2586417,31.254938 23.0909903,31.2046377 L21.7873731,30.8135151 C21.5999187,30.7572734 21.4000813,30.7572734 21.2126269,30.8135151 Z" id="Star-Copy" fill="url(#linearGradient-2)" transform="translate(21.5, 28.5) rotate(-4) translate(-21.5, -28.5)"></path>
            <path d="M9.21262686,40.8135151 L7.90900974,41.2046377 C7.43590442,41.3465829 6.93730747,41.0781246 6.79536228,40.6050193 C6.74506204,40.4373679 6.74506204,40.2586417 6.79536228,40.0909903 L7.18648488,38.7873731 C7.2427266,38.5999187 7.2427266,38.4000813 7.18648488,38.2126269 L6.79536228,36.9090097 C6.65341709,36.4359044 6.92187542,35.9373075 7.39498073,35.7953623 C7.56263214,35.745062 7.74135833,35.745062 7.90900974,35.7953623 L9.21262686,36.1864849 C9.40008131,36.2427266 9.59991869,36.2427266 9.78737314,36.1864849 L11.0909903,35.7953623 C11.5640956,35.6534171 12.0626925,35.9218754 12.2046377,36.3949807 C12.254938,36.5626321 12.254938,36.7413583 12.2046377,36.9090097 L11.8135151,38.2126269 C11.7572734,38.4000813 11.7572734,38.5999187 11.8135151,38.7873731 L12.2046377,40.0909903 C12.3465829,40.5640956 12.0781246,41.0626925 11.6050193,41.2046377 C11.4373679,41.254938 11.2586417,41.254938 11.0909903,41.2046377 L9.78737314,40.8135151 C9.59991869,40.7572734 9.40008131,40.7572734 9.21262686,40.8135151 Z" id="Star-Copy-3" fill="url(#linearGradient-2)" transform="translate(9.5, 38.5) rotate(38) translate(-9.5, -38.5)"></path>
        </g>
    </g>
</svg>