<?xml version="1.0" encoding="UTF-8"?>
<svg width="161px" height="120px" viewBox="0 0 161 120" version="1.1" xmlns="http://www.w3.org/2000/svg" xmlns:xlink="http://www.w3.org/1999/xlink">
    <title>194 copy 3</title>
    <defs>
        <linearGradient x1="99.9712%" y1="49.9975534%" x2="0.0288%" y2="49.9975534%" id="linearGradient-1">
            <stop stop-color="#999999" offset="0%"></stop>
            <stop stop-color="#848484" offset="100%"></stop>
        </linearGradient>
        <linearGradient x1="99.9712%" y1="49.9975534%" x2="0.0288%" y2="49.9975534%" id="linearGradient-2">
            <stop stop-color="#999999" offset="0%"></stop>
            <stop stop-color="#848484" offset="100%"></stop>
        </linearGradient>
    </defs>
    <g id="Page-1" stroke="none" stroke-width="1" fill="none" fill-rule="evenodd">
        <g id="194-copy-3">
            <path d="M90.45,59.9970642 L90,59.9970642 L90,49.9970642 L50,49.9970642 L50,0.14706422 L90.05,0.0970642202 C122.283333,-1.43626911 138.933333,15.1970642 140,49.9970642 L140,59.9970642 L90.45,59.9970642" id="Path" fill="url(#linearGradient-1)"></path>
            <path d="M40,49.9970642 L0,49.9970642 L0,0.14706422 L40.05,0.0970642202 C72.2833333,-1.43626911 88.9333333,15.1970642 90,49.9970642 L90,119.997064 L40.05,119.997064 L40,49.9970642 Z" id="Path-Copy-6" fill="url(#linearGradient-2)" transform="translate(45, 59.9985) scale(-1, 1) translate(-45, -59.9985)"></path>
            <path d="M140,59.9970642 L141.5,59.9970642 C146.833333,60.1303976 151.383333,62.0803976 155.15,65.8470642 C158.916667,69.6137309 160.866667,74.1637309 161,79.4970642 L161,90.5470642 C160.866667,95.8470642 158.916667,100.380398 155.15,104.147064 C151.383333,107.913731 146.833333,109.863731 141.5,109.997064 L140,109.997064 L90.5,109.997064 C85.2,109.897064 80.65,107.947064 76.85,104.147064 C73.0833333,100.380398 71.1333333,95.8470642 71,90.5470642 L71,79.4970642 C71.1333333,74.1637309 73.0833333,69.6137309 76.85,65.8470642 C80.6166667,62.0803976 85.15,60.1303976 90.45,59.9970642 L140,59.9970642 Z" id="Path" fill="#66A1FF"></path>
            <polyline id="Path" fill="#999999" points="140 109.997064 140 119.997064 90 119.997064 89.05 109.997064 90.5 109.997064 140 109.997064"></polyline>
            <path d="M99.05,76.1276 L99.5,75.0276 C99.5,73.8276 98.8333333,73.1776 97.5,73.0776 C96.1666667,72.9442667 95.5,73.5776 95.5,74.9776 L95.75,76.0276 C96.0833333,76.6276 96.6666667,76.9276 97.5,76.9276 C98.1,76.9276 98.6166667,76.6609333 99.05,76.1276 M100.5,74.2276 C100.5,74.5609333 100.6,74.9109333 100.8,75.2776 C101.133333,75.8776 101.7,76.1776 102.5,76.1776 C103.1,76.1776 103.616667,75.9109333 104.05,75.3776 L104.5,74.2776 C104.5,73.0776 103.833333,72.4276 102.5,72.3276 C101.166667,72.1942667 100.5,72.8276 100.5,74.2276 M107,86.7276 C107.366667,87.3609333 107.95,87.6776 108.75,87.6776 C109.383333,87.6776 109.9,87.4276 110.3,86.9276 L110.75,85.7776 C110.75,84.6109333 110.083333,83.9609333 108.75,83.8276 C108.016667,83.7609333 107.483333,83.9276 107.15,84.3276 C106.816667,83.8942667 106.266667,83.6442667 105.5,83.5776 C104.166667,83.4442667 103.5,84.0776 103.5,85.4776 C103.5,85.8109333 103.6,86.1609333 103.8,86.5276 C104.133333,87.1276 104.7,87.4276 105.5,87.4276 C106.066667,87.4276 106.566667,87.1942667 107,86.7276 M104.75,76.0276 C105.083333,76.6276 105.666667,76.9276 106.5,76.9276 C107.1,76.9276 107.616667,76.6609333 108.05,76.1276 L108.5,75.0276 C108.5,73.6276 107.833333,72.9442667 106.5,72.9776 C105.166667,72.9776 104.5,73.6442667 104.5,74.9776 C104.5,75.3442667 104.583333,75.6942667 104.75,76.0276 M108.8,81.6776 L109.25,80.5276 C109.25,79.3609333 108.583333,78.7109333 107.25,78.5776 C105.916667,78.4442667 105.25,79.0776 105.25,80.4776 L105.5,81.4776 C105.866667,82.1109333 106.45,82.4276 107.25,82.4276 C107.883333,82.4276 108.4,82.1776 108.8,81.6776 M112,85.2276 C112,87.5609333 110.516667,88.8442667 107.55,89.0776 L101.75,88.9276 L94.4,89.0276 L91.85,89.1776 C89.4166667,89.1776 87.2166667,88.1109333 85.25,85.9776 C83.75,84.3442667 83,83.1776 83,82.4776 L83.1,81.5276 C83.2333333,81.1942667 83.5333333,80.9109333 84,80.6776 L86.25,80.5276 L88.5,80.1776 L90.15,78.8276 C91.25,78.0609333 92.45,77.6609333 93.75,77.6276 C97.8166667,66.7609333 102.05,64.2276 106.45,70.0276 C107.983333,72.0609333 109.333333,74.8442667 110.5,78.3776 C111.5,81.4442667 112,83.7276 112,85.2276 M103.05,80.6276 L103.5,79.5276 C103.5,78.3276 102.833333,77.6776 101.5,77.5776 C100.166667,77.4442667 99.5,78.0776 99.5,79.4776 L99.75,80.5276 C100.083333,81.1276 100.666667,81.4276 101.5,81.4276 C102.1,81.4276 102.616667,81.1609333 103.05,80.6276 M87.75,85.2276 L88.05,86.2776 C88.3833333,86.8776 88.95,87.1776 89.75,87.1776 C90.3833333,87.1776 90.9,86.9276 91.3,86.4276 C91.6,86.0276 91.75,85.6442667 91.75,85.2776 C91.75,83.8776 91.0833333,83.1776 89.75,83.1776 C88.4166667,83.2109333 87.75,83.8942667 87.75,85.2276 M95.75,80.5276 C95.75,79.3609333 95.0833333,78.7109333 93.75,78.5776 C92.4166667,78.4442667 91.75,79.0776 91.75,80.4776 L92,81.4776 C92.3666667,82.1109333 92.95,82.4276 93.75,82.4276 C94.3833333,82.4276 94.9,82.1776 95.3,81.6776 C95.6,81.2776 95.75,80.8942667 95.75,80.5276 M100.5,83.0276 C100.5,81.8609333 99.8333333,81.2109333 98.5,81.0776 C97.1666667,80.9442667 96.5,81.5776 96.5,82.9776 L96.75,84.0276 C97.0833333,84.6276 97.6666667,84.9276 98.5,84.9276 C99.1333333,84.9276 99.65,84.6776 100.05,84.1776 L100.5,83.0276 M96.75,87.5776 C97.0833333,87.0442667 97.25,86.6109333 97.25,86.2776 C97.25,84.8109333 96.55,84.1442667 95.15,84.2776 C93.7166667,84.4109333 93,85.2276 93,86.7276 L93.3,87.7776 C93.6333333,88.3776 94.2,88.6776 95,88.6776 C95.7,88.6776 96.2833333,88.3109333 96.75,87.5776" id="Shape" fill="#0099FF"></path>
            <path d="M100.5,74.2276 C100.5,72.8276 101.166667,72.1942667 102.5,72.3276 C103.833333,72.4276 104.5,73.0776 104.5,74.2776 L104.05,75.3776 C103.616667,75.9109333 103.1,76.1776 102.5,76.1776 C101.7,76.1776 101.133333,75.8776 100.8,75.2776 C100.6,74.9109333 100.5,74.5609333 100.5,74.2276 M107,86.7276 C106.566667,87.1942667 106.066667,87.4276 105.5,87.4276 C104.7,87.4276 104.133333,87.1276 103.8,86.5276 C103.6,86.1609333 103.5,85.8109333 103.5,85.4776 C103.5,84.0776 104.166667,83.4442667 105.5,83.5776 C106.266667,83.6442667 106.816667,83.8942667 107.15,84.3276 C106.883333,84.6276 106.75,85.0942667 106.75,85.7276 L107,86.7276 M108.8,81.6776 C108.4,82.1776 107.883333,82.4276 107.25,82.4276 C106.45,82.4276 105.866667,82.1109333 105.5,81.4776 L105.25,80.4776 C105.25,79.0776 105.916667,78.4442667 107.25,78.5776 C108.583333,78.7109333 109.25,79.3609333 109.25,80.5276 L108.8,81.6776 M100.5,83.0276 L100.05,84.1776 C99.65,84.6776 99.1333333,84.9276 98.5,84.9276 C97.6666667,84.9276 97.0833333,84.6276 96.75,84.0276 L96.5,82.9776 C96.5,81.5776 97.1666667,80.9442667 98.5,81.0776 C99.8333333,81.2109333 100.5,81.8609333 100.5,83.0276 M95.75,80.5276 C95.75,80.8942667 95.6,81.2776 95.3,81.6776 C94.9,82.1776 94.3833333,82.4276 93.75,82.4276 C92.95,82.4276 92.3666667,82.1109333 92,81.4776 L91.75,80.4776 C91.75,79.0776 92.4166667,78.4442667 93.75,78.5776 C95.0833333,78.7109333 95.75,79.3609333 95.75,80.5276 M87.75,85.2276 C87.75,83.8942667 88.4166667,83.2109333 89.75,83.1776 C91.0833333,83.1776 91.75,83.8776 91.75,85.2776 C91.75,85.6442667 91.6,86.0276 91.3,86.4276 C90.9,86.9276 90.3833333,87.1776 89.75,87.1776 C88.95,87.1776 88.3833333,86.8776 88.05,86.2776 L87.75,85.2276" id="Shape" fill="#006699"></path>
            <path d="M99.05,76.1276 C98.6166667,76.6609333 98.1,76.9276 97.5,76.9276 C96.6666667,76.9276 96.0833333,76.6276 95.75,76.0276 L95.5,74.9776 C95.5,73.5776 96.1666667,72.9442667 97.5,73.0776 C98.8333333,73.1776 99.5,73.8276 99.5,75.0276 L99.05,76.1276 M104.75,76.0276 C104.583333,75.6942667 104.5,75.3442667 104.5,74.9776 C104.5,73.6442667 105.166667,72.9776 106.5,72.9776 C107.833333,72.9442667 108.5,73.6276 108.5,75.0276 L108.05,76.1276 C107.616667,76.6609333 107.1,76.9276 106.5,76.9276 C105.666667,76.9276 105.083333,76.6276 104.75,76.0276 M107.15,84.3276 C107.483333,83.9276 108.016667,83.7609333 108.75,83.8276 C110.083333,83.9609333 110.75,84.6109333 110.75,85.7776 L110.3,86.9276 C109.9,87.4276 109.383333,87.6776 108.75,87.6776 C107.95,87.6776 107.366667,87.3609333 107,86.7276 L106.75,85.7276 C106.75,85.0942667 106.883333,84.6276 107.15,84.3276 M103.05,80.6276 C102.616667,81.1609333 102.1,81.4276 101.5,81.4276 C100.666667,81.4276 100.083333,81.1276 99.75,80.5276 L99.5,79.4776 C99.5,78.0776 100.166667,77.4442667 101.5,77.5776 C102.833333,77.6776 103.5,78.3276 103.5,79.5276 L103.05,80.6276 M96.75,87.5776 C96.2833333,88.3109333 95.7,88.6776 95,88.6776 C94.2,88.6776 93.6333333,88.3776 93.3,87.7776 L93,86.7276 C93,85.2276 93.7166667,84.4109333 95.15,84.2776 C96.55,84.1442667 97.25,84.8109333 97.25,86.2776 C97.25,86.6109333 97.0833333,87.0442667 96.75,87.5776" id="Shape" fill="#CCFFFF"></path>
            <path d="M112,85.2276 C112,87.5609333 110.516667,88.8442667 107.55,89.0776 L101.75,88.9276 L94.4,89.0276 L91.85,89.1776 C89.4166667,89.1776 87.2166667,88.1109333 85.25,85.9776 C83.75,84.3442667 83,83.1776 83,82.4776 L83.1,81.5276 C83.2333333,81.1942667 83.5333333,80.9109333 84,80.6776 L86.25,80.5276 L88.5,80.1776 L90.15,78.8276 C91.25,78.0609333 92.45,77.6609333 93.75,77.6276 C97.8166667,66.7609333 102.05,64.2276 106.45,70.0276 C107.983333,72.0609333 109.333333,74.8442667 110.5,78.3776 C111.5,81.4442667 112,83.7276 112,85.2276 Z" id="Path" stroke="#000000" stroke-width="2" stroke-linecap="round" stroke-linejoin="round"></path>
        </g>
    </g>
</svg>