<?xml version="1.0" encoding="UTF-8"?>
<svg width="190px" height="158px" viewBox="0 0 190 158" version="1.1" xmlns="http://www.w3.org/2000/svg" xmlns:xlink="http://www.w3.org/1999/xlink">
    <title>110 copy 3</title>
    <g id="Page-1" stroke="none" stroke-width="1" fill="none" fill-rule="evenodd">
        <g id="110-copy-3" transform="translate(2, 2)">
            <path d="M3.13705502,91.8194789 L0.187055016,66.9194789 C-0.946278317,57.2861456 3.07038835,51.7194789 12.237055,50.2194789 C62.837055,40.7528122 112.670388,24.5694789 161.737055,1.66947891 C170.537055,-2.19718776 175.537055,0.652812242 176.737055,10.2194789 L179.737055,35.2194789 C122.037055,64.0528122 63.1703883,82.9194789 3.13705502,91.8194789 M185.437055,84.5694789 C186.503722,94.0694789 182.653722,101.002812 173.887055,105.369479 C125.020388,129.902812 75.1537217,145.752812 24.287055,152.919479 C15.1537217,154.519479 10.0037217,150.602812 8.83705502,141.169479 C68.9037217,133.369479 127.770388,114.502812 185.437055,84.5694789" id="Shape" fill="#FE00B7"></path>
            <path d="M3.13705502,91.8194789 C63.1703883,82.9194789 122.037055,64.0528122 179.737055,35.2194789 L185.437055,84.5694789 C127.770388,114.502812 68.9037217,133.369479 8.83705502,141.169479 L3.13705502,91.8194789" id="Shape" fill="#FFFFFF"></path>
            <path d="M179.737055,35.2194789 L176.737055,10.2194789 C175.537055,0.652812242 170.537055,-2.19718776 161.737055,1.66947891 C112.670388,24.5694789 62.837055,40.7528122 12.237055,50.2194789 C3.07038835,51.7194789 -0.946278317,57.2861456 0.187055016,66.9194789 L3.13705502,91.8194789 L8.83705502,141.169479 C10.0037217,150.602812 15.1537217,154.519479 24.287055,152.919479 C75.1537217,145.752812 125.020388,129.902812 173.887055,105.369479 C182.653722,101.002812 186.503722,94.0694789 185.437055,84.5694789 L179.737055,35.2194789 Z" id="Path" stroke="#000000" stroke-width="4" stroke-linecap="round" stroke-linejoin="round"></path>
            <path d="M46.3389107,71.4008518 L38.0261439,73.2484927 L37.4667663,70.7317835 L39.7928158,70.2147831 L37.7565968,61.0535802 L35.4305474,61.5705806 L34.8711699,59.0538714 L43.1839367,57.2062305 L43.7433142,59.7229397 L41.4172648,60.2399401 L43.4534837,69.401143 L45.7795332,68.8841426 L46.3389107,71.4008518 Z M49.9475305,54.8210498 L48.5897123,61.0913851 L46.3731459,61.647058 L46.4616483,55.6949287 L49.9475305,54.8210498 Z M63.7689288,58.6519915 L65.8629813,66.1380636 L62.4585113,67.0903839 L60.9826779,61.8143959 C60.8388652,61.3002771 60.7039973,60.8664702 60.5780741,60.5129753 C60.4521509,60.1594804 60.301193,59.8856619 60.1252004,59.6915198 C59.9492077,59.4973777 59.7323197,59.3805884 59.4745362,59.3411518 C59.2167527,59.3017152 58.8809595,59.3398727 58.4671565,59.4556244 C58.1348601,59.5485765 57.8308219,59.7062975 57.5550418,59.9287876 C57.2792617,60.1512777 57.0370225,60.3728359 56.8283243,60.5934623 L58.9223768,68.0795343 L55.536716,69.0265932 L52.5824184,58.4652127 L55.9680792,57.5181538 L56.2942883,58.6843258 C56.749346,58.06353 57.2073857,57.5500654 57.6684075,57.1439319 C58.1294292,56.7377984 58.6828318,56.4444103 59.3286153,56.2637675 C60.0245567,56.0690943 60.6823982,56.0523968 61.3021401,56.2136749 C61.9218819,56.3749531 62.4664096,56.7144483 62.9357232,57.2321605 C63.4532584,56.4722022 63.9861837,55.8397653 64.5344992,55.3348498 C65.0828146,54.8299343 65.6641897,54.4915397 66.2786244,54.3196661 C67.4197175,54.0004722 68.3820921,54.0997085 69.1657483,54.6173751 C69.9494045,55.1350417 70.5209985,56.0365235 70.8805301,57.3218206 L72.8035858,64.1965928 L69.3991158,65.1489132 L67.9232824,59.8729252 C67.7777159,59.3525366 67.643977,58.9167238 67.5220655,58.5654869 C67.4001541,58.2142499 67.2512021,57.9415604 67.0752095,57.7474183 C66.9054866,57.5515224 66.690166,57.4342946 66.4292476,57.395735 C66.1683292,57.3571753 65.8278337,57.3966482 65.407761,57.5141536 C65.1256226,57.5930752 64.863346,57.7188335 64.6209312,57.8914284 C64.3785164,58.0640234 64.0945156,58.3175444 63.7689288,58.6519915 Z M92.4771363,53.5446473 C92.8855395,54.9174788 92.6354738,56.2060116 91.7269392,57.4102459 C90.8184046,58.6144801 89.3657144,59.5136178 87.3688687,60.1076589 C86.2144422,60.4510889 85.178053,60.6490276 84.2597011,60.701475 C83.3413491,60.7539224 82.4613551,60.7355253 81.619719,60.6462835 L80.6256283,57.304687 L81.0187573,57.1877351 C81.9376903,57.5596397 82.904705,57.7678077 83.9198014,57.8122391 C84.9348978,57.8566706 85.8667757,57.7526526 86.7154351,57.5001851 C86.9338401,57.4352119 87.2153176,57.331098 87.5598675,57.1878436 C87.9044173,57.0445892 88.1760202,56.8958661 88.374676,56.7416745 C88.6158275,56.5476713 88.8002642,56.3399744 88.927986,56.1185837 C89.0557079,55.8971931 89.0703748,55.6211339 88.9719867,55.2904064 C88.8810242,54.9846394 88.6731092,54.7595132 88.3482419,54.6150278 C88.0233745,54.4705424 87.5936995,54.4132735 87.0592169,54.4432211 C86.4979173,54.474354 85.9092975,54.522105 85.2933575,54.5864738 C84.6774175,54.6508427 84.0885406,54.6748968 83.5267266,54.6586359 C82.2403406,54.6269864 81.242746,54.3616897 80.5339426,53.862746 C79.8251393,53.3638023 79.3268683,52.6307194 79.0391296,51.6634972 C78.6530029,50.3655475 78.919776,49.1331759 79.8394489,47.9663825 C80.7591218,46.7995891 82.1331392,45.944233 83.961501,45.4003141 C84.8788021,45.1274265 85.8116362,44.9467095 86.7600035,44.8581633 C87.7083708,44.769617 88.5500741,44.7620471 89.2851134,44.8354535 L90.2402201,48.0460071 L89.8564513,48.1601744 C89.1611792,47.8779581 88.3613566,47.7066553 87.4569836,47.6462657 C86.5526106,47.5858762 85.6760944,47.6819151 84.827435,47.9343826 C84.5279081,48.0234888 84.2359745,48.1324113 83.9516342,48.2611502 C83.6672938,48.3898891 83.4045479,48.5512602 83.1633965,48.7452634 C82.9478766,48.9112643 82.7810644,49.1154163 82.6629599,49.3577192 C82.5448555,49.6000222 82.5220026,49.8428564 82.5944014,50.086222 C82.7039277,50.4543905 82.928332,50.6949884 83.2676144,50.8080159 C83.6068968,50.9210433 84.1906798,50.9426553 85.0189635,50.8728517 C85.5622137,50.8267111 86.0842552,50.7834836 86.585088,50.7431694 C87.0859209,50.7028551 87.6337728,50.6893075 88.2286438,50.7025265 C89.3996655,50.7345338 90.3290324,50.9759769 91.0167446,51.4268559 C91.7044567,51.8777348 92.191254,52.5836653 92.4771363,53.5446473 Z M104.97914,48.4323808 C105.538316,50.1468842 105.479088,51.6607606 104.801457,52.9740102 C104.123826,54.2872598 102.881337,55.2386125 101.073991,55.8280683 C99.2666444,56.4175241 97.7021755,56.3816447 96.3805842,55.7204302 C95.0589929,55.0592156 94.1186095,53.8713567 93.5594339,52.1568534 C92.996221,50.429971 93.0570295,48.910443 93.7418594,47.5982695 C94.4266893,46.286096 95.6665879,45.3373001 97.4615553,44.7518816 C99.2812808,44.1583884 100.849349,44.1948058 102.16576,44.8611338 C103.482171,45.5274618 104.419965,46.7178775 104.97914,48.4323808 Z M101.69284,52.3084143 C101.822671,51.97161 101.880679,51.5983107 101.866866,51.1885164 C101.853053,50.7787221 101.738146,50.2426844 101.522147,49.5804033 C101.322297,48.9676386 101.099041,48.4720747 100.852377,48.0937117 C100.605713,47.7153486 100.342975,47.4346752 100.064163,47.2516914 C99.7833311,47.062518 99.4864919,46.9607407 99.1736448,46.9463592 C98.8607978,46.9319778 98.5434461,46.9772729 98.2215899,47.0822444 C97.8997337,47.187216 97.6275981,47.323907 97.4051832,47.4923173 C97.1827683,47.6607276 96.9994467,47.9122588 96.8552184,48.2469109 C96.7296922,48.5549197 96.6752163,48.9390507 96.6917907,49.3993039 C96.7083652,49.8595572 96.8206146,50.4084452 97.0285391,51.0459681 C97.2142581,51.6154061 97.4278593,52.0918633 97.6693427,52.4753398 C97.9108261,52.8588163 98.1750783,53.1441319 98.4620992,53.3312865 C98.7388933,53.5080808 99.0331758,53.6072681 99.3449468,53.6288484 C99.6567177,53.6504287 99.9890052,53.6036864 100.341809,53.4886214 C100.645097,53.3897058 100.917804,53.2442686 101.15993,53.0523097 C101.402056,52.8603508 101.579693,52.6123857 101.69284,52.3084143 Z M113.982153,42.939048 L113.687851,43.0441314 C113.529317,43.0454335 113.289324,43.0896475 112.967871,43.1767734 C112.646418,43.2638993 112.381459,43.3446793 112.172995,43.4191134 C111.700886,43.5876846 111.294904,43.7672092 110.95505,43.9576871 C110.615196,44.148165 110.263076,44.3914136 109.89869,44.6874327 L112.368149,51.6035324 L109.05725,52.7857204 L105.36948,42.4575555 L108.680379,41.2753676 L109.222215,42.7928629 C109.728537,41.9069517 110.214805,41.2649705 110.68102,40.8669193 C111.147234,40.4688681 111.607199,40.1888407 112.060915,40.0268372 C112.17741,39.9852417 112.310327,39.9412387 112.459667,39.8948283 C112.609008,39.8484179 112.741049,39.8116409 112.85579,39.7844972 L113.982153,42.939048 Z M121.794478,36.2629717 L123.014283,39.3825808 L122.72324,39.4963818 C122.564816,39.5024043 122.326246,39.5537457 122.00753,39.6504057 C121.688814,39.7470657 121.426379,39.8357002 121.220224,39.9163093 C120.753343,40.098865 120.352888,40.2904 120.018857,40.4909141 C119.684826,40.6914283 119.340106,40.945055 118.984697,41.2517942 L121.65902,48.0912868 L118.384794,49.3715479 L114.391091,39.1577842 L117.665317,37.8775232 L118.252103,39.3782097 C118.731818,38.4776134 119.198752,37.821436 119.652906,37.4096776 C120.10706,36.9979193 120.558482,36.7043185 121.007172,36.5288753 C121.122376,36.4838291 121.253925,36.4358874 121.401817,36.3850503 C121.549709,36.3342132 121.680596,36.2935203 121.794478,36.2629717 Z M133.416919,31.204571 L133.772191,47.3821696 L130.276322,48.8935559 L130.244225,44.438962 L122.006045,36.1378908 L125.394349,34.6730087 L130.619105,40.1382337 L130.100326,32.6384503 L133.416919,31.204571 Z M141.961574,35.1790716 L141.818208,43.4167307 L139.832818,44.3115795 L138.52498,36.7280027 L141.961574,35.1790716 Z" id="Combined-Shape" fill="#FFFFFF" fill-rule="nonzero"></path>
            <path d="M71.7327656,132.47634 L71.7861282,138.485752 L70.9450237,138.712352 L68.5085069,134.368498 L68.6102986,139.341344 L67.7880529,139.562864 L64.7889387,134.34706 L65.5546078,134.140783 L67.9931568,138.49218 L67.8968764,133.509758 L68.655002,133.305513 L71.0982012,137.704204 L71.0010424,132.673472 L71.7327656,132.47634 Z M77.5594012,136.880261 L76.8561657,137.077857 L76.7304225,136.630344 C76.6797211,136.690575 76.6118377,136.773893 76.5267724,136.880298 C76.4417071,136.986703 76.3553729,137.076558 76.2677697,137.149863 C76.1661392,137.240635 76.0443176,137.326936 75.9023046,137.408767 C75.7602917,137.490597 75.5864951,137.560395 75.3809146,137.618159 C75.0023458,137.72453 74.6462175,137.689345 74.3125299,137.512604 C73.9788422,137.335863 73.757404,137.053194 73.6482152,136.664596 C73.5587508,136.346197 73.5546871,136.069399 73.636024,135.834201 C73.717361,135.599003 73.8687869,135.389421 74.0903019,135.205453 C74.3143239,135.020782 74.5999555,134.858021 74.9471966,134.717173 C75.2944377,134.576324 75.670821,134.438107 76.0763463,134.302521 L76.045703,134.193463 C76.0006186,134.03301 75.9350784,133.90806 75.8490825,133.818613 C75.7630866,133.729166 75.6589867,133.66915 75.5367827,133.638567 C75.4202974,133.609082 75.2890387,133.604036 75.1430068,133.623428 C74.9969748,133.64282 74.8474929,133.674002 74.6945612,133.716973 C74.5090373,133.769102 74.3090717,133.851662 74.0946642,133.964655 C73.8802567,134.077647 73.6644919,134.21469 73.4473697,134.375783 L73.4097635,134.386349 L73.2079403,133.668071 C73.335263,133.591721 73.5229524,133.494351 73.7710086,133.375961 C74.0190647,133.257572 74.2697003,133.162802 74.5229152,133.091654 C74.8187505,133.008529 75.0832211,132.960592 75.3163272,132.947841 C75.5494332,132.93509 75.7627672,132.965089 75.9563291,133.037837 C76.1466794,133.108783 76.3089336,133.22414 76.4430916,133.383911 C76.5772496,133.543681 76.6823686,133.758948 76.7584485,134.029712 L77.5594012,136.880261 Z M76.5655826,136.043687 L76.2369595,134.874135 C76.024873,134.947253 75.7763146,135.037381 75.4912844,135.144519 C75.2062542,135.251658 74.9851906,135.352995 74.8280937,135.448532 C74.6412226,135.563255 74.5021928,135.699024 74.4110044,135.855839 C74.319816,136.012655 74.3041607,136.197614 74.3640384,136.410715 C74.431665,136.651395 74.5552664,136.812102 74.7348425,136.892838 C74.9144185,136.973573 75.1533778,136.972027 75.4517201,136.888198 C75.6999209,136.818458 75.9132509,136.706445 76.0917103,136.552158 C76.2701696,136.397871 76.4281271,136.228381 76.5655826,136.043687 Z M81.5510401,134.421307 C81.6614017,134.804155 81.5936581,135.163814 81.3478093,135.500284 C81.1019606,135.836754 80.705037,136.083973 80.1570386,136.241942 C79.8467564,136.331385 79.551483,136.376526 79.2712186,136.377393 C78.9909542,136.378205 78.7506192,136.360081 78.5502138,136.322993 L78.3219167,135.531023 L78.3594509,135.520203 C78.6304817,135.623658 78.9166172,135.685494 79.2178573,135.70571 C79.5190975,135.725927 79.7948313,135.699969 80.0450589,135.627837 C80.3553411,135.538394 80.5836355,135.41838 80.7299421,135.267797 C80.8762487,135.117214 80.9183854,134.934324 80.856352,134.719129 C80.8087451,134.553978 80.7251359,134.44257 80.6055246,134.384902 C80.4859134,134.327235 80.282329,134.307325 79.9947716,134.325173 C79.8881887,134.331505 79.7498709,134.34292 79.5798183,134.359418 C79.4097657,134.375915 79.2533799,134.385763 79.1106608,134.388961 C78.7146949,134.397406 78.4125371,134.329348 78.2041877,134.184788 C77.9958382,134.040227 77.851991,133.830321 77.7726461,133.555071 C77.7228751,133.382414 77.7116469,133.209487 77.7389614,133.036291 C77.7662759,132.863094 77.8351875,132.695523 77.9456962,132.533578 C78.0519218,132.375577 78.2033398,132.230973 78.3999505,132.099767 C78.5965611,131.96856 78.8287382,131.864366 79.0964817,131.787185 C79.3467093,131.715053 79.6089008,131.672673 79.8830564,131.660044 C80.157212,131.647414 80.3919902,131.660365 80.5873911,131.698895 L80.8048684,132.453331 L80.7673343,132.464151 C80.5489405,132.383465 80.2977124,132.334603 80.0136499,132.317566 C79.7295874,132.300529 79.4636935,132.327715 79.2159682,132.399126 C78.9582338,132.473421 78.7547818,132.585596 78.6056122,132.735649 C78.4564427,132.885703 78.4099893,133.058318 78.4662521,133.253496 C78.516023,133.426153 78.6073305,133.540763 78.7401745,133.597326 C78.8705162,133.65461 79.0612285,133.676876 79.3123114,133.664122 C79.4510856,133.656641 79.605499,133.644651 79.7755516,133.628153 C79.9456042,133.611656 80.088036,133.60041 80.2028471,133.594416 C80.5522847,133.574992 80.8421625,133.631006 81.0724803,133.762458 C81.3035194,133.896413 81.4630393,134.116029 81.5510401,134.421307 Z M89.3715889,131.549136 C89.4541569,131.826155 89.4746458,132.086352 89.4330554,132.329726 C89.3914651,132.5731 89.3025297,132.789824 89.1662493,132.9799 C89.0057076,133.207098 88.8104434,133.393015 88.5804567,133.537651 C88.35047,133.682287 88.0420623,133.812254 87.6552336,133.927552 L85.678664,134.516686 L84.0172617,128.94261 L85.6681466,128.450549 C86.0749406,128.329301 86.3838753,128.253524 86.5949507,128.22322 C86.8060262,128.192916 87.0180369,128.197658 87.2309829,128.237449 C87.4676135,128.283766 87.6572039,128.377392 87.7997539,128.518327 C87.9423039,128.659262 88.0485402,128.847026 88.1184626,129.081619 C88.1973113,129.34616 88.1970613,129.591478 88.1177124,129.817574 C88.0383636,130.043669 87.9031208,130.246343 87.7119842,130.425595 L87.7209105,130.455543 C88.120816,130.420587 88.467081,130.497406 88.7597056,130.686001 C89.0523301,130.874596 89.2562912,131.162308 89.3715889,131.549136 Z M87.3763114,129.408802 C87.3361431,129.274036 87.2798367,129.167177 87.207392,129.088227 C87.1349473,129.009277 87.0402572,128.955978 86.9233218,128.928332 C86.7859412,128.89591 86.6312285,128.896508 86.4591836,128.930124 C86.2871388,128.963741 86.0775807,129.01737 85.8305095,129.091012 L84.9470428,129.354337 L85.4268299,130.964043 L86.3851667,130.678402 C86.6172639,130.609224 86.79841,130.542324 86.9286052,130.477703 C87.0588003,130.413082 87.1713883,130.325856 87.266369,130.216025 C87.3613498,130.106193 87.4155064,129.984753 87.4288387,129.851704 C87.4421711,129.718654 87.424662,129.57102 87.3763114,129.408802 Z M88.6093535,131.808936 C88.5424065,131.584326 88.4555293,131.415927 88.3487219,131.303741 C88.2419144,131.191555 88.0861532,131.115698 87.881438,131.076172 C87.7430495,131.049486 87.5855891,131.052261 87.4090569,131.084497 C87.2325247,131.116734 87.0219708,131.169301 86.7773953,131.242199 L85.6131658,131.589208 L86.2313101,133.663109 L87.2121079,133.370773 C87.5365449,133.274072 87.7973125,133.178006 87.994411,133.082574 C88.1915094,132.987142 88.3428045,132.874792 88.4482961,132.745524 C88.5590432,132.606537 88.628264,132.464982 88.6559586,132.320858 C88.6836532,132.176734 88.6681182,132.006094 88.6093535,131.808936 Z M93.7842158,129.79836 C93.9909388,130.478579 93.9797062,131.068534 93.7505179,131.568226 C93.5213296,132.067917 93.1139672,132.406737 92.5284308,132.584686 C91.9379111,132.764148 91.4090382,132.709856 90.9418119,132.42181 C90.4745856,132.133763 90.137611,131.64963 89.930888,130.969412 C89.724165,130.289193 89.7345854,129.698804 89.9621493,129.198245 C90.1897132,128.697686 90.5987549,128.357675 91.1892746,128.178213 C91.774811,128.000264 92.3020046,128.055747 92.7708553,128.344661 C93.239706,128.633575 93.5774928,129.118141 93.7842158,129.79836 Z M93.0591474,130.018713 C92.8948291,129.478026 92.6668313,129.108431 92.3751541,128.909926 C92.0834769,128.711422 91.7495191,128.669341 91.3732808,128.783682 C90.9920593,128.899538 90.7361202,129.120893 90.6054638,129.447747 C90.4748073,129.774601 90.4916382,130.208372 90.6559565,130.749059 C90.8149742,131.272304 91.0414575,131.636916 91.3354064,131.842895 C91.6293553,132.048874 91.9656947,132.094314 92.3444246,131.979216 C92.7181713,131.865632 92.9708614,131.642543 93.1024951,131.309948 C93.2341288,130.977353 93.2196795,130.546942 93.0591474,130.018713 Z M97.0592562,127.3423 L97.0219248,127.3538 C96.9097304,127.361113 96.8027553,127.374311 96.7009994,127.393395 C96.5992436,127.412479 96.4811692,127.442721 96.3467764,127.484121 C96.1302546,127.550821 95.9359575,127.663129 95.7638849,127.821047 C95.5918124,127.978964 95.4358311,128.162579 95.2959411,128.371893 L96.2078916,131.332269 L95.5060624,131.548469 L94.2215118,127.378558 L94.923341,127.162358 L95.113091,127.778325 C95.3228317,127.46847 95.5197213,127.234104 95.7037599,127.075226 C95.8877985,126.916347 96.0905674,126.802791 96.3120667,126.734558 C96.4340158,126.696991 96.5233249,126.672886 96.5799942,126.662241 C96.6366635,126.651596 96.7224341,126.638118 96.8373061,126.621805 L97.0592562,127.3423 Z M102.269108,129.512057 L101.565569,129.722627 L100.853215,127.34257 C100.795719,127.150469 100.730543,126.973578 100.657687,126.811898 C100.584831,126.650219 100.504278,126.530937 100.416028,126.454055 C100.322296,126.36794 100.209148,126.316859 100.076584,126.30081 C99.9440205,126.284761 99.7841829,126.304738 99.5970715,126.360741 C99.4049704,126.418237 99.2183249,126.525748 99.0371348,126.683274 C98.8559447,126.8408 98.6913269,127.021908 98.5432813,127.226599 L99.4774057,130.347617 L98.7738668,130.558187 L97.5227673,126.378118 L98.2263062,126.167548 L98.3651928,126.631584 C98.5302276,126.383753 98.714694,126.173598 98.9185922,126.001121 C99.1224904,125.828643 99.347933,125.705443 99.59492,125.631519 C100.046482,125.496366 100.431462,125.529289 100.749861,125.730287 C101.068259,125.931286 101.303995,126.287504 101.457069,126.798942 L102.269108,129.512057 Z M108.505224,121.784048 L108.780384,122.655711 L108.728233,122.672174 C108.460704,122.560006 108.136347,122.499229 107.755163,122.489843 C107.373979,122.480458 107.003343,122.5326 106.643254,122.64627 C106.248398,122.770916 105.957017,122.953014 105.769112,123.192566 C105.581206,123.432118 105.528017,123.68103 105.609546,123.9393 C105.682452,124.170254 105.79928,124.332726 105.96003,124.426716 C106.120781,124.520705 106.362375,124.55504 106.684813,124.529718 C106.854724,124.514314 107.094037,124.485193 107.402754,124.442356 C107.71147,124.39952 107.975878,124.372036 108.195977,124.359904 C108.64271,124.339039 109.005263,124.406192 109.283636,124.561362 C109.562009,124.716531 109.763911,124.992786 109.88934,125.390125 C109.957542,125.606179 109.974672,125.835623 109.94073,126.078459 C109.906787,126.321295 109.822299,126.544586 109.687265,126.748332 C109.538767,126.969982 109.346389,127.167253 109.110132,127.340143 C108.873875,127.513033 108.569493,127.658273 108.196987,127.775863 C107.797164,127.902076 107.425937,127.9783 107.083306,128.004534 C106.740675,128.030768 106.381089,128.022758 106.004549,127.980502 L105.712926,127.056688 L105.765077,127.040225 C106.119387,127.185078 106.500302,127.262819 106.907822,127.273449 C107.315341,127.284078 107.68052,127.238438 108.003359,127.136526 C108.460299,126.992283 108.788996,126.794308 108.98945,126.542602 C109.189905,126.290897 109.245055,126.02225 109.154903,125.736662 C109.077294,125.490808 108.959845,125.328533 108.802557,125.249835 C108.645268,125.171137 108.433506,125.138309 108.16727,125.151351 C107.965339,125.160479 107.75063,125.183197 107.523144,125.219508 C107.295658,125.255818 107.05239,125.287552 106.793341,125.31471 C106.268708,125.365627 105.848026,125.302488 105.531295,125.125291 C105.214564,124.948094 104.992308,124.657101 104.864527,124.252312 C104.717931,123.787921 104.79398,123.345414 105.092673,122.92479 C105.391365,122.504165 105.842441,122.198605 106.445901,122.00811 C106.83579,121.885032 107.205154,121.809397 107.553994,121.781202 C107.902834,121.753008 108.21991,121.753957 108.505224,121.784048 Z M110.489367,121.031493 L110.877908,122.223683 L112.318935,121.754044 L112.51018,122.340854 L111.069153,122.810493 L111.685251,124.700912 C111.756261,124.918799 111.81669,125.08741 111.866538,125.206744 C111.916385,125.326078 111.98837,125.429295 112.082492,125.516396 C112.169242,125.597683 112.267743,125.645696 112.377997,125.660435 C112.488251,125.675173 112.64118,125.650669 112.836783,125.58692 C112.950679,125.549801 113.06408,125.494355 113.176986,125.420582 C113.289892,125.34681 113.369949,125.289905 113.417159,125.249868 L113.454298,125.237764 L113.658857,125.865428 C113.538927,125.94286 113.405218,126.017934 113.257731,126.090652 C113.110244,126.16337 112.975839,126.219498 112.854515,126.259038 C112.431121,126.397025 112.072123,126.388031 111.777521,126.232058 C111.48292,126.076084 111.253714,125.746784 111.089906,125.244158 L110.370923,123.03805 L109.899247,123.191771 L109.708002,122.604961 L110.179679,122.45124 L109.791138,121.25905 L110.489367,121.031493 Z M121.251836,119.203609 C121.659121,119.482296 121.978817,119.954874 122.210925,120.621342 C122.327407,120.955805 122.385869,121.278074 122.386314,121.588147 C122.386754,121.89822 122.333073,122.179575 122.225269,122.43221 C122.126336,122.670726 121.98416,122.878112 121.798741,123.054369 C121.613322,123.230626 121.397648,123.361578 121.151719,123.447227 C120.937761,123.521741 120.735955,123.565827 120.546302,123.579482 C120.356648,123.593138 120.154928,123.582042 119.94114,123.546194 L120.542394,125.272616 L119.848874,125.514146 L117.884522,119.87376 L118.578042,119.632231 L118.728355,120.063837 C118.858843,119.844665 119.020859,119.642778 119.214402,119.458177 C119.407945,119.273576 119.635059,119.135881 119.895744,119.045094 C120.392521,118.872083 120.844552,118.924922 121.251836,119.203609 Z M116.562093,120.334195 L117.946512,124.472022 L117.250083,124.70503 L117.096396,124.245683 C116.923754,124.5094 116.74653,124.726593 116.564725,124.897263 C116.382921,125.067933 116.162364,125.196647 115.903055,125.283406 C115.468404,125.42883 115.085656,125.409287 114.75481,125.224779 C114.423964,125.040271 114.172609,124.691178 114.000745,124.1775 L113.102174,121.491802 L113.798603,121.258794 L114.586867,123.614799 C114.6571,123.824715 114.727089,124.001074 114.796836,124.143875 C114.866582,124.286676 114.951325,124.400432 115.051064,124.485142 C115.1541,124.571495 115.266977,124.621603 115.389695,124.635465 C115.512414,124.649328 115.675027,124.622382 115.877535,124.554628 C116.057816,124.49431 116.239068,124.381492 116.421291,124.216174 C116.603513,124.050857 116.76286,123.864359 116.89933,123.656682 L115.865664,120.567204 L116.562093,120.334195 Z M119.948642,119.76708 C119.749439,119.836456 119.563995,119.949297 119.39231,120.105604 C119.220626,120.261911 119.06697,120.442273 118.931342,120.646689 L119.744577,122.981786 C119.972153,123.001802 120.162214,123.003171 120.314757,122.985894 C120.467301,122.968617 120.633337,122.928716 120.812865,122.866193 C121.198974,122.731724 121.454843,122.496462 121.580473,122.160407 C121.706103,121.824351 121.679844,121.400557 121.501695,120.889024 C121.328684,120.392247 121.114509,120.050443 120.859169,119.863611 C120.60383,119.67678 120.30032,119.644603 119.948642,119.76708 Z M123.242476,117.985987 L124.714706,122.093391 L124.023397,122.341179 L122.551168,118.233775 L123.242476,117.985987 Z M122.783118,116.565491 L123.040132,117.282539 L122.260571,117.56196 L122.003557,116.844911 L122.783118,116.565491 Z M129.402372,120.361898 L128.713668,120.616836 L128.55501,120.188228 C128.420473,120.43241 128.263376,120.641901 128.083719,120.816703 C127.904061,120.991504 127.688459,121.125463 127.436911,121.218579 C126.948468,121.399386 126.491156,121.354851 126.064975,121.084975 C125.638793,120.815098 125.302301,120.346798 125.055499,119.680074 C124.927126,119.33328 124.862221,119.006033 124.860751,118.698334 C124.859344,118.390635 124.907623,118.11035 125.005621,117.857479 C125.102985,117.610396 125.244096,117.397103 125.428955,117.217599 C125.613814,117.038096 125.824691,116.904498 126.061585,116.816806 C126.2765,116.737251 126.475355,116.689327 126.65815,116.673033 C126.840945,116.65674 127.041554,116.662315 127.259978,116.689758 L126.603647,114.916712 L127.292351,114.661774 L129.402372,120.361898 Z M128.340753,119.609424 L127.471522,117.261236 C127.255177,117.246908 127.067861,117.25099 126.909576,117.273484 C126.751291,117.295977 126.58545,117.339317 126.412053,117.403503 C126.026183,117.546341 125.775513,117.791859 125.660042,118.140058 C125.544572,118.488257 125.578144,118.909019 125.760759,119.402346 C125.940662,119.888347 126.160433,120.226994 126.420071,120.418289 C126.679709,120.609583 126.992695,120.637428 127.359026,120.501822 C127.554403,120.429499 127.736176,120.312923 127.904344,120.152094 C128.072512,119.991264 128.217982,119.810374 128.340753,119.609424 Z" id="Combined-Shape" fill="#FFFFFF" fill-rule="nonzero"></path>
        </g>
    </g>
</svg>