<?xml version="1.0" encoding="UTF-8"?>
<svg width="138px" height="121px" viewBox="0 0 138 121" version="1.1" xmlns="http://www.w3.org/2000/svg" xmlns:xlink="http://www.w3.org/1999/xlink">
    <title>Group</title>
    <defs>
        <radialGradient cx="50%" cy="50%" fx="50%" fy="50%" r="98.9241333%" gradientTransform="translate(0.5, 0.5), scale(0.5108, 1), translate(-0.5, -0.5)" id="radialGradient-1">
            <stop stop-color="#0B0B0B" offset="0%"></stop>
            <stop stop-color="#191919" offset="100%"></stop>
        </radialGradient>
    </defs>
    <g id="Page-1" stroke="none" stroke-width="1" fill="none" fill-rule="evenodd">
        <g id="Group" transform="translate(0.95, 1)">
            <polyline id="Path" fill="#000000" points="65 83.5 116 83.5 116 119.5 65 119.5 65 83.5 65 83.5"></polyline>
            <path d="M66.45,59.5 L116,59.5 L117.5,59.5 C122.833333,59.6333333 127.383333,61.5833333 131.15,65.35 C134.916667,69.1166667 136.866667,73.6666667 137,79 L137,90.05 C136.866667,95.35 134.916667,99.8833333 131.15,103.65 C127.383333,107.416667 122.833333,109.366667 117.5,109.5 L116,109.5 L66.5,109.5 C61.2,109.4 56.65,107.45 52.85,103.65 C49.0833333,99.8833333 47.1333333,95.35 47,90.05 L47,79 C47.1333333,73.6666667 49.0833333,69.1166667 52.85,65.35 C56.6166667,61.5833333 61.15,59.6333333 66.45,59.5" id="Path" fill="#9EDCFF"></path>
            <polygon id="Path" fill="#FFFFFF" fill-rule="nonzero" points="56.006 89.952 57.134 89.952 57.134 84.012 57.998 84.012 57.998 85.992 58.982 85.992 58.982 88.956 59.966 88.956 59.966 89.952 61.094 89.952 61.094 79.932 59.966 79.932 59.966 85.86 59.114 85.86 59.114 83.88 58.13 83.88 58.13 80.916 57.134 80.916 57.134 79.932 56.006 79.932"></polygon>
            <path d="M63.002,89.952 L66.098,89.952 L66.098,88.956 L67.094,88.956 L67.094,83.88 L66.098,83.88 L66.098,82.896 L63.002,82.896 L63.002,83.88 L62.006,83.88 L62.006,88.956 L63.002,88.956 L63.002,89.952 Z M63.134,88.824 L63.134,84.012 L65.966,84.012 L65.966,88.824 L63.134,88.824 Z" id="Shape" fill="#FFFFFF" fill-rule="nonzero"></path>
            <polygon id="Path" fill="#FFFFFF" fill-rule="nonzero" points="74.006 89.952 79.094 89.952 79.094 88.824 75.134 88.824 75.134 79.932 74.006 79.932"></polygon>
            <path d="M81.986,89.952 L83.102,89.952 L83.102,82.896 L81.986,82.896 L81.986,89.952 Z M81.986,82.032 L83.102,82.032 L83.102,79.932 L81.986,79.932 L81.986,82.032 Z" id="Shape" fill="#FFFFFF" fill-rule="nonzero"></path>
            <polygon id="Path" fill="#FFFFFF" fill-rule="nonzero" points="87.998 89.952 89.114 89.952 89.114 84.012 91.094 84.012 91.094 82.896 89.114 82.896 89.114 81.048 91.094 81.048 91.094 79.932 88.982 79.932 88.982 80.916 87.998 80.916 87.998 82.896 86.006 82.896 86.006 84.012 87.998 84.012"></polygon>
            <path d="M93.002,89.952 L96.098,89.952 L96.098,88.956 L97.094,88.956 L97.094,87.828 L95.966,87.828 L95.966,88.824 L93.134,88.824 L93.134,86.976 L97.094,86.976 L97.094,83.88 L96.098,83.88 L96.098,82.896 L93.002,82.896 L93.002,83.88 L92.006,83.88 L92.006,88.956 L93.002,88.956 L93.002,89.952 Z M93.134,85.86 L93.134,84.012 L95.966,84.012 L95.966,85.86 L93.134,85.86 Z" id="Shape" fill="#FFFFFF" fill-rule="nonzero"></path>
            <path d="M104.006,89.952 L108.098,89.952 L108.098,88.956 L109.094,88.956 L109.094,84.864 L108.098,84.864 L108.098,84.012 L109.094,84.012 L109.094,80.916 L108.098,80.916 L108.098,79.932 L104.006,79.932 L104.006,89.952 Z M105.134,88.824 L105.134,84.996 L107.966,84.996 L107.966,88.824 L105.134,88.824 Z M105.134,83.88 L105.134,81.048 L107.966,81.048 L107.966,83.88 L105.134,83.88 Z" id="Shape" fill="#FFFFFF" fill-rule="nonzero"></path>
            <polygon id="Path" fill="#FFFFFF" fill-rule="nonzero" points="111.986 89.952 113.102 89.952 113.102 79.932 111.986 79.932"></polygon>
            <path d="M117.002,89.952 L120.098,89.952 L120.098,88.956 L121.094,88.956 L121.094,83.88 L120.098,83.88 L120.098,82.896 L117.002,82.896 L117.002,83.88 L116.006,83.88 L116.006,88.956 L117.002,88.956 L117.002,89.952 Z M117.134,88.824 L117.134,84.012 L119.966,84.012 L119.966,88.824 L117.134,88.824 Z" id="Shape" fill="#FFFFFF" fill-rule="nonzero"></path>
            <path d="M122.006,89.94 L123.002,89.94 L123.002,90.936 L126.098,90.936 L126.098,89.94 L127.094,89.94 L127.094,88.812 L126.098,88.812 L126.098,87.828 L123.134,87.828 L123.134,86.964 L125.114,86.964 L125.114,85.98 L126.098,85.98 L126.098,84 L127.094,84 L127.094,82.884 L123.002,82.884 L123.002,83.868 L122.006,83.868 L122.006,85.98 L123.002,85.98 L123.002,86.832 L122.006,86.832 L122.006,87.96 L123.002,87.96 L123.002,88.812 L122.006,88.812 L122.006,89.94 Z M123.134,85.848 L123.134,84 L124.982,84 L124.982,85.848 L123.134,85.848 Z M123.134,89.808 L123.134,88.956 L125.966,88.956 L125.966,89.808 L123.134,89.808 Z" id="Shape" fill="#FFFFFF" fill-rule="nonzero"></path>
            <path d="M99.9,1.8 C102.766667,3 105.35,4.66666667 107.65,6.8 C109.95,8.96666667 111.766667,11.4666667 113.1,14.3 C114.466667,17.2 115.25,20.2666667 115.45,23.5 L115.5,59 L65.5,59 C65.3666667,56.5666667 64.4333333,54.5 62.7,52.8 C60.8666667,50.9333333 32.1333333,50.1817005 29.5,50.1817005 L19,50.1817005 C16.4333333,50.1817005 13.9666667,49.6817005 11.6,48.6817005 C9.33333333,47.7150338 7.31666667,46.3650338 5.55,44.6317005 C3.81666667,42.8650338 2.46666667,40.8483671 1.5,38.5817005 C0.5,36.2150338 0,33.7483671 0,31.1817005 L0,0.181700475 L90.5,0 C93.7666667,0 96.9,0.6 99.9,1.8 Z" id="Path" fill="url(#radialGradient-1)"></path>
            <path d="M99.9,1.8 C102.766667,3 105.35,4.66666667 107.65,6.8 C109.95,8.96666667 111.766667,11.4666667 113.1,14.3 C114.466667,17.2 115.25,20.2666667 115.45,23.5 L115.5,59 L65.5,59 C65.3666667,56.5666667 64.4333333,54.5 62.7,52.8 C60.8666667,50.9333333 32.1333333,50.1817005 29.5,50.1817005 L19,50.1817005 C16.4333333,50.1817005 13.9666667,49.6817005 11.6,48.6817005 C9.33333333,47.7150338 7.31666667,46.3650338 5.55,44.6317005 C3.81666667,42.8650338 2.46666667,40.8483671 1.5,38.5817005 C0.5,36.2150338 0,33.7483671 0,31.1817005 L0,0.181700475 L90.5,0 C93.7666667,0 96.9,0.6 99.9,1.8 Z" id="Path" stroke="#000000" stroke-linecap="round" stroke-linejoin="round"></path>
            <g id="Click-to-open-Copy" transform="translate(62.55, 96)" fill="#FFFFFF" fill-rule="nonzero">
                <path d="M6.20581055,7.23925781 L7.06518555,7.50244141 C6.8754069,8.38688151 6.54329427,9.04663086 6.06884766,9.48168945 C5.59440104,9.91674805 5.01700846,10.1342773 4.33666992,10.1342773 C3.73868815,10.1342773 3.22753906,9.98836263 2.80322266,9.6965332 C2.37890625,9.40470378 2.03157552,8.93652344 1.76123047,8.29199219 C1.49088542,7.64746094 1.35571289,6.88655599 1.35571289,6.00927734 C1.35571289,5.14274089 1.49088542,4.40958659 1.76123047,3.80981445 C2.03157552,3.21004232 2.39770508,2.75708008 2.85961914,2.45092773 C3.3215332,2.14477539 3.8371582,1.99169922 4.40649414,1.99169922 C5.02954102,1.99169922 5.56486003,2.18595378 6.01245117,2.57446289 C6.46004232,2.96297201 6.77335612,3.53320312 6.95239258,4.28515625 L6.11450195,4.52685547 C5.82804362,3.43115234 5.25333659,2.88330078 4.39038086,2.88330078 C3.96069336,2.88330078 3.58829753,2.9934082 3.27319336,3.21362305 C2.95808919,3.43383789 2.70654297,3.77669271 2.51855469,4.2421875 C2.33056641,4.70768229 2.23657227,5.29671224 2.23657227,6.00927734 C2.23657227,7.08707682 2.42635091,7.89542643 2.8059082,8.43432617 C3.18546549,8.97322591 3.69034831,9.24267578 4.32055664,9.24267578 C4.78605143,9.24267578 5.18798828,9.07706706 5.52636719,8.74584961 C5.86474609,8.41463216 6.09122721,7.9124349 6.20581055,7.23925781 Z" id="Path"></path>
                <polygon id="Path" points="7.99438477 10 7.99438477 2.12597656 8.78393555 2.12597656 8.78393555 10"></polygon>
                <path d="M10.0192871,3.23779297 L10.0192871,2.12597656 L10.8088379,2.12597656 L10.8088379,3.23779297 L10.0192871,3.23779297 Z M10.0192871,10 L10.0192871,4.29589844 L10.8088379,4.29589844 L10.8088379,10 L10.0192871,10 Z" id="Shape"></path>
                <path d="M15.0895996,7.91064453 L15.8684082,8.03417969 C15.77889,8.71451823 15.5541992,9.23372396 15.1943359,9.59179688 C14.8344727,9.94986979 14.4020996,10.1289062 13.8972168,10.1289062 C13.2849121,10.1289062 12.7809245,9.87736003 12.3852539,9.37426758 C11.9895833,8.87117513 11.791748,8.12727865 11.791748,7.14257812 C11.791748,6.15071615 11.9913737,5.40681966 12.390625,4.91088867 C12.7898763,4.41495768 13.3028158,4.16699219 13.9294434,4.16699219 C14.4128418,4.16699219 14.8201497,4.31738281 15.1513672,4.61816406 C15.4825846,4.91894531 15.6947428,5.37011719 15.7878418,5.97167969 L15.0197754,6.11669922 C14.9445801,5.72998047 14.8138835,5.44083659 14.6276855,5.24926758 C14.4414876,5.05769857 14.2176921,4.96191406 13.9562988,4.96191406 C13.5659993,4.96191406 13.2428385,5.13468424 12.9868164,5.48022461 C12.7307943,5.82576497 12.6027832,6.37451172 12.6027832,7.12646484 C12.6027832,7.90348307 12.7254232,8.46565755 12.9707031,8.81298828 C13.2159831,9.16031901 13.5301921,9.33398438 13.9133301,9.33398438 C14.2141113,9.33398438 14.4710286,9.21850586 14.684082,8.98754883 C14.8971354,8.7565918 15.0323079,8.3976237 15.0895996,7.91064453 Z" id="Path"></path>
                <polygon id="Path" points="16.5559082 10 16.5559082 2.12597656 17.345459 2.12597656 17.345459 6.61621094 19.2253418 4.29589844 20.2512207 4.29589844 18.4626465 6.41210937 20.4284668 10 19.4562988 10 17.9040527 7.08349609 17.345459 7.73876953 17.345459 10"></polygon>
                <path d="M25.3215332,9.13525391 L25.4289551,9.98925781 C25.2105306,10.0465495 25.0135905,10.0751953 24.8381348,10.0751953 C24.5624186,10.0751953 24.3404134,10.0205892 24.1721191,9.91137695 C24.0038249,9.80216471 23.8883464,9.65266927 23.8256836,9.46289063 C23.7630208,9.27311198 23.7316895,8.89534505 23.7316895,8.32958984 L23.7316895,5.04785156 L23.1516113,5.04785156 L23.1516113,4.29589844 L23.7316895,4.29589844 L23.7316895,2.88330078 L24.5212402,2.30322266 L24.5212402,4.29589844 L25.3215332,4.29589844 L25.3215332,5.04785156 L24.5212402,5.04785156 L24.5212402,8.38330078 C24.5212402,8.69124349 24.544515,8.88997396 24.5910645,8.97949219 C24.6590983,9.10839844 24.7862142,9.17285156 24.9724121,9.17285156 C25.0619303,9.17285156 25.178304,9.16031901 25.3215332,9.13525391 Z" id="Path"></path>
                <path d="M25.767334,7.14794922 C25.767334,6.1632487 25.9741211,5.4202474 26.3876953,4.91894531 C26.8012695,4.41764323 27.3249512,4.16699219 27.9587402,4.16699219 C28.5817871,4.16699219 29.1027832,4.41764323 29.5217285,4.91894531 C29.9406738,5.4202474 30.1501465,6.14355469 30.1501465,7.08886719 C30.1501465,8.11295573 29.9442546,8.87565104 29.5324707,9.37695312 C29.1206868,9.87825521 28.59611,10.1289062 27.9587402,10.1289062 C27.3321126,10.1289062 26.8102214,9.87736003 26.3930664,9.37426758 C25.9759115,8.87117513 25.767334,8.12906901 25.767334,7.14794922 Z M26.5783691,7.14794922 C26.5783691,7.88557943 26.7126465,8.43432617 26.9812012,8.79418945 C27.2497559,9.15405273 27.5827637,9.33398438 27.9802246,9.33398438 C28.3526204,9.33398438 28.6722005,9.15226237 28.9389648,8.78881836 C29.2057292,8.42537435 29.3391113,7.87841797 29.3391113,7.14794922 C29.3391113,6.41389974 29.204834,5.86694336 28.9362793,5.50708008 C28.6677246,5.1472168 28.3347168,4.96728516 27.9372559,4.96728516 C27.5612793,4.96728516 27.240804,5.14811198 26.9758301,5.50976562 C26.7108561,5.87141927 26.5783691,6.41748047 26.5783691,7.14794922 Z" id="Shape"></path>
                <path d="M33.2922363,7.14794922 C33.2922363,6.1632487 33.4990234,5.4202474 33.9125977,4.91894531 C34.3261719,4.41764323 34.8498535,4.16699219 35.4836426,4.16699219 C36.1066895,4.16699219 36.6276855,4.41764323 37.0466309,4.91894531 C37.4655762,5.4202474 37.6750488,6.14355469 37.6750488,7.08886719 C37.6750488,8.11295573 37.4691569,8.87565104 37.057373,9.37695312 C36.6455892,9.87825521 36.1210124,10.1289062 35.4836426,10.1289062 C34.857015,10.1289062 34.3351237,9.87736003 33.9179688,9.37426758 C33.5008138,8.87117513 33.2922363,8.12906901 33.2922363,7.14794922 Z M34.1032715,7.14794922 C34.1032715,7.88557943 34.2375488,8.43432617 34.5061035,8.79418945 C34.7746582,9.15405273 35.107666,9.33398438 35.505127,9.33398438 C35.8775228,9.33398438 36.1971029,9.15226237 36.4638672,8.78881836 C36.7306315,8.42537435 36.8640137,7.87841797 36.8640137,7.14794922 C36.8640137,6.41389974 36.7297363,5.86694336 36.4611816,5.50708008 C36.192627,5.1472168 35.8596191,4.96728516 35.4621582,4.96728516 C35.0861816,4.96728516 34.7657064,5.14811198 34.5007324,5.50976562 C34.2357585,5.87141927 34.1032715,6.41748047 34.1032715,7.14794922 Z" id="Shape"></path>
                <path d="M38.604248,12.1860352 L38.604248,4.29589844 L39.3293457,4.29589844 L39.3293457,5.03710937 C39.5083822,4.72916667 39.7071126,4.50716146 39.9255371,4.37109375 C40.1439616,4.23502604 40.3946126,4.16699219 40.6774902,4.16699219 C41.0463053,4.16699219 41.3793132,4.27620443 41.6765137,4.49462891 C41.9737142,4.71305339 42.2127279,5.04516602 42.3935547,5.4909668 C42.5743815,5.93676758 42.6647949,6.47298177 42.6647949,7.09960937 C42.6647949,8.06998698 42.4615885,8.81746419 42.0551758,9.34204102 C41.648763,9.86661784 41.1716309,10.1289062 40.6237793,10.1289062 C40.3802897,10.1289062 40.1529134,10.0662435 39.9416504,9.94091797 C39.7303874,9.81559245 39.5477702,9.63834635 39.3937988,9.40917969 L39.3937988,12.1860352 L38.604248,12.1860352 Z M39.3186035,7.18017578 C39.3186035,7.91780599 39.4421387,8.46118164 39.689209,8.81030273 C39.9362793,9.15942383 40.2352702,9.33398438 40.5861816,9.33398438 C40.9227702,9.33398438 41.2181803,9.15315755 41.4724121,8.79150391 C41.7266439,8.42985026 41.8537598,7.87125651 41.8537598,7.11572266 C41.8537598,6.37093099 41.7302246,5.8194987 41.4831543,5.46142578 C41.236084,5.10335286 40.9353027,4.92431641 40.5808105,4.92431641 C40.2621257,4.92431641 39.9720866,5.1167806 39.7106934,5.50170898 C39.4493001,5.88663737 39.3186035,6.4461263 39.3186035,7.18017578 Z" id="Shape"></path>
                <path d="M46.8220215,8.16308594 L47.6384277,8.28662109 C47.50236,8.89534505 47.2561849,9.35457357 46.8999023,9.66430664 C46.5436198,9.97403971 46.1022949,10.1289062 45.5759277,10.1289062 C44.9134928,10.1289062 44.3772786,9.87736003 43.9672852,9.37426758 C43.5572917,8.87117513 43.3522949,8.14518229 43.3522949,7.19628906 C43.3522949,6.21158854 43.559082,5.4605306 43.9726562,4.94311523 C44.3862305,4.42569987 44.9099121,4.16699219 45.5437012,4.16699219 C46.1488444,4.16699219 46.6537272,4.42122396 47.0583496,4.9296875 C47.462972,5.43815104 47.6652832,6.17399089 47.6652832,7.13720703 L47.6599121,7.39501953 L44.1687012,7.39501953 C44.2009277,8.03597005 44.349528,8.51936849 44.614502,8.84521484 C44.8794759,9.1710612 45.2017415,9.33398438 45.5812988,9.33398438 C46.1756999,9.33398438 46.5892741,8.9436849 46.8220215,8.16308594 Z M44.217041,6.60009766 L46.8273926,6.60009766 C46.7915853,6.10595703 46.6859538,5.73714193 46.510498,5.49365234 C46.2562663,5.13916016 45.9322103,4.96191406 45.5383301,4.96191406 C45.1838379,4.96191406 44.8812663,5.10961914 44.6306152,5.4050293 C44.3799642,5.70043945 44.2421061,6.09879557 44.217041,6.60009766 Z" id="Shape"></path>
                <path d="M48.6374512,10 L48.6374512,4.29589844 L49.3518066,4.29589844 L49.3518066,5.10693359 C49.5236816,4.79182943 49.7340495,4.55639648 49.9829102,4.40063477 C50.2317708,4.24487305 50.517334,4.16699219 50.8395996,4.16699219 C51.0902507,4.16699219 51.3221029,4.21622721 51.5351562,4.31469727 C51.7482096,4.41316732 51.9200846,4.54207357 52.0507812,4.70141602 C52.1814779,4.86075846 52.2790527,5.06754557 52.3435059,5.32177734 C52.407959,5.57600911 52.4401855,5.96630859 52.4401855,6.49267578 L52.4401855,10 L51.6452637,10 L51.6452637,6.53027344 C51.6452637,6.11132812 51.6094564,5.80517578 51.5378418,5.61181641 C51.4662272,5.41845703 51.3543294,5.26896159 51.2021484,5.16333008 C51.0499674,5.05769857 50.8736165,5.00488281 50.6730957,5.00488281 C50.2935384,5.00488281 49.9909668,5.14632161 49.7653809,5.42919922 C49.5397949,5.71207682 49.427002,6.19726562 49.427002,6.88476562 L49.427002,10 L48.6374512,10 Z" id="Path"></path>
            </g>
        </g>
    </g>
</svg>