<?xml version="1.0" encoding="UTF-8"?>
<svg width="567px" height="113px" viewBox="0 0 567 113" version="1.1" xmlns="http://www.w3.org/2000/svg" xmlns:xlink="http://www.w3.org/1999/xlink">
    <title>Group</title>
    <g id="Page-1" stroke="none" stroke-width="1" fill="none" fill-rule="evenodd">
        <g id="Group">
            <path d="M31,0 L536,0 C553.120827,0 567,13.8791728 567,31 L567,82 C567,99.1208272 553.120827,113 536,113 L31,113 C13.8791728,113 0,99.1208272 0,82 L0,31 C0,13.8791728 13.8791728,0 31,0 Z" id="Rectangle-4-Copy" fill-opacity="0.605905813" fill="#000000"></path>
            <polygon id="Path" fill="#FFFFFF" fill-rule="nonzero" points="273.263672 52.9423828 255.355469 60.0332031 239 10.2421875 243.916992 10.2421875 255.666016 45.3339844 259.806641 44.0400391 268.501953 10.2421875 284.805664 10.2421875"></polygon>
            <polygon id="Path" fill="#FFFFFF" fill-rule="nonzero" points="328.006836 94.0273438 306.423828 102.670898 285.151367 96.0976562 286.755859 92.0087891 306.423828 97.9609375 312.945312 95.3730469 312.945312 84.8662109 287.376953 76.6884766 287.376953 56.8134766 308.287109 52 327.851562 58.0039062 326.350586 62.1445313 308.02832 56.2441406 302.179688 57.8486328 302.179688 67.0615234 327.955078 75.3427734"></polygon>
        </g>
    </g>
</svg>