<?xml version="1.0" encoding="UTF-8"?>
<svg width="110px" height="120px" viewBox="0 0 110 120" version="1.1" xmlns="http://www.w3.org/2000/svg" xmlns:xlink="http://www.w3.org/1999/xlink">
    <title>277</title>
    <defs>
        <radialGradient cx="50%" cy="50%" fx="50%" fy="50%" r="50%" gradientTransform="translate(0.5, 0.5), scale(0.6667, 1), rotate(90), translate(-0.5, -0.5)" id="radialGradient-1">
            <stop stop-color="#0B0B0B" offset="0%"></stop>
            <stop stop-color="#191919" offset="100%"></stop>
        </radialGradient>
    </defs>
    <g id="277" stroke="none" fill="none" fill-rule="evenodd" stroke-width="1">
        <g id="Group" transform="translate(75, 60)">
            <rect id="Rectangle-Copy-2" fill="#000000" transform="translate(-29.5, 42) scale(-1, 1) translate(29.5, -42)" x="-55" y="24" width="51" height="36"></rect>
            <path d="M-5,0 L-4.45,0 C0.85,0.133333333 5.38333333,2.08333333 9.15,5.85 C12.9166667,9.61666667 14.8666667,14.1666667 15,19.5 L15,30.55 C14.8666667,35.85 12.9166667,40.3833333 9.15,44.15 C5.35,47.95 0.8,49.9 -4.5,50 L-55,50 L-55.5,50 C-60.8333333,49.8666667 -65.3833333,47.9166667 -69.15,44.15 C-72.9166667,40.3833333 -74.8666667,35.85 -75,30.55 L-75,19.5 C-74.8666667,14.1666667 -72.9166667,9.61666667 -69.15,5.85 C-65.3833333,2.08333333 -60.8333333,0.133333333 -55.5,0 L-55,0 L-5,0" id="Path" fill="#FFCC33"></path>
            <path d="M34.5,-59.5 L34.5,-28.5 C34.5,-23.2532949 32.3733526,-18.5032949 28.9350288,-15.0649712 C25.4967051,-11.6266474 20.7467051,-9.5 15.5,-9.5 L5,-9.5 C2.37664744,-9.5 0.00164743845,-8.43667628 -1.71751442,-6.71751442 C-3.32676611,-5.10826273 -4.36135765,-2.92435089 -4.48706794,-0.5 L-54.5,-0.5 L-54.5,-35.9413171 C-54.0934553,-42.5376355 -51.1566354,-48.440672 -46.6519697,-52.6880178 C-42.1705998,-56.9133986 -36.1373693,-59.5 -29.5,-59.5 L34.5,-59.5 Z" id="Path" stroke="#000000" fill="url(#radialGradient-1)"></path>
            <path d="M-34.95,15 C-34.65,14.6 -34.5,14.2333333 -34.5,13.9 C-34.5,12.5 -35.1666667,11.8166667 -36.5,11.85 C-37.8333333,11.85 -38.5,12.5166667 -38.5,13.85 L-38.25,14.9 C-37.9166667,15.5 -37.3333333,15.8 -36.5,15.8 C-35.9,15.8 -35.3833333,15.5333333 -34.95,15 M-35.85,23.2 C-36.1833333,22.7666667 -36.7333333,22.5166667 -37.5,22.45 C-38.8333333,22.3166667 -39.5,22.95 -39.5,24.35 L-39.2,25.4 C-38.8666667,26 -38.3,26.3 -37.5,26.3 C-36.9333333,26.3 -36.4333333,26.0666667 -36,25.6 C-35.6333333,26.2333333 -35.05,26.55 -34.25,26.55 C-33.6166667,26.55 -33.1,26.3 -32.7,25.8 C-32.4,25.4 -32.25,25.0166667 -32.25,24.65 C-32.25,23.4833333 -32.9166667,22.8333333 -34.25,22.7 C-34.9833333,22.6333333 -35.5166667,22.8 -35.85,23.2 M-38.95,14.25 C-38.65,13.85 -38.5,13.4833333 -38.5,13.15 C-38.5,11.95 -39.1666667,11.3 -40.5,11.2 C-41.8333333,11.0666667 -42.5,11.7 -42.5,13.1 L-42.2,14.15 C-41.8666667,14.75 -41.3,15.05 -40.5,15.05 C-39.9,15.05 -39.3833333,14.7833333 -38.95,14.25 M-37.75,19.35 L-37.5,20.35 C-37.1333333,20.9833333 -36.55,21.3 -35.75,21.3 C-35.1166667,21.3 -34.6,21.05 -34.2,20.55 C-33.9,20.15 -33.75,19.7666667 -33.75,19.4 C-33.75,18.2333333 -34.4166667,17.5833333 -35.75,17.45 C-37.0833333,17.3166667 -37.75,17.95 -37.75,19.35 M-31,24.1 C-31,26.4333333 -32.4833333,27.7166667 -35.45,27.95 L-41.25,27.8 L-48.6,27.9 L-51.15,28.05 C-53.5833333,28.05 -55.7833333,26.9833333 -57.75,24.85 C-59.25,23.2166667 -60,22.05 -60,21.35 L-59.9,20.4 C-59.7666667,20.0666667 -59.4666667,19.7833333 -59,19.55 L-56.75,19.4 L-54.5,19.05 L-52.85,17.7 C-51.75,16.9333333 -50.55,16.5333333 -49.25,16.5 C-45.1833333,5.63333333 -40.95,3.1 -36.55,8.9 C-35.0166667,10.9333333 -33.6666667,13.7166667 -32.5,17.25 C-31.5,20.3166667 -31,22.6 -31,24.1 M-39.95,19.5 C-39.65,19.1 -39.5,18.7333333 -39.5,18.4 C-39.5,17.2 -40.1666667,16.55 -41.5,16.45 C-42.8333333,16.3166667 -43.5,16.95 -43.5,18.35 L-43.25,19.4 C-42.9166667,20 -42.3333333,20.3 -41.5,20.3 C-40.9,20.3 -40.3833333,20.0333333 -39.95,19.5 M-51.25,19.35 L-51,20.35 C-50.6333333,20.9833333 -50.05,21.3 -49.25,21.3 C-48.6166667,21.3 -48.1,21.05 -47.7,20.55 C-47.4,20.15 -47.25,19.7666667 -47.25,19.4 C-47.25,18.2333333 -47.9166667,17.5833333 -49.25,17.45 C-50.5833333,17.3166667 -51.25,17.95 -51.25,19.35 M-53.25,22.05 C-54.5833333,22.0833333 -55.25,22.7666667 -55.25,24.1 L-54.95,25.15 C-54.6166667,25.75 -54.05,26.05 -53.25,26.05 C-52.6166667,26.05 -52.1,25.8 -51.7,25.3 C-51.4,24.9 -51.25,24.5166667 -51.25,24.15 C-51.25,22.75 -51.9166667,22.05 -53.25,22.05 M-45.5,15.8 C-44.9,15.8 -44.3833333,15.5333333 -43.95,15 C-43.65,14.6 -43.5,14.2333333 -43.5,13.9 C-43.5,12.7 -44.1666667,12.05 -45.5,11.95 C-46.8333333,11.8166667 -47.5,12.45 -47.5,13.85 L-47.25,14.9 C-46.9166667,15.5 -46.3333333,15.8 -45.5,15.8 M-46.5,21.85 L-46.25,22.9 C-45.9166667,23.5 -45.3333333,23.8 -44.5,23.8 C-43.8666667,23.8 -43.35,23.55 -42.95,23.05 C-42.65,22.65 -42.5,22.2666667 -42.5,21.9 C-42.5,20.7333333 -43.1666667,20.0833333 -44.5,19.95 C-45.8333333,19.8166667 -46.5,20.45 -46.5,21.85 M-50,25.6 L-49.7,26.65 C-49.3666667,27.25 -48.8,27.55 -48,27.55 C-47.3,27.55 -46.7166667,27.1833333 -46.25,26.45 C-45.9166667,25.9166667 -45.75,25.4833333 -45.75,25.15 C-45.75,23.6833333 -46.45,23.0166667 -47.85,23.15 C-49.2833333,23.2833333 -50,24.1 -50,25.6" id="Shape" fill="#FFCC66"></path>
            <path d="M-34.95,15 C-35.3833333,15.5333333 -35.9,15.8 -36.5,15.8 C-37.3333333,15.8 -37.9166667,15.5 -38.25,14.9 L-38.5,13.85 C-38.5,12.5166667 -37.8333333,11.85 -36.5,11.85 C-35.1666667,11.8166667 -34.5,12.5 -34.5,13.9 C-34.5,14.2333333 -34.65,14.6 -34.95,15 M-35.85,23.2 C-35.5166667,22.8 -34.9833333,22.6333333 -34.25,22.7 C-32.9166667,22.8333333 -32.25,23.4833333 -32.25,24.65 C-32.25,25.0166667 -32.4,25.4 -32.7,25.8 C-33.1,26.3 -33.6166667,26.55 -34.25,26.55 C-35.05,26.55 -35.6333333,26.2333333 -36,25.6 L-36.25,24.6 C-36.25,23.9666667 -36.1166667,23.5 -35.85,23.2 M-39.95,19.5 C-40.3833333,20.0333333 -40.9,20.3 -41.5,20.3 C-42.3333333,20.3 -42.9166667,20 -43.25,19.4 L-43.5,18.35 C-43.5,16.95 -42.8333333,16.3166667 -41.5,16.45 C-40.1666667,16.55 -39.5,17.2 -39.5,18.4 C-39.5,18.7333333 -39.65,19.1 -39.95,19.5 M-45.5,15.8 C-46.3333333,15.8 -46.9166667,15.5 -47.25,14.9 L-47.5,13.85 C-47.5,12.45 -46.8333333,11.8166667 -45.5,11.95 C-44.1666667,12.05 -43.5,12.7 -43.5,13.9 C-43.5,14.2333333 -43.65,14.6 -43.95,15 C-44.3833333,15.5333333 -44.9,15.8 -45.5,15.8 M-50,25.6 C-50,24.1 -49.2833333,23.2833333 -47.85,23.15 C-46.45,23.0166667 -45.75,23.6833333 -45.75,25.15 C-45.75,25.4833333 -45.9166667,25.9166667 -46.25,26.45 C-46.7166667,27.1833333 -47.3,27.55 -48,27.55 C-48.8,27.55 -49.3666667,27.25 -49.7,26.65 L-50,25.6" id="Shape" fill="#FFFF99"></path>
            <path d="M-38.95,14.25 C-39.3833333,14.7833333 -39.9,15.05 -40.5,15.05 C-41.3,15.05 -41.8666667,14.75 -42.2,14.15 L-42.5,13.1 C-42.5,11.7 -41.8333333,11.0666667 -40.5,11.2 C-39.1666667,11.3 -38.5,11.95 -38.5,13.15 C-38.5,13.4833333 -38.65,13.85 -38.95,14.25 M-36,25.6 C-36.4333333,26.0666667 -36.9333333,26.3 -37.5,26.3 C-38.3,26.3 -38.8666667,26 -39.2,25.4 L-39.5,24.35 C-39.5,22.95 -38.8333333,22.3166667 -37.5,22.45 C-36.7333333,22.5166667 -36.1833333,22.7666667 -35.85,23.2 C-36.1166667,23.5 -36.25,23.9666667 -36.25,24.6 L-36,25.6 M-37.75,19.35 C-37.75,17.95 -37.0833333,17.3166667 -35.75,17.45 C-34.4166667,17.5833333 -33.75,18.2333333 -33.75,19.4 C-33.75,19.7666667 -33.9,20.15 -34.2,20.55 C-34.6,21.05 -35.1166667,21.3 -35.75,21.3 C-36.55,21.3 -37.1333333,20.9833333 -37.5,20.35 L-37.75,19.35 M-53.25,22.05 C-51.9166667,22.05 -51.25,22.75 -51.25,24.15 C-51.25,24.5166667 -51.4,24.9 -51.7,25.3 C-52.1,25.8 -52.6166667,26.05 -53.25,26.05 C-54.05,26.05 -54.6166667,25.75 -54.95,25.15 L-55.25,24.1 C-55.25,22.7666667 -54.5833333,22.0833333 -53.25,22.05 M-51.25,19.35 C-51.25,17.95 -50.5833333,17.3166667 -49.25,17.45 C-47.9166667,17.5833333 -47.25,18.2333333 -47.25,19.4 C-47.25,19.7666667 -47.4,20.15 -47.7,20.55 C-48.1,21.05 -48.6166667,21.3 -49.25,21.3 C-50.05,21.3 -50.6333333,20.9833333 -51,20.35 L-51.25,19.35 M-46.5,21.85 C-46.5,20.45 -45.8333333,19.8166667 -44.5,19.95 C-43.1666667,20.0833333 -42.5,20.7333333 -42.5,21.9 C-42.5,22.2666667 -42.65,22.65 -42.95,23.05 C-43.35,23.55 -43.8666667,23.8 -44.5,23.8 C-45.3333333,23.8 -45.9166667,23.5 -46.25,22.9 L-46.5,21.85" id="Shape" fill="#CC9966"></path>
            <path d="M-31,24.1 C-31,26.4333333 -32.4833333,27.7166667 -35.45,27.95 L-41.25,27.8 L-48.6,27.9 L-51.15,28.05 C-53.5833333,28.05 -55.7833333,26.9833333 -57.75,24.85 C-59.25,23.2166667 -60,22.05 -60,21.35 L-59.9,20.4 C-59.7666667,20.0666667 -59.4666667,19.7833333 -59,19.55 L-56.75,19.4 L-54.5,19.05 L-52.85,17.7 C-51.75,16.9333333 -50.55,16.5333333 -49.25,16.5 C-45.1833333,5.63333333 -40.95,3.1 -36.55,8.9 C-35.0166667,10.9333333 -33.6666667,13.7166667 -32.5,17.25 C-31.5,20.3166667 -31,22.6 -31,24.1 Z" id="Path" stroke="#000000" stroke-width="2" stroke-linecap="round" stroke-linejoin="round"></path>
        </g>
    </g>
</svg>