<?xml version="1.0" encoding="UTF-8" standalone="no"?>
<svg xmlns:ffdec="https://www.free-decompiler.com/flash" xmlns:xlink="http://www.w3.org/1999/xlink" ffdec:objectType="frame" height="32.3px" width="35.8px" xmlns="http://www.w3.org/2000/svg">
  <g transform="matrix(1.0, 0.0, 0.0, 1.0, 17.9, 16.15)">
    <use ffdec:characterId="239" height="32.3" transform="matrix(1.0, 0.0, 0.0, 1.0, -17.9, -16.15)" width="35.8" xlink:href="#shape0"/>
  </g>
  <defs>
    <g id="shape0" transform="matrix(1.0, 0.0, 0.0, 1.0, 17.9, 16.15)">
      <path d="M0.5 -5.85 L1.55 -11.0 6.65 -10.0 7.65 -15.15 16.9 -1.35 -7.65 15.15 -16.9 1.35 -11.75 2.35 -10.75 -2.8 -5.6 -1.75 -4.6 -6.9 0.5 -5.85" fill="url(#gradient0)" fill-rule="evenodd" stroke="none"/>
      <path d="M0.5 -5.85 L-4.6 -6.9 -5.6 -1.75 -10.75 -2.8 -11.75 2.35 -16.9 1.35 -7.65 15.15 16.9 -1.35 7.65 -15.15 6.65 -10.0 1.55 -11.0 0.5 -5.85 Z" fill="none" stroke="#000000" stroke-linecap="round" stroke-linejoin="round" stroke-width="2.0"/>
    </g>
    <linearGradient gradientTransform="matrix(0.015, -0.0101, 0.0057, 0.0084, 0.05, 0.0)" gradientUnits="userSpaceOnUse" id="gradient0" spreadMethod="pad" x1="-819.2" x2="819.2">
      <stop offset="0.0" stop-color="#999900"/>
      <stop offset="0.1843137254901961" stop-color="#ffff00"/>
      <stop offset="0.5411764705882353" stop-color="#ffffff"/>
      <stop offset="0.8588235294117647" stop-color="#ffff00"/>
      <stop offset="1.0" stop-color="#999900"/>
    </linearGradient>
  </defs>
</svg>
