<?xml version="1.0" encoding="UTF-8" standalone="no"?>
<svg xmlns:ffdec="https://www.free-decompiler.com/flash" xmlns:xlink="http://www.w3.org/1999/xlink" ffdec:objectType="frame" height="120.0px" width="110.0px" xmlns="http://www.w3.org/2000/svg">
  <g transform="matrix(1.0, 0.0, 0.0, 1.0, 75.0, 60.0)">
    <use ffdec:characterId="277" height="120.0" transform="matrix(1.0, 0.0, 0.0, 1.0, -75.0, -60.0)" width="110.0" xlink:href="#shape0"/>
    <use ffdec:characterId="278" height="29.15" transform="matrix(1.0, 0.0, 0.0, 1.0, -24.7, 2.15)" width="17.35" xlink:href="#text0"/>
    <use ffdec:characterId="201" height="14.1" transform="matrix(1.0, 0.0, 0.0, 1.0, -67.25, 33.05)" width="74.4" xlink:href="#text1"/>
  </g>
  <defs>
    <g id="shape0" transform="matrix(1.0, 0.0, 0.0, 1.0, 75.0, 60.0)">
      <path d="M-4.0 24.0 L-55.0 24.0 -55.0 60.0 -4.0 60.0 -4.0 24.0 -4.0 24.0" fill="#000000" fill-rule="evenodd" stroke="none"/>
      <path d="M-5.0 0.0 L-4.45 0.0 Q3.5 0.2 9.15 5.85 14.8 11.5 15.0 19.5 L15.0 30.55 Q14.8 38.5 9.15 44.15 3.45 49.85 -4.5 50.0 L-55.0 50.0 -55.5 50.0 Q-63.5 49.8 -69.15 44.15 -74.8 38.5 -75.0 30.55 L-75.0 19.5 Q-74.8 11.5 -69.15 5.85 -63.5 0.2 -55.5 0.0 L-55.0 0.0 -5.0 0.0" fill="#ffcc33" fill-rule="evenodd" stroke="none"/>
      <path d="M34.5 -59.5 L34.5 -28.5 Q34.5 -24.65 33.0 -21.1 31.55 -17.7 28.95 -15.05 26.3 -12.45 22.9 -11.0 19.35 -9.5 15.5 -9.5 L5.0 -9.5 Q1.05 -9.5 -1.7 -6.7 -4.3 -4.15 -4.5 -0.5 L-54.5 -0.5 -54.5 -35.95 Q-54.2 -40.8 -52.1 -45.2 -50.1 -49.45 -46.65 -52.7 -43.2 -55.9 -38.9 -57.7 -34.4 -59.5 -29.5 -59.5 L34.5 -59.5 34.5 -59.5" fill="url(#gradient0)" fill-rule="evenodd" stroke="none"/>
      <path d="M34.5 -59.5 L34.5 -28.5 Q34.5 -24.65 33.0 -21.1 31.55 -17.7 28.95 -15.05 26.3 -12.45 22.9 -11.0 19.35 -9.5 15.5 -9.5 L5.0 -9.5 Q1.05 -9.5 -1.7 -6.7 -4.3 -4.15 -4.5 -0.5 L-54.5 -0.5 -54.5 -35.95 Q-54.2 -40.8 -52.1 -45.2 -50.1 -49.45 -46.65 -52.7 -43.2 -55.9 -38.9 -57.7 -34.4 -59.5 -29.5 -59.5 L34.5 -59.5 34.5 -59.5 Z" fill="none" stroke="#000000" stroke-linecap="round" stroke-linejoin="round" stroke-width="1.0"/>
      <path d="M-34.95 15.0 Q-34.5 14.4 -34.5 13.9 -34.5 11.8 -36.5 11.85 -38.5 11.85 -38.5 13.85 L-38.25 14.9 Q-37.75 15.8 -36.5 15.8 -35.6 15.8 -34.95 15.0 M-35.85 23.2 Q-36.35 22.55 -37.5 22.45 -39.5 22.25 -39.5 24.35 L-39.2 25.4 Q-38.7 26.3 -37.5 26.3 -36.65 26.3 -36.0 25.6 -35.45 26.55 -34.25 26.55 -33.3 26.55 -32.7 25.8 -32.25 25.2 -32.25 24.65 -32.25 22.9 -34.25 22.7 -35.35 22.6 -35.85 23.2 M-38.95 14.25 Q-38.5 13.65 -38.5 13.15 -38.5 11.35 -40.5 11.2 -42.5 11.0 -42.5 13.1 L-42.2 14.15 Q-41.7 15.05 -40.5 15.05 -39.6 15.05 -38.95 14.25 M-37.75 19.35 L-37.5 20.35 Q-36.95 21.3 -35.75 21.3 -34.8 21.3 -34.2 20.55 -33.75 19.95 -33.75 19.4 -33.75 17.65 -35.75 17.45 -37.75 17.25 -37.75 19.35 M-31.0 24.1 Q-31.0 27.6 -35.45 27.95 L-41.25 27.8 -48.6 27.9 -51.15 28.05 Q-54.8 28.05 -57.75 24.85 -60.0 22.4 -60.0 21.35 L-59.9 20.4 Q-59.7 19.9 -59.0 19.55 L-56.75 19.4 -54.5 19.05 -52.85 17.7 Q-51.2 16.55 -49.25 16.5 -43.15 0.2 -36.55 8.9 -34.25 11.95 -32.5 17.25 -31.0 21.85 -31.0 24.1 M-39.95 19.5 Q-39.5 18.9 -39.5 18.4 -39.5 16.6 -41.5 16.45 -43.5 16.25 -43.5 18.35 L-43.25 19.4 Q-42.75 20.3 -41.5 20.3 -40.6 20.3 -39.95 19.5 M-51.25 19.35 L-51.0 20.35 Q-50.45 21.3 -49.25 21.3 -48.3 21.3 -47.7 20.55 -47.25 19.95 -47.25 19.4 -47.25 17.65 -49.25 17.45 -51.25 17.25 -51.25 19.35 M-53.25 22.05 Q-55.25 22.1 -55.25 24.1 L-54.95 25.15 Q-54.45 26.05 -53.25 26.05 -52.3 26.05 -51.7 25.3 -51.25 24.7 -51.25 24.15 -51.25 22.05 -53.25 22.05 M-45.5 15.8 Q-44.6 15.8 -43.95 15.0 -43.5 14.4 -43.5 13.9 -43.5 12.1 -45.5 11.95 -47.5 11.75 -47.5 13.85 L-47.25 14.9 Q-46.75 15.8 -45.5 15.8 M-46.5 21.85 L-46.25 22.9 Q-45.75 23.8 -44.5 23.8 -43.55 23.8 -42.95 23.05 -42.5 22.45 -42.5 21.9 -42.5 20.15 -44.5 19.95 -46.5 19.75 -46.5 21.85 M-50.0 25.6 L-49.7 26.65 Q-49.2 27.55 -48.0 27.55 -46.95 27.55 -46.25 26.45 -45.75 25.65 -45.75 25.15 -45.75 22.95 -47.85 23.15 -50.0 23.35 -50.0 25.6" fill="#ffcc66" fill-rule="evenodd" stroke="none"/>
      <path d="M-34.95 15.0 Q-35.6 15.8 -36.5 15.8 -37.75 15.8 -38.25 14.9 L-38.5 13.85 Q-38.5 11.85 -36.5 11.85 -34.5 11.8 -34.5 13.9 -34.5 14.4 -34.95 15.0 M-35.85 23.2 Q-35.35 22.6 -34.25 22.7 -32.25 22.9 -32.25 24.65 -32.25 25.2 -32.7 25.8 -33.3 26.55 -34.25 26.55 -35.45 26.55 -36.0 25.6 L-36.25 24.6 Q-36.25 23.65 -35.85 23.2 M-39.95 19.5 Q-40.6 20.3 -41.5 20.3 -42.75 20.3 -43.25 19.4 L-43.5 18.35 Q-43.5 16.25 -41.5 16.45 -39.5 16.6 -39.5 18.4 -39.5 18.9 -39.95 19.5 M-45.5 15.8 Q-46.75 15.8 -47.25 14.9 L-47.5 13.85 Q-47.5 11.75 -45.5 11.95 -43.5 12.1 -43.5 13.9 -43.5 14.4 -43.95 15.0 -44.6 15.8 -45.5 15.8 M-50.0 25.6 Q-50.0 23.35 -47.85 23.15 -45.75 22.95 -45.75 25.15 -45.75 25.65 -46.25 26.45 -46.95 27.55 -48.0 27.55 -49.2 27.55 -49.7 26.65 L-50.0 25.6" fill="#ffff99" fill-rule="evenodd" stroke="none"/>
      <path d="M-38.95 14.25 Q-39.6 15.05 -40.5 15.05 -41.7 15.05 -42.2 14.15 L-42.5 13.1 Q-42.5 11.0 -40.5 11.2 -38.5 11.35 -38.5 13.15 -38.5 13.65 -38.95 14.25 M-36.0 25.6 Q-36.65 26.3 -37.5 26.3 -38.7 26.3 -39.2 25.4 L-39.5 24.35 Q-39.5 22.25 -37.5 22.45 -36.35 22.55 -35.85 23.2 -36.25 23.65 -36.25 24.6 L-36.0 25.6 M-37.75 19.35 Q-37.75 17.25 -35.75 17.45 -33.75 17.65 -33.75 19.4 -33.75 19.95 -34.2 20.55 -34.8 21.3 -35.75 21.3 -36.95 21.3 -37.5 20.35 L-37.75 19.35 M-53.25 22.05 Q-51.25 22.05 -51.25 24.15 -51.25 24.7 -51.7 25.3 -52.3 26.05 -53.25 26.05 -54.45 26.05 -54.95 25.15 L-55.25 24.1 Q-55.25 22.1 -53.25 22.05 M-51.25 19.35 Q-51.25 17.25 -49.25 17.45 -47.25 17.65 -47.25 19.4 -47.25 19.95 -47.7 20.55 -48.3 21.3 -49.25 21.3 -50.45 21.3 -51.0 20.35 L-51.25 19.35 M-46.5 21.85 Q-46.5 19.75 -44.5 19.95 -42.5 20.15 -42.5 21.9 -42.5 22.45 -42.95 23.05 -43.55 23.8 -44.5 23.8 -45.75 23.8 -46.25 22.9 L-46.5 21.85" fill="#cc9966" fill-rule="evenodd" stroke="none"/>
      <path d="M-31.0 24.1 Q-31.0 27.6 -35.45 27.95 L-41.25 27.8 -48.6 27.9 -51.15 28.05 Q-54.8 28.05 -57.75 24.85 -60.0 22.4 -60.0 21.35 L-59.9 20.4 Q-59.7 19.9 -59.0 19.55 L-56.75 19.4 -54.5 19.05 -52.85 17.7 Q-51.2 16.55 -49.25 16.5 -43.15 0.2 -36.55 8.9 -34.25 11.95 -32.5 17.25 -31.0 21.85 -31.0 24.1 L-31.0 24.1 Z" fill="none" stroke="#000000" stroke-linecap="round" stroke-linejoin="round" stroke-width="2.0"/>
    </g>
    <radialGradient cx="0" cy="0" gradientTransform="matrix(0.0549, 0.0, 0.0, 0.0366, -10.0, -30.0)" gradientUnits="userSpaceOnUse" id="gradient0" r="819.2" spreadMethod="pad">
      <stop offset="0.0" stop-color="#0b0b0b"/>
      <stop offset="1.0" stop-color="#191919"/>
    </radialGradient>
    <g id="text0" transform="matrix(1.0, 0.0, 0.0, 1.0, -1.3, 2.85)">
      <g transform="matrix(1.0, 0.0, 0.0, 1.0, 0.0, 0.0)">
        <use fill="#000000" height="29.15" transform="matrix(0.0293, 0.0, 0.0, 0.0293, 0.0, 22.0)" width="17.35" xlink:href="#font_Digital-7__0"/>
        <use fill="#000000" height="29.15" transform="matrix(0.0293, 0.0, 0.0, 0.0293, 14.15, 22.0)" width="17.35" xlink:href="#font_Digital-7_10"/>
      </g>
    </g>
    <g id="font_Digital-7__0">
      <path d="M212.0 28.0 L212.0 28.0 212.0 74.5 250.0 112.0 288.0 74.5 288.0 28.0 212.0 28.0 M288.0 -104.0 L288.0 -104.0 288.0 -268.0 212.0 -268.0 212.0 -104.0 288.0 -104.0 M288.0 -400.0 L288.0 -400.0 288.0 -568.0 212.0 -568.0 212.0 -400.0 288.0 -400.0 M288.0 -700.0 L288.0 -700.0 288.0 -744.5 250.0 -780.0 212.0 -744.5 212.0 -700.0 288.0 -700.0 M363.0 -596.0 L363.0 -596.0 437.5 -624.5 Q428.0 -662.5 391.0 -672.0 L94.0 -672.0 Q57.0 -662.5 47.5 -624.5 L122.0 -596.0 363.0 -596.0 M44.0 -603.5 L44.0 -603.5 44.0 -361.5 63.0 -343.0 120.0 -398.5 120.0 -575.5 44.0 -603.5 M345.5 -76.0 L345.5 -76.0 120.0 -76.0 44.0 -47.5 Q53.5 -9.5 91.0 0.0 L373.5 0.0 345.5 -76.0 M364.0 -268.0 L364.0 -268.0 364.0 -72.5 392.5 2.0 Q430.5 -7.5 440.0 -44.5 L440.0 -305.0 421.0 -324.0 364.0 -268.0 M122.0 -372.0 L122.0 -372.0 85.0 -334.0 122.0 -296.0 364.0 -296.0 401.5 -334.0 364.0 -372.0 122.0 -372.0" fill-rule="evenodd" stroke="none"/>
    </g>
    <g id="font_Digital-7_10">
      <path d="M101.0 -346.0 L101.0 -346.0 120.0 -365.0 120.0 -625.5 Q110.5 -662.5 72.5 -672.0 L44.0 -597.5 44.0 -402.0 101.0 -346.0 M44.0 -270.0 L44.0 -270.0 44.0 -74.5 72.5 0.0 Q110.5 -9.5 120.0 -46.5 L120.0 -307.0 101.0 -326.0 44.0 -270.0" fill-rule="evenodd" stroke="none"/>
    </g>
    <g id="text1" transform="matrix(1.0, 0.0, 0.0, 1.0, -70.05, -0.3)">
      <g transform="matrix(1.0, 0.0, 0.0, 1.0, 69.35, 0.0)">
        <use fill="#000000" fill-opacity="0.7372549" height="14.1" transform="matrix(0.0117, 0.0, 0.0, 0.0117, 0.0, 11.0)" width="74.4" xlink:href="#font_Arial_Narrow_C0"/>
        <use fill="#000000" fill-opacity="0.7372549" height="14.1" transform="matrix(0.0117, 0.0, 0.0, 0.0117, 7.1, 11.0)" width="74.4" xlink:href="#font_Arial_Narrow_l0"/>
        <use fill="#000000" fill-opacity="0.7372549" height="14.1" transform="matrix(0.0117, 0.0, 0.0, 0.0117, 9.3, 11.0)" width="74.4" xlink:href="#font_Arial_Narrow_i0"/>
        <use fill="#000000" fill-opacity="0.7372549" height="14.1" transform="matrix(0.0117, 0.0, 0.0, 0.0117, 11.45, 11.0)" width="74.4" xlink:href="#font_Arial_Narrow_c0"/>
        <use fill="#000000" fill-opacity="0.7372549" height="14.1" transform="matrix(0.0117, 0.0, 0.0, 0.0117, 16.35, 11.0)" width="74.4" xlink:href="#font_Arial_Narrow_k0"/>
        <use fill="#000000" fill-opacity="0.7372549" height="14.1" transform="matrix(0.0117, 0.0, 0.0, 0.0117, 24.05, 11.0)" width="74.4" xlink:href="#font_Arial_Narrow_t0"/>
        <use fill="#000000" fill-opacity="0.7372549" height="14.1" transform="matrix(0.0117, 0.0, 0.0, 0.0117, 26.75, 11.0)" width="74.4" xlink:href="#font_Arial_Narrow_o0"/>
        <use fill="#000000" fill-opacity="0.7372549" height="14.1" transform="matrix(0.0117, 0.0, 0.0, 0.0117, 34.95, 11.0)" width="74.4" xlink:href="#font_Arial_Narrow_d0"/>
        <use fill="#000000" fill-opacity="0.7372549" height="14.1" transform="matrix(0.0117, 0.0, 0.0, 0.0117, 40.4, 11.0)" width="74.4" xlink:href="#font_Arial_Narrow_i0"/>
        <use fill="#000000" fill-opacity="0.7372549" height="14.1" transform="matrix(0.0117, 0.0, 0.0, 0.0117, 42.6, 11.0)" width="74.4" xlink:href="#font_Arial_Narrow_s0"/>
        <use fill="#000000" fill-opacity="0.7372549" height="14.1" transform="matrix(0.0117, 0.0, 0.0, 0.0117, 47.5, 11.0)" width="74.4" xlink:href="#font_Arial_Narrow_p0"/>
        <use fill="#000000" fill-opacity="0.7372549" height="14.1" transform="matrix(0.0117, 0.0, 0.0, 0.0117, 53.0, 11.0)" width="74.4" xlink:href="#font_Arial_Narrow_e0"/>
        <use fill="#000000" fill-opacity="0.7372549" height="14.1" transform="matrix(0.0117, 0.0, 0.0, 0.0117, 58.5, 11.0)" width="74.4" xlink:href="#font_Arial_Narrow_n0"/>
        <use fill="#000000" fill-opacity="0.7372549" height="14.1" transform="matrix(0.0117, 0.0, 0.0, 0.0117, 64.0, 11.0)" width="74.4" xlink:href="#font_Arial_Narrow_s0"/>
        <use fill="#000000" fill-opacity="0.7372549" height="14.1" transform="matrix(0.0117, 0.0, 0.0, 0.0117, 68.95, 11.0)" width="74.4" xlink:href="#font_Arial_Narrow_e0"/>
      </g>
    </g>
    <g id="font_Arial_Narrow_C0">
      <path d="M496.0 -256.0 L496.0 -256.0 Q480.0 -163.0 433.0 -117.5 386.0 -72.0 321.0 -72.0 233.5 -72.0 181.0 -146.5 128.0 -221.5 128.0 -371.0 128.0 -470.0 154.0 -534.5 180.5 -599.0 224.5 -629.5 268.0 -660.0 328.0 -660.0 448.0 -660.0 488.0 -508.0 L564.0 -532.0 Q539.0 -636.0 476.5 -690.0 414.5 -744.0 327.5 -744.0 248.0 -744.0 184.0 -701.5 119.5 -658.5 81.5 -575.0 44.0 -491.5 44.0 -371.0 44.0 -249.0 82.0 -159.0 119.5 -69.5 179.0 -28.5 238.0 12.0 322.0 12.0 417.0 12.0 483.0 -48.5 549.5 -109.0 576.0 -232.0 L496.0 -256.0" fill-rule="evenodd" stroke="none"/>
    </g>
    <g id="font_Arial_Narrow_l0">
      <path d="M132.0 0.0 L132.0 0.0 132.0 -732.0 56.0 -732.0 56.0 0.0 132.0 0.0" fill-rule="evenodd" stroke="none"/>
    </g>
    <g id="font_Arial_Narrow_i0">
      <path d="M132.0 0.0 L132.0 0.0 132.0 -532.0 56.0 -532.0 56.0 0.0 132.0 0.0 M132.0 -628.0 L132.0 -628.0 132.0 -732.0 56.0 -732.0 56.0 -628.0 132.0 -628.0" fill-rule="evenodd" stroke="none"/>
    </g>
    <g id="font_Arial_Narrow_c0">
      <path d="M336.0 -196.0 L336.0 -196.0 Q328.5 -128.0 299.5 -96.0 270.5 -64.0 230.0 -64.0 178.5 -64.0 145.0 -112.0 112.0 -160.5 112.0 -268.0 112.0 -372.0 147.0 -420.0 182.0 -468.0 235.0 -468.0 271.0 -468.0 296.5 -442.0 322.0 -416.0 332.0 -364.0 L408.0 -376.0 Q395.0 -460.0 348.0 -502.0 301.5 -544.0 233.0 -544.0 144.5 -544.0 88.5 -474.5 32.0 -405.0 32.0 -266.5 32.0 -128.5 87.5 -58.5 142.5 12.0 228.5 12.0 299.0 12.0 349.0 -38.0 399.5 -88.5 412.0 -184.0 L336.0 -196.0" fill-rule="evenodd" stroke="none"/>
    </g>
    <g id="font_Arial_Narrow_k0">
      <path d="M132.0 0.0 L132.0 0.0 132.0 -211.0 186.5 -275.5 332.0 0.0 418.0 0.0 235.5 -334.5 401.5 -532.0 303.5 -532.0 132.0 -321.0 132.0 -732.0 56.0 -732.0 56.0 0.0 132.0 0.0" fill-rule="evenodd" stroke="none"/>
    </g>
    <g id="font_Arial_Narrow_t0">
      <path d="M220.0 -68.0 L220.0 -68.0 Q199.5 -72.0 187.0 -72.0 160.5 -72.0 150.5 -90.0 144.0 -103.0 144.0 -146.0 L144.0 -460.0 220.0 -460.0 220.0 -532.0 144.0 -532.0 144.0 -716.0 68.0 -660.0 68.0 -532.0 12.0 -532.0 12.0 -460.0 68.0 -460.0 68.0 -152.0 Q68.0 -72.0 77.0 -45.5 86.0 -18.5 110.5 -3.5 135.0 12.0 175.0 12.0 200.5 12.0 232.0 8.0 L220.0 -68.0" fill-rule="evenodd" stroke="none"/>
    </g>
    <g id="font_Arial_Narrow_o0">
      <path d="M104.0 -266.0 L104.0 -266.0 Q104.0 -367.5 139.5 -418.0 175.5 -468.0 226.0 -468.0 279.5 -468.0 316.0 -418.0 352.0 -368.0 352.0 -266.0 352.0 -165.0 316.0 -114.5 280.0 -64.0 230.0 -64.0 176.5 -64.0 140.0 -114.0 104.0 -164.0 104.0 -266.0 M24.0 -266.0 L24.0 -266.0 Q24.0 -128.5 82.5 -58.5 140.5 12.0 228.0 12.0 317.0 12.0 374.5 -58.0 432.0 -128.0 432.0 -271.5 432.0 -403.5 373.5 -474.0 315.0 -544.0 228.0 -544.0 139.5 -544.0 82.0 -474.0 24.0 -403.5 24.0 -266.0" fill-rule="evenodd" stroke="none"/>
    </g>
    <g id="font_Arial_Narrow_d0">
      <path d="M104.0 -265.5 L104.0 -265.5 Q104.0 -370.0 136.0 -419.0 168.0 -468.0 213.0 -468.0 263.0 -468.0 296.0 -417.0 329.0 -366.0 329.0 -255.5 329.0 -159.5 296.0 -111.5 263.0 -64.0 218.0 -64.0 172.5 -64.0 138.5 -113.5 104.0 -163.0 104.0 -265.5 M404.0 0.0 L404.0 0.0 404.0 -732.0 324.0 -732.0 324.0 -469.0 Q304.0 -504.5 273.0 -524.0 242.0 -544.0 206.0 -544.0 156.0 -544.0 114.5 -513.5 73.5 -483.0 48.5 -420.0 24.0 -356.5 24.0 -266.0 24.0 -133.5 79.5 -61.0 134.5 12.0 210.5 12.0 246.5 12.0 277.5 -8.5 308.5 -29.5 328.0 -69.0 L328.0 0.0 404.0 0.0" fill-rule="evenodd" stroke="none"/>
    </g>
    <g id="font_Arial_Narrow_s0">
      <path d="M20.0 -156.0 L20.0 -156.0 Q45.0 12.0 203.0 12.0 287.0 12.0 335.5 -35.5 384.0 -82.5 384.0 -159.0 384.0 -200.0 370.0 -230.0 355.5 -260.0 330.0 -277.5 304.0 -295.0 212.0 -322.5 142.0 -344.5 128.0 -354.5 104.0 -371.0 104.0 -400.5 104.0 -430.0 128.0 -449.0 151.5 -468.0 200.5 -468.0 286.0 -468.0 296.0 -384.0 L372.0 -396.0 Q364.5 -450.5 344.5 -480.0 324.5 -509.0 287.0 -526.5 249.5 -544.0 199.5 -544.0 121.0 -544.0 76.5 -501.5 32.0 -459.0 32.0 -391.0 32.0 -351.0 49.0 -320.0 66.5 -289.0 97.5 -270.5 128.5 -252.0 214.5 -226.0 274.0 -208.0 286.5 -196.0 304.0 -178.5 304.0 -147.5 304.0 -111.0 278.5 -87.5 253.0 -64.0 206.0 -64.0 159.0 -64.0 130.5 -89.5 102.5 -115.5 96.0 -168.0 L20.0 -156.0" fill-rule="evenodd" stroke="none"/>
    </g>
    <g id="font_Arial_Narrow_p0">
      <path d="M127.5 -261.5 L127.5 -261.5 Q127.5 -362.0 163.0 -415.0 198.0 -468.0 241.0 -468.0 289.0 -468.0 322.5 -419.0 356.0 -369.5 356.0 -267.0 356.0 -163.5 321.5 -113.5 287.5 -64.0 241.5 -64.0 194.5 -64.0 161.0 -112.0 127.5 -160.0 127.5 -261.5 M132.0 204.0 L132.0 204.0 132.0 -57.0 Q153.5 -24.0 183.0 -6.0 212.5 12.0 246.5 12.0 322.5 12.0 379.5 -61.5 436.0 -134.5 436.0 -270.5 436.0 -358.0 411.0 -420.5 386.0 -483.0 345.0 -513.5 303.5 -544.0 252.5 -544.0 213.5 -544.0 183.0 -523.5 153.0 -503.5 128.0 -457.5 L128.0 -532.0 56.0 -532.0 56.0 204.0 132.0 204.0" fill-rule="evenodd" stroke="none"/>
    </g>
    <g id="font_Arial_Narrow_e0">
      <path d="M104.5 -316.0 L104.5 -316.0 Q108.0 -385.5 143.0 -427.0 178.0 -468.0 228.0 -468.0 283.0 -468.0 318.5 -418.5 343.0 -384.5 348.0 -316.0 L104.5 -316.0 M344.0 -168.0 L344.0 -168.0 Q312.0 -64.0 230.0 -64.0 177.5 -64.0 141.0 -109.5 104.5 -154.5 100.0 -244.0 L424.0 -244.0 424.5 -268.0 Q424.5 -402.0 368.0 -473.0 312.0 -544.0 227.5 -544.0 139.0 -544.0 81.5 -471.5 24.0 -399.0 24.0 -261.5 24.0 -128.5 81.0 -58.5 137.5 12.0 229.5 12.0 302.5 12.0 352.0 -30.5 401.0 -72.5 420.0 -156.0 L344.0 -168.0" fill-rule="evenodd" stroke="none"/>
    </g>
    <g id="font_Arial_Narrow_n0">
      <path d="M132.0 0.0 L132.0 0.0 132.0 -292.0 Q132.0 -388.5 163.0 -428.0 194.5 -468.0 246.5 -468.0 274.5 -468.0 295.5 -453.0 316.5 -438.5 326.0 -411.0 336.0 -384.0 336.0 -325.0 L336.0 0.0 412.0 0.0 412.0 -327.0 Q412.0 -400.5 403.0 -436.5 394.5 -472.0 376.0 -494.0 358.0 -516.5 329.0 -530.0 299.5 -544.0 265.0 -544.0 220.5 -544.0 186.0 -522.5 151.5 -501.5 128.0 -458.5 L128.0 -532.0 56.0 -532.0 56.0 0.0 132.0 0.0" fill-rule="evenodd" stroke="none"/>
    </g>
  </defs>
</svg>
