<?xml version="1.0" encoding="UTF-8" standalone="no"?>
<svg xmlns:ffdec="https://www.free-decompiler.com/flash" xmlns:xlink="http://www.w3.org/1999/xlink" ffdec:objectType="frame" height="40.5px" width="234.45px" xmlns="http://www.w3.org/2000/svg">
  <g transform="matrix(1.0, 0.0, 0.0, 1.0, 121.0, 23.5)">
    <use ffdec:characterId="1170" height="40.5" transform="matrix(1.0, 0.0, 0.0, 1.0, -121.0, -23.5)" width="234.45" xlink:href="#text0"/>
  </g>
  <defs>
    <g id="text0" transform="matrix(1.0, 0.0, 0.0, 1.0, -4.1, -8.5)">
      <g transform="matrix(1.0, 0.0, 0.0, 1.0, 0.0, 0.0)">
        <use fill="#ff0000" fill-opacity="0.49803922" height="40.5" transform="matrix(0.0488, 0.0, 0.0, 0.0488, 0.0, 48.0)" width="234.45" xlink:href="#font_Silom_M0"/>
        <use fill="#ff0000" fill-opacity="0.49803922" height="40.5" transform="matrix(0.0488, 0.0, 0.0, 0.0488, 50.0, 48.0)" width="234.45" xlink:href="#font_Silom_a0"/>
        <use fill="#ff0000" fill-opacity="0.49803922" height="40.5" transform="matrix(0.0488, 0.0, 0.0, 0.0488, 83.35, 48.0)" width="234.45" xlink:href="#font_Silom_x0"/>
        <use fill="#ff0000" fill-opacity="0.49803922" height="40.5" transform="matrix(0.0488, 0.0, 0.0, 0.0488, 116.7, 48.0)" width="234.45" xlink:href="#font_Silom_i0"/>
        <use fill="#ff0000" fill-opacity="0.49803922" height="40.5" transform="matrix(0.0488, 0.0, 0.0, 0.0488, 145.85, 48.0)" width="234.45" xlink:href="#font_Silom__1"/>
        <use fill="#ff0000" fill-opacity="0.49803922" height="40.5" transform="matrix(0.0488, 0.0, 0.0, 0.0488, 175.0, 48.0)" width="234.45" xlink:href="#font_Silom_10"/>
        <use fill="#ff0000" fill-opacity="0.49803922" height="40.5" transform="matrix(0.0488, 0.0, 0.0, 0.0488, 208.35, 48.0)" width="234.45" xlink:href="#font_Silom_00"/>
        <use fill="#ff0000" fill-opacity="0.49803922" height="40.5" transform="matrix(0.0488, 0.0, 0.0, 0.0488, 241.7, 48.0)" width="234.45" xlink:href="#font_Silom_00"/>
      </g>
    </g>
    <g id="font_Silom_M0">
      <path d="M85.0 0.0 L171.0 0.0 171.0 -469.0 469.0 -170.0 768.0 -469.0 768.0 0.0 939.0 0.0 939.0 -768.0 853.0 -768.0 489.0 -404.0 125.0 -768.0 85.0 -768.0 85.0 0.0" fill-rule="evenodd" stroke="none"/>
    </g>
    <g id="font_Silom_a0">
      <path d="M427.0 -256.0 L427.0 -171.0 Q427.0 -136.0 402.0 -111.0 377.0 -85.0 341.0 -85.0 306.0 -85.0 281.0 -111.0 256.0 -136.0 256.0 -171.0 256.0 -206.0 281.0 -231.0 306.0 -256.0 341.0 -256.0 L427.0 -256.0 M427.0 -341.0 L256.0 -341.0 Q186.0 -341.0 136.0 -291.0 85.0 -241.0 85.0 -171.0 85.0 -100.0 136.0 -50.0 186.0 0.0 256.0 0.0 L341.0 0.0 Q417.0 0.0 427.0 -85.0 L427.0 0.0 597.0 0.0 597.0 -427.0 Q597.0 -497.0 547.0 -547.0 497.0 -597.0 427.0 -597.0 L256.0 -597.0 Q105.0 -597.0 85.0 -427.0 L171.0 -427.0 Q180.0 -512.0 256.0 -512.0 L341.0 -512.0 Q377.0 -512.0 402.0 -487.0 427.0 -462.0 427.0 -427.0 L427.0 -341.0" fill-rule="evenodd" stroke="none"/>
    </g>
    <g id="font_Silom_x0">
      <path d="M85.0 0.0 L256.0 0.0 256.0 -171.0 Q256.0 -206.0 281.0 -231.0 306.0 -256.0 341.0 -256.0 377.0 -256.0 402.0 -231.0 427.0 -206.0 427.0 -171.0 L427.0 0.0 597.0 0.0 597.0 -128.0 Q597.0 -203.0 554.0 -246.0 512.0 -289.0 427.0 -299.0 512.0 -308.0 554.0 -351.0 597.0 -394.0 597.0 -469.0 L597.0 -597.0 427.0 -597.0 427.0 -427.0 Q427.0 -391.0 402.0 -366.0 377.0 -341.0 341.0 -341.0 306.0 -341.0 281.0 -366.0 256.0 -391.0 256.0 -427.0 L256.0 -597.0 85.0 -597.0 85.0 -469.0 Q85.0 -394.0 128.0 -351.0 171.0 -308.0 256.0 -299.0 171.0 -289.0 128.0 -246.0 85.0 -204.0 85.0 -128.0 L85.0 0.0" fill-rule="evenodd" stroke="none"/>
    </g>
    <g id="font_Silom_i0">
      <path d="M85.0 0.0 L256.0 0.0 256.0 -597.0 85.0 -597.0 85.0 0.0 M85.0 -683.0 L256.0 -683.0 256.0 -768.0 85.0 -768.0 85.0 -683.0" fill-rule="evenodd" stroke="none"/>
    </g>
    <g id="font_Silom__1">
      <path d="M256.0 -256.0 L256.0 -256.0 256.0 -84.0 340.0 -84.0 340.0 -256.0 511.0 -256.0 511.0 -340.0 340.0 -340.0 340.0 -512.0 256.0 -512.0 256.0 -340.0 85.0 -340.0 85.0 -256.0 256.0 -256.0" fill-rule="evenodd" stroke="none"/>
    </g>
    <g id="font_Silom_10">
      <path d="M428.0 0.0 L428.0 0.0 428.0 -768.0 341.5 -768.0 171.0 -683.0 171.0 -597.0 256.0 -597.0 256.0 0.0 428.0 0.0" fill-rule="evenodd" stroke="none"/>
    </g>
    <g id="font_Silom_00">
      <path d="M426.0 -612.0 L256.0 -307.0 256.0 -597.0 Q256.0 -633.0 281.0 -658.0 306.0 -683.0 341.0 -683.0 408.0 -683.0 426.0 -612.0 M258.0 -157.0 L427.0 -461.0 427.0 -171.0 Q427.0 -136.0 402.0 -111.0 377.0 -85.0 341.0 -85.0 306.0 -85.0 285.0 -103.0 264.0 -122.0 258.0 -157.0 M256.0 -768.0 Q186.0 -768.0 136.0 -718.0 85.0 -668.0 85.0 -597.0 L85.0 -171.0 Q85.0 -100.0 136.0 -50.0 186.0 0.0 256.0 0.0 L427.0 0.0 Q497.0 0.0 547.0 -51.0 597.0 -101.0 597.0 -171.0 L597.0 -597.0 Q597.0 -667.0 547.0 -717.0 497.0 -768.0 427.0 -768.0 L256.0 -768.0" fill-rule="evenodd" stroke="none"/>
    </g>
  </defs>
</svg>
