<?xml version="1.0" encoding="UTF-8" standalone="no"?>
<svg xmlns:ffdec="https://www.free-decompiler.com/flash" xmlns:xlink="http://www.w3.org/1999/xlink" ffdec:objectType="frame" height="49.0px" width="300.0px" xmlns="http://www.w3.org/2000/svg">
  <g transform="matrix(1.0, 0.0, 0.0, 1.0, 150.0, 25.0)">
    <use ffdec:characterId="348" height="49.0" transform="matrix(1.0, 0.0, 0.0, 1.0, -150.0, -25.0)" width="300.0" xlink:href="#shape0"/>
    <use ffdec:characterId="349" height="18.55" transform="matrix(1.0, 0.0, 0.0, 1.0, -25.0, -9.9)" width="51.3" xlink:href="#text0"/>
  </g>
  <defs>
    <g id="shape0" transform="matrix(1.0, 0.0, 0.0, 1.0, 150.0, 25.0)">
      <path d="M130.0 -25.0 Q138.3 -25.0 144.15 -19.15 150.0 -13.3 150.0 -5.0 L150.0 4.0 Q150.0 12.3 144.15 18.15 138.3 24.0 130.0 24.0 L-130.0 24.0 Q-138.3 24.0 -144.15 18.15 -149.8 12.5 -150.0 4.55 L-150.0 -5.5 Q-149.8 -13.5 -144.15 -19.15 -138.5 -24.8 -130.5 -25.0 L130.0 -25.0" fill="#000000" fill-opacity="0.49803922" fill-rule="evenodd" stroke="none"/>
    </g>
    <g id="text0" transform="matrix(1.0, 0.0, 0.0, 1.0, -1.15, -2.1)">
      <g transform="matrix(1.0, 0.0, 0.0, 1.0, 0.0, 0.0)">
        <use fill="#ffffff" height="18.55" transform="matrix(0.0234, 0.0, 0.0, 0.0234, 0.0, 19.0)" width="51.3" xlink:href="#font_Apple_Casual_M0"/>
        <use fill="#ffffff" height="18.55" transform="matrix(0.0234, 0.0, 0.0, 0.0234, 13.25, 19.0)" width="51.3" xlink:href="#font_Apple_Casual_e0"/>
        <use fill="#ffffff" height="18.55" transform="matrix(0.0234, 0.0, 0.0, 0.0234, 21.45, 19.0)" width="51.3" xlink:href="#font_Apple_Casual_n0"/>
        <use fill="#ffffff" height="18.55" transform="matrix(0.0234, 0.0, 0.0, 0.0234, 31.15, 19.0)" width="51.3" xlink:href="#font_Apple_Casual_u0"/>
      </g>
    </g>
    <g id="font_Apple_Casual_M0">
      <path d="M492.0 -2.0 Q487.0 -3.0 483.0 -6.0 478.0 -8.0 474.0 -11.0 469.0 -14.0 465.0 -18.0 461.0 -22.0 457.0 -27.0 447.0 -43.0 442.0 -88.0 438.0 -133.0 436.0 -190.0 433.0 -247.0 433.0 -307.0 433.0 -366.0 432.0 -410.0 430.0 -398.0 428.0 -370.0 425.0 -341.0 422.0 -311.0 420.0 -280.0 418.0 -256.0 416.0 -231.0 415.0 -228.0 414.0 -226.0 412.0 -218.0 409.0 -211.0 406.0 -202.0 403.0 -193.0 401.0 -186.0 398.0 -178.0 398.0 -176.0 398.0 -175.0 397.0 -174.0 397.0 -174.0 397.0 -173.0 397.0 -172.0 397.0 -171.0 397.0 -171.0 397.0 -170.0 397.0 -167.0 397.0 -165.0 398.0 -163.0 398.0 -161.0 398.0 -159.0 399.0 -158.0 399.0 -156.0 399.0 -156.0 394.0 -136.0 387.0 -110.0 381.0 -84.0 372.0 -62.0 362.0 -39.0 349.0 -24.0 335.0 -8.0 315.0 -8.0 L310.0 -8.0 Q308.0 -7.0 306.0 -7.0 304.0 -6.0 302.0 -6.0 300.0 -6.0 298.0 -6.0 296.0 -6.0 294.0 -6.0 287.0 -6.0 281.0 -8.0 275.0 -9.0 272.0 -12.0 268.0 -15.0 265.0 -19.0 263.0 -22.0 262.0 -27.0 256.0 -30.0 245.0 -48.0 234.0 -65.0 222.0 -87.0 211.0 -109.0 203.0 -131.0 194.0 -153.0 194.0 -166.0 194.0 -167.0 192.0 -175.0 189.0 -182.0 185.0 -191.0 182.0 -201.0 178.0 -211.0 173.0 -222.0 170.0 -230.0 168.0 -234.0 166.0 -243.0 164.0 -252.0 161.0 -264.0 158.0 -276.0 154.0 -291.0 150.0 -305.0 144.0 -322.0 L135.0 -348.0 Q134.0 -314.0 132.0 -281.0 130.0 -248.0 128.0 -216.0 126.0 -184.0 124.0 -151.0 123.0 -119.0 123.0 -87.0 123.0 -80.0 126.0 -74.0 128.0 -68.0 131.0 -63.0 134.0 -58.0 137.0 -53.0 139.0 -48.0 139.0 -44.0 139.0 -36.0 136.0 -28.0 133.0 -20.0 128.0 -14.0 122.0 -8.0 114.0 -4.0 106.0 0.0 95.0 0.0 68.0 0.0 53.0 -12.0 38.0 -23.0 31.0 -42.0 23.0 -60.0 22.0 -84.0 20.0 -107.0 20.0 -130.0 20.0 -140.0 21.0 -156.0 22.0 -172.0 24.0 -189.0 26.0 -205.0 28.0 -220.0 30.0 -234.0 31.0 -242.0 L31.0 -485.0 Q30.0 -490.0 28.0 -507.0 26.0 -524.0 24.0 -546.0 23.0 -568.0 21.0 -592.0 20.0 -616.0 20.0 -636.0 20.0 -656.0 31.0 -666.0 42.0 -677.0 57.0 -682.0 71.0 -687.0 84.0 -687.0 98.0 -688.0 102.0 -688.0 L103.0 -688.0 Q108.0 -688.0 112.0 -686.0 117.0 -684.0 122.0 -681.0 127.0 -678.0 132.0 -673.0 137.0 -669.0 142.0 -664.0 148.0 -658.0 153.0 -647.0 158.0 -636.0 161.0 -624.0 164.0 -612.0 166.0 -600.0 168.0 -588.0 168.0 -579.0 L168.0 -571.0 Q168.0 -569.0 168.0 -568.0 168.0 -567.0 169.0 -566.0 169.0 -564.0 170.0 -563.0 170.0 -562.0 171.0 -561.0 L172.0 -558.0 Q172.0 -558.0 174.0 -554.0 176.0 -549.0 179.0 -542.0 182.0 -536.0 185.0 -528.0 189.0 -521.0 190.0 -515.0 L270.0 -217.0 Q274.0 -206.0 277.0 -197.0 281.0 -187.0 284.0 -178.0 287.0 -169.0 290.0 -160.0 294.0 -151.0 297.0 -143.0 300.0 -151.0 302.0 -160.0 304.0 -168.0 306.0 -177.0 309.0 -186.0 311.0 -195.0 313.0 -205.0 315.0 -215.0 L376.0 -559.0 Q376.0 -560.0 377.0 -561.0 377.0 -562.0 377.0 -564.0 378.0 -565.0 378.0 -566.0 378.0 -567.0 378.0 -569.0 377.0 -571.0 377.0 -573.0 376.0 -576.0 376.0 -579.0 375.0 -582.0 375.0 -585.0 375.0 -589.0 375.0 -592.0 375.0 -613.0 380.0 -630.0 384.0 -647.0 392.0 -660.0 399.0 -672.0 409.0 -679.0 419.0 -686.0 429.0 -686.0 431.0 -686.0 434.0 -686.0 438.0 -685.0 441.0 -685.0 445.0 -684.0 449.0 -683.0 454.0 -682.0 458.0 -681.0 461.0 -682.0 465.0 -682.0 468.0 -683.0 470.0 -684.0 473.0 -684.0 475.0 -685.0 477.0 -685.0 478.0 -685.0 483.0 -685.0 490.0 -684.0 496.0 -682.0 502.0 -679.0 508.0 -677.0 512.0 -672.0 516.0 -668.0 516.0 -662.0 518.0 -648.0 519.0 -636.0 521.0 -623.0 521.0 -610.0 522.0 -598.0 523.0 -586.0 523.0 -574.0 523.0 -562.0 523.0 -551.0 523.0 -540.0 522.0 -529.0 522.0 -518.0 522.0 -507.0 521.0 -495.0 521.0 -484.0 521.0 -472.0 521.0 -454.0 523.0 -433.0 524.0 -412.0 527.0 -389.0 529.0 -366.0 530.0 -342.0 532.0 -317.0 532.0 -292.0 532.0 -279.0 532.0 -267.0 531.0 -254.0 531.0 -241.0 531.0 -229.0 530.0 -216.0 530.0 -204.0 530.0 -191.0 530.0 -183.0 532.0 -161.0 534.0 -138.0 537.0 -114.0 540.0 -89.0 542.0 -69.0 544.0 -49.0 544.0 -45.0 544.0 -34.0 540.0 -27.0 535.0 -20.0 528.0 -16.0 521.0 -11.0 513.0 -8.0 504.0 -5.0 496.0 -1.0 496.0 -1.0 495.0 -1.0 494.0 -1.0 494.0 -1.0 493.0 -2.0 492.0 -2.0 492.0 -2.0 492.0 -2.0" fill-rule="evenodd" stroke="none"/>
    </g>
    <g id="font_Apple_Casual_e0">
      <path d="M136.0 -252.0 Q136.0 -248.0 142.0 -246.0 147.0 -243.0 155.0 -242.0 162.0 -240.0 170.0 -240.0 178.0 -239.0 184.0 -239.0 L189.0 -239.0 Q189.0 -242.0 186.0 -251.0 183.0 -260.0 179.0 -269.0 174.0 -279.0 169.0 -286.0 165.0 -293.0 160.0 -293.0 158.0 -291.0 154.0 -286.0 150.0 -281.0 146.0 -274.0 142.0 -267.0 139.0 -261.0 136.0 -255.0 136.0 -252.0 M18.0 -176.0 L18.0 -184.0 Q18.0 -200.0 20.0 -216.0 23.0 -232.0 27.0 -248.0 32.0 -264.0 39.0 -281.0 45.0 -298.0 54.0 -318.0 56.0 -321.0 61.0 -323.0 65.0 -325.0 71.0 -326.0 76.0 -328.0 81.0 -330.0 87.0 -332.0 91.0 -335.0 93.0 -338.0 99.0 -338.0 104.0 -339.0 109.0 -339.0 115.0 -340.0 119.0 -341.0 123.0 -341.0 123.0 -344.0 135.0 -346.0 144.0 -348.0 154.0 -349.0 164.0 -350.0 173.0 -350.0 183.0 -351.0 192.0 -351.0 204.0 -351.0 227.0 -351.0 239.0 -347.0 252.0 -343.0 259.0 -335.0 267.0 -326.0 272.0 -313.0 277.0 -300.0 285.0 -281.0 287.0 -275.0 291.0 -266.0 294.0 -257.0 297.0 -248.0 300.0 -240.0 303.0 -234.0 305.0 -227.0 305.0 -227.0 305.0 -227.0 305.0 -227.0 306.0 -226.0 306.0 -225.0 306.0 -225.0 307.0 -224.0 307.0 -223.0 307.0 -223.0 307.0 -207.0 297.0 -199.0 286.0 -191.0 271.0 -187.0 257.0 -183.0 241.0 -183.0 225.0 -183.0 214.0 -183.0 L131.0 -183.0 Q132.0 -165.0 133.0 -148.0 134.0 -131.0 138.0 -114.0 141.0 -98.0 147.0 -81.0 154.0 -65.0 165.0 -50.0 166.0 -48.0 167.0 -46.0 168.0 -44.0 170.0 -42.0 171.0 -40.0 173.0 -38.0 174.0 -37.0 177.0 -37.0 187.0 -38.0 199.0 -50.0 211.0 -62.0 223.0 -76.0 234.0 -90.0 244.0 -101.0 253.0 -112.0 259.0 -112.0 L315.0 -113.0 Q318.0 -113.0 322.0 -111.0 326.0 -108.0 330.0 -105.0 334.0 -101.0 336.0 -97.0 339.0 -93.0 339.0 -90.0 339.0 -90.0 328.0 -71.0 317.0 -53.0 297.0 -31.0 277.0 -9.0 250.0 10.0 222.0 28.0 188.0 28.0 182.0 28.0 168.0 26.0 155.0 25.0 141.0 23.0 127.0 20.0 116.0 18.0 104.0 16.0 102.0 14.0 76.0 5.0 60.0 -18.0 44.0 -41.0 35.0 -69.0 26.0 -98.0 23.0 -126.0 20.0 -155.0 18.0 -176.0" fill-rule="evenodd" stroke="none"/>
    </g>
    <g id="font_Apple_Casual_n0">
      <path d="M271.0 -11.0 Q271.0 -12.0 272.0 -21.0 273.0 -29.0 275.0 -46.0 276.0 -63.0 277.0 -89.0 278.0 -116.0 278.0 -153.0 278.0 -155.0 277.0 -161.0 276.0 -167.0 275.0 -174.0 273.0 -181.0 272.0 -187.0 271.0 -193.0 271.0 -195.0 271.0 -202.0 271.0 -211.0 271.0 -219.0 270.0 -228.0 269.0 -237.0 266.0 -245.0 263.0 -253.0 256.0 -258.0 210.0 -248.0 188.0 -232.0 166.0 -217.0 157.0 -192.0 148.0 -167.0 147.0 -132.0 146.0 -96.0 142.0 -47.0 142.0 -35.0 140.0 -26.0 137.0 -16.0 132.0 -9.0 127.0 -2.0 119.0 2.0 111.0 6.0 100.0 6.0 96.0 6.0 92.0 6.0 88.0 6.0 85.0 5.0 82.0 4.0 79.0 3.0 76.0 1.0 74.0 -1.0 65.0 -2.0 60.0 -3.0 54.0 -4.0 50.0 -5.0 45.0 -7.0 41.0 -10.0 37.0 -14.0 31.0 -22.0 31.0 -60.0 30.0 -98.0 29.0 -136.0 29.0 -173.0 28.0 -211.0 27.0 -249.0 26.0 -287.0 26.0 -325.0 26.0 -329.0 25.0 -333.0 24.0 -336.0 23.0 -339.0 22.0 -342.0 21.0 -344.0 20.0 -346.0 20.0 -347.0 20.0 -359.0 30.0 -366.0 39.0 -373.0 52.0 -377.0 65.0 -381.0 77.0 -383.0 90.0 -384.0 96.0 -384.0 L141.0 -362.0 141.0 -296.0 Q165.0 -309.0 174.0 -318.0 184.0 -326.0 196.0 -330.0 207.0 -334.0 229.0 -336.0 252.0 -337.0 301.0 -337.0 307.0 -337.0 315.0 -337.0 324.0 -337.0 332.0 -336.0 341.0 -336.0 348.0 -333.0 356.0 -331.0 361.0 -326.0 367.0 -317.0 372.0 -299.0 377.0 -281.0 380.0 -260.0 383.0 -239.0 385.0 -217.0 387.0 -196.0 388.0 -178.0 388.0 -175.0 388.0 -167.0 388.0 -158.0 388.0 -146.0 387.0 -134.0 387.0 -120.0 387.0 -107.0 387.0 -95.0 387.0 -78.0 388.0 -65.0 389.0 -52.0 390.0 -42.0 391.0 -32.0 392.0 -25.0 393.0 -17.0 393.0 -13.0 393.0 -12.0 393.0 -12.0 393.0 -11.0 393.0 -10.0 392.0 -9.0 392.0 -9.0 392.0 -8.0 392.0 -8.0 392.0 -6.0 392.0 -5.0 392.0 -3.0 393.0 -2.0 393.0 0.0 393.0 1.0 393.0 2.0 393.0 3.0 393.0 9.0 388.0 13.0 382.0 17.0 375.0 19.0 367.0 21.0 360.0 21.0 353.0 22.0 349.0 22.0 340.0 22.0 329.0 20.0 317.0 18.0 307.0 15.0 296.0 11.0 286.0 4.0 277.0 -2.0 271.0 -11.0" fill-rule="evenodd" stroke="none"/>
    </g>
    <g id="font_Apple_Casual_u0">
      <path d="M272.0 -101.0 Q260.0 -83.0 245.0 -71.0 230.0 -59.0 213.0 -51.0 196.0 -44.0 176.0 -40.0 156.0 -37.0 133.0 -37.0 125.0 -37.0 116.0 -37.0 107.0 -38.0 99.0 -39.0 91.0 -40.0 84.0 -42.0 77.0 -44.0 72.0 -47.0 48.0 -62.0 38.0 -90.0 27.0 -118.0 24.0 -148.0 21.0 -178.0 22.0 -206.0 23.0 -234.0 23.0 -250.0 23.0 -258.0 23.0 -266.0 23.0 -273.0 23.0 -280.0 23.0 -287.0 23.0 -292.0 24.0 -297.0 24.0 -300.0 22.0 -302.0 21.0 -304.0 19.0 -306.0 19.0 -307.0 18.0 -309.0 18.0 -311.0 18.0 -313.0 18.0 -315.0 18.0 -324.0 27.0 -331.0 35.0 -338.0 47.0 -343.0 59.0 -348.0 71.0 -350.0 83.0 -353.0 90.0 -353.0 96.0 -353.0 103.0 -351.0 111.0 -348.0 118.0 -344.0 125.0 -340.0 131.0 -334.0 136.0 -328.0 139.0 -321.0 139.0 -314.0 138.0 -307.0 138.0 -300.0 138.0 -293.0 138.0 -285.0 138.0 -278.0 138.0 -270.0 138.0 -262.0 138.0 -246.0 138.0 -224.0 138.0 -202.0 139.0 -181.0 141.0 -159.0 144.0 -143.0 148.0 -126.0 156.0 -121.0 194.0 -121.0 208.0 -145.0 222.0 -169.0 227.0 -203.0 231.0 -238.0 233.0 -276.0 234.0 -315.0 246.0 -344.0 249.0 -353.0 256.0 -358.0 264.0 -362.0 273.0 -364.0 282.0 -365.0 292.0 -365.0 302.0 -365.0 310.0 -365.0 331.0 -365.0 340.0 -354.0 348.0 -344.0 350.0 -328.0 352.0 -312.0 351.0 -293.0 349.0 -274.0 352.0 -258.0 358.0 -231.0 362.0 -206.0 366.0 -181.0 370.0 -157.0 375.0 -133.0 382.0 -110.0 389.0 -86.0 403.0 -62.0 403.0 -62.0 406.0 -60.0 408.0 -57.0 411.0 -55.0 414.0 -52.0 416.0 -50.0 419.0 -48.0 419.0 -47.0 419.0 -36.0 417.0 -28.0 414.0 -19.0 408.0 -13.0 402.0 -7.0 392.0 -3.0 382.0 0.0 367.0 0.0 364.0 0.0 361.0 -1.0 358.0 -2.0 354.0 -4.0 350.0 -5.0 347.0 -7.0 343.0 -9.0 340.0 -11.0 322.0 -21.0 311.0 -31.0 300.0 -42.0 293.0 -53.0 286.0 -65.0 281.0 -77.0 277.0 -89.0 272.0 -101.0" fill-rule="evenodd" stroke="none"/>
    </g>
  </defs>
</svg>
