<?xml version="1.0" encoding="UTF-8" standalone="no"?>
<svg xmlns:ffdec="https://www.free-decompiler.com/flash" xmlns:xlink="http://www.w3.org/1999/xlink" ffdec:objectType="text" height="133.8px" width="196.25px" xmlns="http://www.w3.org/2000/svg">
  <g transform="matrix(1.0, 0.0, 0.0, 1.0, -0.8, -17.2)">
    <g transform="matrix(1.0, 0.0, 0.0, 1.0, 0.0, 0.0)">
      <use fill="#ffffff" height="133.8" transform="matrix(0.0664, 0.0, 0.0, 0.0664, 0.0, 67.0)" width="196.25" xlink:href="#font_Cooper_Std_Black_N0"/>
      <use fill="#ffffff" height="133.8" transform="matrix(0.0664, 0.0, 0.0, 0.0664, 55.35, 67.0)" width="196.25" xlink:href="#font_Cooper_Std_Black_o0"/>
    </g>
    <g transform="matrix(1.0, 0.0, 0.0, 1.0, 0.0, 0.0)">
      <use fill="#ffffff" height="133.8" transform="matrix(0.0938, 0.0, 0.0, 0.0938, 0.0, 149.0)" width="196.25" xlink:href="#font_Cooper_Std_Black_L0"/>
      <use fill="#ffffff" height="133.8" transform="matrix(0.0938, 0.0, 0.0, 0.0938, 58.35, 149.0)" width="196.25" xlink:href="#font_Cooper_Std_Black_i0"/>
      <use fill="#ffffff" height="133.8" transform="matrix(0.0938, 0.0, 0.0, 0.0938, 84.1, 149.0)" width="196.25" xlink:href="#font_Cooper_Std_Black_f0"/>
      <use fill="#ffffff" height="133.8" transform="matrix(0.0938, 0.0, 0.0, 0.0938, 121.55, 149.0)" width="196.25" xlink:href="#font_Cooper_Std_Black_e0"/>
    </g>
  </g>
  <defs>
    <g id="font_Cooper_Std_Black_N0">
      <path d="M756.0 -80.0 L756.0 -84.0 Q752.0 -182.0 750.0 -263.0 748.0 -344.0 746.0 -421.0 745.0 -499.0 745.0 -580.0 745.0 -660.0 745.0 -759.0 745.0 -785.0 723.0 -799.0 700.0 -812.0 673.0 -812.0 645.0 -812.0 622.0 -799.0 598.0 -785.0 598.0 -759.0 L598.0 -292.0 Q517.0 -392.0 437.0 -508.0 357.0 -624.0 273.0 -771.0 261.0 -793.0 239.0 -803.0 217.0 -813.0 193.0 -813.0 173.0 -813.0 155.0 -807.0 136.0 -801.0 121.0 -790.0 106.0 -778.0 97.0 -761.0 88.0 -743.0 88.0 -722.0 88.0 -624.0 88.0 -543.0 87.0 -463.0 86.0 -389.0 85.0 -315.0 82.0 -242.0 80.0 -168.0 76.0 -81.0 L76.0 -76.0 Q76.0 -53.0 84.0 -37.0 92.0 -22.0 106.0 -11.0 120.0 0.0 137.0 5.0 154.0 10.0 172.0 10.0 190.0 10.0 207.0 5.0 224.0 0.0 238.0 -10.0 252.0 -19.0 260.0 -35.0 268.0 -50.0 268.0 -70.0 268.0 -72.0 268.0 -75.0 267.0 -78.0 267.0 -81.0 264.0 -118.0 261.0 -158.0 258.0 -199.0 255.0 -240.0 252.0 -282.0 249.0 -323.0 247.0 -364.0 245.0 -400.0 239.0 -488.0 234.0 -575.0 257.0 -524.0 290.0 -458.0 323.0 -391.0 361.0 -318.0 400.0 -246.0 443.0 -173.0 486.0 -99.0 529.0 -35.0 545.0 -11.0 575.0 -1.0 605.0 10.0 639.0 10.0 660.0 10.0 681.0 5.0 702.0 0.0 719.0 -11.0 735.0 -22.0 745.0 -39.0 756.0 -56.0 756.0 -80.0" fill-rule="evenodd" stroke="none"/>
    </g>
    <g id="font_Cooper_Std_Black_o0">
      <path d="M522.0 -332.0 Q522.0 -261.0 478.0 -217.0 434.0 -172.0 355.0 -172.0 276.0 -172.0 232.0 -217.0 188.0 -261.0 188.0 -332.0 188.0 -368.0 200.0 -398.0 212.0 -428.0 234.0 -451.0 256.0 -474.0 287.0 -487.0 317.0 -500.0 355.0 -500.0 393.0 -500.0 424.0 -487.0 455.0 -474.0 477.0 -451.0 499.0 -428.0 510.0 -398.0 522.0 -368.0 522.0 -332.0 M355.0 19.0 Q425.0 19.0 482.0 -5.0 540.0 -30.0 582.0 -74.0 624.0 -118.0 647.0 -177.0 670.0 -237.0 670.0 -305.0 670.0 -375.0 647.0 -434.0 624.0 -494.0 582.0 -538.0 540.0 -583.0 482.0 -608.0 425.0 -633.0 355.0 -633.0 287.0 -633.0 229.0 -608.0 171.0 -583.0 129.0 -538.0 87.0 -494.0 64.0 -434.0 41.0 -375.0 41.0 -305.0 41.0 -237.0 64.0 -177.0 87.0 -118.0 129.0 -74.0 171.0 -30.0 229.0 -5.0 287.0 19.0 355.0 19.0" fill-rule="evenodd" stroke="none"/>
    </g>
    <g id="font_Cooper_Std_Black_L0">
      <path d="M188.0 0.0 L565.0 0.0 Q582.0 0.0 594.0 -9.0 606.0 -17.0 614.0 -31.0 623.0 -45.0 627.0 -62.0 631.0 -80.0 631.0 -98.0 631.0 -117.0 627.0 -135.0 623.0 -153.0 614.0 -166.0 606.0 -180.0 594.0 -188.0 583.0 -197.0 566.0 -197.0 L251.0 -197.0 Q226.0 -197.0 226.0 -219.0 L226.0 -759.0 Q226.0 -785.0 203.0 -798.0 180.0 -811.0 153.0 -811.0 124.0 -811.0 101.0 -798.0 78.0 -785.0 78.0 -759.0 L78.0 -111.0 Q78.0 0.0 188.0 0.0" fill-rule="evenodd" stroke="none"/>
    </g>
    <g id="font_Cooper_Std_Black_i0">
      <path d="M223.0 -735.0 Q223.0 -767.0 198.0 -789.0 172.0 -811.0 136.0 -811.0 100.0 -811.0 75.0 -789.0 49.0 -767.0 49.0 -735.0 49.0 -703.0 75.0 -682.0 100.0 -660.0 136.0 -660.0 172.0 -660.0 198.0 -682.0 223.0 -703.0 223.0 -735.0 M208.0 -532.0 L208.0 -573.0 Q208.0 -599.0 186.0 -611.0 164.0 -624.0 137.0 -624.0 111.0 -624.0 89.0 -611.0 67.0 -599.0 67.0 -573.0 L67.0 -534.0 Q67.0 -460.0 66.0 -403.0 66.0 -346.0 62.0 -294.0 59.0 -242.0 54.0 -189.0 48.0 -136.0 37.0 -72.0 36.0 -68.0 36.0 -59.0 36.0 -42.0 45.0 -29.0 53.0 -15.0 68.0 -7.0 82.0 2.0 100.0 6.0 119.0 10.0 137.0 10.0 156.0 10.0 174.0 6.0 193.0 2.0 207.0 -7.0 221.0 -15.0 230.0 -29.0 239.0 -42.0 239.0 -59.0 239.0 -68.0 238.0 -72.0 227.0 -136.0 221.0 -189.0 215.0 -242.0 212.0 -293.0 209.0 -345.0 208.0 -402.0 208.0 -459.0 208.0 -532.0" fill-rule="evenodd" stroke="none"/>
    </g>
    <g id="font_Cooper_Std_Black_f0">
      <path d="M92.0 -73.0 L92.0 -65.0 Q92.0 -45.0 101.0 -31.0 110.0 -17.0 124.0 -8.0 138.0 1.0 157.0 6.0 175.0 10.0 195.0 10.0 213.0 10.0 231.0 6.0 249.0 2.0 263.0 -7.0 276.0 -15.0 285.0 -29.0 294.0 -42.0 294.0 -60.0 294.0 -69.0 293.0 -73.0 285.0 -129.0 278.0 -177.0 271.0 -225.0 267.0 -274.0 263.0 -323.0 261.0 -374.0 258.0 -426.0 258.0 -488.0 L334.0 -488.0 Q364.0 -488.0 378.0 -507.0 392.0 -526.0 392.0 -550.0 392.0 -573.0 378.0 -592.0 364.0 -611.0 334.0 -611.0 L258.0 -611.0 258.0 -666.0 Q258.0 -699.0 287.0 -699.0 299.0 -699.0 322.0 -691.0 327.0 -689.0 331.0 -688.0 335.0 -687.0 340.0 -687.0 364.0 -687.0 379.0 -709.0 395.0 -730.0 395.0 -754.0 395.0 -768.0 388.0 -781.0 381.0 -794.0 366.0 -800.0 338.0 -811.0 311.0 -817.0 284.0 -822.0 259.0 -822.0 198.0 -822.0 157.0 -790.0 116.0 -758.0 116.0 -693.0 L116.0 -611.0 80.0 -611.0 Q53.0 -611.0 40.0 -592.0 28.0 -573.0 28.0 -550.0 28.0 -526.0 40.0 -507.0 53.0 -488.0 80.0 -488.0 L116.0 -488.0 Q116.0 -426.0 114.0 -374.0 113.0 -323.0 110.0 -274.0 106.0 -225.0 102.0 -177.0 98.0 -128.0 92.0 -73.0" fill-rule="evenodd" stroke="none"/>
    </g>
    <g id="font_Cooper_Std_Black_e0">
      <path d="M501.0 -396.0 L191.0 -396.0 Q206.0 -442.0 244.0 -474.0 282.0 -506.0 348.0 -506.0 410.0 -506.0 446.0 -476.0 483.0 -445.0 501.0 -396.0 M185.0 -278.0 L566.0 -278.0 Q609.0 -278.0 626.0 -298.0 643.0 -319.0 643.0 -350.0 643.0 -355.0 643.0 -361.0 642.0 -368.0 641.0 -374.0 633.0 -427.0 608.0 -474.0 584.0 -520.0 546.0 -555.0 508.0 -590.0 458.0 -610.0 408.0 -630.0 347.0 -630.0 283.0 -630.0 227.0 -607.0 171.0 -584.0 130.0 -541.0 89.0 -499.0 66.0 -438.0 43.0 -378.0 43.0 -303.0 43.0 -236.0 65.0 -177.0 87.0 -119.0 127.0 -76.0 167.0 -33.0 223.0 -8.0 280.0 16.0 348.0 16.0 465.0 16.0 535.0 -31.0 604.0 -78.0 630.0 -160.0 633.0 -171.0 633.0 -179.0 633.0 -208.0 611.0 -227.0 589.0 -246.0 563.0 -246.0 552.0 -246.0 541.0 -242.0 530.0 -238.0 522.0 -227.0 497.0 -198.0 458.0 -183.0 419.0 -169.0 349.0 -169.0 282.0 -169.0 237.0 -199.0 191.0 -229.0 185.0 -278.0" fill-rule="evenodd" stroke="none"/>
    </g>
  </defs>
</svg>
