<?xml version="1.0" encoding="UTF-8" standalone="no"?>
<svg xmlns:ffdec="https://www.free-decompiler.com/flash" xmlns:xlink="http://www.w3.org/1999/xlink" ffdec:objectType="text" height="69.55px" width="685.95px" xmlns="http://www.w3.org/2000/svg">
  <g transform="matrix(1.0, 0.0, 0.0, 1.0, 123.9, 2.0)">
    <g transform="matrix(1.0, 0.0, 0.0, 1.0, -123.9, -2.0)">
      <use fill="#ffff00" height="69.55" transform="matrix(0.0557, 0.0, 0.0, 0.0557, -43.55, 53.25)" width="685.95" xlink:href="#font_Abadi_MT_Condensed_Extra_Bold_S0"/>
      <use fill="#ffff00" height="69.55" transform="matrix(0.0557, 0.0, 0.0, 0.0557, 6.35, 53.25)" width="685.95" xlink:href="#font_Abadi_MT_Condensed_Extra_Bold_E0"/>
      <use fill="#ffff00" height="69.55" transform="matrix(0.0557, 0.0, 0.0, 0.0557, 52.9, 53.25)" width="685.95" xlink:href="#font_Abadi_MT_Condensed_Extra_Bold_L0"/>
      <use fill="#ffff00" height="69.55" transform="matrix(0.0557, 0.0, 0.0, 0.0557, 99.5, 53.25)" width="685.95" xlink:href="#font_Abadi_MT_Condensed_Extra_Bold_E0"/>
      <use fill="#ffff00" height="69.55" transform="matrix(0.0557, 0.0, 0.0, 0.0557, 146.05, 53.25)" width="685.95" xlink:href="#font_Abadi_MT_Condensed_Extra_Bold_C0"/>
      <use fill="#ffff00" height="69.55" transform="matrix(0.0557, 0.0, 0.0, 0.0557, 197.0, 53.25)" width="685.95" xlink:href="#font_Abadi_MT_Condensed_Extra_Bold_T0"/>
    </g>
    <g transform="matrix(1.0, 0.0, 0.0, 1.0, -123.9, -2.0)">
      <use fill="#ffff00" height="69.55" transform="matrix(0.0557, 0.0, 0.0, 0.0557, 261.95, 53.25)" width="685.95" xlink:href="#font_Abadi_MT_Condensed_Extra_Bold_A0"/>
    </g>
    <g transform="matrix(1.0, 0.0, 0.0, 1.0, -123.9, -2.0)">
      <use fill="#ffff00" height="69.55" transform="matrix(0.0557, 0.0, 0.0, 0.0557, 327.3, 53.25)" width="685.95" xlink:href="#font_Abadi_MT_Condensed_Extra_Bold_L0"/>
      <use fill="#ffff00" height="69.55" transform="matrix(0.0557, 0.0, 0.0, 0.0557, 373.9, 53.25)" width="685.95" xlink:href="#font_Abadi_MT_Condensed_Extra_Bold_A0"/>
      <use fill="#ffff00" height="69.55" transform="matrix(0.0557, 0.0, 0.0, 0.0557, 424.45, 53.25)" width="685.95" xlink:href="#font_Abadi_MT_Condensed_Extra_Bold_N0"/>
      <use fill="#ffff00" height="69.55" transform="matrix(0.0557, 0.0, 0.0, 0.0557, 475.05, 53.25)" width="685.95" xlink:href="#font_Abadi_MT_Condensed_Extra_Bold_G0"/>
      <use fill="#ffff00" height="69.55" transform="matrix(0.0557, 0.0, 0.0, 0.0557, 526.95, 53.25)" width="685.95" xlink:href="#font_Abadi_MT_Condensed_Extra_Bold_U0"/>
      <use fill="#ffff00" height="69.55" transform="matrix(0.0557, 0.0, 0.0, 0.0557, 580.55, 53.25)" width="685.95" xlink:href="#font_Abadi_MT_Condensed_Extra_Bold_A0"/>
      <use fill="#ffff00" height="69.55" transform="matrix(0.0557, 0.0, 0.0, 0.0557, 631.1, 53.25)" width="685.95" xlink:href="#font_Abadi_MT_Condensed_Extra_Bold_G0"/>
      <use fill="#ffff00" height="69.55" transform="matrix(0.0557, 0.0, 0.0, 0.0557, 683.0, 53.25)" width="685.95" xlink:href="#font_Abadi_MT_Condensed_Extra_Bold_E0"/>
    </g>
  </g>
  <defs>
    <g id="font_Abadi_MT_Condensed_Extra_Bold_S0">
      <path d="M843.0 -65.0 L426.0 102.0 15.0 -25.0 46.0 -104.0 426.0 11.0 552.0 -39.0 552.0 -242.0 58.0 -400.0 58.0 -784.0 462.0 -877.0 840.0 -761.0 811.0 -681.0 457.0 -795.0 344.0 -764.0 344.0 -586.0 842.0 -426.0 843.0 -65.0" fill-rule="evenodd" stroke="none"/>
    </g>
    <g id="font_Abadi_MT_Condensed_Extra_Bold_E0">
      <path d="M803.0 -45.0 L394.0 103.0 60.0 -11.0 60.0 -853.0 791.0 -853.0 791.0 -771.0 349.0 -771.0 349.0 -514.0 727.0 -514.0 727.0 -434.0 349.0 -434.0 349.0 -152.0 590.0 -59.0 803.0 -134.0 803.0 -45.0" fill-rule="evenodd" stroke="none"/>
    </g>
    <g id="font_Abadi_MT_Condensed_Extra_Bold_L0">
      <path d="M802.0 -49.0 L393.0 99.0 59.0 -13.0 59.0 -853.0 360.0 -853.0 360.0 -151.0 591.0 -62.0 802.0 -139.0 802.0 -49.0" fill-rule="evenodd" stroke="none"/>
    </g>
    <g id="font_Abadi_MT_Condensed_Extra_Bold_C0">
      <path d="M893.0 -132.0 L432.0 104.0 59.0 -32.0 59.0 -853.0 655.0 -853.0 882.0 -687.0 803.0 -631.0 623.0 -772.0 349.0 -772.0 349.0 -194.0 613.0 -90.0 824.0 -195.0 893.0 -132.0" fill-rule="evenodd" stroke="none"/>
    </g>
    <g id="font_Abadi_MT_Condensed_Extra_Bold_T0">
      <path d="M610.0 76.0 L299.0 76.0 299.0 -771.0 25.0 -771.0 25.0 -853.0 878.0 -853.0 878.0 -771.0 610.0 -771.0 610.0 76.0" fill-rule="evenodd" stroke="none"/>
    </g>
    <g id="font_Abadi_MT_Condensed_Extra_Bold_A0">
      <path d="M489.0 -317.0 L424.0 -570.0 334.0 -604.0 238.0 -317.0 489.0 -317.0 M896.0 76.0 L592.0 76.0 511.0 -237.0 211.0 -237.0 106.0 76.0 11.0 76.0 114.0 -237.0 58.0 -237.0 58.0 -317.0 140.0 -317.0 327.0 -885.0 673.0 -750.0 896.0 76.0" fill-rule="evenodd" stroke="none"/>
    </g>
    <g id="font_Abadi_MT_Condensed_Extra_Bold_N0">
      <path d="M849.0 105.0 L155.0 -495.0 155.0 76.0 60.0 76.0 60.0 -853.0 160.0 -853.0 756.0 -365.0 756.0 -853.0 849.0 -853.0 849.0 105.0" fill-rule="evenodd" stroke="none"/>
    </g>
    <g id="font_Abadi_MT_Condensed_Extra_Bold_G0">
      <path d="M876.0 -125.0 L401.0 103.0 59.0 -15.0 59.0 -853.0 656.0 -853.0 866.0 -696.0 780.0 -636.0 616.0 -772.0 345.0 -772.0 345.0 -178.0 594.0 -92.0 780.0 -177.0 780.0 -397.0 584.0 -397.0 584.0 -477.0 876.0 -477.0 876.0 -125.0" fill-rule="evenodd" stroke="none"/>
    </g>
    <g id="font_Abadi_MT_Condensed_Extra_Bold_U0">
      <path d="M904.0 -24.0 L598.0 98.0 59.0 -89.0 59.0 -853.0 151.0 -853.0 151.0 -148.0 370.0 -74.0 588.0 -165.0 588.0 -853.0 904.0 -853.0 904.0 -24.0" fill-rule="evenodd" stroke="none"/>
    </g>
  </defs>
</svg>
