<?xml version="1.0" encoding="UTF-8" standalone="no"?>
<svg xmlns:ffdec="https://www.free-decompiler.com/flash" xmlns:xlink="http://www.w3.org/1999/xlink" ffdec:objectType="text" height="44.3px" width="161.45px" xmlns="http://www.w3.org/2000/svg">
  <g transform="matrix(1.0, 0.0, 0.0, 1.0, -2.7, -0.8)">
    <g transform="matrix(1.0, 0.0, 0.0, 1.0, 0.0, 0.0)">
      <use fill="#ffffff" height="44.3" transform="matrix(0.0439, 0.0, 0.0, 0.0439, 0.0, 39.0)" width="161.45" xlink:href="#font___-______0"/>
      <use fill="#ffffff" height="44.3" transform="matrix(0.0439, 0.0, 0.0, 0.0439, 45.0, 39.0)" width="161.45" xlink:href="#font___-______1"/>
      <use fill="#ffffff" height="44.3" transform="matrix(0.0439, 0.0, 0.0, 0.0439, 90.0, 39.0)" width="161.45" xlink:href="#font___-______2"/>
    </g>
  </g>
  <defs>
    <g id="font___-______0">
      <path d="M685.0 -19.0 L685.0 -102.0 337.0 -102.0 337.0 -19.0 685.0 -19.0 M685.0 -180.0 L685.0 -258.0 337.0 -258.0 337.0 -180.0 685.0 -180.0 M540.0 -460.0 L540.0 -715.0 484.0 -715.0 484.0 -460.0 540.0 -460.0 M937.0 104.0 L685.0 104.0 685.0 58.0 337.0 58.0 337.0 104.0 85.0 104.0 85.0 -336.0 937.0 -336.0 937.0 104.0 M233.0 -493.0 L84.0 -493.0 42.0 -681.0 193.0 -681.0 233.0 -493.0 M999.0 -382.0 L27.0 -382.0 27.0 -460.0 256.0 -460.0 256.0 -715.0 42.0 -715.0 42.0 -793.0 188.0 -793.0 132.0 -871.0 420.0 -871.0 469.0 -793.0 554.0 -793.0 603.0 -871.0 890.0 -871.0 834.0 -793.0 984.0 -793.0 984.0 -715.0 768.0 -715.0 768.0 -460.0 999.0 -460.0 999.0 -382.0 M939.0 -493.0 L790.0 -493.0 830.0 -681.0 980.0 -681.0 939.0 -493.0" fill-rule="evenodd" stroke="none"/>
    </g>
    <g id="font___-______1">
      <path d="M577.0 -370.0 L577.0 -443.0 520.0 -443.0 520.0 -370.0 577.0 -370.0 M577.0 -518.0 L577.0 -588.0 520.0 -588.0 520.0 -518.0 577.0 -518.0 M771.0 -370.0 L771.0 -443.0 713.0 -443.0 713.0 -370.0 771.0 -370.0 M771.0 -518.0 L771.0 -588.0 713.0 -588.0 713.0 -518.0 771.0 -518.0 M327.0 -573.0 L92.0 -573.0 27.0 -856.0 259.0 -856.0 327.0 -573.0 M980.0 90.0 L267.0 -16.0 254.0 104.0 26.0 104.0 92.0 -425.0 31.0 -425.0 31.0 -502.0 315.0 -502.0 315.0 -445.0 276.0 -96.0 349.0 -86.0 349.0 -665.0 417.0 -665.0 373.0 -757.0 596.0 -757.0 639.0 -665.0 656.0 -665.0 714.0 -784.0 350.0 -784.0 350.0 -862.0 967.0 -862.0 967.0 -801.0 904.0 -665.0 993.0 -665.0 993.0 -78.0 754.0 -78.0 719.0 -233.0 771.0 -233.0 771.0 -292.0 713.0 -292.0 713.0 -90.0 577.0 -90.0 577.0 -292.0 520.0 -292.0 520.0 -78.0 403.0 -78.0 1002.0 10.0 980.0 90.0" fill-rule="evenodd" stroke="none"/>
    </g>
    <g id="font___-______2">
      <path d="M361.0 -719.0 L269.0 -633.0 Q258.0 -648.0 239.0 -667.0 221.0 -686.0 200.0 -706.0 179.0 -726.0 157.0 -744.0 136.0 -763.0 118.0 -776.0 L208.0 -852.0 Q228.0 -837.0 249.0 -819.0 271.0 -801.0 292.0 -783.0 313.0 -765.0 331.0 -748.0 349.0 -732.0 361.0 -719.0 M539.0 -234.0 L539.0 -65.0 821.0 -65.0 821.0 -234.0 539.0 -234.0 M616.0 -566.0 L616.0 -695.0 Q584.0 -692.0 561.0 -689.0 539.0 -687.0 518.0 -685.0 497.0 -682.0 474.0 -680.0 451.0 -678.0 419.0 -675.0 416.0 -688.0 413.0 -699.0 410.0 -710.0 405.0 -721.0 401.0 -732.0 395.0 -745.0 389.0 -758.0 381.0 -775.0 424.0 -777.0 461.0 -780.0 499.0 -783.0 534.0 -786.0 569.0 -790.0 603.0 -796.0 638.0 -801.0 674.0 -807.0 713.0 -814.0 744.0 -820.0 775.0 -827.0 800.0 -834.0 825.0 -841.0 847.0 -849.0 869.0 -857.0 890.0 -867.0 L953.0 -769.0 Q952.0 -769.0 951.0 -768.0 950.0 -768.0 949.0 -768.0 948.0 -768.0 947.0 -768.0 945.0 -767.0 943.0 -767.0 942.0 -767.0 940.0 -766.0 939.0 -766.0 937.0 -765.0 934.0 -765.0 932.0 -764.0 929.0 -763.0 925.0 -762.0 902.0 -755.0 884.0 -750.0 865.0 -745.0 844.0 -740.0 823.0 -735.0 796.0 -729.0 769.0 -724.0 727.0 -715.0 L727.0 -566.0 870.0 -566.0 Q888.0 -566.0 904.0 -566.0 919.0 -567.0 933.0 -567.0 946.0 -568.0 959.0 -569.0 972.0 -570.0 986.0 -572.0 L986.0 -461.0 Q972.0 -462.0 959.0 -464.0 945.0 -465.0 932.0 -465.0 918.0 -466.0 903.0 -467.0 889.0 -467.0 871.0 -467.0 L727.0 -467.0 727.0 -333.0 859.0 -333.0 Q873.0 -333.0 883.0 -333.0 893.0 -333.0 902.0 -334.0 911.0 -334.0 919.0 -335.0 927.0 -336.0 936.0 -337.0 935.0 -328.0 934.0 -318.0 933.0 -309.0 933.0 -299.0 932.0 -288.0 932.0 -276.0 932.0 -264.0 932.0 -248.0 L932.0 -28.0 Q932.0 -13.0 932.0 2.0 933.0 16.0 933.0 30.0 934.0 43.0 935.0 56.0 936.0 69.0 937.0 80.0 L821.0 80.0 821.0 34.0 539.0 34.0 539.0 80.0 424.0 80.0 Q426.0 70.0 426.0 60.0 427.0 50.0 428.0 38.0 429.0 26.0 429.0 10.0 429.0 -5.0 429.0 -25.0 L429.0 -255.0 Q429.0 -267.0 429.0 -277.0 429.0 -287.0 428.0 -296.0 428.0 -305.0 427.0 -315.0 427.0 -325.0 426.0 -337.0 435.0 -336.0 443.0 -335.0 452.0 -334.0 461.0 -334.0 469.0 -333.0 479.0 -333.0 489.0 -333.0 501.0 -333.0 L616.0 -333.0 616.0 -467.0 466.0 -467.0 Q448.0 -467.0 433.0 -467.0 419.0 -467.0 405.0 -466.0 392.0 -465.0 379.0 -464.0 365.0 -463.0 350.0 -461.0 L350.0 -572.0 Q365.0 -570.0 378.0 -569.0 391.0 -568.0 405.0 -567.0 419.0 -567.0 434.0 -566.0 449.0 -566.0 467.0 -566.0 L616.0 -566.0 M287.0 -440.0 L286.0 -129.0 Q301.0 -141.0 313.0 -150.0 325.0 -160.0 336.0 -170.0 348.0 -179.0 361.0 -190.0 373.0 -200.0 389.0 -214.0 L389.0 -87.0 Q365.0 -67.0 343.0 -49.0 320.0 -31.0 296.0 -13.0 272.0 5.0 245.0 24.0 218.0 43.0 185.0 66.0 L136.0 -43.0 Q147.0 -48.0 154.0 -53.0 161.0 -58.0 166.0 -64.0 171.0 -70.0 174.0 -77.0 177.0 -83.0 179.0 -92.0 L179.0 -443.0 126.0 -443.0 Q115.0 -443.0 104.0 -443.0 93.0 -442.0 82.0 -441.0 72.0 -441.0 61.0 -440.0 50.0 -438.0 38.0 -437.0 L38.0 -558.0 Q51.0 -556.0 61.0 -555.0 72.0 -554.0 82.0 -553.0 92.0 -552.0 103.0 -552.0 114.0 -552.0 127.0 -552.0 L215.0 -552.0 Q227.0 -552.0 237.0 -552.0 247.0 -552.0 255.0 -553.0 264.0 -554.0 272.0 -555.0 281.0 -555.0 291.0 -557.0 290.0 -542.0 289.0 -533.0 288.0 -523.0 288.0 -512.0 287.0 -501.0 287.0 -485.0 287.0 -468.0 287.0 -440.0" fill-rule="evenodd" stroke="none"/>
    </g>
  </defs>
</svg>
