<?xml version="1.0" encoding="UTF-8" standalone="no"?>
<svg xmlns:ffdec="https://www.free-decompiler.com/flash" xmlns:xlink="http://www.w3.org/1999/xlink" ffdec:objectType="text" height="45.4px" width="210.15px" xmlns="http://www.w3.org/2000/svg">
  <g transform="matrix(1.0, 0.0, 0.0, 1.0, -1.05, -4.6)">
    <g transform="matrix(1.0, 0.0, 0.0, 1.0, 0.0, 0.0)">
      <use fill="#ffffff" height="45.4" transform="matrix(0.0439, 0.0, 0.0, 0.0439, 0.0, 49.0)" width="210.15" xlink:href="#font_Thonburi_Bold__0"/>
      <use fill="#ffffff" height="45.4" transform="matrix(0.0439, 0.0, 0.0, 0.0439, 29.9, 49.0)" width="210.15" xlink:href="#font_Thonburi_Bold__1"/>
      <use fill="#ffffff" height="45.4" transform="matrix(0.0439, 0.0, 0.0, 0.0439, 52.65, 49.0)" width="210.15" xlink:href="#font_Thonburi_Bold__2"/>
      <use fill="#ffffff" height="45.4" transform="matrix(0.0439, 0.0, 0.0, 0.0439, 81.75, 49.0)" width="210.15" xlink:href="#font_Thonburi_Bold__1"/>
      <use fill="#ffffff" height="45.4" transform="matrix(0.0439, 0.0, 0.0, 0.0439, 104.5, 49.0)" width="210.15" xlink:href="#font_Thonburi_Bold__3"/>
      <use fill="#ffffff" height="45.4" transform="matrix(0.0439, 0.0, 0.0, 0.0439, 123.45, 49.0)" width="210.15" xlink:href="#font_Thonburi_Bold__4"/>
      <use fill="#ffffff" height="45.4" transform="matrix(0.0439, 0.0, 0.0, 0.0439, 151.8, 49.0)" width="210.15" xlink:href="#font_Thonburi_Bold__5"/>
    </g>
  </g>
  <defs>
    <g id="font_Thonburi_Bold__0">
      <path d="M263.5 -301.0 L263.5 -119.0 Q263.5 -67.0 232.0 -31.5 L232.0 -32.0 Q197.5 8.0 143.0 8.0 L133.0 7.5 121.0 5.5 Q99.0 3.5 81.5 -5.0 63.5 -13.5 49.5 -28.0 22.0 -58.0 22.0 -102.0 22.0 -148.0 54.5 -179.0 86.5 -210.0 132.5 -210.0 L138.0 -210.0 143.5 -209.5 143.5 -295.0 Q146.0 -312.0 148.0 -329.5 L161.0 -357.0 165.0 -362.5 170.0 -367.5 91.0 -377.0 99.0 -459.0 Q120.0 -468.5 142.0 -491.0 L142.0 -490.5 Q175.5 -525.5 225.0 -554.0 274.5 -581.0 345.0 -581.0 430.0 -581.0 479.0 -559.5 540.5 -533.0 571.0 -476.5 591.0 -437.0 591.0 -380.5 L591.0 0.0 471.0 0.0 471.0 -377.5 Q471.0 -427.0 448.5 -457.0 L449.0 -457.0 Q421.0 -491.0 345.0 -491.0 320.5 -491.0 296.0 -485.0 273.5 -476.0 251.0 -467.5 L216.5 -443.0 278.0 -433.5 337.5 -424.5 327.5 -353.0 Q296.5 -353.0 282.5 -342.5 L268.5 -324.0 263.5 -301.0 M89.5 -102.0 Q89.5 -58.0 133.0 -58.0 L149.0 -62.0 162.0 -72.0 Q166.5 -79.0 170.5 -86.0 L173.5 -102.0 170.5 -118.0 161.5 -132.0 148.5 -142.0 133.0 -146.0 116.0 -142.5 102.0 -133.0 93.0 -119.0 Q91.5 -110.5 89.5 -102.0" fill-rule="evenodd" stroke="none"/>
    </g>
    <g id="font_Thonburi_Bold__1">
      <path d="M443.0 -387.0 L443.0 0.0 322.5 0.0 322.5 -373.0 Q322.5 -432.5 307.5 -453.5 282.0 -491.0 218.5 -491.0 151.5 -491.0 114.0 -455.0 90.0 -432.0 77.0 -380.5 37.0 -405.0 -3.0 -429.0 8.0 -463.0 25.5 -489.0 43.0 -515.0 67.0 -535.0 123.0 -581.0 222.5 -581.0 320.5 -581.0 381.5 -532.0 443.0 -483.0 443.0 -387.0" fill-rule="evenodd" stroke="none"/>
    </g>
    <g id="font_Thonburi_Bold__2">
      <path d="M388.5 -319.0 Q379.5 -329.5 361.5 -329.5 346.0 -329.5 334.0 -321.0 322.0 -313.0 322.0 -295.0 L324.0 -281.5 331.0 -269.0 344.0 -260.0 Q353.0 -258.0 362.5 -256.5 376.5 -256.5 387.0 -265.5 397.0 -275.0 397.0 -293.0 397.0 -309.0 388.5 -319.0 M455.0 -195.0 L442.5 -193.0 423.0 -190.0 405.5 -189.0 Q396.0 -188.5 387.0 -188.5 376.0 -188.5 365.0 -189.0 343.0 -190.0 323.5 -198.0 304.5 -206.5 290.5 -220.5 277.0 -235.0 269.5 -254.0 262.5 -273.0 264.5 -295.0 265.0 -315.0 271.5 -331.5 278.0 -348.5 290.0 -361.0 301.5 -373.0 318.0 -380.0 335.0 -387.0 356.5 -387.0 442.0 -387.0 455.0 -319.5 L455.0 -571.0 574.5 -571.0 574.5 -336.5 596.5 -357.0 612.5 -373.5 Q617.5 -382.0 623.0 -390.0 L639.0 -422.5 677.0 -315.0 645.5 -285.0 Q630.5 -273.5 616.0 -261.5 L598.5 -249.5 Q592.0 -245.5 585.0 -241.0 L574.5 -235.0 574.5 -119.0 Q574.5 -94.0 568.5 -74.0 563.0 -53.5 551.5 -38.5 523.0 0.0 461.0 0.0 L89.0 0.0 89.0 -99.0 137.0 -99.0 137.0 -361.0 129.5 -361.0 123.5 -361.0 Q79.0 -361.0 47.0 -392.0 15.5 -423.5 15.5 -468.0 18.5 -485.0 21.0 -502.5 29.5 -518.5 37.5 -535.0 62.5 -570.0 99.0 -575.5 L133.0 -578.0 Q192.0 -578.0 226.5 -540.5 258.0 -505.0 258.0 -451.0 L258.0 -99.0 425.5 -99.0 Q450.5 -99.0 453.5 -114.5 L455.0 -121.0 455.0 -129.5 455.0 -195.0 M86.5 -483.0 Q85.0 -475.5 83.0 -467.5 85.0 -459.5 86.5 -451.5 L95.0 -438.5 108.0 -429.5 Q116.0 -427.5 123.5 -426.0 131.5 -427.5 139.5 -429.5 L152.5 -438.5 161.5 -451.5 Q163.0 -459.5 165.0 -467.5 163.0 -476.0 161.5 -485.0 L153.0 -499.0 140.0 -508.0 123.5 -511.5 108.0 -507.5 95.0 -497.5 Q90.5 -490.5 86.5 -483.0" fill-rule="evenodd" stroke="none"/>
    </g>
    <g id="font_Thonburi_Bold__3">
      <path d="M320.5 -827.5 L320.5 -209.5 326.0 -210.0 332.5 -210.0 Q377.5 -210.0 409.5 -179.0 441.5 -148.0 441.5 -102.0 441.5 -59.0 413.5 -28.5 400.0 -14.5 381.5 -5.5 363.0 3.5 342.5 5.5 L331.5 7.5 320.5 8.5 Q268.5 8.5 235.0 -28.5 218.0 -47.0 209.0 -70.0 200.5 -93.0 200.5 -119.0 L200.5 -827.5 Q200.0 -831.0 200.0 -833.5 L197.0 -845.0 Q195.5 -846.0 194.0 -846.5 189.5 -846.5 179.5 -830.0 160.5 -801.0 147.0 -763.0 145.0 -758.0 143.5 -753.0 141.5 -747.5 140.0 -742.0 138.0 -737.0 136.5 -732.0 L133.5 -724.0 55.5 -724.0 Q51.0 -789.5 35.0 -815.0 18.0 -843.0 -27.5 -848.0 L13.5 -956.5 Q50.0 -951.0 72.5 -928.5 95.0 -906.5 105.5 -869.0 110.0 -876.5 115.0 -883.5 L125.0 -897.0 Q141.5 -919.0 159.0 -931.0 176.0 -943.0 193.0 -945.0 L208.5 -945.5 207.5 -945.5 212.0 -946.0 215.0 -946.0 Q263.5 -946.0 294.5 -907.5 320.5 -874.0 320.5 -827.5 M372.0 -86.0 L375.0 -102.0 Q373.5 -110.0 371.5 -118.0 367.0 -125.0 362.0 -131.5 L348.0 -141.0 Q340.0 -142.5 332.0 -144.5 324.5 -142.5 316.5 -141.0 L303.5 -132.0 294.0 -118.5 Q292.0 -110.0 290.5 -102.0 292.0 -94.0 294.0 -86.0 L303.5 -72.5 316.5 -63.0 Q324.5 -61.5 332.0 -59.5 340.5 -61.5 349.5 -63.0 356.0 -68.0 363.0 -72.5 L372.0 -86.0" fill-rule="evenodd" stroke="none"/>
    </g>
    <g id="font_Thonburi_Bold__4">
      <path d="M137.0 0.0 L137.0 -361.5 128.5 -361.0 123.0 -361.0 Q79.0 -361.0 47.5 -392.5 16.5 -423.5 16.5 -468.0 19.0 -485.0 22.0 -502.5 L38.5 -535.0 Q51.0 -553.0 66.0 -563.0 81.0 -573.0 99.0 -575.5 L132.5 -578.0 Q191.5 -578.0 225.0 -540.0 256.5 -504.0 256.5 -451.0 L256.5 -365.0 Q277.0 -418.5 298.0 -458.5 319.5 -499.0 342.0 -527.5 L342.5 -527.5 Q364.5 -556.0 375.5 -563.5 395.0 -577.0 424.5 -577.0 487.5 -577.0 527.0 -533.0 564.5 -491.0 564.5 -428.0 L564.5 0.0 445.0 0.0 445.0 -437.0 Q445.0 -465.0 420.5 -465.0 415.0 -464.5 401.5 -443.0 386.0 -415.0 371.0 -387.0 357.5 -359.0 344.5 -331.0 334.5 -306.0 324.0 -281.0 315.0 -256.0 306.5 -231.0 L290.5 -177.5 276.5 -122.0 Q270.5 -95.0 265.0 -67.5 261.5 -48.0 258.5 -28.5 L256.5 0.0 137.0 0.0 M86.0 -484.0 Q84.0 -475.5 82.5 -467.5 82.5 -453.0 95.0 -440.5 L94.5 -440.5 Q106.5 -428.0 122.5 -428.0 130.5 -429.5 138.5 -431.5 145.0 -436.0 152.0 -440.5 L161.5 -453.0 Q163.0 -460.5 165.0 -467.5 163.0 -476.0 161.5 -484.0 L152.5 -497.5 139.0 -506.5 122.5 -509.5 Q115.0 -508.0 108.0 -506.0 L95.0 -497.0 86.0 -484.0" fill-rule="evenodd" stroke="none"/>
    </g>
    <g id="font_Thonburi_Bold__5">
      <path d="M227.0 -99.0 L396.0 -99.0 Q407.5 -99.0 413.0 -107.0 419.0 -114.5 419.0 -129.5 L419.0 -571.0 540.5 -571.0 540.5 -115.5 Q540.5 -70.5 516.0 -38.0 487.0 0.0 420.5 0.0 L67.5 0.0 67.5 -99.0 103.5 -99.0 103.5 -175.0 Q103.5 -230.5 128.0 -264.5 L139.0 -278.0 151.0 -289.0 Q123.5 -298.0 102.0 -318.5 63.0 -356.5 63.0 -418.0 63.0 -495.5 121.5 -541.0 173.5 -580.0 251.0 -580.0 305.0 -580.0 339.0 -554.5 377.0 -525.5 377.0 -475.0 377.0 -418.5 333.0 -393.5 305.0 -377.0 270.0 -377.0 231.0 -377.0 206.0 -390.5 181.5 -404.0 171.0 -431.0 L169.0 -436.0 167.0 -441.0 167.0 -439.0 172.0 -409.0 Q180.0 -395.5 187.5 -382.0 197.5 -370.0 213.0 -361.5 228.0 -353.0 248.5 -350.5 L307.5 -345.5 362.5 -345.5 362.5 -254.0 305.0 -254.0 Q269.0 -254.0 249.5 -238.0 L249.5 -238.5 Q238.5 -228.0 232.5 -213.0 227.0 -198.5 227.0 -178.5 L227.0 -99.0 M231.5 -489.5 Q229.5 -482.5 228.0 -475.5 L231.5 -461.0 Q236.5 -455.0 241.0 -449.0 248.0 -445.5 254.5 -442.0 L269.0 -439.0 284.0 -442.0 297.0 -450.0 306.0 -462.0 Q308.0 -468.5 309.5 -475.5 309.5 -493.5 299.0 -502.5 289.0 -511.0 269.0 -511.0 L253.5 -508.5 Q247.0 -504.5 240.5 -501.0 L231.5 -489.5" fill-rule="evenodd" stroke="none"/>
    </g>
  </defs>
</svg>
