<?xml version="1.0" encoding="UTF-8" standalone="no"?>
<svg xmlns:ffdec="https://www.free-decompiler.com/flash" xmlns:xlink="http://www.w3.org/1999/xlink" ffdec:objectType="text" height="44.65px" width="155.65px" xmlns="http://www.w3.org/2000/svg">
  <g transform="matrix(1.0, 0.0, 0.0, 1.0, -8.5, -0.55)">
    <g transform="matrix(1.0, 0.0, 0.0, 1.0, 0.0, 0.0)">
      <use fill="#ffffff" height="44.65" transform="matrix(0.0439, 0.0, 0.0, 0.0439, 0.0, 39.0)" width="155.65" xlink:href="#font___-______0"/>
      <use fill="#ffffff" height="44.65" transform="matrix(0.0439, 0.0, 0.0, 0.0439, 45.0, 39.0)" width="155.65" xlink:href="#font___-______1"/>
      <use fill="#ffffff" height="44.65" transform="matrix(0.0439, 0.0, 0.0, 0.0439, 90.0, 39.0)" width="155.65" xlink:href="#font___-______2"/>
    </g>
  </g>
  <defs>
    <g id="font___-______0">
      <path d="M672.0 -45.0 L672.0 -376.0 355.0 -376.0 355.0 -45.0 672.0 -45.0 M672.0 -454.0 L672.0 -773.0 355.0 -773.0 355.0 -454.0 672.0 -454.0 M941.0 104.0 L672.0 104.0 672.0 33.0 355.0 33.0 355.0 104.0 85.0 104.0 85.0 -851.0 941.0 -851.0 941.0 104.0" fill-rule="evenodd" stroke="none"/>
    </g>
    <g id="font___-______1">
      <path d="M1005.0 -18.0 L763.0 -18.0 658.0 -592.0 653.0 -592.0 662.0 -131.0 727.0 -131.0 727.0 -53.0 663.0 -53.0 666.0 105.0 357.0 105.0 360.0 -53.0 298.0 -53.0 298.0 -131.0 361.0 -131.0 370.0 -592.0 365.0 -592.0 260.0 -18.0 18.0 -18.0 145.0 -596.0 357.0 -596.0 357.0 -653.0 45.0 -653.0 45.0 -731.0 357.0 -731.0 357.0 -883.0 666.0 -883.0 666.0 -731.0 979.0 -731.0 979.0 -653.0 666.0 -653.0 666.0 -596.0 882.0 -596.0 1005.0 -18.0" fill-rule="evenodd" stroke="none"/>
    </g>
    <g id="font___-______2">
      <path d="M294.0 -9.0 L294.0 -266.0 248.0 -266.0 248.0 -9.0 294.0 -9.0 M754.0 -32.0 L754.0 -261.0 688.0 -261.0 688.0 -32.0 754.0 -32.0 M761.0 -470.0 L761.0 -637.0 727.0 -637.0 709.0 -470.0 761.0 -470.0 M431.0 69.0 L263.0 69.0 263.0 103.0 37.0 103.0 37.0 -343.0 431.0 -343.0 431.0 69.0 M417.0 -392.0 L45.0 -392.0 45.0 -470.0 417.0 -470.0 417.0 -392.0 M417.0 -519.0 L45.0 -519.0 45.0 -597.0 417.0 -597.0 417.0 -519.0 M985.0 104.0 L754.0 104.0 754.0 46.0 688.0 46.0 688.0 104.0 472.0 104.0 472.0 -339.0 985.0 -339.0 985.0 104.0 M434.0 -645.0 L18.0 -645.0 18.0 -723.0 434.0 -723.0 434.0 -645.0 M417.0 -771.0 L45.0 -771.0 45.0 -849.0 417.0 -849.0 417.0 -771.0 M1013.0 -392.0 L446.0 -392.0 446.0 -470.0 504.0 -470.0 521.0 -637.0 468.0 -637.0 468.0 -715.0 529.0 -715.0 538.0 -788.0 451.0 -788.0 451.0 -866.0 994.0 -866.0 994.0 -788.0 791.0 -788.0 782.0 -715.0 978.0 -715.0 978.0 -470.0 1013.0 -470.0 1013.0 -392.0" fill-rule="evenodd" stroke="none"/>
    </g>
  </defs>
</svg>
