<?xml version="1.0" encoding="UTF-8" standalone="no"?>
<svg xmlns:ffdec="https://www.free-decompiler.com/flash" xmlns:xlink="http://www.w3.org/1999/xlink" ffdec:objectType="text" height="43.9px" width="205.6px" xmlns="http://www.w3.org/2000/svg">
  <g transform="matrix(1.0, 0.0, 0.0, 1.0, -1.95, -6.65)">
    <g transform="matrix(1.0, 0.0, 0.0, 1.0, 0.0, 0.0)">
      <use fill="#ffffff" height="43.9" transform="matrix(0.0439, 0.0, 0.0, 0.0439, 0.0, 39.0)" width="205.6" xlink:href="#font_Abadi_MT_Condensed_Extra_Bold_P0"/>
      <use fill="#ffffff" height="43.9" transform="matrix(0.0439, 0.0, 0.0, 0.0439, 40.75, 39.0)" width="205.6" xlink:href="#font_Abadi_MT_Condensed_Extra_Bold_o0"/>
      <use fill="#ffffff" height="43.9" transform="matrix(0.0439, 0.0, 0.0, 0.0439, 72.5, 39.0)" width="205.6" xlink:href="#font_Abadi_MT_Condensed_Extra_Bold_r0"/>
      <use fill="#ffffff" height="43.9" transform="matrix(0.0439, 0.0, 0.0, 0.0439, 99.65, 39.0)" width="205.6" xlink:href="#font_Abadi_MT_Condensed_Extra_Bold_t0"/>
      <use fill="#ffffff" height="43.9" transform="matrix(0.0439, 0.0, 0.0, 0.0439, 125.0, 39.0)" width="205.6" xlink:href="#font_Abadi_MT_Condensed_Extra_Bold_u0"/>
      <use fill="#ffffff" height="43.9" transform="matrix(0.0439, 0.0, 0.0, 0.0439, 156.55, 39.0)" width="205.6" xlink:href="#font_Abadi_MT_Condensed_Extra_Bold_g0"/>
      <use fill="#ffffff" height="43.9" transform="matrix(0.0439, 0.0, 0.0, 0.0439, 188.95, 39.0)" width="205.6" xlink:href="#font_Abadi_MT_Condensed_Extra_Bold_u0"/>
      <use fill="#ffffff" height="43.9" transform="matrix(0.0439, 0.0, 0.0, 0.0439, 220.5, 39.0)" width="205.6" xlink:href="#font_Abadi_MT_Condensed_Extra_Bold__0"/>
      <use fill="#ffffff" height="43.9" transform="matrix(0.0439, 0.0, 0.0, 0.0439, 251.95, 39.0)" width="205.6" xlink:href="#font_Abadi_MT_Condensed_Extra_Bold_s0"/>
    </g>
  </g>
  <defs>
    <g id="font_Abadi_MT_Condensed_Extra_Bold_P0">
      <path d="M779.0 -449.0 L779.0 -694.0 575.0 -767.0 347.0 -767.0 347.0 -368.0 570.0 -368.0 779.0 -449.0 M869.0 -392.0 L596.0 -285.0 347.0 -285.0 347.0 76.0 59.0 76.0 59.0 -853.0 591.0 -853.0 869.0 -758.0 869.0 -392.0" fill-rule="evenodd" stroke="none"/>
    </g>
    <g id="font_Abadi_MT_Condensed_Extra_Bold_o0">
      <path d="M584.0 -98.0 L584.0 -508.0 310.0 -508.0 310.0 -99.0 445.0 -51.0 584.0 -98.0 M674.0 -48.0 L291.0 101.0 47.0 42.0 47.0 -589.0 674.0 -589.0 674.0 -48.0" fill-rule="evenodd" stroke="none"/>
    </g>
    <g id="font_Abadi_MT_Condensed_Extra_Bold_r0">
      <path d="M340.0 76.0 L47.0 76.0 47.0 -589.0 340.0 -589.0 340.0 -561.0 467.0 -614.0 606.0 -586.0 586.0 -507.0 469.0 -530.0 340.0 -469.0 340.0 76.0" fill-rule="evenodd" stroke="none"/>
    </g>
    <g id="font_Abadi_MT_Condensed_Extra_Bold_t0">
      <path d="M552.0 12.0 L326.0 103.0 120.0 -4.0 120.0 -511.0 24.0 -511.0 24.0 -589.0 120.0 -589.0 120.0 -742.0 413.0 -742.0 413.0 -589.0 551.0 -589.0 551.0 -511.0 413.0 -511.0 413.0 -78.0 470.0 -44.0 552.0 -77.0 552.0 12.0" fill-rule="evenodd" stroke="none"/>
    </g>
    <g id="font_Abadi_MT_Condensed_Extra_Bold_u0">
      <path d="M670.0 76.0 L382.0 76.0 382.0 60.0 257.0 100.0 47.0 3.0 47.0 -589.0 151.0 -589.0 151.0 -47.0 270.0 16.0 382.0 -25.0 382.0 -589.0 670.0 -589.0 670.0 76.0" fill-rule="evenodd" stroke="none"/>
    </g>
    <g id="font_Abadi_MT_Condensed_Extra_Bold_g0">
      <path d="M399.0 -82.0 L399.0 -450.0 295.0 -506.0 137.0 -506.0 137.0 -170.0 357.0 -59.0 399.0 -82.0 M690.0 206.0 L276.0 380.0 18.0 271.0 77.0 201.0 274.0 285.0 399.0 228.0 399.0 16.0 231.0 101.0 46.0 28.0 46.0 -590.0 310.0 -590.0 399.0 -546.0 399.0 -590.0 690.0 -590.0 690.0 206.0" fill-rule="evenodd" stroke="none"/>
    </g>
    <g id="font_Abadi_MT_Condensed_Extra_Bold__0">
      <path d="M667.0 -36.0 L407.0 101.0 46.0 -13.0 46.0 -590.0 545.0 -590.0 682.0 -377.0 682.0 -315.0 374.0 -268.0 374.0 -347.0 579.0 -378.0 494.0 -509.0 317.0 -509.0 317.0 -136.0 534.0 -59.0 649.0 -121.0 667.0 -36.0 M584.0 -654.0 L451.0 -654.0 347.0 -733.0 244.0 -654.0 111.0 -654.0 284.0 -853.0 411.0 -853.0 584.0 -654.0" fill-rule="evenodd" stroke="none"/>
    </g>
    <g id="font_Abadi_MT_Condensed_Extra_Bold_s0">
      <path d="M618.0 -19.0 L313.0 102.0 10.0 8.0 41.0 -67.0 313.0 16.0 389.0 -13.0 389.0 -138.0 44.0 -250.0 44.0 -548.0 340.0 -615.0 622.0 -528.0 593.0 -453.0 335.0 -536.0 269.0 -517.0 269.0 -413.0 618.0 -301.0 618.0 -19.0" fill-rule="evenodd" stroke="none"/>
    </g>
  </defs>
</svg>
