<?xml version="1.0" encoding="UTF-8" standalone="no"?>
<svg xmlns:ffdec="https://www.free-decompiler.com/flash" xmlns:xlink="http://www.w3.org/1999/xlink" ffdec:objectType="text" height="79.15px" width="242.6px" xmlns="http://www.w3.org/2000/svg">
  <g transform="matrix(1.0, 0.0, 0.0, 1.0, 36.7, -4.95)">
    <g transform="matrix(1.0, 0.0, 0.0, 1.0, -38.5, 0.0)">
      <use fill="#ffffff" fill-opacity="0.9019608" height="79.15" transform="matrix(0.0352, 0.0, 0.0, 0.0352, 0.0, 31.0)" width="242.6" xlink:href="#font_Abadi_MT_Condensed_Extra_Bold_M0"/>
      <use fill="#ffffff" fill-opacity="0.9019608" height="79.15" transform="matrix(0.0352, 0.0, 0.0, 0.0352, 38.5, 31.0)" width="242.6" xlink:href="#font_Abadi_MT_Condensed_Extra_Bold_o0"/>
      <use fill="#ffffff" fill-opacity="0.9019608" height="79.15" transform="matrix(0.0352, 0.0, 0.0, 0.0352, 63.9, 31.0)" width="242.6" xlink:href="#font_Abadi_MT_Condensed_Extra_Bold_r0"/>
      <use fill="#ffffff" fill-opacity="0.9019608" height="79.15" transform="matrix(0.0352, 0.0, 0.0, 0.0352, 85.65, 31.0)" width="242.6" xlink:href="#font_Abadi_MT_Condensed_Extra_Bold_e0"/>
      <use fill="#ffffff" fill-opacity="0.9019608" height="79.15" transform="matrix(0.0352, 0.0, 0.0, 0.0352, 120.15, 31.0)" width="242.6" xlink:href="#font_Abadi_MT_Condensed_Extra_Bold_l0"/>
      <use fill="#ffffff" fill-opacity="0.9019608" height="79.15" transform="matrix(0.0352, 0.0, 0.0, 0.0352, 134.25, 31.0)" width="242.6" xlink:href="#font_Abadi_MT_Condensed_Extra_Bold_a0"/>
      <use fill="#ffffff" fill-opacity="0.9019608" height="79.15" transform="matrix(0.0352, 0.0, 0.0, 0.0352, 160.35, 31.0)" width="242.6" xlink:href="#font_Abadi_MT_Condensed_Extra_Bold_n0"/>
      <use fill="#ffffff" fill-opacity="0.9019608" height="79.15" transform="matrix(0.0352, 0.0, 0.0, 0.0352, 185.6, 31.0)" width="242.6" xlink:href="#font_Abadi_MT_Condensed_Extra_Bold_g0"/>
      <use fill="#ffffff" fill-opacity="0.9019608" height="79.15" transform="matrix(0.0352, 0.0, 0.0, 0.0352, 211.5, 31.0)" width="242.6" xlink:href="#font_Abadi_MT_Condensed_Extra_Bold_u0"/>
      <use fill="#ffffff" fill-opacity="0.9019608" height="79.15" transform="matrix(0.0352, 0.0, 0.0, 0.0352, 236.75, 31.0)" width="242.6" xlink:href="#font_Abadi_MT_Condensed_Extra_Bold_a0"/>
      <use fill="#ffffff" fill-opacity="0.9019608" height="79.15" transform="matrix(0.0352, 0.0, 0.0, 0.0352, 262.85, 31.0)" width="242.6" xlink:href="#font_Abadi_MT_Condensed_Extra_Bold_g0"/>
      <use fill="#ffffff" fill-opacity="0.9019608" height="79.15" transform="matrix(0.0352, 0.0, 0.0, 0.0352, 288.75, 31.0)" width="242.6" xlink:href="#font_Abadi_MT_Condensed_Extra_Bold_e0"/>
      <use fill="#ffffff" fill-opacity="0.9019608" height="79.15" transform="matrix(0.0352, 0.0, 0.0, 0.0352, 313.9, 31.0)" width="242.6" xlink:href="#font_Abadi_MT_Condensed_Extra_Bold_s0"/>
    </g>
    <g transform="matrix(1.0, 0.0, 0.0, 1.0, -38.5, 0.0)">
      <use fill="#ffffff" fill-opacity="0.9019608" height="79.15" transform="matrix(0.0352, 0.0, 0.0, 0.0352, 22.0, 75.0)" width="242.6" xlink:href="#font_Abadi_MT_Condensed_Extra_Bold_c0"/>
      <use fill="#ffffff" fill-opacity="0.9019608" height="79.15" transform="matrix(0.0352, 0.0, 0.0, 0.0352, 45.55, 75.0)" width="242.6" xlink:href="#font_Abadi_MT_Condensed_Extra_Bold_o0"/>
      <use fill="#ffffff" fill-opacity="0.9019608" height="79.15" transform="matrix(0.0352, 0.0, 0.0, 0.0352, 70.95, 75.0)" width="242.6" xlink:href="#font_Abadi_MT_Condensed_Extra_Bold_m0"/>
      <use fill="#ffffff" fill-opacity="0.9019608" height="79.15" transform="matrix(0.0352, 0.0, 0.0, 0.0352, 107.3, 75.0)" width="242.6" xlink:href="#font_Abadi_MT_Condensed_Extra_Bold_i0"/>
      <use fill="#ffffff" fill-opacity="0.9019608" height="79.15" transform="matrix(0.0352, 0.0, 0.0, 0.0352, 121.4, 75.0)" width="242.6" xlink:href="#font_Abadi_MT_Condensed_Extra_Bold_n0"/>
      <use fill="#ffffff" fill-opacity="0.9019608" height="79.15" transform="matrix(0.0352, 0.0, 0.0, 0.0352, 146.65, 75.0)" width="242.6" xlink:href="#font_Abadi_MT_Condensed_Extra_Bold_g0"/>
      <use fill="#ffffff" fill-opacity="0.9019608" height="79.15" transform="matrix(0.0352, 0.0, 0.0, 0.0352, 181.9, 75.0)" width="242.6" xlink:href="#font_Abadi_MT_Condensed_Extra_Bold_s0"/>
      <use fill="#ffffff" fill-opacity="0.9019608" height="79.15" transform="matrix(0.0352, 0.0, 0.0, 0.0352, 205.2, 75.0)" width="242.6" xlink:href="#font_Abadi_MT_Condensed_Extra_Bold_o0"/>
      <use fill="#ffffff" fill-opacity="0.9019608" height="79.15" transform="matrix(0.0352, 0.0, 0.0, 0.0352, 230.6, 75.0)" width="242.6" xlink:href="#font_Abadi_MT_Condensed_Extra_Bold_o0"/>
      <use fill="#ffffff" fill-opacity="0.9019608" height="79.15" transform="matrix(0.0352, 0.0, 0.0, 0.0352, 256.0, 75.0)" width="242.6" xlink:href="#font_Abadi_MT_Condensed_Extra_Bold_n0"/>
    </g>
  </g>
  <defs>
    <g id="font_Abadi_MT_Condensed_Extra_Bold_M0">
      <path d="M1072.0 76.0 L748.0 76.0 687.0 -527.0 667.0 -542.0 432.0 -78.0 179.0 -578.0 111.0 76.0 17.0 76.0 117.0 -884.0 434.0 -279.0 735.0 -884.0 979.0 -752.0 1072.0 76.0" fill-rule="evenodd" stroke="none"/>
    </g>
    <g id="font_Abadi_MT_Condensed_Extra_Bold_o0">
      <path d="M584.0 -98.0 L584.0 -508.0 310.0 -508.0 310.0 -99.0 445.0 -51.0 584.0 -98.0 M674.0 -48.0 L291.0 101.0 47.0 42.0 47.0 -589.0 674.0 -589.0 674.0 -48.0" fill-rule="evenodd" stroke="none"/>
    </g>
    <g id="font_Abadi_MT_Condensed_Extra_Bold_r0">
      <path d="M340.0 76.0 L47.0 76.0 47.0 -589.0 340.0 -589.0 340.0 -561.0 467.0 -614.0 606.0 -586.0 586.0 -507.0 469.0 -530.0 340.0 -469.0 340.0 76.0" fill-rule="evenodd" stroke="none"/>
    </g>
    <g id="font_Abadi_MT_Condensed_Extra_Bold_e0">
      <path d="M667.0 -36.0 L407.0 101.0 46.0 -13.0 46.0 -590.0 545.0 -590.0 682.0 -377.0 682.0 -315.0 374.0 -268.0 374.0 -347.0 579.0 -378.0 494.0 -509.0 317.0 -509.0 317.0 -136.0 534.0 -59.0 649.0 -121.0 667.0 -36.0" fill-rule="evenodd" stroke="none"/>
    </g>
    <g id="font_Abadi_MT_Condensed_Extra_Bold_l0">
      <path d="M347.0 76.0 L54.0 76.0 54.0 -853.0 347.0 -853.0 347.0 76.0" fill-rule="evenodd" stroke="none"/>
    </g>
    <g id="font_Abadi_MT_Condensed_Extra_Bold_a0">
      <path d="M406.0 -87.0 L406.0 -446.0 296.0 -506.0 138.0 -506.0 138.0 -171.0 356.0 -60.0 406.0 -87.0 M695.0 76.0 L406.0 76.0 406.0 11.0 230.0 100.0 47.0 27.0 47.0 -589.0 309.0 -589.0 406.0 -542.0 406.0 -589.0 695.0 -589.0 695.0 76.0" fill-rule="evenodd" stroke="none"/>
    </g>
    <g id="font_Abadi_MT_Condensed_Extra_Bold_n0">
      <path d="M670.0 76.0 L567.0 76.0 567.0 -466.0 447.0 -529.0 336.0 -488.0 336.0 76.0 48.0 76.0 48.0 -589.0 336.0 -589.0 336.0 -574.0 460.0 -614.0 670.0 -517.0 670.0 76.0" fill-rule="evenodd" stroke="none"/>
    </g>
    <g id="font_Abadi_MT_Condensed_Extra_Bold_g0">
      <path d="M399.0 -82.0 L399.0 -450.0 295.0 -506.0 137.0 -506.0 137.0 -170.0 357.0 -59.0 399.0 -82.0 M690.0 206.0 L276.0 380.0 18.0 271.0 77.0 201.0 274.0 285.0 399.0 228.0 399.0 16.0 231.0 101.0 46.0 28.0 46.0 -590.0 310.0 -590.0 399.0 -546.0 399.0 -590.0 690.0 -590.0 690.0 206.0" fill-rule="evenodd" stroke="none"/>
    </g>
    <g id="font_Abadi_MT_Condensed_Extra_Bold_u0">
      <path d="M670.0 76.0 L382.0 76.0 382.0 60.0 257.0 100.0 47.0 3.0 47.0 -589.0 151.0 -589.0 151.0 -47.0 270.0 16.0 382.0 -25.0 382.0 -589.0 670.0 -589.0 670.0 76.0" fill-rule="evenodd" stroke="none"/>
    </g>
    <g id="font_Abadi_MT_Condensed_Extra_Bold_s0">
      <path d="M618.0 -19.0 L313.0 102.0 10.0 8.0 41.0 -67.0 313.0 16.0 389.0 -13.0 389.0 -138.0 44.0 -250.0 44.0 -548.0 340.0 -615.0 622.0 -528.0 593.0 -453.0 335.0 -536.0 269.0 -517.0 269.0 -413.0 618.0 -301.0 618.0 -19.0" fill-rule="evenodd" stroke="none"/>
    </g>
    <g id="font_Abadi_MT_Condensed_Extra_Bold_c0">
      <path d="M645.0 -46.0 L396.0 99.0 47.0 -15.0 47.0 -589.0 498.0 -589.0 643.0 -504.0 608.0 -422.0 472.0 -504.0 328.0 -504.0 328.0 -151.0 530.0 -77.0 622.0 -129.0 645.0 -46.0" fill-rule="evenodd" stroke="none"/>
    </g>
    <g id="font_Abadi_MT_Condensed_Extra_Bold_m0">
      <path d="M987.0 76.0 L884.0 76.0 884.0 -466.0 780.0 -526.0 658.0 -478.0 658.0 76.0 556.0 76.0 556.0 -466.0 454.0 -526.0 326.0 -475.0 326.0 76.0 47.0 76.0 47.0 -589.0 326.0 -589.0 326.0 -562.0 470.0 -614.0 603.0 -545.0 798.0 -614.0 987.0 -517.0 987.0 76.0" fill-rule="evenodd" stroke="none"/>
    </g>
    <g id="font_Abadi_MT_Condensed_Extra_Bold_i0">
      <path d="M347.0 76.0 L54.0 76.0 54.0 -589.0 347.0 -589.0 347.0 76.0 M352.0 -666.0 L49.0 -666.0 49.0 -853.0 352.0 -853.0 352.0 -666.0" fill-rule="evenodd" stroke="none"/>
    </g>
  </defs>
</svg>
