<?xml version="1.0" encoding="UTF-8" standalone="no"?>
<svg xmlns:ffdec="https://www.free-decompiler.com/flash" xmlns:xlink="http://www.w3.org/1999/xlink" ffdec:objectType="text" height="10.2px" width="20.1px" xmlns="http://www.w3.org/2000/svg">
  <g transform="matrix(1.0, 0.0, 0.0, 1.0, -62.2, -1.7)">
    <g transform="matrix(1.0, 0.0, 0.0, 1.0, 62.1, 0.0)">
      <use fill="#ffffff" fill-opacity="0.30588236" height="10.2" transform="matrix(0.0098, 0.0, 0.0, 0.0098, 0.0, 11.0)" width="20.1" xlink:href="#font_Segoe_UI_Bold_v0"/>
      <use fill="#ffffff" fill-opacity="0.30588236" height="10.2" transform="matrix(0.0098, 0.0, 0.0, 0.0098, 5.95, 11.0)" width="20.1" xlink:href="#font_Segoe_UI_Bold_10"/>
      <use fill="#ffffff" fill-opacity="0.30588236" height="10.2" transform="matrix(0.0098, 0.0, 0.0, 0.0098, 12.55, 11.0)" width="20.1" xlink:href="#font_Segoe_UI_Bold_.0"/>
      <use fill="#ffffff" fill-opacity="0.30588236" height="10.2" transform="matrix(0.0098, 0.0, 0.0, 0.0098, 15.0, 11.0)" width="20.1" xlink:href="#font_Segoe_UI_Bold_10"/>
    </g>
  </g>
  <defs>
    <g id="font_Segoe_UI_Bold_v0">
      <path d="M544.0 -1.0 L243.0 102.0 11.0 -589.0 111.0 -589.0 267.0 -122.0 300.0 -135.0 413.0 -589.0 712.0 -589.0 544.0 -1.0" fill-rule="evenodd" stroke="none"/>
    </g>
    <g id="font_Segoe_UI_Bold_10">
      <path d="M629.0 76.0 L319.0 76.0 319.0 -769.0 166.0 -769.0 166.0 -853.0 629.0 -853.0 629.0 76.0" fill-rule="evenodd" stroke="none"/>
    </g>
    <g id="font_Segoe_UI_Bold_.0">
      <path d="M243.0 99.0 L52.0 -91.0 243.0 -282.0 433.0 -91.0 243.0 99.0" fill-rule="evenodd" stroke="none"/>
    </g>
  </defs>
</svg>
