<?xml version="1.0" encoding="UTF-8" standalone="no"?>
<svg xmlns:ffdec="https://www.free-decompiler.com/flash" xmlns:xlink="http://www.w3.org/1999/xlink" ffdec:objectType="frame" height="139.85px" width="209.25px" xmlns="http://www.w3.org/2000/svg">
  <g transform="matrix(1.0, 0.0, 0.0, 1.0, 106.4, 103.55)">
    <use ffdec:characterId="181" height="139.85" transform="matrix(1.0, 0.0, 0.0, 1.0, -106.4, -103.55)" width="209.25" xlink:href="#shape0"/>
  </g>
  <defs>
    <g id="shape0" transform="matrix(1.0, 0.0, 0.0, 1.0, 106.4, 103.55)">
      <path d="M-51.75 36.1 L-55.15 36.1 -56.1 35.7 -56.15 35.7 Q-67.2 35.7 -76.5 31.55 -84.8 27.85 -91.7 20.95 L-96.0 16.15 -97.4 14.3 Q-106.4 1.75 -106.4 -14.5 -106.4 -35.3 -91.7 -50.0 -84.6 -57.15 -76.05 -60.8 L-72.0 -62.35 -71.35 -62.55 Q-64.85 -64.55 -57.55 -64.65 -56.05 -70.0 -53.45 -74.85 -49.7 -81.8 -43.75 -87.8 -28.7 -102.85 -7.7 -103.55 L-3.35 -103.55 Q9.15 -103.15 19.5 -97.6 L23.7 -95.15 25.1 -94.15 Q29.05 -91.4 32.65 -87.8 L34.4 -86.0 Q40.95 -88.0 48.45 -88.0 63.2 -88.0 74.65 -80.05 78.15 -77.6 81.4 -74.4 95.05 -60.7 95.05 -41.4 L95.05 -41.3 Q102.85 -29.35 102.85 -14.2 102.85 6.7 88.0 21.5 73.2 36.3 52.3 36.3 L48.45 36.2 -51.75 36.3 -51.75 36.1" fill="#ffffff" fill-rule="evenodd" stroke="none"/>
      <path d="M-51.75 36.1 L-51.75 36.3 -54.9 36.3 -51.75 36.1" fill="#e1e1e1" fill-rule="evenodd" stroke="none"/>
    </g>
  </defs>
</svg>
